<?xml version="1.0" encoding="utf-8"?>
<!-- Generator: Adobe Illustrator 25.3.1, SVG Export Plug-In . SVG Version: 6.00 Build 0)  -->
<svg version="1.1" id="圖層_1" xmlns="http://www.w3.org/2000/svg" xmlns:xlink="http://www.w3.org/1999/xlink" x="0px" y="0px"
	 viewBox="0 0 576 900" style="enable-background:new 0 0 576 900;" xml:space="preserve">
<style type="text/css">
	.st0{clip-path:url(#SVGID_2_);fill:#FFFFFF;}
	.st1{opacity:0.5;clip-path:url(#SVGID_2_);}
	.st2{opacity:0.5;fill:#A1BFBA;}
	.st3{opacity:0.3;fill:#FFFFFF;}
	.st4{opacity:0.4;fill:#FFFFFF;}
	.st5{clip-path:url(#SVGID_2_);}
	.st6{fill:#D5D5D5;}
	.st7{opacity:0.4;}
	.st8{fill:#93AEB7;}
	.st9{fill:#EEEBE8;}
	.st10{fill:#BBB6B1;}
	.st11{fill:#1C1817;}
	.st12{filter:url(#Adobe_OpacityMaskFilter);}
	.st13{filter:url(#Adobe_OpacityMaskFilter_1_);}
	.st14{clip-path:url(#SVGID_2_);mask:url(#SVGID_3_);fill:url(#SVGID_4_);}
	.st15{opacity:0.18;clip-path:url(#SVGID_2_);fill:url(#SVGID_5_);}
	.st16{opacity:0.2;clip-path:url(#SVGID_2_);}
	.st17{fill:#FFFFFF;}
	.st18{fill:#BADDC1;}
	.st19{fill:#79B79F;}
	.st20{fill:#1B2B20;}
	.st21{fill:#85A98C;}
	.st22{fill:#B6DBBD;}
	.st23{fill:#8DB5A3;}
	.st24{fill:#5C8A79;}
	.st25{fill:#1B2E21;}
	.st26{fill:#87B19A;}
	.st27{fill:#7C8184;}
	.st28{fill:#E2E1E1;}
	.st29{fill:#77848B;}
	.st30{fill:#E8EEF2;}
	.st31{fill:#B6BDC2;}
	.st32{fill:#4F2B2B;}
	.st33{fill:#EAE0D7;}
	.st34{fill:#C6AF9B;}
	.st35{fill:#A19387;}
	.st36{fill:#5D4731;}
	.st37{fill:#AAA9A9;}
	.st38{fill:#A35C4E;}
	.st39{fill:#DDC7C4;}
	.st40{opacity:0.74;fill:#767777;}
	.st41{fill:#C4A664;}
	.st42{opacity:0.4;fill:#C1C0C0;}
	.st43{fill:#E3E3E3;}
	.st44{fill:#DBDBDB;}
	.st45{fill:#B4B4B5;}
</style>
<g>
	<defs>
		<rect id="SVGID_1_" x="-5.4" y="-10.2" width="587.3" height="915.2"/>
	</defs>
	<clipPath id="SVGID_2_">
		<use xlink:href="#SVGID_1_"  style="overflow:visible;"/>
	</clipPath>
	<rect x="-24.4" y="-26.3" class="st0" width="1153.8" height="658.1"/>
	<g class="st1">
		<rect x="-10.9" y="-13.6" class="st2" width="1130.8" height="639.2"/>
		<polygon class="st3" points="369.1,623.2 -18.9,623.2 376.1,-13.3 764.2,-13.3 		"/>
		<polygon class="st4" points="549.8,623.2 407.1,623.2 802.2,-13.3 944.8,-13.3 		"/>
		<polygon class="st4" points="687.8,623.2 591,623.2 986,-13.3 1082.8,-13.3 		"/>
		<polygon class="st4" points="-10.9,476.9 293.3,-13.3 196.5,-13.3 -10.9,320.9 		"/>
	</g>
	<g class="st5">
		<g>
			<g>
				<path class="st6" d="M1110.1,457.4c-0.5,0.1-1,0.1-1.4,0.1H353.1c1.7-4.2,1.4-9.3-0.9-13.1c-2.3-3.7-6.1-5.7-10.7-5.7
					c-1.6,0-3,0.2-4.4,0.7V-8.2h-1.3v449.4l0.9-0.4c1.5-0.6,3.1-0.9,4.8-0.9c4.2,0,7.6,1.8,9.7,5.1c2.3,3.7,2.4,8.9,0.4,12.8
					l-0.5,0.9h757.5c0.5,0,1,0,1.4-0.1V457.4z"/>
			</g>
		</g>
		<g>
			<g>
				<path class="st6" d="M174.5-8.2v447.5c-1.4-0.5-2.8-0.7-4.4-0.7c-4.7,0-8.5,2-10.7,5.7c-2.3,3.8-2.7,8.9-0.9,13.1H-8.8v1.3
					h169.3l-0.5-0.9c-2-4-1.8-9.1,0.4-12.8c2-3.3,5.4-5.1,9.7-5.1c1.7,0,3.3,0.3,4.8,0.9l0.9,0.4V-8.2H174.5z"/>
			</g>
		</g>
		<g class="st7">
			<rect x="188.1" y="-8.8" class="st8" width="129.9" height="544.9"/>
		</g>
		<g class="st7">
			<rect x="714.1" y="-8.8" class="st8" width="234.7" height="544.9"/>
		</g>
		<g>
			<rect x="490.9" y="-8.5" class="st9" width="11.3" height="549.5"/>
		</g>
		<g>
			<rect x="64" y="-8.7" class="st9" width="9.6" height="549.7"/>
		</g>
	</g>
	<g class="st5">
		<g>
			<rect x="691.4" y="-8.7" class="st9" width="9.6" height="549.7"/>
		</g>
		<g>
			<rect x="961.3" y="-8.5" class="st9" width="11.3" height="549.5"/>
		</g>
		<g>
			<rect x="617.3" y="23.5" class="st10" width="627.8" height="16.3"/>
		</g>
		<g>
			<rect x="617.3" y="-8.5" class="st10" width="627.8" height="27.6"/>
		</g>
		<g>
			<g>
				<path class="st11" d="M1161.8,150.8v-31c0-5.4-4.5-9.9-10-9.9s-10,4.5-10,9.9v31H1161.8z"/>
			</g>
			<g>
				<rect x="1151.6" y="-8.2" class="st11" width="0.5" height="147.1"/>
			</g>
		</g>
	</g>
	<defs>
		<filter id="Adobe_OpacityMaskFilter" filterUnits="userSpaceOnUse" x="287.7" y="518.3" width="414.6" height="23">
			<feFlood  style="flood-color:white;flood-opacity:1" result="back"/>
			<feBlend  in="SourceGraphic" in2="back" mode="normal"/>
		</filter>
	</defs>
	<mask maskUnits="userSpaceOnUse" x="287.7" y="518.3" width="414.6" height="23" id="SVGID_3_">
		<g class="st12">
			<defs>
				<filter id="Adobe_OpacityMaskFilter_1_" filterUnits="userSpaceOnUse" x="287.7" y="518.3" width="414.6" height="23">
					<feFlood  style="flood-color:white;flood-opacity:1" result="back"/>
					<feBlend  in="SourceGraphic" in2="back" mode="normal"/>
				</filter>
			</defs>
			<mask maskUnits="userSpaceOnUse" x="287.7" y="518.3" width="414.6" height="23" id="SVGID_3_">
				<g class="st13">
				</g>
			</mask>
			<linearGradient id="SVGID_4_" gradientUnits="userSpaceOnUse" x1="495.726" y1="513.4844" x2="494.161" y2="546.3485">
				<stop  offset="8.000000e-08" style="stop-color:#808080"/>
				<stop  offset="0.2237" style="stop-color:#979797"/>
				<stop  offset="0.6926" style="stop-color:#D4D4D4"/>
				<stop  offset="1" style="stop-color:#FFFFFF"/>
			</linearGradient>
			<ellipse class="st14" cx="494.9" cy="529.9" rx="207.3" ry="11.5"/>
		</g>
	</mask>
	<linearGradient id="SVGID_5_" gradientUnits="userSpaceOnUse" x1="495.726" y1="513.4844" x2="494.161" y2="546.3485">
		<stop  offset="8.000000e-08" style="stop-color:#2B2D1A"/>
		<stop  offset="0.1461" style="stop-color:#424332"/>
		<stop  offset="0.4549" style="stop-color:#7C7C6F"/>
		<stop  offset="0.8979" style="stop-color:#D8D5D1"/>
		<stop  offset="1" style="stop-color:#EEEBE8"/>
	</linearGradient>
	<ellipse class="st15" cx="494.9" cy="529.9" rx="207.3" ry="11.5"/>
	<g class="st5">
		<polyline class="st9" points="423.9,909.9 1111.9,909.9 1111.9,507 1111.4,507 1111.4,502.5 -12.3,502.5 -12.1,909.5 		"/>
		<rect x="-12.9" y="460.8" class="st9" width="1123" height="6.4"/>
		<rect x="-12.2" y="474.5" class="st9" width="1122" height="5.8"/>
		<rect x="-12.9" y="488.8" class="st9" width="1123.4" height="5.8"/>
	</g>
	<g class="st16">
		<g>
			<path class="st17" d="M670.5,569.6h-17c-3.9,0-7.2,1.9-7.3,4.3l-3.7,49.9c-0.2,2.6,3.1,4.7,7.3,4.7h23.5c4.2,0,7.5-2.1,7.3-4.7
				l-2.9-49.9C677.7,571.5,674.5,569.6,670.5,569.6z"/>
			<path class="st18" d="M668.5,688.2c-0.1-1-0.3-2-0.6-3c-0.2-0.6-1.6-0.8-2.2-0.3c-0.1,0-0.1,0.1-0.2,0.1
				c-0.5,0.5-1.7,0.4-2.1-0.1l0,0c-1.7-2.3-0.5-4.8-2.2-6.9c-2.4-3.1-4.8-4.8-5.7-8.4c-0.6-2.3-1-5.1,2.2-6.8c1.1-0.6,3.1,0,4.1-0.9
				c0.9-0.7,0.5-2.4,0.4-3.4c-0.4-4.6-0.5-9.6-0.5-14.3c0-0.8,0-1.5,0-2.3c0-0.3,0.4-0.5,0.8-0.4c0,0,0,0,0,0c0.4,0,0.7,0.2,0.7,0.5
				c-0.1,2.4-0.2,4.8,0,7.1c0.2,2.7-0.3,5.9,0.5,8.6c1.2,3.9,3.2,7.6,4.9,6.7c0.2-0.1,0.3-0.1,0.5-0.1c9.2-0.7,5.8,14.9,6.7,18.3
				c0.7,2.5,3.5,4.6,5,7c0,0,0,0,0,0.1c1.1,1.7-2.1,3.2-4.5,2.2c-2.5-1-5.1-1.9-7.4-3C668.7,688.6,668.6,688.4,668.5,688.2z"/>
			<path class="st18" d="M660.4,651.9c0.8,0.2,1.4,0.6,1.5,1.2c1.3,3.9-2.9,6.5-8.9,8c-4.3,1.1-4.6,1.1-6.9,3.9
				c-3.5,4.3-5.6,4.1-12,6c-2.5,0.8-5.7,3.6-9,5.6c-2.5,1.5-6.4-0.7-4-2.3c2.6-1.7,6.2-3.4,6.8-5.1c0.8-2.1-1.3-4.6,0.9-6.5
				c2.6-2.3,5.3-0.5,8.6-1.3c4.6-1.2,3-5.7,7.3-7.9C648.5,651.6,655.6,650.6,660.4,651.9z"/>
			<path class="st19" d="M683.2,673.5c-4.2,0.2-9.3-0.9-12-2.9c-1.1-0.8-1.1-1.9-2.6-2.6c-1.8-0.8-4.1-0.6-5.8-1.2
				c-6.7-2.4-9.3-8.8-8-13.3c0.7-2.2,3.2-3.7,4.4-5.6c1-1.6,1-3.9,1.2-5.5c0,0,0,0,0,0c0-0.5,0.7-0.9,1.5-0.8c0.1,0,0.2,0,0.2,0
				c0,0.1,0,0.3,0,0.4c0,2.1-0.6,4.5,0.5,6.5c1.1,2.2,3.6,4.3,4.9,6.4c2,3.3,3.7,4.2,8.6,6.2c4.6,1.9,6.5,5.2,11.9,6.3
				c4.7,1,10,1,15.3,0.9c1.6,0,2,1.4,0.5,1.7C696.8,671.2,690,673.1,683.2,673.5z"/>
			<path class="st20" d="M660.6,641.5l-1,2.4c-0.1,0.2-0.2,0.3-0.3,0.5c-4.4,4.3-6.5,8.5-14.4,10.6c-3.8,1-8.9,2.6-13,2.9
				c-6.1,0.4-9.9-0.6-15.4,2c-2.1,1-3.4,2.4-6.1,3c0,0,0,0-0.1,0c-3,0.6-5.1-2-2.5-3.1c2.9-1.3,6.4-2.4,8.4-2.7
				c3.6-0.5,6.8,0,10-1.1c4-1.4,5-4.3,8.6-6c4.9-2.4,11.7-2.2,17.4-3.2C656.9,646,659.2,644.3,660.6,641.5z"/>
			<path class="st21" d="M615.7,658.4c1.3,0,1.8,1,0.8,1.5l0,0c-2.1,1-3.4,2.4-6.1,3c0,0,0,0-0.1,0c-3,0.6-5.1-2-2.5-3.1
				c0.8-0.4,1.7-0.7,2.5-1c0.1,0,0.3-0.1,0.4-0.1C612.2,658.4,613.9,658.3,615.7,658.4z"/>
			<path class="st20" d="M648.1,644.2c-2.9,1.8-4.2,1.7-8.5,1.7c0,0,0,0,0,0c-1.7,0-3.3-0.4-4.4-1.2c-0.3-0.2-0.6-0.3-0.8-0.5
				c0.1,0,0.2,0.1,0.3,0.1c2.3-1.5,5.8-2.7,9.4-3.8C647.6,639.5,651,642.4,648.1,644.2C648.1,644.2,648.1,644.2,648.1,644.2z"/>
			<path class="st22" d="M631.8,646.2c-1.7,0.2-3.2,0.5-4.9,1.1c-1.4,0.4-3.1,0.1-3.8-0.8c-1.9-2.3-5.3-4.3-6.4-7
				c-0.4-1.1-1-2.3-1.4-3.6c-0.7-2,3.9-3,5.3-1.1c1.2,1.5,2.2,3,3.3,4c2.3,2,5.8,3,8.9,4.4c0.2,0.1,0.4,0.2,0.5,0.3c0,0,0,0,0.1,0
				C634.8,644.4,633.9,646,631.8,646.2z"/>
			<path class="st19" d="M650.4,682.1c-0.8,1.2-1.9,2.4-3.3,3.5c-0.4,0.3-1.2,0.2-1.3-0.2l0,0c-0.1-0.5-1.2-0.5-1.4,0
				c-0.3,0.8-0.4,1.7-0.5,2.6c0,0.1-0.1,0.2-0.2,0.3c-0.5,0.3-0.9,0.7-1.4,1c-4.8,3.5-11,7.2-17.7,10.2c-1.9,0.9-4.4-0.6-2.9-1.8
				c5.5-4.5,9.5-9.9,13-14.6c2.5-3.4,4.9-7,8.5-9.9c2.1-1.7,3.9-3,5.1-3.6c0.5-0.3,1.3,0.1,1.1,0.5
				C647.3,673.6,652.9,678.4,650.4,682.1z"/>
			<path class="st20" d="M647.1,673.7c-1.4,4.3-1.5,8.3-5,12.3c-2.4,2.8-5.7,5.1-9,7.4c-0.4,0.3-1.2,0.1-1.3-0.3l0,0
				c-0.1-0.5-1.1-0.6-1.4-0.1c-0.6,0.9-0.9,1.8-1,2.8c0,0.1-0.1,0.2-0.2,0.3c-0.4,0.3-0.8,0.5-1.2,0.8c-1.2,0.9-2.5,1.8-3.8,2.6
				c0,0-0.1,0-0.1,0.1c0,0-0.1,0-0.1,0.1c-1.8,0.8-4.2-0.6-2.8-1.7c5.5-4.5,9.4-10,12.9-14.8c2.4-3.4,4.7-7,8.2-9.9
				c2-1.6,4.1-2.9,5.7-3.4c0.7-0.2,1.4,0.2,1,0.6C648.1,671.4,647.5,672.5,647.1,673.7z"/>
			<path class="st23" d="M707.8,681.1c5.1,4.6,13.2,4.1,19.3,1c3.1-1.6,5-1.8,8.8-2.3c3.8-0.4,6.9-1.6,10.5-2.7c0,0,0.1,0,0.1,0
				c1.8-0.5,1-2.2-1-2.1c-6.7,0.6-14.4,0.3-19.4,0.3C723,675.3,704,677.6,707.8,681.1z"/>
			<path class="st24" d="M713.3,680c-6.6,1.7-15.5,1.8-21.5-0.9c-2.8-1.3-4.1-2.5-7.4-3c-2.8-0.4-5.7-0.3-8.5-0.8
				c-7.8-1.5-7.7-4.9-10.3-8.9c-1.7-2.6-3.8-5.2-3.5-8.1c0.3-3.1,2.1-11.2,2.1-14.5c0,0,0.1,0,0.2-0.1c1-0.2,2,0.4,1.7,1
				c-1.3,3.5,0.5,7.9,1.3,9.2c1.3,2,2.4,2.9,2.7,5.1c0.3,2.2,2.4,4.8,4.6,6.8c2.3,2.1,4.2,1.9,7.8,3.4c2.8,1.2,2.9,2.9,4.6,4.1
				c1.5,1.1,6.6,2.5,9.4,3.1c3.2,0.7,5.6,0,9.1,0c2.1,0,4.1-0.1,6.2-0.3c3.8-0.3,5.3,2.9,1.8,3.8C713.4,680,713.4,680,713.3,680z"/>
			<path class="st18" d="M680.2,656.1c-1-1.1,0.4-2.4,2.4-2.3c0.5,0,1,0,1.5-0.1c4-0.8,2.8-3.6,4.7-5.3c2.6-2.3,9.3-2.7,12.3-5.2
				c2.9-2.4,2.6-4.9,4.2-7.4c0,0,0-0.1,0.1-0.1c1-1.6,4.8-1.1,4.9,0.6c0,1,0.2,2.1,0.3,3.4c0.1,1.8,0.4,3-1.3,4.7
				c-1.2,1.2-4,1.9-4.9,3.1c-1.6,2.3,0.5,5.5-4.6,6.9c-2,0.5-4.6-0.3-6.5-0.2c-2.1,0.1-3.9,0.4-5.6,1.1
				C683,657.3,681.3,657.3,680.2,656.1z"/>
			<path class="st25" d="M687.4,651.1c0.5-1.8-5.7-2.3-7.9-3.4c-0.1-0.1-0.2-0.1-0.3-0.2c-1.6-0.9-4.1-0.3-4.4,1
				c-0.7,3.7-0.8,7.8,3.1,9C684.2,659.7,686.5,652.7,687.4,651.1z"/>
			<g>
				<path class="st25" d="M662,644.2l-0.6,0c1.6,20.3-13.4,25.8-13.5,25.8l0.3,0.3C648.4,670.3,663.7,664.7,662,644.2z"/>
			</g>
			<g>
				<path class="st25" d="M671,628.8l-0.6,0c0.5,2.9-2.4,6.2-3.5,7.5c-0.3,0.4-0.4,0.5-0.4,0.5l0.6,0.1c0,0,0.2-0.2,0.4-0.4
					C668.6,635.2,671.5,631.8,671,628.8z"/>
			</g>
			<g>
				<path class="st25" d="M672.9,628.5l-0.5,0.2c4.7,5.3,3,20.2,3,20.3l0.6,0C676,648.4,677.6,633.9,672.9,628.5z"/>
			</g>
			<g>
				<path class="st25" d="M662.5,628.7c-0.8,6.2-10.1,8.9-10.2,8.9l0.2,0.3c0.1,0,9.7-2.8,10.5-9.2L662.5,628.7z"/>
			</g>
			<path class="st26" d="M664.6,643.8c-3.4,0.3-8.5,0.2-12.9,0.2c-1.3,0-2.4-0.5-2.8-1.3c-0.6-1.2-1.5-2.2-1.2-3.4
				c0.1-0.7-0.3-1.4-1.2-1.7c-1.8-0.8-0.9-2.9-0.1-4.4c0.4-0.6,0.1-1.3-0.6-1.8c-0.5-0.3-0.8-0.7-1.1-1.1c-1.8-3.3,6.3-5.2,8.7-1.9
				c0.1,0.2,0.3,0.4,0.4,0.5c1.8,1.9,3,3.8,3.9,5.9c0,0.1,0.1,0.2,0.1,0.3c0.2,1.6-0.9,4.2,1.2,4.2c0.4,0,2.1,0.3,2.6-0.3
				c0.9,0,1.8-0.2,2.7-0.5c1.5-0.6,3.6-0.3,4.4,0.7c0.6,0.8,1.3,1.6,1.7,2.6c0.6,1.3-1.1,2.5-3.3,2.3c-0.5,0-1-0.1-1.6-0.1
				C665.2,643.7,664.9,643.7,664.6,643.8z"/>
		</g>
		<path class="st20" d="M658.8,639.4c5.6-0.3,5.2,3.1,9.4,4.4c2,0.6,4.1,0.8,4.5-0.8c0.4-1.4-1.9-2.9-3-4c-1.1-1.2-2.3-3-1.1-4.4
			c-1.5,1-1.4,1.7-4.1,2.4C662.4,637.5,661.3,638.3,658.8,639.4z"/>
	</g>
	<g class="st5">
		<g>
			<g>
				<path class="st27" d="M259.2,232c0,0,31.2-2.7,65.7,1.1l-25.6,3.8l-31.6-1.8L259.2,232z"/>
				<path class="st28" d="M259.2,232c0,0,14.5,4.5,65.7,1.1c0,0,0.5,8.7-33.7,8C258.5,240.4,259.2,232,259.2,232z"/>
			</g>
			<g>
				<path class="st27" d="M259.2,224.9c0,0,31.2-2.7,65.7,1.1l-25.6,3.8l-31.6-1.8L259.2,224.9z"/>
				<path class="st28" d="M259.2,224.9c0,0,14.5,4.6,65.7,1.1c0,0,0.5,8.7-33.7,8C258.5,233.3,259.2,224.9,259.2,224.9z"/>
			</g>
			<g>
				<path class="st27" d="M259.2,217.7c0,0,31.2-2.7,65.7,1.1l-25.6,3.8l-31.6-1.8L259.2,217.7z"/>
				<path class="st28" d="M259.2,217.7c0,0,14.5,4.5,65.7,1.1c0,0,0.5,8.7-33.7,8C258.5,226.2,259.2,217.7,259.2,217.7z"/>
			</g>
		</g>
		<polygon class="st8" points="446.2,248.8 263,248.8 261.4,240.9 446.2,240.9 		"/>
		<g>
			<g>
				<g>
					<path class="st29" d="M278.8,246.7c0,0,3.5,13.8,1.2,27.3l-5.2-14L278.8,246.7z"/>
					<path class="st30" d="M278.8,246.7c-0.1,0-0.3,0-0.4,0l-0.4-2.8l-0.1-0.3c-0.3-0.7-1.4-1.8-3.4-1.5c-0.1,0-0.3,0-0.5,0
						c-1.8,0.1-5.8,1-6.3,3.4c0,0.2,0,0.4,0.1,1.4c0,0.8,0.2,1.8,0.6,2.7c-1.5,1.1-2.7,2.4-3.5,4.1c-0.9,1.8-1.2,5.2-1.1,7.2
						c0.1,1.4,0.4,4.2,0.9,5.4c2.3,5.5,8.4,7.8,15.5,7.5c0,0-1.6-3.4-2-13.6C277.5,250.1,278.8,246.7,278.8,246.7z M269.7,246
						c0-0.1,0.5-1.5,4.3-1.7c0.4,0,0.7-0.1,0.8-0.1c0.6-0.1,0.9,0.1,1.1,0.2l0.4,2.4c-2.3,0.3-4.4,0.9-6.2,1.7
						C269.6,247.7,269.6,246.6,269.7,246z"/>
					<g>
						<path class="st31" d="M279.2,270.9c-6-0.5-10.1-3-12.1-7.9c-0.5-1.4-1-4.4-1-5.9c-0.1-1.6,0.1-4,0.6-5.9
							c-0.7,0.8-1.4,1.7-1.9,2.7c-0.9,1.8-1.2,5.2-1.1,7.2c0.1,1.4,0.4,4.2,0.9,5.4c2.3,5.5,8.4,7.8,15.5,7.5L279.2,270.9z"/>
					</g>
				</g>
				<path class="st32" d="M274.4,246c0,0.7-0.6,1.3-1.3,1.3c-0.7,0-1.3-0.6-1.3-1.3c0-0.7,0.6-1.3,1.3-1.3
					C273.8,244.7,274.4,245.3,274.4,246z"/>
			</g>
			<g>
				<g>
					<path class="st29" d="M300.1,245.5c0,0,8.2,11.6,11.1,25l-9.9-11.2L300.1,245.5z"/>
					<path class="st30" d="M300.1,245.5c-0.1,0.1-0.2,0.1-0.4,0.2l-1.4-2.4l-0.2-0.2c-0.6-0.5-2-1.2-3.7-0.1c-0.1,0-0.2,0.1-0.4,0.2
						c-1.7,0.8-5.1,3-4.7,5.5c0,0.2,0.2,0.3,0.6,1.3c0.3,0.8,0.8,1.6,1.5,2.3c-1,1.5-1.7,3.2-1.8,5.1c-0.2,2,0.7,5.3,1.6,7.1
						c0.6,1.3,1.9,3.7,2.9,4.7c4.1,4.3,10.7,4.3,17.2,1.4c0,0-2.7-2.6-6.9-12C300.1,249.2,300.1,245.5,300.1,245.5z M291.4,248.2
						c0-0.1,0-1.6,3.4-3.1c0.4-0.2,0.7-0.3,0.7-0.3c0.6-0.3,0.9-0.3,1.1-0.2l1.2,2.1c-2,1.1-3.8,2.4-5.1,3.9
						C291.9,249.8,291.5,248.8,291.4,248.2z"/>
					<g>
						<path class="st31" d="M309.2,268c-5.8,1.7-10.6,0.8-14.2-3c-1-1.1-2.5-3.7-3.1-5.1c-0.7-1.5-1.3-3.8-1.6-5.7
							c-0.4,1-0.7,2.1-0.8,3.2c-0.2,2,0.7,5.3,1.6,7.1c0.6,1.3,1.9,3.7,2.9,4.7c4.1,4.3,10.7,4.3,17.2,1.4L309.2,268z"/>
					</g>
				</g>
				<path class="st32" d="M297.1,246c0,0.7-0.6,1.3-1.3,1.3c-0.7,0-1.3-0.6-1.3-1.3c0-0.7,0.6-1.3,1.3-1.3
					C296.5,244.7,297.1,245.3,297.1,246z"/>
			</g>
			<g>
				<g>
					<path class="st29" d="M378.7,246.7c0,0,3.4,13.8,1.2,27.3l-5.2-14L378.7,246.7z"/>
					<path class="st30" d="M378.7,246.7c-0.1,0-0.3,0-0.4,0l-0.5-2.8l-0.1-0.3c-0.3-0.7-1.4-1.8-3.4-1.5c-0.1,0-0.3,0-0.5,0
						c-1.8,0.1-5.8,1-6.3,3.4c0,0.2,0,0.4,0.1,1.4c0,0.8,0.2,1.8,0.6,2.7c-1.5,1.1-2.7,2.4-3.5,4.1c-0.8,1.8-1.2,5.2-1.1,7.2
						c0.1,1.4,0.4,4.2,0.9,5.4c2.2,5.5,8.4,7.8,15.5,7.5c0,0-1.6-3.4-2.1-13.6C377.5,250.1,378.7,246.7,378.7,246.7z M369.6,246
						c0-0.1,0.5-1.5,4.3-1.7c0.4,0,0.7-0.1,0.7-0.1c0.7-0.1,1,0.1,1.1,0.2l0.4,2.4c-2.3,0.3-4.4,0.9-6.2,1.7
						C369.6,247.7,369.6,246.6,369.6,246z"/>
					<g>
						<path class="st31" d="M379.1,270.9c-6-0.5-10.1-3-12.1-7.9c-0.6-1.4-1-4.4-1-5.9c-0.1-1.6,0.1-4,0.6-5.9
							c-0.8,0.8-1.4,1.7-1.9,2.7c-0.8,1.8-1.2,5.2-1.1,7.2c0.1,1.4,0.4,4.2,0.9,5.4c2.2,5.5,8.4,7.8,15.5,7.5L379.1,270.9z"/>
					</g>
				</g>
				<path class="st32" d="M374.4,246c0,0.7-0.6,1.3-1.3,1.3c-0.7,0-1.3-0.6-1.3-1.3c0-0.7,0.6-1.3,1.3-1.3
					C373.8,244.7,374.4,245.3,374.4,246z"/>
			</g>
			<g>
				<g>
					<path class="st29" d="M400,245.5c0,0,8.2,11.6,11.1,25l-9.9-11.2L400,245.5z"/>
					<path class="st30" d="M400,245.5c-0.1,0.1-0.3,0.1-0.4,0.2l-1.4-2.4l-0.2-0.2c-0.5-0.5-2-1.2-3.7-0.1c-0.1,0-0.2,0.1-0.4,0.2
						c-1.7,0.8-5.1,3-4.7,5.5c0,0.2,0.1,0.3,0.6,1.3c0.3,0.8,0.8,1.6,1.5,2.3c-1,1.5-1.7,3.2-1.8,5.1c-0.2,2,0.7,5.3,1.6,7.1
						c0.6,1.3,1.9,3.7,2.9,4.7c4.1,4.3,10.7,4.3,17.2,1.4c0,0-2.7-2.6-6.9-12C400.1,249.2,400,245.5,400,245.5z M391.3,248.2
						c0-0.1,0-1.6,3.4-3.1c0.4-0.2,0.7-0.3,0.7-0.3c0.6-0.3,0.9-0.3,1.1-0.2l1.2,2.1c-2,1.1-3.8,2.4-5.1,3.9
						C391.8,249.8,391.4,248.8,391.3,248.2z"/>
					<g>
						<path class="st31" d="M409.1,268c-5.8,1.7-10.5,0.8-14.2-3c-1-1.1-2.5-3.7-3.1-5.1c-0.7-1.5-1.3-3.8-1.6-5.7
							c-0.4,1-0.7,2.1-0.8,3.2c-0.2,2,0.7,5.3,1.6,7.1c0.6,1.3,1.9,3.7,2.9,4.7c4.1,4.3,10.7,4.3,17.2,1.4L409.1,268z"/>
					</g>
				</g>
				<path class="st32" d="M397,246c0,0.7-0.6,1.3-1.3,1.3c-0.7,0-1.3-0.6-1.3-1.3c0-0.7,0.6-1.3,1.3-1.3
					C396.4,244.7,397,245.3,397,246z"/>
			</g>
			<g>
				<g>
					<path class="st29" d="M331.5,246.7c0,0,2.8,14-0.1,27.4l-4.5-14.2L331.5,246.7z"/>
					<path class="st30" d="M331.5,246.7c-0.2,0-0.3,0-0.4,0l-0.3-2.8l-0.1-0.3c-0.3-0.7-1.3-1.9-3.4-1.6c-0.1,0-0.3,0-0.5,0
						c-1.8,0-5.8,0.7-6.5,3.1c0,0.2,0,0.4,0,1.4c0,0.8,0.1,1.8,0.5,2.7c-1.5,1-2.8,2.3-3.7,3.9c-0.9,1.7-1.5,5.1-1.5,7.2
						c0,1.4,0.2,4.2,0.7,5.5c2,5.6,8,8.2,15.2,8.2c0,0-1.4-3.5-1.4-13.7C330,250.2,331.5,246.7,331.5,246.7z M322.4,245.7
						c0-0.1,0.6-1.4,4.4-1.5c0.4,0,0.7,0,0.8,0c0.7-0.1,0.9,0.1,1.1,0.3l0.3,2.4c-2.3,0.2-4.4,0.6-6.2,1.4
						C322.3,247.3,322.3,246.2,322.4,245.7z"/>
					<g>
						<path class="st31" d="M330.7,270.9c-5.9-0.8-10-3.5-11.7-8.5c-0.5-1.4-0.7-4.4-0.7-5.9c0-1.6,0.3-4,0.9-5.9
							c-0.8,0.7-1.5,1.6-2,2.6c-0.9,1.7-1.5,5.1-1.5,7.2c0,1.4,0.2,4.2,0.7,5.5c2,5.6,8,8.2,15.2,8.2L330.7,270.9z"/>
					</g>
				</g>
				<path class="st32" d="M326.1,246c0,0.7-0.6,1.3-1.3,1.3c-0.7,0-1.3-0.6-1.3-1.3c0-0.7,0.6-1.3,1.3-1.3
					C325.5,244.7,326.1,245.3,326.1,246z"/>
			</g>
			<g>
				<g>
					<path class="st29" d="M355.5,246.7c0,0,2.8,14-0.1,27.4l-4.5-14.2L355.5,246.7z"/>
					<path class="st30" d="M355.5,246.7c-0.1,0-0.3,0-0.4,0l-0.3-2.8l-0.1-0.3c-0.3-0.7-1.3-1.9-3.4-1.6c-0.1,0-0.3,0-0.5,0
						c-1.8,0-5.8,0.7-6.5,3.1c0,0.2,0,0.4,0,1.4c0,0.8,0.1,1.8,0.4,2.7c-1.5,1-2.8,2.3-3.7,3.9c-0.9,1.7-1.5,5.1-1.5,7.2
						c0,1.4,0.2,4.2,0.7,5.5c2,5.6,8,8.2,15.2,8.2c0,0-1.4-3.5-1.4-13.7C354.1,250.1,355.5,246.7,355.5,246.7z M346.5,245.7
						c0-0.1,0.6-1.4,4.4-1.5c0.4,0,0.7,0,0.7,0c0.7-0.1,0.9,0.1,1.1,0.2l0.3,2.4c-2.3,0.2-4.4,0.7-6.2,1.5
						C346.3,247.3,346.3,246.2,346.5,245.7z"/>
					<g>
						<path class="st31" d="M354.7,270.9c-6-0.8-10-3.5-11.7-8.5c-0.5-1.4-0.7-4.4-0.7-5.9c0-1.6,0.3-4,0.9-5.9
							c-0.8,0.7-1.5,1.6-2,2.6c-0.9,1.7-1.5,5.1-1.5,7.2c0,1.4,0.2,4.2,0.7,5.5c2,5.6,8,8.2,15.2,8.2L354.7,270.9z"/>
					</g>
				</g>
				<path class="st32" d="M350.8,246c0,0.7-0.6,1.3-1.3,1.3c-0.7,0-1.3-0.6-1.3-1.3c0-0.7,0.6-1.3,1.3-1.3
					C350.2,244.7,350.8,245.3,350.8,246z"/>
			</g>
		</g>
		<g>
			<g>
				<path class="st33" d="M423.3,215.5c0,1.4,0.7,2.5,1.7,2.5c0.9,0,1.7-1.1,1.7-2.5c0-1.4-0.8-2.5-1.7-2.5
					C424,213,423.3,214.1,423.3,215.5z"/>
				<path class="st34" d="M424.7,216.8c0,1.8,1,3.3,2.2,3.3c1.2,0,2.2-1.5,2.2-3.3c0-1.8-1-3.3-2.2-3.3
					C425.7,213.5,424.7,215,424.7,216.8z"/>
				<path class="st35" d="M423.3,219.9c0,1.8,1,3.3,2.2,3.3c1.2,0,2.2-1.5,2.2-3.3c0-1.8-1-3.3-2.2-3.3
					C424.3,216.6,423.3,218,423.3,219.9z"/>
				<path class="st33" d="M425.7,219.1c0,1.8,1,3.3,2.2,3.3c1.2,0,2.2-1.5,2.2-3.3c0-1.8-1-3.3-2.2-3.3
					C426.7,215.8,425.7,217.3,425.7,219.1z"/>
				<path class="st34" d="M420.1,215.7c0,1.8,1,3.3,2.2,3.3c1.2,0,2.2-1.5,2.2-3.3c0-1.8-1-3.3-2.2-3.3
					C421.1,212.4,420.1,213.9,420.1,215.7z"/>
				<path class="st33" d="M420.9,218c0,1.8,1,3.3,2.2,3.3c1.2,0,2.2-1.5,2.2-3.3c0-1.8-1-3.3-2.2-3.3
					C421.8,214.7,420.9,216.1,420.9,218z"/>
			</g>
			<g>
				<path class="st33" d="M416.5,215.5c0,1.4,0.7,2.5,1.7,2.5c0.9,0,1.7-1.1,1.7-2.5c0-1.4-0.7-2.5-1.7-2.5
					C417.2,213,416.5,214.1,416.5,215.5z"/>
				<path class="st34" d="M417.9,216.8c0,1.8,1,3.3,2.2,3.3c1.2,0,2.2-1.5,2.2-3.3c0-1.8-1-3.3-2.2-3.3
					C418.9,213.5,417.9,215,417.9,216.8z"/>
				<path class="st35" d="M416.5,219.9c0,1.8,1,3.3,2.2,3.3c1.2,0,2.2-1.5,2.2-3.3c0-1.8-1-3.3-2.2-3.3
					C417.5,216.6,416.5,218,416.5,219.9z"/>
				<path class="st33" d="M418.9,219.1c0,1.8,1,3.3,2.2,3.3c1.2,0,2.2-1.5,2.2-3.3c0-1.8-1-3.3-2.2-3.3
					C419.9,215.8,418.9,217.3,418.9,219.1z"/>
				<path class="st34" d="M413.3,215.7c0,1.8,1,3.3,2.2,3.3c1.2,0,2.2-1.5,2.2-3.3c0-1.8-1-3.3-2.2-3.3
					C414.3,212.4,413.3,213.9,413.3,215.7z"/>
				<path class="st33" d="M414.1,218c0,1.8,1,3.3,2.2,3.3c1.2,0,2.2-1.5,2.2-3.3c0-1.8-1-3.3-2.2-3.3
					C415,214.7,414.1,216.1,414.1,218z"/>
			</g>
			<g>
				<path class="st33" d="M413.2,215.7c0,1.4,0.7,2.5,1.7,2.5c0.9,0,1.7-1.1,1.7-2.5c0-1.4-0.7-2.5-1.7-2.5
					C413.9,213.1,413.2,214.3,413.2,215.7z"/>
				<path class="st34" d="M414.6,217c0,1.8,1,3.3,2.2,3.3c1.2,0,2.2-1.5,2.2-3.3c0-1.8-1-3.3-2.2-3.3
					C415.6,213.7,414.6,215.2,414.6,217z"/>
				<path class="st35" d="M413.2,220c0,1.8,1,3.3,2.2,3.3c1.2,0,2.2-1.5,2.2-3.3s-1-3.3-2.2-3.3C414.2,216.7,413.2,218.2,413.2,220z
					"/>
				<path class="st33" d="M415.6,219.3c0,1.8,1,3.3,2.2,3.3c1.2,0,2.2-1.5,2.2-3.3c0-1.8-1-3.3-2.2-3.3
					C416.6,216,415.6,217.5,415.6,219.3z"/>
				<path class="st34" d="M410,215.9c0,1.8,1,3.3,2.2,3.3c1.2,0,2.2-1.5,2.2-3.3c0-1.8-1-3.3-2.2-3.3C411,212.6,410,214.1,410,215.9
					z"/>
				<path class="st33" d="M410.7,218.2c0,1.8,1,3.3,2.2,3.3c1.2,0,2.2-1.5,2.2-3.3c0-1.8-1-3.3-2.2-3.3
					C411.7,214.9,410.7,216.3,410.7,218.2z"/>
			</g>
			<g>
				<path class="st33" d="M416.9,212.9c0,1.4,0.7,2.5,1.7,2.5c0.9,0,1.7-1.1,1.7-2.5c0-1.4-0.7-2.5-1.7-2.5
					C417.6,210.4,416.9,211.5,416.9,212.9z"/>
				<path class="st34" d="M418.3,214.2c0,1.8,1,3.3,2.2,3.3c1.2,0,2.2-1.5,2.2-3.3c0-1.8-1-3.3-2.2-3.3
					C419.3,210.9,418.3,212.4,418.3,214.2z"/>
				<path class="st35" d="M416.9,217.3c0,1.8,1,3.3,2.2,3.3c1.2,0,2.2-1.5,2.2-3.3c0-1.8-1-3.3-2.2-3.3
					C417.9,214,416.9,215.4,416.9,217.3z"/>
				<path class="st33" d="M419.3,216.5c0,1.8,1,3.3,2.2,3.3c1.2,0,2.2-1.5,2.2-3.3c0-1.8-1-3.3-2.2-3.3
					C420.3,213.2,419.3,214.7,419.3,216.5z"/>
				<path class="st34" d="M413.7,213.1c0,1.8,1,3.3,2.2,3.3c1.2,0,2.2-1.5,2.2-3.3c0-1.8-1-3.3-2.2-3.3
					C414.7,209.8,413.7,211.3,413.7,213.1z"/>
				<path class="st33" d="M414.4,215.4c0,1.8,1,3.3,2.2,3.3c1.2,0,2.2-1.5,2.2-3.3c0-1.8-1-3.3-2.2-3.3
					C415.4,212.1,414.4,213.6,414.4,215.4z"/>
			</g>
			<path class="st36" d="M430.6,219.7l-22.4-4.5c0,0,3.6,4.9,3.7,5.2c0.1,0.3-4.1,16.4-4.1,16.4l1,3.7h24.2l0.4-2.7l-3.6-14.4
				l1.7-2.5v-1.3H430.6z"/>
			<polygon class="st37" points="412.5,224.2 431.9,237.3 431.5,239.5 408.9,240.5 433.1,240.5 433.5,237.8 430,224 411.8,220.6 
				411.8,221.5 			"/>
			<path class="st34" d="M406.7,229.8l4.4-7.7l-1.3-1.2l2-1.5l18.9,3.3c0.3,0.1,0.5,0.4,0.4,0.9c0,0.4-0.3,0.7-0.6,0.7l-0.3-0.1
				l-18.3-3.2l-0.1,0.1l0.3,0.3l2.4,8.7c0.1,0.4,0,0.8-0.3,1c-0.1,0-0.1,0.1-0.2,0.1c-0.2,0-0.4-0.2-0.5-0.5l-1.9-7.1l-4.1,7.3
				c-0.1,0.2-0.2,0.3-0.4,0.3c-0.1,0-0.2-0.1-0.3-0.2C406.5,230.6,406.5,230.1,406.7,229.8z"/>
		</g>
		<g>
			<g>
				<path class="st38" d="M365.2,239.4c0,0.7-0.6,1.4-1.4,1.4h-19.5c-0.7,0-1.4-0.6-1.4-1.4V213c0-0.7,0.6-1.4,1.4-1.4h19.5
					c0.7,0,1.4,0.6,1.4,1.4V239.4z"/>
				<path class="st39" d="M347.2,240v-24.7c0-0.7,0.6-1.3,1.3-1.3h16.7v-1c0-0.7-0.6-1.4-1.4-1.4h-19.5c-0.7,0-1.4,0.6-1.4,1.4v26.3
					c0,0.7,0.6,1.4,1.4,1.4h3.2C347.3,240.5,347.2,240.2,347.2,240z"/>
			</g>
			<path class="st30" d="M366.6,211.3c0,1.2-1,2.2-2.2,2.2h-20.8c-1.2,0-2.2-1-2.2-2.2l0,0c0-1.2,1-2.2,2.2-2.2h20.8
				C365.6,209.1,366.6,210.1,366.6,211.3L366.6,211.3z"/>
		</g>
		<g>
			<g>
				<path class="st38" d="M391.4,239.4c0,0.7-0.6,1.4-1.4,1.4h-19.5c-0.7,0-1.3-0.6-1.3-1.4V213c0-0.7,0.6-1.4,1.3-1.4H390
					c0.7,0,1.4,0.6,1.4,1.4V239.4z"/>
				<path class="st39" d="M373.4,240v-24.7c0-0.7,0.6-1.3,1.3-1.3h16.7v-1c0-0.7-0.6-1.4-1.4-1.4h-19.5c-0.7,0-1.3,0.6-1.3,1.4v26.3
					c0,0.7,0.6,1.4,1.3,1.4h3.2C373.5,240.5,373.4,240.2,373.4,240z"/>
			</g>
			<path class="st30" d="M392.8,211.3c0,1.2-1,2.2-2.2,2.2h-20.8c-1.2,0-2.2-1-2.2-2.2l0,0c0-1.2,1-2.2,2.2-2.2h20.8
				C391.9,209.1,392.8,210.1,392.8,211.3L392.8,211.3z"/>
		</g>
	</g>
	<g class="st5">
		<polygon class="st8" points="259.2,182.7 442.4,182.7 444,174.7 259.2,174.7 		"/>
		<g>
			<g>
				<path class="st33" d="M282.1,149.3c0,1.4-0.7,2.5-1.7,2.5c-0.9,0-1.7-1.1-1.7-2.5c0-1.4,0.8-2.5,1.7-2.5
					C281.3,146.8,282.1,147.9,282.1,149.3z"/>
				<path class="st34" d="M280.6,150.6c0,1.8-1,3.3-2.2,3.3c-1.2,0-2.2-1.5-2.2-3.3c0-1.8,1-3.3,2.2-3.3
					C279.6,147.3,280.6,148.8,280.6,150.6z"/>
				<path class="st35" d="M282.1,153.7c0,1.8-1,3.3-2.2,3.3c-1.2,0-2.2-1.5-2.2-3.3c0-1.8,1-3.3,2.2-3.3
					C281.1,150.4,282.1,151.9,282.1,153.7z"/>
				<path class="st33" d="M279.7,153c0,1.8-1,3.3-2.2,3.3c-1.2,0-2.2-1.5-2.2-3.3c0-1.8,1-3.3,2.2-3.3
					C278.7,149.7,279.7,151.1,279.7,153z"/>
				<path class="st34" d="M285.2,149.6c0,1.8-1,3.3-2.2,3.3c-1.2,0-2.2-1.5-2.2-3.3c0-1.8,1-3.3,2.2-3.3
					C284.3,146.3,285.2,147.7,285.2,149.6z"/>
				<path class="st33" d="M284.5,151.8c0,1.8-1,3.3-2.2,3.3c-1.2,0-2.2-1.5-2.2-3.3c0-1.8,1-3.3,2.2-3.3
					C283.5,148.5,284.5,150,284.5,151.8z"/>
			</g>
			<g>
				<path class="st33" d="M288.9,149.3c0,1.4-0.7,2.5-1.7,2.5c-0.9,0-1.7-1.1-1.7-2.5c0-1.4,0.7-2.5,1.7-2.5
					C288.1,146.8,288.9,147.9,288.9,149.3z"/>
				<path class="st34" d="M287.4,150.6c0,1.8-1,3.3-2.2,3.3c-1.2,0-2.2-1.5-2.2-3.3c0-1.8,1-3.3,2.2-3.3
					C286.5,147.3,287.4,148.8,287.4,150.6z"/>
				<path class="st35" d="M288.9,153.7c0,1.8-1,3.3-2.2,3.3c-1.2,0-2.2-1.5-2.2-3.3c0-1.8,1-3.3,2.2-3.3
					C287.9,150.4,288.9,151.9,288.9,153.7z"/>
				<path class="st33" d="M286.5,153c0,1.8-1,3.3-2.2,3.3c-1.2,0-2.2-1.5-2.2-3.3c0-1.8,1-3.3,2.2-3.3
					C285.5,149.7,286.5,151.1,286.5,153z"/>
				<path class="st34" d="M292.1,149.6c0,1.8-1,3.3-2.2,3.3c-1.2,0-2.2-1.5-2.2-3.3c0-1.8,1-3.3,2.2-3.3
					C291.1,146.3,292.1,147.7,292.1,149.6z"/>
				<path class="st33" d="M291.3,151.8c0,1.8-1,3.3-2.2,3.3c-1.2,0-2.2-1.5-2.2-3.3c0-1.8,1-3.3,2.2-3.3
					C290.3,148.5,291.3,150,291.3,151.8z"/>
			</g>
			<g>
				<path class="st33" d="M292.2,149.5c0,1.4-0.7,2.5-1.7,2.5c-0.9,0-1.7-1.1-1.7-2.5c0-1.4,0.7-2.5,1.7-2.5
					C291.4,147,292.2,148.1,292.2,149.5z"/>
				<path class="st34" d="M290.7,150.8c0,1.8-1,3.3-2.2,3.3c-1.2,0-2.2-1.5-2.2-3.3c0-1.8,1-3.3,2.2-3.3
					C289.7,147.5,290.7,149,290.7,150.8z"/>
				<path class="st35" d="M292.2,153.9c0,1.8-1,3.3-2.2,3.3c-1.2,0-2.2-1.5-2.2-3.3s1-3.3,2.2-3.3
					C291.2,150.6,292.2,152.1,292.2,153.9z"/>
				<path class="st33" d="M289.8,153.2c0,1.8-1,3.3-2.2,3.3c-1.2,0-2.2-1.5-2.2-3.3c0-1.8,1-3.3,2.2-3.3
					C288.8,149.8,289.8,151.3,289.8,153.2z"/>
				<path class="st34" d="M295.4,149.7c0,1.8-1,3.3-2.2,3.3c-1.2,0-2.2-1.5-2.2-3.3c0-1.8,1-3.3,2.2-3.3
					C294.4,146.4,295.4,147.9,295.4,149.7z"/>
				<path class="st33" d="M294.6,152c0,1.8-1,3.3-2.2,3.3c-1.2,0-2.2-1.5-2.2-3.3c0-1.8,1-3.3,2.2-3.3
					C293.6,148.7,294.6,150.2,294.6,152z"/>
			</g>
			<g>
				<path class="st33" d="M288.5,146.7c0,1.4-0.7,2.5-1.7,2.5c-0.9,0-1.7-1.1-1.7-2.5c0-1.4,0.7-2.5,1.7-2.5
					C287.7,144.2,288.5,145.3,288.5,146.7z"/>
				<path class="st34" d="M287,148.1c0,1.8-1,3.3-2.2,3.3c-1.2,0-2.2-1.5-2.2-3.3c0-1.8,1-3.3,2.2-3.3
					C286.1,144.7,287,146.2,287,148.1z"/>
				<path class="st35" d="M288.5,151.1c0,1.8-1,3.3-2.2,3.3c-1.2,0-2.2-1.5-2.2-3.3c0-1.8,1-3.3,2.2-3.3
					C287.5,147.8,288.5,149.3,288.5,151.1z"/>
				<path class="st33" d="M286.1,150.4c0,1.8-1,3.3-2.2,3.3c-1.2,0-2.2-1.5-2.2-3.3c0-1.8,1-3.3,2.2-3.3
					C285.1,147.1,286.1,148.6,286.1,150.4z"/>
				<path class="st34" d="M291.7,147c0,1.8-1,3.3-2.2,3.3c-1.2,0-2.2-1.5-2.2-3.3c0-1.8,1-3.3,2.2-3.3
					C290.7,143.7,291.7,145.1,291.7,147z"/>
				<path class="st33" d="M290.9,149.2c0,1.8-1,3.3-2.2,3.3c-1.2,0-2.2-1.5-2.2-3.3c0-1.8,1-3.3,2.2-3.3
					C289.9,145.9,290.9,147.4,290.9,149.2z"/>
			</g>
			<path class="st36" d="M274.7,153.5l22.4-4.5c0,0-3.6,4.9-3.7,5.2c-0.1,0.3,4.1,16.4,4.1,16.4l-1,3.7h-24.2l-0.4-2.7l3.6-14.4
				l-1.7-2.5v-1.3H274.7z"/>
			<polygon class="st37" points="292.8,158 273.4,171.2 273.8,173.3 296.5,174.4 272.2,174.4 271.8,171.6 275.3,157.8 293.5,154.4 
				293.6,155.3 			"/>
			<path class="st34" d="M298.7,163.6l-4.4-7.7l1.3-1.2l-2-1.5l-18.9,3.3c-0.3,0.1-0.5,0.4-0.4,0.9c0,0.4,0.3,0.7,0.6,0.7l0.3-0.1
				l18.3-3.2l0.1,0.1l-0.3,0.3l-2.4,8.7c-0.1,0.4,0,0.8,0.3,1c0.1,0,0.1,0.1,0.2,0.1c0.2,0,0.4-0.2,0.5-0.5l1.9-7.1l4.1,7.3
				c0.1,0.2,0.2,0.3,0.4,0.3c0.1,0,0.2-0.1,0.3-0.2C298.8,164.4,298.8,164,298.7,163.6z"/>
		</g>
		<g>
			<g>
				<path class="st38" d="M336.8,173.2c0,0.7,0.6,1.4,1.4,1.4h19.5c0.7,0,1.4-0.6,1.4-1.4v-26.3c0-0.7-0.6-1.4-1.4-1.4h-19.5
					c-0.7,0-1.4,0.6-1.4,1.4V173.2z"/>
				<path class="st39" d="M354.8,173.8v-24.7c0-0.7-0.6-1.3-1.3-1.3h-16.7v-1c0-0.7,0.6-1.4,1.4-1.4h19.5c0.7,0,1.4,0.6,1.4,1.4
					v26.3c0,0.7-0.6,1.4-1.4,1.4h-3.2C354.7,174.3,354.8,174.1,354.8,173.8z"/>
			</g>
			<path class="st30" d="M335.3,145.1c0,1.2,1,2.2,2.2,2.2h20.8c1.2,0,2.2-1,2.2-2.2l0,0c0-1.2-1-2.2-2.2-2.2h-20.8
				C336.3,143,335.3,143.9,335.3,145.1L335.3,145.1z"/>
		</g>
		<g>
			<g>
				<path class="st38" d="M310.6,173.2c0,0.7,0.6,1.4,1.4,1.4h19.5c0.7,0,1.3-0.6,1.3-1.4v-26.3c0-0.7-0.6-1.4-1.3-1.4h-19.5
					c-0.7,0-1.4,0.6-1.4,1.4V173.2z"/>
				<path class="st39" d="M328.6,173.8v-24.7c0-0.7-0.6-1.3-1.3-1.3h-16.7v-1c0-0.7,0.6-1.4,1.4-1.4h19.5c0.7,0,1.3,0.6,1.3,1.4
					v26.3c0,0.7-0.6,1.4-1.3,1.4h-3.2C328.4,174.3,328.6,174.1,328.6,173.8z"/>
			</g>
			<path class="st30" d="M309.1,145.1c0,1.2,1,2.2,2.2,2.2h20.8c1.2,0,2.2-1,2.2-2.2l0,0c0-1.2-1-2.2-2.2-2.2h-20.8
				C310.1,143,309.1,143.9,309.1,145.1L309.1,145.1z"/>
		</g>
		<g>
			<polygon class="st40" points="425.1,150.9 420.3,174.6 427,174.5 			"/>
			<g>
				<polygon class="st41" points="430.7,149 430.7,149 430,145.2 429.4,145.2 428.7,149 425.1,150.9 423.1,174.5 436.6,174.5 
					434.6,150.9 				"/>
				<polygon class="st42" points="429.2,149.3 429.7,145.6 430.4,149.3 434.4,151.1 425.5,151.1 				"/>
				<polyline class="st43" points="429.7,145.6 430,173.1 436.1,174.4 434.4,151.1 430.6,149.5 				"/>
			</g>
		</g>
		<g>
			<polygon class="st40" points="412.3,151.2 407.5,174.8 414.2,174.7 			"/>
			<g>
				<polygon class="st41" points="417.9,149.3 417.9,149.3 417.2,145.4 416.6,145.4 415.9,149.3 412.3,151.2 410.3,174.7 
					423.8,174.7 421.8,151.2 				"/>
				<polygon class="st42" points="416.4,149.5 416.9,145.8 417.6,149.5 421.6,151.4 412.7,151.4 				"/>
				<polyline class="st43" points="416.9,145.8 417.2,173.3 423.3,174.6 421.6,151.4 417.8,149.7 				"/>
			</g>
		</g>
		<g>
			<polygon class="st40" points="394.3,150.9 389.5,174.5 396.2,174.5 			"/>
			<g>
				<polygon class="st44" points="399.9,149 399.9,149 399.2,145.1 398.6,145.1 397.9,149 394.3,150.9 392.3,174.5 405.8,174.5 
					403.8,150.9 				"/>
				<polygon class="st42" points="398.3,149.3 398.8,145.5 399.5,149.3 403.6,151.1 394.7,151.1 				"/>
				<polyline class="st43" points="398.8,145.5 399.1,173.1 405.3,174.3 403.6,151.1 399.8,149.4 				"/>
			</g>
		</g>
		<g>
			<polygon class="st40" points="375.4,150.9 370.6,174.5 377.2,174.5 			"/>
			<g>
				<polygon class="st44" points="380.9,149 380.9,149 380.3,145.1 379.6,145.1 378.9,149 375.4,150.9 373.4,174.5 386.8,174.5 
					384.9,150.9 				"/>
				<polygon class="st42" points="379.4,149.2 379.9,145.5 380.6,149.2 384.6,151.1 375.8,151.1 				"/>
				<polyline class="st43" points="379.9,145.5 380.2,173.1 386.4,174.3 384.6,151.1 380.9,149.4 				"/>
			</g>
		</g>
	</g>
	<g class="st5">
		<g>
			<path class="st45" d="M701.9,153.9v-31c0-5.4-4.5-9.9-10-9.9c-5.5,0-10,4.5-10,9.9v31H701.9z"/>
		</g>
		<g>
			<g>
				<rect x="691.6" y="-66.1" class="st45" width="0.5" height="181.8"/>
			</g>
		</g>
		<g>
			
				<image style="overflow:visible;" width="384" height="322" xlink:href="F70CD109C9D382FF.png"  transform="matrix(0.24 0 0 0.24 645.7422 115.233)">
			</image>
		</g>
	</g>
	<g class="st5">
		<g>
			<g>
				<path class="st45" d="M792.7,136.3V91.1c0-8-6.5-14.5-14.4-14.5s-14.4,6.5-14.4,14.5v45.2H792.7z"/>
			</g>
			<g>
				<g>
					<rect x="778.5" y="-109.7" class="st45" width="0.5" height="225.2"/>
				</g>
			</g>
		</g>
		<g>
			
				<image style="overflow:visible;" width="421" height="322" xlink:href="F70CD109C9D382FD.png"  transform="matrix(0.24 0 0 0.24 727.8223 97.713)">
			</image>
		</g>
	</g>
	<g class="st5">
		<g>
			<g>
				<path class="st45" d="M855.1,118.4V93c0-4.5-3.7-8.1-8.1-8.1c-4.5,0-8.1,3.7-8.1,8.1v25.4H855.1z"/>
			</g>
			<g>
				<g>
					<rect x="846" y="-62.3" class="st45" width="0.5" height="149.4"/>
				</g>
			</g>
		</g>
		<g>
			
				<image style="overflow:visible;" width="369" height="322" xlink:href="F70CD109C9D38303.png"  transform="matrix(0.24 0 0 0.24 802.7023 79.713)">
			</image>
		</g>
	</g>
</g>
</svg>
