<?xml version="1.0" encoding="utf-8"?>
<!-- Generator: Adobe Illustrator 25.3.1, SVG Export Plug-In . SVG Version: 6.00 Build 0)  -->
<svg version="1.1" id="圖層_1" xmlns="http://www.w3.org/2000/svg" xmlns:xlink="http://www.w3.org/1999/xlink" x="0px" y="0px"
	 viewBox="0 0 992 1280" style="enable-background:new 0 0 992 1280;" xml:space="preserve">
<style type="text/css">
	.st0{clip-path:url(#SVGID_2_);fill:#FFFFFF;}
	.st1{opacity:0.5;clip-path:url(#SVGID_2_);}
	.st2{opacity:0.5;fill:#A1BFBA;}
	.st3{opacity:0.3;fill:#FFFFFF;}
	.st4{opacity:0.4;fill:#FFFFFF;}
	.st5{clip-path:url(#SVGID_2_);}
	.st6{fill:#D5D5D5;}
	.st7{opacity:0.4;}
	.st8{fill:#93AEB7;}
	.st9{fill:#EEEBE8;}
	.st10{fill:#1C1817;}
	.st11{filter:url(#Adobe_OpacityMaskFilter);}
	.st12{filter:url(#Adobe_OpacityMaskFilter_1_);}
	.st13{clip-path:url(#SVGID_2_);mask:url(#SVGID_3_);fill:url(#SVGID_4_);}
	.st14{opacity:0.18;clip-path:url(#SVGID_2_);fill:url(#SVGID_5_);}
	.st15{fill:#7C8184;}
	.st16{fill:#E2E1E1;}
	.st17{fill:#77848B;}
	.st18{fill:#E8EEF2;}
	.st19{fill:#B6BDC2;}
	.st20{fill:#4F2B2B;}
	.st21{fill:#EAE0D7;}
	.st22{fill:#C6AF9B;}
	.st23{fill:#A19387;}
	.st24{fill:#5D4731;}
	.st25{fill:#AAA9A9;}
	.st26{fill:#A35C4E;}
	.st27{fill:#DDC7C4;}
	.st28{opacity:0.74;fill:#767777;}
	.st29{fill:#C4A664;}
	.st30{opacity:0.4;fill:#C1C0C0;}
	.st31{fill:#E3E3E3;}
	.st32{fill:#DBDBDB;}
	.st33{fill:#B4B4B5;}
</style>
<g>
	<defs>
		<rect id="SVGID_1_" x="-12.6" y="-15.7" width="1017.2" height="1311.5"/>
	</defs>
	<clipPath id="SVGID_2_">
		<use xlink:href="#SVGID_1_"  style="overflow:visible;"/>
	</clipPath>
	<rect x="-36.6" y="-38.8" class="st0" width="1653.5" height="943.1"/>
	<g class="st1">
		<rect x="-17.2" y="-20.6" class="st2" width="1620.5" height="916.1"/>
		<polygon class="st3" points="527.4,892 -28.6,892 537.5,-20.1 1093.5,-20.1 		"/>
		<polygon class="st4" points="786.3,892 581.9,892 1148,-20.1 1352.4,-20.1 		"/>
		<polygon class="st4" points="984,892 845.3,892 1411.4,-20.1 1550.1,-20.1 		"/>
		<polygon class="st4" points="-17.2,682.4 418.8,-20.1 280,-20.1 -17.2,458.8 		"/>
	</g>
	<g class="st5">
		<g>
			<g>
				<path class="st6" d="M1589.3,654.4c-0.7,0.1-1.4,0.1-2.1,0.1H504.5c2.5-6,2-13.4-1.3-18.8c-3.2-5.3-8.7-8.2-15.4-8.2
					c-2.2,0-4.3,0.3-6.3,1V-12.9h-1.8v644l1.2-0.5c2.1-0.9,4.4-1.3,6.8-1.3c6,0,10.9,2.6,13.8,7.3c3.3,5.3,3.5,12.7,0.6,18.4
					l-0.7,1.3h1085.6c0.7,0,1.4-0.1,2.1-0.1V654.4z"/>
			</g>
		</g>
		<g>
			<g>
				<path class="st6" d="M248.6-12.9v641.3c-2-0.7-4.1-1-6.3-1c-6.7,0-12.1,2.9-15.4,8.2c-3.3,5.4-3.8,12.8-1.3,18.8H-14.2v1.8
					h242.7l-0.7-1.3c-2.9-5.7-2.6-13,0.6-18.4c2.9-4.7,7.8-7.3,13.8-7.3c2.5,0,4.8,0.4,6.8,1.3l1.2,0.5v-644H248.6z"/>
			</g>
		</g>
		<g class="st7">
			<rect x="268.1" y="-13.6" class="st8" width="186.2" height="780.8"/>
		</g>
		<g class="st7">
			<rect x="1021.8" y="-13.6" class="st8" width="336.4" height="780.8"/>
		</g>
		<g>
			<rect x="701.9" y="-13.2" class="st9" width="16.2" height="787.5"/>
		</g>
		<g>
			<rect x="90.1" y="-13.5" class="st9" width="13.8" height="787.8"/>
		</g>
	</g>
	<g class="st5">
		<g>
			<rect x="989.2" y="-13.5" class="st9" width="13.8" height="787.8"/>
		</g>
		<g>
			<rect x="1376.1" y="-13.2" class="st9" width="16.2" height="787.5"/>
		</g>
		<g>
			<g>
				<path class="st10" d="M1663.4,215v-44.4c0-7.8-6.4-14.2-14.3-14.2c-7.9,0-14.3,6.4-14.3,14.2V215H1663.4z"/>
			</g>
			<g>
				<rect x="1648.7" y="-12.9" class="st10" width="0.7" height="210.7"/>
			</g>
		</g>
	</g>
	<defs>
		<filter id="Adobe_OpacityMaskFilter" filterUnits="userSpaceOnUse" x="410.7" y="741.7" width="594.1" height="33">
			<feFlood  style="flood-color:white;flood-opacity:1" result="back"/>
			<feBlend  in="SourceGraphic" in2="back" mode="normal"/>
		</filter>
	</defs>
	<mask maskUnits="userSpaceOnUse" x="410.7" y="741.7" width="594.1" height="33" id="SVGID_3_">
		<g class="st11">
			<defs>
				<filter id="Adobe_OpacityMaskFilter_1_" filterUnits="userSpaceOnUse" x="410.7" y="741.7" width="594.1" height="33">
					<feFlood  style="flood-color:white;flood-opacity:1" result="back"/>
					<feBlend  in="SourceGraphic" in2="back" mode="normal"/>
				</filter>
			</defs>
			<mask maskUnits="userSpaceOnUse" x="410.7" y="741.7" width="594.1" height="33" id="SVGID_3_">
				<g class="st12">
				</g>
			</mask>
			<linearGradient id="SVGID_4_" gradientUnits="userSpaceOnUse" x1="708.8325" y1="734.792" x2="706.5898" y2="781.8882">
				<stop  offset="8.000000e-08" style="stop-color:#808080"/>
				<stop  offset="0.2237" style="stop-color:#979797"/>
				<stop  offset="0.6926" style="stop-color:#D4D4D4"/>
				<stop  offset="1" style="stop-color:#FFFFFF"/>
			</linearGradient>
			<ellipse class="st13" cx="707.7" cy="758.2" rx="297" ry="16.5"/>
		</g>
	</mask>
	<linearGradient id="SVGID_5_" gradientUnits="userSpaceOnUse" x1="708.8325" y1="734.792" x2="706.5898" y2="781.8882">
		<stop  offset="8.000000e-08" style="stop-color:#2B2D1A"/>
		<stop  offset="0.1461" style="stop-color:#424332"/>
		<stop  offset="0.4549" style="stop-color:#7C7C6F"/>
		<stop  offset="0.8979" style="stop-color:#D8D5D1"/>
		<stop  offset="1" style="stop-color:#EEEBE8"/>
	</linearGradient>
	<ellipse class="st14" cx="707.7" cy="758.2" rx="297" ry="16.5"/>
	<g class="st5">
		<polyline class="st9" points="605.9,1302.8 1591.8,1302.8 1591.8,725.5 1591.1,725.5 1591.1,719.1 -19.2,719.1 -18.9,1302.3 		"/>
		<rect x="-20.1" y="659.3" class="st9" width="1609.4" height="9.2"/>
		<rect x="-19.1" y="678.9" class="st9" width="1607.9" height="8.2"/>
		<rect x="-20.1" y="699.4" class="st9" width="1609.9" height="8.2"/>
	</g>
	<g class="st5">
		<g>
			<g>
				<path class="st15" d="M476.5,331.4c0,0,44.7-3.9,94.1,1.6l-36.7,5.4l-45.3-2.6L476.5,331.4z"/>
				<path class="st16" d="M476.5,331.4c0,0,20.7,6.5,94.1,1.6c0,0,0.7,12.5-48.3,11.5C475.7,343.4,476.5,331.4,476.5,331.4z"/>
			</g>
			<g>
				<path class="st15" d="M476.5,321.3c0,0,44.7-3.9,94.1,1.6l-36.7,5.4l-45.3-2.6L476.5,321.3z"/>
				<path class="st16" d="M476.5,321.3c0,0,20.7,6.5,94.1,1.6c0,0,0.7,12.5-48.3,11.5C475.7,333.3,476.5,321.3,476.5,321.3z"/>
			</g>
			<g>
				<path class="st15" d="M476.5,311c0,0,44.7-3.8,94.1,1.6l-36.7,5.4l-45.3-2.6L476.5,311z"/>
				<path class="st16" d="M476.5,311c0,0,20.7,6.5,94.1,1.6c0,0,0.7,12.5-48.3,11.5C475.7,323,476.5,311,476.5,311z"/>
			</g>
		</g>
		<polygon class="st8" points="744.6,355.5 482,355.5 479.7,344.1 744.6,344.1 		"/>
		<g>
			<g>
				<g>
					<path class="st17" d="M504.7,352.4c0,0,4.9,19.8,1.8,39.2l-7.4-20.1L504.7,352.4z"/>
					<path class="st18" d="M504.7,352.4c-0.2,0-0.4,0-0.6,0.1l-0.6-3.9l-0.1-0.4c-0.5-1-2-2.6-4.9-2.1c-0.1,0-0.4,0-0.7,0
						c-2.6,0.1-8.3,1.4-9.1,4.9c0,0.2,0,0.5,0.1,2c0,1.2,0.3,2.5,0.8,3.8c-2.1,1.5-3.9,3.4-5.1,5.9c-1.2,2.5-1.7,7.4-1.6,10.3
						c0.1,2,0.6,6,1.3,7.8c3.2,7.9,12,11.2,22.3,10.8c0,0-2.3-4.9-2.9-19.5C502.9,357.4,504.7,352.4,504.7,352.4z M491.7,351.5
						c0-0.2,0.8-2.1,6.2-2.4c0.6,0,1-0.1,1.1-0.1c0.9-0.1,1.4,0.1,1.5,0.3l0.6,3.4c-3.3,0.4-6.3,1.2-8.9,2.5
						C491.5,353.8,491.5,352.3,491.7,351.5z"/>
					<g>
						<path class="st19" d="M505.2,387.1c-8.6-0.8-14.5-4.4-17.4-11.4c-0.8-1.9-1.4-6.2-1.5-8.4c-0.1-2.3,0.2-5.7,0.8-8.5
							c-1.1,1.1-2,2.4-2.7,3.8c-1.2,2.5-1.7,7.4-1.6,10.3c0.1,2,0.6,6,1.3,7.8c3.2,7.9,12,11.2,22.3,10.8L505.2,387.1z"/>
					</g>
				</g>
				<path class="st20" d="M498.4,351.5c0,1-0.9,1.9-1.9,1.9c-1,0-1.9-0.8-1.9-1.9c0-1,0.8-1.9,1.9-1.9
					C497.6,349.6,498.4,350.4,498.4,351.5z"/>
			</g>
			<g>
				<g>
					<path class="st17" d="M535.2,350.8c0,0,11.8,16.7,15.9,35.9l-14.2-16L535.2,350.8z"/>
					<path class="st18" d="M535.2,350.8c-0.2,0.1-0.4,0.2-0.6,0.3l-2-3.4l-0.3-0.3c-0.8-0.8-2.8-1.7-5.4-0.2
						c-0.1,0.1-0.3,0.2-0.6,0.3c-2.4,1.1-7.3,4.3-6.7,7.8c0,0.3,0.2,0.5,0.8,1.9c0.5,1.1,1.2,2.3,2.2,3.2c-1.5,2.2-2.4,4.6-2.6,7.3
						c-0.2,2.8,1.1,7.6,2.2,10.2c0.8,1.8,2.7,5.4,4.1,6.8c5.8,6.2,15.3,6.1,24.7,2c0,0-3.9-3.8-9.8-17.1
						C535.3,356.1,535.2,350.8,535.2,350.8z M522.7,354.7c0-0.2,0-2.2,4.9-4.5c0.6-0.2,0.9-0.4,1-0.5c0.8-0.5,1.3-0.4,1.5-0.3l1.7,3
						c-2.9,1.6-5.4,3.4-7.3,5.5C523.4,356.9,522.8,355.5,522.7,354.7z"/>
					<g>
						<path class="st19" d="M548.2,382.9c-8.3,2.4-15.1,1.2-20.3-4.3c-1.4-1.5-3.5-5.3-4.4-7.3c-0.9-2.1-1.9-5.4-2.3-8.2
							c-0.6,1.4-1,2.9-1.1,4.6c-0.2,2.8,1.1,7.6,2.2,10.2c0.8,1.8,2.7,5.4,4.1,6.8c5.8,6.2,15.3,6.1,24.7,2L548.2,382.9z"/>
					</g>
				</g>
				<path class="st20" d="M530.9,351.5c0,1-0.9,1.9-1.9,1.9c-1,0-1.9-0.8-1.9-1.9c0-1,0.8-1.9,1.9-1.9
					C530,349.6,530.9,350.4,530.9,351.5z"/>
			</g>
			<g>
				<g>
					<path class="st17" d="M647.9,352.4c0,0,4.9,19.8,1.8,39.2l-7.4-20.1L647.9,352.4z"/>
					<path class="st18" d="M647.9,352.4c-0.2,0-0.4,0-0.6,0.1l-0.6-3.9l-0.1-0.4c-0.5-1-2-2.6-4.9-2.1c-0.1,0-0.4,0-0.7,0
						c-2.6,0.1-8.3,1.4-9.1,4.9c0,0.2,0,0.5,0.1,2c0.1,1.2,0.3,2.5,0.8,3.8c-2.2,1.5-3.9,3.4-5.1,5.9c-1.2,2.5-1.8,7.4-1.6,10.3
						c0.1,2,0.6,6,1.4,7.8c3.2,7.9,12,11.2,22.3,10.8c0,0-2.3-4.9-2.9-19.5C646.1,357.4,647.9,352.4,647.9,352.4z M634.9,351.5
						c0-0.2,0.8-2.1,6.2-2.4c0.6,0,1-0.1,1.1-0.1c0.9-0.1,1.4,0.1,1.5,0.3l0.6,3.4c-3.3,0.4-6.3,1.2-8.8,2.5
						C634.7,353.8,634.7,352.3,634.9,351.5z"/>
					<g>
						<path class="st19" d="M648.4,387.1c-8.6-0.8-14.5-4.4-17.4-11.4c-0.8-1.9-1.4-6.2-1.5-8.4c-0.1-2.3,0.2-5.7,0.8-8.5
							c-1.1,1.1-2,2.4-2.7,3.8c-1.2,2.5-1.8,7.4-1.6,10.3c0.1,2,0.6,6,1.4,7.8c3.2,7.9,12,11.2,22.3,10.8L648.4,387.1z"/>
					</g>
				</g>
				<path class="st20" d="M641.6,351.5c0,1-0.8,1.9-1.9,1.9c-1,0-1.9-0.8-1.9-1.9c0-1,0.8-1.9,1.9-1.9
					C640.8,349.6,641.6,350.4,641.6,351.5z"/>
			</g>
			<g>
				<g>
					<path class="st17" d="M678.4,350.8c0,0,11.8,16.7,15.8,35.9l-14.2-16L678.4,350.8z"/>
					<path class="st18" d="M678.4,350.8c-0.2,0.1-0.4,0.2-0.6,0.3l-2-3.4l-0.3-0.3c-0.8-0.8-2.8-1.7-5.3-0.2
						c-0.1,0.1-0.3,0.2-0.6,0.3c-2.4,1.1-7.3,4.3-6.7,7.8c0,0.3,0.2,0.5,0.8,1.9c0.5,1.1,1.2,2.3,2.2,3.2c-1.5,2.2-2.4,4.6-2.6,7.3
						c-0.2,2.8,1,7.6,2.2,10.2c0.8,1.8,2.8,5.4,4.1,6.8c5.9,6.2,15.3,6.1,24.6,2c0,0-3.9-3.8-9.8-17.1
						C678.5,356.1,678.4,350.8,678.4,350.8z M665.9,354.7c0-0.2,0-2.2,4.9-4.5c0.6-0.2,0.9-0.4,1-0.5c0.8-0.5,1.3-0.4,1.5-0.3l1.8,3
						c-2.9,1.6-5.4,3.4-7.3,5.5C666.6,356.9,666.1,355.5,665.9,354.7z"/>
					<g>
						<path class="st19" d="M691.4,382.9c-8.3,2.4-15.1,1.2-20.3-4.3c-1.4-1.5-3.5-5.3-4.4-7.3c-0.9-2.1-1.9-5.4-2.3-8.2
							c-0.6,1.4-1,2.9-1.1,4.6c-0.2,2.8,1,7.6,2.2,10.2c0.8,1.8,2.8,5.4,4.1,6.8c5.9,6.2,15.3,6.1,24.6,2L691.4,382.9z"/>
					</g>
				</g>
				<path class="st20" d="M674.1,351.5c0,1-0.9,1.9-1.9,1.9c-1,0-1.9-0.8-1.9-1.9c0-1,0.8-1.9,1.9-1.9
					C673.2,349.6,674.1,350.4,674.1,351.5z"/>
			</g>
			<g>
				<g>
					<path class="st17" d="M580.2,352.5c0,0,4,20-0.1,39.2l-6.5-20.4L580.2,352.5z"/>
					<path class="st18" d="M580.2,352.5c-0.2,0-0.4,0-0.6,0l-0.5-4l-0.1-0.4c-0.4-1-1.9-2.7-4.8-2.3c-0.1,0-0.4,0-0.7,0
						c-2.6,0-8.4,1-9.3,4.4c-0.1,0.2,0,0.5,0,2.1c0,1.2,0.2,2.6,0.6,3.8c-2.2,1.4-4.1,3.2-5.3,5.6c-1.3,2.5-2.1,7.3-2.1,10.3
						c0,2,0.3,6,1,7.8c2.8,8,11.5,11.8,21.7,11.8c0,0-2.1-5-2-19.7C578.1,357.4,580.2,352.5,580.2,352.5z M567.2,351
						c0-0.2,0.9-2,6.3-2.1c0.6,0,1,0,1.1,0c0.9-0.1,1.3,0.2,1.5,0.4l0.4,3.4c-3.3,0.3-6.3,0.9-9,2.1C567,353.3,567,351.8,567.2,351z
						"/>
					<g>
						<path class="st19" d="M579,387.2c-8.5-1.2-14.3-5-16.8-12.2c-0.7-2-1.1-6.3-1.1-8.5c0-2.3,0.5-5.7,1.3-8.4
							c-1.1,1.1-2.1,2.3-2.9,3.7c-1.3,2.5-2.1,7.3-2.1,10.3c0,2,0.3,6,1,7.8c2.8,8,11.5,11.8,21.7,11.8L579,387.2z"/>
					</g>
				</g>
				<path class="st20" d="M572.4,351.5c0,1-0.8,1.9-1.9,1.9c-1,0-1.9-0.8-1.9-1.9c0-1,0.8-1.9,1.9-1.9
					C571.6,349.6,572.4,350.4,572.4,351.5z"/>
			</g>
			<g>
				<g>
					<path class="st17" d="M614.6,352.5c0,0,4,20-0.1,39.2l-6.5-20.4L614.6,352.5z"/>
					<path class="st18" d="M614.6,352.5c-0.2,0-0.4,0-0.6,0l-0.5-4l-0.1-0.4c-0.4-1-1.9-2.7-4.8-2.3c-0.1,0-0.4,0-0.7,0
						c-2.6,0-8.4,1-9.3,4.5c-0.1,0.2,0,0.5,0,2.1c0,1.2,0.2,2.6,0.6,3.8c-2.2,1.4-4,3.3-5.3,5.6c-1.3,2.5-2.1,7.3-2.1,10.3
						c0,2,0.3,6,1,7.8c2.8,8,11.5,11.8,21.7,11.8c0,0-2.1-5-2-19.7C612.6,357.4,614.6,352.5,614.6,352.5z M601.6,351
						c0-0.2,0.9-2.1,6.3-2.1c0.6,0,1,0,1.1,0c0.9-0.1,1.4,0.2,1.5,0.3l0.4,3.4c-3.3,0.3-6.3,0.9-8.9,2.1
						C601.4,353.3,601.5,351.8,601.6,351z"/>
					<g>
						<path class="st19" d="M613.5,387.2c-8.5-1.2-14.3-5.1-16.8-12.2c-0.7-2-1.1-6.3-1.1-8.5c0-2.3,0.4-5.7,1.2-8.4
							c-1.1,1.1-2.1,2.3-2.9,3.7c-1.3,2.5-2.1,7.3-2.1,10.3c0,2,0.3,6,1,7.8c2.8,8,11.5,11.8,21.7,11.8L613.5,387.2z"/>
					</g>
				</g>
				<path class="st20" d="M607.9,351.5c0,1-0.9,1.9-1.9,1.9c-1,0-1.9-0.8-1.9-1.9c0-1,0.8-1.9,1.9-1.9
					C607,349.6,607.9,350.4,607.9,351.5z"/>
			</g>
		</g>
		<g>
			<g>
				<path class="st21" d="M711.7,307.7c0,2,1.1,3.6,2.4,3.6c1.3,0,2.4-1.6,2.4-3.6c0-2-1.1-3.6-2.4-3.6
					C712.8,304.1,711.7,305.7,711.7,307.7z"/>
				<path class="st22" d="M713.8,309.6c0,2.6,1.4,4.7,3.2,4.7c1.7,0,3.2-2.1,3.2-4.7c0-2.6-1.4-4.7-3.2-4.7
					C715.2,304.9,713.8,307,713.8,309.6z"/>
				<path class="st23" d="M711.7,314c0,2.6,1.4,4.7,3.2,4.7c1.7,0,3.1-2.1,3.1-4.7c0-2.6-1.4-4.7-3.1-4.7
					C713.2,309.3,711.7,311.4,711.7,314z"/>
				<path class="st21" d="M715.2,313c0,2.6,1.4,4.7,3.2,4.7c1.7,0,3.2-2.1,3.2-4.7c0-2.6-1.4-4.7-3.2-4.7
					C716.6,308.2,715.2,310.3,715.2,313z"/>
				<path class="st22" d="M707.2,308.1c0,2.6,1.4,4.7,3.2,4.7c1.7,0,3.2-2.1,3.2-4.7c0-2.6-1.4-4.7-3.2-4.7
					C708.6,303.3,707.2,305.5,707.2,308.1z"/>
				<path class="st21" d="M708.3,311.3c0,2.6,1.4,4.7,3.2,4.7c1.7,0,3.2-2.1,3.2-4.7c0-2.6-1.4-4.7-3.2-4.7
					C709.7,306.6,708.3,308.7,708.3,311.3z"/>
			</g>
			<g>
				<path class="st21" d="M702,307.7c0,2,1.1,3.6,2.4,3.6c1.3,0,2.4-1.6,2.4-3.6c0-2-1.1-3.6-2.4-3.6
					C703.1,304.1,702,305.7,702,307.7z"/>
				<path class="st22" d="M704,309.6c0,2.6,1.4,4.7,3.2,4.7c1.7,0,3.2-2.1,3.2-4.7c0-2.6-1.4-4.7-3.2-4.7
					C705.4,304.9,704,307,704,309.6z"/>
				<path class="st23" d="M702,314c0,2.6,1.4,4.7,3.2,4.7c1.7,0,3.2-2.1,3.2-4.7c0-2.6-1.4-4.7-3.2-4.7
					C703.4,309.3,702,311.4,702,314z"/>
				<path class="st21" d="M705.4,313c0,2.6,1.4,4.7,3.2,4.7c1.7,0,3.2-2.1,3.2-4.7c0-2.6-1.4-4.7-3.2-4.7
					C706.9,308.2,705.4,310.3,705.4,313z"/>
				<path class="st22" d="M697.4,308.1c0,2.6,1.4,4.7,3.2,4.7c1.7,0,3.2-2.1,3.2-4.7c0-2.6-1.4-4.7-3.2-4.7
					C698.8,303.3,697.4,305.5,697.4,308.1z"/>
				<path class="st21" d="M698.5,311.3c0,2.6,1.4,4.7,3.2,4.7c1.7,0,3.2-2.1,3.2-4.7c0-2.6-1.4-4.7-3.2-4.7
					C699.9,306.6,698.5,308.7,698.5,311.3z"/>
			</g>
			<g>
				<path class="st21" d="M697.3,308c0,2,1.1,3.6,2.4,3.6c1.3,0,2.4-1.6,2.4-3.6c0-2-1.1-3.6-2.4-3.6
					C698.3,304.4,697.3,306,697.3,308z"/>
				<path class="st22" d="M699.3,309.9c0,2.6,1.4,4.7,3.2,4.7c1.7,0,3.2-2.1,3.2-4.7c0-2.6-1.4-4.7-3.2-4.7
					C700.7,305.2,699.3,307.3,699.3,309.9z"/>
				<path class="st23" d="M697.3,314.3c0,2.6,1.4,4.7,3.1,4.7c1.7,0,3.2-2.1,3.2-4.7c0-2.6-1.4-4.7-3.2-4.7
					C698.7,309.5,697.3,311.7,697.3,314.3z"/>
				<path class="st21" d="M700.7,313.2c0,2.6,1.4,4.7,3.2,4.7c1.7,0,3.2-2.1,3.2-4.7c0-2.6-1.4-4.7-3.2-4.7
					C702.1,308.5,700.7,310.6,700.7,313.2z"/>
				<path class="st22" d="M692.7,308.3c0,2.6,1.4,4.7,3.2,4.7c1.7,0,3.2-2.1,3.2-4.7c0-2.6-1.4-4.7-3.2-4.7
					C694.1,303.6,692.7,305.7,692.7,308.3z"/>
				<path class="st21" d="M693.8,311.6c0,2.6,1.4,4.7,3.2,4.7c1.7,0,3.2-2.1,3.2-4.7c0-2.6-1.4-4.7-3.2-4.7
					C695.2,306.8,693.8,309,693.8,311.6z"/>
			</g>
			<g>
				<path class="st21" d="M702.6,304c0,2,1.1,3.6,2.4,3.6c1.3,0,2.4-1.6,2.4-3.6c0-2-1.1-3.6-2.4-3.6
					C703.6,300.4,702.6,302,702.6,304z"/>
				<path class="st22" d="M704.6,305.9c0,2.6,1.4,4.7,3.2,4.7c1.7,0,3.2-2.1,3.2-4.7c0-2.6-1.4-4.7-3.2-4.7
					C706,301.2,704.6,303.3,704.6,305.9z"/>
				<path class="st23" d="M702.6,310.3c0,2.6,1.4,4.7,3.2,4.7c1.7,0,3.2-2.1,3.2-4.7c0-2.6-1.4-4.7-3.2-4.7
					C704,305.6,702.6,307.7,702.6,310.3z"/>
				<path class="st21" d="M706,309.3c0,2.6,1.4,4.7,3.2,4.7c1.7,0,3.2-2.1,3.2-4.7c0-2.6-1.4-4.7-3.2-4.7
					C707.4,304.5,706,306.6,706,309.3z"/>
				<path class="st22" d="M698,304.4c0,2.6,1.4,4.7,3.2,4.7c1.7,0,3.2-2.1,3.2-4.7c0-2.6-1.4-4.7-3.2-4.7
					C699.4,299.6,698,301.8,698,304.4z"/>
				<path class="st21" d="M699.1,307.6c0,2.6,1.4,4.7,3.2,4.7c1.7,0,3.2-2.1,3.2-4.7c0-2.6-1.4-4.7-3.2-4.7
					C700.5,302.9,699.1,305,699.1,307.6z"/>
			</g>
			<path class="st24" d="M722.3,313.7l-32-6.4c0,0,5.2,7,5.4,7.4c0.2,0.5-5.8,23.5-5.8,23.5l1.4,5.3h34.7l0.6-3.9l-5.2-20.6l2.4-3.5
				v-1.9H722.3z"/>
			<polygon class="st25" points="696.3,320.2 724.2,339 723.5,342.1 691.1,343.6 725.8,343.6 726.4,339.7 721.4,319.9 695.3,315 
				695.3,316.3 			"/>
			<path class="st22" d="M688,328.2l6.3-11l-1.9-1.7l2.9-2.2l27.1,4.8c0.4,0.1,0.7,0.6,0.6,1.2c0,0.6-0.4,1-0.8,1l-0.5-0.1
				l-26.2-4.6l-0.1,0.1l0.4,0.4l3.4,12.5c0.1,0.6,0,1.2-0.4,1.4c-0.1,0.1-0.2,0.1-0.3,0.1c-0.3,0-0.6-0.3-0.7-0.7l-2.7-10.2
				l-5.9,10.5c-0.1,0.2-0.4,0.4-0.6,0.4c-0.2,0-0.3-0.1-0.5-0.3C687.7,329.4,687.7,328.7,688,328.2z"/>
		</g>
		<g>
			<g>
				<path class="st26" d="M628.5,342c0,1.1-0.9,1.9-1.9,1.9h-28c-1.1,0-1.9-0.9-1.9-1.9v-37.7c0-1.1,0.9-1.9,1.9-1.9h28
					c1.1,0,1.9,0.9,1.9,1.9V342z"/>
				<path class="st27" d="M602.7,342.8v-35.4c0-1,0.8-1.8,1.8-1.8h24v-1.4c0-1.1-0.9-1.9-1.9-1.9h-28c-1.1,0-1.9,0.9-1.9,1.9V342
					c0,1.1,0.9,1.9,1.9,1.9h4.5C602.8,343.6,602.7,343.2,602.7,342.8z"/>
			</g>
			<path class="st18" d="M630.5,301.7c0,1.7-1.4,3.1-3.1,3.1h-29.8c-1.7,0-3.1-1.4-3.1-3.1l0,0c0-1.7,1.4-3.1,3.1-3.1h29.8
				C629.1,298.6,630.5,300,630.5,301.7L630.5,301.7z"/>
		</g>
		<g>
			<g>
				<path class="st26" d="M666,342c0,1.1-0.9,1.9-1.9,1.9h-28c-1.1,0-1.9-0.9-1.9-1.9v-37.7c0-1.1,0.9-1.9,1.9-1.9h28
					c1.1,0,1.9,0.9,1.9,1.9V342z"/>
				<path class="st27" d="M640.2,342.8v-35.4c0-1,0.8-1.8,1.8-1.8h24v-1.4c0-1.1-0.9-1.9-1.9-1.9h-28c-1.1,0-1.9,0.9-1.9,1.9V342
					c0,1.1,0.9,1.9,1.9,1.9h4.5C640.4,343.6,640.2,343.2,640.2,342.8z"/>
			</g>
			<path class="st18" d="M668.1,301.7c0,1.7-1.4,3.1-3.1,3.1h-29.8c-1.7,0-3.1-1.4-3.1-3.1l0,0c0-1.7,1.4-3.1,3.1-3.1H665
				C666.7,298.6,668.1,300,668.1,301.7L668.1,301.7z"/>
		</g>
	</g>
	<g class="st5">
		<polygon class="st8" points="476.5,260.7 739.1,260.7 741.4,249.3 476.5,249.3 		"/>
		<g>
			<g>
				<path class="st21" d="M509.3,212.9c0,2-1.1,3.6-2.4,3.6c-1.3,0-2.4-1.6-2.4-3.6c0-2,1.1-3.6,2.4-3.6
					C508.3,209.3,509.3,210.9,509.3,212.9z"/>
				<path class="st22" d="M507.3,214.8c0,2.6-1.4,4.7-3.2,4.7c-1.7,0-3.2-2.1-3.2-4.7c0-2.6,1.4-4.7,3.2-4.7
					C505.9,210.1,507.3,212.2,507.3,214.8z"/>
				<path class="st23" d="M509.3,219.2c0,2.6-1.4,4.7-3.2,4.7c-1.7,0-3.1-2.1-3.1-4.7c0-2.6,1.4-4.7,3.1-4.7
					C507.9,214.5,509.3,216.6,509.3,219.2z"/>
				<path class="st21" d="M505.9,218.2c0,2.6-1.4,4.7-3.2,4.7c-1.7,0-3.2-2.1-3.2-4.7c0-2.6,1.4-4.7,3.2-4.7
					C504.5,213.4,505.9,215.5,505.9,218.2z"/>
				<path class="st22" d="M513.9,213.3c0,2.6-1.4,4.7-3.2,4.7c-1.7,0-3.2-2.1-3.2-4.7c0-2.6,1.4-4.7,3.2-4.7
					C512.5,208.5,513.9,210.6,513.9,213.3z"/>
				<path class="st21" d="M512.8,216.5c0,2.6-1.4,4.7-3.2,4.7c-1.7,0-3.2-2.1-3.2-4.7c0-2.6,1.4-4.7,3.2-4.7
					C511.4,211.8,512.8,213.9,512.8,216.5z"/>
			</g>
			<g>
				<path class="st21" d="M519.1,212.9c0,2-1.1,3.6-2.4,3.6c-1.3,0-2.4-1.6-2.4-3.6c0-2,1.1-3.6,2.4-3.6
					C518,209.3,519.1,210.9,519.1,212.9z"/>
				<path class="st22" d="M517.1,214.8c0,2.6-1.4,4.7-3.2,4.7c-1.7,0-3.2-2.1-3.2-4.7c0-2.6,1.4-4.7,3.2-4.7
					C515.7,210.1,517.1,212.2,517.1,214.8z"/>
				<path class="st23" d="M519.1,219.2c0,2.6-1.4,4.7-3.2,4.7c-1.7,0-3.2-2.1-3.2-4.7c0-2.6,1.4-4.7,3.2-4.7
					C517.7,214.5,519.1,216.6,519.1,219.2z"/>
				<path class="st21" d="M515.7,218.2c0,2.6-1.4,4.7-3.2,4.7c-1.7,0-3.2-2.1-3.2-4.7c0-2.6,1.4-4.7,3.2-4.7
					C514.2,213.4,515.7,215.5,515.7,218.2z"/>
				<path class="st22" d="M523.7,213.3c0,2.6-1.4,4.7-3.2,4.7c-1.7,0-3.2-2.1-3.2-4.7c0-2.6,1.4-4.7,3.2-4.7
					C522.3,208.5,523.7,210.6,523.7,213.3z"/>
				<path class="st21" d="M522.6,216.5c0,2.6-1.4,4.7-3.2,4.7c-1.7,0-3.2-2.1-3.2-4.7c0-2.6,1.4-4.7,3.2-4.7
					C521.2,211.8,522.6,213.9,522.6,216.5z"/>
			</g>
			<g>
				<path class="st21" d="M523.8,213.2c0,2-1.1,3.6-2.4,3.6c-1.3,0-2.4-1.6-2.4-3.6c0-2,1.1-3.6,2.4-3.6
					C522.8,209.6,523.8,211.2,523.8,213.2z"/>
				<path class="st22" d="M521.8,215.1c0,2.6-1.4,4.7-3.2,4.7c-1.7,0-3.2-2.1-3.2-4.7c0-2.6,1.4-4.7,3.2-4.7
					C520.4,210.3,521.8,212.5,521.8,215.1z"/>
				<path class="st23" d="M523.8,219.5c0,2.6-1.4,4.7-3.1,4.7c-1.7,0-3.2-2.1-3.2-4.7c0-2.6,1.4-4.7,3.2-4.7
					C522.4,214.7,523.8,216.8,523.8,219.5z"/>
				<path class="st21" d="M520.4,218.4c0,2.6-1.4,4.7-3.2,4.7c-1.7,0-3.2-2.1-3.2-4.7c0-2.6,1.4-4.7,3.2-4.7
					C519,213.7,520.4,215.8,520.4,218.4z"/>
				<path class="st22" d="M528.4,213.5c0,2.6-1.4,4.7-3.2,4.7c-1.7,0-3.2-2.1-3.2-4.7c0-2.6,1.4-4.7,3.2-4.7
					C527,208.8,528.4,210.9,528.4,213.5z"/>
				<path class="st21" d="M527.3,216.8c0,2.6-1.4,4.7-3.2,4.7c-1.7,0-3.2-2.1-3.2-4.7c0-2.6,1.4-4.7,3.2-4.7
					C525.9,212,527.3,214.1,527.3,216.8z"/>
			</g>
			<g>
				<path class="st21" d="M518.5,209.2c0,2-1.1,3.6-2.4,3.6c-1.3,0-2.4-1.6-2.4-3.6c0-2,1.1-3.6,2.4-3.6
					C517.5,205.6,518.5,207.2,518.5,209.2z"/>
				<path class="st22" d="M516.5,211.1c0,2.6-1.4,4.7-3.2,4.7c-1.7,0-3.2-2.1-3.2-4.7c0-2.6,1.4-4.7,3.2-4.7
					C515.1,206.4,516.5,208.5,516.5,211.1z"/>
				<path class="st23" d="M518.5,215.5c0,2.6-1.4,4.7-3.2,4.7c-1.7,0-3.2-2.1-3.2-4.7c0-2.6,1.4-4.7,3.2-4.7
					C517.1,210.8,518.5,212.9,518.5,215.5z"/>
				<path class="st21" d="M515.1,214.4c0,2.6-1.4,4.7-3.2,4.7c-1.7,0-3.2-2.1-3.2-4.7c0-2.6,1.4-4.7,3.2-4.7
					C513.7,209.7,515.1,211.8,515.1,214.4z"/>
				<path class="st22" d="M523.1,209.6c0,2.6-1.4,4.7-3.2,4.7c-1.7,0-3.2-2.1-3.2-4.7c0-2.6,1.4-4.7,3.2-4.7
					C521.7,204.8,523.1,206.9,523.1,209.6z"/>
				<path class="st21" d="M522,212.8c0,2.6-1.4,4.7-3.2,4.7c-1.7,0-3.2-2.1-3.2-4.7c0-2.6,1.4-4.7,3.2-4.7
					C520.6,208.1,522,210.2,522,212.8z"/>
			</g>
			<path class="st24" d="M498.8,218.9l32-6.4c0,0-5.2,7-5.4,7.4c-0.2,0.5,5.8,23.5,5.8,23.5l-1.4,5.3h-34.7l-0.6-3.9l5.2-20.6
				l-2.4-3.5v-1.9H498.8z"/>
			<polygon class="st25" points="524.8,225.3 496.9,244.2 497.6,247.3 530,248.8 495.3,248.8 494.7,244.9 499.7,225.1 525.8,220.2 
				525.8,221.5 			"/>
			<path class="st22" d="M533.1,233.4l-6.3-11l1.9-1.7l-2.9-2.2l-27.1,4.8c-0.4,0.1-0.7,0.6-0.6,1.2c0,0.6,0.4,1,0.8,1l0.5-0.1
				l26.2-4.6l0.1,0.1l-0.4,0.4l-3.4,12.5c-0.1,0.6,0,1.2,0.4,1.4c0.1,0.1,0.2,0.1,0.3,0.1c0.3,0,0.6-0.3,0.7-0.7l2.7-10.2l5.9,10.5
				c0.1,0.2,0.4,0.4,0.6,0.4c0.2,0,0.3-0.1,0.5-0.3C533.4,234.6,533.4,233.9,533.1,233.4z"/>
		</g>
		<g>
			<g>
				<path class="st26" d="M587.8,247.1c0,1.1,0.9,1.9,1.9,1.9h28c1.1,0,1.9-0.9,1.9-1.9v-37.7c0-1.1-0.9-1.9-1.9-1.9h-28
					c-1.1,0-1.9,0.9-1.9,1.9V247.1z"/>
				<path class="st27" d="M613.6,248v-35.4c0-1-0.8-1.8-1.8-1.8h-24v-1.4c0-1.1,0.9-1.9,1.9-1.9h28c1.1,0,1.9,0.9,1.9,1.9v37.7
					c0,1.1-0.9,1.9-1.9,1.9h-4.5C613.4,248.8,613.6,248.4,613.6,248z"/>
			</g>
			<path class="st18" d="M585.7,206.9c0,1.7,1.4,3.1,3.1,3.1h29.8c1.7,0,3.1-1.4,3.1-3.1l0,0c0-1.7-1.4-3.1-3.1-3.1h-29.8
				C587.1,203.8,585.7,205.2,585.7,206.9L585.7,206.9z"/>
		</g>
		<g>
			<g>
				<path class="st26" d="M550.2,247.1c0,1.1,0.9,1.9,1.9,1.9h28c1.1,0,1.9-0.9,1.9-1.9v-37.7c0-1.1-0.9-1.9-1.9-1.9h-28
					c-1.1,0-1.9,0.9-1.9,1.9V247.1z"/>
				<path class="st27" d="M576,248v-35.4c0-1-0.8-1.8-1.8-1.8h-24v-1.4c0-1.1,0.9-1.9,1.9-1.9h28c1.1,0,1.9,0.9,1.9,1.9v37.7
					c0,1.1-0.9,1.9-1.9,1.9h-4.5C575.8,248.8,576,248.4,576,248z"/>
			</g>
			<path class="st18" d="M548.1,206.9c0,1.7,1.4,3.1,3.1,3.1H581c1.7,0,3.1-1.4,3.1-3.1l0,0c0-1.7-1.4-3.1-3.1-3.1h-29.8
				C549.5,203.8,548.1,205.2,548.1,206.9L548.1,206.9z"/>
		</g>
		<g>
			<polygon class="st28" points="714.4,215.2 707.5,249.1 717,249 			"/>
			<g>
				<polygon class="st29" points="722.4,212.5 722.4,212.5 721.4,207 720.5,207 719.5,212.5 714.4,215.2 711.5,249 730.8,249 
					728,215.2 				"/>
				<polygon class="st30" points="720.2,212.9 720.9,207.5 721.9,212.9 727.7,215.5 715,215.5 				"/>
				<polyline class="st31" points="720.9,207.5 721.3,247 730.2,248.8 727.7,215.5 722.2,213.2 				"/>
			</g>
		</g>
		<g>
			<polygon class="st28" points="696,215.5 689.1,249.4 698.7,249.3 			"/>
			<g>
				<polygon class="st29" points="704,212.8 704,212.8 703,207.3 702.1,207.3 701.2,212.8 696,215.5 693.2,249.3 712.5,249.3 
					709.6,215.5 				"/>
				<polygon class="st30" points="701.8,213.2 702.5,207.8 703.5,213.2 709.3,215.8 696.6,215.8 				"/>
				<polyline class="st31" points="702.5,207.8 703,247.3 711.8,249.1 709.3,215.8 703.9,213.5 				"/>
			</g>
		</g>
		<g>
			<polygon class="st28" points="670.2,215.2 663.3,249 672.9,249 			"/>
			<g>
				<polygon class="st32" points="678.2,212.5 678.2,212.5 677.2,206.9 676.3,206.9 675.3,212.5 670.2,215.2 667.4,249 686.7,249 
					683.8,215.2 				"/>
				<polygon class="st30" points="676,212.8 676.7,207.5 677.7,212.8 683.5,215.5 670.8,215.5 				"/>
				<polyline class="st31" points="676.7,207.5 677.1,247 686,248.8 683.5,215.5 678.1,213.1 				"/>
			</g>
		</g>
		<g>
			<polygon class="st28" points="643.1,215.2 636.2,249 645.7,249 			"/>
			<g>
				<polygon class="st32" points="651.1,212.5 651.1,212.5 650.1,206.9 649.2,206.9 648.2,212.5 643.1,215.2 640.2,249 659.5,249 
					656.7,215.2 				"/>
				<polygon class="st30" points="648.9,212.8 649.6,207.5 650.6,212.8 656.3,215.5 643.7,215.5 				"/>
				<polyline class="st31" points="649.6,207.5 650,247 658.9,248.7 656.3,215.5 650.9,213.1 				"/>
			</g>
		</g>
	</g>
	<g class="st5">
		<g>
			<g>
				<path class="st33" d="M1134.5,194.3v-64.8c0-11.4-9.3-20.7-20.7-20.7c-11.4,0-20.7,9.3-20.7,20.7v64.8H1134.5z"/>
			</g>
			<g>
				<g>
					<rect x="1114.1" y="-158.3" class="st33" width="0.7" height="322.7"/>
				</g>
			</g>
		</g>
		<g>
			
				<image style="overflow:visible;" width="473" height="331" xlink:href="9BB8F582EE1B9F0A.png"  transform="matrix(0.24 0 0 0.24 1056.9678 154.673)">
			</image>
		</g>
	</g>
	<g class="st5">
		<g>
			<g>
				<path class="st33" d="M1223.8,168.7v-36.5c0-6.4-5.2-11.6-11.6-11.6c-6.4,0-11.6,5.2-11.6,11.6v36.5H1223.8z"/>
			</g>
			<g>
				<g>
					<rect x="1210.8" y="-90.3" class="st33" width="0.7" height="214.1"/>
				</g>
			</g>
		</g>
		<g>
			
				<image style="overflow:visible;" width="398" height="331" xlink:href="9BB8F582EE1B9F0E.png"  transform="matrix(0.24 0 0 0.24 1164.4878 128.993)">
			</image>
		</g>
	</g>
</g>
</svg>
