<?xml version="1.0" encoding="utf-8"?>
<!-- Generator: Adobe Illustrator 25.3.1, SVG Export Plug-In . SVG Version: 6.00 Build 0)  -->
<svg version="1.1" id="圖層_1" xmlns="http://www.w3.org/2000/svg" xmlns:xlink="http://www.w3.org/1999/xlink" x="0px" y="0px"
	 viewBox="0 0 70 70" style="enable-background:new 0 0 70 70;" xml:space="preserve">
<style type="text/css">
	.st0{fill:#606060;}
	.st1{fill:#D7AD89;}
	.st2{fill:#040000;}
	.st3{fill:#E3E3E3;}
	.st4{fill:#DBDCDC;}
	.st5{fill:#C8C9CA;}
</style>
<g>
	<g>
		<path class="st0" d="M54.5,22.3c0,0,2.4-0.5,4,0.6c1.5,1.2,2.6,5.5,3.9,7.1c1.3,1.7,2,1.8,1.9,4.4c-0.1,2.6,2.8,18.9,1.4,21.2
			c-1.3,2.3-10-1-10-1L29.9,42.1c0,0-13.6,0.3-15.1,1.3c-1.4,1-2.2,1.9-1.2,3.6c0.9,1.7,4.1,6.7,4.1,6.7s4,3.6,2,4.5s0,4.4,0,4.4
			s-9-3.8-9.2-4.9S3.2,45.6,3.9,42.1c0.7-3.5,3.4-4.8,7.2-9.5c3.8-4.6,6.6-6.5,6.6-7.4s0.6-2.1,2.8-2.7c2.2-0.6,4.9-0.3,4.9-0.3
			s7.4-2.3,7.8-2.7s3.2-2.8,3.2-2.8l14.7,3.1C51.1,20.2,52.8,22.7,54.5,22.3z"/>
		<path class="st1" d="M36.1,12.5c0,0-1.5-0.5-2.1,0s-0.3,1.4,0.3,2.6c0.6,1.1,0.9,3.1,1.6,3.4c0.7,0.3,0.8,0.3,1,1.9
			c0.2,1.6,0.3,3.5,2,4.7c1.7,1.3,2.6,4.8,5.8,4.1s4.1-4.9,5.6-6.3c1.5-1.3,0.7-4.5,1.5-4.7s0.9-1.9,1.2-2.9s0.9-2.5,0.6-2.9
			c-0.3-0.4-1.1-0.3-1.1-0.3l-1.3-4.3L39.7,6l-2.2-0.7L36.1,12.5z"/>
		<g>
			<path class="st2" d="M52.6,12.6c0,0,0.9-5.3,0-8.4S49.5,0,47.4,0c-2.1,0.1-2.7-1.2-7.2,0.2c-4.5,1.4-4.5,5-4.9,6.9
				c-0.3,1.9-0.2,5.2,0.6,6.2s1.1,2.6,1.1,2.6s-0.1-3,0.9-3c1,0.1-1-2.5-0.1-3.7c1-1.2,0.6-1.9,0.6-1.9s2.8,3.4,5.5,3.3
				s3.7-1.3,4.9-1c1.1,0.3,2.4-1.1,2.5-0.3c0.2,0.9-0.2,4.7,0.4,4.9C52.3,14.4,52.6,12.6,52.6,12.6z"/>
			<path class="st2" d="M35.9,13.4c-0.9-1.1-1-4.4-0.7-6.2c0-0.2,0.1-0.4,0.1-0.6c0.3-2,0.7-5,4.8-6.3c1.5-0.5,2.7-0.7,3.7-0.7
				c0.8,0,1.3,0.1,1.9,0.2c0.5,0.1,1,0.2,1.7,0.2h0.1c1.2,0,4,0.4,5.1,4.2c0.9,3.1,0,8.3,0,8.4c0,0.2-0.2,1.8-0.8,1.8c0,0,0,0-0.1,0
				c-0.4-0.1-0.4-1.3-0.4-3.1c0-0.8,0-1.5,0-1.8c0-0.2-0.1-0.2-0.2-0.2c-0.2,0-0.4,0.1-0.7,0.2c-0.4,0.2-0.8,0.4-1.3,0.4
				c-0.1,0-0.2,0-0.3,0s-0.2,0-0.3,0c-0.4,0-0.8,0.2-1.3,0.4C46.4,10.6,45.5,11,44,11h-0.1c-2.3,0-4.7-2.5-5.3-3.2
				c0,0.3,0,0.9-0.7,1.7c-0.5,0.6-0.2,1.7,0.1,2.5c0.2,0.5,0.3,1,0.2,1.1s-0.2,0.1-0.3,0.1l0,0c-0.1,0-0.2,0-0.3,0.1
				c-0.6,0.6-0.5,2.7-0.5,2.8H37C36.9,16,36.7,14.4,35.9,13.4z M37.9,13c0.1,0,0.2,0,0.2-0.1c0.1-0.2,0-0.6-0.2-1.1
				c-0.3-0.8-0.6-1.9-0.1-2.6c0.9-1.2,0.6-1.8,0.6-1.8L38.2,7l0.3,0.4c0,0,2.8,3.3,5.4,3.3H44c1.4-0.1,2.4-0.4,3.2-0.7
				c0.5-0.2,0.9-0.4,1.4-0.4c0.1,0,0.2,0,0.4,0c0.1,0,0.2,0,0.3,0c0.4,0,0.9-0.2,1.2-0.4C50.8,9.1,51,9,51.2,9s0.3,0.1,0.3,0.3
				c0.1,0.3,0.1,1,0,1.8c0,1.2,0,3,0.3,3l0,0c0.4,0,0.6-1.2,0.7-1.7c0-0.1,0.9-5.3,0-8.3c-1.1-3.7-3.9-4.1-5-4.1h-0.1
				c-0.7,0-1.2-0.1-1.7-0.2s-1.1-0.2-1.9-0.2c-1,0-2.2,0.2-3.6,0.7c-4,1.3-4.4,4.2-4.7,6.2c0,0.2-0.1,0.4-0.1,0.6
				c-0.3,2-0.1,5.2,0.6,6.2c0.5,0.7,0.8,1.6,1,2.2c0-0.7,0.1-1.9,0.5-2.3C37.6,13,37.7,13,37.9,13L37.9,13z"/>
		</g>
	</g>
	<g>
		<g>
			<path class="st3" d="M62.5,68.9H17.6V45.2c0-2.9,2.4-5.3,5.3-5.3h34.3c2.9,0,5.3,2.4,5.3,5.3V68.9z"/>
			<path class="st4" d="M61.9,70h-33c-0.3,0-0.6-0.5-0.6-1v-1h33.6c0.3,0,0.6,0.5,0.6,1l0,0C62.5,69.5,62.2,70,61.9,70z"/>
			<path class="st4" d="M18.2,70h33c0.3,0,0.6-0.5,0.6-1v-1H18.2c-0.3,0-0.6,0.5-0.6,1l0,0C17.6,69.5,17.9,70,18.2,70z"/>
		</g>
		<g>
			<path class="st5" d="M43.8,52.2c-0.3,0.3-0.5,0.5-0.7,0.8c-0.6,0.9-0.2,2.1,0.8,2.6c0.1,0.1,0.1,0.1,0.1,0.2
				c-0.2,0.6-0.6,1.1-1,1.6c-0.5,0.5-0.9,0.6-1.6,0.4c-0.2-0.1-0.5-0.2-0.8-0.2s-0.6,0.1-0.8,0.1h-0.1c-0.7,0.3-1,0.2-1.5-0.3
				c-1-1.1-1.5-2.3-1.4-3.7c0-0.9,0.4-1.7,1.3-2.1c0.5-0.2,1-0.3,1.5-0.1c1,0.4,0.7,0.3,1.7,0c0.7-0.2,1.4-0.2,2,0.3
				C43.5,51.9,43.7,52,43.8,52.2z"/>
			<path class="st5" d="M42.3,49.3c0,0.2,0,0.4-0.1,0.6c-0.2,0.6-0.6,1.1-1.1,1.4c-0.1,0.1-0.2,0.1-0.4,0.1s-0.3,0-0.2-0.2
				c0-0.6,0.3-1.1,0.8-1.5C41.6,49.5,41.9,49.4,42.3,49.3z"/>
		</g>
	</g>
</g>
</svg>
