<?xml version="1.0" encoding="utf-8"?>
<!-- Generator: Adobe Illustrator 25.3.1, SVG Export Plug-In . SVG Version: 6.00 Build 0)  -->
<svg version="1.1" id="圖層_1" xmlns="http://www.w3.org/2000/svg" xmlns:xlink="http://www.w3.org/1999/xlink" x="0px" y="0px"
	 viewBox="0 0 200 200" style="enable-background:new 0 0 200 200;" xml:space="preserve">
<style type="text/css">
	.st0{fill:#554946;}
	.st1{fill:#CECFD1;}
	.st2{fill:#BFBFC0;}
	.st3{fill:#E7E6E7;}
	.st4{fill:#F2F2F2;}
	.st5{fill:#323333;}
	.st6{fill:#EEEBE8;}
	.st7{fill:#DAD6D1;}
	.st8{fill:#C0BAB5;}
</style>
<g>
	<rect y="63.1" class="st0" width="199.3" height="20.5"/>
	<rect x="10.8" y="83.6" class="st1" width="187.9" height="15"/>
	<rect x="16.9" y="97" class="st2" width="182.7" height="8.3"/>
	<rect y="167.1" class="st0" width="200" height="20.5"/>
	<rect x="10.8" y="152.1" class="st1" width="187.9" height="15"/>
	<rect x="16.9" y="145.4" class="st2" width="182.7" height="8.3"/>
	<rect x="17.2" y="102" class="st3" width="181.9" height="47.1"/>
	<rect x="16.6" y="102" class="st4" width="87.9" height="47.1"/>
	<rect x="16.9" y="187.3" class="st1" width="5.4" height="12.7"/>
	<rect x="66.6" y="187.3" class="st1" width="5.4" height="12.7"/>
	<rect x="182.2" y="187.3" class="st1" width="5.4" height="12.7"/>
	<g>
		<g>
			<polygon class="st5" points="114.2,35.7 128.3,35.7 130.2,60.1 112.6,60.1 			"/>
			<path class="st6" d="M130,61.6h-17.2c-0.6,0-1.1-0.5-1.1-1.1l0,0c0-0.6,0.5-1.1,1.1-1.1H130c0.6,0,1.1,0.5,1.1,1.1l0,0
				C131,61.1,130.5,61.6,130,61.6z"/>
			<path class="st6" d="M127.6,37.8h-13.3c-0.7,0-1.4-0.6-1.4-1.4l0,0c0-0.7,0.6-1.4,1.4-1.4h13.3c0.7,0,1.4,0.6,1.4,1.4l0,0
				C128.9,37.2,128.3,37.8,127.6,37.8z"/>
		</g>
		<g>
			<polygon class="st5" points="114.5,26.9 128.6,26.9 130.5,51.4 112.9,51.4 			"/>
			<path class="st6" d="M130.3,52.9h-17.2c-0.6,0-1.1-0.5-1.1-1.1l0,0c0-0.6,0.5-1.1,1.1-1.1h17.2c0.6,0,1.1,0.5,1.1,1.1l0,0
				C131.3,52.4,130.8,52.9,130.3,52.9z"/>
			<path class="st6" d="M127.9,29h-13.3c-0.7,0-1.4-0.6-1.4-1.4l0,0c0-0.7,0.6-1.4,1.4-1.4h13.3c0.7,0,1.4,0.6,1.4,1.4l0,0
				C129.2,28.4,128.6,29,127.9,29z"/>
		</g>
		<g>
			<polygon class="st5" points="114.8,16.7 128.9,16.7 130.8,41.1 113.2,41.1 			"/>
			<path class="st6" d="M130.6,42.6h-17.2c-0.6,0-1.1-0.5-1.1-1.1l0,0c0-0.6,0.5-1.1,1.1-1.1h17.2c0.6,0,1.1,0.5,1.1,1.1l0,0
				C131.6,42.1,131.1,42.6,130.6,42.6z"/>
			<path class="st6" d="M128.2,18.8h-13.3c-0.7,0-1.4-0.6-1.4-1.4l0,0c0-0.7,0.6-1.4,1.4-1.4h13.3c0.7,0,1.4,0.6,1.4,1.4l0,0
				C129.5,18.2,128.9,18.8,128.2,18.8z"/>
		</g>
		<g>
			<polygon class="st5" points="115.1,8.5 129.2,8.5 131.1,33 113.5,33 			"/>
			<path class="st6" d="M130.9,34.5h-17.2c-0.6,0-1.1-0.5-1.1-1.1l0,0c0-0.6,0.5-1.1,1.1-1.1h17.2c0.6,0,1.1,0.5,1.1,1.1l0,0
				C131.9,34,131.4,34.5,130.9,34.5z"/>
			<path class="st6" d="M128.5,10.6h-13.3c-0.7,0-1.4-0.6-1.4-1.4l0,0c0-0.7,0.6-1.4,1.4-1.4h13.3c0.7,0,1.4,0.6,1.4,1.4l0,0
				C129.8,10,129.2,10.6,128.5,10.6z"/>
		</g>
		<g>
			<polygon class="st5" points="115.4,1 129.5,1 131.4,25.4 113.8,25.4 			"/>
			<path class="st6" d="M131.2,26.9H114c-0.6,0-1.1-0.5-1.1-1.1l0,0c0-0.6,0.5-1.1,1.1-1.1h17.2c0.6,0,1.1,0.5,1.1,1.1l0,0
				C132.2,26.5,131.7,26.9,131.2,26.9z"/>
			<path class="st6" d="M128.8,3.1h-13.3c-0.7,0-1.4-0.6-1.4-1.4l0,0c0-0.7,0.6-1.4,1.4-1.4h13.3c0.7,0,1.4,0.6,1.4,1.4l0,0
				C130.1,2.5,129.5,3.1,128.8,3.1z"/>
		</g>
		<g>
			<polygon class="st5" points="140.4,36.9 154.5,36.9 156.4,61.3 138.8,61.3 			"/>
			<path class="st6" d="M156.2,62.8H139c-0.6,0-1.1-0.5-1.1-1.1l0,0c0-0.6,0.5-1.1,1.1-1.1h17.2c0.6,0,1.1,0.5,1.1,1.1l0,0
				C157.2,62.3,156.7,62.8,156.2,62.8z"/>
			<path class="st6" d="M153.8,39h-13.3c-0.7,0-1.4-0.6-1.4-1.4l0,0c0-0.7,0.6-1.4,1.4-1.4h13.3c0.7,0,1.4,0.6,1.4,1.4l0,0
				C155.1,38.4,154.5,39,153.8,39z"/>
		</g>
		<g>
			<polygon class="st5" points="140.7,28.1 154.8,28.1 156.7,52.6 139.1,52.6 			"/>
			<path class="st6" d="M156.5,54.1h-17.2c-0.6,0-1.1-0.5-1.1-1.1l0,0c0-0.6,0.5-1.1,1.1-1.1h17.2c0.6,0,1.1,0.5,1.1,1.1l0,0
				C157.5,53.6,157,54.1,156.5,54.1z"/>
			<path class="st6" d="M154.1,30.2h-13.3c-0.7,0-1.4-0.6-1.4-1.4l0,0c0-0.7,0.6-1.4,1.4-1.4h13.3c0.7,0,1.4,0.6,1.4,1.4l0,0
				C155.4,29.6,154.8,30.2,154.1,30.2z"/>
		</g>
		<g>
			<polygon class="st5" points="141,17.9 155.1,17.9 157,42.3 139.4,42.3 			"/>
			<path class="st6" d="M156.8,43.8h-17.2c-0.6,0-1.1-0.5-1.1-1.1l0,0c0-0.6,0.5-1.1,1.1-1.1h17.2c0.6,0,1.1,0.5,1.1,1.1l0,0
				C157.8,43.3,157.3,43.8,156.8,43.8z"/>
			<path class="st6" d="M154.4,20h-13.3c-0.7,0-1.4-0.6-1.4-1.4l0,0c0-0.7,0.6-1.4,1.4-1.4h13.3c0.7,0,1.4,0.6,1.4,1.4l0,0
				C155.7,19.4,155.1,20,154.4,20z"/>
		</g>
		<g>
			<polygon class="st5" points="141.3,9.7 155.4,9.7 157.3,34.2 139.7,34.2 			"/>
			<path class="st6" d="M157.1,35.7h-17.2c-0.6,0-1.1-0.5-1.1-1.1l0,0c0-0.6,0.5-1.1,1.1-1.1h17.2c0.6,0,1.1,0.5,1.1,1.1l0,0
				C158.1,35.2,157.6,35.7,157.1,35.7z"/>
			<path class="st6" d="M154.7,11.9h-13.3c-0.7,0-1.4-0.6-1.4-1.4l0,0c0-0.7,0.6-1.4,1.4-1.4h13.3c0.7,0,1.4,0.6,1.4,1.4l0,0
				C156,11.2,155.4,11.9,154.7,11.9z"/>
		</g>
		<g>
			<polygon class="st5" points="141.6,1 155.7,1 157.6,25.4 140,25.4 			"/>
			<path class="st6" d="M157.4,26.9h-17.2c-0.6,0-1.1-0.5-1.1-1.1l0,0c0-0.6,0.5-1.1,1.1-1.1h17.2c0.6,0,1.1,0.5,1.1,1.1l0,0
				C158.4,26.5,157.9,26.9,157.4,26.9z"/>
			<path class="st6" d="M155,3.1h-13.3c-0.7,0-1.4-0.6-1.4-1.4l0,0c0-0.7,0.6-1.4,1.4-1.4H155c0.7,0,1.4,0.6,1.4,1.4l0,0
				C156.3,2.5,155.7,3.1,155,3.1z"/>
		</g>
		<g>
			<polygon class="st5" points="166.3,37.5 180.4,37.5 182.3,61.9 164.7,61.9 			"/>
			<path class="st6" d="M182.1,63.4h-17.2c-0.6,0-1.1-0.5-1.1-1.1l0,0c0-0.6,0.5-1.1,1.1-1.1h17.2c0.6,0,1.1,0.5,1.1,1.1l0,0
				C183.1,62.9,182.6,63.4,182.1,63.4z"/>
			<path class="st6" d="M179.7,39.6h-13.3c-0.7,0-1.4-0.6-1.4-1.4l0,0c0-0.7,0.6-1.4,1.4-1.4h13.3c0.7,0,1.4,0.6,1.4,1.4l0,0
				C181,39,180.4,39.6,179.7,39.6z"/>
		</g>
		<g>
			<polygon class="st5" points="166.6,28.7 180.7,28.7 182.6,53.2 165,53.2 			"/>
			<path class="st6" d="M182.4,54.7h-17.2c-0.6,0-1.1-0.5-1.1-1.1l0,0c0-0.6,0.5-1.1,1.1-1.1h17.2c0.6,0,1.1,0.5,1.1,1.1l0,0
				C183.4,54.2,182.9,54.7,182.4,54.7z"/>
			<path class="st6" d="M180,30.8h-13.3c-0.7,0-1.4-0.6-1.4-1.4l0,0c0-0.7,0.6-1.4,1.4-1.4H180c0.7,0,1.4,0.6,1.4,1.4l0,0
				C181.3,30.2,180.7,30.8,180,30.8z"/>
		</g>
		<g>
			<polygon class="st5" points="166.9,18.5 181,18.5 182.9,42.9 165.3,42.9 			"/>
			<path class="st6" d="M182.7,44.4h-17.2c-0.6,0-1.1-0.5-1.1-1.1l0,0c0-0.6,0.5-1.1,1.1-1.1h17.2c0.6,0,1.1,0.5,1.1,1.1l0,0
				C183.7,43.9,183.2,44.4,182.7,44.4z"/>
			<path class="st6" d="M180.3,20.6H167c-0.7,0-1.4-0.6-1.4-1.4l0,0c0-0.7,0.6-1.4,1.4-1.4h13.3c0.7,0,1.4,0.6,1.4,1.4l0,0
				C181.6,20,181,20.6,180.3,20.6z"/>
		</g>
		<g>
			<polygon class="st5" points="167.2,10.3 181.3,10.3 183.2,34.8 165.6,34.8 			"/>
			<path class="st6" d="M183,36.3h-17.2c-0.6,0-1.1-0.5-1.1-1.1l0,0c0-0.6,0.5-1.1,1.1-1.1H183c0.6,0,1.1,0.5,1.1,1.1l0,0
				C184,35.8,183.5,36.3,183,36.3z"/>
			<path class="st6" d="M180.6,12.5h-13.3c-0.7,0-1.4-0.6-1.4-1.4l0,0c0-0.7,0.6-1.4,1.4-1.4h13.3c0.7,0,1.4,0.6,1.4,1.4l0,0
				C181.9,11.8,181.3,12.5,180.6,12.5z"/>
		</g>
		<g>
			<polygon class="st5" points="167.5,1 181.6,1 183.5,25.4 166,25.4 			"/>
			<path class="st6" d="M183.3,26.9h-17.2c-0.6,0-1.1-0.5-1.1-1.1l0,0c0-0.6,0.5-1.1,1.1-1.1h17.2c0.6,0,1.1,0.5,1.1,1.1l0,0
				C184.3,26.5,183.8,26.9,183.3,26.9z"/>
			<path class="st6" d="M180.9,3.1h-13.3c-0.7,0-1.4-0.6-1.4-1.4l0,0c0-0.7,0.6-1.4,1.4-1.4h13.3c0.7,0,1.4,0.6,1.4,1.4l0,0
				C182.2,2.5,181.6,3.1,180.9,3.1z"/>
		</g>
		<path class="st6" d="M122.4,18.2L122.4,18.2c-1.9,0-3.5-1.6-3.5-3.5l0,0c0-1.9,1.6-3.5,3.5-3.5l0,0c1.9,0,3.5,1.6,3.5,3.5l0,0
			C125.9,16.6,124.3,18.2,122.4,18.2z"/>
		<path class="st6" d="M148.2,18.2L148.2,18.2c-1.9,0-3.5-1.6-3.5-3.5l0,0c0-1.9,1.6-3.5,3.5-3.5l0,0c1.9,0,3.5,1.6,3.5,3.5l0,0
			C151.6,16.6,150.1,18.2,148.2,18.2z"/>
		<path class="st6" d="M174.5,18.2L174.5,18.2c-1.9,0-3.5-1.6-3.5-3.5l0,0c0-1.9,1.6-3.5,3.5-3.5l0,0c1.9,0,3.5,1.6,3.5,3.5l0,0
			C178,16.6,176.4,18.2,174.5,18.2z"/>
	</g>
	<g>
		<g>
			<path class="st7" d="M97,63.1v-6c0-5.6-4.6-10.3-10.2-10.3c-5.6,0-10.2,4.6-10.2,10.3v6H97z"/>
		</g>
		<g>
			<path class="st8" d="M87.3,46.9v16.2H97v-6C97,51.7,92.7,47.2,87.3,46.9z"/>
		</g>
		<g>
			<path class="st8" d="M97.9,61.9H97c-2.5,0-4.5-2-4.5-4.5c0-2.5,2-4.5,4.5-4.5h0.9c2.5,0,4.5,2,4.5,4.5
				C102.4,59.9,100.4,61.9,97.9,61.9z M97,54.4c-1.7,0-3.1,1.4-3.1,3.1c0,1.7,1.4,3.1,3.1,3.1h0.9c1.7,0,3.1-1.4,3.1-3.1
				c0-1.7-1.4-3.1-3.1-3.1H97z"/>
		</g>
	</g>
	<g>
		<g>
			<path class="st7" d="M66,63.4v-6c0-5.6-4.6-10.3-10.2-10.3c-5.6,0-10.2,4.6-10.2,10.3v6H66z"/>
		</g>
		<g>
			<path class="st8" d="M56.3,47.2v16.2H66v-6C66,52,61.7,47.5,56.3,47.2z"/>
		</g>
		<g>
			<path class="st8" d="M66.9,62.2H66c-2.5,0-4.5-2-4.5-4.5c0-2.5,2-4.5,4.5-4.5h0.9c2.5,0,4.5,2,4.5,4.5
				C71.4,60.2,69.4,62.2,66.9,62.2z M66,54.7c-1.7,0-3.1,1.4-3.1,3.1c0,1.7,1.4,3.1,3.1,3.1h0.9c1.7,0,3.1-1.4,3.1-3.1
				c0-1.7-1.4-3.1-3.1-3.1H66z"/>
		</g>
	</g>
	<g>
		<g>
			<path class="st7" d="M32.5,63.1v-6c0-5.6-4.6-10.3-10.2-10.3c-5.6,0-10.2,4.6-10.2,10.3v6H32.5z"/>
		</g>
		<g>
			<path class="st8" d="M22.9,46.9v16.2h9.7v-6C32.5,51.7,28.2,47.2,22.9,46.9z"/>
		</g>
		<g>
			<path class="st8" d="M33.5,61.9h-0.9c-2.5,0-4.5-2-4.5-4.5c0-2.5,2-4.5,4.5-4.5h0.9c2.5,0,4.5,2,4.5,4.5
				C37.9,59.9,35.9,61.9,33.5,61.9z M32.5,54.4c-1.7,0-3.1,1.4-3.1,3.1c0,1.7,1.4,3.1,3.1,3.1h0.9c1.7,0,3.1-1.4,3.1-3.1
				c0-1.7-1.4-3.1-3.1-3.1H32.5z"/>
		</g>
	</g>
</g>
</svg>
