<?xml version="1.0" encoding="utf-8"?>
<!-- Generator: Adobe Illustrator 25.3.1, SVG Export Plug-In . SVG Version: 6.00 Build 0)  -->
<svg version="1.1" id="圖層_1" xmlns="http://www.w3.org/2000/svg" xmlns:xlink="http://www.w3.org/1999/xlink" x="0px" y="0px"
	 viewBox="0 0 240 120" style="enable-background:new 0 0 240 120;" xml:space="preserve">
<style type="text/css">
	.st0{opacity:0.5;}
	.st1{opacity:0.21;}
	.st2{fill:#1B2E21;}
	.st3{fill:#E5C18E;}
</style>
<g class="st0">
	<g class="st1">
		<g>
			<g>
				<path class="st2" d="M188.8,133.3H144c-0.2,0-0.3-0.2-0.3-0.3v-1.7c0-0.2,0.2-0.3,0.3-0.3h44.8c0.2,0,0.3,0.2,0.3,0.3v1.7
					C189.1,133.1,189,133.3,188.8,133.3z"/>
			</g>
			<g>
				<path class="st2" d="M139.2,1.6h-0.1c-0.8,0.1-1.4,1-1.3,1.9l9.1,127.1c0.1,1,0.8,1.7,1.6,1.6c0.8-0.1,1.4-1,1.3-1.9l-9.2-127
					C140.6,2.3,139.9,1.6,139.2,1.6z"/>
			</g>
			<g>
				<path class="st2" d="M151.9,1.6h-0.1c-0.8,0.1-1.4,1-1.3,1.9l9.1,127.1c0.1,1,0.8,1.7,1.6,1.6c0.8-0.1,1.4-1,1.3-1.9l-9.1-127
					C153.3,2.3,152.7,1.6,151.9,1.6z"/>
			</g>
			<g>
				<path class="st2" d="M183.3,1.2c-0.8,0-1.4,0.7-1.5,1.6L172.7,130c-0.1,1,0.5,1.9,1.3,1.9c0.8,0.1,1.5-0.6,1.6-1.6l9.1-127.1
					c0.1-1-0.5-1.9-1.3-1.9C183.3,1.2,183.3,1.2,183.3,1.2z"/>
			</g>
			<g>
				<path class="st2" d="M197.5,1.3c-0.7,0-1.4,0.7-1.5,1.6l-10.8,127c-0.1,1,0.5,1.9,1.3,2s1.5-0.6,1.6-1.6L199,3.3
					c0.1-1-0.5-1.9-1.3-2C197.6,1.3,197.6,1.3,197.5,1.3z"/>
			</g>
			<g>
				<path class="st2" d="M193.7,43.8h-51.4c-0.8,0-1.5,0.8-1.5,1.8s0.7,1.8,1.5,1.8h51.4c0.8,0,1.5-0.8,1.5-1.8
					C195.2,44.6,194.5,43.8,193.7,43.8z"/>
			</g>
			<g>
				<path class="st2" d="M194.1,38.8h-51.4c-0.8,0-1.5,0.8-1.5,1.8s0.7,1.8,1.5,1.8h51.4c0.8,0,1.5-0.8,1.5-1.8
					C195.5,39.6,194.9,38.8,194.1,38.8z"/>
			</g>
			<g>
				<path class="st3" d="M189.5,132.5H143c-0.5,0-0.9,0.4-0.9,0.9v3.3c0,0.5,0.4,0.9,0.9,0.9h46.5c0.5,0,0.9-0.4,0.9-0.9v-3.3
					C190.5,132.9,190,132.5,189.5,132.5z"/>
			</g>
		</g>
		<g>
			<g>
				<path class="st2" d="M77.6,132H32.8c-0.2,0-0.3-0.2-0.3-0.3V130c0-0.2,0.2-0.3,0.3-0.3h44.8c0.2,0,0.3,0.2,0.3,0.3v1.7
					C78,131.9,77.8,132,77.6,132z"/>
			</g>
			<g>
				<path class="st2" d="M28,0.4h-0.1c-0.8,0.1-1.4,1-1.3,1.9l9.1,127.1c0.1,1,0.8,1.7,1.6,1.6c0.8-0.1,1.4-1,1.3-1.9L29.5,2
					C29.4,1.1,28.8,0.4,28,0.4z"/>
			</g>
			<g>
				<path class="st2" d="M40.8,0.4L40.8,0.4c-0.9,0.1-1.5,1-1.4,1.9l9.1,127.1c0.1,1,0.8,1.7,1.6,1.6c0.8-0.1,1.4-1,1.3-1.9L42.2,2
					C42.2,1.1,41.5,0.4,40.8,0.4z"/>
			</g>
			<g>
				<path class="st2" d="M72.1,0c-0.8,0-1.4,0.7-1.5,1.6l-9.1,127.1c-0.1,1,0.5,1.9,1.3,1.9c0.8,0.1,1.5-0.6,1.6-1.6L73.6,1.9
					c0.1-1-0.5-1.9-1.3-1.9C72.2,0,72.1,0,72.1,0z"/>
			</g>
			<g>
				<path class="st2" d="M86.3,0.1c-0.7,0-1.4,0.7-1.5,1.6L74,128.7c-0.1,1,0.5,1.9,1.3,2s1.5-0.6,1.6-1.6l10.8-127
					C87.8,1.1,87.2,0.2,86.3,0.1C86.4,0.1,86.4,0.1,86.3,0.1z"/>
			</g>
			<g>
				<path class="st2" d="M80.5,69.1H32.3c-0.8,0-1.4,0.8-1.4,1.8s0.6,1.8,1.4,1.8h48.2c0.8,0,1.4-0.8,1.4-1.8S81.3,69.1,80.5,69.1z"
					/>
			</g>
			<g>
				<path class="st2" d="M80.8,64H32.6c-0.8,0-1.4,0.8-1.4,1.8s0.6,1.8,1.4,1.8h48.2c0.8,0,1.4-0.8,1.4-1.8S81.6,64,80.8,64z"/>
			</g>
			<g>
				<path class="st3" d="M78.3,131.3H31.8c-0.5,0-0.9,0.4-0.9,0.9v3.3c0,0.5,0.4,0.9,0.9,0.9h46.5c0.5,0,0.9-0.4,0.9-0.9v-3.3
					C79.3,131.7,78.9,131.3,78.3,131.3z"/>
			</g>
		</g>
	</g>
</g>
</svg>
