<?xml version="1.0" encoding="utf-8"?>
<!-- Generator: Adobe Illustrator 25.3.1, SVG Export Plug-In . SVG Version: 6.00 Build 0)  -->
<svg version="1.1" id="圖層_1" xmlns="http://www.w3.org/2000/svg" xmlns:xlink="http://www.w3.org/1999/xlink" x="0px" y="0px"
	 viewBox="0 0 240 300" style="enable-background:new 0 0 240 300;" xml:space="preserve">
<style type="text/css">
	.st0{fill:#1B2E21;}
	.st1{fill:#E5C18E;}
	.st2{fill:#BBB6B1;}
	.st3{fill:#F7F6C8;}
	.st4{fill:#E2B868;}
	.st5{opacity:0.47;fill:#A06C25;enable-background:new    ;}
	.st6{fill:#F0F8F7;}
	.st7{fill:#4A200F;}
	.st8{fill:#FCFBE4;}
	.st9{fill:#EFD8AE;}
	.st10{fill:#272022;}
</style>
<g>
	<g>
		<g>
			<g>
				<path class="st0" d="M189.6,166.3h-44.8c-0.2,0-0.3,0.2-0.3,0.3v1.7c0,0.2,0.2,0.3,0.3,0.3h44.8c0.2,0,0.3-0.2,0.3-0.3v-1.7
					C189.9,166.5,189.8,166.3,189.6,166.3z"/>
			</g>
			<g>
				<path class="st0" d="M140,298h-0.1c-0.8-0.1-1.4-1-1.3-1.9l9.1-127.1c0.1-1,0.8-1.7,1.6-1.6c0.8,0.1,1.4,1,1.3,1.9l-9.1,127.1
					C141.4,297.3,140.7,298,140,298z"/>
			</g>
			<g>
				<path class="st0" d="M152.7,298h-0.1c-0.8-0.1-1.4-1-1.3-1.9l9.1-127.1c0.1-1,0.8-1.7,1.6-1.6c0.8,0.1,1.4,1,1.3,1.9l-9.1,127.1
					C154.1,297.3,153.5,298,152.7,298z"/>
			</g>
			<g>
				<path class="st0" d="M184.1,298.4c-0.8,0-1.4-0.7-1.5-1.6l-9.1-127.1c-0.1-1,0.5-1.9,1.3-1.9c0.8-0.1,1.5,0.6,1.6,1.6l9.1,127.1
					c0.1,1-0.5,1.9-1.3,1.9C184.1,298.4,184.1,298.4,184.1,298.4z"/>
			</g>
			<g>
				<path class="st0" d="M198.3,298.3c-0.7,0-1.4-0.7-1.5-1.6l-10.8-127c-0.1-1,0.5-1.9,1.3-2s1.5,0.6,1.6,1.6l10.8,127
					c0.1,1-0.5,1.9-1.3,2C198.4,298.3,198.4,298.3,198.3,298.3z"/>
			</g>
			<g>
				<path class="st0" d="M194.5,255.8h-51.4c-0.8,0-1.5-0.8-1.5-1.8s0.7-1.8,1.5-1.8h51.4c0.8,0,1.5,0.8,1.5,1.8
					S195.3,255.8,194.5,255.8z"/>
			</g>
			<g>
				<path class="st0" d="M194.9,260.8h-51.4c-0.8,0-1.5-0.8-1.5-1.8s0.7-1.8,1.5-1.8h51.4c0.8,0,1.5,0.8,1.5,1.8
					C196.3,260,195.7,260.8,194.9,260.8z"/>
			</g>
			<g>
				<path class="st1" d="M190.3,167.1h-46.5c-0.5,0-0.9-0.4-0.9-0.9v-3.3c0-0.5,0.4-0.9,0.9-0.9h46.5c0.5,0,0.9,0.4,0.9,0.9v3.3
					C191.3,166.7,190.8,167.1,190.3,167.1z"/>
			</g>
		</g>
		<g>
			<rect y="128.2" class="st0" width="240" height="8.4"/>
			<rect y="123.1" class="st2" width="240" height="5.1"/>
		</g>
	</g>
</g>
<g>
	<g>
		<path class="st3" d="M203.6,119.6l1.2-1.9c-4.1-2.4-6.1-6.9-6.6-9.9c0-0.3-0.1-0.5-0.1-0.7c-0.1-0.9,0.9-1.5,1.6-0.9
			c1.1,0.9,2,2.3,2.6,3.1l1.9-1.2c0,0-0.7-1.2-1.8-2.3c-1.5-1.8-3-2.6-4.3-2.7c-0.9,0-1.8,0.5-2.2,1.6c-0.5,1.6-0.1,4.5,1.1,7.3
			C198.6,115.1,200.9,117.8,203.6,119.6z"/>
		<path class="st4" d="M197.1,111.9c1.5,3.2,3.8,6,6.5,7.7l1.2-1.9l0,0c-4.1-2.4-6.1-6.9-6.6-9.9c0-0.3-0.1-0.5-0.1-0.7
			c-0.1-0.9,0.9-1.5,1.6-0.9c1.1,0.9,2,2.3,2.6,3.1l1.9-1.2c0,0-0.7-1.2-1.8-2.3c-1.5-1.8-3-2.6-4.3-2.7c-0.3,0-0.5,0-0.8,0.1
			c-0.7,0.3-1.1,0.8-1.4,1.6C195.5,106.2,195.9,109,197.1,111.9z"/>
		<path class="st4" d="M200.8,102.5l2.8,19.8c0,0.8,3.8,2.8,8.1,2.8c2.2,0,4.1-0.5,5.4-1.1c1.4-0.5,2.2-1.2,2.2-1.8l2.2-19.8
			C221.5,102.5,200.8,102.5,200.8,102.5z"/>
		<path class="st5" d="M203.6,122.2l-2.8-19.8h1.9c1.2,5,4.3,16.2,8,18.1c2.6,1.4,6.1,1.8,8.7,1.9c-0.3,0.4-0.9,0.9-2,1.5
			c-1.4,0.5-3.2,1.1-5.4,1.1C207.3,125,203.6,123.1,203.6,122.2z"/>
		<path class="st6" d="M200.8,102.5c0,0.1,0.1,0.3,0.4,0.4c1.4,0.7,5.3,1.1,9.9,1.1c0.5,0,1.1,0,1.6,0c3.8-0.1,6.9-0.5,8.1-1.1
			c0.4-0.1,0.5-0.3,0.5-0.5c0-0.8-3.7-1.4-8.4-1.5c-0.7,0-1.2,0-1.9,0C205.4,100.9,200.8,101.6,200.8,102.5z"/>
		<path class="st7" d="M201.2,102.9c1.4,0.5,5.3,1.1,9.9,1.1c0.5,0,1.1,0,1.6,0c3.8-0.1,6.9-0.4,8.1-0.9c-1.1-0.5-4.2-0.9-8-0.9
			c-0.7,0-1.2,0-1.9,0C206.5,101.9,202.6,102.3,201.2,102.9z"/>
		<path class="st6" d="M212.7,104c4.9-0.1,8.7-0.8,8.7-1.5c0-0.8-3.7-1.4-8.4-1.5C213,101.9,213,102.9,212.7,104z"/>
		<path class="st8" d="M200.8,102.5c0,0.8,4.6,1.5,10.3,1.5c5.7,0,10.3-0.7,10.3-1.5s-4.6-1.5-10.3-1.5
			C205.4,100.9,200.8,101.6,200.8,102.5z M201.6,102.3c0.4-0.1,1.2-0.4,2.6-0.5c1.9-0.3,4.3-0.4,6.9-0.4c2.6,0,5,0.1,6.9,0.4
			c1.5,0.3,2.3,0.4,2.7,0.5c0.1,0,0.1,0.3,0,0.3c-0.4,0.1-1.2,0.4-2.7,0.5c-1.9,0.3-4.3,0.4-6.9,0.4c-2.6,0-5-0.1-6.9-0.4
			c-1.5-0.1-2.2-0.4-2.6-0.5C201.3,102.5,201.3,102.4,201.6,102.3z"/>
		<path class="st9" d="M203.8,110.5c0.4-0.5,1.2-0.7,1.6-1.2c1.2-1.9-3.1-4.2-1.1-6.1c0.4-0.4,0.9-0.4,1.5,0c0.1,0,0.1,0.1,0,0.3
			c-0.1,0-0.3,0-0.3,0c-0.5-0.3-0.9-0.1-1.2,0.3c-0.7,0.8,0,1.9,0.5,2.7c0.4,0.7,0.9,1.4,0.9,2.2c0,1.8-1.6,1.5-2,2.7
			c-0.3,0.5,0.1,1.4,0.4,1.9c0.1,0.1-0.1,0.3-0.3,0.1C203.5,112.4,203.2,111.3,203.8,110.5z"/>
		<g>
			<path class="st10" d="M205.7,118.1c-2-0.1-3.9-0.7-5.7-1.5c0.7-1.4,1.4-2.7,2-4.1c0.1,0,0.1,0,0.3-0.1c1.1,0.5,2.3,0.8,3.5,0.9
				c0,0.1,0,0.1,0.1,0.1C205.9,115.1,205.8,116.6,205.7,118.1z"/>
		</g>
	</g>
</g>
</svg>
