<?xml version="1.0" encoding="utf-8"?>
<!-- Generator: Adobe Illustrator 25.3.1, SVG Export Plug-In . SVG Version: 6.00 Build 0)  -->
<svg version="1.1" id="圖層_1" xmlns="http://www.w3.org/2000/svg" xmlns:xlink="http://www.w3.org/1999/xlink" x="0px" y="0px"
	 viewBox="0 0 120 300" style="enable-background:new 0 0 120 300;" xml:space="preserve">
<style type="text/css">
	.st0{clip-path:url(#SVGID_2_);}
	.st1{fill:#9A8EB1;}
	.st2{fill:#AFA0C4;}
	.st3{opacity:0.3;enable-background:new    ;}
	.st4{opacity:0.3;}
	.st5{fill:#040000;}
	.st6{fill:#FFC9B6;}
	.st7{fill:#BD8287;}
	.st8{opacity:0.2;}
	.st9{opacity:0.2;enable-background:new    ;}
	.st10{fill:#54433D;}
	.st11{fill:#1A2E35;}
</style>
<g>
	<defs>
		<rect id="SVGID_1_" width="120" height="446.2"/>
	</defs>
	<clipPath id="SVGID_2_">
		<use xlink:href="#SVGID_1_"  style="overflow:visible;"/>
	</clipPath>
	<g class="st0">
		<path class="st1" d="M102.1,197.2l3.6,249H77.3L58.1,197.4L102.1,197.2z"/>
		<path class="st2" d="M20.1,190.8L0,439l28.3,1.9l39.3-246.7L20.1,190.8z"/>
		<path class="st3" d="M20.3,197.2l-1.2,8.7l84.9,1.5l-1.8-9.7L20.3,197.2z"/>
		<g class="st4">
			<path d="M60.7,235c0.1-0.5,0.2-0.9,0.3-1.4c0.3-1.3,0.5-2.6,0.8-3.9c0.4-1.9,0.8-3.8,1.1-5.7c0.5-2.3,0.9-4.7,1.4-7
				c0.5-2.5,1-5.1,1.5-7.6c0.5-2.6,1-5.1,1.5-7.7c0.5-2.4,1-4.8,1.4-7.2c0.4-2,0.8-4.1,1.2-6.1c0.3-1.5,0.6-2.9,0.9-4.4
				c0.1-0.7,0.3-1.4,0.4-2.1c0,0,0-0.1,0-0.1c0.1-0.5,0.9-0.3,0.8,0.2c-0.1,0.5-0.2,0.9-0.3,1.4c-0.3,1.3-0.5,2.6-0.8,3.9
				c-0.4,1.9-0.8,3.8-1.1,5.7c-0.5,2.3-0.9,4.7-1.4,7c-0.5,2.5-1,5.1-1.5,7.6c-0.5,2.6-1,5.1-1.5,7.7c-0.5,2.4-1,4.8-1.4,7.2
				c-0.4,2-0.8,4.1-1.2,6.1c-0.3,1.5-0.6,2.9-0.9,4.4c-0.1,0.7-0.3,1.4-0.4,2.1c0,0,0,0.1,0,0.1C61.4,235.7,60.6,235.5,60.7,235z"/>
		</g>
		<path class="st5" d="M47.9,16.9c0,0-0.5,7.5-6.6,10.6C30.9,32.8,8.7,42.3,9.9,56.6c0.5,5.6,5.8,11,5.9,16.3
			c0.1,3.9-1.2,7.6-2.5,11.2c-3.5,9.8-2.4,17.3,7.3,22.5c7.6,4,11.8,10.1,13.1,18.5c2,13.2,18.6,13.3,27.9,10
			c11.3-4,21.2-13.8,24.8-25.3c1.8-5.7,2.1-13.4-0.1-19.1c-1.8-4.7-3.7-9.8-3.8-14.9c-0.1-5.7,3.1-9.6,6.5-13.8
			c2.8-3.4,2.8-11.8,1.9-15.8c-1-4.7-3.6-9.2-5.9-13.4c-4.4-8-11-16.6-20.4-18.8C59.4,12.7,52.7,14.3,47.9,16.9z"/>
		<path class="st5" d="M55.3,15.2c0,0-0.5,7.5-6.6,10.6C38.3,31.2,16.1,40.6,17.3,55c0.5,5.6,5.8,11,5.9,16.3
			c0.1,3.9-1.2,7.6-2.5,11.2c-3.5,9.8-2.4,17.3,7.3,22.5c7.6,4,11.8,10.1,13.1,18.5c2,13.2,18.6,13.3,27.9,10
			c11.3-4,21.2-13.8,24.8-25.3c1.8-5.7,2.1-13.4-0.1-19.1c-1.8-4.7-3.7-9.8-3.8-14.9c-0.1-5.7,3.1-9.6,6.5-13.8
			c2.8-3.4,2.8-11.8,1.9-15.8c-1-4.7-3.6-9.2-5.9-13.4c-4.4-8-11-16.6-20.4-18.8C66.8,11.1,60,12.6,55.3,15.2z"/>
		<path class="st6" d="M85.8,83c0,0,15.8,1.4,22.9,16c7.2,15.1,8.8,26.1,8.8,26.1l-16.6-0.5C100.4,124.1,85.8,83,85.8,83z"/>
		<path class="st6" d="M30.7,84.7c0,0-11.3,1.5-19.1,15.7c-4.3,7.7-5.5,23-5.5,23h17.7C24.2,122.8,30.7,84.7,30.7,84.7z"/>
		<path class="st7" d="M101,119.6C99.8,97.8,86.3,83,86.3,83l-38-2.7l-18,4.1L27,97.8c-2.6,10.6-3.5,21.6-2.8,32.5l2.7,39.6
			l-11.1,30.3h89.3L96.9,172C96.9,172,101.5,130.6,101,119.6z"/>
		<g class="st8">
			<path d="M23.4,179.9c9.1-1.1,17.9-4.4,23.9-11.4c6-7,8-12.9,12-21.1c0.4,0.8,5.9,8.1,9.7,12.2c3.8,4.1,8.4,7.2,13.4,9.7
				c5,2.5,10.3,4.5,15.8,5.7l-1.4-5.3l-36-39.3l-35.7,43.6L23.4,179.9z"/>
		</g>
		<path class="st6" d="M63.3,119.1c0,0-5.3-7.5-6.1-9.4s-0.9-8.1-1.6-7.8c-0.7,0.2-2.9,2-2.9,3L41.2,87.3c0,0-1.7,0-1.8,1.3
			c0,0-2.4,0.4-1.7,4.5c0.7,4,1.6,4.7,1.6,4.7s-0.4,1.9,1.3,5.1c1.7,3.2,4.4,10.3,4.4,10.3s5.6,14.5,9.2,17.6
			c3.6,3.1,4.6,3.1,4.6,3.1l4.1,5.6l8.8-9.1L63.3,119.1z"/>
		<path class="st6" d="M55.6,121.7L23.2,146l1-23.2l-14.7-4.5c-1.5-0.5-3.1,0.6-3.2,2.2c-1.1,16.8-7.1,57.7,10,58.6
			c18,0.9,46.6-47.2,46.6-47.2L55.6,121.7z"/>
		<path class="st6" d="M100.9,124.7l-0.4,21.2l-32.8-21.4c-0.7,1-5.2,14.1-5.2,14.1s29,37.6,45.7,37.6c6.3,0,9.7-4.2,11-9.9
			c0.9-4,0.8-8.4,0.9-12.5c0.2-11.6-0.9-23-3.8-34.2C116.2,119.6,100.9,124.7,100.9,124.7z"/>
		<path class="st9" d="M62.3,138.3c0,0,4.4-6.3,4.5-6.6c0.1-0.2,5.6-4.2,5.6-4.2l-2.7-1.8c0,0-4.9,2.1-5.2,2.4c-0.3,0.2-4,7.6-4,7.6
			L62.3,138.3z"/>
		<path class="st6" d="M60.2,114.6c0,0,5.3-7.5,6.1-9.4c0.9-1.9,0.9-8.1,1.6-7.8c0.7,0.2,2.9,2,2.9,3l11.4-17.6c0,0,1.7,0,1.8,1.3
			c0,0,2.4,0.4,1.7,4.5c-0.7,4-1.6,4.7-1.6,4.7s0.4,1.9-1.3,5.1c-1.7,3.2-4.4,10.3-4.4,10.3s-5.6,14.5-9.2,17.6
			c-3.6,3.1-4.6,3.1-4.6,3.1l-4.8,6.9l-8.1-10.5L60.2,114.6z"/>
		<path class="st10" d="M68.3,103.8c1.2-1.7,2.4-3.4,3.6-5.1c0.1-0.2,0.2-0.4,0.4-0.5c0.2-0.2-0.2-0.5-0.4-0.2c-1,1.4-2,2.9-3,4.3
			c-0.3,0.5-0.6,0.9-1,1.4C67.8,103.8,68.1,104,68.3,103.8z"/>
		<path class="st10" d="M85,92.3c-0.1-0.9-1-1.4-1.9-1.3c-1.3,0.2-2,1.6-2.5,2.6c-1.8,3.1-3.6,6.1-5.4,9.2c-0.1,0.2,0.2,0.5,0.4,0.2
			c1.4-2.4,2.8-4.8,4.2-7.2c0.6-1.1,1.2-2.3,2-3.3c0.3-0.5,0.8-1,1.4-1c0.6-0.1,1.3,0.2,1.3,0.8C84.5,92.5,85,92.5,85,92.3z"/>
		<path class="st10" d="M74,100.3c2.8-4.1,5.5-8.3,8.1-12.6c0.9-1.5,1.8-3,2.6-4.6c0.1-0.3-0.3-0.5-0.4-0.2
			c-2.8,5.5-6.3,10.6-9.7,15.7c-0.3,0.5-0.7,1-1,1.5C73.5,100.3,73.8,100.6,74,100.3z"/>
		<path class="st10" d="M55.6,108.6c-1.2-1.7-2.4-3.4-3.6-5.1c-0.1-0.2-0.2-0.4-0.4-0.5c-0.2-0.2-0.6,0-0.4,0.2c1,1.4,2,2.9,3,4.3
			c0.3,0.5,0.6,0.9,1,1.4C55.4,109,55.8,108.8,55.6,108.6z"/>
		<path class="st10" d="M39.7,98c0.1-0.6,0.7-0.9,1.2-0.9c0.6,0,1.1,0.5,1.5,1c0.8,1,1.4,2.2,2,3.3c1.4,2.4,2.8,4.8,4.2,7.2
			c0.1,0.2,0.5,0,0.4-0.2c-1.8-3.1-3.6-6.1-5.4-9.2c-0.6-1-1.2-2.3-2.5-2.5c-0.9-0.2-1.8,0.3-1.9,1.3C39.2,98.2,39.6,98.2,39.7,98z"
			/>
		<path class="st10" d="M50.5,105.3c-4.1-5.2-7.6-10.8-10.6-16.7c-0.1-0.3-0.5,0-0.4,0.2c3,5.9,6.6,11.5,10.7,16.8
			C50.4,105.8,50.7,105.5,50.5,105.3z"/>
		<path class="st9" d="M50.6,125.3c0,0,3.3-2.3,3.6-2.8c0.2-0.5,6-7.9,6-7.9l-1.2-1.8l-9.6,10.1L50.6,125.3z"/>
		<path class="st10" d="M23,145.6c-3.7,2.1-6.8,4.9-9.3,8.3c-0.2,0.2,0.2,0.5,0.4,0.2c2.5-3.3,5.6-6.1,9.1-8.2
			C23.5,145.9,23.3,145.5,23,145.6z"/>
		<path class="st10" d="M100.6,145.8c3.2,1.8,5.8,4.4,7.6,7.5c0.1,0.3,0.5,0,0.4-0.2c-1.9-3.2-4.6-5.9-7.8-7.7
			C100.5,145.3,100.3,145.7,100.6,145.8z"/>
		<g>
			<path class="st11" d="M24.4,127.3c-0.3-9.7,0.5-19.4,2.3-28.9c0.1-0.3-0.4-0.4-0.4-0.1c-1.8,9.6-2.6,19.3-2.4,29
				C24,127.5,24.4,127.6,24.4,127.3z"/>
			<path class="st11" d="M24.2,127.8c-0.1,0-0.2,0-0.3-0.1c-0.2-0.1-0.3-0.3-0.3-0.5c-0.3-9.7,0.5-19.5,2.4-29.1
				c0-0.2,0.2-0.3,0.3-0.4c0.2-0.1,0.4,0,0.6,0.1c0.2,0.1,0.2,0.3,0.2,0.6c-1.8,9.5-2.6,19.2-2.3,28.9v0c0,0.2-0.1,0.4-0.3,0.5
				C24.4,127.8,24.3,127.8,24.2,127.8z M24.1,127.3C24.1,127.3,24.1,127.3,24.1,127.3L24.1,127.3z"/>
		</g>
		<g>
			<path class="st11" d="M100.8,127.3c0.4-8.3-0.6-16.6-2.9-24.6c-0.1-0.3-0.5-0.1-0.4,0.1c2.3,8,3.2,16.2,2.8,24.5
				C100.3,127.6,100.8,127.5,100.8,127.3z"/>
			<path class="st11" d="M100.5,127.8C100.5,127.8,100.5,127.8,100.5,127.8c-0.3,0-0.6-0.3-0.6-0.6c0.4-8.3-0.5-16.5-2.8-24.4
				c-0.1-0.3,0.1-0.6,0.4-0.7c0.3-0.1,0.6,0.1,0.7,0.4c2.3,8,3.3,16.4,2.9,24.7C101.1,127.6,100.9,127.8,100.5,127.8z"/>
		</g>
		<path class="st11" d="M45.7,184.7c9.1-2.5,18.4-4.5,27.7-6c0.3,0,0.2-0.5-0.1-0.4c-9.3,1.5-18.6,3.4-27.7,6
			C45.3,184.3,45.4,184.8,45.7,184.7z"/>
		<path class="st6" d="M75.3,84.4C63.7,81.6,64,73,66,64.9L45,48.8c2,10.4,5.3,28.6-1.9,35.5c0,0,17.7,9.4,25.3,6.7
			C75.9,88.4,75.3,84.4,75.3,84.4z"/>
		<path class="st9" d="M54,63.4c0.5,4.6,6.5,9.5,11,10.1c0.2-1.9,0.5-3.9,1-5.7l-11.7-10C53.9,59.7,53.8,61.6,54,63.4z"/>
		<path class="st6" d="M38.3,31.5c1.5,16.3,1.8,23.3,10.1,31.4c12.6,12.3,31.9,6.9,35.2-9.6c3-14.8,0.1-39-15.8-45
			C51.9,2.3,36.7,15.1,38.3,31.5z"/>
		<path class="st11" d="M58.1,36.4c-0.2,1.7,0.5,3.3,1.5,3.5c1.1,0.2,2.1-1,2.3-2.8c0.2-1.7-0.5-3.3-1.5-3.5
			C59.4,33.4,58.4,34.6,58.1,36.4z"/>
		<path class="st11" d="M74.2,37.1c-0.2,1.7,0.5,3.2,1.5,3.4c1.1,0.2,2.1-1,2.3-2.7c0.2-1.7-0.5-3.2-1.5-3.4
			C75.5,34.3,74.5,35.5,74.2,37.1z"/>
		<path class="st11" d="M61.6,27.9c-0.2,0-0.4,0.2-0.5,0.4c-1.6,3.1-4.6,3.2-4.6,3.2c-0.4,0-0.8,0.4-0.7,0.8
			c0.1,0.4,0.5,0.8,0.9,0.8c0.2,0,3.9-0.2,5.9-4c0.2-0.4,0-0.9-0.4-1.1C62,27.8,61.7,27.8,61.6,27.9z"/>
		<path class="st11" d="M77,28.4c-0.2,0-0.4,0-0.5,0.2c-0.3,0.3-0.4,0.8-0.1,1.1c2.4,3.6,5.6,3.4,5.8,3.4c0.4,0,0.7-0.4,0.6-0.9
			c0-0.4-0.4-0.8-0.8-0.8c-0.1,0-2.6,0.1-4.5-2.8C77.4,28.5,77.2,28.4,77,28.4z"/>
		<path class="st11" d="M60.2,33.6l3.9-0.2C64.1,33.3,61.6,35.8,60.2,33.6z"/>
		<path class="st11" d="M76.2,34.4l3.9-0.2C80.1,34.2,77.5,36.6,76.2,34.4z"/>
		<path class="st5" d="M69.6,1.6C34.3-7.2,26.4,22.9,26.4,22.9c-1.2,5.9-2.2,13.3-4.8,18.6L47,61.9l-4.6-17.1
			c6.4-0.3,20.7-20.1,26.6-28.7c1.6-2.3,4.8-2.8,7-1c1.2,1,2.3,2.1,3.2,3.3c6.2,2.5,7.4-7.5,3.7-10.7C79.6,4.9,69.6,1.6,69.6,1.6z"
			/>
		<path class="st6" d="M35.7,44.4c1.3,3.7,4.1,6.3,6.8,7.6c4.1,1.8,7.6-4.7,6.9-9.3c-0.6-4.1-4.4-7.4-8.8-7.3
			C36.4,35.5,34.2,40.2,35.7,44.4z"/>
		<path class="st11" d="M45.6,47l-0.2,0c-0.2,0-0.4-0.2-0.5-0.3c-0.2-0.2-0.2-0.4-0.2-0.7c0.1-1.3-0.3-2.7-1.1-3.7
			c-0.8-1-2.1-1.7-3.4-1.9c-0.2,0-0.5-0.2-0.6-0.3c-0.2-0.2-0.2-0.4-0.2-0.7c0.1-0.5,0.5-0.8,1-0.8c1.8,0.2,3.5,1.1,4.7,2.6
			c1.1,1.4,1.7,3.3,1.5,5.1C46.5,46.7,46.1,47,45.6,47z M45.6,46.3L45.6,46.3L45.6,46.3L45.6,46.3z M46.1,46.2
			C46.1,46.2,46.1,46.2,46.1,46.2C46.1,46.2,46.1,46.2,46.1,46.2z"/>
		<path class="st11" d="M68.3,49.9V48c1.3,0,1.7-0.6,1.8-0.8c1-1.7-0.4-5.9-1.6-8.2l1.6-0.8c0.4,0.7,3.4,6.9,1.5,10
			C71.2,49,70.3,49.9,68.3,49.9z"/>
		<path class="st11" d="M62.1,56.7l-1-1.6c4.1-2.5,9.4-2.7,13.6-0.5L74,56.3C70.3,54.4,65.7,54.6,62.1,56.7z"/>
	</g>
</g>
</svg>
