<?xml version="1.0" encoding="utf-8"?>
<!-- Generator: Adobe Illustrator 25.3.1, SVG Export Plug-In . SVG Version: 6.00 Build 0)  -->
<svg version="1.1" id="圖層_1" xmlns="http://www.w3.org/2000/svg" xmlns:xlink="http://www.w3.org/1999/xlink" x="0px" y="0px"
	 viewBox="0 0 100 120" style="enable-background:new 0 0 100 120;" xml:space="preserve">
<style type="text/css">
	.st0{fill:#D65050;}
	.st1{fill:url(#SVGID_1_);}
	.st2{fill:#FFFFFF;}
</style>
<g>
	<path class="st0" d="M98.7,25.3v34.3c0,2.7-0.1,5.2-0.3,7.7c-0.5,7.2-1.7,13.5-3.4,19.1c-5.4,17.8-18.6,28.5-33.3,32.1
		c-22.4,5.6-48.5-5.1-56.7-32.1c-2.3-7.5-3.7-16.4-3.7-26.7V25.3c0-1.8,1.5-3.3,3.3-3.4c25.5-1,37.7-13.4,42.6-20.4
		c1.4-2,4.2-2,5.6,0c4.9,7.1,17.1,19.5,42.6,20.4C97.2,22,98.7,23.5,98.7,25.3z"/>
	
		<linearGradient id="SVGID_1_" gradientUnits="userSpaceOnUse" x1="54.7167" y1="54.4088" x2="79.1756" y2="30.0326" gradientTransform="matrix(1 0 0 -1 0 122)">
		<stop  offset="0" style="stop-color:#A54141"/>
		<stop  offset="1" style="stop-color:#A33C3C;stop-opacity:0"/>
	</linearGradient>
	<path class="st1" d="M98.4,67.3c-0.5,7.2-1.7,13.5-3.4,19.1c-5.4,17.8-18.6,28.5-33.3,32.1L28.1,84.8l43.9-44L98.4,67.3z"/>
	<path class="st2" d="M57.2,62.8L71.9,48c2-2,2-5.2,0-7.2c-2-2-5.2-2-7.2,0L50,55.5L35.3,40.8c-2-2-5.2-2-7.2,0c-2,2-2,5.2,0,7.2
		l14.7,14.8L28.1,77.6c-2,2-2,5.2,0,7.2c1,1,2.3,1.5,3.6,1.5c1.3,0,2.6-0.5,3.6-1.5L50,70l14.7,14.8c1,1,2.3,1.5,3.6,1.5
		c1.3,0,2.6-0.5,3.6-1.5c2-2,2-5.2,0-7.2L57.2,62.8z"/>
</g>
</svg>
