<?xml version="1.0" encoding="utf-8"?>
<!-- Generator: Adobe Illustrator 25.3.1, SVG Export Plug-In . SVG Version: 6.00 Build 0)  -->
<svg version="1.1" id="圖層_1" xmlns="http://www.w3.org/2000/svg" xmlns:xlink="http://www.w3.org/1999/xlink" x="0px" y="0px"
	 viewBox="0 0 280 200" style="enable-background:new 0 0 280 200;" xml:space="preserve">
<style type="text/css">
	.st0{fill:#F2F2F2;}
	.st1{opacity:0.11;fill:url(#SVGID_1_);enable-background:new    ;}
	.st2{opacity:0.11;fill:url(#SVGID_2_);enable-background:new    ;}
	.st3{opacity:0.11;fill:url(#SVGID_3_);enable-background:new    ;}
	.st4{opacity:0.11;fill:url(#SVGID_4_);enable-background:new    ;}
	.st5{fill:#5C8A79;}
	.st6{fill:#79B79F;}
	.st7{fill:#040000;}
	.st8{fill:#D7AD89;}
	.st9{fill:#AFA0C4;}
	.st10{opacity:0.2;enable-background:new    ;}
	.st11{fill:#007CFF;}
	.st12{fill:#9A8EB1;}
	.st13{opacity:0.1;enable-background:new    ;}
	.st14{fill:#1A2E35;}
	.st15{fill:#BD8287;}
	.st16{fill:#CB141D;}
	.st17{fill:#999999;}
	.st18{opacity:0.3;fill:#FFFFFF;enable-background:new    ;}
	.st19{opacity:0.2;fill:#FFFFFF;enable-background:new    ;}
	.st20{fill:#B3B3B3;}
	.st21{opacity:0.5;fill:#FFFFFF;enable-background:new    ;}
	.st22{fill:#453936;}
	.st23{fill:#554946;}
	.st24{opacity:0.26;}
	.st25{fill:url(#SVGID_5_);}
	.st26{fill:#F2F8FF;}
	.st27{opacity:0.6;}
	.st28{fill:#CCCCCC;}
	.st29{opacity:0.7;fill:#FFFFFF;enable-background:new    ;}
	.st30{opacity:0.8;fill:#FFFFFF;enable-background:new    ;}
	.st31{fill:#ABCFE3;}
	.st32{fill:none;stroke:#B2D8FF;stroke-width:3;stroke-miterlimit:10;stroke-dasharray:3,3;}
	.st33{fill:#ABD4FF;}
</style>
<g>
	<path class="st0" d="M89.4,146.3h-0.7c0-11.5-9.3-20.8-20.8-20.8c-8.6,0-16.1,5.3-19.2,12.7c-1.9-1.5-4.4-2.4-7-2.4
		c-6,0-10.9,4.6-11.4,10.5h-6.6c-7.5,0-13.6,6.1-13.6,13.6c0,7.5,6.1,13.6,13.6,13.6h65.7c7.5,0,13.6-6.1,13.6-13.6
		C103,152.3,96.9,146.3,89.4,146.3z"/>
	
		<linearGradient id="SVGID_1_" gradientUnits="userSpaceOnUse" x1="267.9029" y1="14.5659" x2="255.0477" y2="14.5659" gradientTransform="matrix(1 0 0 -1 0 202)">
		<stop  offset="8.000000e-08" style="stop-color:#2B2D1A"/>
		<stop  offset="0.1461" style="stop-color:#424332"/>
		<stop  offset="0.4549" style="stop-color:#7C7C6F"/>
		<stop  offset="0.8979" style="stop-color:#D8D5D1"/>
		<stop  offset="1" style="stop-color:#EEEBE8"/>
	</linearGradient>
	<path class="st1" d="M255,200l8.9-25.1h4L259,200"/>
	
		<linearGradient id="SVGID_2_" gradientUnits="userSpaceOnUse" x1="248.0865" y1="14.5659" x2="235.1802" y2="14.5659" gradientTransform="matrix(1 0 0 -1 0 202)">
		<stop  offset="8.000000e-08" style="stop-color:#2B2D1A"/>
		<stop  offset="0.1461" style="stop-color:#424332"/>
		<stop  offset="0.4549" style="stop-color:#7C7C6F"/>
		<stop  offset="0.8979" style="stop-color:#D8D5D1"/>
		<stop  offset="1" style="stop-color:#EEEBE8"/>
	</linearGradient>
	<path class="st2" d="M235.2,200l8.9-25.1h4l-8.9,25.1"/>
	
		<linearGradient id="SVGID_3_" gradientUnits="userSpaceOnUse" x1="207.1169" y1="15.0646" x2="193.8392" y2="15.0646" gradientTransform="matrix(1 0 0 -1 0 202)">
		<stop  offset="8.000000e-08" style="stop-color:#2B2D1A"/>
		<stop  offset="0.1461" style="stop-color:#424332"/>
		<stop  offset="0.4549" style="stop-color:#7C7C6F"/>
		<stop  offset="0.8979" style="stop-color:#D8D5D1"/>
		<stop  offset="1" style="stop-color:#EEEBE8"/>
	</linearGradient>
	<path class="st3" d="M203.1,199.5l-9.3-25.1h4l9.3,25.1"/>
	
		<linearGradient id="SVGID_4_" gradientUnits="userSpaceOnUse" x1="192.7921" y1="15.074" x2="179.4978" y2="15.074" gradientTransform="matrix(1 0 0 -1 0 202)">
		<stop  offset="8.000000e-08" style="stop-color:#2B2D1A"/>
		<stop  offset="0.1461" style="stop-color:#424332"/>
		<stop  offset="0.4549" style="stop-color:#7C7C6F"/>
		<stop  offset="0.8979" style="stop-color:#D8D5D1"/>
		<stop  offset="1" style="stop-color:#EEEBE8"/>
	</linearGradient>
	<path class="st4" d="M188.8,199.5l-9.3-25.2l3.9,0l9.3,25.1"/>
	<path class="st5" d="M263.9,175.2l-18.2-51.6l3.5-1.3l18.7,52.9H263.9z"/>
	<path class="st5" d="M244.1,175.2l-18.2-51.3l3.5-1.3l18.7,52.6H244.1z"/>
	<path class="st5" d="M174.3,175.2l19.2-51.7l3.5,1.3l-18.7,50.4L174.3,175.2z"/>
	<path class="st5" d="M180.9,114.1h54.4c2.5,0,4.6,2.1,4.6,4.6v8.7c0,2.5-2.1,4.6-4.6,4.6h-54.4c-2.5,0-4.6-2.1-4.6-4.6v-8.7
		C176.2,116.2,178.3,114.1,180.9,114.1z"/>
	<path class="st5" d="M188.6,175.2l19.2-51.9l3.5,1.3l-18.7,50.6H188.6z"/>
	<path class="st6" d="M220.7,115.6h7l18.1-49.9c0.7-1.9,2.5-3.1,4.5-3.1l21.7-0.3c3.3,0,6.5,4.7,4.6,10.9l-13.9,40.9h0l-3.8,12.3
		l-40.8,0.4L220.7,115.6z"/>
	<path class="st5" d="M213.1,116.1l35.4-0.1l16.3-47.1c1.1-3.2-1.2-6.6-4.6-6.5l-23.6,0.2c-2,0-3.7,1.3-4.5,3.1L213.1,116.1z"/>
	<path class="st6" d="M197.6,115.1c0,0,22,0.3,28.2,0.3c6.4,0,23.8-2.7,23.8-2.7c4.3,0,9.7,4.9,9.7,9.3v2.3c0,4.4-3.5,7.9-7.8,7.9
		h-50.3c-4.3,0-7.8-3.6-7.8-7.9v-2.3C193.3,117.7,193.3,115.1,197.6,115.1z"/>
	<path class="st7" d="M214.2,23.7l-3.6,10.2l3.2,8.4l11.8,1.6l0.6-1.7l-7-11.3L214.2,23.7z"/>
	<path class="st8" d="M135.1,167c0,0,8-3.7,9.3-6.9c1.3-3.2,6.2,0.5,6.2,0.5l-5.3,6.1L135.1,167z"/>
	<path class="st8" d="M154.5,145.4l-5.4,15.7l-4.5-1.3l3.7-16.6L154.5,145.4z"/>
	<path class="st8" d="M189.3,164.7l1.8,13.9l-5.9-4.5l-2.9-8.8L189.3,164.7z"/>
	<path class="st9" d="M223.1,80.4c0,0,8.4,13.9,6.9,25.6c-1.4,11.6-12.2,17.8-53.7-2c0,0-8.5,8.8-22.6,46.4l-7.2-2.2
		c0,0,8.1-43.5,15.4-55.9c7.3-12.5,39.6,2.2,42.1-0.3c2.2-2.2,0.3-10.8,0.3-10.8L223.1,80.4z"/>
	<path class="st10" d="M171.6,107.8l-2.3-1.7c0,0-8,4.3-4,16.6c2.9-6,5.3-10.3,7.1-13.2L171.6,107.8z"/>
	<path class="st11" d="M206.2,115.4c-7.5-1.8-17.3-5.4-29.9-11.4c0,0-9.7,0.1-10.4,7.3c-0.6,7.2,16.4,57.1,16.4,57.1l7.9-0.7
		c0,0-4.6-49.8-5.7-52.4L206.2,115.4L206.2,115.4z"/>
	<path class="st12" d="M206.2,115.4c-7.5-1.8-17.3-5.4-29.9-11.4c0,0-9.7,0.1-10.4,7.3c-0.6,7.2,16.4,57.1,16.4,57.1l7.9-0.7
		c0,0-4.6-49.8-5.7-52.4L206.2,115.4L206.2,115.4z"/>
	<path class="st13" d="M176.3,103.9c0,0-1.5,0-3.3,0.5c1.8,1.6,8.1,6.8,17.6,11h15.7C198.7,113.6,188.9,109.9,176.3,103.9z"/>
	<path class="st8" d="M196.5,43.1c-1.8,0-2.5,2.5-2.9,3.9c-1.3,4.4-1.5,9.1-3.1,13.5c-1.6,4.4-4.9,7.1-9,9.1
		c-0.6,0.3-1.2,0.6-1.7,0.9c-0.4,0.3-1.5,1.1-2,1.1l-6.2-0.3c-0.6,0-1.1,0.2-1.4,0.7l-1.8,2.8c-0.2,0.4-0.3,0.9-0.2,1.3l0,0.1
		c0.2,0.8,1.1,1.2,1.9,1.1l2.7-0.7l5.4-1c0.8-0.1,1.7-0.7,2.4-1.1c3.3-1.4,6.6-2.8,9.9-4.2c2.5-1,5.2-4.8,6.1-7.7
		C197.9,58.9,201.5,43.2,196.5,43.1z"/>
	<path class="st14" d="M197.9,82c0,0,12.8,1.2,26.4-0.8c0,0-3-9.9-0.8-22c2.1-12.1,13.5-19.2-14.7-18.7c-4.1,0.1-16.2-0.5-14.8,8.1
		C195.3,57.8,197.9,82,197.9,82z"/>
	<path class="st15" d="M197.9,82c0,0,12.8,1.2,26.4-0.8c0,0-3-9.9-0.8-22c2.1-12.1,13.5-19.2-14.7-18.7c-4.1,0.1-16.2-0.5-14.8,8.1
		C195.3,57.8,197.9,82,197.9,82z"/>
	<path class="st8" d="M225.8,43.1c-1.1-0.1-1.8,1.1-2.2,2c-0.7,1.6-1.1,3.5-1.4,5.2c-0.9,4.3-1.4,8.8-3.2,12.9
		c-0.7,1.6-1.6,3.2-3.1,4.2c-0.9,0.6-2,0.8-3,1c-1.2,0.3-2.4,0.7-3.5,1c-2.4,0.7-4.7,1.4-7.1,2.1c-0.3,0.1-0.5,0.1-0.8,0.2l-5.6-1
		c-0.6-0.1-1.2,0.1-1.6,0.6l-1.9,2.6c-0.3,0.4-0.4,0.9-0.3,1.3l0,0.1c0.2,0.8,1,1.4,1.8,1.2l2.7-0.5l5.4-0.7
		c3.9-0.9,7.9-1.7,11.8-2.7c1.3-0.3,2.7-0.5,4-0.9c2.4-0.6,5.9-1.6,6.9-4.2C226.3,64,230.9,43.4,225.8,43.1z"/>
	<path class="st8" d="M208.8,40.6c0,0-9.4-2.1-2.8,7.3C206,47.9,224.9,40.4,208.8,40.6z"/>
	<path class="st8" d="M212.6,29.8l-6.4,6.3c0.6,2.7-0.2,4.2-1.1,4.9v2c0.7,0.2,1.8,0.4,3.3,0.3c4.6-0.2,6.2-0.7,6.2-0.7
		C211.8,40.4,212.2,33.6,212.6,29.8z"/>
	<path class="st13" d="M206.2,39c0.2-0.8,0.2-1.7-0.1-2.9l5.7-5.6l0.6,0.7C212.5,31.2,211.3,38.3,206.2,39z"/>
	<path class="st8" d="M213.1,21.5c0.5,6.2,0.8,8.8-1.9,12.3c-4,5.4-11.7,4.6-14-1.3c-2.1-5.3-2.5-14.5,3.2-17.7c4-2.3,9.2-1,11.6,3
		C212.7,18.9,213,20.2,213.1,21.5z"/>
	<path class="st8" d="M215.2,26.1c-0.2,1.2-0.8,2.2-1.8,2.9c-1.3,0.9-2.5-0.1-2.6-1.6c-0.1-1.3,0.5-3.5,2-3.8
		c1.1-0.2,2.2,0.5,2.4,1.6C215.3,25.6,215.3,25.9,215.2,26.1z"/>
	<path class="st7" d="M197.8,18.8c0,0-3-1.4-2.3-3.4s2.6-2.1,3.1-3.6c0.5-1.4,3.6-0.2,5.4-1.1c1.8-0.9,6.2-1.4,9.7,1.1
		c3.5,2.5,5.4,5.6,6.3,11.2c0.9,5.6,7.9,17.7,6.7,19.5c-1.2,1.8-1-2.4-3.8-4.4c-2.8-2-7-2.9-7.5-5.8c-0.5-2.9,1.7-5.5-2.1-6.8
		c-3.8-1.2-4.7-1.7-4.6-2.6c0.1-0.9-3.3,0.3-5.8-3C200.3,16.6,196.8,16.1,197.8,18.8z"/>
	<path class="st16" d="M150.5,157.1c0,0,2,2.2,1.7,4.2c-0.3,2-1,2.5-1.4,3.7c-0.4,1.3-1.5,6.9-1.5,6.9l-0.7,0.1c0,0,1.5-6.9,1-7.5
		c-0.6-0.7-2.7,0.6-3.9,2c-1.2,1.4-2.1,3.7-3.2,4.3c-1.1,0.6-9.5-1-9.6-1.3c-0.1-0.2,1-2.5,2.8-2.7c1.8-0.2,5,0.3,6.6,0
		c1.7-0.3,4.2-2.9,5.9-5.7C150,158.2,150.5,157.1,150.5,157.1z"/>
	<path class="st17" d="M201.4,75.9h-44.2c-0.7,0-1.3,0.6-1.3,1.3c0,0.7,0.6,1.3,1.3,1.3h44.2c0.7,0,1.3-0.6,1.3-1.3
		S202.1,75.9,201.4,75.9z"/>
	<path class="st18" d="M201.4,75.9h-44.2c-0.7,0-1.3,0.6-1.3,1.3c0,0.7,0.6,1.3,1.3,1.3h44.2c0.7,0,1.3-0.6,1.3-1.3
		S202.1,75.9,201.4,75.9z"/>
	<path class="st19" d="M176.2,78.5c-0.7,0-1.3-0.6-1.3-1.3c0-0.7,0.6-1.3,1.3-1.3h25.2c0.7,0,1.3,0.6,1.3,1.3c0,0.7-0.6,1.3-1.3,1.3
		H176.2z"/>
	<path class="st20" d="M157.9,77.7h16.3c0.4,0,0.7-0.4,0.6-0.8l-8.9-25.4c-0.2-0.7-0.9-1.2-1.7-1.2h-16.3c-0.4,0-0.7,0.4-0.6,0.8
		l8.9,25.4C156.5,77.3,157.1,77.7,157.9,77.7z"/>
	<path class="st20" d="M157.1,77.7h16.3c0.4,0,0.7-0.4,0.6-0.8L165,51.5c-0.2-0.7-0.9-1.2-1.7-1.2h-16.3c-0.4,0-0.7,0.4-0.6,0.8
		l8.9,25.4C155.7,77.3,156.3,77.7,157.1,77.7z"/>
	<path class="st21" d="M157.1,77.7h16.3c0.4,0,0.7-0.4,0.6-0.8L165,51.5c-0.2-0.7-0.9-1.2-1.7-1.2h-16.3c-0.4,0-0.7,0.4-0.6,0.8
		l8.9,25.4C155.7,77.3,156.3,77.7,157.1,77.7z"/>
	<path class="st20" d="M161.7,64c-0.1,0.2-0.2,0.3-0.2,0.5c-0.1,0.5,0.3,1.2,0.9,1.4c0.1,0,0.1,0.1,0.1,0.1c0,0.3-0.1,0.7-0.3,0.9
		c-0.2,0.3-0.4,0.4-0.8,0.3c-0.1,0-0.3-0.1-0.4-0.1c-0.2,0-0.3,0.1-0.4,0.1c0,0,0,0-0.1,0c-0.3,0.2-0.5,0.2-0.9-0.1
		c-0.7-0.5-1.2-1.2-1.4-2c-0.1-0.5,0-0.9,0.3-1.2c0.2-0.2,0.5-0.2,0.8-0.1c0.6,0.1,0.4,0.2,0.9-0.1c0.3-0.2,0.7-0.1,1.1,0.1
		C161.5,63.9,161.6,64,161.7,64z"/>
	<path class="st20" d="M160.4,62.5c0,0.1,0.1,0.2,0.1,0.3c0,0.4-0.1,0.6-0.4,0.8c-0.1,0-0.1,0.1-0.2,0.1c-0.1,0-0.1,0-0.2-0.1
		c-0.1-0.3,0-0.6,0.2-0.8C160.1,62.7,160.2,62.6,160.4,62.5z"/>
	<path class="st14" d="M157.5,186.3c-1.1,0-2-0.8-2.1-1.9l-0.7-7.1V79.7h5.6v97.6l-0.7,7.1C159.5,185.4,158.6,186.3,157.5,186.3z"/>
	<path class="st22" d="M157.5,186.3c-1.1,0-2-0.8-2.1-1.9l-0.7-7.1V79.7h5.6v97.6l-0.7,7.1C159.5,185.4,158.6,186.3,157.5,186.3z"/>
	<path class="st13" d="M160.3,80.6h-5.6v6.9h5.6V80.6z"/>
	<path class="st23" d="M162.3,178.2V176c0-0.9-0.7-1.6-1.6-1.6h-6.5c-0.9,0-1.6,0.7-1.6,1.6v2.2l-15.9,4.3c-1.9,0.5-3.3,2.3-3.3,4.3
		h47.8c0-2-1.3-3.7-3.3-4.3L162.3,178.2z"/>
	<path class="st13" d="M162.3,178.2V176c0-0.1,0-0.1,0-0.2h-9.6c0,0.1,0,0.1,0,0.2v2.2H162.3z"/>
	<path class="st10" d="M162.3,178.2V176c0-0.9-0.7-1.6-1.6-1.6h-6.5c-0.9,0-1.6,0.7-1.6,1.6v2.2l-15.9,4.3c-1.9,0.5-3.3,2.3-3.3,4.3
		h47.8c0-2-1.3-3.7-3.3-4.3L162.3,178.2z"/>
	<path class="st14" d="M218.4,81.8H96.6v3.3h121.8V81.8z"/>
	<path class="st23" d="M218.4,81.8H96.6v3.3h121.8V81.8z"/>
	<path class="st22" d="M218.4,81.8h-60.7v3.3h60.7V81.8z"/>
	<path class="st22" d="M225.7,78.5H89.3v3.3h136.5V78.5z"/>
	<path class="st23" d="M225.7,78.5h-75.4v3.3h75.4V78.5z"/>
	<g class="st24">
		
			<linearGradient id="SVGID_5_" gradientUnits="userSpaceOnUse" x1="158.5314" y1="0.5718" x2="154.922" y2="53.6394" gradientTransform="matrix(1 0 0 -1 0 202)">
			<stop  offset="0" style="stop-color:#554946;stop-opacity:0"/>
			<stop  offset="1" style="stop-color:#554946"/>
		</linearGradient>
		<path class="st25" d="M152.7,194.9v2.2c0,0.9,0.7,1.6,1.6,1.6h6.5c0.9,0,1.6-0.7,1.6-1.6v-2.2l15.9-4.3c1.9-0.5,3.3-2.3,3.3-4.3
			h-47.8c0,2,1.3,3.7,3.3,4.3L152.7,194.9z"/>
	</g>
	<path class="st8" d="M183.3,168.3c0,0,2.8,8.5-4.3,15.8l4.8,1.1l3.5-3.7l3.4-6.1l-2.9-3.1L183.3,168.3z"/>
	<path class="st16" d="M190.1,171c0,0,2.4,1.6,2.7,3.7c0.2,2-0.3,2.7-0.4,4c-0.1,1.3,0.3,7.1,0.3,7.1l-0.6,0.3c0,0-0.3-7-1-7.5
		c-0.7-0.5-2.5,1.2-3.3,2.9c-0.8,1.7-1.1,4.1-2,4.9c-0.9,0.8-9.4,1.4-9.6,1.2c-0.2-0.2,0.4-2.7,2-3.4c1.7-0.7,4.9-1,6.4-1.7
		c1.5-0.7,3.3-3.9,4.2-7C189.9,172.2,190.1,171,190.1,171z"/>
	<path class="st26" d="M122.4,105.5H16.7c-5.6,0-10.1-4.5-10.1-10V13.4c0-5.5,4.5-10,10.1-10h105.7c5.6,0,10.1,4.5,10.1,10v82.1
		C132.5,101,128,105.5,122.4,105.5z"/>
	<g class="st27">
		<path class="st14" d="M41,56.5h-4.5v13.1H41V56.5z"/>
		<path class="st14" d="M53.4,49.1c-0.6-3.9-3.6-6.3-7.2-6.4c-0.5,0-3.5,0-4,0c-0.5,0-0.9,0-1.4,0.1c-1.5,0.2-2.7,0.3-3.9,0.4
			c-1.2-0.1-2.5-0.2-4-0.4c-0.5-0.1-4.9-0.1-5.3-0.1c-3.7,0-6.3,2.3-5.9,6.4c0,0.1,0,0.1,0,0.2c0.5,4.4,4.4,9.2,8.9,9.8
			c3.4,0.4,5.6,0.6,8.2,0.4c2.6,0.2,4.8,0,8.1-0.4c4.3-0.6,7.1-5.4,6.5-9.8C53.4,49.2,53.4,49.1,53.4,49.1z"/>
		<path class="st14" d="M22.6,62.4c0.6,0,3.3,0,4.2,0c0.7,0,1.4,0.2,2.2,0.4c4.1,1.1,7.3,1.7,10.4,1.9c3-0.2,6.2-0.8,9.9-1.9
			c1-0.3,1.9-0.4,2.8-0.4c0.6,0,3.2,0,3.9,0c3.3,0,5.8,2,6.4,5.8c2.1,13.6,4.1,27.2,6.2,40.7H30.5c-3.6,0-6.9-1.1-9.7-2.9
			c-1.2-12.6-2.4-25.2-3.6-37.8C16.9,64.3,19.1,62.3,22.6,62.4z"/>
		<path class="st19" d="M46.9,59.1c-4.8,0.7-7.3,0.7-12.2,0c-4.5-0.6-8.4-5.4-8.9-9.8c0-0.1,0-0.1,0-0.2c-0.5-4.4,2.7-6.9,7.1-6.3
			c4.8,0.6,7.3,0.6,12,0c4.2-0.6,8,1.9,8.6,6.3c0,0.1,0,0.1,0,0.2C54,53.7,51.2,58.5,46.9,59.1z"/>
		<path class="st19" d="M29,62.8c9.9,2.6,15.2,2.6,24.4,0c4.4-1.3,8.3,0.7,9,5.4c2.1,13.6,4.1,27.2,6.2,40.7H30.5
			c-1.9,0-3.7-0.3-5.4-0.9c-1.3-13.3-2.5-26.6-3.8-39.9C20.9,63.5,24.3,61.5,29,62.8z"/>
	</g>
	<path class="st11" d="M82.8,92.4l-18.7,0.9v2.6h18.7h12v-3.5H82.8z"/>
	<path class="st28" d="M82.8,95.9H64.1v-2.6l18.7-0.9V95.9z"/>
	<path class="st20" d="M94.8,92.4h-12v3.5h12V92.4z"/>
	<path class="st28" d="M123.9,86.8H84.4l4-32.4h39.5L123.9,86.8z"/>
	<path class="st20" d="M90.6,54.4l-4,32.4h37.2l4-32.4H90.6z"/>
	<path class="st28" d="M111,95.9h-8.4l-0.8-13.4h6.8L111,95.9z"/>
	<path class="st20" d="M112.5,95.9h-8.4l-0.8-13.4h6.8L112.5,95.9z"/>
	<path class="st11" d="M106.7,93.5h-1.4H93.7v2.4h11.6h1.4h11.6v-2.4H106.7z"/>
	<path class="st28" d="M106.7,93.5h-1.4H93.7v2.4h11.6h1.4h11.6v-2.4H106.7z"/>
	<path class="st11" d="M118.3,93.5h-13v2.4h13V93.5z"/>
	<path class="st20" d="M118.3,93.5h-13v2.4h13V93.5z"/>
	<path class="st14" d="M56.5,99.7v5.8h61.4c4.8,0,9-2.3,11.6-5.8H56.5z"/>
	<path class="st18" d="M56.5,99.7v5.8h61.4c4.8,0,9-2.3,11.6-5.8H56.5z"/>
	<path class="st14" d="M131.5,95.9H52.8v3.8h76.7C130.3,98.6,131,97.3,131.5,95.9z"/>
	<path class="st21" d="M131.5,95.9H52.8v3.8h76.7C130.3,98.6,131,97.3,131.5,95.9z"/>
	<path class="st11" d="M82.7,35.2H70.9c-1.3,0-2.3-1-2.3-2.3v-2.1c0-1.3,1-2.3,2.3-2.3h11.8c1.3,0,2.3,1,2.3,2.3v2.1
		C85,34.2,84,35.2,82.7,35.2z"/>
	<path class="st11" d="M93,27H81.2c-1.3,0-2.3-1-2.3-2.3v-2.1c0-1.3,1-2.3,2.3-2.3H93c1.3,0,2.3,1,2.3,2.3v2.1
		C95.3,26,94.3,27,93,27z"/>
	<path class="st11" d="M89.3,43.4H77.5c-1.3,0-2.3-1-2.3-2.3v-2.1c0-1.3,1-2.3,2.3-2.3h11.8c1.3,0,2.3,1,2.3,2.3v2.1
		C91.6,42.4,90.6,43.4,89.3,43.4z"/>
	<path class="st11" d="M101.2,35.2H89.4c-1.3,0-2.3-1-2.3-2.3v-2.1c0-1.3,1-2.3,2.3-2.3h11.8c1.3,0,2.3,1,2.3,2.3v2.1
		C103.5,34.2,102.5,35.2,101.2,35.2z"/>
	<path class="st29" d="M82.7,35.2H70.9c-1.3,0-2.3-1-2.3-2.3v-2.1c0-1.3,1-2.3,2.3-2.3h11.8c1.3,0,2.3,1,2.3,2.3v2.1
		C85,34.2,84,35.2,82.7,35.2z"/>
	<path class="st30" d="M93,27H81.2c-1.3,0-2.3-1-2.3-2.3v-2.1c0-1.3,1-2.3,2.3-2.3H93c1.3,0,2.3,1,2.3,2.3v2.1
		C95.3,26,94.3,27,93,27z"/>
	<path class="st30" d="M89.3,43.4H77.5c-1.3,0-2.3-1-2.3-2.3v-2.1c0-1.3,1-2.3,2.3-2.3h11.8c1.3,0,2.3,1,2.3,2.3v2.1
		C91.6,42.4,90.6,43.4,89.3,43.4z"/>
	<path class="st29" d="M101.2,35.2H89.4c-1.3,0-2.3-1-2.3-2.3v-2.1c0-1.3,1-2.3,2.3-2.3h11.8c1.3,0,2.3,1,2.3,2.3v2.1
		C103.5,34.2,102.5,35.2,101.2,35.2z"/>
	<path class="st11" d="M53.3,19.6h11.8c1.3,0,2.3-1,2.3-2.3v-2.1c0-1.3-1-2.3-2.3-2.3H53.3c-1.3,0-2.3,1-2.3,2.3v2.1
		C51.1,18.6,52.1,19.6,53.3,19.6z"/>
	<path class="st11" d="M46.7,27.8h11.8c1.3,0,2.3-1,2.3-2.3v-2.1c0-1.3-1-2.3-2.3-2.3H46.7c-1.3,0-2.3,1-2.3,2.3v2.1
		C44.5,26.8,45.5,27.8,46.7,27.8z"/>
	<path class="st11" d="M34.8,19.6h11.8c1.3,0,2.3-1,2.3-2.3v-2.1c0-1.3-1-2.3-2.3-2.3H34.8c-1.3,0-2.3,1-2.3,2.3v2.1
		C32.6,18.6,33.6,19.6,34.8,19.6z"/>
	<path class="st30" d="M53.3,19.6h11.8c1.3,0,2.3-1,2.3-2.3v-2.1c0-1.3-1-2.3-2.3-2.3H53.3c-1.3,0-2.3,1-2.3,2.3v2.1
		C51.1,18.6,52.1,19.6,53.3,19.6z"/>
	<path class="st30" d="M46.7,27.8h11.8c1.3,0,2.3-1,2.3-2.3v-2.1c0-1.3-1-2.3-2.3-2.3H46.7c-1.3,0-2.3,1-2.3,2.3v2.1
		C44.5,26.8,45.5,27.8,46.7,27.8z"/>
	<path class="st29" d="M34.8,19.6h11.8c1.3,0,2.3-1,2.3-2.3v-2.1c0-1.3-1-2.3-2.3-2.3H34.8c-1.3,0-2.3,1-2.3,2.3v2.1
		C32.6,18.6,33.6,19.6,34.8,19.6z"/>
	<path class="st31" d="M116.9,0H22.2C11.5,0,2.8,7.7,2.8,17.1v74.6c0,9.4,8.7,17.1,19.4,17.1h94.7c10.7,0,19.4-7.7,19.4-17.1V17.1
		C136.3,7.7,127.6,0,116.9,0z M132.5,91.8c0,7.6-7,13.8-15.6,13.8H22.2c-8.6,0-15.6-6.2-15.6-13.8V17.1c0-7.6,7-13.8,15.6-13.8h94.7
		c8.6,0,15.6,6.2,15.6,13.8L132.5,91.8L132.5,91.8z"/>
	<path class="st32" d="M107.9,46.6c0,0,22.8-24,48,0"/>
	<path class="st33" d="M167,30.8c0,1.2-0.9,2.1-2.1,2.1c-1.2,0-2.1-0.9-2.1-2.1c0-1.2,0.9-2.1,2.1-2.1C166,28.7,167,29.7,167,30.8z"
		/>
	<path class="st33" d="M154.7,21.8l2.1,2.6c2.1-2,4.9-3.2,8-3.2c3.1,0,5.9,1.2,8,3.2l2.1-2.6c-2.7-2.4-6.2-4-10.1-4
		C160.9,17.9,157.4,19.4,154.7,21.8z"/>
	<path class="st33" d="M158.1,26.1l2.1,2.6c1.1-1.2,2.8-2,4.6-2c1.8,0,3.4,0.8,4.6,2l2.1-2.6c-1.7-1.7-4.1-2.7-6.7-2.7
		C162.2,23.4,159.9,24.4,158.1,26.1z"/>
	<path class="st33" d="M151.4,17.7l2.1,2.6c3-2.7,7-4.4,11.4-4.4c4.4,0,8.4,1.7,11.4,4.4l2.1-2.6c-3.6-3.2-8.3-5.1-13.5-5.1
		C159.7,12.6,155,14.5,151.4,17.7z"/>
</g>
</svg>
