<?xml version="1.0" encoding="utf-8"?>
<!-- Generator: Adobe Illustrator 25.3.1, SVG Export Plug-In . SVG Version: 6.00 Build 0)  -->
<svg version="1.1" id="圖層_1" xmlns="http://www.w3.org/2000/svg" xmlns:xlink="http://www.w3.org/1999/xlink" x="0px" y="0px"
	 viewBox="0 0 400 400" style="enable-background:new 0 0 400 400;" xml:space="preserve">
<style type="text/css">
	.st0{clip-path:url(#SVGID_2_);}
	.st1{fill:#E3FBFC;}
	.st2{fill:#78CACE;}
	.st3{fill:#F54945;}
	.st4{opacity:0.1;enable-background:new    ;}
	.st5{fill:#CCCCCC;}
	.st6{fill:#FFFFFF;}
	.st7{fill:#E6E6E6;}
	.st8{fill:#999999;}
	.st9{fill:#F2F2F2;}
	.st10{fill:#FFF1D6;}
	.st11{fill:#93AEB7;}
	.st12{opacity:0.5;fill:#A9E8EF;enable-background:new    ;}
	.st13{fill:#73878F;}
	.st14{opacity:0.6;fill:url(#SVGID_3_);enable-background:new    ;}
	.st15{fill:#A9E8EF;}
	.st16{opacity:0.6;fill:url(#SVGID_4_);enable-background:new    ;}
	.st17{fill:#EFC18F;}
	.st18{fill:#A8A8A8;}
	.st19{fill:#FFC9B6;}
	.st20{fill:#333333;}
	.st21{fill:#DEAF9E;}
	.st22{fill:#6D6358;}
	.st23{fill:#8C6239;}
	.st24{fill:#C69C6D;}
	.st25{fill:#C6C6C6;}
	.st26{fill:#D5D5D5;}
	.st27{opacity:0.23;}
	.st28{fill:#2F3340;}
	.st29{fill:#606060;}
	.st30{fill:#1A1A1A;}
	.st31{fill:#040000;}
	.st32{fill:#B3B3B3;}
	.st33{fill:#C2C2C2;}
</style>
<g>
	<defs>
		<rect id="SVGID_1_" y="10.7" width="400" height="378.6"/>
	</defs>
	<clipPath id="SVGID_2_">
		<use xlink:href="#SVGID_1_"  style="overflow:visible;"/>
	</clipPath>
	<g class="st0">
		<path class="st1" d="M277.9,50.8c0,9.7,7.9,17.6,17.6,17.6h53.2c9.7,0,17.6-7.9,17.6-17.6V39c0-9.7-7.9-17.6-17.6-17.6h-53.2
			c-9.7,0-17.6,7.9-17.6,17.6V50.8z"/>
		<path class="st1" d="M277.9,50.8c0,0,1.1,36.3,28.1,36.3c0,0-13.5-21.9-1.5-30.4L277.9,50.8z"/>
		<path class="st2" d="M313.9,36.9h-23.3V39h23.3V36.9z"/>
		<path class="st2" d="M332.9,41.8h-42.2v2.2h42.2V41.8z"/>
		<path class="st2" d="M354.3,41.8h-17v2.2h17V41.8z"/>
		<path class="st2" d="M313.9,46.7h-23.3v2.2h23.3V46.7z"/>
		<path class="st2" d="M303.7,50.8h-13V53h13V50.8z"/>
		<path class="st2" d="M334.4,50.8h-25.9V53h25.9V50.8z"/>
		<path class="st2" d="M354.3,50.8h-16V53h16V50.8z"/>
		<path class="st2" d="M354.3,46.7h-36.5v2.2h36.5V46.7z"/>
		<path class="st2" d="M332.9,55.7h-42.2v2.2h42.2V55.7z"/>
		<path class="st3" d="M297.7,35.1l-4.8,5.9l-28.8-23.7l4.8-5.9L297.7,35.1z"/>
		<path class="st3" d="M291.9,10.7l5.2,5.6L270,41.8l-5.2-5.5L291.9,10.7z"/>
		<path class="st4" d="M400,317.5c0,6.1-87.7,11-195.9,11c-108.2,0-195.9-4.9-195.9-11c0-6.1,87.7-11.1,195.9-11.1
			C312.3,306.5,400,311.4,400,317.5z"/>
		<path class="st5" d="M121,66.4H11.8v109.9H121V66.4z"/>
		<path class="st6" d="M52.1,89.8H23v2.5h29.1V89.8z"/>
		<path class="st6" d="M67,89.8H55.2v2.5H67V89.8z"/>
		<path class="st6" d="M39.1,95.5H23v2.5h16V95.5z"/>
		<path class="st6" d="M67,95.5H41.8v2.5H67V95.5z"/>
		<path class="st6" d="M52.1,101.2H23v2.5h29.1V101.2z"/>
		<path class="st6" d="M67,101.2H55.2v2.5H67V101.2z"/>
		<path class="st6" d="M39.1,106.9H23v2.5h16V106.9z"/>
		<path class="st6" d="M32,111.7h-9v2.5h9V111.7z"/>
		<path class="st6" d="M53.2,111.7H35.4v2.5h17.8V111.7z"/>
		<path class="st6" d="M67,111.7h-11v2.5h11V111.7z"/>
		<path class="st6" d="M67,106.9H41.8v2.5H67V106.9z"/>
		<path class="st6" d="M52.1,117.4H23v2.5h29.1V117.4z"/>
		<path class="st6" d="M67,117.4H55.2v2.5H67V117.4z"/>
		<path class="st6" d="M82.3,125H23v2.5h59.2V125z"/>
		<path class="st6" d="M112.4,125H88.6v2.5h23.9V125z"/>
		<path class="st6" d="M55.7,130.7H23v2.5h32.7V130.7z"/>
		<path class="st6" d="M112.4,130.7H61.2v2.5h51.2V130.7z"/>
		<path class="st6" d="M82.3,136.4H23v2.5h59.2V136.4z"/>
		<path class="st6" d="M112.4,136.4H88.6v2.5h23.9V136.4z"/>
		<path class="st6" d="M55.7,142.1H23v2.5h32.7V142.1z"/>
		<path class="st6" d="M41.3,146.8H23v2.5h18.3V146.8z"/>
		<path class="st6" d="M84.5,146.8H48.1v2.5h36.3V146.8z"/>
		<path class="st6" d="M112.4,146.8H90v2.5h22.5V146.8z"/>
		<path class="st6" d="M112.4,142.1H61.2v2.5h51.2V142.1z"/>
		<path class="st6" d="M82.3,152.5H23v2.5h59.2V152.5z"/>
		<path class="st6" d="M112.4,152.5H88.6v2.5h23.9V152.5z"/>
		<path class="st7" d="M162.4,21.5H53.2v99.7h109.2V21.5z"/>
		<path class="st8" d="M93.5,34.7H64.4v2.5h29.1V34.7z"/>
		<path class="st8" d="M108.3,34.7H96.6v2.5h11.7V34.7z"/>
		<path class="st8" d="M80.4,40.4h-16v2.5h16V40.4z"/>
		<path class="st8" d="M108.3,40.4H83.1v2.5h25.2V40.4z"/>
		<path class="st8" d="M93.5,46.1H64.4v2.5h29.1V46.1z"/>
		<path class="st8" d="M108.3,46.1H96.6v2.5h11.7V46.1z"/>
		<path class="st8" d="M80.4,51.8h-16v2.5h16V51.8z"/>
		<path class="st8" d="M73.4,56.5h-9v2.5h9V56.5z"/>
		<path class="st8" d="M94.6,56.5H76.7v2.5h17.8V56.5z"/>
		<path class="st8" d="M108.3,56.5h-11v2.5h11V56.5z"/>
		<path class="st8" d="M108.3,51.8H83.1v2.5h25.2V51.8z"/>
		<path class="st8" d="M93.5,62.2H64.4v2.5h29.1V62.2z"/>
		<path class="st8" d="M108.3,62.2H96.6v2.5h11.7V62.2z"/>
		<path class="st8" d="M123.6,69.9H64.4v2.5h59.2V69.9z"/>
		<path class="st8" d="M153.8,69.9h-23.9v2.5h23.9V69.9z"/>
		<path class="st8" d="M97.1,75.6H64.4v2.5h32.7V75.6z"/>
		<path class="st8" d="M153.8,75.6h-51.2v2.5h51.2V75.6z"/>
		<path class="st8" d="M123.6,81.3H64.4v2.5h59.2V81.3z"/>
		<path class="st8" d="M153.8,81.3h-23.9v2.5h23.9V81.3z"/>
		<path class="st8" d="M97.1,87H64.4v2.5h32.7V87z"/>
		<path class="st8" d="M82.7,91.7H64.4v2.5h18.3V91.7z"/>
		<path class="st8" d="M125.8,91.7H89.5v2.5h36.3V91.7z"/>
		<path class="st8" d="M153.8,91.7h-22.5v2.5h22.5V91.7z"/>
		<path class="st8" d="M153.8,87h-51.2v2.5h51.2V87z"/>
		<path class="st8" d="M123.6,97.4H64.4v2.5h59.2V97.4z"/>
		<path class="st8" d="M153.8,97.4h-23.9v2.5h23.9V97.4z"/>
		<path class="st9" d="M245.5,50.8H136.3v99.6h109.2V50.8z"/>
		<path class="st8" d="M176.7,63.9h-29.1v2.5h29.1V63.9z"/>
		<path class="st8" d="M191.5,63.9h-11.7v2.5h11.7V63.9z"/>
		<path class="st8" d="M163.6,69.6h-16v2.5h16V69.6z"/>
		<path class="st8" d="M191.5,69.6h-25.2v2.5h25.2V69.6z"/>
		<path class="st8" d="M176.7,75.3h-29.1v2.5h29.1V75.3z"/>
		<path class="st8" d="M191.5,75.3h-11.7v2.5h11.7V75.3z"/>
		<path class="st8" d="M163.6,81h-16v2.5h16V81z"/>
		<path class="st8" d="M156.5,85.7h-9v2.5h9V85.7z"/>
		<path class="st8" d="M177.7,85.7h-17.8v2.5h17.8V85.7z"/>
		<path class="st8" d="M191.5,85.7h-11v2.5h11V85.7z"/>
		<path class="st8" d="M191.5,81h-25.2v2.5h25.2V81z"/>
		<path class="st8" d="M176.7,91.4h-29.1v2.5h29.1V91.4z"/>
		<path class="st8" d="M191.5,91.4h-11.7v2.5h11.7V91.4z"/>
		<path class="st8" d="M206.8,99h-59.2v2.5h59.2V99z"/>
		<path class="st8" d="M236.9,99h-23.9v2.5h23.9V99z"/>
		<path class="st8" d="M180.2,104.7h-32.7v2.5h32.7V104.7z"/>
		<path class="st8" d="M236.9,104.7h-51.2v2.5h51.2V104.7z"/>
		<path class="st8" d="M206.8,110.4h-59.2v2.5h59.2V110.4z"/>
		<path class="st8" d="M236.9,110.4h-23.9v2.5h23.9V110.4z"/>
		<path class="st8" d="M180.2,116.1h-32.7v2.5h32.7V116.1z"/>
		<path class="st8" d="M165.9,120.9h-18.3v2.5h18.3V120.9z"/>
		<path class="st8" d="M209,120.9h-36.3v2.5H209V120.9z"/>
		<path class="st8" d="M236.9,120.9h-22.5v2.5h22.5V120.9z"/>
		<path class="st8" d="M236.9,116.1h-51.2v2.5h51.2V116.1z"/>
		<path class="st8" d="M206.8,126.6h-59.2v2.5h59.2V126.6z"/>
		<path class="st8" d="M236.9,126.6h-23.9v2.5h23.9V126.6z"/>
		<path class="st10" d="M315.2,267.9c0,6.4-5.2,11.6-11.6,11.6h-244c-6.4,0-11.6-5.2-11.6-11.6V114.4c0-6.4,5.2-11.6,11.6-11.6h244
			c6.4,0,11.6,5.2,11.6,11.6V267.9z"/>
		<path class="st11" d="M220.1,317.8h-76.5l4.6-66.2h64.9L220.1,317.8z"/>
		<path class="st11" d="M315.2,267.9c0,6.4-5.2,11.6-11.6,11.6h-244c-6.4,0-11.6-5.2-11.6-11.6V114.4c0-6.4,5.2-11.6,11.6-11.6h244
			c6.4,0,11.6,5.2,11.6,11.6V267.9z"/>
		<path class="st6" d="M302.7,114.5H58.4V240h244.3V114.5z"/>
		<path class="st12" d="M59.6,279.5h244c6.4,0,11.6-5.2,11.6-11.6v-17.4H48v17.4C48,274.3,53.2,279.5,59.6,279.5z"/>
		<path class="st13" d="M253.7,307.4H106.3v10.5h147.4V307.4z"/>
		<path class="st1" d="M261.1,95.9H79.4v126.1h181.7V95.9z"/>
		
			<linearGradient id="SVGID_3_" gradientUnits="userSpaceOnUse" x1="79.4028" y1="297.0207" x2="261.1474" y2="297.0207" gradientTransform="matrix(1 0 0 -1 0 401)">
			<stop  offset="0" style="stop-color:#187ADD"/>
			<stop  offset="1" style="stop-color:#1875D3"/>
		</linearGradient>
		<path class="st14" d="M261.1,95.9H79.4V112h181.7V95.9z"/>
		<path class="st15" d="M94.1,104.6c0,2.1-1.6,3.7-3.5,3.7c-1.9,0-3.5-1.7-3.5-3.7c0-2.1,1.6-3.7,3.5-3.7
			C92.5,100.8,94.1,102.5,94.1,104.6z"/>
		<path class="st15" d="M104.6,104.6c0,2.1-1.6,3.7-3.5,3.7c-1.9,0-3.5-1.7-3.5-3.7c0-2.1,1.6-3.7,3.5-3.7
			C103,100.8,104.6,102.5,104.6,104.6z"/>
		<path class="st15" d="M115,104.6c0,2.1-1.6,3.7-3.5,3.7c-1.9,0-3.5-1.7-3.5-3.7c0-2.1,1.6-3.7,3.5-3.7
			C113.4,100.8,115,102.5,115,104.6z"/>
		<path class="st2" d="M251.9,123.1H87.1v28.5h164.7V123.1z"/>
		<path class="st2" d="M165.9,156.5H87.1v25.3h78.8V156.5z"/>
		<path class="st2" d="M165.9,186.2H87.1v25.3h78.8V186.2z"/>
		<path class="st2" d="M251.9,156.5h-73v54.9h73V156.5z"/>
		<path class="st1" d="M325.2,136.9H169.4v108.1h155.8V136.9z"/>
		
			<linearGradient id="SVGID_4_" gradientUnits="userSpaceOnUse" x1="169.3862" y1="257.1461" x2="325.1519" y2="257.1461" gradientTransform="matrix(1 0 0 -1 0 401)">
			<stop  offset="0" style="stop-color:#187ADD"/>
			<stop  offset="1" style="stop-color:#1875D3"/>
		</linearGradient>
		<path class="st16" d="M325.2,136.9H169.4v13.8h155.8V136.9z"/>
		<path class="st15" d="M182,144.4c0,1.8-1.3,3.2-3,3.2c-1.7,0-3-1.4-3-3.2c0-1.8,1.3-3.2,3-3.2C180.6,141.2,182,142.6,182,144.4z"
			/>
		<path class="st15" d="M190.9,144.4c0,1.8-1.3,3.2-3,3.2c-1.6,0-3-1.4-3-3.2c0-1.8,1.3-3.2,3-3.2
			C189.6,141.2,190.9,142.6,190.9,144.4z"/>
		<path class="st15" d="M199.9,144.4c0,1.8-1.3,3.2-3,3.2c-1.6,0-3-1.4-3-3.2c0-1.8,1.3-3.2,3-3.2
			C198.6,141.2,199.9,142.6,199.9,144.4z"/>
		<path class="st3" d="M223.6,204.2v7.4H218v10.5h-9.2v-10.5h-20l-0.4-5.8l20.3-32h9.3v30.3L223.6,204.2L223.6,204.2z M208.8,204.2
			v-17.9l-0.9,1.6l-10.5,16.3L208.8,204.2L208.8,204.2z"/>
		<path class="st3" d="M262.1,212c-0.7,2.4-1.7,4.4-3.1,5.9c-1.3,1.6-3,2.8-4.9,3.6c-1.9,0.8-4.1,1.2-6.6,1.2
			c-2.4,0-4.6-0.4-6.5-1.2c-1.9-0.8-3.6-2-4.9-3.6c-1.4-1.6-2.4-3.6-3.2-5.9c-0.7-2.4-1.1-5.1-1.1-8.2v-11.5c0-3.1,0.4-5.9,1.1-8.2
			c0.7-2.4,1.8-4.4,3.1-6c1.3-1.6,3-2.8,4.9-3.6c1.9-0.8,4.1-1.2,6.5-1.2c2.4,0,4.6,0.4,6.6,1.2c1.9,0.8,3.6,2,5,3.6
			c1.3,1.6,2.4,3.6,3.1,6c0.7,2.4,1.1,5.1,1.1,8.2v11.5C263.1,206.8,262.8,209.6,262.1,212z M253.9,190.2c0-1.8-0.2-3.4-0.6-4.6
			c-0.3-1.3-0.8-2.3-1.5-3.1c-0.5-0.6-1.1-1.1-1.9-1.4c-0.7-0.3-1.6-0.4-2.5-0.4c-1,0-1.9,0.2-2.7,0.6c-0.8,0.4-1.4,1-2,1.7
			c-0.6,0.8-1,1.9-1.3,3.2c-0.3,1.3-0.4,2.8-0.4,4.6v5.3c0,1.1,0,1.8,0,2.1s0,0.9,0,1.6L253.9,190.2z M253.9,199.5
			c0-0.7,0-1.3,0-1.6c0-0.3,0-0.8,0-1.5L241,206c0,1.5,0.2,2.7,0.4,3.9c0.3,1.1,0.6,2.1,1.1,2.8c0.5,0.9,1.2,1.6,2,2
			c0.8,0.4,1.8,0.7,2.9,0.7c1,0,2-0.2,2.7-0.6c0.8-0.4,1.5-1,2-1.8c0.6-0.8,1-1.9,1.2-3.2c0.3-1.3,0.4-2.9,0.4-4.6V199.5z"/>
		<path class="st3" d="M304.9,204.2v7.4h-5.6v10.5h-9.2v-10.5h-20l-0.4-5.8l20.3-32h9.3v30.3L304.9,204.2L304.9,204.2z M290.1,204.2
			v-17.9l-0.9,1.6l-10.5,16.3L290.1,204.2L290.1,204.2z"/>
		<path class="st17" d="M367.3,200.5c0,0-8.9,6.9-5.4,6.6c3.5-0.3,6.5-0.7,8.6-5.8L367.3,200.5z"/>
		<path class="st18" d="M363.8,147.7c0-1.9,0.5-5,4.3-3c6,3.2,13.9,23,14.2,27.9c0.3,5-11.9,29.5-11.9,29.5s-2.8,0.9-3.7-1.8
			l8.2-27.5C375,172.8,363.8,154.3,363.8,147.7z"/>
		<path class="st19" d="M370.3,294.4l-0.4,5.4l5.5-1l0.1-7L370.3,294.4z"/>
		<path class="st19" d="M337.1,300.5l-0.4,5.4l5.5-1l0.2-7L337.1,300.5z"/>
		<path class="st20" d="M336.9,303.1c0,0,2,3.1,5.3,0.8c0,0,3.6,9.5-3,10.2c-6.6,0.7-18.2-1.7-19.5-4.7
			C317.9,305.2,329,303.5,336.9,303.1z"/>
		<path class="st20" d="M370,298.1c0,0,3.2,1.7,5.4-0.2c0,0,6.9,7.5,0.9,10.3c-6,2.7-17.8,4.1-20,1.7
			C353.2,306.5,362.7,301,370,298.1z"/>
		<path class="st21" d="M362.4,130.1c0,0-3.2,7.1-0.8,12c1.5,3.1-12.3,12.2-11.7,8.2c0.7-5.1,3.4-8.1,1-14.1L362.4,130.1z"/>
		<path class="st19" d="M351.8,117c-4.5,4-8.5,17.8-4,21.9c2,1.8,9.2,4.3,14.6-3.6c2.2-3.2,5-9.3,1.8-15.6
			C362.8,116.9,357,112.3,351.8,117z"/>
		<path class="st22" d="M349.6,115.9c-2.8,1.1-2.9,5-0.1,6.1c1.1,0.4,2.3,0.8,3.8,1c6.8,1.2,4.9,3.2,4.2,4.8c-2.1,4.8,2.6,3,0,8.7
			c-2.6,5.7,5.6,0.4,6.3-0.4c0.7-0.8,6.8-7.7,3.1-16.1C364,113.6,356,113.6,349.6,115.9z"/>
		<path class="st23" d="M350,186.7l6.7,55.5c0,0,3.9,40.4,9.6,53.2c1.2,2.8,10.7,2.6,11.8-0.6c5.2-15.6-4.6-64.8-4.6-64.8
			s1.8-18.6,1.4-24.8c-0.3-4.7-3.4-18.5-3.4-18.5L350,186.7L350,186.7z"/>
		<path class="st24" d="M362.4,197.5c9.2,11.1-10.7,56.6-10.7,56.6s1.4,35-5.9,45.2c-1.6,2.3-11.4,2.7-12.1,0c-4-14.9,0-53.1,0-53.1
			l1.6-49.7l16.6,0.9C351.8,197.5,360.7,195.5,362.4,197.5z"/>
		<path class="st25" d="M344.5,147.6c-6.3,5.3-8.4,15.8-9.5,55.6c-0.2,8.8,39.9,6.9,39.7-1.8c-0.5-23.3,5.9-30.8-1.6-51.5
			C371,144.2,357.1,137.1,344.5,147.6z"/>
		<path class="st19" d="M299.8,138.3c0,0-5.1-11.2-5.7-7.4c-0.6,3.8-0.9,7,4,10.6L299.8,138.3z"/>
		<path class="st26" d="M351.8,147.4c2,0.5,7,3.8,3.9,7.3c-4.9,5.5-25,8.7-30.3,7.8c-5.4-0.9-28.1-21.3-28.1-21.3s-0.2-3.2,2.9-3.5
			l27.8,12.5C328,150.3,344.8,145.7,351.8,147.4z"/>
		<path class="st3" d="M145.1,241.5c0,13.2-10.7,23.8-23.8,23.8c-13.2,0-23.8-10.7-23.8-23.8c0-13.2,10.7-23.8,23.8-23.8
			C134.4,217.7,145.1,228.3,145.1,241.5z"/>
		<path class="st6" d="M142,241.5c0,11.5-9.3,20.7-20.8,20.7c-11.5,0-20.8-9.3-20.8-20.7c0-11.5,9.3-20.7,20.8-20.7
			S142,230.1,142,241.5z"/>
		<path class="st3" d="M111.1,229l-4.1,5l24.3,20l4.1-5L111.1,229z"/>
		<path class="st3" d="M130.5,228.4l-23,21.6l4.4,4.7l23-21.6L130.5,228.4z"/>
		<g class="st27">
			<path class="st3" d="M134.7,190.3c-11.7,0-21.2-9.5-21.2-21.2c0-11.7,9.5-21.2,21.2-21.2c11.7,0,21.2,9.5,21.2,21.2
				C155.9,180.8,146.3,190.3,134.7,190.3z M134.7,156.9c-6.7,0-12.2,5.5-12.2,12.2c0,6.7,5.5,12.2,12.2,12.2
				c6.7,0,12.2-5.5,12.2-12.2C146.9,162.4,141.4,156.9,134.7,156.9z"/>
		</g>
		<path class="st3" d="M134.7,190.3c-2.9,0-5.6-0.6-8.3-1.7c-2.3-1-3.4-3.6-2.4-5.9c1-2.3,3.6-3.4,5.9-2.4c1.5,0.6,3.1,1,4.8,1
			c6.7,0,12.2-5.5,12.2-12.2c0-6.7-5.5-12.2-12.2-12.2c-2.5,0-4.5-2-4.5-4.5c0-2.5,2-4.5,4.5-4.5c11.7,0,21.2,9.5,21.2,21.2
			C155.9,180.8,146.3,190.3,134.7,190.3z"/>
		<path class="st28" d="M342.8,180.9c4.3,0.8,8.6,1.3,13,1.4c4.8,0.2,9.8,0.1,14.5-0.9c2.2-0.5,4.4-1.2,6.3-2.5
			c0.9-0.6,1.3-1.8,0.7-2.7c-0.6-0.9-1.8-1.3-2.7-0.7c-0.4,0.2-0.7,0.5-1.1,0.7c-0.2,0.1-0.3,0.2-0.5,0.2c-0.1,0-0.2,0.1-0.3,0.1
			c0.5-0.3,0.1,0-0.1,0c-0.9,0.3-1.8,0.6-2.7,0.8c-1,0.2-2.2,0.5-3.2,0.6c0.6,0-0.2,0-0.3,0c-0.3,0-0.6,0.1-0.9,0.1
			c-0.6,0.1-1.2,0.1-1.8,0.1c-4.7,0.3-9.3,0.1-14-0.4c-0.6-0.1-1.1-0.1-1.7-0.2c-0.1,0-0.3,0-0.4,0c-0.1,0-0.7-0.1-0.1,0
			c-0.2,0-0.5-0.1-0.7-0.1c-1-0.1-1.9-0.3-2.9-0.5c-1-0.2-2.2,0.3-2.5,1.4C341.2,179.4,341.7,180.7,342.8,180.9z"/>
		<path class="st28" d="M338,161.2c-3.7,10.5,5.8,16,5.8,16l-0.8,81.9H331C331,259.2,329.9,169.4,338,161.2z"/>
		<path class="st28" d="M344.5,147.6c0.8-0.5,1.7-0.9,2.7-1.3c0.9-0.3,1.9-0.5,2.9-0.6c1,0,2,0.1,3,0.4l0.4,0.1l0.4,0.2
			c0.2,0.1,0.5,0.2,0.7,0.3c0.4,0.3,0.9,0.5,1.3,0.9c1.6,1.3,2.9,3.1,3.7,4.9c0.2,0.5,0.4,0.9,0.6,1.4c0.1,0.2,0.2,0.5,0.3,0.7
			l0.2,0.7c0.2,0.5,0.3,1,0.5,1.4l0.4,1.5c0.1,0.5,0.2,1,0.3,1.5l0.3,1.5c0.2,1,0.3,2,0.5,3c0.1,1,0.2,2,0.3,3l0.2,3
			c0.2,4,0.2,8,0.1,12l-4.9-0.4c0.5-3.8,0.9-7.7,1.1-11.5l0.1-2.9c0-1,0-1.9,0-2.9c0-1-0.1-1.9-0.2-2.9l-0.2-1.4
			c-0.1-0.5-0.1-1-0.2-1.4l-0.2-1.4c-0.1-0.5-0.2-0.9-0.3-1.4l-0.2-0.7c-0.1-0.2-0.1-0.4-0.2-0.7c-0.1-0.4-0.3-0.9-0.4-1.3
			c-0.6-1.8-1.5-3.4-2.9-4.7c-0.3-0.3-0.7-0.6-1.1-0.9c-0.2-0.1-0.4-0.2-0.6-0.4l-0.3-0.2l-0.3-0.1c-0.8-0.4-1.8-0.6-2.7-0.7
			C348.3,146.3,346.3,146.7,344.5,147.6z"/>
		<path class="st28" d="M363.8,142.9c1.7,0,3.3,0.7,4.7,1.7c0.7,0.5,1.3,1.1,2,1.7c0.6,0.6,1.1,1.3,1.6,2c2,2.8,3.2,6.1,4,9.5
			c0.8,3.3,1.2,6.8,1.5,10.2c0.2,3.4,0.2,6.8,0.1,10.2l-3.6-0.3c0.4-3.3,0.7-6.6,0.8-9.9c0.1-3.3-0.1-6.6-0.5-9.9
			c-0.5-3.2-1.3-6.5-3-9.3c-0.4-0.7-0.9-1.4-1.4-2c-0.5-0.6-1.1-1.2-1.7-1.8C367,144,365.5,143.1,363.8,142.9z"/>
		<path class="st28" d="M376.3,189.9l6.5,66.4h-5l-4.2-26.3l1.3-37L376.3,189.9z"/>
		<path class="st17" d="M67.3,283.5c0,0,12.8,0.3,9.4,2.4c-3.4,2.1-6.3,3.8-11.8,0.6L67.3,283.5z"/>
		<path class="st29" d="M37.2,237.6c-1.3-1.7-6.5-5.1-8.6-0.7c-3.3,7,2.9,26.7,6,31.4c3.1,4.7,30.8,18.8,30.8,18.8s3.1-1.1,2.2-4.2
			l-22.4-22.6C45.2,260.3,41.8,243.6,37.2,237.6z"/>
		<path class="st19" d="M114.9,321.5l5.7,2.3l0.7-5.7l-7.4-2.6L114.9,321.5z"/>
		<path class="st30" d="M0.5,286.7c0,0,6.8,31.4,24.7,21.2l39-6.4c0,0,31.6,18.6,48.2,20.7c6.4,0.9,6.4-6.5,4.4-8
			c-14-10.7-42.2-31.6-62.3-32.6c-17.1-0.9-30.5,5.3-30.5,5.3L0.5,286.7z"/>
		<path class="st20" d="M119.4,317.2c0,0,2,3.5-1.5,5.7c0,0,7.6,7.1,10.8,1.2c3.2-5.9,5.5-17.8,3.2-20.2
			C128.7,300.5,122.9,309.9,119.4,317.2z"/>
		<path class="st19" d="M79.1,379l3.4,5l3.7-4.4l-4.7-6.3L79.1,379z"/>
		<path class="st20" d="M8.2,314.7l38.4,19.7c0,0,16.2,32.8,28.9,43.8c4.9,4.2,8.9-1.9,8.1-4.3c-5.9-16.6-18-49.5-34.2-61.4
			c-13.9-10.1-35-38.4-35-38.4S-11.3,302.4,8.2,314.7z"/>
		<path class="st20" d="M85.3,377.8c0,0-0.2,4-4.4,4c0,0,2.4,10.1,8.4,6.9c6-3.2,14.4-11.9,13.8-15.1
			C102.2,368.9,92.1,373.6,85.3,377.8z"/>
		<path class="st29" d="M11.7,237C5.3,242.3,1.1,256.2,0,296.4c-0.2,8.9,41-5.2,38.5-13.7c-6.2-21.3,8.1-29.9-1-44.7
			C37.5,238.1,24.3,226.4,11.7,237z"/>
		<path class="st21" d="M23,221.4c0,0,2.2,7.2-0.1,11.1c-1.5,2.5,9.7,9.9,9.5,6.5c-0.3-4.4-2.4-7,0-11.9L23,221.4z"/>
		<path class="st19" d="M32.6,211c3.5,3.7,6.7,19.1,2.7,22.3c-1.8,1.4-8.6-0.6-12.7-7.5c-1.7-2.9-3.7-8.1-0.6-13.2
			C23.4,210.2,28.6,206.7,32.6,211z"/>
		<path class="st31" d="M35.4,213.4c0.7,2,0.3,3.3-4.5,2.6c-5.8-0.8-5,3.3-4.5,4.7c1.5,4.1-4.3,0.2-2.4,5.2c0.4,1,0.8,2.7-0.8,2.8
			c-3.5,0.2-5.2-3.8-6-6.5c-1-3.4-1-7.4,0.7-10.7C21.6,204.6,32.3,204.8,35.4,213.4z"/>
		<path class="st32" d="M24.5,293.6l22.3,1.2l1.4-4.1l-23.5-0.9L24.5,293.6z"/>
		<path class="st7" d="M46.8,294.8l31.4-4.2l2.2-25.4l-30.8,4.9L46.8,294.8z"/>
		<path class="st19" d="M46.1,288.6c0,0,12.8,0.9,9.3,2.9c-3.5,1.9-6.5,3.4-11.8-0.1L46.1,288.6z"/>
		<path class="st29" d="M18.5,241.2c-1.2-1.8-6.2-5.5-8.5-1.2c-3.6,6.8,1.5,26.8,4.3,31.7c2.8,4.9,29.7,20.4,29.7,20.4
			s3.2-0.9,2.4-4.1l-21.2-23.8C25.2,264.3,22.7,247.4,18.5,241.2z"/>
		<path class="st32" d="M67.5,278.7c-0.2,0.3-0.4,0.6-0.6,0.9c-0.5,1-0.4,2.1,0.2,2.4c0.1,0,0.1,0.1,0,0.2c-0.2,0.6-0.5,1.2-0.9,1.7
			c-0.4,0.6-0.7,0.8-1.1,0.7c-0.2,0-0.3-0.1-0.5,0c-0.2,0-0.4,0.2-0.6,0.3c0,0-0.1,0-0.1,0.1c-0.5,0.4-0.7,0.4-1,0
			c-0.5-0.8-0.7-1.9-0.5-3.3c0.2-0.9,0.5-1.7,1.2-2.3c0.4-0.3,0.7-0.5,1.1-0.4c0.7,0.1,0.4,0.2,1.2-0.3c0.5-0.4,1-0.4,1.4-0.1
			C67.3,278.4,67.4,278.6,67.5,278.7z"/>
		<path class="st32" d="M66.8,276.3c0,0.2-0.1,0.4-0.1,0.5c-0.2,0.6-0.5,1.2-1,1.5c-0.1,0.1-0.2,0.1-0.3,0.2
			c-0.2,0.1-0.2,0.1-0.1-0.2c0.1-0.6,0.4-1.1,0.8-1.6C66.3,276.5,66.5,276.4,66.8,276.3z"/>
		<path class="st3" d="M70,35.1L65.2,41L36.4,17.3l4.8-5.9L70,35.1z"/>
		<path class="st3" d="M64.2,10.7l5.2,5.6L42.2,41.8L37,36.2L64.2,10.7z"/>
		<path class="st33" d="M391,108.7c1.6-3.1-1.8-7.4-3.6-9.6c-1.4-1.7-3-3.1-4.8-4.2c-1.3-2.9-3.1-5.5-5.4-7.6
			c-2.4-2.2-6.3-5-9.8-4.5c-2.9,0.4-3.8,2.8-3.1,5.4c0.3,1.2,0.7,2.4,1.2,3.5c-2,0.4-4,1.1-5.9,2c-0.4,0.2-0.1,0.8,0.3,0.6
			c1.9-0.9,3.9-1.6,5.9-2c3.6,7.5,11.4,14.4,18.2,17.5C386.3,110.8,389.6,111.3,391,108.7z M365.7,90c-0.3-0.9-1.1-3-0.9-3.9
			c0.5-3.9,4.4-2.8,6.7-1.9c1.9,0.7,3.9,2.3,5.3,3.7c2,1.9,3.5,4,4.6,6.3c-4.5-2.5-9.8-3.4-14.9-2.5C366.1,91.1,365.9,90.5,365.7,90
			z M378.8,105.8c-2.1-1.5-4-3.2-5.7-5c-2.4-2.5-4.8-5.4-6.4-8.6c5.2-0.8,10.6,0.2,15.1,3.1c1.7,4.1,2.2,8.7,1.6,13.3
			c0,0.1,0.2,0.2,0.2,0.1c1.3-4.1,0.9-8.5-0.6-12.4c0.2,0.1,0.3,0.2,0.5,0.4c2,1.6,3.6,3.4,5,5.6c0.6,1,3.7,4.9,0.9,7
			C386.6,111.4,380.3,106.9,378.8,105.8z"/>
		<path class="st33" d="M368.2,84c-3,1.7-2.4,7.2-2,10c0.3,2.2,0.9,4.2,1.8,6.1c-0.5,3.1-0.3,6.3,0.5,9.3c0.9,3.2,2.6,7.6,5.9,9
			c2.6,1.2,4.7-0.4,5.5-3c0.4-1.2,0.6-2.4,0.8-3.7c1.9,0.7,3.9,1.2,6.1,1.5c0.4,0,0.5-0.6,0.1-0.7c-2.1-0.2-4.2-0.7-6.1-1.5
			c0.9-8.2-2-18.2-6.2-24.5C373.3,84.8,370.8,82.6,368.2,84z M379.7,113.4c-0.2,0.9-0.7,3.1-1.3,3.8c-2.5,3-5.3,0-6.7-1.9
			c-1.2-1.6-2-4-2.5-5.9c-0.7-2.6-0.8-5.2-0.5-7.7c2.5,4.5,6.5,8,11.3,10C379.9,112.2,379.8,112.8,379.7,113.4z M377,93
			c0.9,2.3,1.7,4.8,2.2,7.3c0.7,3.4,1.1,7.1,0.9,10.7c-4.8-2.1-8.9-5.8-11.2-10.7c0.7-4.4,2.8-8.5,5.7-12.1c0.1-0.1-0.1-0.3-0.2-0.2
			c-3.2,2.8-5.3,6.7-6.1,10.8c-0.1-0.2-0.2-0.4-0.2-0.6c-0.8-2.4-1.2-4.8-1.2-7.4c0-1.1-0.6-6.1,3-6.4C373.3,84.1,376.3,91.3,377,93
			z"/>
		<path class="st33" d="M356.5,104c1.2,3.2,6.7,3.6,9.6,3.6c2.2,0,4.3-0.3,6.3-0.8c3,1,6.2,1.3,9.3,1c3.3-0.3,7.9-1.4,9.9-4.3
			c1.6-2.4,0.3-4.7-2-5.9c-1.1-0.6-2.2-1-3.5-1.4c1-1.8,1.8-3.7,2.4-5.7c0.1-0.4-0.5-0.6-0.6-0.2c-0.6,2-1.4,4-2.4,5.8
			c-8-2.2-18.3-0.9-25.2,2.2C358,99.1,355.4,101.2,356.5,104z M387.3,97.3c0.9,0.3,2.9,1.2,3.5,1.8c2.5,2.9-0.8,5.2-3,6.3
			c-1.8,1-4.3,1.4-6.2,1.6c-2.7,0.2-5.3,0-7.7-0.7c4.9-1.7,9-5.1,11.7-9.5C386.1,96.9,386.7,97.1,387.3,97.3z M366.7,96.8
			c2.5-0.6,5-0.9,7.5-1c3.4-0.1,7.2,0,10.7,0.8c-2.8,4.4-7.2,7.8-12.3,9.3c-4.2-1.4-7.9-4.1-11.1-7.5c-0.1-0.1-0.3,0-0.2,0.1
			c2.2,3.6,5.8,6.3,9.7,7.8c-0.2,0-0.4,0.1-0.6,0.1c-2.5,0.5-5,0.4-7.5,0c-1.1-0.2-6.2-0.4-5.9-4C357.4,99,364.9,97.2,366.7,96.8z"
			/>
	</g>
</g>
</svg>
