<?xml version="1.0" encoding="utf-8"?>
<!-- Generator: Adobe Illustrator 25.3.1, SVG Export Plug-In . SVG Version: 6.00 Build 0)  -->
<svg version="1.1" id="圖層_1" xmlns="http://www.w3.org/2000/svg" xmlns:xlink="http://www.w3.org/1999/xlink" x="0px" y="0px"
	 viewBox="0 0 100 75" style="enable-background:new 0 0 100 75;" xml:space="preserve">
<style type="text/css">
	.st0{clip-path:url(#SVGID_2_);}
	.st1{fill:#80A8E8;}
	.st2{fill:#95BCF4;}
	.st3{fill:#342E38;}
	.st4{fill:#FAFAFA;}
	.st5{fill:#FFFFFF;}
	.st6{fill:#E9E9E9;}
	.st7{fill:#6697DD;}
	.st8{fill:#E57676;}
	.st9{fill:#EDE09C;}
	.st10{fill:#E2CE79;}
</style>
<g>
	<defs>
		<rect id="SVGID_1_" x="0.1" width="99.7" height="75"/>
	</defs>
	<clipPath id="SVGID_2_">
		<use xlink:href="#SVGID_1_"  style="overflow:visible;"/>
	</clipPath>
	<g class="st0">
		<path class="st1" d="M78.7,47.7l-31-17.8L0.3,57.2l31,17.8L78.7,47.7z"/>
		<path class="st2" d="M78.7,35l-31-17.8L0.3,44.5l31,17.9L78.7,35z"/>
		<path class="st1" d="M31.3,62.3l0,12.7l47.4-27.3l0-12.7L31.3,62.3z"/>
		<path class="st3" d="M34.3,63.2l3.1-1.8l0,8.1l-3.1,1.8L34.3,63.2z"/>
		<path class="st4" d="M64.5,45.9l0,8.1L37.4,69.5l0-8.1L64.5,45.9z"/>
		<path class="st3" d="M38.5,63.6v-1l24.7-14.2v1L38.5,63.6z"/>
		<path class="st5" d="M31.1,71.8L2.5,55.4v-9.5L31,62.5L31.1,71.8z"/>
		<path class="st2" d="M0.3,57.2v-0.5l30.5,17.5l0-11.4L0.3,45.2v-0.7l31,17.9l0,12.7L0.3,57.2z"/>
		<path class="st1" d="M0.3,56.7l2.2-1.3l28.3,16.3v2.6L0.3,56.7z"/>
		<path class="st6" d="M18,56.8c-4.8-2.1-9.5-4.6-13.8-7.6c0,0,0-0.1,0-0.1c4.6,2.6,9.2,5.1,13.9,7.5C18.2,56.8,18.1,56.9,18,56.8z"
			/>
		<path class="st6" d="M24,65.9c-4.8-2.1-9.5-4.6-13.8-7.6c0,0,0-0.1,0-0.1c4.6,2.6,9.2,5.1,13.9,7.5C24.1,65.8,24,65.9,24,65.9z"/>
		<path class="st6" d="M29.2,67.4c-1.7-0.8-3.3-1.8-4.9-2.7c-1.6-0.9-3.3-1.8-4.9-2.8c-0.1-0.1,0-0.2,0.1-0.2
			C22.8,63.2,26.4,65,29.2,67.4C29.3,67.3,29.2,67.4,29.2,67.4z"/>
		<path class="st4" d="M70.1,44c1.7-1,3.1-0.4,3.1,1.3s-1.4,3.8-3.1,4.8c-1.7,1-3.1,0.4-3.1-1.3C67.1,47.1,68.4,45,70.1,44z"/>
		<path class="st6" d="M68.4,50c0.4,0,0.9-0.1,1.4-0.4c1.4-0.8,2.6-2.6,2.6-4c0-0.7-0.3-1.2-0.7-1.3c0.7,0,1.2,0.6,1.2,1.5
			c0,1.4-1.1,3.2-2.6,4C69.5,50.1,68.8,50.2,68.4,50z"/>
		<path class="st7" d="M72.3,45.6c0,1.4-1.1,3.2-2.6,4c-0.5,0.3-1,0.4-1.4,0.4c-0.5-0.2-0.7-0.7-0.7-1.3c0-1.4,1.1-3.2,2.6-4
			c0.5-0.3,1-0.4,1.4-0.4C72,44.4,72.3,44.9,72.3,45.6z"/>
		<path class="st8" d="M28.8,68.7L25.9,67c0,0-3.1,1.8-4.1,2.4c-2.5,1.4-3.3,3-3.3,3l2.9,1.7c0,0,1.3-1.8,4.5-3.7
			C26.5,70,28.8,68.7,28.8,68.7z"/>
		<path class="st9" d="M9.8,56.5l-2.4-1.4l-7.3,4.2l2.4,1.4L9.8,56.5z"/>
		<path class="st9" d="M17.8,58.2l-2.4-1.4c0,0-3.4,2-4.6,2.6C10.2,59.9,9,60.9,9,60.9l2.4,1.4c0,0,1-1,1.7-1.3
			C14.2,60.3,17.8,58.2,17.8,58.2z"/>
		<path class="st1" d="M21.2,30.5l31-17.8L99.7,40l-31,17.8L21.2,30.5z"/>
		<path class="st9" d="M21.3,17.8L52.3,0l47.5,27.3l-31,17.8L21.3,17.8z"/>
		<path class="st10" d="M68.7,45.1l0,12.7L21.2,30.5l0-12.7L68.7,45.1z"/>
		<path class="st3" d="M65.7,46l-3.1-1.8l0,8.1l3.1,1.8L65.7,46z"/>
		<path class="st4" d="M35.5,28.7l0,8.1l27.1,15.6l0-8.1L35.5,28.7z"/>
		<path class="st3" d="M61.5,46.4v-1L36.8,31.2v1L61.5,46.4z"/>
		<path class="st5" d="M68.9,54.6l28.6-16.4l0-9.5L69,45.3L68.9,54.6z"/>
		<path class="st9" d="M99.7,40v-0.5L69.2,57V45.6L99.7,28l0-0.7l-31,17.8l0,12.7L99.7,40z"/>
		<path class="st10" d="M99.7,39.5l-2.2-1.3L69.2,54.5V57L99.7,39.5z"/>
		<path class="st6" d="M82,39.7c4.8-2.1,9.5-4.6,13.8-7.6c0,0,0-0.1,0-0.1c-4.6,2.6-9.2,5.1-13.9,7.5C81.8,39.6,81.9,39.7,82,39.7z"
			/>
		<path class="st6" d="M76,48.7c4.8-2.1,9.5-4.6,13.8-7.6c0,0,0-0.1,0-0.1c-4.6,2.6-9.2,5.1-13.9,7.5C75.9,48.6,76,48.7,76,48.7z"/>
		<path class="st6" d="M70.8,50.2c1.7-0.8,3.3-1.8,4.9-2.7c1.6-0.9,3.3-1.8,4.9-2.8c0.1-0.1,0-0.2-0.1-0.2
			C77.1,46,73.5,47.8,70.8,50.2C70.7,50.2,70.8,50.2,70.8,50.2z"/>
		<path class="st4" d="M29.9,26.8c-1.7-1-3.1-0.4-3.1,1.3c0,1.7,1.4,3.8,3.1,4.8c1.7,1,3.1,0.4,3.1-1.3S31.5,27.8,29.9,26.8z"/>
		<path class="st6" d="M31.6,32.8c-0.4,0-0.9-0.1-1.4-0.4c-1.4-0.8-2.6-2.6-2.6-4c0-0.7,0.3-1.2,0.7-1.3c-0.7,0-1.2,0.6-1.2,1.5
			c0,1.4,1.1,3.2,2.6,4C30.5,32.9,31.2,33,31.6,32.8z"/>
		<path class="st10" d="M27.7,28.4c0,1.4,1.1,3.2,2.6,4c0.5,0.3,1,0.4,1.4,0.4c0.5-0.2,0.7-0.7,0.7-1.3c0-1.4-1.1-3.2-2.6-4
			c-0.5-0.3-1-0.4-1.4-0.4C28,27.2,27.7,27.7,27.7,28.4z"/>
		<path class="st1" d="M71.2,51.5l2.9-1.6c0,0,3.1,1.8,4.1,2.4c2.5,1.4,3.3,3,3.3,3l-2.9,1.6c0,0-1.3-1.8-4.5-3.7
			C73.4,52.8,71.2,51.5,71.2,51.5z"/>
		<path class="st8" d="M90.2,39.4l2.4-1.4l7.3,4.2l-2.4,1.4L90.2,39.4z"/>
		<path class="st9" d="M82.2,41l2.4-1.4c0,0,3.4,2,4.6,2.6c0.7,0.4,1.8,1.4,1.8,1.4l-2.4,1.4c0,0-1-1-1.7-1.3
			C85.8,43.1,82.2,41,82.2,41z"/>
	</g>
</g>
</svg>
