<svg width="40" height="48" viewBox="0 0 40 48" fill="none" xmlns="http://www.w3.org/2000/svg">
<path d="M22.8514 43.9533C22.8514 44.4826 22.857 44.9432 22.8495 45.4057C22.8327 46.4426 22.1659 47.0875 21.0907 47.0984C20.2029 47.1074 19.3132 47.1056 18.4254 47.0984C17.3259 47.0893 16.6647 46.448 16.6478 45.3768C16.6404 44.9288 16.646 44.4808 16.646 43.9569C15.8649 43.9569 15.1232 43.9695 14.3814 43.9533C13.621 43.937 13.0272 43.5775 12.7837 42.9037C12.4934 42.1016 12.5103 41.258 12.8118 40.4343C12.8736 40.2681 12.8793 40.035 12.8043 39.8797C12.3698 38.9584 12.5646 37.4247 13.2201 36.8303C13.2314 36.8195 13.2408 36.8032 13.2539 36.7996C13.9544 36.5865 13.8532 36.0355 13.8457 35.5152C13.8364 34.9299 13.8364 34.3428 13.8457 33.7557C13.8626 32.4803 13.3363 31.4922 12.2106 30.8057C10.5679 29.8049 9.21742 28.5151 8.10482 26.9796C4.92437 22.5881 4.85881 16.3973 7.95498 11.9443C10.2926 8.58425 13.5255 6.56461 17.663 5.8944C17.7848 5.87453 17.9103 5.85827 18.0339 5.85647C18.4535 5.84743 18.7663 6.06963 18.7981 6.42912C18.8318 6.81029 18.6389 7.07042 18.2531 7.15894C17.6031 7.30707 16.94 7.41184 16.2957 7.57804C11.5625 8.79561 7.78828 12.9361 7.21512 17.6094C6.58952 22.7091 8.50753 26.7303 12.9055 29.6153C14.4863 30.6522 15.2805 32.0215 15.2524 33.8551C15.2393 34.6662 15.2505 35.4773 15.2505 36.3227C18.2399 36.3227 21.2069 36.3227 24.245 36.3227C24.245 35.9614 24.2393 35.5929 24.2468 35.2226C24.2618 34.4711 24.23 33.716 24.3143 32.9717C24.4622 31.6819 25.1497 30.6829 26.2061 29.8808C27.2306 29.1022 28.2908 28.3453 29.1898 27.4421C30.9187 25.7042 31.8777 23.569 32.2748 21.1971C32.2898 21.1086 32.3029 21.0182 32.3253 20.9315C32.4452 20.4745 32.7487 20.2469 33.1457 20.3101C33.5428 20.3751 33.762 20.6895 33.6945 21.1628C33.4791 22.7091 33.009 24.1814 32.2617 25.5651C31.1378 27.6444 29.5813 29.3642 27.5303 30.6305C26.1742 31.4687 25.5524 32.6086 25.6441 34.1495C25.6835 34.8089 25.6348 35.4719 25.6629 36.133C25.6704 36.2884 25.794 36.4943 25.9288 36.5774C26.5282 36.946 26.8766 37.4427 26.871 38.1328C26.8654 38.7868 26.9927 39.4606 26.5788 40.0621C26.5376 40.1217 26.5844 40.259 26.6256 40.3421C27.0171 41.1153 26.9497 41.93 26.7736 42.7213C26.6125 43.4475 25.9476 43.919 25.1703 43.9443C24.4192 43.9732 23.6606 43.9533 22.8514 43.9533ZM19.7609 37.7137C18.2025 37.7137 16.646 37.7137 15.0876 37.7137C14.0256 37.7137 14.0256 37.7137 14.0274 38.7217C14.0293 39.4208 14.1005 39.4913 14.8329 39.4913C17.9796 39.4913 21.1263 39.4913 24.2731 39.4913C25.4924 39.4913 25.4924 39.4913 25.4737 38.3369C25.4643 37.7986 25.38 37.7155 24.8088 37.7137C23.1268 37.7137 21.4447 37.7137 19.7609 37.7137ZM19.7983 40.8498C18.225 40.8498 16.6535 40.8498 15.0801 40.8498C14.0237 40.8498 14.0237 40.8498 14.0274 41.8632C14.0293 42.5605 14.0761 42.6056 14.7991 42.6075C17.9758 42.6075 21.1525 42.6075 24.3274 42.6075C25.4849 42.6075 25.4849 42.6075 25.4737 41.5055C25.4681 40.931 25.3932 40.8534 24.7956 40.8534C23.1305 40.8479 21.4635 40.8498 19.7983 40.8498ZM18.062 43.9912C18.062 44.4916 18.0395 44.9703 18.0789 45.4436C18.0882 45.5538 18.313 45.7272 18.4441 45.7309C19.3151 45.7561 20.1879 45.7561 21.057 45.7309C21.1881 45.7272 21.4148 45.5538 21.4241 45.4454C21.4654 44.9721 21.441 44.4934 21.441 43.9912C20.3003 43.9912 19.2046 43.9912 18.062 43.9912Z" fill="#01A982" stroke="#01A982" stroke-width="0.5"/>
<path d="M17.5038 12.5151C17.5038 11.919 17.5001 11.3192 17.5038 10.7195C17.5094 9.89574 17.8691 9.53986 18.7251 9.52721C19.4256 9.51637 20.128 9.51276 20.8285 9.52902C21.6264 9.54709 21.9861 9.91199 21.9936 10.6816C21.9992 11.2813 21.9954 11.8829 21.9954 12.5097C22.3382 12.6506 22.6716 12.8096 23.02 12.918C23.123 12.9505 23.3047 12.8746 23.3965 12.7915C23.7842 12.4429 24.1476 12.0707 24.5259 11.7149C25.1253 11.1512 25.6423 11.1458 26.2285 11.6968C26.7418 12.1791 27.2494 12.6669 27.7476 13.1637C28.2833 13.6984 28.2795 14.197 27.7382 14.7389C27.3599 15.1165 26.9778 15.494 26.5788 15.8517C26.399 16.0143 26.4252 16.1443 26.4814 16.3575C26.6706 17.0909 27.1089 17.3637 27.8806 17.2373C28.229 17.1795 28.5961 17.2156 28.9538 17.2337C29.5457 17.2626 29.9297 17.6022 29.9484 18.164C29.9747 18.9751 29.9765 19.788 29.9503 20.5973C29.9316 21.2043 29.5195 21.5403 28.8302 21.5584C28.2852 21.5728 27.7401 21.5746 27.195 21.5566C26.9328 21.5475 26.8504 21.6667 26.7193 21.8691C26.311 22.4941 26.4496 22.9493 27.0396 23.3684C27.3243 23.5708 27.5622 23.8417 27.8019 24.0965C28.2533 24.5752 28.2702 25.0792 27.8169 25.5416C27.2718 26.0998 26.7099 26.6418 26.1311 27.1657C25.6498 27.6028 25.1197 27.5902 24.6346 27.1548C24.2356 26.7971 23.8498 26.4232 23.4789 26.0384C23.2841 25.8343 23.123 25.8325 22.8383 25.8975C22.0741 26.0727 21.883 26.5117 21.9861 27.1964C22.0348 27.5197 22.0029 27.8575 21.9917 28.1863C21.9692 28.8493 21.5927 29.2232 20.9128 29.2359C20.1336 29.2503 19.3544 29.2503 18.5752 29.2359C17.899 29.2232 17.5207 28.8475 17.5038 28.1809C17.4907 27.6408 17.4907 27.0988 17.5057 26.5587C17.5113 26.3311 17.442 26.2191 17.2079 26.1324C16.2882 25.7909 16.2938 25.7801 15.5858 26.4629C15.3442 26.696 15.1101 26.9399 14.8553 27.1621C14.3665 27.5902 13.8383 27.601 13.3569 27.1639C12.7893 26.649 12.2405 26.1161 11.703 25.5705C11.2272 25.0882 11.2272 24.5806 11.6973 24.0928C12.0776 23.6972 12.4784 23.3143 12.8867 22.9457C13.074 22.7777 13.0684 22.6422 13.0066 22.4056C12.8174 21.6794 12.3829 21.4283 11.6318 21.5529C11.2984 21.6089 10.9463 21.5764 10.6054 21.5584C9.91607 21.5222 9.5452 21.1645 9.53209 20.5016C9.51711 19.7501 9.51523 18.9986 9.53397 18.2471C9.54895 17.6076 9.92918 17.2499 10.5904 17.2318C11.1504 17.2174 11.7123 17.2174 12.2724 17.2318C12.5234 17.2391 12.6564 17.1776 12.7538 16.9302C13.0984 16.0468 13.1115 16.0504 12.4054 15.3712C12.1525 15.1273 11.8865 14.8925 11.6505 14.6341C11.2441 14.1915 11.2328 13.6893 11.6524 13.2594C12.2068 12.6904 12.78 12.1358 13.37 11.6011C13.8514 11.1657 14.3702 11.1819 14.8684 11.6281C15.2786 11.9967 15.6757 12.3814 16.0578 12.7771C16.2339 12.9577 16.3781 13.0083 16.616 12.8818C16.8951 12.7391 17.1929 12.6434 17.5038 12.5151ZM18.9105 10.9019C18.9105 11.6119 18.9049 12.2713 18.9124 12.9288C18.918 13.3461 18.7176 13.5918 18.3111 13.7345C17.7717 13.9242 17.2397 14.1337 16.7171 14.3613C16.1477 14.6106 15.9717 14.6016 15.5203 14.1626C15.0614 13.7146 14.6156 13.254 14.1567 12.7933C13.7277 13.2178 13.3513 13.59 12.9429 13.9946C13.385 14.4119 13.8439 14.8401 14.2972 15.2736C14.801 15.7578 14.8104 15.9149 14.5013 16.5436C14.2953 16.9609 14.1117 17.3926 13.9506 17.828C13.7184 18.4602 13.5648 18.5831 12.868 18.5849C12.2349 18.5867 11.6037 18.5849 10.9743 18.5849C10.9743 19.1557 10.9743 19.6579 10.9743 20.2053C11.688 20.2053 12.3698 20.2125 13.0516 20.2017C13.4861 20.1945 13.7409 20.3823 13.887 20.7762C14.0818 21.2964 14.3009 21.8095 14.5369 22.3135C14.7954 22.8608 14.7823 23.0324 14.3327 23.4696C13.8738 23.9158 13.4075 24.3548 13.0047 24.7414C13.3943 25.1623 13.7521 25.5471 14.1342 25.9607C14.6118 25.4965 15.0689 25.0467 15.5334 24.6041C15.9717 24.185 16.1646 24.1705 16.7378 24.427C17.1873 24.6294 17.6443 24.8227 18.1107 24.9816C18.815 25.2219 18.9124 25.3303 18.9124 26.0493C18.9124 26.658 18.9124 27.2668 18.9124 27.8594C19.5136 27.8594 20.0362 27.8594 20.5925 27.8594C20.5925 27.1873 20.6056 26.5424 20.5888 25.8993C20.5756 25.4387 20.7892 25.1785 21.2293 25.025C21.7688 24.8371 22.3045 24.6312 22.8196 24.3927C23.2616 24.1886 23.6137 24.2319 23.9528 24.577C24.4117 25.0449 24.8893 25.4947 25.322 25.9156C25.7434 25.5272 26.1311 25.1713 26.5638 24.7757C26.0731 24.315 25.5861 23.8544 25.0916 23.3974C24.7657 23.0957 24.732 22.7723 24.9249 22.3785C25.1703 21.8781 25.395 21.3669 25.5842 20.8466C25.7453 20.4022 26.0131 20.1854 26.5132 20.2017C27.1782 20.2234 27.845 20.2071 28.5212 20.2071C28.5212 19.6399 28.5212 19.1268 28.5212 18.5867C27.815 18.5867 27.1463 18.5849 26.4777 18.5867C26.0337 18.5885 25.7584 18.4024 25.6067 17.9851C25.41 17.4504 25.1852 16.9211 24.9305 16.4099C24.7245 15.9962 24.7732 15.6692 25.1141 15.3567C25.6086 14.9051 26.0918 14.4408 26.532 14.0253C26.1124 13.6117 25.7359 13.2395 25.3239 12.8313C24.8612 13.2901 24.3817 13.7634 23.9059 14.2385C23.595 14.5492 23.2635 14.5962 22.8533 14.3975C22.3831 14.1699 21.8924 13.9748 21.396 13.8031C20.7011 13.5629 20.5925 13.4419 20.5906 12.7319C20.5906 12.1231 20.5906 11.5161 20.5906 10.9001C19.9987 10.9019 19.4874 10.9019 18.9105 10.9019Z" fill="#01A982" stroke="#01A982" stroke-width="0.5"/>
<path d="M21.5421 5.85653C23.1511 6.04621 24.7132 6.49422 26.1686 7.24029C30.0777 9.24729 32.5351 12.3418 33.5278 16.5093C33.6177 16.8887 33.6758 17.2771 33.7264 17.6637C33.7807 18.081 33.5484 18.3953 33.1607 18.4712C32.7936 18.5434 32.4733 18.3086 32.3553 17.8913C32.035 16.7514 31.8514 15.5519 31.3644 14.4825C29.4914 10.3763 26.1854 7.98998 21.6077 7.23126C21.5009 7.2132 21.3923 7.19874 21.2874 7.17345C20.8866 7.0759 20.6637 6.83384 20.7011 6.42738C20.7367 6.05163 21.0589 5.83847 21.5421 5.85653Z" fill="#01A982" stroke="#01A982" stroke-width="0.5"/>
<path d="M20.4446 2.70778C20.4446 3.08173 20.4595 3.45747 20.4408 3.83141C20.4221 4.23426 20.1805 4.4691 19.7684 4.50342C19.3956 4.53413 19.0772 4.24148 19.0622 3.82057C19.0379 3.08714 19.0379 2.35191 19.0604 1.61848C19.0735 1.19034 19.3788 0.917565 19.7571 0.921178C20.1374 0.924791 20.4183 1.19576 20.4446 1.62932C20.467 1.987 20.4483 2.3483 20.4483 2.70778C20.4464 2.70778 20.4464 2.70778 20.4446 2.70778Z" fill="#01A982" stroke="#01A982" stroke-width="0.5"/>
<path d="M2.4763 20.0571C2.10356 20.0571 1.72895 20.068 1.35621 20.0535C0.906676 20.0373 0.618225 19.7826 0.601367 19.4104C0.586383 19.069 0.85423 18.7402 1.26068 18.7258C2.0661 18.6951 2.87713 18.6951 3.68255 18.7312C4.09275 18.7492 4.35498 19.078 4.31377 19.4303C4.26694 19.8313 4.01221 20.0373 3.59451 20.0553C3.56267 20.0571 3.5327 20.0571 3.50086 20.0571C3.15809 20.0571 2.8172 20.0571 2.47443 20.0571C2.4763 20.0589 2.4763 20.0589 2.4763 20.0571Z" fill="#01A982" stroke="#01A982" stroke-width="0.5"/>
<path d="M37.0417 20.0537C36.654 20.0537 36.2644 20.0681 35.8767 20.0501C35.4646 20.0302 35.1817 19.7592 35.1874 19.4015C35.193 19.0168 35.4178 18.7512 35.8036 18.7349C36.624 18.7024 37.4482 18.7024 38.2704 18.7331C38.6619 18.7476 38.881 19.0186 38.896 19.3961C38.911 19.7502 38.6188 20.0266 38.2067 20.0483C37.819 20.0699 37.4294 20.0537 37.0417 20.0537Z" fill="#01A982" stroke="#01A982" stroke-width="0.5"/>
<path d="M6.63076 6.04443C6.89298 6.18715 7.10464 6.2576 7.25261 6.39128C7.77145 6.86457 8.2753 7.35413 8.77353 7.8491C9.10319 8.17788 9.12192 8.57531 8.84846 8.8517C8.57499 9.12628 8.14231 9.1299 7.80891 8.82099C7.27134 8.3224 6.72628 7.82743 6.23929 7.28368C6.08944 7.11567 6.02763 6.77425 6.08944 6.55567C6.14563 6.36418 6.42659 6.22689 6.63076 6.04443Z" fill="#01A982" stroke="#01A982" stroke-width="0.5"/>
<path d="M33.5878 6.76148C33.4361 7.00716 33.3556 7.20768 33.2132 7.3522C32.7318 7.84175 32.2355 8.31686 31.7335 8.78654C31.3757 9.12074 30.9449 9.14061 30.6602 8.86241C30.3718 8.5806 30.398 8.17595 30.752 7.8273C31.2634 7.32329 31.7635 6.80664 32.316 6.3496C32.4902 6.20689 32.848 6.15631 33.0709 6.22134C33.275 6.28096 33.4061 6.55915 33.5878 6.76148Z" fill="#01A982" stroke="#01A982" stroke-width="0.5"/>
<path d="M9.12003 30.3522C8.9833 30.5889 8.91587 30.7822 8.78475 30.9141C8.29214 31.4145 7.78642 31.9022 7.27132 32.3791C6.90046 32.7241 6.49213 32.7314 6.19993 32.4315C5.91898 32.1425 5.93583 31.7757 6.28048 31.4325C6.78807 30.9267 7.28818 30.4064 7.84261 29.953C8.02617 29.8031 8.39516 29.7489 8.63491 29.8121C8.82971 29.8627 8.9552 30.1553 9.12003 30.3522Z" fill="#01A982" stroke="#01A982" stroke-width="0.5"/>
<path d="M30.4111 30.2891C30.5441 30.1373 30.6621 29.888 30.855 29.8103C31.0479 29.7327 31.3963 29.7399 31.5368 29.8609C32.1718 30.4083 32.773 30.9972 33.3556 31.5988C33.5972 31.8499 33.5429 32.1696 33.305 32.4171C33.054 32.6772 32.7037 32.7621 32.4284 32.5182C31.7878 31.9528 31.1866 31.3458 30.5834 30.7425C30.4973 30.6576 30.4879 30.4986 30.4111 30.2891Z" fill="#01A982" stroke="#01A982" stroke-width="0.5"/>
<path d="M23.4976 19.4539C23.4546 21.441 21.7257 23.0596 19.6953 23.0127C17.6069 22.9639 15.9511 21.2983 16.0035 19.304C16.056 17.3114 17.7792 15.7253 19.8283 15.7813C21.9093 15.8355 23.5407 17.4686 23.4976 19.4539ZM17.4083 19.4033C17.4158 20.6462 18.4816 21.665 19.7646 21.656C21.0496 21.647 22.0985 20.6191 22.0928 19.3744C22.0872 18.1262 21.0346 17.1272 19.7347 17.1326C18.4385 17.1416 17.4008 18.1514 17.4083 19.4033Z" fill="#01A982" stroke="#01A982" stroke-width="0.5"/>
</svg>
