<?xml version="1.0" encoding="utf-8"?>
<!-- Generator: Adobe Illustrator 25.3.1, SVG Export Plug-In . SVG Version: 6.00 Build 0)  -->
<svg version="1.1" id="圖層_1" xmlns="http://www.w3.org/2000/svg" xmlns:xlink="http://www.w3.org/1999/xlink" x="0px" y="0px"
	 viewBox="0 0 400 400" style="enable-background:new 0 0 400 400;" xml:space="preserve">
<style type="text/css">
	.st0{fill:#00AB84;}
</style>
<g>
	<path class="st0" d="M271.1,8.3c5,1.3,10.3,2.1,15,4.1c25.5,10.4,39.3,29.6,41.6,57c0.1,1.1,0.2,2.2,0.3,3.4
		c2.6-0.2,5.1-0.7,7.5-0.5c10.2,0.8,17.7,8.5,17.8,18.7c0.2,17.2,0.3,34.4,0,51.6c-0.2,12.9-11.8,21.3-24.3,18.2
		c-0.7-0.2-1.4-0.4-2.2-0.6c-1.3,3.4-2.3,6.8-3.8,9.8c-9.3,19-24.6,28.9-45.7,29.8c-9.5,0.4-19,0.1-28.4,0.1c-1.2,0-2.4,0-3.9,0
		c0,4.3,0,8.2,0,12.8c5.2,0,10.6-0.4,15.8,0.1c5.5,0.5,11.2,1.2,16.3,3.2c4.4,1.7,8,5.3,12.2,8.3c10.9-6.1,22.9-7.1,35-1.7
		c22,9.7,29.4,37.5,15.3,57.1c-1.4,1.9-1.8,3.5-1.3,5.8c1.6,7.7,2.8,15.5,4.4,23.1c0.3,1.4,1.5,3.1,2.7,3.9
		c9.1,5.8,14.1,14,14.2,24.8c0.1,11.6,0.1,23.2,0,34.8c-0.1,11.5-8.2,19.4-19.7,19.5c-6.1,0.1-12.2,0.1-18.3,0
		c-10.7-0.1-18.9-7.8-19.2-18.4c-0.3-12.3-0.2-24.7,0-37c0.1-3.2,0.8-6.5,2.1-9.4c1.4-3.1,1.5-5.9,0.9-9c-1.2-6.1-2.6-12.2-3.3-18.4
		c-0.5-4-2.2-5.5-5.9-5.4c2,50.1-39.9,97.4-96,97.6c-55.6,0.1-98.5-47-96.3-97.6c-3.7-0.1-5.5,1.4-5.9,5.4c-0.4,4.7-1.6,9.3-2.5,14
		c-1.1,5.2-2,10.2,0.8,15.5c1.5,2.8,1.4,6.5,1.5,9.9c0.2,10.7,0.1,21.5,0,32.2c-0.1,12.9-7.9,20.7-20.8,20.7c-5.9,0-11.7,0.1-17.6,0
		c-10.6-0.2-18.7-8.1-18.9-18.7c-0.2-12.1-0.2-24.2,0-36.3c0.2-10.4,5.2-18.2,13.8-23.9c1.4-0.9,2.7-2.8,3.1-4.5
		c1.6-7.8,3-15.7,4.3-23.5c0.2-1.4-0.2-3.2-1-4.3c-16.7-23.5-4.3-55.1,23.9-60.5c7.4-1.4,14.7-1.5,26.9,4.8
		c8-9.8,18.9-12.6,31.1-11.9c4.1,0.2,8.2,0,12.5,0c0-4.3,0-8.2,0-12.8c-1.4,0-2.8,0-4.3,0c-11.5-0.2-23.1,0.7-34.4-0.8
		c-21.6-2.9-35.5-15.7-42.1-36.4c-0.2-0.7-0.5-1.4-0.6-2c-3.5,0.2-7,1-10.3,0.6c-9.6-1.3-16.4-8.7-16.6-18.3
		c-0.3-17.5-0.2-34.9,0-52.4C46.8,80,56.9,69.4,71.8,73c0.5-3.9,0.7-7.9,1.4-11.8c5.2-27.9,26-48,54-52.3c0.6-0.1,1.1-0.4,1.7-0.7
		C176.3,8.3,223.7,8.3,271.1,8.3z M200.4,225.5c-21,0-41.9,0-62.9,0c-12.5,0-20.5,8.1-20.6,20.6c0,16-0.1,31.9,0.1,47.9
		c0.1,5.7,0.5,11.5,1.5,17.1c7.2,43.2,51.3,74.3,94.4,66.7c41.8-7.4,70.2-41.1,70.2-83.4c0-15.8,0-31.7,0-47.5
		c0-13.6-7.8-21.4-21.3-21.4C241.3,225.5,220.9,225.5,200.4,225.5z M200,187.2c25,0,49.9,0,74.9,0c23.6,0,40.1-16.3,40.2-39.9
		c0.1-24.7,0.1-49.4,0-74.1c-0.2-30-22.5-52.1-52.5-52.1c-41.7,0-83.3,0-125,0c-30.2,0-52.5,22.2-52.6,52.5
		c-0.1,24.4-0.1,48.9,0,73.3c0.1,24,16.5,40.3,40.5,40.3C150.3,187.2,175.2,187.2,200,187.2z M53.1,354c0,6-0.1,12,0,17.9
		c0.1,4.5,2.4,6.9,7,7c6,0.1,12,0.1,17.9,0c4.3-0.1,6.8-2.4,6.8-6.7c0.1-11.8,0.2-23.7-0.1-35.5c-0.2-8.8-7.5-15.5-16.1-15.3
		c-8.6,0.1-15.4,7-15.6,15.8C53,342.8,53.1,348.4,53.1,354z M346.9,354.4C346.9,354.4,346.9,354.4,346.9,354.4
		c0-5.7,0.1-11.5,0-17.2c-0.2-8.9-7-15.7-15.6-15.9c-8.7-0.2-16,6.7-16.1,15.7c-0.2,11.6-0.1,23.2,0,34.7c0,4.8,2.4,7,7.2,7.1
		c5.7,0.1,11.5,0.1,17.2,0c5-0.1,7.3-2.4,7.4-7.3C347,365.8,346.9,360.1,346.9,354.4z M92.4,232c-11.2,0-20.3,5.9-24.4,15.4
		c-4.1,9.4-2.1,20.4,5,27.8c7.1,7.4,17.9,9.8,27.5,6.2c2.6-1,3.8-2.3,3.8-5.4c-0.2-11.1,0.1-22.2-0.1-33.3c0-2.5,2.9-5.4-0.5-7.4
		c-2.3-1.3-5-2.1-7.6-2.9C94.6,232,93.1,232.1,92.4,232z M296.2,260.1c-0.1,0-0.3,0-0.4,0c0,5.5,0.1,11-0.1,16.5
		c-0.1,2.4,0.8,3.6,2.9,4.4c9.1,3.6,17.7,2.6,25.4-3.3c7.9-6,11.1-14.3,9.7-24.1c-2.4-17-21.3-26.8-36.4-18.9
		c-1.1,0.5-2.3,2.1-2.3,3.1C295.3,245.2,295.8,252.6,296.2,260.1z M168.2,212.5c21.4,0,42.5,0,63.5,0c0-4.3,0-8.3,0-12.3
		c-21.3,0-42.3,0-63.5,0C168.2,204.4,168.2,208.3,168.2,212.5z M72.1,117.1c0-8.2,0-16.5,0-24.7c0-4.5-2.4-7.3-6.2-7.4
		c-3.9-0.1-6.5,2.8-6.6,7.5c-0.1,16.3-0.1,32.7,0,49c0,4.4,2.6,7.3,6.3,7.4c3.8,0.1,6.4-2.8,6.5-7.5
		C72.2,133.3,72.1,125.2,72.1,117.1z M327.9,116.7c0,8.2,0,16.5,0,24.7c0,4.5,2.4,7.3,6.1,7.5c3.8,0.1,6.6-2.8,6.6-7.4
		c0.1-16.3,0.1-32.7,0-49c0-4.7-2.7-7.5-6.6-7.4c-3.7,0.1-6.1,2.9-6.2,7.4C327.8,100.5,327.9,108.6,327.9,116.7z M70.4,308.2
		c4.2,1.2,8.1,2.2,12.4,3.4c1-5.4,1.9-10.8,2.8-15.9c-4.3-1.4-8.1-2.7-12.2-4C72.5,297.2,71.4,302.7,70.4,308.2z M314.3,295.7
		c1,5.3,2,10.6,2.9,15.9c4.3-1.2,8.2-2.3,12.4-3.5c-1-5.5-2.1-11-3.1-16.5C322.4,293.1,318.7,294.3,314.3,295.7z"/>
	<path class="st0" d="M199.9,334.1c-8.4,0-16.7,0.1-25.1,0c-11.2-0.1-19.4-8-19.5-19.3c-0.2-16.8-0.2-33.7,0-50.5
		c0.1-11.5,8.3-19.4,19.8-19.4c16.7-0.1,33.4-0.1,50.2,0c11.3,0.1,19.4,8,19.5,19.3c0.2,16.8,0.2,33.7,0,50.5
		c-0.1,11.5-8.3,19.4-19.8,19.5C216.6,334.1,208.3,334.1,199.9,334.1z M199.8,321.3c8.2,0,16.5,0,24.7,0c5,0,7.4-2.3,7.5-7.3
		c0.1-16.5,0.1-32.9,0-49.4c0-4.8-2.5-7.1-7.3-7.1c-16.5,0-32.9,0-49.4,0c-4.8,0-7.2,2.3-7.3,7.1c-0.1,16.5-0.1,32.9,0,49.4
		c0,5,2.4,7.3,7.5,7.3C183.6,321.4,191.7,321.3,199.8,321.3z"/>
	<path class="st0" d="M199.8,174.5c-24.7,0-49.4,0-74.1,0c-17.4,0-27.9-10.5-28-28c0-19.7,0-39.4,0-59.1c0-17.5,10.5-28,27.9-28
		c49.5,0,99.1,0,148.6,0c17.4,0,27.9,10.5,28,28c0,19.7,0,39.4,0,59.1c0,17.5-10.6,28-27.9,28C249.5,174.5,224.7,174.5,199.8,174.5z
		 M199.9,161.7c24.8,0,49.7,0,74.5,0c10.3,0,15.1-4.8,15.1-15.2c0-19.8,0-39.7,0-59.5c0-10-4.9-14.9-15-14.9c-49.7,0-99.3,0-149,0
		c-10,0-14.9,4.9-14.9,15c0,19.8,0,39.7,0,59.5c0,10.3,4.8,15.1,15.2,15.1C150.5,161.7,175.2,161.7,199.9,161.7z"/>
	<path class="st0" d="M199.9,46.6c-2.1,0-4.2,0.1-6.4,0c-3.7-0.2-6.2-2.7-6.3-6.1c-0.1-3.4,2.3-6.3,5.9-6.5c4.6-0.2,9.2-0.3,13.8,0
		c3.5,0.2,5.9,3.3,5.7,6.7c-0.2,3.3-2.6,5.7-6.1,5.9C204.4,46.7,202.1,46.6,199.9,46.6z"/>
	<path class="st0" d="M200,110.6c6.1,0,12.2-0.1,18.3,0c10.9,0.2,16.3,8.8,11.9,18.8c-5.3,12-17.6,19.8-31,19.5
		c-13.3-0.3-25.1-8.4-29.9-20.5c-3.5-8.9,1.7-17.1,11.3-17.8c0.4,0,0.7,0,1.1,0C187.8,110.6,193.9,110.6,200,110.6z M218.7,123.4
		c-12.1,0-23.7,0-35.4,0c-0.6,0-1.1,0.2-1.8,0.3c2.3,7.2,9.6,12.3,17.8,12.5C207.8,136.4,215.6,131.5,218.7,123.4z"/>
	<path class="st0" d="M123.4,104.3c-0.1-10.7,8.3-19.3,19.1-19.4c10.3-0.1,19.1,8.6,19.2,19c0.1,10.6-8.6,19.3-19.2,19.3
		C132,123.3,123.5,114.9,123.4,104.3z M148.9,104.4c0.2-3.4-2.7-6.5-6.2-6.6c-3.4-0.1-6.3,2.5-6.5,5.9c-0.2,3.6,2.3,6.6,5.9,6.8
		C145.6,110.6,148.7,107.9,148.9,104.4z"/>
	<path class="st0" d="M276.6,104c0,10.7-8.5,19.3-19.1,19.3c-10.4,0-19.1-8.6-19.1-19c-0.1-10.5,8.5-19.2,19.2-19.3
		C267.9,84.9,276.6,93.5,276.6,104z M263.8,104.3c0.1-3.6-2.7-6.5-6.2-6.5c-3.5,0-6.5,2.9-6.4,6.4c0,3.3,2.8,6.2,6.2,6.3
		C260.8,110.6,263.7,107.9,263.8,104.3z"/>
</g>
</svg>
