<svg width="69" height="78" viewBox="0 0 69 78" fill="none" xmlns="http://www.w3.org/2000/svg">
<path d="M30.2696 27.8249V19.1282C32.1455 19.5006 33.5524 21.0662 33.7421 23.0455C33.8455 24.118 34.4593 24.7835 35.3421 24.7835C35.3731 24.7835 35.4007 24.7835 35.4318 24.7801C36.3869 24.7318 36.9732 23.9869 36.9214 22.88C36.8145 20.5213 35.7007 18.5834 33.7041 17.273C32.9558 16.7833 32.1386 16.4351 31.2696 16.0661C30.9351 15.9247 30.5903 15.7764 30.242 15.6178C30.242 15.5212 30.242 15.4212 30.242 15.3178C30.2454 14.8419 30.2489 14.3005 30.2385 13.7522C30.2179 12.735 29.5661 12.0212 28.6558 12.0212H28.642C27.7316 12.0315 27.0833 12.7522 27.0626 13.7764C27.0523 14.3109 27.0557 14.8488 27.0557 15.3661C27.0557 15.5075 27.0557 15.6488 27.0592 15.7902C22.4349 16.8213 20.5797 20.0765 20.397 22.5835C20.2694 24.3421 20.5797 25.8008 21.3453 27.0456C22.6763 29.2043 24.8695 29.8422 27.0281 30.4078V39.1045C25.1522 38.7252 23.7212 37.132 23.5625 35.1872C23.4763 34.132 22.8487 33.4526 21.966 33.4526C21.9349 33.4526 21.9004 33.4526 21.8694 33.4561C20.9246 33.5078 20.3383 34.2561 20.3832 35.3596C20.4521 37.132 21.1659 38.7217 22.5108 40.0838C23.6763 41.2666 25.166 42.039 27.0592 42.439C27.0592 42.577 27.0592 42.7149 27.0592 42.8528C27.0592 43.3528 27.0557 43.8425 27.0626 44.3356C27.073 45.4632 27.7144 46.2184 28.6523 46.2184H28.6902C29.6247 46.1977 30.2385 45.4736 30.2489 44.3701C30.2523 43.8598 30.2523 43.3494 30.2523 42.8494C30.2523 42.7149 30.2523 42.5804 30.2523 42.4459C34.2662 41.3425 36.6904 38.9045 36.9145 35.7251C37.0456 33.8768 36.7456 32.4319 35.9697 31.1836C34.6179 29.0146 32.4248 28.3836 30.2696 27.8249ZM27.0316 27.056C25.0177 26.7973 23.6729 25.5111 23.5694 23.7007C23.4453 21.4627 24.7902 19.7041 27.0316 19.1248V27.056ZM30.2696 39.1079V31.1698C32.6731 31.5905 33.78 32.8388 33.7455 35.0768C33.7179 36.9803 32.1903 38.7183 30.2696 39.1079Z" fill="white"/>
<path d="M68.891 58.9704C68.6772 58.4601 68.1738 58.1256 67.6186 58.1256H61.053V33.1768C61.053 32.4147 60.4357 31.7975 59.6736 31.7975H57.1701C57.2529 30.9078 57.2977 30.0112 57.2977 29.1181C57.3012 13.3212 44.4492 0.469238 28.6489 0.469238C12.852 0.469238 0 13.3212 0 29.1181C0 44.915 12.852 57.7669 28.6489 57.7669C33.1627 57.7669 37.587 56.7049 41.5767 54.6841V58.1221H35.011C34.4559 58.1221 33.9559 58.4532 33.7386 58.967C33.5248 59.4773 33.6352 60.0704 34.0248 60.467L50.3286 77.1501C50.5872 77.4156 50.9424 77.5639 51.3148 77.5639C51.6872 77.5639 52.0424 77.4156 52.301 77.1501L68.6048 60.467C68.9945 60.0704 69.1083 59.4808 68.891 58.9704ZM28.6489 55.0117C14.3727 55.0117 2.75868 43.3942 2.75868 29.1181C2.75868 14.8419 14.3727 3.22791 28.6489 3.22791C42.925 3.22791 54.539 14.8419 54.539 29.1181C54.539 30.0112 54.4907 30.9078 54.3976 31.7975H51.5597C51.6631 30.9078 51.7217 30.0147 51.7217 29.1181C51.7217 16.3937 41.3698 6.04521 28.6454 6.04521C15.921 6.04521 5.57597 16.3971 5.57597 29.1181C5.57597 41.839 15.9279 52.1944 28.6489 52.1944C33.28 52.1944 37.7801 50.7978 41.5767 48.2288V51.5565C37.6594 53.8186 33.2076 55.0117 28.6489 55.0117ZM42.956 31.7975C42.194 31.7975 41.5767 32.4147 41.5767 33.1768V44.6391C37.9525 47.6598 33.38 49.3219 28.6489 49.3219C17.5072 49.3219 8.445 40.2597 8.445 29.1181C8.445 17.9765 17.5072 8.91424 28.6489 8.91424C39.7905 8.91424 48.8527 17.9765 48.8527 29.1181C48.8527 30.0147 48.7872 30.9112 48.6699 31.7975H42.956ZM51.3148 74.2121L38.287 60.8842H42.956C43.7181 60.8842 44.3354 60.267 44.3354 59.5049V34.5561H58.2943V59.5015C58.2943 60.2635 58.9115 60.8808 59.6736 60.8808H64.3427L51.3148 74.2121Z" fill="white"/>
</svg>
