<svg width="63" height="73" viewBox="0 0 63 73" fill="none" xmlns="http://www.w3.org/2000/svg">
<path d="M30.2888 73.0006C25.3802 71.4686 20.7991 69.2712 16.5956 66.3042C9.33988 61.1855 4.64293 54.2734 2.19004 45.7965C0.848465 41.1647 0.187687 36.4158 0.0546738 31.6141C-0.0711885 27.1065 0.0689763 22.5932 0.00318466 18.0842C-0.0611768 13.6994 3.11828 10.1027 7.87816 9.86284C12.3148 9.6401 16.5655 8.60351 20.5388 6.56317C22.6827 5.46232 24.6479 4.09877 26.4657 2.5139C27.2853 1.79999 28.1005 1.02897 29.0474 0.524957C30.6221 -0.313168 32.254 -0.126125 33.6871 0.931883C34.7927 1.74859 35.7724 2.73235 36.8508 3.58761C41.8825 7.57691 47.6979 9.45877 54.041 9.86426C56.6727 10.0327 58.8867 10.958 60.48 13.1254C61.3883 14.3604 61.916 15.7526 61.9646 17.2832C62.1406 22.8373 62.2721 28.3958 61.8302 33.9429C61.2781 40.8777 59.9151 47.6056 56.5483 53.8023C53.5605 59.3036 49.3956 63.7113 44.1766 67.1452C40.6667 69.4539 36.8909 71.2258 32.9348 72.6265C32.5357 72.7679 32.1238 72.875 31.7162 72.9978C31.2399 73.0006 30.7651 73.0006 30.2888 73.0006ZM4.30825 25.7715C4.18525 31.5498 4.49418 37.2954 5.87438 42.9409C7.45481 49.4075 10.4254 55.0816 15.2883 59.7063C19.6749 63.8783 24.8982 66.6169 30.5634 68.5944C30.8666 68.7 31.2771 68.6644 31.5889 68.5544C34.9128 67.3836 38.1037 65.9272 41.0915 64.0454C46.5951 60.5801 50.8459 55.9997 53.6205 50.09C56.0677 44.8785 57.1018 39.3314 57.5595 33.6487C57.99 28.313 57.8269 22.9716 57.6896 17.6301C57.6438 15.8354 56.4811 14.5218 54.7104 14.2648C52.4549 13.9364 50.1679 13.7765 47.9381 13.3281C41.831 12.1016 36.5033 9.31313 31.9579 5.0454C31.0197 4.16444 30.9882 4.16444 30.0328 5.05968C25.486 9.32741 20.1555 12.1088 14.0483 13.3353C11.8643 13.7736 9.6245 13.9235 7.41619 14.2462C5.46818 14.5303 4.33399 15.8268 4.3154 17.7957C4.28823 20.4543 4.30825 23.1129 4.30825 25.7715Z" fill="white"/>
<path d="M31.007 54.7033C21.0096 54.7147 12.8542 46.5862 12.7885 36.5429C12.7241 26.5954 21.0854 18.2527 31.0328 18.3369C41.1046 18.4226 49.2571 26.5811 49.2156 36.5344C49.1755 46.5519 41.0188 54.6904 31.007 54.7033ZM30.9841 22.6204C23.2922 22.6618 17.0063 28.9613 17.0792 36.5572C17.1522 44.2631 23.4653 50.5241 31.0557 50.4213C38.7747 50.3156 44.9177 44.1575 44.9191 36.5215C44.9191 28.8685 38.6146 22.579 30.9841 22.6204Z" fill="white"/>
<path d="M27.7989 39.4228C28.3252 38.8517 28.7429 38.3663 29.1948 37.9136C31.4747 35.6263 33.7588 33.3432 36.0515 31.0687C37.0855 30.0421 38.3685 29.9822 39.2695 30.8874C40.1534 31.7769 40.0776 33.0891 39.0622 34.1042C35.8898 37.2797 32.7147 40.4509 29.5352 43.6177C28.3538 44.7957 27.2011 44.7871 26.0082 43.6049C24.8783 42.4855 23.7499 41.3632 22.6314 40.2324C21.6302 39.2201 21.573 37.8851 22.4726 37.0127C23.3794 36.1332 24.6309 36.196 25.6421 37.1983C26.3315 37.8822 26.9951 38.5919 27.7989 39.4228Z" fill="white"/>
</svg>
