<svg width="67" height="67" viewBox="0 0 67 67" fill="none" xmlns="http://www.w3.org/2000/svg">
<path d="M65.3068 23.0669C64.8556 21.7233 64.2916 20.3996 63.7508 19.119C63.5916 18.7408 63.429 18.3626 63.2698 17.9811C63.439 18.0375 63.6181 18.0906 63.794 18.1436C64.7229 18.4124 65.5788 18.0043 65.8774 17.1484C66.1793 16.2858 65.7314 15.3934 64.8324 15.0715C63.1105 14.4578 61.5048 13.9104 59.929 13.4028C59.0166 13.1075 58.1872 13.5322 57.8654 14.4578C57.3346 15.9773 56.7905 17.5863 56.2465 19.2384C56.1834 19.4275 56.0872 19.8024 56.1569 20.1607C56.3029 20.9205 56.8469 21.4115 57.6133 21.4745C58.3797 21.5375 58.9802 21.1494 59.2621 20.4129C59.4612 19.8887 59.6437 19.3579 59.8361 18.8005C59.8494 18.7673 59.8593 18.7342 59.8726 18.6977C61.9494 22.3868 63.2001 26.358 63.5916 30.505C64.1987 36.9776 62.8418 43.1383 59.5508 48.818C56.3626 54.3252 51.2966 58.7608 45.2852 61.3121C39.2737 63.8633 32.5622 64.424 26.3849 62.8912C22.6493 61.9656 19.1625 60.3798 16.0207 58.1769C15.1283 57.5532 14.1894 57.666 13.6221 58.4689C13.3667 58.8305 13.2671 59.2386 13.3368 59.6433C13.4164 60.1011 13.6951 60.5092 14.1496 60.831C18.2734 63.7405 22.8185 65.6349 27.6588 66.4643C28.538 66.6136 29.4337 66.7264 30.2996 66.8325C30.7044 66.8823 31.1058 66.932 31.5105 66.9851L35.6078 66.9884L35.8068 66.942C35.9097 66.9155 36.0125 66.8922 36.1187 66.8756C36.6661 66.7894 37.2135 66.7164 37.7642 66.6434C38.9121 66.4908 40.0965 66.3316 41.2477 66.0662C50.2881 63.986 58.1109 58.0708 62.7158 49.8365C67.3172 41.6056 68.2628 31.8519 65.3068 23.0669Z" fill="white"/>
<path d="M9.72384 45.5834C8.81482 45.2947 8.0186 45.7625 7.64703 46.8042C7.48115 47.2654 7.32191 47.7265 7.14608 48.2275L7.12285 48.2905C7.04655 48.1611 6.9802 48.0384 6.91385 47.9156C3.21142 40.9587 2.29909 33.5903 4.19674 26.0163C6.50247 16.8232 12.8822 9.41174 21.7036 5.68278C30.5516 1.94054 40.3518 2.53439 48.5927 7.30508C49.1832 7.64679 49.7671 8.03163 50.3311 8.39988C50.5467 8.54253 50.7624 8.68519 50.9813 8.82453C51.9069 9.42169 52.8259 9.30558 53.3766 8.52263C53.9406 7.71646 53.7117 6.77758 52.7927 6.12401C52.7363 6.0842 52.6832 6.04439 52.6268 6.0079C44.0376 0.241937 34.6621 -1.38368 24.7591 1.17418C12.4244 4.36238 2.69056 14.9521 0.534131 27.5291C0.38484 28.4049 0.272042 29.2973 0.159244 30.1599C0.106163 30.5647 0.0563989 30.9694 0 31.3742L0 35.5643L0.00663517 35.6306C0.0199055 35.6936 0.0364934 35.7567 0.0497638 35.8197C0.079622 35.9392 0.106163 36.0519 0.112798 36.1548C0.404745 39.9003 1.31708 43.5265 2.82326 46.9369C3.09862 47.5606 3.39389 48.1678 3.70574 48.8114C3.74224 48.8844 3.77541 48.9574 3.8119 49.0337C3.61285 48.9673 3.42043 48.9043 3.23133 48.8479C2.25927 48.5592 1.38012 48.9839 1.09812 49.8763C0.822761 50.7422 1.28391 51.6048 2.19624 51.9233C4.02755 52.5669 5.547 53.0844 6.97356 53.5555C7.19916 53.6285 7.41812 53.665 7.62381 53.665C8.3205 53.665 8.87454 53.247 9.13995 52.4873C9.65417 51.0109 10.1883 49.445 10.7291 47.8327C10.9115 47.2853 10.8983 46.7777 10.6859 46.363C10.5002 45.9948 10.1684 45.7227 9.72384 45.5834Z" fill="white"/>
<path d="M13.6418 44.5815C12.7925 45.444 12.7826 46.3431 13.6219 47.1858C15.6788 49.2526 17.739 51.3128 19.8059 53.3664C20.6452 54.2025 21.5476 54.1958 22.4102 53.3532C22.9111 52.8622 23.4088 52.3645 23.9031 51.8669L24.5202 51.2465C25.0808 50.6858 25.3894 50.3773 25.6515 50.3209C25.9102 50.2645 26.2984 50.4171 27.0084 50.6958L27.0482 50.7124C27.2804 50.8052 27.3202 50.8583 27.3169 51.1072C27.2937 52.693 27.3036 54.2622 27.3136 55.4532C27.3235 56.5978 27.9506 57.2314 29.0752 57.238C30.5582 57.2447 32.0212 57.248 33.4611 57.248C34.9905 57.248 36.49 57.2447 37.9498 57.2347C39.0346 57.2281 39.6683 56.5944 39.6849 55.493C39.6882 55.2276 39.6981 54.9589 39.7081 54.6935C39.7346 53.9205 39.7612 53.1242 39.6616 52.3413C39.5057 51.1138 39.8806 50.5299 41.0019 50.2579C41.3503 50.1749 41.4432 50.1948 41.629 50.3839C42.6375 51.429 43.656 52.4375 44.6082 53.3697C45.4608 54.2058 46.3598 54.1991 47.2125 53.3498C49.2627 51.3095 51.3097 49.2626 53.35 47.2123C54.2159 46.3431 54.2126 45.4507 53.34 44.5616C53.1476 44.3625 52.9552 44.1634 52.7628 43.9611C52.2121 43.3805 51.6414 42.7833 51.0111 42.2625C50.1518 41.5558 50.039 41.0416 50.5831 40.2951C50.6627 40.1857 50.7191 40.0463 50.7556 39.8639C50.7822 39.7312 50.7888 39.6748 51.0808 39.6781C52.3713 39.6947 53.7514 39.6947 55.4268 39.6814C56.6112 39.6714 57.2415 39.051 57.2448 37.8833C57.2581 34.851 57.2581 31.8884 57.2448 29.0751C57.2382 27.9504 56.6079 27.3201 55.4666 27.3035C55.2078 27.3002 54.9457 27.2902 54.687 27.2803C53.9306 27.2537 53.1443 27.2272 52.3779 27.3267C51.0974 27.4926 50.5035 27.1111 50.2547 25.9632C50.1784 25.6181 50.185 25.5684 50.3277 25.429C51.4457 24.3475 52.5339 23.2461 53.3599 22.4067C54.2092 21.5441 54.2159 20.6418 53.3765 19.8024C51.3594 17.7754 49.2793 15.6952 47.1926 13.6184C46.3532 12.7824 45.4541 12.789 44.5882 13.6383C44.3958 13.8274 44.1968 14.0132 44.001 14.1957C43.4735 14.6933 42.9261 15.2042 42.4683 15.7915C41.6787 16.8066 40.9853 16.9526 40 16.3123C39.7081 16.1232 39.6782 16.0834 39.6815 15.8844C39.6981 14.7066 39.6948 13.509 39.6915 12.3544L39.6882 11.7341C39.6849 10.3506 39.0976 9.75677 37.7242 9.75014C36.7223 9.74682 35.717 9.74682 34.7151 9.74682H33.5141C33.0596 9.74682 32.6184 9.74682 32.1705 9.7435C31.1487 9.74018 30.1269 9.74018 29.1051 9.75014C27.9406 9.76341 27.3202 10.3904 27.3069 11.5649C27.3036 11.8435 27.297 12.1222 27.2904 12.4009C27.2705 13.1772 27.2472 13.9834 27.3302 14.773C27.4562 15.9806 27.1543 16.4649 26.1856 16.6242C26.0629 16.6441 25.9633 16.7038 25.8804 16.7569C25.7311 16.8564 25.6482 16.8929 25.4093 16.6441C24.4372 15.6388 23.4453 14.6568 22.4334 13.6582C21.5443 12.7791 20.6519 12.7725 19.7793 13.6383C17.7291 15.6787 15.6821 17.7256 13.6418 19.7726C12.7759 20.6418 12.7792 21.5342 13.6584 22.4233C13.8608 22.629 14.0631 22.8413 14.2622 23.0503C14.7897 23.6044 15.3338 24.1783 15.9409 24.6759C16.8366 25.4091 16.9594 25.9366 16.412 26.6897C16.3324 26.7992 16.276 26.9419 16.2395 27.121C16.2129 27.2537 16.203 27.3068 15.9144 27.3002C14.5376 27.2836 13.1176 27.2836 11.5683 27.2968C10.3839 27.3068 9.75692 27.9305 9.75361 29.0983C9.74033 32.2002 9.74033 35.0832 9.75361 37.9065C9.76024 39.0311 10.3906 39.6582 11.5318 39.6747C11.7972 39.6781 12.0626 39.688 12.3281 39.698C13.0811 39.7245 13.8575 39.7511 14.6205 39.6515C15.8978 39.4856 16.4949 39.8672 16.7438 41.0184C16.8201 41.3667 16.8134 41.4165 16.6741 41.5525C15.6357 42.5644 14.6039 43.6028 13.6418 44.5815ZM19.0694 28.9026C19.4011 27.967 19.8158 27.0646 20.141 26.3779C20.6585 25.2897 20.5723 24.739 19.7628 23.9262C19.0561 23.2162 18.3462 22.5096 17.6428 21.8062L16.9959 21.1626L21.1794 17.009L23.8102 19.6399C24.7823 20.6119 25.2401 20.6849 26.5207 20.0711C27.2671 19.7128 28.0965 19.3744 29.0553 19.0327C30.2198 18.618 30.5582 18.1602 30.5615 16.9825C30.5648 16.0071 30.5648 15.0284 30.5615 14.0298V13.0412H36.4369V16.7469C36.4369 18.2166 36.6858 18.565 38.0957 19.0659C38.9948 19.3877 39.8806 19.7991 40.7398 20.1939C41.692 20.6351 42.2759 20.5456 42.9792 19.8455C43.7157 19.1157 44.4423 18.3759 45.1655 17.646L45.8257 16.9792L49.9926 21.1925L49.3589 21.8228C48.6921 22.483 48.002 23.1664 47.3153 23.8499C46.3432 24.8186 46.3565 25.2997 46.9006 26.4509C47.2788 27.2504 47.6272 28.0997 47.9655 29.0485C48.3935 30.2429 48.8281 30.5514 50.0788 30.5514C51.0343 30.5514 51.9931 30.5514 52.9651 30.5514H53.9405V36.4302H50.3841C48.722 36.4302 48.44 36.6292 47.8859 38.2051C47.6305 38.9349 47.3153 39.6814 46.9205 40.4909C46.3001 41.7715 46.3698 42.2028 47.3684 43.198C48.0186 43.8483 48.6689 44.4952 49.3059 45.1255L49.9727 45.7891L45.7958 49.9593L45.2285 49.3886C44.5518 48.7119 43.8517 48.0052 43.1484 47.3052C42.1797 46.3365 41.6986 46.3464 40.5474 46.8905C39.6052 47.3317 38.6199 47.7133 37.764 48.0317C36.7919 48.3967 36.4469 48.8777 36.4403 49.8664C36.4336 50.8816 36.4336 51.8967 36.4369 52.9351V53.9271H30.5615V50.2413C30.5615 48.7583 30.3027 48.4066 28.843 47.8957C28.1264 47.6436 27.3633 47.3218 26.4377 46.8805C25.25 46.3132 24.7756 46.3862 23.8832 47.2753C23.1998 47.9554 22.5197 48.6389 21.8528 49.309L21.1893 49.9759L17.0291 45.799L19.6466 43.1814C20.6187 42.2094 20.6884 41.7516 20.0713 40.4677C19.6831 39.6615 19.3447 38.852 19.0661 38.0591C18.585 36.6889 18.2234 36.4268 16.7902 36.4268H13.9736H13.0579V30.5547H16.8134C18.2864 30.5547 18.6016 30.223 19.0694 28.9026Z" fill="white"/>
<path d="M33.4745 46.2933C33.4845 46.2933 33.4911 46.2933 33.5011 46.2933C36.9149 46.2933 40.1263 44.9696 42.5382 42.5677C44.9567 40.1591 46.2937 36.9444 46.297 33.5206C46.3103 26.4641 40.5775 20.7148 33.521 20.6982C33.511 20.6982 33.5011 20.6982 33.4944 20.6982C30.0806 20.6982 26.8725 22.0219 24.4607 24.4238C22.0421 26.8357 20.7051 30.0471 20.6985 33.4709C20.6852 40.5274 26.4147 46.2768 33.4745 46.2933ZM23.9531 33.5206C23.9365 28.259 28.2062 23.966 33.4712 23.9494C33.4812 23.9494 33.4911 23.9494 33.5011 23.9494C36.049 23.9494 38.4376 24.9314 40.2358 26.7196C42.0405 28.5144 43.0391 30.9097 43.0458 33.4676C43.0623 38.7293 38.7926 43.0255 33.5276 43.0388C33.5177 43.0388 33.5077 43.0388 33.4978 43.0388C30.9498 43.0388 28.5612 42.0568 26.7631 40.2686C24.9583 38.4738 23.9597 36.0785 23.9531 33.5206Z" fill="white"/>
<path d="M33.7299 35.1197C34.3934 35.123 35.0569 35.123 35.7238 35.123C36.4172 35.123 37.1139 35.123 37.8072 35.1197C38.9319 35.1164 39.6618 34.4827 39.6651 33.5041C39.6717 32.5187 38.9485 31.8751 37.8238 31.8685C37.1371 31.8652 36.4537 31.8652 35.757 31.8652H35.1366L35.1333 30.7073C35.1299 29.7485 35.1299 28.7864 35.1233 27.8277C35.1167 26.7461 34.483 26.0395 33.5143 26.0295C33.0697 26.0262 32.6683 26.1755 32.3763 26.4641C32.0512 26.7859 31.8754 27.2471 31.8754 27.7978C31.8654 29.5594 31.8654 31.3576 31.8754 33.295C31.8787 34.4827 32.519 35.1131 33.7299 35.1197Z" fill="white"/>
</svg>
