<svg width="67" height="67" viewBox="0 0 67 67" fill="none" xmlns="http://www.w3.org/2000/svg">
<path d="M33.3714 0C32.2913 0 31.1936 0.0413526 30.0722 0.124058C23.211 0.638011 17.008 3.3023 11.6401 8.04603C3.01129 15.6756 -0.854547 25.3757 0.157654 36.8806C0.780319 43.943 3.54543 50.264 8.3792 55.6635C14.7534 62.785 22.8392 66.5865 32.4182 66.9705C36.6972 67.1447 40.7991 66.5008 44.603 65.0623C46.5153 64.3416 48.3862 63.3846 50.1981 62.4601L50.747 62.1795C51.65 61.7216 52.0543 60.7824 51.8064 59.7308C51.6146 58.9215 50.9152 58.1003 49.9473 58.1003C49.3896 58.1003 48.7226 58.2894 48.1649 58.6025C42.0681 62.0436 35.5965 63.2487 28.9301 62.1795C21.0952 60.9241 14.715 56.9927 9.9639 50.4974C5.28358 44.0966 3.53953 36.8304 4.776 28.9025C5.99182 21.1193 9.89603 14.7481 16.3824 9.97187C22.7654 5.2695 30.022 3.50315 37.9455 4.7201C45.7687 5.92228 52.1458 9.81532 56.897 16.2929C62.1026 23.3908 63.7286 31.4575 61.7307 40.2744C61.0461 43.2961 59.7152 46.3533 57.6583 49.6142C57.3101 50.1695 57.195 50.7987 57.3337 51.3924C57.4665 51.9536 57.8177 52.4321 58.3223 52.7363C59.3994 53.3862 60.6772 53.0376 61.4268 51.8886C65.0654 46.3119 66.836 40.3217 66.9983 33.0348C67.0278 27.3961 65.4933 21.716 62.6692 17.0373C55.8434 5.72142 45.9988 0 33.3714 0Z" fill="white"/>
<path d="M42.912 28.4949C43.8977 29.4962 44.9187 30.53 45.9398 31.5254C46.8516 32.4145 48.1619 32.45 49.0502 31.6082C49.962 30.7457 49.9827 29.449 49.1062 28.4506C48.8996 28.2172 48.6783 27.9987 48.4452 27.7683L48.1973 27.5231C47.2825 26.6015 46.3677 25.677 45.4529 24.7554C43.3104 22.5933 41.0972 20.3573 38.9045 18.1715C36.0037 15.2828 31.828 15.0258 28.7471 17.5483C28.1304 18.0534 27.552 18.6471 26.9942 19.2231C26.7994 19.4239 26.6017 19.6277 26.404 19.8256C24.9108 21.3232 23.4205 22.8266 21.9303 24.3271C20.6525 25.615 19.3747 26.8999 18.0969 28.1847C17.3385 28.9468 17.0788 29.635 17.2558 30.4148C17.4565 31.3039 17.9582 31.8563 18.7874 32.1014C19.6668 32.3614 20.4223 32.1369 21.1571 31.3955L21.6116 30.9376C23.7599 28.7725 25.9082 26.6104 28.0536 24.4394C28.5671 23.9195 29.0776 23.3819 29.5734 22.8591C29.8036 22.6169 30.0338 22.3747 30.2669 22.1325C30.3525 22.0439 30.4676 21.9966 30.5856 21.9966C30.6535 21.9966 30.7243 22.0114 30.7863 22.0439L31.0106 22.1591C31.1581 22.2359 31.2525 22.3865 31.2525 22.5519V27.6944C31.2525 34.8602 31.2525 42.0231 31.2555 49.1889V49.2568C31.2555 49.5995 31.2555 49.9214 31.2998 50.2316C31.3883 50.8784 31.7365 51.4249 32.2765 51.7705C32.8166 52.1161 33.4865 52.2017 34.115 52.0097C35.1863 51.6819 35.682 50.8696 35.685 49.4518C35.6879 43.1278 35.6879 36.8038 35.685 30.4798V22.3422C35.685 22.168 35.7883 22.0084 35.9506 21.9376C36.1099 21.8667 36.2988 21.8962 36.4286 22.0144C36.5408 22.1177 36.6382 22.2034 36.7208 22.2772C36.8831 22.4249 37.0041 22.5313 37.1192 22.6465C38.2199 23.7541 39.3206 24.8618 40.4184 25.9694L41.6342 27.1952C42.0592 27.6324 42.4841 28.0636 42.912 28.4949Z" fill="white"/>
</svg>
