<svg width="63" height="63" viewBox="0 0 63 63" fill="none" xmlns="http://www.w3.org/2000/svg">
<g clip-path="url(#clip0_327_91924)">
<path d="M47.1899 15.8489C43.0089 11.648 37.4778 9.33148 31.6244 9.33148H31.6204C25.6528 9.33148 20.0524 11.6317 15.851 15.804C11.6496 19.9803 9.33276 25.5515 9.33276 31.4857C9.33276 43.7129 19.208 53.6644 31.343 53.6684C31.3471 53.6684 31.3512 53.6684 31.3552 53.6684C37.335 53.6684 42.9396 51.3682 47.145 47.1918C51.3545 43.0114 53.6714 37.428 53.6755 31.4735C53.6755 25.6005 51.3708 20.0497 47.1899 15.8489ZM19.8158 22.5824L18.8164 30.0052H12.2329C12.2737 29.7564 12.3145 29.5076 12.3512 29.2588C12.4981 28.333 12.6367 27.4602 12.8774 26.6078C13.1793 25.5474 13.6157 24.4952 14.0399 23.4756C14.1419 23.2268 14.2439 22.9821 14.3418 22.7415C14.3703 22.6925 14.4845 22.6069 14.5212 22.5987C16.0345 22.5742 17.5642 22.5783 19.0408 22.5783L19.8158 22.5824ZM18.8205 32.9743L19.8158 40.4216H17.6417C16.6464 40.4257 15.6144 40.4257 14.6028 40.4053C14.5376 40.4053 14.3948 40.3319 14.3662 40.2952C13.1793 38.0398 12.494 35.6376 12.2819 32.9743H18.8205ZM23.9274 19.6785C24.0661 19.34 24.1966 19.0138 24.3434 18.6956C25.351 16.4933 26.3952 14.9965 27.7249 13.8341C30.205 11.6644 32.8155 11.6644 35.2751 13.8341C37.1556 15.494 38.265 17.676 39.0808 19.6785H23.9274ZM23.2421 22.5824H26.6807C31.0371 22.5824 35.3934 22.5824 39.7539 22.5702C40.0557 22.5661 40.0761 22.5946 40.1414 22.8557C40.7288 25.2293 41.0673 27.5744 41.1734 30.0052H21.8267C21.9532 27.3053 22.3162 24.903 22.9403 22.6844C22.977 22.6558 23.0504 22.615 23.0953 22.5906L23.1198 22.5742C23.1646 22.5783 23.2054 22.5824 23.2421 22.5824ZM41.1734 32.9621C41.1693 33.0518 41.1652 33.1415 41.1652 33.2272C41.1489 33.7248 41.1326 34.1979 41.0592 34.6587C40.8756 35.8129 40.6676 36.9835 40.4677 38.1132C40.3372 38.8473 40.2066 39.5814 40.0802 40.3156C40.072 40.3727 40.0598 40.4053 40.0598 40.4134C40.0435 40.4175 40.0109 40.4298 39.9211 40.4257C37.5431 40.4216 35.165 40.4216 32.7829 40.4175C29.5523 40.4175 26.3177 40.4134 23.0912 40.4053C23.0586 40.4012 22.9892 40.3686 22.9484 40.3441C22.3121 38.0846 21.9409 35.662 21.8226 32.9621H41.1734ZM46.3904 19.6908C44.9668 19.6908 43.6248 19.6949 42.2869 19.6745C42.2543 19.65 42.2094 19.6051 42.1972 19.5807C41.3977 17.3864 40.4514 15.5226 39.3174 13.9238C42.2053 15.1718 44.6446 17.0683 46.7208 19.6867L46.3904 19.6908ZM23.6786 13.9279C22.5405 15.543 21.5901 17.4191 20.7906 19.6133C20.7825 19.6296 20.7539 19.6581 20.7295 19.6745C19.363 19.6908 18.0047 19.6908 16.5648 19.6867H16.267C18.3025 17.101 20.7417 15.2004 23.6786 13.9279ZM16.5811 43.3092C18.0169 43.3092 19.3834 43.3092 20.7295 43.3173C20.7417 43.3214 20.758 43.3295 20.7743 43.3377C21.5779 45.5605 22.5405 47.4529 23.6908 49.0802C20.7784 47.824 18.3351 45.9234 16.2711 43.3092H16.5811ZM39.2154 49.1617C40.3943 47.5793 41.3447 45.744 42.1034 43.5946C42.1931 43.3418 42.238 43.2969 42.4786 43.2969C42.495 43.2969 42.5154 43.2969 42.5357 43.2969C43.5392 43.3173 44.5548 43.3132 45.5379 43.3132C45.9376 43.3132 46.3333 43.3132 46.733 43.3132C44.6854 45.9153 42.2135 47.8403 39.2154 49.1617ZM43.841 40.4216H43.1802L44.1837 32.9906H50.7182C50.5836 34.8994 50.1553 36.7591 49.4496 38.5292C49.3844 38.6883 49.3232 38.8595 49.262 39.0308C49.0703 39.5733 48.8704 40.1361 48.5359 40.3808C48.332 40.5317 47.8303 40.4909 47.3897 40.4542C47.1695 40.4379 46.9451 40.4175 46.7289 40.4175C46.7208 40.4175 46.7126 40.4175 46.7086 40.4175C45.7459 40.4216 44.7833 40.4216 43.841 40.4216ZM39.0727 43.3336C38.0937 45.7154 36.8333 48.085 34.5613 49.7205C32.6442 51.1031 30.519 51.1357 28.5815 49.8143C26.3707 48.3012 25.0899 46.1233 23.9274 43.3336H39.0727ZM50.7141 30.0215H44.1837L43.1802 22.5824H43.7839C45.3502 22.5824 46.9614 22.5824 48.5359 22.5906C48.5563 22.5946 48.593 22.6232 48.5971 22.6232C49.8249 24.9683 50.5183 27.3909 50.7141 30.0215Z" fill="white"/>
<path d="M1.45238 9.10333C2.33344 9.09925 2.88411 8.4467 2.88819 7.40261C2.89227 6.64809 2.89227 5.89358 2.88819 5.08604V4.93514L10.418 12.4681L10.5159 12.5659C10.6423 12.6965 10.777 12.8351 10.9401 12.9534C11.2297 13.1614 11.5316 13.2634 11.8293 13.2634C12.1801 13.2634 12.5228 13.1165 12.8164 12.827C13.3549 12.2927 13.4079 11.5912 12.9592 10.9549C12.8409 10.7877 12.7022 10.6531 12.5717 10.5226L4.94808 2.89183H5.12347C5.93519 2.89183 6.70612 2.89183 7.47705 2.88775C8.45193 2.8796 9.10865 2.30045 9.10457 1.44398C9.10049 0.5875 8.44785 0.00835801 7.47297 0.00427955C5.4865 0.000201088 3.50004 0.000201088 1.51765 0.00427955C0.546847 0.00835801 0.00841997 0.546715 0.00434098 1.52147C0.000261991 3.48321 0.000261991 5.44903 0.00434098 7.41077C0.00434098 7.96952 0.167501 8.42222 0.469346 8.71995C0.722243 8.97282 1.04856 9.10333 1.45238 9.10333Z" fill="white"/>
<path d="M61.3888 0.00408936C59.4676 0.00408936 57.5505 0.00408936 55.6293 0.00408936C55.0419 0.00408936 54.5687 0.171306 54.2628 0.485348C54.0099 0.742291 53.8835 1.08896 53.8957 1.48457C53.9161 2.1616 54.377 2.88348 55.6171 2.88756C56.3798 2.89164 57.1467 2.89164 57.9543 2.88756H58.0604L55.5926 5.35503C53.8835 7.06391 52.1744 8.77278 50.4694 10.4817C50.2573 10.6937 50.0574 10.9017 49.9146 11.1668C49.5638 11.7949 49.7148 12.5087 50.2695 12.8676C50.5917 13.0756 50.9996 13.1327 51.3545 13.1327C51.4565 13.1327 51.5544 13.1286 51.64 13.1204C51.9664 13.0919 52.207 12.8431 52.3987 12.6392L52.4925 12.5413C54.4505 10.5918 56.4002 8.63819 58.35 6.68461C58.868 6.16665 59.382 5.6446 59.9408 5.0777L60.1039 4.91048V5.07362C60.1039 5.88115 60.1039 6.61935 60.1039 7.35756C60.1039 7.94893 60.2712 8.42611 60.5853 8.72792C60.8422 8.97671 61.1808 9.0909 61.5765 9.09498C62.4494 9.07867 62.9919 8.41796 62.9919 7.37795C62.9959 5.45699 62.9959 3.53604 62.9919 1.61916C62.9959 0.534289 62.4698 0.00408936 61.3888 0.00408936Z" fill="white"/>
<path d="M61.5357 53.8969C60.6587 53.9091 60.1162 54.5617 60.108 55.6017C60.1039 56.3562 60.1039 57.1066 60.108 57.9019V58.0569L52.566 50.5199L52.4844 50.4383C52.3375 50.2915 52.1744 50.1202 51.9745 49.9938C51.3545 49.5941 50.6815 49.6675 50.1675 50.1895C49.6576 50.7075 49.6005 51.3845 50.0125 52.0004C50.1308 52.1798 50.2817 52.3226 50.4123 52.4531L58.0522 60.0961H57.6239C56.9223 60.1002 56.2167 60.1002 55.5151 60.1084C54.5402 60.1206 53.8876 60.7038 53.8957 61.5603C53.9039 62.4249 54.5443 62.9878 55.5355 62.9918C56.5144 62.9959 57.4893 62.9959 58.4642 62.9959C59.4717 62.9959 60.4792 62.9959 61.4908 62.9918C62.4575 62.9878 62.9919 62.4494 62.9959 61.4665C63 59.5047 63 57.5389 62.9959 55.5772C62.9959 55.0225 62.8328 54.5739 62.5269 54.2721C62.274 54.0233 61.9272 53.9009 61.5357 53.8969Z" fill="white"/>
<path d="M10.8542 50.1243C10.7114 50.2303 10.5932 50.3527 10.4871 50.4628L2.89202 58.065V57.906C2.89202 57.0862 2.8961 56.3113 2.88795 55.5364C2.87979 54.5494 2.32097 53.905 1.45622 53.8968C1.08503 53.8968 0.717923 54.0274 0.460947 54.2802C0.16318 54.5739 0.00409966 55.0021 0.00409966 55.516C-0.00405832 57.5022 2.06702e-05 59.4884 0.00409966 61.4746C0.00817865 62.4494 0.542526 62.9877 1.5174 62.9918C2.50044 62.9959 3.48348 62.9959 4.46651 62.9959C5.44955 62.9959 6.43259 62.9959 7.41562 62.9918C7.97037 62.9918 8.42313 62.8287 8.72498 62.5269C8.97788 62.2699 9.10841 61.9314 9.10433 61.5399C9.09617 60.663 8.44353 60.1124 7.39931 60.1083C6.65693 60.1043 5.91048 60.1043 5.11507 60.1083H4.93152L12.3838 52.657L12.494 52.5469C12.6204 52.4245 12.7469 52.3022 12.8652 52.1513C13.3506 51.5232 13.2934 50.683 12.7265 50.1895C12.1554 49.6919 11.4742 49.6675 10.8542 50.1243Z" fill="white"/>
</g>
<defs>
<clipPath id="clip0_327_91924">
<rect width="63" height="63" fill="white"/>
</clipPath>
</defs>
</svg>
