<?xml version="1.0" encoding="utf-8"?>
<!-- Generator: Adobe Illustrator 25.3.1, SVG Export Plug-In . SVG Version: 6.00 Build 0)  -->
<svg version="1.1" id="圖層_1" xmlns="http://www.w3.org/2000/svg" xmlns:xlink="http://www.w3.org/1999/xlink" x="0px" y="0px"
	 viewBox="0 0 105 200" style="enable-background:new 0 0 105 200;" xml:space="preserve">
<style type="text/css">
	.st0{clip-path:url(#SVGID_2_);}
	.st1{fill:url(#SVGID_3_);}
	.st2{fill:url(#SVGID_4_);}
	.st3{fill:#FFFFFF;}
	.st4{fill:url(#SVGID_5_);}
	.st5{fill:url(#SVGID_6_);}
	.st6{fill:url(#SVGID_7_);}
	.st7{fill:#C8CEFF;}
	.st8{fill:#A3E1FF;}
	.st9{fill:url(#SVGID_8_);}
	.st10{fill:url(#SVGID_9_);}
	.st11{fill:#9094B8;}
	.st12{opacity:0.5;}
	.st13{fill:#A8A0D4;}
	.st14{fill:#1D054D;}
	.st15{fill:url(#SVGID_10_);}
</style>
<g>
	<defs>
		<rect id="SVGID_1_" y="2.4" width="105" height="195.3"/>
	</defs>
	<clipPath id="SVGID_2_">
		<use xlink:href="#SVGID_1_"  style="overflow:visible;"/>
	</clipPath>
	<g class="st0">
		
			<linearGradient id="SVGID_3_" gradientUnits="userSpaceOnUse" x1="106.0021" y1="68.4224" x2="-0.5434" y2="68.4224" gradientTransform="matrix(1 0 0 -1 0 202)">
			<stop  offset="6.060000e-02" style="stop-color:#681DC9"/>
			<stop  offset="8.730000e-02" style="stop-color:#5F41CC"/>
			<stop  offset="0.1469" style="stop-color:#479DD4"/>
			<stop  offset="0.2071" style="stop-color:#2DFFDD"/>
			<stop  offset="0.2398" style="stop-color:#36DDDC"/>
			<stop  offset="0.2841" style="stop-color:#41B5DB"/>
			<stop  offset="0.3299" style="stop-color:#4A95DA"/>
			<stop  offset="0.3769" style="stop-color:#507BD9"/>
			<stop  offset="0.4256" style="stop-color:#5569D8"/>
			<stop  offset="0.4769" style="stop-color:#585ED8"/>
			<stop  offset="0.5354" style="stop-color:#595BD8"/>
			<stop  offset="0.6394" style="stop-color:#595FD9"/>
			<stop  offset="0.7383" style="stop-color:#576ADB"/>
			<stop  offset="0.8351" style="stop-color:#557DDE"/>
			<stop  offset="0.9301" style="stop-color:#5298E2"/>
			<stop  offset="0.9949" style="stop-color:#50AFE6"/>
		</linearGradient>
		<path class="st1" d="M105,108.7L0.2,69.5v77.7v0.1c-0.3,2.5,1,5,4.1,6.8l70.9,41.1c6.1,3.6,16.9,3.1,24-1c3.8-2.2,5.7-4.9,5.9-7.6
			l0,0L105,108.7L105,108.7z"/>
		
			<linearGradient id="SVGID_4_" gradientUnits="userSpaceOnUse" x1="56.3322" y1="162.2849" x2="51.2097" y2="95.7608" gradientTransform="matrix(1 0 0 -1 0 202)">
			<stop  offset="3.030000e-02" style="stop-color:#681DC9"/>
			<stop  offset="0.2071" style="stop-color:#5F41CC"/>
			<stop  offset="0.6017" style="stop-color:#479DD4"/>
			<stop  offset="1" style="stop-color:#2DFFDD"/>
		</linearGradient>
		<path class="st2" d="M75.2,117L4.3,75.9c-6.1-3.6-5.4-9.7,1.7-13.8c7.1-4.1,17.8-4.5,24-1l70.9,41.1c6.1,3.6,5.4,9.7-1.7,13.8
			C92,120.1,81.3,120.6,75.2,117z"/>
		<path class="st3" d="M99.4,115.4c-7.1,4.1-17.8,4.5-24,1L4.6,75.3c-3.1-1.8-4.5-4.3-4.1-6.9c-1.3,3.1-0.1,6.3,3.6,8.4L75,117.9
			c6.1,3.6,16.9,3.1,24-1c3.5-2,5.4-4.5,5.8-7C104,111.9,102.2,113.8,99.4,115.4z"/>
		
			<linearGradient id="SVGID_5_" gradientUnits="userSpaceOnUse" x1="33.3514" y1="136.7736" x2="17.2443" y2="122.471" gradientTransform="matrix(1 0 0 -1 0 202)">
			<stop  offset="0" style="stop-color:#FFFFFF"/>
			<stop  offset="1" style="stop-color:#4B73B8"/>
		</linearGradient>
		<path class="st4" d="M37.7,71.4c0,3.7-5.1,6.6-11.3,6.6S15,75.1,15,71.4c0-3.7,5.1-6.6,11.3-6.6S37.7,67.8,37.7,71.4z"/>
		
			<linearGradient id="SVGID_6_" gradientUnits="userSpaceOnUse" x1="87.0232" y1="104.3306" x2="70.9161" y2="90.0276" gradientTransform="matrix(1 0 0 -1 0 202)">
			<stop  offset="0" style="stop-color:#FFFFFF"/>
			<stop  offset="1" style="stop-color:#4B73B8"/>
		</linearGradient>
		<path class="st5" d="M91.4,103.9c0,3.7-5.1,6.6-11.3,6.6c-6.3,0-11.3-3-11.3-6.6c0-3.7,5.1-6.6,11.3-6.6
			C86.3,97.3,91.4,100.2,91.4,103.9z"/>
		
			<linearGradient id="SVGID_7_" gradientUnits="userSpaceOnUse" x1="116.7725" y1="113.6081" x2="-23.8708" y2="199.2095" gradientTransform="matrix(1 0 0 -1 0 202)">
			<stop  offset="0" style="stop-color:#32A1C8"/>
			<stop  offset="0.1523" style="stop-color:#36A1CA"/>
			<stop  offset="0.2946" style="stop-color:#41A2D0"/>
			<stop  offset="0.4325" style="stop-color:#54A4DA"/>
			<stop  offset="0.5202" style="stop-color:#64A6E3"/>
			<stop  offset="0.5904" style="stop-color:#74AFE6"/>
			<stop  offset="0.7273" style="stop-color:#9DC7ED"/>
			<stop  offset="0.9156" style="stop-color:#DFEDF9"/>
			<stop  offset="1" style="stop-color:#FFFFFF"/>
		</linearGradient>
		<path class="st6" d="M59.6,6.4C39.8-5,15,9.3,15,32.1v39.2c0,0,0,0,0,0.1c0,3.1,4.4,5.7,9.8,5.7s9.8-2.5,9.8-5.7c0,0,0-0.1,0-0.1
			h0.1v-35c0-9.7,10.5-15.7,18.9-10.9c9.7,5.6,15.7,16,15.7,27.2v51h0.1c0.1,3.1,4.4,5.6,9.7,5.6c5.3,0,9.7-2.5,9.7-5.6V57.1
			C88.8,36.2,77.7,16.8,59.6,6.4z"/>
		<path class="st7" d="M21.1,74V36.8c0-15.3,12.4-27.8,27.7-27.8c4.8,0,9.5,1.3,13.8,3.7c2.8,1.6,5.4,3.4,7.8,5.5
			C67,14.8,63,11.7,58.6,9.1c-4.3-2.5-8.9-3.7-13.8-3.7C29.5,5.4,17,17.8,17,33.2v37.2v2c0,0,0,0.1,0,0.1c0.1,1.2,1.6,2.4,4,3.1V74z
			"/>
		<path class="st8" d="M75.3,107L75.3,107l0-49c0-10.4-4.9-20.2-13-26.5c5.7,6.1,9,14.2,9,22.8v49h0l0.1,2c0,1.2,1.6,2.4,4,3.1
			L75.3,107z"/>
		
			<linearGradient id="SVGID_8_" gradientUnits="userSpaceOnUse" x1="33.6612" y1="154.584" x2="-5.9931" y2="178.7192" gradientTransform="matrix(1 0 0 -1 0 202)">
			<stop  offset="0" style="stop-color:#32A1C8"/>
			<stop  offset="0.1523" style="stop-color:#36A1CA"/>
			<stop  offset="0.2946" style="stop-color:#41A2D0"/>
			<stop  offset="0.4325" style="stop-color:#54A4DA"/>
			<stop  offset="0.5202" style="stop-color:#64A6E3"/>
			<stop  offset="0.5904" style="stop-color:#74AFE6"/>
			<stop  offset="0.7273" style="stop-color:#9DC7ED"/>
			<stop  offset="0.9156" style="stop-color:#DFEDF9"/>
			<stop  offset="1" style="stop-color:#FFFFFF"/>
		</linearGradient>
		<path class="st9" d="M39.2,16.1c-8.8,0-16,7.2-16,16v40.6l-0.1,3.5c-0.1,0.3,5.5-0.2,5.6-0.7l0.1-3.5V31.4
			c0-7.2,4.8-13.3,11.3-15.3C39.8,16.1,39.5,16.1,39.2,16.1z"/>
		
			<linearGradient id="SVGID_9_" gradientUnits="userSpaceOnUse" x1="82.5276" y1="137.5047" x2="-18.172" y2="169.709" gradientTransform="matrix(1 0 0 -1 0 202)">
			<stop  offset="0" style="stop-color:#32A1C8"/>
			<stop  offset="0.1523" style="stop-color:#36A1CA"/>
			<stop  offset="0.2946" style="stop-color:#41A2D0"/>
			<stop  offset="0.4325" style="stop-color:#54A4DA"/>
			<stop  offset="0.5202" style="stop-color:#64A6E3"/>
			<stop  offset="0.5904" style="stop-color:#74AFE6"/>
			<stop  offset="0.7273" style="stop-color:#9DC7ED"/>
			<stop  offset="0.9156" style="stop-color:#DFEDF9"/>
			<stop  offset="1" style="stop-color:#FFFFFF"/>
		</linearGradient>
		<path class="st10" d="M56.2,11.1c-4.1-2.4-8.5-3.6-13.1-3.6c-1.9,0-3.8,0.2-5.7,0.7c0,0,0.1,0,0.1,0c4.6,0,9,1.2,13.1,3.6
			c17,9.8,27.6,28.1,27.6,47.8v48.9v0.3c0,0.3,5.6-0.2,5.6-0.7v-0.3V58.9C83.8,39.2,73.2,20.9,56.2,11.1z"/>
		<path class="st11" d="M29.6,37.9v37.5c2.2-0.7,3.6-1.9,3.7-3v0l0.1-2.2v-33c0-6.5,4.3-12.1,10.2-13.9C35.8,23.6,29.6,30,29.6,37.9
			z"/>
		<g class="st12">
			<path class="st13" d="M59.8,9.2c-2-1.2-4.2-2.1-6.3-2.7c18.6,11.1,30.1,31.3,30.1,53v48.1c2.7-0.7,4.4-2,4.5-3.3v-0.3V58.1
				C88,38,77.2,19.3,59.8,9.2z"/>
		</g>
		<path class="st3" d="M48.8,9.2c5.1,0,9.9,1.2,14.5,3.6c-1.7-1.3-3.5-2.5-5.4-3.5c-4.1-2.4-8.5-3.6-13.1-3.6
			c-12.7,0-26.4,10.1-26.4,26.4v0.1C22.3,17.8,36,9.2,48.8,9.2z"/>
		<path class="st3" d="M72.6,53.4c0.9-7.7-0.1-18.7-9.2-28.3c-8.5-9-18.7-11.3-24.1-2.7c2.3-1.3,5-2.1,7.9-2.1
			c2.7,0,5.5,0.7,7.9,2.1c10.8,6.2,17.4,17.7,17.4,30.1V53.4z"/>
		<path class="st14" d="M49.5,132.1c0-5-3.6-11.2-8-13.7c-4.4-2.5-8-0.5-8,4.5c0,3.4,1.6,7.3,4,10.3v16l7.9,4.5v-16
			C47.9,137.5,49.5,135.5,49.5,132.1z"/>
		
			<linearGradient id="SVGID_10_" gradientUnits="userSpaceOnUse" x1="10.3914" y1="63.1771" x2="49.7787" y2="67.355" gradientTransform="matrix(1 0 0 -1 0 202)">
			<stop  offset="3.030000e-02" style="stop-color:#681DC9"/>
			<stop  offset="0.2071" style="stop-color:#5F41CC"/>
			<stop  offset="0.6017" style="stop-color:#479DD4"/>
			<stop  offset="1" style="stop-color:#2DFFDD"/>
		</linearGradient>
		<path class="st15" d="M41.3,147.5v-16c-2.4-3-4-6.9-4-10.3c0-1.7,0.4-3,1.1-3.9c-2.8-0.2-4.8,1.9-4.8,5.6c0,3.4,1.6,7.3,4,10.3v16
			l7.9,4.5v-3.8L41.3,147.5z"/>
	</g>
</g>
</svg>
