<?xml version="1.0" encoding="utf-8"?>
<!-- Generator: Adobe Illustrator 25.3.1, SVG Export Plug-In . SVG Version: 6.00 Build 0)  -->
<svg version="1.1" id="圖層_1" xmlns="http://www.w3.org/2000/svg" xmlns:xlink="http://www.w3.org/1999/xlink" x="0px" y="0px"
	 viewBox="0 0 400 172" style="enable-background:new 0 0 400 172;" xml:space="preserve">
<style type="text/css">
	.st0{opacity:0.81;clip-path:url(#SVGID_2_);}
	.st1{fill:url(#SVGID_3_);filter:url(#Adobe_OpacityMaskFilter);}
	.st2{mask:url(#mask0_273_1682_1_);}
	.st3{opacity:0.6;}
	.st4{fill:none;stroke:#FFFFFF;stroke-width:1.0778;stroke-miterlimit:10;}
	.st5{opacity:0.9829;fill:none;stroke:#FFFFFF;stroke-width:1.069;stroke-miterlimit:10;enable-background:new    ;}
	.st6{opacity:0.9659;fill:none;stroke:#FFFFFF;stroke-width:1.0603;stroke-miterlimit:10;enable-background:new    ;}
	.st7{opacity:0.9488;fill:none;stroke:#FFFFFF;stroke-width:1.0515;stroke-miterlimit:10;enable-background:new    ;}
	.st8{opacity:0.9317;fill:none;stroke:#FFFFFF;stroke-width:1.0427;stroke-miterlimit:10;enable-background:new    ;}
	.st9{opacity:0.9146;fill:none;stroke:#FFFFFF;stroke-width:1.034;stroke-miterlimit:10;enable-background:new    ;}
	.st10{opacity:0.8976;fill:none;stroke:#FFFFFF;stroke-width:1.0252;stroke-miterlimit:10;enable-background:new    ;}
	.st11{opacity:0.8805;fill:none;stroke:#FFFFFF;stroke-width:1.0165;stroke-miterlimit:10;enable-background:new    ;}
	.st12{opacity:0.8634;fill:none;stroke:#FFFFFF;stroke-width:1.0077;stroke-miterlimit:10;enable-background:new    ;}
	.st13{opacity:0.8463;fill:none;stroke:#FFFFFF;stroke-width:0.9989;stroke-miterlimit:10;enable-background:new    ;}
	.st14{opacity:0.8293;fill:none;stroke:#FFFFFF;stroke-width:0.9902;stroke-miterlimit:10;enable-background:new    ;}
	.st15{opacity:0.8122;fill:none;stroke:#FFFFFF;stroke-width:0.9814;stroke-miterlimit:10;enable-background:new    ;}
	.st16{opacity:0.7951;fill:none;stroke:#FFFFFF;stroke-width:0.9726;stroke-miterlimit:10;enable-background:new    ;}
	.st17{opacity:0.778;fill:none;stroke:#FFFFFF;stroke-width:0.9639;stroke-miterlimit:10;enable-background:new    ;}
	.st18{opacity:0.761;fill:none;stroke:#FFFFFF;stroke-width:0.9551;stroke-miterlimit:10;enable-background:new    ;}
	.st19{opacity:0.7439;fill:none;stroke:#FFFFFF;stroke-width:0.9464;stroke-miterlimit:10;enable-background:new    ;}
	.st20{opacity:0.7268;fill:none;stroke:#FFFFFF;stroke-width:0.9376;stroke-miterlimit:10;enable-background:new    ;}
	.st21{opacity:0.7098;fill:none;stroke:#FFFFFF;stroke-width:0.9288;stroke-miterlimit:10;enable-background:new    ;}
	.st22{opacity:0.6927;fill:none;stroke:#FFFFFF;stroke-width:0.9201;stroke-miterlimit:10;enable-background:new    ;}
	.st23{opacity:0.6756;fill:none;stroke:#FFFFFF;stroke-width:0.9113;stroke-miterlimit:10;enable-background:new    ;}
	.st24{opacity:0.6585;fill:none;stroke:#FFFFFF;stroke-width:0.9025;stroke-miterlimit:10;enable-background:new    ;}
	.st25{opacity:0.6415;fill:none;stroke:#FFFFFF;stroke-width:0.8938;stroke-miterlimit:10;enable-background:new    ;}
	.st26{opacity:0.6244;fill:none;stroke:#FFFFFF;stroke-width:0.885;stroke-miterlimit:10;enable-background:new    ;}
	.st27{opacity:0.6073;fill:none;stroke:#FFFFFF;stroke-width:0.8763;stroke-miterlimit:10;enable-background:new    ;}
	.st28{opacity:0.5902;fill:none;stroke:#FFFFFF;stroke-width:0.8675;stroke-miterlimit:10;enable-background:new    ;}
	.st29{opacity:0.5732;fill:none;stroke:#FFFFFF;stroke-width:0.8587;stroke-miterlimit:10;enable-background:new    ;}
	.st30{opacity:0.5561;fill:none;stroke:#FFFFFF;stroke-width:0.85;stroke-miterlimit:10;enable-background:new    ;}
	.st31{opacity:0.539;fill:none;stroke:#FFFFFF;stroke-width:0.8412;stroke-miterlimit:10;enable-background:new    ;}
	.st32{opacity:0.522;fill:none;stroke:#FFFFFF;stroke-width:0.8324;stroke-miterlimit:10;enable-background:new    ;}
	.st33{opacity:0.5049;fill:none;stroke:#FFFFFF;stroke-width:0.8237;stroke-miterlimit:10;enable-background:new    ;}
	.st34{opacity:0.4878;fill:none;stroke:#FFFFFF;stroke-width:0.8149;stroke-miterlimit:10;enable-background:new    ;}
	.st35{opacity:0.4707;fill:none;stroke:#FFFFFF;stroke-width:0.8062;stroke-miterlimit:10;enable-background:new    ;}
	.st36{opacity:0.4537;fill:none;stroke:#FFFFFF;stroke-width:0.7974;stroke-miterlimit:10;enable-background:new    ;}
	.st37{opacity:0.4366;fill:none;stroke:#FFFFFF;stroke-width:0.7886;stroke-miterlimit:10;enable-background:new    ;}
	.st38{opacity:0.4195;fill:none;stroke:#FFFFFF;stroke-width:0.7799;stroke-miterlimit:10;enable-background:new    ;}
	.st39{opacity:0.4024;fill:none;stroke:#FFFFFF;stroke-width:0.7711;stroke-miterlimit:10;enable-background:new    ;}
	.st40{opacity:0.3854;fill:none;stroke:#FFFFFF;stroke-width:0.7623;stroke-miterlimit:10;enable-background:new    ;}
	.st41{opacity:0.3683;fill:none;stroke:#FFFFFF;stroke-width:0.7536;stroke-miterlimit:10;enable-background:new    ;}
	.st42{opacity:0.3512;fill:none;stroke:#FFFFFF;stroke-width:0.7448;stroke-miterlimit:10;enable-background:new    ;}
	.st43{opacity:0.3341;fill:none;stroke:#FFFFFF;stroke-width:0.7361;stroke-miterlimit:10;enable-background:new    ;}
	.st44{opacity:0.3171;fill:none;stroke:#FFFFFF;stroke-width:0.7273;stroke-miterlimit:10;enable-background:new    ;}
	.st45{opacity:0.3;fill:none;stroke:#FFFFFF;stroke-width:0.7185;stroke-miterlimit:10;enable-background:new    ;}
</style>
<g>
	<defs>
		<rect id="SVGID_1_" y="0.2" width="400" height="171.7"/>
	</defs>
	<clipPath id="SVGID_2_">
		<use xlink:href="#SVGID_1_"  style="overflow:visible;"/>
	</clipPath>
	<g class="st0">
		<defs>
			<filter id="Adobe_OpacityMaskFilter" filterUnits="userSpaceOnUse" x="-330.1" y="-0.5" width="1089.1" height="652.3">
				<feColorMatrix  type="matrix" values="1 0 0 0 0  0 1 0 0 0  0 0 1 0 0  0 0 0 1 0"/>
			</filter>
		</defs>
		<mask maskUnits="userSpaceOnUse" x="-330.1" y="-0.5" width="1089.1" height="652.3" id="mask0_273_1682_1_">
			
				<linearGradient id="SVGID_3_" gradientUnits="userSpaceOnUse" x1="-47.4995" y1="-43.6995" x2="771.7851" y2="-43.6995" gradientTransform="matrix(1 0 0 -1 0 -17.1519)">
				<stop  offset="0" style="stop-color:#36A9C9"/>
				<stop  offset="1" style="stop-color:#5BD3C5"/>
			</linearGradient>
			<rect x="-47.5" y="-119" class="st1" width="819.3" height="291.1"/>
		</mask>
		<g class="st2">
			<g class="st3">
				<path class="st4" d="M758.5,651.7c-2.1-16-12.5-31.8-23.8-40.3c-11.2-8.5-23.1-11-34.3-11.5c-28.6-1.4-54.4,8.6-81.8,12.6
					c-27.3,4-58.3,1.3-86.7-22.5c-44.4-37-67-109.7-89.1-173.3c-5.8-16.6-12.2-34-22.5-46.9c-13.2-16.5-30.5-22.7-45-21.2
					c-14.5,1.4-26.8,9.4-39.2,16.8c-39.6,23.9-83.3,43.5-133,31.8c-49.6-11.8-126.7-73-166.3-189.7"/>
				<path class="st5" d="M36.1,211.2c22.9,64.7,58.4,110.9,94,140.6c25.4,21.2,50.8,34,71.7,38.6c19.3,4.3,37.8,4.2,55.6,1.2
					c6.9-1.2,13.7-2.7,20.3-4.6c15.7-4.4,30.7-10.6,45-17.8c4.2-2.1,8.3-4.3,12.4-6.5c8.6-4.7,17.3-9.6,26.6-12.3
					c3.8-1.1,7.8-1.9,11.9-2.1c6.8-0.3,14.3,1,21.8,4.2c8.2,3.4,16.2,8.9,23.1,17c2.7,3.2,5,6.6,7.2,10.2
					c6.3,10.4,10.9,22.5,15.2,34.2c4.2,11.7,8.5,23.7,13,35.7c11.3,30.5,23.8,61.1,40.1,87.1c10.4,16.7,22.4,31.5,36.5,43
					c9.2,7.6,18.7,13.1,28.2,17.1c20.1,8.4,40.2,9.6,58.6,7.8c18.6-1.8,36.5-6.4,55.3-8.4c8.6-0.9,17.4-1.3,26.4-0.6
					c11.2,0.9,23.2,3.5,34.5,12.1c11.3,8.6,21.8,24.1,24.3,40"/>
				<path class="st6" d="M34.7,213.3c22.8,61.4,57.8,104.5,93.3,132.5c25.3,19.9,50.6,32,71.7,36.2c19.4,4,38.1,3.9,56,1.3
					c7-1,13.8-2.4,20.5-4c15.9-3.8,30.8-9,44.9-15.2c4.2-1.8,8.3-3.7,12.3-5.6c8.5-4,17-8.3,26.2-10.5c3.7-0.9,7.6-1.4,11.7-1.4
					c6.7,0,14.2,1.7,21.7,4.9c8.3,3.5,16.3,8.6,23.1,16.3c2.6,3,5,6.2,7.2,9.6c6.2,9.8,10.8,21.2,15.1,32.3
					c4.2,11,8.5,22.4,12.9,33.7c11.3,28.9,23.7,57.8,40.2,82.7c10.5,16,22.7,30.4,36.9,41.9c9.3,7.5,18.8,13.1,28.4,17.3
					c20.1,8.8,40.1,10.9,58.5,10c18.5-0.9,36.3-4.4,55.1-5.6c8.6-0.5,17.4-0.6,26.5,0.4c11.3,1.2,23.3,4.1,34.7,12.7
					c11.4,8.6,22.1,24,24.8,39.7"/>
				<path class="st7" d="M32.9,214c22.6,58.1,57.2,98.2,92.6,124.4c25.1,18.5,50.5,29.8,71.7,33.8c19.5,3.7,38.3,3.7,56.5,1.4
					c7-0.9,14-2.1,20.7-3.4c16-3.2,30.9-7.4,44.9-12.6c4.1-1.5,8.2-3.1,12.2-4.7c8.4-3.4,16.8-7.1,25.7-8.7c3.7-0.7,7.5-1,11.5-0.8
					c6.6,0.4,14,2.4,21.6,5.7c8.4,3.6,16.4,8.3,23.2,15.5c2.6,2.8,5,5.8,7.1,9c6.1,9.2,10.7,20,15,30.4c4.2,10.4,8.5,21.1,12.9,31.8
					c11.2,27.2,23.6,54.4,40.3,78.3c10.7,15.3,23,29.4,37.4,40.8c9.4,7.4,19,13.1,28.5,17.5c20.2,9.2,40.1,12.1,58.4,12.2
					c18.4,0,36.1-2.5,54.9-2.9c8.6-0.1,17.5,0.1,26.6,1.3c11.3,1.5,23.4,4.6,34.9,13.3c11.5,8.7,22.3,23.9,25.3,39.4"/>
				<path class="st8" d="M30.6,213.4c22.5,54.8,56.6,91.9,92,116.2c25,17.2,50.3,27.8,71.7,31.5c19.5,3.4,38.5,3.4,56.9,1.5
					c7.1-0.7,14.1-1.8,20.9-2.8c16.1-2.6,30.9-5.8,44.8-10c4.1-1.2,8.1-2.5,12-3.9c8.3-2.8,16.5-5.8,25.3-6.9
					c3.6-0.5,7.3-0.6,11.3-0.1c6.5,0.8,13.9,3.1,21.5,6.4c8.4,3.7,16.5,8,23.2,14.7c2.6,2.6,4.9,5.4,7,8.4
					c6.1,8.6,10.7,18.7,14.9,28.5c4.2,9.7,8.5,19.8,12.9,29.8c11.2,25.6,23.6,51,40.5,73.9c10.8,14.6,23.3,28.3,37.8,39.7
					c9.4,7.4,19.1,13.2,28.7,17.7c20.3,9.6,40.1,13.4,58.3,14.4c18.3,1,35.9-0.6,54.7-0.1c8.6,0.2,17.5,0.8,26.7,2.3
					c11.4,1.8,23.5,5.2,35.1,13.9c11.6,8.7,22.5,23.8,25.9,39.1"/>
				<path class="st9" d="M27.8,211.6c22.3,51.6,56,85.6,91.3,108.1c24.8,15.9,50.1,25.7,71.7,29.1c19.6,3.1,38.8,3.2,57.3,1.6
					c7.2-0.6,14.3-1.5,21.1-2.3c16.3-1.9,31-4.1,44.8-7.4c4-1,8-2,11.9-3c8.2-2.2,16.3-4.6,24.9-5.2c3.5-0.2,7.2-0.1,11.1,0.5
					c6.4,1.1,13.7,3.8,21.5,7.2c8.5,3.7,16.5,7.7,23.2,13.9c2.6,2.4,4.9,5,7,7.8c6,8,10.6,17.5,14.8,26.6
					c4.2,9.1,8.5,18.5,12.9,27.9c11.2,23.9,23.5,47.7,40.6,69.5c10.9,14,23.6,27.3,38.2,38.5c9.5,7.3,19.3,13.2,28.9,17.9
					c20.4,10.1,40.1,14.7,58.2,16.6c18.2,1.9,35.7,1.4,54.5,2.6c8.7,0.6,17.6,1.5,26.8,3.2c11.4,2.1,23.7,5.7,35.3,14.5
					c11.7,8.7,22.7,23.7,26.4,38.8"/>
				<path class="st10" d="M24.6,208.8c22.2,48.3,55.4,79.2,90.6,100c24.6,14.5,49.9,23.6,71.7,26.7c19.7,2.8,39,2.9,57.7,1.8
					c7.2-0.5,14.4-1.1,21.3-1.7c16.4-1.3,31.1-2.5,44.7-4.8c4-0.7,7.9-1.4,11.7-2.2c8.1-1.6,16-3.4,24.5-3.4c3.4,0,7,0.3,10.9,1.2
					c6.3,1.5,13.6,4.5,21.4,7.9c8.6,3.8,16.6,7.5,23.3,13.2c2.6,2.2,4.8,4.6,6.9,7.2c5.9,7.4,10.5,16.2,14.7,24.7
					c4.2,8.5,8.4,17.2,12.8,26c11.1,22.3,23.5,44.3,40.7,65.2c11,13.3,23.9,26.3,38.6,37.4c9.6,7.3,19.4,13.2,29.1,18.2
					c20.5,10.5,40.1,16,58.1,18.8c18.1,2.8,35.5,3.3,54.4,5.3c8.7,1,17.6,2.2,26.9,4.2c11.5,2.5,23.8,6.3,35.5,15
					c11.8,8.8,22.9,23.6,26.9,38.6"/>
				<path class="st11" d="M20.9,205.1c22,45,54.8,72.9,90,91.9c24.5,13.2,49.7,21.5,71.8,24.3c19.8,2.5,39.2,2.7,58.2,1.9
					c7.3-0.3,14.5-0.8,21.5-1.1c16.5-0.7,31.2-0.9,44.6-2.2c4-0.4,7.8-0.8,11.6-1.3c8-1,15.8-2.1,24-1.6c3.4,0.2,6.9,0.7,10.7,1.9
					c6.3,1.8,13.4,5.2,21.3,8.7c8.7,3.9,16.7,7.2,23.3,12.4c2.6,2,4.8,4.3,6.9,6.6c5.9,6.8,10.4,15,14.6,22.8
					c4.2,7.8,8.4,15.9,12.8,24c11.1,20.6,23.4,41,40.9,60.8c11.1,12.6,24.2,25.2,39,36.3c9.7,7.2,19.6,13.2,29.3,18.4
					c20.6,10.9,40,17.2,58,21c18,3.8,35.3,5.2,54.2,8.1c8.7,1.3,17.7,2.9,27,5.1c11.6,2.8,23.9,6.8,35.8,15.6
					c11.9,8.8,23.1,23.5,27.4,38.3"/>
				<path class="st12" d="M16.9,200.4c21.9,41.7,54.1,66.6,89.3,83.8c24.3,11.9,49.5,19.5,71.8,22c19.8,2.2,39.4,2.4,58.6,2
					c7.4-0.2,14.7-0.5,21.7-0.5c16.7-0.1,31.3,0.8,44.6,0.4c3.9-0.1,7.7-0.2,11.5-0.4c7.9-0.4,15.5-0.9,23.6,0.2
					c3.3,0.4,6.7,1.2,10.4,2.5c6.2,2.2,13.3,5.8,21.2,9.4c8.7,4,16.8,6.9,23.3,11.6c2.5,1.8,4.8,3.9,6.8,6.1
					c5.8,6.2,10.3,13.7,14.5,20.9c4.2,7.2,8.4,14.6,12.8,22.1c11.1,19,23.3,37.6,41,56.4c11.2,11.9,24.5,24.2,39.4,35.2
					c9.8,7.2,19.7,13.3,29.5,18.6c20.7,11.3,40,18.5,57.9,23.2c17.9,4.7,35.1,7.1,54,10.8c8.7,1.7,17.7,3.6,27.1,6.1
					c11.6,3.1,24,7.3,36,16.2c12,8.9,23.3,23.4,28,38"/>
				<path class="st13" d="M12.3,195.1c21.7,38.4,53.5,60.3,88.6,75.7c24.1,10.5,49.3,17.4,71.8,19.6c19.9,1.9,39.7,2.2,59,2.1
					c7.4-0.1,14.8-0.2,21.9,0.1c16.8,0.6,31.4,2.4,44.5,3c3.9,0.2,7.6,0.3,11.3,0.4c7.8,0.2,15.3,0.4,23.2,2
					c3.2,0.7,6.6,1.6,10.2,3.2c6.1,2.6,13.1,6.5,21.1,10.2c8.8,4.1,16.8,6.6,23.4,10.8c2.5,1.6,4.7,3.5,6.7,5.5
					c5.8,5.6,10.3,12.5,14.5,19c4.2,6.6,8.4,13.3,12.7,20.1c11,17.3,23.3,34.2,41.1,52c11.4,11.3,24.8,23.2,39.9,34
					c9.8,7.1,19.9,13.3,29.7,18.8c20.8,11.8,40,19.7,57.8,25.3c17.8,5.6,34.9,9,53.8,13.6c8.7,2.1,17.8,4.3,27.2,7
					c11.7,3.4,24.2,7.9,36.2,16.8c12,8.9,23.5,23.2,28.5,37.7"/>
				<path class="st14" d="M7.4,189.1c21.5,35.1,52.8,54,88,67.6c23.9,9.2,49.2,15.4,71.8,17.2c20,1.7,39.9,2,59.4,2.2
					c7.5,0.1,15,0.1,22.1,0.6c16.9,1.2,31.4,4,44.5,5.6c3.8,0.5,7.5,0.9,11.2,1.3c7.7,0.8,15.1,1.6,22.7,3.7c3.1,0.9,6.4,2.1,10,3.8
					c6,2.9,13,7.2,21,11c8.9,4.1,16.9,6.3,23.4,10.1c2.5,1.4,4.7,3.1,6.7,4.9c5.7,5,10.2,11.2,14.4,17.2c4.2,5.9,8.4,12.1,12.7,18.2
					c11,15.7,23.2,30.9,41.3,47.6c11.5,10.6,25,22.1,40.3,32.9c9.9,7,20,13.3,29.9,19.1c20.8,12.2,40,21,57.6,27.5
					c17.7,6.5,34.7,11,53.6,16.3c8.7,2.5,17.8,5,27.3,8c11.7,3.8,24.3,8.4,36.4,17.4c12.1,9,23.7,23.1,29,37.4"/>
				<path class="st15" d="M2.1,182.7c21.4,31.8,52.2,47.7,87.3,59.4c23.7,7.9,49,13.3,71.8,14.8c20.1,1.4,40.1,1.7,59.8,2.3
					c7.6,0.2,15.1,0.4,22.3,1.2c17.1,1.8,31.5,5.6,44.4,8.2c3.8,0.8,7.5,1.5,11,2.2c7.5,1.5,14.8,2.8,22.3,5.5
					c3.1,1.1,6.3,2.5,9.8,4.5c5.9,3.3,12.9,7.9,21,11.7c8.9,4.2,17,6,23.4,9.3c2.5,1.2,4.7,2.7,6.6,4.3c5.6,4.5,10.1,10,14.3,15.3
					c4.2,5.3,8.4,10.8,12.7,16.3c11,14,23.1,27.5,41.4,43.2c11.6,9.9,25.3,21.1,40.7,31.8c10,7,20.2,13.3,30.1,19.3
					c20.9,12.6,39.9,22.3,57.5,29.7c17.6,7.5,34.5,12.9,53.5,19c8.8,2.8,17.9,5.7,27.4,8.9c11.8,4.1,24.4,9,36.6,18
					c12.2,9,24,23,29.5,37.1"/>
				<path class="st16" d="M-3.7,175.9c21.2,28.5,51.5,41.4,86.7,51.3c23.5,6.6,48.8,11.2,71.8,12.5c20.1,1.1,40.4,1.5,60.3,2.4
					c7.6,0.3,15.3,0.8,22.5,1.8c17.2,2.4,31.6,7.3,44.3,10.8c3.7,1,7.4,2.1,10.9,3c7.4,2.1,14.6,4.1,21.9,7.3c3,1.3,6.1,2.9,9.6,5.1
					c5.8,3.7,12.7,8.6,20.9,12.5c9,4.3,17,5.7,23.5,8.5c2.5,1.1,4.6,2.3,6.6,3.7c5.6,3.9,10,8.7,14.2,13.4
					c4.1,4.6,8.3,9.5,12.6,14.3c10.9,12.4,23.1,24.2,41.5,38.8c11.7,9.3,25.6,20,41.1,30.6c10.1,6.9,20.3,13.3,30.3,19.5
					c21,13,39.9,23.5,57.4,31.9c17.5,8.4,34.3,14.8,53.3,21.8c8.8,3.2,17.9,6.4,27.5,9.9c11.9,4.4,24.5,9.5,36.8,18.6
					c12.3,9.1,24.2,22.9,30.1,36.9"/>
				<path class="st17" d="M-10,168.8c21.1,25.2,50.8,35.1,86,43.2c23.3,5.4,48.6,9.2,71.8,10.1c20.2,0.8,40.6,1.2,60.7,2.5
					c7.7,0.5,15.4,1.1,22.7,2.4c17.3,3.1,31.7,8.9,44.3,13.4c3.7,1.3,7.3,2.6,10.8,3.9c7.3,2.7,14.3,5.3,21.4,9.1
					c2.9,1.5,6,3.4,9.4,5.8c5.8,4,12.6,9.3,20.8,13.2c9.1,4.4,17.1,5.4,23.5,7.7c2.4,0.9,4.6,1.9,6.5,3.1c5.5,3.3,9.9,7.5,14.1,11.5
					c4.1,4,8.3,8.2,12.6,12.4c10.9,10.7,23,20.8,41.7,34.4c11.8,8.6,25.9,19,41.5,29.5c10.2,6.9,20.5,13.4,30.5,19.7
					c21.1,13.4,39.9,24.8,57.3,34.1c17.4,9.3,34.1,16.8,53.1,24.5c8.8,3.6,18,7.1,27.6,10.8c11.9,4.7,24.6,10.1,37,19.2
					c12.4,9.1,24.4,22.8,30.6,36.6"/>
				<path class="st18" d="M-16.8,161.7c20.9,21.9,50.1,28.9,85.3,35.1c23.1,4.1,48.4,7.1,71.8,7.7c20.3,0.5,40.8,1,61.1,2.6
					c7.8,0.6,15.5,1.4,22.9,3c17.5,3.7,31.8,10.5,44.2,16c3.7,1.6,7.2,3.2,10.6,4.7c7.2,3.3,14,6.5,21,10.9c2.8,1.8,5.9,3.8,9.2,6.4
					c5.7,4.4,12.4,10,20.7,14c9.1,4.4,17.1,5.2,23.5,7c2.4,0.7,4.5,1.6,6.4,2.5c5.5,2.7,9.9,6.2,14,9.6c4.1,3.4,8.3,6.9,12.6,10.5
					c10.9,9.1,22.9,17.5,41.8,30c11.9,7.9,26.2,18,41.9,28.4c10.2,6.8,20.6,13.4,30.7,19.9c21.2,13.9,39.9,26,57.2,36.3
					c17.3,10.2,33.9,18.7,52.9,27.2c8.8,4,18,7.8,27.7,11.8c12,5,24.8,10.6,37.2,19.8c12.5,9.2,24.6,22.7,31.1,36.3"/>
				<path class="st19" d="M-24,154.6c20.8,18.6,49.5,22.7,84.7,27c22.9,2.8,48.2,5.1,71.8,5.4c20.4,0.3,41,0.7,61.5,2.7
					c7.9,0.7,15.7,1.7,23.1,3.5c17.6,4.3,31.9,12.1,44.2,18.6c3.6,1.9,7.1,3.8,10.5,5.6c7.1,3.9,13.8,7.8,20.6,12.7
					c2.7,2,5.7,4.3,9,7.1c5.6,4.8,12.3,10.7,20.6,14.7c9.2,4.5,17.2,4.9,23.6,6.2c2.4,0.5,4.5,1.2,6.4,1.9c5.4,2.1,9.8,5,13.9,7.7
					c4.1,2.7,8.3,5.6,12.6,8.5c10.8,7.5,22.8,14.1,41.9,25.6c12,7.2,26.5,16.9,42.4,27.3c10.3,6.8,20.8,13.4,30.9,20.2
					c21.3,14.3,39.8,27.3,57.1,38.5c17.2,11.2,33.7,20.6,52.7,30c8.8,4.3,18.1,8.4,27.8,12.7c12,5.4,24.9,11.2,37.4,20.4
					c12.6,9.2,24.8,22.6,31.6,36"/>
				<path class="st20" d="M-31.7,147.6c20.6,15.4,48.8,16.4,84,18.9c22.7,1.6,48,3,71.8,3c20.4,0,41.3,0.5,62,2.8
					c7.9,0.9,15.8,2,23.3,4.1c17.7,4.9,31.9,13.8,44.1,21.2c3.6,2.2,7,4.3,10.3,6.5c7,4.5,13.5,9,20.2,14.5c2.7,2.2,5.6,4.7,8.8,7.7
					c5.5,5.2,12.1,11.3,20.5,15.5c9.3,4.6,17.3,4.6,23.6,5.4c2.4,0.3,4.5,0.8,6.3,1.3c5.4,1.5,9.7,3.7,13.8,5.8
					c4.1,2.1,8.3,4.3,12.5,6.6c10.8,5.8,22.7,10.8,42,21.2c12.1,6.6,26.8,15.9,42.8,26.2c10.4,6.7,20.9,13.4,31.1,20.4
					c21.4,14.7,39.8,28.5,57,40.7c17.1,12.1,33.5,22.6,52.6,32.7c8.8,4.7,18.2,9.1,27.9,13.7c12.1,5.7,25,11.7,37.6,20.9
					c12.7,9.3,25,22.5,32.2,35.7"/>
				<path class="st21" d="M-39.8,140.9c20.5,12.1,48.1,10.3,83.3,10.8c22.4,0.3,47.9,1,71.8,0.6c20.5-0.3,41.5,0.2,62.4,2.9
					c8,1,16,2.3,23.5,4.7c17.9,5.6,32,15.4,44,23.8c3.5,2.5,6.9,4.9,10.2,7.3c6.9,5.1,13.3,10.2,19.7,16.2c2.6,2.4,5.4,5.2,8.6,8.4
					c5.4,5.6,12,12,20.5,16.2c9.4,4.7,17.3,4.3,23.6,4.6c2.4,0.1,4.4,0.4,6.3,0.7c5.3,0.9,9.6,2.5,13.7,3.9c4.1,1.5,8.3,3,12.5,4.7
					c10.8,4.2,22.7,7.4,42.2,16.8c12.2,5.9,27.1,14.8,43.2,25c10.5,6.6,21.1,13.5,31.3,20.6c21.5,15.1,39.8,29.8,56.9,42.9
					c17,13,33.3,24.5,52.4,35.4c8.9,5.1,18.2,9.8,28,14.6c12.1,6,25.1,12.2,37.9,21.5c12.8,9.3,25.2,22.4,32.7,35.4"/>
				<path class="st22" d="M-48.4,134.4c20.3,8.8,47.4,4.1,82.7,2.7c22.2-0.9,47.7-1.1,71.8-1.8c20.6-0.6,41.7,0,62.8,3.1
					c8.1,1.1,16.1,2.7,23.7,5.3c18,6.2,32.1,17,44,26.4c3.5,2.8,6.8,5.5,10.1,8.2c6.8,5.7,13,11.4,19.3,18c2.5,2.6,5.3,5.6,8.4,9
					c5.3,5.9,11.9,12.7,20.4,17c9.4,4.7,17.4,4.1,23.6,3.9c2.3-0.1,4.4,0,6.2,0.1c5.3,0.3,9.6,1.2,13.7,2c4.1,0.8,8.2,1.7,12.5,2.7
					c10.7,2.5,22.6,4.1,42.3,12.4c12.3,5.2,27.4,13.8,43.6,23.9c10.6,6.6,21.3,13.5,31.4,20.8c21.6,15.6,39.7,31,56.7,45.1
					c16.9,13.9,33.1,26.4,52.2,38.2c8.9,5.5,18.3,10.5,28.1,15.6c12.2,6.3,25.2,12.8,38.1,22.1c12.9,9.4,25.4,22.2,33.2,35.2"/>
				<path class="st23" d="M-57.4,128.4c20.2,5.5,46.8-2.1,82-5.4c22-2.1,47.5-3.1,71.8-4.1c20.7-0.8,41.9-0.2,63.2,3.2
					c8.1,1.3,16.3,3,23.9,5.9c18.1,6.8,32.2,18.6,43.9,29c3.4,3,6.8,6.1,9.9,9.1c6.7,6.3,12.8,12.7,18.9,19.8
					c2.4,2.8,5.1,6.1,8.1,9.7c5.3,6.3,11.7,13.4,20.3,17.7c9.5,4.8,17.5,3.8,23.7,3.1c2.3-0.3,4.4-0.4,6.1-0.5
					c5.2-0.3,9.5,0,13.6,0.1c4.1,0.2,8.2,0.5,12.4,0.8c10.7,0.9,22.5,0.7,42.4,8.1c12.4,4.6,27.7,12.8,44,22.8
					c10.6,6.5,21.4,13.5,31.6,21c21.6,16,39.7,32.3,56.6,47.3c16.8,14.8,32.9,28.4,52,40.9c8.9,5.8,18.3,11.2,28.2,16.5
					c12.3,6.6,25.4,13.3,38.3,22.7c13,9.4,25.6,22.1,33.7,34.9"/>
				<path class="st24" d="M-66.8,123c20,2.2,46.1-8.2,81.4-13.5c21.8-3.3,47.3-5.2,71.8-6.5c20.7-1.1,42.2-0.5,63.6,3.3
					c8.2,1.4,16.4,3.3,24.1,6.4c18.3,7.4,32.3,20.3,43.9,31.6c3.4,3.3,6.7,6.6,9.8,9.9c6.6,6.9,12.5,13.9,18.4,21.6
					c2.3,3.1,5,6.5,7.9,10.3c5.2,6.7,11.6,14.1,20.2,18.5c9.6,4.9,17.5,3.5,23.7,2.3c2.3-0.4,4.3-0.8,6.1-1.1
					c5.2-0.9,9.4-1.3,13.5-1.7c4.1-0.5,8.2-0.8,12.4-1.2c10.7-0.8,22.4-2.6,42.6,3.7c12.5,3.9,27.9,11.7,44.4,21.7
					c10.7,6.5,21.5,13.5,31.8,21.3c21.7,16.4,39.7,33.5,56.5,49.4c16.6,15.7,32.7,30.3,51.8,43.7c8.9,6.2,18.4,11.9,28.3,17.5
					c12.3,7,25.5,13.9,38.5,23.3c13,9.5,25.8,22,34.2,34.6"/>
				<path class="st25" d="M-76.7,118.3c19.8-1.1,45.4-14.3,80.7-21.6c21.6-4.5,47.1-7.2,71.8-8.9c20.8-1.4,42.4-0.7,64.1,3.4
					c8.3,1.5,16.5,3.6,24.3,7c18.4,8.1,32.3,21.9,43.8,34.2c3.4,3.6,6.6,7.2,9.6,10.8c6.5,7.6,12.3,15.1,18,23.4
					c2.3,3.3,4.9,7,7.7,11c5.1,7.1,11.4,14.8,20.1,19.3c9.6,5,17.6,3.2,23.7,1.5c2.3-0.6,4.3-1.2,6-1.7c5.1-1.5,9.3-2.5,13.4-3.6
					c4.1-1.1,8.2-2.1,12.4-3.1c10.6-2.4,22.4-6,42.7-0.7c12.6,3.3,28.2,10.7,44.9,20.5c10.8,6.4,21.7,13.5,32,21.5
					c21.8,16.8,39.7,34.8,56.4,51.6c16.5,16.6,32.5,32.2,51.7,46.4c8.9,6.6,18.4,12.6,28.4,18.4c12.4,7.3,25.6,14.4,38.7,23.9
					c13.1,9.5,26,21.9,34.8,34.3"/>
				<path class="st26" d="M-86.9,114.2c19.7-4.4,44.8-20.4,80-29.7c21.4-5.7,46.9-9.3,71.9-11.2c20.9-1.6,42.6-1,64.5,3.5
					c8.3,1.7,16.7,3.9,24.5,7.6c18.5,8.7,32.4,23.5,43.7,36.8c3.3,3.9,6.5,7.8,9.5,11.6c6.4,8.2,12,16.3,17.6,25.1
					c2.2,3.5,4.7,7.4,7.5,11.7c5,7.5,11.3,15.5,20,20c9.7,5.1,17.6,3,23.8,0.8c2.3-0.8,4.3-1.6,6-2.3c5.1-2.2,9.3-3.8,13.3-5.5
					c4.1-1.7,8.2-3.4,12.3-5c10.6-4.1,22.3-9.3,42.8-5.1c12.7,2.6,28.5,9.7,45.3,19.4c10.9,6.3,21.9,13.6,32.2,21.7
					c21.9,17.2,39.6,36,56.3,53.8c16.4,17.6,32.3,34.2,51.5,49.1c9,7,18.5,13.3,28.5,19.4c12.4,7.6,25.7,15,38.9,24.5
					c13.2,9.6,26.3,21.8,35.3,34"/>
				<path class="st27" d="M-97.6,111.1c19.5-7.7,44.1-26.5,79.4-37.8C3,66.4,28.5,61.9,53.6,59.6c20.9-1.9,42.9-1.2,64.9,3.6
					c8.4,1.8,16.8,4.2,24.7,8.2c18.7,9.3,32.5,25.1,43.7,39.4c3.3,4.2,6.4,8.4,9.4,12.5c6.2,8.8,11.8,17.5,17.2,26.9
					c2.1,3.7,4.6,7.9,7.3,12.3c4.9,7.9,11.1,16.1,20,20.8c9.8,5.1,17.7,2.7,23.8,0c2.2-1,4.2-2,5.9-2.9c5-2.8,9.2-5,13.2-7.4
					c4.1-2.4,8.1-4.7,12.3-7c10.6-5.7,22.2-12.6,43-9.5c12.8,1.9,28.8,8.6,45.7,18.3c10.9,6.3,22,13.6,32.4,21.9
					c22,17.7,39.6,37.3,56.2,56c16.3,18.5,32.1,36.1,51.3,51.9c9,7.3,18.5,14,28.6,20.3c12.5,7.9,25.8,15.5,39.1,25.1
					c13.3,9.6,26.5,21.7,35.8,33.7"/>
				<path class="st28" d="M-108.7,108.9C-89.3,98-65.2,76.3-30,63c21.1-8,46.6-13.4,71.9-16c21-2.2,43.1-1.5,65.3,3.7
					c8.5,1.9,17,4.6,24.9,8.8c18.8,9.9,32.6,26.8,43.6,42c3.2,4.5,6.3,8.9,9.2,13.4c6.1,9.4,11.5,18.7,16.7,28.7
					c2,3.9,4.4,8.3,7.1,13c4.8,8.3,11,16.8,19.9,21.5c9.9,5.2,17.8,2.4,23.8-0.8c2.2-1.2,4.2-2.3,5.8-3.5c5-3.4,9.1-6.3,13.1-9.3
					c4.1-3,8.1-6,12.3-8.9c10.5-7.4,22.1-16,43.1-13.9c13,1.3,29.1,7.6,46.1,17.2c11,6.2,22.2,13.6,32.6,22.2
					c22.1,18.1,39.6,38.5,56.1,58.2c16.2,19.4,31.9,38.1,51.1,54.6c9,7.7,18.6,14.7,28.7,21.3c12.5,8.2,26,16.1,39.3,25.7
					c13.4,9.7,26.7,21.6,36.3,33.4"/>
				<path class="st29" d="M-120.1,107.8c19.2-14.2,42.9-38.6,78-54c20.9-9.2,46.4-15.4,71.9-18.4c21.1-2.4,43.3-1.7,65.7,3.8
					c8.5,2.1,17.1,4.9,25.1,9.3c18.9,10.6,32.7,28.4,43.6,44.6c3.2,4.8,6.2,9.5,9.1,14.2c6,10,11.3,19.9,16.3,30.5
					c2,4.1,4.3,8.8,6.9,13.6c4.7,8.6,10.8,17.5,19.8,22.3c9.9,5.3,17.9,2.2,23.9-1.6c2.2-1.4,4.2-2.7,5.8-4.1c4.9-4,9-7.6,13.1-11.2
					c4.1-3.7,8.1-7.3,12.3-10.9c10.5-9,22.1-19.3,43.2-18.3c13.1,0.6,29.4,6.5,46.5,16c11.1,6.2,22.3,13.6,32.8,22.4
					c22.2,18.5,39.6,39.7,56,60.4c16.1,20.3,31.7,40,51,57.3c9,8.1,18.6,15.4,28.8,22.3c12.6,8.6,26.1,16.6,39.5,26.3
					c13.5,9.7,26.9,21.5,36.9,33.2"/>
				<path class="st30" d="M-132,107.9c19.1-17.5,42.3-44.7,77.4-62.1C-33.9,35.5-8.4,28.3,17.3,25c21.2-2.7,43.5-2,66.2,3.9
					c8.6,2.2,17.3,5.2,25.3,9.9c19.1,11.2,32.8,30,43.5,47.2c3.2,5,6.1,10.1,8.9,15.1c5.9,10.6,11,21.2,15.9,32.3
					c1.9,4.3,4.1,9.2,6.7,14.3c4.6,9,10.7,18.2,19.7,23c10,5.4,17.9,1.9,23.9-2.3c2.2-1.5,4.1-3.1,5.7-4.7c4.8-4.6,9-8.8,13-13.1
					c4.1-4.3,8.1-8.6,12.2-12.8c10.5-10.7,22-22.6,43.4-22.7c13.2,0,29.7,5.5,46.9,14.9c11.2,6.1,22.5,13.7,33,22.6
					c22.3,18.9,39.6,41,55.9,62.6c16,21.2,31.5,41.9,50.8,60.1c9,8.5,18.7,16.1,28.9,23.2c12.7,8.9,26.2,17.1,39.7,26.8
					c13.6,9.8,27.1,21.4,37.4,32.9"/>
				<path class="st31" d="M-144.1,109.5c18.9-20.8,41.7-50.7,76.7-70.3c20.6-11.4,46.1-19.5,71.9-23.1c21.3-3,43.8-2.2,66.6,4
					c8.7,2.3,17.4,5.5,25.5,10.5c19.2,11.8,32.8,31.6,43.5,49.8c3.1,5.3,6.1,10.7,8.8,16c5.8,11.2,10.8,22.4,15.5,34.1
					c1.8,4.5,4,9.7,6.5,14.9c4.5,9.4,10.6,18.9,19.6,23.8c10.1,5.4,18,1.6,23.9-3.1c2.2-1.7,4.1-3.5,5.7-5.2
					c4.8-5.2,8.9-10.1,12.9-15c4.1-5,8.1-9.9,12.2-14.7c10.4-12.3,21.9-25.9,43.5-27c13.3-0.7,30,4.5,47.3,13.8
					c11.3,6.1,22.6,13.7,33.2,22.8c22.4,19.4,39.5,42.2,55.8,64.8c15.9,22.1,31.3,43.9,50.6,62.8c9,8.9,18.7,16.8,29,24.2
					c12.7,9.2,26.3,17.7,40,27.4c13.7,9.8,27.3,21.3,37.9,32.6"/>
				<path class="st32" d="M-155.9,113.7c18.8-24.1,41.1-56.8,76.1-78.4C-59.4,22.7-33.9,13.8-7.9,9.9c21.3-3.2,44-2.4,67,4.1
					c8.8,2.5,17.6,5.8,25.7,11.1c19.3,12.4,32.9,33.3,43.4,52.4c3.1,5.6,6,11.2,8.7,16.8c5.7,11.8,10.6,23.6,15,35.8
					c1.7,4.7,3.8,10.1,6.3,15.6c4.4,9.8,10.4,19.6,19.5,24.5c10.1,5.5,18.1,1.4,24-3.9c2.2-1.9,4.1-3.9,5.6-5.8
					c4.7-5.8,8.8-11.3,12.8-16.9c4-5.6,8.1-11.2,12.2-16.7c10.4-14,21.9-29.3,43.6-31.4c13.4-1.3,30.3,3.4,47.8,12.7
					c11.3,6,22.8,13.7,33.4,23c22.4,19.8,39.5,43.5,55.7,66.9c15.8,23,31.1,45.8,50.4,65.5c9.1,9.2,18.8,17.5,29.1,25.1
					c12.8,9.5,26.5,18.2,40.2,28c13.8,9.8,27.5,21.1,38.4,32.3"/>
				<path class="st33" d="M-167.8,119.7c18.6-27.4,40.5-62.8,75.4-86.5C-72.1,19.6-46.6,9.7-20.4,5.4C1,2,23.8,2.8,47.1,9.7
					c8.8,2.6,17.7,6.1,25.9,11.7c19.5,13.1,33,34.9,43.3,55c3,5.9,5.9,11.8,8.5,17.7c5.6,12.4,10.3,24.8,14.6,37.6
					c1.7,5,3.7,10.6,6.1,16.2c4.3,10.2,10.3,20.3,19.5,25.3c10.2,5.6,18.1,1.1,24-4.7c2.1-2.1,4-4.3,5.5-6.4
					c4.7-6.5,8.7-12.6,12.7-18.7c4-6.3,8.1-12.4,12.1-18.6c10.4-15.6,21.8-32.6,43.8-35.8c13.5-2,30.6,2.4,48.2,11.5
					c11.4,5.9,22.9,13.7,33.6,23.3c22.5,20.2,39.5,44.7,55.6,69.1c15.7,23.9,30.9,47.7,50.3,68.3c9.1,9.6,18.8,18.2,29.2,26.1
					c12.8,9.8,26.6,18.8,40.4,28.6c13.9,9.9,27.7,21,39,32"/>
				<path class="st34" d="M-179.8,127.7c18.5-30.7,39.9-68.8,74.8-94.6C-85,18.2-59.5,7.5-33.1,2.9C-11.6-0.9,11.3,0,34.8,7.3
					c8.9,2.7,17.8,6.5,26.1,12.3C80.5,33.2,94,56,104.2,77.1c3,6.2,5.8,12.4,8.4,18.5c5.5,13,10.1,26,14.2,39.4
					c1.6,5.2,3.5,11,5.9,16.9c4.3,10.6,10.1,20.9,19.4,26c10.3,5.7,18.2,0.8,24-5.4c2.1-2.3,4-4.7,5.5-7c4.6-7.1,8.6-13.8,12.6-20.6
					c4-6.9,8-13.7,12.1-20.5c10.3-17.3,21.7-35.9,43.9-40.2c13.6-2.6,30.9,1.3,48.6,10.4c11.5,5.9,23.1,13.8,33.8,23.5
					c22.6,20.6,39.5,46,55.4,71.3c15.6,24.8,30.7,49.7,50.1,71c9.1,10,18.9,18.8,29.3,27c12.9,10.2,26.7,19.3,40.6,29.2
					c14,9.9,28,20.9,39.5,31.8"/>
				<path class="st35" d="M-192.2,137.5c18.3-33.9,39.4-74.8,74.1-102.7c20-16,45.4-27.6,72-32.6c21.6-4,44.7-3.2,68.3,4.5
					c9,2.9,18,6.8,26.3,12.8c19.7,14.3,33.2,38.1,43.2,60.2c2.9,6.5,5.7,12.9,8.2,19.4c5.4,13.7,9.9,27.3,13.7,41.2
					c1.5,5.4,3.4,11.5,5.7,17.5c4.2,11,10,21.6,19.3,26.8c10.4,5.8,18.3,0.6,24.1-6.2c2.1-2.5,3.9-5.1,5.4-7.6
					c4.5-7.7,8.6-15.1,12.5-22.5c4-7.5,8-15,12.1-22.5c10.3-18.9,21.7-39.2,44-44.6c13.7-3.3,31.1,0.3,49,9.3
					c11.6,5.8,23.2,13.8,34,23.7c22.7,21,39.5,47.2,55.3,73.5c15.5,25.7,30.4,51.7,49.9,73.7c9.1,10.4,19,19.5,29.4,28
					c13,10.5,26.8,19.9,40.8,29.8c14.1,10,28.2,20.8,40,31.5"/>
				<path class="st36" d="M-204.7,149.4c18.2-37.2,38.8-80.8,73.5-110.8c19.8-17.1,45.2-29.7,72-35c21.7-4.3,44.9-3.4,68.7,4.6
					c9,3,18.1,7.1,26.5,13.4c19.9,14.9,33.3,39.8,43.2,62.8c2.9,6.8,5.6,13.5,8.1,20.3c5.3,14.3,9.6,28.5,13.3,43
					c1.4,5.6,3.2,11.9,5.4,18.2c4.1,11.3,9.8,22.3,19.2,27.6c10.4,5.8,18.4,0.3,24.1-7c2.1-2.6,3.9-5.5,5.4-8.2
					c4.5-8.3,8.5-16.3,12.4-24.4c4-8.2,8-16.3,12-24.4c10.3-20.5,21.6-42.6,44.2-49c13.8-3.9,31.4-0.7,49.4,8.2
					c11.7,5.8,23.4,13.8,34.2,23.9c22.8,21.5,39.5,48.5,55.2,75.7c15.4,26.7,30.2,53.6,49.7,76.5c9.1,10.8,19,20.2,29.5,28.9
					c13,10.8,27,20.4,41,30.4c14.1,10,28.4,20.7,40.5,31.2"/>
				<path class="st37" d="M-217.6,163.3c18-40.5,38.2-86.8,72.8-118.9c19.7-18.3,45-31.7,72-37.3C-51,2.5-27.6,3.4-3.6,11.8
					c9.1,3.2,18.3,7.4,26.7,14c20,15.6,33.3,41.4,43.1,65.4c2.9,7,5.5,14.1,8,21.1c5.2,14.9,9.4,29.7,12.9,44.7
					c1.4,5.8,3.1,12.4,5.2,18.8c4,11.7,9.7,23,19.1,28.3c10.5,5.9,18.4,0,24.1-7.8c2.1-2.8,3.9-5.9,5.3-8.8
					c4.4-8.9,8.4-17.6,12.4-26.3c4-8.8,8-17.6,12-26.3c10.2-22.2,21.5-45.9,44.3-53.4c14-4.6,31.7-1.8,49.9,7
					c11.7,5.7,23.5,13.8,34.3,24.2c22.9,21.9,39.4,49.7,55.1,77.9c15.3,27.6,30,55.5,49.6,79.2c9.1,11.1,19.1,20.9,29.6,29.9
					c13.1,11.1,27.1,20.9,41.2,31c14.2,10.1,28.6,20.6,41.1,30.9"/>
				<path class="st38" d="M-230.7,179.4c17.9-43.8,37.7-92.8,72.2-127c19.6-19.4,44.8-33.7,72-39.7c21.8-4.8,45.4-3.9,69.6,4.8
					c9.2,3.3,18.4,7.7,26.9,14.6c20.1,16.2,33.4,43,43.1,68c2.8,7.3,5.4,14.7,7.8,22C66,137.5,70,153,73.4,168.6
					c1.3,6,2.9,12.8,5,19.5c3.9,12.1,9.6,23.7,19,29.1c10.6,6,18.5-0.2,24.2-8.5c2.1-3,3.8-6.3,5.3-9.4c4.3-9.5,8.3-18.8,12.3-28.2
					c4-9.5,8-18.9,12-28.3c10.2-23.8,21.5-49.2,44.4-57.8c14.1-5.3,32-2.8,50.3,5.9c11.8,5.6,23.7,13.8,34.5,24.4
					c23,22.3,39.4,50.9,55,80.1c15.2,28.5,29.8,57.5,49.4,81.9c9.1,11.5,19.1,21.6,29.7,30.8c13.1,11.5,27.2,21.5,41.5,31.6
					c14.3,10.1,28.8,20.5,41.6,30.6"/>
				<path class="st39" d="M-244,197.7c17.7-47.1,37.2-98.8,71.5-135.1c19.4-20.5,44.7-35.8,72-42.1c21.9-5.1,45.6-4.2,70,4.9
					c9.2,3.4,18.6,8,27.1,15.2c20.3,16.8,33.5,44.6,43,70.5c2.8,7.6,5.3,15.2,7.7,22.9c5,16.1,8.9,32.2,12,48.3
					c1.2,6.3,2.8,13.3,4.8,20.1c3.8,12.5,9.4,24.4,19,29.8c10.6,6.1,18.6-0.5,24.2-9.3c2-3.2,3.8-6.7,5.2-10
					c4.3-10.1,8.2-20.1,12.2-30.1c4-10.1,8-20.2,12-30.2c10.2-25.5,21.4-52.5,44.6-62.2c14.2-5.9,32.3-3.8,50.7,4.8
					c11.9,5.6,23.8,13.9,34.7,24.6c23.1,22.7,39.4,52.2,54.9,82.3c15.2,29.4,29.6,59.4,49.2,84.7c9.2,11.9,19.2,22.3,29.8,31.8
					c13.2,11.8,27.3,22,41.7,32.2c14.4,10.2,29,20.4,42.1,30.3"/>
				<path class="st40" d="M-257.7,218.5c17.5-50.4,36.6-104.8,70.9-143.2c19.3-21.7,44.5-37.8,72-44.4c22-5.3,45.9-4.4,70.4,5
					c9.3,3.6,18.7,8.3,27.3,15.7c20.4,17.4,33.6,46.3,43,73.1c2.7,7.9,5.3,15.8,7.6,23.7c4.8,16.7,8.7,33.4,11.6,50.1
					c1.1,6.5,2.6,13.7,4.6,20.8c3.7,12.9,9.3,25.1,18.9,30.6c10.7,6.1,18.7-0.8,24.2-10.1c2-3.4,3.7-7.1,5.1-10.6
					c4.2-10.8,8.2-21.3,12.1-32c4-10.7,7.9-21.5,11.9-32.2c10.1-27.1,21.3-55.8,44.7-66.5c14.3-6.6,32.6-4.9,51.1,3.7
					c12,5.5,24,13.9,34.9,24.8c23.2,23.2,39.4,53.4,54.8,84.5c15.1,30.3,29.4,61.3,49,87.4c9.2,12.3,19.2,23,29.9,32.7
					c13.3,12.1,27.5,22.6,41.9,32.7c14.5,10.2,29.2,20.3,42.7,30.1"/>
				<path class="st41" d="M-271.6,241.7c17.4-53.7,36.1-110.8,70.2-151.3c19.2-22.8,44.3-39.7,72-46.8c22.1-5.5,46.1-4.6,70.9,5.1
					c9.4,3.7,18.9,8.7,27.5,16.3c20.5,18.1,33.7,47.9,42.9,75.7c2.7,8.2,5.2,16.4,7.4,24.6c4.7,17.3,8.4,34.6,11.2,51.9
					c1.1,6.7,2.5,14.2,4.4,21.5c3.6,13.2,9.1,25.8,18.8,31.3c10.8,6.2,18.7-1,24.3-10.9c2-3.6,3.7-7.4,5.1-11.2
					c4.1-11.4,8.1-22.6,12-33.9c4-11.4,7.9-22.7,11.9-34.1c10.1-28.8,21.3-59.1,44.8-70.9c14.4-7.2,32.9-5.9,51.5,2.5
					c12.1,5.5,24.1,13.9,35.1,25c23.2,23.6,39.4,54.7,54.7,86.7c15,31.2,29.2,63.3,48.9,90.2c9.2,12.6,19.3,23.7,30,33.7
					c13.3,12.4,27.6,23.1,42.1,33.3c14.6,10.3,29.4,20.1,43.2,29.8"/>
				<path class="st42" d="M-285.7,267.4c17.2-56.9,35.6-116.8,69.5-159.4c19.1-23.9,44.2-41.8,72.1-49.2c22.2-5.8,46.3-4.9,71.3,5.2
					c9.5,3.8,19,9,27.7,16.9c20.7,18.7,33.8,49.5,42.8,78.3c2.7,8.5,5.1,17,7.3,25.4c4.6,17.9,8.2,35.8,10.8,53.7
					c1,6.9,2.3,14.6,4.2,22.1c3.5,13.6,9,26.4,18.7,32.1c10.9,6.3,18.8-1.3,24.3-11.6c2-3.7,3.7-7.8,5-11.8c4.1-12,8-23.9,11.9-35.7
					c4-12,7.9-24,11.9-36c10.1-30.4,21.2-62.4,45-75.3c14.5-7.8,33.2-7,52,1.4c12.1,5.4,24.3,13.9,35.3,25.3
					c23.3,24,39.4,55.9,54.6,88.9c14.9,32.1,29,65.2,48.7,92.9c9.2,13,19.3,24.4,30.1,34.6c13.4,12.7,27.7,23.7,42.3,33.9
					c14.7,10.3,29.6,20,43.7,29.5"/>
				<path class="st43" d="M-300.1,295.9C-283,235.6-265,173-231.2,128.4c19-25.1,44-43.8,72.1-51.5c22.2-6,46.5-5.1,71.7,5.3
					c9.5,4,19.2,9.3,28,17.5c20.8,19.3,33.9,51.1,42.8,80.9c2.6,8.8,5,17.5,7.1,26.3c4.5,18.5,8,37.1,10.3,55.4
					c0.9,7.1,2.1,15.1,4,22.8c3.3,14,8.8,27.1,18.6,32.8c10.9,6.4,18.9-1.6,24.3-12.4c2-3.9,3.6-8.2,5-12.4
					c4-12.6,7.9-25.1,11.8-37.6c3.9-12.7,7.9-25.3,11.9-38c10-32.1,21.2-65.7,45.1-79.7c14.6-8.5,33.5-8,52.4,0.3
					c12.2,5.4,24.4,14,35.5,25.5c23.4,24.4,39.4,57.2,54.5,91c14.8,33,28.8,67.1,48.5,95.6c9.2,13.4,19.4,25.1,30.2,35.6
					c13.4,13.1,27.8,24.2,42.5,34.5c14.8,10.4,29.9,19.9,44.2,29.2"/>
				<path class="st44" d="M-314.8,327.1c16.9-63.5,34.6-128.8,68.2-175.6c18.9-26.2,43.8-45.9,72.1-53.9c22.3-6.3,46.8-5.4,72.1,5.4
					c9.6,4.1,19.3,9.6,28.1,18.1c20.9,19.9,33.9,52.8,42.7,83.5c2.6,9,4.9,18.1,7,27.2c4.4,19.1,7.7,38.3,9.9,57.2
					c0.8,7.3,2,15.5,3.8,23.4C-7.5,326.8-2,340.2,7.8,346c11,6.4,19-1.8,24.4-13.2c2-4.1,3.6-8.6,4.9-13
					c3.9-13.2,7.9-26.4,11.8-39.5c3.9-13.3,7.9-26.6,11.8-39.9c10-33.7,21.1-69.1,45.2-84.1c14.8-9.1,33.8-9,52.8-0.8
					c12.3,5.3,24.6,14,35.7,25.7c23.5,24.8,39.4,58.4,54.4,93.2c14.7,34,28.6,69.1,48.3,98.4c9.3,13.8,19.4,25.8,30.3,36.5
					c13.5,13.4,28,24.8,42.7,35.1c14.9,10.4,30.1,19.8,44.8,28.9"/>
				<path class="st45" d="M-329.7,361.2c16.8-66.8,34.1-134.8,67.6-183.7c33.5-48.9,86.6-76.1,144.7-50.7
					c9.7,4.2,19.4,9.9,28.3,18.6c21.1,20.6,34,54.4,42.7,86.1c7.9,29,13.4,58.3,16.4,87c2.2,21.3,6.7,49.4,22.1,58.4
					c15.1,8.9,24.4-10.4,29.3-27.5c7.8-27.7,15.6-55.5,23.5-83.2c10-35.4,21-72.4,45.4-88.5c24.5-16.2,60.7-6.4,89.1,24
					c46.7,49.9,62.5,135.6,102.4,196.5c32.5,49.6,76.8,76.9,118.6,101.8"/>
			</g>
		</g>
	</g>
</g>
</svg>
