<?xml version="1.0" encoding="utf-8"?>
<!-- Generator: Adobe Illustrator 25.3.1, SVG Export Plug-In . SVG Version: 6.00 Build 0)  -->
<svg version="1.1" id="圖層_1" xmlns="http://www.w3.org/2000/svg" xmlns:xlink="http://www.w3.org/1999/xlink" x="0px" y="0px"
	 viewBox="0 0 992 1280" style="enable-background:new 0 0 992 1280;" xml:space="preserve">
<style type="text/css">
	.st0{fill:none;}
	.st1{fill:#FFFFFF;}
	.st2{opacity:0.5;}
	.st3{opacity:0.5;fill:#A1BFBA;enable-background:new    ;}
	.st4{opacity:0.3;fill:#FFFFFF;enable-background:new    ;}
	.st5{opacity:0.4;fill:#FFFFFF;enable-background:new    ;}
	.st6{fill:#D5D5D5;}
	.st7{opacity:0.4;}
	.st8{fill:#93AEB7;}
	.st9{fill:#EEEBE8;}
	.st10{fill:#7C8184;}
	.st11{fill:#E2E1E1;}
	.st12{fill:#77848B;}
	.st13{fill:#E8EEF2;}
	.st14{fill:#B6BDC2;}
	.st15{fill:#4F2B2B;}
	.st16{fill:#EAE0D7;}
	.st17{fill:#C6AF9B;}
	.st18{fill:#A19387;}
	.st19{fill:#5D4731;}
	.st20{fill:#AAA9A9;}
	.st21{fill:#A35C4E;}
	.st22{fill:#DDC7C4;}
	.st23{opacity:0.74;fill:#767777;enable-background:new    ;}
	.st24{fill:#C4A664;}
	.st25{opacity:0.4;fill:#C1C0C0;enable-background:new    ;}
	.st26{fill:#E3E3E3;}
	.st27{fill:#DBDBDB;}
	.st28{opacity:0.15;}
	.st29{fill:#E8EDF1;}
	.st30{fill:#FF808F;}
	.st31{fill:#E66A70;}
	.st32{fill:#A9505B;}
	.st33{fill:#C35C64;}
	.st34{fill:#F67680;}
</style>
<g>
	<g>
		<g>
			<g>
				<rect x="13.5" y="34.1" class="st0" width="959.9" height="1221.5"/>
				<rect class="st1" width="992" height="1280"/>
			</g>
		</g>
	</g>
</g>
<g>
	<g>
		<g>
			<g>
				<rect x="4.9" y="9.6" class="st0" width="980.5" height="1257.5"/>
				<g class="st2">
					<rect x="3" class="st3" width="993" height="1280"/>
					<polygon class="st4" points="336.8,1275.1 -4,1275.1 342.9,0.7 683.7,0.7 					"/>
					<polygon class="st5" points="495.4,1275.1 370.1,1275.1 717,0.7 842.3,0.7 					"/>
					<polygon class="st5" points="616.6,1275.1 531.5,1275.1 878.4,0.7 963.5,0.7 					"/>
					<polygon class="st5" points="3,982.1 270.2,0.7 185.2,0.7 3,669.8 					"/>
				</g>
			</g>
		</g>
	</g>
</g>
<rect x="1.2" y="1.2" class="st0" width="990.8" height="557.3"/>
<g>
	<g>
		<path class="st6" d="M994.1,482.9c-0.4,0.1-0.9,0.1-1.3,0.1H322.4c1.5-3.7,1.2-8.3-0.8-11.6c-2-3.3-5.4-5.1-9.5-5.1
			c-1.4,0-2.7,0.2-3.9,0.6v-618.1H307v619.8l0.7-0.3c1.3-0.6,2.7-0.8,4.2-0.8c3.7,0,6.7,1.6,8.5,4.5c2,3.3,2.2,7.9,0.4,11.4
			l-0.4,0.8h672.2c0.4,0,0.9-0.1,1.3-0.1v-1.2H994.1z"/>
	</g>
</g>
<g>
	<g>
		<path class="st6" d="M163.9-151.3v618.1c-1.2-0.4-2.5-0.6-3.9-0.6c-4.1,0-7.5,1.8-9.5,5.1c-2,3.3-2.4,7.9-0.8,11.6H1.2v1.1h150.3
			l-0.4-0.8c-1.8-3.5-1.6-8,0.4-11.4c1.8-2.9,4.8-4.5,8.5-4.5c1.5,0,3,0.2,4.2,0.8l0.7,0.3v-619.7H163.9z"/>
	</g>
</g>
<g class="st7">
	<rect x="176" y="1.2" class="st8" width="115.3" height="1273.8"/>
</g>
<g class="st7">
	<rect x="642.7" y="1.2" class="st8" width="263.3" height="1273.8"/>
</g>
<g>
	<rect x="444.7" y="1.5" class="st9" width="10" height="1273.6"/>
</g>
<g>
	<rect x="65.8" y="1.4" class="st9" width="8.5" height="1273.8"/>
</g>
<rect x="1.2" y="1.2" class="st0" width="990.8" height="557.3"/>
<g>
	<rect x="622.6" y="1.4" class="st9" width="8.5" height="1273.8"/>
</g>
<g>
	<rect x="917.1" y="1.5" class="st9" width="10" height="1273.6"/>
</g>
<g>
	<polyline class="st9" points="385.3,1394 992,1394 992,587.5 991.5,587.5 991.5,555 0.6,555 0.7,1391.5 	"/>
	<rect y="499" class="st9" width="990.4" height="11.4"/>
	<rect x="0.6" y="518.2" class="st9" width="989.5" height="10.2"/>
	<rect y="538.6" class="st9" width="990.7" height="10.2"/>
</g>
<rect x="1.2" y="1.2" class="st0" width="990.8" height="557.3"/>
<rect x="1.2" y="1.2" class="st0" width="990.8" height="557.3"/>
<g>
	<g>
		<g>
			<g>
				<path class="st10" d="M678.9,215c0,0,34-3,71.6,1.2l-27.9,4.1l-34.5-2L678.9,215z"/>
				<path class="st11" d="M678.9,215c0,0,15.8,4.9,71.6,1.2c0,0,0.5,9.5-36.8,8.8C678.2,224.2,678.9,215,678.9,215z"/>
			</g>
			<g>
				<path class="st10" d="M678.9,207.3c0,0,34-3,71.6,1.2l-27.9,4.1l-34.5-2L678.9,207.3z"/>
				<path class="st11" d="M678.9,207.3c0,0,15.8,4.9,71.6,1.2c0,0,0.5,9.5-36.8,8.8C678.2,216.6,678.9,207.3,678.9,207.3z"/>
			</g>
			<g>
				<path class="st10" d="M678.9,199.5c0,0,34-2.9,71.6,1.2l-27.9,4.1l-34.5-2L678.9,199.5z"/>
				<path class="st11" d="M678.9,199.5c0,0,15.8,4.9,71.6,1.2c0,0,0.5,9.5-36.8,8.8C678.2,208.7,678.9,199.5,678.9,199.5z"/>
			</g>
		</g>
		<polygon class="st8" points="882.9,233.5 683.1,233.5 681.3,224.8 882.9,224.8 		"/>
		<g>
			<g>
				<g>
					<path class="st12" d="M700.4,231.1c0,0,3.7,15.1,1.4,29.8l-5.6-15.3L700.4,231.1z"/>
					<path class="st13" d="M700.4,231.1c-0.2,0-0.3,0-0.5,0.1l-0.5-3l-0.1-0.3c-0.4-0.8-1.5-2-3.7-1.6c-0.1,0-0.3,0-0.5,0
						c-2,0.1-6.3,1.1-6.9,3.7c0,0.2,0,0.4,0.1,1.5c0,0.9,0.2,1.9,0.6,2.9c-1.6,1.1-3,2.6-3.9,4.5s-1.3,5.6-1.2,7.8
						c0.1,1.5,0.5,4.6,1,5.9c2.4,6,9.1,8.5,17,8.2c0,0-1.8-3.7-2.2-14.8C698.9,234.9,700.4,231.1,700.4,231.1z M690.4,230.4
						c0-0.2,0.6-1.6,4.7-1.8c0.5,0,0.8-0.1,0.8-0.1c0.7-0.1,1.1,0.1,1.1,0.2l0.5,2.6c-2.5,0.3-4.8,0.9-6.8,1.9
						C690.3,232.2,690.3,231,690.4,230.4z"/>
					<g>
						<path class="st14" d="M700.7,257.5c-6.5-0.6-11-3.3-13.2-8.7c-0.6-1.4-1.1-4.7-1.1-6.4c-0.1-1.8,0.2-4.3,0.6-6.5
							c-0.8,0.8-1.5,1.8-2.1,2.9c-0.9,1.9-1.3,5.6-1.2,7.8c0.1,1.5,0.5,4.6,1,5.9c2.4,6,9.1,8.5,17,8.2L700.7,257.5z"/>
					</g>
				</g>
				<path class="st15" d="M695.6,230.4c0,0.8-0.7,1.4-1.4,1.4s-1.4-0.6-1.4-1.4c0-0.8,0.6-1.4,1.4-1.4
					C694.9,229,695.6,229.6,695.6,230.4z"/>
			</g>
			<g>
				<g>
					<path class="st12" d="M723.5,229.9c0,0,9,12.7,12.1,27.3L724.8,245L723.5,229.9z"/>
					<path class="st13" d="M723.5,229.9c-0.2,0.1-0.3,0.2-0.5,0.2l-1.5-2.6l-0.2-0.2c-0.6-0.6-2.1-1.3-4.1-0.2
						c-0.1,0.1-0.2,0.2-0.5,0.2c-1.8,0.8-5.6,3.3-5.1,5.9c0,0.2,0.2,0.4,0.6,1.4c0.4,0.8,0.9,1.8,1.7,2.4c-1.1,1.7-1.8,3.5-2,5.6
						c-0.2,2.1,0.8,5.8,1.7,7.8c0.6,1.4,2.1,4.1,3.1,5.2c4.4,4.7,11.6,4.6,18.8,1.5c0,0-3-2.9-7.5-13
						C723.6,233.9,723.5,229.9,723.5,229.9z M714,232.8c0-0.2,0-1.7,3.7-3.4c0.5-0.2,0.7-0.3,0.8-0.4c0.6-0.4,1-0.3,1.1-0.2l1.3,2.3
						c-2.2,1.2-4.1,2.6-5.6,4.2C714.6,234.5,714.1,233.5,714,232.8z"/>
					<g>
						<path class="st14" d="M733.5,254.3c-6.3,1.8-11.5,0.9-15.4-3.3c-1.1-1.1-2.7-4-3.3-5.6c-0.7-1.6-1.4-4.1-1.8-6.2
							c-0.5,1.1-0.8,2.2-0.8,3.5c-0.2,2.1,0.8,5.8,1.7,7.8c0.6,1.4,2.1,4.1,3.1,5.2c4.4,4.7,11.6,4.6,18.8,1.5L733.5,254.3z"/>
					</g>
				</g>
				<path class="st15" d="M720.2,230.4c0,0.8-0.7,1.4-1.4,1.4s-1.4-0.6-1.4-1.4c0-0.8,0.6-1.4,1.4-1.4
					C719.6,229,720.2,229.6,720.2,230.4z"/>
			</g>
			<g>
				<g>
					<path class="st12" d="M809.3,231.1c0,0,3.7,15.1,1.4,29.8l-5.6-15.3L809.3,231.1z"/>
					<path class="st13" d="M809.3,231.1c-0.2,0-0.3,0-0.5,0.1l-0.5-3l-0.1-0.3c-0.4-0.8-1.5-2-3.7-1.6c-0.1,0-0.3,0-0.5,0
						c-2,0.1-6.3,1.1-6.9,3.7c0,0.2,0,0.4,0.1,1.5c0.1,0.9,0.2,1.9,0.6,2.9c-1.7,1.1-3,2.6-3.9,4.5s-1.4,5.6-1.2,7.8
						c0.1,1.5,0.5,4.6,1.1,5.9c2.4,6,9.1,8.5,17,8.2c0,0-1.8-3.7-2.2-14.8C807.9,234.9,809.3,231.1,809.3,231.1z M799.4,230.4
						c0-0.2,0.6-1.6,4.7-1.8c0.5,0,0.8-0.1,0.8-0.1c0.7-0.1,1.1,0.1,1.1,0.2l0.5,2.6c-2.5,0.3-4.8,0.9-6.7,1.9
						C799.3,232.2,799.3,231,799.4,230.4z"/>
					<g>
						<path class="st14" d="M809.7,257.5c-6.5-0.6-11-3.3-13.2-8.7c-0.6-1.4-1.1-4.7-1.1-6.4c-0.1-1.8,0.2-4.3,0.6-6.5
							c-0.8,0.8-1.5,1.8-2.1,2.9c-0.9,1.9-1.4,5.6-1.2,7.8c0.1,1.5,0.5,4.6,1.1,5.9c2.4,6,9.1,8.5,17,8.2L809.7,257.5z"/>
					</g>
				</g>
				<path class="st15" d="M804.6,230.4c0,0.8-0.6,1.4-1.4,1.4c-0.8,0-1.4-0.6-1.4-1.4c0-0.8,0.6-1.4,1.4-1.4
					C803.9,229,804.6,229.6,804.6,230.4z"/>
			</g>
			<g>
				<g>
					<path class="st12" d="M832.5,229.9c0,0,9,12.7,12,27.3L833.7,245L832.5,229.9z"/>
					<path class="st13" d="M832.5,229.9c-0.2,0.1-0.3,0.2-0.5,0.2l-1.5-2.6l-0.2-0.2c-0.6-0.6-2.1-1.3-4-0.2
						c-0.1,0.1-0.2,0.2-0.5,0.2c-1.8,0.8-5.6,3.3-5.1,5.9c0,0.2,0.2,0.4,0.6,1.4c0.4,0.8,0.9,1.8,1.7,2.4c-1.1,1.7-1.8,3.5-2,5.6
						c-0.2,2.1,0.8,5.8,1.7,7.8c0.6,1.4,2.1,4.1,3.1,5.2c4.5,4.7,11.6,4.6,18.7,1.5c0,0-3-2.9-7.5-13
						C832.6,233.9,832.5,229.9,832.5,229.9z M823,232.8c0-0.2,0-1.7,3.7-3.4c0.5-0.2,0.7-0.3,0.8-0.4c0.6-0.4,1-0.3,1.1-0.2l1.4,2.3
						c-2.2,1.2-4.1,2.6-5.6,4.2C823.6,234.5,823.1,233.5,823,232.8z"/>
					<g>
						<path class="st14" d="M842.5,254.3c-6.3,1.8-11.5,0.9-15.4-3.3c-1.1-1.1-2.7-4-3.3-5.6c-0.7-1.6-1.4-4.1-1.8-6.2
							c-0.5,1.1-0.8,2.2-0.8,3.5c-0.2,2.1,0.8,5.8,1.7,7.8c0.6,1.4,2.1,4.1,3.1,5.2c4.5,4.7,11.6,4.6,18.7,1.5L842.5,254.3z"/>
					</g>
				</g>
				<path class="st15" d="M829.2,230.4c0,0.8-0.7,1.4-1.4,1.4c-0.8,0-1.4-0.6-1.4-1.4c0-0.8,0.6-1.4,1.4-1.4
					C828.6,229,829.2,229.6,829.2,230.4z"/>
			</g>
			<g>
				<g>
					<path class="st12" d="M757.7,231.2c0,0,3,15.2-0.1,29.8l-4.9-15.5L757.7,231.2z"/>
					<path class="st13" d="M757.7,231.2c-0.2,0-0.3,0-0.5,0l-0.4-3l-0.1-0.3c-0.3-0.8-1.4-2.1-3.7-1.8c-0.1,0-0.3,0-0.5,0
						c-2,0-6.4,0.8-7.1,3.3c-0.1,0.2,0,0.4,0,1.6c0,0.9,0.2,2,0.5,2.9c-1.7,1.1-3.1,2.4-4,4.3c-1,1.9-1.6,5.6-1.6,7.8
						c0,1.5,0.2,4.6,0.8,5.9c2.1,6.1,8.8,9,16.5,9c0,0-1.6-3.8-1.5-15C756.2,234.9,757.7,231.2,757.7,231.2z M747.9,230
						c0-0.2,0.7-1.5,4.8-1.6c0.5,0,0.8,0,0.8,0c0.7-0.1,1,0.2,1.1,0.3l0.3,2.6c-2.5,0.2-4.8,0.7-6.8,1.6
						C747.7,231.8,747.8,230.6,747.9,230z"/>
					<g>
						<path class="st14" d="M756.9,257.6c-6.5-0.9-10.9-3.8-12.8-9.3c-0.5-1.5-0.8-4.8-0.8-6.5c0-1.8,0.4-4.3,1-6.4
							c-0.8,0.8-1.6,1.8-2.2,2.8c-1,1.9-1.6,5.6-1.6,7.8c0,1.5,0.2,4.6,0.8,5.9c2.1,6.1,8.8,9,16.5,9L756.9,257.6z"/>
					</g>
				</g>
				<path class="st15" d="M751.9,230.4c0,0.8-0.6,1.4-1.4,1.4c-0.8,0-1.4-0.6-1.4-1.4c0-0.8,0.6-1.4,1.4-1.4
					C751.2,229,751.9,229.6,751.9,230.4z"/>
			</g>
			<g>
				<g>
					<path class="st12" d="M784,231.2c0,0,3,15.2-0.1,29.8l-4.9-15.5L784,231.2z"/>
					<path class="st13" d="M784,231.2c-0.2,0-0.3,0-0.5,0l-0.4-3l-0.1-0.3c-0.3-0.8-1.4-2.1-3.7-1.8c-0.1,0-0.3,0-0.5,0
						c-2,0-6.4,0.8-7.1,3.4c-0.1,0.2,0,0.4,0,1.6c0,0.9,0.2,2,0.5,2.9c-1.7,1.1-3,2.5-4,4.3c-1,1.9-1.6,5.6-1.6,7.8
						c0,1.5,0.2,4.6,0.8,5.9c2.1,6.1,8.8,9,16.5,9c0,0-1.6-3.8-1.5-15C782.4,234.9,784,231.2,784,231.2z M774.1,230
						c0-0.2,0.7-1.6,4.8-1.6c0.5,0,0.8,0,0.8,0c0.7-0.1,1.1,0.2,1.1,0.2l0.3,2.6c-2.5,0.2-4.8,0.7-6.8,1.6
						C774,231.8,774,230.6,774.1,230z"/>
					<g>
						<path class="st14" d="M783.1,257.5c-6.5-0.9-10.9-3.9-12.8-9.3c-0.5-1.5-0.8-4.8-0.8-6.5c0-1.8,0.3-4.3,0.9-6.4
							c-0.8,0.8-1.6,1.8-2.2,2.8c-1,1.9-1.6,5.6-1.6,7.8c0,1.5,0.2,4.6,0.8,5.9c2.1,6.1,8.8,9,16.5,9L783.1,257.5z"/>
					</g>
				</g>
				<path class="st15" d="M778.9,230.4c0,0.8-0.7,1.4-1.4,1.4c-0.8,0-1.4-0.6-1.4-1.4c0-0.8,0.6-1.4,1.4-1.4
					C778.2,229,778.9,229.6,778.9,230.4z"/>
			</g>
		</g>
		<g>
			<g>
				<path class="st16" d="M857.9,197.1c0,1.5,0.8,2.7,1.8,2.7s1.8-1.2,1.8-2.7c0-1.5-0.8-2.7-1.8-2.7S857.9,195.6,857.9,197.1z"/>
				<path class="st17" d="M859.4,198.5c0,2,1.1,3.6,2.4,3.6c1.3,0,2.4-1.6,2.4-3.6s-1.1-3.6-2.4-3.6
					C860.6,194.9,859.4,196.5,859.4,198.5z"/>
				<path class="st18" d="M857.9,201.9c0,2,1.1,3.6,2.4,3.6c1.3,0,2.4-1.6,2.4-3.6s-1.1-3.6-2.4-3.6
					C859,198.2,857.9,199.9,857.9,201.9z"/>
				<path class="st16" d="M860.6,201c0,2,1.1,3.6,2.4,3.6c1.3,0,2.4-1.6,2.4-3.6s-1.1-3.6-2.4-3.6
					C861.6,197.5,860.6,199.1,860.6,201z"/>
				<path class="st17" d="M854.4,197.3c0,2,1.1,3.6,2.4,3.6c1.3,0,2.4-1.6,2.4-3.6s-1.1-3.6-2.4-3.6
					C855.5,193.7,854.4,195.3,854.4,197.3z"/>
				<path class="st16" d="M855.2,199.8c0,2,1.1,3.6,2.4,3.6c1.3,0,2.4-1.6,2.4-3.6c0-2-1.1-3.6-2.4-3.6
					C856.3,196.2,855.2,197.8,855.2,199.8z"/>
			</g>
			<g>
				<path class="st16" d="M850.5,197.1c0,1.5,0.8,2.7,1.8,2.7c1,0,1.8-1.2,1.8-2.7c0-1.5-0.8-2.7-1.8-2.7
					C851.3,194.3,850.5,195.6,850.5,197.1z"/>
				<path class="st17" d="M852,198.5c0,2,1.1,3.6,2.4,3.6c1.3,0,2.4-1.6,2.4-3.6s-1.1-3.6-2.4-3.6C853.1,194.9,852,196.5,852,198.5z
					"/>
				<path class="st18" d="M850.5,201.9c0,2,1.1,3.6,2.4,3.6c1.3,0,2.4-1.6,2.4-3.6s-1.1-3.6-2.4-3.6
					C851.6,198.2,850.5,199.9,850.5,201.9z"/>
				<path class="st16" d="M853.1,201c0,2,1.1,3.6,2.4,3.6c1.3,0,2.4-1.6,2.4-3.6s-1.1-3.6-2.4-3.6
					C854.2,197.5,853.1,199.1,853.1,201z"/>
				<path class="st17" d="M847,197.3c0,2,1.1,3.6,2.4,3.6c1.3,0,2.4-1.6,2.4-3.6s-1.1-3.6-2.4-3.6C848.1,193.7,847,195.3,847,197.3z
					"/>
				<path class="st16" d="M847.9,199.8c0,2,1.1,3.6,2.4,3.6c1.3,0,2.4-1.6,2.4-3.6c0-2-1.1-3.6-2.4-3.6
					C848.9,196.2,847.9,197.8,847.9,199.8z"/>
			</g>
			<g>
				<path class="st16" d="M846.9,197.3c0,1.5,0.8,2.7,1.8,2.7c1,0,1.8-1.2,1.8-2.7c0-1.5-0.8-2.7-1.8-2.7
					C847.7,194.6,846.9,195.8,846.9,197.3z"/>
				<path class="st17" d="M848.5,198.7c0,2,1.1,3.6,2.4,3.6c1.3,0,2.4-1.6,2.4-3.6s-1.1-3.6-2.4-3.6
					C849.5,195.1,848.5,196.8,848.5,198.7z"/>
				<path class="st18" d="M846.9,202.1c0,2,1.1,3.6,2.4,3.6c1.3,0,2.4-1.6,2.4-3.6s-1.1-3.6-2.4-3.6
					C847.9,198.4,846.9,200,846.9,202.1z"/>
				<path class="st16" d="M849.5,201.3c0,2,1.1,3.6,2.4,3.6c1.3,0,2.4-1.6,2.4-3.6s-1.1-3.6-2.4-3.6S849.5,199.3,849.5,201.3z"/>
				<path class="st17" d="M843.4,197.5c0,2,1.1,3.6,2.4,3.6c1.3,0,2.4-1.6,2.4-3.6c0-2-1.1-3.6-2.4-3.6
					C844.5,194,843.4,195.6,843.4,197.5z"/>
				<path class="st16" d="M844.2,200c0,2,1.1,3.6,2.4,3.6c1.3,0,2.4-1.6,2.4-3.6s-1.1-3.6-2.4-3.6C845.3,196.4,844.2,198,844.2,200z
					"/>
			</g>
			<g>
				<path class="st16" d="M850.9,194.3c0,1.5,0.8,2.7,1.8,2.7s1.8-1.2,1.8-2.7c0-1.5-0.8-2.7-1.8-2.7
					C851.7,191.5,850.9,192.7,850.9,194.3z"/>
				<path class="st17" d="M852.5,195.7c0,2,1.1,3.6,2.4,3.6c1.3,0,2.4-1.6,2.4-3.6s-1.1-3.6-2.4-3.6
					C853.6,192.1,852.5,193.7,852.5,195.7z"/>
				<path class="st18" d="M850.9,199.1c0,2,1.1,3.6,2.4,3.6c1.3,0,2.4-1.6,2.4-3.6s-1.1-3.6-2.4-3.6
					C852,195.4,850.9,197.1,850.9,199.1z"/>
				<path class="st16" d="M853.6,198.2c0,2,1.1,3.6,2.4,3.6c1.3,0,2.4-1.6,2.4-3.6s-1.1-3.6-2.4-3.6
					C854.6,194.6,853.6,196.2,853.6,198.2z"/>
				<path class="st17" d="M847.4,194.5c0,2,1.1,3.6,2.4,3.6c1.3,0,2.4-1.6,2.4-3.6c0-2-1.1-3.6-2.4-3.6
					C848.5,190.9,847.4,192.5,847.4,194.5z"/>
				<path class="st16" d="M848.2,197c0,2,1.1,3.6,2.4,3.6c1.3,0,2.4-1.6,2.4-3.6s-1.1-3.6-2.4-3.6C849.3,193.3,848.2,195,848.2,197z
					"/>
			</g>
			<path class="st19" d="M865.9,201.6l-24.4-4.9c0,0,4,5.3,4.1,5.6c0.2,0.4-4.4,17.9-4.4,17.9l1.1,4h26.4l0.5-3l-4-15.7l1.8-2.7
				v-1.4H865.9z"/>
			<polygon class="st20" points="846.2,206.5 867.3,220.9 866.9,223.3 842.1,224.4 868.6,224.4 869.1,221.4 865.3,206.3 
				845.3,202.6 845.3,203.6 			"/>
			<path class="st17" d="M839.8,212.7l4.8-8.4l-1.4-1.3l2.2-1.7L866,205c0.3,0.1,0.5,0.5,0.5,0.9c0,0.5-0.3,0.8-0.6,0.8l-0.4-0.1
				l-19.9-3.5l-0.1,0.1l0.3,0.3l2.6,9.5c0.1,0.5,0,0.9-0.3,1.1c-0.1,0.1-0.2,0.1-0.2,0.1c-0.2,0-0.5-0.2-0.5-0.5l-2.1-7.8l-4.5,8
				c-0.1,0.2-0.3,0.3-0.5,0.3s-0.2-0.1-0.4-0.2C839.6,213.6,839.6,213.1,839.8,212.7z"/>
		</g>
		<g>
			<g>
				<path class="st21" d="M794.5,223.1c0,0.8-0.7,1.4-1.4,1.4h-21.3c-0.8,0-1.4-0.7-1.4-1.4v-28.7c0-0.8,0.7-1.4,1.4-1.4h21.3
					c0.8,0,1.4,0.7,1.4,1.4V223.1z"/>
				<path class="st22" d="M774.9,223.8v-26.9c0-0.8,0.6-1.4,1.4-1.4h18.3v-1.1c0-0.8-0.7-1.4-1.4-1.4h-21.3c-0.8,0-1.4,0.7-1.4,1.4
					v28.7c0,0.8,0.7,1.4,1.4,1.4h3.4C775,224.4,774.9,224.1,774.9,223.8z"/>
			</g>
			<path class="st13" d="M796.1,192.5c0,1.3-1.1,2.4-2.4,2.4h-22.7c-1.3,0-2.4-1.1-2.4-2.4l0,0c0-1.3,1.1-2.4,2.4-2.4h22.7
				C795,190.1,796.1,191.2,796.1,192.5L796.1,192.5z"/>
		</g>
		<g>
			<g>
				<path class="st21" d="M823.1,223.1c0,0.8-0.7,1.4-1.4,1.4h-21.3c-0.8,0-1.4-0.7-1.4-1.4v-28.7c0-0.8,0.7-1.4,1.4-1.4h21.3
					c0.8,0,1.4,0.7,1.4,1.4V223.1z"/>
				<path class="st22" d="M803.5,223.8v-26.9c0-0.8,0.6-1.4,1.4-1.4h18.3v-1.1c0-0.8-0.7-1.4-1.4-1.4h-21.3c-0.8,0-1.4,0.7-1.4,1.4
					v28.7c0,0.8,0.7,1.4,1.4,1.4h3.4C803.6,224.4,803.5,224.1,803.5,223.8z"/>
			</g>
			<path class="st13" d="M824.7,192.5c0,1.3-1.1,2.4-2.4,2.4h-22.7c-1.3,0-2.4-1.1-2.4-2.4l0,0c0-1.3,1.1-2.4,2.4-2.4h22.7
				C823.7,190.1,824.7,191.2,824.7,192.5L824.7,192.5z"/>
		</g>
	</g>
	<g>
		<polygon class="st8" points="678.9,161.3 878.8,161.3 880.4,152.6 678.9,152.6 		"/>
		<g>
			<g>
				<path class="st16" d="M703.9,124.9c0,1.5-0.8,2.7-1.8,2.7s-1.8-1.2-1.8-2.7s0.8-2.7,1.8-2.7C703,122.2,703.9,123.4,703.9,124.9z
					"/>
				<path class="st17" d="M702.3,126.4c0,2-1.1,3.6-2.4,3.6c-1.3,0-2.4-1.6-2.4-3.6c0-2,1.1-3.6,2.4-3.6
					C701.3,122.7,702.3,124.4,702.3,126.4z"/>
				<path class="st18" d="M703.9,129.7c0,2-1.1,3.6-2.4,3.6c-1.3,0-2.4-1.6-2.4-3.6c0-2,1.1-3.6,2.4-3.6
					C702.8,126.1,703.9,127.7,703.9,129.7z"/>
				<path class="st16" d="M701.3,128.9c0,2-1.1,3.6-2.4,3.6c-1.3,0-2.4-1.6-2.4-3.6c0-2,1.1-3.6,2.4-3.6S701.3,126.9,701.3,128.9z"
					/>
				<path class="st17" d="M707.4,125.2c0,2-1.1,3.6-2.4,3.6c-1.3,0-2.4-1.6-2.4-3.6c0-2,1.1-3.6,2.4-3.6
					C706.3,121.6,707.4,123.2,707.4,125.2z"/>
				<path class="st16" d="M706.5,127.7c0,2-1.1,3.6-2.4,3.6c-1.3,0-2.4-1.6-2.4-3.6s1.1-3.6,2.4-3.6
					C705.5,124,706.5,125.7,706.5,127.7z"/>
			</g>
			<g>
				<path class="st16" d="M711.3,124.9c0,1.5-0.8,2.7-1.8,2.7s-1.8-1.2-1.8-2.7s0.8-2.7,1.8-2.7
					C710.5,122.2,711.3,123.4,711.3,124.9z"/>
				<path class="st17" d="M709.7,126.4c0,2-1.1,3.6-2.4,3.6c-1.3,0-2.4-1.6-2.4-3.6c0-2,1.1-3.6,2.4-3.6
					C708.7,122.7,709.7,124.4,709.7,126.4z"/>
				<path class="st18" d="M711.3,129.7c0,2-1.1,3.6-2.4,3.6c-1.3,0-2.4-1.6-2.4-3.6c0-2,1.1-3.6,2.4-3.6
					C710.2,126.1,711.3,127.7,711.3,129.7z"/>
				<path class="st16" d="M708.7,128.9c0,2-1.1,3.6-2.4,3.6c-1.3,0-2.4-1.6-2.4-3.6c0-2,1.1-3.6,2.4-3.6
					C707.6,125.3,708.7,126.9,708.7,128.9z"/>
				<path class="st17" d="M714.7,125.2c0,2-1.1,3.6-2.4,3.6c-1.3,0-2.4-1.6-2.4-3.6c0-2,1.1-3.6,2.4-3.6S714.7,123.2,714.7,125.2z"
					/>
				<path class="st16" d="M714,127.7c0,2-1.1,3.6-2.4,3.6c-1.3,0-2.4-1.6-2.4-3.6s1.1-3.6,2.4-3.6C712.8,124,714,125.7,714,127.7z"
					/>
			</g>
			<g>
				<path class="st16" d="M714.9,125.1c0,1.5-0.8,2.7-1.8,2.7c-1,0-1.8-1.2-1.8-2.7s0.8-2.7,1.8-2.7
					C714.1,122.3,714.9,123.6,714.9,125.1z"/>
				<path class="st17" d="M713.3,126.6c0,2-1.1,3.6-2.4,3.6c-1.3,0-2.4-1.6-2.4-3.6c0-2,1.1-3.6,2.4-3.6
					C712.2,122.9,713.3,124.5,713.3,126.6z"/>
				<path class="st18" d="M714.9,129.9c0,2-1.1,3.6-2.4,3.6c-1.3,0-2.4-1.6-2.4-3.6c0-2,1.1-3.6,2.4-3.6
					C713.8,126.3,714.9,127.9,714.9,129.9z"/>
				<path class="st16" d="M712.2,129.1c0,2-1.1,3.6-2.4,3.6c-1.3,0-2.4-1.6-2.4-3.6c0-2,1.1-3.6,2.4-3.6
					C711.2,125.5,712.2,127.1,712.2,129.1z"/>
				<path class="st17" d="M718.4,125.4c0,2-1.1,3.6-2.4,3.6c-1.3,0-2.4-1.6-2.4-3.6c0-2,1.1-3.6,2.4-3.6
					C717.3,121.8,718.4,123.4,718.4,125.4z"/>
				<path class="st16" d="M717.6,127.8c0,2-1.1,3.6-2.4,3.6c-1.3,0-2.4-1.6-2.4-3.6s1.1-3.6,2.4-3.6
					C716.5,124.2,717.6,125.8,717.6,127.8z"/>
			</g>
			<g>
				<path class="st16" d="M710.9,122.1c0,1.5-0.8,2.7-1.8,2.7c-1,0-1.8-1.2-1.8-2.7s0.8-2.7,1.8-2.7
					C710,119.4,710.9,120.6,710.9,122.1z"/>
				<path class="st17" d="M709.3,123.6c0,2-1.1,3.6-2.4,3.6c-1.3,0-2.4-1.6-2.4-3.6c0-2,1.1-3.6,2.4-3.6
					C708.2,119.9,709.3,121.6,709.3,123.6z"/>
				<path class="st18" d="M710.9,126.9c0,2-1.1,3.6-2.4,3.6c-1.3,0-2.4-1.6-2.4-3.6c0-2,1.1-3.6,2.4-3.6
					C709.8,123.3,710.9,124.8,710.9,126.9z"/>
				<path class="st16" d="M708.3,126.1c0,2-1.1,3.6-2.4,3.6c-1.3,0-2.4-1.6-2.4-3.6c0-2,1.1-3.6,2.4-3.6
					C707.1,122.5,708.3,124.1,708.3,126.1z"/>
				<path class="st17" d="M714.4,122.3c0,2-1.1,3.6-2.4,3.6c-1.3,0-2.4-1.6-2.4-3.6c0-2,1.1-3.6,2.4-3.6
					C713.3,118.8,714.4,120.4,714.4,122.3z"/>
				<path class="st16" d="M713.5,124.8c0,2-1.1,3.6-2.4,3.6c-1.3,0-2.4-1.6-2.4-3.6c0-2,1.1-3.6,2.4-3.6
					C712.5,121.2,713.5,122.8,713.5,124.8z"/>
			</g>
			<path class="st19" d="M695.9,129.5l24.4-4.9c0,0-4,5.3-4.1,5.6c-0.2,0.4,4.4,17.9,4.4,17.9l-1.1,4h-26.4l-0.5-3l4-15.7l-1.8-2.7
				v-1.4L695.9,129.5L695.9,129.5z"/>
			<polygon class="st20" points="715.6,134.4 694.4,148.7 694.9,151.1 719.6,152.2 693.1,152.2 692.7,149.3 696.6,134.1 
				716.4,130.5 716.4,131.5 			"/>
			<path class="st17" d="M722,140.5l-4.8-8.4l1.4-1.3l-2.2-1.7l-20.6,3.7c-0.3,0.1-0.5,0.5-0.5,0.9c0,0.5,0.3,0.8,0.6,0.8l0.4-0.1
				l19.9-3.5l0.1,0.1l-0.3,0.3l-2.6,9.5c-0.1,0.5,0,0.9,0.3,1.1c0.1,0.1,0.2,0.1,0.2,0.1c0.2,0,0.5-0.2,0.5-0.5l2.1-7.8l4.5,8
				c0.1,0.2,0.3,0.3,0.5,0.3s0.2-0.1,0.4-0.2C722.1,141.4,722.2,140.9,722,140.5z"/>
		</g>
		<g>
			<g>
				<path class="st21" d="M763.5,151c0,0.8,0.7,1.4,1.4,1.4h21.3c0.8,0,1.4-0.7,1.4-1.4v-28.7c0-0.8-0.7-1.4-1.4-1.4H765
					c-0.8,0-1.4,0.7-1.4,1.4V151z"/>
				<path class="st22" d="M783.2,151.6v-26.9c0-0.8-0.6-1.4-1.4-1.4h-18.3v-1.1c0-0.8,0.7-1.4,1.4-1.4h21.3c0.8,0,1.4,0.7,1.4,1.4
					V151c0,0.8-0.7,1.4-1.4,1.4h-3.4C783.1,152.2,783.2,151.9,783.2,151.6z"/>
			</g>
			<path class="st13" d="M762,120.4c0,1.3,1.1,2.4,2.4,2.4H787c1.3,0,2.4-1.1,2.4-2.4l0,0c0-1.3-1.1-2.4-2.4-2.4h-22.7
				C763.1,118,762,119.1,762,120.4L762,120.4z"/>
		</g>
		<g>
			<g>
				<path class="st21" d="M735,151c0,0.8,0.7,1.4,1.4,1.4h21.3c0.8,0,1.4-0.7,1.4-1.4v-28.7c0-0.8-0.7-1.4-1.4-1.4h-21.3
					c-0.8,0-1.4,0.7-1.4,1.4V151z"/>
				<path class="st22" d="M754.6,151.6v-26.9c0-0.8-0.6-1.4-1.4-1.4H735v-1.1c0-0.8,0.7-1.4,1.4-1.4h21.3c0.8,0,1.4,0.7,1.4,1.4V151
					c0,0.8-0.7,1.4-1.4,1.4h-3.4C754.5,152.2,754.6,151.9,754.6,151.6z"/>
			</g>
			<path class="st13" d="M733.4,120.4c0,1.3,1.1,2.4,2.4,2.4h22.7c1.3,0,2.4-1.1,2.4-2.4l0,0c0-1.3-1.1-2.4-2.4-2.4h-22.7
				C734.5,118,733.4,119.1,733.4,120.4L733.4,120.4z"/>
		</g>
		<g>
			<polygon class="st23" points="859.9,126.7 854.6,152.5 861.9,152.4 			"/>
			<g>
				<polygon class="st24" points="866,124.6 866,124.6 865.2,120.4 864.5,120.4 863.8,124.6 859.9,126.7 857.7,152.4 872.4,152.4 
					870.2,126.7 				"/>
				<polygon class="st25" points="864.3,124.8 864.8,120.8 865.6,124.8 870,126.9 860.3,126.9 				"/>
				<polyline class="st26" points="864.8,120.8 865.2,150.9 871.9,152.2 870,126.9 865.9,125.1 				"/>
			</g>
		</g>
		<g>
			<polygon class="st23" points="846,126.9 840.7,152.7 847.9,152.6 			"/>
			<g>
				<polygon class="st24" points="852,124.8 852,124.8 851.3,120.6 850.6,120.6 849.8,124.8 846,126.9 843.7,152.6 858.4,152.6 
					856.3,126.9 				"/>
				<polygon class="st25" points="850.4,125.1 850.9,121 851.7,125.1 856.1,127.1 846.4,127.1 				"/>
				<polyline class="st26" points="850.9,121 851.2,151.1 858,152.5 856.1,127.1 852,125.3 				"/>
			</g>
		</g>
		<g>
			<polygon class="st23" points="826.3,126.7 821.1,152.4 828.3,152.4 			"/>
			<g>
				<polygon class="st27" points="832.4,124.5 832.4,124.5 831.6,120.4 831,120.4 830.2,124.5 826.3,126.7 824.1,152.4 838.8,152.4 
					836.7,126.7 				"/>
				<polygon class="st25" points="830.7,124.8 831.3,120.8 832,124.8 836.4,126.9 826.8,126.9 				"/>
				<polyline class="st26" points="831.3,120.8 831.6,150.9 838.3,152.2 836.4,126.9 832.3,125.1 				"/>
			</g>
		</g>
		<g>
			<polygon class="st23" points="805.6,126.6 800.4,152.4 807.7,152.3 			"/>
			<g>
				<polygon class="st27" points="811.7,124.5 811.7,124.5 810.9,120.4 810.3,120.4 809.6,124.5 805.6,126.6 803.5,152.3 
					818.2,152.3 816,126.6 				"/>
				<polygon class="st25" points="810,124.8 810.6,120.7 811.3,124.8 815.7,126.8 806.1,126.8 				"/>
				<polyline class="st26" points="810.6,120.7 810.9,150.8 817.6,152.2 815.7,126.8 811.6,125.1 				"/>
			</g>
		</g>
	</g>
</g>
<g>
	<g>
		<g>
			<g>
				<rect x="1.2" y="1.2" class="st0" width="990.8" height="557.3"/>
				<g class="st28">
					<rect x="195.4" y="138.1" class="st29" width="79.9" height="127"/>
					<rect x="211.2" y="153.1" class="st1" width="48.5" height="96.7"/>
					<polygon class="st30" points="196.5,139.3 196.7,139.3 195.6,138.1 195.4,138.1 195.4,265 196.5,264 					"/>
					<g>
						<polygon class="st31" points="267.6,257 203,257 203,257 196.5,264 196.5,264 274.1,264 274.1,264 						"/>
						<polygon class="st31" points="203.2,145.8 267.6,145.8 267.6,145.8 274.1,139.3 196.7,139.3 						"/>
					</g>
					<g>
						<polygon class="st32" points="274.1,139.3 274.1,139.3 274.1,264 275.2,265 275.2,138.1 275.1,138.1 						"/>
						<polygon class="st33" points="267.6,257 274.1,264 274.1,139.3 274.1,139.3 267.6,145.8 						"/>
						<polygon class="st33" points="203.9,256.2 203,257 203,257 267.6,257 267.6,257 266.7,256.2 						"/>
						<polygon class="st33" points="203,257 203.9,256.2 203.8,256.2 203.8,146.6 204,146.6 203.2,145.8 203,145.8 						"/>
						<polygon class="st33" points="266.8,146.6 266.8,146.7 267.6,145.8 267.6,145.8 203.2,145.8 204,146.6 						"/>
					</g>
					<g>
						<polygon class="st34" points="274.1,139.3 275.1,138.1 195.6,138.1 196.7,139.3 						"/>
						<polygon class="st34" points="274.1,264 196.5,264 196.5,264 195.4,265 195.4,265.2 275.2,265.2 275.2,265 274.1,264 						
							"/>
						<polygon class="st34" points="203,145.8 203.2,145.8 196.7,139.3 196.5,139.3 196.5,264 203,257 						"/>
						<polygon class="st34" points="266.8,256.2 266.7,256.2 267.6,257 267.6,145.8 266.8,146.7 						"/>
					</g>
				</g>
			</g>
		</g>
	</g>
</g>
</svg>
