<?xml version="1.0" encoding="utf-8"?>
<!-- Generator: Adobe Illustrator 25.3.1, SVG Export Plug-In . SVG Version: 6.00 Build 0)  -->
<svg version="1.1" id="圖層_1" xmlns="http://www.w3.org/2000/svg" xmlns:xlink="http://www.w3.org/1999/xlink" x="0px" y="0px"
	 viewBox="0 0 576 1000" style="enable-background:new 0 0 576 1000;" xml:space="preserve">
<style type="text/css">
	.st0{fill:none;}
	.st1{fill:#FFFFFF;}
	.st2{opacity:0.5;}
	.st3{opacity:0.5;fill:#A1BFBA;enable-background:new    ;}
	.st4{opacity:0.3;fill:#FFFFFF;enable-background:new    ;}
	.st5{opacity:0.4;fill:#FFFFFF;enable-background:new    ;}
	.st6{fill:#D5D5D5;}
	.st7{opacity:0.4;}
	.st8{fill:#93AEB7;}
	.st9{fill:#EEEBE8;}
	.st10{fill:#7C8184;}
	.st11{fill:#E2E1E1;}
	.st12{fill:#77848B;}
	.st13{fill:#E8EEF2;}
	.st14{fill:#B6BDC2;}
	.st15{fill:#4F2B2B;}
	.st16{fill:#EAE0D7;}
	.st17{fill:#C6AF9B;}
	.st18{fill:#A19387;}
	.st19{fill:#5D4731;}
	.st20{fill:#AAA9A9;}
	.st21{fill:#A35C4E;}
	.st22{fill:#DDC7C4;}
	.st23{opacity:0.74;fill:#767777;enable-background:new    ;}
	.st24{fill:#C4A664;}
	.st25{opacity:0.4;fill:#C1C0C0;enable-background:new    ;}
	.st26{fill:#E3E3E3;}
	.st27{fill:#DBDBDB;}
</style>
<g>
	<g>
		<g>
			<g>
				<rect x="-91.4" y="23.6" class="st0" width="754.8" height="960.5"/>
				<rect x="-102" y="-3.2" class="st1" width="780" height="1006.5"/>
			</g>
		</g>
	</g>
</g>
<g>
	<g>
		<g>
			<g>
				<rect x="-95.1" y="8.3" class="st0" width="764.8" height="980.9"/>
				<g class="st2">
					<rect x="-96.6" y="0.8" class="st3" width="774.6" height="998.4"/>
					<polygon class="st4" points="163.8,995.4 -102,995.4 168.6,1.3 434.4,1.3 					"/>
					<polygon class="st5" points="287.5,995.4 189.8,995.4 460.4,1.3 558.1,1.3 					"/>
					<polygon class="st5" points="382,995.4 315.7,995.4 586.3,1.3 652.6,1.3 					"/>
					<polygon class="st5" points="-96.6,766.8 111.8,1.3 45.5,1.3 -96.6,523.3 					"/>
				</g>
			</g>
		</g>
	</g>
</g>
<rect x="-206.8" y="-138.8" class="st0" width="990.8" height="557.3"/>
<g>
	<g>
		<path class="st6" d="M-478.9,288.9v1.2c0.4,0,0.9,0.1,1.3,0.1h672.2l-0.4-0.8c-1.8-3.5-1.7-8.1,0.4-11.4c1.8-2.9,4.8-4.5,8.5-4.5
			c1.5,0,2.9,0.2,4.2,0.8l0.7,0.3v-619.8H207v618.1c-1.2-0.4-2.5-0.6-3.9-0.6c-4.1,0-7.6,1.8-9.5,5.1c-2,3.3-2.4,7.9-0.8,11.6
			h-670.4c-0.4,0-0.9,0-1.3-0.1H-478.9z"/>
	</g>
</g>
<g class="st7">
	<rect x="224" y="2" class="st8" width="350" height="998"/>
</g>
<rect x="-206.8" y="-138.8" class="st0" width="990.8" height="557.3"/>
<g>
	<polyline class="st9" points="223.7,1203 576,1203 576,396.5 575.7,396.5 575.7,364 0.3,364 0.4,1200.5 	"/>
	<rect x="0" y="308" class="st9" width="575.1" height="11.4"/>
	<rect x="0.4" y="327.2" class="st9" width="574.5" height="10.2"/>
	<rect x="0" y="347.6" class="st9" width="575.2" height="10.2"/>
</g>
<rect x="-206.8" y="-138.8" class="st0" width="990.8" height="557.3"/>
<rect x="-206.8" y="-138.8" class="st0" width="990.8" height="557.3"/>
<g>
	<g>
		<g>
			<g>
				<path class="st10" d="M256.4,143.2c0,0,28.6-2.2,60.3,0.9l-23.5,3.1l-29-1.5L256.4,143.2z"/>
				<path class="st11" d="M256.4,143.2c0,0,13.3,3.7,60.3,0.9c0,0,0.4,7.2-30.9,6.6C255.8,150.1,256.4,143.2,256.4,143.2z"/>
			</g>
			<g>
				<path class="st10" d="M256.4,137.4c0,0,28.6-2.2,60.3,0.9l-23.5,3.1l-29-1.5L256.4,137.4z"/>
				<path class="st11" d="M256.4,137.4c0,0,13.3,3.7,60.3,0.9c0,0,0.4,7.2-30.9,6.6C255.8,144.4,256.4,137.4,256.4,137.4z"/>
			</g>
			<g>
				<path class="st10" d="M256.4,131.5c0,0,28.6-2.2,60.3,0.9l-23.5,3.1l-29-1.5L256.4,131.5z"/>
				<path class="st11" d="M256.4,131.5c0,0,13.3,3.7,60.3,0.9c0,0,0.4,7.2-30.9,6.6C255.8,138.5,256.4,131.5,256.4,131.5z"/>
			</g>
		</g>
		<polygon class="st8" points="428,157.1 259.9,157.1 258.4,150.5 428,150.5 		"/>
		<g>
			<g>
				<g>
					<path class="st12" d="M274.4,155.3c0,0,3.1,11.3,1.2,22.5l-4.7-11.5L274.4,155.3z"/>
					<path class="st13" d="M274.4,155.3c-0.1,0-0.3,0-0.4,0.1l-0.4-2.2l-0.1-0.2c-0.3-0.6-1.3-1.5-3.1-1.2c-0.1,0-0.3,0-0.4,0
						c-1.7,0.1-5.3,0.8-5.8,2.8c0,0.1,0,0.3,0.1,1.1c0,0.7,0.2,1.4,0.5,2.2c-1.3,0.9-2.5,1.9-3.3,3.4c-0.8,1.4-1.1,4.2-1,5.9
						c0.1,1.1,0.4,3.4,0.8,4.5c2,4.5,7.7,6.4,14.3,6.2c0,0-1.5-2.8-1.9-11.2C273.2,158.2,274.4,155.3,274.4,155.3z M266,154.8
						c0-0.1,0.5-1.2,4-1.4c0.4,0,0.6-0.1,0.7-0.1c0.6-0.1,0.9,0.1,1,0.2l0.4,1.9c-2.1,0.2-4,0.7-5.7,1.4
						C266,156.1,266,155.2,266,154.8z"/>
					<g>
						<path class="st14" d="M274.7,175.2c-5.5-0.5-9.3-2.5-11.1-6.5c-0.5-1.1-0.9-3.6-1-4.8c-0.1-1.3,0.1-3.3,0.5-4.9
							c-0.7,0.6-1.3,1.4-1.7,2.2c-0.8,1.4-1.1,4.2-1,5.9c0.1,1.1,0.4,3.4,0.8,4.5c2,4.5,7.7,6.4,14.3,6.2L274.7,175.2z"/>
					</g>
				</g>
				<path class="st15" d="M270.4,154.8c0,0.6-0.6,1.1-1.2,1.1c-0.6,0-1.2-0.5-1.2-1.1c0-0.6,0.5-1.1,1.2-1.1
					C269.8,153.7,270.4,154.2,270.4,154.8z"/>
			</g>
			<g>
				<g>
					<path class="st12" d="M293.9,154.4c0,0,7.6,9.6,10.2,20.6l-9.1-9.2L293.9,154.4z"/>
					<path class="st13" d="M293.9,154.4c-0.1,0.1-0.3,0.1-0.4,0.2l-1.3-1.9l-0.2-0.2c-0.5-0.5-1.8-1-3.5-0.1
						c-0.1,0.1-0.2,0.1-0.4,0.2c-1.5,0.6-4.7,2.5-4.3,4.5c0,0.2,0.1,0.3,0.5,1.1c0.3,0.6,0.8,1.3,1.4,1.8c-1,1.3-1.5,2.6-1.7,4.2
						c-0.1,1.6,0.7,4.4,1.4,5.8c0.5,1,1.7,3.1,2.6,3.9c3.7,3.6,9.8,3.5,15.8,1.1c0,0-2.5-2.2-6.3-9.8
						C294,157.4,293.9,154.4,293.9,154.4z M285.9,156.6c0-0.1,0-1.3,3.1-2.6c0.4-0.1,0.6-0.2,0.6-0.3c0.5-0.3,0.8-0.2,1-0.2l1.1,1.7
						c-1.9,0.9-3.5,1.9-4.7,3.2C286.4,157.9,286,157.1,285.9,156.6z"/>
					<g>
						<path class="st14" d="M302.3,172.8c-5.3,1.4-9.7,0.7-13-2.5c-0.9-0.9-2.2-3-2.8-4.2c-0.6-1.2-1.2-3.1-1.5-4.7
							c-0.4,0.8-0.6,1.7-0.7,2.6c-0.1,1.6,0.7,4.4,1.4,5.8c0.5,1,1.7,3.1,2.6,3.9c3.7,3.6,9.8,3.5,15.8,1.1L302.3,172.8z"/>
					</g>
				</g>
				<path class="st15" d="M291.1,154.8c0,0.6-0.6,1.1-1.2,1.1c-0.6,0-1.2-0.5-1.2-1.1c0-0.6,0.5-1.1,1.2-1.1
					C290.6,153.7,291.1,154.2,291.1,154.8z"/>
			</g>
			<g>
				<g>
					<path class="st12" d="M366.1,155.3c0,0,3.1,11.3,1.2,22.5l-4.7-11.5L366.1,155.3z"/>
					<path class="st13" d="M366.1,155.3c-0.1,0-0.3,0-0.4,0.1l-0.4-2.2l-0.1-0.2c-0.3-0.6-1.3-1.5-3.1-1.2c-0.1,0-0.3,0-0.4,0
						c-1.7,0.1-5.3,0.8-5.8,2.8c0,0.1,0,0.3,0.1,1.1c0.1,0.7,0.2,1.4,0.5,2.2c-1.4,0.9-2.5,1.9-3.3,3.4c-0.8,1.4-1.2,4.2-1,5.9
						c0.1,1.1,0.4,3.4,0.9,4.5c2,4.5,7.7,6.4,14.3,6.2c0,0-1.5-2.8-1.9-11.2C364.9,158.2,366.1,155.3,366.1,155.3z M357.7,154.8
						c0-0.1,0.5-1.2,4-1.4c0.4,0,0.6-0.1,0.7-0.1c0.6-0.1,0.9,0.1,1,0.2l0.4,1.9c-2.1,0.2-4,0.7-5.6,1.4
						C357.7,156.1,357.7,155.2,357.7,154.8z"/>
					<g>
						<path class="st14" d="M366.5,175.2c-5.5-0.5-9.3-2.5-11.1-6.5c-0.5-1.1-0.9-3.6-1-4.8c-0.1-1.3,0.1-3.3,0.5-4.9
							c-0.7,0.6-1.3,1.4-1.7,2.2c-0.8,1.4-1.2,4.2-1,5.9c0.1,1.1,0.4,3.4,0.9,4.5c2,4.5,7.7,6.4,14.3,6.2L366.5,175.2z"/>
					</g>
				</g>
				<path class="st15" d="M362.1,154.8c0,0.6-0.5,1.1-1.2,1.1c-0.6,0-1.2-0.5-1.2-1.1c0-0.6,0.5-1.1,1.2-1.1
					C361.5,153.7,362.1,154.2,362.1,154.8z"/>
			</g>
			<g>
				<g>
					<path class="st12" d="M385.6,154.4c0,0,7.6,9.6,10.1,20.6l-9.1-9.2L385.6,154.4z"/>
					<path class="st13" d="M385.6,154.4c-0.1,0.1-0.3,0.1-0.4,0.2l-1.3-1.9l-0.2-0.2c-0.5-0.5-1.8-1-3.4-0.1
						c-0.1,0.1-0.2,0.1-0.4,0.2c-1.5,0.6-4.7,2.5-4.3,4.5c0,0.2,0.1,0.3,0.5,1.1c0.3,0.6,0.8,1.3,1.4,1.8c-1,1.3-1.5,2.6-1.7,4.2
						c-0.1,1.6,0.6,4.4,1.4,5.8c0.5,1,1.8,3.1,2.6,3.9c3.8,3.6,9.8,3.5,15.8,1.1c0,0-2.5-2.2-6.3-9.8
						C385.7,157.4,385.6,154.4,385.6,154.4z M377.7,156.6c0-0.1,0-1.3,3.1-2.6c0.4-0.1,0.6-0.2,0.6-0.3c0.5-0.3,0.8-0.2,1-0.2
						l1.2,1.7c-1.9,0.9-3.5,1.9-4.7,3.2C378.1,157.9,377.7,157.1,377.7,156.6z"/>
					<g>
						<path class="st14" d="M394,172.8c-5.3,1.4-9.7,0.7-13-2.5c-0.9-0.9-2.2-3-2.8-4.2c-0.6-1.2-1.2-3.1-1.5-4.7
							c-0.4,0.8-0.6,1.7-0.7,2.6c-0.1,1.6,0.6,4.4,1.4,5.8c0.5,1,1.8,3.1,2.6,3.9c3.8,3.6,9.8,3.5,15.8,1.1L394,172.8z"/>
					</g>
				</g>
				<path class="st15" d="M382.8,154.8c0,0.6-0.6,1.1-1.2,1.1c-0.6,0-1.2-0.5-1.2-1.1c0-0.6,0.5-1.1,1.2-1.1
					C382.3,153.7,382.8,154.2,382.8,154.8z"/>
			</g>
			<g>
				<g>
					<path class="st12" d="M322.7,155.4c0,0,2.6,11.5-0.1,22.5l-4.2-11.7L322.7,155.4z"/>
					<path class="st13" d="M322.7,155.4c-0.1,0-0.3,0-0.4,0l-0.3-2.3l-0.1-0.2c-0.3-0.6-1.2-1.5-3.1-1.3c-0.1,0-0.3,0-0.4,0
						c-1.7,0-5.4,0.6-6,2.5c-0.1,0.1,0,0.3,0,1.2c0,0.7,0.1,1.5,0.4,2.2c-1.4,0.8-2.6,1.8-3.4,3.2c-0.8,1.4-1.3,4.2-1.3,5.9
						c0,1.1,0.2,3.4,0.6,4.5c1.8,4.6,7.4,6.8,13.9,6.8c0,0-1.3-2.9-1.3-11.3C321.4,158.2,322.7,155.4,322.7,155.4z M314.4,154.5
						c0-0.1,0.6-1.1,4-1.2c0.4,0,0.6,0,0.7,0c0.6-0.1,0.8,0.1,1,0.2l0.3,1.9c-2.1,0.2-4,0.5-5.8,1.2
						C314.3,155.8,314.3,155,314.4,154.5z"/>
					<g>
						<path class="st14" d="M322,175.2c-5.4-0.7-9.2-2.9-10.8-7c-0.4-1.1-0.7-3.6-0.7-4.9c0-1.3,0.3-3.3,0.8-4.8
							c-0.7,0.6-1.3,1.3-1.9,2.1c-0.8,1.4-1.3,4.2-1.3,5.9c0,1.1,0.2,3.4,0.6,4.5c1.8,4.6,7.4,6.8,13.9,6.8L322,175.2z"/>
					</g>
				</g>
				<path class="st15" d="M317.8,154.8c0,0.6-0.5,1.1-1.2,1.1c-0.6,0-1.2-0.5-1.2-1.1c0-0.6,0.5-1.1,1.2-1.1
					C317.2,153.7,317.8,154.2,317.8,154.8z"/>
			</g>
			<g>
				<g>
					<path class="st12" d="M344.8,155.4c0,0,2.6,11.5-0.1,22.5l-4.2-11.7L344.8,155.4z"/>
					<path class="st13" d="M344.8,155.4c-0.1,0-0.3,0-0.4,0l-0.3-2.3l-0.1-0.2c-0.3-0.6-1.2-1.5-3.1-1.3c-0.1,0-0.3,0-0.4,0
						c-1.7,0-5.4,0.6-6,2.6c-0.1,0.1,0,0.3,0,1.2c0,0.7,0.1,1.5,0.4,2.2c-1.4,0.8-2.6,1.9-3.4,3.2c-0.8,1.4-1.3,4.2-1.3,5.9
						c0,1.1,0.2,3.4,0.6,4.5c1.8,4.6,7.4,6.8,13.9,6.8c0,0-1.3-2.9-1.3-11.3C343.5,158.2,344.8,155.4,344.8,155.4z M336.5,154.5
						c0-0.1,0.6-1.2,4-1.2c0.4,0,0.6,0,0.7,0c0.6-0.1,0.9,0.1,1,0.2l0.3,1.9c-2.1,0.2-4,0.5-5.7,1.2
						C336.4,155.8,336.4,154.9,336.5,154.5z"/>
					<g>
						<path class="st14" d="M344,175.2c-5.4-0.7-9.2-2.9-10.8-7c-0.4-1.1-0.7-3.6-0.7-4.9c0-1.3,0.3-3.3,0.8-4.8
							c-0.7,0.6-1.3,1.3-1.9,2.1c-0.8,1.4-1.3,4.2-1.3,5.9c0,1.1,0.2,3.4,0.6,4.5c1.8,4.6,7.4,6.8,13.9,6.8L344,175.2z"/>
					</g>
				</g>
				<path class="st15" d="M340.5,154.8c0,0.6-0.6,1.1-1.2,1.1c-0.6,0-1.2-0.5-1.2-1.1c0-0.6,0.5-1.1,1.2-1.1
					C339.9,153.7,340.5,154.2,340.5,154.8z"/>
			</g>
		</g>
		<g>
			<g>
				<path class="st16" d="M407,129.7c0,1.1,0.7,2.1,1.5,2.1s1.5-0.9,1.5-2.1c0-1.1-0.7-2.1-1.5-2.1S407,128.6,407,129.7z"/>
				<path class="st17" d="M408.3,130.8c0,1.5,0.9,2.7,2,2.7c1.1,0,2-1.2,2-2.7c0-1.5-0.9-2.7-2-2.7
					C409.2,128.1,408.3,129.3,408.3,130.8z"/>
				<path class="st18" d="M407,133.3c0,1.5,0.9,2.7,2,2.7c1.1,0,2-1.2,2-2.7c0-1.5-0.9-2.7-2-2.7C407.9,130.6,407,131.8,407,133.3z"
					/>
				<path class="st16" d="M409.2,132.7c0,1.5,0.9,2.7,2,2.7c1.1,0,2-1.2,2-2.7s-0.9-2.7-2-2.7S409.2,131.2,409.2,132.7z"/>
				<path class="st17" d="M404,129.9c0,1.5,0.9,2.7,2,2.7c1.1,0,2-1.2,2-2.7s-0.9-2.7-2-2.7C404.9,127.2,404,128.4,404,129.9z"/>
				<path class="st16" d="M404.8,131.8c0,1.5,0.9,2.7,2,2.7c1.1,0,2-1.2,2-2.7s-0.9-2.7-2-2.7C405.6,129,404.8,130.3,404.8,131.8z"
					/>
			</g>
			<g>
				<path class="st16" d="M400.8,129.7c0,1.1,0.7,2.1,1.5,2.1s1.5-0.9,1.5-2.1c0-1.1-0.7-2.1-1.5-2.1
					C401.4,127.6,400.8,128.6,400.8,129.7z"/>
				<path class="st17" d="M402.1,130.8c0,1.5,0.9,2.7,2,2.7c1.1,0,2-1.2,2-2.7c0-1.5-0.9-2.7-2-2.7
					C403,128.1,402.1,129.3,402.1,130.8z"/>
				<path class="st18" d="M400.8,133.3c0,1.5,0.9,2.7,2,2.7c1.1,0,2-1.2,2-2.7c0-1.5-0.9-2.7-2-2.7
					C401.7,130.6,400.8,131.8,400.8,133.3z"/>
				<path class="st16" d="M403,132.7c0,1.5,0.9,2.7,2,2.7c1.1,0,2-1.2,2-2.7s-0.9-2.7-2-2.7C403.9,130,403,131.2,403,132.7z"/>
				<path class="st17" d="M397.8,129.9c0,1.5,0.9,2.7,2,2.7c1.1,0,2-1.2,2-2.7s-0.9-2.7-2-2.7C398.7,127.2,397.8,128.4,397.8,129.9z
					"/>
				<path class="st16" d="M398.5,131.8c0,1.5,0.9,2.7,2,2.7c1.1,0,2-1.2,2-2.7s-0.9-2.7-2-2.7C399.4,129,398.5,130.3,398.5,131.8z"
					/>
			</g>
			<g>
				<path class="st16" d="M397.7,129.9c0,1.1,0.7,2.1,1.5,2.1s1.5-0.9,1.5-2.1s-0.7-2.1-1.5-2.1
					C398.4,127.8,397.7,128.7,397.7,129.9z"/>
				<path class="st17" d="M399.1,131c0,1.5,0.9,2.7,2,2.7c1.1,0,2-1.2,2-2.7s-0.9-2.7-2-2.7C399.9,128.2,399.1,129.5,399.1,131z"/>
				<path class="st18" d="M397.7,133.5c0,1.5,0.9,2.7,2,2.7c1.1,0,2-1.2,2-2.7s-0.9-2.7-2-2.7C398.6,130.7,397.7,131.9,397.7,133.5z
					"/>
				<path class="st16" d="M399.9,132.8c0,1.5,0.9,2.7,2,2.7c1.1,0,2-1.2,2-2.7c0-1.5-0.9-2.7-2-2.7S399.9,131.4,399.9,132.8z"/>
				<path class="st17" d="M394.8,130c0,1.5,0.9,2.7,2,2.7c1.1,0,2-1.2,2-2.7c0-1.5-0.9-2.7-2-2.7C395.7,127.4,394.8,128.6,394.8,130
					z"/>
				<path class="st16" d="M395.5,131.9c0,1.5,0.9,2.7,2,2.7c1.1,0,2-1.2,2-2.7s-0.9-2.7-2-2.7C396.4,129.2,395.5,130.4,395.5,131.9z
					"/>
			</g>
			<g>
				<path class="st16" d="M401.1,127.6c0,1.1,0.7,2.1,1.5,2.1s1.5-0.9,1.5-2.1c0-1.1-0.7-2.1-1.5-2.1
					C401.8,125.5,401.1,126.4,401.1,127.6z"/>
				<path class="st17" d="M402.4,128.7c0,1.5,0.9,2.7,2,2.7c1.1,0,2-1.2,2-2.7c0-1.5-0.9-2.7-2-2.7
					C403.3,126,402.4,127.2,402.4,128.7z"/>
				<path class="st18" d="M401.1,131.2c0,1.5,0.9,2.7,2,2.7c1.1,0,2-1.2,2-2.7c0-1.5-0.9-2.7-2-2.7
					C402,128.4,401.1,129.7,401.1,131.2z"/>
				<path class="st16" d="M403.3,130.6c0,1.5,0.9,2.7,2,2.7c1.1,0,2-1.2,2-2.7c0-1.5-0.9-2.7-2-2.7S403.3,129.1,403.3,130.6z"/>
				<path class="st17" d="M398.2,127.8c0,1.5,0.9,2.7,2,2.7c1.1,0,2-1.2,2-2.7s-0.9-2.7-2-2.7C399.1,125.1,398.2,126.3,398.2,127.8z
					"/>
				<path class="st16" d="M398.9,129.6c0,1.5,0.9,2.7,2,2.7c1.1,0,2-1.2,2-2.7c0-1.5-0.9-2.7-2-2.7
					C399.8,126.9,398.9,128.2,398.9,129.6z"/>
			</g>
			<path class="st19" d="M413.7,133.1l-20.5-3.7c0,0,3.3,4,3.5,4.2c0.1,0.3-3.7,13.5-3.7,13.5l0.9,3h22.2l0.4-2.2l-3.3-11.8l1.5-2
				v-1H413.7z"/>
			<polygon class="st20" points="397.1,136.8 414.9,147.6 414.6,149.4 393.7,150.3 416,150.3 416.4,148 413.2,136.6 396.4,133.9 
				396.4,134.6 			"/>
			<path class="st17" d="M391.8,141.4l4-6.3l-1.2-1l1.9-1.3l17.4,2.7c0.3,0.1,0.4,0.3,0.4,0.7c0,0.3-0.3,0.6-0.5,0.6l-0.3-0.1
				l-16.8-2.6l-0.1,0.1l0.3,0.2l2.2,7.2c0.1,0.3,0,0.7-0.3,0.8c-0.1,0.1-0.1,0.1-0.2,0.1c-0.2,0-0.4-0.2-0.4-0.4l-1.7-5.8l-3.8,6
				c-0.1,0.1-0.3,0.2-0.4,0.2s-0.2-0.1-0.3-0.2C391.6,142.1,391.6,141.7,391.8,141.4z"/>
		</g>
		<g>
			<g>
				<path class="st21" d="M353.6,149.3c0,0.6-0.6,1.1-1.2,1.1h-17.9c-0.7,0-1.2-0.5-1.2-1.1v-21.6c0-0.6,0.6-1.1,1.2-1.1h17.9
					c0.7,0,1.2,0.5,1.2,1.1V149.3z"/>
				<path class="st22" d="M337.1,149.8v-20.3c0-0.6,0.5-1,1.2-1h15.4v-0.8c0-0.6-0.6-1.1-1.2-1.1h-17.9c-0.7,0-1.2,0.5-1.2,1.1v21.6
					c0,0.6,0.6,1.1,1.2,1.1h2.9C337.2,150.3,337.1,150,337.1,149.8z"/>
			</g>
			<path class="st13" d="M355,126.3c0,1-0.9,1.8-2,1.8h-19.1c-1.1,0-2-0.8-2-1.8l0,0c0-1,0.9-1.8,2-1.8H353
				C354.1,124.5,355,125.3,355,126.3L355,126.3z"/>
		</g>
		<g>
			<g>
				<path class="st21" d="M377.7,149.3c0,0.6-0.6,1.1-1.2,1.1h-17.9c-0.7,0-1.2-0.5-1.2-1.1v-21.6c0-0.6,0.6-1.1,1.2-1.1h17.9
					c0.7,0,1.2,0.5,1.2,1.1V149.3z"/>
				<path class="st22" d="M361.2,149.8v-20.3c0-0.6,0.5-1,1.2-1h15.4v-0.8c0-0.6-0.6-1.1-1.2-1.1h-17.9c-0.7,0-1.2,0.5-1.2,1.1v21.6
					c0,0.6,0.6,1.1,1.2,1.1h2.9C361.3,150.3,361.2,150,361.2,149.8z"/>
			</g>
			<path class="st13" d="M379.1,126.3c0,1-0.9,1.8-2,1.8H358c-1.1,0-2-0.8-2-1.8l0,0c0-1,0.9-1.8,2-1.8h19.1
				C378.2,124.5,379.1,125.3,379.1,126.3L379.1,126.3z"/>
		</g>
	</g>
	<g>
		<polygon class="st8" points="256.4,102.8 424.5,102.8 426,96.2 256.4,96.2 		"/>
		<g>
			<g>
				<path class="st16" d="M277.4,75.4c0,1.1-0.7,2.1-1.5,2.1c-0.8,0-1.5-0.9-1.5-2.1c0-1.1,0.7-2.1,1.5-2.1
					C276.7,73.3,277.4,74.3,277.4,75.4z"/>
				<path class="st17" d="M276.1,76.5c0,1.5-0.9,2.7-2,2.7c-1.1,0-2-1.2-2-2.7s0.9-2.7,2-2.7C275.2,73.7,276.1,75,276.1,76.5z"/>
				<path class="st18" d="M277.4,79c0,1.5-0.9,2.7-2,2.7c-1.1,0-2-1.2-2-2.7c0-1.5,0.9-2.7,2-2.7C276.5,76.3,277.4,77.5,277.4,79z"
					/>
				<path class="st16" d="M275.2,78.4c0,1.5-0.9,2.7-2,2.7c-1.1,0-2-1.2-2-2.7c0-1.5,0.9-2.7,2-2.7S275.2,76.9,275.2,78.4z"/>
				<path class="st17" d="M280.3,75.6c0,1.5-0.9,2.7-2,2.7c-1.1,0-2-1.2-2-2.7c0-1.5,0.9-2.7,2-2.7S280.3,74.1,280.3,75.6z"/>
				<path class="st16" d="M279.6,77.5c0,1.5-0.9,2.7-2,2.7c-1.1,0-2-1.2-2-2.7c0-1.5,0.9-2.7,2-2.7C278.7,74.7,279.6,76,279.6,77.5z
					"/>
			</g>
			<g>
				<path class="st16" d="M283.6,75.4c0,1.1-0.7,2.1-1.5,2.1s-1.5-0.9-1.5-2.1c0-1.1,0.7-2.1,1.5-2.1
					C282.9,73.3,283.6,74.3,283.6,75.4z"/>
				<path class="st17" d="M282.3,76.5c0,1.5-0.9,2.7-2,2.7c-1.1,0-2-1.2-2-2.7s0.9-2.7,2-2.7C281.4,73.7,282.3,75,282.3,76.5z"/>
				<path class="st18" d="M283.6,79c0,1.5-0.9,2.7-2,2.7c-1.1,0-2-1.2-2-2.7c0-1.5,0.9-2.7,2-2.7C282.7,76.3,283.6,77.5,283.6,79z"
					/>
				<path class="st16" d="M281.4,78.4c0,1.5-0.9,2.7-2,2.7c-1.1,0-2-1.2-2-2.7c0-1.5,0.9-2.7,2-2.7S281.4,76.9,281.4,78.4z"/>
				<path class="st17" d="M286.5,75.6c0,1.5-0.9,2.7-2,2.7c-1.1,0-2-1.2-2-2.7c0-1.5,0.9-2.7,2-2.7S286.5,74.1,286.5,75.6z"/>
				<path class="st16" d="M285.9,77.5c0,1.5-0.9,2.7-2,2.7c-1.1,0-2-1.2-2-2.7c0-1.5,0.9-2.7,2-2.7C284.9,74.7,285.9,76,285.9,77.5z
					"/>
			</g>
			<g>
				<path class="st16" d="M286.7,75.5c0,1.1-0.7,2.1-1.5,2.1s-1.5-0.9-1.5-2.1s0.7-2.1,1.5-2.1C285.9,73.4,286.7,74.4,286.7,75.5z"
					/>
				<path class="st17" d="M285.3,76.7c0,1.5-0.9,2.7-2,2.7c-1.1,0-2-1.2-2-2.7c0-1.5,0.9-2.7,2-2.7
					C284.4,73.9,285.3,75.1,285.3,76.7z"/>
				<path class="st18" d="M286.7,79.1c0,1.5-0.9,2.7-2,2.7c-1.1,0-2-1.2-2-2.7s0.9-2.7,2-2.7C285.8,76.4,286.7,77.6,286.7,79.1z"/>
				<path class="st16" d="M284.4,78.5c0,1.5-0.9,2.7-2,2.7c-1.1,0-2-1.2-2-2.7s0.9-2.7,2-2.7C283.5,75.8,284.4,77.1,284.4,78.5z"/>
				<path class="st17" d="M289.6,75.7c0,1.5-0.9,2.7-2,2.7c-1.1,0-2-1.2-2-2.7s0.9-2.7,2-2.7C288.6,73,289.6,74.3,289.6,75.7z"/>
				<path class="st16" d="M288.9,77.6c0,1.5-0.9,2.7-2,2.7c-1.1,0-2-1.2-2-2.7c0-1.5,0.9-2.7,2-2.7C288,74.9,288.9,76.1,288.9,77.6z
					"/>
			</g>
			<g>
				<path class="st16" d="M283.3,73.3c0,1.1-0.7,2.1-1.5,2.1s-1.5-0.9-1.5-2.1s0.7-2.1,1.5-2.1S283.3,72.1,283.3,73.3z"/>
				<path class="st17" d="M282,74.4c0,1.5-0.9,2.7-2,2.7c-1.1,0-2-1.2-2-2.7s0.9-2.7,2-2.7C281,71.6,282,72.9,282,74.4z"/>
				<path class="st18" d="M283.3,76.9c0,1.5-0.9,2.7-2,2.7c-1.1,0-2-1.2-2-2.7s0.9-2.7,2-2.7C282.4,74.1,283.3,75.3,283.3,76.9z"/>
				<path class="st16" d="M281.1,76.3c0,1.5-0.9,2.7-2,2.7c-1.1,0-2-1.2-2-2.7c0-1.5,0.9-2.7,2-2.7
					C280.1,73.6,281.1,74.8,281.1,76.3z"/>
				<path class="st17" d="M286.2,73.4c0,1.5-0.9,2.7-2,2.7c-1.1,0-2-1.2-2-2.7c0-1.5,0.9-2.7,2-2.7S286.2,72,286.2,73.4z"/>
				<path class="st16" d="M285.5,75.3c0,1.5-0.9,2.7-2,2.7c-1.1,0-2-1.2-2-2.7s0.9-2.7,2-2.7C284.6,72.6,285.5,73.8,285.5,75.3z"/>
			</g>
			<path class="st19" d="M270.6,78.8l20.5-3.7c0,0-3.3,4-3.5,4.2c-0.1,0.3,3.7,13.5,3.7,13.5l-0.9,3h-22.2l-0.4-2.2l3.3-11.8l-1.5-2
				v-1.1L270.6,78.8L270.6,78.8z"/>
			<polygon class="st20" points="287.2,82.5 269.4,93.3 269.8,95.1 290.6,96 268.3,96 268,93.7 271.2,82.3 287.9,79.6 287.9,80.3 
							"/>
			<path class="st17" d="M292.6,87.1l-4-6.3l1.2-1l-1.9-1.3l-17.4,2.7c-0.3,0.1-0.4,0.3-0.4,0.7c0,0.3,0.3,0.6,0.5,0.6l0.3-0.1
				l16.8-2.6l0.1,0.1l-0.3,0.2l-2.2,7.2c-0.1,0.3,0,0.7,0.3,0.8c0.1,0.1,0.1,0.1,0.2,0.1c0.2,0,0.4-0.2,0.4-0.4l1.7-5.8l3.8,6
				c0.1,0.1,0.3,0.2,0.4,0.2s0.2-0.1,0.3-0.2C292.7,87.8,292.8,87.4,292.6,87.1z"/>
		</g>
		<g>
			<g>
				<path class="st21" d="M327.6,95c0,0.6,0.6,1.1,1.2,1.1h17.9c0.7,0,1.2-0.5,1.2-1.1V73.4c0-0.6-0.6-1.1-1.2-1.1h-17.9
					c-0.7,0-1.2,0.5-1.2,1.1V95z"/>
				<path class="st22" d="M344.1,95.5V75.2c0-0.6-0.5-1-1.2-1h-15.4v-0.8c0-0.6,0.6-1.1,1.2-1.1h17.9c0.7,0,1.2,0.5,1.2,1.1V95
					c0,0.6-0.6,1.1-1.2,1.1h-2.9C344,95.9,344.1,95.7,344.1,95.5z"/>
			</g>
			<path class="st13" d="M326.3,72c0,1,0.9,1.8,2,1.8h19.1c1.1,0,2-0.8,2-1.8l0,0c0-1-0.9-1.8-2-1.8h-19.1
				C327.2,70.2,326.3,71,326.3,72L326.3,72z"/>
		</g>
		<g>
			<g>
				<path class="st21" d="M303.6,95c0,0.6,0.6,1.1,1.2,1.1h17.9c0.7,0,1.2-0.5,1.2-1.1V73.4c0-0.6-0.6-1.1-1.2-1.1h-17.9
					c-0.7,0-1.2,0.5-1.2,1.1V95z"/>
				<path class="st22" d="M320.1,95.5V75.2c0-0.6-0.5-1-1.2-1h-15.4v-0.8c0-0.6,0.6-1.1,1.2-1.1h17.9c0.7,0,1.2,0.5,1.2,1.1V95
					c0,0.6-0.6,1.1-1.2,1.1h-2.9C320,95.9,320.1,95.7,320.1,95.5z"/>
			</g>
			<path class="st13" d="M302.2,72c0,1,0.9,1.8,2,1.8h19.1c1.1,0,2-0.8,2-1.8l0,0c0-1-0.9-1.8-2-1.8h-19.1
				C303.1,70.2,302.2,71,302.2,72L302.2,72z"/>
		</g>
		<g>
			<polygon class="st23" points="408.7,76.7 404.2,96.1 410.4,96.1 			"/>
			<g>
				<polygon class="st24" points="413.8,75.2 413.8,75.2 413.1,72 412.6,72 412,75.2 408.7,76.7 406.9,96.1 419.2,96.1 417.4,76.7 
									"/>
				<polygon class="st25" points="412.4,75.3 412.8,72.3 413.5,75.3 417.2,76.9 409,76.9 				"/>
				<polyline class="st26" points="412.8,72.3 413.1,94.9 418.8,96 417.2,76.9 413.7,75.5 				"/>
			</g>
		</g>
		<g>
			<polygon class="st23" points="396.9,76.9 392.5,96.3 398.6,96.2 			"/>
			<g>
				<polygon class="st24" points="402.1,75.3 402.1,75.3 401.4,72.1 400.8,72.1 400.2,75.3 396.9,76.9 395.1,96.2 407.4,96.2 
					405.6,76.9 				"/>
				<polygon class="st25" points="400.7,75.5 401.1,72.5 401.7,75.5 405.5,77.1 397.3,77.1 				"/>
				<polyline class="st26" points="401.1,72.5 401.4,95.1 407.1,96.1 405.5,77.1 402,75.7 				"/>
			</g>
		</g>
		<g>
			<polygon class="st23" points="380.4,76.7 376,96.1 382.1,96.1 			"/>
			<g>
				<polygon class="st27" points="385.5,75.1 385.5,75.1 384.9,72 384.3,72 383.7,75.1 380.4,76.7 378.6,96.1 390.9,96.1 
					389.1,76.7 				"/>
				<polygon class="st25" points="384.1,75.3 384.6,72.3 385.2,75.3 388.9,76.9 380.8,76.9 				"/>
				<polyline class="st26" points="384.6,72.3 384.8,94.9 390.5,95.9 388.9,76.9 385.4,75.5 				"/>
			</g>
		</g>
		<g>
			<polygon class="st23" points="363,76.7 358.6,96.1 364.7,96 			"/>
			<g>
				<polygon class="st27" points="368.1,75.1 368.1,75.1 367.5,72 366.9,72 366.3,75.1 363,76.7 361.2,96 373.6,96 371.7,76.7 				
					"/>
				<polygon class="st25" points="366.7,75.3 367.2,72.2 367.8,75.3 371.5,76.8 363.4,76.8 				"/>
				<polyline class="st26" points="367.2,72.2 367.5,94.9 373.1,95.9 371.5,76.8 368.1,75.5 				"/>
			</g>
		</g>
	</g>
</g>
</svg>
