<?xml version="1.0" encoding="utf-8"?>
<!-- Generator: Adobe Illustrator 25.3.1, SVG Export Plug-In . SVG Version: 6.00 Build 0)  -->
<svg version="1.1" id="圖層_1" xmlns="http://www.w3.org/2000/svg" xmlns:xlink="http://www.w3.org/1999/xlink" x="0px" y="0px"
	 viewBox="0 0 576 363" style="enable-background:new 0 0 576 363;" xml:space="preserve">
<style type="text/css">
	.st0{fill:none;}
	.st1{fill:#FFFFFF;}
	.st2{opacity:0.5;}
	.st3{opacity:0.5;fill:#A1BFBA;enable-background:new    ;}
	.st4{opacity:0.3;fill:#FFFFFF;enable-background:new    ;}
	.st5{opacity:0.4;fill:#FFFFFF;enable-background:new    ;}
	.st6{fill:#D5D5D5;}
	.st7{opacity:0.4;}
	.st8{fill:#93AEB7;}
	.st9{fill:#EEEBE8;}
	.st10{fill:#7C8184;}
	.st11{fill:#E2E1E1;}
	.st12{fill:#77848B;}
	.st13{fill:#E8EEF2;}
	.st14{fill:#B6BDC2;}
	.st15{fill:#4F2B2B;}
	.st16{fill:#EAE0D7;}
	.st17{fill:#C6AF9B;}
	.st18{fill:#A19387;}
	.st19{fill:#5D4731;}
	.st20{fill:#AAA9A9;}
	.st21{fill:#A35C4E;}
	.st22{fill:#DDC7C4;}
	.st23{opacity:0.74;fill:#767777;enable-background:new    ;}
	.st24{fill:#C4A664;}
	.st25{opacity:0.4;fill:#C1C0C0;enable-background:new    ;}
	.st26{fill:#E3E3E3;}
	.st27{fill:#DBDBDB;}
</style>
<g>
	<g>
		<g>
			<g>
				<rect x="7.1" y="16.6" class="st0" width="558.9" height="711.2"/>
				<rect x="-0.8" y="-3.2" class="st1" width="577.5" height="745.2"/>
			</g>
		</g>
	</g>
</g>
<g>
	<g>
		<g>
			<g>
				<rect x="3.6" y="6.4" class="st0" width="567.7" height="728.2"/>
				<g class="st2">
					<rect x="2.5" y="0.8" class="st3" width="575" height="741.2"/>
					<polygon class="st4" points="195.8,739.2 -1.5,739.2 199.3,1.2 396.7,1.2 					"/>
					<polygon class="st5" points="287.6,739.2 215.1,739.2 416,1.2 488.5,1.2 					"/>
					<polygon class="st5" points="357.8,739.2 308.6,739.2 509.4,1.2 558.7,1.2 					"/>
					<polygon class="st5" points="2.5,569.5 157.2,1.2 108,1.2 2.5,388.7 					"/>
				</g>
			</g>
		</g>
	</g>
</g>
<rect x="-206.8" y="-138.8" class="st0" width="990.8" height="557.3"/>
<g>
	<g>
		<path class="st6" d="M-478.9,288.9v1.2c0.4,0,0.9,0.1,1.3,0.1h672.2l-0.4-0.8c-1.8-3.5-1.7-8.1,0.4-11.4c1.8-2.9,4.8-4.5,8.5-4.5
			c1.5,0,2.9,0.2,4.2,0.8l0.7,0.3v-619.8H207v618.1c-1.2-0.4-2.5-0.6-3.9-0.6c-4.1,0-7.6,1.8-9.5,5.1c-2,3.3-2.4,7.9-0.8,11.6
			h-670.4c-0.4,0-0.9,0-1.3-0.1H-478.9z"/>
	</g>
</g>
<g class="st7">
	<rect x="224" y="2" class="st8" width="350" height="361"/>
</g>
<rect x="-206.8" y="-138.8" class="st0" width="990.8" height="557.3"/>
<g>
	<rect x="0" y="308" class="st9" width="575.1" height="11.4"/>
	<rect x="0.4" y="327.2" class="st9" width="574.5" height="10.2"/>
	<rect x="0" y="347.6" class="st9" width="575.2" height="10.2"/>
</g>
<rect x="-206.8" y="-138.8" class="st0" width="990.8" height="557.3"/>
<rect x="-206.8" y="-138.8" class="st0" width="990.8" height="557.3"/>
<g>
	<g>
		<g>
			<g>
				<path class="st10" d="M256.4,188.4c0,0,35-2.7,73.6,1.1l-28.7,3.8l-35.4-1.8L256.4,188.4z"/>
				<path class="st11" d="M256.4,188.4c0,0,16.2,4.5,73.6,1.1c0,0,0.5,8.7-37.8,8C255.7,196.9,256.4,188.4,256.4,188.4z"/>
			</g>
			<g>
				<path class="st10" d="M256.4,181.3c0,0,35-2.7,73.6,1.1l-28.7,3.8l-35.4-1.8L256.4,181.3z"/>
				<path class="st11" d="M256.4,181.3c0,0,16.2,4.5,73.6,1.1c0,0,0.5,8.7-37.8,8C255.7,189.8,256.4,181.3,256.4,181.3z"/>
			</g>
			<g>
				<path class="st10" d="M256.4,174.1c0,0,35-2.7,73.6,1.1l-28.7,3.8l-35.4-1.8L256.4,174.1z"/>
				<path class="st11" d="M256.4,174.1c0,0,16.2,4.5,73.6,1.1c0,0,0.5,8.7-37.8,8C255.7,182.6,256.4,174.1,256.4,174.1z"/>
			</g>
		</g>
		<polygon class="st8" points="466,205.3 260.7,205.3 258.9,197.3 466,197.3 		"/>
		<g>
			<g>
				<g>
					<path class="st12" d="M278.4,203.1c0,0,3.8,13.9,1.4,27.4l-5.8-14.1L278.4,203.1z"/>
					<path class="st13" d="M278.4,203.1c-0.2,0-0.3,0-0.5,0.1l-0.5-2.7l-0.1-0.3c-0.4-0.7-1.6-1.8-3.8-1.5c-0.1,0-0.3,0-0.5,0
						c-2,0.1-6.5,1-7.1,3.4c0,0.1,0,0.3,0.1,1.4c0,0.8,0.2,1.7,0.6,2.7c-1.6,1-3.1,2.4-4,4.1c-0.9,1.7-1.3,5.2-1.3,7.2
						c0.1,1.4,0.5,4.2,1,5.5c2.5,5.5,9.4,7.8,17.4,7.6c0,0-1.8-3.4-2.3-13.6C276.9,206.6,278.4,203.1,278.4,203.1z M268.2,202.5
						c0-0.1,0.6-1.5,4.8-1.7c0.5,0,0.8-0.1,0.9-0.1c0.7-0.1,1.1,0.1,1.2,0.2l0.5,2.4c-2.6,0.3-4.9,0.8-7,1.7
						C268.1,204.1,268.1,203.1,268.2,202.5z"/>
					<g>
						<path class="st14" d="M278.8,227.4c-6.7-0.6-11.3-3.1-13.6-8c-0.6-1.3-1.1-4.3-1.2-5.9c-0.1-1.6,0.2-4,0.6-5.9
							c-0.9,0.8-1.6,1.7-2.1,2.7c-0.9,1.7-1.3,5.2-1.3,7.2c0.1,1.4,0.5,4.2,1,5.5c2.5,5.5,9.4,7.8,17.4,7.6L278.8,227.4z"/>
					</g>
				</g>
				<path class="st15" d="M273.5,202.5c0,0.7-0.7,1.3-1.5,1.3c-0.8,0-1.5-0.6-1.5-1.3c0-0.7,0.6-1.3,1.5-1.3
					C272.8,201.2,273.5,201.7,273.5,202.5z"/>
			</g>
			<g>
				<g>
					<path class="st12" d="M302.2,202c0,0,9.2,11.7,12.4,25.1L303.5,216L302.2,202z"/>
					<path class="st13" d="M302.2,202c-0.2,0.1-0.3,0.1-0.5,0.2l-1.6-2.4l-0.2-0.2c-0.6-0.6-2.2-1.2-4.2-0.1
						c-0.1,0.1-0.2,0.1-0.5,0.2c-1.9,0.8-5.7,3-5.2,5.5c0,0.2,0.2,0.3,0.6,1.3c0.4,0.8,0.9,1.6,1.7,2.2c-1.2,1.5-1.9,3.2-2,5.1
						c-0.2,2,0.9,5.3,1.7,7.1c0.6,1.3,2.1,3.8,3.2,4.8c4.5,4.3,12,4.3,19.3,1.4c0,0-3.1-2.7-7.7-12C302.3,205.7,302.2,202,302.2,202
						z M292.4,204.8c0-0.1,0-1.5,3.8-3.1c0.5-0.1,0.7-0.3,0.8-0.3c0.6-0.3,1-0.3,1.2-0.2l1.3,2.1c-2.3,1.1-4.2,2.4-5.7,3.8
						C293,206.3,292.6,205.3,292.4,204.8z"/>
					<g>
						<path class="st14" d="M312.4,224.5c-6.5,1.7-11.8,0.8-15.9-3c-1.1-1-2.7-3.7-3.4-5.1c-0.7-1.5-1.5-3.8-1.8-5.7
							c-0.5,1-0.8,2-0.9,3.2c-0.2,2,0.9,5.3,1.7,7.1c0.6,1.3,2.1,3.8,3.2,4.8c4.5,4.3,12,4.3,19.3,1.4L312.4,224.5z"/>
					</g>
				</g>
				<path class="st15" d="M298.8,202.5c0,0.7-0.7,1.3-1.5,1.3c-0.8,0-1.5-0.6-1.5-1.3c0-0.7,0.6-1.3,1.5-1.3
					C298.2,201.2,298.8,201.7,298.8,202.5z"/>
			</g>
			<g>
				<g>
					<path class="st12" d="M390.4,203.1c0,0,3.8,13.9,1.4,27.4l-5.8-14.1L390.4,203.1z"/>
					<path class="st13" d="M390.4,203.1c-0.2,0-0.3,0-0.5,0.1l-0.5-2.7l-0.1-0.3c-0.4-0.7-1.6-1.8-3.8-1.5c-0.1,0-0.3,0-0.5,0
						c-2,0.1-6.5,1-7.1,3.4c0,0.1,0,0.3,0.1,1.4c0.1,0.8,0.2,1.7,0.6,2.7c-1.7,1-3.1,2.4-4,4.1c-0.9,1.7-1.4,5.2-1.3,7.2
						c0.1,1.4,0.5,4.2,1.1,5.5c2.5,5.5,9.4,7.8,17.4,7.6c0,0-1.8-3.4-2.3-13.6C388.9,206.6,390.4,203.1,390.4,203.1z M380.2,202.5
						c0-0.1,0.6-1.5,4.8-1.7c0.5,0,0.8-0.1,0.9-0.1c0.7-0.1,1.1,0.1,1.2,0.2l0.5,2.4c-2.6,0.3-4.9,0.8-6.9,1.7
						C380.1,204.1,380.1,203.1,380.2,202.5z"/>
					<g>
						<path class="st14" d="M390.8,227.4c-6.7-0.6-11.3-3.1-13.6-8c-0.6-1.3-1.1-4.3-1.2-5.9c-0.1-1.6,0.2-4,0.6-5.9
							c-0.9,0.8-1.6,1.7-2.1,2.7c-0.9,1.7-1.4,5.2-1.3,7.2c0.1,1.4,0.5,4.2,1.1,5.5c2.5,5.5,9.4,7.8,17.4,7.6L390.8,227.4z"/>
					</g>
				</g>
				<path class="st15" d="M385.5,202.5c0,0.7-0.6,1.3-1.5,1.3c-0.8,0-1.5-0.6-1.5-1.3c0-0.7,0.6-1.3,1.5-1.3
					C384.8,201.2,385.5,201.7,385.5,202.5z"/>
			</g>
			<g>
				<g>
					<path class="st12" d="M414.2,202c0,0,9.2,11.7,12.4,25.1L415.5,216L414.2,202z"/>
					<path class="st13" d="M414.2,202c-0.2,0.1-0.3,0.1-0.5,0.2l-1.6-2.4l-0.2-0.2c-0.6-0.6-2.2-1.2-4.1-0.1
						c-0.1,0.1-0.2,0.1-0.5,0.2c-1.9,0.8-5.7,3-5.2,5.5c0,0.2,0.2,0.3,0.6,1.3c0.4,0.8,0.9,1.6,1.7,2.2c-1.2,1.5-1.9,3.2-2,5.1
						c-0.2,2,0.8,5.3,1.7,7.1c0.6,1.3,2.2,3.8,3.2,4.8c4.6,4.3,12,4.3,19.2,1.4c0,0-3.1-2.7-7.7-12C414.3,205.7,414.2,202,414.2,202
						z M404.5,204.8c0-0.1,0-1.5,3.8-3.1c0.5-0.1,0.7-0.3,0.8-0.3c0.6-0.3,1-0.3,1.2-0.2l1.4,2.1c-2.3,1.1-4.2,2.4-5.7,3.8
						C405.1,206.3,404.6,205.3,404.5,204.8z"/>
					<g>
						<path class="st14" d="M424.5,224.5c-6.5,1.7-11.8,0.8-15.9-3c-1.1-1-2.7-3.7-3.4-5.1c-0.7-1.5-1.5-3.8-1.8-5.7
							c-0.5,1-0.8,2-0.9,3.2c-0.2,2,0.8,5.3,1.7,7.1c0.6,1.3,2.2,3.8,3.2,4.8c4.6,4.3,12,4.3,19.2,1.4L424.5,224.5z"/>
					</g>
				</g>
				<path class="st15" d="M410.9,202.5c0,0.7-0.7,1.3-1.5,1.3c-0.8,0-1.5-0.6-1.5-1.3c0-0.7,0.6-1.3,1.5-1.3
					C410.2,201.2,410.9,201.7,410.9,202.5z"/>
			</g>
			<g>
				<g>
					<path class="st12" d="M337.4,203.2c0,0,3.1,14-0.1,27.4l-5.1-14.3L337.4,203.2z"/>
					<path class="st13" d="M337.4,203.2c-0.2,0-0.3,0-0.5,0l-0.4-2.8l-0.1-0.3c-0.3-0.7-1.5-1.9-3.8-1.6c-0.1,0-0.3,0-0.5,0
						c-2,0-6.6,0.7-7.3,3.1c-0.1,0.1,0,0.3,0,1.5c0,0.8,0.2,1.8,0.5,2.7c-1.7,1-3.2,2.2-4.1,3.9c-1,1.7-1.6,5.1-1.6,7.2
						c0,1.4,0.2,4.2,0.8,5.5c2.2,5.6,9,8.3,17,8.3c0,0-1.6-3.5-1.6-13.8C335.8,206.6,337.4,203.2,337.4,203.2z M327.2,202.2
						c0-0.1,0.7-1.4,4.9-1.5c0.5,0,0.8,0,0.9,0c0.7-0.1,1,0.1,1.2,0.3l0.3,2.4c-2.6,0.2-4.9,0.6-7,1.5
						C327.1,203.8,327.2,202.7,327.2,202.2z"/>
					<g>
						<path class="st14" d="M336.5,227.5c-6.6-0.8-11.2-3.5-13.1-8.5c-0.5-1.4-0.9-4.4-0.9-5.9c0-1.6,0.4-4,1-5.9
							c-0.9,0.8-1.6,1.6-2.3,2.6c-1,1.7-1.6,5.1-1.6,7.2c0,1.4,0.2,4.2,0.8,5.5c2.2,5.6,9,8.3,17,8.3L336.5,227.5z"/>
					</g>
				</g>
				<path class="st15" d="M331.4,202.5c0,0.7-0.6,1.3-1.5,1.3c-0.8,0-1.5-0.6-1.5-1.3c0-0.7,0.6-1.3,1.5-1.3
					C330.7,201.2,331.4,201.7,331.4,202.5z"/>
			</g>
			<g>
				<g>
					<path class="st12" d="M364.4,203.2c0,0,3.1,14-0.1,27.4l-5.1-14.3L364.4,203.2z"/>
					<path class="st13" d="M364.4,203.2c-0.2,0-0.3,0-0.5,0l-0.4-2.8l-0.1-0.3c-0.3-0.7-1.5-1.9-3.8-1.6c-0.1,0-0.3,0-0.5,0
						c-2,0-6.6,0.7-7.3,3.1c-0.1,0.1,0,0.3,0,1.5c0,0.8,0.2,1.8,0.5,2.7c-1.7,1-3.1,2.3-4.1,3.9c-1,1.7-1.6,5.1-1.6,7.2
						c0,1.4,0.2,4.2,0.8,5.5c2.2,5.6,9,8.3,17,8.3c0,0-1.6-3.5-1.6-13.8C362.7,206.6,364.4,203.2,364.4,203.2z M354.2,202.2
						c0-0.1,0.7-1.5,4.9-1.5c0.5,0,0.8,0,0.9,0c0.7-0.1,1.1,0.1,1.2,0.2l0.3,2.4c-2.6,0.2-4.9,0.6-7,1.5
						C354.1,203.8,354.1,202.7,354.2,202.2z"/>
					<g>
						<path class="st14" d="M363.4,227.4c-6.6-0.8-11.2-3.6-13.1-8.5c-0.5-1.4-0.9-4.4-0.9-5.9c0-1.6,0.3-4,0.9-5.9
							c-0.9,0.8-1.6,1.6-2.3,2.6c-1,1.7-1.6,5.1-1.6,7.2c0,1.4,0.2,4.2,0.8,5.5c2.2,5.6,9,8.3,17,8.3L363.4,227.4z"/>
					</g>
				</g>
				<path class="st15" d="M359.1,202.5c0,0.7-0.7,1.3-1.5,1.3c-0.8,0-1.5-0.6-1.5-1.3c0-0.7,0.6-1.3,1.5-1.3
					C358.4,201.2,359.1,201.7,359.1,202.5z"/>
			</g>
		</g>
		<g>
			<g>
				<path class="st16" d="M440.3,171.9c0,1.4,0.9,2.5,1.9,2.5c1,0,1.9-1.1,1.9-2.5c0-1.4-0.9-2.5-1.9-2.5
					C441.2,169.4,440.3,170.5,440.3,171.9z"/>
				<path class="st17" d="M441.9,173.2c0,1.8,1.1,3.3,2.5,3.3c1.3,0,2.5-1.5,2.5-3.3c0-1.8-1.1-3.3-2.5-3.3
					C443.1,169.9,441.9,171.4,441.9,173.2z"/>
				<path class="st18" d="M440.3,176.3c0,1.8,1.1,3.3,2.5,3.3c1.3,0,2.4-1.5,2.4-3.3s-1.1-3.3-2.4-3.3
					C441.4,172.9,440.3,174.5,440.3,176.3z"/>
				<path class="st16" d="M443.1,175.5c0,1.8,1.1,3.3,2.5,3.3c1.3,0,2.5-1.5,2.5-3.3c0-1.8-1.1-3.3-2.5-3.3
					C444.2,172.2,443.1,173.7,443.1,175.5z"/>
				<path class="st17" d="M436.7,172.1c0,1.8,1.1,3.3,2.5,3.3c1.3,0,2.5-1.5,2.5-3.3s-1.1-3.3-2.5-3.3
					C437.8,168.8,436.7,170.3,436.7,172.1z"/>
				<path class="st16" d="M437.6,174.4c0,1.8,1.1,3.3,2.5,3.3c1.3,0,2.5-1.5,2.5-3.3s-1.1-3.3-2.5-3.3
					C438.7,171,437.6,172.6,437.6,174.4z"/>
			</g>
			<g>
				<path class="st16" d="M432.8,171.9c0,1.4,0.9,2.5,1.9,2.5c1,0,1.9-1.1,1.9-2.5c0-1.4-0.9-2.5-1.9-2.5
					C433.5,169.4,432.8,170.5,432.8,171.9z"/>
				<path class="st17" d="M434.3,173.2c0,1.8,1.1,3.3,2.5,3.3c1.3,0,2.5-1.5,2.5-3.3c0-1.8-1.1-3.3-2.5-3.3
					C435.4,169.9,434.3,171.4,434.3,173.2z"/>
				<path class="st18" d="M432.8,176.3c0,1.8,1.1,3.3,2.5,3.3c1.3,0,2.5-1.5,2.5-3.3s-1.1-3.3-2.5-3.3
					C433.8,172.9,432.8,174.5,432.8,176.3z"/>
				<path class="st16" d="M435.4,175.5c0,1.8,1.1,3.3,2.5,3.3c1.3,0,2.5-1.5,2.5-3.3c0-1.8-1.1-3.3-2.5-3.3
					C436.5,172.2,435.4,173.7,435.4,175.5z"/>
				<path class="st17" d="M429.2,172.1c0,1.8,1.1,3.3,2.5,3.3c1.3,0,2.5-1.5,2.5-3.3s-1.1-3.3-2.5-3.3
					C430.3,168.8,429.2,170.3,429.2,172.1z"/>
				<path class="st16" d="M430,174.4c0,1.8,1.1,3.3,2.5,3.3c1.3,0,2.5-1.5,2.5-3.3s-1.1-3.3-2.5-3.3C431.1,171,430,172.6,430,174.4z
					"/>
			</g>
			<g>
				<path class="st16" d="M429,172.1c0,1.4,0.9,2.5,1.9,2.5c1,0,1.9-1.1,1.9-2.5c0-1.4-0.9-2.5-1.9-2.5
					C429.9,169.6,429,170.7,429,172.1z"/>
				<path class="st17" d="M430.6,173.4c0,1.8,1.1,3.3,2.5,3.3c1.3,0,2.5-1.5,2.5-3.3c0-1.8-1.1-3.3-2.5-3.3
					C431.7,170.1,430.6,171.6,430.6,173.4z"/>
				<path class="st18" d="M429,176.5c0,1.8,1.1,3.3,2.4,3.3s2.5-1.5,2.5-3.3s-1.1-3.3-2.5-3.3C430.1,173.1,429,174.6,429,176.5z"/>
				<path class="st16" d="M431.7,175.7c0,1.8,1.1,3.3,2.5,3.3c1.3,0,2.5-1.5,2.5-3.3s-1.1-3.3-2.5-3.3
					C432.8,172.4,431.7,173.9,431.7,175.7z"/>
				<path class="st17" d="M425.4,172.3c0,1.8,1.1,3.3,2.5,3.3c1.3,0,2.5-1.5,2.5-3.3s-1.1-3.3-2.5-3.3
					C426.6,169,425.4,170.5,425.4,172.3z"/>
				<path class="st16" d="M426.3,174.5c0,1.8,1.1,3.3,2.5,3.3c1.3,0,2.5-1.5,2.5-3.3s-1.1-3.3-2.5-3.3
					C427.4,171.2,426.3,172.7,426.3,174.5z"/>
			</g>
			<g>
				<path class="st16" d="M433.1,169.3c0,1.4,0.9,2.5,1.9,2.5c1,0,1.9-1.1,1.9-2.5c0-1.4-0.9-2.5-1.9-2.5
					C434,166.8,433.1,167.9,433.1,169.3z"/>
				<path class="st17" d="M434.8,170.6c0,1.8,1.1,3.3,2.5,3.3c1.3,0,2.5-1.5,2.5-3.3s-1.1-3.3-2.5-3.3
					C435.9,167.3,434.8,168.8,434.8,170.6z"/>
				<path class="st18" d="M433.1,173.7c0,1.8,1.1,3.3,2.5,3.3c1.3,0,2.5-1.5,2.5-3.3s-1.1-3.3-2.5-3.3
					C434.2,170.3,433.1,171.9,433.1,173.7z"/>
				<path class="st16" d="M435.9,172.9c0,1.8,1.1,3.3,2.5,3.3c1.3,0,2.5-1.5,2.5-3.3s-1.1-3.3-2.5-3.3S435.9,171.1,435.9,172.9z"/>
				<path class="st17" d="M429.5,169.5c0,1.8,1.1,3.3,2.5,3.3c1.3,0,2.5-1.5,2.5-3.3s-1.1-3.3-2.5-3.3
					C430.7,166.2,429.5,167.7,429.5,169.5z"/>
				<path class="st16" d="M430.4,171.8c0,1.8,1.1,3.3,2.5,3.3c1.3,0,2.5-1.5,2.5-3.3s-1.1-3.3-2.5-3.3
					C431.5,168.4,430.4,170,430.4,171.8z"/>
			</g>
			<path class="st19" d="M448.6,176.1l-25-4.5c0,0,4.1,4.9,4.2,5.2c0.2,0.3-4.5,16.4-4.5,16.4l1.1,3.7h27.1l0.5-2.7l-4.1-14.4
				l1.9-2.4v-1.3H448.6z"/>
			<polygon class="st20" points="428.3,180.6 450,193.8 449.6,195.9 424.1,197 451.4,197 451.8,194.3 447.9,180.3 427.4,177 
				427.4,177.9 			"/>
			<path class="st17" d="M421.7,186.2l4.9-7.7l-1.5-1.2l2.3-1.5l21.2,3.4c0.3,0.1,0.5,0.4,0.5,0.8c0,0.4-0.3,0.7-0.6,0.7l-0.4-0.1
				l-20.5-3.2l-0.1,0.1l0.3,0.3l2.7,8.7c0.1,0.4,0,0.8-0.3,1c-0.1,0.1-0.2,0.1-0.2,0.1c-0.2,0-0.5-0.2-0.5-0.5l-2.1-7.1l-4.6,7.3
				c-0.1,0.1-0.3,0.3-0.5,0.3s-0.2-0.1-0.4-0.2C421.6,187.1,421.6,186.6,421.7,186.2z"/>
		</g>
		<g>
			<g>
				<path class="st21" d="M375.2,195.8c0,0.8-0.7,1.3-1.5,1.3h-21.9c-0.9,0-1.5-0.6-1.5-1.3v-26.4c0-0.8,0.7-1.3,1.5-1.3h21.9
					c0.9,0,1.5,0.6,1.5,1.3V195.8z"/>
				<path class="st22" d="M355,196.4v-24.8c0-0.7,0.6-1.3,1.4-1.3h18.8v-1c0-0.8-0.7-1.3-1.5-1.3h-21.9c-0.9,0-1.5,0.6-1.5,1.3v26.4
					c0,0.8,0.7,1.3,1.5,1.3h3.5C355.2,197,355,196.7,355,196.4z"/>
			</g>
			<path class="st13" d="M376.8,167.7c0,1.2-1.1,2.2-2.4,2.2h-23.3c-1.3,0-2.4-1-2.4-2.2l0,0c0-1.2,1.1-2.2,2.4-2.2h23.3
				C375.7,165.5,376.8,166.5,376.8,167.7L376.8,167.7z"/>
		</g>
		<g>
			<g>
				<path class="st21" d="M404.6,195.8c0,0.8-0.7,1.3-1.5,1.3h-21.9c-0.9,0-1.5-0.6-1.5-1.3v-26.4c0-0.8,0.7-1.3,1.5-1.3h21.9
					c0.9,0,1.5,0.6,1.5,1.3V195.8z"/>
				<path class="st22" d="M384.4,196.4v-24.8c0-0.7,0.6-1.3,1.4-1.3h18.8v-1c0-0.8-0.7-1.3-1.5-1.3h-21.9c-0.9,0-1.5,0.6-1.5,1.3
					v26.4c0,0.8,0.7,1.3,1.5,1.3h3.5C384.6,197,384.4,196.7,384.4,196.4z"/>
			</g>
			<path class="st13" d="M406.2,167.7c0,1.2-1.1,2.2-2.4,2.2h-23.3c-1.3,0-2.4-1-2.4-2.2l0,0c0-1.2,1.1-2.2,2.4-2.2h23.3
				C405.1,165.5,406.2,166.5,406.2,167.7L406.2,167.7z"/>
		</g>
	</g>
	<g>
		<polygon class="st8" points="256.4,139 461.8,139 463.5,131 256.4,131 		"/>
		<g>
			<g>
				<path class="st16" d="M282,105.6c0,1.4-0.9,2.5-1.9,2.5c-1,0-1.9-1.1-1.9-2.5s0.9-2.5,1.9-2.5C281.2,103,282,104.2,282,105.6z"
					/>
				<path class="st17" d="M280.5,106.9c0,1.8-1.1,3.3-2.5,3.3c-1.3,0-2.5-1.5-2.5-3.3c0-1.8,1.1-3.3,2.5-3.3
					C279.4,103.5,280.5,105.1,280.5,106.9z"/>
				<path class="st18" d="M282,110c0,1.8-1.1,3.3-2.5,3.3c-1.3,0-2.4-1.5-2.4-3.3c0-1.8,1.1-3.3,2.4-3.3
					C280.9,106.6,282,108.1,282,110z"/>
				<path class="st16" d="M279.4,109.2c0,1.8-1.1,3.3-2.5,3.3c-1.3,0-2.5-1.5-2.5-3.3c0-1.8,1.1-3.3,2.5-3.3
					C278.3,105.9,279.4,107.4,279.4,109.2z"/>
				<path class="st17" d="M285.6,105.8c0,1.8-1.1,3.3-2.5,3.3c-1.3,0-2.5-1.5-2.5-3.3c0-1.8,1.1-3.3,2.5-3.3
					C284.5,102.5,285.6,103.9,285.6,105.8z"/>
				<path class="st16" d="M284.8,108.1c0,1.8-1.1,3.3-2.5,3.3c-1.3,0-2.5-1.5-2.5-3.3c0-1.8,1.1-3.3,2.5-3.3
					C283.7,104.7,284.8,106.3,284.8,108.1z"/>
			</g>
			<g>
				<path class="st16" d="M289.7,105.6c0,1.4-0.9,2.5-1.9,2.5c-1,0-1.9-1.1-1.9-2.5s0.9-2.5,1.9-2.5
					C288.8,103,289.7,104.2,289.7,105.6z"/>
				<path class="st17" d="M288,106.9c0,1.8-1.1,3.3-2.5,3.3c-1.3,0-2.5-1.5-2.5-3.3c0-1.8,1.1-3.3,2.5-3.3
					C286.9,103.5,288,105.1,288,106.9z"/>
				<path class="st18" d="M289.7,110c0,1.8-1.1,3.3-2.5,3.3c-1.3,0-2.5-1.5-2.5-3.3c0-1.8,1.1-3.3,2.5-3.3
					C288.5,106.6,289.7,108.1,289.7,110z"/>
				<path class="st16" d="M286.9,109.2c0,1.8-1.1,3.3-2.5,3.3c-1.3,0-2.5-1.5-2.5-3.3c0-1.8,1.1-3.3,2.5-3.3
					C285.8,105.9,286.9,107.4,286.9,109.2z"/>
				<path class="st17" d="M293.2,105.8c0,1.8-1.1,3.3-2.5,3.3c-1.3,0-2.5-1.5-2.5-3.3c0-1.8,1.1-3.3,2.5-3.3
					S293.2,103.9,293.2,105.8z"/>
				<path class="st16" d="M292.4,108.1c0,1.8-1.1,3.3-2.5,3.3c-1.3,0-2.5-1.5-2.5-3.3c0-1.8,1.1-3.3,2.5-3.3
					C291.2,104.7,292.4,106.3,292.4,108.1z"/>
			</g>
			<g>
				<path class="st16" d="M293.4,105.7c0,1.4-0.9,2.5-1.9,2.5c-1,0-1.9-1.1-1.9-2.5s0.9-2.5,1.9-2.5
					C292.5,103.2,293.4,104.3,293.4,105.7z"/>
				<path class="st17" d="M291.7,107.1c0,1.8-1.1,3.3-2.5,3.3c-1.3,0-2.5-1.5-2.5-3.3c0-1.8,1.1-3.3,2.5-3.3
					C290.6,103.7,291.7,105.2,291.7,107.1z"/>
				<path class="st18" d="M293.4,110.1c0,1.8-1.1,3.3-2.4,3.3s-2.5-1.5-2.5-3.3c0-1.8,1.1-3.3,2.5-3.3
					C292.3,106.8,293.4,108.3,293.4,110.1z"/>
				<path class="st16" d="M290.6,109.4c0,1.8-1.1,3.3-2.5,3.3c-1.3,0-2.5-1.5-2.5-3.3c0-1.8,1.1-3.3,2.5-3.3
					C289.5,106,290.6,107.6,290.6,109.4z"/>
				<path class="st17" d="M297,106c0,1.8-1.1,3.3-2.5,3.3c-1.3,0-2.5-1.5-2.5-3.3c0-1.8,1.1-3.3,2.5-3.3
					C295.8,102.7,297,104.2,297,106z"/>
				<path class="st16" d="M296.1,108.2c0,1.8-1.1,3.3-2.5,3.3c-1.3,0-2.5-1.5-2.5-3.3c0-1.8,1.1-3.3,2.5-3.3
					C295,104.9,296.1,106.4,296.1,108.2z"/>
			</g>
			<g>
				<path class="st16" d="M289.2,103c0,1.4-0.9,2.5-1.9,2.5c-1,0-1.9-1.1-1.9-2.5s0.9-2.5,1.9-2.5
					C288.4,100.4,289.2,101.6,289.2,103z"/>
				<path class="st17" d="M287.6,104.3c0,1.8-1.1,3.3-2.5,3.3c-1.3,0-2.5-1.5-2.5-3.3c0-1.8,1.1-3.3,2.5-3.3
					C286.5,100.9,287.6,102.5,287.6,104.3z"/>
				<path class="st18" d="M289.2,107.4c0,1.8-1.1,3.3-2.5,3.3c-1.3,0-2.5-1.5-2.5-3.3c0-1.8,1.1-3.3,2.5-3.3
					C288.1,104,289.2,105.5,289.2,107.4z"/>
				<path class="st16" d="M286.6,106.6c0,1.8-1.1,3.3-2.5,3.3c-1.3,0-2.5-1.5-2.5-3.3c0-1.8,1.1-3.3,2.5-3.3
					C285.4,103.3,286.6,104.8,286.6,106.6z"/>
				<path class="st17" d="M292.8,103.2c0,1.8-1.1,3.3-2.5,3.3c-1.3,0-2.5-1.5-2.5-3.3c0-1.8,1.1-3.3,2.5-3.3
					S292.8,101.4,292.8,103.2z"/>
				<path class="st16" d="M292,105.5c0,1.8-1.1,3.3-2.5,3.3c-1.3,0-2.5-1.5-2.5-3.3c0-1.8,1.1-3.3,2.5-3.3
					C290.9,102.1,292,103.6,292,105.5z"/>
			</g>
			<path class="st19" d="M273.8,109.7l25-4.5c0,0-4.1,4.9-4.2,5.2c-0.2,0.3,4.5,16.4,4.5,16.4l-1.1,3.7h-27.1l-0.5-2.7l4.1-14.4
				l-1.9-2.4v-1.3L273.8,109.7L273.8,109.7z"/>
			<polygon class="st20" points="294.1,114.2 272.3,127.4 272.8,129.6 298.2,130.7 271,130.7 270.5,127.9 274.5,114 294.9,110.7 
				294.9,111.6 			"/>
			<path class="st17" d="M300.6,119.9l-4.9-7.7l1.5-1.2l-2.3-1.5l-21.2,3.4c-0.3,0.1-0.5,0.4-0.5,0.8c0,0.4,0.3,0.7,0.6,0.7l0.4-0.1
				l20.5-3.2l0.1,0.1l-0.3,0.3l-2.7,8.7c-0.1,0.4,0,0.8,0.3,1c0.1,0.1,0.2,0.1,0.2,0.1c0.2,0,0.5-0.2,0.5-0.5l2.1-7.1l4.6,7.3
				c0.1,0.1,0.3,0.3,0.5,0.3s0.2-0.1,0.4-0.2C300.8,120.7,300.9,120.2,300.6,119.9z"/>
		</g>
		<g>
			<g>
				<path class="st21" d="M343.3,129.5c0,0.8,0.7,1.3,1.5,1.3h21.9c0.9,0,1.5-0.6,1.5-1.3v-26.4c0-0.8-0.7-1.3-1.5-1.3h-21.9
					c-0.9,0-1.5,0.6-1.5,1.3V129.5z"/>
				<path class="st22" d="M363.5,130.1v-24.8c0-0.7-0.6-1.3-1.4-1.3h-18.8v-1c0-0.8,0.7-1.3,1.5-1.3h21.9c0.9,0,1.5,0.6,1.5,1.3
					v26.4c0,0.8-0.7,1.3-1.5,1.3h-3.5C363.4,130.6,363.5,130.4,363.5,130.1z"/>
			</g>
			<path class="st13" d="M341.8,101.4c0,1.2,1.1,2.2,2.4,2.2h23.3c1.3,0,2.4-1,2.4-2.2l0,0c0-1.2-1.1-2.2-2.4-2.2h-23.3
				C342.9,99.2,341.8,100.2,341.8,101.4L341.8,101.4z"/>
		</g>
		<g>
			<g>
				<path class="st21" d="M314,129.5c0,0.8,0.7,1.3,1.5,1.3h21.9c0.9,0,1.5-0.6,1.5-1.3v-26.4c0-0.8-0.7-1.3-1.5-1.3h-21.9
					c-0.9,0-1.5,0.6-1.5,1.3V129.5z"/>
				<path class="st22" d="M334.2,130.1v-24.8c0-0.7-0.6-1.3-1.4-1.3H314v-1c0-0.8,0.7-1.3,1.5-1.3h21.9c0.9,0,1.5,0.6,1.5,1.3v26.4
					c0,0.8-0.7,1.3-1.5,1.3h-3.5C334,130.6,334.2,130.4,334.2,130.1z"/>
			</g>
			<path class="st13" d="M312.4,101.4c0,1.2,1.1,2.2,2.4,2.2h23.3c1.3,0,2.4-1,2.4-2.2l0,0c0-1.2-1.1-2.2-2.4-2.2h-23.3
				C313.5,99.2,312.4,100.2,312.4,101.4L312.4,101.4z"/>
		</g>
		<g>
			<polygon class="st23" points="442.4,107.2 437,130.9 444.5,130.8 			"/>
			<g>
				<polygon class="st24" points="448.6,105.3 448.6,105.3 447.9,101.4 447.1,101.4 446.4,105.3 442.4,107.2 440.2,130.8 
					455.3,130.8 453,107.2 				"/>
				<polygon class="st25" points="446.9,105.5 447.5,101.8 448.2,105.5 452.8,107.4 442.8,107.4 				"/>
				<polyline class="st26" points="447.5,101.8 447.9,129.4 454.7,130.7 452.8,107.4 448.6,105.7 				"/>
			</g>
		</g>
		<g>
			<polygon class="st23" points="428.1,107.4 422.7,131.1 430.1,131 			"/>
			<g>
				<polygon class="st24" points="434.3,105.5 434.3,105.5 433.5,101.6 432.8,101.6 432.1,105.5 428.1,107.4 425.8,131 440.9,131 
					438.7,107.4 				"/>
				<polygon class="st25" points="432.6,105.7 433.1,102 433.9,105.7 438.5,107.6 428.5,107.6 				"/>
				<polyline class="st26" points="433.1,102 433.5,129.6 440.4,130.9 438.5,107.6 434.2,105.9 				"/>
			</g>
		</g>
		<g>
			<polygon class="st23" points="407.9,107.2 402.5,130.8 409.9,130.8 			"/>
			<g>
				<polygon class="st27" points="414.1,105.2 414.1,105.2 413.4,101.4 412.7,101.4 411.9,105.2 407.9,107.2 405.6,130.8 
					420.7,130.8 418.5,107.2 				"/>
				<polygon class="st25" points="412.3,105.5 413,101.8 413.7,105.5 418.2,107.4 408.3,107.4 				"/>
				<polyline class="st26" points="413,101.8 413.3,129.4 420.2,130.6 418.2,107.4 414,105.7 				"/>
			</g>
		</g>
		<g>
			<polygon class="st23" points="386.6,107.1 381.2,130.8 388.7,130.7 			"/>
			<g>
				<polygon class="st27" points="392.9,105.2 392.9,105.2 392.1,101.4 391.4,101.4 390.7,105.2 386.6,107.1 384.4,130.7 
					399.5,130.7 397.2,107.1 				"/>
				<polygon class="st25" points="391.1,105.5 391.7,101.7 392.5,105.5 397,107.3 387.1,107.3 				"/>
				<polyline class="st26" points="391.7,101.7 392.1,129.3 399,130.6 397,107.3 392.8,105.7 				"/>
			</g>
		</g>
	</g>
</g>
</svg>
