<?xml version="1.0" encoding="utf-8"?>
<!-- Generator: Adobe Illustrator 25.3.1, SVG Export Plug-In . SVG Version: 6.00 Build 0)  -->
<svg version="1.1" id="圖層_1" xmlns="http://www.w3.org/2000/svg" xmlns:xlink="http://www.w3.org/1999/xlink" x="0px" y="0px"
	 viewBox="0 0 100 120" style="enable-background:new 0 0 100 120;" xml:space="preserve">
<style type="text/css">
	.st0{fill:#5BBC76;}
	.st1{fill:url(#SVGID_1_);}
	.st2{fill:#FFFFFF;}
</style>
<g>
	<path class="st0" d="M98.6,25.3v34.3c0,2.1-0.1,4.2-0.2,6.1c-0.4,7.8-1.7,14.6-3.5,20.6c-4.6,15.1-14.7,25-26.7,30
		c-23.6,9.7-54.3-0.3-63.3-30c-2.3-7.5-3.7-16.4-3.7-26.8V25.3c0-1.8,1.5-3.4,3.3-3.4c25.4-1,37.6-13.4,42.6-20.4c1.4-2,4.2-2,5.6,0
		c4.9,7.1,17.1,19.5,42.6,20.4C97.2,22,98.6,23.5,98.6,25.3z"/>
	
		<linearGradient id="SVGID_1_" gradientUnits="userSpaceOnUse" x1="57.6717" y1="56.6006" x2="81.8475" y2="32.5322" gradientTransform="matrix(1 0 0 -1 0 122)">
		<stop  offset="0" style="stop-color:#499E5D"/>
		<stop  offset="1" style="stop-color:#499E5D;stop-opacity:0"/>
	</linearGradient>
	<path class="st1" d="M98.5,65.8c-0.4,7.8-1.7,14.6-3.5,20.6c-4.6,15.1-14.7,25-26.7,30L36.8,84.8l36.4-44.4L98.5,65.8z"/>
	<path class="st2" d="M73.2,40.4C71,38.6,67.8,39,66,41.2L40,73.5l-6.4-6.4c-2-2-5.2-2-7.2,0c-2,2-2,5.2,0,7.2l10.4,10.4
		c1,1,2.3,1.5,3.6,1.5c0.1,0,0.2,0,0.3,0c1.4-0.1,2.8-0.8,3.7-1.9l29.6-36.8C75.7,45.4,75.4,42.2,73.2,40.4z"/>
</g>
</svg>
