<?xml version="1.0" encoding="utf-8"?>
<!-- Generator: Adobe Illustrator 25.3.1, SVG Export Plug-In . SVG Version: 6.00 Build 0)  -->
<svg version="1.1" id="圖層_1" xmlns="http://www.w3.org/2000/svg" xmlns:xlink="http://www.w3.org/1999/xlink" x="0px" y="0px"
	 viewBox="0 0 40 35" style="enable-background:new 0 0 40 35;" xml:space="preserve">
<style type="text/css">
	.st0{fill:#798690;}
	.st1{fill:#151719;}
	.st2{fill:#1F262E;}
	.st3{fill:#EAEAE5;}
	.st4{fill:#FFFFFF;}
	.st5{fill:#BAD4CA;}
	.st6{fill:#ACCCBF;}
	.st7{fill:#ABCCBF;}
	.st8{fill:#FFFFFE;}
	.st9{fill:#565C64;}
</style>
<g>
	<g>
		<g>
			<g>
				<g>
					<rect x="8.3" y="32.3" class="st0" width="29" height="2.5"/>
				</g>
			</g>
		</g>
		<g>
			<g>
				<g>
					<g>
						<path class="st1" d="M37.2,32.2L40,1.4c0.1-0.7-0.2-1.2-0.6-1.2H14.5c-0.4,0-0.7,0.6-0.8,1.2L11,32.2H37.2z"/>
					</g>
				</g>
			</g>
			<g>
				<g>
					<g>
						<path class="st2" d="M35.9,32.2l2.8-30.8c0.1-0.7-0.2-1.2-0.6-1.2H13.3c-0.4,0-0.7,0.6-0.8,1.2L9.7,32.2H35.9z"/>
					</g>
				</g>
			</g>
			<g>
				<g>
					<polygon class="st3" points="10.9,30.4 13.4,2.4 37.5,2.4 34.9,30.4 					"/>
				</g>
			</g>
			<g>
				<g>
					<polygon class="st4" points="30.5,30.4 11.7,30.4 13.8,6.4 32.7,6.4 					"/>
				</g>
			</g>
			<g>
				<g>
					<polygon class="st5" points="26.3,13.8 14.3,13.8 14.4,12.9 26.4,12.9 					"/>
				</g>
			</g>
			<g>
				<g>
					<polygon class="st6" points="23.7,16.1 14.1,16.1 14.2,15.2 23.8,15.2 					"/>
				</g>
			</g>
			<g>
				<g>
					<polygon class="st6" points="20.4,18.4 13.9,18.4 13.9,17.5 20.5,17.5 					"/>
				</g>
			</g>
			<g>
				<g>
					<polygon class="st7" points="24,20.8 13.6,20.8 13.7,19.9 24,19.9 					"/>
				</g>
			</g>
			<g>
				<g>
					<g>
						<polygon class="st3" points="29.7,28.4 25.7,28.4 27.1,12.9 31.1,12.9 						"/>
					</g>
				</g>
			</g>
			<g>
				<g>
					<polygon class="st4" points="33.9,30.4 19.8,30.4 21.4,12.6 35.6,12.6 					"/>
				</g>
			</g>
		</g>
		<g>
			<g>
				<g>
					<rect y="32.3" class="st8" width="31.7" height="2.5"/>
				</g>
			</g>
		</g>
	</g>
	<g>
		<path class="st4" d="M24.7,22.3L24.7,22.3c-0.9,0-1.6,0-2.5,0c-0.8,0-1.4,1.1-1.6,2.4c-0.2,1.3,0.2,2.5,0.9,2.5c1.7,0,3.4,0,5.1,0
			c0.4,0,0.8-0.3,1.1-0.9c0.5-0.8,0.7-1.7,0.6-2.6c-0.1-1-0.4-1.4-1-1.4C26.3,22.3,25.5,22.3,24.7,22.3z M22.8,13.1
			c1.2-1.8,2.5-2.8,3.8-2.7c1.3,0,2.3,1,3,2.8c0.3-0.4,0.5-0.8,0.7-1.1c-1.4-4.4-5.4-4.2-8-0.1C22.6,12.4,22.7,12.7,22.8,13.1z
			 M23.6,15.3c1.5-2.2,3.6-2.5,4.6,0c0.3-0.4,0.5-0.7,0.7-1.1c-1.1-3.1-3.7-3.1-5.7,0C23.4,14.6,23.5,14.9,23.6,15.3z M27.5,16.6
			c-0.6-1.9-2.4-1.9-3.5-0.2c0.1,0.4,0.3,0.8,0.4,1.1c0.4-0.6,0.8-0.9,1.2-0.9s0.8,0.4,1.1,1c0.2-0.3,0.3-0.5,0.5-0.8
			C27.3,16.7,27.4,16.7,27.5,16.6z M25.2,20.2c0.4,0,0.7-0.6,0.8-1.2c0.1-0.7-0.1-1.2-0.5-1.2c-0.4,0-0.7,0.5-0.8,1.2
			C24.7,19.6,24.9,20.2,25.2,20.2z"/>
		<path class="st9" d="M24.7,22.3c0.9,0,1.6,0,2.5,0c0.5,0,0.9,0.5,1,1.4c0.1,1-0.1,1.8-0.6,2.6c-0.3,0.6-0.7,0.9-1.1,0.9
			c-1.7,0-3.4,0-5.1,0c-0.7,0-1.1-1.2-0.9-2.5c0.2-1.3,0.9-2.4,1.6-2.4S23.8,22.3,24.7,22.3L24.7,22.3z M22,23.6
			c0,0.8,0,1.5-0.1,2.3c0,0.3,0.1,0.3,0.2,0.3c0.1,0,0.2-0.1,0.3-0.3c0.1-0.5,0.3-1,0.4-1.3c0,0.5,0,1-0.1,1.4c0,0.2,0,0.3,0.2,0.3
			c0.1,0,0.2,0,0.3-0.3c0.1-0.6,0.3-1.1,0.5-1.6c0.1-0.3,0.1-0.5,0.2-0.8c-0.3-0.1-0.3-0.1-0.4,0.5c-0.1,0.4-0.2,0.9-0.3,1.2
			c0-0.5,0-1,0.1-1.4c0-0.2,0-0.3-0.2-0.3c-0.1,0-0.2,0-0.3,0.3c-0.1,0.5-0.3,1-0.4,1.4c0-0.4,0-0.9,0-1.2
			C22.4,23.5,22.4,23.5,22,23.6z M25.5,23.9c0.2,0,0.3,0,0.5,0c0-0.2,0-0.3,0.1-0.5c-0.2,0-0.5,0-0.7,0c-0.1,0-0.2,0.1-0.2,0.4
			c-0.1,0.6-0.2,1.2-0.3,1.8c-0.1,0.5-0.1,0.5,0.3,0.4c0-0.3,0.1-0.7,0.2-1c0.2,0,0.4,0,0.5-0.1c0-0.2,0-0.3,0.1-0.5
			c-0.1,0-0.2,0-0.2,0C25.3,24.6,25.3,24.6,25.5,23.9z M25.9,26.1c0.1,0,0.2,0,0.3,0c0.1-0.7,0.2-1.2,0.3-1.9c-0.1,0-0.2,0-0.3,0
			C26,24.9,25.9,25.5,25.9,26.1z M23.8,24.2c-0.1,0.7-0.2,1.2-0.3,1.9c0.1,0,0.3,0.2,0.3-0.2c0.1-0.6,0.2-1.2,0.3-1.7
			C24,24.2,23.9,24.2,23.8,24.2z M24.2,24.9c0,0.2,0,0.3-0.1,0.4c0.1,0,0.3,0,0.4,0c0,0,0.1-0.1,0.2-0.2c0-0.1,0-0.2-0.1-0.2
			C24.5,24.9,24.4,24.9,24.2,24.9z M24.3,23.7c-0.1-0.2-0.1-0.3-0.2-0.3c-0.1,0-0.1,0.2-0.2,0.3c0,0.1,0.1,0.3,0.1,0.3
			C24.1,23.9,24.1,23.8,24.3,23.7z M26.4,23.3c-0.1,0.2-0.2,0.4-0.2,0.5c0,0.1,0.1,0.3,0.1,0.3c0.1,0,0.2-0.2,0.2-0.3
			C26.5,23.6,26.4,23.5,26.4,23.3z"/>
		<path class="st9" d="M22.8,13.1c-0.1-0.4-0.3-0.8-0.4-1.2c2.6-4.2,6.5-4.3,8,0.1c-0.2,0.4-0.5,0.7-0.7,1.1c-0.7-1.8-1.7-2.8-3-2.8
			C25.4,10.4,24,11.3,22.8,13.1z"/>
		<path class="st9" d="M23.6,15.3c-0.1-0.4-0.3-0.8-0.4-1.1c1.9-3.1,4.6-3,5.7,0c-0.2,0.4-0.5,0.7-0.7,1.1
			C27.2,12.8,25.2,13.1,23.6,15.3z"/>
		<path class="st9" d="M27.5,16.6c-0.1,0.1-0.2,0.2-0.3,0.3c-0.2,0.2-0.3,0.5-0.5,0.8c-0.3-0.6-0.6-1-1.1-1s-0.9,0.3-1.2,0.9
			c-0.1-0.4-0.3-0.8-0.4-1.1C25.1,14.7,26.9,14.7,27.5,16.6z"/>
		<path class="st9" d="M25.2,20.2c-0.3,0-0.6-0.6-0.4-1.2c0.1-0.7,0.5-1.2,0.8-1.2c0.4,0,0.6,0.6,0.5,1.2
			C25.9,19.6,25.6,20.2,25.2,20.2z"/>
		<path class="st4" d="M22,23.6c0.4-0.1,0.4-0.1,0.3,0.5c0,0.4,0,0.9,0,1.2c0.1-0.5,0.3-1,0.4-1.4c0.1-0.3,0.1-0.3,0.3-0.3
			c0.1,0,0.2,0.1,0.2,0.3c0,0.5-0.1,1-0.1,1.4c0.1-0.4,0.2-0.9,0.3-1.2c0.1-0.5,0.1-0.5,0.4-0.5c-0.1,0.3-0.1,0.5-0.2,0.8
			c-0.2,0.6-0.3,1.1-0.5,1.6c-0.1,0.3-0.2,0.3-0.3,0.3s-0.2-0.1-0.2-0.3c0-0.5,0.1-1,0.1-1.4c-0.1,0.5-0.3,0.9-0.4,1.3
			c-0.1,0.2-0.1,0.3-0.3,0.3c-0.1,0-0.2,0-0.2-0.3C22,25.1,22,24.3,22,23.6z"/>
		<path class="st4" d="M25.5,23.9c-0.1,0.6-0.1,0.6,0.1,0.6c0.1,0,0.2,0,0.2,0c0,0.2,0,0.3-0.1,0.5c-0.2,0-0.3,0-0.5,0.1
			c-0.1,0.4-0.1,0.7-0.2,1c-0.3,0.1-0.3,0.1-0.3-0.4c0.1-0.6,0.2-1.2,0.3-1.8c0-0.3,0.1-0.4,0.2-0.4c0.2,0,0.4,0,0.7,0
			c0,0.2,0,0.3-0.1,0.5C25.8,23.9,25.6,23.9,25.5,23.9z"/>
		<path class="st4" d="M25.9,26.1c0.1-0.7,0.2-1.2,0.3-1.9c0.1,0,0.2,0,0.3,0c-0.1,0.6-0.2,1.2-0.3,1.9C26,26.1,25.9,26.1,25.9,26.1
			z"/>
		<path class="st4" d="M23.8,24.2c0.1,0,0.2,0,0.3,0c-0.1,0.6-0.2,1.2-0.3,1.7c-0.1,0.4-0.2,0.1-0.3,0.2
			C23.6,25.5,23.7,24.9,23.8,24.2z"/>
		<path class="st4" d="M24.2,24.9c0.2,0,0.3,0,0.4,0c0,0,0.1,0.1,0.1,0.2c-0.1,0.1-0.1,0.2-0.2,0.2c-0.1,0-0.3,0-0.4,0
			C24.2,25.2,24.2,25.1,24.2,24.9z"/>
		<path class="st4" d="M24.3,23.7c-0.1,0.1-0.2,0.3-0.3,0.3c-0.1,0-0.1-0.2-0.1-0.3c0.1-0.1,0.2-0.3,0.2-0.3
			C24.1,23.4,24.2,23.6,24.3,23.7z"/>
		<path class="st4" d="M26.4,23.3c0,0.2,0.1,0.4,0.1,0.5c0,0.1-0.1,0.3-0.2,0.3c-0.1,0-0.1-0.2-0.1-0.3
			C26.2,23.6,26.3,23.5,26.4,23.3z"/>
	</g>
</g>
</svg>
