<?xml version="1.0" encoding="utf-8"?>
<!-- Generator: Adobe Illustrator 25.3.1, SVG Export Plug-In . SVG Version: 6.00 Build 0)  -->
<svg version="1.1" id="圖層_1" xmlns="http://www.w3.org/2000/svg" xmlns:xlink="http://www.w3.org/1999/xlink" x="0px" y="0px"
	 viewBox="0 0 300 200" style="enable-background:new 0 0 300 200;" xml:space="preserve">
<style type="text/css">
	.st0{fill:#93AEB7;}
	.st1{fill:#FAEBDB;}
	.st2{fill:#CBA17F;}
	.st3{fill:#C6C6C6;}
	.st4{fill:#D7AD89;}
	.st5{fill:#6D6358;}
	.st6{fill:#2F3340;}
	.st7{fill:#D5D5D5;}
	.st8{fill:url(#SVGID_1_);}
	.st9{fill:#918274;}
	.st10{fill:#83786A;}
	.st11{fill:#E5DFDB;}
	.st12{fill:#807265;}
	.st13{fill:url(#SVGID_2_);}
	.st14{fill:#F0F0F0;}
	.st15{fill:url(#SVGID_3_);}
	.st16{fill:url(#SVGID_4_);}
	.st17{clip-path:url(#SVGID_6_);}
	.st18{fill:url(#SVGID_7_);}
	.st19{fill:url(#SVGID_8_);}
	.st20{fill:url(#SVGID_9_);}
	.st21{fill:url(#SVGID_10_);}
	.st22{fill:url(#SVGID_11_);}
	.st23{fill:url(#SVGID_12_);}
	.st24{fill:url(#SVGID_13_);}
	.st25{opacity:0.3;fill:#FFFFFF;enable-background:new    ;}
	.st26{fill:#1B2E21;}
	.st27{fill:#E5C18E;}
	.st28{fill:url(#SVGID_14_);}
	.st29{opacity:0.5;fill:url(#SVGID_15_);enable-background:new    ;}
	.st30{fill:url(#SVGID_16_);}
	.st31{fill:url(#SVGID_17_);}
	.st32{fill:url(#SVGID_18_);}
	.st33{opacity:0.5;fill:url(#SVGID_19_);enable-background:new    ;}
	.st34{fill:url(#SVGID_20_);}
	.st35{fill:url(#SVGID_21_);}
	.st36{fill:url(#SVGID_22_);}
	.st37{fill:url(#SVGID_23_);}
	.st38{fill:url(#SVGID_24_);}
	.st39{fill:url(#SVGID_25_);}
	.st40{fill:url(#SVGID_26_);}
	.st41{fill:url(#SVGID_27_);}
	.st42{opacity:0.9;fill:url(#SVGID_28_);enable-background:new    ;}
	.st43{fill:url(#SVGID_29_);}
	.st44{fill:url(#SVGID_30_);}
	.st45{opacity:0.5;fill:url(#SVGID_31_);enable-background:new    ;}
	.st46{fill:url(#SVGID_32_);}
	.st47{fill:url(#SVGID_33_);}
	.st48{fill:url(#SVGID_34_);}
	.st49{fill:url(#SVGID_35_);}
	.st50{fill:url(#SVGID_36_);}
	.st51{fill:url(#SVGID_37_);}
	.st52{fill:url(#SVGID_38_);}
	.st53{fill:url(#SVGID_39_);}
	.st54{fill:url(#SVGID_40_);}
	.st55{fill:url(#SVGID_41_);}
	.st56{fill:url(#SVGID_42_);}
	.st57{fill:url(#SVGID_43_);}
	.st58{opacity:0.5;fill:url(#SVGID_44_);enable-background:new    ;}
	.st59{opacity:0.5;fill:url(#SVGID_45_);enable-background:new    ;}
	.st60{opacity:0.9;}
	.st61{opacity:0.5;fill:url(#SVGID_46_);enable-background:new    ;}
	.st62{fill:#B99171;}
	.st63{fill:#5C8A79;}
	.st64{fill:#A48165;}
	.st65{fill:#3C2612;}
	.st66{fill:#BD8287;}
	.st67{fill:#AFAEAF;}
	.st68{fill:#C9C9C9;}
</style>
<g>
	<rect x="3" y="89.8" class="st0" width="296.9" height="104.7"/>
	<rect x="0.1" y="86.4" class="st1" width="299.9" height="5.5"/>
	<g>
		<path class="st2" d="M68,13c0,0-0.1,3.9,2,6.1c2,2.2,3.9,2.9,3.9,2.9l-1.2,10L60,31.4V24L68,13z"/>
		<path class="st3" d="M58.7,26.6L56.9,33l1.3,5.2l20.9-4L74.6,25l-2.2,1.1L67.6,30l-0.7,0.1c0,0-1.9-1.1-4.4-1.7
			C59.9,27.8,58.7,26.6,58.7,26.6z"/>
		<path class="st3" d="M57.9,25c0,0-2.3,0-5.5,2.4s-6.5,3.2-8.1,8.8s-2,7.1-2.3,9.7c-0.3,2.6-1,4.7-1.9,6.5c-0.9,1.9-0.4,3.7-1.3,6
			c-0.9,2.3,1.3,7.8,2.3,8.2c1,0.5,2.1,2.7,2.7,2.7c0.6,0.1,1.4,2.1,2.8,1.6c1.4-0.5,2.9-2.1,2.9-2.1s-4.1,0.1-4.3-1.2
			c-0.4-3.4-1.5-0.1-1.5-0.1s0.9-3,2.9-4.7s3.6-0.8,3.6-0.8s-3.4-3.7-2.6-3.6c0.8,0.1,1.3,1.4,1.6,0.1c0.4-1.3-0.3-3.1,0.2-4.2
			c0.5-1.1,2.3-4.2,2.4-5.2c0.1-0.9-0.3,2.3,0.9,3.5c1.2,1.3,2.2,5.6,3.8,5.5c1.6-0.2,0-24.3,0-24.3L57.9,25z"/>
		<path class="st4" d="M50.3,12.1c0,0,2,4.9,2.9,6c0.9,1,0.9,2.2,2.7,4.1s5.2,5.6,7,5.3c1.8-0.3,2.3-0.2,3.9-3.4
			c1.5-3.2,2.1-5.8,1.6-7.1s-0.9-1.6-0.2-2.6c0.8-1,0.9-2.9,0-4.6c-0.9-1.6-2.3-1.5-2.9-1.3c-0.5,0.2-7-3.6-7-3.6L50.3,12.1z"/>
		<path class="st5" d="M66.4,13.1c0,0-0.9-2.1-0.4-3.4c0.5-1.2,1.4-2.7-0.1-5.9c-1.6-3.1-5.1-3.3-5.1-3.3S56-1.3,51.5,1.8
			s-2.7,4.8-3.9,6.3c-1.2,1.6-1.1,2.2,0.3,3.3s1.9,3.2,3.1,2.8c1.2-0.3,0.5-2.2,3.1-2c2.5,0.2,5.6-2.4,6.2-3.4
			c0.5-1,0.5-1.4,0.5-1.4S61.5,10.4,66.4,13.1z"/>
		<path class="st6" d="M58.7,27.8c0,0-1.5,7.8-0.6,8.1c0.8,0.3,6.4,0.3,11.7-0.7s8-2.3,8-2.3s-3.4-5.5-3.7-6.7c-0.3-1.2,0-3.8,0-3.8
			s1.2,0.5,4,5.8s5,11.2,6.5,18.2c1.5,7.1,8.5,40.8,8.5,40.8H51.6c0,0,0.3-10.6,1.4-14c1-3.4,3.4-14.6,3.2-21.3
			c-0.3-6.6-1.1-9.6-1-15.6c0.2-6,2.3-10.6,2.3-10.6L58.7,27.8z"/>
		<path class="st3" d="M72.7,21.4l10.8,22.2l1.8,8c0,0,1.1-1.4,1.1-5.6c0-4.3-0.2-8.7,0.5-8.5s6.8,6.6,11.6,6.1
			c4.9-0.5,0.5-10.3,0.5-10.3l-4.4-3.9c0,0-5.4-4.8-11.5-6.8C77.2,20.5,72.7,21.4,72.7,21.4z"/>
		<path class="st7" d="M66.9,30.3c0,0.2,5.3-1.8,5.5-3c0.2-1.1,0.7-1.1,1.5-0.6s1.8,0.6,1.8,0.6s-0.1-3.2-1.3-4.9
			c-1.3-1.6-2.5-2.9-3.8-2.8c-0.4,0,0.5,0.4,1,0.9c2,1.7,0,6-0.9,6.5C69.7,27.6,67,29.6,66.9,30.3z"/>
		<path class="st7" d="M57.9,30.3c0,0-0.4-1.6-0.4-3.7s0.2-2.7,0.2-2.7s2.8,2.3,3.3,3.2c0.5,0.9,3,1.2,4,1.7s2,1.3,2,1.3
			s-2.4-1.3-4.7-1.4c-2.3-0.2-1.7-0.6-1.7-0.6S58.5,28.6,57.9,30.3z"/>
		<path class="st1" d="M114.5,91.9H31.3c-0.3,0-0.5-0.2-0.5-0.5v-4.6c0-0.3,0.2-0.5,0.5-0.5h83.2c0.3,0,0.5,0.2,0.5,0.5v4.6
			C115,91.7,114.7,91.9,114.5,91.9z"/>
		<g>
			<g>
				
					<linearGradient id="SVGID_1_" gradientUnits="userSpaceOnUse" x1="-1596.6932" y1="-1905.2949" x2="-1592.9369" y2="-1905.2949" gradientTransform="matrix(0.3671 -0.9302 0.9302 0.3671 2434.9631 -734.5165)">
					<stop  offset="0" style="stop-color:#9CA09A"/>
					<stop  offset="1" style="stop-color:#B2B5AF"/>
				</linearGradient>
				<path class="st8" d="M80.6,51.3C80.6,51.4,80.5,51.4,80.6,51.3c-0.2,0.1-0.3,0-0.3-0.1L80,49.9c0-0.1-0.1-0.3-0.2-0.3l-4.5-2.4
					c-0.2-0.1-0.4,0-0.6,0.1l-0.8,1.2c-0.1,0.1-0.1,0.2-0.1,0.4l0.4,1.2c0,0.1,0,0.2-0.1,0.2s-0.2,0-0.2-0.1L73.5,49
					c-0.1-0.2,0-0.5,0.1-0.7l0.8-1.2c0.2-0.3,0.7-0.5,1-0.3l4.5,2.4c0.2,0.1,0.4,0.3,0.4,0.6L80.6,51.3L80.6,51.3z"/>
				<path class="st9" d="M80.7,51.4C80.7,51.5,80.6,51.5,80.7,51.4c-0.2,0.1-0.3,0-0.3-0.1l-0.2-1.4c0-0.1-0.1-0.3-0.2-0.3l-4.5-2.4
					c-0.2-0.1-0.4,0-0.6,0.1L74,48.5c0,0.1,0,0.3,0,0.4l0.4,1.2c0,0.1,0,0.2-0.1,0.2s-0.2,0-0.2-0.1L73.6,49c-0.1-0.2,0-0.5,0.1-0.7
					l0.8-1.2c0.2-0.3,0.7-0.5,1-0.3l4.5,2.4c0.2,0.1,0.4,0.3,0.4,0.6L80.7,51.4C80.7,51.3,80.7,51.4,80.7,51.4z"/>
				<path class="st9" d="M72.9,49.6l-1.2,3.2L70.5,56c0,0,0.6,0.2,2.5,1.1c1.8,0.9,4.7,2.6,5.7,3c0.2,0.1,0.7,0,1,0
					c0.1,0,0.2-0.1,0.2-0.1c0.2-0.4,0.7-1.5,1.5-3.3c0.7-1.7,1.1-3,1.2-3.4c0-0.1,0-0.2,0-0.2c-0.2-0.2-0.5-0.6-0.7-0.7
					c-1.1-0.4-4.3-1.2-6.2-1.7C73.5,49.9,72.9,49.6,72.9,49.6z"/>
				<path class="st10" d="M73.6,57.4c0,0-0.8,0-2.3-0.1c-0.5-0.1-1,0.1-1,0.1v-1.5C70.4,55.9,72.4,56.4,73.6,57.4z"/>
				<path class="st11" d="M70.3,57.4c0.1,0,0.2-1.2,0.2-1.4c0-0.3,0.6-1.3,1.3-3.2c0.8-2,1.2-3.1,1-3.2c-0.1,0-1.1,2.2-1.4,3.1
					c-0.3,0.9-1.1,2.9-1.1,3.4C70.3,56.2,70.2,57.4,70.3,57.4z"/>
				<path class="st12" d="M70.3,57.4c0.1,0,0.1-1.2,0.1-1.5s0.6-1.3,1.3-3.2c0.8-2,1.2-3.1,1.1-3.1s-1.2,2.2-1.5,3.1
					c-0.3,0.9-1.1,2.9-1.1,3.4C70.2,56.2,70.2,57.4,70.3,57.4z"/>
			</g>
			<g>
				
					<linearGradient id="SVGID_2_" gradientUnits="userSpaceOnUse" x1="60.1262" y1="62.1094" x2="64.9391" y2="62.1094" gradientTransform="matrix(1 0 0 1 0 2)">
					<stop  offset="0" style="stop-color:#E4E2DD"/>
					<stop  offset="0.325" style="stop-color:#D7D5CE"/>
					<stop  offset="1" style="stop-color:#C0BDB2"/>
				</linearGradient>
				<path class="st13" d="M62.7,66.4L62.7,66.4c-0.9,0-1.6-0.4-2.1-1c-0.5-0.7-0.7-1.6-0.4-2.4c0.4-1.2,1.7-1.3,2.3-1.1l-0.2,0.9
					c-0.1,0-1-0.2-1.2,0.5c-0.1,0.5,0,1.1,0.3,1.6c0.2,0.3,0.6,0.6,1.3,0.6l0,0c1,0,1.5-0.5,1.5-0.5l0.7,0.6
					C64.9,65.6,64.2,66.4,62.7,66.4z"/>
				<g>
					<path class="st14" d="M67,61.1l-5.5,0.5c0,0,2.2,4.9,2.5,5.4c0.3,0.4,1.3,0.9,2.9,0.9s2.7-0.5,2.9-0.9c0.3-0.5,2.6-5.5,2.6-5.5
						L67,61.1z"/>
					<g>
						
							<linearGradient id="SVGID_3_" gradientUnits="userSpaceOnUse" x1="67.6121" y1="61.1492" x2="66.3637" y2="57.1737" gradientTransform="matrix(1 0 0 1 0 2)">
							<stop  offset="0" style="stop-color:#C0BDB2"/>
							<stop  offset="6.467336e-02" style="stop-color:#C4C1B7"/>
							<stop  offset="0.3859" style="stop-color:#D6D3CC"/>
							<stop  offset="0.7008" style="stop-color:#E0DED9"/>
							<stop  offset="1" style="stop-color:#E4E2DD"/>
						</linearGradient>
						<ellipse class="st15" cx="67" cy="61.2" rx="5.6" ry="2.2"/>
						
							<linearGradient id="SVGID_4_" gradientUnits="userSpaceOnUse" x1="61.4763" y1="59.2" x2="72.6159" y2="59.2" gradientTransform="matrix(1 0 0 1 0 2)">
							<stop  offset="0" style="stop-color:#C0BDB2"/>
							<stop  offset="6.467336e-02" style="stop-color:#C4C1B7"/>
							<stop  offset="0.3859" style="stop-color:#D6D3CC"/>
							<stop  offset="0.7008" style="stop-color:#E0DED9"/>
							<stop  offset="1" style="stop-color:#E4E2DD"/>
						</linearGradient>
						<path class="st16" d="M67,59.2c3.2,0,5.3,1,5.3,1.9S70.2,63,67,63c-3.2,0-5.3-1-5.3-1.9S63.9,59.2,67,59.2L67,59.2z M67,59
							c-3.1,0-5.6,1-5.6,2.2s2.5,2.2,5.6,2.2s5.6-1,5.6-2.2S70.1,59,67,59L67,59z"/>
					</g>
				</g>
			</g>
			<g>
				<g>
					<g>
						<defs>
							<path id="SVGID_5_" d="M67,59.2c3.2,0,5.3,1,5.3,1.9S70.2,63,67,63c-3.2,0-5.3-1-5.3-1.9S63.9,59.2,67,59.2L67,59.2z"/>
						</defs>
						<clipPath id="SVGID_6_">
							<use xlink:href="#SVGID_5_"  style="overflow:visible;"/>
						</clipPath>
						<g class="st17">
							
								<linearGradient id="SVGID_7_" gradientUnits="userSpaceOnUse" x1="62.2863" y1="59.9458" x2="72.0224" y2="59.9458" gradientTransform="matrix(1 0 0 1 0 2)">
								<stop  offset="0" style="stop-color:#C7855F"/>
								<stop  offset="0.9923" style="stop-color:#CC9976"/>
							</linearGradient>
							<path class="st18" d="M72,61.9c0,1.1-2.2,2-4.9,2c-2.7,0-4.9-0.9-4.9-2s2.3-1.9,4.9-1.9C69.9,59.9,72,60.7,72,61.9z"/>
							
								<linearGradient id="SVGID_8_" gradientUnits="userSpaceOnUse" x1="62.6" y1="59.9" x2="71.8753" y2="59.9" gradientTransform="matrix(1 0 0 1 0 2)">
								<stop  offset="7.662840e-03" style="stop-color:#F2DECA"/>
								<stop  offset="0.4253" style="stop-color:#EDD3B7"/>
								<stop  offset="1" style="stop-color:#D1AE8C"/>
							</linearGradient>
							<path class="st19" d="M67.2,63.7c-2.8,0-4.6-0.9-4.6-1.8c0-0.9,1.9-1.8,4.6-1.8c2.8,0,4.6,0.9,4.6,1.8
								C71.9,62.7,70,63.7,67.2,63.7z"/>
							
								<linearGradient id="SVGID_9_" gradientUnits="userSpaceOnUse" x1="31.0103" y1="13.3995" x2="39.795" y2="13.3995" gradientTransform="matrix(0.9998 -1.880000e-02 1.880000e-02 0.9998 31.6056 48.9687)">
								<stop  offset="0" style="stop-color:#C7855F"/>
								<stop  offset="0.9923" style="stop-color:#CC9976"/>
							</linearGradient>
							<path class="st20" d="M67.3,63.3c-2.7,0.1-4.4-0.9-4.4-1.6c0-0.5,1.1-1.5,4.3-1.6c2.7-0.1,4.5,0.9,4.5,1.6
								C71.6,62.2,70,63.3,67.3,63.3z"/>
							
								<linearGradient id="SVGID_10_" gradientUnits="userSpaceOnUse" x1="63.4508" y1="59.8543" x2="71.246" y2="59.8543" gradientTransform="matrix(1 0 0 1 0 2)">
								<stop  offset="7.662840e-03" style="stop-color:#F2DECA"/>
								<stop  offset="0.4253" style="stop-color:#EDD3B7"/>
								<stop  offset="1" style="stop-color:#D1AE8C"/>
							</linearGradient>
							<path class="st21" d="M67.3,60.8c0,0-4.2-0.4-3.9,0.8C63.6,62.4,67,63,67,63s4.3-0.7,4.2-1.6C71,60.5,68,60.7,67.3,60.8z"/>
							
								<linearGradient id="SVGID_11_" gradientUnits="userSpaceOnUse" x1="64.5729" y1="59.8608" x2="70.3491" y2="59.8608" gradientTransform="matrix(1 0 0 1 0 2)">
								<stop  offset="0" style="stop-color:#C7855F"/>
								<stop  offset="0.9923" style="stop-color:#CC9976"/>
							</linearGradient>
							<path class="st22" d="M64.6,61.5c-0.1,0.5,2.5,1.3,2.5,1.3s3.3-1,3.3-1.4s-1.8-0.6-2.6-0.4c-0.1,0-0.4,0.2-0.4,0.2
								s-0.7-0.1-1-0.1C65.8,61,64.6,61,64.6,61.5z"/>
							
								<linearGradient id="SVGID_12_" gradientUnits="userSpaceOnUse" x1="66.0254" y1="59.9778" x2="68.5192" y2="59.9778" gradientTransform="matrix(1 0 0 1 0 2)">
								<stop  offset="0" style="stop-color:#D1AE8C"/>
								<stop  offset="0.5747" style="stop-color:#EDD3B7"/>
								<stop  offset="0.9923" style="stop-color:#F2DECA"/>
							</linearGradient>
							<path class="st23" d="M66,61.5c-0.1,0.2,1.1,1,1.1,1s1.4-0.7,1.4-0.9s-1.2-0.1-1.2-0.1S66.1,61.4,66,61.5z"/>
						</g>
					</g>
				</g>
			</g>
			
				<linearGradient id="SVGID_13_" gradientUnits="userSpaceOnUse" x1="68.6476" y1="59.8003" x2="68.6476" y2="55.1092" gradientTransform="matrix(1 0 0 1 0 2)">
				<stop  offset="7.662840e-03" style="stop-color:#F2DECA"/>
				<stop  offset="0.4253" style="stop-color:#EDD3B7"/>
				<stop  offset="1" style="stop-color:#D1AE8C"/>
			</linearGradient>
			<path class="st24" d="M70.3,57.4c0,0-0.7,0.6-1,1.7c-0.2,0.8-0.6,2.5-0.8,2.7c-0.2,0.2-1.7,0-1.6-0.1c0.2-0.1,0.5,0,0.9-0.5
				s0.6-2.4,1.7-3.5c0.5-0.5,0.9-0.5,0.9-0.5S70.4,57.3,70.3,57.4z"/>
		</g>
		<path class="st4" d="M44.5,65.9c-0.5,1,0,2.2,1.1,2.5c0.6,0.2,1.3,0.3,2.2,0.4c2.4,0.2,4-0.3,4.5,0s2.1,1,3.1,0.5s1.7-0.8,3.3-0.7
			c1.6,0.1,3.5,0.5,4.3-0.2c0.8-0.6,1.6-0.2,1.7-0.7s-0.4-2-1.4-2.6c-0.9-0.5-0.4-1,0.1-1s0.7-0.2-0.5-1.3c-1.2-1.1-2.8-2.6-3.6-2.7
			c-0.8-0.1-3.4-0.2-4.4,0.6s-1.5,1.9-1.9,1.9s-3-1-4.3-1.6C47.8,60.7,45.6,63.7,44.5,65.9z"/>
		<path class="st4" d="M94.7,39.1c0,0-6.4-0.3-9,0.3c-2.7,0.6-4.4,1.3-5.9,1.5s-2.8,0.9-3.2,1.7c-0.4,0.8-2.7,2.4-3,3.2
			s-1.3,2.7-0.9,3s1.3,0.2,1.5-0.4c0.2-0.6,0.5,0.7,1,0.6c0.5-0.1,1.1,0,1.1,0s0,0.9,0.8,1.3c0.8,0.4,1.4-0.7,1.4-0.7
			s-0.1,1.4,1.1,1.1c1.3-0.3,1.8-1.6,2-2.4c0.3-0.8-0.3,1.5,0.7,1.9c0.9,0.4,1.7-1.1,1.9-1.9c0.2-0.8,1.4-0.8,2.2-2.2
			c0.8-1.4,0.6-1.5,2.4-0.9s7.9,1.9,8.8,1.8c0.8-0.1,0-5.5,0-5.5L94.7,39.1z"/>
		<path class="st7" d="M72.7,21.4c0,0,6.9-0.6,12.1,1.3s7.6,4.9,8.9,5.6s2.7,1.6,3.5,2.9c0.8,1.4,9,4.3,10.9,7.4
			c1.9,3,0.5,6.3-1.8,7.5c-2.4,1.2-6.9,2.2-8.2,2.2c-1.4,0-1.5-0.8-2.3,0s-3.7-2-3.3-2.4c0.4-0.4,3.8,1.5,4.4,0.7
			c0.6-0.7,0.7-1.7-0.6-3.8c-1.3-2.1-3-5.2-4.1-4.7s-0.8-0.2,2.3-0.4c3.1-0.3,4.4-3.4,4.3-4.1C98.7,33,90.9,26,85.6,23.5
			C80.3,21,72.7,21.4,72.7,21.4z"/>
	</g>
	<polygon class="st25" points="181.4,194.5 125.7,194.5 88.3,91.9 144,91.9 	"/>
	<polygon class="st25" points="218.5,194.5 209.7,194.5 172.3,91.9 181.1,91.9 	"/>
	<g>
		<g>
			<path class="st26" d="M131.8,113.5h-28.5c-0.2,0-0.3,0.2-0.3,0.3v0.9c0,0.2,0.2,0.3,0.3,0.3h28.5c0.2,0,0.3-0.2,0.3-0.3v-0.9
				C132.1,113.7,131.9,113.5,131.8,113.5z"/>
		</g>
		<g>
			<path class="st26" d="M100,198.1C100,198.1,99.9,198.1,100,198.1c-0.6-0.1-1-0.6-0.9-1.3l5.8-81.7c0-0.6,0.5-1.1,1-1
				s0.9,0.6,0.9,1.2L101,197C100.9,197.6,100.5,198.1,100,198.1z"/>
		</g>
		<g>
			<path class="st26" d="M108.2,198.1C108.2,198.1,108.1,198.1,108.2,198.1c-0.6-0.1-1-0.6-0.9-1.3l5.8-81.7c0-0.6,0.5-1.1,1-1
				s0.9,0.6,0.9,1.2l-5.8,81.7C109.1,197.6,108.7,198.1,108.2,198.1z"/>
		</g>
		<g>
			<path class="st26" d="M128.3,198.3c-0.5,0-0.9-0.5-0.9-1.1l-5.8-81.7c0-0.6,0.3-1.2,0.9-1.2c0.5-0.1,1,0.4,1,1l5.8,81.7
				C129.3,197.7,128.9,198.3,128.3,198.3C128.4,198.3,128.3,198.3,128.3,198.3z"/>
		</g>
		<g>
			<path class="st26" d="M137.5,198.3c-0.5,0-0.9-0.4-0.9-1l-6.9-81.6c-0.1-0.6,0.3-1.2,0.8-1.3c0.5-0.1,1,0.4,1,1l6.9,81.6
				C138.5,197.6,138.1,198.2,137.5,198.3L137.5,198.3z"/>
		</g>
		<g>
			<path class="st26" d="M135,171h-33c-0.5,0-0.9-0.5-0.9-1.2c0-0.6,0.4-1.2,0.9-1.2h33c0.5,0,0.9,0.5,0.9,1.2
				C136,170.5,135.6,171,135,171z"/>
		</g>
		<g>
			<path class="st26" d="M135.3,174.2h-33c-0.5,0-0.9-0.5-0.9-1.2c0-0.6,0.4-1.2,0.9-1.2h33c0.5,0,0.9,0.5,0.9,1.2
				S135.8,174.2,135.3,174.2z"/>
		</g>
		<g>
			<path class="st27" d="M132,114h-29.2c-0.5,0-0.9-0.4-0.9-0.9v-1.4c0-0.5,0.4-0.9,0.9-0.9H132c0.5,0,0.9,0.4,0.9,0.9v1.4
				C132.9,113.6,132.5,114,132,114z"/>
		</g>
	</g>
	<g>
		<g>
			<path class="st26" d="M181.7,115.8h-27.8c-0.4,0-0.7-0.3-0.7-0.7V114c0-0.4,0.3-0.7,0.7-0.7h27.8c0.4,0,0.7,0.3,0.7,0.7v1.1
				C182.4,115.5,182.1,115.8,181.7,115.8z"/>
		</g>
		<g>
			<path class="st26" d="M150.3,199.7C150.2,199.7,150.2,199.7,150.3,199.7c-0.6-0.1-1-0.6-0.9-1.3l5.8-83.3c0-0.6,0.5-1.1,1-1.1
				c0.5,0.1,0.9,0.6,0.9,1.3l-5.8,83.3C151.2,199.3,150.8,199.7,150.3,199.7z"/>
		</g>
		<g>
			<path class="st26" d="M158.5,199.7C158.4,199.7,158.4,199.7,158.5,199.7c-0.6-0.1-1-0.6-0.9-1.3l5.8-83.3c0-0.6,0.5-1.1,1-1.1
				c0.5,0.1,0.9,0.6,0.9,1.3l-5.8,83.3C159.4,199.3,159,199.7,158.5,199.7z"/>
		</g>
		<g>
			<path class="st26" d="M178.6,200c-0.5,0-0.9-0.5-0.9-1.1l-5.8-83.3c0-0.6,0.3-1.2,0.9-1.3c0.5-0.1,1,0.4,1,1.1l5.8,83.3
				C179.6,199.4,179.2,199.9,178.6,200C178.7,200,178.6,200,178.6,200z"/>
		</g>
		<g>
			<path class="st26" d="M187.8,199.9c-0.5,0-0.9-0.4-0.9-1.1l-6.9-83.1c-0.1-0.6,0.3-1.2,0.8-1.3c0.5-0.1,1,0.4,1,1l6.9,83.1
				C188.8,199.3,188.4,199.9,187.8,199.9L187.8,199.9z"/>
		</g>
		<g>
			<path class="st26" d="M185.3,172.1h-33c-0.5,0-0.9-0.5-0.9-1.2c0-0.6,0.4-1.2,0.9-1.2h33c0.5,0,0.9,0.5,0.9,1.2
				C186.3,171.6,185.9,172.1,185.3,172.1z"/>
		</g>
		<g>
			<path class="st26" d="M185.5,175.4h-33c-0.5,0-0.9-0.5-0.9-1.2c0-0.6,0.4-1.2,0.9-1.2h33c0.5,0,0.9,0.5,0.9,1.2
				C186.5,174.9,186.1,175.4,185.5,175.4z"/>
		</g>
		<g>
			<path class="st27" d="M182.3,114h-29.2c-0.5,0-1-0.4-1-1v-1.5c0-0.5,0.4-1,1-1h29.2c0.5,0,1,0.4,1,1v1.5
				C183.2,113.6,182.8,114,182.3,114z"/>
		</g>
	</g>
	<g>
		<g>
			<path class="st26" d="M80,115.8H52.2c-0.4,0-0.7-0.3-0.7-0.7V114c0-0.4,0.3-0.7,0.7-0.7H80c0.4,0,0.7,0.3,0.7,0.7v1.1
				C80.7,115.5,80.4,115.8,80,115.8z"/>
		</g>
		<g>
			<path class="st26" d="M48.6,199.7C48.6,199.7,48.5,199.7,48.6,199.7c-0.6-0.1-1-0.6-0.9-1.3l5.8-83.3c0-0.6,0.5-1.1,1-1.1
				c0.5,0.1,0.9,0.6,0.9,1.3l-5.8,83.3C49.5,199.3,49.1,199.7,48.6,199.7z"/>
		</g>
		<g>
			<path class="st26" d="M56.8,199.7C56.8,199.7,56.7,199.7,56.8,199.7c-0.6-0.1-1-0.6-0.9-1.3l5.8-83.3c0-0.6,0.5-1.1,1-1.1
				c0.5,0.1,0.9,0.6,0.9,1.3l-5.8,83.3C57.7,199.3,57.3,199.7,56.8,199.7z"/>
		</g>
		<g>
			<path class="st26" d="M76.9,200c-0.5,0-0.9-0.5-0.9-1.1l-5.8-83.3c0-0.6,0.3-1.2,0.9-1.3c0.5-0.1,1,0.4,1,1.1l5.8,83.3
				C77.9,199.4,77.5,199.9,76.9,200C77,200,77,200,76.9,200z"/>
		</g>
		<g>
			<path class="st26" d="M86.1,199.9c-0.5,0-0.9-0.4-0.9-1.1l-6.9-83.1c-0.1-0.6,0.3-1.2,0.8-1.3c0.5-0.1,1,0.4,1,1l6.9,83.1
				C87.1,199.3,86.7,199.9,86.1,199.9C86.2,199.9,86.1,199.9,86.1,199.9z"/>
		</g>
		<g>
			<path class="st26" d="M83.7,172.1h-33c-0.5,0-0.9-0.5-0.9-1.2c0-0.6,0.4-1.2,0.9-1.2h33c0.5,0,0.9,0.5,0.9,1.2
				S84.2,172.1,83.7,172.1z"/>
		</g>
		<g>
			<path class="st26" d="M83.9,175.4h-33c-0.5,0-0.9-0.5-0.9-1.2c0-0.6,0.4-1.2,0.9-1.2h33c0.5,0,0.9,0.5,0.9,1.2
				S84.4,175.4,83.9,175.4z"/>
		</g>
		<g>
			<path class="st27" d="M80.6,114H51.4c-0.5,0-1-0.4-1-1v-1.5c0-0.5,0.4-1,1-1h29.2c0.5,0,1,0.4,1,1v1.5
				C81.6,113.6,81.1,114,80.6,114z"/>
		</g>
	</g>
	<g>
		<g>
			<path class="st26" d="M231.7,115.8h-27.8c-0.4,0-0.7-0.3-0.7-0.7V114c0-0.4,0.3-0.7,0.7-0.7h27.8c0.4,0,0.7,0.3,0.7,0.7v1.1
				C232.4,115.5,232.1,115.8,231.7,115.8z"/>
		</g>
		<g>
			<path class="st26" d="M200.3,199.7L200.3,199.7c-0.6-0.1-1-0.6-0.9-1.3l5.8-83.3c0-0.6,0.5-1.1,1-1.1c0.5,0.1,0.9,0.6,0.9,1.3
				l-5.8,83.3C201.2,199.3,200.8,199.7,200.3,199.7z"/>
		</g>
		<g>
			<path class="st26" d="M208.5,199.7L208.5,199.7c-0.6-0.1-1-0.6-0.9-1.3l5.8-83.3c0-0.6,0.5-1.1,1-1.1c0.5,0.1,0.9,0.6,0.9,1.3
				l-5.8,83.3C209.4,199.3,209,199.7,208.5,199.7z"/>
		</g>
		<g>
			<path class="st26" d="M228.7,200c-0.5,0-0.9-0.5-0.9-1.1l-5.8-83.3c0-0.6,0.3-1.2,0.9-1.3c0.5-0.1,1,0.4,1,1.1l5.8,83.3
				C229.6,199.4,229.3,199.9,228.7,200L228.7,200z"/>
		</g>
		<g>
			<path class="st26" d="M237.8,199.9c-0.5,0-0.9-0.4-0.9-1.1l-6.9-83.1c-0.1-0.6,0.3-1.2,0.8-1.3c0.5-0.1,1,0.4,1,1l6.9,83.1
				C238.8,199.3,238.4,199.9,237.8,199.9C237.9,199.9,237.8,199.9,237.8,199.9z"/>
		</g>
		<g>
			<path class="st26" d="M235.4,172.1h-33c-0.5,0-0.9-0.5-0.9-1.2c0-0.6,0.4-1.2,0.9-1.2h33c0.5,0,0.9,0.5,0.9,1.2
				C236.3,171.6,235.9,172.1,235.4,172.1z"/>
		</g>
		<g>
			<path class="st26" d="M235.6,175.4h-33c-0.5,0-0.9-0.5-0.9-1.2c0-0.6,0.4-1.2,0.9-1.2h33c0.5,0,0.9,0.5,0.9,1.2
				S236.1,175.4,235.6,175.4z"/>
		</g>
		<g>
			<path class="st27" d="M232.3,114h-29.2c-0.5,0-1-0.4-1-1v-1.5c0-0.5,0.4-1,1-1h29.2c0.5,0,1,0.4,1,1v1.5
				C233.3,113.6,232.8,114,232.3,114z"/>
		</g>
	</g>
	<g>
		
			<linearGradient id="SVGID_14_" gradientUnits="userSpaceOnUse" x1="24" y1="67" x2="36.381" y2="67" gradientTransform="matrix(1 0 0 1 0 2)">
			<stop  offset="0" style="stop-color:#777678"/>
			<stop  offset="9.195400e-02" style="stop-color:#5F5D55"/>
			<stop  offset="0.5824" style="stop-color:#999796"/>
			<stop  offset="0.7555" style="stop-color:#B3B2B2"/>
			<stop  offset="0.9923" style="stop-color:#A6A4A5"/>
		</linearGradient>
		<path class="st28" d="M36.4,84.4h-0.8V57c0-1.4-1.2-2.6-2.6-2.6h-9v-0.8h9c1.9,0,3.4,1.5,3.4,3.4C36.4,57,36.4,84.4,36.4,84.4z"/>
		
			<linearGradient id="SVGID_15_" gradientUnits="userSpaceOnUse" x1="16.85" y1="30.2055" x2="16.85" y2="47.7592" gradientTransform="matrix(1 0 0 1 0 2)">
			<stop  offset="0" style="stop-color:#BBC5B5"/>
			<stop  offset="0.1858" style="stop-color:#BBC5B5"/>
			<stop  offset="0.3321" style="stop-color:#C0C9BA"/>
			<stop  offset="0.5166" style="stop-color:#CDD6CA"/>
			<stop  offset="0.5785" style="stop-color:#D3DBD1"/>
			<stop  offset="0.6946" style="stop-color:#CBD3C7"/>
			<stop  offset="0.8084" style="stop-color:#C0C7B9"/>
			<stop  offset="0.8851" style="stop-color:#8A927C"/>
			<stop  offset="0.9009" style="stop-color:#909883"/>
			<stop  offset="0.9231" style="stop-color:#A2A895"/>
			<stop  offset="0.9387" style="stop-color:#B2B7A6"/>
			<stop  offset="0.9597" style="stop-color:#AFB4A3"/>
			<stop  offset="0.9766" style="stop-color:#A5AB99"/>
			<stop  offset="0.992" style="stop-color:#959D88"/>
			<stop  offset="1" style="stop-color:#8A927C"/>
		</linearGradient>
		<path class="st29" d="M10,29.7v17.6c0,0.4,0.3,0.8,0.8,0.8H11c0.4,0,0.8,0.3,0.8,0.8v0.2c0,0.4,0.3,0.8,0.8,0.8h8.5
			c0.4,0,0.8-0.3,0.8-0.8v-0.2c0-0.4,0.3-0.8,0.8-0.8h0.2c0.4,0,0.8-0.3,0.8-0.8V29.7c0-0.4-0.3-0.8-0.8-0.8H10.8
			C10.4,28.9,10,29.2,10,29.7z"/>
		
			<linearGradient id="SVGID_16_" gradientUnits="userSpaceOnUse" x1="16.9" y1="73.268" x2="16.9" y2="78.5801" gradientTransform="matrix(1 0 0 1 0 2)">
			<stop  offset="0" style="stop-color:#DDDDDC"/>
			<stop  offset="0.4176" style="stop-color:#C3C3C0"/>
			<stop  offset="0.908" style="stop-color:#86857D"/>
			<stop  offset="1" style="stop-color:#9F9F9F"/>
		</linearGradient>
		<path class="st30" d="M21.4,80.7h-9c-0.6,0-1.1-0.5-1.2-1.1l-0.4-4.5H23l-0.4,4.5C22.5,80.2,22,80.7,21.4,80.7z"/>
		
			<linearGradient id="SVGID_17_" gradientUnits="userSpaceOnUse" x1="19.5164" y1="52.1" x2="24.4642" y2="52.1" gradientTransform="matrix(1 0 0 1 0 2)">
			<stop  offset="0" style="stop-color:#86857D"/>
			<stop  offset="1" style="stop-color:#9F9F9F"/>
		</linearGradient>
		<path class="st31" d="M24,55h-4.5v-1.8H24c0.2,0,0.4,0.2,0.4,0.4v0.9C24.5,54.8,24.3,55,24,55z"/>
		
			<linearGradient id="SVGID_18_" gradientUnits="userSpaceOnUse" x1="16.8" y1="47.8908" x2="16.8" y2="50.3862" gradientTransform="matrix(1 0 0 1 0 2)">
			<stop  offset="0" style="stop-color:#32353E"/>
			<stop  offset="0.179" style="stop-color:#363942"/>
			<stop  offset="0.3656" style="stop-color:#43464E"/>
			<stop  offset="0.555" style="stop-color:#575A62"/>
			<stop  offset="0.6897" style="stop-color:#6B6E75"/>
			<stop  offset="0.6916" style="stop-color:#686B72"/>
			<stop  offset="0.7132" style="stop-color:#474B54"/>
			<stop  offset="0.734" style="stop-color:#30343E"/>
			<stop  offset="0.7534" style="stop-color:#222631"/>
			<stop  offset="0.7701" style="stop-color:#1D212C"/>
			<stop  offset="1" style="stop-color:#6B6E75"/>
		</linearGradient>
		<path class="st32" d="M14.2,49.8v1.6c0,0.1,0.1,0.2,0.2,0.2h0.4c0.1,0,0.2,0.1,0.2,0.2v0.5h3.6v-0.5c0-0.1,0.1-0.2,0.2-0.2h0.4
			c0.1,0,0.2-0.1,0.2-0.2v-1.6H14.2z"/>
		
			<linearGradient id="SVGID_19_" gradientUnits="userSpaceOnUse" x1="16.8" y1="53.7735" x2="16.8" y2="67.7873" gradientTransform="matrix(1 0 0 1 0 2)">
			<stop  offset="0" style="stop-color:#BBC5B5"/>
			<stop  offset="0.2567" style="stop-color:#D3DAD0"/>
			<stop  offset="0.4943" style="stop-color:#D3DBD1"/>
			<stop  offset="0.5688" style="stop-color:#CBD3C7"/>
			<stop  offset="0.6945" style="stop-color:#B4BCAD"/>
			<stop  offset="0.8549" style="stop-color:#909883"/>
			<stop  offset="0.8774" style="stop-color:#8A927C"/>
			<stop  offset="0.9215" style="stop-color:#909883"/>
			<stop  offset="0.9835" style="stop-color:#A2A895"/>
			<stop  offset="1" style="stop-color:#A8AD9B"/>
		</linearGradient>
		<path class="st33" d="M19.5,55.8h-2.7h-2.7c0,0-5.5,3.4-5.5,8.7s5.7,5.4,8.2,5.4c2.4,0,8.2-0.1,8.2-5.4S19.5,55.8,19.5,55.8z"/>
		
			<linearGradient id="SVGID_20_" gradientUnits="userSpaceOnUse" x1="16.9" y1="35.8831" x2="16.9" y2="27.0915" gradientTransform="matrix(1 0 0 1 0 2)">
			<stop  offset="7.662840e-03" style="stop-color:#6B6E75"/>
			<stop  offset="0.1886" style="stop-color:#63666D"/>
			<stop  offset="0.4733" style="stop-color:#4C4F57"/>
			<stop  offset="0.7318" style="stop-color:#32353E"/>
			<stop  offset="0.8449" style="stop-color:#272A34"/>
			<stop  offset="0.9847" style="stop-color:#1D212C"/>
		</linearGradient>
		<rect x="15.1" y="28.9" class="st34" width="3.6" height="9.2"/>
		
			<linearGradient id="SVGID_21_" gradientUnits="userSpaceOnUse" x1="8.244" y1="80.55" x2="25.5181" y2="80.55" gradientTransform="matrix(1 0 0 1 0 2)">
			<stop  offset="7.662840e-03" style="stop-color:#6B6E75"/>
			<stop  offset="0.1095" style="stop-color:#4F525A"/>
			<stop  offset="0.2126" style="stop-color:#3A3D46"/>
			<stop  offset="0.2797" style="stop-color:#32353E"/>
			<stop  offset="0.5951" style="stop-color:#272A34"/>
			<stop  offset="0.9847" style="stop-color:#1D212C"/>
		</linearGradient>
		<path class="st35" d="M25.5,84.4H8.2v-3.7h16.3c0.5,0,0.9,0.4,0.9,0.9v2.8C25.4,84.4,25.5,84.4,25.5,84.4z"/>
		
			<linearGradient id="SVGID_22_" gradientUnits="userSpaceOnUse" x1="23.3" y1="82.2196" x2="23.3" y2="84.2963" gradientTransform="matrix(1 0 0 1 0 2)">
			<stop  offset="0" style="stop-color:#ABA9A4"/>
			<stop  offset="1.304786e-02" style="stop-color:#AAA8A2"/>
			<stop  offset="0.2204" style="stop-color:#96948E"/>
			<stop  offset="0.4246" style="stop-color:#8A8981"/>
			<stop  offset="0.6207" style="stop-color:#86857D"/>
			<stop  offset="1" style="stop-color:#9F9F9F"/>
		</linearGradient>
		<path class="st36" d="M40.3,86.4h-34c-0.3,0-0.6-0.3-0.6-0.6V85c0-0.3,0.3-0.6,0.6-0.6h34c0.3,0,0.6,0.3,0.6,0.6v0.8
			C40.9,86.1,40.7,86.4,40.3,86.4z"/>
		
			<linearGradient id="SVGID_23_" gradientUnits="userSpaceOnUse" x1="36" y1="63.5385" x2="36" y2="79.0494" gradientTransform="matrix(1 0 0 1 0 2)">
			<stop  offset="7.662840e-03" style="stop-color:#6B6E75"/>
			<stop  offset="0.1095" style="stop-color:#4F525A"/>
			<stop  offset="0.2126" style="stop-color:#3A3D46"/>
			<stop  offset="0.2797" style="stop-color:#32353E"/>
			<stop  offset="0.5951" style="stop-color:#272A34"/>
			<stop  offset="0.9847" style="stop-color:#1D212C"/>
		</linearGradient>
		<path class="st37" d="M37.1,80.6c0,0.3-0.3,0.5-0.6,0.5H36h-0.6c-0.3,0-0.5-0.2-0.6-0.5c-0.1-1.5-0.5-5.8-0.5-7.4s0.4-5.9,0.5-7.4
			c0-0.3,0.3-0.5,0.6-0.5H36h0.6c0.3,0,0.5,0.2,0.6,0.5c0.1,1.5,0.5,5.8,0.5,7.4C37.7,74.9,37.3,79.1,37.1,80.6z"/>
		
			<linearGradient id="SVGID_24_" gradientUnits="userSpaceOnUse" x1="35.95" y1="79.1977" x2="35.95" y2="81.7009" gradientTransform="matrix(1 0 0 1 0 2)">
			<stop  offset="0" style="stop-color:#86857D"/>
			<stop  offset="0.9064" style="stop-color:#52584F"/>
		</linearGradient>
		<path class="st38" d="M35.2,81.1h1.5c0.3,0,0.5,0.2,0.5,0.5v2.1h-2.5v-2.1C34.7,81.3,34.9,81.1,35.2,81.1z"/>
		
			<linearGradient id="SVGID_25_" gradientUnits="userSpaceOnUse" x1="34.2573" y1="82.05" x2="37.6573" y2="82.05" gradientTransform="matrix(1 0 0 1 0 2)">
			<stop  offset="0" style="stop-color:#ABA9A4"/>
			<stop  offset="1.907374e-02" style="stop-color:#B0AEAA"/>
			<stop  offset="0.1065" style="stop-color:#C2C1BE"/>
			<stop  offset="0.1925" style="stop-color:#CCCCCB"/>
			<stop  offset="0.2752" style="stop-color:#D0D0CF"/>
			<stop  offset="0.6207" style="stop-color:#86857D"/>
			<stop  offset="0.9064" style="stop-color:#52584F"/>
			<stop  offset="0.9251" style="stop-color:#575D54"/>
			<stop  offset="0.948" style="stop-color:#656A63"/>
			<stop  offset="0.9731" style="stop-color:#7D807C"/>
			<stop  offset="0.9997" style="stop-color:#9F9F9F"/>
			<stop  offset="1" style="stop-color:#9F9F9F"/>
		</linearGradient>
		<path class="st39" d="M34.8,83.7H37c0.3,0,0.6,0.3,0.6,0.6v0.1h-3.4v-0.1C34.3,84,34.5,83.7,34.8,83.7z"/>
		
			<linearGradient id="SVGID_26_" gradientUnits="userSpaceOnUse" x1="35.95" y1="60.8828" x2="35.95" y2="64.5458" gradientTransform="matrix(1 0 0 1 0 2)">
			<stop  offset="0" style="stop-color:#D0D0CF"/>
			<stop  offset="0.4521" style="stop-color:#86857D"/>
			<stop  offset="0.9064" style="stop-color:#52584F"/>
		</linearGradient>
		<path class="st40" d="M35.1,62.9h1.7c0.2,0,0.4,0.2,0.4,0.4V65c0,0.2-0.2,0.4-0.4,0.4h-1.7c-0.2,0-0.4-0.2-0.4-0.4v-1.8
			C34.8,63.1,34.9,62.9,35.1,62.9z"/>
		
			<linearGradient id="SVGID_27_" gradientUnits="userSpaceOnUse" x1="4.4767" y1="80" x2="8.244" y2="80" gradientTransform="matrix(1 0 0 1 0 2)">
			<stop  offset="7.662840e-03" style="stop-color:#6B6E75"/>
			<stop  offset="0.1095" style="stop-color:#4F525A"/>
			<stop  offset="0.2126" style="stop-color:#3A3D46"/>
			<stop  offset="0.2797" style="stop-color:#32353E"/>
			<stop  offset="0.5951" style="stop-color:#272A34"/>
			<stop  offset="0.9847" style="stop-color:#1D212C"/>
		</linearGradient>
		<path class="st41" d="M8.2,83.4H5.8c-0.8,0-1.4-0.6-1.4-1.4l0,0c0-0.8,0.6-1.4,1.4-1.4h2.4C8.2,80.6,8.2,83.4,8.2,83.4z"/>
		
			<linearGradient id="SVGID_28_" gradientUnits="userSpaceOnUse" x1="16.8" y1="61.4355" x2="16.8" y2="67.3266" gradientTransform="matrix(1 0 0 1 0 2)">
			<stop  offset="0" style="stop-color:#672C23"/>
			<stop  offset="0.2356" style="stop-color:#5A281E"/>
			<stop  offset="0.6769" style="stop-color:#482117"/>
			<stop  offset="0.9885" style="stop-color:#411F14"/>
		</linearGradient>
		<path class="st42" d="M9.3,63.4c0,0.3-0.1,0.6-0.1,0.9c0,4.9,5.3,5,7.6,5s7.6-0.1,7.6-5c0-0.3,0-0.6-0.1-0.9H9.3z"/>
		
			<linearGradient id="SVGID_29_" gradientUnits="userSpaceOnUse" x1="14.2" y1="52.1" x2="19.5151" y2="52.1" gradientTransform="matrix(1 0 0 1 0 2)">
			<stop  offset="7.662840e-03" style="stop-color:#D0D0CF"/>
			<stop  offset="0.2445" style="stop-color:#DDDDDC"/>
			<stop  offset="0.4176" style="stop-color:#C3C3C0"/>
			<stop  offset="0.908" style="stop-color:#86857D"/>
			<stop  offset="1" style="stop-color:#9F9F9F"/>
		</linearGradient>
		<path class="st43" d="M19.5,55.8h-5.3v-3.1c0-0.2,0.1-0.3,0.3-0.3h4.7c0.2,0,0.3,0.1,0.3,0.3V55.8z"/>
		
			<linearGradient id="SVGID_30_" gradientUnits="userSpaceOnUse" x1="16.85" y1="61.0761" x2="16.85" y2="62.1147" gradientTransform="matrix(1 0 0 1 0 2)">
			<stop  offset="0" style="stop-color:#672C23"/>
			<stop  offset="0.2356" style="stop-color:#5A281E"/>
			<stop  offset="0.6769" style="stop-color:#482117"/>
			<stop  offset="0.9885" style="stop-color:#411F14"/>
		</linearGradient>
		<path class="st44" d="M24.4,63.4c0,0.2-3.3,0.4-7.5,0.4s-7.6-0.2-7.6-0.4s3.4-0.4,7.6-0.4C21.1,63.1,24.4,63.2,24.4,63.4z"/>
		
			<linearGradient id="SVGID_31_" gradientUnits="userSpaceOnUse" x1="14.9859" y1="54.9846" x2="14.9859" y2="62.7017" gradientTransform="matrix(1 0 0 1 0 2)">
			<stop  offset="0" style="stop-color:#FFFFFF"/>
			<stop  offset="0.2366" style="stop-color:#FDFCFC"/>
			<stop  offset="0.4152" style="stop-color:#F6F3F2"/>
			<stop  offset="0.5748" style="stop-color:#EAE5E2"/>
			<stop  offset="0.7223" style="stop-color:#D9D0CB"/>
			<stop  offset="0.8101" style="stop-color:#CCC0BA"/>
			<stop  offset="0.8333" style="stop-color:#C5B7B0"/>
			<stop  offset="0.8726" style="stop-color:#B29F96"/>
			<stop  offset="0.9231" style="stop-color:#93776A"/>
			<stop  offset="0.9823" style="stop-color:#68412F"/>
			<stop  offset="1" style="stop-color:#5A2F1C"/>
		</linearGradient>
		<path class="st45" d="M14.6,56.8c0,0-3.9,2-4.6,5.3c-0.7,3.3,8.7,3.3,9.8,1.8c1.1-1.4-2.5-7.2-2.5-7.2h-2.7
			C14.6,56.7,14.6,56.8,14.6,56.8z"/>
		
			<linearGradient id="SVGID_32_" gradientUnits="userSpaceOnUse" x1="16.9" y1="72.8184" x2="16.9" y2="73.3044" gradientTransform="matrix(1 0 0 1 0 2)">
			<stop  offset="0" style="stop-color:#DDDDDC"/>
			<stop  offset="0.4176" style="stop-color:#C3C3C0"/>
			<stop  offset="0.908" style="stop-color:#86857D"/>
			<stop  offset="1" style="stop-color:#9F9F9F"/>
		</linearGradient>
		<path class="st46" d="M23.2,75.3H10.6c-0.1,0-0.3-0.1-0.3-0.3l0,0c0-0.1,0.1-0.3,0.3-0.3h12.6c0.1,0,0.3,0.1,0.3,0.3l0,0
			C23.4,75.2,23.3,75.3,23.2,75.3z"/>
		
			<linearGradient id="SVGID_33_" gradientUnits="userSpaceOnUse" x1="11.7" y1="73.8775" x2="11.7" y2="76.0643" gradientTransform="matrix(1 0 0 1 0 2)">
			<stop  offset="0" style="stop-color:#777678"/>
			<stop  offset="9.195400e-02" style="stop-color:#5F5D55"/>
			<stop  offset="0.7203" style="stop-color:#999796"/>
			<stop  offset="0.9923" style="stop-color:#A6A4A5"/>
		</linearGradient>
		<path class="st47" d="M11.7,78.1L11.7,78.1c-0.1,0-0.2-0.1-0.2-0.2v-1.8c0-0.1,0.1-0.2,0.2-0.2l0,0c0.1,0,0.2,0.1,0.2,0.2v1.8
			C11.9,78,11.8,78.1,11.7,78.1z"/>
		
			<linearGradient id="SVGID_34_" gradientUnits="userSpaceOnUse" x1="12.7" y1="73.8775" x2="12.7" y2="76.0643" gradientTransform="matrix(1 0 0 1 0 2)">
			<stop  offset="0" style="stop-color:#777678"/>
			<stop  offset="9.195400e-02" style="stop-color:#5F5D55"/>
			<stop  offset="0.7203" style="stop-color:#999796"/>
			<stop  offset="0.9923" style="stop-color:#A6A4A5"/>
		</linearGradient>
		<path class="st48" d="M12.7,78.1L12.7,78.1c-0.1,0-0.2-0.1-0.2-0.2v-1.8c0-0.1,0.1-0.2,0.2-0.2l0,0c0.1,0,0.2,0.1,0.2,0.2v1.8
			C12.9,78,12.8,78.1,12.7,78.1z"/>
		
			<linearGradient id="SVGID_35_" gradientUnits="userSpaceOnUse" x1="13.8" y1="73.8775" x2="13.8" y2="76.0643" gradientTransform="matrix(1 0 0 1 0 2)">
			<stop  offset="0" style="stop-color:#777678"/>
			<stop  offset="9.195400e-02" style="stop-color:#5F5D55"/>
			<stop  offset="0.7203" style="stop-color:#999796"/>
			<stop  offset="0.9923" style="stop-color:#A6A4A5"/>
		</linearGradient>
		<path class="st49" d="M13.8,78.1L13.8,78.1c-0.1,0-0.2-0.1-0.2-0.2v-1.8c0-0.1,0.1-0.2,0.2-0.2l0,0c0.1,0,0.2,0.1,0.2,0.2v1.8
			C14,78,13.9,78.1,13.8,78.1z"/>
		
			<linearGradient id="SVGID_36_" gradientUnits="userSpaceOnUse" x1="14.8" y1="73.8775" x2="14.8" y2="76.0643" gradientTransform="matrix(1 0 0 1 0 2)">
			<stop  offset="0" style="stop-color:#777678"/>
			<stop  offset="9.195400e-02" style="stop-color:#5F5D55"/>
			<stop  offset="0.7203" style="stop-color:#999796"/>
			<stop  offset="0.9923" style="stop-color:#A6A4A5"/>
		</linearGradient>
		<path class="st50" d="M14.8,78.1L14.8,78.1c-0.1,0-0.2-0.1-0.2-0.2v-1.8c0-0.1,0.1-0.2,0.2-0.2l0,0c0.1,0,0.2,0.1,0.2,0.2v1.8
			C15,78,14.9,78.1,14.8,78.1z"/>
		
			<linearGradient id="SVGID_37_" gradientUnits="userSpaceOnUse" x1="15.8196" y1="73.8775" x2="15.8196" y2="76.0643" gradientTransform="matrix(1 0 0 1 0 2)">
			<stop  offset="0" style="stop-color:#777678"/>
			<stop  offset="9.195400e-02" style="stop-color:#5F5D55"/>
			<stop  offset="0.7203" style="stop-color:#999796"/>
			<stop  offset="0.9923" style="stop-color:#A6A4A5"/>
		</linearGradient>
		<path class="st51" d="M15.8,78.1L15.8,78.1c-0.1,0-0.2-0.1-0.2-0.2v-1.8c0-0.1,0.1-0.2,0.2-0.2l0,0c0.1,0,0.2,0.1,0.2,0.2v1.8
			C16.1,78,16,78.1,15.8,78.1z"/>
		
			<linearGradient id="SVGID_38_" gradientUnits="userSpaceOnUse" x1="16.9" y1="73.8775" x2="16.9" y2="76.0643" gradientTransform="matrix(1 0 0 1 0 2)">
			<stop  offset="0" style="stop-color:#777678"/>
			<stop  offset="9.195400e-02" style="stop-color:#5F5D55"/>
			<stop  offset="0.7203" style="stop-color:#999796"/>
			<stop  offset="0.9923" style="stop-color:#A6A4A5"/>
		</linearGradient>
		<path class="st52" d="M16.9,78.1L16.9,78.1c-0.1,0-0.2-0.1-0.2-0.2v-1.8c0-0.1,0.1-0.2,0.2-0.2l0,0c0.1,0,0.2,0.1,0.2,0.2v1.8
			C17.1,78,17,78.1,16.9,78.1z"/>
		
			<linearGradient id="SVGID_39_" gradientUnits="userSpaceOnUse" x1="17.9196" y1="73.8775" x2="17.9196" y2="76.0643" gradientTransform="matrix(1 0 0 1 0 2)">
			<stop  offset="0" style="stop-color:#777678"/>
			<stop  offset="9.195400e-02" style="stop-color:#5F5D55"/>
			<stop  offset="0.7203" style="stop-color:#999796"/>
			<stop  offset="0.9923" style="stop-color:#A6A4A5"/>
		</linearGradient>
		<path class="st53" d="M17.9,78.1L17.9,78.1c-0.1,0-0.2-0.1-0.2-0.2v-1.8c0-0.1,0.1-0.2,0.2-0.2l0,0c0.1,0,0.2,0.1,0.2,0.2v1.8
			C18.2,78,18.1,78.1,17.9,78.1z"/>
		
			<linearGradient id="SVGID_40_" gradientUnits="userSpaceOnUse" x1="19" y1="73.8775" x2="19" y2="76.0643" gradientTransform="matrix(1 0 0 1 0 2)">
			<stop  offset="0" style="stop-color:#777678"/>
			<stop  offset="9.195400e-02" style="stop-color:#5F5D55"/>
			<stop  offset="0.7203" style="stop-color:#999796"/>
			<stop  offset="0.9923" style="stop-color:#A6A4A5"/>
		</linearGradient>
		<path class="st54" d="M19,78.1L19,78.1c-0.1,0-0.2-0.1-0.2-0.2v-1.8c0-0.1,0.1-0.2,0.2-0.2l0,0c0.1,0,0.2,0.1,0.2,0.2v1.8
			C19.2,78,19.1,78.1,19,78.1z"/>
		
			<linearGradient id="SVGID_41_" gradientUnits="userSpaceOnUse" x1="20" y1="73.8775" x2="20" y2="76.0643" gradientTransform="matrix(1 0 0 1 0 2)">
			<stop  offset="0" style="stop-color:#777678"/>
			<stop  offset="9.195400e-02" style="stop-color:#5F5D55"/>
			<stop  offset="0.7203" style="stop-color:#999796"/>
			<stop  offset="0.9923" style="stop-color:#A6A4A5"/>
		</linearGradient>
		<path class="st55" d="M20,78.1L20,78.1c-0.1,0-0.2-0.1-0.2-0.2v-1.8c0-0.1,0.1-0.2,0.2-0.2l0,0c0.1,0,0.2,0.1,0.2,0.2v1.8
			C20.2,78,20.1,78.1,20,78.1z"/>
		
			<linearGradient id="SVGID_42_" gradientUnits="userSpaceOnUse" x1="21.1" y1="73.8775" x2="21.1" y2="76.0643" gradientTransform="matrix(1 0 0 1 0 2)">
			<stop  offset="0" style="stop-color:#777678"/>
			<stop  offset="9.195400e-02" style="stop-color:#5F5D55"/>
			<stop  offset="0.7203" style="stop-color:#999796"/>
			<stop  offset="0.9923" style="stop-color:#A6A4A5"/>
		</linearGradient>
		<path class="st56" d="M21.1,78.1L21.1,78.1c-0.1,0-0.2-0.1-0.2-0.2v-1.8c0-0.1,0.1-0.2,0.2-0.2l0,0c0.1,0,0.2,0.1,0.2,0.2v1.8
			C21.3,78,21.2,78.1,21.1,78.1z"/>
		
			<linearGradient id="SVGID_43_" gradientUnits="userSpaceOnUse" x1="22.1" y1="73.8775" x2="22.1" y2="76.0643" gradientTransform="matrix(1 0 0 1 0 2)">
			<stop  offset="0" style="stop-color:#777678"/>
			<stop  offset="9.195400e-02" style="stop-color:#5F5D55"/>
			<stop  offset="0.7203" style="stop-color:#999796"/>
			<stop  offset="0.9923" style="stop-color:#A6A4A5"/>
		</linearGradient>
		<path class="st57" d="M22.1,78.1L22.1,78.1c-0.1,0-0.2-0.1-0.2-0.2v-1.8c0-0.1,0.1-0.2,0.2-0.2l0,0c0.1,0,0.2,0.1,0.2,0.2v1.8
			C22.3,78,22.2,78.1,22.1,78.1z"/>
		
			<linearGradient id="SVGID_44_" gradientUnits="userSpaceOnUse" x1="12.1" y1="45.0405" x2="12.1" y2="30.2038" gradientTransform="matrix(1 0 0 1 0 2)">
			<stop  offset="0" style="stop-color:#CCC0BA"/>
			<stop  offset="0.1084" style="stop-color:#D9D0CB"/>
			<stop  offset="0.2905" style="stop-color:#EAE5E2"/>
			<stop  offset="0.4875" style="stop-color:#F6F3F2"/>
			<stop  offset="0.7079" style="stop-color:#FDFCFC"/>
			<stop  offset="1" style="stop-color:#FFFFFF"/>
		</linearGradient>
		<path class="st58" d="M12.7,47.1h-1.1c-0.4,0-0.7-0.3-0.7-0.7V32.3h2.4v14.1C13.3,46.8,13,47.1,12.7,47.1z"/>
		
			<linearGradient id="SVGID_45_" gradientUnits="userSpaceOnUse" x1="22" y1="45.0405" x2="22" y2="30.2038" gradientTransform="matrix(1 0 0 1 0 2)">
			<stop  offset="0" style="stop-color:#CCC0BA"/>
			<stop  offset="0.1084" style="stop-color:#D9D0CB"/>
			<stop  offset="0.2905" style="stop-color:#EAE5E2"/>
			<stop  offset="0.4875" style="stop-color:#F6F3F2"/>
			<stop  offset="0.7079" style="stop-color:#FDFCFC"/>
			<stop  offset="1" style="stop-color:#FFFFFF"/>
		</linearGradient>
		<path class="st59" d="M22.3,47.1h-0.5c-0.3,0-0.6-0.2-0.6-0.6V32.3h1.6v14.3C22.8,46.9,22.6,47.1,22.3,47.1z"/>
		<g class="st60">
			
				<linearGradient id="SVGID_46_" gradientUnits="userSpaceOnUse" x1="16.75" y1="44.277" x2="16.75" y2="47.3044" gradientTransform="matrix(1 0 0 1 0 2)">
				<stop  offset="0" style="stop-color:#672C23"/>
				<stop  offset="0.2356" style="stop-color:#5A281E"/>
				<stop  offset="0.6769" style="stop-color:#482117"/>
				<stop  offset="0.9885" style="stop-color:#411F14"/>
			</linearGradient>
			<path class="st61" d="M10.5,45.7v1.1c0,0.5,0.4,0.8,0.8,0.8l0,0c0.5,0,0.8,0.4,0.8,0.8c0,0.5,0.4,0.8,0.8,0.8h7.7
				c0.5,0,0.8-0.4,0.8-0.8c0-0.5,0.4-0.8,0.8-0.8l0,0c0.5,0,0.8-0.4,0.8-0.8v-1.1H10.5z"/>
		</g>
	</g>
	<g>
		<g>
			<path class="st9" d="M206.2,84c0,0-0.5,1.9,1,3.5c1.5,1.5,3.2,3.3,3.9,2.9c0.7-0.5,1.9-1.8,3.3-1.9c1.4,0,3.8-2.6,3.8-2.6
				l-0.2-3.8l-6.7,3L206.2,84z"/>
			<path class="st62" d="M214.9,140.2l2.2,2.5c0,0,4.3-0.2,4.3-0.4s1.6-5.4,1.6-5.4l-0.3-1.3l-2.7-0.9L214.9,140.2z"/>
			<path class="st9" d="M221.1,134.9c0,0,0.9-0.3,1.8,0.7c0.9,1,2.9,2.6,3,4.2c0.1,1.6-2.2,3.4-3.7,4.3c-1.5,0.8-2.6,1.7-3.8,4.2
				c-1.1,2.5-1.8,5.7-5.5,7.6c-3.7,1.9-4.6,2.1-5.5,0.8s1.4-3.8,1.8-5c0.4-1.3,3.1-4.9,3.1-6c0-1.2-0.1-2.7-0.1-2.7l2.6-1.3
				c0,0,3.4,0.8,4.9-0.3c1.5-1.2,3-4.4,2.7-5.1C222.1,135.3,221,135.3,221.1,134.9z"/>
			<path class="st9" d="M231.2,170.5c0,0,0.8,3.5,0,5.5s-2,4.7-2,6.1c0,1.4,0.3,2.6,3.4,2.5c3.2-0.1,5.6-0.4,6.6-2.3
				c1-1.9,0.5-9.3-0.4-9.8c-1-0.5-7.6-3.8-7.6-3.8V170.5z"/>
			<path class="st63" d="M217.8,89.1l0.3,2.2c0,0-3.4,1.6-5.1,2.9c-1.8,1.3-6.6,3.1-8.9,4.5c-2.3,1.3-14.6,7.6-17.2,12.6
				c-2.6,4.9-0.9,7.4,1.9,10.4c2.8,3,17.6,24.9,18.8,25.2c1.1,0.3,7.3-4.8,10.6-7.7c3.3-3,2.8-4.2,1.8-4.8c-0.9-0.6-4.7-3.4-5.8-5.9
				c-1.1-2.6-3.9-3-5-5.1s-4.7-5.2-5.7-5.3c-1,0,4.5-0.8,10.4-3.6s10.5-4.6,10.5-4.6s2.2,4.4,1.8,6.4s-0.2,2.4,0,3.9s-1.3,14,0,16.9
				s0,4.7,1.4,8.3c1.5,3.6,1,13.1,1.2,16c0.2,3,1.4,10.1,2.1,10.3c0.7,0.2,1.7-2.6,2.4-1.1s0.3,5,1.8,5.4s3.5-0.7,3.7-1.7
				s-0.2-6.2,0.5-12.1c0.7-5.9,1-21.9,0-22.9s0.8-2.9-0.7-3.1c-1.5-0.3-1.2-0.9-0.8-2.2s-0.4-3.5-0.1-4.4c0.3-0.9,1.6-1.8,1.4-2.8
				c-0.3-1,1.5-3.8,1.3-4.9c-0.2-1.2,1-3,1.3-4.8c0.4-1.8,4.6-9.5,4.7-11.5c0.1-1.9-0.6-6.2-0.4-7.3c0.2-1.2,1-5.2,0.7-6.1
				s-14.2-4.9-14.2-4.9L217.8,89.1z"/>
			<path class="st64" d="M231.9,32.7c0,0,1.8,10.9,4,11.7c2.2,0.8-8.7,12.6-8.7,12.6l-3-5.8c0,0,0.7-4.3,0-4.7
				C223.4,46.2,231.9,32.7,231.9,32.7z"/>
			<path class="st62" d="M215.3,31.5c0,0,0.1,2.4,0.6,3.9s1,2.4,1.5,3.3c0.5,0.9,1,4.5,2.3,4.9c1.3,0.3,1.8,1.4,2.1,2.5
				s0.1,2.9,3.3,2s5.1-2.7,6-6.2s0.7-4.5,0.7-4.5s1.8-4,1-5.5S215.3,31.5,215.3,31.5z"/>
			<path class="st65" d="M228.8,36.6H228c0,0-0.6-3.2-3.8-3.9c-3.2-0.8-4.3,0.3-6.5,0c-2.3-0.3-2.9,1-3.8,0.3c-0.9-0.7-1.8-4,0-4.9
				c1.8-0.8,1-3.3,3.3-4.7c2.3-1.3,2.4-2.9,5-2.5s4.7-0.7,6.6,1.2c1.9,1.8,5.3,4,5.1,7.3s-0.6,7.6-0.7,8c-0.1,0.4-0.3-5.4-2.3-5.3
				C229.1,32.2,228.8,36.6,228.8,36.6z"/>
			<path class="st66" d="M232.7,47.8c0,0-2.3,1.7-2.9,1.9c-0.6,0.2-2.1,4.9-2.1,4.9l-3.6-5.1l-2-1.1c0,0-6.5,4.1-8.3,5.4
				c-1.8,1.3-2.6,6.7-2.5,9.7s-1.8,9.7-1.5,10.4c0.3,0.8,3.6,5.1,3.6,5.1s4,3.5,4,5.7s-0.7,5.5,0.2,5.2s4.7-1,9.8-1.1
				s6.1-0.8,7.5-0.2c1.4,0.6,6.5,2.1,9.2,2.7s2.8,2.8,3.8,1.7c1-1.1,1.2-7.1,0.5-8.6s1.5-14.4,0.4-17.7c-1.1-3.3,0.9-15.1,0.9-15.1
				s-4.6-2.5-6.5-3.7s-5.7-3.2-6.4-2.9C236.4,45.2,232.7,47.8,232.7,47.8z"/>
			<g>
				<polygon class="st67" points="207.5,70.6 207.3,71.1 198.1,72.9 198.1,72.3 				"/>
				<g>
					<polygon class="st67" points="216.3,83.1 207.3,71.1 207.5,70.6 216.9,82.9 					"/>
					<polygon class="st68" points="207.1,84.3 198.1,72.9 207.3,71.1 216.3,83.1 					"/>
				</g>
			</g>
		</g>
		<g>
			<path class="st67" d="M207.6,76.3c0,0.2-0.1,0.4-0.1,0.6c0,0.6,0.6,1.1,1.3,1.2c0.1,0,0.1,0,0.1,0.1c0.1,0.3,0.1,0.7,0,1
				s-0.2,0.4-0.6,0.4c-0.1,0-0.3,0-0.4,0c-0.1,0-0.2,0.1-0.3,0.2l0,0c-0.2,0.2-0.4,0.2-0.8,0.1c-0.7-0.3-1.4-0.8-1.8-1.5
				c-0.3-0.4-0.4-0.9-0.2-1.2c0.1-0.2,0.3-0.3,0.6-0.3c0.6,0,0.4,0,0.8-0.3c0.3-0.3,0.6-0.4,1.1-0.3
				C207.3,76.2,207.5,76.3,207.6,76.3z"/>
			<path class="st67" d="M205.8,75.1c0.1,0.1,0.1,0.2,0.2,0.3c0.2,0.4,0.1,0.7,0,1c0,0.1-0.1,0.1-0.1,0.1c-0.1,0.1-0.1,0.1-0.2-0.1
				c-0.2-0.3-0.2-0.7-0.1-1C205.5,75.3,205.6,75.2,205.8,75.1z"/>
		</g>
		<path class="st62" d="M201.4,80.9c0,0,0.1,1.9,0.9,2.1c0.8,0.2,3.6,0.5,4.6,1.4s1.5,2.1,3.5,2.3c2,0.2,3-1.1,3.6-1.7
			c0.5-0.6,2.6-1.7,2.1-1.8c-0.4-0.1-1.9,0-1.9-0.4c0-0.3-5.8,0.7-6.4,0c-0.6-0.7,0.5-3.2-0.5-3.1c-1.1,0.1-1.4,2.4-1.7,2.5
			s-2,0.1-2.4-0.5C202.8,80.9,201.4,80.9,201.4,80.9z"/>
		<path class="st62" d="M238.4,83.5c0,0-2.9-0.2-3.5,0c-0.5,0.2-2.4,1.5-3.5,1.7s-2.3,0.4-4.1,0.3s-1.6-0.7-2.9-1
			c-1.3-0.3-3.1,0.2-3.4-0.5c-0.3-0.7,0.5-1.6,1.3-2.3c0.9-0.6,1.4-1.2,1.4-1.2s-1.4-0.1,0.6-1.3c2-1.2,3.1-2.3,3.8-2.3
			s3.6,0.1,4.4,0.5c0.9,0.3,4.7,0.1,4.7,0.1S238.8,81.3,238.4,83.5z"/>
		<path class="st66" d="M236.6,77.2c0,0,1.2,1.2,1.1,3.9c-0.1,2.7-0.8,4.7,0.3,5.1s7.8,0.5,11.8,0s7.5,0.3,8.1-1.4
			c0.7-1.7,2.2-2.1,1.7-4.5c-0.4-2.5,0.3-6.2-0.7-8.3c-0.9-2.1-2.1-4.2-2.1-6.1s-1.1-2.6-0.7-4.4c0.4-1.8-0.7-2.9-1.8-4.5
			s-2.5-4.8-4.7-5.6s-5.7,1.3-6.1,6.8c-0.4,5.5,0.1,9.8,1.7,12.3c1.6,2.5,1.3,6.4,2.7,6.1c1.4-0.2-1.2,0.2-3.1,0.7
			C243.1,77.8,237.7,76.8,236.6,77.2z"/>
	</g>
</g>
</svg>
