<?xml version="1.0" encoding="utf-8"?>
<!-- Generator: Adobe Illustrator 25.3.1, SVG Export Plug-In . SVG Version: 6.00 Build 0)  -->
<svg version="1.1" id="圖層_1" xmlns="http://www.w3.org/2000/svg" xmlns:xlink="http://www.w3.org/1999/xlink" x="0px" y="0px"
	 viewBox="0 0 100 60" style="enable-background:new 0 0 100 60;" xml:space="preserve">
<style type="text/css">
	.st0{fill:#F7F6C8;}
	.st1{fill:#E2B868;}
	.st2{opacity:0.47;fill:#A06C25;enable-background:new    ;}
	.st3{fill:#F0F8F7;}
	.st4{fill:#4A200F;}
	.st5{fill:#FCFBE4;}
	.st6{fill:#EFD8AE;}
	.st7{fill:#272022;}
	.st8{fill:#798690;}
	.st9{fill:#151719;}
	.st10{fill:#1F262E;}
	.st11{fill:#0666B2;}
	.st12{fill:#FFFFFE;}
	.st13{fill:#FFFFFF;}
	.st14{fill:#D60050;}
	.st15{fill:#0088A0;}
	.st16{clip-path:url(#SVGID_2_);}
</style>
<g>
	<g>
		<g>
			<path class="st0" d="M82.1,54.3l1.2-1.9c-4.1-2.4-6.1-6.9-6.6-9.9c0-0.3-0.1-0.5-0.1-0.7c-0.1-0.9,0.9-1.5,1.6-0.9
				c1.1,0.9,2,2.3,2.6,3.1l1.9-1.2c0,0-0.7-1.2-1.8-2.3c-1.5-1.8-3-2.6-4.3-2.7c-0.9,0-1.8,0.5-2.2,1.6c-0.5,1.6-0.1,4.5,1.1,7.3
				C77.1,49.8,79.4,52.5,82.1,54.3z"/>
			<path class="st1" d="M75.6,46.6c1.5,3.2,3.8,6,6.5,7.7l1.2-1.9l0,0c-4.1-2.4-6.1-6.9-6.6-9.9c0-0.3-0.1-0.5-0.1-0.7
				c-0.1-0.9,0.9-1.5,1.6-0.9c1.1,0.9,2,2.3,2.6,3.1l1.9-1.2c0,0-0.7-1.2-1.8-2.3c-1.5-1.8-3-2.6-4.3-2.7c-0.3,0-0.5,0-0.8,0.1
				c-0.7,0.3-1.1,0.8-1.4,1.6C74,40.9,74.4,43.7,75.6,46.6z"/>
			<path class="st1" d="M79.3,37.2L82.1,57c0,0.8,3.8,2.8,8.1,2.8c2.2,0,4.1-0.5,5.4-1.1c1.4-0.5,2.2-1.2,2.2-1.8l2.2-19.8
				C100,37.2,79.3,37.2,79.3,37.2z"/>
			<path class="st2" d="M82.1,56.9l-2.8-19.8h1.9c1.2,5,4.3,16.2,8,18.1c2.6,1.4,6.1,1.8,8.7,1.9c-0.3,0.4-0.9,0.9-2,1.5
				c-1.4,0.5-3.2,1.1-5.4,1.1C85.8,59.7,82.1,57.8,82.1,56.9z"/>
			<path class="st3" d="M79.3,37.2c0,0.1,0.1,0.3,0.4,0.4c1.4,0.7,5.3,1.1,9.9,1.1c0.5,0,1.1,0,1.6,0c3.8-0.1,6.9-0.5,8.1-1.1
				c0.4-0.1,0.5-0.3,0.5-0.5c0-0.8-3.7-1.4-8.4-1.5c-0.7,0-1.2,0-1.9,0C83.9,35.6,79.3,36.3,79.3,37.2z"/>
			<path class="st4" d="M79.7,37.6c1.4,0.5,5.3,1.1,9.9,1.1c0.5,0,1.1,0,1.6,0c3.8-0.1,6.9-0.4,8.1-0.9c-1.1-0.5-4.2-0.9-8-0.9
				c-0.7,0-1.2,0-1.9,0C85,36.6,81.1,37,79.7,37.6z"/>
			<path class="st3" d="M91.2,38.7c4.9-0.1,8.7-0.8,8.7-1.5c0-0.8-3.7-1.4-8.4-1.5C91.5,36.6,91.5,37.6,91.2,38.7z"/>
			<path class="st5" d="M79.3,37.2c0,0.8,4.6,1.5,10.3,1.5c5.7,0,10.3-0.7,10.3-1.5s-4.6-1.5-10.3-1.5
				C83.9,35.6,79.3,36.3,79.3,37.2z M80.1,37c0.4-0.1,1.2-0.4,2.6-0.5c1.9-0.3,4.3-0.4,6.9-0.4c2.6,0,5,0.1,6.9,0.4
				c1.5,0.3,2.3,0.4,2.7,0.5c0.1,0,0.1,0.3,0,0.3c-0.4,0.1-1.2,0.4-2.7,0.5c-1.9,0.3-4.3,0.4-6.9,0.4c-2.6,0-5-0.1-6.9-0.4
				c-1.5-0.1-2.2-0.4-2.6-0.5C79.8,37.2,79.8,37.1,80.1,37z"/>
			<path class="st6" d="M82.3,45.2c0.4-0.5,1.2-0.7,1.6-1.2c1.2-1.9-3.1-4.2-1.1-6.1c0.4-0.4,0.9-0.4,1.5,0c0.1,0,0.1,0.1,0,0.3
				c-0.1,0-0.3,0-0.3,0c-0.5-0.3-0.9-0.1-1.2,0.3c-0.7,0.8,0,1.9,0.5,2.7c0.4,0.7,0.9,1.4,0.9,2.2c0,1.8-1.6,1.5-2,2.7
				c-0.3,0.5,0.1,1.4,0.4,1.9c0.1,0.1-0.1,0.3-0.3,0.1C82,47.1,81.7,46,82.3,45.2z"/>
			<g>
				<path class="st7" d="M84.2,52.8c-2-0.1-3.9-0.7-5.7-1.5c0.7-1.4,1.4-2.7,2-4.1c0.1,0,0.1,0,0.3-0.1c1.1,0.5,2.3,0.8,3.5,0.9
					c0,0.1,0,0.1,0.1,0.1C84.4,49.8,84.3,51.3,84.2,52.8z"/>
			</g>
		</g>
	</g>
	<g>
		<g>
			<g>
				<g>
					<g>
						<g>
							<rect x="15.8" y="52.9" class="st8" width="55.2" height="4.1"/>
						</g>
					</g>
				</g>
				<g>
					<g>
						<g>
							<g>
								<path class="st9" d="M70.8,52.8L76,2.2c0.1-1.2-0.3-2-1.1-2H27.5c-0.7,0-1.4,0.9-1.5,2l-5.3,50.6H70.8z"/>
							</g>
						</g>
					</g>
					<g>
						<g>
							<g>
								<path class="st10" d="M68.3,52.8l5.3-50.6c0.1-1.2-0.3-2-1.1-2H25c-0.7,0-1.4,0.9-1.5,2l-5.3,50.6H68.3z"/>
							</g>
						</g>
					</g>
					<g>
						<g>
							<polygon class="st11" points="20.6,49.7 25.4,3.8 71.3,3.8 66.4,49.7 							"/>
						</g>
					</g>
				</g>
				<g>
					<g>
						<g>
							<rect y="52.9" class="st12" width="60.5" height="4.1"/>
						</g>
					</g>
				</g>
			</g>
			<g>
				<g>
					<path d="M41.5,21.7l-3,9.7h-0.9l-1.1-9.7h0.9l0.8,7.4c0,0.3,0,0.5,0,0.9l0,0c0-0.3,0.1-0.5,0.3-0.9l2.2-7.4H41.5z"/>
					<path d="M42.6,27.9l-0.4,3.5h-0.9l0.9-9.7H44c0.7,0,1.1,0.3,1.5,0.8c0.3,0.5,0.4,1.2,0.3,2.2s-0.4,1.8-0.8,2.3
						c-0.5,0.5-1.1,0.8-1.6,0.8h-0.7V27.9z M43.2,23l-0.4,3.7h0.7c0.8,0,1.4-0.7,1.5-1.9c0.1-1.2-0.3-1.8-1.1-1.8
						C43.8,23,43.2,23,43.2,23z"/>
					<path d="M51.2,31.4h-0.9l-2-7.2C48,24,48,23.7,48,23.6l0,0c0,0.3,0,0.7-0.1,1.5l-0.7,6.5h-0.8l0.9-9.7h1.1l2,7
						c0.1,0.3,0.1,0.5,0.1,0.7l0,0c0-0.3,0-0.8,0.1-1.4l0.7-6.4h0.8L51.2,31.4z"/>
				</g>
				<g>
					
						<ellipse transform="matrix(0.1464 -0.9892 0.9892 0.1464 11.584 66.0135)" class="st13" cx="44" cy="26.3" rx="16.5" ry="9.7"/>
					<path class="st14" d="M42.4,43.6c-5.7,0-9.6-7.8-8.7-17.3C34.6,16.7,40.1,9,45.7,9s9.6,7.8,8.7,17.3
						C53.5,35.9,48,43.6,42.4,43.6z M45.5,10.9c-5,0-9.9,6.9-10.7,15.4c-0.8,8.5,2.7,15.4,7.7,15.4s9.9-6.9,10.7-15.4
						C54,17.8,50.6,10.9,45.5,10.9z"/>
				</g>
				<polygon class="st14" points="36.7,39.1 36,37.8 52,14.6 52.6,16 				"/>
				<g>
					<g>
						<path d="M41.5,21.7l-3,9.7h-0.9l-1.1-9.7h0.9l0.8,7.4c0,0.3,0,0.5,0,0.9l0,0c0-0.3,0.1-0.5,0.3-0.9l2.2-7.4H41.5z"/>
						<path class="st13" d="M38.4,32.5h-0.9c-0.3,0-0.4-0.3-0.5-0.7l-1.1-9.7c0-0.3,0-0.7,0.1-0.9s0.3-0.4,0.5-0.4h0.9
							c0.3,0,0.4,0.3,0.5,0.7l0.5,5.3l1.6-5.3c0.1-0.4,0.4-0.7,0.7-0.7h0.9c0.1,0,0.4,0.1,0.4,0.4c0.1,0.3,0.1,0.5,0,0.9l-3,9.7
							C39,32.2,38.7,32.5,38.4,32.5z"/>
					</g>
					<g>
						<path d="M42.6,27.9l-0.4,3.5h-0.9l0.9-9.7H44c0.7,0,1.1,0.3,1.5,0.8c0.3,0.5,0.4,1.2,0.3,2.2s-0.4,1.8-0.8,2.3
							c-0.5,0.5-1.1,0.8-1.6,0.8h-0.7V27.9z M43.2,23l-0.4,3.7h0.7c0.8,0,1.4-0.7,1.5-1.9c0.1-1.2-0.3-1.8-1.1-1.8
							C43.8,23,43.2,23,43.2,23z"/>
						<path class="st13" d="M42.2,32.5h-0.9c-0.3,0-0.5-0.4-0.5-0.9l0.9-9.7c0-0.5,0.4-0.9,0.7-0.9h1.8c0.8,0,1.4,0.4,1.8,0.9
							c0.4,0.7,0.5,1.8,0.4,3c-0.1,1.2-0.5,2.3-1.1,3.1c-0.5,0.8-1.4,1.1-2,1.1H43l-0.3,2.6C42.9,32,42.6,32.5,42.2,32.5z
							 M43.4,25.6L43.4,25.6c0.8,0,0.8-0.4,0.8-0.9c0-0.4,0.1-0.8-0.5-0.8h0L43.4,25.6z"/>
					</g>
					<g>
						<path d="M51.2,31.4h-0.9l-2-7.2C48,24,48,23.7,48,23.6l0,0c0,0.3,0,0.7-0.1,1.5l-0.7,6.5h-0.8l0.9-9.7h1.1l2,7
							c0.1,0.3,0.1,0.5,0.1,0.7l0,0c0-0.3,0-0.8,0.1-1.4l0.7-6.4h0.8L51.2,31.4z"/>
						<path class="st13" d="M51,32.5h-0.9c-0.1,0-0.4-0.1-0.4-0.4l-1.5-5l-0.4,4.5c0,0.5-0.4,0.9-0.7,0.9h-0.8
							c-0.3,0-0.5-0.4-0.5-0.9l0.9-9.7c0-0.5,0.4-0.9,0.7-0.9h1.1c0.1,0,0.4,0.1,0.4,0.4l1.4,4.9l0.4-4.3c0-0.5,0.4-0.9,0.7-0.9h0.8
							c0.3,0,0.5,0.4,0.5,0.9l-0.9,9.7C51.7,32,51.4,32.5,51,32.5z M50.5,30.5L50.5,30.5l0.1-0.1C50.6,30.3,50.6,30.3,50.5,30.5
							L50.5,30.5z M47.6,22.6L47.6,22.6C47.6,22.8,47.6,22.6,47.6,22.6L47.6,22.6z"/>
					</g>
				</g>
				<g>
					<path class="st15" d="M41.5,21.7l-3,9.7h-0.9l-1.1-9.7h0.9l0.8,7.4c0,0.3,0,0.5,0,0.9l0,0c0-0.3,0.1-0.5,0.3-0.9l2.2-7.4H41.5z
						"/>
					<path class="st15" d="M42.6,27.9l-0.4,3.5h-0.9l0.9-9.7H44c0.7,0,1.1,0.3,1.5,0.8c0.3,0.5,0.4,1.2,0.3,2.2s-0.4,1.8-0.8,2.3
						c-0.5,0.5-1.1,0.8-1.6,0.8h-0.7V27.9z M43.2,23l-0.4,3.7h0.7c0.8,0,1.4-0.7,1.5-1.9c0.1-1.2-0.3-1.8-1.1-1.8
						C43.8,23,43.2,23,43.2,23z"/>
					<path class="st15" d="M51.2,31.4h-0.9l-2-7.2C48,24,48,23.7,48,23.6l0,0c0,0.3,0,0.7-0.1,1.5l-0.7,6.5h-0.8l0.9-9.7h1.1l2,7
						c0.1,0.3,0.1,0.5,0.1,0.7l0,0c0-0.3,0-0.8,0.1-1.4l0.7-6.4h0.8L51.2,31.4z"/>
				</g>
			</g>
		</g>
		<g>
			<g>
				<defs>
					<rect id="SVGID_1_" x="27.2" y="7.7" width="38.2" height="38.3"/>
				</defs>
				<clipPath id="SVGID_2_">
					<use xlink:href="#SVGID_1_"  style="overflow:visible;"/>
				</clipPath>
				<g class="st16">
				</g>
			</g>
		</g>
	</g>
</g>
</svg>
