<?xml version="1.0" encoding="utf-8"?>
<!-- Generator: Adobe Illustrator 25.3.1, SVG Export Plug-In . SVG Version: 6.00 Build 0)  -->
<svg version="1.1" id="圖層_1" xmlns="http://www.w3.org/2000/svg" xmlns:xlink="http://www.w3.org/1999/xlink" x="0px" y="0px"
	 viewBox="0 0 100 75" style="enable-background:new 0 0 100 75;" xml:space="preserve">
<style type="text/css">
	.st0{fill:#798690;}
	.st1{fill:#151719;}
	.st2{fill:#1F262E;}
	.st3{fill:#0666B2;}
	.st4{fill:#FFFFFE;}
	.st5{fill:#FFFFFF;}
	.st6{fill:#D60050;}
	.st7{fill:#0088A0;}
</style>
<g>
	<g>
		<g>
			<g>
				<g>
					<g>
						<g>
							<rect x="20.8" y="69.5" class="st0" width="72.6" height="5.4"/>
						</g>
					</g>
				</g>
				<g>
					<g>
						<g>
							<g>
								<path class="st1" d="M93.1,69.3L100,2.8c0.1-1.6-0.4-2.6-1.4-2.6H36.2c-0.9,0-1.8,1.2-2,2.6l-7,66.6H93.1z"/>
							</g>
						</g>
					</g>
					<g>
						<g>
							<g>
								<path class="st2" d="M89.9,69.3l7-66.6c0.1-1.6-0.4-2.6-1.4-2.6H32.9c-0.9,0-1.8,1.2-2,2.6l-7,66.6H89.9z"/>
							</g>
						</g>
					</g>
					<g>
						<g>
							<polygon class="st3" points="27.1,65.3 33.4,4.9 93.8,4.9 87.4,65.3 							"/>
						</g>
					</g>
				</g>
				<g>
					<g>
						<g>
							<rect x="0" y="69.5" class="st4" width="79.6" height="5.4"/>
						</g>
					</g>
				</g>
			</g>
			<g>
				<g>
					<path d="M54.6,28.4l-3.9,12.8h-1.2L48,28.4h1.2l1.1,9.7c0,0.4,0,0.7,0,1.2l0,0c0-0.4,0.1-0.7,0.4-1.2l2.9-9.7H54.6z"/>
					<path d="M56,36.6l-0.5,4.6h-1.2l1.2-12.8h2.4c0.9,0,1.4,0.4,2,1.1c0.4,0.7,0.5,1.6,0.4,2.9c-0.1,1.3-0.5,2.4-1.1,3
						c-0.7,0.7-1.4,1.1-2.1,1.1h-0.9v0.1H56z M56.8,30.1L56.3,35h0.9c1.1,0,1.8-0.9,2-2.5c0.1-1.6-0.4-2.4-1.4-2.4
						C57.6,30.1,56.8,30.1,56.8,30.1z"/>
					<path d="M67.4,41.2h-1.2l-2.6-9.5c-0.4-0.3-0.4-0.7-0.4-0.8l0,0c0,0.4,0,0.9-0.1,2l-0.9,8.6H61l1.2-12.8h1.4l2.6,9.2
						c0.1,0.4,0.1,0.7,0.1,0.9l0,0c0-0.4,0-1.1,0.1-1.8l0.9-8.4h1.1L67.4,41.2z"/>
				</g>
				<g>
					
						<ellipse transform="matrix(0.1464 -0.9892 0.9892 0.1464 15.302 86.7846)" class="st5" cx="57.9" cy="34.5" rx="21.7" ry="12.8"/>
					<path class="st6" d="M55.8,57.2c-7.5,0-12.6-10.3-11.4-22.8c1.2-12.6,8.4-22.8,15.8-22.8S72.7,22,71.6,34.5
						C70.4,47.1,63.1,57.2,55.8,57.2z M59.9,14.2c-6.6,0-13,9.1-14.1,20.3s3.6,20.3,10.1,20.3s13-9.1,14.1-20.3S66.6,14.2,59.9,14.2
						z"/>
				</g>
				<polygon class="st6" points="48.3,51.3 47.4,49.6 68.4,19.1 69.2,20.9 				"/>
				<g>
					<g>
						<path d="M54.6,28.4l-3.9,12.8h-1.2L48,28.4h1.2l1.1,9.7c0,0.4,0,0.7,0,1.2l0,0c0-0.4,0.1-0.7,0.4-1.2l2.9-9.7H54.6z"/>
						<path class="st5" d="M50.5,42.6h-1.2c-0.4,0-0.5-0.4-0.7-0.9l-1.4-12.8c0-0.4,0-0.9,0.1-1.2c0.1-0.3,0.4-0.5,0.7-0.5h1.2
							c0.4,0,0.5,0.4,0.7,0.9l0.7,7l2.1-7c0.1-0.5,0.5-0.9,0.9-0.9h1.2c0.1,0,0.5,0.1,0.5,0.5c0.1,0.4,0.1,0.7,0,1.2l-3.9,12.8
							C51.3,42.2,50.9,42.6,50.5,42.6z"/>
					</g>
					<g>
						<path d="M56,36.6l-0.5,4.6h-1.2l1.2-12.8h2.4c0.9,0,1.4,0.4,2,1.1c0.4,0.7,0.5,1.6,0.4,2.9c-0.1,1.3-0.5,2.4-1.1,3
							c-0.7,0.7-1.4,1.1-2.1,1.1h-0.9v0.1H56z M56.8,30.1L56.3,35h0.9c1.1,0,1.8-0.9,2-2.5c0.1-1.6-0.4-2.4-1.4-2.4
							C57.6,30.1,56.8,30.1,56.8,30.1z"/>
						<path class="st5" d="M55.5,42.6h-1.2c-0.4,0-0.7-0.5-0.7-1.2l1.2-12.8c0-0.7,0.5-1.2,0.9-1.2h2.4c1.1,0,1.8,0.5,2.4,1.2
							c0.5,0.9,0.7,2.4,0.5,3.9c-0.1,1.6-0.7,3-1.4,4.1c-0.7,1.1-1.8,1.4-2.6,1.4h-0.4l-0.4,3.4C56.4,42,56,42.6,55.5,42.6z
							 M57.1,33.6L57.1,33.6c1.1,0,1.1-0.5,1.1-1.2c0-0.5,0.1-1.1-0.7-1.1l0,0L57.1,33.6z"/>
					</g>
					<g>
						<path d="M67.4,41.2h-1.2l-2.6-9.5c-0.4-0.3-0.4-0.7-0.4-0.8l0,0c0,0.4,0,0.9-0.1,2l-0.9,8.6H61l1.2-12.8h1.4l2.6,9.2
							c0.1,0.4,0.1,0.7,0.1,0.9l0,0c0-0.4,0-1.1,0.1-1.8l0.9-8.4h1.1L67.4,41.2z"/>
						<path class="st5" d="M67.1,42.6h-1.2c-0.1,0-0.5-0.1-0.5-0.5l-2-6.6l-0.5,5.9c0,0.7-0.5,1.2-0.9,1.2h-1.1
							c-0.4,0-0.7-0.5-0.7-1.2l1.2-12.8c0-0.7,0.5-1.2,0.9-1.2h1.4c0.1,0,0.5,0.1,0.5,0.5l1.8,6.4l0.5-5.7c0-0.7,0.5-1.2,0.9-1.2
							h1.1c0.4,0,0.7,0.5,0.7,1.2l-1.2,12.8C68,42,67.6,42.6,67.1,42.6z M66.4,40L66.4,40l0.1-0.1C66.6,39.7,66.6,39.7,66.4,40
							L66.4,40z M62.6,29.6L62.6,29.6C62.6,29.9,62.6,29.6,62.6,29.6L62.6,29.6z"/>
					</g>
				</g>
				<g>
					<path class="st7" d="M54.6,28.4l-3.9,12.8h-1.2L48,28.4h1.2l1.1,9.7c0,0.4,0,0.7,0,1.2l0,0c0-0.4,0.1-0.7,0.4-1.2l2.9-9.7H54.6
						z"/>
					<path class="st7" d="M56,36.6l-0.5,4.6h-1.2l1.2-12.8h2.4c0.9,0,1.4,0.4,2,1.1c0.4,0.7,0.5,1.6,0.4,2.9c-0.1,1.3-0.5,2.4-1.1,3
						c-0.7,0.7-1.4,1.1-2.1,1.1h-0.9v0.1H56z M56.8,30.1L56.3,35h0.9c1.1,0,1.8-0.9,2-2.5c0.1-1.6-0.4-2.4-1.4-2.4
						C57.6,30.1,56.8,30.1,56.8,30.1z"/>
					<path class="st7" d="M67.4,41.2h-1.2l-2.6-9.5c-0.4-0.3-0.4-0.7-0.4-0.8l0,0c0,0.4,0,0.9-0.1,2l-0.9,8.6H61l1.2-12.8h1.4
						l2.6,9.2c0.1,0.4,0.1,0.7,0.1,0.9l0,0c0-0.4,0-1.1,0.1-1.8l0.9-8.4h1.1L67.4,41.2z"/>
				</g>
			</g>
		</g>
		<g>
			<g>
				<g>
					<defs>
						<rect id="SVGID_1_" x="35.8" y="10" width="50.3" height="50.4"/>
					</defs>
					<clipPath id="SVGID_2_">
						<use xlink:href="#SVGID_1_"  style="overflow:visible;"/>
					</clipPath>
				</g>
			</g>
		</g>
	</g>
</g>
</svg>
