<?xml version="1.0" encoding="utf-8"?>
<!-- Generator: Adobe Illustrator 25.3.1, SVG Export Plug-In . SVG Version: 6.00 Build 0)  -->
<svg version="1.1" id="圖層_1" xmlns="http://www.w3.org/2000/svg" xmlns:xlink="http://www.w3.org/1999/xlink" x="0px" y="0px"
	 viewBox="0 0 240 300" style="enable-background:new 0 0 240 300;" xml:space="preserve">
<style type="text/css">
	.st0{fill:#1B2E21;}
	.st1{fill:#E5C18E;}
	.st2{fill:#BBB6B1;}
</style>
<g>
	<g>
		<g>
			<g>
				<path class="st0" d="M189.6,166.3h-44.8c-0.2,0-0.3,0.2-0.3,0.3v1.7c0,0.2,0.2,0.3,0.3,0.3h44.8c0.2,0,0.3-0.2,0.3-0.3v-1.7
					C189.9,166.5,189.8,166.3,189.6,166.3z"/>
			</g>
			<g>
				<path class="st0" d="M140,298h-0.1c-0.8-0.1-1.4-1-1.3-1.9l9.1-127.1c0.1-1,0.8-1.7,1.6-1.6c0.8,0.1,1.4,1,1.3,1.9l-9.1,127.1
					C141.4,297.3,140.7,298,140,298z"/>
			</g>
			<g>
				<path class="st0" d="M152.7,298h-0.1c-0.8-0.1-1.4-1-1.3-1.9l9.1-127.1c0.1-1,0.8-1.7,1.6-1.6c0.8,0.1,1.4,1,1.3,1.9l-9.1,127.1
					C154.1,297.3,153.5,298,152.7,298z"/>
			</g>
			<g>
				<path class="st0" d="M184.1,298.4c-0.8,0-1.4-0.7-1.5-1.6l-9.1-127.1c-0.1-1,0.5-1.9,1.3-1.9c0.8-0.1,1.5,0.6,1.6,1.6l9.1,127.1
					c0.1,1-0.5,1.9-1.3,1.9C184.1,298.4,184.1,298.4,184.1,298.4z"/>
			</g>
			<g>
				<path class="st0" d="M198.3,298.3c-0.7,0-1.4-0.7-1.5-1.6l-10.8-127c-0.1-1,0.5-1.9,1.3-2s1.5,0.6,1.6,1.6l10.8,127
					c0.1,1-0.5,1.9-1.3,2C198.4,298.3,198.4,298.3,198.3,298.3z"/>
			</g>
			<g>
				<path class="st0" d="M194.5,255.8h-51.4c-0.8,0-1.5-0.8-1.5-1.8s0.7-1.8,1.5-1.8h51.4c0.8,0,1.5,0.8,1.5,1.8
					S195.3,255.8,194.5,255.8z"/>
			</g>
			<g>
				<path class="st0" d="M194.9,260.8h-51.4c-0.8,0-1.5-0.8-1.5-1.8s0.7-1.8,1.5-1.8h51.4c0.8,0,1.5,0.8,1.5,1.8
					C196.3,260,195.7,260.8,194.9,260.8z"/>
			</g>
			<g>
				<path class="st1" d="M190.3,167.1h-46.5c-0.5,0-0.9-0.4-0.9-0.9v-3.3c0-0.5,0.4-0.9,0.9-0.9h46.5c0.5,0,0.9,0.4,0.9,0.9v3.3
					C191.3,166.7,190.8,167.1,190.3,167.1z"/>
			</g>
		</g>
		<g>
			<rect y="128.2" class="st0" width="240" height="8.4"/>
			<rect y="123.1" class="st2" width="240" height="5.1"/>
		</g>
	</g>
</g>
</svg>
