<?xml version="1.0" encoding="utf-8"?>
<!-- Generator: Adobe Illustrator 25.3.1, SVG Export Plug-In . SVG Version: 6.00 Build 0)  -->
<svg version="1.1" id="圖層_1" xmlns="http://www.w3.org/2000/svg" xmlns:xlink="http://www.w3.org/1999/xlink" x="0px" y="0px"
	 viewBox="0 0 500 100" style="enable-background:new 0 0 500 100;" xml:space="preserve">
<style type="text/css">
	.st0{fill:none;stroke:#FFFFFF;stroke-width:0.8604;stroke-linecap:round;stroke-miterlimit:10;}
	.st1{fill:#FFFFFF;}
	.st2{fill:#00FFFF;}
	.st3{fill:#00809E;}
	.st4{fill:#00C3FF;}
	.st5{opacity:0.3;}
	.st6{fill:none;stroke:#000000;stroke-width:2.3042;stroke-linecap:round;stroke-linejoin:round;stroke-miterlimit:10;}
	.st7{fill:none;stroke:url(#SVGID_1_);stroke-width:2.3042;stroke-linecap:round;stroke-linejoin:round;stroke-miterlimit:10;}
	.st8{fill:none;stroke:#FFFFFF;stroke-width:1.5412;stroke-linecap:round;stroke-linejoin:round;stroke-miterlimit:10;}
	.st9{fill:none;stroke:#FFFFFF;stroke-width:0.8125;stroke-miterlimit:10;}
	.st10{fill:url(#SVGID_2_);}
	.st11{opacity:0.72;fill:url(#SVGID_3_);enable-background:new    ;}
	.st12{fill:url(#SVGID_4_);}
	.st13{fill:url(#SVGID_5_);}
	.st14{fill:url(#SVGID_6_);}
	.st15{fill:url(#SVGID_7_);}
	.st16{fill:url(#SVGID_8_);}
</style>
<g>
	<g>
		<g>
			<g>
				<g>
					<polyline class="st0" points="487,20.5 431.9,20.5 417.6,7.3 					"/>
					<polyline class="st0" points="485.6,11.1 466.4,11.1 458.2,20.5 					"/>
					<polyline class="st0" points="452.7,13.9 437.9,13.9 431.9,7.3 					"/>
					<polyline class="st0" points="424.8,27 410,13.9 244.6,13.9 					"/>
					<polyline class="st0" points="470.3,46.8 458.2,46.8 447.3,38 					"/>
					<polyline class="st0" points="458.2,38 421.5,38 405,20.5 226.9,20.5 					"/>
					<polyline class="st0" points="463.2,53.9 370.5,53.9 333.8,87.9 270.2,87.9 					"/>
					<polyline class="st0" points="395.7,29.2 372.7,29.2 367.3,34.6 					"/>
					<line class="st0" x1="385.9" y1="34.6" x2="340.3" y2="34.6"/>
					<polyline class="st0" points="405.7,42.4 358.4,42.4 332.7,67.6 304.7,67.6 					"/>
					<polyline class="st0" points="346.9,42.4 327.7,62.7 310.7,62.7 					"/>
					<polyline class="st0" points="455.5,63.5 447.3,63.5 437.9,53.9 					"/>
					<polyline class="st0" points="428.9,87.9 414.9,87.9 403.3,99.5 382.6,99.5 					"/>
					<polyline class="st0" points="442,75.4 408.3,75.4 382.6,99.4 284,99.4 					"/>
					<line class="st0" x1="407.9" y1="67.6" x2="355.7" y2="67.6"/>
					<polyline class="st0" points="389.1,81.3 358.4,81.3 340.3,99.4 					"/>
					<line class="st0" x1="328.8" y1="93.9" x2="280.6" y2="93.9"/>
					<polyline class="st0" points="344.8,66.9 328.8,81.3 301.4,81.3 					"/>
				</g>
				<g>
					<g>
						<path class="st1" d="M427.2,87.9c0-0.8,0.6-1.4,1.4-1.4s1.4,0.6,1.4,1.4s-0.6,1.4-1.4,1.4C427.8,89.3,427.2,88.7,427.2,87.9z"
							/>
						<path class="st1" d="M469,46.8c0-0.8,0.6-1.4,1.4-1.4s1.4,0.6,1.4,1.4s-0.6,1.4-1.4,1.4S469,47.5,469,46.8z"/>
						<path class="st1" d="M441.3,75.9c-1.1-1.5,0.5-3.1,2-2l0,0C444.4,75.4,442.7,77,441.3,75.9z"/>
						<path class="st1" d="M451.4,13.9c0-0.8,0.6-1.4,1.4-1.4s1.4,0.6,1.4,1.4s-0.6,1.4-1.4,1.4S451.4,14.6,451.4,13.9z"/>
						<path class="st1" d="M424.2,27.9c0-0.8,0.6-1.4,1.4-1.4s1.4,0.6,1.4,1.4s-0.6,1.4-1.4,1.4C424.8,29.2,424.2,28.6,424.2,27.9z"
							/>
						<path class="st1" d="M485.6,20.5c0-0.8,0.6-1.4,1.4-1.4s1.4,0.6,1.4,1.4s-0.6,1.4-1.4,1.4S485.6,21.2,485.6,20.5z"/>
						<path class="st1" d="M484.3,11.1c0-0.8,0.6-1.4,1.4-1.4s1.4,0.6,1.4,1.4c0,0.8-0.6,1.4-1.4,1.4S484.3,11.9,484.3,11.1z"/>
						<path class="st1" d="M458.2,38c0-0.8,0.6-1.4,1.4-1.4s1.4,0.6,1.4,1.4c0,0.8-0.6,1.4-1.4,1.4S458.2,38.8,458.2,38z"/>
						<path class="st1" d="M454.4,63.5c0-0.8,0.6-1.4,1.4-1.4s1.4,0.6,1.4,1.4s-0.6,1.4-1.4,1.4S454.4,64.3,454.4,63.5z"/>
						<path class="st1" d="M406.6,67.6c0-0.8,0.6-1.4,1.4-1.4s1.4,0.6,1.4,1.4S408.8,69,408,69S406.6,68.4,406.6,67.6z"/>
						<path class="st1" d="M387.8,81.3c0-0.8,0.6-1.4,1.4-1.4s1.4,0.6,1.4,1.4s-0.6,1.4-1.4,1.4C388.4,82.7,387.8,82.1,387.8,81.3z"
							/>
						<path class="st1" d="M461.9,53.9c0-0.8,0.6-1.4,1.4-1.4s1.4,0.6,1.4,1.4c0,0.8-0.6,1.4-1.4,1.4
							C462.5,55.3,461.9,54.7,461.9,53.9z"/>
						<path class="st1" d="M343.4,66.9c0-0.8,0.6-1.4,1.4-1.4s1.4,0.6,1.4,1.4s-0.6,1.4-1.4,1.4C344,68.2,343.4,67.6,343.4,66.9z"/>
						<path class="st1" d="M327.2,93.9c0-0.8,0.6-1.4,1.4-1.4s1.4,0.6,1.4,1.4s-0.6,1.4-1.4,1.4S327.2,94.7,327.2,93.9z"/>
						<path class="st1" d="M394.4,29.2c0-0.8,0.6-1.4,1.4-1.4s1.4,0.6,1.4,1.4s-0.6,1.4-1.4,1.4S394.4,30,394.4,29.2z"/>
						<path class="st1" d="M345.6,42.4c0-0.8,0.6-1.4,1.4-1.4s1.4,0.6,1.4,1.4c0,0.8-0.6,1.4-1.4,1.4
							C346.2,43.8,345.6,43.2,345.6,42.4z"/>
						<path class="st1" d="M404.3,42.4c0-0.8,0.6-1.4,1.4-1.4s1.4,0.6,1.4,1.4c0,0.8-0.6,1.4-1.4,1.4
							C405,43.8,404.3,43.2,404.3,42.4z"/>
					</g>
					<g>
						<g>
						</g>
					</g>
				</g>
			</g>
		</g>
		<g>
			<g>
				<g>
					<polyline class="st0" points="13,79 68.1,79 82.4,92.2 214.6,92.2 					"/>
					<polyline class="st0" points="14.4,88.4 33.6,88.4 41.8,79 					"/>
					<polyline class="st0" points="47.3,85.6 62.1,85.6 75.6,99.7 128.6,99.7 					"/>
					<polyline class="st0" points="75.2,72.5 90,85.6 175,85.6 					"/>
					<polyline class="st0" points="29.7,52.7 41.8,52.7 52.7,61.5 					"/>
					<polyline class="st0" points="41.8,61.5 78.5,61.5 95,79 173.1,79 					"/>
					<polyline class="st0" points="36.8,45.6 129.5,45.6 166.2,11.6 229.8,11.6 					"/>
					<polyline class="st0" points="104.3,70.3 127.3,70.3 132.7,64.9 					"/>
					<line class="st0" x1="114.1" y1="64.9" x2="159.7" y2="64.9"/>
					<polyline class="st0" points="94.3,57.1 141.6,57.1 167.3,31.9 195.3,31.9 					"/>
					<polyline class="st0" points="153.1,57.1 172.3,36.8 189.3,36.8 					"/>
					<polyline class="st0" points="44.5,36 52.7,36 62.1,45.6 					"/>
					<polyline class="st0" points="71.1,11.6 85.1,11.6 96.7,0 117.4,0 					"/>
					<polyline class="st0" points="58,24.1 91.7,24.1 117.4,0.1 224.4,0.1 					"/>
					<line class="st0" x1="92.1" y1="31.9" x2="144.3" y2="31.9"/>
					<polyline class="st0" points="110.9,18.2 141.6,18.2 159.7,0.1 					"/>
					<line class="st0" x1="171.2" y1="5.6" x2="212" y2="5.6"/>
					<polyline class="st0" points="155.2,32.6 171.2,18.2 198.6,18.2 					"/>
				</g>
				<g>
					<g>
						<path class="st1" d="M72.8,11.6c0,0.8-0.6,1.4-1.4,1.4S70,12.4,70,11.6c0-0.8,0.6-1.4,1.4-1.4S72.8,10.8,72.8,11.6z"/>
						<path class="st1" d="M31,52.7c0,0.8-0.6,1.4-1.4,1.4s-1.4-0.6-1.4-1.4c0-0.8,0.6-1.4,1.4-1.4C30.4,51.4,31,52,31,52.7z"/>
						<path class="st1" d="M58.7,23.6c1.1,1.5-0.5,3.1-2,2l0,0C55.6,24.2,57.3,22.5,58.7,23.6z"/>
						<path class="st1" d="M48.6,85.6c0,0.8-0.6,1.4-1.4,1.4s-1.4-0.6-1.4-1.4s0.6-1.4,1.4-1.4S48.6,84.9,48.6,85.6z"/>
						<path class="st1" d="M75.8,71.6c0,0.8-0.6,1.4-1.4,1.4S73,72.4,73,71.6s0.6-1.4,1.4-1.4C75.2,70.3,75.8,70.9,75.8,71.6z"/>
						<path class="st1" d="M14.4,79c0,0.8-0.6,1.4-1.4,1.4s-1.4-0.6-1.4-1.4s0.6-1.4,1.4-1.4S14.4,78.3,14.4,79z"/>
						<path class="st1" d="M15.7,88.4c0,0.8-0.6,1.4-1.4,1.4c-0.8,0-1.4-0.6-1.4-1.4s0.6-1.4,1.4-1.4C15.1,87,15.7,87.6,15.7,88.4z"
							/>
						<path class="st1" d="M41.8,61.5c0,0.8-0.6,1.4-1.4,1.4c-0.8,0-1.4-0.6-1.4-1.4c0-0.8,0.6-1.4,1.4-1.4S41.8,60.7,41.8,61.5z"/>
						<path class="st1" d="M45.6,36c0,0.8-0.6,1.4-1.4,1.4c-0.8,0-1.4-0.6-1.4-1.4c0-0.8,0.6-1.4,1.4-1.4S45.6,35.2,45.6,36z"/>
						<path class="st1" d="M93.4,31.9c0,0.8-0.6,1.4-1.4,1.4s-1.4-0.6-1.4-1.4s0.6-1.4,1.4-1.4S93.4,31.1,93.4,31.9z"/>
						<path class="st1" d="M112.2,18.2c0,0.8-0.6,1.4-1.4,1.4s-1.4-0.6-1.4-1.4s0.6-1.4,1.4-1.4C111.6,16.8,112.2,17.4,112.2,18.2z"
							/>
						<path class="st1" d="M38.1,45.6c0,0.8-0.6,1.4-1.4,1.4c-0.8,0-1.4-0.6-1.4-1.4c0-0.8,0.6-1.4,1.4-1.4
							C37.5,44.2,38.1,44.8,38.1,45.6z"/>
						<path class="st1" d="M156.6,32.6c0,0.8-0.6,1.4-1.4,1.4c-0.8,0-1.4-0.6-1.4-1.4c0-0.8,0.6-1.4,1.4-1.4
							C156,31.3,156.6,31.9,156.6,32.6z"/>
						<path class="st1" d="M172.8,5.6c0,0.8-0.6,1.4-1.4,1.4c-0.8,0-1.4-0.6-1.4-1.4s0.6-1.4,1.4-1.4S172.8,4.8,172.8,5.6z"/>
						<path class="st1" d="M105.6,70.3c0,0.8-0.6,1.4-1.4,1.4s-1.4-0.6-1.4-1.4s0.6-1.4,1.4-1.4S105.6,69.5,105.6,70.3z"/>
						<path class="st1" d="M154.4,57.1c0,0.8-0.6,1.4-1.4,1.4c-0.8,0-1.4-0.6-1.4-1.4c0-0.8,0.6-1.4,1.4-1.4
							C153.8,55.7,154.4,56.4,154.4,57.1z"/>
						<path class="st1" d="M95.7,57.1c0,0.8-0.6,1.4-1.4,1.4s-1.4-0.6-1.4-1.4c0-0.8,0.6-1.4,1.4-1.4C95,55.7,95.7,56.4,95.7,57.1z"
							/>
					</g>
					<g>
						<g>
						</g>
					</g>
				</g>
			</g>
		</g>
	</g>
	<g>
		<g>
			<g>
				<g>
					<path class="st2" d="M343,11.1H156.3c-17.6,0-31.9,14.3-31.9,31.9l0,0c0,17.6,14.3,31.9,31.9,31.9H343
						c17.6,0,31.9-14.3,31.9-31.9l0,0C374.9,25.4,360.6,11.1,343,11.1z"/>
					<path class="st3" d="M348.2,23.8H161.5c-17.6,0-31.9,14.3-31.9,31.9l0,0c0,17.6,14.3,31.9,31.9,31.9h186.7
						c17.6,0,31.9-14.3,31.9-31.9l0,0C380,38.1,365.8,23.8,348.2,23.8z"/>
					<path class="st4" d="M345.3,16.1H158.6c-17.6,0-31.9,14.3-31.9,31.9l0,0c0,17.6,14.3,31.9,31.9,31.9h186.7
						c17.6,0,31.9-14.3,31.9-31.9l0,0C377.1,30.4,362.9,16.1,345.3,16.1z"/>
				</g>
			</g>
			<g>
				<path class="st1" d="M197.7,44.5V61h-3.5V33.6H206v10.8h-8.3V44.5z M197.7,36.2v1.6h4.8v-1.6H197.7z M202.5,41.8v-1.7h-4.8v1.7
					H202.5z M211.5,54.2v6.3h-3.2v-6.3h-2.9c-0.3,2.1-1.3,5.1-3.9,6.8c-0.5-0.6-1.6-1.6-2.3-2.1c2-1.2,2.8-3.2,3.1-4.8h-3.1v-3h3.2
					v-2.3h-2.8V46h14.8v2.9h-2.9v2.3h3.4v3H211.5z M208.3,51.2v-2.3h-2.8v2.3H208.3z M219.9,56.8c0,1.9-0.3,2.9-1.4,3.5
					c-1.1,0.6-2.7,0.7-5,0.7c-0.1-1-0.6-2.7-1.1-3.6c1.4,0.1,2.9,0.1,3.3,0c0.5,0,0.6-0.2,0.6-0.6V44.5H208V33.6h12v23.2H219.9z
					 M211.4,36.2v1.6h5v-1.6H211.4z M216.4,41.9v-1.7h-5v1.7H216.4z"/>
				<path class="st1" d="M237.3,41.6c-0.1,3.1-0.5,6.9-1.9,10.5c1.3,1.3,2.6,2.4,3.4,3.3l-2.2,2.8c-0.7-0.8-1.7-1.9-2.8-3
					c-1.3,2-2.9,3.9-5.2,5.6c-0.5-0.8-1.7-1.9-2.4-2.5c2.3-1.6,4-3.6,5.2-5.5c-1.5-1.4-3.1-2.8-4.4-3.9c0.6-1.8,1.2-4.2,1.7-6.8
					l-2,0.1l-0.3-3.2c0.9,0,1.9-0.1,2.9-0.1c0.4-2.2,0.7-4.4,0.8-6.3l3.4,0.2c-0.2,1.9-0.5,3.9-0.9,6l1.7-0.1v-2h3.2v1.8l1.3-0.1v3
					L237.3,41.6z M231.8,42c-0.4,2.1-0.9,4.2-1.4,6c0.7,0.6,1.5,1.2,2.2,1.9c1-2.8,1.3-5.6,1.4-8L231.8,42z M252.2,47.1
					c-0.2-0.6-0.5-1.3-0.8-2c-10,0.9-11.5,1-12.6,1.5c-0.2-0.7-0.8-2.4-1.2-3.4c0.6-0.2,1.2-0.8,1.9-1.9c0.8-1,2.9-5,4.2-8.7l3.8,1
					c-1.3,3.1-3.1,6.3-4.7,8.9l6.9-0.5c-0.8-1.3-1.6-2.6-2.4-3.7l2.9-1.4c2.1,2.7,4.2,6.2,5,8.6L252.2,47.1z M239,48.3h14.3V61h-3.5
					v-1.2h-7.5V61H239V48.3z M242.3,51.4v5.2h7.5v-5.2H242.3z"/>
				<path class="st1" d="M270.1,33.6c-0.8,2-1.7,4-2.8,5.9v21.4h-3.5V44.8c-0.8,1.1-1.7,2-2.5,2.9c-0.3-0.9-1.3-2.8-1.9-3.7
					c2.9-2.8,5.7-7.1,7.4-11.4L270.1,33.6z M277.7,56.4c-1.7,1.8-4.4,3.6-6.5,4.7c-0.8-0.7-2.3-1.8-3.2-2.4c2.3-0.9,4.7-2.3,6-3.7
					L277.7,56.4z M286.6,54.8h-16.1V39.5h6v-7h3.7v2.1h7.7v3.1h-7.7v1.8h6.5v15.3H286.6z M282.9,42.2h-9v1.6h9V42.2z M282.9,46.3h-9
					v1.6h9V46.3z M282.9,50.5h-9v1.7h9V50.5z M282.8,55c1.9,1.1,4.6,2.9,5.9,4.1l-3.4,2c-1.2-1.2-3.7-3.1-5.7-4.3L282.8,55z"/>
				<path class="st1" d="M321.5,39.1h-7.7c2.9,1.8,5.9,3.9,7.7,5.4l-2.3,2.7c-2-1.9-6.1-4.8-9.6-7.1v5.2h6.9v10.2H299v-9.6
					c-1,0.6-2.1,1.1-3.2,1.5c-0.5-0.9-1.6-2.2-2.3-2.9c3.4-1.1,6.7-3.1,9-5.4h-8.2V36H306v-3.4h3.6V36h11.9V39.1z M294.5,57h26.7
					v3.2h-26.7V57z M305.9,45.2V40c-1.7,2-3.7,3.8-5.9,5.2H305.9z M312.6,47.6h-10.1v1.6h10.1V47.6z M312.6,51.5h-10.1v1.6h10.1
					V51.5z"/>
			</g>
		</g>
		<g>
			<g class="st5">
				<polygon points="343.4,91.4 333.6,51.9 369.2,69.1 360.4,76.6 373.8,91.1 365.9,98.2 352.5,83.6 				"/>
				<polygon class="st6" points="343.4,91.4 333.6,51.9 369.2,69.1 360.4,76.6 373.8,91.1 365.9,98.2 352.5,83.6 				"/>
			</g>
			<g>
				<polygon class="st1" points="346.4,83.1 336.5,43.5 372.2,60.9 363.3,68.4 376.8,82.9 368.8,89.9 355.5,75.4 				"/>
				
					<linearGradient id="SVGID_1_" gradientUnits="userSpaceOnUse" x1="335.3479" y1="35.25" x2="377.9521" y2="35.25" gradientTransform="matrix(1 0 0 -1 0 102)">
					<stop  offset="0" style="stop-color:#00FDFF"/>
					<stop  offset="0.9744" style="stop-color:#9289FF"/>
				</linearGradient>
				<polygon class="st7" points="346.4,83.1 336.5,43.5 372.2,60.9 363.3,68.4 376.8,82.9 368.8,89.9 355.5,75.4 				"/>
			</g>
		</g>
		<g>
			<g>
				<g>
				</g>
				<g>
					<g>
						<g>
							<path class="st8" d="M147.9,62c7,5,16.7,4.4,23-1.9c7-7,7-18.3,0-25.3s-18.3-7-25.3,0c-6.3,6.3-6.9,16-1.9,23l-19.8,19.8
								l4.2,4.2l15.6-15.6c9.4,7.3,22.9,6.6,31.5-2c9.3-9.3,9.3-24.4,0-33.7s-24.4-9.3-33.7,0c-6.5,6.5-8.5,16-5.8,24.2"/>
						</g>
					</g>
					<circle class="st9" cx="136.1" cy="56.3" r="1.5"/>
					
						<radialGradient id="SVGID_2_" cx="-2600.5344" cy="-4727.0728" r="13.6367" gradientTransform="matrix(-0.9549 0.6853 -0.7034 -0.981 -5672.147 -2798.7808)" gradientUnits="userSpaceOnUse">
						<stop  offset="0" style="stop-color:#F9F9F9"/>
						<stop  offset="9.821150e-02" style="stop-color:#FFFFFF"/>
						<stop  offset="0.1819" style="stop-color:#FFFFFF;stop-opacity:0.8816"/>
						<stop  offset="0.8045" style="stop-color:#FFFFFF;stop-opacity:0"/>
					</radialGradient>
					<path class="st10" d="M123.1,65.7c5.3,7.4,15.4,9.2,22.6,4s8.7-15.3,3.4-22.7s-15.4-9.2-22.6-4
						C119.4,48.1,117.8,58.3,123.1,65.7z"/>
				</g>
				
					<radialGradient id="SVGID_3_" cx="124.5374" cy="54.4588" r="20.0121" gradientTransform="matrix(1.0632 0 0 -1 25.7918 102)" gradientUnits="userSpaceOnUse">
					<stop  offset="0.7019" style="stop-color:#F9F9F9"/>
					<stop  offset="1" style="stop-color:#FFFFFF;stop-opacity:0"/>
				</radialGradient>
				<ellipse class="st11" cx="158.2" cy="47.5" rx="21.3" ry="20"/>
				
					<radialGradient id="SVGID_4_" cx="-9832.0293" cy="1507.7607" r="8.0584" gradientTransform="matrix(-0.6501 -1.0347 1.6555 -1.0388 -8736.4961 -8570.3594)" gradientUnits="userSpaceOnUse">
					<stop  offset="0" style="stop-color:#F9F9F9"/>
					<stop  offset="3.058580e-02" style="stop-color:#FFFFFF"/>
					<stop  offset="1" style="stop-color:#FFFFFF;stop-opacity:0"/>
				</radialGradient>
				<path class="st12" d="M146.2,28.2c-7.4,4.6-11,12.1-8.1,16.7s11.2,4.6,18.6,0c7.4-4.6,11-12.1,8.1-16.7
					C161.9,23.6,153.5,23.6,146.2,28.2z"/>
				
					<radialGradient id="SVGID_5_" cx="-2605.9082" cy="-4736.8208" r="10.9465" gradientTransform="matrix(-0.9549 0.6853 -0.7034 -0.981 -5672.147 -2798.7808)" gradientUnits="userSpaceOnUse">
					<stop  offset="0" style="stop-color:#F9F9F9"/>
					<stop  offset="4.876889e-02" style="stop-color:#EDF1FA"/>
					<stop  offset="9.821150e-02" style="stop-color:#E6EDFA"/>
					<stop  offset="0.1217" style="stop-color:#DFE6FA;stop-opacity:0.9668"/>
					<stop  offset="0.2262" style="stop-color:#C5C9FC;stop-opacity:0.8188"/>
					<stop  offset="0.3388" style="stop-color:#B0B4FD;stop-opacity:0.6593"/>
					<stop  offset="0.4619" style="stop-color:#A1A4FE;stop-opacity:0.4851"/>
					<stop  offset="0.6033" style="stop-color:#999BFF;stop-opacity:0.2848"/>
					<stop  offset="0.8045" style="stop-color:#9698FF;stop-opacity:0"/>
				</radialGradient>
				<path class="st13" d="M137.7,69.7c4.3,5.9,12.4,7.4,18.2,3.2c5.8-4.1,7-12.3,2.8-18.3c-4.3-5.9-12.4-7.4-18.2-3.2
					C134.6,55.6,133.4,63.8,137.7,69.7z"/>
				
					<radialGradient id="SVGID_6_" cx="816.4337" cy="-1203.9333" r="3.5692" gradientTransform="matrix(-0.6568 0.6388 -2.3658 -2.4392 -2136.7625 -3427.3013)" gradientUnits="userSpaceOnUse">
					<stop  offset="0" style="stop-color:#F9F9F9"/>
					<stop  offset="4.876889e-02" style="stop-color:#EDF1FA"/>
					<stop  offset="9.821150e-02" style="stop-color:#E6EDFA"/>
					<stop  offset="0.1217" style="stop-color:#DFE6FA;stop-opacity:0.9668"/>
					<stop  offset="0.2262" style="stop-color:#C5C9FC;stop-opacity:0.8188"/>
					<stop  offset="0.3388" style="stop-color:#B0B4FD;stop-opacity:0.6593"/>
					<stop  offset="0.4619" style="stop-color:#A1A4FE;stop-opacity:0.4851"/>
					<stop  offset="0.6033" style="stop-color:#999BFF;stop-opacity:0.2848"/>
					<stop  offset="0.8045" style="stop-color:#9698FF;stop-opacity:0"/>
				</radialGradient>
				<path class="st14" d="M172.9,33.1c4.7,4.8,9.5,7.7,10.8,6.4s-1.4-6.2-6.1-11c-4.7-4.8-9.5-7.7-10.8-6.4
					C165.5,23.4,168.3,28.3,172.9,33.1z"/>
				
					<radialGradient id="SVGID_7_" cx="-1021.2424" cy="-1287.365" r="3.5667" gradientTransform="matrix(0.5192 0.5222 -3.9624 3.9177 -4433.1763 5649.2026)" gradientUnits="userSpaceOnUse">
					<stop  offset="0" style="stop-color:#F9F9F9"/>
					<stop  offset="4.876889e-02" style="stop-color:#EDF1FA"/>
					<stop  offset="9.821150e-02" style="stop-color:#E6EDFA"/>
					<stop  offset="0.1217" style="stop-color:#DFE6FA;stop-opacity:0.9668"/>
					<stop  offset="0.2262" style="stop-color:#C5C9FC;stop-opacity:0.8188"/>
					<stop  offset="0.3388" style="stop-color:#B0B4FD;stop-opacity:0.6593"/>
					<stop  offset="0.4619" style="stop-color:#A1A4FE;stop-opacity:0.4851"/>
					<stop  offset="0.6033" style="stop-color:#999BFF;stop-opacity:0.2848"/>
					<stop  offset="0.8045" style="stop-color:#9698FF;stop-opacity:0"/>
				</radialGradient>
				<path class="st15" d="M139.5,74.3c7.8-7.7,13.3-14.8,12.3-15.9c-1-1-8.2,4.4-16,12.1s-13.3,14.8-12.3,15.9
					C124.5,87.4,131.7,82,139.5,74.3z"/>
				
					<radialGradient id="SVGID_8_" cx="-1026.1937" cy="-1287.8358" r="3.5737" gradientTransform="matrix(0.518 0.5233 -3.9708 3.9091 -4446.5137 5637.3428)" gradientUnits="userSpaceOnUse">
					<stop  offset="0" style="stop-color:#F9F9F9"/>
					<stop  offset="4.876889e-02" style="stop-color:#EDF1FA"/>
					<stop  offset="9.821150e-02" style="stop-color:#E6EDFA"/>
					<stop  offset="0.1217" style="stop-color:#DFE6FA;stop-opacity:0.9668"/>
					<stop  offset="0.2262" style="stop-color:#C5C9FC;stop-opacity:0.8188"/>
					<stop  offset="0.3388" style="stop-color:#B0B4FD;stop-opacity:0.6593"/>
					<stop  offset="0.4619" style="stop-color:#A1A4FE;stop-opacity:0.4851"/>
					<stop  offset="0.6033" style="stop-color:#999BFF;stop-opacity:0.2848"/>
					<stop  offset="0.8045" style="stop-color:#9698FF;stop-opacity:0"/>
				</radialGradient>
				<path class="st16" d="M137.5,67.9c7.8-7.7,13.4-14.8,12.3-15.8c-1-1-8.2,4.4-16,12.1S120.4,79,121.5,80
					C122.5,81.1,129.6,75.7,137.5,67.9z"/>
			</g>
		</g>
	</g>
</g>
</svg>
