<?xml version="1.0" encoding="utf-8"?>
<!-- Generator: Adobe Illustrator 25.3.1, SVG Export Plug-In . SVG Version: 6.00 Build 0)  -->
<svg version="1.1" id="圖層_1" xmlns="http://www.w3.org/2000/svg" xmlns:xlink="http://www.w3.org/1999/xlink" x="0px" y="0px"
	 viewBox="0 0 300 100" style="enable-background:new 0 0 300 100;" xml:space="preserve">
<style type="text/css">
	.st0{fill:#00FFFF;}
	.st1{fill:#00809E;}
	.st2{fill:#00C3FF;}
	.st3{fill:#FFFFFF;}
	.st4{opacity:0.3;}
	.st5{fill:none;stroke:#000000;stroke-width:2.3042;stroke-linecap:round;stroke-linejoin:round;stroke-miterlimit:10;}
	.st6{fill:none;stroke:url(#SVGID_1_);stroke-width:2.3042;stroke-linecap:round;stroke-linejoin:round;stroke-miterlimit:10;}
	.st7{fill:none;stroke:#FFFFFF;stroke-width:1.5412;stroke-linecap:round;stroke-linejoin:round;stroke-miterlimit:10;}
	.st8{fill:none;stroke:#FFFFFF;stroke-width:0.8125;stroke-miterlimit:10;}
	.st9{fill:url(#SVGID_2_);}
	.st10{opacity:0.72;fill:url(#SVGID_3_);enable-background:new    ;}
	.st11{fill:url(#SVGID_4_);}
	.st12{fill:url(#SVGID_5_);}
	.st13{fill:url(#SVGID_6_);}
	.st14{fill:url(#SVGID_7_);}
	.st15{fill:url(#SVGID_8_);}
</style>
<g>
	<g>
		<g>
			<g>
				<g>
					<path class="st0" d="M256.7,0H42.4C22.2,0,5.8,16.4,5.8,36.6l0,0c0,20.2,16.4,36.6,36.6,36.6h214.4c20.2,0,36.6-16.4,36.6-36.6
						l0,0C293.4,16.4,276.9,0,256.7,0z"/>
					<path class="st1" d="M262.7,14.6H48.4c-20.2,0-36.6,16.4-36.6,36.6l0,0c0,20.2,16.4,36.6,36.6,36.6h214.4
						c20.2,0,36.6-16.4,36.6-36.6l0,0C299.2,31,282.9,14.6,262.7,14.6z"/>
					<path class="st2" d="M259.4,5.7H45C24.8,5.7,8.4,22.2,8.4,42.4l0,0C8.4,62.6,24.8,79,45,79h214.4c20.2,0,36.6-16.4,36.6-36.6
						l0,0C295.9,22.2,279.6,5.7,259.4,5.7z"/>
				</g>
			</g>
			<g>
				<path class="st3" d="M89.9,38.3v18.9h-4V25.8h13.5v12.4h-9.5V38.3z M89.9,28.8v1.8h5.5v-1.8H89.9z M95.4,35.2v-2h-5.5v2H95.4z
					 M105.8,49.5v7.2h-3.7v-7.2h-3.3c-0.3,2.4-1.5,5.9-4.5,7.8c-0.6-0.7-1.8-1.8-2.6-2.4c2.3-1.4,3.2-3.7,3.6-5.5h-3.6v-3.4h3.7
					v-2.6h-3.2v-3.2h17v3.3h-3.3V46h3.9v3.4H105.8z M102.1,46v-2.6h-3.2V46H102.1z M115.4,52.5c0,2.2-0.3,3.3-1.6,4
					c-1.3,0.7-3.1,0.8-5.7,0.8c-0.1-1.1-0.7-3.1-1.3-4.1c1.6,0.1,3.3,0.1,3.8,0c0.6,0,0.7-0.2,0.7-0.7V38.3h-9.5V25.8h13.8v26.6
					H115.4z M105.6,28.8v1.8h5.7v-1.8H105.6z M111.4,35.4v-2h-5.7v2H111.4z"/>
				<path class="st3" d="M135.4,35c-0.1,3.6-0.6,7.9-2.2,12.1c1.5,1.5,3,2.8,3.9,3.8l-2.5,3.2c-0.8-0.9-2-2.2-3.2-3.4
					c-1.5,2.3-3.3,4.5-6,6.4c-0.6-0.9-2-2.2-2.8-2.9c2.6-1.8,4.6-4.1,6-6.3c-1.7-1.6-3.6-3.2-5.1-4.5c0.7-2.1,1.4-4.8,2-7.8
					l-2.3,0.1l-0.3-3.7c1,0,2.2-0.1,3.3-0.1c0.5-2.5,0.8-5.1,0.9-7.2l3.9,0.2c-0.2,2.2-0.6,4.5-1,6.9l2-0.1v-2.3h3.7v2.1l1.5-0.1
					v3.4L135.4,35z M129.1,35.5c-0.5,2.4-1,4.8-1.6,6.9c0.8,0.7,1.7,1.4,2.5,2.2c1.1-3.2,1.5-6.4,1.6-9.2L129.1,35.5z M152.5,41.3
					c-0.2-0.7-0.6-1.5-0.9-2.3c-11.5,1-13.2,1.1-14.5,1.7c-0.2-0.8-0.9-2.8-1.4-3.9c0.7-0.2,1.4-0.9,2.2-2.2c0.9-1.1,3.3-5.7,4.8-10
					l4.4,1.1c-1.5,3.6-3.6,7.2-5.4,10.2l7.9-0.6c-0.9-1.5-1.8-3-2.8-4.2l3.3-1.6c2.4,3.1,4.8,7.1,5.7,9.9L152.5,41.3z M137.3,42.7
					h16.4v14.6h-4v-1.4h-8.6v1.4h-3.8V42.7z M141.1,46.3v6h8.6v-6H141.1z"/>
				<path class="st3" d="M173,25.8c-0.9,2.3-2,4.6-3.2,6.8v24.6h-4V38.7c-0.9,1.3-2,2.3-2.9,3.3c-0.3-1-1.5-3.2-2.2-4.2
					c3.3-3.2,6.5-8.2,8.5-13.1L173,25.8z M181.8,52c-2,2.1-5.1,4.1-7.5,5.4c-0.9-0.8-2.6-2.1-3.7-2.8c2.6-1,5.4-2.6,6.9-4.2
					L181.8,52z M192,50.2h-18.5V32.6h6.9v-8h4.2V27h8.8v3.6h-8.8v2.1h7.5v17.6C192.1,50.2,192,50.2,192,50.2z M187.7,35.7h-10.3v1.8
					h10.3V35.7z M187.7,40.4h-10.3v1.8h10.3V40.4z M187.7,45.2h-10.3v2h10.3V45.2z M187.6,50.4c2.2,1.3,5.3,3.3,6.8,4.7l-3.9,2.3
					c-1.4-1.4-4.2-3.6-6.5-4.9L187.6,50.4z"/>
				<path class="st3" d="M232.1,32.1h-8.8c3.3,2.1,6.8,4.5,8.8,6.2l-2.6,3.1c-2.3-2.2-7-5.5-11-8.2v6h7.9V51h-20.1V40
					c-1.1,0.7-2.4,1.3-3.7,1.7c-0.6-1-1.8-2.5-2.6-3.3c3.9-1.3,7.7-3.6,10.3-6.2h-9.4v-3.6h13.4v-3.9h4.1v3.9h13.7V32.1z
					 M201.1,52.7h30.7v3.7h-30.7V52.7z M214.1,39.2v-6c-2,2.3-4.2,4.4-6.8,6H214.1z M221.8,41.9h-11.6v1.8h11.6V41.9z M221.8,46.4
					h-11.6v1.8h11.6V46.4z"/>
			</g>
		</g>
		<g>
			<g class="st4">
				<polygon points="257.2,92.2 245.9,46.8 286.8,66.6 276.7,75.2 292.1,91.8 283,100 267.6,83.2 				"/>
				<polygon class="st5" points="257.2,92.2 245.9,46.8 286.8,66.6 276.7,75.2 292.1,91.8 283,100 267.6,83.2 				"/>
			</g>
			<g>
				<polygon class="st3" points="260.6,82.7 249.3,37.2 290.3,57.2 280,65.8 295.5,82.4 286.4,90.5 271.1,73.8 				"/>
				
					<linearGradient id="SVGID_1_" gradientUnits="userSpaceOnUse" x1="248.1232" y1="1241.8347" x2="296.6961" y2="1241.8347" gradientTransform="matrix(1 0 0 1 0 -1178)">
					<stop  offset="0" style="stop-color:#00FDFF"/>
					<stop  offset="0.9744" style="stop-color:#9289FF"/>
				</linearGradient>
				<polygon class="st6" points="260.6,82.7 249.3,37.2 290.3,57.2 280,65.8 295.5,82.4 286.4,90.5 271.1,73.8 				"/>
			</g>
		</g>
		<g>
			<g>
				<g>
					<g>
						<g>
							<path class="st7" d="M32.7,58.4c8,5.7,19.2,5.1,26.4-2.2c8-8,8-21,0-29s-21-8-29,0c-7.2,7.2-7.9,18.4-2.2,26.4L5.2,76.3
								l4.8,4.8l17.9-17.9c10.8,8.4,26.3,7.6,36.2-2.3c10.7-10.7,10.7-28,0-38.7s-28-10.7-38.7,0c-7.5,7.5-9.8,18.4-6.7,27.8"/>
						</g>
					</g>
					<circle class="st8" cx="19.2" cy="51.9" r="1.7"/>
					
						<radialGradient id="SVGID_2_" cx="-2813.4211" cy="5921.7031" r="15.6565" gradientTransform="matrix(-0.9549 0.6853 0.7034 0.981 -6832.6367 -3829.2234)" gradientUnits="userSpaceOnUse">
						<stop  offset="0" style="stop-color:#F9F9F9"/>
						<stop  offset="9.821150e-02" style="stop-color:#FFFFFF"/>
						<stop  offset="0.1819" style="stop-color:#FFFFFF;stop-opacity:0.8816"/>
						<stop  offset="0.8045" style="stop-color:#FFFFFF;stop-opacity:0"/>
					</radialGradient>
					<path class="st9" d="M4.3,62.7c6.1,8.5,17.7,10.6,25.9,4.6s10-17.6,3.9-26.1S16.4,30.7,8.2,36.6C0,42.5-1.8,54.2,4.3,62.7z"/>
				</g>
				
					<radialGradient id="SVGID_3_" cx="-2.8477" cy="1219.8384" r="22.9579" gradientTransform="matrix(1.0632 0 0 1 47.5958 -1178)" gradientUnits="userSpaceOnUse">
					<stop  offset="0.7019" style="stop-color:#F9F9F9"/>
					<stop  offset="1" style="stop-color:#FFFFFF;stop-opacity:0"/>
				</radialGradient>
				<ellipse class="st10" cx="44.6" cy="41.8" rx="24.5" ry="23"/>
				
					<radialGradient id="SVGID_4_" cx="-10680.4307" cy="-758.2285" r="9.2425" gradientTransform="matrix(-0.6501 -1.0347 -1.6555 1.0388 -8161.8301 -10234.1416)" gradientUnits="userSpaceOnUse">
					<stop  offset="0" style="stop-color:#F9F9F9"/>
					<stop  offset="3.058580e-02" style="stop-color:#FFFFFF"/>
					<stop  offset="1" style="stop-color:#FFFFFF;stop-opacity:0"/>
				</radialGradient>
				<path class="st11" d="M30.8,19.6c-8.5,5.3-12.6,13.9-9.3,19.2s12.9,5.3,21.4,0c8.5-5.3,12.6-13.9,9.3-19.2
					C48.8,14.4,39.2,14.4,30.8,19.6z"/>
				
					<radialGradient id="SVGID_5_" cx="-2819.5908" cy="5932.895" r="12.5678" gradientTransform="matrix(-0.9549 0.6853 0.7034 0.981 -6832.6367 -3829.2234)" gradientUnits="userSpaceOnUse">
					<stop  offset="0" style="stop-color:#F9F9F9"/>
					<stop  offset="4.876889e-02" style="stop-color:#EDF1FA"/>
					<stop  offset="9.821150e-02" style="stop-color:#E6EDFA"/>
					<stop  offset="0.1217" style="stop-color:#DFE6FA;stop-opacity:0.9668"/>
					<stop  offset="0.2262" style="stop-color:#C5C9FC;stop-opacity:0.8188"/>
					<stop  offset="0.3388" style="stop-color:#B0B4FD;stop-opacity:0.6593"/>
					<stop  offset="0.4619" style="stop-color:#A1A4FE;stop-opacity:0.4851"/>
					<stop  offset="0.6033" style="stop-color:#999BFF;stop-opacity:0.2848"/>
					<stop  offset="0.8045" style="stop-color:#9698FF;stop-opacity:0"/>
				</radialGradient>
				<path class="st12" d="M21,67.3c4.9,6.8,14.2,8.5,20.9,3.7c6.7-4.7,8-14.1,3.2-21c-4.9-6.8-14.2-8.5-20.9-3.7
					C17.5,51.1,16.1,60.5,21,67.3z"/>
				
					<radialGradient id="SVGID_6_" cx="729.55" cy="2065.458" r="4.0978" gradientTransform="matrix(-0.6568 0.6388 2.3658 2.4392 -4343.126 -5481.4023)" gradientUnits="userSpaceOnUse">
					<stop  offset="0" style="stop-color:#F9F9F9"/>
					<stop  offset="4.876889e-02" style="stop-color:#EDF1FA"/>
					<stop  offset="9.821150e-02" style="stop-color:#E6EDFA"/>
					<stop  offset="0.1217" style="stop-color:#DFE6FA;stop-opacity:0.9668"/>
					<stop  offset="0.2262" style="stop-color:#C5C9FC;stop-opacity:0.8188"/>
					<stop  offset="0.3388" style="stop-color:#B0B4FD;stop-opacity:0.6593"/>
					<stop  offset="0.4619" style="stop-color:#A1A4FE;stop-opacity:0.4851"/>
					<stop  offset="0.6033" style="stop-color:#999BFF;stop-opacity:0.2848"/>
					<stop  offset="0.8045" style="stop-color:#9698FF;stop-opacity:0"/>
				</radialGradient>
				<path class="st13" d="M61.4,25.3c5.4,5.5,10.9,8.8,12.4,7.3c1.5-1.5-1.6-7.1-7-12.6c-5.4-5.5-10.9-8.8-12.4-7.3
					C52.9,14.1,56.2,19.7,61.4,25.3z"/>
				
					<radialGradient id="SVGID_7_" cx="-581.4096" cy="1933.1499" r="4.0947" gradientTransform="matrix(0.5192 0.5222 3.9624 -3.9177 -7337.0708 7947.4922)" gradientUnits="userSpaceOnUse">
					<stop  offset="0" style="stop-color:#F9F9F9"/>
					<stop  offset="4.876889e-02" style="stop-color:#EDF1FA"/>
					<stop  offset="9.821150e-02" style="stop-color:#E6EDFA"/>
					<stop  offset="0.1217" style="stop-color:#DFE6FA;stop-opacity:0.9668"/>
					<stop  offset="0.2262" style="stop-color:#C5C9FC;stop-opacity:0.8188"/>
					<stop  offset="0.3388" style="stop-color:#B0B4FD;stop-opacity:0.6593"/>
					<stop  offset="0.4619" style="stop-color:#A1A4FE;stop-opacity:0.4851"/>
					<stop  offset="0.6033" style="stop-color:#999BFF;stop-opacity:0.2848"/>
					<stop  offset="0.8045" style="stop-color:#9698FF;stop-opacity:0"/>
				</radialGradient>
				<path class="st14" d="M23.1,72.6c9-8.8,15.3-17,14.1-18.3c-1.1-1.1-9.4,5.1-18.4,13.9S3.6,85.2,4.7,86.5
					C5.9,87.6,14.1,81.4,23.1,72.6z"/>
				
					<radialGradient id="SVGID_8_" cx="-586.7519" cy="1933.9301" r="4.103" gradientTransform="matrix(0.518 0.5233 3.9708 -3.9091 -7356.6265 7930.0693)" gradientUnits="userSpaceOnUse">
					<stop  offset="0" style="stop-color:#F9F9F9"/>
					<stop  offset="4.876889e-02" style="stop-color:#EDF1FA"/>
					<stop  offset="9.821150e-02" style="stop-color:#E6EDFA"/>
					<stop  offset="0.1217" style="stop-color:#DFE6FA;stop-opacity:0.9668"/>
					<stop  offset="0.2262" style="stop-color:#C5C9FC;stop-opacity:0.8188"/>
					<stop  offset="0.3388" style="stop-color:#B0B4FD;stop-opacity:0.6593"/>
					<stop  offset="0.4619" style="stop-color:#A1A4FE;stop-opacity:0.4851"/>
					<stop  offset="0.6033" style="stop-color:#999BFF;stop-opacity:0.2848"/>
					<stop  offset="0.8045" style="stop-color:#9698FF;stop-opacity:0"/>
				</radialGradient>
				<path class="st15" d="M20.8,65.2c9-8.8,15.4-17,14.1-18.1c-1.1-1.1-9.4,5.1-18.4,13.9S1.2,78,2.4,79.1
					C3.6,80.4,11.7,74.2,20.8,65.2z"/>
			</g>
		</g>
	</g>
</g>
</svg>
