<?xml version="1.0" encoding="utf-8"?>
<!-- Generator: Adobe Illustrator 25.3.1, SVG Export Plug-In . SVG Version: 6.00 Build 0)  -->
<svg version="1.1" id="圖層_1" xmlns="http://www.w3.org/2000/svg" xmlns:xlink="http://www.w3.org/1999/xlink" x="0px" y="0px"
	 viewBox="0 0 100 120" style="enable-background:new 0 0 100 120;" xml:space="preserve">
<style type="text/css">
	.st0{fill:#FC6F6F;}
	.st1{fill:#FFFFFF;}
</style>
<g>
	<path class="st0" d="M98.6,25.3v34.3c0,2.1-0.1,4.2-0.2,6.1c-0.4,7.8-1.7,14.6-3.5,20.6c-4.6,15.1-14.7,25-26.7,30
		c-23.6,9.7-54.3-0.3-63.3-30c-2.3-7.5-3.7-16.4-3.7-26.8V25.3c0-1.8,1.5-3.4,3.3-3.4c25.4-1,37.6-13.4,42.6-20.4c1.4-2,4.2-2,5.6,0
		C57.6,8.6,69.8,21,95.3,21.9C97.2,22,98.6,23.5,98.6,25.3z"/>
	<path class="st1" d="M73.2,40.4C71,38.6,67.8,39,66,41.2L40,73.5l-6.4-6.4c-2-2-5.2-2-7.2,0s-2,5.2,0,7.2l10.4,10.4
		c1,1,2.3,1.5,3.6,1.5c0.1,0,0.2,0,0.3,0c1.4-0.1,2.8-0.8,3.7-1.9L74,47.5C75.7,45.4,75.4,42.2,73.2,40.4z"/>
</g>
</svg>
