<?xml version="1.0" encoding="utf-8"?>
<!-- Generator: Adobe Illustrator 25.3.1, SVG Export Plug-In . SVG Version: 6.00 Build 0)  -->
<svg version="1.1" id="圖層_1" xmlns="http://www.w3.org/2000/svg" xmlns:xlink="http://www.w3.org/1999/xlink" x="0px" y="0px"
	 viewBox="0 0 400 250" style="enable-background:new 0 0 400 250;" xml:space="preserve">
<style type="text/css">
	.st0{opacity:0.1;enable-background:new    ;}
	.st1{fill:#1F262E;}
	.st2{fill:#0666B2;}
	.st3{fill:#FFFFFF;}
	.st4{fill:#AFCE39;}
	.st5{fill:#3885C1;}
	.st6{fill:#999999;}
	.st7{fill:#EEC8AF;}
	.st8{fill:#DEAF9E;}
	.st9{fill:#FDA084;}
	.st10{fill:#29B473;}
	.st11{fill:#209E5F;}
	.st12{fill:#FFC0AD;}
	.st13{fill:#2FAEAD;}
	.st14{fill:#FFFFFF;filter:url(#Adobe_OpacityMaskFilter);}
	.st15{mask:url(#mask0_764_413_1_);}
	.st16{fill:none;stroke:#FFFFFF;stroke-miterlimit:10;}
	.st17{fill:#FFFFFF;filter:url(#Adobe_OpacityMaskFilter_1_);}
	.st18{mask:url(#mask1_764_413_1_);}
	.st19{fill:#FFFFFF;filter:url(#Adobe_OpacityMaskFilter_2_);}
	.st20{mask:url(#mask2_764_413_1_);}
	.st21{fill:#5FD3D0;}
	.st22{fill:#FFFFFF;filter:url(#Adobe_OpacityMaskFilter_3_);}
	.st23{mask:url(#mask3_764_413_1_);}
	.st24{fill:#1D9390;}
	.st25{fill:#383838;}
	.st26{fill:#FFFFFF;filter:url(#Adobe_OpacityMaskFilter_4_);}
	.st27{mask:url(#mask4_764_413_1_);}
	.st28{fill:#FFFFFF;filter:url(#Adobe_OpacityMaskFilter_5_);}
	.st29{mask:url(#mask5_764_413_1_);}
	.st30{fill:#FFFFFF;filter:url(#Adobe_OpacityMaskFilter_6_);}
	.st31{mask:url(#mask6_764_413_1_);}
	.st32{fill:#FFFFFF;filter:url(#Adobe_OpacityMaskFilter_7_);}
	.st33{mask:url(#mask7_764_413_1_);}
	.st34{fill:#404041;}
	.st35{fill:#E2B868;}
	.st36{fill:#626262;}
	.st37{fill:#3A3A3A;}
	.st38{opacity:0.2;enable-background:new    ;}
	.st39{fill:#3C2612;}
	
		.st40{opacity:0.2;fill:none;stroke:#000000;stroke-width:1.1274;stroke-linecap:round;stroke-linejoin:round;stroke-miterlimit:10;enable-background:new    ;}
	.st41{fill:#F54945;}
</style>
<g>
	<path class="st0" d="M184.7,207.8c-64.5,0-120.9-2.8-151.5-7c-3.2-0.4-4.2,4.2-1.1,5.1c20.9,6,50.4,6.4,69.3,8.4
		c32.6,3.5,79.9,2.5,83.2,13.9c3.3,11.4,3.7,23.4-29.5,21.7c-36-1.8-30-21.7-30-21.7c-33.4,1-112.9-6.9-121.7-20.4
		c-8.7-13.4,7.2-16.5,7.6-16.5h0c13.5-6.8,86-12,173.6-12c97.1,0,175.8,6.4,175.8,14.3C360.5,201.4,281.8,207.8,184.7,207.8z"/>
	<path class="st1" d="M328.2,11.5v153.1c0,6.3-5.1,11.4-11.4,11.4H56.1c-6.3,0-11.4-5.1-11.4-11.4V11.5C44.7,5.1,49.8,0,56.1,0
		h260.7C323.1,0,328.2,5.1,328.2,11.5z"/>
	<path class="st2" d="M315.6,19.2v137.5c0,4-3.3,7.3-7.3,7.3H64.6c-1.7,0-3.3-0.6-4.5-1.6c-0.3-0.3-0.6-0.5-0.9-0.9
		c-1.2-1.3-1.9-3-1.9-4.9V19.2c0-4,3.3-7.3,7.3-7.3h243.7c1.4,0,2.6,0.4,3.7,1c1,0.6,1.9,1.4,2.5,2.4
		C315.2,16.5,315.6,17.8,315.6,19.2z"/>
	<path class="st3" d="M90,61.3c0.9,0,1.5,0.2,2,0.6v1c-0.6-0.6-1.2-0.8-2-0.8c-1.5,0-2.5,1.2-2.5,3c0,1.8,1,3,2.5,3
		c0.8,0,1.4-0.2,2-0.8v1c-0.5,0.4-1.1,0.6-2,0.6c-2,0-3.5-1.5-3.5-3.8C86.6,62.8,88,61.3,90,61.3z"/>
	<path class="st3" d="M96.4,65.3c0-0.7-0.5-1.1-1.3-1.1c-0.6,0-1.1,0.2-1.5,0.5v-0.9c0.4-0.3,1-0.4,1.7-0.4c1.3,0,2,0.7,2,1.8v3.6
		h-0.9v-0.4C96.2,68.7,95.6,69,95,69c-1.1,0-2-0.7-2-1.7c0-1,0.9-1.7,2-1.7c0.6,0,1.1,0.2,1.3,0.4V65.3z M96.4,67
		c-0.1-0.4-0.7-0.7-1.2-0.7c-0.7,0-1.3,0.3-1.3,0.9c0,0.7,0.6,1,1.3,1c0.6,0,1.1-0.3,1.2-0.7V67z"/>
	<path class="st3" d="M98.8,63.5h0.9v0.7c0.3-0.4,0.9-0.8,1.6-0.8c1.2,0,1.9,0.8,1.9,2v3.5h-0.9v-3.4c0-0.7-0.4-1.3-1.2-1.3
		c-0.6,0-1.2,0.4-1.4,1v3.6h-0.9V63.5z"/>
	<path class="st3" d="M104.4,61.5h0.8v2.6h-0.8V61.5z"/>
	<path class="st3" d="M108,68.9h-0.9v-4.6H106v-0.8h1.1v-1.4h0.9v1.4h1.2v0.8H108V68.9z"/>
	<path class="st3" d="M115.2,63.4c0.5,0,1.1,0.1,1.4,0.4v0.9c-0.4-0.4-0.9-0.6-1.4-0.6c-1,0-1.7,0.7-1.7,2s0.8,2,1.7,2
		c0.5,0,1-0.2,1.4-0.6v0.9c-0.4,0.3-0.9,0.4-1.4,0.4c-1.4,0-2.6-1.1-2.6-2.8C112.6,64.5,113.8,63.4,115.2,63.4z"/>
	<path class="st3" d="M120,69c-1.5,0-2.5-1.1-2.5-2.8s1-2.8,2.5-2.8c1.5,0,2.5,1.1,2.5,2.8C122.4,67.8,121.4,69,120,69z M120,64.2
		c-1,0-1.5,0.8-1.5,2c0,1.2,0.6,2,1.5,2c1,0,1.5-0.8,1.5-2C121.5,65,120.9,64.2,120,64.2z"/>
	<path class="st3" d="M123.7,63.5h0.9v0.7c0.3-0.4,0.9-0.8,1.6-0.8c1.2,0,1.9,0.8,1.9,2v3.5h-0.9v-3.4c0-0.7-0.4-1.3-1.2-1.3
		c-0.6,0-1.2,0.4-1.4,1v3.6h-0.9V63.5z"/>
	<path class="st3" d="M129.6,63.5h0.9v0.7c0.3-0.4,0.9-0.8,1.6-0.8c1.2,0,1.9,0.8,1.9,2v3.5H133v-3.4c0-0.7-0.4-1.3-1.2-1.3
		c-0.6,0-1.2,0.4-1.4,1v3.6h-0.9V63.5z"/>
	<path class="st3" d="M136,66.3c0,1.2,0.8,1.8,1.8,1.8c0.6,0,1-0.1,1.5-0.5v0.8c-0.4,0.3-1,0.5-1.6,0.5c-1.5,0-2.6-1.1-2.6-2.7
		c0-1.7,1-2.8,2.4-2.8c1.4,0,2.2,1.1,2.2,2.6v0.3H136z M136,65.6h2.8c0-0.8-0.4-1.5-1.3-1.5C136.8,64.2,136.2,64.6,136,65.6z"/>
	<path class="st3" d="M143.1,63.4c0.5,0,1.1,0.1,1.4,0.4v0.9c-0.4-0.4-0.9-0.6-1.4-0.6c-1,0-1.7,0.7-1.7,2s0.8,2,1.7,2
		c0.5,0,1-0.2,1.4-0.6v0.9c-0.4,0.3-0.9,0.4-1.4,0.4c-1.4,0-2.6-1.1-2.6-2.8C140.5,64.5,141.6,63.4,143.1,63.4z"/>
	<path class="st3" d="M147.3,68.9h-0.9v-4.6h-1.1v-0.8h1.1v-1.4h0.9v1.4h1.2v0.8h-1.2V68.9z"/>
	<path class="st3" d="M153.8,68.9h-0.9v-4.6h-1.1v-0.8h1.1v-1.4h0.9v1.4h1.2v0.8h-1.2V68.9z"/>
	<path class="st3" d="M158.1,69c-1.5,0-2.5-1.1-2.5-2.8s1-2.8,2.5-2.8c1.5,0,2.5,1.1,2.5,2.8C160.6,67.8,159.6,69,158.1,69z
		 M158.1,64.2c-1,0-1.5,0.8-1.5,2c0,1.2,0.6,2,1.5,2c1,0,1.5-0.8,1.5-2C159.7,65,159.1,64.2,158.1,64.2z"/>
	<path class="st3" d="M166.8,68.9l-2.9-7.4h1l2.3,6.2l2.3-6.2h1l-2.9,7.4H166.8z"/>
	<path class="st3" d="M172.6,65.9v3h-1v-7.4h2.7c1.5,0,2.5,0.8,2.5,2.2c0,1.4-1,2.2-2.5,2.2L172.6,65.9L172.6,65.9z M174.4,62.3
		h-1.8v2.8h1.8c1,0,1.5-0.5,1.5-1.4C175.9,62.8,175.4,62.3,174.4,62.3z"/>
	<path class="st3" d="M183.9,68.9h-0.7L179,63v5.9h-0.9v-7.4h0.9l3.9,5.6v-5.6h0.9V68.9z"/>
	<path class="st3" d="M191.4,61.3c0.9,0,1.5,0.2,2,0.6v1c-0.6-0.6-1.2-0.8-2-0.8c-1.5,0-2.5,1.2-2.5,3c0,1.8,1,3,2.5,3
		c0.8,0,1.4-0.2,2-0.8v1c-0.5,0.4-1.1,0.6-2,0.6c-2,0-3.5-1.5-3.5-3.8C187.9,62.8,189.4,61.3,191.4,61.3z"/>
	<path class="st3" d="M196.8,69c-1.5,0-2.5-1.1-2.5-2.8s1-2.8,2.5-2.8c1.5,0,2.5,1.1,2.5,2.8S198.3,69,196.8,69z M196.8,64.2
		c-1,0-1.5,0.8-1.5,2c0,1.2,0.6,2,1.5,2c1,0,1.5-0.8,1.5-2C198.4,65,197.8,64.2,196.8,64.2z"/>
	<path class="st3" d="M200.5,63.5h0.9v0.7c0.3-0.4,0.9-0.8,1.6-0.8c1.2,0,1.9,0.8,1.9,2v3.5H204v-3.4c0-0.7-0.4-1.3-1.2-1.3
		c-0.6,0-1.2,0.4-1.4,1v3.6h-0.9V63.5z"/>
	<path class="st3" d="M206.4,63.5h0.9v0.7c0.3-0.4,0.9-0.8,1.6-0.8c1.2,0,1.9,0.8,1.9,2v3.5h-0.9v-3.4c0-0.7-0.4-1.3-1.2-1.3
		c-0.6,0-1.2,0.4-1.4,1v3.6h-0.9V63.5z"/>
	<path class="st3" d="M212.8,66.3c0,1.2,0.8,1.8,1.8,1.8c0.6,0,1-0.1,1.5-0.5v0.8c-0.4,0.3-1,0.5-1.6,0.5c-1.5,0-2.6-1.1-2.6-2.7
		c0-1.7,1-2.8,2.4-2.8c1.4,0,2.2,1.1,2.2,2.6v0.3H212.8z M212.9,65.6h2.8c0-0.8-0.4-1.5-1.3-1.5C213.6,64.2,213,64.6,212.9,65.6z"/>
	<path class="st3" d="M219.9,63.4c0.5,0,1.1,0.1,1.4,0.4v0.9c-0.4-0.4-0.9-0.6-1.4-0.6c-1,0-1.7,0.7-1.7,2s0.8,2,1.7,2
		c0.5,0,1-0.2,1.4-0.6v0.9c-0.4,0.3-0.9,0.4-1.4,0.4c-1.4,0-2.6-1.1-2.6-2.8C217.4,64.5,218.5,63.4,219.9,63.4z"/>
	<path class="st3" d="M224.1,68.9h-0.9v-4.6h-1.1v-0.8h1.1v-1.4h0.9v1.4h1.2v0.8h-1.2V68.9z"/>
	<path class="st3" d="M226.9,62.5c-0.3,0-0.6-0.3-0.6-0.6c0-0.3,0.3-0.6,0.6-0.6c0.3,0,0.6,0.3,0.6,0.6
		C227.5,62.2,227.3,62.5,226.9,62.5z M227.4,68.9h-0.9v-5.4h0.9V68.9z"/>
	<path class="st3" d="M231.1,69c-1.5,0-2.5-1.1-2.5-2.8s1-2.8,2.5-2.8c1.5,0,2.5,1.1,2.5,2.8C233.5,67.8,232.5,69,231.1,69z
		 M231.1,64.2c-1,0-1.5,0.8-1.5,2c0,1.2,0.6,2,1.5,2c1,0,1.5-0.8,1.5-2C232.6,65,232,64.2,231.1,64.2z"/>
	<path class="st3" d="M234.8,63.5h0.9v0.7c0.3-0.4,0.9-0.8,1.6-0.8c1.2,0,1.9,0.8,1.9,2v3.5h-0.9v-3.4c0-0.7-0.4-1.3-1.2-1.3
		c-0.6,0-1.2,0.4-1.4,1v3.6h-0.9V63.5z"/>
	<path class="st4" d="M90.1,75.9l2.9,7.4h-1l-0.9-2.2h-3.1l-0.8,2.2h-1l2.9-7.4H90.1z M88.5,80.3h2.4l-1.2-3.2L88.5,80.3z"/>
	<path class="st4" d="M99,77.9c0.5,0,1.1,0.1,1.4,0.4v0.9c-0.4-0.4-0.9-0.6-1.4-0.6c-1,0-1.7,0.7-1.7,2s0.8,2,1.7,2
		c0.5,0,1-0.2,1.4-0.6V83c-0.4,0.3-0.9,0.4-1.4,0.4c-1.4,0-2.6-1.1-2.6-2.8S97.5,77.9,99,77.9z"/>
	<path class="st4" d="M103.7,83.5c-1.5,0-2.5-1.1-2.5-2.8s1-2.8,2.5-2.8c1.5,0,2.5,1.1,2.5,2.8C106.2,82.3,105.2,83.5,103.7,83.5z
		 M103.7,78.7c-1,0-1.5,0.8-1.5,2c0,1.2,0.6,2,1.5,2c1,0,1.5-0.8,1.5-2C105.3,79.5,104.7,78.7,103.7,78.7z"/>
	<path class="st4" d="M107.4,78h0.9v0.7c0.3-0.4,0.9-0.8,1.6-0.8c1.2,0,1.9,0.8,1.9,2v3.5h-0.9V80c0-0.7-0.4-1.3-1.2-1.3
		c-0.6,0-1.2,0.4-1.4,1v3.6h-0.9V78z"/>
	<path class="st4" d="M113.3,78h0.9v0.7c0.3-0.4,0.9-0.8,1.6-0.8c1.2,0,1.9,0.8,1.9,2v3.5h-0.9V80c0-0.7-0.4-1.3-1.2-1.3
		c-0.6,0-1.2,0.4-1.4,1v3.6h-0.9V78z"/>
	<path class="st4" d="M119.7,80.8c0,1.2,0.8,1.8,1.8,1.8c0.6,0,1-0.1,1.5-0.5V83c-0.4,0.3-1,0.5-1.6,0.5c-1.5,0-2.6-1.1-2.6-2.7
		c0-1.7,1-2.8,2.4-2.8c1.4,0,2.2,1.1,2.2,2.6v0.3H119.7z M119.8,80.1h2.8c0-0.8-0.4-1.5-1.3-1.5C120.5,78.7,119.9,79.1,119.8,80.1z"
		/>
	<path class="st4" d="M126.8,77.9c0.5,0,1.1,0.1,1.4,0.4v0.9c-0.4-0.4-0.9-0.6-1.4-0.6c-1,0-1.7,0.7-1.7,2s0.8,2,1.7,2
		c0.5,0,1-0.2,1.4-0.6V83c-0.4,0.3-0.9,0.4-1.4,0.4c-1.4,0-2.6-1.1-2.6-2.8S125.4,77.9,126.8,77.9z"/>
	<path class="st4" d="M131,83.4h-0.9v-4.6H129V78h1.1v-1.4h0.9V78h1.2v0.8H131V83.4z"/>
	<path class="st4" d="M133.8,77c-0.3,0-0.6-0.3-0.6-0.6c0-0.3,0.3-0.6,0.6-0.6c0.3,0,0.6,0.3,0.6,0.6C134.4,76.7,134.2,77,133.8,77z
		 M134.3,83.4h-0.9V78h0.9V83.4z"/>
	<path class="st4" d="M138,83.5c-1.5,0-2.5-1.1-2.5-2.8s1-2.8,2.5-2.8c1.5,0,2.5,1.1,2.5,2.8C140.4,82.3,139.4,83.5,138,83.5z
		 M138,78.7c-1,0-1.5,0.8-1.5,2c0,1.2,0.6,2,1.5,2c1,0,1.5-0.8,1.5-2C139.5,79.5,138.9,78.7,138,78.7z"/>
	<path class="st4" d="M141.7,78h0.9v0.7c0.3-0.4,0.9-0.8,1.6-0.8c1.2,0,1.9,0.8,1.9,2v3.5h-0.9V80c0-0.7-0.4-1.3-1.2-1.3
		c-0.6,0-1.2,0.4-1.4,1v3.6h-0.9V78z"/>
	<path class="st4" d="M151.7,83.4h-0.9v-4.6h-1.1V78h1.1v-1.4h0.9V78h1.2v0.8h-1.2V83.4z"/>
	<path class="st4" d="M156,83.5c-1.5,0-2.5-1.1-2.5-2.8s1-2.8,2.5-2.8c1.5,0,2.5,1.1,2.5,2.8C158.5,82.3,157.5,83.5,156,83.5z
		 M156,78.7c-1,0-1.5,0.8-1.5,2c0,1.2,0.6,2,1.5,2c1,0,1.5-0.8,1.5-2C157.6,79.5,157,78.7,156,78.7z"/>
	<path class="st4" d="M163.9,83.4H163v-4.6h-1.1V78h1.1v-1.4h0.9V78h1.2v0.8h-1.2V83.4z"/>
	<path class="st4" d="M166.2,75.5h0.9v3.2c0.3-0.4,0.9-0.8,1.6-0.8c1.2,0,1.9,0.8,1.9,2v3.5h-0.9V80c0-0.7-0.4-1.3-1.2-1.3
		c-0.6,0-1.2,0.4-1.4,1v3.6h-0.9V75.5z"/>
	<path class="st4" d="M172.6,80.8c0,1.2,0.8,1.8,1.8,1.8c0.6,0,1-0.1,1.5-0.5V83c-0.4,0.3-1,0.5-1.6,0.5c-1.5,0-2.6-1.1-2.6-2.7
		c0-1.7,1-2.8,2.4-2.8c1.4,0,2.2,1.1,2.2,2.6v0.3H172.6z M172.7,80.1h2.8c0-0.8-0.4-1.5-1.3-1.5C173.4,78.7,172.9,79.1,172.7,80.1z"
		/>
	<path class="st4" d="M183,78.9c-0.1-0.1-0.4-0.1-0.6-0.1c-0.6,0-1.1,0.4-1.2,1v3.6h-0.9V78h0.9v0.7c0.2-0.5,0.7-0.8,1.3-0.8
		c0.2,0,0.4,0,0.5,0.1L183,78.9L183,78.9z"/>
	<path class="st4" d="M184.5,80.8c0,1.2,0.8,1.8,1.8,1.8c0.6,0,1-0.1,1.5-0.5V83c-0.4,0.3-1,0.5-1.6,0.5c-1.5,0-2.6-1.1-2.6-2.7
		c0-1.7,1-2.8,2.4-2.8c1.4,0,2.2,1.1,2.2,2.6v0.3H184.5z M184.5,80.1h2.8c0-0.8-0.4-1.5-1.3-1.5C185.2,78.7,184.7,79.1,184.5,80.1z"
		/>
	<path class="st4" d="M194.8,77.9c1.1,0,1.7,0.8,1.7,1.9v3.5h-0.9v-3.4c0-0.7-0.3-1.2-1-1.2c-0.5,0-1,0.4-1.2,1v3.7h-0.9v-3.4
		c0-0.7-0.3-1.2-1-1.2c-0.5,0-1,0.4-1.2,1v3.7h-0.9V78h0.9v0.6c0.3-0.4,0.8-0.7,1.4-0.7c0.7,0,1.2,0.3,1.4,0.9
		C193.5,78.3,194.1,77.9,194.8,77.9z"/>
	<path class="st4" d="M200.1,83.5c-1.5,0-2.5-1.1-2.5-2.8s1-2.8,2.5-2.8c1.5,0,2.5,1.1,2.5,2.8C202.6,82.3,201.6,83.5,200.1,83.5z
		 M200.1,78.7c-1,0-1.5,0.8-1.5,2c0,1.2,0.6,2,1.5,2c1,0,1.5-0.8,1.5-2C201.6,79.5,201.1,78.7,200.1,78.7z"/>
	<path class="st4" d="M205.2,83.4h-0.9v-4.6h-1.1V78h1.1v-1.4h0.9V78h1.2v0.8h-1.2V83.4z"/>
	<path class="st4" d="M207.9,80.8c0,1.2,0.8,1.8,1.8,1.8c0.6,0,1-0.1,1.5-0.5V83c-0.4,0.3-1,0.5-1.6,0.5c-1.5,0-2.6-1.1-2.6-2.7
		c0-1.7,1-2.8,2.4-2.8c1.4,0,2.2,1.1,2.2,2.6v0.3H207.9z M208,80.1h2.8c0-0.8-0.4-1.5-1.3-1.5C208.7,78.7,208.2,79.1,208,80.1z"/>
	<path class="st4" d="M217.7,77.9c0.5,0,1.1,0.1,1.4,0.4v0.9c-0.4-0.4-0.9-0.6-1.4-0.6c-1,0-1.7,0.7-1.7,2s0.8,2,1.7,2
		c0.5,0,1-0.2,1.4-0.6V83c-0.4,0.3-0.9,0.4-1.4,0.4c-1.4,0-2.6-1.1-2.6-2.8S216.3,77.9,217.7,77.9z"/>
	<path class="st4" d="M222.5,83.5c-1.5,0-2.5-1.1-2.5-2.8s1-2.8,2.5-2.8c1.5,0,2.5,1.1,2.5,2.8C225,82.3,224,83.5,222.5,83.5z
		 M222.5,78.7c-1,0-1.5,0.8-1.5,2c0,1.2,0.6,2,1.5,2c1,0,1.5-0.8,1.5-2C224,79.5,223.5,78.7,222.5,78.7z"/>
	<path class="st4" d="M231.6,77.9c1.1,0,1.7,0.8,1.7,1.9v3.5h-0.9v-3.4c0-0.7-0.3-1.2-1-1.2c-0.5,0-1,0.4-1.2,1v3.7h-0.9v-3.4
		c0-0.7-0.3-1.2-1-1.2c-0.5,0-1,0.4-1.2,1v3.7h-0.9V78h0.9v0.6c0.3-0.4,0.8-0.7,1.4-0.7c0.7,0,1.2,0.3,1.4,0.9
		C230.3,78.3,230.9,77.9,231.6,77.9z"/>
	<path class="st4" d="M235.7,85.4h-0.9V78h0.9v0.6c0.3-0.4,0.8-0.7,1.5-0.7c1.6,0,2.4,1.3,2.4,2.8c0,1.5-0.8,2.8-2.4,2.8
		c-0.7,0-1.2-0.3-1.5-0.7V85.4z M235.7,81.8c0.3,0.6,0.8,0.9,1.4,0.9c1,0,1.6-0.8,1.6-2c0-1.1-0.6-2-1.6-2c-0.6,0-1.1,0.3-1.4,0.9
		V81.8z"/>
	<path class="st4" d="M245.2,83.4h-0.9v-0.7c-0.3,0.4-0.9,0.8-1.6,0.8c-1.2,0-1.9-0.8-1.9-2V78h0.9v3.4c0,0.7,0.4,1.3,1.2,1.3
		c0.6,0,1.1-0.4,1.3-1V78h0.9V83.4z"/>
	<path class="st4" d="M248.3,83.4h-0.9v-4.6h-1.1V78h1.1v-1.4h0.9V78h1.2v0.8h-1.2V83.4z"/>
	<path class="st4" d="M251,80.8c0,1.2,0.8,1.8,1.8,1.8c0.6,0,1-0.1,1.5-0.5V83c-0.4,0.3-1,0.5-1.6,0.5c-1.5,0-2.6-1.1-2.6-2.7
		c0-1.7,1-2.8,2.4-2.8c1.4,0,2.2,1.1,2.2,2.6v0.3H251z M251.1,80.1h2.8c0-0.8-0.4-1.5-1.3-1.5C251.8,78.7,251.2,79.1,251.1,80.1z"/>
	<path class="st4" d="M258.7,78.9c-0.1-0.1-0.4-0.1-0.6-0.1c-0.6,0-1.1,0.4-1.2,1v3.6h-0.9V78h0.9v0.7c0.2-0.5,0.7-0.8,1.3-0.8
		c0.2,0,0.4,0,0.5,0.1L258.7,78.9L258.7,78.9z"/>
	<path class="st4" d="M264.7,77.9c0.5,0,1.1,0.1,1.4,0.4v0.9c-0.4-0.4-0.9-0.6-1.4-0.6c-1,0-1.7,0.7-1.7,2s0.8,2,1.7,2
		c0.5,0,1-0.2,1.4-0.6V83c-0.4,0.3-0.9,0.4-1.4,0.4c-1.4,0-2.6-1.1-2.6-2.8S263.2,77.9,264.7,77.9z"/>
	<path class="st4" d="M269.4,83.5c-1.5,0-2.5-1.1-2.5-2.8s1-2.8,2.5-2.8c1.5,0,2.5,1.1,2.5,2.8C271.9,82.3,270.9,83.5,269.4,83.5z
		 M269.4,78.7c-1,0-1.5,0.8-1.5,2c0,1.2,0.6,2,1.5,2c1,0,1.5-0.8,1.5-2C271,79.5,270.4,78.7,269.4,78.7z"/>
	<path class="st4" d="M277.4,83.4h-0.9v-0.7c-0.3,0.4-0.9,0.8-1.6,0.8c-1.2,0-1.9-0.8-1.9-2V78h0.9v3.4c0,0.7,0.4,1.3,1.2,1.3
		c0.6,0,1.1-0.4,1.3-1V78h0.9V83.4z"/>
	<path class="st4" d="M279.9,83.4H279v-7.8h0.9V83.4z"/>
	<path class="st4" d="M285,82.7c-0.3,0.4-0.8,0.7-1.5,0.7c-1.6,0-2.4-1.3-2.4-2.8c0-1.5,0.8-2.8,2.4-2.8c0.7,0,1.2,0.3,1.5,0.7v-3.1
		h0.9v7.8H285V82.7z M285,79.6c-0.3-0.6-0.8-0.9-1.4-0.9c-1,0-1.6,0.8-1.6,2c0,1.1,0.6,2,1.6,2c0.6,0,1.1-0.3,1.4-0.9V79.6z"/>
	<path class="st4" d="M86.9,92.5h0.9v0.7c0.3-0.4,0.9-0.8,1.6-0.8c1.2,0,1.9,0.8,1.9,2v3.5h-0.9v-3.4c0-0.7-0.4-1.3-1.2-1.3
		c-0.6,0-1.2,0.4-1.4,1v3.6h-0.9V92.5z"/>
	<path class="st4" d="M94.9,97.9c-1.5,0-2.5-1.1-2.5-2.8s1-2.8,2.5-2.8c1.5,0,2.5,1.1,2.5,2.8S96.3,97.9,94.9,97.9z M94.9,93.2
		c-1,0-1.5,0.8-1.5,2c0,1.2,0.6,2,1.5,2c1,0,1.5-0.8,1.5-2C96.4,94,95.9,93.2,94.9,93.2z"/>
	<path class="st4" d="M100,97.8h-0.9v-4.6H98v-0.8h1.1v-1.4h0.9v1.4h1.2v0.8H100V97.8z"/>
	<path class="st4" d="M105.9,97.8H105V90h0.9v3.1c0.3-0.4,0.8-0.7,1.5-0.7c1.6,0,2.4,1.3,2.4,2.8c0,1.5-0.8,2.8-2.4,2.8
		c-0.7,0-1.2-0.3-1.5-0.7V97.8z M105.9,96.2c0.3,0.6,0.8,0.9,1.4,0.9c1,0,1.6-0.8,1.6-2c0-1.1-0.6-2-1.6-2c-0.6,0-1.1,0.3-1.4,0.9
		V96.2z"/>
	<path class="st4" d="M111.6,95.3c0,1.2,0.8,1.8,1.8,1.8c0.6,0,1-0.1,1.5-0.5v0.8c-0.4,0.3-1,0.5-1.6,0.5c-1.5,0-2.6-1.1-2.6-2.7
		c0-1.7,1-2.8,2.4-2.8c1.4,0,2.2,1.1,2.2,2.6v0.3H111.6z M111.6,94.6h2.8c0-0.8-0.4-1.5-1.3-1.5C112.4,93.1,111.8,93.6,111.6,94.6z"
		/>
	<path class="st4" d="M119.7,95.3c0,1.2,0.8,1.8,1.8,1.8c0.6,0,1-0.1,1.5-0.5v0.8c-0.4,0.3-1,0.5-1.6,0.5c-1.5,0-2.6-1.1-2.6-2.7
		c0-1.7,1-2.8,2.4-2.8c1.4,0,2.2,1.1,2.2,2.6v0.3H119.7z M119.7,94.6h2.8c0-0.8-0.4-1.5-1.3-1.5C120.5,93.1,119.9,93.6,119.7,94.6z"
		/>
	<path class="st4" d="M124.3,96.4c0.5,0.5,1.1,0.7,1.8,0.7c0.6,0,1.1-0.2,1.1-0.7c0-0.4-0.3-0.6-0.8-0.8l-0.7-0.3
		c-0.8-0.3-1.4-0.7-1.4-1.5c0-0.9,0.8-1.5,1.9-1.5c0.6,0,1.2,0.2,1.6,0.5v0.9c-0.4-0.4-0.9-0.6-1.6-0.6c-0.6,0-1,0.2-1,0.7
		c0,0.4,0.3,0.6,0.8,0.8l0.8,0.3c0.8,0.3,1.3,0.7,1.3,1.5c0,1-0.9,1.6-2,1.6c-0.7,0-1.4-0.2-1.8-0.5V96.4z"/>
	<path class="st4" d="M130.8,97.8h-0.9v-4.6h-1.1v-0.8h1.1v-1.4h0.9v1.4h1.2v0.8h-1.2V97.8z"/>
	<path class="st4" d="M136,94.3c0-0.7-0.5-1.1-1.3-1.1c-0.6,0-1.1,0.2-1.5,0.5v-0.9c0.4-0.3,1-0.4,1.7-0.4c1.3,0,2,0.7,2,1.8v3.6
		H136v-0.4c-0.2,0.2-0.8,0.5-1.4,0.5c-1.1,0-2-0.7-2-1.7c0-1,0.9-1.7,2-1.7c0.6,0,1.1,0.2,1.3,0.4V94.3z M136,96
		c-0.1-0.4-0.7-0.7-1.2-0.7c-0.7,0-1.3,0.3-1.3,0.9c0,0.7,0.6,1,1.3,1c0.6,0,1.1-0.3,1.2-0.7V96z"/>
	<path class="st4" d="M139.4,97.8h-0.9V90h0.9v3.1c0.3-0.4,0.8-0.7,1.5-0.7c1.6,0,2.4,1.3,2.4,2.8c0,1.5-0.8,2.8-2.4,2.8
		c-0.7,0-1.2-0.3-1.5-0.7V97.8z M139.4,96.2c0.3,0.6,0.8,0.9,1.4,0.9c1,0,1.6-0.8,1.6-2c0-1.1-0.6-2-1.6-2c-0.6,0-1.1,0.3-1.4,0.9
		V96.2z"/>
	<path class="st4" d="M145.4,97.8h-0.9V90h0.9V97.8z"/>
	<path class="st4" d="M147.5,91.4c-0.3,0-0.6-0.3-0.6-0.6c0-0.3,0.3-0.6,0.6-0.6c0.3,0,0.6,0.3,0.6,0.6
		C148.1,91.2,147.8,91.4,147.5,91.4z M147.9,97.8H147v-5.4h0.9V97.8z"/>
	<path class="st4" d="M149.2,96.4c0.5,0.5,1.1,0.7,1.8,0.7c0.6,0,1.1-0.2,1.1-0.7c0-0.4-0.3-0.6-0.8-0.8l-0.7-0.3
		c-0.8-0.3-1.4-0.7-1.4-1.5c0-0.9,0.8-1.5,1.9-1.5c0.6,0,1.2,0.2,1.6,0.5v0.9c-0.4-0.4-0.9-0.6-1.6-0.6c-0.6,0-1,0.2-1,0.7
		c0,0.4,0.3,0.6,0.8,0.8l0.8,0.3c0.8,0.3,1.3,0.7,1.3,1.5c0,1-0.9,1.6-2,1.6c-0.7,0-1.4-0.2-1.8-0.5V96.4z"/>
	<path class="st4" d="M154.3,90h0.9v3.2c0.3-0.4,0.9-0.8,1.6-0.8c1.2,0,1.9,0.8,1.9,2v3.5h-0.9v-3.4c0-0.7-0.4-1.3-1.2-1.3
		c-0.6,0-1.2,0.4-1.4,1v3.6h-0.9V90z"/>
	<path class="st4" d="M160.7,95.3c0,1.2,0.8,1.8,1.8,1.8c0.6,0,1-0.1,1.5-0.5v0.8c-0.4,0.3-1,0.5-1.6,0.5c-1.5,0-2.6-1.1-2.6-2.7
		c0-1.7,1-2.8,2.4-2.8c1.4,0,2.2,1.1,2.2,2.6v0.3H160.7z M160.8,94.6h2.8c0-0.8-0.4-1.5-1.3-1.5C161.5,93.1,160.9,93.6,160.8,94.6z"
		/>
	<path class="st4" d="M169.2,97.2c-0.3,0.4-0.8,0.7-1.5,0.7c-1.6,0-2.4-1.3-2.4-2.8c0-1.5,0.8-2.8,2.4-2.8c0.7,0,1.2,0.3,1.5,0.7V90
		h0.9v7.8h-0.9V97.2z M169.2,94.1c-0.3-0.6-0.8-0.9-1.4-0.9c-1,0-1.6,0.8-1.6,2c0,1.1,0.6,2,1.6,2c0.6,0,1.1-0.3,1.4-0.9V94.1z"/>
	<path class="st4" d="M171.9,96.6c0.4,0,0.6,0.3,0.6,0.7c0,0.4-0.3,0.7-0.6,0.7c-0.4,0-0.7-0.3-0.7-0.7
		C171.3,96.9,171.5,96.6,171.9,96.6z"/>
	<path class="st4" d="M183.8,90.4h1l-2.7,4.4v3.1h-0.9v-3.1l-2.7-4.4h1l2.1,3.5L183.8,90.4z"/>
	<path class="st4" d="M187.1,97.9c-1.5,0-2.5-1.1-2.5-2.8s1-2.8,2.5-2.8c1.5,0,2.5,1.1,2.5,2.8S188.6,97.9,187.1,97.9z M187.1,93.2
		c-1,0-1.5,0.8-1.5,2c0,1.2,0.6,2,1.5,2c1,0,1.5-0.8,1.5-2C188.6,94,188.1,93.2,187.1,93.2z"/>
	<path class="st4" d="M195.1,97.8h-0.9v-0.7c-0.3,0.4-0.9,0.8-1.6,0.8c-1.2,0-1.9-0.8-1.9-2v-3.5h0.9v3.4c0,0.7,0.4,1.3,1.2,1.3
		c0.6,0,1.1-0.4,1.3-1v-3.6h0.9V97.8z"/>
	<path class="st4" d="M204.8,92.4c1.1,0,1.7,0.8,1.7,1.9v3.5h-0.9v-3.4c0-0.7-0.3-1.2-1-1.2c-0.5,0-1,0.4-1.2,1v3.7h-0.9v-3.4
		c0-0.7-0.3-1.2-1-1.2c-0.5,0-1,0.4-1.2,1v3.7h-0.9v-5.3h0.9v0.6c0.3-0.4,0.8-0.7,1.4-0.7c0.7,0,1.2,0.3,1.4,0.9
		C203.5,92.7,204,92.4,204.8,92.4z"/>
	<path class="st4" d="M208.4,91.4c-0.3,0-0.6-0.3-0.6-0.6c0-0.3,0.3-0.6,0.6-0.6c0.3,0,0.6,0.3,0.6,0.6
		C209,91.2,208.8,91.4,208.4,91.4z M208.9,97.8H208v-5.4h0.9V97.8z"/>
	<path class="st4" d="M214,97.1c-0.3,0.4-0.8,0.7-1.5,0.7c-1.6,0-2.4-1.3-2.4-2.7c0-1.4,0.8-2.7,2.4-2.7c0.7,0,1.2,0.3,1.5,0.7v-0.6
		h0.9v4.9c0,1.9-1.3,2.6-2.6,2.6c-0.7,0-1.3-0.2-1.7-0.5v-1c0.5,0.5,1.1,0.7,1.7,0.7c1,0,1.7-0.6,1.7-1.7V97.1z M214,94
		c-0.3-0.5-0.8-0.8-1.4-0.8c-1,0-1.6,0.8-1.6,1.9c0,1.1,0.6,1.9,1.6,1.9c0.6,0,1.1-0.3,1.4-0.8V94z"/>
	<path class="st4" d="M216.5,90h0.9v3.2c0.3-0.4,0.9-0.8,1.6-0.8c1.2,0,1.9,0.8,1.9,2v3.5H220v-3.4c0-0.7-0.4-1.3-1.2-1.3
		c-0.6,0-1.2,0.4-1.4,1v3.6h-0.9V90z"/>
	<path class="st4" d="M223.9,97.8H223v-4.6h-1.1v-0.8h1.1v-1.4h0.9v1.4h1.2v0.8h-1.2V97.8z"/>
	<path class="st4" d="M228.9,92.5h0.9v0.7c0.3-0.4,0.9-0.8,1.6-0.8c1.2,0,1.9,0.8,1.9,2v3.5h-0.9v-3.4c0-0.7-0.4-1.3-1.2-1.3
		c-0.6,0-1.2,0.4-1.4,1v3.6h-0.9V92.5z"/>
	<path class="st4" d="M235.3,95.3c0,1.2,0.8,1.8,1.8,1.8c0.6,0,1-0.1,1.5-0.5v0.8c-0.4,0.3-1,0.5-1.6,0.5c-1.5,0-2.6-1.1-2.6-2.7
		c0-1.7,1-2.8,2.4-2.8c1.4,0,2.2,1.1,2.2,2.6v0.3H235.3z M235.4,94.6h2.8c0-0.8-0.4-1.5-1.3-1.5C236.1,93.1,235.5,93.6,235.4,94.6z"
		/>
	<path class="st4" d="M240.8,95.3c0,1.2,0.8,1.8,1.8,1.8c0.6,0,1-0.1,1.5-0.5v0.8c-0.4,0.3-1,0.5-1.6,0.5c-1.5,0-2.6-1.1-2.6-2.7
		c0-1.7,1-2.8,2.4-2.8c1.4,0,2.2,1.1,2.2,2.6v0.3H240.8z M240.8,94.6h2.8c0-0.8-0.4-1.5-1.3-1.5C241.5,93.1,241,93.6,240.8,94.6z"/>
	<path class="st4" d="M249.2,97.2c-0.3,0.4-0.8,0.7-1.5,0.7c-1.6,0-2.4-1.3-2.4-2.8c0-1.5,0.8-2.8,2.4-2.8c0.7,0,1.2,0.3,1.5,0.7V90
		h0.9v7.8h-0.9V97.2z M249.2,94.1c-0.3-0.6-0.8-0.9-1.4-0.9c-1,0-1.6,0.8-1.6,2c0,1.1,0.6,2,1.6,2c0.6,0,1.1-0.3,1.4-0.9V94.1z"/>
	<path class="st4" d="M255.9,97.8H255v-4.6h-1.1v-0.8h1.1v-1.4h0.9v1.4h1.2v0.8h-1.2V97.8z"/>
	<path class="st4" d="M260.2,97.9c-1.5,0-2.5-1.1-2.5-2.8s1-2.8,2.5-2.8c1.5,0,2.5,1.1,2.5,2.8S261.7,97.9,260.2,97.9z M260.2,93.2
		c-1,0-1.5,0.8-1.5,2c0,1.2,0.6,2,1.5,2c1,0,1.5-0.8,1.5-2C261.8,94,261.2,93.2,260.2,93.2z"/>
	<path class="st4" d="M89.1,106.9c0.5,0,1.1,0.1,1.4,0.4v0.9c-0.4-0.4-0.9-0.6-1.4-0.6c-1,0-1.7,0.7-1.7,2c0,1.2,0.8,2,1.7,2
		c0.5,0,1-0.2,1.4-0.6v0.9c-0.4,0.3-0.9,0.4-1.4,0.4c-1.4,0-2.6-1.1-2.6-2.8C86.5,107.9,87.7,106.9,89.1,106.9z"/>
	<path class="st4" d="M91.8,104.5h0.9v3.2c0.3-0.4,0.9-0.8,1.6-0.8c1.2,0,1.9,0.8,1.9,2v3.5h-0.9V109c0-0.7-0.4-1.3-1.2-1.3
		c-0.6,0-1.2,0.4-1.4,1v3.6h-0.9V104.5z"/>
	<path class="st4" d="M100.7,108.8c0-0.7-0.5-1.1-1.3-1.1c-0.6,0-1.1,0.2-1.5,0.5v-0.9c0.4-0.3,1-0.4,1.7-0.4c1.3,0,2,0.7,2,1.8v3.6
		h-0.9v-0.4c-0.2,0.2-0.8,0.5-1.4,0.5c-1.1,0-2-0.7-2-1.7c0-1,0.9-1.7,2-1.7c0.6,0,1.1,0.2,1.3,0.4V108.8z M100.7,110.4
		c-0.1-0.4-0.7-0.7-1.2-0.7c-0.7,0-1.3,0.3-1.3,0.9c0,0.7,0.6,1,1.3,1c0.6,0,1.1-0.3,1.2-0.7V110.4z"/>
	<path class="st4" d="M103.1,107h0.9v0.7c0.3-0.4,0.9-0.8,1.6-0.8c1.2,0,1.9,0.8,1.9,2v3.5h-0.9V109c0-0.7-0.4-1.3-1.2-1.3
		c-0.6,0-1.2,0.4-1.4,1v3.6h-0.9V107z"/>
	<path class="st4" d="M112.5,111.6c-0.3,0.4-0.8,0.7-1.5,0.7c-1.6,0-2.4-1.3-2.4-2.7c0-1.4,0.8-2.7,2.4-2.7c0.7,0,1.2,0.3,1.5,0.7
		V107h0.9v4.9c0,1.9-1.3,2.6-2.6,2.6c-0.7,0-1.3-0.2-1.7-0.5v-1c0.5,0.5,1.1,0.7,1.7,0.7c1,0,1.7-0.6,1.7-1.7V111.6z M112.5,108.5
		c-0.3-0.5-0.8-0.8-1.4-0.8c-1,0-1.6,0.8-1.6,1.9c0,1.1,0.6,1.9,1.6,1.9c0.6,0,1.1-0.3,1.4-0.8V108.5z"/>
	<path class="st4" d="M115.5,109.8c0,1.2,0.8,1.8,1.8,1.8c0.6,0,1-0.1,1.5-0.5v0.8c-0.4,0.3-1,0.5-1.6,0.5c-1.5,0-2.6-1.1-2.6-2.7
		c0-1.7,1-2.8,2.4-2.8c1.4,0,2.2,1.1,2.2,2.6v0.3H115.5z M115.6,109.1h2.8c0-0.8-0.4-1.5-1.3-1.5
		C116.3,107.6,115.7,108.1,115.6,109.1z"/>
	<path class="st4" d="M124.6,112.3h-0.9v-4.6h-1.1V107h1.1v-1.4h0.9v1.4h1.2v0.8h-1.2V112.3z"/>
	<path class="st4" d="M126.9,104.5h0.9v3.2c0.3-0.4,0.9-0.8,1.6-0.8c1.2,0,1.9,0.8,1.9,2v3.5h-0.9V109c0-0.7-0.4-1.3-1.2-1.3
		c-0.6,0-1.2,0.4-1.4,1v3.6h-0.9V104.5z"/>
	<path class="st4" d="M133.3,109.8c0,1.2,0.8,1.8,1.8,1.8c0.6,0,1-0.1,1.5-0.5v0.8c-0.4,0.3-1,0.5-1.6,0.5c-1.5,0-2.6-1.1-2.6-2.7
		c0-1.7,1-2.8,2.4-2.8c1.4,0,2.2,1.1,2.2,2.6v0.3H133.3z M133.4,109.1h2.8c0-0.8-0.4-1.5-1.3-1.5
		C134.1,107.6,133.6,108.1,133.4,109.1z"/>
	<path class="st4" d="M140.9,107h0.9v0.7c0.3-0.4,0.9-0.8,1.6-0.8c1.2,0,1.9,0.8,1.9,2v3.5h-0.9V109c0-0.7-0.4-1.3-1.2-1.3
		c-0.6,0-1.2,0.4-1.4,1v3.6h-0.9V107z"/>
	<path class="st4" d="M147.3,109.8c0,1.2,0.8,1.8,1.8,1.8c0.6,0,1-0.1,1.5-0.5v0.8c-0.4,0.3-1,0.5-1.6,0.5c-1.5,0-2.6-1.1-2.6-2.7
		c0-1.7,1-2.8,2.4-2.8c1.4,0,2.2,1.1,2.2,2.6v0.3H147.3z M147.4,109.1h2.8c0-0.8-0.4-1.5-1.3-1.5
		C148.1,107.6,147.6,108.1,147.4,109.1z"/>
	<path class="st4" d="M153.7,112.3h-0.9v-4.6h-1.1V107h1.1v-1.4h0.9v1.4h1.2v0.8h-1.2V112.3z"/>
	<path class="st4" d="M160.5,111.1l1.2-4.1h0.9l-1.6,5.4h-0.9l-1.1-4.1l-1.1,4.1H157l-1.6-5.4h0.9l1.2,4.1l1.1-4.1h0.8L160.5,111.1z
		"/>
	<path class="st4" d="M165.7,112.4c-1.5,0-2.5-1.1-2.5-2.8c0-1.6,1-2.8,2.5-2.8c1.5,0,2.5,1.1,2.5,2.8
		C168.2,111.3,167.2,112.4,165.7,112.4z M165.7,107.6c-1,0-1.5,0.8-1.5,2c0,1.2,0.6,2,1.5,2c1,0,1.5-0.8,1.5-2
		C167.2,108.5,166.7,107.6,165.7,107.6z"/>
	<path class="st4" d="M172.1,107.9c-0.1-0.1-0.4-0.1-0.6-0.1c-0.6,0-1.1,0.4-1.2,1v3.6h-0.9V107h0.9v0.7c0.2-0.5,0.7-0.8,1.3-0.8
		c0.2,0,0.4,0,0.5,0.1L172.1,107.9L172.1,107.9z"/>
	<path class="st4" d="M177.8,112.3h-1.1l-2.5-2.7v2.7h-0.9v-7.8h0.9v4.7l2.4-2.3h1.2l-2.6,2.4L177.8,112.3z"/>
	<path class="st4" d="M181,110.9c0.5,0.5,1.1,0.7,1.8,0.7c0.6,0,1.1-0.2,1.1-0.7c0-0.4-0.3-0.6-0.8-0.8l-0.7-0.3
		c-0.8-0.3-1.4-0.7-1.4-1.5c0-0.9,0.8-1.5,1.9-1.5c0.6,0,1.2,0.2,1.6,0.5v0.9c-0.4-0.4-0.9-0.6-1.6-0.6c-0.6,0-1,0.2-1,0.7
		c0,0.4,0.3,0.6,0.8,0.8l0.8,0.3c0.8,0.3,1.3,0.7,1.3,1.5c0,1-0.9,1.6-2,1.6c-0.7,0-1.4-0.2-1.8-0.5V110.9z"/>
	<path class="st4" d="M186.5,109.8c0,1.2,0.8,1.8,1.8,1.8c0.6,0,1-0.1,1.5-0.5v0.8c-0.4,0.3-1,0.5-1.6,0.5c-1.5,0-2.6-1.1-2.6-2.7
		c0-1.7,1-2.8,2.4-2.8c1.4,0,2.2,1.1,2.2,2.6v0.3H186.5z M186.6,109.1h2.8c0-0.8-0.4-1.5-1.3-1.5
		C187.3,107.6,186.8,108.1,186.6,109.1z"/>
	<path class="st4" d="M192.9,112.3H192v-4.6h-1.1V107h1.1v-1.4h0.9v1.4h1.2v0.8h-1.2V112.3z"/>
	<path class="st4" d="M196.7,112.3h-0.9v-4.6h-1.1V107h1.1v-1.4h0.9v1.4h1.2v0.8h-1.2V112.3z"/>
	<path class="st4" d="M199.5,105.9c-0.3,0-0.6-0.3-0.6-0.6c0-0.3,0.3-0.6,0.6-0.6c0.3,0,0.6,0.3,0.6,0.6
		C200.1,105.7,199.8,105.9,199.5,105.9z M200,112.3h-0.9V107h0.9V112.3z"/>
	<path class="st4" d="M201.6,107h0.9v0.7c0.3-0.4,0.9-0.8,1.6-0.8c1.2,0,1.9,0.8,1.9,2v3.5H205V109c0-0.7-0.4-1.3-1.2-1.3
		c-0.6,0-1.2,0.4-1.4,1v3.6h-0.9V107z"/>
	<path class="st4" d="M211,111.6c-0.3,0.4-0.8,0.7-1.5,0.7c-1.6,0-2.4-1.3-2.4-2.7c0-1.4,0.8-2.7,2.4-2.7c0.7,0,1.2,0.3,1.5,0.7V107
		h0.9v4.9c0,1.9-1.3,2.6-2.6,2.6c-0.7,0-1.3-0.2-1.7-0.5v-1c0.5,0.5,1.1,0.7,1.7,0.7c1,0,1.7-0.6,1.7-1.7V111.6z M211,108.5
		c-0.3-0.5-0.8-0.8-1.4-0.8c-1,0-1.6,0.8-1.6,1.9c0,1.1,0.6,1.9,1.6,1.9c0.6,0,1.1-0.3,1.4-0.8V108.5z"/>
	<path class="st4" d="M213.2,110.9c0.5,0.5,1.1,0.7,1.8,0.7c0.6,0,1.1-0.2,1.1-0.7c0-0.4-0.3-0.6-0.8-0.8l-0.7-0.3
		c-0.8-0.3-1.4-0.7-1.4-1.5c0-0.9,0.8-1.5,1.9-1.5c0.6,0,1.2,0.2,1.6,0.5v0.9c-0.4-0.4-0.9-0.6-1.6-0.6c-0.6,0-1,0.2-1,0.7
		c0,0.4,0.3,0.6,0.8,0.8l0.8,0.3c0.8,0.3,1.3,0.7,1.3,1.5c0,1-0.9,1.6-2,1.6c-0.7,0-1.4-0.2-1.8-0.5V110.9z"/>
	<path class="st4" d="M223.6,105.3c-0.2-0.1-0.4-0.1-0.6-0.1c-0.5,0-0.9,0.3-0.9,1v0.8h1.2v0.8h-1.2v4.6h-0.9v-4.6h-0.9V107h0.9
		v-0.9c0-1.1,0.7-1.7,1.6-1.7c0.3,0,0.5,0,0.7,0.1V105.3z"/>
	<path class="st4" d="M226.4,112.4c-1.5,0-2.5-1.1-2.5-2.8c0-1.6,1-2.8,2.5-2.8c1.5,0,2.5,1.1,2.5,2.8
		C228.9,111.3,227.9,112.4,226.4,112.4z M226.4,107.6c-1,0-1.5,0.8-1.5,2c0,1.2,0.6,2,1.5,2c1,0,1.5-0.8,1.5-2
		C227.9,108.5,227.4,107.6,226.4,107.6z"/>
	<path class="st4" d="M232.8,107.9c-0.1-0.1-0.4-0.1-0.6-0.1c-0.6,0-1.1,0.4-1.2,1v3.6h-0.9V107h0.9v0.7c0.2-0.5,0.7-0.8,1.3-0.8
		c0.2,0,0.4,0,0.5,0.1L232.8,107.9L232.8,107.9z"/>
	<path class="st4" d="M238.1,112.3h-0.9v-4.6h-1.1V107h1.1v-1.4h0.9v1.4h1.2v0.8h-1.2V112.3z"/>
	<path class="st4" d="M240.5,104.5h0.9v3.2c0.3-0.4,0.9-0.8,1.6-0.8c1.2,0,1.9,0.8,1.9,2v3.5h-0.9V109c0-0.7-0.4-1.3-1.2-1.3
		c-0.6,0-1.2,0.4-1.4,1v3.6h-0.9V104.5z"/>
	<path class="st4" d="M246.8,105.9c-0.3,0-0.6-0.3-0.6-0.6c0-0.3,0.3-0.6,0.6-0.6c0.3,0,0.6,0.3,0.6,0.6
		C247.4,105.7,247.1,105.9,246.8,105.9z M247.3,112.3h-0.9V107h0.9V112.3z"/>
	<path class="st4" d="M248.6,110.9c0.5,0.5,1.1,0.7,1.8,0.7c0.6,0,1.1-0.2,1.1-0.7c0-0.4-0.3-0.6-0.8-0.8l-0.7-0.3
		c-0.8-0.3-1.4-0.7-1.4-1.5c0-0.9,0.8-1.5,1.9-1.5c0.6,0,1.2,0.2,1.6,0.5v0.9c-0.4-0.4-0.9-0.6-1.6-0.6c-0.6,0-1,0.2-1,0.7
		c0,0.4,0.3,0.6,0.8,0.8l0.8,0.3c0.8,0.3,1.3,0.7,1.3,1.5c0,1-0.9,1.6-2,1.6c-0.7,0-1.4-0.2-1.8-0.5V110.9z"/>
	<path class="st4" d="M89.1,121.3c0.5,0,1.1,0.1,1.4,0.4v0.9c-0.4-0.4-0.9-0.6-1.4-0.6c-1,0-1.7,0.7-1.7,2c0,1.2,0.8,2,1.7,2
		c0.5,0,1-0.2,1.4-0.6v0.9c-0.4,0.3-0.9,0.4-1.4,0.4c-1.4,0-2.6-1.1-2.6-2.8C86.5,122.4,87.7,121.3,89.1,121.3z"/>
	<path class="st4" d="M93.9,126.9c-1.5,0-2.5-1.1-2.5-2.8c0-1.6,1-2.8,2.5-2.8c1.5,0,2.5,1.1,2.5,2.8
		C96.3,125.8,95.3,126.9,93.9,126.9z M93.9,122.1c-1,0-1.5,0.8-1.5,2c0,1.2,0.6,2,1.5,2c1,0,1.5-0.8,1.5-2
		C95.4,123,94.8,122.1,93.9,122.1z"/>
	<path class="st4" d="M97.6,121.4h0.9v0.7c0.3-0.4,0.9-0.8,1.6-0.8c1.2,0,1.9,0.8,1.9,2v3.5H101v-3.4c0-0.7-0.4-1.3-1.2-1.3
		c-0.6,0-1.2,0.4-1.4,1v3.6h-0.9V121.4z"/>
	<path class="st4" d="M103.5,121.4h0.9v0.7c0.3-0.4,0.9-0.8,1.6-0.8c1.2,0,1.9,0.8,1.9,2v3.5h-0.9v-3.4c0-0.7-0.4-1.3-1.2-1.3
		c-0.6,0-1.2,0.4-1.4,1v3.6h-0.9V121.4z"/>
	<path class="st4" d="M109.9,124.3c0,1.2,0.8,1.8,1.8,1.8c0.6,0,1-0.1,1.5-0.5v0.8c-0.4,0.3-1,0.5-1.6,0.5c-1.5,0-2.6-1.1-2.6-2.7
		c0-1.7,1-2.8,2.4-2.8c1.4,0,2.2,1.1,2.2,2.6v0.3H109.9z M109.9,123.6h2.8c0-0.8-0.4-1.5-1.3-1.5
		C110.7,122.1,110.1,122.6,109.9,123.6z"/>
	<path class="st4" d="M117,121.3c0.5,0,1.1,0.1,1.4,0.4v0.9c-0.4-0.4-0.9-0.6-1.4-0.6c-1,0-1.7,0.7-1.7,2c0,1.2,0.8,2,1.7,2
		c0.5,0,1-0.2,1.4-0.6v0.9c-0.4,0.3-0.9,0.4-1.4,0.4c-1.4,0-2.6-1.1-2.6-2.8C114.4,122.4,115.5,121.3,117,121.3z"/>
	<path class="st4" d="M121.2,126.8h-0.9v-4.6h-1.1v-0.8h1.1V120h0.9v1.4h1.2v0.8h-1.2V126.8z"/>
	<path class="st4" d="M124,120.4c-0.3,0-0.6-0.3-0.6-0.6c0-0.3,0.3-0.6,0.6-0.6c0.3,0,0.6,0.3,0.6,0.6
		C124.6,120.1,124.3,120.4,124,120.4z M124.4,126.8h-0.9v-5.4h0.9V126.8z"/>
	<path class="st4" d="M128.1,126.9c-1.5,0-2.5-1.1-2.5-2.8c0-1.6,1-2.8,2.5-2.8c1.5,0,2.5,1.1,2.5,2.8
		C130.6,125.8,129.6,126.9,128.1,126.9z M128.1,122.1c-1,0-1.5,0.8-1.5,2c0,1.2,0.6,2,1.5,2c1,0,1.5-0.8,1.5-2
		C129.7,123,129.1,122.1,128.1,122.1z"/>
	<path class="st4" d="M131.8,121.4h0.9v0.7c0.3-0.4,0.9-0.8,1.6-0.8c1.2,0,1.9,0.8,1.9,2v3.5h-0.9v-3.4c0-0.7-0.4-1.3-1.2-1.3
		c-0.6,0-1.2,0.4-1.4,1v3.6h-0.9V121.4z"/>
	<path class="st4" d="M137.9,125.6c0.3,0,0.6,0.3,0.6,0.7c0,0.4-0.3,0.7-0.6,0.7c-0.4,0-0.7-0.3-0.7-0.7
		C137.3,125.8,137.6,125.6,137.9,125.6z"/>
	<path class="st3" d="M89.2,40.7l-2.9-7.4h1l2.3,6.2l2.3-6.2h1l-2.9,7.4H89.2z"/>
	<path class="st3" d="M95.1,37.7v3h-1v-7.4h2.7c1.5,0,2.5,0.8,2.5,2.2c0,1.4-1,2.2-2.5,2.2L95.1,37.7L95.1,37.7z M96.8,34.1h-1.8
		v2.8h1.8c1,0,1.5-0.5,1.5-1.4C98.4,34.6,97.8,34.1,96.8,34.1z"/>
	<path class="st3" d="M106.3,40.7h-0.7l-4.1-5.9v5.9h-0.9v-7.4h0.9l3.9,5.6v-5.6h0.9V40.7z"/>
	<path class="st3" d="M113.8,33.1c0.9,0,1.5,0.2,2,0.6v1c-0.6-0.6-1.2-0.8-2-0.8c-1.5,0-2.5,1.2-2.5,3c0,1.8,1,3,2.5,3
		c0.8,0,1.4-0.2,2-0.8v1c-0.5,0.4-1.1,0.6-2,0.6c-2,0-3.5-1.5-3.5-3.8S111.8,33.1,113.8,33.1z"/>
	<path class="st3" d="M119.3,40.8c-1.5,0-2.5-1.1-2.5-2.8s1-2.8,2.5-2.8c1.5,0,2.5,1.1,2.5,2.8C121.7,39.6,120.7,40.8,119.3,40.8z
		 M119.3,36c-1,0-1.5,0.8-1.5,2s0.6,2,1.5,2c1,0,1.5-0.8,1.5-2S120.2,36,119.3,36z"/>
	<path class="st3" d="M123,35.3h0.9V36c0.3-0.4,0.9-0.8,1.6-0.8c1.2,0,1.9,0.8,1.9,2v3.5h-0.9v-3.4c0-0.7-0.4-1.3-1.2-1.3
		c-0.6,0-1.2,0.4-1.4,1v3.6H123V35.3z"/>
	<path class="st3" d="M128.9,35.3h0.9V36c0.3-0.4,0.9-0.8,1.6-0.8c1.2,0,1.9,0.8,1.9,2v3.5h-0.9v-3.4c0-0.7-0.4-1.3-1.2-1.3
		c-0.6,0-1.2,0.4-1.4,1v3.6h-0.9V35.3z"/>
	<path class="st3" d="M135.3,38.1c0,1.2,0.8,1.8,1.8,1.8c0.6,0,1-0.1,1.5-0.5v0.8c-0.4,0.3-1,0.5-1.6,0.5c-1.5,0-2.6-1.1-2.6-2.7
		c0-1.7,1-2.8,2.4-2.8c1.4,0,2.2,1.1,2.2,2.6v0.3H135.3z M135.3,37.4h2.8c0-0.8-0.4-1.5-1.3-1.5C136.1,36,135.5,36.4,135.3,37.4z"/>
	<path class="st3" d="M142.4,35.2c0.5,0,1.1,0.1,1.4,0.4v0.9c-0.4-0.4-0.9-0.6-1.4-0.6c-1,0-1.7,0.7-1.7,2s0.8,2,1.7,2
		c0.5,0,1-0.2,1.4-0.6v0.9c-0.4,0.3-0.9,0.4-1.4,0.4c-1.4,0-2.6-1.1-2.6-2.8C139.8,36.3,140.9,35.2,142.4,35.2z"/>
	<path class="st3" d="M146.6,40.7h-0.9v-4.6h-1.1v-0.8h1.1v-1.4h0.9v1.4h1.2v0.8h-1.2V40.7z"/>
	<path class="st3" d="M149.4,34.3c-0.3,0-0.6-0.3-0.6-0.6c0-0.3,0.3-0.6,0.6-0.6c0.3,0,0.6,0.3,0.6,0.6
		C150,34,149.7,34.3,149.4,34.3z M149.8,40.7h-0.9v-5.4h0.9V40.7z"/>
	<path class="st3" d="M153.5,40.8c-1.5,0-2.5-1.1-2.5-2.8s1-2.8,2.5-2.8c1.5,0,2.5,1.1,2.5,2.8C156,39.6,155,40.8,153.5,40.8z
		 M153.5,36c-1,0-1.5,0.8-1.5,2s0.6,2,1.5,2c1,0,1.5-0.8,1.5-2S154.5,36,153.5,36z"/>
	<path class="st3" d="M157.2,35.3h0.9V36c0.3-0.4,0.9-0.8,1.6-0.8c1.2,0,1.9,0.8,1.9,2v3.5h-0.9v-3.4c0-0.7-0.4-1.3-1.2-1.3
		c-0.6,0-1.2,0.4-1.4,1v3.6h-0.9V35.3z"/>
	<path class="st5" d="M298.8,133.6h-97.6v20.4h97.6V133.6z"/>
	<path class="st3" d="M243.2,140.7c0.7,0,1.2,0.2,1.6,0.5v0.8c-0.5-0.4-1-0.6-1.6-0.6c-1.2,0-2,0.9-2,2.3c0,1.4,0.8,2.3,2,2.3
		c0.6,0,1.1-0.2,1.6-0.6v0.8c-0.4,0.3-0.9,0.5-1.6,0.5c-1.6,0-2.7-1.2-2.7-3C240.4,141.9,241.6,140.7,243.2,140.7z"/>
	<path class="st3" d="M246.6,146.6h-0.7v-6.2h0.7V146.6z"/>
	<path class="st3" d="M249.5,146.7c-1.2,0-1.9-0.9-1.9-2.2c0-1.3,0.8-2.2,1.9-2.2c1.2,0,1.9,0.9,1.9,2.2S250.7,146.7,249.5,146.7z
		 M249.5,142.9c-0.8,0-1.2,0.6-1.2,1.6c0,0.9,0.5,1.6,1.2,1.6c0.8,0,1.2-0.6,1.2-1.6C250.7,143.6,250.3,142.9,249.5,142.9z"/>
	<path class="st3" d="M252.2,145.5c0.4,0.4,0.9,0.6,1.4,0.6c0.5,0,0.9-0.2,0.9-0.6c0-0.3-0.2-0.5-0.6-0.6l-0.6-0.2
		c-0.6-0.2-1.1-0.5-1.1-1.2c0-0.7,0.7-1.2,1.5-1.2c0.5,0,0.9,0.1,1.3,0.4v0.7c-0.4-0.3-0.7-0.5-1.3-0.5c-0.4,0-0.8,0.2-0.8,0.6
		c0,0.3,0.2,0.5,0.6,0.6l0.6,0.2c0.6,0.2,1,0.6,1,1.2c0,0.8-0.7,1.2-1.6,1.2c-0.6,0-1.1-0.2-1.4-0.4V145.5z"/>
	<path class="st3" d="M256.6,144.6c0,1,0.6,1.5,1.4,1.5c0.5,0,0.8-0.1,1.2-0.4v0.7c-0.3,0.3-0.8,0.4-1.3,0.4c-1.2,0-2-0.8-2-2.2
		c0-1.3,0.8-2.2,1.9-2.2c1.1,0,1.7,0.8,1.7,2.1v0.3H256.6z M256.6,144.1h2.2c0-0.6-0.3-1.2-1-1.2
		C257.2,142.9,256.8,143.3,256.6,144.1z"/>
	<path class="st1" d="M354.7,169.8v1c0,4.9-1.6,9.4-4.2,13c-4,5.6-10.6,9.2-18,9.2h-292c-7.4,0-14-3.6-18-9.2
		c-2.7-3.7-4.2-8.2-4.2-13v-1H354.7z"/>
	<path class="st6" d="M148.7,169.8v0.2c0,1.8,1.2,3.2,2.6,3.2H220c1.5,0,2.6-1.4,2.6-3.2v-0.2H148.7z"/>
	<path class="st7" d="M284,125.9c-1.2,2.3-2.4,4.3-3.5,6c-8.4,12.7-14.6,10-18,6.1c-1.2-1.4-2-2.8-2.7-4.2c-1-2.2-1.3-4.1-1.5-4.9
		l1.6,0.4c1.8,0.8,4.9,2,7.2,1.7c0.3,0,0.6-0.1,0.8-0.2c2-0.8,4.8-4.8,6.7-7.8c1.2-2,2.1-3.6,2.1-3.6L284,125.9z"/>
	<path class="st8" d="M284,125.9c-1.2,2.3-2.4,4.3-3.5,6c-2.4-2.6-4.5-6.5-5.9-9.1c1.2-2,2.1-3.6,2.1-3.6L284,125.9z"/>
	<path class="st9" d="M268.9,131.3c0,0-1.7,5.2-9.1,2.5c-1-2.2-1.3-4.1-1.5-4.9l1.6,0.4c1.8,0.8,4.9,2,7.2,1.7L268.9,131.3z"/>
	<path class="st7" d="M337.7,144.5c-1.7,9.8-9.6,2.6-10.3-5c-0.2-1.7-0.2-3.5-0.2-5.2c0-1.6,0.1-3.1,0.2-4.5c0-0.3,0-0.5,0.1-0.8
		c0.3-3.3,0.7-5.6,0.7-5.6l5.2-6.4c0,0,0.6,1.8,1.4,4.5c0.7,2.5,1.6,5.9,2.2,9.5c0.2,1.1,0.4,2.2,0.5,3.2
		C338,137.9,338.2,141.6,337.7,144.5z"/>
	<path class="st8" d="M334.7,121.6c-1.5,2.8-4.1,6.6-7.3,8.3c0-0.3,0-0.5,0.1-0.8c0.3-3.3,0.7-5.6,0.7-5.6l5.2-6.4
		C333.4,117,334,118.8,334.7,121.6z"/>
	<path class="st9" d="M337.5,134.3c-1.9,1.1-8,0.6-10.3,0c0-1.9,0.1-3.7,0.3-5.2l9.5,2C337.2,132.1,337.3,133.2,337.5,134.3z"/>
	<path class="st10" d="M282.9,101.6c0,0-7.5,13.3-8.7,17.8c0,0,5.1,8.6,9.8,9.5l1.7-5.8C285.7,123.1,285.9,104.8,282.9,101.6z"/>
	<path class="st10" d="M299.4,94.8l-16.5,6.8l7.3,56.5c0,0,22.7,3.2,34.4,0v-56.5l-16-7.2L299.4,94.8z"/>
	<path class="st11" d="M296,125.6c2.8,2.9,6.6,5.6,12.1,7.2c0.2,0.1,0.4-0.1,0.4-0.3c0,0,0,0,0,0c0-0.2-0.1-0.3-0.3-0.4
		c-5.3-1.5-9.1-4.2-11.7-7c-0.2-0.2-0.6-0.1-0.6,0.2c0,0,0,0,0,0C295.9,125.4,296,125.6,296,125.6z"/>
	<path class="st11" d="M296.2,120.3L296.2,120.3c0,0.1,0,0.1,0,0.2c0.2,0.3,0.4,0.6,0.6,1c1.3,1.9,3.8,4.3,8.1,5.5c0,0,0.1,0,0.1,0
		c0.1,0,0.3-0.1,0.3-0.2c0-0.2-0.1-0.4-0.2-0.4c-4.7-1.3-7.1-4.1-8.4-6.2C296.6,119.8,296.2,119.9,296.2,120.3z"/>
	<path class="st11" d="M296.8,105.5C296.8,105.6,296.8,105.6,296.8,105.5c0,0.2,0.2,0.3,0.4,0.3c3.9-0.8,7-2.5,9.1-4
		c2.8-2.1,4.3-4.1,4.4-4.2c0.1-0.1,0.1-0.3-0.1-0.5c-0.1-0.1-0.3-0.1-0.5,0.1c-0.1,0.1-4.8,6.3-13.1,7.9
		C296.9,105.2,296.8,105.4,296.8,105.5z"/>
	<path class="st12" d="M271.4,194.2l1.8-9.1h-6l-1.5,8.6C265.7,193.7,268.1,195.2,271.4,194.2z"/>
	<path class="st13" d="M267.3,194.1c0,0-1.3-1.8-2.4-1.7c-1,0.1-9.1,6.6-11.8,7.2c-2.8,0.6-2.2,2.6-1.7,3.6c0.5,1,22.1-0.6,22.1-0.6
		s0.5-6.4-0.2-8.4C272.6,192.2,269.5,194.5,267.3,194.1z"/>
	<defs>
		<filter id="Adobe_OpacityMaskFilter" filterUnits="userSpaceOnUse" x="265.9" y="197.8" width="2.9" height="4.1">
			<feColorMatrix  type="matrix" values="1 0 0 0 0  0 1 0 0 0  0 0 1 0 0  0 0 0 1 0"/>
		</filter>
	</defs>
	<mask maskUnits="userSpaceOnUse" x="265.9" y="197.8" width="2.9" height="4.1" id="mask0_764_413_1_">
		<path class="st14" d="M267.3,194.1c0,0-1.3-1.8-2.4-1.7c-1,0.1-9.1,6.6-11.8,7.2c-2.8,0.6-2.2,2.6-1.7,3.6
			c0.5,1,22.1-0.6,22.1-0.6s0.5-6.4-0.2-8.4C272.6,192.2,269.5,194.5,267.3,194.1z"/>
	</mask>
	<g class="st15">
		<path class="st16" d="M266.3,198l2,3.6"/>
	</g>
	<defs>
		<filter id="Adobe_OpacityMaskFilter_1_" filterUnits="userSpaceOnUse" x="268.1" y="197.6" width="2.9" height="4.1">
			<feColorMatrix  type="matrix" values="1 0 0 0 0  0 1 0 0 0  0 0 1 0 0  0 0 0 1 0"/>
		</filter>
	</defs>
	<mask maskUnits="userSpaceOnUse" x="268.1" y="197.6" width="2.9" height="4.1" id="mask1_764_413_1_">
		<path class="st17" d="M267.3,194.1c0,0-1.3-1.8-2.4-1.7c-1,0.1-9.1,6.6-11.8,7.2c-2.8,0.6-2.2,2.6-1.7,3.6
			c0.5,1,22.1-0.6,22.1-0.6s0.5-6.4-0.2-8.4C272.6,192.2,269.5,194.5,267.3,194.1z"/>
	</mask>
	<g class="st18">
		<path class="st16" d="M268.5,197.8l2,3.6"/>
	</g>
	<defs>
		<filter id="Adobe_OpacityMaskFilter_2_" filterUnits="userSpaceOnUse" x="247.8" y="197.2" width="12.6" height="8.8">
			<feColorMatrix  type="matrix" values="1 0 0 0 0  0 1 0 0 0  0 0 1 0 0  0 0 0 1 0"/>
		</filter>
	</defs>
	<mask maskUnits="userSpaceOnUse" x="247.8" y="197.2" width="12.6" height="8.8" id="mask2_764_413_1_">
		<path class="st19" d="M267.3,194.1c0,0-1.3-1.8-2.4-1.7c-1,0.1-9.1,6.6-11.8,7.2c-2.8,0.6-2.2,2.6-1.7,3.6
			c0.5,1,22.1-0.6,22.1-0.6s0.5-6.4-0.2-8.4C272.6,192.2,269.5,194.5,267.3,194.1z"/>
	</mask>
	<g class="st20">
		<path class="st21" d="M256.6,197.8c0,0,3.4-0.7,3.6,4c0.3,4.6,0,4.2,0,4.2l-12.5-3.2l3.2-5.6L256.6,197.8z"/>
	</g>
	<defs>
		<filter id="Adobe_OpacityMaskFilter_3_" filterUnits="userSpaceOnUse" x="250.1" y="200.4" width="24.9" height="4.6">
			<feColorMatrix  type="matrix" values="1 0 0 0 0  0 1 0 0 0  0 0 1 0 0  0 0 0 1 0"/>
		</filter>
	</defs>
	<mask maskUnits="userSpaceOnUse" x="250.1" y="200.4" width="24.9" height="4.6" id="mask3_764_413_1_">
		<path class="st22" d="M267.3,194.1c0,0-1.3-1.8-2.4-1.7c-1,0.1-9.1,6.6-11.8,7.2c-2.8,0.6-2.2,2.6-1.7,3.6
			c0.5,1,22.1-0.6,22.1-0.6s0.5-6.4-0.2-8.4C272.6,192.2,269.5,194.5,267.3,194.1z"/>
	</mask>
	<g class="st23">
		<path class="st24" d="M251,202.1c0,0,19.5-0.4,22.6-1.7l1.4,4.2l-24.9,0.4L251,202.1z"/>
	</g>
	<path class="st25" d="M266.3,188.5l6.8,0.4c0,0,7.6-26.9,9-33.9c0,0,5.3,18.3,17.1,15.7c8.8-1.9,3.1-10.9-0.4-18.2
		c0,0-10.3-25.7-16.8-24.7"/>
	<path class="st25" d="M296.2,170.9c0,0,12,2.3,28-0.6c-1.3-6.6-4.3-11.8-9.2-16.4l-21.5,1.6C292.2,160.6,293.2,165.7,296.2,170.9z"
		/>
	<path class="st13" d="M292.8,192.1c0,0-2.8-0.6-3.6-0.6c-0.8,0.1-5.7,6.1-7.5,6.5c-3.2,0.8-2.9,5.7-1,5.9
		c5.6,0.5,15.1-2.3,15.1-2.3s0.6-6.4,0.1-8.4C295.5,191.3,294.4,192.6,292.8,192.1z"/>
	<path class="st12" d="M294.5,192.6l2.1-8.2h-6l-1.4,7.9C289.2,192.3,291.1,193.6,294.5,192.6z"/>
	<defs>
		<filter id="Adobe_OpacityMaskFilter_4_" filterUnits="userSpaceOnUse" x="290.3" y="198.4" width="2.9" height="3.7">
			<feColorMatrix  type="matrix" values="1 0 0 0 0  0 1 0 0 0  0 0 1 0 0  0 0 0 1 0"/>
		</filter>
	</defs>
	<mask maskUnits="userSpaceOnUse" x="290.3" y="198.4" width="2.9" height="3.7" id="mask4_764_413_1_">
		<path class="st26" d="M292.8,192.1c0,0-2.8-0.6-3.6-0.6c-0.8,0.1-5.7,6.1-7.5,6.5c-3.2,0.8-2.9,5.7-1,5.9
			c5.6,0.5,15.1-2.3,15.1-2.3s0.6-6.4,0.1-8.4C295.5,191.3,294.4,192.6,292.8,192.1z"/>
	</mask>
	<g class="st27">
		<path class="st16" d="M290.7,198.6l2.1,3.1"/>
	</g>
	<defs>
		<filter id="Adobe_OpacityMaskFilter_5_" filterUnits="userSpaceOnUse" x="292.1" y="197.7" width="2.9" height="3.7">
			<feColorMatrix  type="matrix" values="1 0 0 0 0  0 1 0 0 0  0 0 1 0 0  0 0 0 1 0"/>
		</filter>
	</defs>
	<mask maskUnits="userSpaceOnUse" x="292.1" y="197.7" width="2.9" height="3.7" id="mask5_764_413_1_">
		<path class="st28" d="M292.8,192.1c0,0-2.8-0.6-3.6-0.6c-0.8,0.1-5.7,6.1-7.5,6.5c-3.2,0.8-2.9,5.7-1,5.9
			c5.6,0.5,15.1-2.3,15.1-2.3s0.6-6.4,0.1-8.4C295.5,191.3,294.4,192.6,292.8,192.1z"/>
	</mask>
	<g class="st29">
		<path class="st16" d="M292.5,198l2.1,3.1"/>
	</g>
	<defs>
		<filter id="Adobe_OpacityMaskFilter_6_" filterUnits="userSpaceOnUse" x="277.8" y="198" width="11.1" height="8.3">
			<feColorMatrix  type="matrix" values="1 0 0 0 0  0 1 0 0 0  0 0 1 0 0  0 0 0 1 0"/>
		</filter>
	</defs>
	<mask maskUnits="userSpaceOnUse" x="277.8" y="198" width="11.1" height="8.3" id="mask6_764_413_1_">
		<path class="st30" d="M292.8,192.1c0,0-2.8-0.6-3.6-0.6c-0.8,0.1-5.7,6.1-7.5,6.5c-3.2,0.8-2.9,5.7-1,5.9
			c5.6,0.5,15.1-2.3,15.1-2.3s0.6-6.4,0.1-8.4C295.5,191.3,294.4,192.6,292.8,192.1z"/>
	</mask>
	<g class="st31">
		<path class="st21" d="M280.9,198c0,0,5.6-0.5,8,7.7l-10.2,0.6l-1-6.8L280.9,198z"/>
	</g>
	<defs>
		<filter id="Adobe_OpacityMaskFilter_7_" filterUnits="userSpaceOnUse" x="279" y="199.1" width="18.3" height="7.6">
			<feColorMatrix  type="matrix" values="1 0 0 0 0  0 1 0 0 0  0 0 1 0 0  0 0 0 1 0"/>
		</filter>
	</defs>
	<mask maskUnits="userSpaceOnUse" x="279" y="199.1" width="18.3" height="7.6" id="mask7_764_413_1_">
		<path class="st32" d="M292.8,192.1c0,0-2.8-0.6-3.6-0.6c-0.8,0.1-5.7,6.1-7.5,6.5c-3.2,0.8-2.9,5.7-1,5.9
			c5.6,0.5,15.1-2.3,15.1-2.3s0.6-6.4,0.1-8.4C295.5,191.3,294.4,192.6,292.8,192.1z"/>
	</mask>
	<g class="st33">
		<path class="st24" d="M279.4,202.8c0,0,12.9-0.8,17.8-3.7l-0.7,4.9l-10.7,2.6l-6.9-1.1L279.4,202.8z"/>
	</g>
	<path class="st34" d="M322.7,170.7c-1.5,0.3-2.9,0.3-4.3,0c-0.4-0.1-0.8-0.2-1.3-0.4c-8-2.8-11.6-15.4-11.6-15.4
		c-1.4,7-9.3,33.9-9.3,33.9l-1.2-0.2l-0.9-0.1l-4.7-0.6c-0.9-27.6,6.1-58.6,16-60.2c6.4-1,16.8,24.7,16.8,24.7
		C325.8,159.8,331.5,168.8,322.7,170.7z"/>
	<path class="st10" d="M324.6,101.6l10.7,15.5c0,0-4.8,9-9.4,9.9c0,0-4.8-8.5-5.4-12.8C319.9,109.9,323,102,324.6,101.6z"/>
	<path class="st35" d="M366.6,170.3c-1.4,5.6-5.5,9.9-11.7,12.4c-1.6,0.6-3.2,1.1-4.6,1.4c0-0.1,0.1-0.1,0.1-0.2
		c1-1.3,1.8-2.8,2.4-4.3c4.1-1.5,8.7-4.4,10.2-10.2c1.4-5.5-0.9-13.8-5.8-21c-3.9-5.8-12.8-15.7-28.4-17.6
		c-13.6-1.7-22.4,0.4-30.2,2.2c-6.6,1.5-12.9,3-20.5,1.7c-5.6-1-9.9-2.4-13.7-3.7c-7-2.3-11.6-3.8-19-0.8
		c-12.4,5.1-17.9,26.1-18,26.3l-3.5-0.9c0.2-0.9,6-23,20.1-28.8c8.6-3.5,14.3-1.6,21.5,0.8c3.7,1.2,7.9,2.6,13.2,3.5
		c6.9,1.2,12.6-0.1,19.1-1.6c8.1-1.9,17.2-4,31.5-2.3c6.6,0.8,12.8,3.1,18.4,6.8c4.9,3.2,9.2,7.5,12.5,12.4
		C365.8,154.5,368.2,163.7,366.6,170.3z"/>
	<path class="st35" d="M193.4,189.7l8.1-25.5c3.4-10.9,15-16.9,25.9-13.4c10.9,3.4,16.9,15,13.4,25.9l-8.1,25.5
		C216.4,196.9,209.8,194.8,193.4,189.7z"/>
	<path class="st8" d="M256.6,129.3c0,0,0.7-1.6,2.1-3.8c0.7-1.1,2.4-1.6,2.5-0.3c0.1,1-0.6,1.8-0.8,2.8c0,0,0.4-0.6,1.2-2.1
		c0.7-1.4,1.7-1.3,1.9-0.2c0.1,1-0.1,0.9-0.4,1.7c-0.3,1-0.8,2.2-0.8,2.2s0.3-1.4,1.5-3c0.5-0.7,1.1-1.6,1.9-0.4
		c0.4,0.6-0.1,2.1-0.6,3.8c0,0,0.9-2.3,2-2.8c0.9-0.5,1.3-0.1,1,1.2c-0.4,1.6-0.7,2-1.1,3c-0.3,0.9-1.6,2.3-2.6,2
		c-1-0.3-1.2-1-1.9-1.1c-0.7,0-1.7,0-2.2-0.4c-0.5-0.4-0.9-0.5-1.7-0.5C258.1,131.3,256.6,130.3,256.6,129.3z"/>
	<path class="st8" d="M326.4,130.8c0,0,0.4-1.7,1.5-4c0.5-1.2,1.9-2.1,2.3-0.8c0.3,1-0.1,2-0.1,3c0,0,0.3-0.6,0.8-2.2
		c0.5-1.5,1.5-1.5,1.8-0.5c0.3,0.9,0,0.9-0.1,1.7c-0.2,1-0.4,2.3-0.4,2.3s0.1-1.5,1.1-3.2c0.4-0.8,0.8-1.7,1.8-0.7
		c0.5,0.5,0.2,2.1,0,3.9c0,0,0.2-2.1,1.2-2.8c0.8-0.6,1.6-0.6,1.5,0.7c-0.2,1.7-0.4,2.1-0.6,3.1c-0.2,1-1.2,2.5-2.2,2.4
		c-1-0.2-1.3-0.8-2-0.8c-0.7,0.1-1.7,0.3-2.2-0.1c-0.5-0.3-1-0.4-1.8-0.3C328.2,132.6,326.5,131.8,326.4,130.8z"/>
	<path class="st36" d="M189.4,214.3c0,0.7-0.3,1.3-0.7,1.8c-0.5,0.5-1.1,0.7-1.8,0.7h-10.1v-5.1h10.1
		C188.3,211.8,189.4,212.9,189.4,214.3z"/>
	<path class="st36" d="M189.4,232.3c0,0.7-0.3,1.3-0.7,1.8c-0.5,0.5-1.1,0.7-1.8,0.7h-10.1v-5.1h10.1
		C188.3,229.8,189.4,230.9,189.4,232.3z"/>
	<path class="st37" d="M181.4,211.8h-4.6v5.1h4.6V211.8z"/>
	<path class="st37" d="M181.4,229.8h-4.6v5.1h4.6V229.8z"/>
	<path class="st35" d="M136.7,220.3l-0.1,4c-41.9-1.5-74.4-4.5-96.5-9.1c-19-3.9-30.9-8.9-36.4-15.4c-2.8-3.3-4-7.1-3.5-11.2
		c0.8-6.9,7-12,18.3-15.2c0.2,1.4,0.5,2.7,0.9,3.9c-7.6,2.2-14.4,5.8-15.1,11.8c-0.4,3,0.5,5.6,2.6,8.1c4.8,5.6,16.3,10.4,34.2,14
		C62.8,215.9,95,218.9,136.7,220.3z"/>
	<path class="st35" d="M176.8,243.9H150c-11.4,0-20.6-9.2-20.6-20.6c0-11.4,9.2-20.6,20.6-20.6h26.7
		C176.8,219.8,176.8,226.7,176.8,243.9z"/>
	<path class="st7" d="M309.3,94.6c0,0-0.7-5.1,2.3-14c0,0-0.5-0.2-0.5-0.3c0.4-1.2,0.8-2.4,1.3-3.4c0,0,0,0,0,0L299.8,84
		c0.2,2.9-1.1,8.4-1.8,10.7c0,0-2.7,5.1,3,5.5C305,100.6,309.3,94.6,309.3,94.6z"/>
	<path class="st38" d="M299.4,88.1l7.2-1.3c-0.7,2.2-2.8,4.7-7.7,4.7C298.8,91.5,299.4,89,299.4,88.1z"/>
	<path class="st39" d="M292.2,62.4c-1.6,2.8-2.4,9,2.2,7.9C299,69.2,294.9,57.6,292.2,62.4z"/>
	<path class="st7" d="M312.8,71c-1.2,7.8-1.7,12.2-6,15.8c-6.5,5.5-15.6,1.1-16.8-6.9c-1.1-7.2,1-18.7,9-21.1
		C306.8,56.5,313.9,63.2,312.8,71z"/>
	<path class="st39" d="M315.2,60.8c-0.7-4.4-6-7.3-9.3-5.3c-0.5,0.3,2.8,1.8,2.4,1.6l-0.3,6.4c0.5-0.1,1.3,0.6,1.7,2
		c0,0-1.9,8.2,1.2,11.9C319.7,74.2,320.8,63.1,315.2,60.8z"/>
	<path class="st7" d="M315.3,77.8c-0.8,2-2.4,3.4-4.1,4c-2.4,1-3.9-1.2-3.5-3.6c0.4-2.2,2.1-5.3,4.7-5.2
		C314.9,73,316.2,75.5,315.3,77.8z"/>
	<path class="st40" d="M313.7,75.4c-0.3-0.5-0.9-0.7-1.5-0.6c-0.6,0.1-1,0.4-1.4,0.9c-0.4,0.5-0.8,1.1-0.9,1.8"/>
	<path class="st39" d="M318.3,69.4c1-4.1,0.2-9-2.8-12.2c-1.5-1.6-3.5-3.4-5.8-3.8c-0.2,0-0.4-0.1-0.6-0.1c-5.9-0.3-15.3-1-21.8-3.3
		c5.1,10,13.8,14.1,13.8,14.1"/>
	<path class="st39" d="M298.8,62.6c0,0-7.2-4-11.7-3.9c2.4-0.5,8,0,9.2,0.4C297.4,59.4,298.8,62.6,298.8,62.6z"/>
	<path class="st39" d="M294,57.6c0,0-3.7-1.6-5.6-4.4c0.5,1.9,3,4.8,5.4,6C296.2,60.4,294,57.6,294,57.6z"/>
	<path class="st39" d="M310.5,54c0,0-11.7-0.8-19.9-5.3c4,3.3,9.5,5.4,12.2,6.4C305.5,56.1,310.5,54,310.5,54z"/>
	<path class="st39" d="M301.5,64.1c0,0-7.3-1.3-10.7-3.7c1.7,0.4,4.7,0.1,4.7,0.1S301.2,61.5,301.5,64.1z"/>
	<path class="st41" d="M399.6,41.5v22.9c0,3-2.5,5.5-5.5,5.5h-41.6l-12.6,4.5c-1.3,0.5-2.5-0.8-2-2.1l4.7-12.3V41.5
		c0-3,2.5-5.5,5.5-5.5h46C397.1,36,399.6,38.4,399.6,41.5z"/>
	<path class="st3" d="M359.5,57.6c2.2,0,4-1.8,4-4c0-2.2-1.8-4-4-4c-2.2,0-4,1.8-4,4C355.5,55.8,357.3,57.6,359.5,57.6z"/>
	<path class="st3" d="M372,57.6c2.2,0,4-1.8,4-4c0-2.2-1.8-4-4-4c-2.2,0-4,1.8-4,4C368.1,55.8,369.8,57.6,372,57.6z"/>
	<path class="st3" d="M384.6,57.6c2.2,0,4-1.8,4-4c0-2.2-1.8-4-4-4c-2.2,0-4,1.8-4,4C380.6,55.8,382.4,57.6,384.6,57.6z"/>
</g>
</svg>
