<?xml version="1.0" encoding="utf-8"?>
<!-- Generator: Adobe Illustrator 25.3.1, SVG Export Plug-In . SVG Version: 6.00 Build 0)  -->
<svg version="1.1" id="圖層_1" xmlns="http://www.w3.org/2000/svg" xmlns:xlink="http://www.w3.org/1999/xlink" x="0px" y="0px"
	 viewBox="0 0 100 100" style="enable-background:new 0 0 100 100;" xml:space="preserve">
<style type="text/css">
	.st0{fill:#CCE1F7;}
</style>
<path class="st0" d="M95.5,67.6l3-15.3l-14.3-2.8c0-3.8-0.7-7.5-1.9-11.2l11.8-7.9l-8.7-12.9l-11.3,7.6c-3.4-3.4-7.3-6-11.6-7.8
	L65.4,3L50.2,0l-2.9,14.7c-3.1,0.2-6.2,0.8-9.3,1.8L30.1,4.8l-12.9,8.7l7.6,11.3c-3.4,3.4-6,7.3-7.8,11.6L4.5,33.8l-3,15.3l12.9,2.5
	c0.2,4,1.1,8,2.7,11.8L5.9,71l8.7,12.9L26.3,76c3.4,2.9,7.2,5.2,11.4,6.6L34.9,97l15.2,3l3.1-15.6c3.4-0.4,6.7-1.2,9.9-2.6l7.6,11.3
	l12.9-8.7l-7.9-11.8c2.1-2.4,3.8-5.1,5.2-7.9L95.5,67.6z M57.2,61.5c-6.5,4.4-15.4,2.6-19.8-3.9c-4.4-6.5-2.6-15.4,3.9-19.8
	c6.5-4.4,15.4-2.6,19.8,3.9C65.5,48.2,63.7,57.1,57.2,61.5z"/>
</svg>
