<?xml version="1.0" encoding="utf-8"?>
<!-- Generator: Adobe Illustrator 25.3.1, SVG Export Plug-In . SVG Version: 6.00 Build 0)  -->
<svg version="1.1" id="圖層_1" xmlns="http://www.w3.org/2000/svg" xmlns:xlink="http://www.w3.org/1999/xlink" x="0px" y="0px"
	 viewBox="0 0 300 210" style="enable-background:new 0 0 300 210;" xml:space="preserve">
<style type="text/css">
	.st0{fill:#F5F5F5;}
	.st1{fill:#E1E1E1;}
	.st2{fill:#2E2E2C;}
	.st3{fill:#161415;}
	.st4{fill:#1A2E35;}
	.st5{opacity:0.6;}
	.st6{fill:#FFFFFF;}
	.st7{opacity:0.4;}
	.st8{opacity:0.2;}
	.st9{opacity:0.8;}
	.st10{fill:#007CFF;}
	.st11{opacity:0.5;}
	.st12{opacity:0.3;}
	.st13{opacity:0.1;}
	.st14{fill:#CCCCCC;}
	.st15{fill:#F54945;}
	.st16{opacity:0.6;fill:#FFFFFF;enable-background:new    ;}
	.st17{fill:#E2B868;}
	.st18{opacity:0.2;enable-background:new    ;}
	.st19{fill:#EEC8AF;}
	.st20{fill:#2FAEAD;}
	.st21{fill:#5FD3D0;}
	.st22{fill:none;stroke:#FFFFFF;stroke-width:3.1773;stroke-miterlimit:10;}
	.st23{fill:#1D9390;}
	.st24{fill:#383838;}
	.st25{opacity:0.4;enable-background:new    ;}
	.st26{fill:#404041;}
	.st27{fill:#29B473;}
	
		.st28{opacity:0.2;fill:none;stroke:#000000;stroke-width:1.1274;stroke-linecap:round;stroke-linejoin:round;stroke-miterlimit:10;enable-background:new    ;}
	.st29{fill:#3C2612;}
	.st30{opacity:0.7;fill:#FFFFFF;enable-background:new    ;}
	.st31{opacity:0.5;fill:#FFFFFF;enable-background:new    ;}
	.st32{opacity:0.3;enable-background:new    ;}
	.st33{opacity:0.3;fill:#FFFFFF;enable-background:new    ;}
	.st34{fill:#F88667;}
	.st35{fill:#C2C2C2;}
</style>
<g>
	<ellipse class="st0" cx="149.9" cy="192.9" rx="149.9" ry="16.3"/>
	<path class="st1" d="M66,187.4c1,0,2-0.6,2.4-1.6c0.6-1.3,0-2.9-1.4-3.4c-1.3-0.6-2.9,0-3.4,1.4c-0.1,0.2-0.2,0.4-0.2,0.7
		l-21.9-9.4c0.1-0.2,0.3-0.4,0.4-0.6c0.6-1.3,0-2.9-1.4-3.4c-1.3-0.6-2.9,0-3.4,1.4c-0.4,1-0.2,2.1,0.5,2.8c-1,0-2,0.6-2.4,1.6
		c-0.6,1.3,0,2.9,1.4,3.4c1.3,0.6,2.9,0,3.4-1.4c0.1-0.2,0.1-0.4,0.2-0.7l21.8,9.3c-0.1,0.2-0.3,0.4-0.4,0.6c-0.6,1.3,0,2.9,1.4,3.4
		c1.3,0.6,2.9,0,3.4-1.4C66.9,189.2,66.7,188.1,66,187.4z"/>
	<path class="st1" d="M37.6,187.4c-1,0-2-0.6-2.4-1.6c-0.6-1.3,0-2.9,1.4-3.4c1.3-0.6,2.9,0,3.4,1.4c0.1,0.2,0.1,0.4,0.2,0.7
		l21.9-9.4c-0.1-0.2-0.3-0.4-0.4-0.6c-0.6-1.3,0-2.9,1.4-3.4c1.3-0.6,2.9,0,3.4,1.4c0.4,1,0.2,2.1-0.5,2.8c1,0,2,0.6,2.4,1.6
		c0.6,1.3,0,2.9-1.4,3.4c-1.3,0.6-2.9,0-3.4-1.4c-0.1-0.2-0.2-0.4-0.2-0.7l-21.9,9.3c0.1,0.2,0.3,0.4,0.4,0.6c0.6,1.3,0,2.9-1.4,3.4
		c-1.3,0.6-2.9,0-3.4-1.4C36.7,189.2,36.9,188.1,37.6,187.4z"/>
	<path class="st1" d="M65,161.8c-0.7-2.3,5.5-10.5,3-16.2c-1.4-3.2-8.5-6.9-16.2-6.9s-14.8,3.7-16.2,6.9c-2.5,5.8,3.6,14,3,16.2l0,0
		c-0.7,2.4,0.9,4.8,3.4,5.2c0.1,1.4,0.9,2.5,1.8,2.5c0.6,0,1.2-0.5,1.5-1.2c0.2,1.2,0.9,2,1.8,2c0.6,0,1.2-0.5,1.5-1.2
		c0.2,1.2,0.9,2,1.8,2c0.6,0,1.1-0.4,1.5-1.1c0.3,0.7,0.9,1.1,1.5,1.1c0.9,0,1.6-0.9,1.8-2c0.3,0.7,0.9,1.2,1.5,1.2
		c0.9,0,1.6-0.9,1.8-2c0.3,0.7,0.9,1.2,1.5,1.2c1,0,1.8-1.1,1.8-2.5C64.1,166.7,65.8,164.3,65,161.8C65,161.9,65,161.8,65,161.8z
		 M51.8,158.7c0,0,4.3,2.8,2.1,4.5c-1.3,1.1-2.1-0.8-2.1-0.8s-0.8,1.9-2.1,0.8C47.5,161.5,51.8,158.7,51.8,158.7z M41.1,155.5
		c0-1.8,1.8-3.2,4.1-3.2c2.2,0,4.1,1.4,4.1,3.2s-1.8,3.2-4.1,3.2C42.9,158.6,41.1,157.2,41.1,155.5z M58.4,158.6
		c-2.2,0-4.1-1.4-4.1-3.2s1.8-3.2,4.1-3.2c2.2,0,4.1,1.4,4.1,3.2C62.5,157.2,60.7,158.6,58.4,158.6z"/>
	<path class="st1" d="M34.9,119.3L5.2,123c-3.5,0.5-6.2-3.1-4.8-6.5L12,89.1l11.6-27.5c1.4-3.3,5.9-3.9,8.1-1l18,23.8l18,23.8
		c2.2,2.9,0.4,7-3.2,7.5L34.9,119.3z"/>
	<path class="st0" d="M34.4,115l-27.7,3.4c-1.2,0.2-2.1-1.1-1.7-2.2l10.8-25.6l10.7-25.3c0.5-1.3,2.3-1.5,3.1-0.4l16.6,21.9
		l16.9,22.3c0.7,0.9,0.1,2.3-1,2.4L34.4,115z"/>
	<path class="st1" d="M26.5,83.8l6.7-0.8l0.9,16.5l-4.4,0.6L26.5,83.8z M30.5,108c-0.7-0.5-1.2-1.3-1.3-2.2s0.1-1.7,0.7-2.4
		c0.6-0.7,1.4-1.1,2.4-1.2c1-0.1,1.9,0.1,2.6,0.6c0.7,0.5,1.1,1.2,1.2,2.1c0.1,0.9-0.1,1.7-0.7,2.4c-0.6,0.7-1.4,1.1-2.3,1.3
		C32,108.8,31.2,108.5,30.5,108z"/>
	<path class="st1" d="M229.3,62.1L205.7,62c-2.9,0-4.6-3.1-3.2-5.6L214.4,36l11.9-20.4c1.4-2.5,5-2.5,6.4,0l11.7,20.5l11.7,20.5
		c1.4,2.5-0.4,5.6-3.2,5.5H229.3z"/>
	<path class="st0" d="M229.3,58.6l-22-0.1c-1,0-1.6-1.1-1.1-1.9l11.1-19l10.9-18.8c0.6-0.9,1.9-0.9,2.5,0l10.8,18.8l11,19.2
		c0.5,0.8-0.1,1.8-1.1,1.8H229.3z"/>
	<path class="st1" d="M226.3,33.4h5.3l-0.9,13h-3.5L226.3,33.4z M226.9,52.8c-0.5-0.5-0.8-1.1-0.8-1.8s0.3-1.3,0.8-1.8
		s1.2-0.7,2-0.7s1.5,0.2,2,0.7s0.8,1.1,0.8,1.8s-0.3,1.3-0.8,1.8s-1.2,0.8-2,0.7C228.1,53.6,227.4,53.3,226.9,52.8z"/>
	<path class="st2" d="M98.1,20L98.1,20c3.3,2,7.4,1.7,10.3-0.7l0,0c0,0,7.6,1.1,11.6,3.4c0,0-0.7,7.5-0.3,15.1l-3.3,17.6l-10.6,1.3
		l-10.7,0.2L92,47.2c-1.4-4.2-2.4-8.5-3.2-12.9c-0.9-5.3-2.2-9.4-2.2-9.4C90.2,22.1,98.1,20,98.1,20z"/>
	<path class="st3" d="M89.3,33.2c3.8,3.2,7.2,9.5,12.4,10.9c8.4,2.1,13.5-4.4,18-11c0,1.5,0,3,0.1,4.6l-3.3,17.6l-10.6,1.3
		l-10.7,0.2L92,47.3c-1.4-4.1-2.4-8.3-3.2-12.6c-0.1-0.7-0.2-1.4-0.4-2.1C88.7,32.8,89,33,89.3,33.2z"/>
	<path class="st4" d="M167.2,191.2v2.2c0,0.3-0.2,0.5-0.5,0.5h-62.5c-2.3,0-3.9-2.3-3-4.5l19.8-48.9l32,0.2l-1.1,6.3l-7.1,41.1
		c-0.2,1.3,0.8,2.5,2.1,2.5h19.7C166.9,190.8,167.2,191,167.2,191.2z"/>
	<g class="st5">
		<path class="st6" d="M167.2,191.2v2.2c0,0.3-0.2,0.5-0.5,0.5h-62.5c-2.3,0-3.9-2.3-3-4.5l12.3-30.3l7.5-18.6l32,0.2l-1.1,6.3
			l-3.1,17.9l-4,23.2c-0.2,1.3,0.8,2.5,2.1,2.5h19.7C166.9,190.8,167.2,191,167.2,191.2z"/>
	</g>
	<g class="st7">
		<path class="st6" d="M147,190.8h-40.6c-1,0-1.7-1-1.3-2l17.4-41.7H152l-7.1,41.1C144.6,189.5,145.6,190.8,147,190.8z"/>
	</g>
	<g class="st8">
		<path d="M153,140.8l-1.1,6.3l-3.1,17.9l-35.4-5.8l7.5-18.6L153,140.8z"/>
	</g>
	<path class="st4" d="M215.2,49.6H212H70.2h-3.1c-2.1,0-3.8,1.7-3.8,3.8v100c0,2.1,1.7,3.8,3.8,3.8h3.1H212h3.1
		c2.1,0,3.8-1.7,3.8-3.8v-100C219,51.3,217.3,49.6,215.2,49.6z"/>
	<g class="st9">
		<path class="st6" d="M215.2,49.6H212H70.2h-3.1c-2.1,0-3.8,1.7-3.8,3.8v100c0,2.1,1.7,3.8,3.8,3.8h3.1H212h3.1
			c2.1,0,3.8-1.7,3.8-3.8v-100C219,51.3,217.3,49.6,215.2,49.6z"/>
	</g>
	<g class="st8">
		<path d="M70.2,157.2h-3.1c-2.1,0-3.8-1.7-3.8-3.8v-100c0-2.1,1.7-3.8,3.8-3.8h3.1c-2.1,0-3.8,1.7-3.8,3.8v100
			C66.4,155.5,68.1,157.2,70.2,157.2z"/>
	</g>
	<path class="st10" d="M215.5,52.8H69.8v96.5h145.7V52.8z"/>
	<g class="st7">
		<path class="st6" d="M215.5,52.8H69.8v96.5h145.7V52.8z"/>
	</g>
	<path class="st6" d="M215.6,52.8H69.7v96.6h145.9L215.6,52.8L215.6,52.8z"/>
	<g class="st11">
		<path class="st6" d="M215.6,52.8H69.7v96.6h145.9L215.6,52.8L215.6,52.8z"/>
	</g>
	<path class="st10" d="M215.6,52.8H69.7v9.4h145.9L215.6,52.8L215.6,52.8z"/>
	<g class="st12">
		<path class="st6" d="M212.8,57.5c0,0.9-0.7,1.6-1.6,1.6c-0.9,0-1.6-0.7-1.6-1.6s0.7-1.6,1.6-1.6S212.8,56.6,212.8,57.5z"/>
	</g>
	<g class="st12">
		<path class="st6" d="M208.1,57.5c0,0.9-0.7,1.6-1.6,1.6c-0.9,0-1.6-0.7-1.6-1.6s0.7-1.6,1.6-1.6C207.4,55.9,208.1,56.6,208.1,57.5
			z"/>
	</g>
	<g class="st12">
		<path class="st6" d="M203.5,57.5c0,0.9-0.7,1.6-1.6,1.6c-0.9,0-1.6-0.7-1.6-1.6s0.7-1.6,1.6-1.6C202.7,55.9,203.5,56.6,203.5,57.5
			z"/>
	</g>
	<g class="st13">
		<path d="M215.6,62.2h-2.1v87.2h2.1V62.2z"/>
	</g>
	<path class="st6" d="M215.6,62.2h-2.1V82h2.1V62.2z"/>
	<path class="st14" d="M86.3,68h-9.6v2.9h9.6V68z"/>
	<path class="st14" d="M81.4,73.5h-4.6v2.9h4.6V73.5z"/>
	<path class="st14" d="M103.3,68H101H88.9v2.9h12.2h2.3h7.3V68H103.3z"/>
	<path class="st14" d="M118,68h-4.8v2.9h4.8V68z"/>
	<path class="st14" d="M123.3,68h-2.7v2.9h2.7V68z"/>
	<path class="st14" d="M135,68h-9.6v2.9h9.6V68z"/>
	<path class="st14" d="M88.4,73.5h-4.6v2.9h4.6V73.5z"/>
	<path class="st14" d="M98.5,73.5h-7.2v2.9h7.2V73.5z"/>
	<path class="st14" d="M106.6,73.5h-5.5v2.9h5.5V73.5z"/>
	<path class="st14" d="M115.6,73.5h-2.4h-3.1v2.9h3.1h2.4h7.2v-2.9H115.6z"/>
	<path class="st14" d="M83.8,79h-7v2.9h7V79z"/>
	<path class="st14" d="M92.7,79H86v2.9h6.7V79z"/>
	<path class="st14" d="M100.3,79h-5.9v2.9h5.9V79z"/>
	<path class="st14" d="M109.7,79h-7.2v2.9h7.2V79z"/>
	<path class="st14" d="M118,79h-6.1v2.9h6.1V79z"/>
	<path class="st14" d="M82.2,84.6h-5.4v2.9h5.4V84.6z"/>
	<path class="st14" d="M87.2,84.6h-3.8v2.9h3.8V84.6z"/>
	<path class="st14" d="M93.2,84.6h-4.3v2.9h4.3V84.6z"/>
	<path class="st14" d="M106.9,84.6H95.4v2.9h11.5V84.6z"/>
	<path class="st14" d="M115.4,84.6h-6.7v2.9h6.7V84.6z"/>
	<path class="st14" d="M91.3,90.1H76.8V93h14.6L91.3,90.1L91.3,90.1z"/>
	<path class="st14" d="M96.7,90.1h-3.6V93h3.6V90.1z"/>
	<path class="st14" d="M113.4,90.1h-7.2V93h7.2V90.1z"/>
	<path class="st14" d="M104.5,90.1h-6.4V93h6.4V90.1z"/>
	<path class="st14" d="M82.2,95.6h-5.4v2.9h5.4V95.6z"/>
	<path class="st14" d="M89.8,95.6h-5.7v2.9h5.7V95.6z"/>
	<path class="st14" d="M103.1,95.6H91.6v2.9h11.5V95.6z"/>
	<path class="st14" d="M110.6,95.6h-5.4v2.9h5.4V95.6z"/>
	<path class="st14" d="M85,101.1h-8.3v2.9H85V101.1z"/>
	<path class="st14" d="M94.9,101.1h-7.3v2.9h7.3V101.1z"/>
	<path class="st14" d="M110.6,101.1h-3.7v2.9h3.7V101.1z"/>
	<path class="st14" d="M105,101.1h-7.6v2.9h7.6V101.1z"/>
	<path class="st14" d="M80.3,106.6h-3.6v2.9h3.6V106.6z"/>
	<path class="st14" d="M87,106.6h-5.4v2.9H87V106.6z"/>
	<path class="st14" d="M109,106.6h-4.9v2.9h4.9V106.6z"/>
	<path class="st14" d="M98.5,106.6h-2.4h-7.2v2.9h7.2h2.4h4.2v-2.9H98.5z"/>
	<path class="st14" d="M84.3,112.2h-7.5v2.9h7.5V112.2z"/>
	<path class="st14" d="M96.1,112.2h-9.6v2.9h9.6V112.2z"/>
	<path class="st14" d="M104.5,112.2h-6.7v2.9h6.7V112.2z"/>
	<path class="st15" d="M106.7,111l-7.5-18.5l-11.3,0.7l14.3,32.4l10.3-0.6l10.3-33.9L112,91.7L106.7,111z"/>
	<path class="st15" d="M135,117.7l-5.5-4.9l4.6-9.1l-4.7-4.8l4.9-8.4l-9.5,0.6l2,33.1l10.1-0.6l-6.7-1.9L135,117.7z"/>
	<path class="st15" d="M148.2,90.9l-6.1-0.4l-5.9,7.8l4.1,5.4l-5.7,8.5l4.9,5.6l-5.5,3.3l6.4,2.8h0.3l0.6-9.1l5.2,0.3
		c7.4,0.5,12.8-3.5,13.3-11.2C160.4,96.1,155.6,91.4,148.2,90.9z M145.8,106.2l-3.8-0.3l0.4-6.7l3.8,0.3c2.7,0.2,3.7,1.5,3.6,3.6
		C149.6,105.2,148.5,106.4,145.8,106.2z"/>
	<path class="st15" d="M184.2,93.3l-1,15.4l-9.9-16.2l-9.8-0.7l-2.2,33.1l10.1,0.7l1.1-16.6l11,17.4l8.6,0.6l2.2-33.1L184.2,93.3z"
		/>
	<path class="st4" d="M282.5,125.5c0,0-1.3,26.4-7,30.9h6.1c0,0,5.4-9,5.8-30.9C287.4,125.5,282.5,125.5,282.5,125.5z"/>
	<path class="st16" d="M282.5,125.5c0,0-1.3,26.4-7,30.9h6.1c0,0,5.4-9,5.8-30.9C287.4,125.5,282.5,125.5,282.5,125.5z"/>
	<path class="st10" d="M258,154.2h26.6c1.4,0,2.5,1.1,2.5,2.5v1.9h-31.6v-1.9C255.5,155.3,256.6,154.2,258,154.2z"/>
	<path class="st17" d="M258,154.2h26.6c1.4,0,2.5,1.1,2.5,2.5v1.9h-31.6v-1.9C255.5,155.3,256.6,154.2,258,154.2z"/>
	<path class="st4" d="M286,184.3l-12.2-1.1v-15.9h-4.3v15.9l-12.2,1.1c-1.1,0.1-1.9,1-1.9,2.1v1.6h15.8h0.8h15.8v-1.6
		C287.9,185.3,287,184.4,286,184.3z"/>
	<path class="st4" d="M259.4,190.1c0,1.5-1.3,2.8-2.8,2.8s-2.8-1.2-2.8-2.8c0-1.5,1.3-2.8,2.8-2.8S259.4,188.5,259.4,190.1z"/>
	<path class="st4" d="M283.9,190.1c0,1.5,1.3,2.8,2.8,2.8s2.8-1.2,2.8-2.8c0-1.5-1.3-2.8-2.8-2.8
		C285.2,187.3,283.9,188.5,283.9,190.1z"/>
	<path class="st4" d="M272.5,170.6h-1.7c-1.1,0-2-0.9-2-2v-11.5h5.8v11.5C274.5,169.7,273.6,170.6,272.5,170.6z"/>
	<path class="st16" d="M272.5,170.6h-1.7c-1.1,0-2-0.9-2-2v-11.5h5.8v11.5C274.5,169.7,273.6,170.6,272.5,170.6z"/>
	<path class="st4" d="M255.3,156.4h32c0.5,0,1,0.4,1,1v0.2c0,0.5-0.4,1-1,1h-32c-0.5,0-1-0.4-1-1v-0.2
		C254.3,156.8,254.7,156.4,255.3,156.4z"/>
	<path class="st16" d="M255.3,156.4h32c0.5,0,1,0.4,1,1v0.2c0,0.5-0.4,1-1,1h-32c-0.5,0-1-0.4-1-1v-0.2
		C254.3,156.8,254.7,156.4,255.3,156.4z"/>
	<path class="st10" d="M290.3,131.2h-9.8c-2.9,0-4.9-2.6-4.6-5.7l0.4-4.2c0.3-3.2,2.9-5.7,5.7-5.7h9.8c2.9,0,4.9,2.6,4.6,5.7
		l-0.4,4.2C295.7,128.7,293.1,131.2,290.3,131.2z"/>
	<path class="st17" d="M290.3,131.2h-9.8c-2.9,0-4.9-2.6-4.6-5.7l0.4-4.2c0.3-3.2,2.9-5.7,5.7-5.7h9.8c2.9,0,4.9,2.6,4.6,5.7
		l-0.4,4.2C295.7,128.7,293.1,131.2,290.3,131.2z"/>
	<path class="st18" d="M288.2,115.6l-3.1,15.7h-3l2.4-15.7C284.5,115.6,288.2,115.6,288.2,115.6z"/>
	<path class="st18" d="M287.2,131.2l-0.1,1.9h-5.2l0.2-1.9H287.2z"/>
	<path class="st19" d="M237.2,179.7l-3.2,10.4l-4.7-0.4l1.8-11.7L237.2,179.7z"/>
	<path class="st20" d="M233.2,188.7c-0.6,0.6-1.4,0.6-2.1,0.1l-0.1-0.9c-0.1-0.8-0.6-1.2-1.4-1.1c-0.4,0-0.9,0.5-1.3,1.2
		c-0.6,1.3-1.5,1.8-1.5,1.8s-3.6,1.8-4.9,2.2c-0.8,0.2-1.8,0.6-2.4,1.4c-0.2,0.2-0.3,0.5-0.4,0.8c-0.1,0.3-0.1,0.9-0.1,0.9h9.2
		c0,0,0.9-0.5,1.3-0.5c0.7,0,1,0.6,1,0.6h3.3c0,0,0.1-0.5,0.2-1.3c0-0.3,0.1-0.7,0.1-1.1c0.2-1.7,0.6-3.9,0.6-4.4
		C234.9,187.6,233.2,188.7,233.2,188.7z"/>
	<g>
		<path class="st21" d="M222.5,191.8c0,0,2.5-0.2,3.2,3.4h-6.6v-2.5l2.8-1.2L222.5,191.8z"/>
	</g>
	<path class="st22" d="M228.7,191.9l0.9,2.2"/>
	<path class="st22" d="M230.2,191.9l0.9,2.2"/>
	<path class="st23" d="M219.4,193.9c-0.1,0.1-0.1,0.3-0.2,0.4c-0.1,0.3-0.1,0.9-0.1,0.9h9.2c0,0,0.9-0.5,1.3-0.5c0.7,0,1,0.6,1,0.6
		h3.3c0,0,0.1-0.5,0.2-1.3c0-0.1,0-0.1,0-0.2L219.4,193.9L219.4,193.9z"/>
	<path class="st19" d="M219.7,178.2l-6.2,8.9l-4.4-1.8l5.3-10.5L219.7,178.2z"/>
	<path class="st20" d="M211.8,192.1l-3.2-1c0,0-0.1-0.7-0.8-0.9c-0.4-0.1-1.4,0.1-1.4,0.1l-8.7-2.8c0,0,0.2-0.6,0.4-0.8
		c0.2-0.3,0.4-0.5,0.7-0.7c0.8-0.6,1.9-0.6,2.7-0.6c1.4,0,5.3-0.6,5.3-0.6s1-0.2,2-1.3c0.5-0.6,1.2-0.8,1.6-0.8
		c0.8,0.2,1.1,0.7,1,1.5l-0.1,0.9c0.4,0.6,1.2,0.9,2,0.5c0,0,1.9-0.4,1.6,0.4c-0.2,0.5-1.2,2.4-1.9,4c-0.2,0.4-0.3,0.7-0.5,1
		C212,191.6,211.8,192.1,211.8,192.1z"/>
	<path class="st22" d="M208.3,187.5l0.2,2.4"/>
	<path class="st22" d="M209.7,187.8l0.2,2.4"/>
	<g>
		<path class="st21" d="M202.8,185c0,0,1.2-0.2,0.4,5.4l-6.6-1.9l1.9-4.9L202.8,185z"/>
	</g>
	<path class="st23" d="M198.3,186.2c-0.1,0.1-0.2,0.2-0.3,0.3c-0.2,0.2-0.4,0.8-0.4,0.8l8.7,2.8c0,0,1.1-0.2,1.4-0.1
		c0.7,0.2,0.8,0.9,0.8,0.9l3.2,1c0,0,0.2-0.5,0.5-1.1c0-0.1,0.1-0.1,0.1-0.2L198.3,186.2z"/>
	<path class="st24" d="M258.5,139.9c0,0-27.4,4.4-31.7,8c-4.7,3.9-18.8,32.4-18.8,32.4l9,3.9c0,0,12.6-22.7,14.8-24.3
		c2.2-1.5,30.3-7.9,30.3-7.9L258.5,139.9z"/>
	<path class="st25" d="M258.4,140.4l-1.6,2.4l-16.4,0.7c3.8-1,9.9-2.1,16.7-3.4L258.4,140.4z"/>
	<path class="st25" d="M232.3,145.7c0,0-0.8,1.9-1.4,4.5c-0.3,1.6-2.6,14.7-2.5,14.5s4.7-5.6,4.7-5.6l2.7-14.4L232.3,145.7z"/>
	<path class="st26" d="M225.3,184.2l4.8-22l3.1-14c0.5-2.4,2.6-4.2,5-4.4L257,143l2-5.8l22.5,3.1c0,0-0.3,9.8-3.1,13.4
		c-2.1,2.8-32.1,3.2-34.3,3.9l-7.8,27.8L225.3,184.2z"/>
	<path class="st19" d="M255.1,101c-1.4-0.7-2.8-1.3-4.1-2.1c3.4-2.2,8.7-4.7,11.7-6.3l-1.1-2.9c-2.9,0.8-5.7,1.7-8.5,2.7
		c-2.2,0.8-4.3,1.7-6.4,2.9c-1.1,0.7-2.3,1.5-2.8,2.9c-0.7,2.2,0.9,3.6,2.5,4.7c4.4,3.2,9.2,5.4,14.2,7.4l2.3-5.8
		C260.3,103.4,257.7,102.2,255.1,101z"/>
	<path class="st19" d="M260.4,91l0.8-3.5c0.1-0.4,0.3-0.7,0.6-1l4-2.9c0,0,0.4,0.5,0,1l1-0.4c0,0,0.3,0.6-0.3,1.1
		c-0.7,0.5-1.7,1.6-1.7,1.6l2.3-1.1c0,0,0.6,0.2,0,0.9c-0.6,0.7-2.4,1.7-2.4,1.7s-0.3,3.7-1,4.3c-0.7,0.6-2.9,0.4-2.9,0.4L260.4,91z
		"/>
	<path class="st18" d="M252.7,99.8l-2.8,5.4l0.7,0.4l2.6-5.5L252.7,99.8z"/>
	<path class="st19" d="M300,100c-0.2-2.4-2.4-3.3-4.1-4.3c-3.8-2-7.7-3.4-11.8-4.7l-1.3,2.8c2.4,1.6,6.5,3.9,9.5,5.9
		c-3.7,1.9-8.3,3.8-11.6,5.3l2.4,5.8c3.9-1.6,7.7-3.4,11.4-5.5c1.3-0.7,2.5-1.5,3.8-2.4c0.1-0.1,0.3-0.2,0.4-0.3
		C299.5,102.1,300.1,100.9,300,100z"/>
	<path class="st18" d="M292.4,99.7l2.4-0.6l-3.1,0.2L292.4,99.7z"/>
	<path class="st27" d="M256.4,139.5l2.5-15.7l2.2-20.1l7.8-0.1l6-0.1l6.4,0.3l3.8,10.2c0,0-2.1,14.2-2.2,15c-0.1,0.9-1,16.4-1,16.4
		C271.2,146.1,256.1,140.3,256.4,139.5z"/>
	<path class="st27" d="M260,114.3c-1.9-1-6.7-4.5-8.7-5.5c-1.8-1-1.8-1-1.8-1l4-8.5c0,0,4.8,1.9,9.2,4c0,0,0.4-0.2,0.6-0.2
		s1,1.2,1,1.2L260,114.3z"/>
	<path class="st18" d="M285,114l-3-3.5c0,0-0.4,3.7,2.8,5.6L285,114z"/>
	<path class="st27" d="M285,114l9.8-5l-4.3-8.5c0.1,0-4.6,1.1-9.2,3.3C278.3,105.3,281,112.8,285,114z"/>
	<path class="st28" d="M264.2,129c2.8,4.2,6.9,7.6,11.7,9.3"/>
	<path class="st18" d="M260,114.3l0.5-7l-2,6.1L260,114.3z"/>
	<path class="st19" d="M275.9,103.5c0,0-0.4-2.9,1.3-7.8l-0.3-0.1c0.2-0.7,0.5-1.3,0.7-1.9l0,0l-7.1,4c0.1,1.6-0.6,4.7-1,6
		c0,0-1.5,2.9,1.7,3.1C273.5,106.8,275.9,103.5,275.9,103.5z"/>
	<path class="st18" d="M270.4,99.8l4-0.7c-0.4,1.2-1.6,2.6-4.3,2.6C270,101.7,270.4,100.4,270.4,99.8z"/>
	<path class="st29" d="M266.3,85.4c-0.9,1.6-1.3,5.1,1.3,4.4C270.2,89.2,267.8,82.7,266.3,85.4z"/>
	<path class="st19" d="M277.9,90.2c-0.7,4.4-0.9,6.8-3.4,8.9c-3.6,3.1-8.8,0.6-9.4-3.8c-0.6-4,0.6-10.5,5-11.8
		C274.5,82.2,278.5,85.9,277.9,90.2z"/>
	<path class="st29" d="M279.2,84.5c-0.4-2.5-3.4-4.1-5.2-3c-0.3,0.2,1.6,1,1.4,0.9l-0.2,3.6c0.3,0,0.7,0.3,0.9,1.1
		c0,0-1.1,4.6,0.7,6.7C281.8,92.1,282.4,85.8,279.2,84.5z"/>
	<path class="st19" d="M279.3,94c-0.5,1.1-1.4,1.9-2.3,2.2c-1.4,0.5-2.2-0.7-2-2c0.2-1.2,1.2-3,2.6-2.9
		C279.1,91.4,279.8,92.8,279.3,94z"/>
	<path class="st28" d="M278.4,92.7c-0.2-0.3-0.5-0.4-0.8-0.4s-0.6,0.2-0.8,0.5c-0.3,0.3-0.4,0.6-0.5,1"/>
	<path class="st29" d="M281,89.3c0.6-2.3,0.1-5-1.6-6.8c-0.8-0.9-2-1.9-3.2-2.1c-0.1,0-0.2,0-0.4,0c-3.3-0.1-8.6-0.6-12.2-1.8
		c2.9,5.6,7.8,7.9,7.8,7.9"/>
	<path class="st29" d="M270,85.5c0,0-4.1-2.3-6.6-2.2c1.4-0.3,4.5,0,5.2,0.2C269.3,83.8,270,85.5,270,85.5z"/>
	<path class="st29" d="M267.3,82.8c0,0-2.1-0.9-3.1-2.4c0.3,1.1,1.7,2.7,3,3.3C268.6,84.3,267.3,82.8,267.3,82.8z"/>
	<path class="st29" d="M276.6,80.7c0,0-6.6-0.5-11.2-3c2.2,1.9,5.3,3,6.8,3.6C273.8,81.9,276.6,80.7,276.6,80.7z"/>
	<path class="st29" d="M271.6,86.4c0,0-4.1-0.7-6-2.1c1,0.2,2.6,0.1,2.6,0.1S271.4,84.9,271.6,86.4z"/>
	<path class="st19" d="M284.3,91.4L283,87c-0.1-0.3-0.2-0.5-0.5-0.6l-3.7-2.5c0,0-0.4,0.5,0,1.1l-1-0.4c0,0-0.3,0.7,0.3,1.2
		c0.7,0.5,1.7,1.7,1.7,1.7l-2.3-1.1c0,0-0.6,0.2,0,1c0.6,0.7,2.4,1.7,2.4,1.7s0.4,3.5,1.1,4.1c0.7,0.7,2.8,0.8,2.8,0.8L284.3,91.4z"
		/>
	<path class="st4" d="M243.9,123.4c0.1,1.2-0.6,2.1-1.6,2.1h-31.7c-1,0-1.9-0.9-2-2.1l-1.9-23.3c0-0.2,0-0.5,0-0.7
		c0.2-0.8,0.8-1.4,1.6-1.4H240c1,0,1.9,0.9,2,2.1L243.9,123.4z"/>
	<path class="st30" d="M243.9,123.4c0.1,1.2-0.6,2.1-1.6,2.1h-31.7c-1,0-1.9-0.9-2-2.1l-1.9-23.3c0-0.2,0-0.5,0-0.7
		c0.2-0.8,0.8-1.4,1.6-1.4H240c1,0,1.9,0.9,2,2.1L243.9,123.4z"/>
	<path class="st4" d="M242.1,125.5h-31.6c-1,0-1.9-0.9-2-2.1l-1.9-23.3c0-0.2,0-0.5,0-0.7h31.6c1,0,1.9,0.9,2,2.1l1.9,23.3
		C242.2,125.1,242.2,125.3,242.1,125.5z"/>
	<path class="st31" d="M242.1,125.5h-31.6c-1,0-1.9-0.9-2-2.1l-1.9-23.3c0-0.2,0-0.5,0-0.7h31.6c1,0,1.9,0.9,2,2.1l1.9,23.3
		C242.2,125.1,242.2,125.3,242.1,125.5z"/>
	<path class="st4" d="M220.9,120.1h6.4l-1.2,11.4l6.3,0.1v1.3h-16.8v-1.3l4.1-0.1L220.9,120.1z"/>
	<path class="st32" d="M227.2,120.1c0,0.2,1.4,5.4,1.4,5.4h-2L227.2,120.1z"/>
	<path class="st32" d="M220.2,125.5l0.7-5.4l-1.6,5.4H220.2z"/>
	<path class="st4" d="M205.1,133.6h-2.2v60.1h2.2V133.6z"/>
	<path class="st33" d="M205.1,133.6h-2.2v60.1h2.2V133.6z"/>
	<path class="st4" d="M189.4,133.6h-2.2v60.1h2.2V133.6z"/>
	<path class="st33" d="M189.4,133.6h-2.2v60.1h2.2V133.6z"/>
	<path class="st18" d="M187.2,137.4v3.9l2.2-1v-3.2L187.2,137.4z"/>
	<path class="st18" d="M202.9,137.4v3.9l2.2-1v-3.2L202.9,137.4z"/>
	<path class="st4" d="M251.7,133.6h-2.2v60.1h2.2V133.6z"/>
	<path class="st33" d="M251.7,133.6h-2.2v60.1h2.2V133.6z"/>
	<path class="st18" d="M249.5,137.4v3.9l2.2-1v-3.2L249.5,137.4z"/>
	<path class="st4" d="M271.8,133.6h-2.2v60.1h2.2V133.6z"/>
	<path class="st33" d="M271.8,133.6h-2.2v60.1h2.2V133.6z"/>
	<path class="st18" d="M269.6,137.4v3.9l2.2-1v-3.2L269.6,137.4z"/>
	<path class="st4" d="M274.5,133h-90.2v4.4h90.2V133z"/>
	<path class="st32" d="M274.5,133h-21.2v4.4h21.2V133z"/>
	<path class="st16" d="M220.9,120.1h6.4l-1.2,11.4l6.3,0.1v1.3h-16.8v-1.3l4.1-0.1L220.9,120.1z"/>
	<path class="st3" d="M93.2,16.4c0.3,4.8,4.9,8.3,10.2,8c5.3-0.4,9.3-4.5,9-9.3s-4.9-8.3-10.2-8C96.9,7.4,92.9,11.6,93.2,16.4z"/>
	<path class="st3" d="M99.8,11.1l2.9-0.2l2.9-0.2c0,0,1.4,7.8,2.9,8.6c0,0,2.5,9.1-4.5,9.6c-8.5,0.6-5.9-8.9-5.9-8.9
		C99.5,18.9,99.8,11.1,99.8,11.1z"/>
	<path class="st34" d="M95.3,12.9c0.7-1,1.8,0.4,1.8,0.4s-1.7-5.1-0.5-7.4c1.1-2.4,5.4-1.5,5.4-1.5s4.2-1.5,5.7,0.7s0.5,7.4,0.5,7.4
		s0.9-1.5,1.7-0.6c0.9,0.9-1.1,3.3-1.5,3.6c0,0-2.7,5.9-5.1,6.1c-2.5,0.2-5.9-5.3-5.9-5.3C96.8,16.1,94.5,13.9,95.3,12.9z"/>
	<path class="st2" d="M103.2,6.4c0,0,3.3,0.3,3.7,2c0.2,0.8,0.1,1.8,0,2.6c-0.1,0.4-0.2,2.8-0.1,2.9c0.1,0,0.3,0,0.4-0.1
		c0.4-0.4,0.7-0.9,1-1.4c0.5-0.9,1.4-0.8,1.7-0.3c0,0,0.1-8.5-3.5-8.6C103,3.4,103.2,6.4,103.2,6.4z"/>
	<path class="st2" d="M101.2,6.5c0,0-3.2,0.8-3.4,2.5c-0.1,0.9,0.1,1.7,0.4,2.6c0.1,0.4,0.6,2.8,0.5,2.8c-0.1,0.1-0.3,0-0.4,0
		c-0.5-0.3-0.8-0.8-1.2-1.2c-0.7-0.9-1.5-0.6-1.8-0.1c0,0-1.3-8.4,2.2-9C100.9,3.6,101.2,6.5,101.2,6.5z"/>
	<path class="st3" d="M102.4,10.4c2.2-0.2,4.7-0.6,7.8-1.6l-1.3,3.6c0,0-1.4,2-3.4,2.2c-0.9,0.1-1.4-0.1-1.8-0.3
		c-0.6-0.4-1.5-0.3-2,0.1c-0.3,0.3-0.8,0.5-1.7,0.6c-2,0.1-3.7-1.7-3.7-1.7l-1.8-3.4C97.7,10.5,100.3,10.6,102.4,10.4z"/>
	<path class="st3" d="M93.5,20.3c1.6,2.3,8.2,8.1,10.4,8l0,0l0,0l0,0l0,0c2.2-0.2,7.9-6.8,9.2-9.3c1.2-2.5,2.6-6.4,0.7-10.7
		c-3.7-8.9-11.7-8.6-11.9-8.5c-0.3,0-8.1,0.8-10.6,10.1C90.1,14.3,91.9,18,93.5,20.3z M94.6,13c0.2-2.6,6.4-3.6,7.9-3.7
		c1.5-0.1,7.8,0,8.3,2.6c0.6,2.5-6.8,16-7,16.4C103.6,27.9,94.4,15.6,94.6,13z"/>
	<path class="st34" d="M110.7,69.2c-0.3,0.5-1.5,1.2-1.1,1.9c0.2,0.4,1.3-0.3,1.5-0.6c0.4-0.4,2.9-3.6,3.3-4.6
		c0.3-0.8,0.7-1.5,1-2.2c-0.8-0.5-1.5-1.2-2.1-2c-1.2,0.4-2.4,1.1-3.6,1.4c-0.6,0.2-1.3,0.3-1.9,0.5c-0.4,0.1-1.2,0.3-1.3,0.8
		c-0.1,0.6,0.8,0.5,1.1,0.4c0.5-0.1,1.4-0.4,1.7,0.1c0.4,0.8-1.1,1.6-1.7,2.1c-0.5,0.5-2.3,1.8-1.1,2.1c0.3,0,2.1-1.3,2.4-1.5
		c-0.1,0.1-1.3,1-1.3,1.1c-0.3,0.4-1.2,1.1-1,1.5c0.5,0.9,2.5-1.2,2.8-1.5l-0.8,0.8c-0.6,0.6-1.1,1.2-0.6,1.4
		C108.6,71.4,110.1,69.7,110.7,69.2z"/>
	<path class="st34" d="M93.7,70.9c0.2,0.5,1.4,1.3,1,1.9c-0.2,0.3-1.2-0.4-1.5-0.7c-0.3-0.4-2.5-3.9-2.9-4.9
		c-0.3-0.8-0.5-1.5-0.8-2.3c0.8-0.5,1.5-1.1,2.2-1.8c1.1,0.5,2.3,1.2,3.5,1.7c0.6,0.3,1.3,0.4,1.9,0.7c0.4,0.1,1.2,0.4,1.2,0.9
		c0,0.6-0.8,0.4-1.1,0.3c-0.5-0.1-1.3-0.5-1.7,0c-0.5,0.8,1,1.7,1.5,2.2s2.1,2,0.9,2.1c-0.3,0-2-1.5-2.3-1.7
		c0.1,0.1,1.2,1.1,1.2,1.2c0.3,0.4,1.1,1.2,0.9,1.6c-0.5,0.9-2.4-1.4-2.7-1.7l0.7,0.9c0.6,0.7,1,1.2,0.5,1.5
		C95.6,73.4,94.3,71.5,93.7,70.9z"/>
	<path class="st2" d="M111,62.2l4,3.1c0,0,14.3-16.3,13.3-22.2c-1.7-9.7-5.6-18.3-8.1-20.3c-1-0.8-4.4,4.5-2.8,11.5
		c0,0,2.9,10.3,2.7,11.4C119.9,46.7,111,62.2,111,62.2z"/>
	<path class="st2" d="M93.5,64.1l-3.8,2.5c0,0-13.1-16.2-11.8-22C80,35,84,26.9,87,24.7c1-0.8,6,5.2,5.8,9c0,0-7,12.8-6.8,13.8
		C86,48.6,93.5,64.1,93.5,64.1z"/>
	<path class="st35" d="M297.3,78.4c1.6-2.9-1.7-7.1-3.5-9.2c-1.4-1.6-2.9-2.9-4.6-4c-1.2-2.8-3-5.3-5.2-7.3c-2.3-2.1-6-4.8-9.4-4.3
		c-2.8,0.4-3.6,2.7-3,5.2c0.3,1.1,0.7,2.3,1.2,3.4c-1.9,0.4-3.8,1-5.7,1.9c-0.4,0.2-0.1,0.8,0.3,0.6c1.8-0.9,3.7-1.5,5.7-1.9
		c3.4,7.1,10.9,13.8,17.5,16.7C292.8,80.4,296,80.9,297.3,78.4z M273,60.5c-0.3-0.8-1-2.9-0.9-3.7c0.5-3.7,4.3-2.7,6.4-1.9
		c1.8,0.7,3.7,2.2,5.1,3.5c1.9,1.8,3.3,3.8,4.4,6c-4.3-2.4-9.4-3.2-14.3-2.4C273.5,61.5,273.2,61,273,60.5z M285.6,75.6
		c-2-1.4-3.8-3-5.5-4.8c-2.3-2.4-4.5-5.2-6.1-8.2c5-0.8,10.2,0.2,14.5,3c1.6,3.9,2.1,8.3,1.6,12.7c0,0.1,0.2,0.2,0.2,0.1
		c1.2-3.9,0.9-8.1-0.5-11.9c0.2,0.1,0.3,0.2,0.5,0.3c1.9,1.5,3.5,3.3,4.7,5.3c0.6,0.9,3.6,4.7,0.8,6.7
		C293.1,80.9,287,76.6,285.6,75.6z"/>
	<path class="st35" d="M275.5,54.8c-2.9,1.7-2.3,6.9-1.9,9.6c0.3,2.1,0.9,4,1.7,5.8c-0.4,3-0.3,6.1,0.5,8.9c0.8,3,2.5,7.2,5.6,8.6
		c2.5,1.2,4.5-0.4,5.3-2.8c0.4-1.1,0.6-2.3,0.8-3.5c1.8,0.7,3.8,1.2,5.8,1.4c0.4,0,0.5-0.6,0.1-0.6c-2-0.2-4-0.7-5.8-1.4
		c0.9-7.9-1.9-17.4-5.9-23.4C280.3,55.5,277.9,53.4,275.5,54.8z M286.5,82.8c-0.2,0.9-0.7,3-1.2,3.6c-2.4,2.9-5,0-6.4-1.8
		c-1.2-1.5-2-3.8-2.4-5.7c-0.6-2.5-0.8-5-0.5-7.4c2.4,4.3,6.2,7.7,10.8,9.6C286.7,81.7,286.6,82.3,286.5,82.8z M283.9,63.4
		c0.9,2.2,1.6,4.6,2.1,6.9c0.7,3.2,1.1,6.8,0.8,10.2c-4.6-2-8.5-5.6-10.7-10.2c0.7-4.2,2.6-8.1,5.4-11.6c0.1-0.1-0.1-0.2-0.2-0.2
		c-3.1,2.7-5,6.4-5.9,10.4c-0.1-0.2-0.1-0.3-0.2-0.5c-0.8-2.3-1.2-4.6-1.2-7c0-1.1-0.5-5.9,2.9-6.1
		C280.4,54.9,283.2,61.7,283.9,63.4z"/>
	<path class="st35" d="M264.2,73.9c1.2,3.1,6.4,3.4,9.2,3.4c2.1,0,4.1-0.3,6-0.8c2.9,0.9,6,1.2,8.9,0.9c3.1-0.3,7.6-1.3,9.4-4.2
		c1.5-2.3,0.3-4.5-1.9-5.7c-1-0.5-2.2-1-3.3-1.3c1-1.7,1.8-3.5,2.3-5.5c0.1-0.4-0.5-0.6-0.6-0.2c-0.5,2-1.3,3.8-2.3,5.5
		c-7.6-2.1-17.6-0.9-24.1,2.1C265.7,69.2,263.2,71.2,264.2,73.9z M293.7,67.5c0.8,0.3,2.8,1.1,3.4,1.8c2.4,2.8-0.8,5-2.8,6
		c-1.7,0.9-4.1,1.3-6,1.5c-2.6,0.2-5.1,0-7.4-0.7c4.7-1.6,8.6-4.9,11.2-9.1C292.7,67.1,293.2,67.3,293.7,67.5z M274.1,67
		c2.4-0.5,4.8-0.9,7.2-1c3.3-0.1,6.9,0,10.2,0.8c-2.7,4.2-6.9,7.5-11.8,8.9c-4-1.4-7.6-3.9-10.6-7.2c-0.1-0.1-0.3,0-0.2,0.1
		c2.1,3.5,5.5,6,9.3,7.4c-0.2,0-0.4,0.1-0.6,0.1c-2.4,0.4-4.8,0.4-7.1,0c-1.1-0.2-5.9-0.4-5.6-3.8C265.1,69.1,272.3,67.4,274.1,67z"
		/>
</g>
</svg>
