<?xml version="1.0" encoding="utf-8"?>
<!-- Generator: Adobe Illustrator 25.3.1, SVG Export Plug-In . SVG Version: 6.00 Build 0)  -->
<svg version="1.1" id="圖層_1" xmlns="http://www.w3.org/2000/svg" xmlns:xlink="http://www.w3.org/1999/xlink" x="0px" y="0px"
	 viewBox="0 0 100 70" style="enable-background:new 0 0 100 70;" xml:space="preserve">
<style type="text/css">
	.st0{clip-path:url(#SVGID_2_);}
	.st1{fill:#FFFFFF;}
	.st2{fill:#DBDBDB;}
</style>
<g>
	<defs>
		<rect id="SVGID_1_" y="0.6" width="100" height="68.7"/>
	</defs>
	<clipPath id="SVGID_2_">
		<use xlink:href="#SVGID_1_"  style="overflow:visible;"/>
	</clipPath>
	<g class="st0">
		<path class="st1" d="M67.5,18.9c0,0-7.6,12.7-22.1,21.6c-14.6,8.9-22.1,9-22.1,9L0,35.5c0,0,14.9-3.9,25.6-13.5S48.1,0.6,48.1,0.6
			L67.5,18.9z"/>
		<path class="st2" d="M32.5,38.8c0,0,7.6,12.7,22.1,21.6c14.6,8.9,22.1,9,22.1,9L100,55.4c0,0-14.9-3.9-25.6-13.5
			c-10.8-9.7-22.5-21.3-22.5-21.3L32.5,38.8z"/>
	</g>
</g>
</svg>
