<?xml version="1.0" encoding="utf-8"?>
<!-- Generator: Adobe Illustrator 25.3.1, SVG Export Plug-In . SVG Version: 6.00 Build 0)  -->
<svg version="1.1" id="圖層_1" xmlns="http://www.w3.org/2000/svg" xmlns:xlink="http://www.w3.org/1999/xlink" x="0px" y="0px"
	 viewBox="0 0 80 70" style="enable-background:new 0 0 80 70;" xml:space="preserve">
<style type="text/css">
	.st0{clip-path:url(#SVGID_2_);}
	.st1{fill:#FFFFFF;}
	.st2{fill:#E9E9E9;}
</style>
<g>
	<defs>
		<rect id="SVGID_1_" x="0.3" width="79.5" height="70"/>
	</defs>
	<clipPath id="SVGID_2_">
		<use xlink:href="#SVGID_1_"  style="overflow:visible;"/>
	</clipPath>
	<g class="st0">
		<path class="st1" d="M0.3,17.2L30.1,0l48.6,28L48.9,45.2L0.3,17.2z"/>
		<path class="st2" d="M28.3,31l25.5-14.7l1,0.6L29.3,31.5L28.3,31z"/>
		<path class="st2" d="M25.8,29.5l25.5-14.7l1,0.6L26.8,30.1L25.8,29.5z"/>
		<path class="st2" d="M23.3,28.1l25.5-14.7l1,0.6L24.3,28.7L23.3,28.1z"/>
		<path class="st2" d="M20.8,26.6L46.3,12l1,0.6L21.8,27.2L20.8,26.6z"/>
		<path class="st2" d="M39.3,37.1l25.5-14.7l1,0.6L40.3,37.7L39.3,37.1z"/>
		<path class="st2" d="M36.8,35.7L62.3,21l1,0.6L37.8,36.3L36.8,35.7z"/>
		<path class="st2" d="M34.3,34.3l25.5-14.7l1,0.6L35.3,34.8L34.3,34.3z"/>
		<path class="st2" d="M31.8,32.8l25.5-14.7l1,0.6L32.8,33.4L31.8,32.8z"/>
		<path class="st2" d="M46.8,41.5l25.5-14.7l1,0.6L47.8,42L46.8,41.5z"/>
		<path class="st2" d="M44.3,40l25.5-14.7l1,0.6L45.3,40.6L44.3,40z"/>
		<path class="st2" d="M41.8,38.6l25.5-14.7l1,0.6L42.8,39.2L41.8,38.6z"/>
		<path class="st2" d="M39.3,37.2l25.5-14.7l1,0.6L40.3,37.7L39.3,37.2z"/>
		<path class="st2" d="M17.8,24.9l25.5-14.7l1,0.6L18.8,25.5L17.8,24.9z"/>
		<path class="st2" d="M15.3,23.5L40.8,8.8l1,0.6L16.3,24.1L15.3,23.5z"/>
		<path class="st2" d="M12.8,22L38.3,7.3l1,0.6L13.8,22.6L12.8,22z"/>
		<path class="st2" d="M10.3,20.6L35.8,5.9l1,0.6L11.3,21.2L10.3,20.6z"/>
		<path class="st2" d="M8,19.2L33.4,4.6l1,0.6L9,19.8L8,19.2z"/>
		<path class="st2" d="M5.5,17.8L30.9,3.1l1,0.6L6.5,18.4L5.5,17.8z"/>
		<path class="st1" d="M79.7,42L49.9,24.8l-48.6,28L31.1,70L79.7,42z"/>
		<path class="st2" d="M51.7,55.8L26.2,41.1l-1,0.6l25.5,14.7L51.7,55.8z"/>
		<path class="st2" d="M54.2,54.3L28.7,39.7l-1,0.6l25.5,14.7L54.2,54.3z"/>
		<path class="st2" d="M56.7,52.9L31.2,38.2l-1,0.6l25.5,14.7L56.7,52.9z"/>
		<path class="st2" d="M59.2,51.5L33.7,36.8l-1,0.6L58.2,52L59.2,51.5z"/>
		<path class="st2" d="M40.7,61.9L15.2,47.3l-1,0.6l25.5,14.7L40.7,61.9z"/>
		<path class="st2" d="M43.2,60.5L17.7,45.8l-1,0.6l25.5,14.7L43.2,60.5z"/>
		<path class="st2" d="M45.7,59.1L20.2,44.4l-1,0.6l25.5,14.7L45.7,59.1z"/>
		<path class="st2" d="M48.2,57.6L22.7,43l-1,0.6l25.5,14.7L48.2,57.6z"/>
		<path class="st2" d="M33.2,66.3L7.8,51.6l-1,0.6l25.5,14.7L33.2,66.3z"/>
		<path class="st2" d="M35.7,64.8L10.3,50.2l-1,0.6l25.5,14.7L35.7,64.8z"/>
		<path class="st2" d="M38.2,63.4L12.7,48.7l-1,0.6L37.2,64L38.2,63.4z"/>
		<path class="st2" d="M40.7,62L15.2,47.3l-1,0.6l25.5,14.7L40.7,62z"/>
		<path class="st2" d="M62.2,49.7L36.7,35l-1,0.6l25.5,14.7L62.2,49.7z"/>
		<path class="st2" d="M64.7,48.3L39.2,33.6l-1,0.6l25.5,14.7L64.7,48.3z"/>
		<path class="st2" d="M67.2,46.8L41.7,32.2l-1,0.6l25.5,14.7L67.2,46.8z"/>
		<path class="st2" d="M69.7,45.4L44.2,30.7l-1,0.6L68.7,46L69.7,45.4z"/>
		<path class="st2" d="M72,44L46.5,29.4l-1,0.6L71,44.6L72,44z"/>
		<path class="st2" d="M74.5,42.6L49,27.9l-1,0.6l25.5,14.7L74.5,42.6z"/>
	</g>
</g>
</svg>
