<?xml version="1.0" encoding="utf-8"?>
<!-- Generator: Adobe Illustrator 25.3.1, SVG Export Plug-In . SVG Version: 6.00 Build 0)  -->
<svg version="1.1" id="圖層_1" xmlns="http://www.w3.org/2000/svg" xmlns:xlink="http://www.w3.org/1999/xlink" x="0px" y="0px"
	 viewBox="0 0 100 80" style="enable-background:new 0 0 100 80;" xml:space="preserve">
<style type="text/css">
	.st0{clip-path:url(#SVGID_2_);}
	.st1{fill:#FFFFFF;}
	.st2{fill:#E9E9E9;}
	.st3{fill:#DBDBDB;}
	.st4{fill:#C6C6C6;}
</style>
<g>
	<defs>
		<rect id="SVGID_1_" y="1.1" width="100" height="77.8"/>
	</defs>
	<clipPath id="SVGID_2_">
		<use xlink:href="#SVGID_1_"  style="overflow:visible;"/>
	</clipPath>
	<g class="st0">
		<path class="st1" d="M0,23.1l38-22L100,37l-38,22L0,23.1z"/>
		<path class="st2" d="M35.8,40.8L68.3,22l1.3,0.7L37,41.6L35.8,40.8z"/>
		<path class="st2" d="M32.6,39l32.5-18.9l1.3,0.8L33.9,39.7L32.6,39z"/>
		<path class="st2" d="M29.4,37.1l32.5-18.8l1.3,0.7L30.7,37.9L29.4,37.1z"/>
		<path class="st2" d="M26.2,35.3l32.5-18.9l1.3,0.8L27.5,36L26.2,35.3z"/>
		<path class="st2" d="M49.8,48.7l32.5-18.8l1.3,0.8L51,49.5L49.8,48.7z"/>
		<path class="st2" d="M46.6,46.9l32.5-18.8l1.3,0.7L47.8,47.6L46.6,46.9z"/>
		<path class="st2" d="M43.4,45.1l32.5-18.8l1.3,0.8L44.7,45.8L43.4,45.1z"/>
		<path class="st2" d="M40.2,43.2l32.5-18.8l1.3,0.7L41.5,44L40.2,43.2z"/>
		<path class="st2" d="M59.3,54.3l32.5-18.8l1.3,0.7L60.6,55L59.3,54.3z"/>
		<path class="st2" d="M56.1,52.5l32.5-18.8l1.3,0.7L57.4,53.2L56.1,52.5z"/>
		<path class="st2" d="M52.9,50.6l32.5-18.8l1.3,0.7L54.2,51.4L52.9,50.6z"/>
		<path class="st2" d="M49.8,48.8L82.3,30l1.3,0.7L51,49.5L49.8,48.8z"/>
		<path class="st2" d="M22.3,33.1l32.5-18.8l1.3,0.7L23.6,33.8L22.3,33.1z"/>
		<path class="st2" d="M19.2,31.2l32.5-18.9l1.3,0.8L20.4,32L19.2,31.2z"/>
		<path class="st2" d="M16,29.4l32.5-18.8l1.3,0.7L17.3,30.1L16,29.4z"/>
		<path class="st2" d="M12.8,27.5L45.3,8.7l1.3,0.8L14.1,28.3L12.8,27.5z"/>
		<path class="st2" d="M9.8,25.8L42.3,6.9l1.3,0.7L11.1,26.5L9.8,25.8z"/>
		<path class="st2" d="M6.6,24L39.1,5.1l1.3,0.7L7.9,24.7L6.6,24z"/>
		<path class="st2" d="M62,59.1v19.8L0,43V23.1L62,59.1z"/>
		<path class="st3" d="M100,37l-38,22v19.8l38-22V37z"/>
		<path class="st1" d="M37.5,53.8L62,67.2l12.8-7.4L60,74.5L37.5,53.8z"/>
		<path class="st4" d="M94.1,57.6c0,0-5.1,3-14.8,8.6s-14.5,7.6-14.5,7.6s14.1-8.1,19.9-11.4C90.4,59.1,94.1,57.6,94.1,57.6z"/>
		<path class="st3" d="M3.6,40.2c0,0,10.9,5.7,20.6,11.3s14.5,7.6,14.5,7.6S24.7,51,18.9,47.7C13.1,44.4,3.6,40.2,3.6,40.2z"/>
		<path class="st3" d="M18.2,39.3c0,0,10.9,5.7,20.6,11.3s14.5,7.6,14.5,7.6s-14.1-8.1-19.9-11.4C27.7,43.5,18.2,39.3,18.2,39.3z"/>
	</g>
</g>
</svg>
