<?xml version="1.0" encoding="utf-8"?>
<!-- Generator: Adobe Illustrator 25.3.1, SVG Export Plug-In . SVG Version: 6.00 Build 0)  -->
<svg version="1.1" id="圖層_1" xmlns="http://www.w3.org/2000/svg" xmlns:xlink="http://www.w3.org/1999/xlink" x="0px" y="0px"
	 viewBox="0 0 200 200" style="enable-background:new 0 0 200 200;" xml:space="preserve">
<style type="text/css">
	.st0{fill:#B2B2CC;}
	.st1{fill:#242456;}
	.st2{opacity:0.43;fill:#A4D9F7;}
	.st3{opacity:0.42;fill:#FFFFFF;}
	.st4{opacity:7.000000e-02;}
	.st5{fill:#D9D9E8;}
</style>
<g>
	
		<rect x="121.7" y="118.9" transform="matrix(0.7071 -0.7071 0.7071 0.7071 -53.9569 130.2637)" class="st0" width="17.1" height="22.8"/>
	<path class="st1" d="M141,127.1c1.1-1.1,2.8-1.1,3.8,0l51.4,51.4c4.9,4.9,4.9,12.8,0,17.7c-2.5,2.5-5.7,3.7-8.9,3.7
		s-6.4-1.2-8.9-3.7l-51.4-51.4c-1.1-1.1-1.1-2.8,0-3.8L141,127.1z"/>
	<circle class="st2" cx="74.7" cy="74.7" r="70.7"/>
	<path class="st3" d="M72.5,19.6c-0.2-2.8-2.8-4.7-5.5-4.1c-22.5,4.7-42,22.1-48.9,44c-0.5,1.6-0.9,3.5,0,5c1.3,2.1,4.6,1.8,6.4,0.2
		c1.8-1.6,2.6-4.1,3.5-6.4c6.9-18.2,21.7-31.5,40.5-33.8C70.9,24.2,72.7,22,72.5,19.6L72.5,19.6z"/>
	<path class="st3" d="M24.1,79.2c0,3.6-1.2,6.6-3.8,6.6s-4.7-2.9-4.7-6.6c0-3.6,2.1-6.6,4.7-6.6S24.1,75.6,24.1,79.2z"/>
	<path class="st4" d="M145.4,74.7c0,39.1-31.7,70.7-70.7,70.7c-31.9,0-58.9-21.1-67.7-50.2c10.2,24.2,34.1,41.1,62,41.1
		c37.2,0,67.3-30.1,67.3-67.3c0-27.9-17-51.8-41.1-62C124.3,15.8,145.4,42.8,145.4,74.7z"/>
	<path class="st5" d="M74.7,149.4c-10.1,0-19.9-2-29.1-5.9c-8.9-3.8-16.9-9.2-23.7-16c-6.9-6.9-12.2-14.9-16-23.7
		C2,94.6,0,84.8,0,74.7c0-10.1,2-19.9,5.9-29.1c3.8-8.9,9.2-16.9,16-23.7c6.9-6.9,14.9-12.2,23.7-16C54.8,2,64.6,0,74.7,0
		s19.9,2,29.1,5.9c8.9,3.8,16.9,9.2,23.7,16c6.9,6.9,12.2,14.9,16,23.7c3.9,9.2,5.9,19,5.9,29.1c0,10.1-2,19.9-5.9,29.1
		c-3.8,8.9-9.2,16.9-16,23.7c-6.9,6.9-14.9,12.2-23.7,16C94.6,147.5,84.8,149.4,74.7,149.4z M74.7,8c-9,0-17.7,1.8-26,5.2
		c-7.9,3.4-15.1,8.2-21.2,14.3S16.6,40.8,13.2,48.7C9.7,57,8,65.7,8,74.7s1.8,17.7,5.2,26c3.4,7.9,8.2,15.1,14.3,21.2
		c6.1,6.1,13.3,10.9,21.2,14.3c8.2,3.5,17,5.2,26,5.2s17.7-1.8,26-5.2c7.9-3.4,15.1-8.2,21.2-14.3c6.1-6.1,10.9-13.3,14.3-21.2
		c3.5-8.2,5.2-17,5.2-26s-1.8-17.7-5.2-26c-3.4-7.9-8.2-15.1-14.3-21.2c-6.1-6.1-13.3-10.9-21.2-14.3C92.5,9.7,83.7,8,74.7,8z"/>
	<path class="st0" d="M74.7,142.8c-9.2,0-18.1-1.8-26.5-5.4c-8.1-3.4-15.4-8.3-21.6-14.6c-6.3-6.3-11.2-13.5-14.6-21.6
		c-3.6-8.4-5.4-17.3-5.4-26.5c0-9.2,1.8-18.1,5.4-26.5c3.4-8.1,8.3-15.4,14.6-21.6c6.3-6.3,13.5-11.2,21.6-14.6
		c8.4-3.6,17.3-5.4,26.5-5.4s18.1,1.8,26.5,5.4c8.1,3.4,15.4,8.3,21.6,14.6c6.3,6.3,11.2,13.5,14.6,21.6c3.6,8.4,5.4,17.3,5.4,26.5
		c0,9.2-1.8,18.1-5.4,26.5c-3.4,8.1-8.3,15.4-14.6,21.6c-6.3,6.3-13.5,11.2-21.6,14.6C92.8,141,83.9,142.8,74.7,142.8z M74.7,9.7
		c-8.8,0-17.3,1.7-25.3,5.1c-7.7,3.3-14.7,8-20.7,13.9S18,41.6,14.8,49.4c-3.4,8-5.1,16.5-5.1,25.3S11.4,92,14.8,100
		c3.3,7.7,8,14.7,13.9,20.7c6,6,12.9,10.7,20.7,13.9c8,3.4,16.5,5.1,25.3,5.1s17.3-1.7,25.3-5.1c7.7-3.3,14.7-8,20.7-13.9
		c6-6,10.7-12.9,13.9-20.7c3.4-8,5.1-16.5,5.1-25.3s-1.7-17.3-5.1-25.3c-3.3-7.7-8-14.7-13.9-20.7c-6-6-12.9-10.7-20.7-13.9
		C92,11.4,83.5,9.7,74.7,9.7z"/>
</g>
</svg>
