<svg width="67" height="72" viewBox="0 0 67 72" fill="none" xmlns="http://www.w3.org/2000/svg">
<g id="Group">
<path id="Vector" d="M6.46445 71.0012C5.13889 70.6974 3.86941 70.2805 2.79876 69.39C1.05514 67.9435 0.106856 66.0903 0.0252834 63.8202C-0.0206013 62.5282 0.00998852 61.231 0.00998852 59.9389C0.00998852 42.5348 0.00998852 25.1358 0.00998852 7.73173C0.00998852 3.97396 2.26854 1.01408 5.77617 0.221348C6.43895 0.0720667 7.13742 0.0308857 7.8206 0.0257381C18.9451 0.00514762 30.0696 0 41.1992 0C46.2159 0 50.6974 3.61363 51.7986 8.52961C52.9304 13.5897 50.4934 18.7219 45.854 20.9251C45.2982 21.1876 45.1504 21.4862 45.1657 22.0679C45.2065 23.8232 45.181 25.5785 45.181 27.339C45.181 27.5604 45.2014 27.7766 45.2065 27.9001C45.9916 27.5192 46.7258 27.0302 47.5364 26.7985C49.0098 26.3764 50.3558 26.814 51.4774 27.8332C52.3594 28.6362 53.1904 29.501 54.0164 30.3658C54.5925 30.9732 54.5874 31.8123 54.052 32.358C53.5014 32.919 52.6602 32.9088 52.028 32.2962C51.2531 31.5446 50.5189 30.7468 49.7338 30.0055C48.8926 29.2025 47.8117 29.2797 47.1591 30.1548C46.6595 30.824 46.6901 31.6218 47.3019 32.3013C47.8576 32.9139 48.4643 33.4801 49.0353 34.0824C49.7134 34.7928 49.7593 35.5649 49.1832 36.1723C48.5918 36.7901 47.7811 36.754 47.0674 36.0437C45.91 34.8906 44.7782 33.7169 43.6107 32.569C42.8052 31.7814 41.9487 31.7299 41.2247 32.3734C40.4447 33.0683 40.4294 34.0876 41.2349 34.9369C42.2495 36.0025 43.2997 37.0371 44.3347 38.0821C44.4978 38.2468 44.6661 38.4064 44.8139 38.5763C45.3645 39.2094 45.3696 40.0331 44.8241 40.5684C44.2837 41.1089 43.4527 41.1141 42.8511 40.5324C41.9589 39.6676 41.0972 38.7719 40.2254 37.8917C39.2721 36.929 38.334 35.9407 37.35 35.009C36.4272 34.139 35.1934 34.3449 34.6377 35.4105C34.2859 36.09 34.4083 36.7798 35.0863 37.485C36.2641 38.7101 37.4724 39.9095 38.6705 41.1244C39.2364 41.6957 39.8125 42.262 40.3682 42.8437C41.0463 43.554 41.0921 44.3262 40.5109 44.9285C39.9246 45.541 39.0987 45.4998 38.3951 44.7946C34.1992 40.5633 30.0084 36.3319 25.8176 32.0954C25.3792 31.6527 24.956 31.1997 24.4972 30.7828C23.6967 30.0518 22.7994 30.0415 22.1112 30.7262C21.4076 31.4211 21.4076 32.2962 22.1162 33.1353C22.2182 33.2588 22.3304 33.3772 22.4425 33.4904C27.6275 38.7153 32.8176 43.935 37.9975 49.1598C38.4155 49.5819 38.8438 50.0143 39.1854 50.5033C40.0521 51.7542 39.5525 53.0823 38.074 53.4169C37.4571 53.5559 36.8045 53.561 36.1672 53.5507C34.4287 53.5198 32.6901 53.4272 30.9516 53.3963C29.1927 53.3654 28.326 54.642 28.948 56.3098C29.3558 57.4063 30.1818 58.0189 31.3085 58.1784C33.3019 58.4564 35.3005 58.688 37.299 58.9454C41.1584 59.4345 45.0127 59.9441 48.8773 60.4022C49.8001 60.5103 50.7483 60.5206 51.6813 60.4588C52.8081 60.3868 53.7767 59.9338 54.5925 59.0896C56.8663 56.7474 59.1147 54.3692 61.4956 52.1351C64.7687 49.0568 64.0702 44.8049 61.7301 42.1487C61.4089 41.7884 61.0469 41.4641 60.741 41.0883C60.2618 40.5118 60.3077 39.7088 60.8175 39.2043C61.3069 38.7153 62.087 38.6381 62.6274 39.1065C66.2115 42.2208 67.5014 47.0235 65.6813 50.9718C65.2377 51.9344 64.5902 52.8558 63.8561 53.6228C61.363 56.2378 58.8139 58.7962 56.2443 61.3339C54.414 63.1407 52.0994 63.4702 49.6828 63.2952C48.2043 63.1871 46.7411 62.9606 45.2473 62.7856C45.1657 63.5937 45.1504 64.3607 44.9974 65.0968C44.3704 68.1236 42.0914 70.3217 39.0579 70.8931C38.9509 70.9137 38.8489 70.9703 38.7418 71.0115C33.98 71.0115 29.2182 71.0115 24.4564 71.0115C24.3901 70.9548 24.3289 70.8931 24.2575 70.8416C23.6916 70.4555 23.4061 69.9459 23.5948 69.2458C23.7732 68.5869 24.2677 68.2317 25.0427 68.2266C29.1876 68.2214 33.3325 68.2266 37.4724 68.2214C40.7353 68.2163 42.8052 65.7609 42.331 62.4355C42.1424 62.3943 41.9487 62.3377 41.7447 62.312C38.2728 61.8744 34.8008 61.442 31.3238 61.0148C29.6414 60.8089 28.1832 60.1654 27.1585 58.7601C26.8781 58.3792 26.6028 58.2454 26.149 58.2454C18.5933 58.2556 11.0376 58.2556 3.48194 58.2556C3.26271 58.2556 3.03838 58.2762 2.75798 58.2917C2.75798 59.9492 2.75798 61.5656 2.75798 63.1768C2.76307 66.3014 4.66984 68.2214 7.77471 68.2214C9.35519 68.2214 10.9357 68.2163 12.5161 68.2266C13.2401 68.2317 13.7295 68.6024 13.9029 69.2355C14.0813 69.8996 13.8417 70.4092 13.3013 70.7953C13.2146 70.857 13.133 70.9342 13.0515 71.0063C10.8592 71.0012 8.66182 71.0012 6.46445 71.0012ZM38.1147 32.08C38.9509 30.2217 40.3835 29.2231 42.3514 29.0892C42.3514 26.6956 42.3514 24.374 42.3514 22.037C37.2735 22.2326 33.3529 20.2919 31.1963 15.6179C29.0296 10.913 30.1308 6.63529 33.6945 2.81575C33.3274 2.81575 33.0878 2.81575 32.8431 2.81575C24.487 2.81575 16.1308 2.81575 7.77471 2.81575C4.66474 2.81575 2.76817 4.73067 2.76307 7.86557C2.76307 23.468 2.76307 39.0653 2.76307 54.6678C2.76307 54.9148 2.76307 55.1568 2.76307 55.4142C10.5533 55.4142 18.2517 55.4142 25.9502 55.4142C25.9961 55.0744 26.0317 54.7759 26.0776 54.4773C26.4192 52.2793 28.1526 50.6783 30.3602 50.6114C31.5736 50.5754 32.787 50.6629 34.0004 50.6886C34.4898 50.6989 34.9844 50.6886 35.5554 50.6886C35.3871 50.4982 35.275 50.3643 35.1526 50.2408C30.2633 45.3042 25.369 40.3728 20.4797 35.4362C20.286 35.2406 20.0922 35.0399 19.9189 34.8288C18.3027 32.8624 18.4863 30.2371 20.3522 28.559C22.0806 27.0044 24.5176 26.989 26.2714 28.6414C28.0456 30.3144 29.7229 32.0851 31.4461 33.8096C31.6195 33.9846 31.803 34.1442 32.007 34.3398C33.46 31.9153 35.4483 31.0762 38.1147 32.08ZM32.9196 11.0108C32.9094 15.5304 36.5903 19.247 41.087 19.2573C45.5787 19.2676 49.3004 15.5613 49.3208 11.0674C49.3361 6.52719 45.6296 2.78486 41.1074 2.78486C36.6107 2.78486 32.9247 6.48086 32.9196 11.0108Z" fill="white"/>
<path id="Vector_2" d="M18.2772 71.0013C18.1549 70.9035 18.0325 70.8108 17.9152 70.713C17.2474 70.1622 17.1709 69.2614 17.747 68.6488C18.2925 68.0671 19.2102 68.0671 19.7608 68.6437C20.3318 69.2459 20.2605 70.1674 19.5977 70.7079C19.4804 70.8057 19.3581 70.8983 19.2408 70.9961C18.9196 71.0013 18.5984 71.0013 18.2772 71.0013Z" fill="white"/>
<path id="Vector_3" d="M57.3965 37.176C56.6266 37.1554 56.025 36.5119 56.0454 35.7346C56.0658 34.9831 56.6776 34.3911 57.422 34.3911C58.2122 34.3963 58.8393 35.0706 58.8036 35.8736C58.7679 36.6303 58.1561 37.1966 57.3965 37.176Z" fill="white"/>
<path id="Vector_4" d="M22.5497 64.6231C21.479 64.6231 20.4033 64.6283 19.3326 64.6231C18.4098 64.6128 17.7878 64.0466 17.7878 63.2333C17.7878 62.4199 18.4047 61.8486 19.3326 61.8434C21.4994 61.8331 23.6713 61.8331 25.8381 61.8434C26.7915 61.8486 27.3676 62.3839 27.3676 63.2281C27.3676 64.0723 26.7864 64.6128 25.8381 64.618C24.7419 64.6283 23.6458 64.6231 22.5497 64.6231Z" fill="white"/>
<path id="Vector_5" d="M22.8964 20.251C22.8964 20.9201 22.9168 21.5893 22.8913 22.2585C22.8556 23.18 22.3152 23.741 21.5147 23.7462C20.7092 23.7513 20.1484 23.1851 20.128 22.274C20.1025 20.9356 20.0974 19.5972 20.128 18.264C20.1484 17.3734 20.7551 16.7763 21.53 16.7969C22.2897 16.8123 22.8403 17.3837 22.8862 18.2485C22.9219 18.9126 22.8964 19.5818 22.8964 20.251Z" fill="white"/>
<path id="Vector_6" d="M17.6961 35.4517C17.4208 35.9459 17.2933 36.3319 17.0435 36.5996C16.1513 37.5519 15.2234 38.4785 14.2904 39.3948C13.6175 40.0588 12.8017 40.064 12.2256 39.4514C11.6699 38.8646 11.7005 38.0821 12.3429 37.4181C13.2708 36.4606 14.2038 35.5186 15.152 34.5817C15.6007 34.139 16.187 33.9589 16.7121 34.3089C17.1098 34.5714 17.3647 35.0502 17.6961 35.4517Z" fill="white"/>
<path id="Vector_7" d="M26.7355 26.2477C26.3633 25.9389 25.9146 25.6918 25.6597 25.3108C25.3487 24.8424 25.4201 24.2556 25.8178 23.8386C26.8272 22.7731 27.8571 21.723 28.9175 20.7089C29.4631 20.189 30.2686 20.2713 30.7733 20.7861C31.2883 21.3111 31.3545 22.0936 30.8294 22.6598C29.8454 23.7151 28.8207 24.7395 27.7755 25.7381C27.5512 25.9594 27.1892 26.0315 26.7355 26.2477Z" fill="white"/>
<path id="Vector_8" d="M11.7411 31.5136C11.0579 31.5136 10.3696 31.5393 9.68646 31.5084C8.88093 31.4724 8.33541 30.9062 8.31502 30.1598C8.29972 29.4133 8.82995 28.775 9.62019 28.7442C11.0324 28.6978 12.4497 28.6978 13.862 28.739C14.6522 28.7647 15.2028 29.3928 15.2028 30.1289C15.2028 30.8907 14.6267 31.457 13.7855 31.5136C13.7396 31.5187 13.6937 31.5187 13.6478 31.5187C13.0106 31.5187 12.3682 31.5187 11.7309 31.5187C11.7411 31.5187 11.7411 31.5187 11.7411 31.5136Z" fill="white"/>
<path id="Vector_9" d="M15.7891 25.9646C15.6515 25.8874 15.2844 25.7793 15.0346 25.5425C14.0608 24.6057 13.1074 23.6431 12.1693 22.665C11.5422 22.0113 11.5524 21.2082 12.1387 20.6368C12.6945 20.0963 13.4898 20.0963 14.1016 20.6935C15.0703 21.6406 16.0185 22.6032 16.9617 23.5761C17.4002 24.0291 17.5276 24.5799 17.2625 25.1668C17.028 25.6918 16.5998 25.9646 15.7891 25.9646Z" fill="white"/>
<g id="Group_2">
<g id="Group_3">
<path id="Vector_10" d="M38.5224 15.2266C38.1859 15.2266 37.8545 15.0979 37.5945 14.8406C37.0847 14.3258 37.0847 13.4867 37.5945 12.972L43.3046 7.20663C43.8145 6.69187 44.6455 6.69187 45.1553 7.20663C45.6652 7.72139 45.6652 8.56045 45.1553 9.07522L39.4452 14.8406C39.1903 15.0979 38.8589 15.2266 38.5224 15.2266Z" fill="white"/>
</g>
<g id="Group_4">
<path id="Vector_11" d="M43.7892 15.2266C43.4527 15.2266 43.1213 15.0979 42.8613 14.8406L37.1512 9.07522C36.6413 8.56045 36.6413 7.72139 37.1512 7.20663C37.661 6.69187 38.492 6.69187 39.0019 7.20663L44.712 12.972C45.2218 13.4867 45.2218 14.3258 44.712 14.8406C44.457 15.0979 44.1206 15.2266 43.7892 15.2266Z" fill="white"/>
</g>
</g>
</g>
</svg>
