<?xml version="1.0" encoding="utf-8"?>
<!-- Generator: Adobe Illustrator 25.3.1, SVG Export Plug-In . SVG Version: 6.00 Build 0)  -->
<svg version="1.1" id="圖層_1" xmlns="http://www.w3.org/2000/svg" xmlns:xlink="http://www.w3.org/1999/xlink" x="0px" y="0px"
	 viewBox="0 0 67 67" style="enable-background:new 0 0 67 67;" xml:space="preserve">
<style type="text/css">
	.st0{fill:#FFFFFF;}
</style>
<g>
	<path class="st0" d="M3.7,0c14.7,0,29.3,0,44,0c3,1.1,3.7,2.2,3.7,5.5c0,3.9,0,7.7,0,11.6c0,0.3,0,0.5,0,0.8c0.3,0,0.5,0,0.8,0
		c2.6,0,5.1,0,7.7,0c0.5,0,1,0,1.5,0.1c2.1,0.5,3.4,2.3,3.4,4.6c0,10.8,0,21.6,0,32.4c0,0.3,0,0.6,0,0.8c1.6,0.3,2.2,1.1,2.2,2.6
		c0,1.3,0,2.6,0,3.9c0,2.8-1.9,4.7-4.7,4.7c-14,0-27.9,0-41.9,0c-2.9,0-4.7-1.9-4.8-4.7c0-1.2,0-2.4,0-3.5c0-1.9,0.4-2.4,2.2-3
		c0-2.9,0-5.9,0-8.9c-0.3,0-0.6,0-0.8,0c-4.1,0-8.2,0-12.3,0c-2.4,0-4-1.2-4.6-3.5c0-0.1-0.1-0.1-0.1-0.2C0,30,0,16.8,0,3.7
		c0.3-1,0.7-2,1.6-2.6C2.2,0.7,3,0.4,3.7,0z M62.5,55.8c0-0.3,0-0.5,0-0.7c0-10.8,0-21.6,0-32.4c0-1.8-0.8-2.6-2.6-2.6
		c-12.4,0-24.8,0-37.2,0c-1.8,0-2.6,0.8-2.6,2.6c0,10.8,0,21.6,0,32.4c0,0.2,0,0.5,0,0.7C34.3,55.8,48.4,55.8,62.5,55.8z M17.9,44.7
		c0-0.3,0-0.6,0-0.9c0-7,0-14,0-21.1c0-1.4,0.4-2.6,1.4-3.6c1-1,2.2-1.3,3.5-1.3c8.5,0,17,0,25.5,0c0.3,0,0.5,0,0.8,0
		c0-2.2,0-4.4,0-6.6c-15.6,0-31.2,0-46.9,0c0,0.2,0,0.4,0,0.6c0,10.1,0,20.2,0,30.3c0,1.7,0.9,2.5,2.6,2.5c4.1,0,8.2,0,12.4,0
		C17.4,44.7,17.6,44.7,17.9,44.7z M49.1,8.9c0-1.4,0-2.6,0-3.9c0-1.9-0.8-2.7-2.8-2.7c-13.8,0-27.6,0-41.4,0c-0.2,0-0.4,0-0.6,0
		C3.3,2.3,2.4,3,2.3,4.1c-0.1,1.6,0,3.2,0,4.8C17.9,8.9,33.5,8.9,49.1,8.9z M49.1,58.1c0,0.5,0,0.9,0,1.3c-0.1,1.8-1.5,3.1-3.2,3.1
		c-3,0-6.1,0-9.1,0c-1.8,0-3.2-1.5-3.3-3.3c0-0.4,0-0.7,0-1.1c-5.2,0-10.4,0-15.6,0c0,1.3,0,2.6,0,4c0,1.9,0.8,2.7,2.7,2.7
		c13.2,0,26.4,0,39.6,0c0.7,0,1.4,0,2.2,0c1.4,0,2.4-0.9,2.4-2.4c0-1.3,0-2.5,0-3.8c0-0.2,0-0.3,0-0.5
		C59.5,58.1,54.4,58.1,49.1,58.1z M35.7,58.1c0,0.3,0,0.6,0,0.8c0,1,0.4,1.4,1.4,1.4c0.5,0,1,0,1.4,0c2.3,0,4.6,0,6.9,0
		c1,0,1.3-0.4,1.4-1.3c0-0.3,0-0.5,0-0.9C43.1,58.1,39.5,58.1,35.7,58.1z"/>
	<path class="st0" d="M41.3,22.2c8.8,0.1,15.3,8.6,12.9,17.1c-0.2,0.6-0.2,1.1,0.1,1.8c1.2,2.9-0.5,6.3-3.3,6.9
		C50.6,48,50.2,48,49.9,48c-0.5,0-0.7,0.2-0.7,0.7c0,0.5,0,1,0,1.4c-0.1,2-1.4,3.4-3.4,3.4c-3,0-5.9,0-8.9,0c-2,0-3.3-1.5-3.4-3.5
		c0-0.4,0-0.9,0-1.3c0-0.5-0.2-0.7-0.7-0.8c-2.7-0.2-4.6-2-4.8-4.6c-0.1-0.8,0.2-1.6,0.4-2.4c0.2-0.5,0.2-1,0.1-1.5
		c-2.1-7.1,2.1-14.6,9.2-16.6C38.9,22.5,40.1,22.4,41.3,22.2z M41.3,24.6c-0.4,0-0.9,0-1.3,0.1c-7,0.9-11.4,7.6-9.4,14.4
		c0.3,0.9,0.2,1.8-0.2,2.7c-0.9,2,0.3,4,2.5,4.1c1.5,0.1,2.7,1.2,2.7,2.7c0,0.5,0,0.9,0,1.4c0,1.1,0.4,1.5,1.5,1.5
		c2.2,0,4.4,0,6.5,0c0.6,0,1.2,0,1.8,0c1,0,1.3-0.4,1.4-1.3c0-0.5,0-0.9,0-1.4c0.1-1.8,1.2-2.9,3-2.8c1,0,1.7-0.4,2.2-1.3
		c0.5-0.9,0.5-1.8,0.1-2.6c-0.5-1-0.5-2-0.2-3C54.1,31.7,48.7,24.6,41.3,24.6z"/>
	<path class="st0" d="M18.4,15.6c-2.3,0-4.6,0-6.9,0c-0.5,0-1-0.1-1.3-0.6c-0.3-0.6,0-1.4,0.7-1.6c0.2-0.1,0.5-0.1,0.8-0.1
		c4.5,0,9,0,13.5,0c0.1,0,0.2,0,0.3,0c0.8,0,1.3,0.5,1.3,1.2c0,0.6-0.5,1.1-1.3,1.1C23.1,15.6,20.7,15.6,18.4,15.6z"/>
	<path class="st0" d="M36.8,15.6c-2.1,0-4.3,0-6.4,0c-0.8,0-1.2-0.3-1.3-0.9c-0.1-0.6,0.2-1.1,0.8-1.3c0.3-0.1,0.6-0.1,0.8-0.1
		c4.1,0,8.2,0,12.4,0c0.2,0,0.4,0,0.6,0c0.7,0.1,1,0.5,1,1.1c0,0.6-0.4,1-1.1,1.1c-1.3,0-2.6,0-3.9,0C38.7,15.6,37.8,15.6,36.8,15.6
		z"/>
	<path class="st0" d="M13.4,20.1c-0.7,0-1.4,0-2.1,0c-0.8,0-1.3-0.4-1.3-1.1c0-0.7,0.4-1.1,1.3-1.1c1.4,0,2.8,0,4.2,0
		c0.8,0,1.2,0.4,1.2,1.1c0,0.7-0.5,1.1-1.2,1.2C14.8,20.1,14.1,20.1,13.4,20.1z"/>
	<path class="st0" d="M12.9,26.8c0.5,0,1.1,0,1.6,0c0.7,0,1.1,0.5,1.1,1.1c0,0.6-0.4,1.1-1,1.1c-1.2,0-2.3,0-3.5,0
		c-0.7,0-1.1-0.5-1.1-1.2c0-0.6,0.5-1,1.1-1c0,0,0.1,0,0.1,0C11.8,26.8,12.4,26.8,12.9,26.8C12.9,26.8,12.9,26.8,12.9,26.8z"/>
	<path class="st0" d="M12.8,38c-0.5,0-1,0-1.6,0c-0.7,0-1.1-0.4-1.2-1.1c0-0.7,0.4-1.1,1.2-1.1c1.1,0,2.2,0,3.3,0
		c0.7,0,1.1,0.5,1.1,1.1c0,0.6-0.4,1.1-1.1,1.1C13.9,38,13.4,38,12.8,38z"/>
	<path class="st0" d="M12.8,24.6c-0.5,0-1,0-1.5,0c-0.8,0-1.2-0.5-1.2-1.1c0-0.7,0.5-1.1,1.2-1.1c1,0,2.1,0,3.1,0
		c0.7,0,1.2,0.4,1.2,1.1c0,0.6-0.4,1.1-1.2,1.1C13.9,24.6,13.3,24.6,12.8,24.6z"/>
	<path class="st0" d="M12.8,42.4c-0.5,0-1.1,0-1.6,0c-0.7,0-1.1-0.5-1.1-1.1c0-0.6,0.4-1.1,1.1-1.1c1.1,0,2.2,0,3.3,0
		c0.7,0,1.1,0.5,1.1,1.1c0,0.6-0.5,1.1-1.2,1.1C13.9,42.4,13.4,42.4,12.8,42.4z"/>
	<path class="st0" d="M12.3,33.5c-0.4,0-0.8,0-1.2,0c-0.6,0-1-0.5-1-1.1c0-0.6,0.4-1.1,1.1-1.1c0.8,0,1.5,0,2.3,0
		c0.6,0,1.1,0.5,1.1,1.1c0,0.6-0.4,1.1-1.1,1.1C13.1,33.5,12.7,33.5,12.3,33.5z"/>
	<path class="st0" d="M6.1,24.6c-0.3,0-0.7,0-1-0.2c-0.5-0.2-0.7-0.6-0.7-1.1c0.1-0.5,0.4-0.9,0.9-1c0.4,0,0.9,0,1.3,0
		c0.6,0,1.1,0.5,1.1,1.1c0,0.6-0.4,1.1-1,1.1C6.6,24.6,6.3,24.6,6.1,24.6C6.1,24.6,6.1,24.6,6.1,24.6z"/>
	<path class="st0" d="M6.2,26.8c1.1,0,1.7,0.4,1.6,1.1c0,0.7-0.6,1.1-1.7,1.1c-0.2,0-0.4,0-0.6,0c-0.7-0.1-1.1-0.6-1.1-1.2
		c0-0.6,0.5-1,1.1-1.1C5.8,26.8,6,26.8,6.2,26.8z"/>
	<path class="st0" d="M6.1,42.4c-1.1,0-1.6-0.3-1.6-1.1c0-0.7,0.6-1.1,1.6-1.1c0.3,0,0.6,0,0.8,0.1c0.5,0.1,0.9,0.6,0.9,1.2
		c0,0.5-0.5,1-1,1C6.6,42.4,6.3,42.4,6.1,42.4z"/>
	<path class="st0" d="M6.2,15.6c-0.3,0-0.5,0-0.8-0.1c-0.6-0.1-0.9-0.5-0.9-1c0-0.6,0.3-1,0.8-1.1c0.5-0.1,1-0.1,1.4-0.1
		c0.6,0,1.1,0.5,1.1,1.1c0,0.6-0.4,1.1-1.1,1.1C6.5,15.6,6.3,15.6,6.2,15.6C6.2,15.6,6.2,15.6,6.2,15.6z"/>
	<path class="st0" d="M6.2,17.9c1.1,0,1.7,0.4,1.6,1.1c0,0.7-0.6,1.1-1.7,1.1c-0.2,0-0.5,0-0.7,0c-0.6-0.1-1-0.6-1-1.1
		c0-0.6,0.4-1,1.1-1.1C5.7,17.9,6,17.9,6.2,17.9z"/>
	<path class="st0" d="M6.2,31.3c1.1,0,1.7,0.4,1.6,1.1c0,0.7-0.6,1.1-1.7,1.1c-1.1,0-1.7-0.4-1.7-1.1C4.5,31.6,5,31.3,6.2,31.3z"/>
	<path class="st0" d="M6.1,38c-1.1,0-1.7-0.4-1.7-1.1c0-0.7,0.6-1.1,1.7-1.1c0.2,0,0.4,0,0.6,0c0.7,0.1,1.1,0.5,1.1,1.1
		c0,0.6-0.5,1-1.2,1.1C6.5,38,6.3,38,6.1,38z"/>
	<path class="st0" d="M41.3,6.7c-1.4,0-2.8,0-4.2,0c-0.8,0-1.3-0.4-1.4-1.1c0-0.7,0.5-1.1,1.4-1.1c2.8,0,5.6,0,8.4,0
		c0.8,0,1.3,0.4,1.3,1.1c0,0.7-0.5,1.1-1.4,1.1C44.1,6.7,42.7,6.7,41.3,6.7z"/>
	<path class="st0" d="M5.6,6.7C5,6.7,4.5,6.2,4.5,5.6C4.5,5,5,4.5,5.6,4.5c0.6,0,1.1,0.5,1.1,1.1C6.7,6.2,6.2,6.7,5.6,6.7z"/>
	<path class="st0" d="M11.1,5.6c0,0.6-0.5,1.1-1.1,1.1c-0.6,0-1.1-0.5-1.1-1.1C8.9,5,9.4,4.5,10,4.5C10.7,4.5,11.2,5,11.1,5.6z"/>
	<path class="st0" d="M15.6,5.6c0,0.6-0.5,1.1-1.1,1.1c-0.6,0-1.1-0.5-1.1-1.1c0-0.6,0.5-1.1,1.1-1.1C15.1,4.5,15.6,5,15.6,5.6z"/>
	<path class="st0" d="M25.7,62.5c-0.6,0-1.1-0.5-1.1-1.1c0-0.6,0.5-1.1,1.1-1.1c0.6,0,1.1,0.5,1.1,1.1C26.8,62,26.3,62.5,25.7,62.5z
		"/>
	<path class="st0" d="M21.2,60.3c0.6,0,1.1,0.5,1.1,1.1c0,0.6-0.5,1.1-1.1,1.1c-0.6,0-1.1-0.5-1.1-1.1
		C20.1,60.8,20.6,60.3,21.2,60.3z"/>
	<path class="st0" d="M46.3,44.6c-2.4,0-4.3-2.2-3.8-4.5c0.1-0.4,0.4-0.8,0.7-1c1.8-0.8,3.6-1.5,5.4-2.2c0.5-0.2,1-0.1,1.4,0.3
		c0.4,0.4,0.3,0.9,0,1.4c-0.1,0.2-0.1,0.5,0,0.8C50.9,42,49.1,44.6,46.3,44.6z M47.6,39.8c-0.8,0.3-1.7,0.7-2.5,1
		c-0.5,0.2-0.4,0.4-0.2,0.8c0.5,0.8,1.5,1.1,2.3,0.6C47.9,41.8,48.4,40.6,47.6,39.8z"/>
	<path class="st0" d="M36.3,44.6c-2.8,0-4.6-2.7-3.7-5.3c0.1-0.2,0.1-0.5,0-0.7c-0.3-0.5-0.3-1,0-1.4c0.4-0.5,0.9-0.5,1.4-0.3
		c1.5,0.6,3,1.2,4.5,1.8c0.1,0,0.2,0.1,0.2,0.1c1.3,0.5,1.7,1.1,1.4,2.6C39.8,43.3,38.2,44.6,36.3,44.6z M35,39.8
		c-0.5,0.6-0.5,1.3-0.1,1.9c0.4,0.6,1.1,0.9,1.8,0.7c0.7-0.1,1.1-0.6,1.3-1.4C36.9,40.6,36,40.2,35,39.8z"/>
	<path class="st0" d="M41.4,48.5c-0.3,0.2-0.6,0.5-0.9,0.6c-0.3,0-0.8-0.1-1-0.3c-0.2-0.3-0.3-0.8-0.2-1.1c0.3-0.8,0.7-1.6,1.1-2.3
		c0.5-0.8,1.5-0.7,2,0.1c0.4,0.7,0.7,1.4,1.1,2.1c0.3,0.6,0.1,1.2-0.3,1.5c-0.5,0.3-1.1,0.2-1.6-0.3C41.4,48.5,41.4,48.5,41.4,48.5z
		"/>
</g>
</svg>
