<svg width="77" height="70" viewBox="0 0 77 70" fill="none" xmlns="http://www.w3.org/2000/svg">
<path d="M76.9937 69.0415C76.5514 69.662 75.9449 69.8249 75.1931 69.8249C50.7366 69.8124 26.2801 69.8124 1.82367 69.8124C0.40847 69.8124 0.00412596 69.4113 0.00412596 67.9887C0.00412596 48.5237 0.00412596 29.0649 0.00412596 9.59992C0.00412596 9.42445 -0.00850978 9.24898 0.0104438 9.07977C0.0799404 8.36534 0.610641 7.87026 1.29297 7.87652C1.9753 7.88279 2.49337 8.38414 2.55023 9.10484C2.56918 9.34925 2.55655 9.59992 2.55655 9.8506C2.55655 28.6388 2.55655 47.4332 2.55655 66.2214C2.55655 66.541 2.55655 66.8607 2.55655 67.2241C4.75516 67.2241 6.8906 67.2241 9.11449 67.2241C9.11449 66.8669 9.11449 66.5536 9.11449 66.234C9.11449 56.0189 9.11449 45.8038 9.11449 35.5888C9.11449 35.313 9.10818 35.0436 9.12081 34.7678C9.17135 33.9657 9.59465 33.5458 10.4223 33.5395C14.4594 33.527 18.4902 33.527 22.5273 33.5395C23.4813 33.5395 23.9425 34.0095 23.9489 34.9746C23.9615 36.9612 23.9552 38.9541 23.9552 40.9407C23.9552 49.3948 23.9552 57.8426 23.9552 66.2966C23.9552 66.5912 23.9552 66.8795 23.9552 67.2241C26.6466 67.2241 29.2559 67.2241 31.9536 67.2241C31.9536 66.8669 31.9536 66.5473 31.9536 66.234C31.9536 58.0055 31.9536 49.7771 31.9536 41.5549C31.9536 39.9819 32.2126 39.7187 33.7731 39.7187C37.507 39.7187 41.2409 39.7187 44.9747 39.7187C46.4657 39.7187 46.8006 40.0508 46.8006 41.5047C46.8006 49.7583 46.8006 58.0118 46.8006 66.259C46.8006 66.5536 46.8006 66.8481 46.8006 67.2116C49.4099 67.2116 51.9686 67.2116 54.6284 67.2116C54.6284 66.9233 54.6284 66.6288 54.6284 66.3405C54.6284 61.8659 54.6284 57.3914 54.6284 52.9168C54.6284 51.5443 55.0391 51.1307 56.4101 51.1307C60.2703 51.1307 64.1305 51.1307 67.9844 51.1307C69.229 51.1307 69.646 51.5443 69.646 52.7852C69.646 57.3099 69.646 61.8346 69.646 66.3593C69.646 66.6288 69.646 66.8983 69.646 67.2743C70.6 67.2743 71.4908 67.2743 72.3816 67.2743C73.3356 67.2743 74.2896 67.3056 75.2373 67.268C76.0081 67.2367 76.602 67.4811 77 68.1454C76.9937 68.4462 76.9937 68.747 76.9937 69.0415ZM21.3396 67.2429C21.3396 56.8148 21.3396 46.4681 21.3396 36.134C18.0922 36.134 14.9017 36.134 11.7301 36.134C11.7301 46.5371 11.7301 56.8775 11.7301 67.2429C14.9585 67.2429 18.1301 67.2429 21.3396 67.2429ZM44.185 67.2492C44.185 58.8829 44.185 50.6043 44.185 42.3194C40.9376 42.3194 37.7534 42.3194 34.5629 42.3194C34.5629 50.6607 34.5629 58.9455 34.5629 67.2492C37.7913 67.2492 40.9629 67.2492 44.185 67.2492ZM57.2251 67.2304C60.5546 67.2304 63.7893 67.2304 67.043 67.2304C67.043 62.6994 67.043 58.2186 67.043 53.7127C63.7577 53.7127 60.5167 53.7127 57.2251 53.7127C57.2251 58.2249 57.2251 62.7057 57.2251 67.2304Z" fill="white"/>
<path d="M36.4454 15.7791C36.458 24.3835 29.4262 31.3899 20.7455 31.415C12.109 31.4401 4.99504 24.4086 4.96976 15.8355C4.95081 7.20595 12.0331 0.168213 20.7265 0.168213C29.401 0.168213 36.4328 7.16208 36.4454 15.7791ZM33.893 15.8229C33.9246 8.62854 28.0742 2.76271 20.815 2.70004C13.5747 2.63737 7.56641 8.522 7.53482 15.7164C7.50323 22.9296 13.3852 28.8268 20.6697 28.8769C27.9163 28.927 33.8614 23.0612 33.893 15.8229Z" fill="white"/>
<path d="M48.3988 30.2431C49.5423 29.3532 50.6416 28.4946 51.741 27.636C53.3962 26.345 55.0452 25.0478 56.7005 23.7631C57.5028 23.1364 57.9641 23.1364 58.7791 23.7631C62.3802 26.5331 65.9814 29.3093 69.5826 32.0855C69.8164 32.261 70.0501 32.4302 70.4355 32.7122C70.3408 31.3899 70.2586 30.218 70.1702 29.0398C70.1323 28.5197 70.0754 27.9995 70.0691 27.4794C70.0565 26.7085 70.5556 26.157 71.2569 26.1194C71.9392 26.0818 72.5204 26.5769 72.5962 27.3603C72.7289 28.6701 72.811 29.9861 72.9121 31.2959C73.0132 32.5618 73.108 33.8215 73.2091 35.0874C73.2975 36.2342 72.8363 36.7481 71.6928 36.8296C69.0961 37.0113 66.4995 37.1993 63.8965 37.3873C63.7702 37.3936 63.6438 37.4061 63.5238 37.4124C62.5192 37.4625 61.8938 37.0239 61.8369 36.2405C61.78 35.4634 62.3739 34.9495 63.3658 34.8806C65.0085 34.7678 66.6511 34.6362 68.5402 34.4983C64.8442 31.6468 61.3252 28.9333 57.7556 26.1821C56.5173 27.1472 55.3042 28.0935 54.0849 29.0461C52.5117 30.2744 50.9386 31.509 49.3591 32.731C48.4999 33.3953 47.9818 33.3577 47.1921 32.6057C44.3301 29.8921 41.4807 27.166 38.6124 24.4587C38.088 23.9636 37.8227 23.4247 38.1512 22.7353C38.524 21.9582 39.4906 21.8141 40.1792 22.4408C41.1964 23.362 42.1757 24.3271 43.1739 25.2671C44.8797 26.9028 46.5982 28.5322 48.3988 30.2431Z" fill="white"/>
<path d="M25.8123 19.5955C25.7112 21.5382 24.8078 23.1551 22.8619 24.0199C22.1606 24.3332 21.7942 24.6341 21.8637 25.4425C21.9142 26.0692 21.5351 26.5329 20.8844 26.6771C20.3158 26.7961 19.8104 26.6269 19.545 26.1005C19.3934 25.806 19.3302 25.43 19.3555 25.0978C19.3934 24.5401 19.1849 24.3019 18.6668 24.07C16.9105 23.2929 15.9122 21.8954 15.6658 19.9965C15.5332 18.9813 15.9944 18.2982 16.7967 18.2105C17.5675 18.129 18.0856 18.6742 18.2056 19.6895C18.3572 21.0118 19.4186 21.9769 20.7328 21.9769C22.0279 21.9769 23.0641 21.0494 23.2283 19.7521C23.3863 18.5176 22.5334 17.3018 21.2824 17.0386C20.7959 16.9383 20.2842 16.9571 19.7914 16.8631C17.6054 16.462 15.9754 14.7574 15.6658 12.5828C15.3626 10.452 16.5124 8.30876 18.5278 7.38753C19.0522 7.14939 19.2481 6.86111 19.1723 6.32215C19.1407 6.10281 19.1659 5.87094 19.1975 5.65159C19.3049 4.96223 19.8167 4.54235 20.4927 4.56115C21.1308 4.57995 21.7247 5.01864 21.6615 5.6704C21.5604 6.71697 22.0848 7.04911 22.9503 7.4314C24.7446 8.22729 25.6418 9.74389 25.7934 11.6741C25.8566 12.4951 25.389 13.0841 24.6562 13.1593C23.9107 13.2346 23.3863 12.7708 23.2662 11.931C23.0135 10.2014 21.8194 9.17986 20.3537 9.43054C19.0269 9.65615 18.1298 10.7529 18.193 12.0626C18.2562 13.3724 19.3049 14.3814 20.7201 14.4253C22.1101 14.4691 23.3105 14.9329 24.3024 15.9043C25.2943 16.8882 25.7618 18.0851 25.8123 19.5955Z" fill="white"/>
</svg>
