<?xml version="1.0" encoding="utf-8"?>
<!-- Generator: Adobe Illustrator 25.3.1, SVG Export Plug-In . SVG Version: 6.00 Build 0)  -->
<svg version="1.1" id="圖層_1" xmlns="http://www.w3.org/2000/svg" xmlns:xlink="http://www.w3.org/1999/xlink" x="0px" y="0px"
	 viewBox="0 0 100 100" style="enable-background:new 0 0 100 100;" xml:space="preserve">
<style type="text/css">
	.st0{fill:url(#SVGID_1_);}
	.st1{fill:url(#SVGID_2_);}
	.st2{fill:url(#SVGID_3_);}
	.st3{opacity:0.45;fill:url(#SVGID_4_);enable-background:new    ;}
	.st4{fill:url(#SVGID_5_);}
	.st5{fill:url(#SVGID_6_);}
	.st6{fill:url(#SVGID_7_);}
	.st7{fill:url(#SVGID_8_);}
	.st8{fill:url(#SVGID_9_);}
	.st9{fill:url(#SVGID_10_);}
	.st10{fill:url(#SVGID_11_);}
	.st11{fill:url(#SVGID_12_);}
	.st12{fill:url(#SVGID_13_);}
	.st13{fill:url(#SVGID_14_);}
	.st14{fill:url(#SVGID_15_);}
	.st15{fill:url(#SVGID_16_);}
	.st16{fill:url(#SVGID_17_);}
	.st17{fill:url(#SVGID_18_);}
	.st18{fill:url(#SVGID_19_);}
	.st19{fill:url(#SVGID_20_);}
	.st20{fill:#FFFFFF;}
	.st21{fill:url(#SVGID_21_);}
	.st22{fill:url(#SVGID_22_);}
	.st23{fill:url(#SVGID_23_);}
	.st24{fill:url(#SVGID_24_);}
</style>
<g>
	
		<radialGradient id="SVGID_1_" cx="-541.5839" cy="361.7348" r="0.7003" gradientTransform="matrix(66.3467 -0.5249 -0.5258 -66.4491 36174.6523 23804.9902)" gradientUnits="userSpaceOnUse">
		<stop  offset="0" style="stop-color:#4536C3"/>
		<stop  offset="1" style="stop-color:#0F0551"/>
	</radialGradient>
	<path class="st0" d="M96.4,96.7L4.3,97.1L11.6,15L100,7.2L96.4,96.7z"/>
	
		<linearGradient id="SVGID_2_" gradientUnits="userSpaceOnUse" x1="47.5909" y1="86.7129" x2="48.2893" y2="-1.5579" gradientTransform="matrix(1 0 0 -1 0 101)">
		<stop  offset="0" style="stop-color:#FEF8FF"/>
		<stop  offset="1" style="stop-color:#F8D7FF"/>
	</linearGradient>
	<path class="st1" d="M92.1,92.4L0,92.8l7.3-82.1l88.4-7.7L92.1,92.4z"/>
	
		<linearGradient id="SVGID_3_" gradientUnits="userSpaceOnUse" x1="92.1611" y1="90.5774" x2="11.8462" y2="89.9438" gradientTransform="matrix(1 0 0 -1 0 101)">
		<stop  offset="0" style="stop-color:#A051BD"/>
		<stop  offset="1" style="stop-color:#8319A2"/>
	</linearGradient>
	<path class="st2" d="M6.6,18.6l88.8-7.1l0.3-8.7L7.3,10.6L6.6,18.6z"/>
	
		<linearGradient id="SVGID_4_" gradientUnits="userSpaceOnUse" x1="100.7339" y1="92.644" x2="12.5813" y2="91.9487" gradientTransform="matrix(1 0 0 -1 0 101)">
		<stop  offset="0" style="stop-color:#A051BD"/>
		<stop  offset="1" style="stop-color:#8319A2;stop-opacity:0"/>
	</linearGradient>
	<path class="st3" d="M7,14.6l88.6-7.4l0.2-4.3L7.3,10.6L7,14.6z"/>
	
		<linearGradient id="SVGID_5_" gradientUnits="userSpaceOnUse" x1="92.8397" y1="93.6332" x2="88.4353" y2="93.5984" gradientTransform="matrix(1 0 0 -1 0 101)">
		<stop  offset="0" style="stop-color:#FEF8FF"/>
		<stop  offset="1" style="stop-color:#F8D7FF"/>
	</linearGradient>
	<path class="st4" d="M93,7.2c-0.1,1.4-1.2,2.6-2.6,2.7C89.1,10,88.1,9,88.2,7.6c0.1-1.4,1.2-2.6,2.5-2.7C92,4.7,93.1,5.8,93,7.2z"
		/>
	
		<linearGradient id="SVGID_6_" gradientUnits="userSpaceOnUse" x1="84.8223" y1="92.9585" x2="80.4816" y2="92.9242" gradientTransform="matrix(1 0 0 -1 0 101)">
		<stop  offset="0" style="stop-color:#FEF8FF"/>
		<stop  offset="1" style="stop-color:#F8D7FF"/>
	</linearGradient>
	<path class="st5" d="M85,7.9c-0.1,1.4-1.2,2.6-2.5,2.7c-1.3,0.1-2.3-0.9-2.3-2.3c0.1-1.4,1.2-2.6,2.5-2.7C84.1,5.4,85.1,6.5,85,7.9
		z"/>
	
		<linearGradient id="SVGID_7_" gradientUnits="userSpaceOnUse" x1="76.9238" y1="92.3024" x2="72.6462" y2="92.2686" gradientTransform="matrix(1 0 0 -1 0 101)">
		<stop  offset="0" style="stop-color:#FEF8FF"/>
		<stop  offset="1" style="stop-color:#F8D7FF"/>
	</linearGradient>
	<path class="st6" d="M77.1,8.5c-0.1,1.4-1.2,2.6-2.5,2.7c-1.3,0.1-2.3-0.9-2.2-2.3c0.1-1.4,1.2-2.6,2.5-2.7
		C76.2,6.1,77.2,7.1,77.1,8.5z"/>
	
		<linearGradient id="SVGID_8_" gradientUnits="userSpaceOnUse" x1="26.3847" y1="74.4582" x2="27.4404" y2="38.9017" gradientTransform="matrix(1 0 0 -1 0 101)">
		<stop  offset="0" style="stop-color:#4B2680"/>
		<stop  offset="1" style="stop-color:#310965"/>
	</linearGradient>
	<path class="st7" d="M40.2,29.1l-16.5,1.1L21,27.4c-0.2-0.2-0.4-0.3-0.7-0.3l-4.8,0.3c-0.6,0-1.2,0.7-1.2,1.5l-1.8,21.4l27.3-1.3
		l1.3-18.9C41.1,29.6,40.8,29.1,40.2,29.1z"/>
	
		<linearGradient id="SVGID_9_" gradientUnits="userSpaceOnUse" x1="26.3972" y1="63.1542" x2="26.2299" y2="84.2936" gradientTransform="matrix(1 0 0 -1 0 101)">
		<stop  offset="0" style="stop-color:#FEF8FF"/>
		<stop  offset="1" style="stop-color:#F8D7FF"/>
	</linearGradient>
	<path class="st8" d="M37.6,49.2l-23.8,1.1c-0.3,0-0.5-0.2-0.5-0.6l1.5-17.4c0-0.3,0.3-0.6,0.6-0.6L39,30.2c0.3,0,0.5,0.2,0.5,0.6
		l-1.3,17.8C38.2,48.9,37.9,49.2,37.6,49.2z"/>
	
		<linearGradient id="SVGID_10_" gradientUnits="userSpaceOnUse" x1="12.4028" y1="59.9936" x2="42.7262" y2="60.2328" gradientTransform="matrix(1 0 0 -1 0 101)">
		<stop  offset="0" style="stop-color:#6A24C8"/>
		<stop  offset="1" style="stop-color:#4CB4E9"/>
	</linearGradient>
	<path class="st9" d="M39.8,49.1L42.6,33c0.2-0.9-0.3-1.6-1-1.6L16.7,33c-0.6,0-1.1,0.6-1.2,1.3l-3,16.1L39.8,49.1z"/>
	
		<linearGradient id="SVGID_11_" gradientUnits="userSpaceOnUse" x1="70.8013" y1="77.5462" x2="71.9022" y2="40.4526" gradientTransform="matrix(1 0 0 -1 0 101)">
		<stop  offset="0" style="stop-color:#4B2680"/>
		<stop  offset="1" style="stop-color:#310965"/>
	</linearGradient>
	<path class="st10" d="M85.6,26.1l-17.9,1.2l-3.1-2.9c-0.2-0.2-0.5-0.3-0.7-0.3l-5.3,0.4c-0.7,0-1.2,0.7-1.3,1.5l-1.4,22.3l29.8-1.4
		l0.9-19.7C86.6,26.6,86.1,26.1,85.6,26.1z"/>
	
		<linearGradient id="SVGID_12_" gradientUnits="userSpaceOnUse" x1="70.8002" y1="65.7766" x2="70.6251" y2="87.8805" gradientTransform="matrix(1 0 0 -1 0 101)">
		<stop  offset="0" style="stop-color:#FEF8FF"/>
		<stop  offset="1" style="stop-color:#F8D7FF"/>
	</linearGradient>
	<path class="st11" d="M83.3,47l-26,1.2c-0.3,0-0.5-0.2-0.5-0.6l1.1-18.2c0-0.3,0.3-0.6,0.6-0.6l25.7-1.7c0.3,0,0.6,0.2,0.6,0.6
		l-0.9,18.6C83.9,46.7,83.7,47,83.3,47z"/>
	
		<linearGradient id="SVGID_13_" gradientUnits="userSpaceOnUse" x1="55.8186" y1="62.4751" x2="88.4061" y2="62.7321" gradientTransform="matrix(1 0 0 -1 0 101)">
		<stop  offset="0" style="stop-color:#6A24C8"/>
		<stop  offset="1" style="stop-color:#4CB4E9"/>
	</linearGradient>
	<path class="st12" d="M85.7,46.9l2.7-16.8c0.1-0.9-0.4-1.7-1.2-1.6L60,30.2c-0.6,0-1.1,0.6-1.3,1.3l-2.9,16.8L85.7,46.9z"/>
	
		<linearGradient id="SVGID_14_" gradientUnits="userSpaceOnUse" x1="23.7538" y1="41.4856" x2="24.8593" y2="4.2545" gradientTransform="matrix(1 0 0 -1 0 101)">
		<stop  offset="0" style="stop-color:#4B2680"/>
		<stop  offset="1" style="stop-color:#310965"/>
	</linearGradient>
	<path class="st13" d="M37.9,62.9l-16.7,0.6l-2.8-3c-0.2-0.2-0.4-0.3-0.7-0.3l-4.9,0.2c-0.6,0-1.2,0.7-1.2,1.5L9.6,84l27.7-0.4
		l1.4-19.6C38.8,63.4,38.4,62.9,37.9,62.9z"/>
	
		<linearGradient id="SVGID_15_" gradientUnits="userSpaceOnUse" x1="23.8026" y1="29.423" x2="23.6362" y2="50.4595" gradientTransform="matrix(1 0 0 -1 0 101)">
		<stop  offset="0" style="stop-color:#FEF8FF"/>
		<stop  offset="1" style="stop-color:#F8D7FF"/>
	</linearGradient>
	<path class="st14" d="M35.2,83.7L11,84c-0.3,0-0.5-0.3-0.5-0.6l1.5-18.1c0-0.3,0.3-0.6,0.6-0.6l24-0.8c0.3,0,0.5,0.3,0.5,0.6
		L35.8,83C35.8,83.4,35.5,83.7,35.2,83.7z"/>
	
		<linearGradient id="SVGID_16_" gradientUnits="userSpaceOnUse" x1="9.587" y1="26.2145" x2="40.3946" y2="26.4574" gradientTransform="matrix(1 0 0 -1 0 101)">
		<stop  offset="0" style="stop-color:#6A24C8"/>
		<stop  offset="1" style="stop-color:#4CB4E9"/>
	</linearGradient>
	<path class="st15" d="M37.4,83.6L40.3,67c0.2-0.9-0.3-1.7-1.1-1.7L14,66.1c-0.6,0-1.1,0.6-1.2,1.3L9.7,84L37.4,83.6z"/>
	
		<linearGradient id="SVGID_17_" gradientUnits="userSpaceOnUse" x1="68.9062" y1="43.1732" x2="70.0617" y2="4.2527" gradientTransform="matrix(1 0 0 -1 0 101)">
		<stop  offset="0" style="stop-color:#4B2680"/>
		<stop  offset="1" style="stop-color:#310965"/>
	</linearGradient>
	<path class="st16" d="M84,61.3l-18.3,0.6l-3.1-3.2c-0.2-0.2-0.5-0.3-0.8-0.3l-5.4,0.2c-0.7,0-1.3,0.7-1.3,1.5l-1.4,23.2L84,83
		L85,62.6C85,61.9,84.6,61.3,84,61.3z"/>
	
		<linearGradient id="SVGID_18_" gradientUnits="userSpaceOnUse" x1="68.9338" y1="30.5769" x2="68.7598" y2="52.569" gradientTransform="matrix(1 0 0 -1 0 101)">
		<stop  offset="0" style="stop-color:#FEF8FF"/>
		<stop  offset="1" style="stop-color:#F8D7FF"/>
	</linearGradient>
	<path class="st17" d="M81.7,83.1l-26.4,0.3c-0.3,0-0.6-0.3-0.5-0.6l1.1-18.8c0-0.3,0.3-0.6,0.6-0.6l26.1-0.9c0.3,0,0.6,0.3,0.6,0.6
		l-0.9,19.3C82.3,82.8,82,83.1,81.7,83.1z"/>
	
		<linearGradient id="SVGID_19_" gradientUnits="userSpaceOnUse" x1="53.6721" y1="27.2267" x2="86.841" y2="27.4887" gradientTransform="matrix(1 0 0 -1 0 101)">
		<stop  offset="0" style="stop-color:#6A24C8"/>
		<stop  offset="1" style="stop-color:#4CB4E9"/>
	</linearGradient>
	<path class="st18" d="M84,83l2.7-17.4c0.1-0.9-0.4-1.8-1.2-1.7L58,64.7c-0.6,0-1.2,0.6-1.3,1.4l-2.9,17.4L84,83z"/>
	
		<linearGradient id="SVGID_20_" gradientUnits="userSpaceOnUse" x1="34.7542" y1="45.2184" x2="59.7824" y2="45.4158" gradientTransform="matrix(1 0 0 -1 0 101)">
		<stop  offset="0" style="stop-color:#A051BD"/>
		<stop  offset="1" style="stop-color:#8319A2"/>
	</linearGradient>
	<path class="st19" d="M59.7,55.1c-0.5,7.7-6.6,14.2-13.5,14.4c-6.9,0.2-12-5.8-11.4-13.4c0.5-7.5,6.4-13.8,13.2-14.2
		C54.9,41.5,60.2,47.4,59.7,55.1z"/>
	<path class="st20" d="M45.6,62.2l-6.1-5.3l1.7-2.3l4.7,4l8.4-9.8l1.8,1.9L45.6,62.2z"/>
	
		<linearGradient id="SVGID_21_" gradientUnits="userSpaceOnUse" x1="43.4896" y1="64.2644" x2="55.4812" y2="64.359" gradientTransform="matrix(1 0 0 -1 0 101)">
		<stop  offset="0" style="stop-color:#A051BD"/>
		<stop  offset="1" style="stop-color:#8319A2"/>
	</linearGradient>
	<path class="st21" d="M55.5,36.5l-2.3-1.3l-0.1,1.2l-9.6,0.6l0,0.6l9.6-0.6L53,38.1L55.5,36.5z"/>
	
		<linearGradient id="SVGID_22_" gradientUnits="userSpaceOnUse" x1="23.7867" y1="44.471" x2="26.3963" y2="44.4916" gradientTransform="matrix(1 0 0 -1 0 101)">
		<stop  offset="0" style="stop-color:#A051BD"/>
		<stop  offset="1" style="stop-color:#8319A2"/>
	</linearGradient>
	<path class="st22" d="M26.4,53.6l-1.1-2.5l-1.5,2.6l1,0l-0.6,8.2l0.6,0l0.6-8.2L26.4,53.6z"/>
	
		<linearGradient id="SVGID_23_" gradientUnits="userSpaceOnUse" x1="74.1106" y1="46.5382" x2="76.9988" y2="46.561" gradientTransform="matrix(1 0 0 -1 0 101)">
		<stop  offset="0" style="stop-color:#A051BD"/>
		<stop  offset="1" style="stop-color:#8319A2"/>
	</linearGradient>
	<path class="st23" d="M75.9,57.3l0.4-8.4l-0.6,0l-0.4,8.4l-1.1,0l1.3,2.6l1.6-2.8L75.9,57.3z"/>
	
		<linearGradient id="SVGID_24_" gradientUnits="userSpaceOnUse" x1="40.8095" y1="26.3048" x2="52.8132" y2="26.4001" gradientTransform="matrix(1 0 0 -1 0 101)">
		<stop  offset="0" style="stop-color:#A051BD"/>
		<stop  offset="1" style="stop-color:#8319A2"/>
	</linearGradient>
	<path class="st24" d="M43.2,74.4l0.1-1.2l-2.5,1.6l2.3,1.5l0.1-1.2l9.6-0.2l0-0.7L43.2,74.4z"/>
</g>
</svg>
