<?xml version="1.0" encoding="utf-8"?>
<!-- Generator: Adobe Illustrator 25.3.1, SVG Export Plug-In . SVG Version: 6.00 Build 0)  -->
<svg version="1.1" id="圖層_1" xmlns="http://www.w3.org/2000/svg" xmlns:xlink="http://www.w3.org/1999/xlink" x="0px" y="0px"
	 viewBox="0 0 297 280" style="enable-background:new 0 0 297 280;" xml:space="preserve">
<style type="text/css">
	.st0{fill:url(#SVGID_1_);}
	.st1{fill:url(#SVGID_2_);}
	.st2{fill:url(#SVGID_3_);}
	.st3{fill:url(#SVGID_4_);}
	.st4{fill:url(#SVGID_5_);}
	.st5{fill:url(#SVGID_6_);}
	.st6{fill:url(#SVGID_7_);}
	.st7{fill:url(#SVGID_8_);}
	.st8{fill:url(#SVGID_9_);}
	.st9{opacity:0.35;fill:url(#SVGID_10_);enable-background:new    ;}
	.st10{opacity:0.75;fill:url(#SVGID_11_);enable-background:new    ;}
	.st11{opacity:0.75;fill:none;stroke:url(#SVGID_12_);stroke-width:0.9075;stroke-miterlimit:10;enable-background:new    ;}
	.st12{fill:none;stroke:url(#SVGID_13_);stroke-width:1.7349;stroke-miterlimit:10;}
	.st13{fill:url(#SVGID_14_);}
	.st14{fill:#FFFFFF;}
	.st15{opacity:0.45;fill:url(#SVGID_15_);enable-background:new    ;}
</style>
<g>
	
		<linearGradient id="SVGID_1_" gradientUnits="userSpaceOnUse" x1="160.1418" y1="-41.2685" x2="148.5499" y2="-3.6008" gradientTransform="matrix(1 0 0 -1 0 282)">
		<stop  offset="0" style="stop-color:#FEF8FF"/>
		<stop  offset="1" style="stop-color:#F8D7FF"/>
	</linearGradient>
	<path class="st0" d="M81.1,275.3v1.8l101.1,2.9c0,0,18.6-2.3,21.1-9c1.7-4.6-1.7-23.3-4.8-33.8l-2.8-1.9c0,0-60.5,38.9-61,38.9
		C134.1,274.1,81.1,275.3,81.1,275.3z"/>
	
		<linearGradient id="SVGID_2_" gradientUnits="userSpaceOnUse" x1="140.5694" y1="44.1294" x2="141.5932" y2="1.6151" gradientTransform="matrix(1 0 0 -1 0 282)">
		<stop  offset="0" style="stop-color:#F8D7FF"/>
		<stop  offset="0.3396" style="stop-color:#FFFFFF"/>
		<stop  offset="0.6765" style="stop-color:#F8D7FF"/>
		<stop  offset="1" style="stop-color:#FEF8FF"/>
	</linearGradient>
	<path class="st1" d="M133.2,232c0,0,2.3,19.5,1.6,26.5c-0.7,7-3.4,10.4-14.1,11.8c-10.7,1.4-39.5,5-39.5,5l100.5,2.9
		c0,0,17.9-2.2,19.7-8.8c1.8-6.6-5.7-34.2-5.7-34.2L133.2,232z"/>
	
		<linearGradient id="SVGID_3_" gradientUnits="userSpaceOnUse" x1="168.0712" y1="31.0726" x2="167.227" y2="42.0374" gradientTransform="matrix(1 0 0 -1 0 282)">
		<stop  offset="0" style="stop-color:#FEF8FF;stop-opacity:0"/>
		<stop  offset="1" style="stop-color:#F8D7FF"/>
	</linearGradient>
	<path class="st2" d="M198.5,237.1l-2.8-1.9l-62.4-3.2c0,0,0.9,7.7,1.4,15.2l66.7,1.6C200.5,244.5,199.4,240.4,198.5,237.1z"/>
	
		<linearGradient id="SVGID_4_" gradientUnits="userSpaceOnUse" x1="155.8925" y1="119.3037" x2="172.383" y2="471.6505" gradientTransform="matrix(1 0 0 -1 0 282)">
		<stop  offset="0" style="stop-color:#6A24C8"/>
		<stop  offset="1" style="stop-color:#4CB4E9"/>
	</linearGradient>
	<path class="st3" d="M282.7,6.5L28.3,50L14,231.3c-0.3,4.1,2.9,7.5,6.9,7.6l257.6,1.1c7.1,0,12.9-5.7,13.1-12.9l5.1-201.8
		C297,15.6,292.2,5,282.7,6.5z"/>
	
		<linearGradient id="SVGID_5_" gradientUnits="userSpaceOnUse" x1="157.9897" y1="101.0831" x2="155.2698" y2="76.6423" gradientTransform="matrix(1 0 0 -1 0 282)">
		<stop  offset="0" style="stop-color:#FEF8FF"/>
		<stop  offset="1" style="stop-color:#F8D7FF"/>
	</linearGradient>
	<path class="st4" d="M291.9,215.5l-3.8-0.3l-273.3,4.6L14,231.3c-0.3,4.1,2.9,7.5,6.9,7.6l257.6,1.1c7.1,0,12.9-5.7,13.1-12.9
		L291.9,215.5z"/>
	
		<linearGradient id="SVGID_6_" gradientUnits="userSpaceOnUse" x1="157.9897" y1="101.0831" x2="155.2698" y2="76.6423" gradientTransform="matrix(1 0 0 -1 0 282)">
		<stop  offset="0" style="stop-color:#FEF8FF"/>
		<stop  offset="1" style="stop-color:#F8D7FF"/>
	</linearGradient>
	<path class="st5" d="M291.9,215.5l-3.8-0.3l-273.3,4.6L14,231.3c-0.3,4.1,2.9,7.5,6.9,7.6l257.6,1.1c7.1,0,12.9-5.7,13.1-12.9
		L291.9,215.5z"/>
	
		<radialGradient id="SVGID_7_" cx="-449.1495" cy="455.4501" r="0.851" gradientTransform="matrix(316.724 0 0 -317.213 142354.6719 144466.4844)" gradientUnits="userSpaceOnUse">
		<stop  offset="0" style="stop-color:#4B2680"/>
		<stop  offset="1" style="stop-color:#310965"/>
	</radialGradient>
	<path class="st6" d="M282.4,5.7L31.7,46.1c-4.2,0.7-7.3,4.1-7.7,8.3L10.3,228.2c-0.5,5.7,4.1,10.6,9.8,10.6l258-1.6
		c5.3,0,9.5-4.2,9.7-9.5l5.4-212.4C293.4,9.4,288.2,4.8,282.4,5.7z"/>
	
		<linearGradient id="SVGID_8_" gradientUnits="userSpaceOnUse" x1="151.2151" y1="113.2162" x2="147.1778" y2="1.9469" gradientTransform="matrix(1 0 0 -1 0 282)">
		<stop  offset="0" style="stop-color:#FEF8FF"/>
		<stop  offset="1" style="stop-color:#F8D7FF"/>
	</linearGradient>
	<path class="st7" d="M288.2,215.2L11,219.8l-0.7,8.4c-0.5,5.7,4.1,10.6,9.8,10.6l258-1.6c5.3,0,9.5-4.2,9.7-9.5L288.2,215.2z"/>
	
		<linearGradient id="SVGID_9_" gradientUnits="userSpaceOnUse" x1="152.0224" y1="268.5299" x2="149.831" y2="51.2221" gradientTransform="matrix(1 0 0 -1 0 282)">
		<stop  offset="0" style="stop-color:#1EF5E4"/>
		<stop  offset="1" style="stop-color:#138FAD"/>
	</linearGradient>
	<path class="st8" d="M276.9,204.7l5.2-188l-250.8,38L19.9,211L276.9,204.7z"/>
	
		<linearGradient id="SVGID_10_" gradientUnits="userSpaceOnUse" x1="155.1223" y1="277.6884" x2="153.4866" y2="115.4917" gradientTransform="matrix(1 0 0 -1 0 282)">
		<stop  offset="0" style="stop-color:#1EF5E4"/>
		<stop  offset="1" style="stop-color:#138FAD;stop-opacity:0"/>
	</linearGradient>
	<path class="st9" d="M292.3,51.1l0.9-35.9c0.1-5.9-5.1-10.4-10.8-9.5L31.7,46.1c-4.2,0.7-7.3,4.1-7.7,8.3l-8.8,110.7
		C84.9,136.8,216.3,82.9,292.3,51.1z"/>
	
		<linearGradient id="SVGID_11_" gradientUnits="userSpaceOnUse" x1="142.384" y1="277.0089" x2="140.1926" y2="59.7009" gradientTransform="matrix(1 0 0 -1 0 282)">
		<stop  offset="0" style="stop-color:#1EF5E4"/>
		<stop  offset="1" style="stop-color:#138FAD"/>
	</linearGradient>
	<path class="st10" d="M267.3,196.2l5.2-188l-250.8,38L10.3,202.5L267.3,196.2z"/>
	
		<linearGradient id="SVGID_12_" gradientUnits="userSpaceOnUse" x1="132.3507" y1="283.8467" x2="130.3561" y2="86.0256" gradientTransform="matrix(1 0 0 -1 0 282)">
		<stop  offset="0" style="stop-color:#1EF5E4"/>
		<stop  offset="1" style="stop-color:#138FAD"/>
	</linearGradient>
	<path class="st11" d="M257.2,188l5.2-188L11.7,38L0.2,194.2L257.2,188z"/>
	
		<linearGradient id="SVGID_13_" gradientUnits="userSpaceOnUse" x1="137.1505" y1="225.3903" x2="136.0315" y2="107.9367" gradientTransform="matrix(1 0 0 -1 0 282)">
		<stop  offset="0" style="stop-color:#C3FFFA"/>
		<stop  offset="1" style="stop-color:#90E9FF"/>
	</linearGradient>
	<path class="st12" d="M129.2,172.8c-1.3-0.2-32.1-5.3-40.1-33.2c-6.7-23.5-4-57.7-3.9-59.2l0.5-5.9l46.5-15.4l56.7-1.2l0.3,8.9
		c0,1.7,1,41.8-10.2,70.4c-12,30.7-45.8,35.3-47.2,35.5l-1.2,0.2L129.2,172.8z"/>
	
		<linearGradient id="SVGID_14_" gradientUnits="userSpaceOnUse" x1="134.9453" y1="239.6032" x2="133.6049" y2="98.492" gradientTransform="matrix(1 0 0 -1 0 282)">
		<stop  offset="0" style="stop-color:#6A24C8"/>
		<stop  offset="1" style="stop-color:#4CB4E9"/>
	</linearGradient>
	<path class="st13" d="M179.9,63.2l-48.6,1L89.9,77.9c0,0-2.9,35.4,3.7,58.5c6.8,23.8,34.4,28.1,34.4,28.1s31.2-3.9,41.9-31.3
		C181.1,104.7,179.9,63.2,179.9,63.2z"/>
	<path class="st14" d="M129.2,128.8l-20.9-14.9l5.1-7l16.2,10.9l28.9-32.2l7,5.3L129.2,128.8z"/>
	
		<linearGradient id="SVGID_15_" gradientUnits="userSpaceOnUse" x1="153.8349" y1="243.3844" x2="154.0834" y2="114.4106" gradientTransform="matrix(1 0 0 -1 0 282)">
		<stop  offset="0" style="stop-color:#6A24C8"/>
		<stop  offset="1" style="stop-color:#4CB4E9"/>
	</linearGradient>
	<path class="st15" d="M131.3,64.2L128,164.5c0,0,31.2-3.9,41.9-31.3c11.2-28.5,10-70,10-70L131.3,64.2z"/>
</g>
</svg>
