<?xml version="1.0" encoding="utf-8"?>
<!-- Generator: Adobe Illustrator 25.3.1, SVG Export Plug-In . SVG Version: 6.00 Build 0)  -->
<svg version="1.1" id="primary_logo" xmlns="http://www.w3.org/2000/svg" xmlns:xlink="http://www.w3.org/1999/xlink" x="0px"
	 y="0px" viewBox="0 0 100 40" style="enable-background:new 0 0 100 40;" xml:space="preserve">
<style type="text/css">
	.st0{fill:#00B388;}
	.st1{fill:#FFFFFF;}
</style>
<g>
	<path id="element" class="st0" d="M2.2-0.7v9.4h0H35v-9.4H2.2z M32.9,6.7H4.2V1.4h28.7V6.7z"/>
	<path class="st1" d="M4.2,24.3h-2v-9.4h2v3.7h3.7v-3.7h2v9.4h-2v-3.9H4.2V24.3z M14.6,24.4c-2.1,0-3.5-1.3-3.5-3.5
		c0-2.1,1.4-3.5,3.2-3.5c2,0,3,1.3,3,3.3v0.8h-4.3c0.2,1,1.1,1.3,1.9,1.3c0.7,0,1.2-0.2,1.9-0.5h0.1v1.6
		C16.3,24.2,15.5,24.4,14.6,24.4z M13.1,20.2h2.4c0-0.7-0.3-1.2-1.1-1.2C13.8,19,13.2,19.2,13.1,20.2z M22.7,20.3l-1.1,3.9h-1.8
		l-2-6.6v-0.1h2l1.1,4l1.1-4h1.6l1.1,4l1.1-4h1.9v0.1l-2,6.6h-1.8L22.7,20.3z M30.9,24.4c-1.6,0-2.3-0.6-2.3-2.2v-7.4h2v7.3
		c0,0.5,0.2,0.6,0.6,0.6c0.1,0,0.3,0,0.5-0.1h0v1.6C31.5,24.4,31.2,24.4,30.9,24.4z M35.7,24.4c-2.1,0-3.5-1.3-3.5-3.5
		c0-2.1,1.4-3.5,3.2-3.5c2,0,3,1.3,3,3.3v0.8h-4.3c0.2,1,1.1,1.3,1.9,1.3c0.7,0,1.2-0.2,1.9-0.5H38v1.6
		C37.4,24.2,36.7,24.4,35.7,24.4z M34.2,20.2h2.4c0-0.7-0.3-1.2-1.1-1.2C34.9,19,34.3,19.2,34.2,20.2z M46.6,17.6h1.5v1.6h-1.5v2.7
		c0,0.6,0.2,0.9,0.8,0.9c0.2,0,0.4,0,0.6-0.1h0v1.6c-0.3,0.1-0.6,0.2-1.2,0.2c-1.6,0-2.2-0.7-2.2-2.4v-2.8h-2.5v2.7
		c0,0.6,0.2,0.9,0.8,0.9c0.2,0,0.4,0,0.6-0.1h0v1.6c-0.3,0.1-0.6,0.2-1.2,0.2c-1.6,0-2.2-0.7-2.2-2.4v-2.8h-1v-1.6h1v-1.8h2v1.8h2.5
		v-1.8h2V17.6z M58.4,18.1c0,2-1.4,3.2-3.4,3.2h-1.5v3.1h-2v-9.4h3.5C57,14.9,58.4,16,58.4,18.1z M54.8,19.5c1,0,1.5-0.6,1.5-1.4
		c0-0.9-0.5-1.5-1.5-1.5h-1.3v2.9H54.8z M62.8,23.6c-0.4,0.5-1.1,0.8-1.8,0.8c-1.3,0-2.4-0.8-2.4-2.2c0-1.3,1.1-2.2,2.6-2.2
		c0.5,0,1,0.1,1.5,0.2v-0.1c0-0.7-0.4-1-1.5-1c-0.7,0-1.3,0.2-1.9,0.5h-0.1V18c0.5-0.3,1.4-0.6,2.3-0.6c2,0,3.1,1,3.1,2.7v4.2h-1.9
		V23.6z M62.8,22.2v-0.6c-0.3-0.2-0.7-0.2-1.1-0.2c-0.6,0-1,0.2-1,0.8c0,0.6,0.4,0.8,1,0.8C62.2,23,62.6,22.7,62.8,22.2z M65.8,20.9
		c0-2.2,1.5-3.5,3.5-3.5c0.7,0,1.4,0.2,1.9,0.5v1.7h-0.1c-0.4-0.3-0.9-0.5-1.5-0.5c-1,0-1.7,0.7-1.7,1.8c0,1.1,0.8,1.8,1.7,1.8
		c0.6,0,1.1-0.2,1.5-0.5h0.1v1.7c-0.5,0.4-1.2,0.5-1.9,0.5C67.3,24.4,65.8,23.1,65.8,20.9z M74.4,21.2v3h-2v-9.4h2v5.4l2-2.7h2.3
		v0.1l-2.4,3l2.4,3.5v0.1h-2.3L74.4,21.2z M83.2,23.6c-0.4,0.5-1.1,0.8-1.8,0.8c-1.3,0-2.4-0.8-2.4-2.2c0-1.3,1.1-2.2,2.6-2.2
		c0.5,0,1,0.1,1.5,0.2v-0.1c0-0.7-0.4-1-1.5-1c-0.7,0-1.3,0.2-1.9,0.5h-0.1V18c0.5-0.3,1.4-0.6,2.3-0.6c2,0,3.1,1,3.1,2.7v4.2h-1.9
		V23.6z M83.1,22.2v-0.6c-0.3-0.2-0.7-0.2-1.1-0.2c-0.6,0-1,0.2-1,0.8c0,0.6,0.4,0.8,1,0.8C82.5,23,82.9,22.7,83.1,22.2z M88.4,18.7
		c0.4-0.7,0.9-1.2,1.6-1.2c0.3,0,0.5,0.1,0.6,0.1v1.9h-0.1c-0.2-0.1-0.5-0.2-0.9-0.2c-0.6,0-1.1,0.4-1.3,1.1v3.9h-2v-6.7h1.9V18.7z
		 M96,23.6c-0.4,0.5-1.1,0.8-2,0.8c-1.7,0-2.8-1.6-2.8-3.5c0-1.9,1.1-3.5,2.8-3.5c0.9,0,1.5,0.3,1.9,0.8v-3.3h2v9.4H96V23.6z M96,22
		v-2.2c-0.3-0.5-0.8-0.7-1.3-0.7c-0.9,0-1.5,0.6-1.5,1.8c0,1.1,0.6,1.8,1.5,1.8C95.2,22.7,95.6,22.5,96,22z M2.2,27.4H8v1.1H3.5v2.9
		h4.1v1.1H3.5v3.1H8v1.1H2.2V27.4z M12.8,30c1.5,0,2.3,1,2.3,2.6v4.2h-1.2v-4.1c0-0.9-0.4-1.5-1.4-1.5c-0.8,0-1.4,0.5-1.7,1.2v4.4
		H9.6v-6.6h1.2v1C11.2,30.5,11.9,30,12.8,30z M18.5,30.2h1.7v1.1h-1.7v3.6c0,0.8,0.4,1,1.1,1c0.2,0,0.4,0,0.6-0.1h0v1.1
		c-0.2,0.1-0.4,0.1-0.8,0.1c-1.6,0-2.2-0.7-2.2-2v-3.7h-1.1v-1.1h1.1v-1.8h1.2V30.2z M24.3,36.9c-1.9,0-3.3-1.3-3.3-3.4
		c0-2.1,1.2-3.5,3-3.5c1.8,0,2.8,1.3,2.8,3.3v0.6h-4.5c0.1,1.3,1,2,2.2,2c0.7,0,1.3-0.2,1.9-0.6h0v1.1
		C25.8,36.7,25.1,36.9,24.3,36.9z M22.3,32.8h3.3c0-1-0.5-1.7-1.6-1.7C23.1,31.1,22.5,31.8,22.3,32.8z M29.5,31.2
		c0.3-0.7,0.9-1.1,1.6-1.1c0.3,0,0.5,0,0.6,0.1v1.2h0c-0.2-0.1-0.5-0.1-0.8-0.1c-0.7,0-1.2,0.5-1.5,1.2v4.3h-1.2v-6.6h1.2V31.2z
		 M36,30c2,0,3,1.6,3,3.4c0,1.8-1.1,3.4-3,3.4c-0.8,0-1.5-0.4-1.9-0.9v3.3h-1.2v-9.2h1.2v0.8C34.5,30.4,35.2,30,36,30z M35.8,35.8
		c1.2,0,2-1,2-2.3c0-1.3-0.7-2.3-2-2.3c-0.7,0-1.3,0.4-1.6,1.1v2.5C34.5,35.4,35.2,35.8,35.8,35.8z M41.8,31.2
		c0.3-0.7,0.9-1.1,1.6-1.1c0.3,0,0.5,0,0.6,0.1v1.2h0c-0.2-0.1-0.5-0.1-0.8-0.1c-0.7,0-1.2,0.5-1.5,1.2v4.3h-1.2v-6.6h1.2V31.2z
		 M45.9,27.5c0.4,0,0.8,0.3,0.8,0.8c0,0.4-0.4,0.8-0.8,0.8c-0.4,0-0.8-0.3-0.8-0.8C45.1,27.8,45.5,27.5,45.9,27.5z M45.3,30.2h1.2
		v6.6h-1.2V30.2z M51,32.9c0.9,0.3,2,0.7,2,2c0,1.4-1.1,2-2.5,2c-0.9,0-1.7-0.2-2.2-0.6v-1.2h0.1c0.6,0.5,1.4,0.7,2.2,0.7
		c0.7,0,1.3-0.3,1.3-0.8c0-0.6-0.5-0.7-1.6-1.1c-0.9-0.3-2-0.6-2-1.9c0-1.3,1.1-2,2.4-2c0.8,0,1.5,0.2,2,0.5v1.2h0
		c-0.5-0.4-1.2-0.7-2-0.7c-0.8,0-1.2,0.3-1.2,0.8C49.4,32.4,49.9,32.6,51,32.9z M57.3,36.9c-1.9,0-3.3-1.3-3.3-3.4
		c0-2.1,1.2-3.5,3-3.5c1.8,0,2.8,1.3,2.8,3.3v0.6h-4.5c0.1,1.3,1,2,2.2,2c0.7,0,1.3-0.2,1.9-0.6h0v1.1
		C58.9,36.7,58.2,36.9,57.3,36.9z M55.4,32.8h3.3c0-1-0.5-1.7-1.6-1.7C56.2,31.1,55.6,31.8,55.4,32.8z"/>
</g>
</svg>
