<?xml version="1.0" encoding="utf-8"?>
<!-- Generator: Adobe Illustrator 25.3.1, SVG Export Plug-In . SVG Version: 6.00 Build 0)  -->
<svg version="1.1" id="圖層_1" xmlns="http://www.w3.org/2000/svg" xmlns:xlink="http://www.w3.org/1999/xlink" x="0px" y="0px"
	 viewBox="0 0 200 300" style="enable-background:new 0 0 200 300;" xml:space="preserve">
<style type="text/css">
	.st0{fill:#FFFFFF;}
	.st1{fill:#BADDC1;}
	.st2{fill:#79B79F;}
	.st3{fill:#1B2B20;}
	.st4{fill:#85A98C;}
	.st5{fill:#B6DBBD;}
	.st6{fill:#8DB5A3;}
	.st7{fill:#5C8A79;}
	.st8{fill:#1B2E21;}
	.st9{fill:#87B19A;}
</style>
<g>
	<g>
		<path class="st0" d="M90.8,300H66.9c-5.5,0-10.1-4.4-10.3-9.9l-5.2-115c-0.3-5.9,4.4-10.8,10.3-10.8h33.2
			c5.9,0,10.5,4.9,10.3,10.7l-4.1,115C100.9,295.6,96.4,300,90.8,300z"/>
		<path class="st1" d="M88,26.9c-0.1,2.3-0.4,4.6-0.9,7c-0.3,1.5-2.2,1.9-3.2,0.7c-0.1-0.1-0.1-0.2-0.2-0.3c-0.8-1.1-2.4-0.9-3,0.3
			l0,0c-2.4,5.2-0.7,11-3,15.8c-3.4,7-6.7,11.1-8,19.3c-0.8,5.3-1.4,11.7,3.1,15.7c1.5,1.3,4.3,0,5.7,2c1.2,1.7,0.7,5.6,0.5,7.8
			c-0.6,10.6-0.7,22-0.7,33c0,1.8,0,3.6,0,5.3c0,0.6,0.5,1.1,1.1,1c0,0,0,0,0,0c0.6,0,1-0.5,1-1.1c-0.2-5.5-0.3-11,0-16.4
			c0.3-6.3-0.4-13.6,0.7-19.8c1.7-9,4.5-17.4,6.9-15.4c0.2,0.2,0.5,0.3,0.8,0.3c13,1.6,8.2-34.4,9.4-42.2c0.9-5.8,5-10.6,7.1-16
			c0-0.1,0-0.1,0.1-0.2c1.5-3.9-2.9-7.4-6.4-5.1c-3.5,2.3-7.1,4.4-10.4,6.9C88.2,25.9,88,26.4,88,26.9z"/>
		<path class="st1" d="M76.6,110.4c1.1-0.5,1.9-1.5,2.2-2.7c1.9-8.9-4.1-15-12.6-18.4c-6-2.4-6.5-2.6-9.7-9.1c-5-10-8-9.4-16.9-13.8
			c-3.5-1.8-8.1-8.3-12.6-12.8c-3.6-3.5-9,1.7-5.6,5.4c3.6,4,8.7,7.9,9.6,11.8c1.1,4.7-1.8,10.6,1.3,14.9c3.7,5.3,7.5,1.1,12.1,3
			c6.4,2.7,4.3,13.2,10.3,18.1C59.7,111.1,69.7,113.5,76.6,110.4z"/>
		<path class="st2" d="M108.7,60.8c-5.9-0.5-13.1,2-16.9,6.7c-1.6,1.9-1.5,4.4-3.7,6.1c-2.5,1.9-5.7,1.3-8.2,2.8
			c-9.5,5.5-13.1,20.3-11.2,30.6c0.9,5.1,4.5,8.4,6.2,12.9c1.4,3.7,1.5,8.9,1.7,12.8c0,0,0,0,0,0c0.1,1.1,1,2,2.1,1.9
			c0.1,0,0.2,0,0.3,0c0-0.3,0-0.6,0-0.8c0-4.8-0.8-10.3,0.6-14.9c1.6-5,5.1-9.8,7-14.8c2.8-7.6,5.2-9.6,12.1-14.2
			c6.5-4.3,9.2-11.9,16.8-14.5c6.6-2.2,14.1-2.3,21.5-2.1c2.3,0.1,2.8-3.1,0.7-3.9C127.8,66,118.2,61.6,108.7,60.8z"/>
		<path class="st3" d="M76.8,134.4l-1.4-5.5c-0.1-0.4-0.3-0.8-0.5-1.1c-6.2-10-9.1-19.5-20.3-24.4c-5.3-2.4-12.5-5.9-18.3-6.6
			c-8.6-1-13.9,1.4-21.7-4.7c-3-2.3-4.7-5.6-8.6-6.9c0,0-0.1,0-0.1,0c-4.3-1.3-7.1,4.5-3.5,7.2c4.1,3,9,5.5,11.9,6.2
			c5.1,1.2,9.6,0,14.1,2.6c5.6,3.2,7.1,9.8,12.1,13.9c6.9,5.6,16.6,5.1,24.6,7.3C71.6,124.1,74.9,128.1,76.8,134.4z"/>
		<path class="st4" d="M13.4,95.6c1.8,0,2.6-2.4,1.1-3.5l-0.1,0c-3-2.3-4.7-5.6-8.6-6.9c0,0-0.1,0-0.1,0c-4.3-1.3-7.1,4.5-3.5,7.2
			c1.1,0.8,2.3,1.6,3.6,2.4C6,94.9,6.2,95,6.4,95C8.6,95.5,10.9,95.7,13.4,95.6z"/>
		<path class="st3" d="M59.1,128.3c-4.1-4.2-5.9-3.9-11.9-3.9c0,0,0,0,0,0c-2.4,0-4.6,1-6.3,2.7c-0.4,0.4-0.8,0.8-1.2,1.2
			c0.1-0.1,0.3-0.2,0.4-0.3c3.2,3.5,8.2,6.3,13.3,8.7c5.2,2.5,9.9-4.1,5.9-8.2C59.2,128.3,59.1,128.3,59.1,128.3z"/>
		<path class="st5" d="M36.2,123.5c-2.3-0.5-4.6-1.2-6.9-2.4c-2-1-4.4-0.2-5.4,1.8c-2.7,5.3-7.5,10-9,16.2c-0.6,2.5-1.4,5.4-2,8.4
			c-1,4.6,5.5,6.8,7.5,2.5c1.7-3.5,3.2-7,4.7-9.1c3.3-4.6,8.2-7,12.5-10c0.3-0.2,0.5-0.4,0.8-0.7c0,0,0.1-0.1,0.1-0.1
			C40.4,127.7,39.2,124.1,36.2,123.5z"/>
		<path class="st2" d="M62.5,41c-1.1-2.7-2.7-5.5-4.6-8.2c-0.5-0.7-1.7-0.5-1.8,0.4l0,0.1c-0.1,1.1-1.7,1.2-1.9,0.1
			c-0.4-1.9-0.6-3.9-0.7-6c0-0.2-0.1-0.4-0.2-0.6c-0.6-0.8-1.3-1.6-1.9-2.3c-6.8-8-15.5-16.6-25-23.5c-2.7-2-6.2,1.5-4.1,4.2
			C30,15.4,35.6,27.8,40.6,38.7c3.5,7.7,6.8,16,12,22.7c3,3.9,5.5,7,7.2,8.2c0.8,0.6,1.8-0.2,1.5-1.1C58,60.4,65.9,49.5,62.5,41z"/>
		<path class="st3" d="M57.7,60.2c-2-9.9-2.1-19.2-7-28.3c-3.4-6.4-8-11.7-12.7-17c-0.6-0.7-1.8-0.3-1.8,0.6l0,0.1
			c-0.1,1.1-1.6,1.4-2,0.3c-0.8-2-1.2-4.1-1.4-6.5c0-0.2-0.1-0.5-0.3-0.6c-0.5-0.6-1.1-1.2-1.6-1.8c-1.7-2-3.5-4-5.3-6
			c0-0.1-0.1-0.1-0.2-0.1c-0.1,0-0.1-0.1-0.2-0.1c-2.6-1.9-5.9,1.4-3.9,4C29,14.9,34.6,27.6,39.5,38.7c3.4,7.7,6.6,16,11.6,22.7
			c2.8,3.8,5.8,6.6,8.1,7.8c0.9,0.5,1.9-0.5,1.4-1.5C59.2,65.6,58.3,63.1,57.7,60.2z"/>
		<path class="st6" d="M143.3,43.2c7.3-10.5,18.5-9.4,27.2-2.3c4.4,3.6,7.1,4.2,12.4,5.2c5.4,1,9.7,3.8,14.8,6.2
			c0.1,0,0.1,0.1,0.2,0.1c2.6,1.2,1.4,5.2-1.4,4.7c-9.4-1.3-20.3-0.6-27.4-0.6C164.7,56.5,137.9,51.4,143.3,43.2z"/>
		<path class="st7" d="M151.1,45.7c-9.3-3.9-21.8-4.2-30.2,2c-4,2.9-5.8,5.8-10.5,6.9c-4,1-8.1,0.7-12,1.9
			c-11,3.4-10.8,11.2-14.5,20.6c-2.4,6.1-5.4,12-5,18.6c0.4,7.1,3,25.7,2.9,33.3c0,0.1,0.1,0.1,0.2,0.2c1.4,0.4,2.8-0.9,2.4-2.4
			c-1.8-8.1,0.7-18.1,1.9-21.1c1.8-4.7,3.3-6.7,3.7-11.8c0.4-5.1,3.4-11,6.4-15.6c3.2-4.8,6-4.4,11.1-7.9c3.9-2.7,4.2-6.6,6.5-9.4
			c2.1-2.5,9.2-5.7,13.2-7.1c4.5-1.6,7.9,0.1,12.8,0c2.9,0,5.8,0.2,8.7,0.7c5.3,0.8,7.4-6.7,2.5-8.8
			C151.2,45.8,151.2,45.8,151.1,45.7z"/>
		<path class="st1" d="M104.4,100.9c-1.4,2.5,0.5,5.5,3.3,5.3c0.6-0.1,1.4,0,2.2,0.3c5.6,1.8,3.9,8.2,6.7,12.2
			c3.7,5.3,13,6.2,17.3,11.9c4.1,5.6,3.7,11.3,5.9,17c0,0.1,0,0.1,0.1,0.2c1.5,3.6,6.8,2.5,6.9-1.4c0-2.4,0.2-4.9,0.4-7.8
			c0.2-4.2,0.6-6.9-1.8-10.7c-1.8-2.8-5.6-4.3-6.9-7.2c-2.2-5.2,0.7-12.7-6.5-15.9c-2.8-1.2-6.5,0.8-9.2,0.5c-3-0.3-5.4-0.8-7.9-2.6
			C108.3,97.9,105.9,98.2,104.4,100.9z"/>
		<path class="st8" d="M114.6,112.2c0.7,4.2-8,5.4-11.2,7.8c-0.2,0.1-0.3,0.3-0.5,0.4c-2.3,2-5.8,0.7-6.2-2.3
			c-1-8.6-1.1-17.9,4.4-20.8C110,92.5,113.2,108.7,114.6,112.2z"/>
		<g>
			<path class="st8" d="M78.8,128.2l-0.8,0c2.3-46.8-18.9-59.3-19.1-59.4l0.4-0.7C59.5,68.2,81.2,80.9,78.8,128.2z"/>
		</g>
		<g>
			<path class="st8" d="M91.4,163.7l-0.8-0.1c0.7-6.7-3.3-14.3-4.9-17.2c-0.4-0.8-0.6-1.1-0.6-1.2L86,145c0,0.1,0.3,0.5,0.5,1
				C88,149,92.2,156.8,91.4,163.7z"/>
		</g>
		<g>
			<path class="st8" d="M94.1,164.5l-0.7-0.4c6.6-12.2,4.2-46.5,4.2-46.8l0.8-0.1C98.5,118.6,100.8,152,94.1,164.5z"/>
		</g>
		<g>
			<path class="st8" d="M79.5,164c-1.1-14.2-14.3-20.4-14.4-20.5l0.3-0.7c0.1,0.1,13.7,6.5,14.9,21.1L79.5,164z"/>
		</g>
		<path class="st9" d="M82.5,129.2c-4.8-0.7-12-0.6-18.1-0.5c-1.8,0-3.4,1.2-4,2.9c-0.9,2.8-2.1,5.1-1.8,7.9c0.2,1.6-0.4,3.1-1.7,4
			c-2.6,1.9-1.3,6.7-0.1,10.2c0.5,1.4,0.1,3-0.9,4.2c-0.7,0.8-1.2,1.7-1.5,2.6c-2.5,7.7,8.9,11.9,12.2,4.5c0.2-0.5,0.4-0.9,0.6-1.2
			c2.6-4.4,4.3-8.8,5.4-13.6c0.1-0.2,0.1-0.4,0.1-0.6c0.3-3.6-1.3-9.6,1.6-9.6c0.6,0,3-0.7,3.7,0.7c1.3-0.1,2.6,0.4,3.8,1.2
			c2.2,1.4,5.1,0.7,6.2-1.6c0.9-1.9,1.8-3.7,2.4-5.9c0.8-2.9-1.6-5.7-4.6-5.3c-0.7,0.1-1.5,0.2-2.2,0.3
			C83.3,129.3,82.9,129.3,82.5,129.2z"/>
	</g>
	<path class="st3" d="M74.2,139.2c7.9,0.7,7.3-7.2,13.3-10c2.8-1.3,5.7-1.8,6.4,1.8c0.6,3.3-2.7,6.6-4.2,9.3
		c-1.6,2.9-3.3,6.9-1.6,10.1c-2.1-2.3-2-4-5.8-5.5C79.4,143.8,77.7,141.8,74.2,139.2z"/>
</g>
</svg>
