<?xml version="1.0" encoding="utf-8"?>
<!-- Generator: Adobe Illustrator 25.3.1, SVG Export Plug-In . SVG Version: 6.00 Build 0)  -->
<svg version="1.1" id="圖層_1" xmlns="http://www.w3.org/2000/svg" xmlns:xlink="http://www.w3.org/1999/xlink" x="0px" y="0px"
	 viewBox="0 0 300 400" style="enable-background:new 0 0 300 400;" xml:space="preserve">
<style type="text/css">
	.st0{fill:#1A1A1A;}
	.st1{fill:#333333;}
	.st2{opacity:0.3;enable-background:new    ;}
	.st3{opacity:0.3;}
	.st4{fill:#FFC9B6;}
	.st5{fill:#54433D;}
	.st6{fill:#606060;}
	.st7{opacity:0.2;enable-background:new    ;}
	.st8{fill:#040000;}
	.st9{fill:#1A2E35;}
</style>
<g>
	<path class="st0" d="M139.4,315c0.1,2.5-34.4,165.6-36.4,205.4c-2,39.8,7.6,190.5,7.6,190.5l38-0.3c0,0,7.5-68.6,5.4-97.3
		c-2.1-28.6-2.8-73.5,6.5-99.3c9.4-25.8,40.8-110.8,40.8-110.8l-11-79.7L139.4,315z"/>
	<path class="st1" d="M261.8,309.1c4.1,2.3,5,47.9,4.8,98.6c-0.2,50.7,13.6,143.8,16.5,175.8c2.9,32,7.9,133.9,6.5,134
		c-1.3,0.1-43.7,0.4-42.6-2.2c1.2-2.6-8.8-46.3-21.5-123.7c-12.4-75.9-35.6-158-40.3-183.7c-3.7-20.2-10.9-54.9-10.9-54.9l-1.9-39.6
		L261.8,309.1z"/>
	<path class="st2" d="M264.9,326.6c0,0-35.2,22.5-77.2,23.1s-53.2-8.8-53.2-8.8l1.6-8.8L264.9,326.6z"/>
	<g class="st3">
		<path d="M208.2,498.6c-0.3-1.1-0.5-2.1-0.8-3.2c-0.7-2.9-1.4-5.8-2.2-8.6c-1.1-4.3-2.1-8.5-3.2-12.8c-1.3-5.2-2.6-10.4-3.9-15.6
			c-1.4-5.7-2.9-11.4-4.3-17.1c-1.4-5.7-2.9-11.5-4.3-17.2c-1.3-5.4-2.7-10.7-4-16.1c-1.1-4.5-2.3-9.1-3.4-13.6
			c-0.8-3.3-1.6-6.5-2.5-9.8c-0.4-1.5-0.7-3.1-1.2-4.6c0-0.1,0-0.1,0-0.2c-0.3-1.1-2.1-0.7-1.8,0.5c0.3,1.1,0.5,2.1,0.8,3.2
			c0.7,2.9,1.4,5.8,2.2,8.6c1.1,4.3,2.1,8.5,3.2,12.8c1.3,5.2,2.6,10.4,3.9,15.6c1.4,5.7,2.9,11.4,4.3,17.1
			c1.4,5.7,2.9,11.5,4.3,17.2c1.3,5.4,2.7,10.7,4,16.1c1.1,4.5,2.3,9,3.4,13.6c0.8,3.3,1.6,6.5,2.5,9.8c0.4,1.5,0.7,3.1,1.2,4.6
			c0,0.1,0,0.1,0,0.2C206.7,500.2,208.4,499.7,208.2,498.6z"/>
	</g>
	<path class="st4" d="M148.4,183.9c-1.7,2.9-24.8,69.1-57.2,66.1c-28.6-2.7-63.1-68.6-63.1-68.6l13.8-13.8c0,0,37.3,44.3,47.9,46.3
		c8.9,1.6,39.8-60.4,39.8-60.4L148.4,183.9z"/>
	<path class="st4" d="M2.3,163c0.2-0.8,2.4-3.3,2.4-3.3s-0.9-1.8-0.9-2.7c-0.1-2.6,2.3-4.5,4.7-5.6c-0.6-0.7-0.5-6.4,4.3-6
		c-1.7-3.1,2.6-7.8,6.7-5.8c1.9,0.9,9.6,7.1,11.9,8.6c0.8-3.6,2.6-6.6,5.2-9.6c0.9-1,4.1-2.5,5.4-2.3c1.3,0.2,0.6,1.6,0.7,3
		c0.1,1.3-1.5,4.6-1.7,5.9c-1.8,10.9-0.3,17.1,1.7,26.2l-13.8,11.9c-9.6-5.8-9.2-7.4-20.3-12C4.6,169.5,1.5,166.9,2.3,163z"/>
	<path class="st5" d="M12.7,145.8c2.1,1.6,4.5,3.1,6.9,4.2c1.2,0.5,2.6,1,3.9,0.6c1.1-0.3,1.9-1.2,2.3-2.2c0.6-1.4,0.5-2.9-0.1-4.3
		c-0.1-0.3-0.4-0.5-0.7-0.4c-0.3,0.1-0.5,0.4-0.4,0.7c0.4,1,0.6,2.2,0.2,3.3c-0.3,0.8-1,1.6-1.8,1.8c-1.1,0.3-2.3-0.2-3.4-0.7
		c-1.1-0.5-2.1-1.1-3.1-1.7c-1.2-0.7-2.3-1.5-3.4-2.3c-0.2-0.2-0.6,0-0.8,0.2C12.4,145.3,12.5,145.6,12.7,145.8z"/>
	<path class="st5" d="M20.1,150.8c0.8,0.6,1.2,1.6,1.1,2.6c-0.1,1-0.7,1.8-1.6,2.2c-1.1,0.5-2.3,0.2-3.3-0.3
		c-1.2-0.5-2.3-1.1-3.5-1.7c-1.3-0.7-2.6-1.4-3.9-2.2c-0.6-0.4-1.2,0.6-0.6,1c1.3,0.8,2.6,1.6,3.9,2.3c1.3,0.7,2.7,1.4,4.1,1.9
		c1.3,0.5,2.7,0.6,3.9-0.1c1-0.6,1.8-1.6,2-2.8c0.2-1.4-0.3-2.8-1.4-3.7C20.3,149.5,19.5,150.3,20.1,150.8z"/>
	<path class="st5" d="M16.6,157.1c1.7,1.2,1.8,3.7,0.1,5c-0.9,0.7-2.1,0.7-3.3,0.4c-1.3-0.3-2.6-0.9-3.8-1.4c-1.5-0.6-3-1.1-4.4-1.7
		c-0.7-0.3-1,0.8-0.3,1.1c1.5,0.6,3,1.2,4.5,1.7c1.4,0.5,2.9,1.3,4.4,1.5c1.3,0.2,2.6,0,3.7-0.9c0.9-0.8,1.5-2,1.5-3.2
		c0-1.4-0.7-2.7-1.9-3.5C16.6,155.8,16,156.7,16.6,157.1z"/>
	<path class="st5" d="M13.7,163.7c0.7,0.5,1,1.4,0.9,2.2c-0.1,0.9-0.7,1.7-1.5,2.1c-2,1.2-4.4,0.4-6.3-0.7c-0.6-0.3-1.2,0.6-0.6,1
		c2.3,1.3,5.3,2.1,7.7,0.5c1-0.7,1.6-1.7,1.8-2.9c0.1-1.1-0.3-2.3-1.2-3c-0.2-0.2-0.5-0.2-0.8,0C13.5,163.1,13.4,163.5,13.7,163.7z"
		/>
	<path class="st5" d="M30.4,150c-4.3,3.8-6.3,9.6-5.2,15.2c0.3,1.6,0.9,3.2,1.7,4.7c0.3,0.6,1.3,0.1,1-0.6
		c-2.6-4.8-2.4-10.6,0.5-15.2c0.8-1.2,1.7-2.3,2.8-3.3C31.7,150.3,30.9,149.6,30.4,150z"/>
	<path class="st6" d="M236,124.1c0,0,10.4,23.2,14.2,54.1c6.6,54,18.2,126.5,18.7,148c0,0-89.6,29.1-138.4,4.6l5.9-116.2l0.6-80.2
		l17.2-9.3C154.3,125.2,225.3,113,236,124.1z"/>
	<path class="st6" d="M181,142.8c-5.6,18.4-30.9,70.9-30.9,70.9l-41.5-25.4c0,0,13.5-41.2,28.5-56.1
		C160.1,114,188.3,119.1,181,142.8z"/>
	<path class="st4" d="M265.4,344.9l-16.8-5l-6,11.9c-0.8,1.4-1.5,2.6-2,3.7c-5,9.7-11.7,23.5-12.4,31.7c-0.7,8.2,4.5,16.2,6.7,12.3
		c1.7-3.1-0.5-8.7-0.1-11.5c1-7.1,2.5-9.5,2.5-9.5c0,13.8,5.3,22.5,7,23.8c2.4,1.8,4.8-1,4.8-1s2.3,2.2,5.1,0.4
		c3.4-2.2-0.7-18.4-0.7-18.4s5.8,14.5,9.7,12.6c3.9-1.9-3-14.4-3.8-21.9c-0.3-2.8,5.1-7.8,5.1-14.3
		C264.6,355.5,263.5,349.9,265.4,344.9z"/>
	<path class="st5" d="M249.9,401.1c-1.4-3.3-2.8-6.7-3.6-10.3c-0.8-3.5-0.9-7.2-0.6-10.8c0.3-2.7,0.8-5.3,1.5-7.9
		c0.2-0.7-0.9-1-1.1-0.3c-1.1,4.3-1.9,8.8-1.7,13.2c0.1,3.5,0.9,7,2,10.3c0.7,2.1,1.5,4.1,2.4,6.1c0.1,0.3,0.4,0.5,0.7,0.4
		C249.8,401.7,250,401.4,249.9,401.1z"/>
	<path class="st5" d="M254.4,383.5c-0.3-2.1-0.7-4.3-0.8-6.5c-0.1-1.9,0.1-3.9,1.2-5.6c0.4-0.6-0.6-1.2-1-0.6
		c-1.2,1.8-1.4,3.9-1.3,6c0.1,2.3,0.6,4.6,0.9,6.9c0,0.3,0.4,0.5,0.7,0.4C254.3,384.1,254.4,383.8,254.4,383.5z"/>
	<path class="st4" d="M270.4,175l-35.6,15c6.2,17.2,17.7,44.2,22.5,63.4c1.3,5.1-10.7,90.5-10.7,90.5l17.8,5.1
		c0,0,27.1-83.3,26.8-93.5C290.7,240.5,279.2,206.6,270.4,175z"/>
	<path class="st6" d="M256.2,140c12.4,21.6,23.2,58.6,23.2,58.6l-45,16.9c-8.5-17.2-18.8-35.8-19.9-55c-1.2-26.1-1-42.4,15.4-40.1
		C238.3,121.7,248.8,127.3,256.2,140z"/>
	<g class="st3">
		<path d="M219.8,289.1c-5.4-3.1-10.7-6.4-15.8-9.9c-5.2-3.5-10.2-7.1-15.2-10.9c-4.9-3.7-9.7-7.7-14.3-11.7
			c-4.7-4.1-9.2-8.3-13.7-12.6c-4.4-4.4-8.7-8.9-12.9-13.5c-0.5-0.6-1-1.2-1.5-1.7c-0.3-0.4-1-0.3-1.3,0c-0.4,0.4-0.3,0.9,0,1.3
			c4.1,4.7,8.4,9.2,12.8,13.7c4.4,4.4,8.9,8.7,13.6,12.8c4.7,4.1,9.5,8.1,14.4,11.9c4.9,3.8,10,7.5,15.2,11
			c5.1,3.5,10.4,6.8,15.8,10c0.7,0.4,1.3,0.8,2,1.2C219.9,291.3,220.8,289.7,219.8,289.1z"/>
	</g>
	<path class="st4" d="M174.9,91.3l36.7-19.5c-0.3,2.6-0.4,7.7-2.5,10.5c-18.8,24.5-4.2,39.9-4.2,39.9c-9.9,7.3-31.9,10.7-36.3-0.8
		C171.7,115.2,175.2,99.6,174.9,91.3z"/>
	<path class="st7" d="M173.6,102.8l20.6-3.3c-2.3,6.2-8.3,13.3-22.5,13C171.7,112.6,173.5,105.6,173.6,102.8z"/>
	<path class="st8" d="M151.8,26.9c-4.7,7.9-3.8,28.2,9.4,25.3C174.4,49.4,159.8,13.4,151.8,26.9z"/>
	<path class="st4" d="M213,54.7c-3.8,22.2-5.5,34.8-18.1,44.9c-54.1,33.4-64.7-67.1-20.7-80.5C196.7,12.9,216.8,32.5,213,54.7z"/>
	<path class="st8" d="M227.5,30.4c0,0-20.2-2.8-23.6-3.1c-3.4-0.3-6.9,11.8-6.4,15.8c0.5,3.9,5.8,5.7,5.7,9.4
		c-0.2,3.2-5.5,12.5-3.6,16.9c2.2,1.7,14.2-5.4,14.2-5.4l7,2.6C220.8,66.5,240.9,39.4,227.5,30.4z"/>
	<path class="st8" d="M227.1,32.1c2.1-1.9,4.4-5.2,1.9-11.3c0,1.7-2.1,3.7-3.4,4.4c-1.3-5.1-7.9-13.8-26.4-17.9
		c-22.8-5.1-28.8,2.6-35.4-0.8c-6.7-3.4,1.7-6.1,1.7-6.1s-11.5-2.7-15.2,6c-3.7,8.7-0.5,24,19.8,23c20.3-1,24.3,5.7,34.6,4
		C212.1,32.5,219.6,32.1,227.1,32.1z"/>
	<path class="st4" d="M219.8,73.9c-3.9,11.7-24.3,18-21.7,0.6C199.6,57.5,224.8,53.3,219.8,73.9z"/>
	<path class="st9" d="M179.9,57.1c0,5.4-5.6,5.3-5.5-0.1C174.5,51.6,180,51.7,179.9,57.1z"/>
	<path class="st9" d="M158.4,56.3c0,5.4-5.6,5.3-5.5-0.1C152.9,50.8,158.4,50.9,158.4,56.3z"/>
	<path class="st9" d="M187,47.4c-0.4,0.1-0.8,0-1.1-0.3c-3.5-3.4-7.3-2.6-7.4-2.6c-4.7-2.1,4-4.2,8.9,1
		C188.1,46.2,187.8,47.2,187,47.4z"/>
	<path class="st5" d="M204.4,74.3c-0.1,0-0.1,0-0.2,0c-0.7-0.1-1.1-0.7-1-1.4c0.5-3.7,3.9-7.6,7.3-8.4c2.3-0.6,4.3,0.3,5.8,2.3
		c0.4,0.5,0.3,1.3-0.3,1.7c-0.5,0.4-1.3,0.3-1.7-0.3c-0.9-1.2-2-1.7-3.3-1.4c-2.4,0.6-5.1,3.8-5.5,6.4
		C205.5,73.9,205,74.3,204.4,74.3z"/>
	<path class="st9" d="M148.9,44.9c-0.8-0.2-1-1.4-0.3-1.9c4.7-3.7,9.4-2.1,9.6-2c1.3,0.4,0.6,2.5-0.7,2
		C156.8,42.2,152.6,42.9,148.9,44.9z"/>
	<path class="st9" d="M166.1,73.2c-2.9,0-4.3-1.3-5-2.4c-2.7-4.5,1.7-13.4,2.2-14.4l2.6,1.3c-1.6,3.2-3.7,9.3-2.3,11.6
		c0.2,0.3,0.6,1,2.5,1V73.2z"/>
	<path class="st9" d="M166.7,86.7c-1.1,0-1.8,0-1.9-0.1l0.2-2.9c0,0,4.3,0.3,8.6-0.6c5.3-1.1,8.2-3.3,8.6-6.5l2.9,0.4
		C183.9,85.9,171.6,86.7,166.7,86.7z"/>
	<path class="st6" d="M112.3,178.1l-24.1,35.7L49.3,174l-16.9,17c0,0,35.9,74.9,67.7,61.3c31.7-13.6,41.8-55.7,41.8-55.7
		L112.3,178.1z"/>
	<path d="M137.6,205.1c0.9-6.2,1.8-12.4,2.7-18.6c0.8-5.6,1.6-11.2,2.4-16.8c0.5-3.7,1.1-7.3,1.6-11c0.1-0.5-0.1-1-0.6-1.1
		c-0.4-0.1-1.1,0.1-1.1,0.6c-0.9,6.2-1.8,12.4-2.7,18.6c-0.8,5.6-1.6,11.2-2.4,16.8c-0.5,3.7-1.1,7.3-1.6,11c-0.1,0.5,0.1,1,0.6,1.1
		C136.9,205.9,137.6,205.6,137.6,205.1z"/>
	<path class="st6" d="M275.4,186.1l22.4,64.5l-28.9,90l-24-2.5l9.3-84.6l-17.2-48.7L275.4,186.1z"/>
	<path d="M219.1,169.9c1.2,2.8,2.5,5.6,3.7,8.4c3,6.7,5.9,13.3,8.9,20c3.6,8.1,7.2,16.2,10.8,24.2c3.1,7,6.2,14,9.4,21
		c1,2.3,2.1,4.6,3.1,6.9c0.5,1.1,0.9,2.2,1.4,3.2c0,0,0,0.1,0.1,0.2c0-0.2-0.1-0.5-0.1-0.7c-0.4,2.8-0.8,5.6-1.2,8.4
		c-1,6.8-2,13.5-3,20.3c-1.2,8.2-2.4,16.4-3.6,24.5c-1,7.1-2.1,14.1-3.1,21.2c-0.5,3.4-1,6.9-1.5,10.3c0,0,0,0.1,0,0.1
		c-0.2,1.2,1.6,1.7,1.8,0.5c0.4-3,0.9-6.1,1.3-9.1c1-7.1,2.1-14.3,3.1-21.4c1.2-8.5,2.5-17,3.7-25.5c1-7,2-13.9,3-20.9
		c0.3-2.1,0.6-4.1,0.9-6.2c0.1-0.8,0.5-1.9,0.2-2.6c-0.3-0.8-0.7-1.6-1.1-2.5c-0.9-2-1.8-4-2.7-6c-2.9-6.5-5.8-13-8.7-19.5
		c-3.5-7.8-7-15.7-10.5-23.5c-3.1-6.9-6.2-13.8-9.3-20.8c-1.7-3.7-3.3-7.5-5-11.2c-0.1-0.2-0.2-0.3-0.2-0.5
		C220.2,167.9,218.6,168.8,219.1,169.9z"/>
</g>
</svg>
