<?xml version="1.0" encoding="utf-8"?>
<!-- Generator: Adobe Illustrator 25.3.1, SVG Export Plug-In . SVG Version: 6.00 Build 0)  -->
<svg version="1.1" id="圖層_1" xmlns="http://www.w3.org/2000/svg" xmlns:xlink="http://www.w3.org/1999/xlink" x="0px" y="0px"
	 viewBox="0 0 280 200" style="enable-background:new 0 0 280 200;" xml:space="preserve">
<style type="text/css">
	.st0{fill:none;}
	.st1{clip-path:url(#SVGID_5_);}
	.st2{clip-path:url(#SVGID_6_);fill:url(#SVGID_7_);}
	.st3{opacity:0.13;fill:url(#SVGID_8_);enable-background:new    ;}
	.st4{clip-path:url(#SVGID_13_);}
	.st5{clip-path:url(#SVGID_14_);fill:url(#SVGID_15_);}
	.st6{opacity:0.13;fill:url(#SVGID_16_);enable-background:new    ;}
	.st7{clip-path:url(#SVGID_21_);}
	.st8{clip-path:url(#SVGID_22_);fill:url(#SVGID_23_);}
	.st9{opacity:0.13;fill:url(#SVGID_24_);enable-background:new    ;}
	.st10{clip-path:url(#SVGID_29_);}
	.st11{clip-path:url(#SVGID_30_);fill:url(#SVGID_31_);}
	.st12{opacity:0.13;fill:url(#SVGID_32_);enable-background:new    ;}
	.st13{clip-path:url(#SVGID_37_);}
	.st14{clip-path:url(#SVGID_38_);fill:url(#SVGID_39_);}
	.st15{opacity:0.13;fill:url(#SVGID_40_);enable-background:new    ;}
	.st16{clip-path:url(#SVGID_45_);}
	.st17{clip-path:url(#SVGID_46_);fill:url(#SVGID_47_);}
	.st18{opacity:0.13;fill:url(#SVGID_48_);enable-background:new    ;}
	.st19{clip-path:url(#SVGID_53_);}
	.st20{clip-path:url(#SVGID_54_);fill:url(#SVGID_55_);}
	.st21{opacity:0.11;fill:url(#SVGID_56_);enable-background:new    ;}
	.st22{clip-path:url(#SVGID_61_);}
	.st23{clip-path:url(#SVGID_62_);fill:url(#SVGID_63_);}
	.st24{opacity:0.11;fill:url(#SVGID_64_);enable-background:new    ;}
	.st25{clip-path:url(#SVGID_69_);}
	.st26{clip-path:url(#SVGID_70_);fill:url(#SVGID_71_);}
	.st27{opacity:0.11;fill:url(#SVGID_72_);enable-background:new    ;}
	.st28{clip-path:url(#SVGID_77_);}
	.st29{clip-path:url(#SVGID_78_);fill:url(#SVGID_79_);}
	.st30{opacity:0.11;fill:url(#SVGID_80_);enable-background:new    ;}
	.st31{fill:#5C8A79;}
	.st32{fill:#79B79F;}
	.st33{fill:#D7AD89;}
	.st34{fill:#040000;}
	.st35{fill:#393D54;}
	.st36{fill:#969696;}
	.st37{fill:#4F4E4E;}
	.st38{fill:#515252;}
	.st39{fill:#453936;}
	.st40{fill:#554946;}
	.st41{fill:#F7F6C8;}
	.st42{fill:#E2B868;}
	.st43{opacity:0.47;fill:#A06C25;enable-background:new    ;}
	.st44{fill:#F0F8F7;}
	.st45{fill:#4A200F;}
	.st46{fill:#FCFBE4;}
	.st47{fill:#EFD8AE;}
	.st48{fill:#272022;}
</style>
<g>
	<line class="st0" x1="107.1" y1="199.8" x2="111" y2="199.8"/>
	<line class="st0" x1="98.8" y1="199.8" x2="103.5" y2="199.8"/>
	<g>
		<g>
			<g>
				<defs>
					<polygon id="SVGID_1_" points="1,1 2,1 1,2 					"/>
				</defs>
				<clipPath id="SVGID_2_">
					<use xlink:href="#SVGID_1_"  style="overflow:visible;"/>
				</clipPath>
			</g>
			<g>
				<defs>
					<polygon id="SVGID_3_" points="1,1 2,1 1,2 					"/>
				</defs>
				<defs>
					<polygon id="SVGID_4_" points="-1,-1 -2,-1 -1,-2 					"/>
				</defs>
				<clipPath id="SVGID_5_">
					<use xlink:href="#SVGID_3_"  style="overflow:visible;"/>
				</clipPath>
				<clipPath id="SVGID_6_" class="st1">
					<use xlink:href="#SVGID_4_"  style="overflow:visible;"/>
				</clipPath>
				
					<linearGradient id="SVGID_7_" gradientUnits="userSpaceOnUse" x1="109.7623" y1="1257.0042" x2="109.2532" y2="1273.2965" gradientTransform="matrix(1 0 0 1 0 -1080)">
					<stop  offset="8.000000e-08" style="stop-color:#808080"/>
					<stop  offset="0.2237" style="stop-color:#979797"/>
					<stop  offset="0.6926" style="stop-color:#D4D4D4"/>
					<stop  offset="1" style="stop-color:#FFFFFF"/>
				</linearGradient>
				<polyline class="st2" points="111,199.8 110.8,176.6 108.4,176.8 107.1,199.8 				"/>
			</g>
		</g>
	</g>
	
		<linearGradient id="SVGID_8_" gradientUnits="userSpaceOnUse" x1="109.7623" y1="1257.0042" x2="109.2532" y2="1273.2965" gradientTransform="matrix(1 0 0 1 0 -1080)">
		<stop  offset="8.000000e-08" style="stop-color:#2B2D1A"/>
		<stop  offset="0.1461" style="stop-color:#424332"/>
		<stop  offset="0.4549" style="stop-color:#7C7C6F"/>
		<stop  offset="0.8979" style="stop-color:#D8D5D1"/>
		<stop  offset="1" style="stop-color:#EEEBE8"/>
	</linearGradient>
	<polyline class="st3" points="111,199.8 110.8,176.6 108.4,176.8 107.1,199.8 	"/>
	<g>
		<g>
			<g>
				<defs>
					<polygon id="SVGID_9_" points="1,1 2,1 1,2 					"/>
				</defs>
				<clipPath id="SVGID_10_">
					<use xlink:href="#SVGID_9_"  style="overflow:visible;"/>
				</clipPath>
			</g>
			<g>
				<defs>
					<polygon id="SVGID_11_" points="1,1 2,1 1,2 					"/>
				</defs>
				<defs>
					<polygon id="SVGID_12_" points="-1,-1 -2,-1 -1,-2 					"/>
				</defs>
				<clipPath id="SVGID_13_">
					<use xlink:href="#SVGID_11_"  style="overflow:visible;"/>
				</clipPath>
				<clipPath id="SVGID_14_" class="st4">
					<use xlink:href="#SVGID_12_"  style="overflow:visible;"/>
				</clipPath>
				
					<linearGradient id="SVGID_15_" gradientUnits="userSpaceOnUse" x1="258.8016" y1="1256.7976" x2="258.2878" y2="1273.2397" gradientTransform="matrix(1 0 0 1 0 -1080)">
					<stop  offset="8.000000e-08" style="stop-color:#808080"/>
					<stop  offset="0.2237" style="stop-color:#979797"/>
					<stop  offset="0.6926" style="stop-color:#D4D4D4"/>
					<stop  offset="1" style="stop-color:#FFFFFF"/>
				</linearGradient>
				<polyline class="st5" points="260.8,199.8 259,176.5 256.1,176.3 256.1,199.8 				"/>
			</g>
		</g>
	</g>
	
		<linearGradient id="SVGID_16_" gradientUnits="userSpaceOnUse" x1="258.8016" y1="1256.7976" x2="258.2878" y2="1273.2397" gradientTransform="matrix(1 0 0 1 0 -1080)">
		<stop  offset="8.000000e-08" style="stop-color:#2B2D1A"/>
		<stop  offset="0.1461" style="stop-color:#424332"/>
		<stop  offset="0.4549" style="stop-color:#7C7C6F"/>
		<stop  offset="0.8979" style="stop-color:#D8D5D1"/>
		<stop  offset="1" style="stop-color:#EEEBE8"/>
	</linearGradient>
	<polyline class="st6" points="260.8,199.8 259,176.5 256.1,176.3 256.1,199.8 	"/>
	<g>
		<g>
			<g>
				<defs>
					<polygon id="SVGID_17_" points="1,1 2,1 1,2 					"/>
				</defs>
				<clipPath id="SVGID_18_">
					<use xlink:href="#SVGID_17_"  style="overflow:visible;"/>
				</clipPath>
			</g>
			<g>
				<defs>
					<polygon id="SVGID_19_" points="1,1 2,1 1,2 					"/>
				</defs>
				<defs>
					<polygon id="SVGID_20_" points="-1,-1 -2,-1 -1,-2 					"/>
				</defs>
				<clipPath id="SVGID_21_">
					<use xlink:href="#SVGID_19_"  style="overflow:visible;"/>
				</clipPath>
				<clipPath id="SVGID_22_" class="st7">
					<use xlink:href="#SVGID_20_"  style="overflow:visible;"/>
				</clipPath>
				
					<linearGradient id="SVGID_23_" gradientUnits="userSpaceOnUse" x1="267.9001" y1="1256.9958" x2="267.3911" y2="1273.2843" gradientTransform="matrix(1 0 0 1 0 -1080)">
					<stop  offset="8.000000e-08" style="stop-color:#808080"/>
					<stop  offset="0.2237" style="stop-color:#979797"/>
					<stop  offset="0.6926" style="stop-color:#D4D4D4"/>
					<stop  offset="1" style="stop-color:#FFFFFF"/>
				</linearGradient>
				<polyline class="st8" points="270.4,199.8 267.5,176.6 264.7,176.6 265.7,199.8 				"/>
			</g>
		</g>
	</g>
	
		<linearGradient id="SVGID_24_" gradientUnits="userSpaceOnUse" x1="267.9001" y1="1256.9958" x2="267.3911" y2="1273.2843" gradientTransform="matrix(1 0 0 1 0 -1080)">
		<stop  offset="8.000000e-08" style="stop-color:#2B2D1A"/>
		<stop  offset="0.1461" style="stop-color:#424332"/>
		<stop  offset="0.4549" style="stop-color:#7C7C6F"/>
		<stop  offset="0.8979" style="stop-color:#D8D5D1"/>
		<stop  offset="1" style="stop-color:#EEEBE8"/>
	</linearGradient>
	<polyline class="st9" points="270.4,199.8 267.5,176.6 264.7,176.6 265.7,199.8 	"/>
	<g>
		<g>
			<g>
				<defs>
					<polygon id="SVGID_25_" points="1,1 2,1 1,2 					"/>
				</defs>
				<clipPath id="SVGID_26_">
					<use xlink:href="#SVGID_25_"  style="overflow:visible;"/>
				</clipPath>
			</g>
			<g>
				<defs>
					<polygon id="SVGID_27_" points="1,1 2,1 1,2 					"/>
				</defs>
				<defs>
					<polygon id="SVGID_28_" points="-1,-1 -2,-1 -1,-2 					"/>
				</defs>
				<clipPath id="SVGID_29_">
					<use xlink:href="#SVGID_27_"  style="overflow:visible;"/>
				</clipPath>
				<clipPath id="SVGID_30_" class="st10">
					<use xlink:href="#SVGID_28_"  style="overflow:visible;"/>
				</clipPath>
				
					<linearGradient id="SVGID_31_" gradientUnits="userSpaceOnUse" x1="131.502" y1="1256.9847" x2="130.9882" y2="1273.427" gradientTransform="matrix(1 0 0 1 0 -1080)">
					<stop  offset="8.000000e-08" style="stop-color:#808080"/>
					<stop  offset="0.2237" style="stop-color:#979797"/>
					<stop  offset="0.6926" style="stop-color:#D4D4D4"/>
					<stop  offset="1" style="stop-color:#FFFFFF"/>
				</linearGradient>
				<polyline class="st11" points="133.5,200 131.7,176.7 128.8,176.5 128.8,200 				"/>
			</g>
		</g>
	</g>
	
		<linearGradient id="SVGID_32_" gradientUnits="userSpaceOnUse" x1="131.502" y1="1256.9847" x2="130.9882" y2="1273.427" gradientTransform="matrix(1 0 0 1 0 -1080)">
		<stop  offset="8.000000e-08" style="stop-color:#2B2D1A"/>
		<stop  offset="0.1461" style="stop-color:#424332"/>
		<stop  offset="0.4549" style="stop-color:#7C7C6F"/>
		<stop  offset="0.8979" style="stop-color:#D8D5D1"/>
		<stop  offset="1" style="stop-color:#EEEBE8"/>
	</linearGradient>
	<polyline class="st12" points="133.5,200 131.7,176.7 128.8,176.5 128.8,200 	"/>
	<g>
		<g>
			<g>
				<defs>
					<polygon id="SVGID_33_" points="1,1 2,1 1,2 					"/>
				</defs>
				<clipPath id="SVGID_34_">
					<use xlink:href="#SVGID_33_"  style="overflow:visible;"/>
				</clipPath>
			</g>
			<g>
				<defs>
					<polygon id="SVGID_35_" points="1,1 2,1 1,2 					"/>
				</defs>
				<defs>
					<polygon id="SVGID_36_" points="-1,-1 -2,-1 -1,-2 					"/>
				</defs>
				<clipPath id="SVGID_37_">
					<use xlink:href="#SVGID_35_"  style="overflow:visible;"/>
				</clipPath>
				<clipPath id="SVGID_38_" class="st13">
					<use xlink:href="#SVGID_36_"  style="overflow:visible;"/>
				</clipPath>
				
					<linearGradient id="SVGID_39_" gradientUnits="userSpaceOnUse" x1="140.6005" y1="1257.1829" x2="140.0915" y2="1273.4716" gradientTransform="matrix(1 0 0 1 0 -1080)">
					<stop  offset="8.000000e-08" style="stop-color:#808080"/>
					<stop  offset="0.2237" style="stop-color:#979797"/>
					<stop  offset="0.6926" style="stop-color:#D4D4D4"/>
					<stop  offset="1" style="stop-color:#FFFFFF"/>
				</linearGradient>
				<polyline class="st14" points="143.1,200 140.2,176.8 137.4,176.8 138.4,200 				"/>
			</g>
		</g>
	</g>
	
		<linearGradient id="SVGID_40_" gradientUnits="userSpaceOnUse" x1="140.6005" y1="1257.1829" x2="140.0915" y2="1273.4716" gradientTransform="matrix(1 0 0 1 0 -1080)">
		<stop  offset="8.000000e-08" style="stop-color:#2B2D1A"/>
		<stop  offset="0.1461" style="stop-color:#424332"/>
		<stop  offset="0.4549" style="stop-color:#7C7C6F"/>
		<stop  offset="0.8979" style="stop-color:#D8D5D1"/>
		<stop  offset="1" style="stop-color:#EEEBE8"/>
	</linearGradient>
	<polyline class="st15" points="143.1,200 140.2,176.8 137.4,176.8 138.4,200 	"/>
	<g>
		<g>
			<g>
				<defs>
					<polygon id="SVGID_41_" points="1,1 2,1 1,2 					"/>
				</defs>
				<clipPath id="SVGID_42_">
					<use xlink:href="#SVGID_41_"  style="overflow:visible;"/>
				</clipPath>
			</g>
			<g>
				<defs>
					<polygon id="SVGID_43_" points="1,1 2,1 1,2 					"/>
				</defs>
				<defs>
					<polygon id="SVGID_44_" points="-1,-1 -2,-1 -1,-2 					"/>
				</defs>
				<clipPath id="SVGID_45_">
					<use xlink:href="#SVGID_43_"  style="overflow:visible;"/>
				</clipPath>
				<clipPath id="SVGID_46_" class="st16">
					<use xlink:href="#SVGID_44_"  style="overflow:visible;"/>
				</clipPath>
				
					<linearGradient id="SVGID_47_" gradientUnits="userSpaceOnUse" x1="101.9527" y1="1256.911" x2="101.4412" y2="1273.2808" gradientTransform="matrix(1 0 0 1 0 -1080)">
					<stop  offset="8.000000e-08" style="stop-color:#808080"/>
					<stop  offset="0.2237" style="stop-color:#979797"/>
					<stop  offset="0.6926" style="stop-color:#D4D4D4"/>
					<stop  offset="1" style="stop-color:#FFFFFF"/>
				</linearGradient>
				<polyline class="st17" points="103.5,199.8 104.4,176.6 101.3,176.6 98.8,199.8 				"/>
			</g>
		</g>
	</g>
	
		<linearGradient id="SVGID_48_" gradientUnits="userSpaceOnUse" x1="101.9527" y1="1256.911" x2="101.4412" y2="1273.2808" gradientTransform="matrix(1 0 0 1 0 -1080)">
		<stop  offset="8.000000e-08" style="stop-color:#2B2D1A"/>
		<stop  offset="0.1461" style="stop-color:#424332"/>
		<stop  offset="0.4549" style="stop-color:#7C7C6F"/>
		<stop  offset="0.8979" style="stop-color:#D8D5D1"/>
		<stop  offset="1" style="stop-color:#EEEBE8"/>
	</linearGradient>
	<polyline class="st18" points="103.5,199.8 104.4,176.6 101.3,176.6 98.8,199.8 	"/>
	<g>
		<g>
			<g>
				<defs>
					<polygon id="SVGID_49_" points="1,1 2,1 1,2 					"/>
				</defs>
				<clipPath id="SVGID_50_">
					<use xlink:href="#SVGID_49_"  style="overflow:visible;"/>
				</clipPath>
			</g>
			<g>
				<defs>
					<polygon id="SVGID_51_" points="1,1 2,1 1,2 					"/>
				</defs>
				<defs>
					<polygon id="SVGID_52_" points="-1,-1 -2,-1 -1,-2 					"/>
				</defs>
				<clipPath id="SVGID_53_">
					<use xlink:href="#SVGID_51_"  style="overflow:visible;"/>
				</clipPath>
				<clipPath id="SVGID_54_" class="st19">
					<use xlink:href="#SVGID_52_"  style="overflow:visible;"/>
				</clipPath>
				
					<linearGradient id="SVGID_55_" gradientUnits="userSpaceOnUse" x1="9.6647" y1="1266.7" x2="23.0331" y2="1266.7" gradientTransform="matrix(1 0 0 1 0 -1080)">
					<stop  offset="8.000000e-08" style="stop-color:#808080"/>
					<stop  offset="0.2237" style="stop-color:#979797"/>
					<stop  offset="0.6926" style="stop-color:#D4D4D4"/>
					<stop  offset="1" style="stop-color:#FFFFFF"/>
				</linearGradient>
				<polyline class="st20" points="23,199.8 13.8,173.6 9.7,173.6 18.9,199.8 				"/>
			</g>
		</g>
	</g>
	
		<linearGradient id="SVGID_56_" gradientUnits="userSpaceOnUse" x1="9.6647" y1="1266.7" x2="23.0331" y2="1266.7" gradientTransform="matrix(1 0 0 1 0 -1080)">
		<stop  offset="8.000000e-08" style="stop-color:#2B2D1A"/>
		<stop  offset="0.1461" style="stop-color:#424332"/>
		<stop  offset="0.4549" style="stop-color:#7C7C6F"/>
		<stop  offset="0.8979" style="stop-color:#D8D5D1"/>
		<stop  offset="1" style="stop-color:#EEEBE8"/>
	</linearGradient>
	<polyline class="st21" points="23,199.8 13.8,173.6 9.7,173.6 18.9,199.8 	"/>
	<g>
		<g>
			<g>
				<defs>
					<polygon id="SVGID_57_" points="1,1 2,1 1,2 					"/>
				</defs>
				<clipPath id="SVGID_58_">
					<use xlink:href="#SVGID_57_"  style="overflow:visible;"/>
				</clipPath>
			</g>
			<g>
				<defs>
					<polygon id="SVGID_59_" points="1,1 2,1 1,2 					"/>
				</defs>
				<defs>
					<polygon id="SVGID_60_" points="-1,-1 -2,-1 -1,-2 					"/>
				</defs>
				<clipPath id="SVGID_61_">
					<use xlink:href="#SVGID_59_"  style="overflow:visible;"/>
				</clipPath>
				<clipPath id="SVGID_62_" class="st22">
					<use xlink:href="#SVGID_60_"  style="overflow:visible;"/>
				</clipPath>
				
					<linearGradient id="SVGID_63_" gradientUnits="userSpaceOnUse" x1="30.2739" y1="1266.7" x2="43.6944" y2="1266.7" gradientTransform="matrix(1 0 0 1 0 -1080)">
					<stop  offset="8.000000e-08" style="stop-color:#808080"/>
					<stop  offset="0.2237" style="stop-color:#979797"/>
					<stop  offset="0.6926" style="stop-color:#D4D4D4"/>
					<stop  offset="1" style="stop-color:#FFFFFF"/>
				</linearGradient>
				<polyline class="st23" points="43.7,199.8 34.4,173.6 30.3,173.6 39.6,199.8 				"/>
			</g>
		</g>
	</g>
	
		<linearGradient id="SVGID_64_" gradientUnits="userSpaceOnUse" x1="30.2739" y1="1266.7" x2="43.6944" y2="1266.7" gradientTransform="matrix(1 0 0 1 0 -1080)">
		<stop  offset="8.000000e-08" style="stop-color:#2B2D1A"/>
		<stop  offset="0.1461" style="stop-color:#424332"/>
		<stop  offset="0.4549" style="stop-color:#7C7C6F"/>
		<stop  offset="0.8979" style="stop-color:#D8D5D1"/>
		<stop  offset="1" style="stop-color:#EEEBE8"/>
	</linearGradient>
	<polyline class="st24" points="43.7,199.8 34.4,173.6 30.3,173.6 39.6,199.8 	"/>
	<g>
		<g>
			<g>
				<defs>
					<polygon id="SVGID_65_" points="1,1 2,1 1,2 					"/>
				</defs>
				<clipPath id="SVGID_66_">
					<use xlink:href="#SVGID_65_"  style="overflow:visible;"/>
				</clipPath>
			</g>
			<g>
				<defs>
					<polygon id="SVGID_67_" points="1,1 2,1 1,2 					"/>
				</defs>
				<defs>
					<polygon id="SVGID_68_" points="-1,-1 -2,-1 -1,-2 					"/>
				</defs>
				<clipPath id="SVGID_69_">
					<use xlink:href="#SVGID_67_"  style="overflow:visible;"/>
				</clipPath>
				<clipPath id="SVGID_70_" class="st25">
					<use xlink:href="#SVGID_68_"  style="overflow:visible;"/>
				</clipPath>
				
					<linearGradient id="SVGID_71_" gradientUnits="userSpaceOnUse" x1="72.881" y1="1266.2" x2="86.681" y2="1266.2" gradientTransform="matrix(1 0 0 1 0 -1080)">
					<stop  offset="8.000000e-08" style="stop-color:#808080"/>
					<stop  offset="0.2237" style="stop-color:#979797"/>
					<stop  offset="0.6926" style="stop-color:#D4D4D4"/>
					<stop  offset="1" style="stop-color:#FFFFFF"/>
				</linearGradient>
				<polyline class="st26" points="77,199.3 86.7,173.1 82.5,173.1 72.9,199.3 				"/>
			</g>
		</g>
	</g>
	
		<linearGradient id="SVGID_72_" gradientUnits="userSpaceOnUse" x1="72.881" y1="1266.2" x2="86.681" y2="1266.2" gradientTransform="matrix(1 0 0 1 0 -1080)">
		<stop  offset="8.000000e-08" style="stop-color:#2B2D1A"/>
		<stop  offset="0.1461" style="stop-color:#424332"/>
		<stop  offset="0.4549" style="stop-color:#7C7C6F"/>
		<stop  offset="0.8979" style="stop-color:#D8D5D1"/>
		<stop  offset="1" style="stop-color:#EEEBE8"/>
	</linearGradient>
	<polyline class="st27" points="77,199.3 86.7,173.1 82.5,173.1 72.9,199.3 	"/>
	<g>
		<g>
			<g>
				<defs>
					<polygon id="SVGID_73_" points="1,1 2,1 1,2 					"/>
				</defs>
				<clipPath id="SVGID_74_">
					<use xlink:href="#SVGID_73_"  style="overflow:visible;"/>
				</clipPath>
			</g>
			<g>
				<defs>
					<polygon id="SVGID_75_" points="1,1 2,1 1,2 					"/>
				</defs>
				<defs>
					<polygon id="SVGID_76_" points="-1,-1 -2,-1 -1,-2 					"/>
				</defs>
				<clipPath id="SVGID_77_">
					<use xlink:href="#SVGID_75_"  style="overflow:visible;"/>
				</clipPath>
				<clipPath id="SVGID_78_" class="st28">
					<use xlink:href="#SVGID_76_"  style="overflow:visible;"/>
				</clipPath>
				
					<linearGradient id="SVGID_79_" gradientUnits="userSpaceOnUse" x1="87.779" y1="1266.15" x2="101.6042" y2="1266.15" gradientTransform="matrix(1 0 0 1 0 -1080)">
					<stop  offset="8.000000e-08" style="stop-color:#808080"/>
					<stop  offset="0.2237" style="stop-color:#979797"/>
					<stop  offset="0.6926" style="stop-color:#D4D4D4"/>
					<stop  offset="1" style="stop-color:#FFFFFF"/>
				</linearGradient>
				<polyline class="st29" points="91.9,199.3 101.6,173 97.5,173.1 87.8,199.3 				"/>
			</g>
		</g>
	</g>
	
		<linearGradient id="SVGID_80_" gradientUnits="userSpaceOnUse" x1="87.779" y1="1266.15" x2="101.6042" y2="1266.15" gradientTransform="matrix(1 0 0 1 0 -1080)">
		<stop  offset="8.000000e-08" style="stop-color:#2B2D1A"/>
		<stop  offset="0.1461" style="stop-color:#424332"/>
		<stop  offset="0.4549" style="stop-color:#7C7C6F"/>
		<stop  offset="0.8979" style="stop-color:#D8D5D1"/>
		<stop  offset="1" style="stop-color:#EEEBE8"/>
	</linearGradient>
	<polyline class="st30" points="91.9,199.3 101.6,173 97.5,173.1 87.8,199.3 	"/>
	<g>
		<path class="st31" d="M161.2,43.9c-8.2,0.1-16.3-0.6-24.4-1.9l0,0c-5.1-0.8-9.7,3.3-9.2,8.3l8.7,51.8l24.9-3.9V43.9z"/>
		<path class="st32" d="M198.5,93.8L143.3,93l-4.8-42.7c-0.5-5,5.5-8,8.4-8.3c14.1-1.3,28.3,2.5,42.2,0.1l1.3-0.2
			c4.4-0.8,8.4,2.8,8.4,7.6L198.5,93.8z"/>
		<g>
			<g>
				<polygon class="st31" points="221.7,160.7 204.3,106.4 207.7,104.9 225.7,160.7 				"/>
			</g>
			<g>
				<polygon class="st31" points="131.5,160.7 150.5,101.9 153.9,103.4 136.1,160.7 				"/>
			</g>
			<path class="st31" d="M144,91.9l49.3,0.8c4.3,0,8.1,2.6,8.1,7.4v2.5c0,4.8-3.5,8.6-7.7,8.6h-49.8c-4.3,0-7.7-3.9-7.7-8.6v-2.5
				C136.2,95.4,139.7,91.9,144,91.9z"/>
			<g>
				<polygon class="st31" points="143,160.7 162,104.2 165.4,105.6 147.1,160.7 				"/>
			</g>
			<g>
				<polygon class="st31" points="229.6,160.7 211.5,105.2 215,103.8 233.5,160.7 				"/>
			</g>
			<path class="st32" d="M158.4,91.5c0,0,21.6,1,28.9,1c7.5,0,28.1-2.5,28.1-2.5c5.1,0,11.3,5.4,11.3,10.2v2.5
				c0,4.8-4.1,8.6-9.2,8.6h-59.2c-5.1,0-9.2-3.9-9.2-8.6v-2.5C149.2,95.4,153.3,91.5,158.4,91.5z"/>
		</g>
	</g>
	<g>
		<polygon class="st33" points="175.6,150.9 171.8,158 162,158 164.3,148.6 		"/>
		<g>
			<g>
				<path class="st34" d="M201.7,172.7c0,0-3.5,9.2-0.8,10.6c2.7,1.4,12.5,3,16.4,5s11.9,1.8,15,0.5s3.3-3.6,0.7-5.4
					c-2.6-1.8-4.2-1.4-10.7-6.2s-10.1-10.4-10.1-10.4L201.7,172.7z"/>
				<path class="st34" d="M225.5,189.7L225.5,189.7c-3.4,0-6.4-0.5-8.2-1.5c-2.1-1.1-6-2.1-9.5-2.9c-2.9-0.7-5.7-1.4-6.9-2.1
					c-2.8-1.4,0.6-10.3,0.7-10.6l0,0l0,0l10.6-5.9v0.1c0,0.1,3.6,5.6,10,10.3c4.2,3.1,6.3,4,8,4.7c0.9,0.4,1.8,0.8,2.7,1.4
					c1.3,0.9,2,1.9,1.9,2.9s-1,2-2.5,2.6C230.9,189.3,228.2,189.7,225.5,189.7z M201.7,172.7c-0.2,0.5-3.4,9.2-0.8,10.4
					c1.2,0.6,4,1.3,6.9,2c3.5,0.9,7.4,1.9,9.5,2.9c1.8,0.9,4.8,1.4,8.2,1.4c2.7,0,5.3-0.4,6.8-1s2.4-1.5,2.5-2.5s-0.5-1.9-1.8-2.8
					c-0.9-0.6-1.8-1-2.7-1.4c-1.7-0.8-3.8-1.7-8-4.8c-6.1-4.5-9.6-9.7-10-10.3L201.7,172.7z"/>
			</g>
			<path class="st35" d="M137.8,36.8c0,0-3.3-0.7-5.4,0.8c-2.1,1.6-3.6,7.4-5.3,9.7c-1.8,2.2-2.7,2.5-2.6,6s-3.8,25.7-2,28.8
				s13.6-1.4,13.6-1.4l35-16.9c0,0,18.5,0.4,20.5,1.8s2.9,2.6,1.7,4.9c-1.3,2.3-5.5,9.1-5.5,9.1s-5.5,4.9-2.7,6.2c2.8,1.3,0,6,0,6
				s12.2-5.1,12.4-6.6s10-16.5,9-21.2s-4.6-6.5-9.8-12.9c-5.2-6.3-8.9-8.8-9-10.1c0-1.3-0.8-2.8-3.8-3.6s-6.6-0.4-6.6-0.4
				s-10-3.1-10.6-3.7c-0.6-0.5-4.3-3.8-4.3-3.8l-20,4.2C142.4,33.9,140,37.4,137.8,36.8z"/>
			<path class="st33" d="M162.7,23.5c0,0,2.1-0.7,2.8,0c0.8,0.7,0.4,2-0.4,3.5c-0.8,1.5-1.2,4.2-2.1,4.6c-0.9,0.4-1,0.4-1.3,2.6
				s-0.4,4.7-2.7,6.5c-2.2,1.7-3.5,6.5-7.8,5.6c-4.3-1-5.6-6.7-7.6-8.5c-2.1-1.8-0.9-6.2-2-6.4c-1.1-0.2-1.3-2.6-1.7-4
				s-1.2-3.4-0.8-3.9c0.3-0.5,1.5-0.4,1.5-0.4l1.7-5.8l15.6-2.5l3-0.9L162.7,23.5z"/>
			<g>
				<path class="st34" d="M140.4,23.6c0,0-1.2-7.2,0-11.4s4.2-5.7,7.1-5.6c2.9,0.1,3.7-1.6,9.8,0.3c6.2,1.9,6.2,6.7,6.6,9.4
					c0.4,2.6,0.2,7-0.9,8.4c-1.1,1.4-1.5,3.6-1.5,3.6s0.1-4.1-1.2-4c-1.4,0.1,1.4-3.4,0.1-5.1c-1.3-1.7-0.9-2.6-0.9-2.6
					s-3.9,4.6-7.5,4.5c-3.7-0.1-5.1-1.8-6.6-1.4s-3.2-1.5-3.4-0.4c-0.2,1.2,0.2,6.5-0.5,6.6C140.7,26,140.4,23.6,140.4,23.6z"/>
				<path class="st34" d="M161.6,28.3h-0.1c0,0,0.1-2.9-0.7-3.8c-0.1-0.1-0.3-0.2-0.4-0.2l0,0c-0.2,0-0.3,0-0.4-0.1
					c-0.2-0.3,0-0.8,0.2-1.6c0.4-1.1,0.9-2.5,0.2-3.4c-0.9-1.2-1-1.9-1-2.3c-0.8,0.9-4.1,4.3-7.2,4.3c-0.1,0-0.1,0-0.2,0
					c-2-0.1-3.3-0.6-4.3-1c-0.7-0.3-1.3-0.5-1.8-0.5c-0.2,0-0.3,0-0.4,0.1c-0.1,0-0.3,0-0.4,0c-0.6,0-1.2-0.3-1.7-0.5
					c-0.4-0.2-0.7-0.3-0.9-0.3c-0.1,0-0.3,0-0.3,0.3c-0.1,0.4-0.1,1.4-0.1,2.4c0,2.4,0,4.2-0.5,4.3h-0.1c-0.7,0-1-2.2-1-2.4
					c0-0.1-1.2-7.2,0-11.4c1.5-5.1,5.4-5.7,7-5.7c0.1,0,0.1,0,0.2,0c0.9,0,1.6-0.1,2.3-0.3c0.7-0.2,1.5-0.3,2.5-0.3
					c1.4,0,3,0.3,5,0.9c5.6,1.7,6.1,5.8,6.5,8.6c0,0.3,0.1,0.6,0.1,0.9c0.4,2.5,0.3,7-0.9,8.5C162,26.1,161.6,28.2,161.6,28.3z
					 M160.3,24.1c0.2,0,0.4,0.1,0.5,0.2c0.6,0.6,0.7,2.3,0.7,3.2c0.2-0.8,0.6-2,1.3-3c1.1-1.3,1.3-5.6,0.9-8.4
					c0-0.3-0.1-0.6-0.1-0.9c-0.4-2.7-0.9-6.8-6.4-8.5c-2-0.6-3.6-0.9-4.9-0.9c-1,0-1.8,0.2-2.5,0.3c-0.7,0.2-1.4,0.3-2.3,0.3
					c-0.1,0-0.1,0-0.2,0c-1.6,0-5.3,0.5-6.8,5.6c-1.2,4.1,0,11.3,0,11.3c0.1,0.6,0.4,2.3,0.9,2.3l0,0c0.4-0.1,0.4-2.5,0.4-4.1
					c0-1.1,0-2,0.1-2.4c0.1-0.3,0.2-0.4,0.5-0.4s0.6,0.1,1,0.3c0.5,0.2,1.1,0.5,1.7,0.5c0.1,0,0.3,0,0.4,0c0.2,0,0.3-0.1,0.5-0.1
					c0.6,0,1.1,0.2,1.9,0.5c1,0.4,2.3,0.9,4.3,1c0.1,0,0.1,0,0.2,0c3.5,0,7.3-4.4,7.3-4.4l0.4-0.5l-0.3,0.6c0,0-0.4,0.9,0.9,2.5
					c0.7,0.9,0.3,2.4-0.1,3.5C160.4,23.3,160.2,23.8,160.3,24.1C160.1,24.1,160.2,24.1,160.3,24.1L160.3,24.1z"/>
			</g>
			<path class="st36" d="M163,30.2c0,0,2,0.5,3,4.2c0.9,3.6,0.7,23.4,0.7,23.4l13.9-0.7c0,0-0.3-6.4-1-9.5
				c-0.7-3.2-0.1-10.8-0.1-10.8S166.4,34.1,163,30.2z"/>
			<path class="st36" d="M136.8,36.6c0,0,0.6,2.8,1,9.9s0.8,12.1,1.5,12.2c0.7,0.1,14-1,14-1s-1.5-5.2-5.2-10.5s-7.2-12.8-6.6-13.3
				c0.6-0.5-0.3,1.5-1.7,1.9C138.4,36.2,136.8,36.6,136.8,36.6z"/>
			<path class="st37" d="M190.9,105.5c0,0-0.4,3.2,0,8.7s23.5,52.6,23.5,52.6s-14.5,8-15.9,8s2-3.3-2.1-8.4
				c-4-5.1-22.6-40.6-23-43.4s3.5-17.9,3.5-17.9L190.9,105.5z"/>
			<g>
				<path class="st34" d="M171.8,158c0,0,1.9,6.2,4.6,7.7c2.7,1.6,2.7,6.7,2.7,6.7s-14.1,1.3-15.4,0c-1.4-1.3-3.3-10.8-3.3-13.5
					c0-2.6,3.5-3.5,6.7-3.8C170.3,154.9,171.8,158,171.8,158z"/>
				<path class="st34" d="M168.3,173.1c-2.7,0-4.2-0.2-4.7-0.6c-1.4-1.3-3.3-10.9-3.3-13.5c0-2.2,2.3-3.5,6.8-3.9c0.1,0,0.3,0,0.4,0
					c2.9,0,4.3,2.9,4.3,2.9c0,0.1,1.9,6.2,4.6,7.7c2.7,1.6,2.8,6.6,2.8,6.8v0.1h-0.1C179,172.5,172.8,173.1,168.3,173.1z
					 M167.5,155.2c-0.1,0-0.3,0-0.4,0c-4.4,0.4-6.7,1.7-6.7,3.7c0,2.6,1.9,12.2,3.3,13.4c0.3,0.2,1.3,0.5,4.6,0.5
					c4.3,0,10.1-0.5,10.7-0.6c0-0.6-0.2-5.2-2.7-6.6c-2.7-1.6-4.5-7.5-4.6-7.8C171.7,158,170.4,155.2,167.5,155.2z"/>
			</g>
			<path class="st38" d="M185.1,105.4c0,0-4.7,19.6-5.4,25.8s-1.5,7.6-1.6,12.1s0.5,8.8,0,8.8s-8.3,0.5-8.3,0.5s-6.2,0.5-7.4-1.3
				c-1.3-1.7,1.3-45,1.3-45L185.1,105.4z"/>
		</g>
	</g>
	<g>
		<g>
			<polygon class="st31" points="13.8,173.9 32.7,120.2 29.1,118.8 9.7,173.9 			"/>
		</g>
		<g>
			<polygon class="st31" points="34.4,173.9 53.4,120.5 49.7,119.1 30.3,173.9 			"/>
		</g>
		<g>
			<polygon class="st31" points="107,174 87.1,120.1 83.4,121.4 102.9,174 			"/>
		</g>
		<path class="st31" d="M97,110.3H46.8c-4.4,0-8,3.6-8,8v2.6c0,4.4,3.6,8,8,8H97c4.4,0,8-3.6,8-8v-2.6
			C105,113.9,101.4,110.3,97,110.3z"/>
		<g>
			<polygon class="st31" points="92.1,173.9 72.2,119.9 68.5,121.2 88,173.9 			"/>
		</g>
		<path class="st32" d="M58.7,111.8h-7.2l-18.9-52c-0.7-2-2.6-3.3-4.6-3.3L5.4,56.2c-3.5,0-6.7,4.9-4.8,11.3L15,110.2l0,0l4,12.8
			l42.4,0.4L58.7,111.8z"/>
		<path class="st31" d="M66.6,112.3l-36.8-0.1l-17-49.1c-1.2-3.4,1.3-6.9,4.8-6.8l24.5,0.2c2.1,0,3.9,1.3,4.6,3.3L66.6,112.3z"/>
		<path class="st32" d="M82.8,111.3c0,0-22.9,0.3-29.3,0.3c-6.7,0-24.7-2.8-24.7-2.8c-4.5,0-10,5.2-10,9.7v2.4
			c0,4.6,3.6,8.3,8.1,8.3h52.3c4.5,0,8.1-3.7,8.1-8.3v-2.4C87.2,114,87.2,111.3,82.8,111.3z"/>
	</g>
	<g>
		<polygon class="st39" points="256,105.5 256.8,178.3 259.2,178.2 263.2,104.2 		"/>
		<polygon class="st39" points="140.3,105.8 140.2,178.6 137.3,178.5 131.6,104.4 		"/>
		<polygon class="st39" points="128.3,105 131.6,178.4 128.8,178.4 119.5,104.2 		"/>
		<polygon class="st39" points="266,105 263.2,178.4 266.3,178.4 273.3,104.2 		"/>
		<path class="st40" d="M280,107H111.8v-2.9c0-7.8,6.3-14.1,14.1-14.1h140c7.8,0,14.1,6.3,14.1,14.1V107z"/>
	</g>
	<g>
		<g>
			<path class="st41" d="M207.1,88.8l-0.7-1.1c2.2-1.4,3.4-3.8,3.7-5.5c0-0.1,0-0.3,0.1-0.4c0.1-0.5-0.5-0.8-0.9-0.5
				c-0.6,0.5-1.2,1.2-1.4,1.7l-1.1-0.7c0,0,0.4-0.7,1-1.3c0.8-0.9,1.6-1.4,2.4-1.5c0.6,0,1,0.3,1.2,0.9c0.3,0.9,0,2.5-0.6,4
				C209.9,86.3,208.7,87.8,207.1,88.8z"/>
			<path class="st42" d="M210.7,84.5c-0.8,1.8-2.1,3.3-3.6,4.2l-0.6-1l0,0c2.2-1.4,3.4-3.8,3.7-5.5c0-0.1,0-0.3,0.1-0.4
				c0.1-0.5-0.5-0.8-0.9-0.5c-0.6,0.5-1.2,1.2-1.4,1.7l-1.1-0.7c0,0,0.4-0.7,1-1.3c0.8-0.9,1.6-1.4,2.4-1.5c0.2,0,0.3,0,0.5,0.1
				c0.3,0.1,0.6,0.4,0.7,0.9C211.6,81.4,211.4,83,210.7,84.5z"/>
			<path class="st42" d="M208.8,79.4l-1.6,10.8c0,0.5-2,1.5-4.4,1.5c-1.2,0-2.2-0.3-3-0.6c-0.7-0.3-1.2-0.7-1.2-0.9l-1.2-10.8H208.8
				z"/>
			<path class="st43" d="M207.2,90.2l1.6-10.8h-1c-0.7,2.8-2.4,8.9-4.4,10c-1.4,0.8-3.3,1-4.7,1c0.1,0.2,0.5,0.5,1.1,0.8
				c0.7,0.3,1.8,0.6,3,0.6C205.1,91.8,207.2,90.7,207.2,90.2z"/>
			<path class="st44" d="M208.8,79.4c0,0.1-0.1,0.2-0.3,0.2c-0.7,0.3-2.9,0.6-5.4,0.6c-0.3,0-0.6,0-0.9,0c-2.1,0-3.8-0.3-4.5-0.6
				c-0.2-0.1-0.3-0.2-0.3-0.3c0-0.4,2-0.8,4.6-0.8c0.3,0,0.7,0,1.1,0C206.2,78.6,208.8,78.9,208.8,79.4z"/>
			<path class="st45" d="M208.5,79.6c-0.7,0.3-2.9,0.6-5.4,0.6c-0.3,0-0.6,0-0.9,0c-2.1,0-3.8-0.3-4.5-0.5c0.6-0.3,2.3-0.5,4.4-0.5
				c0.3,0,0.7,0,1.1,0C205.6,79.1,207.7,79.3,208.5,79.6z"/>
			<path class="st44" d="M202.2,80.2c-2.7-0.1-4.8-0.4-4.8-0.8s2-0.8,4.6-0.8C202,79.1,202.1,79.7,202.2,80.2z"/>
			<path class="st46" d="M203.1,78.6c-3.1,0-5.7,0.4-5.7,0.8c0,0.5,2.5,0.8,5.7,0.8c3.1,0,5.7-0.4,5.7-0.8
				C208.8,78.9,206.2,78.6,203.1,78.6z M208.3,79.5c-0.2,0.1-0.6,0.2-1.4,0.3c-1,0.1-2.4,0.2-3.8,0.2c-1.4,0-2.7-0.1-3.8-0.2
				c-0.8-0.1-1.3-0.2-1.5-0.3c-0.1,0-0.1-0.1,0-0.2c0.2-0.1,0.6-0.2,1.5-0.3c1-0.1,2.4-0.2,3.8-0.2c1.4,0,2.7,0.1,3.8,0.2
				c0.8,0.1,1.2,0.2,1.4,0.3C208.4,79.3,208.4,79.5,208.3,79.5z"/>
			<path class="st47" d="M207.1,83.8c-0.2-0.3-0.7-0.4-0.9-0.7c-0.7-1.1,1.7-2.3,0.6-3.3c-0.2-0.2-0.5-0.2-0.8,0v0.1
				c0.1,0,0.1,0,0.2,0c0.3-0.1,0.5-0.1,0.7,0.1c0.4,0.5,0,1-0.3,1.5c-0.2,0.4-0.5,0.7-0.5,1.2c0,1,0.9,0.8,1.1,1.5
				c0.1,0.3-0.1,0.8-0.2,1c0,0.1,0.1,0.2,0.1,0.1C207.3,84.8,207.4,84.2,207.1,83.8z"/>
			<g>
				<path class="st48" d="M206,88c1.1-0.1,2.2-0.3,3.2-0.8c-0.4-0.8-0.7-1.5-1.1-2.3H208c-0.6,0.3-1.3,0.5-1.9,0.5
					c0,0.1,0,0.1-0.1,0.1C205.9,86.3,206,87.2,206,88z"/>
			</g>
		</g>
	</g>
</g>
</svg>
