<?xml version="1.0" encoding="utf-8"?>
<!-- Generator: Adobe Illustrator 25.3.1, SVG Export Plug-In . SVG Version: 6.00 Build 0)  -->
<svg version="1.1" id="圖層_1" xmlns="http://www.w3.org/2000/svg" xmlns:xlink="http://www.w3.org/1999/xlink" x="0px" y="0px"
	 viewBox="0 0 100 200" style="enable-background:new 0 0 100 200;" xml:space="preserve">
<style type="text/css">
	.st0{fill:#C39C7C;}
	.st1{fill:#D7AD89;}
	.st2{fill:#CB141D;}
	.st3{fill:#9A8EB1;}
	.st4{fill:#AFA0C4;}
	.st5{fill:#040000;}
	.st6{fill:#BD8287;}
</style>
<g>
	<path class="st0" d="M46.9,153.4c0,0-0.9,6.9-3.1,8.1s-5,2.4-5,2.4s1,8.4,2.2,11.7c1,3.3-0.7,5.7-0.7,5.7l5.1,7.8l2.6-1.5
		c0,0,1.3-8.4,3.2-12.7c1.8-4.3,7.7-20,7.3-21.5C58,151.8,47.9,151.3,46.9,153.4z"/>
	<path class="st1" d="M69.6,149.6c0,0-1.4,12.3-0.7,20.1c0.7,7.9-1.5,15.5,0.3,18.1c1.8,2.6-3.8,3.8-3.8,3.8l-9.1-2.7
		c0,0-1.1-12-2.5-14.6c-1.2-2.6,1.1-9.1,2.5-11.3c1.3-2.3,1.6-8,1.6-8S69.1,147.9,69.6,149.6z"/>
	<path class="st2" d="M40.5,162.5c0,0-4.7,1.1-6.3,4.2c-1.5,3-1,4.3-1.6,6.4c-0.6,2.1-4.6,10.8-4.6,10.8l0.8,0.8
		c0,0,4.4-10.7,5.9-11.1c1.3-0.4,3.1,3.3,3.4,6.4c0.3,3-0.7,7,0.2,8.8c0.9,1.8,13.8,7.6,14.2,7.4c0.4-0.2,1-4.4-1.2-6.4
		c-2.3-2.1-7-4.4-8.9-6.4c-2-2-2.9-7.9-2.5-13.3C40.1,164.5,40.5,162.5,40.5,162.5z"/>
	<path class="st2" d="M54.1,167.2c0,0,0.1,12.2,2.5,17.6s9,4.5,10.9,4c1.8-0.6,1.5-2.1,1.5-2.1s3.7,4.4,4.4,6.5s0.5,3.7-2.8,3.9
		c-3.3,0.1-12.9-0.4-14.6-4.3c-1.6-4-0.3-8.6-1.7-12.2c-1.4-3.6-0.4-0.8-0.4-0.8l-0.9,9l-1.5-0.2c0,0,1-11.4,0-13.1
		C50.5,173.6,52.5,166.9,54.1,167.2z"/>
	<path class="st3" d="M28.8,118.2c0,0,15.8,5,24.2,6.1c8.4,1,8.6,0,8.6,0s-5.6,3.6-7,9.6c-1.3,6.2-8.5,21.4-8.5,21.4
		s3.1-2.3,6.6-2.1c3.5,0.3,5.3,2.1,5.3,2.1s20.8-23.9,24.2-31.2s0.7-12.5-1-13.3c-1.8-0.8-20-4.6-20-4.6L28.8,118.2z"/>
	<path class="st4" d="M2.8,89.6c0,0-4.4,15.9,2.3,24.7s35.8,4.6,42.9,3.7c7.1-0.8,12-2.1,14.4-4.4c2.4-2.4,2.4-2.4,2.4-2.4
		s-3.3,2.9-4.7,9.4c-1.4,6.6-2.3,35-2.3,35s6.9-3.8,10-4.3c3.1-0.5,1.7,2.1,1.7,2.1l13-44.3c0,0,2.4-9-5.3-11.5
		c-7.7-2.5-42.3-3.5-42.3-3.5S4.7,85.8,2.8,89.6z"/>
	<path class="st0" d="M47.8,74.8c0,0,3.6,1.2,9.5,2.8c6,1.5,9.3,5.9,9.3,5.9l-12.4-0.8c0,0-10.4-0.7-10.4-0.9S43.7,77,43.7,77
		L47.8,74.8z"/>
	<path class="st0" d="M55.4,38.7c0,0-5.9,5.6-5.7,8.1s-1.3,4.6-1.3,4.6l-7.6-16.2l-1.7-4L44,20l5.1,6.2L55.4,38.7z"/>
	<path class="st1" d="M70.3,14.4c0,0-1.3,10-1.8,11.3c-0.6,1.3-1.1,0.8-0.9,2.4c0.1,1.5-0.2,3.5-1.5,4.6c-1.3,1.1-3.1,2.6-3.4,4.6
		c-0.3,2.1-0.4,4.7-3.3,4.3c-2.9-0.4-7.2-1.7-10.2-6.8C47.3,31.8,48,28,48,28s-2.3,0.3-2.8-1.7c-0.4-2.1-2.5-4.1,0-5.5
		c2.5-1.4,23.2-8.1,23.2-8.1L70.3,14.4z"/>
	<path class="st5" d="M69.4,17.6c0,0,4.2-0.9,4-3.8c-0.3-2.9-2.8-3.5-3-5.5c-0.2-2.1-4.6-1.3-6.8-3c-2.2-1.7-7.8-3.6-13-1.3
		S42,9.7,39.2,16.9c-2.8,7-15.4,20.8-14.3,23.5c1.1,2.7,2-2.9,6.2-4.7c4.2-1.8,10-1.8,11.4-5.4c1.5-3.7-0.6-7.7,4.7-8.2
		c5.3-0.5,6.7-0.9,6.8-2.1c0.1-1.1,4.2,1.3,8.5-2.3C66.9,14.1,71.4,14.4,69.4,17.6z"/>
	<path class="st6" d="M52.7,42.8c0,0,1.5,23.5,0.9,26.8c-0.6,3.3-6.5,6.6-9,8.3c-2.6,1.8-6.8,9.1-6.4,12.2c0.4,3.1,0,4.5,0,4.5
		s-11,0.2-12.2-0.5c-1.3-0.8-5.7-0.3-8.8,0.6c-3.1,0.9-7.7,0.3-8.3,0.9S2.7,91,2,92.3c-0.8,1.3-2.2-1.2-2-2.4
		c0.2-1.1,4.2-2.1,5.4-6.8c1.2-4.7,8.7-24.4,14.3-33.4c5.4-8.9,8.1-13.1,10.9-14.7c2.8-1.5,8.7-3,10.1-1.5
		c1.3,1.4,5.6,15.8,7.5,15.8C50,49.4,49.3,43.5,52.7,42.8z"/>
	<path class="st0" d="M30.5,59.7c0,0-7.1-5.3-7.4-10.5c-0.4-5.1,3.4-7.1,4.9-8.8s4.2-5,9.9-4.1s5.4,6.6,6.6,11.6s2.2,10.2,0,12.5
		C42.2,62.7,35.8,63.3,30.5,59.7z"/>
	<path class="st1" d="M52.2,91.2c-11.4,0.9-12.8,3.5-15.7-4.8c-2.8-8.3-6.2-20.6-5.7-28.1c0.4-7.6-2.6-9.1-2-14.3
		c0,0,3.1-6.5,9.5-5.4c6.5,1,4.5,10.1,4.9,17.5c0.4,7.4,3,22.9,3.1,24s3.9,2.2,9.9,2.8"/>
	<path class="st1" d="M43.8,92.3c0,0,21.2-3.7,23.6-1.3c2.4,2.3,5.3,0.3,9.9-1c4.5-1.3,8.8-2.3,11.1-0.9c2.3,1.2,3.1,3.6,4.3,2.5
		c1.3-1.1-3.4-3.7-2-4.2c1.3-0.5,3.8,3.2,5.3,2.3s-2.8-2-2.4-3.2c0.4-1.2,5.5-2.7,6.3-3s-2.8-1-7.3-0.6c-4.6,0.5-8.6,0.8-15.3,1.1
		c-6.7,0.3-13.6-1.2-21.6-2.3c-8-0.9-13.1-3.1-16.8-1C35,82.6,43.8,92.3,43.8,92.3z"/>
</g>
</svg>
