<?xml version="1.0" encoding="utf-8"?>
<!-- Generator: Adobe Illustrator 25.3.1, SVG Export Plug-In . SVG Version: 6.00 Build 0)  -->
<svg version="1.1" id="圖層_1" xmlns="http://www.w3.org/2000/svg" xmlns:xlink="http://www.w3.org/1999/xlink" x="0px" y="0px"
	 viewBox="0 0 300 90" style="enable-background:new 0 0 300 90;" xml:space="preserve">
<style type="text/css">
	.st0{filter:url(#Adobe_OpacityMaskFilter);}
	.st1{filter:url(#Adobe_OpacityMaskFilter_1_);}
	.st2{mask:url(#SVGID_1_);fill:url(#SVGID_2_);}
	.st3{opacity:0.13;fill:url(#SVGID_3_);}
	.st4{filter:url(#Adobe_OpacityMaskFilter_2_);}
	.st5{filter:url(#Adobe_OpacityMaskFilter_3_);}
	.st6{mask:url(#SVGID_4_);fill:url(#SVGID_5_);}
	.st7{opacity:0.13;fill:url(#SVGID_6_);}
	.st8{filter:url(#Adobe_OpacityMaskFilter_4_);}
	.st9{filter:url(#Adobe_OpacityMaskFilter_5_);}
	.st10{mask:url(#SVGID_7_);fill:url(#SVGID_8_);}
	.st11{opacity:0.13;fill:url(#SVGID_9_);}
	.st12{filter:url(#Adobe_OpacityMaskFilter_6_);}
	.st13{filter:url(#Adobe_OpacityMaskFilter_7_);}
	.st14{mask:url(#SVGID_10_);fill:url(#SVGID_11_);}
	.st15{opacity:0.13;fill:url(#SVGID_12_);}
</style>
<g>
	<defs>
		<filter id="Adobe_OpacityMaskFilter" filterUnits="userSpaceOnUse" x="47.1" y="0" width="39.6" height="89.7">
			<feFlood  style="flood-color:white;flood-opacity:1" result="back"/>
			<feBlend  in="SourceGraphic" in2="back" mode="normal"/>
		</filter>
	</defs>
	<mask maskUnits="userSpaceOnUse" x="47.1" y="0" width="39.6" height="89.7" id="SVGID_1_">
		<g class="st0">
			<defs>
				<filter id="Adobe_OpacityMaskFilter_1_" filterUnits="userSpaceOnUse" x="47.1" y="0" width="39.6" height="89.7">
					<feFlood  style="flood-color:white;flood-opacity:1" result="back"/>
					<feBlend  in="SourceGraphic" in2="back" mode="normal"/>
				</filter>
			</defs>
			<mask maskUnits="userSpaceOnUse" x="47.1" y="0" width="39.6" height="89.7" id="SVGID_1_">
				<g class="st1">
				</g>
			</mask>
			<linearGradient id="SVGID_2_" gradientUnits="userSpaceOnUse" x1="66.857" y1="1.8615" x2="65.6021" y2="92.2202">
				<stop  offset="8.000000e-08" style="stop-color:#808080"/>
				<stop  offset="0.2237" style="stop-color:#979797"/>
				<stop  offset="0.6926" style="stop-color:#D4D4D4"/>
				<stop  offset="1" style="stop-color:#FFFFFF"/>
			</linearGradient>
			<path class="st2" d="M82.9,86.3L82.9,86.3l-0.1-1.1c0-0.4-0.3-0.7-0.7-0.7h-1.2l5.8-83c0-0.6-0.3-1.2-0.9-1.3c0,0-0.1,0-0.1,0
				c-0.5,0-0.9,0.5-0.9,1.1l-1.6,23.3h-6.3l1.6-23.1c0-0.6-0.3-1.2-0.9-1.3c0,0-0.1,0-0.1,0c-0.5,0-0.9,0.5-0.9,1.1l-1.6,23.3h-15
				L58.2,1.1c0-0.6-0.5-1.1-0.9-1.1c0,0-0.1,0-0.1,0c-0.5,0.1-0.9,0.6-0.9,1.3l1.6,23.4h-7L49,1.1c-0.1-0.6-0.5-1.1-0.9-1.1
				c0,0-0.1,0-0.1,0c-0.5,0.1-0.9,0.6-0.8,1.3L54,84.5c-0.3,0.1-0.6,0.4-0.6,0.7v1.1c-0.5,0.1-0.8,0.5-0.8,0.9v1.5c0,0.5,0.4,1,1,1
				h29.3c0.5,0,1-0.4,1-1v-1.5C83.8,86.7,83.4,86.3,82.9,86.3z M64,84.5l-3.8-54.2h14.2l-3.8,54.2H64z M62.1,84.5h-6.2l-4.5-54.2
				h6.9L62.1,84.5z M72.6,84.5l3.8-54.2h6.3l-3.8,54.2H72.6z M82.9,27l-0.1,1h-6.3l0.1-1H82.9z M74.7,27l-0.1,1H60.1L60,27H74.7z
				 M58.1,27l0.1,1h-6.9l-0.1-1H58.1z"/>
		</g>
	</mask>
	<linearGradient id="SVGID_3_" gradientUnits="userSpaceOnUse" x1="66.857" y1="1.8615" x2="65.6021" y2="92.2202">
		<stop  offset="8.000000e-08" style="stop-color:#2B2D1A"/>
		<stop  offset="0.1461" style="stop-color:#424332"/>
		<stop  offset="0.4549" style="stop-color:#7C7C6F"/>
		<stop  offset="0.8979" style="stop-color:#D8D5D1"/>
		<stop  offset="1" style="stop-color:#EEEBE8"/>
	</linearGradient>
	<path class="st3" d="M82.9,86.3L82.9,86.3l-0.1-1.1c0-0.4-0.3-0.7-0.7-0.7h-1.2l5.8-83c0-0.6-0.3-1.2-0.9-1.3c0,0-0.1,0-0.1,0
		c-0.5,0-0.9,0.5-0.9,1.1l-1.6,23.3h-6.3l1.6-23.1c0-0.6-0.3-1.2-0.9-1.3c0,0-0.1,0-0.1,0c-0.5,0-0.9,0.5-0.9,1.1l-1.6,23.3h-15
		L58.2,1.1c0-0.6-0.5-1.1-0.9-1.1c0,0-0.1,0-0.1,0c-0.5,0.1-0.9,0.6-0.9,1.3l1.6,23.4h-7L49,1.1c-0.1-0.6-0.5-1.1-0.9-1.1
		c0,0-0.1,0-0.1,0c-0.5,0.1-0.9,0.6-0.8,1.3L54,84.5c-0.3,0.1-0.6,0.4-0.6,0.7v1.1c-0.5,0.1-0.8,0.5-0.8,0.9v1.5c0,0.5,0.4,1,1,1
		h29.3c0.5,0,1-0.4,1-1v-1.5C83.8,86.7,83.4,86.3,82.9,86.3z M64,84.5l-3.8-54.2h14.2l-3.8,54.2H64z M62.1,84.5h-6.2l-4.5-54.2h6.9
		L62.1,84.5z M72.6,84.5l3.8-54.2h6.3l-3.8,54.2H72.6z M82.9,27l-0.1,1h-6.3l0.1-1H82.9z M74.7,27l-0.1,1H60.1L60,27H74.7z M58.1,27
		l0.1,1h-6.9l-0.1-1H58.1z"/>
	<defs>
		<filter id="Adobe_OpacityMaskFilter_2_" filterUnits="userSpaceOnUse" x="98.3" y="0" width="39.6" height="89.7">
			<feFlood  style="flood-color:white;flood-opacity:1" result="back"/>
			<feBlend  in="SourceGraphic" in2="back" mode="normal"/>
		</filter>
	</defs>
	<mask maskUnits="userSpaceOnUse" x="98.3" y="0" width="39.6" height="89.7" id="SVGID_4_">
		<g class="st4">
			<defs>
				<filter id="Adobe_OpacityMaskFilter_3_" filterUnits="userSpaceOnUse" x="98.3" y="0" width="39.6" height="89.7">
					<feFlood  style="flood-color:white;flood-opacity:1" result="back"/>
					<feBlend  in="SourceGraphic" in2="back" mode="normal"/>
				</filter>
			</defs>
			<mask maskUnits="userSpaceOnUse" x="98.3" y="0" width="39.6" height="89.7" id="SVGID_4_">
				<g class="st5">
				</g>
			</mask>
			<linearGradient id="SVGID_5_" gradientUnits="userSpaceOnUse" x1="118.0997" y1="1.8614" x2="116.8448" y2="92.2202">
				<stop  offset="8.000000e-08" style="stop-color:#808080"/>
				<stop  offset="0.2237" style="stop-color:#979797"/>
				<stop  offset="0.6926" style="stop-color:#D4D4D4"/>
				<stop  offset="1" style="stop-color:#FFFFFF"/>
			</linearGradient>
			<path class="st6" d="M134.1,86.3L134.1,86.3l-0.1-1.1c0-0.4-0.3-0.7-0.7-0.7h-1.2l5.8-83c0-0.6-0.3-1.2-0.9-1.3c0,0-0.1,0-0.1,0
				c-0.5,0-0.9,0.5-0.9,1.1l-1.6,23.3H128l1.6-23.1c0-0.6-0.3-1.2-0.9-1.3c0,0-0.1,0-0.1,0c-0.5,0-0.9,0.5-0.9,1.1l-1.6,23.3h-15
				l-1.7-23.6c0-0.6-0.5-1.1-0.9-1.1c0,0-0.1,0-0.1,0c-0.5,0.1-0.9,0.6-0.9,1.3l1.6,23.4h-7l-2-23.5c-0.1-0.6-0.5-1.1-0.9-1.1
				c0,0-0.1,0-0.1,0c-0.5,0.1-0.9,0.6-0.8,1.3l6.9,83.2c-0.3,0.1-0.6,0.4-0.6,0.7v1.1c-0.5,0.1-0.8,0.5-0.8,0.9v1.5c0,0.5,0.4,1,1,1
				h29.3c0.5,0,1-0.4,1-1v-1.5C135.1,86.7,134.7,86.3,134.1,86.3z M115.3,84.5l-3.8-54.2h14.2l-3.8,54.2H115.3z M113.4,84.5h-6.2
				l-4.5-54.2h6.9L113.4,84.5z M123.8,84.5l3.8-54.2h6.3l-3.8,54.2H123.8z M134.2,27l-0.1,1h-6.3l0.1-1H134.2z M126,27l-0.1,1h-14.6
				l-0.1-1H126z M109.3,27l0.1,1h-6.9l-0.1-1H109.3z"/>
		</g>
	</mask>
	<linearGradient id="SVGID_6_" gradientUnits="userSpaceOnUse" x1="118.0997" y1="1.8614" x2="116.8448" y2="92.2202">
		<stop  offset="8.000000e-08" style="stop-color:#2B2D1A"/>
		<stop  offset="0.1461" style="stop-color:#424332"/>
		<stop  offset="0.4549" style="stop-color:#7C7C6F"/>
		<stop  offset="0.8979" style="stop-color:#D8D5D1"/>
		<stop  offset="1" style="stop-color:#EEEBE8"/>
	</linearGradient>
	<path class="st7" d="M134.1,86.3L134.1,86.3l-0.1-1.1c0-0.4-0.3-0.7-0.7-0.7h-1.2l5.8-83c0-0.6-0.3-1.2-0.9-1.3c0,0-0.1,0-0.1,0
		c-0.5,0-0.9,0.5-0.9,1.1l-1.6,23.3H128l1.6-23.1c0-0.6-0.3-1.2-0.9-1.3c0,0-0.1,0-0.1,0c-0.5,0-0.9,0.5-0.9,1.1l-1.6,23.3h-15
		l-1.7-23.6c0-0.6-0.5-1.1-0.9-1.1c0,0-0.1,0-0.1,0c-0.5,0.1-0.9,0.6-0.9,1.3l1.6,23.4h-7l-2-23.5c-0.1-0.6-0.5-1.1-0.9-1.1
		c0,0-0.1,0-0.1,0c-0.5,0.1-0.9,0.6-0.8,1.3l6.9,83.2c-0.3,0.1-0.6,0.4-0.6,0.7v1.1c-0.5,0.1-0.8,0.5-0.8,0.9v1.5c0,0.5,0.4,1,1,1
		h29.3c0.5,0,1-0.4,1-1v-1.5C135.1,86.7,134.7,86.3,134.1,86.3z M115.3,84.5l-3.8-54.2h14.2l-3.8,54.2H115.3z M113.4,84.5h-6.2
		l-4.5-54.2h6.9L113.4,84.5z M123.8,84.5l3.8-54.2h6.3l-3.8,54.2H123.8z M134.2,27l-0.1,1h-6.3l0.1-1H134.2z M126,27l-0.1,1h-14.6
		l-0.1-1H126z M109.3,27l0.1,1h-6.9l-0.1-1H109.3z"/>
	<defs>
		<filter id="Adobe_OpacityMaskFilter_4_" filterUnits="userSpaceOnUse" x="149.2" y="0" width="39.6" height="89.7">
			<feFlood  style="flood-color:white;flood-opacity:1" result="back"/>
			<feBlend  in="SourceGraphic" in2="back" mode="normal"/>
		</filter>
	</defs>
	<mask maskUnits="userSpaceOnUse" x="149.2" y="0" width="39.6" height="89.7" id="SVGID_7_">
		<g class="st8">
			<defs>
				<filter id="Adobe_OpacityMaskFilter_5_" filterUnits="userSpaceOnUse" x="149.2" y="0" width="39.6" height="89.7">
					<feFlood  style="flood-color:white;flood-opacity:1" result="back"/>
					<feBlend  in="SourceGraphic" in2="back" mode="normal"/>
				</filter>
			</defs>
			<mask maskUnits="userSpaceOnUse" x="149.2" y="0" width="39.6" height="89.7" id="SVGID_7_">
				<g class="st9">
				</g>
			</mask>
			<linearGradient id="SVGID_8_" gradientUnits="userSpaceOnUse" x1="168.9559" y1="1.8615" x2="167.7009" y2="92.2202">
				<stop  offset="8.000000e-08" style="stop-color:#808080"/>
				<stop  offset="0.2237" style="stop-color:#979797"/>
				<stop  offset="0.6926" style="stop-color:#D4D4D4"/>
				<stop  offset="1" style="stop-color:#FFFFFF"/>
			</linearGradient>
			<path class="st10" d="M185,86.3L185,86.3l-0.1-1.1c0-0.4-0.3-0.7-0.7-0.7h-1.2l5.8-83c0-0.6-0.3-1.2-0.9-1.3c0,0-0.1,0-0.1,0
				c-0.5,0-0.9,0.5-0.9,1.1l-1.6,23.3h-6.3l1.6-23.1c0-0.6-0.3-1.2-0.9-1.3c0,0-0.1,0-0.1,0c-0.5,0-0.9,0.5-0.9,1.1L177,24.7h-15
				l-1.7-23.6c0-0.6-0.5-1.1-0.9-1.1c0,0-0.1,0-0.1,0c-0.5,0.1-0.9,0.6-0.9,1.3l1.6,23.4h-7l-2-23.5c-0.1-0.6-0.5-1.1-0.9-1.1
				c0,0-0.1,0-0.1,0c-0.5,0.1-0.9,0.6-0.8,1.3l6.9,83.2c-0.3,0.1-0.6,0.4-0.6,0.7v1.1c-0.5,0.1-0.8,0.5-0.8,0.9v1.5c0,0.5,0.4,1,1,1
				H185c0.5,0,1-0.4,1-1v-1.5C185.9,86.7,185.5,86.3,185,86.3z M166.1,84.5l-3.8-54.2h14.2l-3.8,54.2H166.1z M164.2,84.5H158
				l-4.5-54.2h6.9L164.2,84.5z M174.7,84.5l3.8-54.2h6.3L181,84.5H174.7z M185,27l-0.1,1h-6.3l0.1-1H185z M176.8,27l-0.1,1h-14.6
				l-0.1-1H176.8z M160.2,27l0.1,1h-6.9l-0.1-1H160.2z"/>
		</g>
	</mask>
	<linearGradient id="SVGID_9_" gradientUnits="userSpaceOnUse" x1="168.9559" y1="1.8615" x2="167.7009" y2="92.2202">
		<stop  offset="8.000000e-08" style="stop-color:#2B2D1A"/>
		<stop  offset="0.1461" style="stop-color:#424332"/>
		<stop  offset="0.4549" style="stop-color:#7C7C6F"/>
		<stop  offset="0.8979" style="stop-color:#D8D5D1"/>
		<stop  offset="1" style="stop-color:#EEEBE8"/>
	</linearGradient>
	<path class="st11" d="M185,86.3L185,86.3l-0.1-1.1c0-0.4-0.3-0.7-0.7-0.7h-1.2l5.8-83c0-0.6-0.3-1.2-0.9-1.3c0,0-0.1,0-0.1,0
		c-0.5,0-0.9,0.5-0.9,1.1l-1.6,23.3h-6.3l1.6-23.1c0-0.6-0.3-1.2-0.9-1.3c0,0-0.1,0-0.1,0c-0.5,0-0.9,0.5-0.9,1.1L177,24.7h-15
		l-1.7-23.6c0-0.6-0.5-1.1-0.9-1.1c0,0-0.1,0-0.1,0c-0.5,0.1-0.9,0.6-0.9,1.3l1.6,23.4h-7l-2-23.5c-0.1-0.6-0.5-1.1-0.9-1.1
		c0,0-0.1,0-0.1,0c-0.5,0.1-0.9,0.6-0.8,1.3l6.9,83.2c-0.3,0.1-0.6,0.4-0.6,0.7v1.1c-0.5,0.1-0.8,0.5-0.8,0.9v1.5c0,0.5,0.4,1,1,1
		H185c0.5,0,1-0.4,1-1v-1.5C185.9,86.7,185.5,86.3,185,86.3z M166.1,84.5l-3.8-54.2h14.2l-3.8,54.2H166.1z M164.2,84.5H158
		l-4.5-54.2h6.9L164.2,84.5z M174.7,84.5l3.8-54.2h6.3L181,84.5H174.7z M185,27l-0.1,1h-6.3l0.1-1H185z M176.8,27l-0.1,1h-14.6
		l-0.1-1H176.8z M160.2,27l0.1,1h-6.9l-0.1-1H160.2z"/>
	<defs>
		<filter id="Adobe_OpacityMaskFilter_6_" filterUnits="userSpaceOnUse" x="199.4" y="0" width="39.6" height="89.7">
			<feFlood  style="flood-color:white;flood-opacity:1" result="back"/>
			<feBlend  in="SourceGraphic" in2="back" mode="normal"/>
		</filter>
	</defs>
	<mask maskUnits="userSpaceOnUse" x="199.4" y="0" width="39.6" height="89.7" id="SVGID_10_">
		<g class="st12">
			<defs>
				<filter id="Adobe_OpacityMaskFilter_7_" filterUnits="userSpaceOnUse" x="199.4" y="0" width="39.6" height="89.7">
					<feFlood  style="flood-color:white;flood-opacity:1" result="back"/>
					<feBlend  in="SourceGraphic" in2="back" mode="normal"/>
				</filter>
			</defs>
			<mask maskUnits="userSpaceOnUse" x="199.4" y="0" width="39.6" height="89.7" id="SVGID_10_">
				<g class="st13">
				</g>
			</mask>
			<linearGradient id="SVGID_11_" gradientUnits="userSpaceOnUse" x1="219.2163" y1="1.8615" x2="217.9613" y2="92.2202">
				<stop  offset="8.000000e-08" style="stop-color:#808080"/>
				<stop  offset="0.2237" style="stop-color:#979797"/>
				<stop  offset="0.6926" style="stop-color:#D4D4D4"/>
				<stop  offset="1" style="stop-color:#FFFFFF"/>
			</linearGradient>
			<path class="st14" d="M235.2,86.3L235.2,86.3l-0.1-1.1c0-0.4-0.3-0.7-0.7-0.7h-1.2l5.8-83c0-0.6-0.3-1.2-0.9-1.3c0,0-0.1,0-0.1,0
				c-0.5,0-0.9,0.5-0.9,1.1l-1.6,23.3h-6.3l1.6-23.1c0-0.6-0.3-1.2-0.9-1.3c0,0-0.1,0-0.1,0c-0.5,0-0.9,0.5-0.9,1.1l-1.6,23.3h-15
				l-1.7-23.6c0-0.6-0.5-1.1-0.9-1.1c0,0-0.1,0-0.1,0c-0.5,0.1-0.9,0.6-0.9,1.3l1.6,23.4h-7l-2-23.5c-0.1-0.6-0.5-1.1-0.9-1.1
				c0,0-0.1,0-0.1,0c-0.5,0.1-0.9,0.6-0.8,1.3l6.9,83.2c-0.3,0.1-0.6,0.4-0.6,0.7v1.1c-0.5,0.1-0.8,0.5-0.8,0.9v1.5c0,0.5,0.4,1,1,1
				h29.3c0.5,0,1-0.4,1-1v-1.5C236.2,86.7,235.8,86.3,235.2,86.3z M216.4,84.5l-3.8-54.2h14.2L223,84.5H216.4z M214.5,84.5h-6.2
				l-4.5-54.2h6.9L214.5,84.5z M224.9,84.5l3.8-54.2h6.3l-3.8,54.2H224.9z M235.3,27l-0.1,1h-6.3l0.1-1H235.3z M227.1,27l-0.1,1
				h-14.6l-0.1-1H227.1z M210.5,27l0.1,1h-6.9l-0.1-1H210.5z"/>
		</g>
	</mask>
	<linearGradient id="SVGID_12_" gradientUnits="userSpaceOnUse" x1="219.2163" y1="1.8615" x2="217.9613" y2="92.2202">
		<stop  offset="8.000000e-08" style="stop-color:#2B2D1A"/>
		<stop  offset="0.1461" style="stop-color:#424332"/>
		<stop  offset="0.4549" style="stop-color:#7C7C6F"/>
		<stop  offset="0.8979" style="stop-color:#D8D5D1"/>
		<stop  offset="1" style="stop-color:#EEEBE8"/>
	</linearGradient>
	<path class="st15" d="M235.2,86.3L235.2,86.3l-0.1-1.1c0-0.4-0.3-0.7-0.7-0.7h-1.2l5.8-83c0-0.6-0.3-1.2-0.9-1.3c0,0-0.1,0-0.1,0
		c-0.5,0-0.9,0.5-0.9,1.1l-1.6,23.3h-6.3l1.6-23.1c0-0.6-0.3-1.2-0.9-1.3c0,0-0.1,0-0.1,0c-0.5,0-0.9,0.5-0.9,1.1l-1.6,23.3h-15
		l-1.7-23.6c0-0.6-0.5-1.1-0.9-1.1c0,0-0.1,0-0.1,0c-0.5,0.1-0.9,0.6-0.9,1.3l1.6,23.4h-7l-2-23.5c-0.1-0.6-0.5-1.1-0.9-1.1
		c0,0-0.1,0-0.1,0c-0.5,0.1-0.9,0.6-0.8,1.3l6.9,83.2c-0.3,0.1-0.6,0.4-0.6,0.7v1.1c-0.5,0.1-0.8,0.5-0.8,0.9v1.5c0,0.5,0.4,1,1,1
		h29.3c0.5,0,1-0.4,1-1v-1.5C236.2,86.7,235.8,86.3,235.2,86.3z M216.4,84.5l-3.8-54.2h14.2L223,84.5H216.4z M214.5,84.5h-6.2
		l-4.5-54.2h6.9L214.5,84.5z M224.9,84.5l3.8-54.2h6.3l-3.8,54.2H224.9z M235.3,27l-0.1,1h-6.3l0.1-1H235.3z M227.1,27l-0.1,1h-14.6
		l-0.1-1H227.1z M210.5,27l0.1,1h-6.9l-0.1-1H210.5z"/>
</g>
</svg>
