<?xml version="1.0" encoding="utf-8"?>
<!-- Generator: Adobe Illustrator 25.3.1, SVG Export Plug-In . SVG Version: 6.00 Build 0)  -->
<svg version="1.1" id="圖層_1" xmlns="http://www.w3.org/2000/svg" xmlns:xlink="http://www.w3.org/1999/xlink" x="0px" y="0px"
	 viewBox="0 0 100 240" style="enable-background:new 0 0 100 240;" xml:space="preserve">
<style type="text/css">
	.st0{fill:#2FAEAD;}
	.st1{fill:#404041;}
	.st2{fill:#1D9390;}
	.st3{fill:#5FD3D0;}
	.st4{fill:#FFFFFF;}
	.st5{fill:#29B473;}
	.st6{fill:#209E5F;}
	.st7{fill:#EEC8AF;}
	.st8{fill:#3C2612;}
	.st9{fill:#3DC983;}
	.st10{fill:#D8A082;}
	.st11{fill:#D3D3D3;}
	.st12{fill:#1B2E21;}
	.st13{fill:#E5C18E;}
</style>
<g>
	<g>
		<path class="st0" d="M31.2,189.7c-0.2,5.8,0.2,11.4,1.5,16.4l-0.2,6.2l-4-12.1L31.2,189.7z"/>
		<path class="st1" d="M38.3,113.3l-21.6,76.3c3,1,3.8,3.8,4.1,6.8l6.9,2l23.8-81.2L38.3,113.3z"/>
		<g>
			<path class="st0" d="M22.4,193.2c3.6,0.9,6.2,2.7,7.1,3.9l1.8-7.4c-0.5-4.3-11.4-6.8-13.7-3.5l-3,9.8
				C14.8,194.9,18.2,192.2,22.4,193.2z"/>
			<path class="st2" d="M22.3,192.8c-4.2-1-6.1,0-7.1,1.3c-1.4,1.8-0.4,5.1-0.4,5.1l14.2,1l0.4-3C29.5,196.2,26.7,193.8,22.3,192.8z
				"/>
		</g>
		<g>
			<path class="st1" d="M79.9,129.5l-20,76.4L47,205.3l19.1-74.4l-50.3,0.2c-2.9,0-5.2-2.5-5.1-5.4l0.7-10.3l48.7,0.4h8.2
				C76.3,115.4,81.6,120.6,79.9,129.5z"/>
		</g>
		<g>
			<path class="st2" d="M78.4,209.6c-0.3,0.8-0.6,1.4-0.6,1.4L47,205.5l0.3-1.5L78.4,209.6z"/>
			<path class="st0" d="M64.2,197.2l-1.8-4.8c-0.1-0.2-0.2-0.2-0.3-0.2l-3.8-0.2c-0.2,0-0.4,0.2-0.3,0.5l2.8,6.6L64.2,197.2z"/>
			<g>
				<path class="st3" d="M72.5,202.4c1,0.5,2,0.9,3,1.1c3.8,1.2,3.5,4.2,2.9,6l-9.1-1.6c0.2-1,0.4-2,0.7-2.9
					C70.6,203.5,71.5,202.8,72.5,202.4z"/>
				<path class="st0" d="M47.3,203.9l22,4c0.2-1,0.4-2,0.7-2.9c0.6-1.5,1.5-2.3,2.5-2.6c-5.2-2.5-10.3-7.1-10.3-7.1
					c-1,0.1-2,0.2-2.9,0.2c-0.5,0-1,0-1.4,0c-6-0.3-8-3.1-8-3.1L47.3,203.9z"/>
			</g>
			<path class="st2" d="M58,195.4l3.6,3l-2.2-3C58.9,195.5,58.4,195.5,58,195.4z"/>
			<path class="st4" d="M59.8,205.9l-0.2-3.8c0.4,0.1,0.8,0.2,1.1,0.2l0.2,3.8C60.6,206.1,60.2,206,59.8,205.9z"/>
			<path class="st4" d="M58.6,205.8c-0.3-0.1-0.6-0.2-1-0.2l-0.2-3.9c0.4,0.1,0.8,0.2,1.1,0.2L58.6,205.8
				C58.7,205.8,58.7,205.8,58.6,205.8z"/>
		</g>
		<path class="st5" d="M26.2,103.6l-7.9,6.7l-1.3-1.5l-4.8-5.6L9,99.3l-7.8-9.1c-1.2-1.4-1.5-3.2-1-5L10,57.9l1.6-4.6
			c0-0.2,0.1-0.2,0.2-0.4l9.1,1.7l-1,3.3l-4.2,13.2l-2.9,9l-1.8,5.6l1.7,2l6.1,7.1L26.2,103.6z"/>
		<polygon class="st6" points="18.9,94.8 17,108.8 12.2,103.1 9,99.3 12.4,63.6 15.7,71.1 12.9,80.1 11.1,85.7 12.8,87.7 		"/>
		<path class="st7" d="M34.2,43.3L34.2,43.3c-6.6-0.9-11.1-7.1-10.3-13.6l1.8-12.7c0.9-6.6,7.1-11.2,13.6-10.3l0,0
			c6.6,0.9,11.1,7.1,10.3,13.6L47.7,33C46.8,39.6,40.8,44.2,34.2,43.3z"/>
		<polygon class="st7" points="25.7,48.4 28.1,35.3 37.7,36.1 36.2,48.3 		"/>
		<path class="st8" d="M30.2,41.4c0,0-6.7-3-7.1-11.3c-0.8-13.5,0-24.2,0-24.2S44,5.9,56.2,1.7C50,13.9,39.3,18.9,39.3,18.9
			S42.1,39.7,30.2,41.4z"/>
		<path class="st8" d="M42.3,17.1c0,0,8.8-5,14.3-4.7c-3-0.6-9.9,0-11.2,0.4C44,13.2,42.3,17.1,42.3,17.1z"/>
		<path class="st8" d="M48.1,11c0,0,4.5-2,6.8-5.3c-0.6,2.3-3.7,5.9-6.6,7.3C45.5,14.4,48.1,11,48.1,11z"/>
		<path class="st8" d="M27.9,6.6c0,0,14.4-1,24.3-6.5c-4.9,4.1-11.6,6.6-14.8,7.8C34.1,9.1,27.9,6.6,27.9,6.6z"/>
		<path class="st9" d="M21.3,45.4l-1.4,5.1c0,0,3.1,1.1,9.9,1.6s11-1.4,11-1.4l-0.2-4.4C40.6,46.2,27.9,43.5,21.3,45.4z"/>
		<polygon class="st7" points="48.8,23.6 49.5,30.6 47.4,31.2 		"/>
		<path class="st8" d="M38.9,18.9c0,0,8.9-1.6,13.1-4.5c-2.1,0.5-5.7,0.2-5.7,0.2S39.3,15.7,38.9,18.9z"/>
		<path class="st10" d="M40.8,31c-0.4,0.4-0.9,0.6-1.4,0.6c-1.3-0.2-2-2.3-1.7-4.8c0.3-2.5,1.7-4.3,2.9-4.2c0.4,0.1,0.7,0.3,1,0.6
			c-0.7,0.7-1.4,2.1-1.6,3.7C39.9,28.6,40.1,30.1,40.8,31z"/>
		<path class="st5" d="M53.9,55.5c-0.2,0.8-0.3,1.6-0.5,2.4c-0.2,0.6-0.2,1.3-0.4,2c-1,5.5-2,11.5-2.8,17.6c-0.4,3-0.7,5.9-1,8.8
			c-1.2,12.2-1.1,23.4,1.7,28.6c0,0-8.3,16-17.6,16.3l-5.9-0.1l-1.8-5.9l-3.2,5.9h-3c-5.1,0-9-4.4-8.5-9.4c0.6-5.9,1-12.2,1.4-18.7
			c0.2-5.1,0.5-10.3,0.6-15.4c0.1-2.6,0.1-5.1,0.1-7.6c0-7.2-0.2-14.1-0.8-20.3c-0.1-0.6-0.2-1.4-0.2-2c-0.1-1-0.2-1.8-0.3-2.8
			c-0.1-0.6,0-1.2,0.2-1.8c0-0.2,0.1-0.2,0.2-0.4c0.6-1.5,2.1-2.6,3.8-2.6h33.4c1.6,0,3.1,0.8,4,1.9c0,0,0,0,0,0.1
			c0.2,0.2,0.3,0.4,0.4,0.6l0,0c0.2,0.3,0.3,0.6,0.4,1C54,54.5,54,55,53.9,55.5z"/>
		<path class="st6" d="M50.2,77.4c-0.4,3-0.7,5.9-1,8.8L48,67.3L50.2,77.4z"/>
		<path class="st11" d="M15,199.9c-1-2.8,1.2-5.7,4.2-5.5c1,0.1,2.2,0.2,3.5,0.6c5.5,1.5,6.3,5,6.3,5l3.2,9.9
			c2.1,6.5-10.7,6.4-14.1-1.4L15,199.9z"/>
		<polygon class="st2" points="29.4,196.8 32.7,208.5 32.7,211.2 29,199.9 		"/>
	</g>
	<g>
		<g>
			<path class="st12" d="M44.6,134.1H8.7c-0.2,0-0.2,0.2-0.2,0.2v1.4c0,0.2,0.2,0.2,0.2,0.2h35.9c0.2,0,0.2-0.2,0.2-0.2v-1.4
				C44.9,134.2,44.8,134.1,44.6,134.1z"/>
		</g>
		<g>
			<path class="st12" d="M4.8,239.6L4.8,239.6c-0.7-0.1-1.2-0.8-1.1-1.5L11,136.2c0.1-0.8,0.6-1.4,1.3-1.3c0.6,0.1,1.1,0.8,1,1.5
				L6,238.3C6,239.1,5.5,239.6,4.8,239.6z"/>
		</g>
		<g>
			<path class="st12" d="M15.1,239.6L15.1,239.6c-0.7-0.1-1.2-0.8-1.1-1.5l7.3-101.9c0.1-0.8,0.6-1.4,1.3-1.3c0.6,0.1,1.1,0.8,1,1.5
				l-7.3,101.9C16.2,239.1,15.7,239.6,15.1,239.6z"/>
		</g>
		<g>
			<path class="st12" d="M40.2,239.9c-0.6,0-1.1-0.6-1.2-1.3l-7.3-102c-0.1-0.8,0.4-1.5,1-1.5c0.6-0.1,1.2,0.5,1.3,1.3l7.3,101.9
				C41.4,239.1,40.9,239.9,40.2,239.9C40.3,239.9,40.2,239.9,40.2,239.9z"/>
		</g>
		<g>
			<path class="st12" d="M51.6,239.9c-0.6,0-1.1-0.6-1.2-1.3l-8.7-101.8c-0.1-0.8,0.4-1.5,1-1.6c0.6-0.1,1.2,0.5,1.3,1.3l8.7,101.8
				C52.8,239.1,52.3,239.8,51.6,239.9C51.7,239.9,51.7,239.9,51.6,239.9z"/>
		</g>
		<g>
			<path class="st12" d="M46.9,184.5H8.3c-0.6,0-1.1-0.6-1.1-1.4c0-0.8,0.5-1.4,1.1-1.4h38.6c0.6,0,1.1,0.6,1.1,1.4
				C48,183.9,47.6,184.5,46.9,184.5z"/>
		</g>
		<g>
			<path class="st12" d="M47.2,188.6H8.5c-0.6,0-1.1-0.6-1.1-1.4c0-0.8,0.5-1.4,1.1-1.4h38.6c0.6,0,1.1,0.6,1.1,1.4
				C48.3,188,47.8,188.6,47.2,188.6z"/>
		</g>
		<g>
			<path class="st13" d="M45.2,134.7H7.9c-0.4,0-0.7-0.3-0.7-0.7v-2.6c0-0.4,0.3-0.7,0.7-0.7h37.3c0.4,0,0.7,0.3,0.7,0.7v2.6
				C46,134.4,45.6,134.7,45.2,134.7z"/>
		</g>
	</g>
	<polygon class="st7" points="82.8,72.3 87.6,66.9 89.1,67.6 96.3,66.3 100,68 98.1,72.4 86.6,77.3 	"/>
	<path class="st5" d="M87,77.7L62.2,95.9c-0.9,0.6-2,1-3,1c-1.3,0-2.6-0.5-3.6-1.4c-0.7-0.7-1.3-1.7-1.5-2.6l-3.8-15.3l-4.8-19.6
		l-0.2-1c-0.6-2.6,1.3-5.4,4-5.7c1.8-0.2,3,0.2,3.8,1.1c0,0,0,0,0,0.1c0.2,0.2,0.3,0.4,0.4,0.6l0,0c0.1,0.2,0.2,0.3,0.2,0.6l0.2,0.5
		l1.1,3.8l7.3,25l20-11.9L87,77.7z"/>
	<path class="st6" d="M54.9,57.9H10l1.6-4.6c0-0.2,0.1-0.2,0.2-0.4c0.6-1.5,2.1-2.6,3.8-2.6H49c1.6,0,3.1,0.8,4,1.9c0,0,0,0,0,0.1
		c0.2,0.2,0.3,0.4,0.4,0.6l0,0c0.2,0.3,0.3,0.6,0.4,1L54.9,57.9z"/>
</g>
</svg>
