<?xml version="1.0" encoding="utf-8"?>
<!-- Generator: Adobe Illustrator 25.3.1, SVG Export Plug-In . SVG Version: 6.00 Build 0)  -->
<svg version="1.1" id="圖層_1" xmlns="http://www.w3.org/2000/svg" xmlns:xlink="http://www.w3.org/1999/xlink" x="0px" y="0px"
	 viewBox="0 0 100 100" style="enable-background:new 0 0 100 100;" xml:space="preserve">
<style type="text/css">
	.st0{fill:#C2C2C2;}
</style>
<path class="st0" d="M24.3,93.9c7.9,5.1,20.5-3.1,26.8-7.6c4.8-3.5,9-7.5,12.5-12c8.1-2.8,15.7-7.2,21.9-12.9
	c6.6-6,15-15.8,14.6-25.4c-0.4-7.9-6.8-10.9-14-9.7c-3.3,0.5-6.6,1.4-9.9,2.6c-0.6-5.5-1.9-11.1-4-16.5c-0.4-1.1-2.1-0.5-1.7,0.6
	c2.1,5.4,3.4,10.9,4,16.5c-21,8-41.6,27.6-51.5,45.5C19.7,80.7,17.5,89.6,24.3,93.9z M80.9,29.5c2.4-0.7,8.3-2.2,10.7-1.7
	c10.3,2.3,6.6,12.7,3.7,18.7c-2.4,5-7.1,9.9-11.1,13.5c-5.5,4.9-11.6,8.5-18,10.9C74,59.2,77.4,45.2,76.3,31.1
	C77.8,30.5,79.3,30,80.9,29.5z M35,61.5c4.5-5.2,9.5-10,14.8-14.3c7.2-5.8,15.8-11.6,24.7-15.4c0.9,14.3-3.1,28.7-12,40.3
	c-11.5,3.7-24,3.9-36.4,1.4c-0.4-0.1-0.6,0.5-0.2,0.6c10.8,4.3,22.7,4.4,33.9,1.3c-0.4,0.4-0.7,0.8-1.1,1.2c-4.7,5-10.2,9-16.2,12.2
	c-2.7,1.4-14.2,9-19.3,0.8C18.1,81.4,31.7,65.3,35,61.5z"/>
<path class="st0" d="M96.4,37.8c-4-8.5-19-8.3-26.7-7.8c-6,0.4-11.6,1.6-16.9,3.5c-8.4-2-17.1-2.2-25.4-0.7
	c-8.8,1.6-21.1,5.4-25.8,13.9c-3.9,6.9,0,12.8,6.7,15.7c3,1.3,6.3,2.3,9.7,3.1c-2.4,5-4.2,10.4-5.3,16.1c-0.2,1.1,1.5,1.5,1.7,0.4
	c1.1-5.7,2.9-11.1,5.4-16.1c22.1,4.4,49.9-1.3,67.8-11.2C93.3,51.4,99.9,45.1,96.4,37.8z M14.3,62.4c-2.4-0.7-8.2-2.6-9.9-4.3
	c-7.5-7.4,1.2-14.2,6.7-17.8c4.7-3,11.3-4.6,16.6-5.5c7.3-1.2,14.3-1,21.1,0.3C35.9,40.8,25.5,50.9,19,63.5
	C17.4,63.2,15.8,62.8,14.3,62.4z M70.1,59.6c-6.6,2-13.3,3.5-20.2,4.3c-9.2,1.1-19.6,1.5-29.1-0.1C27.7,51.1,38.7,41.1,52.4,36
	c11.7,3,22.4,9.4,31.6,18.2c0.3,0.3,0.7-0.1,0.5-0.4c-6.8-9.4-16.9-15.8-28-19.1c0.5-0.2,1-0.3,1.5-0.5c6.7-1.8,13.4-2.2,20.2-1.7
	c3.1,0.2,16.8-0.1,16.7,9.6C95,51.7,74.9,58.1,70.1,59.6z"/>
<path class="st0" d="M45,1.4C36,4,33.8,18.8,33.1,26.6c-0.6,5.9-0.3,11.7,0.8,17.3c-3.3,7.9-4.9,16.5-4.8,25
	c0.2,8.9,2,21.7,9.5,27.7c6.2,4.9,12.7,2,16.6-4.2c1.8-2.8,3.3-5.9,4.6-9.1c4.6,3.2,9.6,5.8,15,7.8c1.1,0.4,1.8-1.3,0.7-1.6
	c-5.4-2-10.5-4.6-15.1-7.9c7.8-21.1,6.7-49.5-0.2-68.7C57.9,6.7,52.7-0.8,45,1.4z M56.1,86.4c-1.1,2.3-3.9,7.7-5.8,9.1
	c-8.6,6.2-13.9-3.4-16.5-9.5c-2.2-5.1-2.8-11.9-2.8-17.3c0-7.4,1.3-14.3,3.7-20.8C38.3,61.6,46.6,73.5,58,82
	C57.4,83.5,56.8,85,56.1,86.4z M62.3,30.9c1,6.8,1.3,13.7,1,20.6c-0.4,9.3-1.7,19.6-4.7,28.7C47.1,71.4,39,58.9,36.1,44.6
	C40.9,33.5,49,24,59.1,16.3c0.3-0.2,0-0.7-0.3-0.6c-10.4,5.2-18.3,14.2-23.3,24.6c-0.1-0.5-0.2-1.1-0.2-1.6
	c-0.7-6.8-0.1-13.6,1.6-20.2c0.7-3,2.6-16.6,12.1-15C58.5,5.1,61.6,25.9,62.3,30.9z"/>
</svg>
