<?xml version="1.0" encoding="utf-8"?>
<!-- Generator: Adobe Illustrator 25.3.1, SVG Export Plug-In . SVG Version: 6.00 Build 0)  -->
<svg version="1.1" id="圖層_1" xmlns="http://www.w3.org/2000/svg" xmlns:xlink="http://www.w3.org/1999/xlink" x="0px" y="0px"
	 viewBox="0 0 76 76" style="enable-background:new 0 0 76 76;" xml:space="preserve">
<style type="text/css">
	.st0{fill:#DBDBDB;}
	.st1{fill:#DB565D;}
	.st2{fill:#FFFFFF;}
</style>
<g>
	<path class="st0" d="M38,64.5H10.1c-1.8,0-2.9-2-2-3.5l14-24.2l14-24.2c0.9-1.6,3.2-1.6,4.1,0l14,24.2l14,24.2
		c0.9,1.6-0.2,3.5-2,3.5H38z"/>
	<path class="st1" d="M10.1,71.9c-3.5,0-6.7-1.9-8.4-4.9c-1.7-3-1.7-6.7,0-9.7L29.6,9c1.7-3,5-4.9,8.4-4.9S44.7,6,46.4,9l27.9,48.3
		c1.7,3,1.7,6.7,0,9.7c-1.7,3-5,4.9-8.4,4.9L10.1,71.9L10.1,71.9z"/>
	<path class="st2" d="M33.9,31h8.2l-1.5,17.5h-5.2L33.9,31z M38,50c2.2,0,4,1.6,4,3.8c0,2.2-1.8,3.8-4,3.8c-2.2,0-4-1.6-4-3.8
		C34,51.6,35.8,50,38,50z"/>
</g>
</svg>
