<?xml version="1.0" encoding="utf-8"?>
<!-- Generator: Adobe Illustrator 25.3.1, SVG Export Plug-In . SVG Version: 6.00 Build 0)  -->
<svg version="1.1" id="圖層_1" xmlns="http://www.w3.org/2000/svg" xmlns:xlink="http://www.w3.org/1999/xlink" x="0px" y="0px"
	 viewBox="0 0 300 240" style="enable-background:new 0 0 300 240;" xml:space="preserve">
<style type="text/css">
	.st0{opacity:0.1;enable-background:new    ;}
	.st1{fill:#CCCCCC;}
	.st2{fill:#FFFFFF;}
	.st3{fill:#B3B3B3;}
	.st4{fill:#D7E6F1;}
	.st5{fill:#DB565D;}
	.st6{fill:#040000;}
	.st7{fill:#D7AD89;}
	.st8{fill:#CB141D;}
	.st9{fill:#BD8287;}
	.st10{fill:#9A8EB1;}
	.st11{fill:#AFA0C4;}
	.st12{fill:#F88667;}
	.st13{fill:#161415;}
	.st14{fill:#2E2E2C;}
	.st15{fill:#E45940;}
	.st16{fill:#EDAA00;}
	.st17{fill:#C99100;}
	.st18{fill:#C8CCD0;}
	.st19{fill:#1E0401;}
</style>
<g>
	<path class="st0" d="M255.8,226.9c0,3.4-48.5,6.1-108.3,6.1c-59.8,0-108.3-2.7-108.3-6.1s48.5-6.1,108.3-6.1
		C207.3,220.8,255.8,223.5,255.8,226.9z"/>
	<path class="st1" d="M261.8,198.1H44.5c-2.8,0-5.1-2.3-5.1-5.1V65.2c0-2.8,2.3-5.1,5.1-5.1h217.3c2.8,0,5.1,2.3,5.1,5.1V193
		C266.8,195.8,264.6,198.1,261.8,198.1z"/>
	<path class="st2" d="M261.3,64.9H45v128.3h216.4V64.9z"/>
	<path class="st1" d="M132.2,193.8l-4,26h52l-3.8-26H132.2z"/>
	<path class="st3" d="M185.2,219.8h-62.1v4.2h62.1V219.8z"/>
	<path class="st3" d="M131.5,198.1H177l0.6,4l-46.3-2.4L131.5,198.1z"/>
	<path class="st4" d="M132.4,183H62c-1.5,0-2.8-1.2-2.8-2.8V96.9c0-1.5,1.2-2.8,2.8-2.8h70.4c1.5,0,2.8,1.2,2.8,2.8v83.4
		C135.2,181.8,133.9,183,132.4,183z"/>
	<path class="st5" d="M109.9,143.1h-2.2v-6.8c0-4.8-4-8.8-8.8-8.8c-3.3,0-6.3,1.8-7.9,4.8l-1.9-1c1.9-3.7,5.6-6,9.8-6
		c6.1,0,11,4.9,11,11L109.9,143.1L109.9,143.1z"/>
	<path class="st5" d="M101.9,172.5h-6.6c-7.1,0-12.8-5.7-12.8-12.8v-17.1c0-1.3,1-2.3,2.3-2.3h27.7c1.3,0,2.3,1,2.3,2.3v17.1
		C114.8,166.7,109,172.5,101.9,172.5z"/>
	<path d="M102.3,151.9c0,2.1-1.7,3.8-3.8,3.8c-2.1,0-3.8-1.7-3.8-3.8c0-2.1,1.7-3.8,3.8-3.8C100.6,148.1,102.3,149.8,102.3,151.9z"
		/>
	<path d="M97.4,154.5l-3,8.7h8.5l-3.3-8.7H97.4z"/>
	<path class="st2" d="M117.2,117.1H78.4c-2.9,0-5.3-2.4-5.3-5.3c0-2.9,2.4-5.3,5.3-5.3h38.8c2.9,0,5.3,2.4,5.3,5.3
		C122.5,114.8,120.1,117.1,117.2,117.1z"/>
	<path d="M87.7,110l-1.2,1.6v0l2-0.3v0.9l-2-0.2v0l1.3,1.6l-0.8,0.5l-0.8-1.8h0l-0.9,1.9l-0.7-0.5l1.2-1.6v0l-1.9,0.2v-0.9l1.9,0.2
		v0l-1.2-1.6l0.8-0.5l0.8,1.8h0l0.8-1.8L87.7,110z"/>
	<path d="M96,110l-1.2,1.6v0l2-0.3v0.9l-2-0.2v0l1.3,1.6l-0.8,0.5l-0.8-1.8h0l-0.9,1.9l-0.7-0.5l1.2-1.6v0l-1.9,0.2v-0.9l1.9,0.2v0
		l-1.2-1.6l0.8-0.5l0.8,1.8h0l0.8-1.8L96,110z"/>
	<path d="M104.3,110l-1.2,1.6v0l2-0.3v0.9l-2-0.2v0l1.3,1.6l-0.8,0.5l-0.8-1.8h0l-0.9,1.9l-0.7-0.5l1.2-1.6v0l-1.9,0.2v-0.9l1.9,0.2
		v0l-1.2-1.6l0.8-0.5l0.8,1.8h0l0.8-1.8L104.3,110z"/>
	<path d="M112.7,110l-1.2,1.6v0l2-0.3v0.9l-2-0.2v0l1.3,1.6l-0.8,0.5l-0.8-1.8h0l-0.9,1.9l-0.7-0.5l1.2-1.6v0l-1.9,0.2v-0.9l1.9,0.2
		v0l-1.2-1.6l0.8-0.5l0.8,1.8h0l0.8-1.8L112.7,110z"/>
	<path class="st4" d="M244.3,182.5h-99.8c-1.6,0-2.9-1.3-2.9-2.9v-22.3c0-1.6,1.3-2.9,2.9-2.9h99.8c1.6,0,2.9,1.3,2.9,2.9v22.3
		C247.2,181.2,245.9,182.5,244.3,182.5z"/>
	<path class="st2" d="M191,169.3h-38.2c-0.2,0-0.4-0.2-0.4-0.4c0-0.2,0.2-0.4,0.4-0.4H191c0.2,0,0.4,0.2,0.4,0.4
		C191.4,169.2,191.2,169.3,191,169.3z"/>
	<path class="st2" d="M176.8,164.9h-24c-0.2,0-0.4-0.2-0.4-0.4c0-0.2,0.2-0.4,0.4-0.4h24c0.2,0,0.4,0.2,0.4,0.4
		C177.2,164.7,177.1,164.9,176.8,164.9z"/>
	<path class="st2" d="M160.1,173.9h-7.3c-0.2,0-0.4-0.2-0.4-0.4c0-0.2,0.2-0.4,0.4-0.4h7.3c0.2,0,0.4,0.2,0.4,0.4
		C160.5,173.7,160.3,173.9,160.1,173.9z"/>
	<path class="st2" d="M220.8,169.3h-18.1c-0.2,0-0.4-0.2-0.4-0.4c0-0.2,0.2-0.4,0.4-0.4h18.1c0.2,0,0.4,0.2,0.4,0.4
		C221.2,169.2,221,169.3,220.8,169.3z"/>
	<path class="st2" d="M236,164.9h-33.3c-0.2,0-0.4-0.2-0.4-0.4c0-0.2,0.2-0.4,0.4-0.4H236c0.2,0,0.4,0.2,0.4,0.4
		C236.4,164.7,236.2,164.9,236,164.9z"/>
	<path class="st2" d="M225.8,173.9h-23.1c-0.2,0-0.4-0.2-0.4-0.4c0-0.2,0.2-0.4,0.4-0.4h23.1c0.2,0,0.4,0.2,0.4,0.4
		C226.2,173.7,226.1,173.9,225.8,173.9z"/>
	<path class="st4" d="M243.4,150.7H146c-2.3,0-4.1-1.8-4.1-4.1V98.2c0-2.3,1.8-4.1,4.1-4.1h97.4c2.3,0,4.1,1.8,4.1,4.1v48.4
		C247.5,148.8,245.7,150.7,243.4,150.7z"/>
	<path class="st6" d="M283.4,117.3c0,0,0.2,3,2.7,4.3c4.2,2.2,13.2,6,12.7,11.8c-0.2,2.3-2.3,4.5-2.4,6.6c0,1.6,0.5,3.1,1,4.5
		c1.4,4,1,7-3,9.1c-3.1,1.6-4.8,4.1-5.3,7.5c-0.8,5.3-7.6,5.4-11.4,4.1c-4.6-1.6-8.6-5.6-10.1-10.3c-0.7-2.3-0.8-5.4,0-7.7
		c0.7-1.9,1.5-4,1.5-6c0-2.3-1.3-3.9-2.7-5.6c-1.1-1.4-1.1-4.8-0.8-6.4c0.4-1.9,1.5-3.7,2.4-5.4c1.8-3.2,4.5-6.7,8.3-7.6
		C278.7,115.6,281.5,116.3,283.4,117.3z"/>
	<path class="st7" d="M261.4,134.2c0,0-21.5-19.7,1.2-18.7c0,0,2.3-7.8,2.7-9.1c0.5,0.2,1.9,1.7,1.4,3.9c-0.5,2.2,0.1,3.7,0.1,3.7
		s1.3-2,2.5-1.4l-2.1,3.5c0,0-1.9,2.2-3.3,1.8c-0.7-0.1-15.4-0.5-0.4,8.8c0,0,5.1,1.4,5,1.9C268.3,130.2,263.4,132.6,261.4,134.2z"
		/>
	<path class="st8" d="M280.2,235.1l0.4,3.5c0.1,0.7,0.6,1.2,1.3,1.2c1.1,0.1,2.9,0.3,4.6,0.1c0.8-0.1,1.3-0.9,1-1.6
		c-0.4-1.3-1.2-3.3-2.3-4.5h-3.8C280.6,233.8,280.1,234.4,280.2,235.1z"/>
	<path class="st7" d="M252.1,229.1c0.1,1.4-0.3,2.7-1,3.9l-3.8,6.1l6.7-3.9c0,0,4.8-2.8,3.1-2.9c-1.7-0.1-0.8-4.4-0.8-4.4"/>
	<path class="st8" d="M246.6,240h3.1c0.6,0,1.1-0.3,1.5-0.7c1-1.2,2.9-3.7,3.9-3.7c1.3-0.1,1.1,4.4,1.1,4.4h0.7l0.9-5.6
		c0.2-1.4-0.5-2.8-1.7-3.5c0,0-0.3,2.1-1.9,3.1c-1.6,0.9-6.4,4.4-6.4,4.4s-0.6-0.1-1.2,0C245.5,238.6,245.6,240,246.6,240z"/>
	<path class="st7" d="M278,226c2,5.5,2.7,10.1,2.8,10.5c0,0.7,0.9,1.3,3.2,1.3c1.2,0,1.8-0.5,2.1-0.9c0.2-0.4,0.3-0.9,0.1-1.3
		c-0.7-1.5-3.1-6.2-3.9-8.4"/>
	<path class="st9" d="M277.6,157c-3.3-13.9,5-21.7,5-21.7c-5.2-5-14.8-7.3-14.8-7.3s-9.1,6.7-8,11.9c0.6,3.1,6.4,18.3,6.4,18.3
		S271.5,160.6,277.6,157z"/>
	<path class="st7" d="M277.8,124.1l-1.3,6.6c0.3,1.1-0.7,0.9-1.8,0.7c-1.7-0.3-4-1-4.8-2.4c-0.1-0.1-0.1-0.3-0.1-0.4l2.8-3
		c-0.1-0.7,0.3-1.3,0.9-1.6l2.2-1C276.6,122.7,277.5,123.2,277.8,124.1z"/>
	<path class="st7" d="M275.6,113.3c0,0-3.3,0.9-6,5.2c-2.7,4.2-1.4,6.5,0.6,7.1c2,0.5,5.4,0.1,8.9-2.4
		C282.6,120.6,279.9,112.3,275.6,113.3z"/>
	<path class="st6" d="M276.8,121.3c0,0,3.2-6.3-2.6-7.1l-1.5,0.8c0,0-1.7-3.9,2.1-5.2c3.8-1.3,7.7,0.7,8.6,5.6
		c0.9,5,0.7,8.2-2.1,10.1c-2.8,2-3.5-0.8-3.5-0.8s1.6-2,1.2-3.2c-0.4-1.2-1.9,0.8-1.9,0.8L276.8,121.3z"/>
	<path class="st7" d="M289.2,120.3c0,0,15.1,19.6-6.6,14.9c-4.3,2.7-3.9,6-3.9,6s36.8,4.7,13.6-20.4c-0.4-0.4-0.3-1-0.4-1.6
		c-0.1-1.2-1.1-3.4-1.1-4.5c-0.1-1.5-2.2-4.7-3.6-4.3c-0.9,0.2-0.6,1.8-0.4,2.8l1.8,4c0.2,1.1-0.1,0.8-1.2,0.8c0,0-0.7-0.2-0.8-0.1
		C286.3,118.5,289.2,120.3,289.2,120.3z"/>
	<path class="st10" d="M266.2,158.1c0,0,0.4,3.2-5.4,14.3c-5.8,11.1-12.8,21.5-11,29.9c1.8,8.3,2.2,26.9,2.2,26.9l4.2-0.6
		c0,0,3.5-26.7,1.3-30.3c0,0,12-12.7,13.6-23c1.6-10.2,1.2-16.7,1.2-16.7L266.2,158.1z"/>
	<path class="st11" d="M272.3,158.6c0,0-12.7,32.5-8.4,39.2c4.3,6.7,14.9,30.7,14.9,30.7l3.3-1.4c0,0-3-27.2-11.7-30.3
		c0,0,24.4-35.7,7.2-40L272.3,158.6z"/>
	<path class="st12" d="M63.4,160.8c0,0,2.1,1.2,3.3,2.3c0.6,0.5,1.6,1.2,2.6,0.9c2.9-0.6-0.5-4.2-0.5-4.2s0.5-2.3-0.4-2.2
		c-1.2,0.1-2.4,0.2-2.9,0.1C64.6,157.5,63.3,158.7,63.4,160.8z"/>
	<path class="st13" d="M29.2,101.3c-3.5,0.8-6.2,3.2-6.8,6.7c-0.7,4.5-1,9.9-0.5,13.5c0.4,2.9,2.3,4.4,4.6,5
		c5.2,1.4,14.6-4.9,12.8-16.8C38.1,102.6,33.4,100.4,29.2,101.3z"/>
	<path class="st14" d="M42.6,129.5c10.3,16.6,7.5,13.2,9.5,15.3c2,2.2,16,12.5,16,12.5l-3.7,5.8c0,0-15.7-11.1-17.8-13.1
		c-2-2-9.5-12.2-9.5-12.2L42.6,129.5z"/>
	<path class="st13" d="M61,153.2c-0.9,0.5-2,0.5-3.1-0.2c-2.3-1.6-4.6-3.2-6.7-5c-1.3-1-2.4-2.1-3.5-3.3c-1.9-2.2-3.7-4.5-5.2-6.9
		c-0.8-1.3-2-2.4-3-3.6l-2.3,3.6c0,0,7.5,10.1,9.5,12.2c2,2.1,17.8,13.1,17.8,13.1l3.6-5.8C65.8,156.2,63.2,154.6,61,153.2z"/>
	<path class="st13" d="M36.6,221.3c0,0-1.2,1.9-1.6,3.6c-0.4,1.6-0.7,3.4-0.3,3.9c0.8,1.1,13.5,4.2,14.8,3.2c1.3-0.9,1.1-3-1.5-4.3
		c-2.7-1.4-3.2-1.2-4.9-2.3c-1.7-1.1-0.7-3.1-0.7-3.1L36.6,221.3z"/>
	<path class="st13" d="M3,219.7c0,0-1.5,1.8-2.1,3.3c-0.6,1.6-1.1,3.3-0.8,3.9c0.7,1.2,12.8,5.9,14.3,5.2s1.5-2.8-0.9-4.4
		c-2.5-1.7-3-1.6-4.5-2.9c-1.5-1.3-0.3-3.1-0.3-3.1L3,219.7z"/>
	<path class="st13" d="M37.8,159.8H21.1c0,0,12.7,31.6,13.9,35.6c1.2,4-0.4,28.4-0.4,28.4h8c0,0,1.7-28.4,1.3-30.3
		C43.5,191.6,37.8,159.8,37.8,159.8z"/>
	<path class="st13" d="M33.3,161l-18.2-2.7c0,0-4.2,8.9-3.1,13.6c1.1,4.7,3,19.3,2.9,21c-0.1,1.8-13.6,27.6-13.6,27.6l7.3,2.7
		c0,0,13.8-24.8,14.8-27.3c0.5-1.3,1.9-12.2,4.5-20.6C30.6,166.8,33.3,161,33.3,161z"/>
	<path class="st15" d="M26,116.3c1.6,0.1,3.3-0.1,4.8-0.5c0.6-0.1,1.1-0.3,1.6-0.6c0.2,2,0.9,6.7,2.6,8.4c0,0-0.2,2.4-4.3,3
		s-6.5-3.1-6.5-3.1S27.3,121.4,26,116.3z"/>
	<path class="st12" d="M33.3,104.5c0,0-7-1.6-8,0.2c-1,1.7-0.6,4.4-1,5.6c-0.4,1.2-2,2.6-2.2,3.1c-0.2,0.5,1.2,1.3,1.4,1.7
		c0.2,0.4,1.2,4.2,2.4,5c1.3,0.8,7.5-1.9,8.9-5C36.3,111.8,35.3,105.3,33.3,104.5z"/>
	<path class="st14" d="M37.2,123.3c0,0-11.7,3.1-12.5-0.3c0,0-6.2,2.8-8,3.8c-0.7,0.4,5.1,9.3,3.6,14.6c-1.5,5.3-6.4,18-6.4,18
		s8.5,8.1,24.8,5.3c0,0,2.5-18.3,2.9-23.4c0.6-7.5,1-11.9,1-11.9S39,125.1,37.2,123.3z"/>
	<path class="st13" d="M24.4,154c-0.4-2.9-0.6-5.7,0.2-8.6c0.9-3.1-0.9-7.5-1-10.8c-0.1-3.5-0.2-5.9-2.2-8
		c-0.2,3.3,0.1,10.7-1.1,14.8c-1.5,5.3-6.4,18-6.4,18s5.4,5.1,15.8,5.8C25.9,162.3,25,158.8,24.4,154z"/>
	<path class="st13" d="M39.1,111.5c-0.5,0.4-0.5,0.9-0.2,2c-0.3,0.2-0.6,0.4-0.8,0.7c-0.1,0-0.2,0-0.2,0c-0.3,0-0.5,0.1-0.8,0.2
		c0.1,0,0.6,0.2-0.2,0c-0.6-0.2,0,0-0.7-0.3c-0.2-0.1-0.4-0.2-0.6-0.2c0.7-1.1,0.1-2.8-1.3-2.1c-0.4,0.2-0.9,0.6-1.1,1
		c-0.4,1.3-1,1.5-1.4,0.9c-0.6-1,1.3-3.3,0.8-4.1c-1.1-1.8-1-3.5-1-3.5c-0.8-1.8,1.5-3.7,4.5-3.2c3,0.5,0.7,1.5,3.4,3.8
		C41.5,108.5,40.2,110.7,39.1,111.5z"/>
	<path class="st12" d="M40.7,158.6c1.3-0.4,3-0.6,4.4-1c0.6-0.2,1.3-0.4,1.9-0.6c0.4-0.1,1.2-0.5,1.5-0.1c0.4,0.4-0.4,0.8-0.7,0.9
		c-0.4,0.2-1.4,0.4-1.3,1c0.1,0.9,1.8,0.7,2.5,0.8c0.7,0.1,2.4,0.2,1.5,1.1c-0.6,0.6-2.3,0.1-2.9,0c0.8,0,1.6,0.1,2.4,0.3
		c0.5,0.1,1.3,0.2,1.5,0.7c0.2,0.7-1.4,0.7-1.8,0.6c-1-0.1-1.2-0.2-1.9-0.5c0.7,0.2,3.2,0.5,2.7,1.5c-0.3,0.6-2.4-0.3-3.2-0.4
		c0.5,0.3,1.7,0.1,1.8,0.9c0.1,0.4-0.7,0.3-1,0.2c-0.5-0.1-1-0.4-1.5-0.5c-0.4-0.1-0.7-0.2-1.1-0.4c-0.9-0.4-1.7-0.3-2.6-0.9
		c-0.8-0.5-1.6-1.1-2.4-1.4C41.4,160.2,39.9,159.6,40.7,158.6z"/>
	<path class="st14" d="M42.5,157.7l-0.7,4.9c0,0-20.4-4.2-24.5-7.7c-3.3-2.9-3.5-10.5-3.5-18.7c0-1.7-0.1-8.8,3.5-9.5
		c0.9-0.2,2.1,0.6,3.4,1.9c1.9,1.9,1.2,8.2,1.2,10.1c0,6,1,10.8,1.7,11.6C24.2,151,42.5,157.7,42.5,157.7z"/>
	<path class="st13" d="M24.6,108.4c0,0.4,0.2,0.8,0.2,0.8c1.3-1.5,5.6-0.4,7.8,0.3c0.6,0.9-0.5,2.4-0.5,2.4s-3.3,0.3-4.3,0.3
		c-2.3,0-3.1-0.8-3.1-0.8c-0.3,0.1-0.9-0.1-0.9-0.1C23.6,109.2,24.6,108.4,24.6,108.4z"/>
	<path class="st13" d="M26.9,126.9c0,0,9.1-11.3,4.5-17.7c-3.6-5-8-1.1-8-1.1s-2.2-2.9,3.7-6.1c3.8-2,9.5-3,13.9,4.5
		c1.4,2.3,2.9,12.5-1.5,18.4C38.4,126.3,32.4,127.3,26.9,126.9z"/>
	<path class="st13" d="M24,120.6c0,0-1,3.6,1.4,6c0,0-4-1.3-3.8-6.7L24,120.6z"/>
	<path class="st16" d="M68.2,164.9c1.3,4.4,5.2,7.2,8.6,6.2c3.4-1,5.1-5.4,3.8-9.8c-1.3-4.4-5.2-7.2-8.6-6.2
		C68.6,156.1,66.9,160.5,68.2,164.9z M71,164.1c-0.7-2.4,0.2-4.8,2.1-5.4c1.9-0.6,3.9,0.9,4.7,3.4c0.7,2.4-0.2,4.8-2.1,5.4
		C73.9,168,71.8,166.5,71,164.1z"/>
	<path class="st16" d="M97.3,153.9l-18.7,5.6l1.3,4.3l18.7-5.6L97.3,153.9z"/>
	<path class="st16" d="M95.3,156.1l-2.5,0.7l1.7,5.6l2.5-0.7L95.3,156.1z"/>
	<path class="st16" d="M90.8,157.4l-2.5,0.7l2.4,7.9l2.5-0.7L90.8,157.4z"/>
	<path class="st12" d="M71.5,164.6c1.4-0.9,1.6-3.1,1.3-4.3c-0.2-0.9-1.1-1-2.2-1.1c-0.7-0.1-1.4-0.2-1.7,0
		c-0.9,0.9,1.6,1.1,2.2,1.4c0,0-2.6-0.6-3-0.1c-0.7,1,1.8,1.2,2.5,1.5c-0.6-0.3-1.8-0.5-2-0.3c-0.5,0-0.5,0.4-0.5,0.5
		c0.1,0.6,2.4,1,2.4,1c-0.4-0.1-1.8-0.7-1.7,0.2c0,0.6,0.7,0.8,1,0.9C70.5,164.7,71.2,164.8,71.5,164.6z"/>
	<path class="st12" d="M68.5,158.9c-0.2,0,0-0.1-0.4-0.1c-0.4,0-0.1-1.2,0.2-1.2c0.7,0.1,1.1,0.1,1.3,0.5
		C70,159,69.4,159.1,68.5,158.9z"/>
	<path class="st17" d="M231.8,139.5h-72.3c-3,0-5.5-2.6-5.5-5.8V89.1c0-3.2,2.5-5.8,5.5-5.8h72.3c3,0,5.5,2.6,5.5,5.8v44.6
		C237.3,136.9,234.9,139.5,231.8,139.5z"/>
	<path class="st2" d="M234.7,125.1l-70.7,9.1l-7.3-53.3l70.7-9.1L234.7,125.1z"/>
	<path class="st18" d="M166,73.5l-5.5,49.2l64.9,7.2l5.5-49.2L166,73.5z"/>
	<path class="st2" d="M232.7,91.1h-59.5v42.2h59.5V91.1z"/>
	<path class="st16" d="M231.8,95.6h-24.7c-3.3,0-5.9,3-5.9,6.8v0.1c0,3.5-2.5,6.3-5.5,6.3h-41.6v24.5c0,3.5,2.5,6.3,5.5,6.3h72.3
		c3,0,5.5-2.8,5.5-6.3v-31.4C237.3,98.4,234.9,95.6,231.8,95.6z"/>
	<path class="st12" d="M196.9,79.7c0.4,0.3,0.9,1.6,1.7,1.3c0.4-0.1-0.1-1.3-0.3-1.5c-0.3-0.4-3.1-3.2-4-3.8c-0.7-0.4-1.4-0.8-2-1.3
		c-0.6,0.7-1.4,1.2-2.2,1.7c0.3,1.2,0.7,2.5,0.9,3.7c0.1,0.6,0.2,1.3,0.3,1.9c0.1,0.4,0.1,1.2,0.6,1.4c0.5,0.2,0.5-0.7,0.5-1
		c0-0.5-0.2-1.4,0.3-1.6c0.8-0.3,1.4,1.3,1.8,1.9c0.4,0.5,1.5,2.4,1.9,1.3c0.1-0.2-1-2.2-1.1-2.5c0.1,0.1,0.9,1.4,0.9,1.4
		c0.3,0.4,0.9,1.3,1.3,1.2c0.9-0.3-0.8-2.5-1.1-2.9c0,0,0.7,0.8,0.7,0.8c0.5,0.7,1,1.2,1.3,0.7C198.8,82,197.3,80.4,196.9,79.7z"/>
	<path class="st14" d="M183.2,35.2c0.4,7.4,2.9,19.6,3.9,22.4c1,2.7,7.8,16.8,7.8,16.8l-5.5,3.9c0,0-8.1-15.4-9.2-18.1
		c-1-2.6-6.2-15.8-6.2-15.8L183.2,35.2z"/>
	<path class="st13" d="M183.9,60.3c-2.7-4.9-4.9-13.3-5.8-18.9l-4.1,3c0,0,5.2,13.2,6.2,15.8c1,2.6,9.2,18.1,9.2,18.1l1.4-1
		C188.4,71.1,187.1,66.1,183.9,60.3z"/>
	<path class="st14" d="M155.5,42.6c-1.9,4.5-5,16.7-6.1,18.7h26.7c1.5-5.6,3.3-12.4,3.9-15.5c1.5-7.2,3.1-10.5,3.1-10.5
		s-3.6-5.6-5.1-7.6c0,0-11.8,1.5-12.1-1.9c0,0-7.5,2.2-9.5,2.9C155.7,29,157.6,37.6,155.5,42.6z"/>
	<path class="st13" d="M159.1,35.6c-1.3,2.4-3,5-4.1,7.2c-1.8,4.6-4.3,16.5-5.3,18.4h11.5c-0.1-0.9-0.5-2.4-0.5-3.4
		c0-2.9,0.2-5.6,1.3-8.3c1.1-2.4-0.3-10.5-0.8-11.1C160.6,37.5,159.8,36.5,159.1,35.6z"/>
	<path class="st12" d="M161.1,84.2c0.2,0.6,1.3,1.5,0.8,2.2c-0.3,0.3-1.3-0.5-1.5-0.9c-0.3-0.5-2.3-4.4-2.5-5.5
		c-0.2-0.9-0.4-1.7-0.6-2.5c0.9-0.4,1.8-1,2.6-1.6c1.1,0.7,2.3,1.6,3.5,2.2c0.6,0.3,1.3,0.6,1.9,0.9c0.4,0.2,1.2,0.5,1.2,1.1
		c0,0.6-0.9,0.3-1.2,0.2c-0.5-0.2-1.4-0.7-1.8-0.2c-0.6,0.8,0.8,1.9,1.3,2.5c0.4,0.6,2,2.4,0.7,2.4c-0.3,0-2-1.8-2.2-2
		c0.1,0.1,1.1,1.4,1.2,1.4c0.3,0.4,1.1,1.4,0.7,1.8c-0.7,0.8-2.4-1.8-2.6-2.1c0,0,0.6,1,0.6,1c0.6,0.8,0.9,1.4,0.3,1.6
		C162.8,87,161.6,84.9,161.1,84.2z"/>
	<path class="st14" d="M161.5,76.1l-4.8,3c0,0-10.6-18.3-10.8-23.6c-0.2-4.3,0.7-9.5,4.9-18.9c2.6-6,5.5-8.4,6.7-7.9
		c0.8,0.3,5.7,2.5,3.3,9.8c-0.8,2.6-6.2,13.5-6.3,14.5C154.4,54,161.5,76.1,161.5,76.1z"/>
	<path class="st13" d="M184.3,11.6c2.4,2.6,3.3,6,1.8,9.2c-1.9,4-4.6,8.6-7,11.3c-1.9,2.1-4.3,2.3-6.5,1.5c-5-1.7-9.2-12-1.1-20.7
		C176.3,7.7,181.4,8.6,184.3,11.6z"/>
	<path class="st15" d="M168.8,26c0.7,1,1.4,3.1,2.5,3.7c1.5,0.9,3,0.9,4.6,0.9c0.1-1.3,0.7-3.2,2.8-5c-1.4-0.8-2.6-1.9-3.7-3.1
		c-0.4-0.4-0.7-0.9-1-1.4C172.9,22.4,170.8,24.8,168.8,26C168.7,26,168.7,26,168.8,26z"/>
	<path class="st12" d="M179.2,11.9c0,0,6.6,2.6,6.4,4.5c-0.2,2-1.9,3.9-2.3,5.1c-0.4,1.2,0.2,3.2,0.1,3.7c-0.1,0.5-1.7,0.4-2.1,0.6
		c-0.4,0.2-3.3,2.8-4.7,2.7c-1.4-0.1-5.1-5.7-4.5-9C172.7,16.2,177.1,11.6,179.2,11.9z"/>
	<path class="st13" d="M170.6,14.5c0.2,0.6-0.1,1-0.9,1.8c0.1,0.3,0.2,0.7,0.3,1c0.1,0.1,0.1,0.1,0.2,0.2c0.2,0.2,0.4,0.4,0.6,0.6
		c-0.1-0.1-0.6-0.1,0.2,0.1c0.6,0.2,0,0,0.7,0.1c0.2,0,0.4,0.1,0.6,0.1c0-1.3,1.4-2.3,2.2-1c0.2,0.4,0.4,1,0.3,1.4
		c-0.4,1.3-0.1,1.8,0.6,1.5c1-0.4,0.8-3.4,1.6-3.8c1.9-0.9,2.7-2.3,2.7-2.3c1.6-1,0.8-3.8-1.9-5c-2.7-1.2-1.4,0.8-4.9,1.2
		C170.4,10.7,170.2,13.2,170.6,14.5z"/>
	<path class="st13" d="M184.1,19.9c-0.2,0.3-0.6,0.5-0.6,0.5c-0.2-1.9-4.3-3.4-6.5-4.1c-1,0.4-0.9,2.2-0.9,2.2s2.5,2.1,3.3,2.7
		c1.9,1.3,2.9,1.1,2.9,1.1c0.2,0.3,0.8,0.4,0.8,0.4C184.5,21.1,184.1,19.9,184.1,19.9z"/>
	<path class="st13" d="M174.2,33.6c0,0-3.3-14.2,4-16.8c5.7-2.1,7.1,3.5,7.1,3.5s3.4-1.2,0.4-7c-2-3.8-7.9-8.3-15.5-4.6
		c-2.4,1.1-8.7,7.6-7.2,16.4C163.2,26.9,166.8,31.5,174.2,33.6z"/>
	<path class="st13" d="M178.6,29.2c0,0-0.7,3.6-4,4.6c0,0,4,1.1,7.2-5.2L178.6,29.2z"/>
	<path class="st5" d="M259.7,76.5c10.6,0,19.2-8.6,19.2-19.2c0-10.6-8.6-19.2-19.2-19.2c-10.6,0-19.2,8.6-19.2,19.2
		C240.4,67.9,249.1,76.5,259.7,76.5z"/>
	<path class="st2" d="M254,62.6c0.3,0.3,0.5,0.6,0.6,1l0.1,1.2c0.1,0.8,0.6,1.4,1.4,1.5c2.4,0.6,4.9,0.6,7.3,0
		c0.8-0.2,1.3-0.9,1.4-1.5l0.1-1.2c0-0.4,0.3-0.8,0.6-1c2-1.5,3.2-3.9,3.2-7.2c0-5.9-3.9-8.2-8.9-8.2c-4.9,0-8.9,2.3-8.9,8.2
		C250.8,58.6,252.1,61.1,254,62.6z M263.5,55.2c1.5,0.2,2,1.2,1.9,2.3c-0.2,1.1-0.8,2-2.4,1.8c-1.6-0.2-2-1.2-1.9-2.3
		C261.3,55.8,262.1,55.1,263.5,55.2z M258.3,62.2l0.9-2.2c0.2-0.4,0.8-0.4,0.9,0l0.9,2.2c0.2,0.4-0.2,0.9-0.6,0.9H259
		C258.4,63.1,258,62.6,258.3,62.2z M255.8,55.2c1.5-0.2,2.2,0.7,2.4,1.8c0.2,1.1-0.3,2.1-1.9,2.3c-1.6,0.2-2.2-0.7-2.4-1.8
		C253.8,56.4,254.3,55.4,255.8,55.2z"/>
	<path class="st19" d="M86.4,92.8c2.7-8.6-2.2-17.7-10.8-20.4c-8.6-2.7-17.7,2.2-20.4,10.8c-2.7,8.6,2.2,17.7,10.8,20.4
		C74.6,106.3,83.7,101.4,86.4,92.8z"/>
	<path class="st2" d="M72.9,94.3c0,2.8-4.2,2.8-4.2,0C68.7,91.5,72.9,91.5,72.9,94.3z M72.7,80.2l-0.1,10.4H69
		c0-3.9-0.1-6.4-0.1-10.4H72.7z"/>
	<path class="st5" d="M195.3,188.8c-11.5,0-20.8-9.3-20.8-20.8c0-11.5,9.3-20.8,20.8-20.8c11.5,0,20.8,9.3,20.8,20.8
		C216.1,179.5,206.8,188.8,195.3,188.8z"/>
	<path class="st2" d="M203.6,177.7c-0.4,0-0.8-0.2-1.2-0.5l-16.6-15.8c-0.7-0.6-0.7-1.7-0.1-2.4c0.6-0.7,1.7-0.7,2.4-0.1l16.6,15.8
		c0.7,0.6,0.7,1.7,0.1,2.4C204.5,177.5,204,177.7,203.6,177.7z"/>
	<path class="st2" d="M187,177.7c-0.4,0-0.9-0.2-1.2-0.5c-0.6-0.7-0.6-1.7,0.1-2.4l16.6-15.8c0.7-0.6,1.8-0.6,2.4,0.1
		c0.6,0.7,0.6,1.7-0.1,2.4l-16.6,15.8C187.9,177.5,187.4,177.7,187,177.7z"/>
</g>
</svg>
