<?xml version="1.0" encoding="utf-8"?>
<!-- Generator: Adobe Illustrator 25.3.1, SVG Export Plug-In . SVG Version: 6.00 Build 0)  -->
<svg version="1.1" id="圖層_1" xmlns="http://www.w3.org/2000/svg" xmlns:xlink="http://www.w3.org/1999/xlink" x="0px" y="0px"
	 viewBox="0 0 300 400" style="enable-background:new 0 0 300 400;" xml:space="preserve">
<style type="text/css">
	.st0{opacity:0.5;fill:#C2A585;enable-background:new    ;}
	.st1{fill:#29252D;}
	.st2{fill:#1A1A1A;}
	.st3{fill:#333333;}
	.st4{fill:#FFC9B6;}
	.st5{fill:#606060;}
	.st6{fill:#FFB9A4;}
	.st7{fill:#040000;}
	.st8{fill:#404040;}
	.st9{fill:#DBDBDB;}
	.st10{fill:#843A24;}
	.st11{fill:#964E32;}
	.st12{fill:#A86040;}
	.st13{fill:#DBBCB2;}
	.st14{fill:#E9E9E9;}
	.st15{fill:#FFFFFF;}
	.st16{fill:#6697DD;}
	.st17{fill:#D65F5F;}
	.st18{fill:#EDE09C;}
	.st19{fill:#C6C6C6;}
	.st20{fill:#CCCCCC;}
	.st21{fill:#E3E3E3;}
	.st22{fill:#A1A1A1;}
	.st23{fill:#B3B3B3;}
	.st24{fill:#999999;}
	.st25{fill:#80A8E8;}
	.st26{fill:#95BCF4;}
	.st27{fill:#342E38;}
	.st28{fill:#FAFAFA;}
	.st29{fill:#E57676;}
	.st30{fill:#EF9A9A;}
	.st31{fill:#E2CE79;}
</style>
<g>
	<path class="st0" d="M296.6,289.9L106.3,400l-103-59.4l190.3-110.1L296.6,289.9z"/>
	<path class="st1" d="M80,264.2c0,0-0.3,2.8-1.2,5.7c-0.9,2.9,0.2,6.9,0.2,6.9s0.6,1.8,3.3,2.3c2.5,0.5,4.5-0.1,4.5-0.1
		s2.5,3,5.7,5.3c3.2,2.3,10.3,4,12.3,3.7c3.1-0.5,4.8-2.9,4.5-4.5c-0.2-1.6-3.9-5.9-6.9-7.8c-2-1.2-6.4-5.3-7.7-6.8
		c-2.2-2.4-3.8-5-3.8-5L80,264.2z"/>
	<path class="st2" d="M78.5,144.4c0,0,6.9,21.1,9.1,30.3c2.9,12.4,4.7,22.3,6.3,34c1.7,11.7-1.2,17.4-1,28.9
		c0.2,8.9,2.2,21.9,1.2,29.3c-6.1,5.7-15.3,2.9-18.2-1.1c-0.7-3-5.2-26.9-6-35.3c-0.8-8.4,1.3-15.2,1.3-15.2S59.7,186.3,55.4,176
		c-4.3-10.3-1.4-23.2-1.4-23.2L78.5,144.4z"/>
	<path class="st1" d="M33.7,287.8c0,0-1.7,6.2-1.5,9.8c0.2,3.6,1.1,4.4,2.1,5.6c1.1,1.2,2.4,0.7,2.4,0.7s0.5,7.4,4,10.4
		c3.5,3,9.8,3.3,12.8,2.2c2.9-1.1,1-6.4-1.9-11.5c-2.9-5.2-6.5-10.7-7.4-15.4C37.2,288.5,33.7,287.8,33.7,287.8z"/>
	<path class="st3" d="M43.4,150.1c0,0-7.2,5-10.7,16c-2.5,7.7-0.5,18.5,0,24.6c0.5,6.8,0,21.1,1.2,27.4c1.2,6.3,1.1,7.6,1.1,7.6
		s-3.1,13.4-4.6,30.3c-1.6,17.8-0.7,33.4-0.7,33.4s1.9,2.8,8.8,3.9c7.4,1.3,9.3-3.1,9.3-3.1s5.6-37.3,8.5-45.9
		c2.8-8.6,3.9-18.6,3.9-18.6l5.8-42.5c0,0,11.5-7.5,5.6-26.4C67.9,144.9,43.4,150.1,43.4,150.1z"/>
	<path class="st4" d="M84.3,52.6c0,0,1.3,3.4,0.4,5.8c-0.9,2.4-3.6,3.9-3.6,3.9s-7.9-1.6-9.9-4.3c-2-2.7-5.3-2.6-7.6-3.4
		c-2.3-0.8-4.5-1.3-2.2-4.2c2.3-2.9,4-5.4,7-4.9c3,0.5,6.4,2.1,8.9,3.8C79.6,51.1,84.3,52.6,84.3,52.6z"/>
	<path class="st5" d="M73.9,84.2c2.5-4.9,4.5-8.1,12.6-7.5c2.7-1.4,9.3-5.4,12.3-7.9C94.4,68,86.5,65,81.1,62.3
		c2.4-2.8,3.9-7.4,2.6-10c3.7-0.2,11.2,0.6,16.2,0.8c6.9,0.3,10.7-0.3,14,3.5c3.1,3.5,1.3,5.1,4.5,8.9c2.3,2.7,0.6,3.1-0.8,3.6
		c-2.1,3.7-4.1,9.6-6.4,13.3c-2.6,4-5.6,7.7-8.8,11.2c-4.4,4.9-11.1,12.8-18.8,11.3C82.8,104.8,69.8,92.2,73.9,84.2z"/>
	<path class="st5" d="M32.8,117c-0.4-10.5-3.6-14.9,0-21c0.2-0.4,5.3-4.6,6.7-4.5c8.8-4.9,17.9-9.6,27-13.3c4-1.7,7.1-1.8,10-0.7
		c5,10.7,12.9,28.7,7,36.9c-0.6,3.7,1.1,30.8-2.1,35c1.9,0.9,3.6,3.7,1.3,7.1c-7.9,12.2-34.4,9.4-46.6,2.2c-1.3-2.6-0.2-4.8,1.8-6.7
		c-2.3-2.3-0.7-5.1,0-6.1C34.5,137.4,33.3,129.3,32.8,117z"/>
	<path class="st5" d="M54.8,91.8L51.5,95c0,0,3.5,7.8,6.8,10.1c3.3,2.3,10,5.1,10,5.1s4.8-7.5,3.3-11.8c-1.5-4.3-7.1,0-7.1,0
		L54.8,91.8z"/>
	<path class="st5" d="M49.3,86.2l-2.6,1.4c0,0,5.2,13.1,10.1,17.6c4.9,4.4,11.4,7.1,11.4,7.1s4.9-8.3,5.5-13
		c0.5-4.7-0.4-9.5-0.4-9.5l-2.6,1.6c0,0,0.1,5.4-0.6,9.4c-0.7,4-2.8,7.5-2.8,7.5s-8.7-4.9-12.2-11.2C51.6,90.6,49.3,86.2,49.3,86.2z
		"/>
	<path class="st6" d="M69.1,79c0-0.1,0-0.2,0-0.3c-4.2,0.6-9.7-1.8-13.3-4.3c-1.9,4.7-2.4,6.5-5.4,11.3c1.6,0.1,4.7,4.4,7.3,9
		c1.1,1.9,5.8,6.9,8.8,5.8c4.6-1.8,2.3-5.4,2.4-10.6C69,86.3,69.1,82.6,69.1,79z"/>
	<path class="st4" d="M77.5,62.5c-3.8-4.7-13.3-4.4-18.6-1.2c-1.3,0.4-2.4,0.9-3.4,1.8c-3.5,3.1-3.1,8.6-2,12.6
		c1.6,6.1,10.3,20.2,18.4,14.9c4.3-2.8,7.1-9.8,7.8-14.6C80.3,71.7,80.3,65.9,77.5,62.5z"/>
	<path class="st7" d="M79.2,66.7c2,0.8,3.2-1,3.6-2.7c0.5-2.6-0.5-5.1-1.6-7.4c-2.9-5.9-10.6-7.2-16.6-6.8c-0.9,0-1.8,0.1-2.7,0.3
		c-4.7,0.9-9.8,3.3-11.2,8c-2.8,9.5,2.4,15.4,2.6,21.2c3.4-2.9,6.1-8.6,7-12C60.3,67.4,71.7,63.9,79.2,66.7z"/>
	<path class="st4" d="M61,72.7c0,0-2.4-4.1-4.7-1.1c-3.4,4.5,1.6,6.7,1.6,6.7L61,72.7z"/>
	<path class="st4" d="M57.5,62.4c-0.8-1.6-2.1-2.9-3.6-4c-1.2-0.9-2.8-1.7-4.4-2.2c1.3-1.3,3.8-4,5.6-6.2c2.4-3,4.9-3.9,9.6-2.3
		C68.4,49.1,74,50.6,76,52c2,1.4-0.2,3.8-2.9,4c-2,0.1-5.5-0.4-7.9-0.4c-0.3,0.2-4.8,3.1-6.3,3.8c-0.2,1-0.6,2.3-1.1,3.8
		C57.7,62.9,57.6,62.6,57.5,62.4z"/>
	<path class="st5" d="M26.9,86.4c-1-1-3.1-4,0.8-6.6c6.4-8.5,14.8-16.1,22.1-23.9c0.2-0.2,0.6-0.3,0.9-0.2c3.6,1.4,7.2,4.3,7.4,7.3
		c-3.7,9.3-6.9,17.5-14.3,24.6c1.3,4.8,3,12.3,2.4,19.6c-0.3,4-2.6,15.2-9.4,18.2c-3.7,0.6-8.1-9.4-9.7-13.9
		C24.3,104.5,25.1,94,26.9,86.4z"/>
	<path class="st8" d="M76.7,149.1c0,0-3.9,3.6-10.3,5c-6.5,1.4-13.6-1-13.6-1s8.4-0.6,13.3-2.3C71,149.2,76.7,149.1,76.7,149.1z"/>
	<path class="st8" d="M69.4,143.7c0,0-8.2,5.1-14.3,5.8c-6.9,0.8-14.8-0.4-14.8-0.4s7.7-2,13.7-2.7
		C59.9,145.8,69.4,143.7,69.4,143.7z"/>
	<path class="st9" d="M110.5,29.8c-0.3-7-10.6-11.1-16.1-12.9c-4.2-1.4-8.4-2.2-12.6-2.4C76.7,10.7,70.8,8,64.7,6.7
		c-6.5-1.4-16-2.3-21.6,2.1c-4.6,3.6-3.6,8.8,0.1,12.6c1.7,1.8,3.7,3.4,5.8,4.9c-3.1,2.7-5.9,5.9-8.2,9.5c-0.5,0.7,0.6,1.5,1.1,0.8
		c2.4-3.6,5.1-6.7,8.3-9.5C64,36.3,84.6,40.4,99.7,38.7C104.5,38.2,110.8,35.7,110.5,29.8z M47.4,23.1c-1.4-1.1-4.9-4.1-5.6-5.7
		c-3-7.2,4.9-9.4,9.7-10.2c4-0.7,9,0,12.9,1c5.3,1.3,10.1,3.4,14.3,6.2c-10.4,0.2-20.4,4.1-28.5,10.8C49.3,24.6,48.3,23.9,47.4,23.1
		z M86.3,37.1c-5.1-0.5-10.1-1.4-15-2.8c-6.6-1.9-13.8-4.6-19.9-8.3c8.3-6.7,18.6-10.4,29.5-10c7.1,5.4,12.6,12.8,16.4,21.4
		c0.1,0.2,0.5,0.1,0.5-0.1c-2-8.4-7.1-15.6-13.7-21c0.4,0,0.8,0.1,1.2,0.1c5.1,0.7,9.8,2.3,14.3,4.6c2,1.1,11.5,4.7,8.7,11.3
		C105.6,38.8,90,37.5,86.3,37.1z"/>
	<path class="st9" d="M45.7,10.2c-3.4,6.1,3.1,15,6.7,19.5c2.8,3.4,5.9,6.3,9.4,8.7c2.4,5.9,6,11.3,10.4,15.7
		c4.7,4.6,12.3,10.4,19.4,9.7c5.8-0.6,7.7-5.5,6.6-10.8c-0.5-2.4-1.3-4.8-2.3-7.2c4.1-0.7,8.1-1.9,12-3.7c0.8-0.3,0.3-1.6-0.5-1.2
		c-3.9,1.8-7.9,3-12.1,3.6C88.6,29.3,73.3,14.9,59.7,8.4C55.3,6.3,48.7,5,45.7,10.2z M95.7,49.3c0.6,1.7,2,6.1,1.7,7.8
		c-1.3,7.7-9.1,5.4-13.6,3.5c-3.8-1.6-7.6-4.8-10.4-7.7c-3.8-3.9-6.7-8.2-8.8-12.9c9,5.3,19.5,7.3,29.9,5.9
		C94.9,47.1,95.3,48.2,95.7,49.3z M70.2,16.8c4,3.1,7.8,6.6,11.2,10.3c4.6,5.1,9.3,11.2,12.4,17.6c-10.6,1.3-21.3-1.1-30.3-7.2
		c-3.2-8.4-3.9-17.6-2.6-26.9c0-0.3-0.4-0.4-0.5-0.1c-2.7,8.1-2.3,17,0.4,25.1c-0.3-0.2-0.6-0.5-0.9-0.7c-3.9-3.3-7.1-7.1-9.7-11.5
		c-1.2-2-7.3-10.1-1.4-14.2C54.7,5.1,67.2,14.5,70.2,16.8z"/>
	<path class="st9" d="M45.7,56.8c5.5,4.4,15.3-0.7,20.3-3.5c3.8-2.2,7.2-4.9,10.1-7.8c6.2-1.4,12.1-4.1,17.1-7.8
		c5.3-3.9,12.3-10.5,12.7-17.6c0.3-5.8-4.2-8.5-9.6-8.2c-2.4,0.1-4.9,0.5-7.5,1.1c0-4.1-0.6-8.3-1.7-12.4C87-0.3,85.7,0,85.9,0.8
		c1.1,4.1,1.7,8.3,1.7,12.5c-16.1,4.3-32.8,17.1-41.4,29.5C43.4,46.8,41.1,53.1,45.7,56.8z M92.4,13.7c1.8-0.3,6.3-1,8-0.4
		c7.4,2.5,3.9,9.8,1.3,14c-2.1,3.5-6,6.8-9.2,9.1c-4.5,3.2-9.2,5.3-14.1,6.7c6.7-8,10.4-18,10.6-28.5C90.1,14.2,91.2,14,92.4,13.7z
		 M56.2,33.8c3.7-3.5,7.7-6.6,12-9.4c5.8-3.7,12.5-7.4,19.4-9.4c-0.4,10.6-4.5,20.9-11.9,28.8c-8.8,1.8-18,1-26.9-1.8
		c-0.3-0.1-0.4,0.3-0.2,0.4c7.6,4,16.4,5,24.9,3.6c-0.3,0.3-0.6,0.6-0.9,0.8c-3.9,3.3-8.2,5.9-12.9,7.7c-2.1,0.8-11.1,5.6-14.2-0.9
		C42.2,47.1,53.5,36.3,56.2,33.8z"/>
	<path class="st5" d="M52.8,81.6l-3.5,4.6c0,0,1.7,5.3,5.7,10.7c3.3,4.5,9.4,7.4,9.4,7.4l2-3.8l5.5,1.2l-1.3-10.4L69,91.8
		c0,0-0.7,2.1-2.8,4.4C54.8,90.5,52.8,81.6,52.8,81.6z"/>
	<path class="st10" d="M275,295.4l-90.9-52.6l2-110.3l88.9,51.4V295.4z"/>
	<path class="st10" d="M169.7,356.7l-90.9-52.6V192.6l90.9,52.6V356.7z"/>
	<path class="st11" d="M281.8,291.2l-6.7,4.1V183.9l6.7-4.2V291.2z"/>
	<path class="st12" d="M286.2,178.3L108,281.1l-90.9-52.4l178.2-102.8L286.2,178.3z"/>
	<path class="st11" d="M286.2,178.3v6.4L108,287.5v-6.4L286.2,178.3z"/>
	<path class="st13" d="M17.1,228.6v6.4l90.9,52.4v-6.4L17.1,228.6z"/>
	<path class="st11" d="M174.4,244.4L108,281.1l-0.2,111.5l4.7-2.7v-12.4l57.2-33.4v12.4l4.7-2.7V244.4z"/>
	<path class="st10" d="M108,392.5l-90.9-52.6V228.5l90.9,52.6V392.5z"/>
	<path class="st14" d="M198.6,168.6l23.8-13.7l38.8,22.4L237.5,191L198.6,168.6z"/>
	<path class="st15" d="M198.6,143l23.8-13.7l38.8,22.4l-23.8,13.7L198.6,143z"/>
	<path class="st14" d="M234.6,148.9l9.2-5.3l13.4,7.7l-9.2,5.3L234.6,148.9z"/>
	<path class="st14" d="M232.3,160.1l9.2-5.3l4.8,2.8l-9.2,5.3L232.3,160.1z"/>
	<path class="st14" d="M223.8,155.2l9.2-5.3l7.6,4.4l-9.2,5.3L223.8,155.2z"/>
	<path class="st14" d="M221,154l20.4-11.7l0.8,0.5l-20.4,11.8L221,154z"/>
	<path class="st14" d="M219,152.9l20.4-11.8l0.8,0.5l-20.4,11.8L219,152.9z"/>
	<path class="st14" d="M217,151.7l20.4-11.8l0.8,0.5l-20.4,11.8L217,151.7z"/>
	<path class="st14" d="M215,150.6l20.4-11.8l0.8,0.5L215.8,151L215,150.6z"/>
	<path class="st14" d="M212.6,149.2l20.4-11.8l0.8,0.5l-20.4,11.8L212.6,149.2z"/>
	<path class="st14" d="M210.6,148l20.4-11.8l0.8,0.5l-20.4,11.8L210.6,148z"/>
	<path class="st14" d="M208.6,146.9l20.4-11.8l0.8,0.5l-20.4,11.8L208.6,146.9z"/>
	<path class="st14" d="M206.6,145.7L227,134l0.8,0.5l-20.4,11.8L206.6,145.7z"/>
	<path class="st14" d="M204.8,144.6l20.4-11.8l0.8,0.5l-20.4,11.8L204.8,144.6z"/>
	<path class="st14" d="M202.8,143.5l20.4-11.8l0.8,0.5l-20.4,11.8L202.8,143.5z"/>
	<path class="st16" d="M242.7,145.3l1-0.6l8.1,4.7l-1,0.6L242.7,145.3z"/>
	<path class="st17" d="M241.1,146.2l1-0.6l10.2,5.9l-1,0.6L241.1,146.2z"/>
	<path class="st12" d="M237.8,148.1l1-0.6l4.3,2.5l-1,0.6L237.8,148.1z"/>
	<path class="st18" d="M236.2,149l1-0.6l2.2,1.2l-1,0.6L236.2,149z"/>
	<path class="st16" d="M239.5,147.1l1-0.6l6.1,3.5l-1,0.6L239.5,147.1z"/>
	<path class="st14" d="M237.5,165.4V191l-38.8-22.4V143L237.5,165.4z"/>
	<path class="st9" d="M261.3,151.6l-23.8,13.7V191l23.8-13.7V151.6z"/>
	<path class="st15" d="M222.1,162.1l15.3,8.4l8-4.6l-9.3,9.2L222.1,162.1z"/>
	<path class="st9" d="M213.7,173.8c0,0,6.8,3.5,12.9,7s9.1,4.7,9.1,4.7s-8.8-5-12.5-7.1C219.6,176.4,213.7,173.8,213.7,173.8z"/>
	<path class="st9" d="M202.4,165.4c0,0,6.8,3.5,12.9,7c6.1,3.5,9.1,4.7,9.1,4.7s-8.8-5-12.5-7.1C208.3,168,202.4,165.4,202.4,165.4z
		"/>
	<path class="st19" d="M258.3,175.5c0,0-3.2,1.9-9.3,5.4c-6.1,3.5-9.1,4.7-9.1,4.7s8.8-5,12.5-7.1
		C256,176.4,258.3,175.5,258.3,175.5z"/>
	<path class="st19" d="M257.6,164.4c0,0-3.2,1.9-9.3,5.4c-6.1,3.5-9.1,4.7-9.1,4.7s8.8-5,12.5-7.1
		C255.3,165.4,257.6,164.4,257.6,164.4z"/>
	<path class="st19" d="M259.2,167c0,0-3.2,1.9-9.3,5.4c-6.1,3.5-9.1,4.7-9.1,4.7s8.8-5,12.5-7.1C256.9,167.9,259.2,167,259.2,167z"
		/>
	<path class="st9" d="M201.2,155.9c0,0,6.8,3.5,12.9,7c6.1,3.5,9.1,4.7,9.1,4.7s-8.8-5-12.5-7.1
		C207.1,158.5,201.2,155.9,201.2,155.9z"/>
	<path class="st20" d="M95.4,191h2.9l50.9-29.4c0.7-0.4,2-0.4,2.8,0.1l30.7,17.7h2.7v1.9c0.1,0.3-0.1,0.7-0.5,0.9L131.6,213
		c-0.7,0.4-3.1,1-3.9,0.5L96.1,194c-0.6-0.3-0.8-0.7-0.7-1.1C95.4,192.9,95.4,191,95.4,191z"/>
	<path class="st21" d="M131.6,210.9l53.3-30.8c0.7-0.4,0.6-1.1-0.2-1.6L152,159.6c-0.8-0.5-2.1-0.5-2.8-0.1l-53.3,30.8
		c-0.7,0.4-0.6,1.1,0.2,1.6l31.6,19.5C128.5,211.8,130.8,211.3,131.6,210.9z"/>
	<path class="st22" d="M130.6,208.4l49.1-28.4c0.6-0.4,0.5-1-0.2-1.4l-21.4-12.3c-0.7-0.4-1.8-0.5-2.4-0.1l-49.1,28.4
		c-0.6,0.4-0.5,1,0.2,1.4l21.4,12.3C128.9,208.7,130,208.8,130.6,208.4z"/>
	<path class="st23" d="M128.4,180.2l8.3-4.8l-6.6-3.8l-8.3,4.8L128.4,180.2z"/>
	<path class="st23" d="M137.8,174.8l2.3-1.3c0.7-0.4,0.6-1.1-0.2-1.5l-3.7-2.2c-0.8-0.5-2-0.5-2.7-0.1l-2.3,1.3L137.8,174.8z"/>
	<path class="st23" d="M127.4,180.8l-2.3,1.3c-0.7,0.4-1.9,0.3-2.7-0.1l-3.7-2.2c-0.8-0.5-0.9-1.1-0.2-1.5l2.3-1.3L127.4,180.8z"/>
	<path class="st24" d="M126.6,206.5l2,1.1c0.6,0.3,1.4,0.4,1.9,0.1l2.3-1.3c0.5-0.3,0.4-0.8-0.1-1.1l-2-1.1
		c-0.6-0.3-1.4-0.4-1.9-0.1l-2.3,1.3C126,205.7,126.1,206.2,126.6,206.5z"/>
	<path class="st24" d="M131.2,203.9l2,1.1c0.6,0.3,1.4,0.4,1.9,0.1l2.3-1.3c0.5-0.3,0.4-0.8-0.1-1.1l-2-1.1
		c-0.6-0.3-1.4-0.4-1.9-0.1l-2.3,1.3C130.6,203.1,130.6,203.6,131.2,203.9z"/>
	<path class="st24" d="M135.8,201.3l2,1.1c0.6,0.3,1.4,0.4,1.9,0.1l2.3-1.3c0.5-0.3,0.4-0.8-0.1-1.1l-2-1.1
		c-0.6-0.3-1.4-0.4-1.9-0.1l-2.3,1.3C135.1,200.4,135.2,200.9,135.8,201.3z"/>
	<path class="st24" d="M140.3,198.6l2,1.1c0.6,0.3,1.4,0.4,1.9,0.1l2.3-1.3c0.5-0.3,0.4-0.8-0.1-1.1l-2-1.1
		c-0.6-0.3-1.4-0.4-1.9-0.1l-2.3,1.3C139.7,197.8,139.8,198.3,140.3,198.6z"/>
	<path class="st24" d="M144.9,196l2,1.1c0.6,0.3,1.4,0.4,1.9,0.1l2.3-1.3c0.5-0.3,0.4-0.8-0.1-1.1l-2-1.1c-0.6-0.3-1.4-0.4-1.9-0.1
		l-2.3,1.3C144.3,195.2,144.3,195.7,144.9,196z"/>
	<path class="st24" d="M149.5,193.4l2,1.1c0.6,0.3,1.4,0.4,1.9,0.1l2.3-1.3c0.5-0.3,0.4-0.8-0.1-1.1l-2-1.1
		c-0.6-0.3-1.4-0.4-1.9-0.1l-2.3,1.3C148.9,192.5,148.9,193,149.5,193.4z"/>
	<path class="st24" d="M154.1,190.7l2,1.1c0.6,0.3,1.4,0.4,1.9,0.1l2.3-1.3c0.5-0.3,0.4-0.8-0.1-1.1l-2-1.1
		c-0.6-0.3-1.4-0.4-1.9-0.1l-2.3,1.3C153.4,189.9,153.5,190.4,154.1,190.7z"/>
	<path class="st24" d="M158.6,188.1l2,1.1c0.6,0.3,1.4,0.4,1.9,0.1l2.3-1.3c0.5-0.3,0.4-0.8-0.1-1.1l-2-1.1
		c-0.6-0.3-1.4-0.4-1.9-0.1l-2.3,1.3C158,187.3,158.1,187.8,158.6,188.1z"/>
	<path class="st24" d="M163.2,185.4l2,1.1c0.6,0.3,1.4,0.4,1.9,0.1l2.3-1.3c0.5-0.3,0.4-0.8-0.1-1.1l-2-1.1
		c-0.6-0.3-1.4-0.4-1.9-0.1l-2.3,1.3C162.6,184.6,162.6,185.1,163.2,185.4z"/>
	<path class="st24" d="M167.8,182.8l2,1.1c0.6,0.3,1.4,0.4,1.9,0.1l2.3-1.3c0.5-0.3,0.4-0.8-0.1-1.1l-2-1.1
		c-0.6-0.3-1.4-0.4-1.9-0.1l-2.3,1.3C167.1,182,167.2,182.5,167.8,182.8z"/>
	<path class="st24" d="M172.3,180.2l2,1.1c0.6,0.3,1.4,0.4,1.9,0.1l2.3-1.3c0.5-0.3,0.4-0.8-0.1-1.1l-2-1.1
		c-0.6-0.3-1.4-0.4-1.9-0.1l-2.3,1.3C171.7,179.4,171.8,179.8,172.3,180.2z"/>
	<path class="st24" d="M122,203.9l2,1.1c0.6,0.3,1.4,0.4,1.9,0.1l3.7-2.1c0.5-0.3,0.4-0.8-0.1-1.1l-2-1.2c-0.6-0.3-1.4-0.4-1.9-0.1
		l-3.7,2.1C121.3,203,121.4,203.5,122,203.9z"/>
	<path class="st24" d="M127.5,200.7l2,1.1c0.6,0.3,1.4,0.4,1.9,0.1l2.3-1.3c0.5-0.3,0.4-0.8-0.1-1.1l-2-1.1
		c-0.6-0.3-1.4-0.4-1.9-0.1l-2.3,1.3C126.9,199.8,126.9,200.3,127.5,200.7z"/>
	<path class="st24" d="M131.6,198.3l2,1.2c0.6,0.3,1.4,0.4,1.9,0.1l2.3-1.3c0.5-0.3,0.4-0.8-0.1-1.1l-2-1.2
		c-0.6-0.3-1.4-0.4-1.9-0.1l-2.3,1.3C130.9,197.5,131,198,131.6,198.3z"/>
	<path class="st24" d="M135.6,196l2,1.1c0.6,0.3,1.4,0.4,1.9,0.1l2.3-1.3c0.5-0.3,0.4-0.8-0.1-1.1l-2-1.1c-0.6-0.3-1.4-0.4-1.9-0.1
		l-2.3,1.3C135,195.2,135,195.7,135.6,196z"/>
	<path class="st24" d="M139.6,193.7l2,1.1c0.6,0.3,1.4,0.4,1.9,0.1l2.3-1.3c0.5-0.3,0.4-0.8-0.1-1.1l-2-1.1
		c-0.6-0.3-1.4-0.4-1.9-0.1l-2.3,1.3C139,192.9,139.1,193.3,139.6,193.7z"/>
	<path class="st24" d="M143.7,191.3l2,1.1c0.6,0.3,1.4,0.4,1.9,0.1l2.3-1.3c0.5-0.3,0.4-0.8-0.1-1.1l-2-1.2
		c-0.6-0.3-1.4-0.4-1.9-0.1l-2.3,1.3C143.1,190.5,143.1,191,143.7,191.3z"/>
	<path class="st24" d="M147.7,189l2,1.1c0.6,0.3,1.4,0.4,1.9,0.1l2.3-1.3c0.5-0.3,0.4-0.8-0.1-1.1l-2-1.1c-0.6-0.3-1.4-0.4-1.9-0.1
		l-2.3,1.3C147.1,188.2,147.2,188.7,147.7,189z"/>
	<path class="st24" d="M151.8,186.7l2,1.1c0.6,0.3,1.4,0.4,1.9,0.1l2.3-1.3c0.5-0.3,0.4-0.8-0.1-1.1l-2-1.1
		c-0.6-0.3-1.4-0.4-1.9-0.1l-2.3,1.3C151.1,185.9,151.2,186.3,151.8,186.7z"/>
	<path class="st24" d="M155.8,184.3l2,1.1c0.6,0.3,1.4,0.4,1.9,0.1l2.3-1.3c0.5-0.3,0.4-0.8-0.1-1.1l-2-1.1
		c-0.6-0.3-1.4-0.4-1.9-0.1l-2.3,1.3C155.2,183.5,155.2,184,155.8,184.3z"/>
	<path class="st24" d="M159.9,182l2,1.1c0.6,0.3,1.4,0.4,1.9,0.1l2.3-1.3c0.5-0.3,0.4-0.8-0.1-1.1l-2-1.1c-0.6-0.3-1.4-0.4-1.9-0.1
		l-2.3,1.3C159.2,181.2,159.3,181.7,159.9,182z"/>
	<path class="st24" d="M163.9,179.7l2,1.1c0.6,0.3,1.4,0.4,1.9,0.1l2.3-1.3c0.5-0.3,0.4-0.8-0.1-1.1l-2-1.2
		c-0.6-0.3-1.4-0.4-1.9-0.1l-2.3,1.3C163.3,178.9,163.3,179.3,163.9,179.7z"/>
	<path class="st24" d="M123.8,197.5l2,1.1c0.6,0.3,1.4,0.4,1.9,0.1l2.3-1.3c0.5-0.3,0.4-0.8-0.1-1.1l-2-1.1
		c-0.6-0.3-1.4-0.4-1.9-0.1l-2.3,1.3C123.2,196.6,123.2,197.1,123.8,197.5z"/>
	<path class="st24" d="M127.8,195.1l2,1.2c0.6,0.3,1.4,0.4,1.9,0.1l2.3-1.3c0.5-0.3,0.4-0.8-0.1-1.1l-2-1.2
		c-0.6-0.3-1.4-0.4-1.9-0.1l-2.3,1.3C127.2,194.3,127.2,194.8,127.8,195.1z"/>
	<path class="st24" d="M131.8,192.8l2,1.1c0.6,0.3,1.4,0.4,1.9,0.1l2.3-1.3c0.5-0.3,0.4-0.8-0.1-1.1l-2-1.1
		c-0.6-0.3-1.4-0.4-1.9-0.1l-2.3,1.3C131.2,192,131.2,192.5,131.8,192.8z"/>
	<path class="st24" d="M135.8,190.5l2,1.2c0.6,0.3,1.4,0.4,1.9,0.1l2.3-1.3c0.5-0.3,0.4-0.8-0.1-1.1l-2-1.1
		c-0.6-0.3-1.4-0.4-1.9-0.1l-2.3,1.3C135.2,189.7,135.2,190.2,135.8,190.5z"/>
	<path class="st24" d="M139.8,188.2l2,1.1c0.6,0.3,1.4,0.4,1.9,0.1l2.3-1.3c0.5-0.3,0.4-0.8-0.1-1.1l-2-1.2
		c-0.6-0.3-1.4-0.4-1.9-0.1l-2.3,1.3C139.2,187.4,139.3,187.9,139.8,188.2z"/>
	<path class="st24" d="M143.8,185.9l2,1.1c0.6,0.3,1.4,0.4,1.9,0.1l2.3-1.3c0.5-0.3,0.4-0.8-0.1-1.1l-2-1.1
		c-0.6-0.3-1.4-0.4-1.9-0.1l-2.3,1.3C143.2,185.1,143.3,185.6,143.8,185.9z"/>
	<path class="st24" d="M147.8,183.6l2,1.2c0.6,0.3,1.4,0.4,1.9,0.1l2.3-1.3c0.5-0.3,0.4-0.8-0.1-1.1l-2-1.2
		c-0.6-0.3-1.4-0.4-1.9-0.1l-2.3,1.3C147.2,182.8,147.3,183.2,147.8,183.6z"/>
	<path class="st24" d="M151.8,181.3l2,1.1c0.6,0.3,1.4,0.4,1.9,0.1l2.3-1.3c0.5-0.3,0.4-0.8-0.1-1.1l-2-1.1
		c-0.6-0.3-1.4-0.4-1.9-0.1l-2.3,1.3C151.2,180.4,151.3,180.9,151.8,181.3z"/>
	<path class="st24" d="M121.1,193.6l2,1.2c0.6,0.3,1.4,0.4,1.9,0.1l2.3-1.3c0.5-0.3,0.4-0.8-0.1-1.1l-2-1.1
		c-0.6-0.3-1.4-0.4-1.9-0.1l-2.3,1.3C120.5,192.8,120.6,193.3,121.1,193.6z"/>
	<path class="st24" d="M125.1,191.3l2,1.1c0.6,0.3,1.4,0.4,1.9,0.1l2.3-1.3c0.5-0.3,0.4-0.8-0.1-1.1l-2-1.2
		c-0.6-0.3-1.4-0.4-1.9-0.1l-2.3,1.3C124.5,190.5,124.6,191,125.1,191.3z"/>
	<path class="st24" d="M129.1,189l2,1.1c0.6,0.3,1.4,0.4,1.9,0.1l2.3-1.3c0.5-0.3,0.4-0.8-0.1-1.1l-2-1.1c-0.6-0.3-1.4-0.4-1.9-0.1
		l-2.3,1.3C128.5,188.2,128.6,188.7,129.1,189z"/>
	<path class="st24" d="M107.9,195.8l2,1.1c0.6,0.3,1.4,0.4,1.9,0.1l2.3-1.3c0.5-0.3,0.4-0.8-0.1-1.1l-2-1.1
		c-0.6-0.3-1.4-0.4-1.9-0.1l-2.3,1.3C107.3,195,107.4,195.5,107.9,195.8z"/>
	<path class="st24" d="M112,193.5l2,1.1c0.6,0.3,1.4,0.4,1.9,0.1l2.3-1.3c0.5-0.3,0.4-0.8-0.1-1.1l-2-1.1c-0.6-0.3-1.4-0.4-1.9-0.1
		l-2.3,1.3C111.3,192.7,111.4,193.2,112,193.5z"/>
	<path class="st24" d="M116,191.2l2,1.1c0.6,0.3,1.4,0.4,1.9,0.1l2.3-1.3c0.5-0.3,0.4-0.8-0.1-1.1l-2-1.1c-0.6-0.3-1.4-0.4-1.9-0.1
		l-2.3,1.3C115.3,190.4,115.4,190.9,116,191.2z"/>
	<path class="st24" d="M145.7,174.1l2,1.1c0.6,0.3,1.4,0.4,1.9,0.1l2.3-1.3c0.5-0.3,0.4-0.8-0.1-1.1l-2-1.1
		c-0.6-0.3-1.4-0.4-1.9-0.1l-2.3,1.3C145.1,173.2,145.1,173.7,145.7,174.1z"/>
	<path class="st24" d="M149.7,171.8l2,1.1c0.6,0.3,1.4,0.4,1.9,0.1l2.3-1.3c0.5-0.3,0.4-0.8-0.1-1.1l-2-1.1
		c-0.6-0.3-1.4-0.4-1.9-0.1l-2.3,1.3C149.1,170.9,149.2,171.4,149.7,171.8z"/>
	<path class="st24" d="M153.7,169.4l2,1.1c0.6,0.3,1.4,0.4,1.9,0.1l2.3-1.3c0.5-0.3,0.4-0.8-0.1-1.1l-2-1.1
		c-0.6-0.3-1.4-0.4-1.9-0.1l-2.3,1.3C153.1,168.6,153.2,169.1,153.7,169.4z"/>
	<path class="st24" d="M133.2,186.7l2,1.2c0.6,0.3,1.4,0.4,1.9,0.1l2.3-1.3c0.5-0.3,0.4-0.8-0.1-1.1l-2-1.2
		c-0.6-0.3-1.4-0.4-1.9-0.1l-2.3,1.3C132.5,185.9,132.6,186.3,133.2,186.7z"/>
	<path class="st24" d="M137.2,184.4l2,1.1c0.6,0.3,1.4,0.4,1.9,0.1l2.3-1.3c0.5-0.3,0.4-0.8-0.1-1.1l-2-1.1
		c-0.6-0.3-1.4-0.4-1.9-0.1l-2.3,1.3C136.5,183.5,136.6,184,137.2,184.4z"/>
	<path class="st24" d="M141.2,182l2,1.1c0.6,0.3,1.4,0.4,1.9,0.1l2.3-1.3c0.5-0.3,0.4-0.8-0.1-1.1l-2-1.1c-0.6-0.3-1.4-0.4-1.9-0.1
		l-2.3,1.3C140.6,181.2,140.6,181.7,141.2,182z"/>
	<path class="st24" d="M145.2,179.7l2,1.2c0.6,0.3,1.4,0.4,1.9,0.1l2.3-1.3c0.5-0.3,0.4-0.8-0.1-1.1l-2-1.2
		c-0.6-0.3-1.4-0.4-1.9-0.1l-2.3,1.3C144.6,178.9,144.6,179.4,145.2,179.7z"/>
	<path class="st24" d="M149.2,177.4l2,1.1c0.6,0.3,1.4,0.4,1.9,0.1l2.3-1.3c0.5-0.3,0.4-0.8-0.1-1.1l-2-1.1
		c-0.6-0.3-1.4-0.4-1.9-0.1l-2.3,1.3C148.6,176.6,148.6,177.1,149.2,177.4z"/>
	<path class="st24" d="M155.9,178.9l2,1.1c0.6,0.3,1.4,0.4,1.9,0.1l2.3-1.3c0.5-0.3,0.4-0.8-0.1-1.1l-2-1.2
		c-0.6-0.3-1.4-0.4-1.9-0.1l-2.3,1.3C155.2,178.1,155.3,178.6,155.9,178.9z"/>
	<path class="st24" d="M167.7,177.5l2,1.1c0.6,0.3,1.4,0.4,1.9,0.1l2.3-1.3c0.5-0.3,0.4-0.8-0.1-1.1l-2-1.1
		c-0.6-0.3-1.4-0.4-1.9-0.1l-2.3,1.3C167.1,176.7,167.1,177.2,167.7,177.5z"/>
	<path class="st24" d="M117.3,201.2l2,1.1c0.6,0.3,1.4,0.4,1.9,0.1l4.7-2.7c0.5-0.3,0.4-0.8-0.1-1.1l-2-1.1
		c-0.6-0.3-1.4-0.4-1.9-0.1l-4.7,2.7C116.7,200.4,116.8,200.8,117.3,201.2z"/>
	<path class="st24" d="M153.5,175l2,1.1c0.6,0.3,1.4,0.4,1.9,0.1l7.2-4.2c0.5-0.3,0.4-0.8-0.1-1.1l-2-1.1c-0.6-0.3-1.4-0.4-1.9-0.1
		l-7.2,4.2C152.8,174.1,152.9,174.6,153.5,175z"/>
	<path class="st24" d="M120.3,188.8l2,1.1c0.6,0.3,1.4,0.4,1.9,0.1l23.4-13.5c0.5-0.3,0.4-0.8-0.1-1.1l-2-1.1
		c-0.6-0.3-1.4-0.4-1.9-0.1l-23.4,13.5C119.6,187.9,119.7,188.4,120.3,188.8z"/>
	<path class="st24" d="M112.7,198.5l2,1.1c0.6,0.3,1.4,0.4,1.9,0.1l6.1-3.5c0.5-0.3,0.4-0.8-0.1-1.1l-2-1.1
		c-0.6-0.3-1.4-0.4-1.9-0.1l-6.1,3.5C112,197.7,112.1,198.2,112.7,198.5z"/>
	<path class="st24" d="M159.9,176.6l2,1.2c0.6,0.3,1.4,0.4,1.9,0.1l5.4-3.1c0.5-0.3,0.4-0.8-0.1-1.1l-2-1.1
		c-0.6-0.3-1.4-0.4-1.9-0.1l-5.4,3.1C159.3,175.8,159.3,176.3,159.9,176.6z"/>
	<path class="st20" d="M128.8,204l-2.3,1.3c-0.4,0.2-0.3,0.6,0.1,0.8l2,1.2c0.4,0.2,1,0.3,1.4,0.1l2.3-1.3c0.4-0.2,0.3-0.6-0.1-0.8
		l-2-1.2C129.8,203.8,129.2,203.8,128.8,204z"/>
	<path class="st20" d="M133.4,201.3l-2.3,1.3c-0.4,0.2-0.3,0.6,0.1,0.8l2,1.2c0.4,0.2,1,0.3,1.4,0.1l2.3-1.3
		c0.4-0.2,0.3-0.6-0.1-0.8l-2-1.2C134.4,201.2,133.7,201.1,133.4,201.3z"/>
	<path class="st20" d="M138,198.7l-2.3,1.3c-0.4,0.2-0.3,0.6,0.1,0.8l2,1.2c0.4,0.2,1,0.3,1.4,0.1l2.3-1.3c0.4-0.2,0.3-0.6-0.1-0.8
		l-2-1.2C138.9,198.5,138.3,198.5,138,198.7z"/>
	<path class="st20" d="M142.5,196.1l-2.3,1.3c-0.4,0.2-0.3,0.6,0.1,0.8l2,1.2c0.4,0.2,1,0.3,1.4,0.1l2.3-1.3
		c0.4-0.2,0.3-0.6-0.1-0.8l-2-1.2C143.5,195.9,142.9,195.8,142.5,196.1z"/>
	<path class="st20" d="M147.1,193.4l-2.3,1.3c-0.4,0.2-0.3,0.6,0.1,0.8l2,1.2c0.4,0.2,1,0.3,1.4,0.1l2.3-1.3
		c0.4-0.2,0.3-0.6-0.1-0.8l-2-1.2C148.1,193.2,147.5,193.2,147.1,193.4z"/>
	<path class="st20" d="M151.7,190.8l-2.3,1.3c-0.4,0.2-0.3,0.6,0.1,0.8l2,1.2c0.4,0.2,1,0.3,1.4,0.1l2.3-1.3
		c0.4-0.2,0.3-0.6-0.1-0.8l-2-1.2C152.7,190.6,152,190.6,151.7,190.8z"/>
	<path class="st20" d="M156.2,188.1l-2.3,1.3c-0.4,0.2-0.3,0.6,0.1,0.8l2,1.2c0.4,0.2,1,0.3,1.4,0.1l2.3-1.3
		c0.4-0.2,0.3-0.6-0.1-0.8l-2-1.2C157.2,188,156.6,187.9,156.2,188.1z"/>
	<path class="st20" d="M160.8,185.5l-2.3,1.3c-0.4,0.2-0.3,0.6,0.1,0.8l2,1.2c0.4,0.2,1,0.3,1.4,0.1l2.3-1.3
		c0.4-0.2,0.3-0.6-0.1-0.8l-2-1.2C161.8,185.3,161.2,185.3,160.8,185.5z"/>
	<path class="st20" d="M165.4,182.9l-2.3,1.3c-0.4,0.2-0.3,0.6,0.1,0.8l2,1.2c0.4,0.2,1,0.3,1.4,0.1l2.3-1.3
		c0.4-0.2,0.3-0.6-0.1-0.8l-2-1.2C166.4,182.7,165.7,182.7,165.4,182.9z"/>
	<path class="st20" d="M170,180.2l-2.3,1.3c-0.4,0.2-0.3,0.6,0.1,0.8l2,1.2c0.4,0.2,1,0.3,1.4,0.1l2.3-1.3c0.4-0.2,0.3-0.6-0.1-0.8
		l-2-1.2C170.9,180.1,170.3,180,170,180.2z"/>
	<path class="st20" d="M174.5,177.6l-2.3,1.3c-0.4,0.2-0.3,0.6,0.1,0.8l2,1.2c0.4,0.2,1,0.3,1.4,0.1l2.3-1.3
		c0.4-0.2,0.3-0.6-0.1-0.8l-2-1.2C175.5,177.4,174.9,177.4,174.5,177.6z"/>
	<path class="st20" d="M125.5,200.5l-3.6,2.1c-0.4,0.2-0.3,0.6,0.1,0.8l2,1.2c0.4,0.2,1,0.3,1.4,0.1l3.6-2.1
		c0.4-0.2,0.3-0.6-0.1-0.8l-2-1.2C126.5,200.3,125.9,200.3,125.5,200.5z"/>
	<path class="st20" d="M129.7,198.1l-2.3,1.3c-0.4,0.2-0.3,0.6,0.1,0.8l2,1.2c0.4,0.2,1,0.3,1.4,0.1l2.3-1.3
		c0.4-0.2,0.3-0.6-0.1-0.8l-2-1.2C130.7,197.9,130.1,197.9,129.7,198.1z"/>
	<path class="st20" d="M133.7,195.8l-2.3,1.3c-0.4,0.2-0.3,0.6,0.1,0.8l2,1.2c0.4,0.2,1,0.3,1.4,0.1l2.3-1.3
		c0.4-0.2,0.3-0.6-0.1-0.8l-2-1.2C134.7,195.6,134.1,195.6,133.7,195.8z"/>
	<path class="st20" d="M137.8,193.4l-2.3,1.3c-0.4,0.2-0.3,0.6,0.1,0.8l2,1.2c0.4,0.2,1,0.3,1.4,0.1l2.3-1.3
		c0.4-0.2,0.3-0.6-0.1-0.8l-2-1.2C138.8,193.2,138.1,193.2,137.8,193.4z"/>
	<path class="st20" d="M141.8,191.1l-2.3,1.3c-0.4,0.2-0.3,0.6,0.1,0.8l2,1.2c0.4,0.2,1,0.3,1.4,0.1l2.3-1.3
		c0.4-0.2,0.3-0.6-0.1-0.8l-2-1.2C142.8,190.9,142.2,190.9,141.8,191.1z"/>
	<path class="st20" d="M145.9,188.8l-2.3,1.3c-0.4,0.2-0.3,0.6,0.1,0.8l2,1.2c0.4,0.2,1,0.3,1.4,0.1l2.3-1.3
		c0.4-0.2,0.3-0.6-0.1-0.8l-2-1.2C146.9,188.6,146.2,188.6,145.9,188.8z"/>
	<path class="st20" d="M149.9,186.4l-2.3,1.3c-0.4,0.2-0.3,0.6,0.1,0.8l2,1.2c0.4,0.2,1,0.3,1.4,0.1l2.3-1.3
		c0.4-0.2,0.3-0.6-0.1-0.8l-2-1.2C150.9,186.3,150.3,186.2,149.9,186.4z"/>
	<path class="st20" d="M153.9,184.1l-2.3,1.3c-0.4,0.2-0.3,0.6,0.1,0.8l2,1.2c0.4,0.2,1,0.3,1.4,0.1l2.3-1.3
		c0.4-0.2,0.3-0.6-0.1-0.8l-2-1.2C154.9,183.9,154.3,183.9,153.9,184.1z"/>
	<path class="st20" d="M158,181.8l-2.3,1.3c-0.4,0.2-0.3,0.6,0.1,0.8l2,1.2c0.4,0.2,1,0.3,1.4,0.1l2.3-1.3c0.4-0.2,0.3-0.6-0.1-0.8
		l-2-1.2C159,181.6,158.3,181.6,158,181.8z"/>
	<path class="st20" d="M162,179.4l-2.3,1.3c-0.4,0.2-0.3,0.6,0.1,0.8l2,1.2c0.4,0.2,1,0.3,1.4,0.1l2.3-1.3c0.4-0.2,0.3-0.6-0.1-0.8
		l-2-1.2C163,179.3,162.4,179.2,162,179.4z"/>
	<path class="st20" d="M166.1,177.1l-2.3,1.3c-0.4,0.2-0.3,0.6,0.1,0.8l2,1.2c0.4,0.2,1,0.3,1.4,0.1l2.3-1.3
		c0.4-0.2,0.3-0.6-0.1-0.8l-2-1.2C167.1,176.9,166.4,176.9,166.1,177.1z"/>
	<path class="st20" d="M126,194.9l-2.3,1.3c-0.4,0.2-0.3,0.6,0.1,0.8l2,1.2c0.4,0.2,1,0.3,1.4,0.1l2.3-1.3c0.4-0.2,0.3-0.6-0.1-0.8
		l-2-1.2C126.9,194.7,126.3,194.7,126,194.9z"/>
	<path class="st20" d="M130,192.6l-2.3,1.3c-0.4,0.2-0.3,0.6,0.1,0.8l2,1.2c0.4,0.2,1,0.3,1.4,0.1l2.3-1.3c0.4-0.2,0.3-0.6-0.1-0.8
		l-2-1.2C131,192.4,130.3,192.4,130,192.6z"/>
	<path class="st20" d="M134,190.3l-2.3,1.3c-0.4,0.2-0.3,0.6,0.1,0.8l2,1.2c0.4,0.2,1,0.3,1.4,0.1l2.3-1.3c0.4-0.2,0.3-0.6-0.1-0.8
		l-2-1.2C135,190.1,134.3,190,134,190.3z"/>
	<path class="st20" d="M138,187.9l-2.3,1.3c-0.4,0.2-0.3,0.6,0.1,0.8l2,1.2c0.4,0.2,1,0.3,1.4,0.1l2.3-1.3c0.4-0.2,0.3-0.6-0.1-0.8
		l-2-1.2C139,187.8,138.4,187.7,138,187.9z"/>
	<path class="st20" d="M142,185.6l-2.3,1.3c-0.4,0.2-0.3,0.6,0.1,0.8l2,1.2c0.4,0.2,1,0.3,1.4,0.1l2.3-1.3c0.4-0.2,0.3-0.6-0.1-0.8
		l-2-1.2C143,185.4,142.4,185.4,142,185.6z"/>
	<path class="st20" d="M146,183.3l-2.3,1.3c-0.4,0.2-0.3,0.6,0.1,0.8l2,1.2c0.4,0.2,1,0.3,1.4,0.1l2.3-1.3c0.4-0.2,0.3-0.6-0.1-0.8
		l-2-1.2C147,183.1,146.4,183.1,146,183.3z"/>
	<path class="st20" d="M150,181l-2.3,1.3c-0.4,0.2-0.3,0.6,0.1,0.8l2,1.2c0.4,0.2,1,0.3,1.4,0.1l2.3-1.3c0.4-0.2,0.3-0.6-0.1-0.8
		l-2-1.2C151,180.8,150.4,180.8,150,181z"/>
	<path class="st20" d="M154,178.7l-2.3,1.3c-0.4,0.2-0.3,0.6,0.1,0.8l2,1.2c0.4,0.2,1,0.3,1.4,0.1l2.3-1.3c0.4-0.2,0.3-0.6-0.1-0.8
		l-2-1.2C155,178.5,154.4,178.5,154,178.7z"/>
	<path class="st20" d="M123.3,191l-2.3,1.3c-0.4,0.2-0.3,0.6,0.1,0.8l2,1.2c0.4,0.2,1,0.3,1.4,0.1l2.3-1.3c0.4-0.2,0.3-0.6-0.1-0.8
		l-2-1.2C124.3,190.9,123.7,190.8,123.3,191z"/>
	<path class="st20" d="M127.3,188.7l-2.3,1.3c-0.4,0.2-0.3,0.6,0.1,0.8l2,1.2c0.4,0.2,1,0.3,1.4,0.1l2.3-1.3
		c0.4-0.2,0.3-0.6-0.1-0.8l-2-1.2C128.3,188.5,127.7,188.5,127.3,188.7z"/>
	<path class="st20" d="M131.3,186.4l-2.3,1.3c-0.4,0.2-0.3,0.6,0.1,0.8l2,1.2c0.4,0.2,1,0.3,1.4,0.1l2.3-1.3
		c0.4-0.2,0.3-0.6-0.1-0.8l-2-1.2C132.3,186.2,131.7,186.2,131.3,186.4z"/>
	<path class="st20" d="M110.1,193.3l-2.3,1.3c-0.4,0.2-0.3,0.6,0.1,0.8l2,1.2c0.4,0.2,1,0.3,1.4,0.1l2.3-1.3
		c0.4-0.2,0.3-0.6-0.1-0.8l-2-1.2C111.1,193.1,110.5,193.1,110.1,193.3z"/>
	<path class="st20" d="M114.1,191l-2.3,1.3c-0.4,0.2-0.3,0.6,0.1,0.8l2,1.2c0.4,0.2,1,0.3,1.4,0.1l2.3-1.3c0.4-0.2,0.3-0.6-0.1-0.8
		l-2-1.2C115.1,190.8,114.5,190.8,114.1,191z"/>
	<path class="st20" d="M118.2,188.7l-2.3,1.3c-0.4,0.2-0.3,0.6,0.1,0.8l2,1.2c0.4,0.2,1,0.3,1.4,0.1l2.3-1.3
		c0.4-0.2,0.3-0.6-0.1-0.8l-2-1.2C119.1,188.5,118.5,188.4,118.2,188.7z"/>
	<path class="st20" d="M147.9,171.5l-2.3,1.3c-0.4,0.2-0.3,0.6,0.1,0.8l2,1.2c0.4,0.2,1,0.3,1.4,0.1l2.3-1.3
		c0.4-0.2,0.3-0.6-0.1-0.8l-2-1.2C148.9,171.3,148.3,171.3,147.9,171.5z"/>
	<path class="st20" d="M151.9,169.2l-2.3,1.3c-0.4,0.2-0.3,0.6,0.1,0.8l2,1.2c0.4,0.2,1,0.3,1.4,0.1l2.3-1.3
		c0.4-0.2,0.3-0.6-0.1-0.8l-2-1.2C152.9,169,152.3,169,151.9,169.2z"/>
	<path class="st20" d="M155.9,166.9l-2.3,1.3c-0.4,0.2-0.3,0.6,0.1,0.8l2,1.2c0.4,0.2,1,0.3,1.4,0.1l2.3-1.3
		c0.4-0.2,0.3-0.6-0.1-0.8l-2-1.2C156.9,166.7,156.3,166.7,155.9,166.9z"/>
	<path class="st20" d="M135.3,184.1l-2.3,1.3c-0.4,0.2-0.3,0.6,0.1,0.8l2,1.2c0.4,0.2,1,0.3,1.4,0.1l2.3-1.3
		c0.4-0.2,0.3-0.6-0.1-0.8l-2-1.2C136.3,183.9,135.7,183.9,135.3,184.1z"/>
	<path class="st20" d="M139.4,181.8l-2.3,1.3c-0.4,0.2-0.3,0.6,0.1,0.8l2,1.2c0.4,0.2,1,0.3,1.4,0.1l2.3-1.3
		c0.4-0.2,0.3-0.6-0.1-0.8l-2-1.2C140.3,181.6,139.7,181.6,139.4,181.8z"/>
	<path class="st20" d="M143.4,179.5l-2.3,1.3c-0.4,0.2-0.3,0.6,0.1,0.8l2,1.2c0.4,0.2,1,0.3,1.4,0.1l2.3-1.3
		c0.4-0.2,0.3-0.6-0.1-0.8l-2-1.2C144.4,179.3,143.7,179.3,143.4,179.5z"/>
	<path class="st20" d="M147.4,177.2l-2.3,1.3c-0.4,0.2-0.3,0.6,0.1,0.8l2,1.2c0.4,0.2,1,0.3,1.4,0.1l2.3-1.3
		c0.4-0.2,0.3-0.6-0.1-0.8l-2-1.2C148.4,177,147.7,177,147.4,177.2z"/>
	<path class="st20" d="M151.4,174.9l-2.3,1.3c-0.4,0.2-0.3,0.6,0.1,0.8l2,1.2c0.4,0.2,1,0.3,1.4,0.1l2.3-1.3
		c0.4-0.2,0.3-0.6-0.1-0.8l-2-1.2C152.4,174.7,151.7,174.6,151.4,174.9z"/>
	<path class="st20" d="M158,176.4l-2.3,1.3c-0.4,0.2-0.3,0.6,0.1,0.8l2,1.2c0.4,0.2,1,0.3,1.4,0.1l2.3-1.3c0.4-0.2,0.3-0.6-0.1-0.8
		l-2-1.2C159,176.2,158.4,176.2,158,176.4z"/>
	<path class="st20" d="M169.9,174.9l-2.3,1.3c-0.4,0.2-0.3,0.6,0.1,0.8l2,1.2c0.4,0.2,1,0.3,1.4,0.1l2.3-1.3
		c0.4-0.2,0.3-0.6-0.1-0.8l-2-1.2C170.9,174.7,170.2,174.7,169.9,174.9z"/>
	<path class="st20" d="M121.9,197.2l-4.6,2.7c-0.4,0.2-0.3,0.6,0.1,0.8l2,1.2c0.4,0.2,1,0.3,1.4,0.1l4.6-2.7
		c0.4-0.2,0.3-0.6-0.1-0.8l-2-1.2C122.9,197.1,122.2,197,121.9,197.2z"/>
	<path class="st20" d="M160.6,169.6l-7.2,4.1c-0.4,0.2-0.3,0.6,0.1,0.8l2,1.2c0.4,0.2,1,0.3,1.4,0.1l7.2-4.1
		c0.4-0.2,0.3-0.6-0.1-0.8l-2-1.2C161.6,169.4,160.9,169.3,160.6,169.6z"/>
	<path class="st20" d="M143.5,174l-23.3,13.5c-0.4,0.2-0.3,0.6,0.1,0.8l2,1.2c0.4,0.2,1,0.3,1.4,0.1l23.3-13.5
		c0.4-0.2,0.3-0.6-0.1-0.8l-2-1.2C144.5,173.8,143.9,173.8,143.5,174z"/>
	<path class="st20" d="M118.7,193.7l-6.1,3.5c-0.4,0.2-0.3,0.6,0.1,0.8l2,1.2c0.4,0.2,1,0.3,1.4,0.1l6.1-3.5
		c0.4-0.2,0.3-0.6-0.1-0.8l-2-1.2C119.7,193.5,119.1,193.5,118.7,193.7z"/>
	<path class="st20" d="M165.2,172.2l-5.4,3.1c-0.4,0.2-0.3,0.6,0.1,0.8l2,1.2c0.4,0.2,1,0.3,1.4,0.1l5.4-3.1
		c0.4-0.2,0.3-0.6-0.1-0.8l-2-1.2C166.2,172.1,165.6,172,165.2,172.2z"/>
	<path class="st20" d="M133.3,211.7l53.1-32c0.5-0.3,0.9-1,0.9-1.6l1.1-32.7c0-0.6-1.5-1.3-2.1-1.1l-53.9,31.2
		c-0.5,0.3-0.9,1-0.9,1.6v33.2C131.6,210.9,132.8,212,133.3,211.7z"/>
	<path class="st21" d="M133.6,211.6l53.9-31.2c0.5-0.3,0.9-1,0.9-1.6v-33.2c0-0.6-0.4-0.8-0.9-0.5l-53.9,31.2
		c-0.5,0.3-0.9,1-0.9,1.6v33.2C132.7,211.7,133.1,211.9,133.6,211.6z"/>
	<path class="st23" d="M165.2,174.8c-0.2,0.5-0.4,0.8-0.5,1.3c-0.4,1.4,0.1,2.7,0.9,2.9c0.1,0,0.1,0.1,0.1,0.3
		c-0.1,0.9-0.3,1.7-0.6,2.5c-0.3,0.9-0.7,1.2-1.2,1.2c-0.2,0-0.4,0-0.6,0.1c-0.2,0.1-0.5,0.4-0.7,0.5c0,0-0.1,0.1-0.1,0.1
		c-0.5,0.6-0.8,0.7-1.3,0.3c-0.9-0.9-1.4-2.2-1.5-4c-0.1-1.2,0.2-2.3,0.8-3.2c0.4-0.5,0.8-0.8,1.2-0.8c0.9,0,0.6,0.1,1.4-0.8
		c0.6-0.6,1.1-0.8,1.7-0.6C164.9,174.6,165,174.7,165.2,174.8z"/>
	<path class="st23" d="M163.6,171.9c0,0.3,0,0.5,0,0.7c-0.1,0.9-0.3,1.6-0.8,2.2c-0.1,0.1-0.2,0.2-0.3,0.3c-0.2,0.1-0.2,0.1-0.2-0.2
		c0-0.8,0.2-1.5,0.5-2.2C163,172.5,163.3,172.2,163.6,171.9z"/>
	<path class="st25" d="M44.2,229.4L70.9,214l40.9,23.6L85.1,253L44.2,229.4z"/>
	<path class="st26" d="M44.2,218.5L71,203.1l40.9,23.6l-26.7,15.4L44.2,218.5z"/>
	<path class="st25" d="M85.1,242.1l0,10.9l-40.9-23.6l0-10.9L85.1,242.1z"/>
	<path class="st27" d="M82.5,242.9l-2.7-1.6l0,7l2.7,1.6L82.5,242.9z"/>
	<path class="st28" d="M56.5,227.8l0,7l23.3,13.5l0-7L56.5,227.8z"/>
	<path class="st27" d="M78.9,243.2l0-0.9l-21.3-12.3v0.9L78.9,243.2z"/>
	<path class="st15" d="M85.3,250.3l24.6-14.2l0-8.2l-24.6,14.3L85.3,250.3z"/>
	<path class="st26" d="M111.8,237.6v-0.4l-26.3,15.2l0-9.9l26.3-15.2v-0.6l-26.7,15.4l0,10.9L111.8,237.6z"/>
	<path class="st25" d="M111.8,237.2l-1.9-1.1l-24.4,14l0,2.2L111.8,237.2z"/>
	<path class="st14" d="M96.5,237.3c4.1-1.8,8.2-4,11.9-6.5c0,0,0-0.1,0,0c-4,2.2-7.9,4.4-12,6.5C96.4,237.3,96.5,237.4,96.5,237.3z"
		/>
	<path class="st14" d="M91.4,245.1c4.1-1.8,8.2-4,11.9-6.5c0,0,0-0.1,0,0c-4,2.2-7.9,4.4-12,6.5C91.3,245.1,91.4,245.2,91.4,245.1z"
		/>
	<path class="st14" d="M86.9,246.4c1.5-0.7,2.8-1.6,4.2-2.3c1.4-0.8,2.8-1.6,4.2-2.4c0.1-0.1,0-0.2-0.1-0.1
		C92.4,242.8,89.3,244.4,86.9,246.4C86.8,246.4,86.9,246.4,86.9,246.4z"/>
	<path class="st28" d="M51.6,226.3c-1.5-0.8-2.6-0.3-2.6,1.1c0,1.5,1.2,3.3,2.6,4.2c1.5,0.8,2.6,0.3,2.6-1.1
		C54.3,229,53.1,227.1,51.6,226.3z"/>
	<path class="st14" d="M53.2,231.4c-0.3,0-0.7-0.1-1.2-0.3c-1.2-0.7-2.2-2.2-2.2-3.5c0-0.6,0.2-1,0.6-1.2c-0.6,0-1,0.5-1,1.3
		c0,1.2,1,2.8,2.2,3.5C52.2,231.5,52.8,231.6,53.2,231.4z"/>
	<path class="st16" d="M49.8,227.6c0,1.2,1,2.8,2.2,3.5c0.4,0.3,0.8,0.4,1.2,0.3c0.4-0.2,0.6-0.6,0.6-1.2c0-1.2-1-2.8-2.2-3.5
		c-0.4-0.3-0.8-0.4-1.2-0.3C50,226.6,49.8,227,49.8,227.6z"/>
	<path class="st29" d="M87.3,247.6l2.5-1.4c0,0,2.7,1.5,3.5,2c2.1,1.2,2.9,2.6,2.9,2.6l-2.5,1.4c0,0-1.1-1.6-3.9-3.2
		C89.2,248.7,87.3,247.6,87.3,247.6z"/>
	<path class="st18" d="M103.6,237.1l2-1.2l6.3,3.6l-2,1.2L103.6,237.1z"/>
	<path class="st18" d="M96.8,238.5l2-1.2c0,0,3,1.7,3.9,2.3c0.6,0.3,1.6,1.2,1.6,1.2l-2,1.2c0,0-0.9-0.8-1.4-1.2
		C99.8,240.3,96.8,238.5,96.8,238.5z"/>
	<path class="st25" d="M51.2,219.8l26.7-15.4l40.9,23.6l-26.7,15.4L51.2,219.8z"/>
	<path class="st29" d="M51.2,208.8L78,193.4l40.9,23.6l-26.7,15.4L51.2,208.8z"/>
	<path class="st17" d="M92.1,232.4l0,10.9l-40.9-23.6l0-10.9L92.1,232.4z"/>
	<path class="st27" d="M89.5,233.2l-2.7-1.6l0,7l2.7,1.6L89.5,233.2z"/>
	<path class="st28" d="M63.5,218.2l0,7l23.3,13.5l0-7L63.5,218.2z"/>
	<path class="st27" d="M85.9,233.5l0-0.9l-21.3-12.3v0.9L85.9,233.5z"/>
	<path class="st15" d="M92.3,240.6l24.6-14.2l0-8.2l-24.6,14.3L92.3,240.6z"/>
	<path class="st30" d="M118.8,228v-0.4l-26.3,15.2l0-9.9l26.3-15.2l0-0.6l-26.7,15.4l0,10.9L118.8,228z"/>
	<path class="st17" d="M118.8,227.5l-1.9-1.1l-24.4,14.1l0,2.2L118.8,227.5z"/>
	<path class="st14" d="M103.6,227.7c4.1-1.8,8.2-4,11.9-6.5c0,0,0-0.1,0,0c-4,2.2-7.9,4.4-12,6.5
		C103.4,227.6,103.5,227.7,103.6,227.7z"/>
	<path class="st14" d="M98.4,235.5c4.1-1.8,8.2-4,11.9-6.5c0,0,0-0.1,0,0c-4,2.2-7.9,4.4-12,6.5C98.3,235.4,98.4,235.5,98.4,235.5z"
		/>
	<path class="st14" d="M93.9,236.8c1.5-0.7,2.8-1.5,4.2-2.3c1.4-0.8,2.8-1.6,4.2-2.4c0.1-0.1,0-0.2-0.1-0.1
		C99.4,233.2,96.3,234.7,93.9,236.8C93.8,236.7,93.9,236.8,93.9,236.8z"/>
	<path class="st28" d="M58.6,216.6c-1.5-0.8-2.6-0.3-2.6,1.1c0,1.5,1.2,3.3,2.6,4.2c1.5,0.8,2.6,0.3,2.6-1.1
		C61.3,219.3,60.1,217.4,58.6,216.6z"/>
	<path class="st14" d="M60.2,221.7c-0.3,0-0.7-0.1-1.2-0.3c-1.2-0.7-2.2-2.2-2.2-3.5c0-0.6,0.2-1,0.6-1.2c-0.6,0-1,0.5-1,1.3
		c0,1.2,1,2.8,2.2,3.5C59.2,221.9,59.8,221.9,60.2,221.7z"/>
	<path class="st17" d="M56.8,218c0,1.2,1,2.8,2.2,3.5c0.4,0.3,0.8,0.4,1.2,0.3c0.4-0.2,0.6-0.6,0.6-1.2c0-1.2-1-2.8-2.2-3.5
		c-0.4-0.3-0.8-0.4-1.2-0.3C57,217,56.8,217.4,56.8,218z"/>
	<path class="st25" d="M94.3,237.9l2.5-1.4c0,0,2.7,1.5,3.5,2c2.1,1.2,2.9,2.6,2.9,2.6l-2.5,1.4c0,0-1.1-1.6-3.9-3.2
		C96.2,239,94.3,237.9,94.3,237.9z"/>
	<path class="st29" d="M110.6,227.4l2-1.2l6.3,3.6l-2,1.2L110.6,227.4z"/>
	<path class="st18" d="M103.8,228.9l2-1.2c0,0,3,1.7,3.9,2.3c0.6,0.3,1.6,1.2,1.6,1.2l-2,1.2c0,0-0.9-0.8-1.4-1.1
		C106.8,230.6,103.8,228.9,103.8,228.9z"/>
	<path class="st25" d="M52,207l26.7-15.4l40.9,23.6l-26.7,15.4L52,207z"/>
	<path class="st18" d="M52.1,196.1l26.7-15.4l40.9,23.6L93,219.6L52.1,196.1z"/>
	<path class="st31" d="M93,219.6l0,10.9L52,207l0-10.9L93,219.6z"/>
	<path class="st27" d="M90.4,220.4l-2.7-1.6l0,7l2.7,1.6L90.4,220.4z"/>
	<path class="st28" d="M64.3,205.4l0,7l23.3,13.5l0-7L64.3,205.4z"/>
	<path class="st27" d="M86.7,220.8v-0.9l-21.3-12.3l0,0.9L86.7,220.8z"/>
	<path class="st15" d="M93.1,227.8l24.6-14.2l0-8.2l-24.6,14.3L93.1,227.8z"/>
	<path class="st18" d="M119.6,215.2v-0.4l-26.3,15.2l0-9.9l26.3-15.2v-0.6L93,219.6l0,10.9L119.6,215.2z"/>
	<path class="st31" d="M119.6,214.7l-1.9-1.1l-24.4,14l0,2.2L119.6,214.7z"/>
	<path class="st14" d="M104.4,214.9c4.1-1.8,8.2-4,11.9-6.5c0,0,0-0.1,0,0c-4,2.2-7.9,4.4-12,6.5
		C104.2,214.8,104.3,214.9,104.4,214.9z"/>
	<path class="st14" d="M99.2,222.7c4.1-1.8,8.2-4,11.9-6.5c0,0,0-0.1,0,0c-4,2.2-7.9,4.4-12,6.5C99.1,222.6,99.2,222.7,99.2,222.7z"
		/>
	<path class="st14" d="M94.7,224c1.5-0.7,2.8-1.5,4.2-2.3c1.4-0.8,2.8-1.6,4.2-2.4c0.1-0.1,0-0.2-0.1-0.1
		C100.2,220.4,97.1,221.9,94.7,224C94.7,224,94.7,224,94.7,224z"/>
	<path class="st28" d="M59.5,203.8c-1.5-0.8-2.6-0.3-2.6,1.1c0,1.5,1.2,3.3,2.6,4.2c1.5,0.8,2.6,0.3,2.6-1.1S60.9,204.7,59.5,203.8z
		"/>
	<path class="st14" d="M61,209c-0.3,0-0.7-0.1-1.2-0.3c-1.2-0.7-2.2-2.2-2.2-3.5c0-0.6,0.2-1,0.6-1.2c-0.6,0-1,0.5-1,1.3
		c0,1.2,1,2.8,2.2,3.5C60,209.1,60.6,209.1,61,209z"/>
	<path class="st31" d="M57.6,205.2c0,1.2,1,2.8,2.2,3.5c0.4,0.3,0.8,0.4,1.2,0.3c0.4-0.2,0.6-0.6,0.6-1.2c0-1.2-1-2.8-2.2-3.5
		c-0.4-0.3-0.8-0.4-1.2-0.3C57.8,204.2,57.6,204.6,57.6,205.2z"/>
	<path class="st25" d="M95.1,225.1l2.5-1.4c0,0,2.7,1.5,3.5,2c2.1,1.2,2.9,2.6,2.9,2.6l-2.5,1.4c0,0-1.1-1.6-3.9-3.2
		C97,226.3,95.1,225.1,95.1,225.1z"/>
	<path class="st29" d="M111.4,214.6l2-1.2l6.3,3.6l-2,1.2L111.4,214.6z"/>
	<path class="st18" d="M104.6,216.1l2-1.2c0,0,3,1.7,3.9,2.3c0.6,0.3,1.6,1.2,1.6,1.2l-2,1.2c0,0-0.9-0.8-1.4-1.1
		C107.6,217.9,104.6,216.1,104.6,216.1z"/>
	<path class="st14" d="M219,208.8l-23.8-13.7l-38.8,22.4l23.8,13.7L219,208.8z"/>
	<path class="st15" d="M219,183.2l-23.8-13.7l-38.8,22.4l23.8,13.7L219,183.2z"/>
	<path class="st14" d="M196.5,194.2l-20.4-11.8l-0.8,0.5l20.4,11.8L196.5,194.2z"/>
	<path class="st14" d="M198.5,193.1l-20.4-11.8l-0.8,0.5l20.4,11.8L198.5,193.1z"/>
	<path class="st14" d="M200.5,191.9l-20.4-11.8l-0.8,0.5l20.4,11.8L200.5,191.9z"/>
	<path class="st14" d="M202.5,190.8L182.2,179l-0.8,0.5l20.4,11.7L202.5,190.8z"/>
	<path class="st14" d="M187.8,199.2l-20.4-11.8l-0.8,0.5l20.4,11.8L187.8,199.2z"/>
	<path class="st14" d="M189.8,198l-20.4-11.8l-0.8,0.5l20.4,11.8L189.8,198z"/>
	<path class="st14" d="M191.8,196.9l-20.4-11.8l-0.8,0.5l20.4,11.8L191.8,196.9z"/>
	<path class="st14" d="M193.7,195.7L173.4,184l-0.8,0.5l20.4,11.8L193.7,195.7z"/>
	<path class="st14" d="M181.8,202.6l-20.4-11.7l-0.8,0.5l20.4,11.7L181.8,202.6z"/>
	<path class="st14" d="M183.8,201.5l-20.4-11.7l-0.8,0.5L183,202L183.8,201.5z"/>
	<path class="st14" d="M185.8,200.4l-20.4-11.8l-0.8,0.5l20.4,11.8L185.8,200.4z"/>
	<path class="st14" d="M187.8,199.2l-20.4-11.8l-0.8,0.5l20.4,11.8L187.8,199.2z"/>
	<path class="st14" d="M204.9,189.4l-20.4-11.8l-0.8,0.5l20.4,11.8L204.9,189.4z"/>
	<path class="st14" d="M206.9,188.2l-20.4-11.8l-0.8,0.5l20.4,11.8L206.9,188.2z"/>
	<path class="st14" d="M208.9,187.1l-20.4-11.7l-0.8,0.5l20.4,11.7L208.9,187.1z"/>
	<path class="st14" d="M210.9,185.9l-20.4-11.7l-0.8,0.5l20.4,11.7L210.9,185.9z"/>
	<path class="st14" d="M212.8,184.9l-20.4-11.7l-0.8,0.5l20.4,11.7L212.8,184.9z"/>
	<path class="st14" d="M214.8,183.7L194.4,172l-0.8,0.5l20.4,11.8L214.8,183.7z"/>
	<path class="st14" d="M180.1,205.6v25.6l38.8-22.4v-25.6L180.1,205.6z"/>
	<path class="st9" d="M156.3,191.9l23.8,13.7v25.6l-23.8-13.7V191.9z"/>
	<path class="st15" d="M195.5,202.3l-15.3,8.4l-8-4.6l9.3,9.2L195.5,202.3z"/>
	<path class="st9" d="M203.9,214c0,0-6.8,3.5-12.9,7c-6.1,3.5-9.1,4.7-9.1,4.7s8.8-5,12.5-7.1C198,216.6,203.9,214,203.9,214z"/>
	<path class="st9" d="M215.2,205.6c0,0-6.8,3.5-12.9,7c-6.1,3.5-9.1,4.7-9.1,4.7s8.8-5,12.5-7.1
		C209.3,208.2,215.2,205.6,215.2,205.6z"/>
	<path class="st19" d="M159.3,215.7c0,0,3.2,1.9,9.3,5.4c6.1,3.5,9.1,4.7,9.1,4.7s-8.8-5-12.5-7.1
		C161.6,216.6,159.3,215.7,159.3,215.7z"/>
	<path class="st19" d="M160,204.7c0,0,3.2,1.9,9.3,5.4c6.1,3.5,9.1,4.7,9.1,4.7s-8.8-5-12.5-7.1C162.3,205.6,160,204.7,160,204.7z"
		/>
	<path class="st19" d="M158.4,207.2c0,0,3.2,1.9,9.3,5.4c6.1,3.5,9.1,4.7,9.1,4.7s-8.8-5-12.5-7.1
		C160.7,208.2,158.4,207.2,158.4,207.2z"/>
	<path class="st9" d="M216.4,196.1c0,0-6.8,3.5-12.9,7c-6.1,3.5-9.1,4.7-9.1,4.7s8.8-5,12.5-7.1
		C210.4,198.7,216.4,196.1,216.4,196.1z"/>
</g>
</svg>
