<?xml version="1.0" encoding="utf-8"?>
<!-- Generator: Adobe Illustrator 25.3.1, SVG Export Plug-In . SVG Version: 6.00 Build 0)  -->
<svg version="1.1" id="圖層_1" xmlns="http://www.w3.org/2000/svg" xmlns:xlink="http://www.w3.org/1999/xlink" x="0px" y="0px"
	 viewBox="0 0 200 30" style="enable-background:new 0 0 200 30;" xml:space="preserve">
<style type="text/css">
	.st0{clip-path:url(#SVGID_2_);}
	.st1{fill:url(#SVGID_3_);}
	.st2{fill:url(#SVGID_4_);}
	.st3{fill:url(#SVGID_5_);}
	.st4{fill:url(#SVGID_6_);}
	.st5{fill:url(#SVGID_7_);}
	.st6{fill:url(#SVGID_8_);}
	.st7{fill:url(#SVGID_9_);}
	.st8{fill:url(#SVGID_10_);}
	.st9{fill:url(#SVGID_11_);}
	.st10{fill:url(#SVGID_12_);}
	.st11{fill:url(#SVGID_13_);}
</style>
<g>
	<defs>
		<rect id="SVGID_1_" y="0.4" width="200" height="29.2"/>
	</defs>
	<clipPath id="SVGID_2_">
		<use xlink:href="#SVGID_1_"  style="overflow:visible;"/>
	</clipPath>
	<g class="st0">
		<g>
			
				<linearGradient id="SVGID_3_" gradientUnits="userSpaceOnUse" x1="55.3214" y1="11.4266" x2="55.3802" y2="0.1503" gradientTransform="matrix(1 0 0 -1 0 31)">
				<stop  offset="0" style="stop-color:#FFFFFF"/>
				<stop  offset="1" style="stop-color:#469EC9"/>
			</linearGradient>
			<path class="st1" d="M63.7,14h-3.3l0.2-2.5H49.8L49.6,14h-3.2l0.4-6h6.6l0.2-2.1h4.1l-0.2,2.1h6.7L63.7,14z"/>
		</g>
		<g>
			
				<linearGradient id="SVGID_4_" gradientUnits="userSpaceOnUse" x1="10.0508" y1="8.6274" x2="9.931" y2="1.662" gradientTransform="matrix(1 0 0 -1 0 31)">
				<stop  offset="0" style="stop-color:#FFFFFF"/>
				<stop  offset="1" style="stop-color:#469EC9"/>
			</linearGradient>
			<path class="st2" d="M19.9,9.1h-7.5L12.3,10h8l-0.6,6.7h-3.1l0.3-3.6H12l-0.4,4.1H8.5l0.4-4.1H4.1l-0.3,3.6H0.6L1.2,10h7.9
				l0.1-0.9H1.8l0.3-3.2h18.1L19.9,9.1z M0.3,21.8h18.9l-0.3,3.1H6.6l-1.2,1.5H14l-0.1-0.9h3.2l0.6,3.8H0.9l0.2-2.7l1.3-1.7H0
				L0.3,21.8z M1.1,17.9h18l-0.2,2.8h-18L1.1,17.9z M4.6,13.7h3.5L8,15.1H4.5L4.6,13.7z M4.4,15.8H8l-0.1,1.4H4.3L4.4,15.8z
				 M12.5,13.7h3.5l-0.1,1.4h-3.5L12.5,13.7z M12.4,15.8h3.5l-0.1,1.4h-3.5L12.4,15.8z"/>
		</g>
		<g>
			
				<linearGradient id="SVGID_5_" gradientUnits="userSpaceOnUse" x1="31.9391" y1="8.2562" x2="31.8215" y2="1.2908" gradientTransform="matrix(1 0 0 -1 0 31)">
				<stop  offset="0" style="stop-color:#FFFFFF"/>
				<stop  offset="1" style="stop-color:#469EC9"/>
			</linearGradient>
			<path class="st3" d="M26.1,14.2c0,2.6-0.1,5.1-0.3,7.7c0.6-3,1.1-6,1.3-9.1h2.7c-0.5,4.1-1.1,7.6-1.8,10.6c0,0,0.3-0.1,0.9-0.2
				l0.4-0.1L29,27c-2,0.5-4.4,0.8-7.1,0.8l0.4-4c1,0,2,0,3.2-0.1l0.3-1.2h-2.4c0.2-2.9,0.3-5.6,0.3-8.2v-1.4l2.5,0L26.1,14.2
				L26.1,14.2z M30.3,11.9H23l0.3-3.7h2.1l0.2-2.3H29l-0.2,2.3h1.8L30.3,11.9z M30.4,13.8h11.7L41.8,17h-4.5L37,18.1h4.8l-0.6,8.8
				c-0.1,0.7-0.3,1.3-0.7,1.7c-0.4,0.4-0.9,0.7-1.5,0.7h-2.4l-0.2-1.9h-0.6l0.4-6.3h-0.9l-0.5,7.2h-1.9l0.5-7.2h-0.8L32,29.2h-2.7
				l0.8-11.1h3.6L34,17h-3.9L30.4,13.8L30.4,13.8z M31.5,6.6h2.7l-0.2,3.1H35l0.3-3.8h3l-0.3,3.8h1.1l0.2-3.1H42L41.7,11
				c-0.1,1.2-0.6,1.8-1.6,1.8H31L31.5,6.6L31.5,6.6z M37.9,25.8c0.4,0,0.6-0.3,0.7-0.8l0.3-3.9h-0.8l-0.3,4.7H37.9z"/>
		</g>
		<g>
			
				<linearGradient id="SVGID_6_" gradientUnits="userSpaceOnUse" x1="77.1496" y1="7.489" x2="77.0319" y2="0.5236" gradientTransform="matrix(1 0 0 -1 0 31)">
				<stop  offset="0" style="stop-color:#FFFFFF"/>
				<stop  offset="1" style="stop-color:#469EC9"/>
			</linearGradient>
			<path class="st4" d="M85.7,29.2h-19l0.3-4h7.7l0.2-2.2h-5.5l0.3-3.6h5.5l0.2-2h-4.8l0.2-2.3c-0.9,0.3-2,0.4-3.3,0.6l0.4-4.7
				c2.4-0.1,4.3-0.6,5.6-1.5c1.3-0.8,2.2-2.1,2.8-3.6h4.1c0.7,3.4,3.2,5.2,7.7,5.4l-0.4,4.3c-1.3-0.1-2.5-0.4-3.6-0.8l-0.2,2.5h-4.8
				l-0.2,2h5.7L84,22.9h-5.7l-0.2,2.2H86L85.7,29.2z M81.1,13.6c-0.8-0.5-1.5-1.1-2.1-1.7c-0.6-0.6-1-1.3-1.2-2
				c-0.8,1.5-2,2.7-3.7,3.7H81.1L81.1,13.6z"/>
		</g>
		<g>
			
				<linearGradient id="SVGID_7_" gradientUnits="userSpaceOnUse" x1="111.4679" y1="6.9074" x2="111.3502" y2="-5.795512e-02" gradientTransform="matrix(1 0 0 -1 0 31)">
				<stop  offset="0" style="stop-color:#FFFFFF"/>
				<stop  offset="1" style="stop-color:#469EC9"/>
			</linearGradient>
			<path class="st5" d="M107.8,7.3h15.1l-0.3,3.1h-0.9l-0.3,2.9h1l-0.3,3.1h-1l-0.3,3.1h1.4l-0.3,3.1h-20.8l0.3-3.1h1.6l0.3-3.1
				h-1.4l0.3-3.1h1.4l0.1-1h-2.2l2.9-6.4h4.1L107.8,7.3L107.8,7.3z M101.9,23.7h4.1l-1.7,5.4h-4.1L101.9,23.7z M108.5,13.4l0.3-2.9
				h-1.7l-0.3,2.9H108.5z M107.9,19.7l0.3-3.1h-1.7l-0.3,3.1H107.9z M110.4,23.7l0.6,5.4h-3.8l-0.6-5.4H110.4z M113.4,13.4l0.3-2.9
				h-1.7l-0.3,2.9H113.4z M112.8,19.7l0.3-3.1h-1.7l-0.3,3.1H112.8z M115.5,23.7l0.7,5.4h-3.8l-0.6-5.4H115.5z M118.3,13.4l0.3-2.9
				h-1.7l-0.3,2.9H118.3z M117.7,19.7l0.3-3.1h-1.7l-0.3,3.1H117.7z M120.6,23.7l0.6,5.4h-3.8l-0.6-5.4H120.6z"/>
		</g>
		<g>
			
				<linearGradient id="SVGID_8_" gradientUnits="userSpaceOnUse" x1="137.5962" y1="6.4662" x2="137.4788" y2="-0.4992" gradientTransform="matrix(1 0 0 -1 0 31)">
				<stop  offset="0" style="stop-color:#FFFFFF"/>
				<stop  offset="1" style="stop-color:#469EC9"/>
			</linearGradient>
			<path class="st6" d="M126.1,15.4c0.2-1.5,0.3-3.3,0.5-5.4h1.8c-0.1,1.1-0.2,2.2-0.3,3.6c-0.1,1.3-0.2,2.4-0.3,3.2
				c-0.2,2.3-0.4,4.4-0.6,6.1h-1.9C125.7,19.5,126,17,126.1,15.4L126.1,15.4z M132.4,5.8l-0.6,6.6l0.8,0.4c0.6-1.2,1.1-2.4,1.5-3.7
				c0.5-1.2,0.8-2.4,1.1-3.3h3.1l-0.4,1.4h4.4c-0.2,1.5-0.6,2.9-1.1,4.1h1.5l-1.4,15.3c-0.1,0.8-0.4,1.4-0.8,1.9
				c-0.5,0.4-1.1,0.6-2,0.6h-1.3l-0.2-2.8h-1.2l0.4-3.9h-0.8l-0.1,0.5c-0.2,1.8-0.6,3.2-1.2,4.3c-0.7,1.1-1.7,1.8-3.1,2.2l0.4-5
				c0.5-0.3,0.8-0.6,1-1.1c0.2-0.4,0.3-1,0.4-1.7l0.7-7.4h-0.4l-0.4,4.9l-1.2-0.6l-1,10.8h-3.1l2.1-23.5L132.4,5.8L132.4,5.8z
				 M136.3,19.8l0.2-1.6h-0.8l-0.2,1.6H136.3z M136.7,15.7l0.1-1.6H136l-0.1,1.6H136.7z M138.3,11.3c0.2-0.5,0.4-0.9,0.5-1.4H137
				l-0.5,1.4H138.3z M138.9,25.5l0.3-3.1h-1l-0.3,3.1H138.9z M139.4,19.8l0.1-1.6h-1l-0.2,1.6H139.4z M139.8,15.7l0.1-1.6h-1
				l-0.1,1.6H139.8z M142.7,16.7h1.6l-0.1,1.2h0.5l0.2-1.8h3.3l-0.2,1.8h1.7l-0.3,3h-1.7l-0.2,2h2.1l-0.3,3.2h-2l-0.3,3.5h-3.3
				l0.3-3.5h-2.2l0.4-3.2h2.2l0.2-2h-0.8c0,0.2-0.1,0.6-0.2,1.1h-1.5C142.2,19.9,142.5,18.2,142.7,16.7L142.7,16.7z M143.9,11.3
				c0.2-0.3,0.4-0.7,0.5-1.3h-1.6l0.3-3.2h7.1l-0.6,7.1c-0.1,1.2-0.7,1.8-1.9,1.8h-2l-0.1-2c-0.7,1.4-1.7,2.2-3,2.4l0.4-4.1
				C143.4,11.8,143.7,11.6,143.9,11.3L143.9,11.3z M147,12.3l0.2-2.3h-0.7c-0.2,1.1-0.3,1.8-0.5,2.3H147L147,12.3z"/>
		</g>
		<g>
			
				<linearGradient id="SVGID_9_" gradientUnits="userSpaceOnUse" x1="187.7321" y1="5.6153" x2="187.6147" y2="-1.3501" gradientTransform="matrix(1 0 0 -1 0 31)">
				<stop  offset="0" style="stop-color:#FFFFFF"/>
				<stop  offset="1" style="stop-color:#469EC9"/>
			</linearGradient>
			<path class="st7" d="M185.3,6.4h4.6l-0.1,1.7h-4.6l-0.1,0.7h4.3l-0.5,5.7h-4.3l-0.1,0.6h4.7l-0.1,1.7h-4.7l-0.1,1.1h1.4l0-0.6
				h2.9l-0.2,2.4l3-2.8l-2.3-2.3h3.8l1.1,1l1.9-1.7h-6.6l0.2-2.4h10.1l-0.2,2.4l-2.9,3l2.8,2.9h-3.9l-1.5-1.5l-1.6,1.5h-4l0,0h-11.6
				l0.2-2.4h2.9l0,0.6h1.4l0.1-1.1h-4.8l0.1-1.7h4.8l0.1-0.6h-4.3l0.5-5.7h4.3l0.1-0.7h-4.7l0.1-1.7h4.7l0.1-0.6h3.1L185.3,6.4
				L185.3,6.4z M175.9,25.1h9.6l0.1-0.6H177l0.1-1.7h8.5l0.1-0.6l-8.8,0.1l0.2-1.9l21.1-0.4L198,22l-8.5,0.1l-0.1,0.7h8.2l-0.1,1.7
				h-8.2l-0.1,0.6h9.2l-0.2,1.9h-9.2l-0.2,2.2h-7.1l0.1-1.6h3.3l0.1-0.6h-9.6L175.9,25.1z M182.2,11.1l0.1-0.6h-1.9l-0.1,0.6H182.2z
				 M182.1,12.8l0.1-0.6h-1.9l-0.1,0.6H182.1z M186.3,11.1l0.1-0.6h-1.9l-0.1,0.6H186.3z M186.1,12.8l0.1-0.6h-1.9l-0.1,0.6H186.1z
				 M190.5,6.2h8.7L199,8.8h1l-0.2,2.1h-4.3l0.2-2.2h-2.3l-0.4,2.2h-3.4L190.5,6.2z"/>
		</g>
		<g>
			
				<linearGradient id="SVGID_10_" gradientUnits="userSpaceOnUse" x1="163.2444" y1="6.0318" x2="163.1246" y2="-0.9358" gradientTransform="matrix(1 0 0 -1 0 31)">
				<stop  offset="0" style="stop-color:#FFFFFF"/>
				<stop  offset="1" style="stop-color:#469EC9"/>
			</linearGradient>
			<path class="st8" d="M169.4,28.8c-0.4,0.4-1,0.6-1.7,0.6h-5.4l-0.4-4.5h4.1c0.4,0,0.7-0.3,0.7-0.8l1.5-14.3h-15.3l0.3-3.7h21
				l-0.3,3.7h-2.1l-1.7,17C170.1,27.7,169.8,28.3,169.4,28.8L169.4,28.8z"/>
			
				<linearGradient id="SVGID_11_" gradientUnits="userSpaceOnUse" x1="159.3326" y1="6.0974" x2="159.2149" y2="-0.8679" gradientTransform="matrix(1 0 0 -1 0 31)">
				<stop  offset="0" style="stop-color:#FFFFFF"/>
				<stop  offset="1" style="stop-color:#469EC9"/>
			</linearGradient>
			<path class="st9" d="M165.7,13.7l0-0.4c0-0.2-0.2-0.4-0.4-0.4H165c-0.9,0-1.7-0.2-2.5-0.5c-0.8-0.3-1.5-0.8-2-1.4l-0.3-0.3
				c-0.1-0.1-0.2-0.1-0.3-0.1s-0.2,0-0.3,0.1l-0.4,0.3c-0.6,0.6-1.4,1.1-2.3,1.4c-0.8,0.3-1.7,0.5-2.6,0.5H154
				c-0.2,0-0.3,0.1-0.4,0.3l-0.1,0.4c0,0-0.2,0.9-0.3,2c-0.3,3,0.7,5,1.6,6.2c1.2,1.5,2.6,2.3,3.6,2.5l0.1,0c0,0,0.1,0,0.1,0
				c0,0,0,0,0.1,0l0.1,0c1-0.2,2.6-1,4-2.5c1.1-1.2,2.4-3.2,2.7-6.2C165.7,14.5,165.7,13.7,165.7,13.7L165.7,13.7z M164,15.6
				c-0.1,1.1-0.4,2.1-0.8,3c-0.4,0.8-0.9,1.5-1.5,2.2c-0.5,0.5-1.1,1-1.7,1.4c-0.4,0.3-0.9,0.5-1.2,0.6c-0.4-0.1-0.7-0.3-1.1-0.5
				c-0.5-0.4-1-0.8-1.4-1.4c-0.5-0.6-0.8-1.4-1.1-2.1c-0.3-0.9-0.3-1.9-0.3-3c0-0.5,0.1-0.9,0.1-1.2c0.8-0.1,1.7-0.3,2.5-0.6
				c0.8-0.3,1.5-0.7,2.2-1.2c0.6,0.5,1.3,0.9,2,1.2c0.7,0.3,1.5,0.5,2.3,0.6C164.1,14.8,164,15.2,164,15.6L164,15.6z"/>
			
				<linearGradient id="SVGID_12_" gradientUnits="userSpaceOnUse" x1="159.1704" y1="6.0996" x2="159.0531" y2="-0.8657" gradientTransform="matrix(1 0 0 -1 0 31)">
				<stop  offset="0" style="stop-color:#FFFFFF"/>
				<stop  offset="1" style="stop-color:#469EC9"/>
			</linearGradient>
			<path class="st10" d="M160.7,14.7c0-0.1,0-0.2-0.1-0.3c-0.1-0.1-0.2-0.1-0.3-0.1h-1.6c-0.2,0-0.4,0.1-0.4,0.3l-0.2,2h-2
				c-0.2,0-0.4,0.1-0.4,0.3l-0.1,1.6c0,0.1,0,0.2,0.1,0.3c0.1,0.1,0.2,0.1,0.3,0.1h1.9l-0.2,1.9c0,0.1,0,0.2,0.1,0.3
				c0.1,0.1,0.2,0.1,0.3,0.1h1.6c0.2,0,0.4-0.1,0.4-0.3l0.2-2h2c0.2,0,0.4-0.1,0.4-0.3l0.1-1.6c0-0.1,0-0.2-0.1-0.3
				s-0.2-0.1-0.3-0.1h-1.9L160.7,14.7z"/>
		</g>
		<g>
			
				<linearGradient id="SVGID_13_" gradientUnits="userSpaceOnUse" x1="54.6853" y1="11.4221" x2="54.7441" y2="0.148" gradientTransform="matrix(1 0 0 -1 0 31)">
				<stop  offset="0" style="stop-color:#FFFFFF"/>
				<stop  offset="1" style="stop-color:#469EC9"/>
			</linearGradient>
			<path class="st11" d="M64.3,18.6l0.3-3.6h-9.4c0.5-1.1,0.8-2,1-2.6h-3.8c-0.3,0.8-0.7,1.7-1.1,2.6h-5.6l-0.3,3.6h4
				c-0.7,1.2-1.4,2.3-2.1,3.4l4.2,1.9c-0.9,0.3-1.8,0.6-2.8,0.8c-1,0.2-2.2,0.4-3.6,0.5l-0.3,4.2c2.5-0.1,4.6-0.5,6.5-1
				c1.8-0.5,3.4-1.3,4.7-2.4c2.4,1.2,4.7,2.4,6.8,3.6l0.9-4.2c-1.7-0.7-3.4-1.5-5.2-2.2c0.9-1.3,1.6-2.8,2.1-4.5L64.3,18.6
				L64.3,18.6z M56.8,19.3c-0.1,0.2-0.2,0.6-0.5,1.1c-0.3,0.6-0.6,1-1,1.4c-1.3-0.6-2.4-1.1-3.4-1.5l1-1.6h4L56.8,19.3L56.8,19.3z"
				/>
		</g>
	</g>
</g>
</svg>
