<?xml version="1.0" encoding="utf-8"?>
<!-- Generator: Adobe Illustrator 25.3.1, SVG Export Plug-In . SVG Version: 6.00 Build 0)  -->
<svg version="1.1" id="圖層_1" xmlns="http://www.w3.org/2000/svg" xmlns:xlink="http://www.w3.org/1999/xlink" x="0px" y="0px"
	 viewBox="0 0 100 100" style="enable-background:new 0 0 100 100;" xml:space="preserve">
<style type="text/css">
	.st0{fill:url(#SVGID_1_);}
	.st1{fill:url(#SVGID_2_);}
	.st2{opacity:0.75;fill:none;stroke:url(#SVGID_3_);stroke-width:1.0353;stroke-miterlimit:10;enable-background:new    ;}
	.st3{opacity:0.45;fill:url(#SVGID_4_);enable-background:new    ;}
	.st4{opacity:0.45;fill:url(#SVGID_5_);enable-background:new    ;}
	.st5{fill:url(#SVGID_6_);}
	.st6{fill:url(#SVGID_7_);}
</style>
<g>
	
		<radialGradient id="SVGID_1_" cx="-540.6039" cy="361.7797" r="0.7194" gradientTransform="matrix(62.0534 -1.5915 -1.5939 -62.149 34176.7266 21676.832)" gradientUnits="userSpaceOnUse">
		<stop  offset="0" style="stop-color:#4536C3"/>
		<stop  offset="1" style="stop-color:#0F0551"/>
	</radialGradient>
	<path class="st0" d="M94.5,93.3l-84.1,2.2c-2,0.1-3.5-1.6-3.4-3.8l4-71.3c0.1-2,1.8-3.8,3.7-3.9l82.1-6.1c2.1-0.2,3.8,1.4,3.8,3.6
		l-1.9,75.1C98.5,91.3,96.7,93.2,94.5,93.3z"/>
	
		<linearGradient id="SVGID_2_" gradientUnits="userSpaceOnUse" x1="51.4135" y1="3.1091" x2="48.671" y2="110.0397" gradientTransform="matrix(1 0 0 -1 0 102)">
		<stop  offset="0" style="stop-color:#6A24C8"/>
		<stop  offset="1" style="stop-color:#4CB4E9"/>
	</linearGradient>
	<path class="st1" d="M90.9,90.3L6.8,92.6c-2,0.1-3.5-1.6-3.4-3.8l4-71.3c0.1-2,1.8-3.8,3.7-3.9l82.1-6.1c2.1-0.2,3.8,1.4,3.8,3.6
		L95,86.2C94.9,88.4,93.1,90.3,90.9,90.3z"/>
	
		<linearGradient id="SVGID_3_" gradientUnits="userSpaceOnUse" x1="-0.7937" y1="53.6004" x2="95.2796" y2="55.5673" gradientTransform="matrix(1 0 0 -1 0 102)">
		<stop  offset="0" style="stop-color:#1EF5E4"/>
		<stop  offset="1" style="stop-color:#138FAD"/>
	</linearGradient>
	<path class="st2" d="M88,87.7L3.9,90c-2,0.1-3.5-1.6-3.4-3.8l4-71.3c0.1-2,1.8-3.8,3.7-3.9l82.1-6.1C92.3,4.7,94,6.3,94,8.5
		l-1.9,75.1C92,85.8,90.2,87.7,88,87.7z"/>
	
		<linearGradient id="SVGID_4_" gradientUnits="userSpaceOnUse" x1="49.7158" y1="86.42" x2="50.3503" y2="10.3799" gradientTransform="matrix(1 0 0 -1 0 102)">
		<stop  offset="0" style="stop-color:#1EF5E4"/>
		<stop  offset="1" style="stop-color:#138FAD"/>
	</linearGradient>
	<path class="st3" d="M74.9,30.6c9.7,13.5,6.1,33.7-8.3,44.8c-14.2,11-33.1,8.4-42.1-5.3c-8.8-13.4-5-32.8,8.5-43.5
		C46.6,15.7,65.3,17.4,74.9,30.6z"/>
	
		<linearGradient id="SVGID_5_" gradientUnits="userSpaceOnUse" x1="49.6326" y1="82.5105" x2="50.1954" y2="15.0541" gradientTransform="matrix(1 0 0 -1 0 102)">
		<stop  offset="0" style="stop-color:#1EF5E4"/>
		<stop  offset="1" style="stop-color:#138FAD"/>
	</linearGradient>
	<path class="st4" d="M72,32.9c8.6,12,5.3,29.9-7.4,39.6c-12.6,9.7-29.3,7.5-37.3-4.6c-7.9-11.9-4.5-29.1,7.5-38.7
		C46.9,19.6,63.6,21.1,72,32.9z"/>
	
		<linearGradient id="SVGID_6_" gradientUnits="userSpaceOnUse" x1="49.5888" y1="79.7901" x2="50.102" y2="18.2955" gradientTransform="matrix(1 0 0 -1 0 102)">
		<stop  offset="0" style="stop-color:#1EF5E4"/>
		<stop  offset="1" style="stop-color:#138FAD"/>
	</linearGradient>
	<path class="st5" d="M70,34.4c7.8,10.9,4.8,27.2-6.7,36.1c-11.4,8.8-26.7,6.9-34-4.2c-7.2-10.9-4.1-26.6,6.9-35.3
		C47.2,22.3,62.3,23.7,70,34.4z"/>
	
		<linearGradient id="SVGID_7_" gradientUnits="userSpaceOnUse" x1="51.1443" y1="78.882" x2="48.3404" y2="22.4904" gradientTransform="matrix(1 0 0 -1 0 102)">
		<stop  offset="0" style="stop-color:#FEF8FF"/>
		<stop  offset="1" style="stop-color:#F8D7FF"/>
	</linearGradient>
	<path class="st6" d="M66.4,55c-1.4,0.3-1.5-0.2-2.6-0.8c-1.2-0.6-2.6,0.1-3.8,0c-1.5-0.1-3,0.3-4.4,1c-0.6,0.3-0.7,0.6-1,1.2
		c-0.2,0.4-0.3,1.2-0.6,1.1c-0.6,0.3-1.6,0.9-2.3,0.8C50.8,58,51,57,50.4,56.7c-0.7-0.4-1.3,0.5-2,0.5c-1.3,0.2-0.3-1.9-0.8-2.8
		c-1.2,0.7-0.6,2.4-1.6,3.2c-1.7,1.4-2.7-0.2-3.2-1.5c-0.6-1.5-0.7-2.7,0.8-3.8c1-0.8,2-1.4,3.1-1.1c0.7,0.2,2.1,1.9,2.4,0.6
		c0.2-0.8-0.8-1.2-1.1-1.7c-0.4-0.7-0.2-0.8,0.1-1.6c0.6-1.5,0.9-2.3,0.7-3.8c-0.1-0.6-0.2-0.4,0.1-1.2c0.3-0.7,0.7-1.3,0.9-2
		c0.3-0.8,0.4-1,1.1-1.5c0.5-0.4,0.7-0.2,0.6-0.8c-0.2-2-2.1-0.6-2.9-0.4c0.1-1.6,2.1-2.1,3.2-2.1c0.7,0,0.9,0.3,1.2-0.6
		c0.3-1.2-0.6-1.1-1.3-1.1c-1.7-0.1-3.5-0.8-5.2-0.7c-1.3,0-2.5,0.5-3.8,0.7c0.6,0.9,1.7,3.1,1.3,4.3c-0.5,1.4-2.5,1.4-3.6,1.4
		c-1.2,0-2.1-0.3-1.9-1.8c0.2-1.1,2.4-3.2,1.7-4.4c-0.5-0.8-2.2,0.4-2.8,0.9c-0.5,0.5-0.9,1.2-1.6,1.5c-0.5,0.2-1,0.1-1.5,0.2
		c-1,0.2-2,1-2.9,1.1c-0.8,0.1-0.7-0.3-1.2-0.7c-2.5,3.6-4.1,7.6-4.7,11.7c0,0,0,0,0,0c0.5-1,2.2-5.7,3.4-3.9c0.6,1,0.4,2.4,1,3.3
		c0.2,0.3,0.6,0.4,0.8,0.7c0.3,0.4,0.4,1.1,0.5,1.6c0.3,1.6,0.7,2.8,1.5,4.2c0.7,1.2,1.6,1.5,2.6,2.3c1.2,0.9,2.1,2.4,3.9,2.2
		c-0.9-0.9-2.9-1.7-3.3-3c2.7,0.3,4.3,3.3,7.1,3.6c1.4,0.2,3.1-0.6,4.5-0.9c1.4-0.3,2,0.4,3.3,0.5c1,0.1,1.9-0.8,2.8-0.7
		c1.7,0.1,0.4,1.5,0.4,2.5c-0.1,1.7,1,3.2,2.4,3.6c1,0.3,2.5,0.4,3.2,1.2c1,1.1,1.4,4.4,1,6c0.1-0.1,0.2-0.1,0.3-0.2
		c1.7-1.9,2.5-4.3,4.2-6.3c0.9-1,1.3-1.7,1.6-3c0.1-0.6,0.3-1,0.6-1.5c0.4-0.8,0.2-1.4,0.3-2.2c0.2-1.2,1.5-2,1-3.4
		C68.5,54.3,67.5,54.8,66.4,55z M40.6,29.3c0.6,0,1.1,0.1,1.7,0.1c0.6,0,1.2-0.4,1.9-0.3c0.7,0.1,0.9,0.5,1.4,0.8
		c0.4,0.3,0.9,0.1,1.4,0.3c1.1,0.3,2.2,1,3.5,0.8c0.1,0,0.8,0,0.9-0.2c0.3-0.4-0.3-0.9-0.5-1c-0.9-0.7-0.7-1.5-1.1-2.5
		c-0.5-1.3-2.3-0.4-3.4-0.4c-1.1,0-2.3,0.1-3.4,0.5c-0.3,0.1-0.6,0.1-0.8,0.2c-0.8,0.3-1.5,0.7-2.3,1.1c0,0-0.1,0.1-0.1,0.1
		C39.5,29.3,40.2,29.3,40.6,29.3z M70,34.4c-0.4-0.6-0.8-1.1-1.3-1.6c0.1,0.4,0.1,0.8,0.1,1.1c-0.2,0-0.3,0.2-0.5,0.3
		c0.7,1.3,1.4,2.7,1.5,4.3c0.1,1.5,0.6,2.4,1.1,3.8c0.5,1.3,0.8,2.6,1.3,3.9c0.7,1.7,1,0.6,2-0.1C73.9,41.9,72.5,37.9,70,34.4z
		 M36.9,33.7c0.7-0.6,1.1-0.6,1.6,0c0.7-0.7,2.6-1.4,3.1-0.5c0.3,0.6,0.2,1,1,0.6c0.4-0.2,0.7-0.4,1.2-0.5c0.4-0.1,0.9-0.1,1.4-0.3
		c0.6,0.1,0.9-0.7,0.7-1.3c-0.5-1.8-3.3-0.2-4.4-0.6c-0.4-0.2-0.6-0.7-1.1-0.8c-0.5-0.2-1,0.1-1.5,0.4c-0.4,0.3-0.6,0.6-1,0.9
		c-0.6,0.5-1.2,0.6-1.7,1.3c-0.1,0.2-0.6,1.2-0.3,1.4C36.2,34.5,36.6,33.9,36.9,33.7z M58.9,26.3c-0.5,0.1-0.9,0.2-0.7,0.7
		c0.2,0.4,1.2,0.5,1.5,0.7c0.4,0.2,0.7,0.5,1.1,0.7c0.5,0.3,1.2,0.7,1.9,0.7c0-0.3-0.1-0.6-0.1-0.9c0.5-0.2,0.5,0.2,0.7,0.5
		c0.3,0.4,0.3,0.6,0.8,0.9c0.6,0.3,2,0.7,0.7,1.5c0.5,0.6,2,2.8,3.1,2.2c-0.4-1.1-1.2-1.7-1.5-2.9C64.2,28.6,61.6,27.2,58.9,26.3z
		 M53.1,28.1c0.2,0,2.4-0.3,1.4-0.9c0.2-0.4-1.2-0.2-1.5-0.1C51.7,27.4,52.2,28,53.1,28.1z"/>
</g>
</svg>
