<?xml version="1.0" encoding="utf-8"?>
<!-- Generator: Adobe Illustrator 22.0.1, SVG Export Plug-In . SVG Version: 6.00 Build 0)  -->
<svg version="1.1" id="圖層_1" xmlns="http://www.w3.org/2000/svg" xmlns:xlink="http://www.w3.org/1999/xlink" x="0px" y="0px"
	 viewBox="0 0 200 300" style="enable-background:new 0 0 200 300;" xml:space="preserve">
<style type="text/css">
	.st0{fill:#65AC1E;}
	.st1{opacity:0.3;}
	.st2{opacity:0.2;}
	.st3{fill:#FFFFFF;}
	.st4{clip-path:url(#SVGID_2_);}
	.st5{fill:#B95542;}
	.st6{fill:#A64132;}
	.st7{fill:#6F3F4D;}
	.st8{opacity:0.17;enable-background:new    ;}
	.st9{fill:#3A0A1B;}
	.st10{fill:#FFA097;}
	.st11{fill:#FF837E;}
	.st12{fill:#461827;}
	.st13{fill:#F0A755;}
	.st14{fill:#5A3B47;}
	.st15{fill:#CE5252;}
	.st16{fill:#004499;}
	.st17{fill:#008FD4;}
	.st18{fill:#FFB2AE;}
	.st19{fill:#072A54;}
	.st20{fill:none;stroke:#461827;stroke-width:1.0928;stroke-linecap:round;stroke-miterlimit:10;}
	.st21{clip-path:url(#SVGID_4_);fill:none;stroke:#461827;stroke-width:1.0928;stroke-linecap:round;stroke-miterlimit:10;}
	.st22{fill:#443932;}
	.st23{fill:#2B454E;}
	.st24{opacity:0.25;fill:#FF837E;enable-background:new    ;}
	.st25{fill:#FF9090;}
	.st26{fill:#021423;}
	.st27{fill:#103E7D;}
	.st28{fill:#2B6DAD;}
</style>
<g>
	<g>
		<g>
			<g>
				<g>
					<g>
						<g>
							<polygon class="st0" points="98.2,206 115.1,295.4 130.5,266.8 159.8,284 128.7,197 							"/>
						</g>
					</g>
				</g>
			</g>
		</g>
		<g class="st1">
			<g>
				<path d="M103.8,236.1c3.1,0.6,6.8-0.5,9-2.8c1.5-1.6,2.6-3.8,4.5-4.8c1.7-1,3.9-0.8,5.8-0.3s3.7,1.4,5.7,1.9
					c3.8,1,7.9,0.4,11.3-1.7l-4.9-13.5l-22.6-2.8l-10.8,13L103.8,236.1z"/>
			</g>
		</g>
	</g>
	<g>
		<g>
			<g>
				<g>
					<g>
						<polygon class="st0" points="100.6,210.7 83.7,300 68.3,271.4 39,288.6 70.1,201.6 						"/>
					</g>
				</g>
			</g>
		</g>
	</g>
	<g class="st1">
		<path d="M60.8,227.7c0,0,4.8,4,10.5,2.1c5.7-1.8,9.3-2.2,12.4,0s11.5,9.4,11.5,9.4l2-10.3l-11.3-15.5l-11.8,2.4l-8.4,0.8l-3.1,5.9
			L60.8,227.7z"/>
	</g>
	<g>
		<path class="st0" d="M199.8,130c0,6.4-8.2,11.9-9.4,18c-1.2,6.2,4.2,14.5,1.8,20.2c-2.4,5.8-12.1,7.8-15.6,13s-1.6,14.9-6.1,19.4
			c-4.4,4.4-14.1,2.6-19.4,6.1c-5.2,3.5-7.2,13.2-13,15.6c-5.7,2.4-14-3.1-20.2-1.8c-6.1,1.2-11.6,9.4-18,9.4s-11.9-8.2-18-9.4
			c-6.2-1.2-14.5,4.2-20.2,1.8c-5.8-2.4-7.8-12.1-13-15.6s-14.9-1.6-19.4-6.1c-4.4-4.4-2.6-14.1-6.1-19.4c-3.5-5.2-13.2-7.2-15.6-13
			c-2.4-5.7,3.1-14,1.8-20.2C8.2,141.9,0,136.4,0,130c0-6.4,8.2-11.9,9.4-18c1.2-6.2-4.2-14.5-1.8-20.2C10,86,19.7,84,23.2,78.8
			s1.6-14.9,6.1-19.4c4.4-4.4,14.1-2.6,19.4-6.1c5.2-3.5,7.2-13.2,13-15.6c5.7-2.4,14,3.1,20.2,1.8c6.1-1.2,11.6-9.4,18-9.4
			s11.9,8.2,18,9.4c6.2,1.2,14.5-4.2,20.2-1.8c5.8,2.4,7.8,12.1,13,15.6s14.9,1.6,19.4,6.1c4.4,4.4,2.6,14.1,6.1,19.4
			c3.5,5.2,13.2,7.2,15.6,13c2.4,5.7-3.1,14-1.8,20.2C191.6,118.1,199.8,123.6,199.8,130z"/>
	</g>
	<g class="st2">
		<path d="M29.4,59.4l29.3,25.7l7.3-5.8L49,53.2c0,0-1.3,1-4.7,1.9C41,56,31.4,56.3,29.4,59.4z"/>
	</g>
	<g class="st2">
		<path d="M62,37.7l14.3,35.8l9.1-2.9l-3-31.1c0,0-1.6,0.4-5.1-0.1C74,39.1,65.8,35.9,62,37.7z"/>
	</g>
	<g class="st1">
		<path d="M100.2,30.2l1,38.9l8.6,0.4l8.7-29.9c-0.2,0-2.4-0.4-5-2.1C110.4,35.7,104.4,29.9,100.2,30.2z"/>
	</g>
	<g class="st2">
		<path d="M137.6,37.5l-14.2,35.9l7.7,3.7L150.7,53c-0.1-0.1-2-1.6-3.7-4.4C145.1,45.6,141.9,38.7,137.6,37.5z"/>
	</g>
	<g class="st2">
		<path d="M171,59.9l-26.5,27.6l5.9,8l25.9-17.3c0,0-1.1-1.7-1.7-5C174,69.8,173.9,63.7,171,59.9z"/>
	</g>
	<g class="st2">
		<path d="M191.9,91.1l-35.7,14.7l3,9.1l31.1-3.4c0,0-0.2-1,0.2-4.5C190.9,103.7,194.4,96.1,191.9,91.1z"/>
	</g>
	<g class="st2">
		<path d="M199.8,130l-38.9,1.4l-0.3,8.6l29.7,8.7c0-0.2,0.3-1.8,1.2-3.5C193.7,140.9,199.8,135.1,199.8,130z"/>
	</g>
	<g class="st2">
		<path d="M192.7,166.8l-35.8-14l-3.6,7.8l24.4,19.3c0.1-0.1,1.5-1.5,4.2-3.2C184.8,174.8,191.8,171.8,192.7,166.8z"/>
	</g>
	<g class="st2">
		<g>
			<path d="M140,166.2l-8.9,7.4c0.7,0.7,12.5,20.8,19.8,33.2c0.1-0.1,0.2-0.2,0.3-0.2c4.8-3.2,13.3-1.9,18.1-5.1L140,166.2z"/>
		</g>
		<g>
			<path d="M123.7,180.3l-13.2,4.5l6.3,35.9c0.4-0.1,0.8-0.3,1.2-0.3c6.2-1.2,14.5,4.2,20.2,1.8c0.8-0.3,1.5-0.8,2.2-1.4
				L123.7,180.3z"/>
		</g>
		<g>
			<path d="M99.5,229.8l2.1-47l-11.4-2.9l-8.5,40.4c0.1,0,0.2,0,0.3,0.1C87.9,221.6,93.3,229.4,99.5,229.8z"/>
		</g>
		<g>
			<path d="M70.7,174.9c0,0-15.1,20.3-23,31.2c0.4,0.2,0.7,0.4,1.1,0.6c5.2,3.5,7.2,13.2,13,15.6c0.3,0.1,0.5,0.2,0.8,0.3l21.1-40
				L70.7,174.9z"/>
		</g>
		<g>
			<path d="M55.2,158.6L23,180.7c0.1,0.2,0.3,0.3,0.4,0.5c3.5,5.2,1.6,14.9,6.1,19.4c0.4,0.4,0.9,0.7,1.4,1.1
				c11.4-12.8,31.9-35.9,32.6-36.7L55.2,158.6z"/>
		</g>
		<g>
			<path d="M47.8,142.7l-38.1,6.2c0.6,6.1-4.2,13.8-1.9,19.3c0.1,0.3,0.3,0.7,0.5,1c13.3-6.6,41.2-20.5,42.4-20.5L47.8,142.7z"/>
		</g>
		<g>
			<path d="M45.7,121.5l-36-10.4c0,0.3-0.1,0.6-0.1,0.9c-1.2,6.1-9.4,11.6-9.4,18c0,0.4,0,0.9,0.1,1.3h44L45.7,121.5z"/>
		</g>
		<g>
			<path d="M7.9,91.5c13.5,7.2,39.8,21.8,39.8,21.8l6.5-12.3L23.7,78.1c-0.1,0.2-0.3,0.5-0.4,0.7C19.9,83.9,10.5,85.9,7.9,91.5z"/>
		</g>
	</g>
</g>
<g>
	<circle class="st3" cx="100" cy="130" r="61.2"/>
</g>
<g>
	<g>
		<g>
			<g>
				<defs>
					<path id="SVGID_1_" d="M144.1,84c0-0.5,16-10.4,17.6-18.2c3.8-17.9-4.8-42.5-4.8-42.5S62,13.6,60.6,13.2S9.5,22.6,7.9,23.3
						S-5.5,85.1-5.5,85.1L20.4,90l28.8,5.8C42,105.9,38.8,117.9,38.8,130c0,33.8,27.4,61.2,61.2,61.2s61.2-27.4,61.2-61.2
						c0-16.5-4-29.5-14.6-40.5l-2.3-2.1C144.3,87.3,144.2,85.7,144.1,84z"/>
				</defs>
				<clipPath id="SVGID_2_">
					<use xlink:href="#SVGID_1_"  style="overflow:visible;"/>
				</clipPath>
				<g class="st4">
					<path class="st5" d="M90.1,95C86.3,89.4,80,87.6,71,89.1l22,45.1c0,0,1.4-10.7,1.5-20.7C94.5,105.2,94,100.5,90.1,95z"/>
					<g id="Chest_00000124122995745070736910000004210878381917522598_">
						<path id="XMLID_00000163049821352702416790000015436966052623896212_" class="st5" d="M94.2,188.1
							c-12.2,21.8-57,22.2-68.3,7.8c1.8-12.9,2.6-21.8,3-30.5c0.4-8.8-4.3-23.8-3.9-34.9c0.4-11,4.7-18.1,4.7-18.1
							s15-15.6,25.2-19.8c17.1-6.9,24.9-1.9,24.9-1.9c4.5,1.3,14.6,17.2,14.6,29C94.4,134.9,94.2,188.1,94.2,188.1z"/>
					</g>
					<g>
						<path class="st6" d="M52.1,139.6c-2.2,2.3-4.7,5.5-4.3,9.5c10.6-6.2,21.7-10.7,33.1-13.5c0.7-0.2,1.6-0.4,2.3,0
							c0.7,0.3,1.4,1.4,1.3,2.4c-12.4,3.9-24.3,10.1-35.3,18.6c9.7-3.8,20-6.4,30.2-3.9c-8.8,0.9-17.4,3.9-25.8,7.3
							c-2.1,0.8-4.2,1.8-5.7,4.1c-1.4,2.3-1.8,6.1-0.2,8.3c1.7,2.3,5,2.1,5.8,5.3c0.2,0.7,0.2,1.5,0.1,2.2l39.6-3.1
							c-0.1-3.9-0.3-7.8-0.6-11.7c-1.7-1.8-2.4-5.1-1.7-7.8c0.3-1.3,1-3.1,0.2-4.1c-0.3-0.4-0.7-0.5-1.1-0.7c-4-1.5-8-2.8-12-4.3
							c3.6-1.4,7.1-2.7,10.7-4.1c1.2-0.5,2.7-1.6,2.3-3.4c-0.4-1.7-2.4-2.1-2.5-3.8c-0.1-1.2,0.9-2.1,0.9-3.3c0-1-0.7-1.9-1.1-2.8
							c-0.6-1.8,0.2-3.9,1.2-5.4s2.1-2.8,2.3-4.9c0.2-2.3-1-4.4-2.5-5.5s-3.1-1.3-4.7-1.4c-3.3-0.3-6.5-0.6-9.8-1
							c-2.2-0.2-4.5-0.5-6.7,0.3s-4.2,2.9-4.7,5.9c7.2-2.2,14.8-2.6,22.3-1c-12.9,2.5-25.5,7.8-37,15.6c-1.9,1.3-3.8,2.7-4.9,5.3
							C46.4,138.4,49.3,138.6,52.1,139.6z"/>
					</g>
					<path class="st7" d="M37.8,104.8c0,0,8.6,37.7,10.3,50.3c1.8,12.5-20,22-20,22l-3.9,24.2c0,0,13.3,5,21,5.9s9.3,0.2,9.3,0.2
						s6.4,4.4,15.4,0.5s24.6-4.3,24.6-4.3l0.8-17.1l-1-7.5l0.2-54L79,88.7c0,0-1-0.7-2.7-0.6s-2.2,1.1-2.2,1.1s12.1,27.6,14.2,35.3
						c2.1,7.8,2.2,55.5,2.2,55.5s-9.6,1.8-19.3,3.1s-15.3,1.2-15.3,1.2s-1.5-29.7-3.1-39.3s-10.7-43.8-10.7-43.8
						S39.6,102.1,37.8,104.8z"/>
					<path class="st8" d="M25.2,137.3c0,0,0.8,6.5,1,7.7s0.4,2.4,0.4,2.4l40.3,27.8l6.2-7.4c0,0,18-1.1,19.5-1.3
						c1.6-0.1,1.6-0.1,1.6-0.1l0.2-3.3l-39.4-22L25.2,137.3z"/>
					<path class="st9" d="M71.3,112.1c-1.7,0.6-3.7,1-5.6,1c-3.9-0.1-7.9-1.8-11.1-4.6c-0.1-0.1-0.2-0.4,0-0.5
						c0.1-0.2,0.4-0.2,0.5-0.1c3.1,2.7,6.9,4.3,10.6,4.4c3.8,0.1,7.7-1.4,10.3-4.3l0,0c0.1-0.2,0.3-0.3,0.4-0.5
						c0.4-0.7,0.5-1.7,0.5-2.5s-0.1-1.5-0.4-2.3c-0.5-1.8-1.3-3.5-2.1-5.2c-0.1-0.2-0.2-0.4-0.3-0.7c-0.1-0.2-0.1-0.4,0.1-0.6
						c0.3-0.1,0.6,0.2,0.6,0.4c0,0.2,0.2,0.5,0.3,0.7c0.1,0.3,0.2,0.5,0.3,0.8c0.2,0.5,0.4,1,0.6,1.4c0.4,0.9,0.7,1.8,1,2.8
						c0.5,1.6,0.8,3.5,0.1,5.1c-0.5,1.1-1.5,2-2.5,2.7C73.7,111,72.5,111.6,71.3,112.1z"/>
					<g>
						<path class="st9" d="M69.8,139l-0.3-0.5c6.9-3.6,14.2-6.5,21.6-8.7l0.2,0.6C83.8,132.5,76.6,135.4,69.8,139z"/>
						
							<rect x="86.1" y="134.3" transform="matrix(0.9703 -0.2421 0.2421 0.9703 -29.9555 25.4177)" class="st9" width="4.7" height="0.6"/>
					</g>
					<path class="st10" d="M50.3,81.3l-1.2,16c4,5.2,13.7,11.5,20.8,10.6c3.8-0.5,4.4-3.9,0.7-8.9l0.4-9.9L50.3,81.3z"/>
					<path class="st11" d="M50.3,82.8L67.7,108c0,0,3.1,0.5,4.5-1.1c1.5-1.5,0.7-3.4,0.6-3.7c-0.1-0.2-0.5-1.6-1.2-2.6
						c-0.6-1-1.1-1.7-1.1-1.7l0.1-2.8L50.3,82.8z"/>
					<path class="st12" d="M70.7,96.9c0,0-11.4-4.8-14.9-7.3c-3.4-2.5-6.5-8.3-6.5-8.3l21.6,10.8L70.7,96.9z"/>
					<g>
						<path class="st10" d="M89.3,141.5c0,0-33.4-19.9-39.5-23.3c-7.7-4.3-13.8-8-17.4-4.6c-3.2,3-4.8,6.5-4.1,14.9
							c0.5,5.4,2.9,9.1,10.1,14.7c7.2,5.6,36.8,17.9,42.6,19.5c12.2,3.3,13,3.5,20.1-2.6"/>
						<path class="st5" d="M31.5,110.6c2.9-1.6,9.3,0.1,16.4,3.9c9.2,4.8,30,16.5,30,16.5s-0.7,8.6-4.5,18.8c-3.2,8.6-8,15.1-8,15.1
							s-18.2-9.8-24.6-14.4c-2.8-2-16-10.5-17.8-16.3C21.3,128.4,22.9,116.6,31.5,110.6z"/>
					</g>
					<g>
						<g>
							<g>
								<g>
									<path class="st13" d="M3.5,75.6c3.8,10.1,30.8,9.3,60.4-1.6s50.5-28,46.7-38.1s-55-15.1-65.3-11.3S-0.3,65.5,3.5,75.6z"/>
								</g>
							</g>
							<g>
								<g>
									<path class="st12" d="M7,74.6c3.6,9.5,29.1,8.8,57-1.5s47.6-26.4,44.1-35.9c-2-2.6-25.2,0.2-53.1,10.5
										C27,58,5.9,69.6,7,74.6z"/>
								</g>
							</g>
						</g>
						<g>
							<path class="st14" d="M12.3,56.1c10.8-6.8,22.8-13.6,35.8-18.8c15.7-6.3,31.1-9.6,46-9.7c0.9,0.2,1.8,0.4,2.6,0.7
								c-15.5-0.2-31.8,3-48.3,9.7c-13.5,5.4-26,12.6-37.2,19.7C11.5,57.1,11.9,56.6,12.3,56.1z"/>
							<path class="st14" d="M6.8,65.6c12.8-7.5,26.9-15.1,42.1-21.1C67.3,37.2,85.2,33,102.2,32c1,0.2,2,0.4,3,0.5
								c-17.8,0.6-36.6,4.8-56,12.6C33.4,51.4,18.6,59.4,5.4,67.2C5.9,66.7,6.3,66.2,6.8,65.6z"/>
							<path class="st14" d="M72.5,27c3.9-0.7,7.8-1.2,11.5-1.5c-1-0.2-1.9-0.3-2.9-0.4c-3.4,0.3-6.8,0.8-10.3,1.5
								c-2.2-0.5-4.3-0.9-6.5-1.2c2-0.5,4.1-1,6.1-1.5c-0.8-0.1-1.5-0.1-2.2-0.2c-1.9,0.5-3.8,0.9-5.6,1.5
								c-3.8-0.4-7.5-0.6-11.2-0.4l4.2,0.5c1.6,0.2,3.2,0.4,4.7,0.6c-2.9,0.8-5.7,1.7-8.6,2.7c-0.9-0.9-1.9-1.8-2.8-2.7
								c-0.1,0.1-0.2,0.1-0.3,0.2c0.8,1,1.6,1.9,2.5,2.8c-2.7,1-5.3,2-8,3.1c0.1-1.4,0.3-2.8,0.5-4.2c-0.4,1.4-0.7,2.9-0.9,4.4
								c-2.7,1.1-5.4,2.3-8,3.6c1-0.9,2.1-1.9,3.1-2.8c-1.5,1.1-3,2.3-4.4,3.5c-2.3,1.1-4.6,2.3-6.8,3.5c-0.6,0.6-1.1,1.1-1.7,1.7
								c2.1-1.2,4.1-2.2,6.3-3.3c-1.5,1.3-2.9,2.6-4.3,3.9c-1.5,0.7-3,1.4-4.5,2.2c-0.4,0.5-0.9,0.9-1.3,1.4
								c1.4-0.7,2.9-1.4,4.3-2.1c-2.6,2.6-8.5,11.6-10.8,14.6c3-3.4,9.4-12.7,12.6-15.7c4.9-2.3,9.9-4.6,15-6.6
								c-0.1,0.9-2,13.2-2.1,14.1c0.3-1,2.4-13.3,2.5-14.3c1.9-0.8,3.8-1.5,5.7-2.2s3.8-1.4,5.7-2c0.9,0.8,6.4,6.3,7.4,7
								c-0.7-0.8-6-6.4-6.8-7.1c5.6-1.8,11-3.2,16.3-4.2c1.6,0.2,13.7,2.3,15.3,2.5C85.2,29.5,73.6,27.3,72.5,27z M42.6,32.9
								c-0.1,0.8-0.2,1.6-0.3,2.4c-4.5,1.8-9,3.8-13.5,5.9c1.4-1.3,2.7-2.6,4.1-3.8C36.1,35.7,39.3,34.2,42.6,32.9z M51.6,29.4
								c0.6,0.6,1.2,1.2,1.9,1.8c-1.8,0.6-3.6,1.2-5.4,1.8c-1.8,0.7-3.6,1.4-5.4,2.1c0.1-0.8,0.2-1.6,0.3-2.4
								C45.9,31.5,48.7,30.4,51.6,29.4z M68.9,27c-4.8,1-9.7,2.3-14.7,3.9c-0.6-0.6-1.2-1.2-1.8-1.8c3.2-1.1,6.4-2.1,9.7-3
								C64.3,26.4,66.6,26.7,68.9,27z"/>
						</g>
					</g>
					<path class="st10" d="M67.4,46c-6.3,0-20.4,3.9-23.2,11.9C41.4,66,46,72.7,46,72.7s4.3,9.9,5.4,10.7c1.1,0.8,13,10.6,19.3,8.8
						c6.9-2,9.3-12.4,9.7-15.6s-2.6-16-2.7-19.1s0.7-9,0.7-9L67.4,46z"/>
					<g>
						<g>
							<path class="st12" d="M59.6,62.9c1.4-1.6,3.6-2.7,5.9-2.6c0.4,0,0.9,0,1.3-0.1s0.8-0.6,0.6-0.9c-1.8-0.4-3.8-0.2-5.5,0.7
								c-1.7,0.8-3,2.3-3.6,3.9C58.8,63.8,59.2,63.3,59.6,62.9z"/>
						</g>
						<g>
							<path class="st12" d="M74.8,59.2c-0.4,0.1-1.2,0.4-1.7,0.4c-0.4,0-0.5-0.2-0.5-0.6c1.5-1.1,2.9-1.8,4.8-1.5
								C78.9,57.7,76.9,58.8,74.8,59.2z"/>
						</g>
						
							<ellipse transform="matrix(0.95 -0.3121 0.3121 0.95 -18.0957 23.7345)" class="st12" cx="65.1" cy="68.4" rx="1.4" ry="2.2"/>
						<ellipse transform="matrix(0.95 -0.3121 0.3121 0.95 -16.9919 26.6307)" class="st12" cx="74.7" cy="66.4" rx="1.2" ry="2"/>
						<g>
							<path class="st12" d="M76.1,75.3c-0.2,0.1-0.3,0.2-0.5,0.3l-4.5,2.5c0,0-0.4,0.2-0.7-0.2c-0.2-0.3,0.2-0.6,0.2-0.6l4.5-2.5
								c0.5-0.3,1-0.6,1.1-0.9s-0.1-0.7-0.3-1.1l-3-5.5c-0.5-1-1.1-2.1-1.2-3.4c-0.1-1.4,0.9-1.1,1,0c0,1.1,0.6,2.1,1.1,3l3,5.5
								c0.2,0.4,0.6,1.1,0.3,1.8C76.9,74.7,76.5,75,76.1,75.3z"/>
						</g>
						<g>
							<path class="st15" d="M65.9,81.3c0.5,1.4,2.6,4.6,4.1,4.7s3.4-0.4,4.5-1.3s1.6-3.3,1.7-5.4C73,80.4,69.5,81.1,65.9,81.3z"/>
						</g>
					</g>
					<path class="st5" d="M37.8,54.6c0.5-0.5,5.7-2.8,15.5-6.3c7.6-2.8,16.2-5.8,22.9-7.4c0.8,0.3,2.6,2,3.4,3.7
						c1,2,1.2,2.4,1.8,4.5c0.3,1.1,0.6,2.2,0.8,3.3c0.1,0.5,0.2,1,0.2,1.6c0,0.3,0.2,2.2,0.5,2.2c-0.5-0.1-1-0.5-1.3-0.9
						c0,0.7,0,1.4,0.1,2c0,0.5-0.1,1.1-0.1,1.6c0,0.2,0,1,0.2,1.2c-1.2-0.7-1.8-2-2.5-3.2c-0.7-1.3-1.5-2.6-2.7-3.5
						c-0.7-0.6-1.5-1-2.4-1.3c0.3,0.4,0.6,0.8,0.9,1.2c-1.3-0.5-2.7-0.7-4.1-0.9c-1.2-0.2-2.4-0.2-3.6-0.6c-0.4-0.1-1-0.4-1.4-0.1
						c-0.2,0.1-0.3,0.3-0.4,0.5c-2,3.4-6.2,6.6-9.8,8.3c0.1-0.4,0.1-0.8-0.1-1.1c-1.6,1.7-3.2,3.1-3.6,5.4c-0.1,0.6-1.1,4.8-0.2,5
						c-0.9-0.2-1.5-0.8-2-1.6c-0.8-1.3-0.7-2.7-2.4-3.3c-1.5-0.5-2.7,0.6-2.9,2s0.6,2.8,1.8,3.7c0.5,0.4,1,0.7,1.4,1.2
						s0.6,1.2,0.8,1.8c0.5,1.7,0.4,5.6,1.5,7c0.7,0.9,1.8,1.9,0.8,2.2c-0.2,0-0.4,0-0.6,0c-1.4,0.4-3.7-3.8-5.6-5.7
						c-0.5-0.5-3.8-3.8-6-6.4C36.2,67.5,35,58.8,37.8,54.6z"/>
					<g>
						<g>
							<g>
								<path class="st9" d="M83.4,98.6c0.1,0,0.2,0.8,0.6,2.2c0.4,1.3,1,3.1,1.9,5c0.9,1.8,1.9,3.4,2.6,4.5l-0.1,0.1
									c-0.5-0.6-0.9-1-1.1-1.4s-0.4-0.5-0.4-0.5s0.1,0.1,0.4,0.4s0.7,0.7,1.2,1.3l-0.1,0.1c-0.8-1.1-1.9-2.7-2.8-4.5
									c-0.9-1.9-1.5-3.8-1.9-5.1c-0.2-0.7-0.3-1.3-0.3-1.6C83.4,98.8,83.4,98.6,83.4,98.6z"/>
								<path class="st9" d="M88.4,111L88.4,111L88.4,111l-0.2-0.3c-0.5-0.6-0.9-1-1.1-1.3c-0.4-0.5-0.6-0.8-0.4-0.9
									c-0.5-0.7-0.8-1.4-1.2-2.2c-1-2.2-1.7-4.2-1.9-5.2c-0.1-0.6-0.3-1.2-0.3-1.6c-0.1-0.6-0.2-0.9,0.2-1c0.4,0,0.4,0.1,0.6,0.9
									c0.1,0.3,0.2,0.9,0.4,1.4c0.4,1.2,1,3,1.9,5c0.8,1.5,1.6,3,2.6,4.5l0.2,0.3h-0.1l0,0L88.4,111z"/>
							</g>
						</g>
					</g>
					<g id="Characters_00000040545602971483492850000004722362279040876943_">
						<g>
							<path class="st16" d="M130.9,86.2c-8.8-1.9-15.4,0.2-21.2,6.4c-6.7,7.1-23.4,29.1-23.4,29.1s1.9,12.6,6,16.7
								c4.1,4.1,4.1,9.2,4.1,9.2l22.7-28.6L130.9,86.2z"/>
						</g>
						<g id="Chest_00000031186405755191045340000001865621176770509454_">
							<path id="XMLID_00000098931810163885978860000017826535012011364543_" class="st17" d="M104.5,116.6
								c1.7-11.7,10.8-27.7,15-29c0,0,10.9-7.9,27-1c9.6,4.2,14.1,23.4,14.1,23.4s2.9,16.1,3.2,27.1c0.4,11,3.3,16.3,3.6,25.1
								s1.1,17.6,2.8,30.5c-10.6,14.3-58.9,26.1-70.3,4.3C100,179.7,101.8,134.6,104.5,116.6z"/>
						</g>
						<g>
							<g>
								<g>
									<path class="st3" d="M127.6,124.1L127,126l1.9,0.6l0.6-1.9L127.6,124.1z M128.6,125.8l-0.7-0.2l0.2-0.7l0.7,0.2
										L128.6,125.8z"/>
									
										<rect x="129.9" y="125.5" transform="matrix(0.2794 -0.9602 0.9602 0.2794 -27.0061 215.789)" class="st3" width="0.8" height="0.8"/>
								</g>
								<path class="st3" d="M131.5,125.2c0,0,0.9,0.3,1.1,0.3c0.4,0.1,0.5,0.4,0.4,0.7c-0.1,0.2-0.1,0.3-0.4,0.3
									c0.2,0.1,0.3,0.3,0.2,0.6c-0.1,0.3-0.4,0.5-0.8,0.4c-0.3-0.1-1.1-0.3-1.1-0.3L131.5,125.2z M131.6,126.8
									c0,0,0.2,0.1,0.4,0.1c0.1,0,0.2,0,0.3-0.1c0,0,0.1-0.2-0.1-0.2c-0.1,0-0.4-0.1-0.4-0.1L131.6,126.8z M131.8,126.1
									c0,0,0.2,0.1,0.3,0.1s0.2,0,0.2-0.1c0,0,0-0.1-0.1-0.2c0.1,0-0.4-0.1-0.4-0.1V126.1z"/>
								<path class="st3" d="M133.8,125.9l0.6,0.2l0.1,2.1l-0.6-0.2v-0.3l-0.6-0.2l-0.2,0.3l-0.6-0.2L133.8,125.9z M133.9,126.5
									l-0.3,0.6l0.3,0.1V126.5z"/>
								<path class="st3" d="M135.9,127.1l0.6,0.2c0.1-0.3-0.1-0.7-0.6-0.9c-0.6-0.2-0.9,0.1-1,0.4c-0.1,0.4,0.4,0.7,0.4,0.7
									c0.1,0,0.4,0.2,0.4,0.3c0.1,0,0.1,0.1,0.1,0.2c0,0.1-0.2,0.1-0.3,0.1s-0.3-0.1-0.2-0.4l-0.6-0.2c-0.1,0.3,0,0.8,0.7,1
									c0.7,0.2,1-0.2,1.1-0.4c0.1-0.2,0-0.4-0.2-0.6c-0.1-0.1-0.4-0.2-0.5-0.3c-0.1,0-0.2-0.1-0.2-0.3c0-0.2,0.3-0.1,0.3-0.1
									S136,127,135.9,127.1z"/>
								<polygon class="st3" points="136.8,126.7 138.3,127.2 138.2,127.7 137.3,127.4 137.2,127.8 138,128 137.8,128.5 137,128.2 
									136.9,128.8 136.3,128.7 								"/>
							</g>
							<g>
								<polygon class="st3" points="127.4,127.7 127.4,127.7 127.4,127 127.3,126.9 126.9,127.6 126.9,127.6 126.9,127.6 
									126.9,126.8 126.8,126.8 126.8,127.7 126.9,127.7 127.3,127.1 127.3,127.1 127.3,127.1 127.3,127.8 127.4,127.9 
									127.9,127.1 127.8,127.1 								"/>
								<path class="st3" d="M128.3,127.6c0,0,0-0.1-0.1-0.1l-0.1-0.1H128h-0.1c0,0-0.1,0-0.1,0.1c0,0,0,0.1-0.1,0.1v0.1v0.1
									c0,0,0,0.1,0.1,0.1c0,0,0.1,0,0.1,0.1c0.1,0,0.1,0,0.2,0c0.1,0,0.1-0.1,0.1-0.1h-0.1c0,0,0,0.1-0.1,0.1h-0.1h-0.1
									c0,0,0,0,0-0.1c0,0,0,0,0-0.1v-0.1l0,0l0.5,0.1L128.3,127.6C128.3,127.7,128.3,127.6,128.3,127.6 M127.8,127.6L127.8,127.6
									L127.8,127.6C127.9,127.5,127.9,127.5,127.8,127.6c0.1-0.1,0.1-0.1,0.2-0.1c0,0,0,0,0.1,0c0,0,0,0,0.1,0c0,0,0,0,0,0.1
									c0,0,0,0,0,0.1c0,0,0,0,0,0.1l0,0L127.8,127.6z"/>
								<path class="st3" d="M128.9,128.2C128.9,128.2,128.8,128.2,128.9,128.2c-0.1-0.1-0.1-0.1-0.1-0.1V128v-0.1v-0.1
									c0,0,0,0,0.1-0.1c0,0,0,0,0.1,0h0.1c0,0,0.1,0,0.1,0.1v0.1h0.1v-0.1v-0.1c0,0,0,0-0.1-0.1h-0.1H129h-0.1l-0.1,0.1
									c0,0,0,0.1-0.1,0.1v0.1v0.1c0,0,0,0.1,0.1,0.1C128.8,128.3,128.8,128.3,128.9,128.2c0.1,0.1,0.1,0.1,0.2,0.1
									c0.1,0,0.1-0.1,0.1-0.1h-0.1c0,0,0,0.1-0.1,0.1C129,128.2,128.9,128.2,128.9,128.2"/>
								<path class="st3" d="M129.6,127.9c0,0-0.1,0-0.1,0.1l0,0l0,0L129.6,127.9l-0.2-0.1l-0.2,0.6h0.1l0.1-0.3V128
									C129.4,128,129.4,127.9,129.6,127.9C129.6,128,129.6,128,129.6,127.9c0,0.1,0.1,0.1,0.1,0.1v-0.1l0,0
									C129.7,127.9,129.6,127.9,129.6,127.9"/>
								<path class="st3" d="M130.2,128.1c0,0,0-0.1-0.1-0.1l-0.1-0.1h-0.1h-0.1c0,0-0.1,0-0.1,0.1c0,0,0,0.1-0.1,0.1v0.1v0.1
									c0,0,0,0.1,0.1,0.1c0,0,0.1,0,0.1,0.1c0.1,0,0.1,0,0.2,0c0.1,0,0.1-0.1,0.1-0.1H130c0,0,0,0.1-0.1,0.1h-0.1h-0.1
									c0,0,0,0,0-0.1c0,0,0,0,0-0.1v-0.1l0,0l0.5,0.1v-0.1C130.2,128.2,130.2,128.2,130.2,128.1 M129.8,128.2L129.8,128.2
									C129.8,128.1,129.8,128.1,129.8,128.2c0.1-0.1,0.1-0.1,0.1-0.1s0,0,0.1,0c0,0,0,0,0.1,0c0,0,0,0,0.1,0c0,0,0,0,0,0.1
									c0,0,0,0,0,0.1c0,0,0,0,0,0.1l0,0L129.8,128.2z"/>
								<path class="st3" d="M130.8,128.7L130.8,128.7l0.1-0.4v-0.1c0,0,0,0,0-0.1c0,0,0,0-0.1,0s-0.1,0-0.2,0h-0.1h-0.1
									c0,0,0,0,0,0.1h0.1c0,0,0-0.1,0.1-0.1h0.1l0,0l0,0l0,0c0,0,0,0,0,0.1l0,0c0,0,0,0-0.1,0c0,0,0,0-0.1,0h-0.1h-0.1h-0.1
									c0,0,0,0-0.1,0c0,0,0,0,0,0.1v0.1c0,0,0,0,0,0.1c0,0,0,0,0.1,0c0,0,0,0,0.1,0h0.1C130.6,128.8,130.6,128.7,130.8,128.7
									L130.8,128.7L130.8,128.7C130.6,128.8,130.7,128.8,130.8,128.7C130.7,128.8,130.7,128.8,130.8,128.7c0,0.1,0,0.1,0,0.1
									V128.7C130.8,128.8,130.8,128.8,130.8,128.7C130.8,128.8,130.8,128.8,130.8,128.7 M130.7,128.6L130.7,128.6
									C130.7,128.7,130.6,128.7,130.7,128.6c-0.1,0.1-0.1,0.1-0.1,0.1h-0.1l0,0l0,0l0,0l0,0c0,0,0,0,0-0.1c0,0,0,0,0.1,0
									C130.6,128.6,130.6,128.6,130.7,128.6c0,0,0,0,0.1,0C130.6,128.5,130.6,128.5,130.7,128.6c0-0.1,0-0.1,0-0.1l0,0V128.6z"/>
								<path class="st3" d="M131.8,128.6c0,0,0-0.1-0.1-0.1l-0.1-0.1h-0.1h-0.1c0,0-0.1,0-0.1,0.1c0,0,0,0.1-0.1,0.1v0.1v0.1
									c0,0,0,0.1,0.1,0.1c0,0,0.1,0,0.1,0.1c0.1,0,0.1,0,0.2,0c0.1,0,0.1-0.1,0.1-0.1h-0.1c0,0,0,0.1-0.1,0.1h-0.1h-0.1
									c0,0,0,0,0-0.1c0,0,0,0,0-0.1v-0.1l0,0l0.5,0.1v-0.1C131.9,128.7,131.9,128.7,131.8,128.6 M131.4,128.6L131.4,128.6
									L131.4,128.6c0.1-0.1,0.1-0.1,0.1-0.1s0,0,0.1,0c0,0,0,0,0.1,0c0,0,0,0,0.1,0c0,0,0,0,0,0.1c0,0,0,0,0,0.1c0,0,0,0,0,0.1
									l0,0L131.4,128.6z"/>
								<path class="st3" d="M132.5,129.3C132.4,129.3,132.4,129.2,132.5,129.3c-0.1-0.1-0.1-0.1-0.1-0.1v-0.1V129v-0.1
									c0,0,0,0,0.1-0.1c0,0,0,0,0.1,0h0.1c0,0,0.1,0,0.1,0.1v0.1h0.1v-0.1v-0.1c0,0,0,0-0.1-0.1h-0.1h-0.1h-0.1l-0.1,0.1
									c0,0,0,0.1-0.1,0.1v0.1v0.1c0,0,0,0.1,0.1,0.1C132.4,129.3,132.4,129.3,132.5,129.3c0.1,0.1,0.1,0.1,0.2,0.1
									c0.1,0,0.1-0.1,0.1-0.1h-0.1c0,0,0,0.1-0.1,0.1C132.6,129.3,132.5,129.3,132.5,129.3"/>
								<path class="st3" d="M133.4,129L133.4,129c-0.1-0.1-0.1-0.1-0.1-0.1s0,0-0.1,0c0,0,0,0-0.1,0c0,0,0,0-0.1,0l0,0l0,0l0,0
									l0.1-0.3H133l-0.2,0.8h0.1l0.1-0.3V129c0,0,0,0,0.1-0.1c0,0,0,0,0.1,0h0.1C133.3,129,133.3,129,133.4,129
									c-0.1,0.1-0.1,0.1-0.1,0.1l-0.1,0.4h0.1l0.1-0.4C133.5,129.2,133.5,129.1,133.4,129C133.5,129.1,133.5,129,133.4,129"/>
								<path class="st3" d="M134.1,129.3c0,0,0-0.1-0.1-0.1l-0.1-0.1h-0.1h-0.1c0,0-0.1,0-0.1,0.1c0,0,0,0.1-0.1,0.1v0.1v0.1
									c0,0,0,0.1,0.1,0.1c0,0,0.1,0,0.1,0.1c0.1,0,0.1,0,0.2,0c0.1,0,0.1-0.1,0.1-0.1h-0.1c0,0,0,0.1-0.1,0.1h-0.1h-0.1
									c0,0,0,0,0-0.1c0,0,0,0,0-0.1v-0.1l0,0l0.5,0.1v-0.1C134.1,129.4,134.1,129.3,134.1,129.3 M133.7,129.3L133.7,129.3
									L133.7,129.3c0.1-0.1,0.1-0.1,0.1-0.1s0,0,0.1,0c0,0,0,0,0.1,0c0,0,0,0,0.1,0c0,0,0,0,0,0.1c0,0,0,0,0,0.1c0,0,0,0,0,0.1
									l0,0L133.7,129.3z"/>
								<path class="st3" d="M135.1,129.5C135.1,129.5,135,129.4,135.1,129.5c-0.1-0.1-0.1-0.1-0.1-0.1h-0.1c0,0-0.1,0-0.1,0.1l0,0
									l0,0v-0.1c0,0-0.1,0-0.1-0.1c-0.1,0-0.2,0-0.2,0l0,0l0,0v-0.1h-0.1l-0.2,0.6h0.1l0.1-0.4l0,0l0,0c0,0,0,0,0.1,0h0.1
									c0,0,0,0,0.1,0l0,0l0,0c0,0,0,0,0,0.1l-0.1,0.4h0.1l0.1-0.4c0,0,0-0.1,0.1-0.1h0.1c0,0,0,0,0.1,0
									C135,129.5,135,129.5,135.1,129.5c-0.1,0.1-0.1,0.1-0.1,0.1s0,0,0,0.1l-0.1,0.4h0.1l0.1-0.4
									C135.1,129.6,135.1,129.6,135.1,129.5L135.1,129.5"/>
								<path class="st3" d="M135.4,129.4L135.4,129.4l-0.1-0.1h0.1V129.4z M135.4,129.5L135.4,129.5l-0.3,0.6h0.1L135.4,129.5z"/>
								<path class="st3" d="M135.8,130.3C135.8,130.3,135.8,130.2,135.8,130.3c0.1-0.1,0.1-0.1,0.1-0.1v-0.1c0,0,0,0,0-0.1
									c0,0,0,0-0.1,0c0,0,0,0-0.1,0c0,0,0,0-0.1,0c0,0,0,0-0.1,0l0,0c0,0,0,0,0-0.1l0,0l0,0l0,0h0.1l0,0l0,0c0,0,0,0,0,0.1h0.1
									v-0.1v-0.1c0,0,0,0-0.1-0.1h-0.1h-0.1h-0.1c0,0,0,0-0.1,0c0,0,0,0,0,0.1v0.1c0,0,0,0.1,0.1,0.1c0,0,0.1,0,0.1,0.1h0.1
									c0,0,0,0,0.1,0.1c0,0,0,0,0,0.1C135.8,130.2,135.8,130.2,135.8,130.3C135.8,130.2,135.7,130.2,135.8,130.3
									c-0.1-0.1-0.1-0.1-0.1-0.1h-0.1l0,0l0,0c0,0,0,0,0-0.1h-0.1v0.1v0.1c0,0,0,0,0.1,0.1C135.6,130.3,135.6,130.3,135.8,130.3
									C135.7,130.3,135.7,130.3,135.8,130.3"/>
								<path class="st3" d="M136.3,129.6L136.3,129.6l-0.1,0.2h-0.1v0.1h0.1l-0.1,0.4v0.1l0,0l0,0c0,0,0,0,0.1,0h0.1v-0.1l0,0l0,0
									l0,0l0,0l0,0l0.1-0.4h0.1v-0.1h-0.1L136.3,129.6z"/>
								<path class="st3" d="M131.2,128.1L131.2,128.1l-0.1,0.2H131v0.1h0.1l-0.1,0.4v0.1l0,0l0,0c0,0,0,0,0.1,0h0.1v-0.1l0,0l0,0
									l0,0l0,0l0,0l0.1-0.4h0.1v-0.1h-0.1L131.2,128.1z"/>
								<path class="st3" d="M136.6,130L136.6,130L136.6,130v-0.1h-0.1l-0.2,0.6h0.1l0.1-0.3L136.6,130
									C136.6,130.1,136.6,130.1,136.6,130c0.1,0,0.1,0,0.1,0h0.1v-0.1c-0.1,0-0.1,0-0.1,0C136.7,130,136.6,130,136.6,130"/>
								<path class="st3" d="M136.9,130.8C137,130.8,137,130.8,136.9,130.8l0.5-0.7h-0.1l-0.3,0.4l0,0l0,0V130h-0.1l0.1,0.7l0,0
									L136.9,130.8C136.9,130.7,136.9,130.8,136.9,130.8c-0.1,0-0.1,0-0.1,0l0,0l0,0v0.1l0,0l0,0c0,0,0,0,0.1,0
									C136.9,130.9,136.9,130.9,136.9,130.8L136.9,130.8"/>
							</g>
						</g>
						<path class="st18" d="M143.8,75.5l0.8,19.3c-4,5.2-16.9,10.4-20.8,10.6c-0.3-5.4-4.4-3.9-0.7-8.9l-0.4-9.9L143.8,75.5z"/>
						<path class="st11" d="M143.4,80.3L126,105.6c0,0-1.2-2.2-2.6-3.8c-1.5-1.5-2.6-0.7-2.5-1c0.1-0.2,0.5-1.6,1.2-2.6
							c0.6-1,1.1-1.7,1.1-1.7l-0.1-2.8L143.4,80.3z"/>
						<path class="st19" d="M122.9,102.2c0,0-1.7,3.3-2.9,7.4c-1.2,4.1-1.7,11.4-1.7,11.4l5.1,1.4c0,0,0.8-6.7,1.4-9.7
							c0.7-3.3,2.8-8.6,2.8-8.6l-3.7-1.4L122.9,102.2z"/>
						<path class="st12" d="M123,94.5c0,0,11.4-4.8,14.9-7.3s7.5-9.6,7.5-9.6l-22.5,12.1L123,94.5z"/>
						<path class="st18" d="M126.4,43.6c6.3,0,20.4,3.9,23.2,11.9s-1.8,14.8-1.8,14.8s-4.3,9.9-5.4,10.7c-1.1,0.8-13,10.6-19.3,8.8
							c-6.9-2-9.3-12.4-9.7-15.6c-0.4-3.2,2.6-16,2.7-19.1s-0.7-9-0.7-9L126.4,43.6z"/>
						<g id="Top_00000009560557078064134810000001545959293743291550_">
							<g>
								<path class="st12" d="M135.6,62.8c-1.2-1.8-3.4-3-5.6-3.1c-0.4,0-0.9,0-1.3-0.2c-0.4-0.2-0.3-1.2-0.1-1.6
									c1.8-0.3,3.8,0.1,5.4,1.1c1.6,1,2.8,2.5,3.3,4.2C136.7,63.2,135.9,63.2,135.6,62.8z"/>
							</g>
							<g>
								<path class="st12" d="M118.9,56.7c0.4,0.1,1.2,0.4,1.7,0.4c0.4,0,0.5-0.7,0.5-1.1c-1.5-1.1-2.9-1.8-4.8-1.5
									C114.9,54.7,116.8,56.4,118.9,56.7z"/>
							</g>
							<g>
								<path class="st12" d="M117.7,72.9c0.2,0.1,0.3,0.2,0.5,0.3l4.5,2.5c0,0,0.4,0.2,0.7-0.2c0.2-0.3-0.2-0.6-0.2-0.6l-4.5-2.5
									c-0.5-0.3-1-0.6-1.1-0.9s0.1-0.7,0.3-1.1l3-5.5c0.5-1,1.1-2.1,1.2-3.4c0.1-1.4-0.9-1.1-1,0c0,1.1-0.6,2.1-1.1,3l-3,5.5
									c-0.2,0.4-0.6,1.1-0.3,1.8C116.8,72.2,117.2,72.6,117.7,72.9z"/>
							</g>
							<g>
								<path class="st15" d="M129.9,79.2c-0.5,1.4-4.1,4.1-5.6,4.2s-4.1-0.3-5.2-1.2c-1.1-0.9-2.4-3.7-2.6-5.7
									C119.9,77.6,126.4,79,129.9,79.2z"/>
							</g>
							<path class="st20" d="M125.9,67.2c0,0,0.9-2.7,2.5-2.6c1.7,0.1,2.5,3.7,2.5,3.7"/>
							<g>
								<g>
									<g>
										<g>
											<g>
												<g>
													<defs>
														<path id="SVGID_3_" d="M118.9,67l2.1-4l-1.1-1.9c0,0-2.8-0.3-2.9-0.3s-2,3.8-2,3.8l1.3,2.1L118.9,67z"/>
													</defs>
													<clipPath id="SVGID_4_">
														<use xlink:href="#SVGID_3_"  style="overflow:visible;"/>
													</clipPath>
													<path class="st21" d="M116.4,64.9c0,0,0.9-2.7,2.5-2.6s1.4,4.1,1.4,4.1"/>
												</g>
											</g>
										</g>
									</g>
								</g>
							</g>
							<path class="st18" d="M145.8,149.4v3.4l-6.5,56.2c0,0,2.9,2,7.2,3.1s9.5,0.5,9.5,0.5l10.5-59.8v-4.7L145.8,149.4z"/>
							<path class="st22" d="M115.7,49.2l7.7,5.7l-0.6-3.5l7.7,6.6l-0.7-4.1c0,0,6.4,5.9,8.1,9.2c1.6,3.3,2.5,10,2.5,10
								s3.1-6.7,3.7-8.1c0.7-1.5,1.3-3.1,2.6-2.7c1.3,0.4,2.7,0.8,2.3,3c-0.4,2.3-2.7,3.1-3.2,4c-0.3,0.6-1.5,6-1.9,9.1
								c-0.2,1.3,0.1,2.3,0.1,2.3s5.3-8.2,6.7-10.8c1.9-3.6,7.4-12.1,1.5-24.4s-13.1-14.6-20.3-14.6c-6.2,0-13.7,5-17.2,10.6
								s-0.4,11.2-0.4,11.2l1.8,1.7c0,0-0.1-1.6-0.1-2.6C115.8,50.9,115.7,49.2,115.7,49.2z"/>
							<path class="st16" d="M139.3,148.7c0,0-5.8-49.6,15.7-49.7s18.8,49.7,18.8,49.7s-9.2,2-17.6,2.3S139.3,148.7,139.3,148.7z"/>
							<path class="st19" d="M123.1,89.8l-0.9-0.3c0,0-2.9,5.4-3.7,7.4s-2.4,6.7-2.4,6.7s1.8-1.2,4.5-1.3c2.8-0.1,4.3,0.8,4.3,0.8
								S122.9,97.2,123.1,89.8z"/>
							<path class="st19" d="M124.9,103c0,0,5.1-2.7,9.5-6.2c4.9-3.8,10.1-13,10.1-13s1.9,0.9,3.6,2.4c0.8,0.7,2.4,2.7,2.4,2.7
								s-12.4,17.6-14.2,19.8c-1.8,2.3-3.2,4-3.2,4s-0.8-2.9-3.2-5.5C127.5,104.7,124.9,103,124.9,103z"/>
							
								<ellipse transform="matrix(0.3337 -0.9427 0.9427 0.3337 -26.4049 190.7209)" class="st3" cx="121.7" cy="114" rx="0.8" ry="0.7"/>
							
								<ellipse transform="matrix(0.3337 -0.9427 0.9427 0.3337 -30.34 192.875)" class="st3" cx="121.3" cy="117.9" rx="0.8" ry="0.7"/>
						</g>
						<g id="Arms_00000100385029969208859760000004579443642537989295_">
							<path class="st11" d="M101.6,112.4c-0.2,1.6-1.5,9.5-2.3,12.5c-1.4,5.3-3.2,9.2-3.2,9.2s7.3,13.8,5.7,15.4
								c-2.4,2.3-4.9,3-11.7-1.1c-8.4-5.1-0.4-31.1-0.4-31.1l2.7-3.8L101.6,112.4z"/>
							<polygon class="st23" points="86.2,117.4 94.3,119.2 86.3,140.4 85.5,139.2 							"/>
							<g>
								<path class="st10" d="M100.8,160.3c3.5-2.9,3.1-13.6,3.4-19c0.4-8-0.7-17.2,0.9-19.9c1.6-2.8,4.9-9.4,4.9-10.7
									c-0.1-4.6-0.6-9-0.9-11.7c-0.1-0.5-0.2-1-0.6-1.4c-0.6-0.8-1.7-0.9-2.5-1.5c-0.6-0.6-0.9-1.5-1.5-2.1
									c-0.7-0.7-1.8-0.8-2.8-0.7c-0.3,0-0.6,0-0.9-0.1s-0.5-0.4-0.7-0.6c-1.7-1.5-4.2-0.4-5.4,1.2l2.4,2.3
									c-2.8,0.2-6.7,1.9-6.7,1.9l2,15.7l-4.1,18.9c-3.5,12.6-4.4,15.8-4.4,15.8"/>
								<path class="st24" d="M89.4,98.9c0.7-1.3,2-3.7,2.9-4.1s4.1-1.2,4.8-1.3c0.7-0.1,1.9,0.1,2.8,0.4s0.9,2.9-1.6,3.3
									c-2.4,0.4-4.1,0.5-4.8,0.7c-0.6,0.2-2.4,0.9-2.4,0.9L89.4,98.9z"/>
								<path class="st24" d="M105.1,108.1c-0.1-1.4-2.1-1.5-2.6-1.6c1-0.3,1.9-0.5,2.3-1.1c0.4-0.5,0.2-1.5-0.4-1.9
									c-1.1-0.7-3.2-1.1-6.8-1.1c2.1-0.7,2.3-2.9,0.7-3.2c-1.6-0.4-4.5-0.4-8.4-0.2c-1.1,0.1-1.9,0.6-2.7,1.3
									c-0.9,0.8-1.7,1.7-2.3,2.8c-0.4,0.6-0.6,1.5-0.2,2c0.2,0.3,0.5,0.4,0.7,0.6c0.5,0.5,0.5,1.3,0.4,2s-0.2,1.4,0.2,2
									c0.4,0.6,1.1,0.8,1.5,1.4s0.4,1.4,0.3,2.2c-0.1,0.7-0.1,1.6,0.4,2.1c0.4,0.5,1.1,0.7,1.4,1.2c0.2,0.2-0.5,1.1-0.4,1.4
									c0.2,0.5,1.3,0.2,1.8,0.4l2.9-3.8c0,0,2-0.5,5.1-1.1c3.2-0.7,2.8-3.2,1-3.5C102.3,109.8,105.2,109.6,105.1,108.1z"/>
								<g>
									<path class="st18" d="M88.2,97.9c3.9-0.2,6.8-0.2,8.4,0.2c1.6,0.4,1.4,2.5-0.7,3.2c3.6,0,5.6,0.4,6.8,1.1
										c0.6,0.4,0.8,1.4,0.4,1.9c-0.5,0.6-1.3,0.8-2.3,1.1c0.5,0.1,2.5,0.2,2.6,1.6c0.1,1.6-2.8,1.8-4.8,2c1.7,0.3,2.1,2.9-1,3.5
										c-3.2,0.7-5.1,1.1-5.1,1.1l-2.7,3.8c-0.5-0.1-1.1-0.5-1.3-1c-0.1-0.3-0.2-0.6-0.3-0.8c-0.3-0.5-1-0.7-1.4-1.2
										c-0.5-0.6-0.5-1.4-0.4-2.1s0.1-1.6-0.3-2.2s-1.2-0.8-1.5-1.4c-0.4-0.6-0.3-1.3-0.2-2c0.1-0.7,0.1-1.5-0.4-2
										c-0.2-0.2-0.5-0.4-0.7-0.6c-0.5-0.6-0.2-1.4,0.2-2c0.6-1.1,1.5-1.9,2.3-2.8C86.3,98.5,87.1,98,88.2,97.9z"/>
									<path class="st25" d="M95.9,101.3c-1,0.1-1.9,0.2-2.9,0.2c-1,0.1-1.9,0.1-2.8,0.2c-0.2,0-0.5,0-0.6,0.1
										c-0.2,0.1-0.4,0.2-0.6,0.3c-0.4,0.2-0.8,0.5-1.2,0.8l-2.3,1.7c0.7-0.7,1.4-1.4,2.1-2c0.4-0.3,0.7-0.6,1.1-0.9
										c0.2-0.1,0.4-0.3,0.7-0.4c0.3-0.1,0.5-0.1,0.8-0.2c1-0.1,1.9-0.1,2.9-0.1C94,101.2,94.9,101.2,95.9,101.3z"/>
									<path class="st25" d="M100.7,105.3c-2.3,0.2-4.6,0.3-6.9,0.3h-0.9c-0.2,0-0.3,0-0.4,0s-0.3,0.1-0.4,0.1
										c-0.5,0.2-1,0.5-1.6,0.7l-3.1,1.5c0.9-0.7,1.9-1.3,2.9-1.8c0.5-0.3,1-0.5,1.6-0.8c0.1-0.1,0.3-0.1,0.4-0.2
										c0.2,0,0.3-0.1,0.5-0.1h0.9C96.1,105.2,98.4,105.2,100.7,105.3z"/>
									<path class="st25" d="M98.5,108.8c-0.9,0.1-1.8,0.2-2.6,0.3c-0.9,0.1-1.8,0.1-2.6,0.2c-0.4,0-0.7,0.3-1.1,0.5l-1.1,0.7
										c-0.8,0.5-1.5,0.9-2.3,1.4c0.7-0.6,1.4-1.1,2.1-1.7c0.4-0.3,0.7-0.5,1.1-0.8c0.4-0.2,0.8-0.5,1.3-0.6
										c0.9-0.1,1.8-0.1,2.7-0.1C96.8,108.7,97.6,108.8,98.5,108.8z"/>
								</g>
								<path class="st18" d="M88.6,97.9c0.7-1.3,2-3.7,2.9-4.1s3.6-0.7,4.3-0.8c0.7-0.1,2.6,0.7,3.6,1s0.6,1.8-1.9,2.2
									c-2.4,0.4-4.1,0.5-4.8,0.7c-0.6,0.2-2.4,0.9-2.4,0.9L88.6,97.9z"/>
							</g>
						</g>
						<g>
							<polygon class="st26" points="102.8,56.7 108.8,54 107.1,52.9 103.1,54.9 							"/>
							<path class="st19" d="M143.5,61.5c0,0-7.8,2.9-14.1,4.4c-8.7,2-5.5-2.3-19.5-9.8c-2.6-1.4-3.6-1.7-5.4-1.1
								c-1.5,0.5-1.5,2-2.1,1.7c-0.8-0.5-0.6-1.1,0.7-2.5c1.1-1.3,9.4-7.2,9.4-7.2L143.5,61.5z"/>
							<path class="st19" d="M143,61.5c0.6-0.2,6.2-2.7,6.8-3c7.8-3.6,8.3-10.3,1-14.8c-3.7-2.3-8.5-3.6-13.5-3.8
								c-5-0.3-10,0.5-13.9,2.3S112.6,47,112.6,47C130.1,54.8,129.1,62.5,143,61.5z"/>
							<path class="st19" d="M133.4,27.7c25.5,0.2,22.5,24,22.5,24L112.5,47C112.5,47,116.8,27.5,133.4,27.7z"/>
							<path class="st27" d="M141,30.8c14,9.3,2.1,30.7,2.1,30.7s-5.6,0.7-10-1.5c-6.3-3.2-5.5-5.6-20.5-13.1
								C112.5,47,118.5,19.7,141,30.8z"/>
							<path class="st28" d="M137.7,30.3c-0.2,0.8,0.8,1.6,2.1,1.9c1.4,0.3,2.6-0.2,2.8-0.9c0.2-0.8-0.8-1.6-2.1-1.9
								C139.1,29.1,137.8,29.5,137.7,30.3z"/>
						</g>
						<g>
							<g>
								<g>
									<path class="st3" d="M121.5,41.5l-1.6,2.6l2.6,1.6l1.6-2.6L121.5,41.5z M122.2,44.5l-1-0.6l0.6-1l1,0.6L122.2,44.5z"/>
									
										<rect x="124.1" y="44.7" transform="matrix(0.5256 -0.8507 0.8507 0.5256 20.6642 127.5657)" class="st3" width="1.2" height="1.2"/>
								</g>
								<path class="st3" d="M126.8,44.8c0,0,1.2,0.8,1.5,0.9c0.5,0.3,0.6,0.8,0.4,1.2c-0.1,0.2-0.3,0.3-0.7,0.3
									c0.2,0.3,0.3,0.6,0.1,0.9c-0.2,0.4-0.8,0.6-1.4,0.2c-0.4-0.2-1.5-0.9-1.5-0.9L126.8,44.8z M126.3,47.3c0,0,0.3,0.2,0.5,0.3
									s0.4,0,0.4-0.1c0,0.1,0.2-0.2-0.1-0.4c-0.1-0.1-0.6-0.3-0.6-0.3L126.3,47.3z M126.9,46.3c0,0,0.2,0.2,0.4,0.3
									c0.2,0.1,0.3,0.1,0.4-0.1c0,0,0.1-0.2-0.1-0.3c0.1,0.1-0.5-0.3-0.5-0.3L126.9,46.3z"/>
								<path class="st3" d="M130,46.7l0.8,0.5l-0.7,3.2l-0.9-0.5l0.1-0.5l-0.8-0.5l-0.3,0.3l-0.9-0.5L130,46.7z M129.9,47.8
									l-0.8,0.7l0.5,0.3L129.9,47.8z"/>
								<path class="st3" d="M132.7,49.5l0.8,0.5c0.3-0.4,0.2-1.1-0.6-1.6c-0.9-0.5-1.4-0.2-1.7,0.1c-0.4,0.6,0.3,1.1,0.3,1.2
									c0.1,0.1,0.4,0.5,0.5,0.6s0.1,0.2,0.1,0.3c-0.1,0.2-0.3,0.1-0.5,0c-0.1-0.1-0.4-0.3-0.2-0.6l-0.8-0.5
									c-0.3,0.5-0.3,1.2,0.6,1.7c1,0.6,1.5,0.1,1.7-0.2s0.2-0.6-0.1-1c-0.2-0.2-0.4-0.5-0.6-0.6c-0.1-0.1-0.3-0.3-0.2-0.5
									s0.5,0,0.4,0C132.7,49.1,132.8,49.3,132.7,49.5z"/>
								<polygon class="st3" points="134.2,49.3 136.2,50.6 135.8,51.3 134.5,50.5 134.3,51 135.3,51.6 134.9,52.3 133.8,51.6 
									133.3,52.4 132.5,51.9 								"/>
							</g>
							<g>
								<polygon class="st3" points="119.7,46.9 119.7,46.9 120,45.8 119.9,45.7 119,46.5 119,46.4 119,46.4 119.4,45.4 119.2,45.3 
									118.8,46.6 119,46.7 119.8,45.9 119.8,45.9 119.8,45.9 119.5,47 119.7,47.1 120.7,46.2 120.5,46.1 								"/>
								<path class="st3" d="M121,47c0-0.1,0-0.1,0-0.2c0-0.1-0.1-0.1-0.2-0.2c-0.1,0-0.1-0.1-0.2-0.1s-0.1,0-0.2,0s-0.1,0-0.2,0.1
									c-0.1,0-0.1,0.1-0.1,0.2c0,0.1-0.1,0.1-0.1,0.2c0,0.1,0,0.1,0,0.2c0,0.1,0,0.1,0.1,0.2c0,0.1,0.1,0.1,0.2,0.1
									c0.1,0.1,0.2,0.1,0.3,0.1c0.1,0,0.2-0.1,0.2-0.1l-0.1-0.1l-0.1,0.1c-0.1,0-0.1,0-0.2,0l-0.1-0.1v-0.1v-0.1
									c0,0,0-0.1,0.1-0.1l0,0l0.6,0.4c0,0,0.1-0.1,0.1-0.2C121,47.1,121,47.1,121,47 M120.4,46.9L120.4,46.9
									C120.4,46.8,120.4,46.8,120.4,46.9c0.1-0.1,0.1-0.1,0.2-0.1h0.1h0.1c0,0,0.1,0,0.1,0.1V47v0.1v0.1l0,0L120.4,46.9z"/>
								<path class="st3" d="M121.7,48.2C121.7,48.2,121.6,48.2,121.7,48.2c-0.1-0.1-0.1-0.2-0.1-0.2v-0.1c0,0,0-0.1,0.1-0.1
									l0.1-0.1l0.1-0.1h0.1h0.1c0.1,0,0.1,0.1,0.1,0.1s0,0.1,0,0.2l0.1,0.1v-0.1v-0.1c0,0,0-0.1-0.1-0.1l-0.1-0.1
									c-0.1,0-0.1-0.1-0.2-0.1s-0.1,0-0.2,0s-0.1,0.1-0.2,0.1c0,0-0.1,0.1-0.1,0.2c0,0.1-0.1,0.1-0.1,0.2c0,0.1,0,0.1,0,0.2
									c0,0.1,0,0.1,0.1,0.2l0.1,0.1c0.1,0.1,0.2,0.1,0.3,0.1c0.1,0,0.2-0.1,0.3-0.2l-0.1-0.1c0,0.1-0.1,0.1-0.2,0.1
									C121.8,48.3,121.8,48.3,121.7,48.2"/>
								<path class="st3" d="M122.9,48c-0.1,0-0.1,0-0.2,0.1l0,0l0,0l0.1-0.2l-0.1-0.1l-0.5,0.8l0.1,0.1l0.2-0.4
									c0-0.1,0.1-0.1,0.1-0.1l0.1-0.1h0.1c0,0,0.1,0,0.2,0.1l0.1-0.1l0,0C123,48,123,48,122.9,48"/>
								<path class="st3" d="M123.7,48.7c0-0.1,0-0.1,0-0.2c0-0.1-0.1-0.1-0.2-0.2c-0.1,0-0.1-0.1-0.2-0.1s-0.1,0-0.2,0
									s-0.1,0-0.2,0.1c-0.1,0-0.1,0.1-0.1,0.2c0,0.1-0.1,0.1-0.1,0.2c0,0.1,0,0.1,0,0.2c0,0.1,0,0.1,0.1,0.2
									c0,0.1,0.1,0.1,0.2,0.1c0.1,0.1,0.2,0.1,0.3,0.1c0.1,0,0.2-0.1,0.2-0.1l-0.1-0.1l-0.1,0.1c-0.1,0-0.1,0-0.2,0l-0.1-0.1V49
									v-0.1c0,0,0-0.1,0.1-0.1l0,0l0.6,0.4c0,0,0.1-0.1,0.1-0.2C123.7,48.8,123.7,48.7,123.7,48.7 M123.1,48.5L123.1,48.5
									L123.1,48.5c0.1-0.1,0.1-0.1,0.2-0.1h0.1h0.1c0,0,0.1,0,0.1,0.1v0.1v0.1v0.1l0,0L123.1,48.5z"/>
								<path class="st3" d="M124.3,49.8C124.3,49.8,124.3,49.7,124.3,49.8l0.3-0.5v-0.1v-0.1c0,0,0-0.1-0.1-0.1
									c-0.1-0.1-0.2-0.1-0.2-0.1h-0.1h-0.1L124,49l0,0c0-0.1,0.1-0.1,0.1-0.1c0.1,0,0.1,0,0.2,0.1c0,0,0,0,0.1,0c0,0,0,0,0,0.1
									c0,0,0,0,0,0.1v0.1c0,0,0,0-0.1,0h-0.1h-0.1H124h-0.1h-0.1h-0.1l-0.1,0.1v0.1v0.1c0,0,0,0.1,0.1,0.1l0.1,0.1
									c0.1,0,0.1,0.1,0.2,0.1s0.1,0,0.2,0l0,0l0,0V50c0,0,0,0.1,0.1,0.1h0.1L124.3,49.8L124.3,49.8L124.3,49.8 M124.2,49.5
									C124.2,49.6,124.2,49.6,124.2,49.5C124.1,49.6,124.1,49.6,124.2,49.5l-0.2,0.1c0,0-0.1,0-0.1-0.1c0,0,0,0-0.1,0
									c0,0,0,0,0-0.1c0,0,0,0,0-0.1c0,0,0,0,0-0.1c0,0,0-0.1,0.1-0.1h0.1h0.1h0.1h0.1h0.1l0,0L124.2,49.5z"/>
								<path class="st3" d="M125.9,50c0-0.1,0-0.1,0-0.2c0-0.1-0.1-0.1-0.2-0.2c-0.1,0-0.1-0.1-0.2-0.1s-0.1,0-0.2,0
									s-0.1,0-0.2,0.1c-0.1,0-0.1,0.1-0.1,0.2c0,0.1-0.1,0.1-0.1,0.2c0,0.1,0,0.1,0,0.2c0,0.1,0,0.1,0.1,0.2
									c0,0.1,0.1,0.1,0.2,0.1c0.1,0.1,0.2,0.1,0.3,0.1c0.1,0,0.2-0.1,0.2-0.1l-0.1-0.1l-0.1,0.1c-0.1,0-0.1,0-0.2,0l-0.1-0.1v-0.1
									v-0.1c0,0,0-0.1,0.1-0.1l0,0l0.6,0.4c0,0,0.1-0.1,0.1-0.2C125.9,50.2,125.9,50.1,125.9,50 M125.3,49.9L125.3,49.9
									C125.3,49.9,125.3,49.8,125.3,49.9c0.1-0.1,0.1-0.1,0.2-0.1h0.1h0.1c0,0,0.1,0,0.1,0.1V50v0.1v0.1l0,0L125.3,49.9z"/>
								<path class="st3" d="M126.6,51.3C126.6,51.2,126.5,51.2,126.6,51.3c-0.1-0.1-0.1-0.2-0.1-0.2V51c0,0,0-0.1,0.1-0.1l0.1-0.1
									l0.1-0.1h0.1h0.1c0.1,0,0.1,0.1,0.1,0.1s0,0.1,0,0.2l0.1,0.1V51v-0.1c0,0,0-0.1-0.1-0.1l-0.1-0.1c-0.1,0-0.1-0.1-0.2-0.1
									s-0.1,0-0.2,0s-0.1,0.1-0.2,0.1c0,0-0.1,0.1-0.1,0.2c0,0.1-0.1,0.1-0.1,0.2c0,0.1,0,0.1,0,0.2c0,0.1,0,0.1,0.1,0.2l0.1,0.1
									c0.1,0.1,0.2,0.1,0.3,0.1c0.1,0,0.2-0.1,0.3-0.2l-0.1-0.1c0,0.1-0.1,0.1-0.2,0.1C126.7,51.3,126.7,51.3,126.6,51.3"/>
								<path class="st3" d="M128.2,51.3L128.2,51.3l-0.1-0.2H128h-0.1h-0.1h-0.1l0,0l0,0l0.3-0.4l-0.1-0.1l-0.7,1.1l0.1,0.1
									l0.3-0.5c0,0,0-0.1,0.1-0.1c0,0,0.1,0,0.1-0.1h0.1h0.1C128.1,51.1,128.1,51.2,128.2,51.3c-0.1-0.1-0.1,0-0.1,0.1l-0.3,0.6
									l0.1,0.1l0.3-0.5c0,0,0-0.1,0.1-0.1C128.2,51.4,128.2,51.3,128.2,51.3"/>
								<path class="st3" d="M129,51.9c0-0.1,0-0.1,0-0.2c0-0.1-0.1-0.1-0.2-0.2c-0.1,0-0.1-0.1-0.2-0.1c-0.1,0-0.1,0-0.2,0
									c-0.1,0-0.1,0-0.2,0.1c-0.1,0-0.1,0.1-0.1,0.2c0,0.1-0.1,0.1-0.1,0.2c0,0.1,0,0.1,0,0.2c0,0.1,0,0.1,0.1,0.2
									c0,0.1,0.1,0.1,0.2,0.1c0.1,0.1,0.2,0.1,0.3,0.1s0.2-0.1,0.2-0.1l-0.1-0.1l-0.1,0.1c-0.1,0-0.1,0-0.2,0l-0.1-0.1v-0.1v-0.1
									c0,0,0-0.1,0.1-0.1l0,0l0.6,0.4c0,0,0.1-0.1,0.1-0.2C129,52.1,129,52,129,51.9 M128.4,51.8L128.4,51.8
									C128.4,51.8,128.4,51.7,128.4,51.8c0.1-0.1,0.1-0.1,0.2-0.1h0.1h0.1c0,0,0.1,0,0.1,0.1v0.1V52v0.1l0,0L128.4,51.8z"/>
								<path class="st3" d="M130.4,52.7C130.4,52.6,130.4,52.6,130.4,52.7c-0.1-0.1-0.1-0.2-0.2-0.2c-0.1,0-0.1-0.1-0.2-0.1
									c-0.1,0-0.1,0-0.2,0l0,0l0,0c0-0.1,0-0.1,0-0.2l-0.1-0.1c-0.1-0.1-0.2-0.1-0.4,0l0,0l0,0l0.1-0.1l-0.1-0.1l-0.5,0.8l0.1,0.1
									l0.3-0.5c0,0,0,0,0-0.1h0.1h0.1h0.1c0,0,0.1,0,0.1,0.1c0,0,0,0,0,0.1c0,0,0,0,0,0.1v0.1l-0.3,0.5l0.1,0.1l0.3-0.5
									c0-0.1,0.1-0.1,0.2-0.1c0.1,0,0.1,0,0.2,0c0,0,0.1,0,0.1,0.1c0,0,0,0,0,0.1c0,0,0,0,0,0.1V53l-0.3,0.5l0.1,0.1l0.4-0.6v-0.1
									C130.4,52.7,130.4,52.7,130.4,52.7"/>
								<path class="st3" d="M130.9,52.7l-0.1-0.1l0.1-0.2l0.1,0.1L130.9,52.7z M130.8,52.9l-0.1-0.1l-0.5,0.8l0.1,0.1L130.8,52.9z"
									/>
								<path class="st3" d="M131.1,54.1h0.1l0.1-0.1v-0.1v-0.1c0,0,0-0.1-0.1-0.1l-0.1-0.1l-0.1-0.1l-0.1-0.1v-0.1v-0.1
									c0,0,0,0,0.1,0c0,0,0,0,0.1,0c0,0,0,0,0.1,0c0,0,0.1,0,0.1,0.1c0,0,0,0,0,0.1c0,0,0,0,0,0.1v0.1l0.1,0.1v-0.1v-0.1
									c0,0,0-0.1-0.1-0.1l-0.1-0.1c0,0-0.1,0-0.1-0.1H131h-0.1c0,0-0.1,0-0.1,0.1s0,0.1,0,0.1s0,0.1,0.1,0.1l0.1,0.1l0.1,0.1
									l0.1,0.1v0.1C131.2,53.9,131.2,53.9,131.1,54.1c0-0.1,0-0.1-0.1-0.1h-0.1c-0.1,0-0.1-0.1-0.1-0.1s0,0-0.1-0.1v-0.1v-0.1
									l-0.1-0.1v0.1v0.1c0,0,0,0.1,0.1,0.1c0.1,0.1,0.2,0.1,0.3,0.2C131,54.1,131.1,54.1,131.1,54.1"/>
								<path class="st3" d="M132.2,53.4l-0.1-0.1l-0.2,0.2l-0.1-0.1l-0.1,0.1l0.1,0.1l-0.3,0.5v0.1v0.1c0,0,0,0,0,0.1
									c0,0,0.1,0,0.1,0.1l0.1,0.1l0.1-0.1h-0.1c0,0,0,0-0.1,0l0,0l0,0l0,0l0.3-0.5l0.2,0.1l0.1-0.1l-0.2-0.1L132.2,53.4z"/>
								<path class="st3" d="M125.2,49.1L125.2,49.1l-0.3,0.1l-0.1-0.1l-0.1,0.1l0.1,0.1l-0.3,0.5v0.1V50c0,0,0,0,0,0.1
									c0,0,0.1,0,0.1,0.1l0.1,0.1l0.1-0.1h-0.1c0,0,0,0-0.1,0l0,0l0,0l0,0l0.3-0.5l0.2,0.1l0.1-0.1l-0.2-0.1L125.2,49.1z"/>
								<path class="st3" d="M132.4,54.1L132.4,54.1L132.4,54.1l0.1-0.2l-0.1-0.1l-0.5,0.8l0.1,0.1l0.2-0.4
									C132.2,54.2,132.3,54.2,132.4,54.1C132.4,54.2,132.4,54.2,132.4,54.1c0.1,0.1,0.1,0.1,0.2,0.1c0,0,0.1,0,0.2,0.1l0.1-0.1
									c-0.1,0-0.1-0.1-0.2-0.1C132.6,54,132.5,54.1,132.4,54.1"/>
								<path class="st3" d="M132.6,55.4c0,0,0.1,0,0.1-0.1l0.9-0.7l-0.1-0.1l-0.6,0.5l0,0l0,0l0.2-0.8l-0.1-0.1l-0.2,1l0,0
									l-0.1,0.1h-0.1h-0.1l0,0l0,0l-0.1,0.1l0,0l0,0h0.1C132.5,55.4,132.5,55.4,132.6,55.4L132.6,55.4"/>
							</g>
						</g>
					</g>
				</g>
			</g>
		</g>
	</g>
</g>
</svg>
