<?xml version="1.0" encoding="utf-8"?>
<!-- Generator: Adobe Illustrator 22.0.1, SVG Export Plug-In . SVG Version: 6.00 Build 0)  -->
<svg version="1.1" id="圖層_1" xmlns="http://www.w3.org/2000/svg" xmlns:xlink="http://www.w3.org/1999/xlink" x="0px" y="0px"
	 viewBox="0 0 250 100" style="enable-background:new 0 0 250 100;" xml:space="preserve">
<style type="text/css">
	.st0{fill-rule:evenodd;clip-rule:evenodd;fill:url(#SVGID_1_);}
</style>
<linearGradient id="SVGID_1_" gradientUnits="userSpaceOnUse" x1="-20.7372" y1="58.5926" x2="172.2585" y2="45.1562">
	<stop  offset="0" style="stop-color:#FFFFFF;stop-opacity:0.5"/>
	<stop  offset="1" style="stop-color:#FFFFFF"/>
</linearGradient>
<path class="st0" d="M0,65.3V44.4c0.9,0,1.8-0.1,2.7-0.3c-0.2-0.6-0.3-1.1-0.3-1.7c0-3.4,2.9-6.2,6.5-6.2c0.5,0,0.9,0,1.4,0.1
	c2.1-3.3,4.3-5.6,8.9-3.7c1.4-2.1,3.8-3.5,6.6-3.5c0.4,0,0.8,0,1.2,0.1l0-0.3c-0.9-2.2-1.4-4.7-1.4-7.2c0-11.1,9.4-20.1,21-20.1
	c7.3,0,13.8,3.6,17.6,9.1c4.7,0.6,8.3,4.4,8.7,8.9c3-5.9,9.2-10,16.5-10c7.7,0,14.2,4.5,17,10.9l1.3,0.6c2.1-1.5,4.7-2.3,7.5-2.3
	c7.1,0,12.9,5.5,12.9,12.4c0,1.8-0.4,3.5-1.1,5c2,1.8,3.3,4.4,3.3,7.3c0,0.8-0.1,1.6-0.3,2.4c9.8,4.8-17.7,9.7,33.8,13.1
	c12.2,0.8-29,8.1,1.9,12.8c31,4.7,37.5,4.9,49.7,2.1c12.2-2.8,13.6,0.6,11.6-5.3c-1.9-6-3.2-6.3,8-6c11.2,0.3,16.1,4.2,15.2,5.2
	c-0.9,1.1-24.5,13-29.3,16.1c-4.9,3-31.9,12.5-31.9,12.5l-52.2,1c0,0-6.8,3.9-40.3-3.5C62.5,86.4,54.2,85.7,41.6,83
	C34.4,81.5,13.4,74.3,0,65.3L0,65.3z"/>
</svg>
