<?xml version="1.0" encoding="utf-8"?>
<!-- Generator: Adobe Illustrator 22.0.1, SVG Export Plug-In . SVG Version: 6.00 Build 0)  -->
<svg version="1.1" id="圖層_1" xmlns="http://www.w3.org/2000/svg" xmlns:xlink="http://www.w3.org/1999/xlink" x="0px" y="0px"
	 viewBox="0 0 720 300" style="enable-background:new 0 0 720 300;" xml:space="preserve">
<style type="text/css">
	.st0{fill:#7FFFFF;}
</style>
<path class="st0" d="M720,50.4v248.5c-16.7,0.4-34.6,0.3-52.2,0.8c-51.7,1.8-313.1-12.9-416.1-30.3S2.6,192.1,2.6,192.1L0,178.6V7.1
	c10.3,0.6,22.7,0.6,36.9-0.4c44.3-3.4,34.8-9.5,78-5C158.1,6.1,269.1,24,269.1,24s76.8,13.4,98.6,20.7s29.1,12.1,46.5,18.7
	c17.5,6.8,42.1,9.3,50.5,12.6c8.4,3.4-28.8-0.8-53.2-5c-24.3-4.2-29.6-7.6-40.1-7.6s-13.2-2.2-39.3-10.1
	C306,45.5,226.5,39.9,220.5,39.9S254.1,50,314.7,68C375.2,86,371,78.2,416,88.8c45,10.7,84.8,11.5,120,7.3
	c35.3-4.2,15.6-20.1,47.5-22.4c31.7-2.2,27.6-4.4,79.3-23c51.6-18.5,26.9-2.8,37.6-2.2C707.3,48.9,713.8,49.6,720,50.4L720,50.4z"/>
</svg>
