<?xml version="1.0" encoding="utf-8"?>
<!-- Generator: Adobe Illustrator 22.0.1, SVG Export Plug-In . SVG Version: 6.00 Build 0)  -->
<svg version="1.1" id="圖層_1" xmlns="http://www.w3.org/2000/svg" xmlns:xlink="http://www.w3.org/1999/xlink" x="0px" y="0px"
	 viewBox="0 0 200 100" style="enable-background:new 0 0 200 100;" xml:space="preserve">
<style type="text/css">
	.st0{opacity:0.22;fill:#442309;enable-background:new    ;}
	.st1{fill:url(#SVGID_1_);}
	.st2{fill:#71390B;}
	.st3{fill:#DC8E36;}
	.st4{fill:#6C3203;}
	.st5{fill:#CA7021;}
	.st6{opacity:0.4;fill:#442309;enable-background:new    ;}
	.st7{fill:#1B0600;}
	.st8{fill:#2B1501;}
	.st9{fill:#442309;}
	.st10{opacity:0.47;fill:#442309;enable-background:new    ;}
	.st11{fill:url(#SVGID_2_);}
	.st12{fill:url(#SVGID_3_);}
	.st13{fill:url(#SVGID_4_);}
	.st14{fill:url(#SVGID_5_);}
	.st15{fill:url(#SVGID_6_);}
	.st16{fill:url(#SVGID_7_);}
	.st17{fill:url(#SVGID_8_);}
	.st18{fill:url(#SVGID_9_);}
	.st19{fill:url(#SVGID_10_);}
	.st20{fill:url(#SVGID_11_);}
	.st21{fill:url(#SVGID_12_);}
	.st22{fill:url(#SVGID_13_);}
	.st23{fill:url(#SVGID_14_);}
	.st24{fill:url(#SVGID_15_);}
	.st25{fill:url(#SVGID_16_);}
	.st26{fill:url(#SVGID_17_);}
	.st27{fill:url(#SVGID_18_);}
	.st28{fill:url(#SVGID_19_);}
	.st29{fill:url(#SVGID_20_);}
	.st30{opacity:0.22;}
	.st31{fill:#FFFFFF;}
</style>
<g>
	<g id="圖層_3">
		<path class="st0" d="M196.9,70.5c-0.3-0.1-0.6-0.2-0.9-0.3h0.5c3,0,3.3-0.7,3.4-1.2c0.9-2.8-3.1-4-4.9-4h-0.3
			c-8.1-0.1-16.4,0.1-24.7,0.4l-9.7,0.1c0.1-1.7,0.2-3.4,0.2-5.2c5-0.1,10-0.2,14.9-0.3c7.4-0.2,2.1-12.3,1.6-12.5
			c-0.8-0.5-0.8-0.7-1.9-0.8c0,0,0-0.1-0.1-0.1l-0.9,0c-0.4,0-1,0-1.5-0.1h-0.2c2.4,0,4.4-0.3,5.1-0.7c0.9-0.4,3.9-8.5,3.9-8.5
			s-0.4-1.4-2.4-1.8c-0.2-0.1-0.5-0.2-0.8-0.3h0.4c2.4,0,2.7-0.7,2.8-1.2c0.8-2.8-2.5-3.9-3.9-3.9h-0.3c-6.6-0.1-13.3,0.2-20.1,0.6
			c-10.3,0.2-23.6,0.5-26.4,0.6l-1.2,0.1c-0.4-0.6-0.9-1.2-1.4-1.7c-0.7-0.6-1.5-1.2-2.3-1.6c-0.6-0.9-1.3-1.8-2-2.5
			c-0.7-0.6-1.5-1.2-2.4-1.6l0,0c-0.6-0.9-1.3-1.7-2-2.5c-0.7-0.6-1.5-1.1-2.4-1.5c-0.6-0.9-1.3-1.7-2.1-2.4
			c-0.7-0.6-1.5-1.1-2.4-1.5h0c-0.6-0.9-1.3-1.7-2.1-2.4c-0.7-0.6-1.5-1.1-2.4-1.4c-0.6-0.9-1.4-1.7-2.2-2.4
			c-0.7-0.6-1.6-1.1-2.5-1.4c-1.2-0.5-2.6-0.2-3.6,0.2l-0.2,0.1c-0.2,0-0.4,0.1-0.6,0.1c-0.9,0.3-1.8,0.7-2.5,1.3
			c-0.8,0.7-1.6,1.4-2.3,2.3l0,0c-0.9,0.3-1.7,0.8-2.5,1.3c-0.8,0.7-1.6,1.5-2.2,2.3h0c-0.9,0.3-1.7,0.8-2.5,1.4
			c-0.8,0.7-1.6,1.5-2.2,2.3c-0.9,0.3-1.7,0.8-2.4,1.4c-0.8,0.7-1.5,1.5-2.2,2.4h0c-0.9,0.4-1.7,0.8-2.5,1.4
			c-0.8,0.7-1.5,1.5-2.1,2.4h0c-0.9,0.4-1.7,0.9-2.4,1.5c-0.8,0.7-1.5,1.6-2.1,2.4l-0.2,0.1c-11.5-0.3-23-0.6-34.5-1.2
			c-12.3-0.6-15.1-0.1-15.1-0.1c0,1.1,0.1,2.1,0.3,3.2l0.3,0c0.5,0.3,0.9,0.5,1.5,0.8c1.7,0.3,3.4,0.5,5.1,0.4
			c1.2,0,2.3,0.1,3.5,0.4c-1.2,0.1-2.5,0-3.7-0.1c-3.6-0.4-6.5-0.7-6.9-0.1c-1.1,1.7,0.3,15.9,0.6,16.1c0.1,0.1,0.3,0.1,0.4,0.2
			c0.4,0.3,1,0.6,1.6,1.1c4.7-0.8,9.5,0,12.3,0.5c0.2,0,0.4,0.1,0.6,0.1v0.1c-4.6,0.2-13.1-0.5-13.8-0.5c-1,0-2,3.7-2,4.4
			c0,0.1,0,0.2,0,0.3c0,0,0,0.1,0,0.1c-0.1,0.7,2.3,5.3,3.9,5s5.7-1,10.7-1.1l1.1,0c0,1.3-0.1,2.6-0.1,3.8c-5-0.2-10.1-0.4-15.1-0.6
			C6.4,63.4,3,63.9,3,63.9c0.1,1.1,0.2,2.1,0.4,3.2l0.4,0c0.7,0.3,1.1,0.5,1.8,0.9c2.1,0.3,4.2,0.5,6.3,0.5c1.4,0,2.9,0.2,4.3,0.4
			c-1.5,0.1-3,0-4.5-0.1c-4.4-0.5-8-0.8-8.4-0.2C1.8,70.3,3.6,84.4,4,84.7c0.2,0.1,0.3,0.1,0.5,0.2c0.4,0.3,1.2,0.6,2,1.1
			c5.7-0.7,11.6,0.1,15.1,0.6c0.7,0.1,1.3,0.1,2,0.1C18.5,87,6.4,86.1,5.4,86.1c-1.2,0-2.4,3.7-2.5,4.4c0,0.1,0,0.2,0,0.3
			c0,0,0,0.1,0,0.1c-0.1,0.7,2.9,5.3,4.8,5s7-0.9,13.1-1c55.7-0.7,114.8,0.9,171.8,0.1c0,0,2.5-12.3,1.9-12.5c-1-0.5-1-0.7-2.3-0.8
			c0,0,0-0.1-0.1-0.1l-1.1,0c-0.5,0-1.2-0.1-1.8-0.1h-0.3c3,0,5.4-0.3,6.2-0.6c1.1-0.4,4.7-8.5,4.7-8.5S199.4,70.8,196.9,70.5z
			 M55.2,60.7c28.5-0.3,57.8,0,86.8-0.1c-0.1,1.9-0.1,3.7-0.1,5.2c-2,0-3.6,0.1-4.4,0.1c-3.3,0.1-6.7,0.2-10,0.2
			C103.7,66.2,79.3,66,55,65.3C55.1,63.8,55.1,62.2,55.2,60.7L55.2,60.7z M122.7,31.6c-14.8,0.2-29.9,0.2-45-0.1
			c0.5-0.3,1-0.7,1.5-1.1c1.6-1.3,1.8-2.2,1.8-2.2c1-0.4,1.9-0.9,2.7-1.6c1.6-1.3,1.9-2.2,1.9-2.2c1-0.4,1.9-0.9,2.7-1.5
			c1.6-1.3,1.9-2.1,1.9-2.1c1-0.3,1.9-0.9,2.7-1.5c1.6-1.3,1.9-2.1,1.9-2.1c0.8-0.3,1.5-0.6,2.2-1.1c0.6,2.7,3.3,4.5,6,3.9
			c1.7-0.4,3.1-1.6,3.7-3.2c0.2,0.1,0.3,0.1,0.5,0.2c0,0,0.3,0.9,1.8,2.2c0.8,0.7,1.7,1.2,2.6,1.6c0,0,0.3,0.9,1.8,2.2
			c0.8,0.7,1.7,1.3,2.6,1.7c0,0,0.2,0.9,1.7,2.3c0.8,0.7,1.6,1.3,2.6,1.7c0,0,0.2,0.9,1.7,2.3c0.3,0.3,0.5,0.5,0.8,0.7L122.7,31.6z
			 M119.8,23.6c-0.4,0-0.8,0-1.1,0.1C119,23.7,119.4,23.6,119.8,23.6L119.8,23.6z M117,20L117,20L117,20z"/>
		
			<linearGradient id="SVGID_1_" gradientUnits="userSpaceOnUse" x1="-121.5159" y1="3374.7278" x2="-100.7335" y2="3374.7278" gradientTransform="matrix(1.19 0.44 -0.46 1.15 1731.2057 -3774.2529)">
			<stop  offset="0" style="stop-color:#301504"/>
			<stop  offset="0.46" style="stop-color:#8D5F31"/>
			<stop  offset="1" style="stop-color:#442309"/>
		</linearGradient>
		<path class="st1" d="M48.3,38.1c0.7-0.8,0.2-7.7,0.2-8.1s1.3-1.6,1.6-1.6c0.3,0,2.6,1.2,2.4,1.8c-0.3,1.5-0.4,3-0.3,4.5
			c1.9,19.1-2.2,55.3-2.2,55.3L48.2,89l-7.3-47.4l7-3.8C47.9,38.2,48,38.4,48.3,38.1L48.3,38.1z"/>
		<path class="st2" d="M47.8,29.4c-0.4,2-0.1,4.5,0.1,5.9c0.1,0.6,0.1,1.2,0,1.8c0,0.3,0,0.5,0,0.7l-7,3.8l-1.6-8.4
			c0-0.2,0-0.4,0-0.6c-0.1-1.4,7.4-3.5,7.8-4C47.6,28.5,47.4,28.9,47.8,29.4z"/>
		<path class="st2" d="M41.3,86.8c0,0.2,0,0.3,0,0.5C41.3,86.7,41.3,86.2,41.3,86.8z"/>
		<path class="st2" d="M38.6,31.8c-0.2,1.2,0.4,2.9,0.4,2.9c0.2-0.5,0.3-1,0.3-1.6L48.2,89l1.9,0.9c0,0-8.1-0.5-8.2-0.7
			c-0.3-0.4-0.4-0.5-0.5-0.9c0-0.3,0-0.7,0-1c0-0.1,0-0.3,0-0.5c0-0.6,0-0.1,0,0.5c-0.1,0.9-0.3,1.5-0.5,1.7s-3.7-0.2-3.7-0.2
			c-0.4-0.3-0.7-0.7-0.7-1.2c-0.1-0.9-0.1-0.9-0.1,0c0,0.9-0.3,0.9-0.6,0.9c-1.4,0-2.7-0.7-2.7-1.3s1.3-14.4,1.5-18.9
			c-0.2-5.5,0.9-27.5,0.9-32.1s2.7-6.9,2.7-6.9l0.5,0.6C38.7,30.5,38.7,31.2,38.6,31.8L38.6,31.8z"/>
		<path class="st3" d="M33.1,85.5c0.1-0.5,0.1-1.1,0.2-1.6c0.2-1.5,0.3-12.2,0.4-13.7c0.1-1,0.1-1.9,0.2-2.9
			c-0.2-5.5,0.9-27.5,0.9-32.1c0.1-4.6,1.1-5.8,1.1-5.8l2.2-0.2c0,0.6-0.1,1.2-0.2,1.7c-0.2,1.2,0.4,3,0.4,3s0.4-0.7,0.3-2.2
			c-0.1-1.4-0.1-2.2,0.3-2.7c2.1-0.5,7.4-0.6,8.3-0.4c-0.4,2-0.1,4.5,0.1,5.9c0.1,0.6,0.1,1.2,0,1.8c0,0.9-0.1,1.4,0.3,1
			c0.7-0.8,0.2-7.7,0.2-8.1c0-0.4,1.7-0.7,2-0.7c0.4,0,0.7,0.3,0.7,0.7c0,0.1,0,0.2,0,0.2c-0.2,0.6-0.4,2.4-0.3,4.5
			C52.3,52.9,48.2,89,48.2,89s-0.6,0-1.4-0.1l-0.3,0L45,88.8c-0.7-0.1-1.4-0.1-2-0.2c-0.6-0.1-1-0.1-1.4-0.2c-0.2,0-0.3-0.1-0.3-0.1
			c0-0.3,0-3-0.1-3.4c-0.1-0.4-0.4-0.1-0.4,1c0,1.1-0.3,1.9-0.5,2.2c-0.1,0.1-1.3,0.1-2.2,0.1c-0.7,0-1.3-0.1-1.3-0.1
			c-0.4-0.3-0.6-0.7-0.6-1.1c-0.1-0.9-0.5-1.2-0.5-0.4s-0.1,0.8-0.3,0.9c-0.2,0-0.4,0-0.6,0c0,0-1.8-0.2-1.8-0.5
			C33,86.8,33.2,85.6,33.1,85.5L33.1,85.5z"/>
		<path class="st4" d="M36.2,87.5c0,0,0-0.1,0-0.2c0,0,0,0,0,0V87.5z"/>
		<path class="st4" d="M36.2,87.5L36.2,87.5C36.2,87.5,36.2,87.5,36.2,87.5C36.3,87.5,36.3,87.5,36.2,87.5z"/>
		<path class="st4" d="M38.4,88.2l0,0.1C38.4,88.3,38.4,88.2,38.4,88.2L38.4,88.2z"/>
		<path class="st4" d="M45.7,88.8L45.7,88.8C45.7,88.9,45.7,88.9,45.7,88.8z"/>
		<path class="st5" d="M39.5,28.9c0,0-0.2,6.3-0.5,7.4c-0.2,1.1-1.1,17.2-1.1,20.8c0,0.2,0,0.4,0,0.6c0,0.7,0,1.9,0,3.2
			c0,2.9-0.2,6.4-0.2,7.2c-0.1,1.1-1.4,17.8-1.4,19.2c0,0,0,0,0,0c0-0.3,0-0.8,0-1.6c0-1.6,0.2-3.2,0.4-4.7
			c0.4-2.3,0.8-14.2,0.8-16.8c0-1,0-1.9-0.1-2.9c0-0.4-0.1-0.8,0-1.3c0.1-5.4,1.5-25.2,1.5-26.8C38.9,31.5,39.5,28.9,39.5,28.9
			L39.5,28.9z"/>
		<path class="st5" d="M34.1,87.5L34.1,87.5L34.1,87.5z M36.6,37.9c-0.3,1.2-0.4,2.3-0.5,3.5c0,1.3-1.1,17.8-1.1,22.2
			c0,0.4,0,0.8,0,1c0.1,0.8,0.1,1.6,0.1,2.3c0,2.1-0.3,13.4-0.7,15.3c-0.2,1.3-0.3,2.5-0.3,3.8c0,0.8,0,1.3,0,1.4v-0.1
			c0-1.1,1.1-16.4,1.1-17.3c0.1-0.6,0.2-3.5,0.2-5.8c0-1,0-2,0-2.6c0-0.1,0-0.3,0-0.5c0-2.9,0.6-16.5,0.8-17.4
			C36.4,43,36.6,37.9,36.6,37.9L36.6,37.9z"/>
		<path class="st5" d="M44.4,28.5c0,0.2-0.8,4-1,5.3c-0.2,1.4-1.9,16.4-2.1,18.1s-1.5,12.8-1.6,14.3c-0.1,1.2-0.8,17.4-1.1,20.5
			c0.2-3.5,0.8-22.8,1.1-26.5c0.4-4.5,1.5-15.9,1.9-18.5C41.9,39.2,44.3,28.8,44.4,28.5L44.4,28.5L44.4,28.5z"/>
		<path class="st5" d="M50.1,66.6c-0.5-1.1-1.5-16.5-1.5-19c0-2.5,0.6-14.5,0.6-15.8s0.5-2.5,0.6-2.5c-0.2,0.2-0.6,12.7-0.7,18.2
			c0,0.2,0.4,3.6,0.4,3.9C49.4,57,50.1,66.6,50.1,66.6L50.1,66.6z"/>
		<path class="st5" d="M47.3,28.5L47.3,28.5c0,0-0.2,0.4-0.3,0.8c0,0-2.2,11.5-2.4,14.4c-0.1,3-1,10.7-1.1,11.8c0,0.1,0,0.1,0,0.1
			c0-0.3,0.7-12,0.7-13.8c0-1.9,1.6-12.2,2.1-13.3C46.6,28.5,46.9,28.5,47.3,28.5L47.3,28.5z"/>
		<path class="st5" d="M45.8,81.9c0,3.1-0.1,6.5-0.1,7l0,0c0-0.8-0.3-19.9-0.2-20.9c0-1.1-0.1-11.3-0.1-11.3s-2.6,6.4-3,7.4
			c-0.4,1.1-1.8,17.8-2,18.8S39,88.2,39,88.2s0.5-3.5,1-5.6c0.4-2.1,0.7-15.6,2.2-19.2c1.6-3.6,3.4-8.5,3.4-8.5s0.3,10.2,0.3,13.5
			C45.9,69.4,45.9,80.2,45.8,81.9L45.8,81.9z"/>
		<path class="st5" d="M41.6,83.9c-0.2,0.6-0.4,1-0.4,1C41.3,84.6,41.5,84.2,41.6,83.9z M43.8,88.5c0-0.1,0.2-20.5,0.1-22.3
			c-0.1-1.7-1.7,15.1-2,16.6c-0.1,0.4-0.2,0.8-0.3,1.1c0.6-1.7,1.7-13.9,1.8-14.8c0.1-1.2,0,11.7,0,13.3
			C43.4,83.9,43.8,88.5,43.8,88.5L43.8,88.5z"/>
		<path class="st6" d="M40.6,83.8c0,0.6,0.8,1.1,1.9,1.1s1.9-0.5,1.9-1.1s-0.8-1.1-1.9-1.1C41.4,82.8,40.6,83.3,40.6,83.8z"/>
		<path class="st7" d="M41,84.2c0.2,0.5,1.1,0.8,1.9,0.6c0.8-0.2,1.2-0.7,1-1.1c-0.2-0.5-1.1-0.8-1.9-0.6
			C41.3,83.2,40.8,83.7,41,84.2z"/>
		<path class="st8" d="M41.3,84.2c0.2,0.5,1.1,0.8,1.9,0.6s1.2-0.7,1-1.1c-0.2-0.5-1.1-0.8-1.9-0.6C41.5,83.2,41,83.7,41.3,84.2z"/>
		<path class="st9" d="M41.5,84.1c0.2,0.4,0.9,0.6,1.5,0.5c0.7-0.1,1-0.6,0.8-1c-0.2-0.4-0.9-0.6-1.5-0.5
			C41.7,83.3,41.3,83.7,41.5,84.1z"/>
		<polygon class="st10" points="43.6,84.7 41.9,83.2 42,83.1 43.7,84.6 		"/>
		<path class="st6" d="M41.3,31.7c0,0.6,0.8,1.1,1.9,1.1c1,0,1.9-0.5,1.9-1.1c0-0.6-0.8-1.1-1.9-1.1C42.1,30.6,41.3,31.1,41.3,31.7z
			"/>
		<path class="st7" d="M41.7,32.1c0.2,0.5,1.1,0.8,1.9,0.6c0.8-0.2,1.2-0.7,1-1.1c-0.2-0.5-1.1-0.8-1.9-0.6
			C42,31.1,41.5,31.6,41.7,32.1z"/>
		<path class="st8" d="M42,32c0.2,0.5,1.1,0.8,1.9,0.6c0.8-0.2,1.2-0.7,1-1.1s-1.1-0.8-1.9-0.6C42.2,31.1,41.8,31.6,42,32z"/>
		<path class="st9" d="M42.2,32c0.2,0.4,0.9,0.6,1.5,0.5s1-0.5,0.8-0.9c-0.2-0.4-0.9-0.6-1.5-0.5C42.4,31.2,42,31.6,42.2,32z"/>
		<polygon class="st10" points="44.3,32.5 42.6,31.1 42.7,31 44.4,32.5 		"/>
		
			<linearGradient id="SVGID_2_" gradientUnits="userSpaceOnUse" x1="-44.5424" y1="3345.2371" x2="-23.76" y2="3345.2371" gradientTransform="matrix(1.19 0.44 -0.46 1.15 1731.2057 -3774.2529)">
			<stop  offset="0" style="stop-color:#301504"/>
			<stop  offset="0.46" style="stop-color:#8D5F31"/>
			<stop  offset="1" style="stop-color:#442309"/>
		</linearGradient>
		<path class="st11" d="M153.6,38.1c0.7-0.8,0.2-7.7,0.2-8.1s1.3-1.6,1.6-1.6s2.6,1.2,2.4,1.8c-0.3,1.5-0.4,3-0.3,4.5
			c1.9,19.1-2.2,55.3-2.2,55.3l-1.9-0.9l-7.3-47.4l7-3.8C153.2,38.2,153.3,38.4,153.6,38.1L153.6,38.1z"/>
		<path class="st2" d="M153.1,29.4c-0.4,2-0.1,4.5,0.1,5.9c0.1,0.6,0.1,1.2,0,1.8c0,0.3,0,0.5,0,0.7l-7,3.8l-1.6-8.4
			c0-0.2,0-0.4,0-0.6c-0.1-1.4,7.4-3.5,7.8-4C152.9,28.5,152.7,28.9,153.1,29.4z"/>
		<path class="st2" d="M146.6,86.8c0,0.2,0,0.3,0,0.5C146.6,86.7,146.6,86.2,146.6,86.8z"/>
		<path class="st2" d="M143.9,31.8c-0.2,1.2,0.4,2.9,0.4,2.9c0.2-0.5,0.3-1,0.3-1.6l8.9,55.8l1.9,0.9c0,0-8.1-0.5-8.2-0.7
			c-0.3-0.4-0.4-0.5-0.5-0.9c0-0.3,0-0.7,0-1c0-0.1,0-0.3,0-0.5c0-0.6,0-0.1,0,0.5c-0.1,0.9-0.3,1.5-0.5,1.7s-3.7-0.2-3.7-0.2
			c-0.4-0.3-0.7-0.7-0.7-1.2c-0.1-0.9-0.1-0.9-0.1,0c0,0.9-0.3,0.9-0.6,0.9c-1.4,0-2.7-0.7-2.7-1.3c-0.1-0.5,1.3-14.4,1.5-18.9
			c-0.2-5.5,0.9-27.5,0.9-32.1s2.7-6.9,2.7-6.9l0.5,0.6C144,30.5,144,31.2,143.9,31.8L143.9,31.8z"/>
		<path class="st3" d="M138.4,85.5c0.1-0.5,0.1-1.1,0.2-1.6c0.2-1.5,0.3-12.2,0.4-13.7c0.1-1,0.1-1.9,0.2-2.9
			c-0.2-5.5,0.9-27.5,0.9-32.1s1.1-5.8,1.1-5.8l2.3-0.2c0,0.6-0.1,1.2-0.2,1.7c-0.2,1.2,0.4,3,0.4,3s0.4-0.7,0.3-2.2
			c-0.1-1.4-0.1-2.2,0.3-2.7c2.1-0.5,7.4-0.6,8.3-0.4c-0.4,2-0.1,4.5,0.1,5.9c0.1,0.6,0.1,1.2,0,1.8c0,0.9-0.1,1.4,0.3,1
			c0.7-0.8,0.2-7.7,0.2-8.1c0-0.4,1.7-0.7,2-0.7c0.4,0,0.7,0.3,0.7,0.7c0,0.1,0,0.2,0,0.2c-0.2,0.6-0.3,2.4-0.3,4.5
			c1.9,19.1-2.2,55.3-2.2,55.3s-0.6,0-1.4-0.1l-0.3,0l-1.4-0.1c-0.7-0.1-1.4-0.1-2-0.2c-0.6-0.1-1-0.1-1.4-0.2
			c-0.2,0-0.3-0.1-0.3-0.1c0-0.3,0-3-0.1-3.4s-0.4-0.1-0.4,1c0,1.1-0.3,1.9-0.5,2.2c-0.1,0.1-1.3,0.1-2.2,0.1
			c-0.7,0-1.3-0.1-1.3-0.1c-0.4-0.3-0.6-0.7-0.6-1.1c-0.1-0.9-0.5-1.2-0.5-0.4s-0.1,0.8-0.3,0.9c-0.2,0-0.4,0-0.6,0
			c0,0-1.8-0.2-1.8-0.5C138.2,86.8,138.4,85.6,138.4,85.5L138.4,85.5z"/>
		<path class="st4" d="M141.5,87.5c0,0,0-0.1,0-0.2c0,0,0,0,0,0V87.5z"/>
		<path class="st4" d="M141.5,87.5L141.5,87.5C141.5,87.5,141.5,87.5,141.5,87.5C141.5,87.5,141.5,87.5,141.5,87.5z"/>
		<path class="st4" d="M143.7,88.2l0,0.1C143.7,88.3,143.7,88.2,143.7,88.2L143.7,88.2z"/>
		<path class="st4" d="M151,88.8L151,88.8C151,88.9,151,88.9,151,88.8z"/>
		<path class="st5" d="M144.8,28.9c0,0-0.2,6.3-0.5,7.4c-0.2,1.1-1.1,17.2-1.1,20.8c0,0.2,0,0.4,0,0.6c0,0.7,0,1.9,0,3.2
			c0,2.9-0.2,6.4-0.2,7.2c-0.1,1.1-1.4,17.8-1.4,19.2c0,0,0,0,0,0c0-0.3,0-0.8,0-1.6c0-1.6,0.2-3.2,0.4-4.7
			c0.4-2.3,0.8-14.2,0.8-16.8c0-1,0-1.9-0.1-2.9c0-0.4-0.1-0.8,0-1.3c0.1-5.4,1.5-25.2,1.5-26.8C144.2,31.5,144.8,28.9,144.8,28.9
			L144.8,28.9z"/>
		<path class="st5" d="M139.4,87.5L139.4,87.5L139.4,87.5z M141.9,37.9c-0.3,1.2-0.4,2.3-0.5,3.5c0,1.3-1.1,17.8-1.1,22.2
			c0,0.4,0,0.8,0,1c0.1,0.8,0.1,1.6,0.1,2.3c0,2.1-0.3,13.4-0.7,15.3c-0.2,1.3-0.3,2.5-0.3,3.8c0,0.8,0,1.3,0,1.4v-0.1
			c0-1.1,1.1-16.4,1.1-17.3c0.1-0.6,0.2-3.5,0.2-5.8c0-1,0-2,0-2.6c0-0.1,0-0.3,0-0.5c0-2.9,0.6-16.5,0.8-17.4
			C141.7,43,141.9,37.9,141.9,37.9L141.9,37.9z"/>
		<path class="st5" d="M149.7,28.5c0,0.2-0.8,4-1,5.3c-0.2,1.4-1.9,16.4-2.1,18.1c-0.2,1.7-1.5,12.8-1.6,14.3
			c-0.1,1.2-0.8,17.4-1.1,20.5c0.2-3.5,0.8-22.8,1.1-26.5c0.4-4.5,1.5-15.9,1.9-18.5C147.2,39.2,149.6,28.8,149.7,28.5L149.7,28.5
			L149.7,28.5z"/>
		<path class="st5" d="M155.4,66.6c-0.5-1.1-1.5-16.5-1.5-19c0-2.5,0.6-14.5,0.6-15.8c0-1.4,0.5-2.5,0.6-2.5
			c-0.2,0.2-0.6,12.7-0.7,18.2c0,0.2,0.4,3.6,0.4,3.9C154.7,57,155.3,66.6,155.4,66.6L155.4,66.6z"/>
		<path class="st5" d="M152.6,28.5L152.6,28.5c0,0-0.2,0.4-0.3,0.8c0,0-2.2,11.5-2.4,14.4c-0.1,3-1,10.7-1.1,11.8c0,0.1,0,0.1,0,0.1
			c0-0.3,0.7-12,0.7-13.8c0-1.9,1.6-12.2,2.1-13.3C151.9,28.5,152.2,28.5,152.6,28.5L152.6,28.5z"/>
		<path class="st5" d="M151.1,81.9c0,3.1-0.1,6.5-0.1,7l0,0c0-0.8-0.3-19.9-0.2-20.9c0-1.1-0.1-11.3-0.1-11.3s-2.6,6.4-3,7.4
			s-1.8,17.8-2,18.8c-0.2,1-1.4,5.3-1.4,5.3s0.5-3.5,1-5.6c0.4-2.1,0.7-15.6,2.2-19.2s3.4-8.5,3.4-8.5s0.3,10.2,0.3,13.5
			C151.2,69.4,151.2,80.2,151.1,81.9L151.1,81.9z"/>
		<path class="st5" d="M146.9,83.9c-0.2,0.6-0.4,1-0.4,1C146.6,84.6,146.7,84.2,146.9,83.9z M149.1,88.5c0-0.1,0.2-20.5,0.1-22.3
			c-0.1-1.7-1.7,15.1-2,16.6c-0.1,0.4-0.2,0.8-0.3,1.1c0.6-1.7,1.7-13.9,1.8-14.8c0.1-1.2,0,11.7,0,13.3
			C148.6,83.9,149.1,88.5,149.1,88.5L149.1,88.5z"/>
		<path class="st6" d="M145.8,83.8c0,0.6,0.8,1.1,1.9,1.1s1.9-0.5,1.9-1.1s-0.8-1.1-1.9-1.1C146.7,82.8,145.8,83.3,145.8,83.8z"/>
		<path class="st7" d="M146.3,84.2c0.2,0.5,1.1,0.8,1.9,0.6c0.8-0.2,1.2-0.7,1-1.1c-0.2-0.5-1.1-0.8-1.9-0.6S146.1,83.7,146.3,84.2z
			"/>
		<path class="st8" d="M146.6,84.2c0.2,0.5,1.1,0.8,1.9,0.6c0.8-0.2,1.2-0.7,1-1.1c-0.2-0.5-1.1-0.8-1.9-0.6
			C146.8,83.2,146.3,83.7,146.6,84.2z"/>
		<path class="st9" d="M146.8,84.1c0.2,0.4,0.9,0.6,1.5,0.5c0.7-0.1,1-0.6,0.8-1c-0.2-0.4-0.9-0.6-1.5-0.5
			C147,83.3,146.6,83.7,146.8,84.1z"/>
		<polygon class="st10" points="148.9,84.7 147.1,83.2 147.3,83.1 149,84.6 		"/>
		<path class="st6" d="M146.6,31.7c0,0.6,0.8,1.1,1.9,1.1c1,0,1.9-0.5,1.9-1.1c0-0.6-0.8-1.1-1.9-1.1S146.6,31.1,146.6,31.7z"/>
		<path class="st7" d="M147,32.1c0.2,0.5,1.1,0.8,1.9,0.6c0.8-0.2,1.2-0.7,1-1.1c-0.2-0.5-1.1-0.8-1.9-0.6
			C147.2,31.1,146.8,31.6,147,32.1z"/>
		<path class="st8" d="M147.3,32c0.2,0.5,1.1,0.8,1.9,0.6c0.8-0.2,1.2-0.7,1-1.1c-0.2-0.5-1.1-0.8-1.9-0.6
			C147.5,31.1,147,31.6,147.3,32z"/>
		<path class="st9" d="M147.5,32c0.2,0.4,0.9,0.6,1.5,0.5c0.7-0.1,1-0.5,0.8-0.9c-0.2-0.4-0.9-0.6-1.5-0.5
			C147.7,31.2,147.3,31.6,147.5,32z"/>
		<polygon class="st10" points="149.6,32.5 147.8,31.1 148,31 149.7,32.5 		"/>
		
			<linearGradient id="SVGID_3_" gradientUnits="userSpaceOnUse" x1="400.1431" y1="-405.2436" x2="405.1016" y2="-405.2436" gradientTransform="matrix(-0.1738 0.9848 0.9848 0.1738 569.472 -319.3062)">
			<stop  offset="0" style="stop-color:#442309"/>
			<stop  offset="1" style="stop-color:#634022"/>
		</linearGradient>
		<path class="st12" d="M100,9.2c0,0,2.9-2,5.4-1h0c-0.6-0.9-1.4-1.7-2.2-2.4c-0.7-0.6-1.6-1.1-2.5-1.4c-1.2-0.5-2.6-0.2-3.6,0.2
			C96.5,4.7,96,5,95.4,5.4c0.1,0.2,0.2,0.4,0.3,0.6c0.4,0.6,1,1.1,1.5,1.6C98.1,8.3,99,8.8,100,9.2z"/>
		
			<linearGradient id="SVGID_4_" gradientUnits="userSpaceOnUse" x1="403.1425" y1="-400.0954" x2="408.1128" y2="-400.0954" gradientTransform="matrix(-0.1738 0.9848 0.9848 0.1738 569.472 -319.3062)">
			<stop  offset="0" style="stop-color:#442309"/>
			<stop  offset="1" style="stop-color:#634022"/>
		</linearGradient>
		<path class="st13" d="M104.5,13c0,0,3-1.9,5.4-0.9h0c-0.6-0.9-1.3-1.7-2.1-2.5c-0.7-0.6-1.6-1.1-2.4-1.5c-2.4-1-5.4,1-5.4,1
			s0.3,0.9,1.8,2.2C102.6,12.1,103.5,12.6,104.5,13z"/>
		
			<linearGradient id="SVGID_5_" gradientUnits="userSpaceOnUse" x1="406.2219" y1="-394.9864" x2="411.2041" y2="-394.9864" gradientTransform="matrix(-0.1738 0.9848 0.9848 0.1738 569.472 -319.3062)">
			<stop  offset="0" style="stop-color:#442309"/>
			<stop  offset="1" style="stop-color:#634022"/>
		</linearGradient>
		<path class="st14" d="M109,16.9c0,0,3-1.9,5.4-0.8h0c-0.6-0.9-1.3-1.7-2.1-2.5c-0.7-0.6-1.5-1.1-2.4-1.5c-2.4-1-5.4,0.9-5.4,0.9
			s0.3,0.9,1.8,2.2C107.1,16,108,16.5,109,16.9z"/>
		
			<linearGradient id="SVGID_6_" gradientUnits="userSpaceOnUse" x1="409.3754" y1="-389.9232" x2="414.3665" y2="-389.9232" gradientTransform="matrix(-0.1738 0.9848 0.9848 0.1738 569.472 -319.3062)">
			<stop  offset="0" style="stop-color:#442309"/>
			<stop  offset="1" style="stop-color:#634022"/>
		</linearGradient>
		<path class="st15" d="M113.4,20.9c0.6-0.3,1.2-0.6,1.8-0.8c1.1-0.3,2.4-0.5,3.6,0.1h0c-0.6-0.9-1.3-1.8-2-2.5
			c-0.7-0.6-1.5-1.2-2.4-1.6c-2.4-1.1-5.4,0.8-5.4,0.8s0.3,0.9,1.8,2.3C111.5,19.9,112.4,20.5,113.4,20.9z"/>
		
			<linearGradient id="SVGID_7_" gradientUnits="userSpaceOnUse" x1="412.6001" y1="-384.914" x2="417.603" y2="-384.914" gradientTransform="matrix(-0.1738 0.9848 0.9848 0.1738 569.472 -319.3062)">
			<stop  offset="0" style="stop-color:#442309"/>
			<stop  offset="1" style="stop-color:#634022"/>
		</linearGradient>
		<path class="st16" d="M117.7,25c0,0,3-1.8,5.4-0.6h0c-0.6-0.9-1.3-1.8-2-2.6c-0.7-0.6-1.5-1.2-2.4-1.6c-1.2-0.6-2.5-0.4-3.6-0.1
			c-0.6,0.2-1.2,0.5-1.8,0.8c0,0,0.2,0.9,1.7,2.3C115.9,24,116.7,24.6,117.7,25z"/>
		
			<linearGradient id="SVGID_8_" gradientUnits="userSpaceOnUse" x1="415.9047" y1="-379.9624" x2="420.9196" y2="-379.9624" gradientTransform="matrix(-0.1738 0.9848 0.9848 0.1738 569.472 -319.3062)">
			<stop  offset="0" style="stop-color:#442309"/>
			<stop  offset="1" style="stop-color:#634022"/>
		</linearGradient>
		<path class="st17" d="M122,29.1c0,0,3.1-1.7,5.4-0.5l0,0c-0.6-0.9-1.2-1.8-2-2.6c-0.7-0.7-1.5-1.2-2.3-1.6
			c-2.4-1.1-5.4,0.6-5.4,0.6s0.2,0.9,1.7,2.3C120.1,28.1,121,28.7,122,29.1z"/>
		
			<linearGradient id="SVGID_9_" gradientUnits="userSpaceOnUse" x1="419.2865" y1="-375.0511" x2="424.3113" y2="-375.0511" gradientTransform="matrix(-0.1738 0.9848 0.9848 0.1738 569.472 -319.3062)">
			<stop  offset="0" style="stop-color:#442309"/>
			<stop  offset="1" style="stop-color:#634022"/>
		</linearGradient>
		<path class="st18" d="M126.2,33.3c0,0,3.1-1.7,5.4-0.4l0,0c-0.5-0.9-1.2-1.8-1.9-2.6c-0.7-0.7-1.5-1.2-2.3-1.7
			c-2.4-1.2-5.4,0.5-5.4,0.5s0.2,0.9,1.7,2.4C124.4,32.2,125.2,32.8,126.2,33.3z"/>
		
			<linearGradient id="SVGID_10_" gradientUnits="userSpaceOnUse" x1="422.7542" y1="-372.0084" x2="427.7956" y2="-372.0084" gradientTransform="matrix(-0.1738 0.9848 0.9848 0.1738 569.472 -319.3062)">
			<stop  offset="0" style="stop-color:#442309"/>
			<stop  offset="1" style="stop-color:#634022"/>
		</linearGradient>
		<path class="st19" d="M132.7,33.6c-0.4-0.3-0.7-0.5-1.1-0.7c-2.3-1.2-5.4,0.4-5.4,0.4c0.1,0.2,0.1,0.4,0.2,0.5
			C128.5,33.7,130.6,33.6,132.7,33.6z"/>
		
			<linearGradient id="SVGID_11_" gradientUnits="userSpaceOnUse" x1="214.1784" y1="810.2925" x2="219.1339" y2="810.2925" gradientTransform="matrix(0.13 0.99 -0.99 0.13 870.5653 -312.3542)">
			<stop  offset="0" style="stop-color:#442309"/>
			<stop  offset="1" style="stop-color:#634022"/>
		</linearGradient>
		<path class="st20" d="M96.8,9.6c0,0-2.8-2.1-5.3-1.2h0c0.7-0.9,1.4-1.6,2.3-2.3c0.8-0.6,1.6-1,2.5-1.3c1.3-0.4,2.6-0.1,3.6,0.3
			c0.6,0.3,1.2,0.6,1.7,1c-0.1,0.2-0.2,0.4-0.4,0.6c-0.5,0.6-1,1.1-1.6,1.5C98.7,8.8,97.8,9.3,96.8,9.6z"/>
		
			<linearGradient id="SVGID_12_" gradientUnits="userSpaceOnUse" x1="217.1778" y1="815.4594" x2="222.1451" y2="815.4594" gradientTransform="matrix(0.13 0.99 -0.99 0.13 870.5653 -312.3542)">
			<stop  offset="0" style="stop-color:#442309"/>
			<stop  offset="1" style="stop-color:#634022"/>
		</linearGradient>
		<path class="st21" d="M92.1,13.3c0,0-2.9-2.1-5.3-1.1h0c0.7-0.9,1.4-1.7,2.2-2.4c0.8-0.6,1.6-1,2.5-1.4c2.5-0.9,5.3,1.2,5.3,1.2
			s-0.3,0.9-2,2.1C94,12.4,93.1,12.9,92.1,13.3z"/>
		
			<linearGradient id="SVGID_13_" gradientUnits="userSpaceOnUse" x1="220.2542" y1="820.5798" x2="225.2364" y2="820.5798" gradientTransform="matrix(0.13 0.99 -0.99 0.13 870.5653 -312.3542)">
			<stop  offset="0" style="stop-color:#442309"/>
			<stop  offset="1" style="stop-color:#634022"/>
		</linearGradient>
		<path class="st22" d="M87.5,16.9c0,0-2.9-2-5.3-1.1h0c0.7-0.9,1.4-1.7,2.2-2.4c0.8-0.6,1.6-1.1,2.5-1.4c2.5-0.9,5.3,1.1,5.3,1.1
			s-0.3,0.9-1.9,2.2C89.4,16.1,88.5,16.6,87.5,16.9z"/>
		
			<linearGradient id="SVGID_14_" gradientUnits="userSpaceOnUse" x1="223.4077" y1="825.6691" x2="228.4018" y2="825.6691" gradientTransform="matrix(0.13 0.99 -0.99 0.13 870.5653 -312.3542)">
			<stop  offset="0" style="stop-color:#442309"/>
			<stop  offset="1" style="stop-color:#634022"/>
		</linearGradient>
		<path class="st23" d="M82.9,20.7c-0.6-0.4-1.1-0.6-1.8-0.9c-1-0.4-2.4-0.6-3.6-0.1h0c0.6-0.9,1.4-1.7,2.2-2.4
			c0.7-0.6,1.6-1.1,2.5-1.4c2.5-1,5.3,1.1,5.3,1.1s-0.3,0.9-1.9,2.2C84.8,19.8,83.9,20.4,82.9,20.7z"/>
		
			<linearGradient id="SVGID_15_" gradientUnits="userSpaceOnUse" x1="226.6353" y1="830.7039" x2="231.6383" y2="830.7039" gradientTransform="matrix(0.13 0.99 -0.99 0.13 870.5653 -312.3542)">
			<stop  offset="0" style="stop-color:#442309"/>
			<stop  offset="1" style="stop-color:#634022"/>
		</linearGradient>
		<path class="st24" d="M78.4,24.6c0,0-2.9-1.9-5.4-0.9h0c0.6-0.9,1.3-1.7,2.1-2.5c0.7-0.6,1.6-1.1,2.4-1.5c1.2-0.5,2.6-0.3,3.6,0.1
			c0.6,0.2,1.2,0.5,1.8,0.9c0,0-0.3,0.9-1.9,2.2C80.2,23.6,79.3,24.2,78.4,24.6z"/>
		
			<linearGradient id="SVGID_16_" gradientUnits="userSpaceOnUse" x1="229.937" y1="835.6876" x2="234.9518" y2="835.6876" gradientTransform="matrix(0.13 0.99 -0.99 0.13 870.5653 -312.3542)">
			<stop  offset="0" style="stop-color:#442309"/>
			<stop  offset="1" style="stop-color:#634022"/>
		</linearGradient>
		<path class="st25" d="M73.9,28.5c0,0-3-1.9-5.4-0.8h0c0.6-0.9,1.3-1.7,2.1-2.5c0.7-0.6,1.5-1.1,2.4-1.5c2.4-1,5.4,0.9,5.4,0.9
			s-0.3,0.9-1.8,2.2C75.8,27.5,74.9,28.1,73.9,28.5z"/>
		
			<linearGradient id="SVGID_17_" gradientUnits="userSpaceOnUse" x1="233.3188" y1="840.6166" x2="238.3484" y2="840.6166" gradientTransform="matrix(0.13 0.99 -0.99 0.13 870.5653 -312.3542)">
			<stop  offset="0" style="stop-color:#442309"/>
			<stop  offset="1" style="stop-color:#634022"/>
		</linearGradient>
		<path class="st26" d="M69.5,32.4c0,0-3-1.8-5.4-0.7h0c0.6-0.9,1.3-1.8,2.1-2.5c0.7-0.6,1.5-1.2,2.4-1.6c2.4-1.1,5.4,0.8,5.4,0.8
			s-0.3,0.9-1.8,2.3C71.3,31.4,70.5,32,69.5,32.4z"/>
		
			<linearGradient id="SVGID_18_" gradientUnits="userSpaceOnUse" x1="236.7864" y1="845.1193" x2="241.8279" y2="845.1193" gradientTransform="matrix(0.13 0.99 -0.99 0.13 870.5653 -312.3542)">
			<stop  offset="0" style="stop-color:#442309"/>
			<stop  offset="1" style="stop-color:#634022"/>
		</linearGradient>
		<path class="st27" d="M62.4,35.1c1.6,0.1,3.2,0.1,4.8,0.1c0.2-0.1,0.3-0.3,0.5-0.5c1.5-1.4,1.7-2.3,1.7-2.3s-3-1.8-5.4-0.7
			c-0.9,0.4-1.7,1-2.4,1.6c-0.5,0.5-1,1.1-1.4,1.7C61,35,61.7,35.1,62.4,35.1z"/>
		
			<linearGradient id="SVGID_19_" gradientUnits="userSpaceOnUse" x1="419.8456" y1="-635.6102" x2="434.8811" y2="-635.6102" gradientTransform="matrix(-2.000000e-02 1.45 1.34 1.000000e-02 955.9365 -562.9388)">
			<stop  offset="0" style="stop-color:#301504"/>
			<stop  offset="0.46" style="stop-color:#8D5F31"/>
			<stop  offset="1" style="stop-color:#442309"/>
		</linearGradient>
		<path class="st28" d="M39.2,50.2c-1.1,1.2-15.8,0.2-16.7,0.2c-1,0-4,2.9-4,3.6c-0.1,0.7,2.3,5.4,3.9,5.1c1.5-0.4,5.7-1,10.7-1.1
			c45.3-1,93.4,0.2,139.8-0.9c-0.2-1.1-0.6-2.2-1.2-3.2c-41.1-5.5-87.9-0.6-126.9-16.3c-5.8,5.1-5.2,6.8-6.2,12
			C39.2,49.6,39.7,49.7,39.2,50.2L39.2,50.2z"/>
		<path class="st2" d="M21.4,49c4.7-0.8,9.5,0,12.3,0.5c1.1,0.1,2.3,0.2,3.4,0.1c0.5,0,0.9,0,1.3,0c1-5.2,0.4-6.8,6.2-12
			c-4.6-1.8-7.5-2.8-15.3-4.9c-0.4,0-0.9-0.1-1.4-0.1c-3.4-0.5-7.8,13.8-8.4,14.6C19.2,47.7,20.3,48,21.4,49z"/>
		<path class="st2" d="M168.1,43.3c0.5,0,1.4,0,1.4,0S166.1,43.2,168.1,43.3z"/>
		<path class="st2" d="M25.9,31.1c2.8-0.1,7,1.4,7,1.4s-1.2,0.5-3.6,0.3c13.8,2.9,26.4,9.1,40.3,11.6c33.4,6,68.2,5,101.9,9.6
			c0.6,1,1,2.1,1.2,3.2c0,0,2.1-12.5,1.6-12.8c-0.8-0.5-0.8-0.7-2-0.9c-1-0.1-2-0.1-2.9-0.1c-0.4,0-0.9,0-1.4,0c-2,0-0.4,0,1.4,0
			c2.6,0,4.7-0.3,5.4-0.7c0.9-0.4,3.9-8.7,3.9-8.7s-0.4-1.6-2.8-1.9s-2.5-0.3,0-0.3s2.7-0.7,2.8-1.2c0.8-2.9-2.5-4-3.9-4
			c-17.3-0.2-35.6,1.9-52.9,2.3c-28,0.6-57.2,0-85.6-1.6C24.1,26.6,19,29.6,19,29.6c0.7,0.4,1.1,0.6,1.8,1
			C22.5,30.9,24.2,31.1,25.9,31.1L25.9,31.1z"/>
		<path class="st3" d="M170.8,26.7c-1.4,0.1-2.9,0.1-4.3,0.2c-4.1,0.2-34,0.7-38.3,0.9c-2.7,0.1-5.5,0.3-8.1,0.3
			c-28.3,0.3-57.6,0-86.2-1.4c-12.3-0.6-15.1-0.1-15.1-0.1c0,1.1,0.1,2.2,0.3,3.3c0,0,1.5,0.1,4.4,0.1c2.9,0,7.4,1.4,7.4,1.4
			s-1.6,0.6-5.2,0.1c-3.6-0.4-6.5-0.7-6.9-0.2c-1.1,1.8,0.3,16.2,0.6,16.5c1.1,0.9,9.7,0.1,12.5,0.7c1.1,0.2,2.2,0.2,3.3,0.2
			c1.6,0,2.6-0.1,1.9,0.7c-1.1,1.2-15.6,0-16.7-0.1c-1,0-2,3.8-2,4.5s0.5,2,2.1,1.6s5.7-0.9,10.4-0.8c45,0.9,94.3,0.6,140.6-0.5
			c0.1-0.8,0.1-1.5,0.1-2.3c0-0.1,0-0.3,0-0.5c0-0.7-0.1-1.5-0.1-2.3c0-1,0.1-2,0.3-3c0.2-0.8,0.5-1.4,0.6-1.9
			c0.1-0.3,0.1-0.5,0-0.5c-0.8,0-8.9-0.4-10.2-0.5c-1.3-0.2,0.3-0.7,3.6-0.7c3.4,0.1,6.2-0.3,7.1-0.8c0.5-0.3,2-2.8,3-5.2
			c0.5-1,0.9-2.1,1.2-3.1c0,0-0.3-1.3-2.7-1.5c-2.4-0.2-3.1-1-0.7-1c2.4,0,2.4-0.2,2.8-0.7c0.3-0.3,0.2-0.8,0.2-1.2
			c0,0-1.4-2.2-2.1-2.2C174,26.5,170.8,26.7,170.8,26.7L170.8,26.7z"/>
		<path class="st4" d="M176,31.8h-0.4c0,0,0,0,0.1,0c0,0,0.1,0,0.1,0C175.8,31.8,175.9,31.8,176,31.8L176,31.8z"/>
		<path class="st4" d="M176,31.8L176,31.8C176,31.8,176,31.8,176,31.8L176,31.8z"/>
		<path class="st4" d="M175.6,37.2l0.4-0.1C176,37.1,175.7,37.1,175.6,37.2L175.6,37.2z"/>
		<path class="st4" d="M171.6,49.9c0.1,0,0.1,0,0.2,0H171.6z"/>
		<path class="st5" d="M18.8,32.1c0,0,15,0.8,17.5,0.7c14.6-0.5,30.8,0.9,46.1,1.6c0.6,0,1,0.1,1.4,0.1c1.6,0.2,4.4,0.3,8,0.3
			c7.9,0.1,19.1-0.2,21.8-0.3c20.7-1,62.1-2.9,62.1-2.9h-0.1c-0.7-0.1-2.3-0.1-4.4-0.1c-3.6,0-8.8,0.3-14.6,0.9
			c-17.5,1.8-35.9,1.6-53.7,1.7c-2.5,0-5-0.1-7.5-0.3c-0.7-0.1-1.8-0.1-3.2-0.1c-20.7-0.2-42-0.4-62.5-1.8
			C25.3,31.7,18.9,32.2,18.8,32.1L18.8,32.1z"/>
		<path class="st5" d="M176.6,27.7C176.5,27.7,176.5,27.7,176.6,27.7L176.6,27.7z M41,29.1c0,0,12.7,0.5,15.1,0.4
			c14.5-0.4,30.1,0.8,45.2,0.9c0.5,0,0.9,0,1.2,0c1.5,0.1,4,0.1,6.9,0.1c6.4-0.1,14.8-0.3,16.7-0.4c16.7-0.9,33.4-1.9,50.2-2.3h0.2
			c0,0-1.6,0-3.8,0c-2.7,0-6.7,0.2-10.6,0.5c-14.5,1.2-29.6,1.3-44.4,1.6c-2.3,0-4.4,0-6.2-0.1c-0.6,0-1.5-0.1-2.7-0.1
			c-19.4,0.2-39.3,0.2-58.5-0.6C46.6,28.8,41.1,29,41,29.1L41,29.1z"/>
		<path class="st5" d="M19.6,42c0.5,0,9.1-0.9,11.4-1c2.5-0.1,25.5-0.8,28.8-0.9c13.5-0.4,27.3-1.1,40.7-1.5
			c23.4-0.6,70.9-1.3,70.9-1.3s-59.3,0.3-88.7,0.9c-13.7,0.3-34.4,0.4-38.6,0.7S20.3,41.9,19.6,42L19.6,42L19.6,42L19.6,42z"/>
		<path class="st5" d="M113.3,52.7c-18-2.2-36.5-2.7-54.4-2.4c-5.3,0.1-29.4,1.6-32.4,1.6c-3,0-5.7,1.2-5.6,1.3
			c6.8,2.9,26-1.6,39-2.2c0.5,0,9.7,0.3,10.3,0.2C84.5,50.8,98.9,51.4,113.3,52.7z"/>
		<path class="st5" d="M19.4,47.7L19.4,47.7c0,0,1-0.3,1.9-0.6c0,0,20.3-2.8,24.2-2.6s15.7,0,17.8-0.1c0.1,0,0.2,0,0.2,0
			c-0.5,0-18.2-0.6-20.6-0.9c-2.5-0.3-22.8,1.2-23.4,2.1C19.2,45.8,19.4,47.3,19.4,47.7L19.4,47.7z"/>
		<path class="st5" d="M151,49.5c9.8,0.3,19.3,0.4,20.6,0.5l0,0c-22.6-0.9-45.3-1.7-67.9-2.1c-3.6-0.1-34.6-0.9-34.6-0.9
			s13.9-3.2,17.7-3.6c22-2.3,46.8-0.9,69.6-2.2c3.6-0.2,18.4-2.7,18.4-2.7s-11.5,1.1-18.9,1.7c-23,1.7-48-0.8-71.1,2.8
			C71.4,45,65.7,47,65.7,47c13.5,0.8,27,0.9,40.5,1.3C121.1,48.7,136.1,49,151,49.5L151,49.5z"/>
		<path class="st5" d="M158.5,43.4c2.5-0.3,3.7-0.6,3.7-0.6S160.7,43.1,158.5,43.4z M171.1,47L171.1,47c0,0-13.8-0.9-18.9-1
			c-16-0.2-48-0.8-48-0.8l54.4-1.8c0,0-2.3,0.3-3.8,0.4c-19.6,1.2-60.2,2-60.2,2S145.6,46.5,171.1,47L171.1,47z"/>
		
			<linearGradient id="SVGID_20_" gradientUnits="userSpaceOnUse" x1="441.6672" y1="-778.5996" x2="456.6998" y2="-778.5996" gradientTransform="matrix(-1.000000e-02 1.45 1.65 2.000000e-02 1384.2758 -550.2787)">
			<stop  offset="0" style="stop-color:#301504"/>
			<stop  offset="0.46" style="stop-color:#8D5F31"/>
			<stop  offset="1" style="stop-color:#442309"/>
		</linearGradient>
		<path class="st29" d="M25.7,84.9C24.4,86,6.3,84.9,5.1,84.9c-1.2,0-4.9,2.9-4.9,3.6S3.1,94,5,93.6c1.9-0.4,7-1,13.1-1
			c55.7-0.7,114.8,0.9,171.8,0.1c-0.3-1.3-0.7-1.9-1.5-3.2c-50.6-5.8-108-1.2-156.1-17.2c-7.1,5.1-6.3,6.8-7.6,11.9
			C25.8,84.2,26.3,84.4,25.7,84.9L25.7,84.9z"/>
		<path class="st2" d="M3.8,83.5c5.7-0.7,11.6,0.1,15.1,0.6c1.4,0.2,2.8,0.2,4.2,0.1c0.6,0,1.1,0,1.6,0c1.2-5.2,0.5-6.8,7.6-11.9
			c-5.6-1.9-9.2-2.9-18.8-5c-0.5,0-1.1-0.1-1.7-0.1C7.6,66.7,2.2,80.9,1.5,81.7C1.1,82.3,2.4,82.5,3.8,83.5L3.8,83.5z"/>
		<path class="st2" d="M184.1,78.8c0.6,0,1.7,0,1.7,0S181.6,78.8,184.1,78.8z"/>
		<path class="st2" d="M9.2,65.6c3.5,0,8.7,1.4,8.7,1.4s-1.4,0.4-4.4,0.3c17,3,32.5,9.3,49.6,11.9c41.1,6.2,83.9,5.5,125.3,10.3
			c0.8,1.3,1.1,1.9,1.5,3.2c0,0,2.5-12.5,1.9-12.8c-1-0.5-1-0.7-2.4-0.9c-0.6-0.1-2.2-0.2-3.6-0.2c-0.5,0-1.1,0-1.7,0
			c-2.4-0.1-0.5,0,1.7,0c3.2,0,5.7-0.3,6.7-0.7c1.1-0.4,4.7-8.7,4.7-8.7s-0.5-1.6-3.4-1.9c-2.9-0.2-3-0.3,0-0.3c3,0,3.3-0.7,3.4-1.2
			c0.9-2.9-3.1-4-4.9-4.1c-21.2-0.3-43.7,1.6-65,1.9C92.9,64.5,57,63.6,22,61.9C7,61.1,0.7,64.1,0.7,64.1c0.9,0.4,1.3,0.6,2.2,1
			C5,65.5,7.1,65.6,9.2,65.6z"/>
		<path class="st3" d="M187.3,62.2c-1.7,0-3.6,0.1-5.3,0.1c-5.1,0.2-41.8,0.5-47.1,0.6c-3.3,0.1-6.7,0.2-10,0.2
			c-34.8,0.2-70.8-0.4-106-2C3.7,60.5,0.4,61,0.4,61c0.1,1.1,0.2,2.2,0.4,3.3c0,0,1.9,0.1,5.5,0.1s9.1,1.4,9.1,1.4s-2,0.6-6.4,0.1
			c-4.4-0.5-8-0.8-8.4-0.2C-0.8,67.5,1,81.9,1.4,82.2c1.4,0.9,11.9,0.2,15.3,0.8c1.4,0.2,2.7,0.2,4.1,0.2c1.9,0,3.2,0,2.4,0.7
			C21.8,85,4,83.7,2.7,83.6s-2.4,3.8-2.5,4.5c-0.1,0.7,0.7,2,2.6,1.6c1.9-0.4,7-0.9,12.8-0.7c55.3,1.2,115.9,1.2,172.9,0.5
			c0.1-0.8,0.1-1.5,0.1-2.3c0-0.1,0-0.3,0-0.5c0-0.7-0.1-1.5-0.1-2.3c0-1,0.1-2,0.3-3c0.2-0.8,0.6-1.4,0.8-1.9
			c0.1-0.3,0.1-0.5,0-0.6c-1,0-10.9-0.4-12.6-0.6c-1.6-0.2,0.3-0.7,4.5-0.6c4.2,0.1,7.6-0.3,8.8-0.8c0.7-0.3,2.4-2.8,3.7-5.2
			c0.6-1,1.1-2.1,1.5-3.1c0,0-0.4-1.3-3.3-1.5s-3.8-1.1-0.8-1.1c3,0,3-0.2,3.4-0.6c0.3-0.3,0.3-0.8,0.2-1.2c0,0-1.7-2.2-2.7-2.2
			S187.3,62.2,187.3,62.2L187.3,62.2z"/>
		<path class="st4" d="M193.7,67.4l-0.5,0c0,0,0.1,0,0.1,0c0,0,0.1,0,0.1,0L193.7,67.4z"/>
		<path class="st4" d="M193.8,67.4L193.8,67.4C193.7,67.4,193.7,67.4,193.8,67.4L193.8,67.4z"/>
		<path class="st4" d="M193.3,72.8l0.5-0.1C193.6,72.7,193.4,72.7,193.3,72.8C193.3,72.7,193.3,72.8,193.3,72.8L193.3,72.8z"/>
		<path class="st4" d="M188.4,85.5c0.1,0,0.2,0,0.2,0H188.4L188.4,85.5z"/>
		<path class="st5" d="M0.5,66.7c0,0,18.5,0.9,21.5,0.8c17.9-0.4,37.9,1.1,56.6,1.9c0.7,0,1.3,0.1,1.7,0.1c2,0.2,5.5,0.3,9.8,0.4
			c9.7,0.1,23.5,0,26.8-0.2c25.4-0.8,76.3-2.4,76.3-2.4h-0.1c-0.9-0.1-2.8-0.1-5.5-0.1c-4.4,0-10.9,0.2-18,0.8
			c-21.5,1.7-44.1,1.4-66,1.3c-3.6,0-6.8-0.1-9.3-0.3c-0.8-0.1-2.2-0.1-3.9-0.1c-25.5-0.4-51.7-0.7-76.9-2.2
			C8.5,66.2,0.6,66.7,0.5,66.7L0.5,66.7z"/>
		<path class="st5" d="M194.4,63.3C194.4,63.3,194.4,63.3,194.4,63.3L194.4,63.3z M27.8,63.7c0,0,15.6,0.6,18.6,0.5
			c17.9-0.3,37.1,1,55.6,1.2c0.6,0,1.1,0,1.5,0c1.8,0.1,4.9,0.1,8.4,0.1c7.9,0,18.1-0.2,20.5-0.3c20.5-0.8,41.1-1.6,61.7-1.9h0.2
			c0,0-2.1-0.1-4.7-0.1c-3.4,0-8.2,0.2-13.1,0.5c-17.8,1.1-36.4,1.1-54.6,1.3c-2.8,0-5.4,0-7.7-0.2c-0.7,0-1.9-0.1-3.3-0.1
			c-23.8,0.1-48.3-0.1-72-1C34.6,63.5,27.8,63.7,27.8,63.7L27.8,63.7z"/>
		<path class="st5" d="M1.5,76.5c0.6,0,11.2-0.8,14.1-0.9c3-0.1,31.3-0.7,35.4-0.7c16.6-0.3,33.5-1,50-1.2
			c28.7-0.4,87.2-0.8,87.2-0.8s-72.8-0.1-109,0.3c-16.8,0.2-42.3,0.2-47.5,0.4C26.5,73.8,2.4,76.4,1.5,76.5L1.5,76.5L1.5,76.5
			L1.5,76.5z"/>
		<path class="st5" d="M116.7,87.9c-22.2-2.3-44.9-2.9-66.9-2.7c-6.6,0.1-36.1,1.4-39.8,1.4c-3.7,0-7,1.2-6.9,1.2
			c8.4,2.9,32-1.4,48-2c0.6,0,11.9,0.3,12.6,0.3C81.4,85.8,99.1,86.5,116.7,87.9L116.7,87.9z"/>
		<path class="st5" d="M1.4,82.2L1.4,82.2c0,0,1.3-0.3,2.3-0.6c0,0,24.9-2.7,29.7-2.5c4.8,0.2,19.2,0.1,21.9,0c0.2,0,0.2,0,0.2,0
			c-0.7,0-22.4-0.8-25.4-1c-3-0.3-28,1.1-28.8,2C1,80.3,1.3,81.8,1.4,82.2L1.4,82.2z"/>
		<path class="st5" d="M163.2,84.9c12.1,0.3,23.7,0.6,25.3,0.6l0,0c-27.8-1.1-55.7-2-83.5-2.6c-4.4-0.1-42.5-1.1-42.5-1.1
			s17.1-3.1,21.7-3.5c27.1-2.1,57.6-0.6,85.6-1.7c4.4-0.2,22.6-2.6,22.6-2.6s-14.1,1-23.3,1.5c-28.3,1.5-59-1.1-87.4,2.3
			c-16.6,2-23.5,4-23.5,4c16.6,0.9,33.2,1.1,49.8,1.6C126.4,83.9,144.8,84.4,163.2,84.9L163.2,84.9z"/>
		<path class="st5" d="M172.3,78.9c3.1-0.3,4.6-0.5,4.6-0.5S175,78.6,172.3,78.9z M187.8,82.6L187.8,82.6c0,0-17-1-23.3-1.1
			c-19.7-0.3-59-1.1-59-1.1l66.8-1.4c0,0-2.9,0.3-4.7,0.3c-24.1,1.1-74,1.6-74,1.6S156.4,81.9,187.8,82.6L187.8,82.6z"/>
		<path class="st6" d="M98.9,16.2c-2.8-0.2-5-2.8-4.8-5.8s2.6-5.4,5.5-5.2c2.8,0.2,5,2.8,4.8,5.8S101.8,16.4,98.9,16.2z"/>
		<path class="st7" d="M97.2,14.7c-2.3-0.8-3.4-3.3-2.6-5.6c0,0,0-0.1,0-0.1c0.9-2.3,3.4-3.5,5.8-2.6c2.3,0.8,3.4,3.3,2.6,5.6
			c0,0,0,0.1,0,0.1C102.1,14.4,99.6,15.6,97.2,14.7z"/>
		<path class="st8" d="M97.4,14c-2.3-0.8-3.4-3.3-2.6-5.6c0,0,0-0.1,0-0.1c0.9-2.3,3.5-3.5,5.8-2.6c2.3,0.8,3.4,3.3,2.6,5.6
			c0,0,0,0.1,0,0.1C102.3,13.6,99.7,14.8,97.4,14z"/>
		<path class="st9" d="M97.7,13.3c-1.9-0.7-2.9-2.7-2.2-4.6c0,0,0-0.1,0-0.1c0.7-1.9,2.9-2.9,4.8-2.2c1.9,0.7,2.9,2.7,2.2,4.6
			c0,0,0,0.1,0,0.1C101.7,13,99.6,14,97.7,13.3z"/>
		<polygon class="st10" points="95.5,7.1 102.3,12.6 102.6,12.2 95.8,6.8 		"/>
		<g class="st30">
			<path class="st9" d="M54.9,43.3c0.3,0.7,0.6,1.5,0.9,2.3L55,45.8h0.3v2c0,1.6-0.4,3.1-3,4.1c-0.3-0.5-0.6-1-1-1.4
				c1.1-0.3,1.7-0.7,2-1.2h-2.3v-3.1h1.5v1.7h1.2v-2.1h0.9c0-0.1-0.1-0.3-0.1-0.5c-2.8,0.3-3.3,0.5-3.6,0.6v0
				c-0.1-0.5-0.2-0.9-0.4-1.4c0.4-0.1,0.8-0.3,1.1-0.6c0.3-0.2,0.6-0.5,0.9-0.8c-1,0.1-1.3,0.2-1.5,0.2v0c-0.1-0.5-0.3-0.9-0.5-1.4
				c0.3,0,0.5-0.2,0.7-0.4c0.5-0.4,0.9-0.9,1.2-1.5h-2.7v11.7h-2.3V33.5h7.9v6.7H53l0.8,0.4c-0.4,0.5-0.9,1.1-1.4,1.5l1.1,0
				c0.3-0.3,0.5-0.6,0.8-0.9l1.2,0.8c-0.8,0.9-1.7,1.7-2.7,2.4l1.3-0.1c-0.1-0.2-0.2-0.4-0.2-0.7L54.9,43.3z M49.5,35.2v1h3.3v-1
				H49.5z M49.5,38.6h3.3v-0.9h-3.3L49.5,38.6z M64.6,49.1c0,1.2-0.2,1.8-0.9,2.3s-1.6,0.5-3,0.5c-0.1-0.7-0.3-1.4-0.5-2h-1v-0.6
				h-1.2v2.4h-1.7v-5.8h0c-0.1-0.3-0.3-0.9-0.4-1.3c0.4-0.1,0.8-0.3,1.1-0.6c0.3-0.2,0.6-0.5,0.9-0.8c-1,0.1-1.3,0.2-1.5,0.2
				c-0.1-0.5-0.3-0.9-0.5-1.4c0.3-0.1,0.5-0.2,0.7-0.4c0.5-0.4,0.9-1,1.2-1.5h-1.3v-6.7h8.1L64.6,49.1z M60.7,49.5
				c0.4,0,0.7,0,1.1,0c0.3,0,0.3-0.1,0.3-0.4v-8.9h-3.7l0.8,0.4c-0.4,0.5-0.9,1-1.4,1.5l1,0c0.3-0.3,0.6-0.6,0.8-1l1.2,0.8
				c-0.8,0.9-1.7,1.7-2.7,2.4l1.2-0.1c-0.1-0.2-0.2-0.4-0.3-0.7l1.2-0.4c0.4,0.7,0.7,1.5,1,2.3L60.1,46c-0.1-0.2-0.1-0.4-0.2-0.7
				c-1.1,0.1-2.2,0.3-3.3,0.5h1.4v2.1h1.2v-1.7h1.6L60.7,49.5z M58.8,35.2v1h3.4v-1H58.8z M58.8,38.6h3.4v-0.9h-3.4V38.6z"/>
			<path class="st9" d="M76.8,40.4c0,0,0,0.7,0,1c-0.1,6.2-0.3,8.5-0.8,9.2c-0.3,0.5-0.8,0.8-1.3,0.9c-0.7,0.1-1.4,0.1-2.1,0.1
				c-0.1-0.8-0.3-1.5-0.6-2.2c0.6,0,1.1,0.1,1.4,0.1c0.2,0,0.5-0.1,0.6-0.3c0.3-0.4,0.4-2,0.5-6.5h-1.8c-0.3,3.9-0.9,7-2.7,9.2
				c-0.5-0.7-1.1-1.3-1.8-1.8c2-2.6,2.2-6.7,2.2-11.9h-1.6v-2.3h3.6c-0.4-0.9-0.8-1.7-1.3-2.5l2.2-0.8c0.6,0.8,1.2,1.8,1.6,2.8
				l-1.3,0.5h3.9v2.3h-4.6c0,0.8,0,1.5,0,2.2L76.8,40.4z M83.7,33.3c-0.1,0.5-0.3,1-0.5,1.4c1,2,2.8,4,4.6,5.1
				c-0.7,0.6-1.3,1.2-1.7,2c-1.5-1-2.9-2.8-4-4.6c-1,1.9-2.4,3.5-4.1,4.8c-0.5-0.7-1-1.4-1.7-1.9c2.4-1.5,4.2-4.1,5.1-7.3L83.7,33.3
				z M79.9,46c1.9,1,4.6,2.5,5.9,3.6l-1.7,2.1c-1.2-1.2-3.8-2.8-5.8-3.9L79.9,46z M83.2,45.2c-0.7-0.8-2.3-2.1-3.5-3l1.6-1.6
				c1.2,0.8,2.8,2,3.6,2.8L83.2,45.2z"/>
			<path class="st9" d="M104.3,49.2c2,0,2.4-0.5,2.7-3.1c0.8,0.4,1.6,0.7,2.5,0.9c-0.5,3.4-1.4,4.6-5,4.6h-7.2c-4,0-5.2-0.8-5.2-4.3
				V33.9h15.3v10.3h-2.5v-1H94.7v4.2c0,1.6,0.3,1.9,2.5,1.9H104.3z M94.7,36.3v4.4h3.9v-4.4L94.7,36.3z M104.9,36.3H101v4.4h3.9
				V36.3z"/>
			<path class="st9" d="M122.8,47.1h-10.3v-2.1h1.8v-7.6h-1.6v-2.1h1.6V33h2.2v2.2h2.8V33h2.2v2.2h1.2v2.1h-1.2v7.6h1.3V47.1z
				 M117.4,47.9c-0.7,1.5-1.7,2.8-2.9,4c-0.6-0.5-1.2-1-1.9-1.4c1.1-0.9,2-2,2.6-3.2L117.4,47.9z M116.5,37.3v1.2h2.8v-1.2H116.5z
				 M116.5,41.7h2.8v-1.3h-2.8V41.7z M116.5,44.9h2.8v-1.4h-2.8V44.9z M131.7,41.7H130v10.2h-2.3V41.7h-1.9v0.7c0,3.8-0.4,7.2-3,10
				c-0.5-0.6-1.1-1.1-1.7-1.6c0.2-0.3,0.5-0.6,0.7-0.9l-2,1c-0.5-1-1.1-1.9-1.7-2.8l2-0.9c0.7,0.8,1.3,1.7,1.8,2.6
				c1.5-2.2,1.7-4.8,1.7-7.4V35c2.3-0.6,4.7-1.4,6.2-2.3l2,1.7c-1.9,0.9-3.9,1.6-5.9,2.1v3h6V41.7z"/>
			<path class="st9" d="M145.9,43.8c1.5,3,4,4.9,8.1,5.7c-0.6,0.7-1.2,1.5-1.6,2.3c-3.9-1-6.4-2.9-8.1-6c-1.2,2.5-3.6,4.8-8.1,6.1
				c-0.4-0.8-0.9-1.6-1.5-2.3c4.6-1.3,6.6-3.5,7.5-5.9h-7v-2.5h7.6c0.1-0.6,0.1-1.3,0.1-1.9V38h-6.3v-2.5h6.3v-2.7h2.6v2.7h6.8V38
				h-6.8v1.4c0,0.6,0,1.2-0.1,1.9h7.9v2.5L145.9,43.8z"/>
		</g>
		<g class="st30">
			<path class="st9" d="M44.2,84.2c-0.1-0.5-0.3-0.9-0.5-1.4c-0.2,1.6-0.7,2.1-1.8,2.1h-1.8c-1.7,0-2-0.5-2-2v-1.5
				c-0.3,1.1-0.7,2.1-1.2,3l-1.2-0.8v1.6h-1.9v-7.2h-4.6v-1.6h1v-5.1h-0.8v-1.6h7v1.6h-0.7v12.1c0.5-0.9,0.9-1.8,1.2-2.8l1.3,0.6
				v-0.6h1.5c-0.2-0.2-0.3-0.4-0.5-0.5l1.1-0.5h-4v-1.7h9.2v1.7h-4.8c0.7,0.7,1.3,1.4,1.8,2.3L41,82.5c-0.3-0.6-0.7-1.2-1.2-1.8v2.1
				c0,0.4,0.1,0.5,0.5,0.5h1.3c0.4,0,0.5-0.2,0.5-1.4c0.4,0.3,0.9,0.5,1.3,0.6c-0.3-0.6-0.6-1.2-1.1-1.7l1.4-0.6
				c0.8,1,1.5,2.1,1.8,3.3L44.2,84.2z M33.6,79.4c-0.4,0.1-0.9,0.2-1.3,0.2v0.9h0.9v1.3h-0.9v0.7l1.2-0.1l0,1.4
				c-1.4,0.2-2.8,0.3-4,0.5l-0.1-1.5c0.4,0,0.9-0.1,1.5-0.1v-0.9h-1v-1.3h1v-0.8c-0.4,0-0.7,0-1,0c-0.1-0.4-0.2-0.8-0.3-1.1
				c1.2-0.1,2.4-0.2,3.6-0.4L33.6,79.4z M32.1,71.2v0.9h1.7v-0.9H32.1z M32.1,74.1h1.7v-0.8h-1.7V74.1z M33.8,76.3v-0.8h-1.7v0.9
				L33.8,76.3z M39.6,72.6c0.1-0.3,0.1-0.6,0.1-0.9h-3.2v-1.6h3.5c0.1-0.4,0.1-0.8,0.1-1.2l1.8,0.1l-0.1,1.1h3.5v1.6h-3.7
				c-0.1,0.3-0.1,0.6-0.1,0.9h3.6V77h-8.2v-4.4L39.6,72.6z M39.1,74.1h-0.9v1.4h0.9V74.1z M41.2,74.1h-0.9v1.4h0.9L41.2,74.1z
				 M42.4,75.5h1v-1.4h-1L42.4,75.5z"/>
			<path class="st9" d="M62.8,84.2c-0.1-0.5-0.3-0.9-0.5-1.4c-0.2,1.6-0.7,2.1-1.8,2.1h-1.7c-1.7,0-2-0.5-2-2v-1.5
				c-0.3,1.1-0.7,2.1-1.2,3l-1.2-0.8v1.6h-1.9v-7.2h-4.6v-1.6h1v-5.1h-0.8v-1.6h7v1.6h-0.7v12.1c0.5-0.9,0.9-1.8,1.2-2.8l1.3,0.6
				v-0.6h1.5c-0.2-0.2-0.3-0.4-0.5-0.5l1.1-0.5h-4v-1.7h9.2v1.7h-4.8c0.7,0.7,1.3,1.4,1.8,2.3l-1.4,0.8c-0.3-0.6-0.7-1.2-1.2-1.8
				v2.1c0,0.4,0.1,0.5,0.5,0.5h1.3c0.4,0,0.5-0.2,0.5-1.4c0.4,0.3,0.9,0.5,1.3,0.6c-0.3-0.6-0.6-1.2-1.1-1.7l1.4-0.6
				c0.8,1,1.5,2.1,1.8,3.3L62.8,84.2z M52.3,79.4c-0.4,0.1-0.9,0.2-1.3,0.2v0.9h0.9v1.3H51v0.7l1.2-0.1l0,1.4
				c-1.4,0.2-2.8,0.3-4,0.5L48,82.8c0.4,0,0.9-0.1,1.5-0.1v-0.9h-1v-1.3h1v-0.8c-0.4,0-0.7,0-1,0c-0.1-0.4-0.2-0.8-0.3-1.1
				c1.2-0.1,2.4-0.2,3.6-0.4L52.3,79.4z M50.8,71.2v0.9h1.7v-0.9H50.8z M50.8,74.1h1.7v-0.8h-1.7V74.1z M52.5,76.3v-0.8h-1.7v0.9
				L52.5,76.3z M58.3,72.6c0.1-0.3,0.1-0.6,0.1-0.9h-3.2v-1.6h3.5c0.1-0.4,0.1-0.8,0.1-1.2l1.8,0.1l-0.1,1.1h3.5v1.6h-3.7
				c-0.1,0.3-0.1,0.6-0.1,0.9h3.6V77h-8.2v-4.4L58.3,72.6z M57.8,74.1h-0.9v1.4h0.9L57.8,74.1z M59.9,74.1H59v1.4h0.9V74.1z
				 M61.1,75.5h1v-1.4h-1V75.5z"/>
			<path class="st9" d="M82.1,81.7c-0.9,0.4-1.9,0.7-2.7,1c1.2,0.4,2.3,0.6,3.6,0.7c-0.4,0.5-0.8,1-1.1,1.6
				c-3.6-0.5-5.9-1.8-7.2-4.2h-1.6V83l2.6-0.5c0,0.5,0,1.1,0,1.6C72,84.9,71.4,85,71,85.2c-0.1-0.6-0.3-1.1-0.6-1.6
				c0.3-0.1,0.7-0.5,0.7-1.2v-1.5h-1.1c-0.2,1.5-0.7,3-1.7,4.2c-0.5-0.4-1.1-0.8-1.7-1.1c1.5-1.9,1.7-4.5,1.7-6.3v-2.2h13.8V77H70.3
				v0.5h11.1v1.3H70.3c0,0.2,0,0.4,0,0.6h12.3v1.5h-1.4L82.1,81.7z M81.4,75H68.5v-5.1H72v-1.1h2v1.1h1.7v-1.1h2v1.1h3.7L81.4,75z
				 M70.4,71.9H72v-0.7h-1.6V71.9z M70.4,73.8H72v-0.7h-1.6V73.8z M74,71.2v0.7h1.7v-0.7H74z M74,73.1v0.7h1.7v-0.7H74z M76.6,80.9
				c0.3,0.4,0.7,0.7,1.1,1c0.7-0.3,1.5-0.6,2.2-1H76.6z M79.4,71.2h-1.7v0.7h1.7V71.2z M79.4,73.1h-1.7v0.7h1.7V73.1z"/>
			<path class="st9" d="M99.5,75.8c-0.5,2.1-1.6,4.1-3.1,5.7c1.6,0.9,3.2,1.5,5,1.7c-0.5,0.6-1,1.2-1.3,1.9
				c-1.9-0.4-3.7-1.1-5.3-2.2c-1.4,1-3,1.8-4.6,2.2c-0.3-0.6-0.7-1.2-1.2-1.8c1.5-0.4,2.9-1,4.1-1.8c-0.9-1-1.7-2.1-2.3-3.3
				c-0.8,2.3-2,4.6-3.9,6.3c-0.5-0.6-1.1-1.1-1.8-1.5c3-2.5,4.1-6.4,4.6-9.6h-4v-2h4.2c0.1-1.1,0.1-2.1,0.1-2.6h2.2
				c0,0.6-0.1,1.5-0.2,2.6h8.8v2h-9c-0.1,0.6-0.2,1.2-0.3,1.8h6.1l0.4-0.1L99.5,75.8z M92.4,77.3c0.6,1.1,1.4,2.1,2.3,2.9
				c0.8-0.8,1.5-1.8,2-2.9H92.4z"/>
			<path class="st9" d="M104.2,83.6c0.7-1.3,1.2-2.7,1.5-4.1l1.8,0.7c-0.4,1.4-0.8,2.9-1.4,4.3L104.2,83.6z M108.7,72.4
				c-0.7,1.4-1.6,2.6-2.7,3.7c-0.5-0.5-1.1-1-1.7-1.4c1.6-1.3,2.9-3.5,3.6-5.8l2.1,0.5c-0.1,0.4-0.3,0.9-0.5,1.3h10.1v1.8h-7.4v1
				h6.4V75h-6.4v1h6.9v1.7h-6.9v0.8c0.9,0.7,2,1.5,2.6,2.1l-1.4,1.4c-0.9-0.9-1.8-1.7-2.8-2.5l0.6-0.6h-1.1v-6.6H108.7z M118.2,84.4
				c-0.2-0.6-0.5-1.4-0.9-2.3c-0.3,2.2-0.9,2.7-2.8,2.7h-3.4c-2.5,0-3.1-0.6-3.1-2.4v-2.7h2.1v2.7c0,0.5,0.2,0.6,1.2,0.6h3.1
				c0.8,0,1-0.2,1.1-1.6c0.6,0.3,1.2,0.6,1.9,0.7c-0.3-0.8-0.7-1.6-1-2.3l1.9-0.5c0.7,1.4,1.6,3.3,2,4.5L118.2,84.4z"/>
			<path class="st9" d="M125.9,72v3c0,2.8-0.2,7.3-1.5,10.1c-0.5-0.5-1.1-0.9-1.7-1.2c1.1-2.6,1.2-6.3,1.2-8.9v-4.8h6.5
				c-0.1-0.4-0.2-0.7-0.3-1l2.1-0.4c0.2,0.5,0.3,0.9,0.5,1.4h5.9V72L125.9,72z M127.8,75.9c0,0.9-0.1,1.9-0.9,2.7
				c-0.3-0.3-0.6-0.6-1-0.8c0.7-0.5,0.8-1.4,0.8-1.9v-0.7h1.1V75.9z M135.8,80.7c0.9,1,2.2,2.5,2.8,3.4L137,85
				c-0.2-0.3-0.4-0.6-0.7-0.9c-8.2,0.6-9.1,0.6-9.8,0.8c-0.1-0.6-0.3-1.1-0.5-1.7c0.7-0.1,1.4-0.4,2.1-0.8c0.7-0.3,1.3-0.6,2-1
				c-2.2,0.1-2.7,0.2-2.9,0.3c-0.1-0.5-0.3-1-0.5-1.5c0.4-0.1,0.8-0.2,1.1-0.4c1-0.5,2-1.2,2.9-1.9c-0.4-0.2-0.5-0.5-0.5-1.1v-1.5
				h1.1v1.5c0,0.3,0,0.3,0.2,0.3c0.2,0,0.4,0,0.6-0.1c0,0.2,0,0.3,0,0.5c0.5-0.5,0.7-1.1,0.7-1.8v-0.7h1.1v0.7
				c0,0.8-0.1,1.8-0.9,2.6c-0.3-0.3-0.6-0.5-0.9-0.7l0,0.2c-0.2,0.1-0.4,0.1-0.6,0.1h-0.3l1.1,0.7c-0.9,0.6-1.8,1.2-2.7,1.7l2.6-0.1
				c0.8-0.5,1.6-1,2.3-1.6l1.5,1c-1.8,1.3-3.6,2.4-5.6,3.3l4.9-0.3c-0.3-0.4-0.7-0.8-1-1.2L135.8,80.7z M128.3,78.3v-3.6h-1.9v-1.5
				h1.9v-0.8h1.5v0.8h2.1v1.5h-2.1v3.6H128.3z M134.5,78.3v-3.7h-2.1v-1.5h2.1v-0.8h1.5v0.8h2.5v1.5H136v3.7L134.5,78.3z
				 M138.1,77.3c0.2,0,0.5,0,0.7-0.1c0,0.3,0,0.6,0.1,0.9c-0.2,0.1-0.5,0.1-0.7,0.1h-0.6c-0.9,0-1.1-0.4-1.1-1.3v-1.7h1.2v1.8
				c0,0.3,0,0.4,0.2,0.4H138.1z"/>
			<path class="st9" d="M155.6,83.1c0.3,0,0.3-0.2,0.4-1.9c0.5,0.4,1.1,0.6,1.8,0.8c-0.2,2.3-0.7,3-1.9,3h-1.2
				c-1.6,0-1.9-0.6-1.9-2.4v-3.5H152c-0.3,2.7-0.9,4.9-3.7,6.2c-0.3-0.5-0.6-1-1-1.5v0.4h-3.4v0.7h-1.8v-6h5.2v4.7
				c2.1-0.9,2.5-2.5,2.7-4.5h-1.1v-4.7c-0.2,0.2-0.4,0.4-0.6,0.6c-0.4-0.5-0.9-1-1.5-1.5l0.1-0.1h-5.4v-1.6h2.6
				c-0.2-0.8-0.5-1.5-0.8-2.2l1.7-0.5c0.4,0.7,0.7,1.5,1,2.2l-1.3,0.5h3.1v1c1-1,1.9-2.3,2.5-3.6l1.9,0.6c-0.6,1.4-1.4,2.7-2.4,3.8
				h6c-0.9-1.3-1.8-2.5-2.9-3.6l1.4-1c1.3,1.4,3,3.3,3.7,4.6l-1.6,1.1c-0.1-0.2-0.2-0.4-0.3-0.6v5h-1.1v3.4c0,0.5,0,0.6,0.3,0.6
				L155.6,83.1z M147,75.7h-4.9v-1.6h4.9L147,75.7z M142.1,76.5h4.9v1.6h-4.9V76.5z M145.5,80.6h-1.7v2h1.7V80.6z M150.8,77.3h3.1
				v-1.9h-3.1L150.8,77.3z"/>
			<path class="st9" d="M167.5,74.1c0-1-0.8-1.6-2.2-1.6c-1.1,0-1.9,0.5-2.8,1.4l-1.4-1.3c1.1-1.3,2.7-2.1,4.5-2.1
				c2.5,0,4.4,1.2,4.4,3.5c0,2.6-3.8,2.9-3.5,5.3h-2.2C163.8,76.4,167.5,75.8,167.5,74.1z M163.7,82.2c0-0.8,0.7-1.5,1.5-1.5
				c0.8,0,1.5,0.7,1.5,1.5s-0.7,1.5-1.5,1.5C164.4,83.8,163.7,83.1,163.7,82.2z"/>
		</g>
		<path class="st31" d="M54,42.4c0.3,0.7,0.6,1.5,0.9,2.3l-0.8,0.3h0.3v2c0,1.6-0.4,3.1-3,4.1c-0.3-0.5-0.6-1-1-1.4
			c1.1-0.3,1.7-0.7,2-1.2H50v-3.1h1.5V47h1.2v-2.1h0.9c0-0.1-0.1-0.3-0.1-0.5c-2.8,0.3-3.3,0.5-3.6,0.6v0c-0.1-0.5-0.2-0.9-0.4-1.4
			c0.4-0.1,0.8-0.3,1.1-0.6c0.3-0.2,0.6-0.5,0.9-0.8c-1,0.1-1.3,0.2-1.5,0.2v0c-0.1-0.5-0.3-0.9-0.5-1.4c0.3,0,0.5-0.2,0.7-0.4
			c0.5-0.4,0.9-0.9,1.2-1.5h-2.7V51h-2.3V32.6h7.9v6.7h-2.1l0.8,0.4c-0.4,0.5-0.9,1.1-1.4,1.5l1.1,0c0.3-0.3,0.5-0.6,0.8-0.9
			l1.2,0.8c-0.8,0.9-1.7,1.7-2.7,2.4l1.3-0.1c-0.1-0.2-0.2-0.4-0.2-0.7L54,42.4z M48.6,34.3v1h3.3v-1H48.6z M48.6,37.7h3.3v-0.9
			h-3.3L48.6,37.7z M63.7,48.2c0,1.2-0.2,1.8-0.9,2.3s-1.6,0.5-3,0.5c-0.1-0.7-0.3-1.4-0.5-2h-1v-0.6H57v2.4h-1.7v-5.8h0
			c-0.1-0.3-0.3-0.9-0.4-1.3c0.4-0.1,0.8-0.3,1.1-0.6c0.3-0.2,0.6-0.5,0.9-0.8c-1,0.1-1.3,0.2-1.5,0.2c-0.1-0.5-0.3-0.9-0.5-1.4
			c0.3-0.1,0.5-0.2,0.7-0.4c0.5-0.4,0.9-1,1.2-1.5h-1.3v-6.7h8.1L63.7,48.2z M59.8,48.6c0.4,0,0.7,0,1.1,0c0.3,0,0.3-0.1,0.3-0.4
			v-8.9h-3.7l0.8,0.4c-0.4,0.5-0.9,1-1.4,1.5l1,0c0.3-0.3,0.6-0.6,0.8-1l1.2,0.8c-0.8,0.9-1.7,1.7-2.7,2.4l1.2-0.1
			c-0.1-0.2-0.2-0.4-0.3-0.7l1.2-0.4c0.4,0.7,0.7,1.5,1,2.3l-1.2,0.5c-0.1-0.2-0.1-0.4-0.2-0.7c-1.1,0.1-2.2,0.3-3.3,0.5H57V47h1.2
			v-1.7h1.6L59.8,48.6z M57.9,34.3v1h3.4v-1H57.9z M57.9,37.7h3.4v-0.9h-3.4V37.7z"/>
		<path class="st31" d="M75.9,39.5c0,0,0,0.7,0,1c-0.1,6.2-0.3,8.5-0.8,9.2c-0.3,0.5-0.8,0.8-1.3,0.9c-0.7,0.1-1.4,0.1-2.1,0.1
			c-0.1-0.8-0.3-1.5-0.6-2.2c0.6,0,1.1,0.1,1.4,0.1c0.2,0,0.5-0.1,0.6-0.3c0.3-0.4,0.4-2,0.5-6.5h-1.8c-0.3,3.9-0.9,7-2.7,9.2
			c-0.5-0.7-1.1-1.3-1.8-1.8c2-2.6,2.2-6.7,2.2-11.9h-1.6V35h3.6c-0.4-0.9-0.8-1.7-1.3-2.5l2.2-0.8c0.6,0.8,1.2,1.8,1.6,2.8L72.6,35
			h3.9v2.3h-4.6c0,0.8,0,1.5,0,2.2L75.9,39.5z M82.8,32.4c-0.1,0.5-0.3,1-0.5,1.4c1,2,2.8,4,4.6,5.1c-0.7,0.6-1.3,1.2-1.7,2
			c-1.5-1-2.9-2.8-4-4.6c-1,1.9-2.4,3.5-4.1,4.8c-0.5-0.7-1-1.4-1.7-1.9c2.4-1.5,4.2-4.1,5.1-7.3L82.8,32.4z M79,45.1
			c1.9,1,4.6,2.5,5.9,3.6l-1.7,2.1C82,49.7,79.4,48,77.4,47L79,45.1z M82.3,44.3c-0.7-0.8-2.3-2.1-3.5-3l1.6-1.6
			c1.2,0.8,2.8,2,3.6,2.8L82.3,44.3z"/>
		<path class="st31" d="M103.4,48.3c2,0,2.4-0.5,2.7-3.1c0.8,0.4,1.6,0.7,2.5,0.9c-0.5,3.4-1.4,4.6-5,4.6h-7.2c-4,0-5.2-0.8-5.2-4.3
			V33h15.3v10.3H104v-1H93.8v4.2c0,1.6,0.3,1.9,2.5,1.9H103.4z M93.8,35.4v4.4h3.9v-4.4L93.8,35.4z M104,35.4h-3.9v4.4h3.9V35.4z"/>
		<path class="st31" d="M121.9,46.2h-10.3V44h1.8v-7.6h-1.6v-2.1h1.6v-2.2h2.2v2.2h2.8v-2.2h2.2v2.2h1.2v2.1h-1.2V44h1.3V46.2z
			 M116.5,47c-0.7,1.5-1.7,2.8-2.9,4c-0.6-0.5-1.2-1-1.9-1.4c1.1-0.9,2-2,2.6-3.2L116.5,47z M115.6,36.4v1.2h2.8v-1.2H115.6z
			 M115.6,40.8h2.8v-1.3h-2.8V40.8z M115.6,44h2.8v-1.4h-2.8V44z M130.8,40.9h-1.8V51h-2.3V40.9h-1.9v0.7c0,3.8-0.4,7.2-3,10
			c-0.5-0.6-1.1-1.1-1.7-1.6c0.2-0.3,0.5-0.6,0.7-0.9l-2,1c-0.5-1-1.1-1.9-1.7-2.8l2-0.9c0.7,0.8,1.3,1.7,1.8,2.6
			c1.5-2.2,1.7-4.8,1.7-7.4v-7.5c2.3-0.6,4.7-1.4,6.2-2.3l2,1.7c-1.9,0.9-3.9,1.6-5.9,2.1v3h6V40.9z"/>
		<path class="st31" d="M145,42.9c1.5,3,4,4.9,8.1,5.7c-0.6,0.7-1.2,1.5-1.6,2.3c-3.9-1-6.4-2.9-8.1-6c-1.2,2.5-3.6,4.8-8.1,6.1
			c-0.4-0.8-0.9-1.6-1.5-2.3c4.6-1.3,6.6-3.5,7.5-5.9h-7v-2.5h7.6c0.1-0.6,0.1-1.3,0.1-1.9v-1.4h-6.3v-2.5h6.3v-2.7h2.6v2.7h6.8v2.5
			h-6.8v1.4c0,0.6,0,1.2-0.1,1.9h7.9v2.5L145,42.9z"/>
		<path class="st31" d="M43.3,83.3c-0.1-0.5-0.3-0.9-0.5-1.4C42.6,83.6,42.1,84,41,84h-1.8c-1.7,0-2-0.5-2-2v-1.5
			c-0.3,1.1-0.7,2.1-1.2,3l-1.2-0.8v1.6h-1.9V77h-4.6v-1.6h1v-5.1h-0.8v-1.6h7v1.6h-0.7v12.1c0.5-0.9,0.9-1.8,1.2-2.8l1.3,0.6v-0.6
			h1.5c-0.2-0.2-0.3-0.4-0.5-0.5l1.1-0.5h-4v-1.7h9.2v1.7h-4.8c0.7,0.7,1.3,1.4,1.8,2.3l-1.4,0.8c-0.3-0.6-0.7-1.2-1.2-1.8V82
			c0,0.4,0.1,0.5,0.5,0.5h1.3c0.4,0,0.5-0.2,0.5-1.4c0.4,0.3,0.9,0.5,1.3,0.6c-0.3-0.6-0.6-1.2-1.1-1.7l1.4-0.6
			c0.8,1,1.5,2.1,1.8,3.3L43.3,83.3z M32.7,78.5c-0.4,0.1-0.9,0.2-1.3,0.2v0.9h0.9V81h-0.9v0.7l1.2-0.1l0,1.4
			c-1.4,0.2-2.8,0.3-4,0.5l-0.1-1.5c0.4,0,0.9-0.1,1.5-0.1V81h-1v-1.3h1v-0.8c-0.4,0-0.7,0-1,0c-0.1-0.4-0.2-0.8-0.3-1.1
			c1.2-0.1,2.4-0.2,3.6-0.4L32.7,78.5z M31.2,70.3v0.9h1.7v-0.9H31.2z M31.2,73.3h1.7v-0.8h-1.7V73.3z M32.9,75.4v-0.8h-1.7v0.9
			L32.9,75.4z M38.7,71.7c0.1-0.3,0.1-0.6,0.1-0.9h-3.2v-1.6h3.5c0.1-0.4,0.1-0.8,0.1-1.2l1.8,0.1l-0.1,1.1h3.5v1.6h-3.7
			c-0.1,0.3-0.1,0.6-0.1,0.9H44v4.4h-8.2v-4.4L38.7,71.7z M38.2,73.2h-0.9v1.4h0.9V73.2z M40.3,73.2h-0.9v1.4h0.9L40.3,73.2z
			 M41.5,74.6h1v-1.4h-1L41.5,74.6z"/>
		<path class="st31" d="M62,83.3c-0.1-0.5-0.3-0.9-0.5-1.4c-0.2,1.6-0.7,2.1-1.8,2.1h-1.7c-1.7,0-2-0.5-2-2v-1.5
			c-0.3,1.1-0.7,2.1-1.2,3l-1.2-0.8v1.6h-1.9V77H47v-1.6h1v-5.1h-0.8v-1.6h7v1.6h-0.7v12.1c0.5-0.9,0.9-1.8,1.2-2.8l1.3,0.6v-0.6
			h1.5c-0.2-0.2-0.3-0.4-0.5-0.5l1.1-0.5h-4v-1.7h9.2v1.7h-4.8c0.7,0.7,1.3,1.4,1.8,2.3l-1.4,0.8c-0.3-0.6-0.7-1.2-1.2-1.8V82
			c0,0.4,0.1,0.5,0.5,0.5h1.3c0.4,0,0.5-0.2,0.5-1.4c0.4,0.3,0.9,0.5,1.3,0.6c-0.3-0.6-0.6-1.2-1.1-1.7l1.4-0.6
			c0.8,1,1.5,2.1,1.8,3.3L62,83.3z M51.4,78.5c-0.4,0.1-0.9,0.2-1.3,0.2v0.9H51V81h-0.9v0.7l1.2-0.1l0,1.4c-1.4,0.2-2.8,0.3-4,0.5
			l-0.1-1.5c0.4,0,0.9-0.1,1.5-0.1V81h-1v-1.3h1v-0.8c-0.4,0-0.7,0-1,0c-0.1-0.4-0.2-0.8-0.3-1.1c1.2-0.1,2.4-0.2,3.6-0.4L51.4,78.5
			z M49.9,70.3v0.9h1.7v-0.9H49.9z M49.9,73.3h1.7v-0.8h-1.7V73.3z M51.6,75.4v-0.8h-1.7v0.9L51.6,75.4z M57.4,71.7
			c0.1-0.3,0.1-0.6,0.1-0.9h-3.2v-1.6h3.5c0.1-0.4,0.1-0.8,0.1-1.2l1.8,0.1l-0.1,1.1H63v1.6h-3.7c-0.1,0.3-0.1,0.6-0.1,0.9h3.6v4.4
			h-8.2v-4.4L57.4,71.7z M56.9,73.2H56v1.4h0.9L56.9,73.2z M59,73.2h-0.9v1.4H59V73.2z M60.2,74.6h1v-1.4h-1V74.6z"/>
		<path class="st31" d="M81.2,80.8c-0.9,0.4-1.9,0.7-2.7,1c1.2,0.4,2.3,0.6,3.6,0.7c-0.4,0.5-0.8,1-1.1,1.6
			c-3.6-0.5-5.9-1.8-7.2-4.2h-1.6v2.1l2.6-0.5c0,0.5,0,1.1,0,1.6c-3.7,0.8-4.3,0.9-4.7,1.1c-0.1-0.6-0.3-1.1-0.6-1.6
			c0.3-0.1,0.7-0.5,0.7-1.2V80h-1.1c-0.2,1.5-0.7,3-1.7,4.2c-0.5-0.4-1.1-0.8-1.7-1.1c1.5-1.9,1.7-4.5,1.7-6.3v-2.2h13.8v1.5H69.4
			v0.5h11.1V78H69.4c0,0.2,0,0.4,0,0.6h12.3V80h-1.4L81.2,80.8z M80.5,74.1H67.6v-5.1h3.5V68h2v1.1h1.7V68h2v1.1h3.7L80.5,74.1z
			 M69.5,71h1.6v-0.7h-1.6V71z M69.5,72.9h1.6v-0.7h-1.6V72.9z M73.1,70.3V71h1.7v-0.7H73.1z M73.1,72.2v0.7h1.7v-0.7H73.1z
			 M75.7,80c0.3,0.4,0.7,0.7,1.1,1c0.7-0.3,1.5-0.6,2.2-1H75.7z M78.5,70.3h-1.7V71h1.7V70.3z M78.5,72.2h-1.7v0.7h1.7V72.2z"/>
		<path class="st31" d="M98.6,74.9C98.1,77,97,79,95.6,80.6c1.6,0.9,3.2,1.5,5,1.7c-0.5,0.6-1,1.2-1.3,1.9c-1.9-0.4-3.7-1.1-5.3-2.2
			c-1.4,1-3,1.8-4.6,2.2c-0.3-0.6-0.7-1.2-1.2-1.8c1.5-0.4,2.9-1,4.1-1.8c-0.9-1-1.7-2.1-2.3-3.3c-0.8,2.3-2,4.6-3.9,6.3
			c-0.5-0.6-1.1-1.1-1.8-1.5c3-2.5,4.1-6.4,4.6-9.6h-4v-2h4.2c0.1-1.1,0.1-2.1,0.1-2.6h2.2c0,0.6-0.1,1.5-0.2,2.6h8.8v2h-9
			c-0.1,0.6-0.2,1.2-0.3,1.8h6.1l0.4-0.1L98.6,74.9z M91.6,76.4c0.6,1.1,1.4,2.1,2.3,2.9c0.8-0.8,1.5-1.8,2-2.9H91.6z"/>
		<path class="st31" d="M103.3,82.7c0.7-1.3,1.2-2.7,1.5-4.1l1.8,0.7c-0.4,1.4-0.8,2.9-1.4,4.3L103.3,82.7z M107.8,71.5
			c-0.7,1.4-1.6,2.6-2.7,3.7c-0.5-0.5-1.1-1-1.7-1.4c1.6-1.3,2.9-3.5,3.6-5.8l2.1,0.5c-0.1,0.4-0.3,0.9-0.5,1.3h10.1v1.8h-7.4v1h6.4
			v1.6h-6.4v1h6.9v1.7h-6.9v0.8c0.9,0.7,2,1.5,2.6,2.1l-1.4,1.4c-0.9-0.9-1.8-1.7-2.8-2.5l0.6-0.6h-1.1v-6.6H107.8z M117.3,83.5
			c-0.2-0.6-0.5-1.4-0.9-2.3c-0.3,2.2-0.9,2.7-2.8,2.7h-3.4c-2.5,0-3.1-0.6-3.1-2.4v-2.7h2.1v2.7c0,0.5,0.2,0.6,1.2,0.6h3.1
			c0.8,0,1-0.2,1.1-1.6c0.6,0.3,1.2,0.6,1.9,0.7c-0.3-0.8-0.7-1.6-1-2.3l1.9-0.5c0.7,1.4,1.6,3.3,2,4.5L117.3,83.5z"/>
		<path class="st31" d="M125,71.1v3c0,2.8-0.2,7.3-1.5,10.1c-0.5-0.5-1.1-0.9-1.7-1.2c1.1-2.6,1.2-6.3,1.2-8.9v-4.8h6.5
			c-0.1-0.4-0.2-0.7-0.3-1l2.1-0.4c0.2,0.5,0.3,0.9,0.5,1.4h5.9v1.8L125,71.1z M126.9,75.1c0,0.9-0.1,1.9-0.9,2.7
			c-0.3-0.3-0.6-0.6-1-0.8c0.7-0.5,0.8-1.4,0.8-1.9v-0.7h1.1V75.1z M134.9,79.8c0.9,1,2.2,2.5,2.8,3.4l-1.6,0.9
			c-0.2-0.3-0.4-0.6-0.7-0.9c-8.2,0.6-9.1,0.6-9.8,0.8c-0.1-0.6-0.3-1.1-0.5-1.7c0.7-0.1,1.4-0.4,2.1-0.8c0.7-0.3,1.3-0.6,2-1
			c-2.2,0.1-2.7,0.2-2.9,0.3c-0.1-0.5-0.3-1-0.5-1.5c0.4-0.1,0.8-0.2,1.1-0.4c1-0.5,2-1.2,2.9-1.9c-0.4-0.2-0.5-0.5-0.5-1.1v-1.5
			h1.1v1.5c0,0.3,0,0.3,0.2,0.3c0.2,0,0.4,0,0.6-0.1c0,0.2,0,0.3,0,0.5c0.5-0.5,0.7-1.1,0.7-1.8v-0.7h1.1V75c0,0.8-0.1,1.8-0.9,2.6
			c-0.3-0.3-0.6-0.5-0.9-0.7l0,0.2c-0.2,0.1-0.4,0.1-0.6,0.1h-0.3l1.1,0.7c-0.9,0.6-1.8,1.2-2.7,1.7l2.6-0.1c0.8-0.5,1.6-1,2.3-1.6
			l1.5,1c-1.8,1.3-3.6,2.4-5.6,3.3l4.9-0.3c-0.3-0.4-0.7-0.8-1-1.2L134.9,79.8z M127.4,77.4v-3.6h-1.9v-1.5h1.9v-0.8h1.5v0.8h2.1
			v1.5H129v3.6H127.4z M133.6,77.4v-3.7h-2.1v-1.5h2.1v-0.8h1.5v0.8h2.5v1.5h-2.5v3.7L133.6,77.4z M137.2,76.4c0.2,0,0.5,0,0.7-0.1
			c0,0.3,0,0.6,0.1,0.9c-0.2,0.1-0.5,0.1-0.7,0.1h-0.6c-0.9,0-1.1-0.4-1.1-1.3v-1.7h1.2v1.8c0,0.3,0,0.4,0.2,0.4H137.2z"/>
		<path class="st31" d="M154.7,82.2c0.3,0,0.3-0.2,0.4-1.9c0.5,0.4,1.1,0.6,1.8,0.8c-0.2,2.3-0.7,3-1.9,3h-1.2
			c-1.6,0-1.9-0.6-1.9-2.4v-3.5h-0.8c-0.3,2.7-0.9,4.9-3.7,6.2c-0.3-0.5-0.6-1-1-1.5v0.4h-3.4V84h-1.8v-6h5.2v4.7
			c2.1-0.9,2.5-2.5,2.7-4.5h-1.1v-4.7c-0.2,0.2-0.4,0.4-0.6,0.6c-0.4-0.5-0.9-1-1.5-1.5l0.1-0.1h-5.4v-1.6h2.6
			c-0.2-0.8-0.5-1.5-0.8-2.2l1.7-0.5c0.4,0.7,0.7,1.5,1,2.2l-1.3,0.5h3.1v1c1-1,1.9-2.3,2.5-3.6l1.9,0.6c-0.6,1.4-1.4,2.7-2.4,3.8h6
			c-0.9-1.3-1.8-2.5-2.9-3.6l1.4-1c1.3,1.4,3,3.3,3.7,4.6l-1.6,1.1c-0.1-0.2-0.2-0.4-0.3-0.6v5h-1.1v3.4c0,0.5,0,0.6,0.3,0.6
			L154.7,82.2z M146.1,74.8h-4.9v-1.6h4.9L146.1,74.8z M141.2,75.6h4.9v1.6h-4.9V75.6z M144.6,79.7H143v2h1.7V79.7z M149.9,76.4h3.1
			v-1.9h-3.1L149.9,76.4z"/>
		<path class="st31" d="M166.6,73.2c0-1-0.8-1.6-2.2-1.6c-1.1,0-1.9,0.5-2.8,1.4l-1.4-1.3c1.1-1.3,2.7-2.1,4.5-2.1
			c2.5,0,4.4,1.2,4.4,3.5c0,2.6-3.8,2.9-3.5,5.3h-2.2C162.9,75.5,166.6,74.9,166.6,73.2z M162.9,81.4c0-0.8,0.7-1.5,1.5-1.5
			c0.8,0,1.5,0.7,1.5,1.5s-0.7,1.5-1.5,1.5C163.5,82.9,162.9,82.2,162.9,81.4z"/>
	</g>
</g>
</svg>
