<?xml version="1.0" encoding="utf-8"?>
<!-- Generator: Adobe Illustrator 22.0.1, SVG Export Plug-In . SVG Version: 6.00 Build 0)  -->
<svg version="1.1" id="圖層_1" xmlns="http://www.w3.org/2000/svg" xmlns:xlink="http://www.w3.org/1999/xlink" x="0px" y="0px"
	 viewBox="0 0 20 24" style="enable-background:new 0 0 20 24;" xml:space="preserve">
<style type="text/css">
	.st0{fill:#76755A;}
	.st1{fill:#675534;}
	.st2{opacity:0.1;}
	.st3{fill:#020202;}
	.st4{fill:#4C3A22;}
	.st5{fill:#D8CEB8;}
	.st6{clip-path:url(#SVGID_2_);fill:#CCC2AE;}
	.st7{fill:#BBAF97;}
	.st8{clip-path:url(#SVGID_4_);fill:#CCC2AE;}
</style>
<g>
	<g>
		<g>
			<path class="st0" d="M6.7,5.7C7.1,4,7,2.1,6.6,0.4c0,0-0.2,0.1-0.2,0.1c0.4,1.7,0.6,3.6,0.1,5.3C6.5,5.8,6.7,5.8,6.7,5.7L6.7,5.7
				z"/>
		</g>
		<g>
			<path class="st0" d="M6.2,5.9C4.8,4.7,3.9,3,3.3,1.4c0,0,0.2-0.1,0.3,0C4.1,3,5.1,4.7,6.4,5.8C6.5,5.8,6.2,5.9,6.2,5.9L6.2,5.9z"
				/>
		</g>
	</g>
	<g>
		<path class="st1" d="M5.7,9.7c0,0,4.2,10.6,5.1,10.8c0.9,0.1-1.2-10.2-1.7-12L5.7,9.7z"/>
		<g>
			<path class="st1" d="M5.3,6.7C5.3,6.7,4.6,8,5,9c0.4,1,2.3,1.4,3.5,0.5c1.2-0.9,0.6-3-0.8-3.5L5.3,6.7z"/>
			<g class="st2">
				<path class="st3" d="M8.4,8.9C7.2,9.8,5.4,9.5,4.9,8.5C4.9,8.7,5,8.8,5,9c0.4,1,2.3,1.4,3.5,0.5C9.2,8.9,9.3,8,9,7.2
					C9.1,7.8,8.9,8.5,8.4,8.9z"/>
			</g>
		</g>
		<g>
			<path class="st4" d="M8.2,5.5c0.1,0.4-0.5,1-1.5,1.3c-1,0.3-1.8,0.2-2-0.3c-0.1-0.4,0.5-1,1.5-1.3C7.2,4.9,8.1,5,8.2,5.5z"/>
			<g class="st2">
				<path class="st3" d="M6.6,6.4C5.8,6.6,5.1,6.6,4.8,6.3c0,0.1,0,0.2,0,0.2c0.1,0.4,1,0.6,2,0.3c1-0.3,1.6-0.9,1.5-1.3
					c0-0.1-0.1-0.1-0.1-0.2C8,5.7,7.4,6.1,6.6,6.4z"/>
			</g>
		</g>
	</g>
	<path class="st5" d="M5.1,8.4c0,0-5.8,8.4-5,11.9c0.8,3.5,6.5,4,8.2,2.5c1.6-1.5,1.8-4,1.4-6.3C9.2,14.3,7,8.1,7,8.1L5.1,8.4z"/>
	<g>
		<defs>
			<path id="SVGID_1_" d="M5.1,8.4c0,0-5.8,8.4-5,11.9c0.8,3.5,6.5,4,8.2,2.5c1.6-1.5,1.8-4,1.4-6.3C9.2,14.3,7,8.1,7,8.1L5.1,8.4z"
				/>
		</defs>
		<clipPath id="SVGID_2_">
			<use xlink:href="#SVGID_1_"  style="overflow:visible;"/>
		</clipPath>
		<path class="st6" d="M1.3,15.1c0,0,0,4.5,2.9,4.8s5.6-0.5,5.6-0.5l-0.2,4.2l-3.1,0.7l-3.5-0.5c0,0-2.9-1.2-3-1.3
			c0-0.1-0.4-4-0.5-4.1C-0.6,18.3,1.3,15.1,1.3,15.1z"/>
	</g>
	<g>
		<path class="st7" d="M5.4,9.4c0,0-0.1,0.2-0.2,0.5c-0.1,0.3-0.3,0.8-0.5,1.3c-0.2,0.5-0.5,1.2-0.7,1.9c-0.1,0.3-0.3,0.7-0.4,1.1
			c-0.1,0.4-0.3,0.7-0.4,1.1C3,15.7,2.8,16,2.7,16.4c-0.1,0.4-0.2,0.7-0.3,1.1c0,0.2-0.1,0.4-0.1,0.5c0,0.2-0.1,0.3-0.1,0.5
			c0,0.2-0.1,0.3-0.1,0.5c0,0.2,0,0.3-0.1,0.5c0,0.1,0,0.3,0,0.4c0,0.1,0,0.3,0,0.4c0,0.1,0,0.2,0,0.3c0,0.1,0,0.2,0,0.3
			c0,0.2,0,0.3,0,0.4c0,0.1,0,0.1,0,0.1s0,0,0-0.1c0-0.1-0.1-0.2-0.1-0.4c0-0.1,0-0.2,0-0.3c0-0.1,0-0.2,0-0.3c0-0.1,0-0.2,0-0.4
			c0-0.1,0-0.3,0-0.4c0-0.3,0-0.6,0.1-1c0-0.3,0.1-0.7,0.2-1.1c0-0.2,0.1-0.4,0.1-0.6c0-0.2,0.1-0.4,0.1-0.6
			c0.1-0.4,0.2-0.8,0.3-1.1c0.1-0.4,0.3-0.8,0.4-1.1c0.1-0.4,0.3-0.7,0.4-1.1c0.3-0.7,0.6-1.3,0.8-1.8c0.3-0.5,0.5-1,0.7-1.3
			C5.2,9.6,5.4,9.4,5.4,9.4z"/>
		<path class="st7" d="M5.9,9.9c0,0-0.1,0.2-0.1,0.5c-0.1,0.3-0.2,0.8-0.4,1.3c-0.2,0.6-0.3,1.2-0.5,1.9c-0.1,0.3-0.2,0.7-0.3,1.1
			c-0.1,0.4-0.2,0.7-0.3,1.1c-0.1,0.4-0.2,0.7-0.2,1.1C4.1,17.3,4,17.7,4,18.1c-0.1,0.4-0.1,0.7-0.1,1c0,0.3-0.1,0.6-0.1,0.9
			c0,0.1,0,0.3,0,0.4c0,0.1,0,0.3,0,0.4c0,0.1,0,0.2,0,0.3c0,0.1,0,0.2,0,0.3c0,0.2,0,0.3,0,0.4c0,0.1,0,0.1,0,0.1s0,0,0-0.1
			c0-0.1-0.1-0.2-0.1-0.4c0-0.1,0-0.2,0-0.3c0-0.1,0-0.2,0-0.3c0-0.2,0-0.5,0-0.8c0-0.3,0-0.6,0-0.9c0-0.3,0-0.7,0.1-1
			c0-0.2,0-0.4,0.1-0.5c0-0.2,0.1-0.4,0.1-0.6C3.9,16.5,4,16.2,4,15.8c0.1-0.4,0.2-0.8,0.3-1.1c0.1-0.4,0.2-0.7,0.3-1.1
			c0.2-0.7,0.4-1.3,0.6-1.9c0.2-0.5,0.4-1,0.5-1.3C5.9,10.1,5.9,9.9,5.9,9.9z"/>
		<path class="st7" d="M6.4,10.2c0,0,0,0.2,0,0.5c0,0.3-0.1,0.8-0.1,1.4c-0.1,1.1-0.2,2.7-0.3,4.2c0,0.4-0.1,0.8-0.1,1.1
			c0,0.4-0.1,0.7-0.1,1.1c0,0.4,0,0.7-0.1,1c0,0.3,0,0.6,0,0.9c0,0.3,0,0.5,0,0.8c0,0.2,0,0.4,0,0.6c0,0.3,0,0.5,0,0.5
			s0-0.2-0.1-0.5c0-0.2,0-0.4-0.1-0.6c0-0.2,0-0.5-0.1-0.8c0-0.3,0-0.6,0-0.9c0-0.3,0-0.7,0-1c0-0.7,0.1-1.5,0.1-2.2
			c0-0.4,0.1-0.8,0.1-1.1c0-0.4,0.1-0.7,0.1-1.1c0.1-0.7,0.2-1.4,0.3-1.9c0.1-0.6,0.2-1,0.2-1.4C6.4,10.4,6.4,10.2,6.4,10.2z"/>
		<path class="st7" d="M6.8,9.4c0,0,0.1,0.2,0.1,0.5c0.1,0.3,0.2,0.8,0.3,1.4c0.1,0.6,0.2,1.2,0.4,2c0.1,0.4,0.1,0.7,0.2,1.1
			c0,0.4,0.1,0.8,0.1,1.1c0,0.4,0.1,0.8,0.1,1.2c0,0.4,0,0.8,0,1.1c0,0.2,0,0.4,0,0.5c0,0.2,0,0.3,0,0.5c0,0.2,0,0.3,0,0.5
			c0,0.2,0,0.3-0.1,0.5c0,0.3-0.1,0.6-0.2,0.8c0,0.1-0.1,0.2-0.1,0.3c0,0.1-0.1,0.2-0.1,0.3c-0.1,0.2-0.2,0.3-0.2,0.3
			c-0.1,0.1-0.1,0.1-0.1,0.1s0,0,0.1-0.1c0,0,0.1-0.1,0.1-0.1c0-0.1,0.1-0.1,0.1-0.2c0.1-0.2,0.1-0.4,0.2-0.6c0-0.2,0.1-0.5,0.1-0.8
			c0-0.3,0-0.6,0-0.9c0-0.3,0-0.7,0-1c0-0.4,0-0.7-0.1-1.1c0-0.4-0.1-0.8-0.1-1.1c0-0.4-0.1-0.8-0.1-1.1c0-0.4-0.1-0.7-0.1-1.1
			c-0.1-0.7-0.2-1.4-0.2-2C6.9,10.2,6.8,9.4,6.8,9.4z"/>
	</g>
	<path class="st5" d="M8.9,7.2c0,0,9.5,3.7,10.9,7c1.3,3.3-3.1,7-5.3,6.7c-2.2-0.4-3.8-2.3-4.7-4.4c-0.9-2.1-2.6-8.4-2.6-8.4
		L8.9,7.2z"/>
	<g>
		<defs>
			<path id="SVGID_3_" d="M8.9,7.2c0,0,9.5,3.7,10.9,7c1.3,3.3-3.1,7-5.3,6.7c-2.2-0.4-3.8-2.3-4.7-4.4c-0.9-2.1-2.6-8.4-2.6-8.4
				L8.9,7.2z"/>
		</defs>
		<clipPath id="SVGID_4_">
			<use xlink:href="#SVGID_3_"  style="overflow:visible;"/>
		</clipPath>
		<path class="st8" d="M8.4,7.5c0,0,7.9,4.4,8.4,7c0.5,2.7,0.1,5.3-2.3,6.4C12,22,18,21.3,18,21.3s3.2-4.3,3.1-4.4
			c-0.1-0.1-0.4-3.2-0.4-3.2l-10-6.4L9,7.2L8.4,7.5z"/>
	</g>
	<g>
		<path class="st7" d="M9.2,8.2c0,0,0.2,0.1,0.5,0.3C10,8.7,10.4,9,10.9,9.3c0.5,0.3,1.1,0.7,1.7,1.1c0.3,0.2,0.6,0.4,0.9,0.7
			c0.3,0.2,0.6,0.5,0.9,0.7c0.3,0.2,0.6,0.5,0.9,0.7c0.3,0.2,0.6,0.5,0.9,0.7c0.1,0.1,0.3,0.2,0.4,0.4c0.1,0.1,0.3,0.2,0.4,0.4
			c0.1,0.1,0.2,0.2,0.3,0.4c0.1,0.1,0.2,0.2,0.3,0.3c0.1,0.1,0.2,0.2,0.3,0.3c0.1,0.1,0.2,0.2,0.2,0.3c0.1,0.1,0.1,0.2,0.2,0.3
			c0.1,0.1,0.1,0.2,0.2,0.2c0.1,0.1,0.2,0.3,0.2,0.3c0,0.1,0.1,0.1,0.1,0.1s0,0-0.1-0.1c0-0.1-0.1-0.2-0.2-0.4
			c0-0.1-0.1-0.2-0.1-0.3c-0.1-0.1-0.1-0.2-0.2-0.3c-0.1-0.1-0.1-0.2-0.2-0.3c-0.1-0.1-0.2-0.2-0.3-0.3c-0.2-0.2-0.4-0.5-0.6-0.7
			c-0.2-0.3-0.5-0.5-0.7-0.8c-0.1-0.1-0.3-0.3-0.4-0.4c-0.1-0.1-0.3-0.3-0.4-0.4c-0.3-0.3-0.6-0.5-0.9-0.7c-0.3-0.2-0.6-0.5-1-0.7
			c-0.3-0.2-0.6-0.4-0.9-0.6c-0.6-0.4-1.2-0.8-1.7-1c-0.5-0.3-1-0.5-1.3-0.7C9.4,8.3,9.2,8.2,9.2,8.2z"/>
		<path class="st7" d="M9.1,9c0,0,0.1,0.1,0.4,0.3c0.3,0.2,0.6,0.5,1.1,0.9c0.4,0.4,0.9,0.8,1.5,1.3c0.3,0.2,0.5,0.5,0.8,0.7
			c0.3,0.3,0.6,0.5,0.8,0.8c0.3,0.3,0.6,0.5,0.8,0.8c0.3,0.3,0.5,0.5,0.8,0.8c0.2,0.3,0.5,0.5,0.7,0.8c0.2,0.2,0.4,0.5,0.6,0.7
			c0.1,0.1,0.2,0.2,0.2,0.3c0.1,0.1,0.2,0.2,0.2,0.3c0.1,0.1,0.1,0.2,0.2,0.3c0.1,0.1,0.1,0.2,0.1,0.2c0.1,0.1,0.1,0.3,0.2,0.3
			c0,0.1,0.1,0.1,0.1,0.1s0,0,0-0.1c0-0.1-0.1-0.2-0.1-0.4c0-0.1-0.1-0.2-0.1-0.3c0-0.1-0.1-0.2-0.2-0.3c-0.1-0.2-0.2-0.4-0.4-0.7
			c-0.2-0.2-0.3-0.5-0.5-0.8c-0.2-0.3-0.4-0.5-0.7-0.8c-0.1-0.1-0.2-0.3-0.4-0.4c-0.1-0.1-0.3-0.3-0.4-0.4c-0.3-0.3-0.5-0.5-0.8-0.8
			c-0.3-0.3-0.6-0.5-0.9-0.8c-0.3-0.3-0.6-0.5-0.8-0.7c-0.6-0.5-1.1-0.9-1.6-1.2c-0.5-0.3-0.9-0.6-1.1-0.8C9.2,9.1,9.1,9,9.1,9z"/>
		<path class="st7" d="M8.8,9.5c0,0,0.1,0.2,0.3,0.4c0.2,0.3,0.5,0.6,0.9,1.1c0.7,0.9,1.7,2.1,2.6,3.3c0.2,0.3,0.5,0.6,0.7,0.9
			c0.2,0.3,0.5,0.6,0.7,0.9c0.2,0.3,0.4,0.6,0.6,0.8c0.2,0.3,0.4,0.5,0.5,0.7c0.2,0.2,0.3,0.4,0.5,0.6c0.1,0.2,0.2,0.4,0.3,0.5
			c0.2,0.3,0.3,0.5,0.3,0.5S16.2,19,16,18.7c-0.1-0.2-0.2-0.3-0.3-0.5c-0.1-0.2-0.2-0.4-0.4-0.7c-0.1-0.2-0.3-0.5-0.5-0.8
			c-0.2-0.3-0.4-0.6-0.6-0.8c-0.4-0.6-0.9-1.2-1.4-1.8c-0.2-0.3-0.5-0.6-0.7-0.9c-0.2-0.3-0.5-0.6-0.7-0.8c-0.5-0.5-0.9-1-1.3-1.5
			c-0.4-0.4-0.7-0.8-1-1C8.9,9.6,8.8,9.5,8.8,9.5z"/>
		<path class="st7" d="M8,9.1c0,0,0.1,0.2,0.2,0.5c0.1,0.3,0.3,0.8,0.5,1.3C9,11.4,9.2,12,9.5,12.7c0.2,0.3,0.3,0.7,0.5,1
			c0.2,0.3,0.4,0.7,0.5,1c0.2,0.3,0.4,0.7,0.6,1c0.2,0.3,0.4,0.6,0.6,0.9c0.1,0.2,0.2,0.3,0.3,0.4c0.1,0.1,0.2,0.3,0.3,0.4
			c0.1,0.1,0.2,0.3,0.3,0.4c0.1,0.1,0.2,0.2,0.3,0.3c0.2,0.2,0.4,0.4,0.6,0.5c0.1,0.1,0.2,0.1,0.3,0.2c0.1,0.1,0.2,0.1,0.2,0.2
			c0.2,0.1,0.3,0.1,0.4,0.2c0.1,0,0.1,0,0.1,0s0,0-0.1-0.1c0,0-0.1,0-0.1-0.1c-0.1,0-0.1-0.1-0.2-0.1c-0.1-0.1-0.3-0.2-0.5-0.4
			c-0.2-0.2-0.3-0.4-0.5-0.6c-0.2-0.2-0.4-0.5-0.6-0.7c-0.2-0.3-0.4-0.6-0.6-0.9c-0.2-0.3-0.4-0.6-0.6-0.9c-0.2-0.3-0.4-0.7-0.6-1
			c-0.2-0.3-0.4-0.7-0.5-1c-0.2-0.3-0.4-0.7-0.5-1c-0.3-0.6-0.6-1.2-0.9-1.8C8.4,9.7,8,9.1,8,9.1z"/>
	</g>
</g>
</svg>
