<?xml version="1.0" encoding="utf-8"?>
<!-- Generator: Adobe Illustrator 22.0.1, SVG Export Plug-In . SVG Version: 6.00 Build 0)  -->
<svg version="1.1" id="圖層_1" xmlns="http://www.w3.org/2000/svg" xmlns:xlink="http://www.w3.org/1999/xlink" x="0px" y="0px"
	 viewBox="0 0 20 30" style="enable-background:new 0 0 20 30;" xml:space="preserve">
<style type="text/css">
	.st0{fill:#D5CB82;}
	.st1{fill:url(#SVGID_1_);}
	.st2{fill:#E5D9CF;}
	.st3{fill:#EFE7E1;}
	.st4{opacity:0.35;}
	.st5{fill:#E2DEC3;}
</style>
<g>
	<g>
		<path class="st0" d="M12.6,13.8c0.1-0.1,0.5,0,0.7,0.1s0.3,0.6,0.1,0.6c-0.3,0-0.2-0.1-0.5-0.3C12.6,14.2,12.5,14,12.6,13.8z"/>
		<path class="st0" d="M17.7,5.6c0.1-0.1,0.5,0,0.7,0.1s0.3,0.6,0.1,0.6c-0.3,0-0.2-0.1-0.5-0.3C17.7,5.9,17.5,5.8,17.7,5.6z"/>
		<path class="st0" d="M18.6,3.8c0.1-0.1,0.5,0,0.7,0.1c0.3,0.2,0.3,0.6,0.1,0.6c-0.3,0-0.2-0.1-0.5-0.3S18.4,4,18.6,3.8z"/>
		<path class="st0" d="M10.7,16.5c0.1-0.1,0.5,0.1,0.7,0.3c0.2,0.3,0.2,0.7-0.1,0.6s-0.2-0.1-0.4-0.4C10.6,16.9,10.5,16.7,10.7,16.5
			z"/>
		<path class="st0" d="M8.3,19.6c0.1-0.1,0.5,0.1,0.7,0.3c0.2,0.3,0.2,0.7-0.1,0.6s-0.2-0.1-0.4-0.4C8.2,20,8.2,19.8,8.3,19.6z"/>
		<path class="st0" d="M6,22.6c0.1-0.1,0.5,0.1,0.7,0.3c0.2,0.3,0.2,0.7-0.1,0.6s-0.2-0.1-0.4-0.4C5.9,22.9,5.8,22.8,6,22.6z"/>
	</g>
	
		<linearGradient id="SVGID_1_" gradientUnits="userSpaceOnUse" x1="243.2689" y1="-1785.1434" x2="270.5081" y2="-1791.92" gradientTransform="matrix(0.7376 -0.6752 0.6752 0.7376 1026.8556 1509.7333)">
		<stop  offset="0" style="stop-color:#BAC67C"/>
		<stop  offset="0.6786" style="stop-color:#56653B"/>
		<stop  offset="0.9983" style="stop-color:#D5CB82"/>
	</linearGradient>
	<path class="st1" d="M0.1,29c-0.1-1-0.5-2.8,1.5-5.2s7.8-9.4,9-11.3s6.8-10.6,7.5-11.2c0.8-0.6,1.5-0.4,1.7,0.2
		c0.2,0.6-0.3,2.4-1.7,4.7c-1.4,2.3-5.6,9.2-7.4,11.2s-5.6,7.3-7,8.6c-1.3,1.3-2.2,2.4-2.3,3S0.3,29.9,0.1,29z"/>
	<g>
		<ellipse transform="matrix(0.3063 -0.9519 0.9519 0.3063 12.5546 19.0675)" class="st2" cx="19.4" cy="0.9" rx="0.4" ry="0.6"/>
		<ellipse transform="matrix(0.7116 -0.7026 0.7026 0.7116 4.7862 13.6364)" class="st3" cx="19" cy="1" rx="0.1" ry="0.2"/>
	</g>
	<g class="st4">
		<g>
			<g>
				<path class="st5" d="M17.1,2.9c0.1,0.4,0.2,0.6,0.5,0.8c0,0,0.1,0,0-0.1C17.4,3.5,17.2,3.3,17.1,2.9C17.2,2.9,17.1,2.9,17.1,2.9
					L17.1,2.9z"/>
			</g>
		</g>
		<g>
			<g>
				<path class="st5" d="M16.7,3.7C16.8,3.8,16.9,3.9,17,4c0,0,0.1,0,0,0C16.9,3.9,16.9,3.8,16.7,3.7C16.8,3.6,16.7,3.6,16.7,3.7
					L16.7,3.7z"/>
			</g>
		</g>
		<g>
			<g>
				<path class="st5" d="M15.7,5c0.2,0.3,0.4,0.6,0.6,0.8c0,0,0.1,0,0,0C16.1,5.5,15.9,5.3,15.7,5C15.7,4.9,15.6,5,15.7,5L15.7,5z"
					/>
			</g>
		</g>
		<g>
			<g>
				<path class="st5" d="M14.5,7c0,0.3,0.1,0.5,0.3,0.7c0,0,0.1,0,0,0C14.6,7.5,14.5,7.3,14.5,7C14.5,7,14.4,7,14.5,7L14.5,7z"/>
			</g>
		</g>
		<g>
			<g>
				<path class="st5" d="M13.2,9c0.2,0.3,0.3,0.5,0.6,0.7c0,0,0.1,0,0,0C13.6,9.5,13.4,9.2,13.2,9C13.2,8.9,13.2,8.9,13.2,9L13.2,9z
					"/>
			</g>
		</g>
		<g>
			<g>
				<path class="st5" d="M12.1,10.5c0.1,0.4,0.2,0.7,0.5,0.9c0,0,0.1,0,0,0C12.4,11.1,12.2,10.8,12.1,10.5
					C12.1,10.4,12.1,10.4,12.1,10.5L12.1,10.5z"/>
			</g>
		</g>
		<g>
			<g>
				<path class="st5" d="M11,12.4c0.1,0.3,0.2,0.5,0.5,0.7c0,0,0.1,0,0,0C11.3,12.9,11.1,12.6,11,12.4C11,12.4,11,12.4,11,12.4
					L11,12.4z"/>
			</g>
		</g>
		<g>
			<g>
				<path class="st5" d="M9.5,14.6c0.1,0.1,0.2,0.3,0.3,0.4c0,0,0.1,0,0,0C9.8,14.8,9.7,14.7,9.5,14.6C9.5,14.5,9.5,14.6,9.5,14.6
					L9.5,14.6z"/>
			</g>
		</g>
		<g>
			<g>
				<path class="st5" d="M8,16.4c0,0.4,0.2,0.6,0.4,0.9c0,0,0.1,0,0.1,0C8.2,17,8.1,16.7,8,16.4C8.1,16.3,8,16.3,8,16.4L8,16.4z"/>
			</g>
		</g>
		<g>
			<g>
				<path class="st5" d="M6.3,18.4c0.1,0.3,0.2,0.6,0.4,0.9c0,0,0.1,0,0,0C6.6,19,6.5,18.7,6.3,18.4C6.4,18.3,6.3,18.3,6.3,18.4
					L6.3,18.4z"/>
			</g>
		</g>
		<g>
			<g>
				<path class="st5" d="M4.8,20.2c0.1,0.2,0.2,0.3,0.3,0.5c0,0,0.1,0,0,0C5.1,20.5,5,20.4,4.8,20.2C4.9,20.2,4.8,20.2,4.8,20.2
					L4.8,20.2z"/>
			</g>
		</g>
		<g>
			<g>
				<path class="st5" d="M2.3,23.3c0.1,0.2,0.2,0.3,0.3,0.5c0,0,0.1,0,0,0C2.5,23.7,2.4,23.5,2.3,23.3C2.3,23.3,2.3,23.3,2.3,23.3
					L2.3,23.3z"/>
			</g>
		</g>
		<g>
			<g>
				<path class="st5" d="M1.9,24C1.9,24.1,2,24.1,2,24.2c0,0,0.1,0,0.1,0C2,24.1,2,24,1.9,24C1.9,23.9,1.8,24,1.9,24L1.9,24z"/>
			</g>
		</g>
		<g>
			<g>
				<path class="st5" d="M1.5,24.4c0.1,0.1,0.2,0.2,0.3,0.3c0,0,0.1,0,0-0.1C1.7,24.5,1.6,24.4,1.5,24.4C1.5,24.3,1.4,24.3,1.5,24.4
					L1.5,24.4z"/>
			</g>
		</g>
		<g>
			<g>
				<path class="st5" d="M0.9,25.4c0.1,0.2,0.2,0.3,0.4,0.4c0,0,0.1,0,0-0.1C1.2,25.6,1,25.4,0.9,25.4C0.9,25.3,0.8,25.3,0.9,25.4
					L0.9,25.4z"/>
			</g>
		</g>
	</g>
</g>
</svg>
