<?xml version="1.0" encoding="utf-8"?>
<!-- Generator: Adobe Illustrator 22.0.1, SVG Export Plug-In . SVG Version: 6.00 Build 0)  -->
<svg version="1.1" id="圖層_1" xmlns="http://www.w3.org/2000/svg" xmlns:xlink="http://www.w3.org/1999/xlink" x="0px" y="0px"
	 viewBox="0 0 20 40" style="enable-background:new 0 0 20 40;" xml:space="preserve">
<style type="text/css">
	.st0{fill:#CBD8CA;}
	.st1{clip-path:url(#SVGID_2_);fill:#EFF1E8;}
	.st2{clip-path:url(#SVGID_4_);fill:#7C89A0;}
	.st3{fill:#C3AD97;}
	.st4{fill:#D3BDAE;}
</style>
<g>
	<path class="st0" d="M0.4,39c-0.4-1.1-1.1-3.3,0.9-6.6S9,19.5,10.2,17s6.3-14.1,7.1-15s1.7-0.8,2.1-0.1c0.4,0.6,0.1,3-1.1,6.1
		C17,11,13.2,20.1,11.4,23s-5.5,9.8-6.9,11.7s-2.2,3.3-2.3,4.1S0.8,40,0.4,39z"/>
	<g>
		<defs>
			<path id="SVGID_1_" d="M0.4,39c-0.4-1.1-1.1-3.3,0.9-6.6S9,19.5,10.2,17s6.3-14.1,7.1-15s1.7-0.8,2.1-0.1c0.4,0.6,0.1,3-1.1,6.1
				C17,11,13.2,20.1,11.4,23s-5.5,9.8-6.9,11.7s-2.2,3.3-2.3,4.1S0.8,40,0.4,39z"/>
		</defs>
		<clipPath id="SVGID_2_">
			<use xlink:href="#SVGID_1_"  style="overflow:visible;"/>
		</clipPath>
		<path class="st1" d="M2.3,38.7c0,0-0.8-1.8-0.2-2.9s3.5-5.9,5.6-9.5s5-10,6.6-13.1S17.8,5,17.8,5s1.3-2.8,1.6-3.1s-1.2-1-1.2-1
			l-3,1.3L6.1,20.9l-7.5,15.7l1.5,3.8l2.4-0.5L2.3,38.7z"/>
	</g>
	<g>
		<defs>
			<path id="SVGID_3_" d="M0.4,39c-0.4-1.1-1.1-3.3,0.9-6.6S9,19.5,10.2,17s6.3-14.1,7.1-15s1.7-0.8,2.1-0.1c0.4,0.6,0.1,3-1.1,6.1
				C17,11,13.2,20.1,11.4,23s-5.5,9.8-6.9,11.7s-2.2,3.3-2.3,4.1S0.8,40,0.4,39z"/>
		</defs>
		<clipPath id="SVGID_4_">
			<use xlink:href="#SVGID_3_"  style="overflow:visible;"/>
		</clipPath>
		<path class="st2" d="M1,39.5c0,0,0.5-0.8,0.3-1.7c-0.2-0.9-0.1-2.4,1-4.2s4.4-7.9,5.3-9.2c0.9-1.3,4.7-9.1,5.7-10.9s3-7.6,3.9-9
			c0.9-1.3,2.3-2.7,2.3-2.7l-1.2-1.5l-2.7,3L7.1,21.1l-7.9,14.3l0,4.3L1,39.5z"/>
	</g>
	<g>
		<path class="st0" d="M12.8,18.3c0-0.1,0.5-0.1,0.9,0c0.4,0.2,0.5,0.7,0.2,0.8c-0.3,0.1-0.3-0.1-0.7-0.2
			C12.9,18.8,12.7,18.6,12.8,18.3z"/>
		<path class="st0" d="M17.4,7.3c0-0.1,0.5-0.1,0.9,0c0.4,0.2,0.5,0.7,0.2,0.8c-0.3,0.1-0.3-0.1-0.7-0.2C17.5,7.8,17.3,7.6,17.4,7.3
			z"/>
		<path class="st0" d="M18.2,5c0-0.1,0.5-0.1,0.9,0c0.4,0.2,0.5,0.7,0.2,0.8C19,6,19,5.8,18.6,5.6C18.2,5.5,18.1,5.3,18.2,5z"/>
		<path class="st0" d="M11,21.9c0.1-0.1,0.6,0,0.9,0.2c0.3,0.3,0.3,0.8,0,0.8c-0.3,0-0.3-0.1-0.6-0.4S10.8,22.2,11,21.9z"/>
		<path class="st0" d="M8.7,26.1c0.1-0.1,0.6,0,0.9,0.2c0.3,0.3,0.3,0.8,0,0.8c-0.3,0-0.3-0.1-0.6-0.4C8.6,26.6,8.5,26.4,8.7,26.1z"
			/>
		<path class="st0" d="M6.3,30.2c0.1-0.1,0.6,0,0.9,0.2c0.3,0.3,0.3,0.8,0,0.8c-0.3,0-0.3-0.1-0.6-0.4C6.3,30.6,6.2,30.4,6.3,30.2z"
			/>
	</g>
	<ellipse transform="matrix(0.4 -0.9165 0.9165 0.4 10.0865 18.104)" class="st3" cx="18.9" cy="1.3" rx="0.9" ry="1.2"/>
	<ellipse transform="matrix(0.7783 -0.6279 0.6279 0.7783 3.1412 11.7202)" class="st4" cx="18.2" cy="1.4" rx="0.3" ry="0.4"/>
</g>
</svg>
