<?xml version="1.0" encoding="utf-8"?>
<!-- Generator: Adobe Illustrator 22.0.1, SVG Export Plug-In . SVG Version: 6.00 Build 0)  -->
<svg version="1.1" id="圖層_1" xmlns="http://www.w3.org/2000/svg" xmlns:xlink="http://www.w3.org/1999/xlink" x="0px" y="0px"
	 viewBox="0 0 20 20" style="enable-background:new 0 0 20 20;" xml:space="preserve">
<style type="text/css">
	.st0{fill:#BBBCAF;}
	.st1{fill:#D3D3CD;}
	.st2{fill:#ADAD9F;}
	.st3{fill:#524A40;}
	.st4{fill:#A5A4A0;}
	.st5{fill:#BEBCB5;}
	.st6{fill:#736D6E;}
	.st7{fill:#80756B;}
</style>
<g>
	<g>
		<path class="st0" d="M7.8,6.9c0,0-0.2,0.8-0.5,0.8c-0.1,0-0.2-0.2-0.4-0.3C6.7,7.2,6.5,6.9,6.5,6.7c0-0.1,0-0.2,0-0.4
			c0-0.7,0.2-1.9,0.2-2c0,0,0-0.1-0.1-0.1c-0.4-0.4-1.9-1.6-2-1.8c-0.1-0.2,0-0.4,0.2-0.2C5,2.5,5.9,3.2,6.5,3.7
			C6.8,3.9,7,4.1,7.1,4.3c0.3,0.4-0.2,1.6-0.3,2.1c0,0.1,0,0.1,0,0.1c0,0.2,0.2,0.2,0.4,0.3C7.3,6.8,7.6,6.8,7.8,6.9z"/>
		<path class="st1" d="M6.5,4.3c-0.4-0.4-1.9-1.6-2-1.8c-0.1-0.2,0-0.4,0.2-0.2C5,2.5,5.9,3.2,6.5,3.7C6.6,3.9,6.5,4.1,6.5,4.3z"/>
	</g>
	<g>
		<path class="st2" d="M5.3,8.8c0.1,0,0.1,0,0.1,0C5.7,8.8,6,9.4,6.2,9.2c0.2-0.1,0.5-0.5,0.5-0.5C6.5,8.5,6.4,8.1,6,8.2
			c-0.1,0-0.3,0.1-0.5,0.2C5.4,8.5,5.4,8.7,5.3,8.8z"/>
		<g>
			<path class="st0" d="M2.9,8.9c0,0,0,0.1-0.1,0.2c0,0.1,0,0.2,0.1,0.2c0.1,0,0.1,0,0.2,0c0.2,0,0.4,0.1,0.4,0.1l0,0c0,0,0,0,0,0
				s0.2,0.7,0.7,0.3c0.4-0.4,0.8-0.7,1.1-0.8c0.1,0,0.1,0,0.1,0C5.7,8.8,6,9.4,6.2,9.2c0.2-0.1,0.5-0.5,0.5-0.5
				C6.5,8.5,6.4,8.1,6,8.2c-0.1,0-0.3,0.1-0.5,0.2C5,8.6,4.4,8.8,4.1,8.9c-0.1,0-0.2,0-0.3,0c0,0,0,0,0,0C3.6,8.8,3.3,8.4,3.2,8.5
				C3,8.6,2.8,8.4,2.8,8.4S1.4,7.3,1.3,7.6C1.1,7.8,2.9,8.9,2.9,8.9z"/>
			<path class="st1" d="M2.9,8.9c0,0,0,0.1-0.1,0.2c0,0.1,0,0.2,0.1,0.2c0.1,0,0.1,0,0.2,0c0.2,0,0.4,0.1,0.4,0.1
				C3.7,9.2,3.8,9,3.8,8.9C3.6,8.8,3.3,8.4,3.2,8.5C3,8.6,2.8,8.4,2.8,8.4S1.4,7.3,1.3,7.6C1.1,7.8,2.9,8.9,2.9,8.9z"/>
		</g>
	</g>
	<g>
		<path class="st0" d="M4,13.3c0,0.1,0,0.1-0.1,0.3c0,0.4,0.3,1,0.1,1.6c-0.1,0.5-0.4,0.6-1.2,0.8c-0.1,0-0.2,0.1-0.4,0.1
			c-0.8,0.2-1.5,0.5-1.6,0.3c-0.2-0.4,1.8-1,2.2-1.2c0,0,0,0,0,0c0.4-0.2,0.1-0.6,0-1.2c0-0.5,0.3-0.8,0.6-1C3.9,12.8,4,12.8,4,12.7
			c0.1-0.3,1-0.6,1.5-0.8l-0.1,0.9c0,0-0.3,0.2-0.8,0.4c-0.4,0.1-0.5,0-0.5,0S4.1,13.2,4,13.3z"/>
		<path class="st1" d="M3.1,15.6c0,0.2-0.1,0.3-0.2,0.4c-0.1,0-0.2,0.1-0.4,0.1c-0.8,0.2-1.5,0.5-1.6,0.3c-0.2-0.4,1.8-1,2.2-1.2
			c0,0,0,0,0,0C3.1,15.3,3.1,15.4,3.1,15.6z"/>
		<path class="st2" d="M5.4,12.7c0,0-0.3,0.2-0.8,0.4c0,0-0.1,0-0.1,0c-0.3,0.1-0.4,0-0.4,0s-0.1,0-0.1,0.2
			c-0.1-0.1-0.1-0.3-0.2-0.4C3.9,12.8,4,12.8,4,12.7c0-0.1,0.2-0.2,0.3-0.3c0.3-0.2,0.9-0.4,1.2-0.5L5.4,12.7z"/>
		<path class="st2" d="M4.5,13.1c-0.3,0.1-0.4,0-0.4,0s-0.1,0-0.1,0.2c-0.1-0.1-0.1-0.3-0.2-0.4C3.9,12.8,4,12.8,4,12.7
			c0-0.1,0.2-0.2,0.3-0.3C4.5,12.6,4.5,12.9,4.5,13.1z"/>
	</g>
	<g>
		<path class="st0" d="M14.4,8.3c0,0-0.2,0.9,0,0.9c0.1,0,0.3,0,0.5-0.1c0.2-0.1,0.5-0.3,0.6-0.4c0,0,0.1-0.2,0.2-0.3
			c0.3-0.6,0.7-1.8,0.7-1.9c0,0,0,0,0.1-0.1c0.5-0.2,2.2-0.7,2.3-0.7C19,5.6,19,5.4,18.8,5.4c-0.2,0.1-1.3,0.3-2,0.5
			c-0.3,0.1-0.5,0.2-0.7,0.2c-0.4,0.2-0.6,1.5-0.7,2c0,0.1,0,0.1,0,0.1c-0.1,0.2-0.2,0.1-0.4,0.1C14.8,8.3,14.6,8.3,14.4,8.3z"/>
		<path class="st1" d="M16.6,6.4c0.5-0.2,2.2-0.7,2.3-0.7C19,5.6,19,5.4,18.8,5.4c-0.2,0.1-1.3,0.3-2,0.5
			C16.7,6.1,16.6,6.3,16.6,6.4z"/>
	</g>
	<g>
		<path class="st0" d="M17.3,12.3c0,0,0,0.1,0,0.2c0,0.1-0.1,0.1-0.2,0.1c0,0-0.1,0-0.2-0.1c-0.1-0.1-0.3-0.1-0.3-0.1l0,0
			c0,0,0,0,0,0s-0.5,0.6-0.6,0c-0.2-0.5-0.3-1-0.5-1.2c0,0-0.1-0.1-0.1-0.1c-0.2,0-0.7,0.3-0.8,0.1c-0.1-0.2-0.1-0.7-0.1-0.7
			c0.2-0.1,0.5-0.4,0.8-0.1c0.1,0.1,0.2,0.2,0.3,0.4c0.3,0.4,0.6,0.9,0.8,1.1c0.1,0.1,0.1,0.1,0.2,0.1c0,0,0,0,0,0
			c0.3,0,0.6-0.2,0.7-0.1c0.1,0.2,0.3,0.1,0.3,0.1s1.6-0.4,1.6-0.1C19.1,12.1,17.3,12.3,17.3,12.3z"/>
		<path class="st2" d="M15.5,11.1C15.4,11.1,15.4,11,15.5,11.1c-0.3-0.1-0.8,0.2-0.8,0c-0.1-0.2-0.1-0.7-0.1-0.7
			c0.2-0.1,0.5-0.4,0.8-0.1c0.1,0.1,0.2,0.2,0.3,0.4C15.5,10.8,15.5,11,15.5,11.1z"/>
		<path class="st1" d="M17.3,12.3c0,0,0,0.1,0,0.2c0,0.1-0.1,0.1-0.2,0.1c0,0-0.1,0-0.2-0.1c-0.1-0.1-0.3-0.1-0.3-0.1
			c0-0.2,0-0.4,0-0.5c0.3,0,0.6-0.2,0.7-0.1c0.1,0.2,0.3,0.1,0.3,0.1s1.6-0.4,1.6-0.1C19.1,12.1,17.3,12.3,17.3,12.3z"/>
	</g>
	<g>
		<path class="st0" d="M14.4,15.9c0,0.1,0,0.2-0.1,0.3c-0.1,0.4-0.6,0.8-0.8,1.4c-0.1,0.6,0.1,0.7,0.5,1.2c0.1,0.1,0.2,0.2,0.2,0.3
			c0.5,0.6,0.9,1.1,1.1,0.9c0.3-0.3-0.9-1.7-1.2-2.1c0,0,0,0,0,0c-0.2-0.3,0.2-0.5,0.5-1.1c0.2-0.4,0.1-0.8,0-1.1
			c0-0.1-0.1-0.2-0.1-0.3c0-0.3-0.5-1-0.8-1.4l-0.3,0.9c0,0,0.2,0.4,0.4,0.7c0.3,0.3,0.4,0.3,0.4,0.3S14.5,15.7,14.4,15.9z"/>
		<path class="st1" d="M14.1,18.3c0,0.2,0,0.3,0,0.5c0.1,0.1,0.2,0.2,0.2,0.3c0.5,0.6,0.9,1.1,1.1,0.9c0.3-0.3-0.9-1.7-1.2-2.1
			c0,0,0,0,0,0C14.2,18,14.2,18.1,14.1,18.3z"/>
		<path class="st2" d="M13.6,14.7c0,0,0.2,0.4,0.4,0.7c0,0,0.1,0.1,0.1,0.1c0.2,0.2,0.3,0.2,0.3,0.2s0,0.1,0,0.2
			c0.1-0.1,0.2-0.2,0.4-0.3c0-0.1-0.1-0.2-0.1-0.3c0-0.1,0-0.2-0.1-0.4c-0.2-0.3-0.5-0.8-0.7-1L13.6,14.7z"/>
		<path class="st2" d="M14.1,15.4c0.2,0.2,0.3,0.2,0.3,0.2s0,0.1,0,0.2c0.1-0.1,0.2-0.2,0.4-0.3c0-0.1-0.1-0.2-0.1-0.3
			c0-0.1,0-0.2-0.1-0.4C14.4,15,14.3,15.2,14.1,15.4z"/>
	</g>
	<path class="st3" d="M15.3,11.5L13.8,16c-0.3,0.8-0.8,1.5-1.4,2c-0.3,0.2-0.6,0.4-1,0.6c-0.3,0.1-0.6,0.2-0.9,0.3
		C10.2,19,10,19,9.9,19c-0.2,0-0.4,0-0.6,0c-0.1,0-0.2,0-0.4,0c-0.1,0-0.3,0-0.4-0.1c0,0-0.1,0-0.1,0l-0.1,0c0,0-0.1,0-0.1,0
		c-0.1,0-0.3-0.1-0.4-0.1c-0.1,0-0.2-0.1-0.3-0.1c-0.2-0.1-0.4-0.2-0.6-0.3c-0.2-0.1-0.3-0.2-0.5-0.4c-0.2-0.2-0.5-0.5-0.7-0.7
		c-0.2-0.3-0.4-0.7-0.6-1c-0.3-0.7-0.4-1.6-0.3-2.4l0.8-4.7c0.1-0.8,0.6-1.5,1.3-1.8c0.1,0,0.2-0.1,0.3-0.1C7.6,6.9,8.1,6.9,8.5,7
		l5.2,1.3c0.5,0.1,1,0.5,1.3,0.9c0,0,0,0,0,0C15.4,9.9,15.5,10.8,15.3,11.5z"/>
	<path class="st4" d="M11,4.3c0-0.5-2.6-3.2-3.2-4C7.3-0.3,6.6,0,7.2,0.7c0.7,0.7,3.3,3.3,3.4,3.5C10.6,4.4,11,4.3,11,4.3z"/>
	<path class="st4" d="M12.4,4.7c0.3-0.4,3.8-1.6,4.7-2c0.8-0.3,1.3,0.3,0.4,0.5c-0.9,0.3-4.5,1.3-4.6,1.5
		C12.8,4.9,12.4,4.7,12.4,4.7z"/>
	<path class="st5" d="M13.3,5.4c0,0.1,0,0.1-0.1,0.2c0,0,0,0,0,0c-0.2,0.4-1,0.5-1.7,0.3c-0.8-0.2-1.3-0.7-1.3-1.1
		c0-0.1,0-0.1,0-0.2c0-0.2,0.2-0.3,0.4-0.4l0,0C10.9,4,11.5,3.9,12,4.1c0.5,0.1,1,0.4,1.2,0.7C13.3,5,13.4,5.2,13.3,5.4z"/>
	<path class="st6" d="M10.2,8.1L8.1,18.8c0,0,0.1,0,0.1,0l0,0l0,0l0,0c0,0,0.1,0,0.1,0l3.2-10.4L10.2,8.1z"/>
	<path class="st6" d="M15.1,9.3L15.1,9.3l-4.5,0.1L6.9,7.2c0.1,0,0.2-0.1,0.3-0.1L15,9.2L15.1,9.3z"/>
	<path class="st7" d="M15,9.2c0.5-1.9-1-3.9-3.2-4.4S7.4,5.3,6.9,7.2c0,0.1,3.8,1.9,3.8,1.9S15,9.3,15,9.2z"/>
	<g>
		<path class="st3" d="M8.5,5.7c-0.3,0-0.8,0.8-0.4,1c0.4,0.2,0.5-0.1,0.6-0.4C9,5.8,8.6,5.7,8.5,5.7z"/>
		<path class="st3" d="M9.3,7c0.5,0,0.9,0.1,0.9,0.3c0,0.2-1.6,0.1-1.7-0.1C8.4,7,9.1,7,9.3,7z"/>
		<path class="st3" d="M12.1,5.4c0.2-0.1,1.7,0.6,1.6,0.9c0,0.3-0.5,0-0.9-0.2C11.8,5.6,12,5.5,12.1,5.4z"/>
		<path class="st3" d="M14.3,7.2c0.3,0.1,0.3,1.1-0.2,1.1c-0.5-0.1-0.4-0.4-0.3-0.6C13.8,7,14.1,7.1,14.3,7.2z"/>
		<path class="st3" d="M13,7.9c-0.4-0.2-0.9-0.4-1-0.1c-0.1,0.2,1.4,0.8,1.6,0.7C13.7,8.3,13.2,8,13,7.9z"/>
		<circle class="st3" cx="11" cy="8.1" r="0.3"/>
	</g>
</g>
</svg>
