<?xml version="1.0" encoding="utf-8"?>
<!-- Generator: Adobe Illustrator 22.0.1, SVG Export Plug-In . SVG Version: 6.00 Build 0)  -->
<svg version="1.1" id="圖層_1" xmlns="http://www.w3.org/2000/svg" xmlns:xlink="http://www.w3.org/1999/xlink" x="0px" y="0px"
	 viewBox="0 0 30 30" style="enable-background:new 0 0 30 30;" xml:space="preserve">
<style type="text/css">
	.st0{fill:#F0DFEE;}
	.st1{fill:#EBCEE7;}
	.st2{fill:#B84091;}
	.st3{fill:#F095D2;}
	.st4{fill:#C773AC;}
	.st5{fill:#FFEDFD;}
	.st6{fill:#3B2C2C;}
	.st7{fill:#6B5050;}
	.st8{fill:#1F1717;}
</style>
<g>
	<g>
		<path class="st0" d="M13.4,16.2c0,0-3.8,7.2-2.7,11c1.2,3.8,6.4,3.1,6.9,1.4c0.5-1.7-1-9.3-1-9.3L13.4,16.2z"/>
		<path class="st1" d="M10.5,24.8c2.4-3,3-6.8,3.2-8.3l-0.3-0.3C13.4,16.2,10.8,21,10.5,24.8z"/>
		<path class="st2" d="M13.9,28.6c-2.1-0.2-3-2.5-3.4-4c-0.1,0.9-0.1,1.8,0.2,2.6c1.2,3.8,6.4,3.1,6.9,1.4c0.1-0.3,0.1-0.8,0.1-1.5
			C16.9,27.9,15.7,28.8,13.9,28.6z"/>
		<path class="st3" d="M14.4,25.7c0.4,0.1,0.7,0.5,0.6,0.9c-0.1,0.4-0.5,0.7-0.9,0.6c-0.4-0.1-0.7-0.5-0.6-0.9
			C13.5,25.8,13.9,25.6,14.4,25.7z"/>
	</g>
	<g>
		<path class="st2" d="M11.9,13.6c0,0-10.6,2.3-11.7,4.4c-1.1,2.1,3.5,7.6,5.7,8.1c2.2,0.6,5.4,0,7.5-9.9L11.9,13.6z"/>
		<path class="st4" d="M11.9,13.6c0,0-10.6,2.3-11.7,4.4C0,18.3,0,18.7,0,19.1c0.4-0.8,0.9-1,2.6-2c1.7-1,8-2.6,9.6-3L11.9,13.6z"/>
		<path class="st0" d="M10,24.7c1.2-1.4,2.4-4,3.4-8.5l-1.5-2.6c0,0-6.8,1.5-10.1,3.1c0,1,0.3,2.5,1.3,4.3
			C4.9,24.5,6.8,25.1,10,24.7z"/>
		<path class="st5" d="M11.8,13.6C11.8,13.6,11.8,13.6,11.8,13.6C11.8,13.6,11.7,13.6,11.8,13.6c-0.1,0-0.1,0-0.1,0
			c-1.1,0.3-6.9,1.6-9.9,3.1c0,0.3,0,0.5,0.1,0.9c0.2-0.1,0.5-0.3,0.7-0.4c1.7-1,8-2.6,9.6-3L11.8,13.6
			C11.9,13.6,11.8,13.6,11.8,13.6C11.8,13.6,11.8,13.6,11.8,13.6z"/>
		<ellipse transform="matrix(0.9863 -0.1652 0.1652 0.9863 -2.9995 1.036)" class="st3" cx="4.7" cy="18.5" rx="1" ry="1.1"/>
	</g>
	<g>
		<path class="st2" d="M14.8,15.2c0,0,8.7-4,12.1-2.8s4.6,5.6,0.9,8C24,22.7,17,19,17,19L14.8,15.2z"/>
		<path class="st0" d="M28.1,15.4c-0.7-1.5-3-2.5-4.7-3c-3.9,0.6-8.7,2.8-8.7,2.8L17,19c0,0,4.5,2.4,8.1,2.2
			C27.7,19.7,29,17.2,28.1,15.4z"/>
		<path class="st1" d="M23.3,12.4c-3.8,0.7-8.5,2.8-8.5,2.8l0.6,0.9C17.2,15.4,20.6,13.8,23.3,12.4z"/>
		<path class="st3" d="M26.9,16.1c0.2,0.4,0,1-0.4,1.1c-0.4,0.2-0.9,0-1.1-0.5c-0.2-0.4,0-1,0.4-1.1C26.2,15.4,26.7,15.7,26.9,16.1z
			"/>
	</g>
	<g>
		<path class="st2" d="M12.5,13c0,0,0.4-11.2,5.5-13c0,0,4.6,0.3,6.3,4.5s0.5,5.5-0.6,6.8c-1.1,1.2-8.8,4.4-8.8,4.4L12.5,13z"/>
		<path class="st4" d="M17.9,0c-5.1,1.8-5.5,13-5.5,13l0.5,0.6c0.1-1.8,0.7-9.4,3.7-12.1c0.7-0.6,1.3-1,1.8-1.4
			C18.2,0,17.9,0,17.9,0z"/>
		<path class="st0" d="M23.3,11.6c0.9-4.7-0.3-7.4-3.1-9.4c-1.5-1.1-3.1-1-4.3-0.8C12.7,5,12.5,13,12.5,13l2.4,2.7
			C14.9,15.7,21.4,13,23.3,11.6z"/>
		<path class="st3" d="M18.7,3.9c0.2,0.6,0,1.3-0.6,1.5c-0.5,0.2-1.2,0-1.4-0.6c-0.2-0.6,0-1.3,0.6-1.5C17.9,3,18.5,3.3,18.7,3.9z"
			/>
		<path class="st5" d="M16.7,1.5c0.1-0.1,0.2-0.1,0.2-0.2c-0.4,0-0.7,0.1-1.1,0.2c-0.1,0.1-0.1,0.2-0.2,0.2c0,0-0.1,0.1-0.1,0.1
			C15.5,1.9,15.5,2,15.4,2c0,0.1-0.1,0.1-0.1,0.2c-0.1,0.1-0.1,0.2-0.2,0.3c0,0.1-0.1,0.1-0.1,0.2c-0.1,0.1-0.1,0.2-0.2,0.3
			c0,0.1-0.1,0.1-0.1,0.2c-0.1,0.1-0.1,0.2-0.2,0.3c0,0,0,0,0,0c-0.1,0.3-0.3,0.5-0.4,0.8c0,0,0,0,0,0.1c0,0.1-0.1,0.2-0.1,0.4
			c0,0.1,0,0.1-0.1,0.2c0,0.1-0.1,0.2-0.1,0.3c0,0.1,0,0.1-0.1,0.2c0,0.1-0.1,0.2-0.1,0.3c0,0.1,0,0.1,0,0.2c0,0.1-0.1,0.2-0.1,0.4
			c0,0,0,0.1,0,0.1c-0.1,0.4-0.2,0.9-0.3,1.3c0,0,0,0.1,0,0.1c0,0.1-0.1,0.2-0.1,0.4c0,0,0,0.1,0,0.1c0,0.1,0,0.2-0.1,0.3
			c0,0,0,0.1,0,0.1c0,0.1,0,0.2-0.1,0.3c0,0,0,0.1,0,0.1c-0.1,0.4-0.1,0.8-0.2,1.1c0,0,0,0,0,0c0,0.1,0,0.2,0,0.3c0,0,0,0.1,0,0.1
			c0,0.1,0,0.2,0,0.3c0,0,0,0.1,0,0.1c0,0.1,0,0.2,0,0.2c0,0,0,0.1,0,0.1c0,0.1,0,0.1,0,0.2c0,0,0,0.1,0,0.1c0,0.2,0,0.4,0,0.6
			c0,0,0,0.1,0,0.1c0,0,0,0.1,0,0.1c0,0,0,0.1,0,0.1c0,0,0,0.1,0,0.1c0,0,0,0.1,0,0.1c0,0,0,0,0,0c0,0,0,0,0,0.1c0,0,0,0,0,0
			c0,0,0,0,0,0l0.5,0.6C13.1,11.8,13.6,4.2,16.7,1.5z"/>
	</g>
	<g>
		<path class="st6" d="M15,15.4c1.6,1.9,2.5,3.7,2.1,4.1c-0.4,0.4-2-0.8-3.5-2.7C12,14.9,11,13,11.4,12.6
			C11.8,12.3,13.4,13.5,15,15.4z"/>
		<g>
			<path class="st7" d="M11.1,11.6c-0.1,0-0.1,0-0.2-0.1c0,0-1.1-2.3-1.9-3C9,8.5,9,8.4,9.1,8.4c0-0.1,0.1-0.1,0.2,0
				c0.9,0.7,1.9,3,2,3.1C11.2,11.5,11.2,11.6,11.1,11.6C11.1,11.6,11.1,11.6,11.1,11.6z"/>
		</g>
		<g>
			<path class="st7" d="M10.4,12.3c0,0-0.1,0-0.1,0c0,0-1.4-1.5-2.5-1.8c-0.1,0-0.1-0.1-0.1-0.2c0-0.1,0.1-0.1,0.2-0.1
				C9,10.5,10.4,12,10.5,12C10.5,12.1,10.5,12.2,10.4,12.3C10.5,12.2,10.5,12.2,10.4,12.3z"/>
		</g>
		<path class="st7" d="M13.5,13.7c-0.5,0.5-0.9,1-1.1,1.4c0.1,0.1,0.1,0.2,0.2,0.3c0.3-0.4,0.6-1,1.2-1.5
			C13.6,13.9,13.5,13.8,13.5,13.7z M16.2,16.9c-0.5,0.4-1,0.9-1.3,1.3c0.1,0.1,0.2,0.2,0.3,0.2c0.3-0.4,0.7-0.9,1.2-1.2
			C16.3,17.2,16.2,17,16.2,16.9z M15,15.4c-0.1-0.1-0.1-0.2-0.2-0.2c-0.6,0.6-0.9,1.3-1.1,1.8c0.1,0.1,0.2,0.2,0.3,0.3
			C14.1,16.7,14.4,16,15,15.4C15,15.4,15,15.4,15,15.4z"/>
		<ellipse class="st8" cx="11.2" cy="12.4" rx="1.2" ry="1.3"/>
	</g>
</g>
</svg>
