<?xml version="1.0" encoding="utf-8"?>
<!-- Generator: Adobe Illustrator 22.0.1, SVG Export Plug-In . SVG Version: 6.00 Build 0)  -->
<svg version="1.1" id="圖層_1" xmlns="http://www.w3.org/2000/svg" xmlns:xlink="http://www.w3.org/1999/xlink" x="0px" y="0px"
	 viewBox="0 0 120 200" style="enable-background:new 0 0 120 200;" xml:space="preserve">
<style type="text/css">
	.st0{fill:none;stroke:#525454;stroke-width:0.5;stroke-miterlimit:10;}
	.st1{fill:#BBBCBC;}
	.st2{fill:#C8CACA;}
	.st3{fill:#D6D7D7;}
	.st4{fill:#E3E5E5;}
	.st5{fill:#FFFFFF;}
	.st6{fill:none;stroke:#DE4F43;stroke-width:0.6985;stroke-miterlimit:10;}
	.st7{fill:#DE4F43;}
	.st8{fill:#FFDE55;}
	.st9{fill:#E5E5E5;}
	.st10{fill:#026DB5;}
	.st11{fill:none;stroke:#026DB5;stroke-width:0.6112;stroke-miterlimit:10;}
</style>
<g>
	<g>
		<line class="st0" x1="17.2" y1="23.3" x2="68.5" y2="2.2"/>
		<line class="st0" x1="118.3" y1="23.3" x2="66.5" y2="2"/>
		<g>
			<rect x="17.2" y="41" class="st1" width="101" height="159"/>
			<polygon class="st2" points="116.5,198.4 15.5,198.4 18.4,39.9 116.5,39.4 			"/>
			<polygon class="st3" points="114.8,196.8 13.8,196.8 19.5,38.8 114.8,37.8 			"/>
			<polygon class="st4" points="113.1,195.2 12,195.2 20.6,37.7 113.1,36.3 			"/>
		</g>
		<polygon class="st5" points="17.2,42 1.7,184 12,193.1 112.1,195.2 118.3,42 		"/>
		<line class="st6" x1="13.6" y1="75.2" x2="116.9" y2="77.3"/>
		<rect x="17.2" y="23.3" class="st7" width="101" height="18.7"/>
		<circle cx="67.8" cy="2.5" r="2.5"/>
		<circle class="st8" cx="22" cy="27.6" r="1.4"/>
		<circle class="st8" cx="22" cy="37.7" r="1.4"/>
		<circle class="st8" cx="113.6" cy="27.6" r="1.4"/>
		<circle class="st8" cx="113.6" cy="37.7" r="1.4"/>
		<path class="st9" d="M2.1,180.6c0,0,9.2,0.3,9.9,1.1c0.8,0.8,2.8,11.4,2.8,11.4h-3.1L1.7,184L2.1,180.6z"/>
		
			<rect x="21.9" y="164.4" transform="matrix(0.9998 2.028866e-02 -2.028866e-02 0.9998 3.5181 -0.5858)" class="st10" width="17.4" height="17.4"/>
		<g>
			<g>
				<path d="M24.4,58.5c0.4-0.7,0.7-1.4,0.9-1.9c0.2-0.5,0.4-0.9,0.4-1.2l0.1-0.6l-1.3,0l-1.4,0l0-2.2l1.4,0.1l1.3,0l0-2.1
					c-1.5,0.2-2.3,0.3-2.3,0.2c-0.1-0.7-0.2-1.3-0.3-1.6l-0.2-0.7c0.6,0.1,1.3,0,2,0c0.8,0,1.5-0.1,2.1-0.2c0.7-0.1,1.5-0.3,2.3-0.7
					c0.1,0.3,0.2,0.5,0.3,0.8c0.1,0.3,0.2,0.4,0.2,0.5l0.2,0.3l1.9,0.1l2.8,0.1l0-1.6l2.4,0l-0.1,1.6l3.3,0.1l1.7,0l0,2.1l-1.7-0.1
					l-3.3-0.1l0,0.7l3.1,0.1l1.3,0l-0.1,1.4l-0.1,3.2l0,1.5l-0.9,0c0.2,0.3,0.3,0.5,0.4,0.7l0.7,1l0.3,0.5c-0.3,0.2-0.9,0.6-1.8,1.3
					c-0.2-0.4-0.4-0.7-0.6-1.2c-0.9,0-2.1,0-3.8,0l-2.6,0c-0.9,0-1.8,0.1-2.8,0.2c0-0.4-0.1-0.6-0.1-0.7l-0.2-0.7
					c-0.1,0.1-0.4,0.3-0.7,0.5c-0.3,0.2-0.5,0.5-0.8,0.7c-0.3-0.6-0.4-1-0.5-1.1l-0.5-0.9L28,64.8l0,2l-2.2,0l0.1-2l0.1-4.6
					c-0.7,0.9-1.2,1.5-1.5,1.8l-1,1.1c-0.1-0.3-0.1-0.4-0.1-0.6c0-0.1-0.3-0.8-0.7-2.2C23.4,59.8,24,59.2,24.4,58.5z M29.3,52.8
					l1.1,0l0,2.2l-1.1-0.1l-1.1,0l0,1.8c0.4-0.2,0.7-0.4,1-0.7c0.2,0.4,0.5,0.9,0.7,1.3c0.2,0.4,0.4,0.7,0.6,1l0.1,0
					c0.4,0.1,0.8,0.1,1.2,0.1c0.4,0,1.5,0.1,3.2,0.1l0-0.6l-2.8-0.1l-1.4,0l0.1-1.6l0.1-3.2l-0.1-1.5l1.8,0.1l2.4,0l0-0.7l-2.8-0.1
					l-1.8,0l0-1.3c-0.4,0.1-1.2,0.3-2.2,0.5l0,2.4L29.3,52.8z M30.5,61.4c0.2,0.1,0.6,0.2,1.4,0.5c-0.2,0.9-0.4,1.5-0.5,1.8
					c-0.1,0.4-0.2,0.8-0.4,1.3s-0.3,0.8-0.3,1l-0.3,0.8c-0.2-0.2-0.5-0.4-0.6-0.6c-0.2-0.2-0.6-0.4-1.3-0.8c0.1-0.2,0.2-0.3,0.3-0.5
					c0.1-0.1,0.2-0.5,0.5-1.1c0.3-0.6,0.4-1.2,0.6-1.9l0.1-0.8C30.1,61.3,30.4,61.4,30.5,61.4z M34.3,61L34.2,62l0,1.8
					c0,0.3,0.1,0.6,0.2,0.7c0.1,0.1,0.5,0.2,1,0.2c1,0,1.5-0.2,1.6-0.7l0.2-0.8c0.3,0.2,0.5,0.3,0.8,0.5c0.2,0.1,0.7,0.3,1.4,0.6
					c-0.2,0.7-0.4,1.3-0.5,1.6c-0.2,0.4-0.3,0.6-0.6,0.8c-0.2,0.1-0.5,0.2-0.9,0.2c-0.4,0-0.9,0-1.7,0c-1.1,0-2-0.1-2.7-0.2
					c-0.6-0.2-1-0.6-1-1.2l0.1-3.4l0-1.1L34.3,61z M35,56.3l0-0.6l-2,0l0,0.6L35,56.3z M33,54.2l2,0l0-0.7l-2,0L33,54.2z M36.1,63.5
					l-0.3,0.3c-0.5-1.1-0.9-1.7-1.1-2l-0.4-0.5c0.8-0.3,1.4-0.6,1.8-0.9c0.1,0.2,0.4,0.6,0.7,1.1c0.3,0.5,0.6,0.9,0.8,1.1
					C36.7,63.1,36.2,63.4,36.1,63.5z M38.7,58.6L38.3,58l-1.1,0l0,0.6L38.7,58.6z M39.4,56.4l0-0.6l-2.2,0l0,0.6L39.4,56.4z
					 M39.5,54.3l0-0.7l-2.2,0l0,0.7L39.5,54.3z M38.5,61.8c0.2-0.1,0.6-0.4,1.2-0.9c0.9,1.2,1.8,2.5,2.8,3.9
					c-0.5,0.4-1.2,0.9-1.9,1.7c-0.2-0.4-0.3-0.7-0.5-1.1c-0.2-0.3-0.5-0.8-0.9-1.4c-0.4-0.6-0.7-1-0.8-1.2l-0.6-0.7
					C38.1,62,38.3,61.9,38.5,61.8z"/>
				<path d="M47,58.9c0.4-0.7,0.7-1.4,0.9-1.9c0.2-0.5,0.4-0.9,0.4-1.2l0.1-0.6l-1.3,0l-1.4,0l0-2.2l1.4,0.1l1.3,0l0-2.1
					c-1.5,0.2-2.3,0.3-2.3,0.2c-0.1-0.7-0.2-1.3-0.3-1.6L45.7,49c0.6,0.1,1.3,0,2,0c0.8,0,1.5-0.1,2.1-0.2c0.7-0.1,1.5-0.3,2.3-0.7
					c0.1,0.3,0.2,0.5,0.3,0.8c0.1,0.3,0.2,0.4,0.2,0.5l0.2,0.3l1.9,0.1l2.8,0.1l0-1.6l2.4,0L60,49.8l3.3,0.1l1.7,0l0,2.1l-1.7-0.1
					l-3.3-0.1l0,0.7l3.1,0.1l1.3,0l-0.1,1.4l-0.1,3.2l0,1.5l-0.9,0c0.2,0.3,0.3,0.5,0.4,0.7l0.7,1l0.3,0.5c-0.3,0.2-0.9,0.6-1.8,1.3
					c-0.2-0.4-0.4-0.7-0.6-1.2c-0.9,0-2.1,0-3.8,0l-2.6,0c-0.9,0-1.8,0.1-2.8,0.2c0-0.4-0.1-0.6-0.1-0.7l-0.2-0.7
					c-0.1,0.1-0.4,0.3-0.7,0.5c-0.3,0.2-0.5,0.5-0.8,0.7c-0.3-0.6-0.4-1-0.5-1.1l-0.5-0.9l-0.1,6.4l0,2l-2.2,0l0.1-2l0.1-4.6
					c-0.7,0.9-1.2,1.5-1.5,1.8l-1,1.1C46,63.3,46,63.1,45.9,63c0-0.1-0.3-0.8-0.7-2.2C46,60.3,46.6,59.6,47,58.9z M51.9,53.2l1.1,0
					l0,2.2l-1.1-0.1l-1.1,0l0,1.8c0.4-0.2,0.7-0.4,1-0.7c0.2,0.4,0.5,0.9,0.7,1.3c0.2,0.4,0.4,0.7,0.6,1l0.1,0
					c0.4,0.1,0.8,0.1,1.2,0.1c0.4,0,1.5,0.1,3.2,0.1l0-0.6l-2.8-0.1l-1.4,0l0.1-1.6l0.1-3.2l-0.1-1.5l1.8,0.1l2.4,0l0-0.7l-2.8-0.1
					l-1.8,0l0-1.3c-0.4,0.1-1.2,0.3-2.2,0.5l0,2.4L51.9,53.2z M53.1,61.9c0.2,0.1,0.6,0.2,1.4,0.5c-0.2,0.9-0.4,1.5-0.5,1.8
					c-0.1,0.4-0.2,0.8-0.4,1.3c-0.2,0.5-0.3,0.8-0.3,1L53,67.2c-0.2-0.2-0.5-0.4-0.6-0.6c-0.2-0.2-0.6-0.4-1.3-0.8
					c0.1-0.2,0.2-0.3,0.3-0.5c0.1-0.1,0.2-0.5,0.5-1.1c0.3-0.6,0.4-1.2,0.6-1.9l0.1-0.8C52.7,61.7,52.9,61.8,53.1,61.9z M56.9,61.4
					l-0.1,1.1l0,1.8c0,0.3,0.1,0.6,0.2,0.7c0.1,0.1,0.5,0.2,1,0.2c1,0,1.5-0.2,1.6-0.7l0.2-0.8c0.3,0.2,0.5,0.3,0.8,0.5
					c0.2,0.1,0.7,0.3,1.4,0.6c-0.2,0.7-0.4,1.3-0.5,1.6c-0.2,0.4-0.3,0.6-0.6,0.8s-0.5,0.2-0.9,0.2c-0.4,0-0.9,0-1.7,0
					c-1.1,0-2-0.1-2.7-0.2c-0.6-0.2-1-0.6-1-1.2l0.1-3.4l0-1.1L56.9,61.4z M57.6,56.8l0-0.6l-2,0l0,0.6L57.6,56.8z M55.6,54.6l2,0
					l0-0.7l-2,0L55.6,54.6z M58.7,64l-0.3,0.3c-0.5-1.1-0.9-1.7-1.1-2L57,61.7c0.8-0.3,1.4-0.6,1.8-0.9c0.1,0.2,0.4,0.6,0.7,1.1
					c0.3,0.5,0.6,0.9,0.8,1.1C59.3,63.5,58.8,63.9,58.7,64z M61.3,59l-0.4-0.6l-1.1,0l0,0.6L61.3,59z M62,56.9l0-0.6l-2.2,0l0,0.6
					L62,56.9z M62.1,54.8l0-0.7l-2.2,0l0,0.7L62.1,54.8z M61.1,62.2c0.2-0.1,0.6-0.4,1.2-0.9c0.9,1.2,1.8,2.5,2.8,3.9
					c-0.5,0.4-1.2,0.9-1.9,1.7c-0.2-0.4-0.3-0.7-0.5-1.1c-0.2-0.3-0.5-0.8-0.9-1.4c-0.4-0.6-0.7-1-0.8-1.2l-0.6-0.7
					C60.6,62.5,60.9,62.4,61.1,62.2z"/>
				<path d="M70.7,58.6l5.9,0.1l0.1-6.5l-4.8-0.1l-2.1,0l0.1-2.5l2.1,0.1L84.1,50l2.1,0l-0.1,2.5L84,52.3l-4.6-0.1l-0.1,6.5l2.7,0
					c-0.2-0.2-0.4-0.4-0.6-0.6c-0.2-0.2-0.6-0.5-1.2-1c0.4-0.4,0.8-0.7,1-1c0.2-0.3,0.5-0.6,0.8-1.1c0.3-0.5,0.5-0.9,0.7-1.2l0.4-1
					c0.3,0.2,0.6,0.4,0.9,0.6c0.2,0.2,0.7,0.4,1.5,0.8c-0.8,1.3-1.3,2.1-1.5,2.5c-0.2,0.3-0.8,1-1.6,2l2.7,0.1l2.4,0l-0.1,2.6
					l-2.4-0.1l-5.6-0.1l-0.1,3.3l0,3.1l-2.8-0.1l0.1-3.1l0.1-3.3L70.6,61l-2.3,0l0.1-2.6L70.7,58.6z M72.2,52.7
					c0.7,0.6,1.3,1.2,1.8,1.8c0.5,0.6,1,1.3,1.6,2.1c-0.7,0.5-1.4,1.1-2.1,1.9c-0.6-0.9-1.1-1.6-1.5-2.1c-0.4-0.5-1-1.2-1.9-1.9
					C70.9,53.8,71.6,53.3,72.2,52.7z"/>
				<path d="M91.2,57.6l2.6,0.1l3.8,0.1c0.4-0.6,0.8-1.3,1.1-1.8c0.3-0.6,0.5-1,0.6-1.3l0.2-0.5c0.8,0.4,1.6,0.7,2.6,1
					c-0.4,0.7-1,1.6-1.6,2.6L107,58l2.8,0l0,2.4l-2.9-0.1l-1.5,0c-0.2,0.7-0.4,1.4-0.7,2c-0.3,0.6-0.5,1.1-0.7,1.4l-0.3,0.5
					c1.4,0.6,3,1.4,5,2.3c-0.6,0.9-0.9,1.5-1,1.8l-0.3,0.6c-0.4-0.3-0.8-0.5-1.3-0.8c-0.4-0.3-1.8-1-4.2-2.1c-0.4,0.2-1,0.5-1.7,0.8
					c-0.7,0.3-1.8,0.7-3.4,0.9c-1.5,0.3-2.9,0.4-4.1,0.4c0-0.2-0.1-0.4-0.2-0.7c-0.1-0.3-0.3-0.9-0.7-1.8c0.4,0.1,0.8,0.1,1.3,0.1
					c0.5,0,1.4-0.1,2.6-0.3c1.2-0.2,2.3-0.5,3.2-0.9c-1.7-0.8-3.3-1.4-4.6-2c0.3-0.4,0.5-0.7,0.6-0.7l1.2-1.7l-2.4,0l-2.6,0
					L91.2,57.6z M94.1,51.4l5.5,0.1c-0.2-0.6-0.6-1.1-1.1-1.8c0.8-0.3,1.5-0.6,2.3-1c0.6,0.8,1.1,1.6,1.5,2.4
					c-0.3,0.1-0.6,0.3-0.9,0.4l5.7,0.1l2.4,0l-0.1,1.6l0,1.9l0,1.4l-2.6-0.1l0.1-1.3l0-1.3l-12.5-0.3l0,1.1l0,1.5L91.8,56l0.1-1.5
					l0-1.6l0-1.7L94.1,51.4z M101.1,63c0.4-0.4,0.7-0.8,1-1.3c0.3-0.5,0.4-0.9,0.5-1.1l0.2-0.5L99,60.1l-1,1.5
					C98.9,62,99.9,62.4,101.1,63z"/>
			</g>
		</g>
		<g>
			<g>
				<path class="st10" d="M60.3,172l0.7,0l0.7,0l0-1.3c-0.2,0-0.3,0-0.3,0l-0.5,0.1l-0.4,0.1c0-0.1-0.1-0.3-0.1-0.4
					c0-0.2-0.1-0.4-0.3-0.8c0.5,0,1.1,0,1.7-0.1c0.6-0.1,1.1-0.2,1.6-0.4c0.1,0.2,0.1,0.3,0.2,0.5c0.1,0.2,0.2,0.4,0.4,0.6
					c-0.1,0-0.3,0.1-0.6,0.1c-0.3,0.1-0.5,0.1-0.6,0.1l0,1.4l0.6,0l0.6,0l0,1.1l-0.6,0l-0.6,0l0,0.8c0.2-0.1,0.4-0.2,0.5-0.4
					c0.1,0.1,0.1,0.2,0.1,0.3l0.3,0.5l0.2,0.3l0-0.5l0-0.8c0.2,0,0.3,0,0.5,0c0.1,0,0.4,0,0.7,0c0.4,0,0.6-0.1,0.7-0.2l0.5-0.2
					c0.1,0.2,0.1,0.3,0.2,0.5c0.1,0.1,0.2,0.4,0.3,0.6c-0.2,0.1-0.4,0.1-0.5,0.1c-0.1,0-0.5,0.1-1.2,0.2l0,1l0.9,0l0.7,0l0,1.1
					l-0.7,0l-0.8,0l0,1l3.3,0.1l0-1l-0.7,0l-0.8,0l0-1.1l0.8,0l0.7,0l0-0.9l-0.7,0l-0.8,0l0-1.1l0.8,0l1.3,0l0.6,0l-0.1,0.9
					l-0.1,3.5l0,0.9l-1.1,0l0-0.2l-3.3-0.1l0,0.2l-1.2,0l0.1-0.9l0.1-2.6c-0.1,0.1-0.2,0.2-0.3,0.3c-0.1,0.1-0.2,0.2-0.3,0.3
					c-0.1-0.3-0.2-0.5-0.3-0.6l-0.2-0.4l-0.1,2.9l0,1l-1.2,0l0.1-1.1l0-2.1c-0.5,0.5-0.9,1-1.2,1.3c-0.1-0.5-0.2-0.9-0.3-1.1
					l-0.1-0.3c0.3-0.2,0.6-0.5,0.8-0.7c0.2-0.2,0.3-0.5,0.4-0.7c0.1-0.2,0.2-0.4,0.2-0.5l0.1-0.4l-0.7,0l-0.7,0L60.3,172z
					 M65.1,171.3c0.2,0.4,0.3,0.7,0.3,0.8l0.2,0.5l0.1,0.2c-0.4,0.2-0.7,0.4-1,0.5c-0.2-0.6-0.3-0.9-0.5-1.1l-0.3-0.4
					C64.5,171.6,64.8,171.5,65.1,171.3z M69.4,170.3l0.2,0.3c-1.3,0.2-3.1,0.4-5.2,0.6c0-0.1,0-0.2-0.1-0.4c0-0.2-0.1-0.4-0.3-0.9
					c0.6,0.1,1.2,0.1,1.8,0c0.6-0.1,1.2-0.1,1.8-0.2c0.6-0.1,0.9-0.2,1.1-0.2l0.2-0.1C69.2,169.9,69.4,170.2,69.4,170.3z M67.1,171
					c0,0.2,0.1,0.3,0.2,0.5c0.1,0.2,0.2,0.5,0.4,1.1c-0.5,0.2-0.8,0.3-0.8,0.3l-0.3,0.1c0-0.2-0.1-0.4-0.1-0.6c0-0.2-0.2-0.5-0.4-1
					C66.3,171.3,66.7,171.2,67.1,171z M68.2,172.1c0.2-0.3,0.3-0.5,0.3-0.7l0.1-0.3c0.4,0.3,0.8,0.5,1.1,0.6
					c-0.1,0.1-0.1,0.3-0.2,0.3l-0.4,0.6c-0.2,0.3-0.3,0.5-0.3,0.6l-0.2,0.3c-0.3-0.2-0.5-0.4-0.6-0.4l-0.4-0.2
					C67.9,172.7,68.1,172.4,68.2,172.1z"/>
				<path class="st10" d="M73.6,175.5l-0.3,0.9c-0.1,0.3-0.3,0.7-0.5,1.1c-0.2,0.5-0.4,0.8-0.4,0.9l-0.2,0.4
					c-0.1-0.1-0.1-0.1-0.1-0.2l-0.6-0.7l-0.2-0.2c0.2-0.3,0.4-0.6,0.5-0.8c0.1-0.2,0.3-0.5,0.4-0.9c0.1-0.3,0.3-0.6,0.3-0.9
					c0.1-0.2,0.2-0.5,0.3-0.9c0.3,0.2,0.6,0.4,1,0.7C73.7,175.3,73.7,175.4,73.6,175.5z M71.9,172.3L72,172c0.5,0.4,1,0.7,1.5,1.1
					c-0.1,0.1-0.1,0.2-0.2,0.3L73,174l-0.1,0.2c-0.4-0.4-0.7-0.6-0.9-0.7l-0.6-0.4C71.6,172.7,71.8,172.5,71.9,172.3z M72.6,169.5
					c0.6,0.5,1,0.8,1,0.8l0.4,0.4c-0.1,0.1-0.2,0.2-0.3,0.3c-0.1,0.1-0.2,0.3-0.4,0.7c-0.1-0.1-0.3-0.3-0.6-0.6
					c-0.3-0.2-0.4-0.4-0.5-0.4l-0.4-0.3C72.1,170.1,72.3,169.8,72.6,169.5z M73.7,172.7l1.1,0.1l1.8,0l0-0.4l-1.2,0l-0.9,0l0-1
					l0.9,0l1.2,0l0-0.3l-1.5,0h-1l0-1.1l1.1,0.1l1.5,0l0-0.6l1.2,0l0,0.6l1.8,0l1,0l0,1.1l-1,0l-1.8,0l0,0.3l1.4,0l0.8,0l0,1l-0.8,0
					l-1.5,0l0,0.4l1.9,0l1.1,0l0,1.1l-1.1-0.1l-5-0.1l-1,0L73.7,172.7z M75.6,174.2l3.4,0.1l1,0l0,1.4l-0.1,2.8c0,0.2,0,0.4-0.2,0.6
					c-0.1,0.2-0.7,0.2-1.7,0.2c0-0.1,0-0.2,0-0.4c0-0.2-0.1-0.3-0.1-0.5l-0.1-0.3c0.1,0,0.3,0,0.4,0c0.1,0,0.2,0,0.3,0
					c0.1,0,0.2,0,0.2-0.1c0,0,0.1-0.1,0.1-0.2l0-0.3l-3.2-0.1l0,0.9l0,0.7l-1.2,0l0-1l0.1-2.6l0-1.2L75.6,174.2z M78.7,176.7l0-0.4
					l-3.2-0.1l0,0.4L78.7,176.7z M78.7,175.5l0-0.4l-3.2-0.1l0,0.4L78.7,175.5z"/>
			</g>
		</g>
		<g>
			<g>
				<path class="st5" d="M27,176.3l0.3,0l0.1-4.2l0-1.1l1.3,0.1l3.3,0.1l1.3,0l-0.1,1.1l-0.1,4.2l0.1,0l1.4,0l0,1.2l-1.4-0.1
					l-6.1-0.1l-1.3,0l0-1.2L27,176.3z M29.1,168.7c0.3-0.1,0.7-0.3,1.1-0.5c0.2,0.2,0.3,0.4,0.5,0.6c0.2,0.2,0.3,0.4,0.4,0.6
					c0,0-0.1,0.1-0.3,0.2l2.6,0.1l1.2,0l0,0.6l0,1.1l0,0.5l-1.3,0l0-0.5l0-0.6l-6.3-0.1l0,0.6l0,0.5l-1.3,0l0-0.5l0-1.1l0-0.6
					l1.2,0.1l2.6,0.1C29.5,169.2,29.3,168.9,29.1,168.7z M31.8,176.4l0-0.9l-3.2-0.1l0,0.9L31.8,176.4z M28.6,173.8l0,0.7l3.2,0.1
					l0-0.7L28.6,173.8z M31.8,172.9l0-0.7l-3.2-0.1l0,0.7L31.8,172.9z"/>
			</g>
		</g>
		<g>
			<path class="st10" d="M94.9,94c0.1,0.8,0.7,1.4,1.6,1.4c1,0,1.6-0.7,1.7-1.9c0-1.2-0.6-1.9-1.7-1.9c-0.6,0-1.2,0.2-1.7,0.7
				l-1.8-0.3l1.2-5.2l5.7,0.1l0,1.8l-4.1-0.1l-0.4,1.7c0.5-0.2,1-0.3,1.5-0.3c2,0,3.4,1.5,3.4,3.4c0,2-1.7,3.5-4,3.5
				c-2.1,0-3.5-1.1-3.7-2.8L94.9,94z"/>
		</g>
		<g>
			<path class="st10" d="M95.1,119.5c0.3-0.2,0.6-0.5,0.9-0.8c0.3-0.3,0.5-0.6,0.6-0.7l0.1-0.2l-0.8,0l0.1-1.1l0-2.5l0-0.9l1.4,0.1
				l6,0.1l1.5,0l-0.1,1l0,2.3l0,1.1l-1.4-0.1l-5.9-0.1c0.2,0.1,0.4,0.2,0.9,0.4c-0.2,0.2-0.4,0.4-0.6,0.6l1.8,0l0-0.3l0-0.6l1.6,0
				l-0.1,0.6l0,0.3l2.9,0.1l1.4,0l0,1.2l-1.4-0.1l-2.9-0.1l0,0.5l2,0l1.5,0l0,1.3l-1.5-0.1l-2,0l0,0.5l3.5,0.1l1.6,0l0,1.3l-1.7-0.1
				l-8.8-0.2l-1.5,0l0-1.3l1.5,0.1l3.8,0.1l0-0.5l-2.1,0l-1.3,0l0-1.3l1.3,0.1l2.1,0l0-0.5l-2.9,0c-0.5,0.5-1.1,0.9-1.6,1.3
				c-0.1-0.2-0.2-0.4-0.3-0.5c-0.1-0.1-0.3-0.4-0.6-0.7C94.5,119.8,94.9,119.7,95.1,119.5z M103.4,116.8l0-0.5l-5.8-0.1l0,0.5
				L103.4,116.8z M103.4,115.2l0-0.5l-5.8-0.1l0,0.5L103.4,115.2z"/>
			<path class="st10" d="M95,135.7c0.3-0.3,0.5-0.5,0.6-0.7l0.2-0.3c0.4,0.3,0.7,0.5,0.8,0.6l0.5,0.3c-0.7,0.8-1.2,1.3-1.6,1.6
				l-0.5,0.4c-0.1-0.1-0.2-0.3-0.3-0.4c-0.1-0.1-0.4-0.3-0.8-0.6C94.3,136.3,94.7,136,95,135.7z M93.9,133.3l0.9,0.1l0.4,0l0.1-3.9
				l-1.2,0l0-1.3l1.2,0l0-0.6l0-0.7l1.5,0l0,0.7l0,0.6l1.7,0l0-0.6l0-0.7l1.5,0l0,0.7l0,0.6l0.9,0l0,1.3l-0.9,0l-0.1,3.9l1,0l0,1.2
				l-0.9,0l-5-0.1l-0.9,0L93.9,133.3z M98.4,133.5l0-0.7l-1.7,0l0,0.7L98.4,133.5z M98.4,131.7l0-0.5l-1.7,0l0,0.5L98.4,131.7z
				 M98.4,130.1l0-0.5l-1.7,0l0,0.5L98.4,130.1z M98.3,135l0.2-0.3c0.2,0.1,0.3,0.3,0.5,0.4c0.2,0.1,0.3,0.2,0.3,0.3
				c0.1,0,0.2,0.2,0.5,0.4c-0.3,0.2-0.7,0.5-1,0.9c-0.3-0.3-0.5-0.5-0.6-0.6c-0.1-0.1-0.3-0.3-0.7-0.5C98,135.2,98.2,135,98.3,135z
				 M105.4,137.1c0,0.1-0.1,0.3-0.2,0.5c-0.1,0.2-0.8,0.3-1.9,0.3c-0.1-0.5-0.2-0.8-0.3-1l-0.2-0.5c0.2,0,0.4,0,0.6,0.1
				c0.2,0,0.3,0,0.4-0.1c0.1-0.1,0.1-0.1,0.1-0.3l0-2.2l-1.5,0c0,0.2-0.1,0.5-0.1,0.8c-0.1,0.3-0.2,0.8-0.5,1.3
				c-0.3,0.6-0.9,1.1-1.7,1.8c-0.4-0.4-0.8-0.7-1.3-0.9c0.6-0.3,1-0.6,1.3-1c0.3-0.4,0.5-0.7,0.7-1c0.1-0.3,0.2-0.7,0.2-1.2
				c0-0.5,0.1-1.1,0.1-1.9c0-0.8,0.1-1.2,0.1-1.3l0-2.3l0-0.8l1.1,0l2.1,0l1.2,0l-0.1,1L105.4,137.1z M104.1,132.8l0-1.4l-1.4,0
				l0,1.4L104.1,132.8z M104.1,130.3l0-1.6l-1.5,0l0,1.6L104.1,130.3z"/>
			<path class="st10" d="M95.7,141.6l8.4,0.2l1.1,0l-0.1,1.3l-0.2,7l0,1.2l-1.6,0l0-0.2l-7.5-0.2l0,0.2l-1.6,0l0.1-1.4l0.1-6.9
				l0-1.3L95.7,141.6z M103.4,149.9l0.1-6.8l-1.7,0l-0.1,3.7c0,0.1,0,0.2,0.1,0.3c0.1,0.1,0.3,0.1,0.7,0.1c0.3,0,0.6,0,0.9,0
				c-0.1,0.5-0.2,0.8-0.2,1l0,0.4c-1.1,0-1.8-0.1-2.3-0.2c-0.4-0.1-0.7-0.4-0.7-0.7l0.1-4.6l-1,0c0,0.5-0.1,1.2-0.1,1.9
				c0,0.7-0.1,1.3-0.3,1.6c-0.1,0.4-0.3,0.7-0.4,0.9c-0.2,0.2-0.4,0.4-0.6,0.6c-0.3,0.2-0.6,0.4-1.1,0.7c-0.2-0.4-0.4-0.7-0.4-0.8
				l-0.3-0.3l0,2.1L103.4,149.9z M97.1,146.8c0.2-0.2,0.4-0.5,0.5-0.9c0.1-0.4,0.2-1,0.2-1.7l0-1l0-0.3l-1.8,0l-0.1,4.6
				C96.5,147.3,96.9,147.1,97.1,146.8z"/>
		</g>
		<g>
			<path class="st10" d="M104.3,91.7l2.9,0.1l0.7,0l0,0.5l-0.1,4.5c0,0.2,0,0.3,0,0.3c0,0-0.1,0.1-0.3,0.2c-0.2,0.1-0.6,0.2-1.2,0.2
				c0-0.1,0-0.2,0-0.3c0-0.1,0-0.2-0.1-0.3l-0.2-0.3c0.3,0,0.6,0,0.7,0c0.1,0,0.2,0,0.2-0.1c0,0,0-0.1,0-0.2l0-1l-2.4,0
				c0,0.2-0.1,0.4-0.2,0.6c-0.1,0.2-0.2,0.4-0.4,0.7c-0.2,0.2-0.4,0.4-0.6,0.6l-0.3,0.2c-0.1-0.1-0.2-0.2-0.2-0.3
				c-0.1-0.1-0.2-0.2-0.4-0.3c0.1-0.1,0.3-0.1,0.5-0.3c0.2-0.1,0.4-0.3,0.5-0.7c0.1-0.3,0.2-0.7,0.3-1.3c0-0.5,0.1-0.9,0.1-1.1
				l0-1.3l0-0.4L104.3,91.7z M106.9,94.7l0-0.7l-2.3,0l0,0.7L106.9,94.7z M106.9,93.3l0-0.8l-2.3,0l0,0.8L106.9,93.3z"/>
		</g>
		
			<rect x="18.8" y="162.2" transform="matrix(0.9998 2.028866e-02 -2.028866e-02 0.9998 3.537 -1.2096)" class="st11" width="85.2" height="23.1"/>
		<g>
			<path class="st10" d="M20.3,93.4l6.9,0.2c-0.3-0.2-0.7-0.3-1-0.5c0.1-0.2,0.3-0.6,0.5-0.9c0.2-0.4,0.4-1.1,0.7-2.1
				c0.2-1,0.4-1.8,0.4-2.3l0.1-0.7c0.9,0.2,1.5,0.4,2.1,0.5c-0.3,1.1-0.6,2.1-0.8,3.2c-0.3,1-0.5,1.8-0.7,2.3l-0.3,0.6l2.8,0.1
				l1.5,0l0,1.7L31,95.2L20.3,95l-2.1,0l0-1.7L20.3,93.4z M18.9,85l1.7,0.1l4.1,0.1c-0.2-0.6-0.3-1-0.5-1.2l-0.3-0.6
				c0.7-0.1,1.3-0.3,2-0.5c0.2,0.5,0.5,1.2,0.9,2.1c-0.2,0.1-0.4,0.2-0.7,0.2l4.4,0.1l1.7,0l0,1.7l-1.7-0.1l-9.9-0.2l-1.7,0L18.9,85
				z M23.7,90.1l0.4,1.7l0.3,0.9c-0.8,0.2-1.3,0.3-1.5,0.4l-0.6,0.2c-0.1-0.4-0.1-0.7-0.1-0.9c0-0.2-0.2-0.8-0.4-1.7
				c-0.2-0.9-0.4-1.6-0.5-1.9l-0.3-0.9c0.9-0.1,1.4-0.2,1.5-0.3l0.4-0.1C23.2,88.5,23.5,89.4,23.7,90.1z"/>
			<path class="st10" d="M19.7,98.1l10.5,0.2l1.9,0l0,1.5l-1.7-0.1l-4.3-0.1l-0.1,0.5l2.6,0.1l1.7,0l-0.1,1.2l-0.1,2.9l0,1.6
				l-1.3-0.1l-4.9-0.1l-0.5,0.5l6.3,0.1l0.6,0.7c-0.2,0.2-0.4,0.4-0.7,0.6c-0.3,0.2-1,0.7-2.1,1.3c0.5,0.1,1.2,0.2,2,0.3
				c0.9,0.1,1.7,0.1,2.5,0.1c-0.3,0.6-0.4,1.1-0.5,1.4l0,0.3c-1.5-0.1-2.6-0.2-3.5-0.4c-0.8-0.2-1.4-0.3-1.6-0.4l-1.1-0.4
				c-0.6,0.2-1.4,0.4-2.2,0.5c-0.9,0.2-2.4,0.3-4.7,0.2c0-0.1-0.1-0.3-0.1-0.6c-0.1-0.2-0.2-0.6-0.5-1c0.7,0.1,1.2,0.1,1.6,0.1
				c0.4,0,0.9,0,1.6,0c0.7,0,1.5-0.1,2.6-0.3c-0.7-0.5-1.1-0.8-1.3-1l-0.3-0.3c-0.9,0.5-1.6,0.9-2.3,1.2c-0.3-0.5-0.6-0.9-0.8-1.1
				l-0.3-0.3c0.5-0.1,1-0.3,1.5-0.5c0.4-0.2,0.8-0.4,1-0.5c0.2-0.2,0.4-0.4,0.6-0.6l-1.6,0l0.1-1.5l0.1-2.8l0-1.4l1.5,0.1l2.3,0
				l0.2-0.5l-4.8-0.1l-1.3,0l0-1.5L19.7,98.1z M28.4,104.7l0-0.5l-6.4-0.1l0,0.5L28.4,104.7z M28.5,102.8l-6.4-0.1l0,0.4l6.4,0.1
				L28.5,102.8z M28.5,101.3l-6.4-0.1l0,0.5l6.4,0.1L28.5,101.3z M25.6,108.3c0.2-0.1,0.5-0.2,0.8-0.3c0.3-0.2,0.5-0.3,0.6-0.3
				l0.2-0.2l-3-0.1C24.9,107.9,25.3,108.1,25.6,108.3z"/>
		</g>
	</g>
	<g>
		<g>
			<path class="st10" d="M51.4,120.5c3.6-3.7,8.6-5.2,14.6-4.2c5.2,0.8,9.6,4.4,11.5,8.7c2.6,5.9,2.3,14.1-2.2,19.2
				c-4.5,4.9-10.9,6.8-18.1,6.3c-6.8-0.4-13.5-4.2-15.3-10.6l-1.2-4.2l9.3,0.2c0.6,2.5,2.6,5.2,5.6,6.3c3.3,1.3,7.8,1,10.6-1.1
				c4-3.1,5.4-8,3.8-12.4c-1.2-3.4-3.4-5.4-7.7-6.3c-3.5-0.8-6.7,0.5-9,2.7c-1.4,1.2-2.1,2.8-2.7,4.4l-8.7-0.2l2.1-28.5l33.5,0.7
				l-0.1,7.3l-25-0.5L51.4,120.5z"/>
		</g>
	</g>
</g>
</svg>
