<?xml version="1.0" encoding="utf-8"?>
<!-- Generator: Adobe Illustrator 22.0.1, SVG Export Plug-In . SVG Version: 6.00 Build 0)  -->
<svg version="1.1" id="圖層_1" xmlns="http://www.w3.org/2000/svg" xmlns:xlink="http://www.w3.org/1999/xlink" x="0px" y="0px"
	 viewBox="0 0 120 200" style="enable-background:new 0 0 120 200;" xml:space="preserve">
<style type="text/css">
	.st0{fill:none;stroke:#525454;stroke-width:0.5;stroke-miterlimit:10;}
	.st1{fill:#BBBCBC;}
	.st2{fill:#C8CACA;}
	.st3{fill:#D6D7D7;}
	.st4{fill:#E3E5E5;}
	.st5{fill:#FFFFFF;}
	.st6{fill:none;stroke:#DE4F43;stroke-width:0.6985;stroke-miterlimit:10;}
	.st7{fill:#DE4F43;}
	.st8{fill:#FFDE55;}
	.st9{fill:#E5E5E5;}
	.st10{fill:#026DB5;}
	.st11{fill:none;stroke:#026DB5;stroke-width:0.6112;stroke-miterlimit:10;}
</style>
<g>
	<g>
		<line class="st0" x1="17.2" y1="23.3" x2="68.5" y2="2.2"/>
		<line class="st0" x1="118.3" y1="23.3" x2="66.5" y2="2"/>
		<g>
			<rect x="17.2" y="41" class="st1" width="101" height="159"/>
			<polygon class="st2" points="116.5,198.4 15.5,198.4 18.4,39.9 116.5,39.4 			"/>
			<polygon class="st3" points="114.8,196.8 13.8,196.8 19.5,38.8 114.8,37.8 			"/>
			<polygon class="st4" points="113.1,195.2 12,195.2 20.6,37.7 113.1,36.3 			"/>
		</g>
		<polygon class="st5" points="17.2,42 1.7,184 12,193.1 112.1,195.2 118.3,42 		"/>
		<line class="st6" x1="13.6" y1="75.2" x2="116.9" y2="77.3"/>
		<rect x="17.2" y="23.3" class="st7" width="101" height="18.7"/>
		<circle cx="67.8" cy="2.5" r="2.5"/>
		<circle class="st8" cx="22" cy="27.6" r="1.4"/>
		<circle class="st8" cx="22" cy="37.7" r="1.4"/>
		<circle class="st8" cx="113.6" cy="27.6" r="1.4"/>
		<circle class="st8" cx="113.6" cy="37.7" r="1.4"/>
		<path class="st9" d="M2.1,180.6c0,0,9.2,0.3,9.9,1.1c0.8,0.8,2.8,11.4,2.8,11.4h-3.1L1.7,184L2.1,180.6z"/>
		
			<rect x="21.9" y="164.4" transform="matrix(0.9998 2.028866e-02 -2.028866e-02 0.9998 3.5181 -0.5858)" class="st10" width="17.4" height="17.4"/>
		<g>
			<g>
				<path d="M24.4,58.5c0.4-0.7,0.7-1.4,0.9-1.9c0.2-0.5,0.4-0.9,0.4-1.2l0.1-0.6l-1.3,0l-1.4,0l0-2.2l1.4,0.1l1.3,0l0-2.1
					c-1.5,0.2-2.3,0.3-2.3,0.2c-0.1-0.7-0.2-1.3-0.3-1.6l-0.2-0.7c0.6,0.1,1.3,0,2,0c0.8,0,1.5-0.1,2.1-0.2c0.7-0.1,1.5-0.3,2.3-0.7
					c0.1,0.3,0.2,0.5,0.3,0.8c0.1,0.3,0.2,0.4,0.2,0.5l0.2,0.3l1.9,0.1l2.8,0.1l0-1.6l2.4,0l-0.1,1.6l3.3,0.1l1.7,0l0,2.1l-1.7-0.1
					l-3.3-0.1l0,0.7l3.1,0.1l1.3,0l-0.1,1.4l-0.1,3.2l0,1.5l-0.9,0c0.2,0.3,0.3,0.5,0.4,0.7l0.7,1l0.3,0.5c-0.3,0.2-0.9,0.6-1.8,1.3
					c-0.2-0.4-0.4-0.7-0.6-1.2c-0.9,0-2.1,0-3.8,0l-2.6,0c-0.9,0-1.8,0.1-2.8,0.2c0-0.4-0.1-0.6-0.1-0.7l-0.2-0.7
					c-0.1,0.1-0.4,0.3-0.7,0.5c-0.3,0.2-0.5,0.5-0.8,0.7c-0.3-0.6-0.4-1-0.5-1.1l-0.5-0.9L28,64.8l0,2l-2.2,0l0.1-2l0.1-4.6
					c-0.7,0.9-1.2,1.5-1.5,1.8l-1,1.1c-0.1-0.3-0.1-0.4-0.1-0.6c0-0.1-0.3-0.8-0.7-2.2C23.4,59.8,24,59.2,24.4,58.5z M29.3,52.8
					l1.1,0l0,2.2l-1.1-0.1l-1.1,0l0,1.8c0.4-0.2,0.7-0.4,1-0.7c0.2,0.4,0.5,0.9,0.7,1.3c0.2,0.4,0.4,0.7,0.6,1l0.1,0
					c0.4,0.1,0.8,0.1,1.2,0.1c0.4,0,1.5,0.1,3.2,0.1l0-0.6l-2.8-0.1l-1.4,0l0.1-1.6l0.1-3.2l-0.1-1.5l1.8,0.1l2.4,0l0-0.7l-2.8-0.1
					l-1.8,0l0-1.3c-0.4,0.1-1.2,0.3-2.2,0.5l0,2.4L29.3,52.8z M30.5,61.4c0.2,0.1,0.6,0.2,1.4,0.5c-0.2,0.9-0.4,1.5-0.5,1.8
					c-0.1,0.4-0.2,0.8-0.4,1.3s-0.3,0.8-0.3,1l-0.3,0.8c-0.2-0.2-0.5-0.4-0.6-0.6c-0.2-0.2-0.6-0.4-1.3-0.8c0.1-0.2,0.2-0.3,0.3-0.5
					c0.1-0.1,0.2-0.5,0.5-1.1c0.3-0.6,0.4-1.2,0.6-1.9l0.1-0.8C30.1,61.3,30.4,61.4,30.5,61.4z M34.3,61L34.2,62l0,1.8
					c0,0.3,0.1,0.6,0.2,0.7c0.1,0.1,0.5,0.2,1,0.2c1,0,1.5-0.2,1.6-0.7l0.2-0.8c0.3,0.2,0.5,0.3,0.8,0.5c0.2,0.1,0.7,0.3,1.4,0.6
					c-0.2,0.7-0.4,1.3-0.5,1.6c-0.2,0.4-0.3,0.6-0.6,0.8c-0.2,0.1-0.5,0.2-0.9,0.2c-0.4,0-0.9,0-1.7,0c-1.1,0-2-0.1-2.7-0.2
					c-0.6-0.2-1-0.6-1-1.2l0.1-3.4l0-1.1L34.3,61z M35,56.3l0-0.6l-2,0l0,0.6L35,56.3z M33,54.2l2,0l0-0.7l-2,0L33,54.2z M36.1,63.5
					l-0.3,0.3c-0.5-1.1-0.9-1.7-1.1-2l-0.4-0.5c0.8-0.3,1.4-0.6,1.8-0.9c0.1,0.2,0.4,0.6,0.7,1.1c0.3,0.5,0.6,0.9,0.8,1.1
					C36.7,63.1,36.2,63.4,36.1,63.5z M38.7,58.6L38.3,58l-1.1,0l0,0.6L38.7,58.6z M39.4,56.4l0-0.6l-2.2,0l0,0.6L39.4,56.4z
					 M39.5,54.3l0-0.7l-2.2,0l0,0.7L39.5,54.3z M38.5,61.8c0.2-0.1,0.6-0.4,1.2-0.9c0.9,1.2,1.8,2.5,2.8,3.9
					c-0.5,0.4-1.2,0.9-1.9,1.7c-0.2-0.4-0.3-0.7-0.5-1.1c-0.2-0.3-0.5-0.8-0.9-1.4c-0.4-0.6-0.7-1-0.8-1.2l-0.6-0.7
					C38.1,62,38.3,61.9,38.5,61.8z"/>
				<path d="M47,58.9c0.4-0.7,0.7-1.4,0.9-1.9c0.2-0.5,0.4-0.9,0.4-1.2l0.1-0.6l-1.3,0l-1.4,0l0-2.2l1.4,0.1l1.3,0l0-2.1
					c-1.5,0.2-2.3,0.3-2.3,0.2c-0.1-0.7-0.2-1.3-0.3-1.6L45.7,49c0.6,0.1,1.3,0,2,0c0.8,0,1.5-0.1,2.1-0.2c0.7-0.1,1.5-0.3,2.3-0.7
					c0.1,0.3,0.2,0.5,0.3,0.8c0.1,0.3,0.2,0.4,0.2,0.5l0.2,0.3l1.9,0.1l2.8,0.1l0-1.6l2.4,0L60,49.8l3.3,0.1l1.7,0l0,2.1l-1.7-0.1
					l-3.3-0.1l0,0.7l3.1,0.1l1.3,0l-0.1,1.4l-0.1,3.2l0,1.5l-0.9,0c0.2,0.3,0.3,0.5,0.4,0.7l0.7,1l0.3,0.5c-0.3,0.2-0.9,0.6-1.8,1.3
					c-0.2-0.4-0.4-0.7-0.6-1.2c-0.9,0-2.1,0-3.8,0l-2.6,0c-0.9,0-1.8,0.1-2.8,0.2c0-0.4-0.1-0.6-0.1-0.7l-0.2-0.7
					c-0.1,0.1-0.4,0.3-0.7,0.5c-0.3,0.2-0.5,0.5-0.8,0.7c-0.3-0.6-0.4-1-0.5-1.1l-0.5-0.9l-0.1,6.4l0,2l-2.2,0l0.1-2l0.1-4.6
					c-0.7,0.9-1.2,1.5-1.5,1.8l-1,1.1C46,63.3,46,63.1,45.9,63c0-0.1-0.3-0.8-0.7-2.2C46,60.3,46.6,59.6,47,58.9z M51.9,53.2l1.1,0
					l0,2.2l-1.1-0.1l-1.1,0l0,1.8c0.4-0.2,0.7-0.4,1-0.7c0.2,0.4,0.5,0.9,0.7,1.3c0.2,0.4,0.4,0.7,0.6,1l0.1,0
					c0.4,0.1,0.8,0.1,1.2,0.1c0.4,0,1.5,0.1,3.2,0.1l0-0.6l-2.8-0.1l-1.4,0l0.1-1.6l0.1-3.2l-0.1-1.5l1.8,0.1l2.4,0l0-0.7l-2.8-0.1
					l-1.8,0l0-1.3c-0.4,0.1-1.2,0.3-2.2,0.5l0,2.4L51.9,53.2z M53.1,61.9c0.2,0.1,0.6,0.2,1.4,0.5c-0.2,0.9-0.4,1.5-0.5,1.8
					c-0.1,0.4-0.2,0.8-0.4,1.3c-0.2,0.5-0.3,0.8-0.3,1L53,67.2c-0.2-0.2-0.5-0.4-0.6-0.6c-0.2-0.2-0.6-0.4-1.3-0.8
					c0.1-0.2,0.2-0.3,0.3-0.5c0.1-0.1,0.2-0.5,0.5-1.1c0.3-0.6,0.4-1.2,0.6-1.9l0.1-0.8C52.7,61.7,52.9,61.8,53.1,61.9z M56.9,61.4
					l-0.1,1.1l0,1.8c0,0.3,0.1,0.6,0.2,0.7c0.1,0.1,0.5,0.2,1,0.2c1,0,1.5-0.2,1.6-0.7l0.2-0.8c0.3,0.2,0.5,0.3,0.8,0.5
					c0.2,0.1,0.7,0.3,1.4,0.6c-0.2,0.7-0.4,1.3-0.5,1.6c-0.2,0.4-0.3,0.6-0.6,0.8c-0.2,0.1-0.5,0.2-0.9,0.2c-0.4,0-0.9,0-1.7,0
					c-1.1,0-2-0.1-2.7-0.2c-0.6-0.2-1-0.6-1-1.2l0.1-3.4l0-1.1L56.9,61.4z M57.6,56.8l0-0.6l-2,0l0,0.6L57.6,56.8z M55.6,54.6l2,0
					l0-0.7l-2,0L55.6,54.6z M58.7,64l-0.3,0.3c-0.5-1.1-0.9-1.7-1.1-2L57,61.7c0.8-0.3,1.4-0.6,1.8-0.9c0.1,0.2,0.4,0.6,0.7,1.1
					c0.3,0.5,0.6,0.9,0.8,1.1C59.3,63.5,58.8,63.9,58.7,64z M61.3,59l-0.4-0.6l-1.1,0l0,0.6L61.3,59z M62,56.9l0-0.6l-2.2,0l0,0.6
					L62,56.9z M62.1,54.8l0-0.7l-2.2,0l0,0.7L62.1,54.8z M61.1,62.2c0.2-0.1,0.6-0.4,1.2-0.9c0.9,1.2,1.8,2.5,2.8,3.9
					c-0.5,0.4-1.2,0.9-1.9,1.7c-0.2-0.4-0.3-0.7-0.5-1.1c-0.2-0.3-0.5-0.8-0.9-1.4c-0.4-0.6-0.7-1-0.8-1.2l-0.6-0.7
					C60.6,62.5,60.9,62.4,61.1,62.2z"/>
				<path d="M70.7,58.6l5.9,0.1l0.1-6.5l-4.8-0.1l-2.1,0l0-2.5l2.1,0.1L84.1,50l2.1,0l0,2.5L84,52.3l-4.6-0.1l-0.1,6.5l2.7,0
					c-0.2-0.2-0.4-0.4-0.6-0.6c-0.2-0.2-0.6-0.5-1.2-1c0.4-0.4,0.8-0.7,1-1c0.2-0.3,0.5-0.6,0.8-1.1c0.3-0.5,0.5-0.9,0.7-1.2l0.4-1
					c0.3,0.2,0.6,0.4,0.8,0.6c0.2,0.2,0.7,0.4,1.5,0.8c-0.8,1.3-1.3,2.1-1.5,2.5c-0.2,0.3-0.8,1-1.6,2l2.7,0.1l2.4,0l-0.1,2.6
					l-2.4-0.1l-5.6-0.1l-0.1,3.3l0,3.1l-2.8-0.1l0.1-3.1l0.1-3.3L70.6,61l-2.3,0l0.1-2.6L70.7,58.6z M72.2,52.7
					c0.7,0.6,1.3,1.2,1.8,1.8c0.5,0.6,1,1.3,1.6,2.1c-0.7,0.5-1.4,1.1-2.1,1.9c-0.6-0.9-1.1-1.6-1.5-2.1c-0.4-0.5-1-1.2-1.9-1.9
					C70.9,53.8,71.6,53.3,72.2,52.7z"/>
				<path d="M91.1,57.6l2.6,0.1l3.8,0.1c0.4-0.6,0.8-1.3,1.1-1.8c0.3-0.6,0.5-1,0.6-1.3l0.2-0.5c0.8,0.4,1.6,0.7,2.6,1
					c-0.4,0.7-1,1.6-1.6,2.6L107,58l2.8,0l0,2.4l-2.9-0.1l-1.5,0c-0.2,0.7-0.4,1.4-0.7,2c-0.3,0.6-0.5,1.1-0.7,1.4l-0.3,0.5
					c1.4,0.6,3,1.4,5,2.3c-0.6,0.9-0.9,1.5-1,1.8l-0.3,0.6c-0.4-0.3-0.8-0.5-1.3-0.8c-0.4-0.3-1.8-1-4.2-2.1c-0.4,0.2-1,0.5-1.7,0.8
					c-0.7,0.3-1.8,0.7-3.4,0.9c-1.5,0.3-2.9,0.4-4.1,0.4c0-0.2-0.1-0.4-0.2-0.7c-0.1-0.3-0.3-0.9-0.7-1.8c0.4,0.1,0.8,0.1,1.3,0.1
					c0.5,0,1.4-0.1,2.6-0.3c1.2-0.2,2.3-0.5,3.2-0.9c-1.7-0.8-3.3-1.4-4.6-2c0.3-0.4,0.5-0.7,0.6-0.7l1.2-1.7l-2.4,0l-2.6,0
					L91.1,57.6z M94.1,51.4l5.5,0.1c-0.2-0.6-0.6-1.1-1.1-1.8c0.8-0.3,1.5-0.6,2.3-1c0.6,0.8,1.1,1.6,1.5,2.4
					c-0.3,0.1-0.6,0.3-0.9,0.4l5.7,0.1l2.4,0l-0.1,1.6l0,1.9l0,1.4l-2.6-0.1l0.1-1.3l0-1.3l-12.5-0.3l0,1.1l0,1.5L91.7,56l0.1-1.5
					l0-1.6l0-1.7L94.1,51.4z M101.1,63c0.4-0.4,0.7-0.8,1-1.3c0.3-0.5,0.4-0.9,0.5-1.1l0.2-0.5L99,60.1l-1,1.5
					C98.9,62,99.9,62.4,101.1,63z"/>
			</g>
		</g>
		<g>
			<g>
				<path class="st10" d="M56.8,176.1l2.8,0.1l0-0.4l-1.8,0l-1,0l0.1-1l0-1.8l0-1.1l1,0.1l4.9,0.1l0.8,0l0,0.9l0,2l0,0.9l-0.8,0
					l-1.9,0l0,0.4l2.8,0.1l1.1,0l0,1.2l-1.1-0.1l-2.8-0.1l0,0.6l0,0.8l-1.3,0l0-0.8l0-0.6l-2.8-0.1l-1.2,0l0-1.2L56.8,176.1z
					 M59.5,169.2l0,0.7l1.7,0l0-0.7l1.2,0l0,0.7l1.4,0l1,0l0,1.2l-1-0.1l-1.4,0l0,0.6l-1.2,0l0-0.6l-1.7,0l0,0.6l-1.3,0l0-0.6
					l-1.4,0l-1,0l0-1.2l1,0.1l1.4,0l0-0.7L59.5,169.2z M58.1,174.3l0,0.4l4.3,0.1l0-0.4L58.1,174.3z M62.4,173.4l0-0.4l-4.3-0.1
					l0,0.4L62.4,173.4z"/>
				<path class="st10" d="M68.8,177.2l-0.9,0l-0.6,0l0-0.6l0-0.3l0-0.6l0.7,0l0.8,0l0-0.3l-0.4,0l-0.6,0l0-0.5l0-0.4l-0.2,0l-0.7,0
					l0-0.9l0.7,0l0.3,0l0-0.2l1,0l0,0.2l0.9,0l0-0.3l1,0l0,0.3l0.5,0l0.5,0l0,0.9l-0.5,0l-0.4,0l0,0.4l0,0.5l-0.5,0l-0.5,0l0,0.3
					l0.8,0l0.8,0l0,0.4l0,0.4l0,0.7l-0.6,0l-1,0l0,0.3l1.1,0l0.7,0l0,0.6c0.1-0.2,0.2-0.4,0.3-0.5c0.1-0.2,0.1-0.4,0.2-0.7
					c0-0.3,0.1-0.6,0.1-0.9c0-0.3,0-0.6,0-0.9c0-0.3,0-0.5,0-0.6l0-0.8l0.7,0l2,0l0.8,0l0,1l-0.1,3.7c0,0.2-0.1,0.4-0.4,0.5
					c-0.2,0.1-0.6,0.1-1.2,0.1c0-0.1,0-0.2,0-0.3c0-0.1-0.1-0.4-0.3-0.8c0.1,0,0.3,0,0.5,0.1c0.3,0,0.4,0,0.4-0.2l0-0.8l-1.4,0
					c0,0.2-0.1,0.4-0.1,0.6c0,0.2-0.1,0.4-0.2,0.6c-0.1,0.2-0.3,0.4-0.4,0.6l-0.2,0.3c-0.4-0.2-0.6-0.3-0.7-0.3l-0.3-0.1
					c0.1-0.1,0.2-0.2,0.3-0.3l-0.5,0l-1.2,0l0,0.7l-1,0l0-0.7l-1.2,0l-0.8,0l0-0.8l0.7,0l1.3,0L68.8,177.2z M67.9,170.7l3,0.1l0-0.3
					l-2.3,0l-1.1,0l0-0.9l1.1,0.1l5.6,0.1l1,0l0,0.9l-0.9,0l-2.3,0l0,0.3l3,0.1l1,0l0,0.7l0,0.7l0,0.7l-1.2,0l0-1.2l-2.8-0.1l0,1.1
					l0,0.8l-1.2,0l0-0.7l0-1.1l-2.8-0.1l0,0.6l0,0.7l-1.1,0l0-0.7l0-0.8l0-0.6L67.9,170.7z M68.8,176.3l-0.6,0l0,0.3l0.6,0
					L68.8,176.3z M70.4,173.4l-0.6,0l-1,0l-0.5,0l0-0.6l0.5,0l1.1,0l0.5,0L70.4,173.4z M69.9,172.6l-1.1,0l-0.5,0l0-0.7l0.5,0l1,0
					l0.6,0l0,0.7L69.9,172.6z M69.8,174.9l0-0.2l-0.9,0l0,0.2L69.8,174.9z M69.8,176.6l0.6,0l0-0.3l-0.6,0L69.8,176.6z M72.8,172.9
					l1.1,0l0.5,0l0,0.7l-0.4,0l-1.2,0l-0.5,0l0-0.7L72.8,172.9z M74.5,172.6l-0.5,0l-1.1,0l-0.5,0l0-0.7l0.4,0l1,0l0.6,0L74.5,172.6
					z M74.5,175.8l-1.4,0l0,0.5l1.4,0L74.5,175.8z M74.6,174.6l-1.4,0l0,0.4l1.4,0L74.6,174.6z"/>
				<path class="st10" d="M79.2,177.4l2.6,0.1l0-2.4l-1.6,0l-1.4,0l0-1.2l1.3,0.1l1.7,0l0-2.2l-2.1,0l-1.4,0l0-1.3l1.4,0.1l5.5,0.1
					l1.3,0l0,1.3l-1.3-0.1l-2.1,0l0,2.2l1.6,0l1.3,0l0,1.2l-1.3-0.1l-1.6,0l0,2.4l2.6,0.1l1.3,0l0,1.3l-1.3-0.1l-6.5-0.1l-1.3,0
					l0-1.3L79.2,177.4z"/>
			</g>
		</g>
		<g>
			<g>
				<path class="st5" d="M27,176.3l0.3,0l0.1-4.2l0-1.1l1.3,0.1l3.3,0.1l1.3,0l-0.1,1.1l-0.1,4.2l0.1,0l1.4,0l0,1.2l-1.4-0.1
					l-6.1-0.1l-1.3,0l0-1.2L27,176.3z M29.1,168.7c0.3-0.1,0.7-0.3,1.1-0.5c0.2,0.2,0.3,0.4,0.5,0.6c0.2,0.2,0.3,0.4,0.4,0.6
					c0,0-0.1,0.1-0.3,0.2l2.6,0.1l1.2,0l0,0.6l0,1.1l0,0.5l-1.3,0l0-0.5l0-0.6l-6.3-0.1l0,0.6l0,0.5l-1.3,0l0-0.5l0-1.1l0-0.6
					l1.2,0.1l2.6,0.1C29.5,169.2,29.3,168.9,29.1,168.7z M31.8,176.4l0-0.9l-3.2-0.1l0,0.9L31.8,176.4z M28.6,173.8l0,0.7l3.2,0.1
					l0-0.7L28.6,173.8z M31.8,172.9l0-0.7l-3.2-0.1l0,0.7L31.8,172.9z"/>
			</g>
		</g>
		<g>
			<path class="st10" d="M96.5,90.6c1.3,0,2-0.6,2.3-1.1c0.2-0.6,0-1.1-0.4-1.5c-0.7-0.6-2-0.8-2.9-0.4c-0.5,0.3-0.8,0.6-1,1.2
				l-2.1,0c0.2-1.1,0.9-2.1,2-2.7c1.3-0.7,3.3-0.7,4.8,0.1c1.4,0.8,2.3,2.2,1.3,3.9c-0.3,0.6-0.8,1-1.5,1.2c0.9,0.2,1.8,0.8,2.3,1.7
				c0.4,0.9,0.2,2.1-0.6,2.9c-1.3,1.4-3.7,1.6-5.7,1.2c-1.3-0.3-2.2-1.2-2.7-2.2c-0.1-0.3-0.2-0.7-0.3-1.1l2.1,0
				c0,0.7,0.6,1.2,1.3,1.5c0.9,0.3,2.5,0.4,3.4-0.2c0.4-0.3,0.7-1,0.5-1.6c-0.4-1.2-1.5-1.5-3-1.5l-1.1,0l0-1.4L96.5,90.6z"/>
		</g>
		<g>
			<path class="st10" d="M95.1,119.5c0.3-0.2,0.6-0.5,0.9-0.8c0.3-0.3,0.5-0.6,0.6-0.7l0.1-0.2l-0.8,0l0.1-1.1l0.1-2.5l0-0.9
				l1.4,0.1l6,0.1l1.5,0l-0.1,1l0,2.3l0,1.1l-1.4-0.1l-5.9-0.1c0.2,0.1,0.4,0.2,0.9,0.4c-0.2,0.2-0.4,0.4-0.6,0.6l1.8,0l0-0.3l0-0.6
				l1.6,0l-0.1,0.6l0,0.3l2.9,0.1l1.4,0l0,1.2l-1.4-0.1l-2.9-0.1l0,0.5l2,0l1.5,0l0,1.3l-1.5-0.1l-2,0l0,0.5l3.5,0.1l1.6,0l0,1.3
				l-1.7-0.1l-8.8-0.2l-1.5,0l0-1.3l1.5,0.1l3.8,0.1l0-0.5l-2.1,0l-1.3,0l0-1.3l1.3,0.1l2.1,0l0-0.5l-2.9,0
				c-0.5,0.5-1.1,0.9-1.6,1.3c-0.1-0.2-0.2-0.4-0.3-0.5c-0.1-0.1-0.3-0.4-0.6-0.7C94.5,119.8,94.9,119.7,95.1,119.5z M103.4,116.8
				l0-0.5l-5.8-0.1l0,0.5L103.4,116.8z M103.4,115.2l0-0.5l-5.8-0.1l0,0.5L103.4,115.2z"/>
			<path class="st10" d="M95,135.7c0.3-0.3,0.5-0.5,0.6-0.7l0.2-0.3c0.4,0.3,0.7,0.5,0.8,0.6l0.5,0.3c-0.7,0.8-1.2,1.3-1.6,1.6
				l-0.5,0.4c-0.1-0.1-0.2-0.3-0.3-0.4c-0.1-0.1-0.4-0.3-0.8-0.6C94.3,136.3,94.7,136,95,135.7z M93.9,133.3l0.9,0.1l0.4,0l0.1-3.9
				l-1.2,0l0-1.3l1.2,0l0-0.6l0-0.7l1.5,0l0,0.7l0,0.6l1.7,0l0-0.6l0-0.7l1.5,0l0,0.7l0,0.6l0.9,0l0,1.3l-0.9,0l-0.1,3.9l1,0l0,1.2
				l-0.9,0l-5-0.1l-0.9,0L93.9,133.3z M98.4,133.5l0-0.7l-1.7,0l0,0.7L98.4,133.5z M98.4,131.7l0-0.5l-1.7,0l0,0.5L98.4,131.7z
				 M98.4,130.1l0-0.5l-1.7,0l0,0.5L98.4,130.1z M98.3,135l0.2-0.3c0.2,0.1,0.3,0.3,0.5,0.4c0.2,0.1,0.3,0.2,0.3,0.3
				c0.1,0,0.2,0.2,0.5,0.4c-0.3,0.2-0.7,0.5-1,0.9c-0.3-0.3-0.5-0.5-0.6-0.6c-0.1-0.1-0.3-0.3-0.7-0.5C98,135.2,98.2,135,98.3,135z
				 M105.4,137.1c0,0.1-0.1,0.3-0.2,0.5c-0.1,0.2-0.8,0.3-1.9,0.3c-0.1-0.5-0.2-0.8-0.3-1l-0.2-0.5c0.2,0,0.4,0,0.6,0.1
				c0.2,0,0.3,0,0.4-0.1c0.1-0.1,0.1-0.1,0.1-0.3l0-2.2l-1.5,0c0,0.2-0.1,0.5-0.1,0.8c-0.1,0.3-0.2,0.8-0.5,1.3
				c-0.3,0.6-0.9,1.1-1.7,1.8c-0.4-0.4-0.8-0.7-1.3-0.9c0.6-0.3,1-0.6,1.3-1c0.3-0.4,0.5-0.7,0.7-1c0.1-0.3,0.2-0.7,0.2-1.2
				c0-0.5,0.1-1.1,0.1-1.9c0-0.8,0.1-1.2,0.1-1.3l0-2.3l0-0.8l1.1,0l2.1,0l1.2,0l-0.1,1L105.4,137.1z M104.1,132.8l0-1.4l-1.4,0
				l0,1.4L104.1,132.8z M104.1,130.3l0-1.6l-1.5,0l0,1.6L104.1,130.3z"/>
			<path class="st10" d="M105.4,145.5l-1.5-0.1l-8.5-0.2l-1.4,0l0-1.4l1.4,0.1l8.5,0.2l1.5,0L105.4,145.5z M95.6,149
				c0.4-0.4,0.8-0.8,1.1-1.2c0.3-0.5,0.5-0.8,0.6-1c0.1-0.2,0.2-0.4,0.3-0.7c0.6,0.3,1,0.5,1.2,0.6l0.4,0.1
				c-0.5,0.7-0.8,1.3-1.1,1.7c-0.2,0.4-0.6,0.8-1.1,1.3c-0.5,0.5-0.9,0.8-1.1,1l-0.6,0.5c-0.4-0.5-0.7-0.8-0.9-0.9L94,150
				C94.7,149.7,95.2,149.4,95.6,149z M99.5,141.1c0.4,0.4,0.9,1,1.6,1.8c-0.4,0.2-0.9,0.6-1.4,1c-0.4-0.5-0.6-0.9-0.8-1.1
				c-0.2-0.2-0.4-0.5-0.8-0.9C98.8,141.6,99.2,141.3,99.5,141.1z M101.7,146.4l0.3-0.2c0.8,0.9,1.3,1.6,1.7,2.1
				c0.4,0.5,0.9,1.2,1.6,2.1c-0.6,0.4-1.1,0.8-1.5,1.1c-0.2-0.4-0.5-0.8-0.6-1.1c-0.2-0.3-0.5-0.8-1-1.4c-0.5-0.6-1-1.3-1.7-2
				C101.1,146.8,101.5,146.6,101.7,146.4z"/>
		</g>
		<g>
			<path class="st10" d="M104.3,91.7l2.9,0.1l0.7,0l0,0.5l-0.1,4.5c0,0.2,0,0.3,0,0.3c0,0-0.1,0.1-0.3,0.2c-0.2,0.1-0.6,0.2-1.2,0.2
				c0-0.1,0-0.2,0-0.3c0-0.1,0-0.2-0.1-0.3l-0.2-0.3c0.3,0,0.6,0,0.7,0c0.1,0,0.2,0,0.2-0.1c0,0,0-0.1,0-0.2l0-1l-2.4,0
				c0,0.2-0.1,0.4-0.2,0.6c-0.1,0.2-0.2,0.4-0.4,0.7c-0.2,0.2-0.4,0.4-0.6,0.6l-0.3,0.2c-0.1-0.1-0.2-0.2-0.2-0.3
				c-0.1-0.1-0.2-0.2-0.4-0.3c0.1-0.1,0.3-0.1,0.5-0.3c0.2-0.1,0.4-0.3,0.5-0.7c0.1-0.3,0.2-0.7,0.3-1.3c0-0.5,0.1-0.9,0.1-1.1
				l0-1.3l0-0.4L104.3,91.7z M106.9,94.7l0-0.7l-2.3,0l0,0.7L106.9,94.7z M106.9,93.3l0-0.8l-2.3,0l0,0.8L106.9,93.3z"/>
		</g>
		
			<rect x="18.8" y="162.2" transform="matrix(0.9998 2.028866e-02 -2.028866e-02 0.9998 3.537 -1.2096)" class="st11" width="85.2" height="23.1"/>
		<g>
			<path class="st10" d="M18.5,86c0.2-0.1,0.4-0.3,0.8-0.6c0.4-0.3,0.6-0.6,0.9-0.9c0.1,0.1,0.3,0.1,0.4,0.2l0-0.3l-0.6,0l-1.2,0
				l0-1.2l1.2,0.1l0.6,0l-0.1-0.5l1.6,0l-0.1,0.5l1.2,0l0-0.5l1.6,0l-0.1,0.5l0.6,0l1.2,0l0,1.1l-1.3-0.1l-0.5,0l0,0.4l-1.6,0l0-0.4
				l-1.2,0l0,0.4l-1.2,0l0.6,0.1L21.4,85l3.7,0.1l1,0l-0.1,0.5c0.5-0.4,0.8-0.9,1-1.2c0.2-0.4,0.3-0.8,0.4-1.2l0.1-0.3
				c0.1,0.1,0.3,0.1,0.4,0.1c0.1,0,0.6,0.1,1.2,0.2c-0.1,0.3-0.2,0.5-0.2,0.6L28.9,84l3,0.1l1,0l0,1.2L32,85.2
				c-0.2,0.4-0.3,0.7-0.5,1c-0.2,0.3-0.5,0.6-0.8,0.8c0.7,0.4,1.4,0.6,2.3,0.7c-0.1,0.1-0.2,0.3-0.3,0.4c-0.1,0.1-0.2,0.4-0.5,0.9
				c-1.1-0.4-2-0.7-2.6-1.1c-0.8,0.3-1.7,0.6-2.7,0.9l3.1,0.1l1.7,0l0,1.1l-1.7-0.1l-3.2-0.1l0,0.4l2.9,0.1l1.5,0l0,0.9L29.4,91
				l-2.7-0.1l0,0.4l3,0.1l1.5,0l0,1l-1.6-0.1l-2.8-0.1l0,0.4l4.4,0.1l1.2,0l-0.1,0.8c0,0.3-0.1,0.6-0.1,0.9c0,0.3-0.1,0.5-0.2,0.7
				c-0.1,0.2-0.3,0.3-0.5,0.5c-0.2,0.1-0.5,0.2-0.7,0.2c-0.3,0-0.6,0.1-1.1,0.1c0-0.3-0.1-0.4-0.1-0.5L29.2,95
				c-0.4,0.1-0.8,0.3-1.2,0.4c-0.1-0.5-0.4-1-0.7-1.6c0.3,0,0.7-0.1,1.2-0.3l-8.6-0.2c0.3,0.1,0.4,0.2,0.5,0.2l0.9,0.3
				c-0.2,0.3-0.4,0.6-0.6,0.9c-0.3,0.3-0.5,0.6-0.8,0.8c-0.4-0.2-0.8-0.4-1.4-0.6c0.3-0.2,0.5-0.5,0.8-0.7c0.2-0.3,0.4-0.5,0.5-0.7
				l0.1-0.2l0.1-0.9l0.1-3l0-0.9l1.9,0.1l2.2,0c0-0.3-0.1-0.4-0.1-0.5l-0.2-0.5l0,0.7l-1-0.1l-2.5-0.1l-0.9,0l0.1-0.8l0-0.8L19.2,87
				c-0.1-0.1-0.2-0.2-0.3-0.3c-0.1-0.1-0.4-0.2-0.9-0.5C18.2,86.2,18.4,86.1,18.5,86z M22.9,86.2l0.9,0l-0.1,0.6l0,0.8
				c0.3,0,0.5,0,0.6-0.1c0.1-0.1,0.2-0.2,0.2-0.5c0-0.2,0.1-0.4,0.1-0.6l0-0.5l-3.9-0.1c-0.1,0.1-0.3,0.2-0.4,0.3L22.9,86.2z
				 M22.3,87.5l0-0.5l-1.4,0l0,0.4L22.3,87.5z M25,92.6l0-0.4l-3.6-0.1l0,0.4L25,92.6z M25,91.3l0-0.4l-3.6-0.1l0,0.4L25,91.3z
				 M25,90.1l0-0.4l-3.6-0.1l0,0.4L25,90.1z M22,94.6c0-0.2,0-0.4,0-0.7l0-0.3c0.4,0,0.9,0.1,1.5,0.1c0,0.1,0,0.3,0,0.4
				c0,0.1,0,0.3,0,0.5c0,0.2,0,0.4,0,0.5l0,0.2c-0.7,0-1.2,0-1.6,0C21.9,95.1,22,94.8,22,94.6z M26.7,88.8c-0.2-0.3-0.2-0.4-0.3-0.5
				l-0.5-0.5c-0.1,0.2-0.2,0.3-0.3,0.4c-0.1,0.2-0.6,0.3-1.5,0.5L26.7,88.8z M26.1,93.6c0.1,0.2,0.2,0.5,0.3,0.7
				c0.1,0.3,0.2,0.6,0.3,0.9c-0.7,0.1-1.2,0.2-1.6,0.3C25,95.2,25,95,24.9,94.8c-0.1-0.2-0.2-0.5-0.3-0.9
				C25.1,93.8,25.6,93.7,26.1,93.6z M27.4,86.3l-0.2,0.2c-0.4-0.2-0.8-0.4-1.1-0.5c0,0.4-0.1,0.7-0.1,0.8l-0.1,0.9
				c0.9-0.1,1.6-0.2,2.2-0.6C27.9,86.8,27.6,86.5,27.4,86.3z M28.5,85.4c0.1,0.1,0.2,0.2,0.3,0.4c0.1,0.1,0.3,0.3,0.7,0.5
				c0.4-0.4,0.6-0.7,0.7-0.9l0.1-0.3l-2,0c-0.1,0.2-0.3,0.4-0.4,0.6C28,85.7,28.3,85.6,28.5,85.4z M28.8,93.6
				c0.3,0.4,0.4,0.7,0.5,0.9l0.1,0.2c0.5,0,0.8,0,0.9-0.1c0.1-0.1,0.2-0.3,0.2-0.5l0-0.4L28.8,93.6z"/>
			<path class="st10" d="M17.8,100.1l1.1,0.1l1.9,0l0-0.5l-1.1,0l-1.2,0l0-1.1l1.1,0.1l1.2,0l0-0.8l1.6,0l-0.1,0.8l1.1,0l1.1,0
				l0,1.1l-1.1,0l-1.1,0l0,0.5l1.3,0l1.3,0l0,1.1l-0.9,0l-0.7,0l0.7,0.3c-0.2,0.2-0.4,0.4-0.6,0.5l1.1,0l0,1.1l-1.1,0l-1,0l0,0.5
				l0.9,0l1.3,0l0,1c0.2-0.1,0.4-0.2,0.6-0.3c0.1-0.1,0.3-0.3,0.6-0.5c0.2-0.2,0.4-0.4,0.5-0.6l0.1-0.3c-0.5-0.3-0.9-0.5-1.3-0.7
				c0.5-0.5,0.7-0.7,0.8-0.8l0.2-0.2l0.8,0.5c0.1-0.3,0.1-0.4,0.1-0.5l0.1-0.5l-0.5,0l-1.3,0l0-1.3l1.2,0.1l0.7,0c0-0.4,0-0.7,0-0.8
				l0-0.8c0.4,0.1,1,0.1,1.7,0.1c-0.1,0.4-0.1,0.6-0.1,0.7l0,0.8l1.3,0l1.1,0c-0.1,0.3-0.1,0.6-0.2,0.9c-0.1,0.3-0.1,0.8-0.1,1.3
				c0,0.6,0,1,0,1.2c0,0.1,0,0.2,0,0.4c0,0.2,0.1,0.3,0.1,0.4c0,0.1,0,0.2,0.1,0.2c0,0,0.1,0,0.2-0.2c0.1-0.1,0.1-0.3,0.2-0.5
				l0.1-0.4c0.4,0.4,0.8,0.7,1.2,0.9c-0.4,1-0.7,1.6-0.9,1.9c-0.2,0.2-0.4,0.3-0.5,0.3c-0.1,0-0.3-0.1-0.6-0.2
				c-0.3-0.1-0.6-0.4-0.7-0.7c-0.2-0.4-0.3-0.8-0.5-1.3c-0.2,0.3-0.4,0.7-0.6,1c-0.4-0.4-0.8-0.7-1.2-1c-0.3,0.4-0.5,0.7-0.7,0.9
				c-0.2,0.2-0.6,0.5-1.1,0.9l0,0.3l3.7,0.1l1.4,0l0,0.9l0,1l0,0.9l-1.4,0c0.6,0.3,1.5,0.7,2.7,1.2c-0.1,0.2-0.2,0.3-0.3,0.4
				c-0.1,0.1-0.2,0.3-0.5,0.7c-0.5-0.3-1-0.5-1.6-0.8c-4.9,0.2-7.8,0.3-8.8,0.3c-1,0-1.6,0-1.9,0.1l-0.8,0.1
				c-0.1-0.4-0.1-0.6-0.1-0.7l-0.2-0.7c0.7,0,1.3,0.1,1.7,0.1c0.5,0,1.9,0,4.3,0l0-0.7l-3.6-0.1l-1.3,0l0.1-1l0-0.8l0-1.1l1.3,0.1
				L24,106l0-0.6l1.2,0l-0.1-0.1l-0.7-0.5l0.1-0.1l-1.1,0l-1,0l0,1l-1.7,0l0.1-1l-1.6,0l-1.2,0l0-1.2l1.3,0.1l1.4,0l0-0.5l-1.1,0
				l-1.4,0l0-1.1l1.2,0c-0.1-0.2-0.3-0.3-0.5-0.5c0.1,0,0.2-0.1,0.2-0.1l0.4-0.1l0.2-0.1l-0.9,0l-1.1,0L17.8,100.1z M21.2,101.9
				c-0.1,0.1-0.2,0.1-0.3,0.2l1.6,0c-0.2-0.1-0.3-0.1-0.5-0.2c0.3-0.2,0.5-0.4,0.6-0.6l-2,0C20.7,101.5,20.9,101.7,21.2,101.9z
				 M24,107.7l0-0.7l-3.2-0.1l0,0.7L24,107.7z M27.8,109.4l-0.7-0.3l0.4-0.3l-2,0l0,0.6C26.3,109.4,27,109.4,27.8,109.4z
				 M29.1,107.8l0-0.7l-3.5-0.1l0,0.7L29.1,107.8z M29.3,103.3c0-0.4-0.1-0.7-0.1-0.9c0-0.2,0-0.5,0-1l0-0.6l-0.8,0
				c-0.1,0.4-0.1,0.6-0.1,0.7l-0.3,1C28.5,102.8,28.9,103.1,29.3,103.3z"/>
		</g>
	</g>
	<g>
		<g>
			<path class="st10" d="M53.1,135.8c0.5,3.6,3.2,6.1,6.8,6.2c4.3,0.1,7.1-3.1,7.2-8.4c0.1-5-2.6-8.1-7.2-8.2
				c-2.7-0.1-5.1,0.9-7.3,3.1l-7.6-1.1l5.2-22.5l24.8,0.5l-0.2,7.8l-17.7-0.4l-1.6,7.4c2.2-1,4.1-1.3,6.4-1.3
				c8.6,0.2,14.8,6.5,14.7,14.8c-0.2,8.8-7.5,15.1-17.1,14.9c-9-0.2-15-4.8-16-12.2L53.1,135.8z"/>
		</g>
	</g>
</g>
</svg>
