<?xml version="1.0" encoding="utf-8"?>
<!-- Generator: Adobe Illustrator 22.0.1, SVG Export Plug-In . SVG Version: 6.00 Build 0)  -->
<svg version="1.1" id="圖層_1" xmlns="http://www.w3.org/2000/svg" xmlns:xlink="http://www.w3.org/1999/xlink" x="0px" y="0px"
	 viewBox="0 0 120 200" style="enable-background:new 0 0 120 200;" xml:space="preserve">
<style type="text/css">
	.st0{fill:none;stroke:#525454;stroke-width:0.5;stroke-miterlimit:10;}
	.st1{fill:#BBBCBC;}
	.st2{fill:#C8CACA;}
	.st3{fill:#D6D7D7;}
	.st4{fill:#E3E5E5;}
	.st5{fill:#FFFFFF;}
	.st6{fill:none;stroke:#DE4F43;stroke-width:0.6985;stroke-miterlimit:10;}
	.st7{fill:#DE4F43;}
	.st8{fill:#FFDE55;}
	.st9{fill:#E5E5E5;}
	.st10{fill:#026DB5;}
</style>
<g>
	<g>
		<line class="st0" x1="17.2" y1="23.3" x2="68.5" y2="2.2"/>
		<line class="st0" x1="118.3" y1="23.3" x2="66.5" y2="2"/>
		<g>
			<rect x="17.2" y="41" class="st1" width="101" height="159"/>
			<polygon class="st2" points="116.5,198.4 15.5,198.4 18.4,39.9 116.5,39.4 			"/>
			<polygon class="st3" points="114.8,196.8 13.8,196.8 19.5,38.8 114.8,37.8 			"/>
			<polygon class="st4" points="113.1,195.2 12,195.2 20.6,37.7 113.1,36.3 			"/>
		</g>
		<polygon class="st5" points="17.2,42 1.7,184 12,193.1 112.1,195.2 118.3,42 		"/>
		<line class="st6" x1="13.6" y1="75.2" x2="116.9" y2="77.3"/>
		<rect x="17.2" y="23.3" class="st7" width="101" height="18.7"/>
		<circle cx="67.8" cy="2.5" r="2.5"/>
		<circle class="st8" cx="22" cy="27.6" r="1.4"/>
		<circle class="st8" cx="22" cy="37.7" r="1.4"/>
		<circle class="st8" cx="113.6" cy="27.6" r="1.4"/>
		<circle class="st8" cx="113.6" cy="37.7" r="1.4"/>
		<path class="st9" d="M2.1,180.6c0,0,9.2,0.3,9.9,1.1c0.8,0.8,2.8,11.4,2.8,11.4h-3.1l-10-9.1L2.1,180.6z"/>
		<g>
			<g>
				<path d="M24.4,58.5c0.4-0.7,0.7-1.4,0.9-1.9c0.2-0.5,0.4-0.9,0.4-1.2l0.1-0.6h-1.3h-1.4v-2.2l1.4,0.1h1.3v-2.1
					c-1.5,0.2-2.3,0.3-2.3,0.2c-0.1-0.7-0.2-1.3-0.3-1.6L23,48.5c0.6,0.1,1.3,0,2,0c0.8,0,1.5-0.1,2.1-0.2c0.7-0.1,1.5-0.3,2.3-0.7
					c0.1,0.3,0.2,0.5,0.3,0.8c0.1,0.3,0.2,0.4,0.2,0.5l0.2,0.3l1.9,0.1l2.8,0.1v-1.6h2.4l-0.1,1.6l3.3,0.1h1.7v2.1l-1.7-0.1
					l-3.3-0.1v0.7l3.1,0.1h1.3l-0.1,1.4l-0.1,3.2v1.5h-0.9c0.2,0.3,0.3,0.5,0.4,0.7l0.7,1l0.3,0.5c-0.3,0.2-0.9,0.6-1.8,1.3
					c-0.2-0.4-0.4-0.7-0.6-1.2c-0.9,0-2.1,0-3.8,0H33c-0.9,0-1.8,0.1-2.8,0.2c0-0.4-0.1-0.6-0.1-0.7l-0.2-0.7
					c-0.1,0.1-0.4,0.3-0.7,0.5c-0.3,0.2-0.5,0.5-0.8,0.7c-0.3-0.6-0.4-1-0.5-1.1l-0.5-0.9l0.6,6.2v2h-2.2l0.1-2l0.1-4.6
					c-0.7,0.9-1.2,1.5-1.5,1.8l-1,1.1c-0.1-0.3-0.1-0.4-0.1-0.6c0-0.1-0.3-0.8-0.7-2.2C23.4,59.8,24,59.2,24.4,58.5z M29.3,52.8h1.1
					V55l-1.1-0.1h-1.1v1.8c0.4-0.2,0.7-0.4,1-0.7c0.2,0.4,0.5,0.9,0.7,1.3c0.2,0.4,0.4,0.7,0.6,1h0.1c0.4,0.1,0.8,0.1,1.2,0.1
					c0.4,0,1.5,0.1,3.2,0.1v-0.6l-2.8-0.1h-1.4l0.1-1.6L31,53l-0.1-1.5l1.8,0.1h2.4v-0.7l-2.8-0.1h-1.8v-1.3
					c-0.4,0.1-1.2,0.3-2.2,0.5v2.4L29.3,52.8z M30.5,61.4c0.2,0.1,0.6,0.2,1.4,0.5c-0.2,0.9-0.4,1.5-0.5,1.8
					c-0.1,0.4-0.2,0.8-0.4,1.3s-0.3,0.8-0.3,1l-0.3,0.8c-0.2-0.2-0.5-0.4-0.6-0.6c-0.2-0.2-0.6-0.4-1.3-0.8c0.1-0.2,0.2-0.3,0.3-0.5
					c0.1-0.1,0.2-0.5,0.5-1.1s0.4-1.2,0.6-1.9l0.1-0.8C30.1,61.3,30.4,61.4,30.5,61.4z M34.3,61l-0.1,1v1.8c0,0.3,0.1,0.6,0.2,0.7
					c0.1,0.1,0.5,0.2,1,0.2c1,0,1.5-0.2,1.6-0.7l0.2-0.8c0.3,0.2,0.5,0.3,0.8,0.5c0.2,0.1,0.7,0.3,1.4,0.6c-0.2,0.7-0.4,1.3-0.5,1.6
					c-0.2,0.4-0.3,0.6-0.6,0.8c-0.2,0.1-0.5,0.2-0.9,0.2s-0.9,0-1.7,0c-1.1,0-2-0.1-2.7-0.2c-0.6-0.2-1-0.6-1-1.2l0.1-3.4V61H34.3z
					 M35,56.3v-0.6h-2v0.6H35z M33,54.2h2v-0.7h-2V54.2z M36.1,63.5l-0.3,0.3c-0.5-1.1-0.9-1.7-1.1-2l-0.4-0.5
					c0.8-0.3,1.4-0.6,1.8-0.9c0.1,0.2,0.4,0.6,0.7,1.1s0.6,0.9,0.8,1.1C36.7,63.1,36.2,63.4,36.1,63.5z M38.7,58.6L38.3,58h-1.1v0.6
					H38.7z M39.4,56.4v-0.6h-2.2v0.6H39.4z M39.5,54.3v-0.7h-2.2v0.7H39.5z M38.5,61.8c0.2-0.1,0.6-0.4,1.2-0.9
					c0.9,1.2,1.8,2.5,2.8,3.9c-0.5,0.4-1.2,0.9-1.9,1.7c-0.2-0.4-0.3-0.7-0.5-1.1c-0.2-0.3-0.5-0.8-0.9-1.4s-0.7-1-0.8-1.2l-0.6-0.7
					C38.1,62,38.3,61.9,38.5,61.8z"/>
				<path d="M47,58.9c0.4-0.7,0.7-1.4,0.9-1.9s0.4-0.9,0.4-1.2l0.1-0.6h-1.3h-1.4V53l1.4,0.1h1.3V51c-1.5,0.2-2.3,0.3-2.3,0.2
					c-0.1-0.7-0.2-1.3-0.3-1.6L45.7,49c0.6,0.1,1.3,0,2,0c0.8,0,1.5-0.1,2.1-0.2c0.7-0.1,1.5-0.3,2.3-0.7c0.1,0.3,0.2,0.5,0.3,0.8
					s0.2,0.4,0.2,0.5l0.2,0.3l1.9,0.1l2.8,0.1v-1.6h2.4l0.1,1.5l3.3,0.1H65V52l-1.7-0.1L60,51.8v0.7l3.1,0.1h1.3L64.3,54l-0.1,3.2
					v1.5h-0.9c0.2,0.3,0.3,0.5,0.4,0.7l0.7,1l0.3,0.5c-0.3,0.2-0.9,0.6-1.8,1.3c-0.2-0.4-0.4-0.7-0.6-1.2c-0.9,0-2.1,0-3.8,0h-2.6
					c-0.9,0-1.8,0.1-2.8,0.2c0-0.4-0.1-0.6-0.1-0.7l-0.2-0.7c-0.1,0.1-0.4,0.3-0.7,0.5s-0.5,0.5-0.8,0.7c-0.3-0.6-0.4-1-0.5-1.1
					L50.3,59l-0.1,6.4v2H48l0.1-2l0.1-4.6c-0.7,0.9-1.2,1.5-1.5,1.8l-1,1.1c0.3-0.4,0.3-0.6,0.2-0.7c0-0.1-0.3-0.8-0.7-2.2
					C46,60.3,46.6,59.6,47,58.9z M51.9,53.2H53v2.2l-1.1-0.1h-1.1v1.8c0.4-0.2,0.7-0.4,1-0.7c0.2,0.4,0.5,0.9,0.7,1.3
					c0.2,0.4,0.4,0.7,0.6,1h0.1c0.4,0.1,0.8,0.1,1.2,0.1s1.5,0.1,3.2,0.1v-0.6l-2.8-0.1h-1.4l0.1-1.6l0.1-3.2l-0.1-1.5l1.8,0.1h2.4
					v-0.7l-2.8-0.1h-1.8v-1.3c-0.4,0.1-1.2,0.3-2.2,0.5v2.4L51.9,53.2z M53.1,61.9c0.2,0.1,0.6,0.2,1.4,0.5
					c-0.2,0.9-0.4,1.5-0.5,1.8c-0.1,0.4-0.2,0.8-0.4,1.3s-0.3,0.8-0.3,1L53,67.2c-0.2-0.2-0.5-0.4-0.6-0.6c-0.2-0.2-0.6-0.4-1.3-0.8
					c0.1-0.2,0.2-0.3,0.3-0.5c0.1-0.1,0.2-0.5,0.5-1.1s0.4-1.2,0.6-1.9l0.1-0.8C52.7,61.7,52.9,61.8,53.1,61.9z M56.9,61.4l-0.1,1.1
					v1.8c0,0.3,0.1,0.6,0.2,0.7c0.1,0.1,0.5,0.2,1,0.2c1,0,1.5-0.2,1.6-0.7l0.2-0.8c0.3,0.2,0.5,0.3,0.8,0.5
					c0.2,0.1,0.7,0.3,1.4,0.6c-0.2,0.7-0.4,1.3-0.5,1.6c-0.2,0.4-0.3,0.6-0.6,0.8c-0.2,0.1-0.5,0.2-0.9,0.2s-0.9,0-1.7,0
					c-1.1,0-2-0.1-2.7-0.2c-0.6-0.2-1-0.6-1-1.2l0.1-3.4v-1.1L56.9,61.4z M57.6,56.8v-0.6h-2v0.6H57.6z M55.6,54.6h2v-0.7h-2V54.6z
					 M58.7,64l-0.3,0.3c-0.5-1.1-0.9-1.7-1.1-2L57,61.7c0.8-0.3,1.4-0.6,1.8-0.9c0.1,0.2,0.4,0.6,0.7,1.1s0.6,0.9,0.8,1.1
					C59.3,63.5,58.8,63.9,58.7,64z M61.3,59l-0.4-0.6h-1.1V59H61.3z M62,56.9v-0.6h-2.2v0.6H62z M62.1,54.8v-0.7h-2.2v0.7H62.1z
					 M61.1,62.2c0.2-0.1,0.6-0.4,1.2-0.9c0.9,1.2,1.8,2.5,2.8,3.9c-0.5,0.4-1.2,0.9-1.9,1.7c-0.2-0.4-0.3-0.7-0.5-1.1
					c-0.2-0.3-0.5-0.8-0.9-1.4s-0.7-1-0.8-1.2l-0.6-0.7C60.6,62.5,60.9,62.4,61.1,62.2z"/>
				<path d="M70.7,58.6l5.9,0.1l0.1-6.5l-4.8-0.1h-2.1v-2.5l2.1,0.1L84.1,50h2.1v2.5L84,52.3l-4.6-0.1l-0.1,6.5H82
					c-0.2-0.2-0.4-0.4-0.6-0.6c-0.2-0.2-0.6-0.5-1.2-1c0.4-0.4,0.8-0.7,1-1s0.5-0.6,0.8-1.1s0.5-0.9,0.7-1.2l0.4-1
					c0.3,0.2,0.6,0.4,0.8,0.6c0.2,0.2,0.7,0.4,1.5,0.8c-0.8,1.3-1.3,2.1-1.5,2.5c-0.2,0.3-0.8,1-1.6,2l2.7,0.1h2.4l-0.1,2.6
					l-2.4-0.1l-5.6-0.1l-0.1,3.3v3.1l-2.8-0.1l0.1-3.1l0.1-3.3l-6-0.1h-2.3l0.1-2.6L70.7,58.6z M72.2,52.7c0.7,0.6,1.3,1.2,1.8,1.8
					s1,1.3,1.6,2.1c-0.7,0.5-1.4,1.1-2.1,1.9c-0.6-0.9-1.1-1.6-1.5-2.1s-1-1.2-1.9-1.9C70.9,53.8,71.6,53.3,72.2,52.7z"/>
				<path d="M91.1,57.6l2.6,0.1l3.8,0.1c0.4-0.6,0.8-1.3,1.1-1.8c0.3-0.6,0.5-1,0.6-1.3l0.2-0.5c0.8,0.4,1.6,0.7,2.6,1
					c-0.4,0.7-1,1.6-1.6,2.6L107,58h2.8v2.4l-2.9-0.1h-1.5c-0.2,0.7-0.4,1.4-0.7,2c-0.3,0.6-0.5,1.1-0.7,1.4l-0.3,0.5
					c1.4,0.6,3,1.4,5,2.3c-0.6,0.9-0.9,1.5-1,1.8l-0.3,0.6c-0.4-0.3-0.8-0.5-1.3-0.8c-0.4-0.3-1.8-1-4.2-2.1c-0.4,0.2-1,0.5-1.7,0.8
					s-1.8,0.7-3.4,0.9c-1.5,0.3-2.9,0.4-4.1,0.4c0-0.2-0.1-0.4-0.2-0.7c-0.1-0.3-0.3-0.9-0.7-1.8c0.4,0.1,0.8,0.1,1.3,0.1
					s1.4-0.1,2.6-0.3c1.2-0.2,2.3-0.5,3.2-0.9c-1.7-0.8-3.3-1.4-4.6-2c0.3-0.4,0.5-0.7,0.6-0.7l1.2-1.7h-2.4h-2.6L91.1,57.6z
					 M94.1,51.4l5.5,0.1c-0.2-0.6-0.6-1.1-1.1-1.8c0.8-0.3,1.5-0.6,2.3-1c0.6,0.8,1.1,1.6,1.5,2.4c-0.3,0.1-0.6,0.3-0.9,0.4l5.7,0.1
					h2.4l-0.1,1.6v1.9v1.4l-2.6-0.1l0.1-1.3v-1.3l-12.5-0.3v1.1v1.5L91.7,56l0.1-1.5v-1.6v-1.7L94.1,51.4z M101.1,63
					c0.4-0.4,0.7-0.8,1-1.3s0.4-0.9,0.5-1.1l0.2-0.5H99l-1,1.5C98.9,62,99.9,62.4,101.1,63z"/>
			</g>
		</g>
		<g>
			<path class="st10" d="M96.5,90.6c1.3,0,2-0.6,2.3-1.1c0.2-0.6,0-1.1-0.4-1.5c-0.7-0.6-2-0.8-2.9-0.4c-0.5,0.3-0.8,0.6-1,1.2h-2.1
				c0.2-1.1,0.9-2.1,2-2.7c1.3-0.7,3.3-0.7,4.8,0.1c1.4,0.8,2.3,2.2,1.3,3.9c-0.3,0.6-0.8,1-1.5,1.2c0.9,0.2,1.8,0.8,2.3,1.7
				c0.4,0.9,0.2,2.1-0.6,2.9c-1.3,1.4-3.7,1.6-5.7,1.2c-1.3-0.3-2.2-1.2-2.7-2.2c-0.1-0.3-0.2-0.7-0.3-1.1h2.1
				c0,0.7,0.6,1.2,1.3,1.5c0.9,0.3,2.5,0.4,3.4-0.2c0.4-0.3,0.7-1,0.5-1.6c-0.4-1.2-1.5-1.5-3-1.5h-1.1v-1.4H96.5z"/>
		</g>
		<g>
			<path class="st10" d="M95.1,119.5c0.3-0.2,0.6-0.5,0.9-0.8s0.5-0.6,0.6-0.7l0.1-0.2h-0.8l0.1-1.1l0.1-2.5v-0.9l1.4,0.1l6,0.1h1.5
				l-0.1,1v2.3v1.1l-1.4-0.1l-5.9-0.1c0.2,0.1,0.4,0.2,0.9,0.4c-0.2,0.2-0.4,0.4-0.6,0.6h1.8v-0.3v-0.6h1.6l-0.1,0.6v0.3l2.9,0.1
				h1.4v1.2l-1.4-0.1l-2.9-0.1v0.5h2h1.5v1.3l-1.5-0.1h-2v0.5l3.5,0.1h1.6v1.3l-1.7-0.1l-8.8-0.2h-1.5v-1.3l1.5,0.1l3.8,0.1v-0.5
				h-2.1h-1.3v-1.3l1.3,0.1h2.1v-0.5h-2.9c-0.5,0.5-1.1,0.9-1.6,1.3c-0.1-0.2-0.2-0.4-0.3-0.5c-0.1-0.1-0.3-0.4-0.6-0.7
				C94.5,119.8,94.9,119.7,95.1,119.5z M103.4,116.8v-0.5l-5.8-0.1v0.5L103.4,116.8z M103.4,115.2v-0.5l-5.8-0.1v0.5L103.4,115.2z"
				/>
			<path class="st10" d="M95,135.7c0.3-0.3,0.5-0.5,0.6-0.7l0.2-0.3c0.4,0.3,0.7,0.5,0.8,0.6l0.5,0.3c-0.7,0.8-1.2,1.3-1.6,1.6
				l-0.5,0.4c-0.1-0.1-0.2-0.3-0.3-0.4c-0.1-0.1-0.4-0.3-0.8-0.6C94.3,136.3,94.7,136,95,135.7z M93.9,133.3l0.9,0.1h0.4l0.1-3.9
				h-1.2v-1.3h1.2v-0.6v-0.7h1.5v0.7v0.6h1.7v-0.6v-0.7h1.5v0.7v0.6h0.9v1.3H100l-0.1,3.9h1v1.2H100l-5-0.1h-0.9L93.9,133.3z
				 M98.4,133.5v-0.7h-1.7v0.7H98.4z M98.4,131.7v-0.5h-1.7v0.5H98.4z M98.4,130.1v-0.5h-1.7v0.5H98.4z M98.3,135l0.2-0.3
				c0.2,0.1,0.3,0.3,0.5,0.4c0.2,0.1,0.3,0.2,0.3,0.3c0.1,0,0.2,0.2,0.5,0.4c-0.3,0.2-0.7,0.5-1,0.9c-0.3-0.3-0.5-0.5-0.6-0.6
				s-0.3-0.3-0.7-0.5C98,135.2,98.2,135,98.3,135z M105.4,137.1c0,0.1-0.1,0.3-0.2,0.5s-0.8,0.3-1.9,0.3c-0.1-0.5-0.2-0.8-0.3-1
				l-0.2-0.5c0.2,0,0.4,0,0.6,0.1c0.2,0,0.3,0,0.4-0.1s0.1-0.1,0.1-0.3v-2.2h-1.5c0,0.2-0.1,0.5-0.1,0.8c-0.1,0.3-0.2,0.8-0.5,1.3
				c-0.3,0.6-0.9,1.1-1.7,1.8c-0.4-0.4-0.8-0.7-1.3-0.9c0.6-0.3,1-0.6,1.3-1s0.5-0.7,0.7-1c0.1-0.3,0.2-0.7,0.2-1.2s0.1-1.1,0.1-1.9
				c0-0.8,0.1-1.2,0.1-1.3v-2.3v-0.8h1.1h2.1h1.2l-0.1,1L105.4,137.1z M104.1,132.8v-1.4h-1.4v1.4H104.1z M104.1,130.3v-1.6h-1.5
				v1.6H104.1z"/>
			<path class="st10" d="M105.4,145.5l-1.5-0.1l-8.5-0.2H94v-1.4l1.4,0.1l8.5,0.2h1.5V145.5z M95.6,149c0.4-0.4,0.8-0.8,1.1-1.2
				c0.3-0.5,0.5-0.8,0.6-1s0.2-0.4,0.3-0.7c0.6,0.3,1,0.5,1.2,0.6l0.4,0.1c-0.5,0.7-0.8,1.3-1.1,1.7c-0.2,0.4-0.6,0.8-1.1,1.3
				s-0.9,0.8-1.1,1l-0.6,0.5c-0.4-0.5-0.7-0.8-0.9-0.9L94,150C94.7,149.7,95.2,149.4,95.6,149z M99.5,141.1c0.4,0.4,0.9,1,1.6,1.8
				c-0.4,0.2-0.9,0.6-1.4,1c-0.4-0.5-0.6-0.9-0.8-1.1c-0.2-0.2-0.4-0.5-0.8-0.9C98.8,141.6,99.2,141.3,99.5,141.1z M101.7,146.4
				l0.3-0.2c0.8,0.9,1.3,1.6,1.7,2.1c0.4,0.5,0.9,1.2,1.6,2.1c-0.6,0.4-1.1,0.8-1.5,1.1c-0.2-0.4-0.5-0.8-0.6-1.1
				c-0.2-0.3-0.5-0.8-1-1.4c-0.5-0.6-1-1.3-1.7-2C101.1,146.8,101.5,146.6,101.7,146.4z"/>
		</g>
		<g>
			<path class="st10" d="M104.3,91.7l2.9,0.1h0.7v0.5l-0.1,4.5c0,0.2,0,0.3,0,0.3s-0.1,0.1-0.3,0.2c-0.2,0.1-0.6,0.2-1.2,0.2
				c0-0.1,0-0.2,0-0.3c0-0.1,0-0.2-0.1-0.3l-0.2-0.3c0.3,0,0.6,0,0.7,0s0.2,0,0.2-0.1c0,0,0-0.1,0-0.2v-1h-2.4
				c0,0.2-0.1,0.4-0.2,0.6s-0.2,0.4-0.4,0.7c-0.2,0.2-0.4,0.4-0.6,0.6l-0.3,0.2c-0.1-0.1-0.2-0.2-0.2-0.3c-0.1-0.1-0.2-0.2-0.4-0.3
				c0.1-0.1,0.3-0.1,0.5-0.3c0.2-0.1,0.4-0.3,0.5-0.7c0.1-0.3,0.2-0.7,0.3-1.3c0-0.5,0.1-0.9,0.1-1.1v-1.3v-0.4L104.3,91.7z
				 M106.9,94.7V94h-2.3v0.7H106.9z M106.9,93.3v-0.8h-2.3v0.8H106.9z"/>
		</g>
		<g>
			<path class="st10" d="M18.5,86c0.2-0.1,0.4-0.3,0.8-0.6c0.4-0.3,0.6-0.6,0.9-0.9c0.1,0.1,0.3,0.1,0.4,0.2v-0.3H20h-1.2v-1.2
				l1.2,0.1h0.6l-0.1-0.5h1.6L22,83.3h1.2v-0.5h1.6l-0.1,0.5h0.6h1.2v1.1l-1.3-0.1h-0.5v0.4h-1.6v-0.4h-1.2v0.4h-1.2l0.6,0.1
				l0.1,0.2l3.7,0.1h1L26,85.6c0.5-0.4,0.8-0.9,1-1.2c0.2-0.4,0.3-0.8,0.4-1.2l0.1-0.3c0.1,0.1,0.3,0.1,0.4,0.1s0.6,0.1,1.2,0.2
				c-0.1,0.3-0.2,0.5-0.2,0.6V84l3,0.1h1v1.2L32,85.2c-0.2,0.4-0.3,0.7-0.5,1S31,86.8,30.7,87c0.7,0.4,1.4,0.6,2.3,0.7
				c-0.1,0.1-0.2,0.3-0.3,0.4s-0.2,0.4-0.5,0.9c-1.1-0.4-2-0.7-2.6-1.1c-0.8,0.3-1.7,0.6-2.7,0.9l3.1,0.1h1.7V90L30,89.9l-3.2-0.1
				v0.4l2.9,0.1h1.5v0.9L29.4,91l-2.7-0.1v0.4l3,0.1h1.5v1l-1.6-0.1l-2.8-0.1v0.4l4.4,0.1h1.2l-0.1,0.8c0,0.3-0.1,0.6-0.1,0.9
				s-0.1,0.5-0.2,0.7c-0.1,0.2-0.3,0.3-0.5,0.5c-0.2,0.1-0.5,0.2-0.7,0.2c-0.3,0-0.6,0.1-1.1,0.1c0-0.3-0.1-0.4-0.1-0.5L29.2,95
				c-0.4,0.1-0.8,0.3-1.2,0.4c-0.1-0.5-0.4-1-0.7-1.6c0.3,0,0.7-0.1,1.2-0.3l-8.6-0.2c0.3,0.1,0.4,0.2,0.5,0.2l0.9,0.3
				c-0.2,0.3-0.4,0.6-0.6,0.9c-0.3,0.3-0.5,0.6-0.8,0.8c-0.4-0.2-0.8-0.4-1.4-0.6c0.3-0.2,0.5-0.5,0.8-0.7c0.2-0.3,0.4-0.5,0.5-0.7
				l0.1-0.2l0.1-0.9l0.1-3v-0.9l1.9,0.1h2.2c0-0.3-0.1-0.4-0.1-0.5l-0.2-0.5v0.7l-1-0.1l-2.5-0.1h-0.9l0.1-0.8v-0.8L19.2,87
				c-0.1-0.1-0.2-0.2-0.3-0.3c-0.1-0.1-0.4-0.2-0.9-0.5C18.2,86.2,18.4,86.1,18.5,86z M22.9,86.2h0.9l-0.1,0.6v0.8
				c0.3,0,0.5,0,0.6-0.1s0.2-0.2,0.2-0.5c0-0.2,0.1-0.4,0.1-0.6v-0.5l-3.9-0.1c-0.1,0.1-0.3,0.2-0.4,0.3L22.9,86.2z M22.3,87.5V87
				h-1.4v0.4L22.3,87.5z M25,92.6v-0.4l-3.6-0.1v0.4L25,92.6z M25,91.3v-0.4l-3.6-0.1v0.4L25,91.3z M25,90.1v-0.4l-3.6-0.1V90
				L25,90.1z M22,94.6c0-0.2,0-0.4,0-0.7v-0.3c0.4,0,0.9,0.1,1.5,0.1c0,0.1,0,0.3,0,0.4s0,0.3,0,0.5s0,0.4,0,0.5v0.2
				c-0.7,0-1.2,0-1.6,0C21.9,95.1,22,94.8,22,94.6z M26.7,88.8c-0.2-0.3-0.2-0.4-0.3-0.5l-0.5-0.5c-0.1,0.2-0.2,0.3-0.3,0.4
				c-0.1,0.2-0.6,0.3-1.5,0.5L26.7,88.8z M26.1,93.6c0.1,0.2,0.2,0.5,0.3,0.7c0.1,0.3,0.2,0.6,0.3,0.9c-0.7,0.1-1.2,0.2-1.6,0.3
				C25,95.2,25,95,24.9,94.8s-0.2-0.5-0.3-0.9C25.1,93.8,25.6,93.7,26.1,93.6z M27.4,86.3l-0.2,0.2c-0.4-0.2-0.8-0.4-1.1-0.5
				c0,0.4-0.1,0.7-0.1,0.8l-0.1,0.9c0.9-0.1,1.6-0.2,2.2-0.6C27.9,86.8,27.6,86.5,27.4,86.3z M28.5,85.4c0.1,0.1,0.2,0.2,0.3,0.4
				c0.1,0.1,0.3,0.3,0.7,0.5c0.4-0.4,0.6-0.7,0.7-0.9l0.1-0.3h-2c-0.1,0.2-0.3,0.4-0.4,0.6C28,85.7,28.3,85.6,28.5,85.4z M28.8,93.6
				c0.3,0.4,0.4,0.7,0.5,0.9l0.1,0.2c0.5,0,0.8,0,0.9-0.1s0.2-0.3,0.2-0.5v-0.4L28.8,93.6z"/>
			<path class="st10" d="M17.8,100.1l1.1,0.1h1.9v-0.5h-1.1h-1.2v-1.1l1.1,0.1h1.2v-0.8h1.6l-0.1,0.8h1.1h1.1v1.1h-1.1h-1.1v0.5h1.3
				h1.3v1.1H24h-0.7l0.7,0.3c-0.2,0.2-0.4,0.4-0.6,0.5h1.1v1.1h-1.1h-1v0.5h0.9h1.3v1c0.2-0.1,0.4-0.2,0.6-0.3
				c0.1-0.1,0.3-0.3,0.6-0.5c0.2-0.2,0.4-0.4,0.5-0.6l0.1-0.3c-0.5-0.3-0.9-0.5-1.3-0.7c0.5-0.5,0.7-0.7,0.8-0.8l0.2-0.2l0.8,0.5
				c0.1-0.3,0.1-0.4,0.1-0.5l0.1-0.5h-0.5h-1.3v-1.3l1.2,0.1h0.7c0-0.4,0-0.7,0-0.8v-0.8c0.4,0.1,1,0.1,1.7,0.1
				c-0.1,0.4-0.1,0.6-0.1,0.7v0.8h1.3h1.1c-0.1,0.3-0.1,0.6-0.2,0.9s-0.1,0.8-0.1,1.3c0,0.6,0,1,0,1.2c0,0.1,0,0.2,0,0.4
				c0,0.2,0.1,0.3,0.1,0.4s0,0.2,0.1,0.2c0,0,0.1,0,0.2-0.2c0.1-0.1,0.1-0.3,0.2-0.5l0.1-0.4c0.4,0.4,0.8,0.7,1.2,0.9
				c-0.4,1-0.7,1.6-0.9,1.9c-0.2,0.2-0.4,0.3-0.5,0.3s-0.3-0.1-0.6-0.2c-0.3-0.1-0.6-0.4-0.7-0.7c-0.2-0.4-0.3-0.8-0.5-1.3
				c-0.2,0.3-0.4,0.7-0.6,1c-0.4-0.4-0.8-0.7-1.2-1c-0.3,0.4-0.5,0.7-0.7,0.9c-0.2,0.2-0.6,0.5-1.1,0.9v0.3l3.7,0.1h1.4v0.9v1v0.9
				h-1.4c0.6,0.3,1.5,0.7,2.7,1.2c-0.1,0.2-0.2,0.3-0.3,0.4s-0.2,0.3-0.5,0.7c-0.5-0.3-1-0.5-1.6-0.8c-4.9,0.2-7.8,0.3-8.8,0.3
				s-1.6,0-1.9,0.1l-0.8,0.1c-0.1-0.4-0.1-0.6-0.1-0.7l-0.2-0.7c0.7,0,1.3,0.1,1.7,0.1c0.5,0,1.9,0,4.3,0v-0.7l-3.6-0.1h-1.3l0.1-1
				V107v-1.1l1.3,0.1H24v-0.6h1.2l-0.1-0.1l-0.7-0.5l0.1-0.1h-1.1h-1v1h-1.7l0.1-1h-1.6H18v-1.2l1.3,0.1h1.4v-0.5h-1.1h-1.4V102h1.2
				c-0.1-0.2-0.3-0.3-0.5-0.5c0.1,0,0.2-0.1,0.2-0.1l0.4-0.1l0.2-0.1h-0.9h-1.1L17.8,100.1z M21.2,101.9c-0.1,0.1-0.2,0.1-0.3,0.2
				h1.6c-0.2-0.1-0.3-0.1-0.5-0.2c0.3-0.2,0.5-0.4,0.6-0.6h-2C20.7,101.5,20.9,101.7,21.2,101.9z M24,107.7V107l-3.2-0.1v0.7
				L24,107.7z M27.8,109.4l-0.7-0.3l0.4-0.3h-2v0.6C26.3,109.4,27,109.4,27.8,109.4z M29.1,107.8v-0.7l-3.5-0.1v0.7L29.1,107.8z
				 M29.3,103.3c0-0.4-0.1-0.7-0.1-0.9c0-0.2,0-0.5,0-1v-0.6h-0.8c-0.1,0.4-0.1,0.6-0.1,0.7l-0.3,1
				C28.5,102.8,28.9,103.1,29.3,103.3z"/>
		</g>
	</g>
	<g>
		<g>
			<path class="st10" d="M53.1,135.8c0.5,3.6,3.2,6.1,6.8,6.2c4.3,0.1,7.1-3.1,7.2-8.4c0.1-5-2.6-8.1-7.2-8.2
				c-2.7-0.1-5.1,0.9-7.3,3.1l-7.6-1.1l5.2-22.5l24.8,0.5l-0.2,7.8l-17.7-0.4l-1.6,7.4c2.2-1,4.1-1.3,6.4-1.3
				c8.6,0.2,14.8,6.5,14.7,14.8c-0.2,8.8-7.5,15.1-17.1,14.9c-9-0.2-15-4.8-16-12.2L53.1,135.8z"/>
		</g>
	</g>
</g>
</svg>
