<?xml version="1.0" encoding="utf-8"?>
<!-- Generator: Adobe Illustrator 26.0.1, SVG Export Plug-In . SVG Version: 6.00 Build 0)  -->
<svg version="1.1" id="圖層_1" xmlns="http://www.w3.org/2000/svg" xmlns:xlink="http://www.w3.org/1999/xlink" x="0px" y="0px"
	 viewBox="0 0 120 200" style="enable-background:new 0 0 120 200;" xml:space="preserve">
<style type="text/css">
	.st0{fill:none;stroke:#525454;stroke-width:0.4692;stroke-miterlimit:10;}
	.st1{fill:#BBBCBC;}
	.st2{fill:#C8CACA;}
	.st3{fill:#D6D7D7;}
	.st4{fill:#E3E5E5;}
	.st5{fill:#FFFFFF;}
	.st6{fill:none;stroke:#DE4F43;stroke-width:0.6554;stroke-miterlimit:10;}
	.st7{fill:#DE4F43;}
	.st8{fill:#FFDE55;}
	.st9{fill:#E5E5E5;}
	.st10{fill:#026DB5;}
	.st11{fill:none;stroke:#026DB5;stroke-width:0.5735;stroke-miterlimit:10;}
</style>
<g>
	<g>
		<line class="st0" x1="17" y1="23.2" x2="68.2" y2="2.2"/>
		<line class="st0" x1="117.9" y1="23.2" x2="66.2" y2="2"/>
		<g>
			<rect x="17" y="40.9" class="st1" width="100.8" height="158.6"/>
			<polygon class="st2" points="116.1,198 15.3,198 18.2,39.8 116.1,39.4 			"/>
			<polygon class="st3" points="114.4,196.4 13.6,196.4 19.3,38.7 114.4,37.8 			"/>
			<polygon class="st4" points="112.7,194.8 11.8,194.8 20.4,37.6 112.7,36.2 			"/>
		</g>
		<polygon class="st5" points="17,41.9 1.6,183.6 11.8,192.7 111.7,194.8 117.9,41.9 		"/>
		<line class="st6" x1="13.4" y1="75" x2="116.4" y2="77.1"/>
		<rect x="17" y="23.2" class="st7" width="100.8" height="18.7"/>
		<circle cx="67.4" cy="2.5" r="2.5"/>
		<circle class="st8" cx="21.8" cy="27.5" r="1.4"/>
		<circle class="st8" cx="21.8" cy="37.6" r="1.4"/>
		<circle class="st8" cx="113.2" cy="27.5" r="1.4"/>
		<circle class="st8" cx="113.2" cy="37.6" r="1.4"/>
		<path class="st9" d="M1.9,180.2c0,0,9.2,0.3,9.9,1.1c0.7,0.8,2.8,11.4,2.8,11.4h-3.1l-9.9-9.1L1.9,180.2z"/>
		
			<rect x="21.7" y="164" transform="matrix(0.9998 2.028866e-02 -2.028866e-02 0.9998 3.5103 -0.5812)" class="st10" width="17.4" height="17.4"/>
		<g>
			<g>
				<path d="M24.2,58.3c0.4-0.7,0.7-1.3,0.9-1.8c0.2-0.5,0.4-0.9,0.4-1.2l0.1-0.6l-1.3,0l-1.4,0l0-2.2l1.4,0.1l1.3,0l0-2.1
					c-1.5,0.2-2.3,0.3-2.3,0.2c-0.1-0.7-0.2-1.3-0.3-1.6l-0.2-0.7c0.6,0.1,1.3,0,2,0c0.8,0,1.5-0.1,2.1-0.2c0.7-0.1,1.5-0.3,2.3-0.7
					c0.1,0.3,0.2,0.5,0.3,0.8c0.1,0.3,0.2,0.4,0.2,0.5l0.2,0.3l1.9,0.1l2.8,0.1l0-1.6l2.4,0l-0.1,1.6l3.3,0.1l1.7,0l0,2.1l-1.7-0.1
					l-3.3-0.1l0,0.7l3.1,0.1l1.3,0l-0.1,1.4l-0.1,3.2l0,1.5l-0.9,0c0.2,0.3,0.3,0.5,0.4,0.7l0.7,1l0.3,0.5c-0.3,0.2-0.9,0.6-1.8,1.3
					c-0.2-0.4-0.4-0.7-0.6-1.2c-0.9,0-2.1,0-3.8,0l-2.6,0c-0.9,0-1.8,0.1-2.8,0.2c0-0.4-0.1-0.6-0.1-0.7L30.3,59
					c-0.1,0.1-0.4,0.3-0.7,0.5c-0.3,0.2-0.5,0.5-0.8,0.7c-0.3-0.6-0.4-1-0.5-1.1l-0.5-0.8l-0.1,6.4l0,2l-2.2,0l0.1-2l0.1-4.6
					c-0.7,0.9-1.2,1.5-1.5,1.8l-1,1.1c-0.1-0.3-0.1-0.4-0.1-0.6c0-0.1-0.3-0.8-0.7-2.2C23.2,59.7,23.8,59.1,24.2,58.3z M29,52.6
					l1.1,0l0,2.2L29,54.8l-1,0l0,1.8c0.4-0.2,0.7-0.4,1-0.7c0.2,0.4,0.5,0.9,0.7,1.3c0.2,0.4,0.4,0.7,0.6,1l0.1,0
					c0.4,0.1,0.8,0.1,1.2,0.1c0.4,0,1.4,0.1,3.2,0.1l0-0.6l-2.8-0.1l-1.4,0l0.1-1.6l0.1-3.2l-0.1-1.4l1.8,0.1l2.4,0l0-0.7L32,51.1
					l-1.8,0l0-1.3c-0.4,0.1-1.2,0.3-2.2,0.5l0,2.4L29,52.6z M30.3,61.3c0.2,0.1,0.6,0.2,1.4,0.5c-0.2,0.9-0.4,1.5-0.5,1.8
					c-0.1,0.4-0.2,0.8-0.4,1.3c-0.2,0.5-0.3,0.8-0.3,1l-0.3,0.7c-0.2-0.2-0.5-0.4-0.6-0.6c-0.2-0.2-0.6-0.4-1.3-0.8
					c0.1-0.2,0.2-0.3,0.3-0.5c0.1-0.1,0.2-0.5,0.5-1.1c0.3-0.6,0.4-1.2,0.6-1.9l0.1-0.8C29.9,61.1,30.1,61.2,30.3,61.3z M34.1,60.9
					l-0.1,1l0,1.8c0,0.3,0.1,0.6,0.2,0.7c0.1,0.1,0.5,0.2,1,0.2c1,0,1.5-0.2,1.6-0.7l0.2-0.8c0.3,0.2,0.5,0.3,0.8,0.5
					s0.7,0.3,1.4,0.6c-0.2,0.7-0.4,1.3-0.5,1.6c-0.2,0.4-0.3,0.6-0.6,0.8c-0.2,0.1-0.5,0.2-0.9,0.2c-0.4,0-0.9,0-1.7,0
					c-1.1,0-2-0.1-2.7-0.2c-0.6-0.2-1-0.6-1-1.2l0.1-3.4l0-1.1L34.1,60.9z M34.7,56.2l0-0.6l-2,0l0,0.6L34.7,56.2z M32.8,54.1l2,0
					l0-0.7l-2,0L32.8,54.1z M35.9,63.4l-0.3,0.3c-0.5-1.1-0.9-1.7-1.1-2l-0.4-0.5c0.8-0.3,1.4-0.6,1.8-0.9c0.1,0.2,0.4,0.6,0.7,1.1
					c0.3,0.5,0.6,0.9,0.8,1.1C36.5,62.9,36,63.3,35.9,63.4z M38.5,58.4l-0.4-0.6l-1.1,0l0,0.6L38.5,58.4z M39.2,56.3l0-0.6l-2.2,0
					l0,0.6L39.2,56.3z M39.2,54.2l0-0.7l-2.2,0l0,0.7L39.2,54.2z M38.3,61.7c0.2-0.1,0.6-0.4,1.2-0.9c0.9,1.2,1.8,2.5,2.8,3.9
					c-0.5,0.4-1.2,0.9-1.9,1.7c-0.2-0.4-0.3-0.7-0.5-1.1c-0.2-0.3-0.5-0.8-0.9-1.4c-0.4-0.6-0.7-1-0.8-1.1L37.6,62
					C37.8,61.9,38,61.8,38.3,61.7z"/>
				<path d="M46.8,58.8c0.4-0.7,0.7-1.3,0.9-1.8c0.2-0.5,0.4-0.9,0.4-1.2l0.1-0.6l-1.3,0l-1.4,0l0-2.2l1.4,0.1l1.3,0l0-2.1
					c-1.5,0.2-2.3,0.3-2.3,0.2c-0.1-0.7-0.2-1.3-0.3-1.6l-0.2-0.7c0.6,0.1,1.3,0,2,0c0.8,0,1.5-0.1,2.1-0.2c0.7-0.1,1.5-0.3,2.3-0.7
					c0.1,0.3,0.2,0.5,0.3,0.8c0.1,0.3,0.2,0.4,0.2,0.5l0.2,0.3l1.9,0.1l2.8,0.1l0-1.6l2.4,0l-0.1,1.6l3.3,0.1l1.7,0l0,2.1l-1.7-0.1
					l-3.3-0.1l0,0.7l3.1,0.1l1.3,0L64,53.7l-0.1,3.2l0,1.5l-0.9,0c0.2,0.3,0.3,0.5,0.4,0.7l0.7,1l0.3,0.5c-0.3,0.2-0.9,0.6-1.8,1.3
					c-0.2-0.4-0.4-0.7-0.6-1.2c-0.9,0-2.1,0-3.8,0l-2.6,0c-0.9,0-1.8,0.1-2.8,0.2c0-0.4-0.1-0.6-0.1-0.7l-0.2-0.7
					c-0.1,0.1-0.4,0.3-0.7,0.5c-0.3,0.2-0.5,0.5-0.8,0.7c-0.3-0.6-0.4-1-0.5-1.1l-0.5-0.8l-0.1,6.4l0,2l-2.2,0l0.1-2l0.1-4.6
					c-0.7,0.9-1.2,1.5-1.5,1.8l-1,1.1c-0.1-0.3-0.1-0.4-0.1-0.6c0-0.1-0.3-0.8-0.7-2.2C45.7,60.1,46.3,59.5,46.8,58.8z M51.6,53.1
					l1.1,0l0,2.2l-1.1-0.1l-1,0l0,1.8c0.4-0.2,0.7-0.4,1-0.7c0.2,0.4,0.5,0.9,0.7,1.3c0.2,0.4,0.4,0.7,0.6,1l0.1,0
					c0.4,0.1,0.8,0.1,1.2,0.1c0.4,0,1.4,0.1,3.2,0.1l0-0.6l-2.8-0.1l-1.4,0l0.1-1.6l0.1-3.2l-0.1-1.4l1.8,0.1l2.4,0l0-0.7l-2.8-0.1
					l-1.8,0l0-1.3c-0.4,0.1-1.2,0.3-2.2,0.5l0,2.4L51.6,53.1z M52.9,61.8c0.2,0.1,0.6,0.2,1.4,0.5c-0.2,0.9-0.4,1.5-0.5,1.8
					c-0.1,0.4-0.2,0.8-0.4,1.3c-0.2,0.5-0.3,0.8-0.3,1L52.7,67c-0.2-0.2-0.5-0.4-0.6-0.6c-0.2-0.2-0.6-0.4-1.3-0.8
					c0.1-0.2,0.2-0.3,0.3-0.5c0.1-0.1,0.2-0.5,0.5-1.1c0.3-0.6,0.4-1.2,0.6-1.9l0.1-0.8C52.5,61.6,52.7,61.7,52.9,61.8z M56.6,61.3
					l-0.1,1l0,1.8c0,0.3,0.1,0.6,0.2,0.7c0.1,0.1,0.5,0.2,1,0.2c1,0,1.5-0.2,1.6-0.7l0.2-0.8c0.3,0.2,0.5,0.3,0.8,0.5
					c0.2,0.1,0.7,0.3,1.4,0.6c-0.2,0.7-0.4,1.3-0.5,1.6c-0.2,0.4-0.3,0.6-0.6,0.8c-0.2,0.1-0.5,0.2-0.9,0.2c-0.4,0-0.9,0-1.7,0
					c-1.1,0-2-0.1-2.7-0.2c-0.6-0.2-1-0.6-1-1.2l0.1-3.4l0-1.1L56.6,61.3z M57.3,56.7l0-0.6l-2,0l0,0.6L57.3,56.7z M55.4,54.5l2,0
					l0-0.7l-2,0L55.4,54.5z M58.4,63.8l-0.3,0.3c-0.5-1.1-0.9-1.7-1.1-2l-0.4-0.5c0.8-0.3,1.4-0.6,1.8-0.9c0.1,0.2,0.4,0.6,0.7,1.1
					c0.3,0.5,0.6,0.9,0.8,1.1C59,63.4,58.5,63.7,58.4,63.8z M61,58.9l-0.4-0.6l-1.1,0l0,0.6L61,58.9z M61.7,56.8l0-0.6l-2.2,0l0,0.6
					L61.7,56.8z M61.8,54.6l0-0.7l-2.2,0l0,0.7L61.8,54.6z M60.8,62.1c0.2-0.1,0.6-0.4,1.2-0.9c0.9,1.2,1.8,2.5,2.8,3.9
					c-0.5,0.4-1.2,0.9-1.9,1.7c-0.2-0.4-0.3-0.7-0.5-1.1c-0.2-0.3-0.5-0.8-0.9-1.4c-0.4-0.6-0.7-1-0.8-1.1l-0.6-0.7
					C60.4,62.4,60.6,62.2,60.8,62.1z"/>
				<path d="M70.4,58.4l5.9,0.1l0.1-6.5L71.6,52h-2.1l0-2.5l2.1,0.1l12,0.2l2.1,0l0,2.5l-2.1-0.1L79,52.1l-0.1,6.5l2.7,0
					c-0.2-0.2-0.4-0.4-0.6-0.6c-0.2-0.2-0.6-0.5-1.2-1c0.4-0.4,0.7-0.7,1-1c0.2-0.3,0.5-0.6,0.8-1.1c0.3-0.5,0.5-0.9,0.7-1.2l0.4-1
					c0.3,0.2,0.6,0.4,0.8,0.6c0.2,0.2,0.7,0.4,1.5,0.8c-0.8,1.3-1.3,2.1-1.5,2.5c-0.2,0.3-0.8,1-1.6,2l2.7,0.1l2.4,0l-0.1,2.6
					l-2.4-0.1l-5.6-0.1l-0.1,3.3l0,3.1L76,67.4l0.1-3.1l0.1-3.3l-5.9-0.1l-2.3,0l0.1-2.6L70.4,58.4z M71.8,52.6
					c0.7,0.6,1.3,1.2,1.8,1.8c0.5,0.6,1,1.3,1.6,2c-0.7,0.5-1.4,1.1-2.1,1.9c-0.6-0.9-1.1-1.6-1.5-2.1c-0.4-0.5-1-1.2-1.8-1.9
					C70.6,53.7,71.3,53.2,71.8,52.6z"/>
				<path d="M90.8,57.5l2.6,0.1l3.8,0.1c0.4-0.6,0.8-1.3,1.1-1.8c0.3-0.6,0.5-1,0.6-1.3l0.2-0.5c0.8,0.4,1.6,0.7,2.6,1
					c-0.4,0.7-1,1.6-1.6,2.6l6.6,0.1l2.8,0l0,2.4l-2.9-0.1l-1.5,0c-0.2,0.7-0.4,1.4-0.7,2c-0.3,0.6-0.5,1.1-0.7,1.3l-0.3,0.5
					c1.4,0.6,3,1.4,5,2.3c-0.6,0.9-0.9,1.5-1,1.8l-0.3,0.6c-0.4-0.3-0.8-0.5-1.3-0.8c-0.4-0.3-1.8-1-4.2-2.1c-0.4,0.2-1,0.5-1.7,0.8
					c-0.7,0.3-1.8,0.7-3.4,0.9c-1.5,0.3-2.9,0.4-4.1,0.4c0-0.2-0.1-0.4-0.2-0.7s-0.3-0.9-0.7-1.8c0.4,0,0.8,0.1,1.3,0.1
					s1.4-0.1,2.6-0.3c1.2-0.2,2.3-0.5,3.1-0.9c-1.7-0.8-3.2-1.4-4.6-2c0.3-0.4,0.5-0.7,0.6-0.7l1.2-1.7l-2.3,0l-2.6,0L90.8,57.5z
					 M93.7,51.2l5.5,0.1c-0.2-0.6-0.6-1.1-1.1-1.8c0.8-0.3,1.5-0.6,2.3-1c0.6,0.8,1.1,1.6,1.5,2.4c-0.3,0.1-0.6,0.3-0.9,0.4l5.6,0.1
					l2.4,0l-0.1,1.6l0,1.9l0,1.4l-2.6-0.1l0.1-1.3l0-1.3L94,53.4l0,1.1l0,1.4l-2.6-0.1l0.1-1.5l0-1.6l0-1.7L93.7,51.2z M100.8,62.9
					c0.4-0.4,0.7-0.8,1-1.3c0.3-0.5,0.4-0.9,0.5-1.1l0.2-0.5L98.6,60l-1,1.4C98.5,61.8,99.5,62.3,100.8,62.9z"/>
			</g>
		</g>
		<g>
			<g>
				<path class="st10" d="M51.7,176.8c-0.2,0.4-0.5,0.7-0.8,1.1c-0.1-0.1-0.2-0.2-0.2-0.2l-0.3-0.2l-0.3-0.3
					c0.1-0.1,0.2-0.2,0.3-0.3c0.1-0.1,0.2-0.3,0.4-0.6c0.2-0.3,0.3-0.5,0.4-0.7l0.2-0.4c0.3,0.2,0.7,0.4,1,0.6
					C52.1,176,51.9,176.4,51.7,176.8z M54.8,173.3l-1.2,0l0,0.7l0.8,0l0.7,0l0,1.1l-0.6,0l-0.8,0l0,0.7c0.2-0.2,0.3-0.3,0.4-0.4
					l0.2-0.2c0.1,0.1,0.2,0.2,0.3,0.2l0.3,0.3l0.3,0.3l0.3,0.3c-0.1,0.1-0.2,0.2-0.2,0.3l-0.2,0.2l-0.2,0.3l-0.3-0.4
					c-0.1-0.1-0.3-0.3-0.7-0.7l0,1.4c0,0.2,0,0.8,0,0.8l-1.2,0l0-0.8l0.1-2.3l-1.1,0l-0.6,0l0-1.1l0.6,0l1.2,0l0-0.7l-1.4,0l-0.7,0
					l0-1.1l0.6,0l0.6,0c-0.1-0.3-0.3-0.6-0.4-0.8c0.2-0.1,0.4-0.2,0.6-0.3l-0.6,0l-0.7,0l0-1.1l0.9,0l1,0c0-0.1-0.1-0.2-0.2-0.4
					c-0.1-0.2-0.1-0.3-0.1-0.3c0.3-0.1,0.7-0.2,1-0.4c0.1,0.2,0.2,0.3,0.3,0.5c0.1,0.2,0.2,0.3,0.2,0.3l0.1,0.2l-0.1,0.1l1,0l0.9,0
					l0,1.1l-0.7,0l-0.4,0c0.2,0.1,0.4,0.2,0.5,0.2c-0.1,0.3-0.3,0.6-0.4,0.9l0.4,0l0.7,0l0,1.1L54.8,173.3z M52.3,171.1
					c0.1,0.1,0.2,0.3,0.3,0.5c0.1,0.2,0.2,0.3,0.3,0.5l-0.3,0.2l1,0l-0.3-0.1c0.2-0.4,0.3-0.6,0.4-0.7l0.1-0.3L52.3,171.1z
					 M58.6,173.3l-0.1,4.3l0,1l-1.2,0l0-1l0.1-4.3l-0.7,0c0,0.4,0,0.4,0,0.6c0,0.2,0,0.6-0.1,1c0,0.5-0.1,0.9-0.1,1.2
					c-0.1,0.3-0.2,0.7-0.4,1.2c-0.2,0.4-0.4,0.8-0.7,1l-0.4,0.3c-0.1-0.1-0.2-0.2-0.3-0.3c-0.1-0.1-0.3-0.3-0.7-0.6
					c0.3-0.2,0.6-0.4,0.8-0.6c0.2-0.2,0.3-0.5,0.4-0.8c0.1-0.3,0.2-0.6,0.2-1c0-0.3,0.1-0.7,0.1-1.1c0-0.4,0.1-1.1,0.1-1.9l0-1.7
					l0-1.1c0.5,0,1,0,1.5-0.1c0.4-0.1,0.9-0.2,1.2-0.3l0.4-0.2c0.1,0.2,0.2,0.3,0.2,0.4c0.1,0.1,0.3,0.3,0.6,0.8
					c-0.2,0-0.3,0.1-0.5,0.1c-0.2,0-1,0.2-2.2,0.3l0,1.5l1.7,0l1,0l0,1.1L58.6,173.3z"/>
				<path class="st10" d="M62.5,173.4l-1.1,0l0-1.2l1.1,0.1l2.8,0.1l0-1.3c-0.5,0-1.5,0.1-3,0.1c-0.1-0.5-0.2-0.8-0.2-1l-0.1-0.3
					c0.5,0.1,0.9,0.1,1.3,0.1c0.4,0,1.2,0,2.5,0c1.3,0,2.4-0.2,3.3-0.5c0.3,0.6,0.5,0.9,0.6,0.9l0.2,0.3c-0.6,0.1-1,0.1-1.4,0.2
					c-0.3,0-1,0.1-1.9,0.1l0,1.5l2.8,0.1l1.1,0l0,1.2l-1.1,0l-2.3,0c0.2,0.3,0.3,0.5,0.4,0.7c0.1,0.2,0.3,0.5,0.6,0.8
					c0.3,0.3,0.6,0.7,1,1c0.4,0.3,0.7,0.5,0.9,0.6c0.2,0.1,0.5,0.2,0.7,0.3c-0.1,0.2-0.3,0.3-0.4,0.5c-0.1,0.2-0.3,0.4-0.4,0.7
					c-0.3-0.2-0.7-0.4-1-0.7c-0.4-0.2-0.7-0.5-1.1-0.9c-0.4-0.4-0.8-0.9-1.3-1.7l-0.1,2.7l0,1.1l-1.3,0l0.1-1.1l0.1-2.6
					c-0.4,0.5-0.7,0.8-1,1c-0.2,0.2-0.5,0.5-0.9,0.8c-0.4,0.3-0.7,0.5-0.9,0.6l-0.7,0.4c-0.2-0.3-0.5-0.7-0.8-1.1
					c0.4-0.1,0.7-0.3,1.1-0.5c0.4-0.2,0.8-0.6,1.4-1.1c0.5-0.5,0.9-1,1.1-1.3l0.2-0.3L62.5,173.4z"/>
				<path class="st10" d="M73.4,177.1c0,0.1-0.1,0.3-0.1,0.6c-0.1,0.3-0.1,0.5-0.1,0.5l-0.1,0.4c-0.1-0.1-0.2-0.1-0.2-0.2l-0.5-0.4
					l-0.2-0.2c0.1-0.2,0.1-0.3,0.2-0.4c0-0.1,0.1-0.3,0.1-0.5c0.1-0.2,0.1-0.4,0.1-0.5l0.1-0.4c0.3,0.1,0.6,0.3,0.9,0.3
					C73.5,176.8,73.4,177,73.4,177.1z M75.4,175.9c0-0.2-0.1-0.3-0.1-0.5c-0.3,0.1-0.7,0.1-1.1,0.2c-0.4,0.1-0.9,0.1-1.4,0.3
					c0-0.1,0-0.2-0.1-0.2c0-0.1-0.1-0.3-0.3-0.8c0.2-0.1,0.3-0.2,0.5-0.5c0.2-0.2,0.5-0.7,1-1.3c-0.2,0-0.4,0-0.5,0s-0.3,0-0.4,0
					c-0.1,0-0.2,0-0.4,0.1c-0.1-0.5-0.2-0.7-0.2-0.8l-0.1-0.2c0.2-0.2,0.4-0.4,0.5-0.6c0.1-0.2,0.3-0.4,0.6-0.9
					c0.3-0.4,0.4-0.6,0.4-0.7l0.2-0.4c0.1,0.1,0.2,0.1,0.2,0.2c0.1,0,0.3,0.2,0.7,0.4c-0.1,0.2-0.2,0.3-0.3,0.4
					c-0.1,0.1-0.4,0.6-1.1,1.6c0.3,0,0.6,0,1,0c0.3-0.5,0.5-0.8,0.5-0.9l0.1-0.3c0.4,0.3,0.7,0.5,1,0.6c-0.4,0.5-0.5,0.8-0.6,0.9
					l-1.6,2.3c0.3-0.1,0.6-0.1,1-0.1c0-0.1-0.1-0.2-0.1-0.2l-0.1-0.3c0.1,0,0.2,0,0.2,0c0.1,0,0.3-0.1,0.7-0.3
					c0.3,0.7,0.5,1.2,0.6,1.3l0.2,0.5C76.2,175.6,75.9,175.7,75.4,175.9z M73.8,178.3c0-0.1,0-0.2,0-0.3c0-0.1,0-0.3,0-0.5
					c0-0.3,0-0.5,0-0.5l-0.1-0.5c0.4,0,0.6-0.1,0.9-0.1c0,0.2,0,0.4,0.1,0.5l0.1,0.9l0.1,0.5C74.6,178.1,74.2,178.2,73.8,178.3z
					 M76.2,178.2c0-0.1-0.1-0.3-0.1-0.4c-0.4,0.1-0.6,0.2-0.7,0.3c0-0.1,0-0.2-0.1-0.2l-0.1-0.5c-0.1-0.3-0.2-0.7-0.3-1
					c0.3-0.1,0.5-0.1,0.6-0.2l0.3-0.1c0.1,0.2,0.1,0.5,0.2,0.8l0,0.1c0.3-0.1,0.6-0.3,0.9-0.4c0.3-0.2,0.5-0.3,1-0.7
					c0,0.2,0,0.3,0,0.5c0,0.1,0,0.2,0,0.3l0,0.4C77.1,177.5,76.7,177.8,76.2,178.2z M81.6,177.7c-0.1,0.1-0.2,0.4-0.4,0.8
					c-0.4-0.3-0.7-0.6-1-0.8c-0.3-0.3-0.5-0.5-0.6-0.6l-0.4-0.5l0,1.4c0,0.3,0,0.5-0.1,0.6c-0.1,0.1-0.1,0.2-0.2,0.3
					c-0.1,0.1-0.2,0.1-0.3,0.1c-0.1,0-0.5,0.1-1,0.1c-0.1-0.5-0.2-0.8-0.3-1l-0.1-0.3c0.5,0.1,0.8,0.1,0.9,0s0.1-0.2,0.1-0.3
					l0.1-3.5l-1.2,0l-1.1,0l0-1l1.1,0.1l1.8,0l0.2-0.5c-0.5,0-0.9,0-1.3,0c0,0.1-0.1,0.3-0.1,0.3c-0.3,0-1-0.2-1.2-0.3
					c0.1-0.2,0.3-0.6,0.4-0.9c0.2-0.5,0.3-1,0.5-1.5c0.1-0.3,0.1-0.5,0.1-0.7l1.2,0.3l-0.2,0.4l1.7,0l0.7,0l-0.7,2.5l-0.1,0.4l0.5,0
					l1.1,0l0,1l-1.1,0l-1.3,0l0,0.4c0.1,0.3,0.2,0.6,0.3,0.7l0.2,0.3c0.1-0.1,0.3-0.2,0.4-0.3c0.1-0.1,0.2-0.2,0.3-0.4
					c0.1-0.1,0.2-0.2,0.3-0.4c0.2,0.3,0.5,0.6,0.8,0.8c-0.1,0.1-0.2,0.2-0.3,0.4c-0.1,0.2-0.3,0.3-0.5,0.5c-0.1,0.1-0.2,0.2-0.3,0.3
					c0.3,0.3,0.5,0.5,0.7,0.7c0.2,0.1,0.4,0.3,0.8,0.4C81.7,177.4,81.6,177.5,81.6,177.7z M77.5,175.7l-0.2,0.2
					c-0.4-0.5-0.8-0.9-1.1-1.2c0.3-0.2,0.6-0.4,0.8-0.7c0.4,0.4,0.7,0.8,1,1.1C77.7,175.5,77.5,175.6,77.5,175.7z M78.1,171.1
					l-0.1,0.4l1.3,0l0.1-0.4L78.1,171.1z"/>
				<path class="st10" d="M88.4,174.1l-0.7-0.4c0.4-0.2,0.7-0.3,0.8-0.5c0.1-0.2,0.2-0.4,0.3-0.6l0-0.2l-0.8,0l0-0.9l0.6,0l1.3,0
					l0-0.4l-0.9,0l-0.3,0.4c-0.3-0.1-0.6-0.2-0.9-0.3c0.3-0.4,0.5-0.7,0.6-0.9l0.1-0.4c0.3,0.1,0.6,0.2,1,0.2l-0.2,0.3l0.6,0l0-0.2
					l0-0.5l1.1,0l0,0.5l0,0.2l0.6,0l0.7,0l0,0.9l-0.8,0l-0.6,0l0,0.4l0.9,0l0.8,0l0,0.9l-0.7,0l-0.6,0l0,0.5c0,0.1,0,0.2,0,0.2
					c0,0.1,0.1,0.1,0.3,0.1c0.1,0,0.2,0,0.2-0.1c0.1,0,0.1-0.1,0.1-0.2l0.1-0.4c0.4,0.2,0.7,0.3,0.9,0.4c-0.1,0.2-0.1,0.4-0.2,0.6
					c-0.1,0.2-0.2,0.3-0.3,0.4c-0.1,0.1-0.3,0.1-0.4,0.1c-0.2,0-0.4,0-0.8,0c-0.2,0-0.4,0-0.6-0.1c-0.2,0-0.3-0.1-0.3-0.2
					c0-0.1-0.1-0.2-0.1-0.4l0-1l-0.5,0c0,0.2,0,0.3-0.1,0.4c0,0.1-0.1,0.3-0.2,0.5c-0.1,0.2-0.2,0.4-0.4,0.5l-0.3,0.3l1.7,0l1.2,0
					l0,0.7l-0.1,2.5l0,0.7l-0.9,0l-0.7,0c0.4,0.1,0.8,0.2,1.1,0.2c0.4,0.1,0.8,0.2,1.3,0.3c-0.1,0.1-0.1,0.2-0.2,0.3
					c0,0.1-0.1,0.3-0.3,0.6c-0.3-0.1-0.6-0.2-0.9-0.3c-0.3-0.1-1.1-0.3-2.3-0.5c0.2-0.2,0.3-0.3,0.3-0.4l0.1-0.2l-3-0.1
					c0.2,0.2,0.4,0.4,0.6,0.6c-0.6,0.2-1.1,0.3-1.6,0.4c-0.4,0.1-0.9,0.2-1.5,0.2c0-0.1-0.1-0.2-0.1-0.3s-0.2-0.3-0.4-0.6
					c0.5,0,0.9,0,1.3-0.1c0.4-0.1,0.8-0.2,1.2-0.3l-0.6,0l-0.9,0l0-0.9l0-2.3l0-0.6l-0.3,0.3c-0.3-0.3-0.5-0.5-0.5-0.5l-0.3-0.2
					c0.7-0.3,1.1-0.7,1.1-1.2l0-0.3l-0.4,0l-0.6,0l0-0.9l0.6,0l0.3,0c-0.2-0.1-0.4-0.2-0.8-0.3c0.3-0.4,0.5-0.8,0.5-1l0.1-0.5
					c0.4,0.2,0.7,0.3,0.9,0.3l-0.2,0.3l0.5,0l0-0.7l1.1,0l0,0.7l0.5,0l0.7,0l0,0.8l-0.7,0l-0.5,0l0,0.4l0.7,0l0.7,0l0,0.9l-0.6,0
					l-0.4,0l0,0.6c0.3-0.1,0.6-0.2,0.9-0.3c0,0.2,0,0.3,0,0.4c0,0.1,0,0.2,0,0.2l0,0.2c-0.6,0.2-1.1,0.3-1.8,0.6
					c-0.1-0.3-0.2-0.4-0.2-0.5l-0.1-0.2c0.1,0,0.1-0.1,0.2-0.1c0-0.1,0.1-0.2,0.1-0.3l0-0.5l-0.5,0c0,0.2,0,0.3-0.1,0.5
					c0,0.1-0.1,0.3-0.2,0.6c-0.1,0.2-0.3,0.4-0.6,0.7L88.4,174.1z M85.5,171.5l0-0.4l-0.8,0l-0.3,0.4L85.5,171.5z M90.6,177.2l0-0.4
					l-5.1-0.1l0,0.4L90.6,177.2z M90.6,176.2l0-0.3l-5.1-0.1l0,0.3L90.6,176.2z M90.6,175.2l0-0.4l-5.1-0.1l0,0.4L90.6,175.2z"/>
			</g>
		</g>
		<g>
			<g>
				<path class="st5" d="M26.8,175.9l0.3,0l0.1-4.2l0-1.1l1.3,0.1l3.3,0.1l1.3,0l-0.1,1.1l-0.1,4.2l0.1,0l1.4,0l0,1.2l-1.4-0.1
					l-6.1-0.1l-1.3,0l0-1.2L26.8,175.9z M28.9,168.3c0.3-0.1,0.7-0.3,1.1-0.5c0.2,0.2,0.3,0.4,0.5,0.6s0.3,0.4,0.4,0.6
					c0,0-0.1,0.1-0.3,0.2l2.6,0.1l1.2,0l0,0.6l0,1.1l0,0.5l-1.3,0l0-0.5l0-0.6l-6.3-0.1l0,0.6l0,0.5l-1.3,0l0-0.5l0-1.1l0-0.6
					l1.2,0.1l2.6,0.1C29.3,168.8,29.1,168.6,28.9,168.3z M31.5,176l0-0.9l-3.2-0.1l0,0.9L31.5,176z M28.4,173.4l0,0.7l3.2,0.1l0-0.7
					L28.4,173.4z M31.6,172.5l0-0.7l-3.2-0.1l0,0.7L31.6,172.5z"/>
			</g>
		</g>
		<g>
			<path class="st10" d="M96.6,94.6L92,94.5l0-1.7l5-6.3l1.8,0L98.8,93l1.4,0l0,1.7l-1.4,0l0,2l-2.1,0L96.6,94.6z M96.7,89.5
				L96.7,89.5l-2.7,3.4l2.6,0.1L96.7,89.5z"/>
		</g>
		<g>
			<path class="st10" d="M94.8,119.2c0.3-0.2,0.6-0.5,0.9-0.8c0.3-0.3,0.5-0.6,0.6-0.7l0.1-0.2l-0.7,0l0.1-1.1l0-2.5l0-0.9l1.4,0.1
				l6,0.1l1.5,0l-0.1,1l0,2.3l0,1.1l-1.4-0.1l-5.9-0.1c0.2,0.1,0.4,0.2,0.9,0.4c-0.2,0.2-0.4,0.4-0.6,0.6l1.8,0l0-0.3l0-0.6l1.6,0
				l-0.1,0.6l0,0.3l2.8,0.1l1.4,0l0,1.2l-1.4-0.1l-2.8-0.1l0,0.5l2,0l1.5,0l0,1.3l-1.5-0.1l-2,0l0,0.5l3.4,0.1l1.6,0l0,1.3l-1.7-0.1
				l-8.7-0.2l-1.5,0l0-1.3l1.5,0.1l3.8,0.1l0-0.5l-2.1,0l-1.3,0l0-1.3l1.3,0.1l2.1,0l0-0.5l-2.9,0c-0.5,0.5-1.1,0.9-1.6,1.3
				c-0.1-0.2-0.2-0.4-0.3-0.5c-0.1-0.1-0.3-0.4-0.6-0.7C94.2,119.6,94.5,119.4,94.8,119.2z M103,116.5l0-0.5l-5.8-0.1l0,0.5
				L103,116.5z M103,114.9l0-0.5l-5.8-0.1l0,0.5L103,114.9z"/>
			<path class="st10" d="M94.6,135.4c0.3-0.3,0.5-0.5,0.6-0.7l0.2-0.3c0.4,0.3,0.7,0.5,0.8,0.6l0.5,0.3c-0.7,0.8-1.2,1.3-1.6,1.6
				l-0.5,0.4c-0.1-0.1-0.2-0.3-0.3-0.4c-0.1-0.1-0.4-0.3-0.8-0.6C93.9,136,94.3,135.7,94.6,135.4z M93.6,133.1l0.9,0.1l0.4,0
				l0.1-3.9l-1.2,0l0-1.3l1.2,0l0-0.6l0-0.7l1.5,0l0,0.7l0,0.6l1.7,0l0-0.6l0-0.7l1.5,0l0,0.7l0,0.6l0.9,0l0,1.3l-0.9,0l-0.1,3.9
				l1,0l0,1.2l-0.9,0l-5-0.1l-0.9,0L93.6,133.1z M98,133.2l0-0.7l-1.7,0l0,0.7L98,133.2z M98,131.4l0-0.5l-1.7,0l0,0.5L98,131.4z
				 M98.1,129.8l0-0.5l-1.7,0l0,0.5L98.1,129.8z M97.9,134.7l0.2-0.3c0.2,0.1,0.3,0.3,0.5,0.4c0.2,0.1,0.3,0.2,0.3,0.3
				c0.1,0,0.2,0.2,0.5,0.4c-0.3,0.2-0.7,0.5-1,0.9c-0.3-0.3-0.5-0.5-0.6-0.6s-0.3-0.3-0.7-0.5C97.6,134.9,97.8,134.7,97.9,134.7z
				 M105,136.8c0,0.1-0.1,0.3-0.2,0.5c-0.1,0.2-0.8,0.3-1.9,0.3c-0.1-0.5-0.2-0.8-0.3-1l-0.2-0.5c0.2,0,0.4,0,0.6,0.1
				c0.2,0,0.3,0,0.4-0.1c0.1-0.1,0.1-0.1,0.1-0.3l0-2.2l-1.5,0c0,0.2-0.1,0.5-0.1,0.8c-0.1,0.3-0.2,0.8-0.5,1.3
				c-0.3,0.6-0.9,1.1-1.7,1.8c-0.4-0.4-0.8-0.7-1.3-0.9c0.6-0.3,1-0.6,1.3-1c0.3-0.4,0.5-0.7,0.7-1c0.1-0.3,0.2-0.7,0.2-1.2
				c0-0.5,0.1-1.1,0.1-1.9c0-0.8,0.1-1.2,0.1-1.3l0-2.3l0-0.8l1.1,0l2.1,0l1.2,0l-0.1,1L105,136.8z M103.7,132.5l0-1.4l-1.4,0l0,1.4
				L103.7,132.5z M103.7,130l0-1.6l-1.5,0l0,1.6L103.7,130z"/>
			<path class="st10" d="M95.2,148.9l8,0.2l1.7,0l0,1.5l-1.7-0.1l-8-0.2l-1.5,0l0-1.5L95.2,148.9z M95.9,141.8l6.8,0.1l1.7,0l0,1.5
				l-1.7-0.1l-6.8-0.1l-1.5,0l0-1.5L95.9,141.8z M95.3,145.2l1.4,0.1l5.2,0.1l1.4,0l0,1.5l-1.4-0.1l-5.2-0.1l-1.4,0L95.3,145.2z"/>
		</g>
		<g>
			<path class="st10" d="M103.9,91.5l2.9,0.1l0.7,0l0,0.5l-0.1,4.5c0,0.2,0,0.3,0,0.3c0,0-0.1,0.1-0.3,0.2c-0.2,0.1-0.5,0.2-1.2,0.2
				c0-0.1,0-0.2,0-0.3c0-0.1,0-0.2-0.1-0.3l-0.2-0.3c0.3,0,0.6,0,0.7,0c0.1,0,0.1,0,0.2-0.1c0,0,0-0.1,0-0.2l0-1l-2.4,0
				c0,0.2-0.1,0.4-0.2,0.6c-0.1,0.2-0.2,0.4-0.4,0.7c-0.2,0.2-0.4,0.4-0.6,0.6l-0.3,0.2c-0.1-0.1-0.2-0.2-0.2-0.3
				c-0.1-0.1-0.2-0.2-0.4-0.3c0.1-0.1,0.3-0.1,0.5-0.3c0.2-0.1,0.4-0.3,0.5-0.7c0.1-0.3,0.2-0.7,0.3-1.3c0-0.5,0.1-0.9,0.1-1.1
				l0-1.3l0-0.4L103.9,91.5z M106.5,94.5l0-0.7l-2.3,0l0,0.7L106.5,94.5z M106.5,93.1l0-0.8l-2.3,0l0,0.8L106.5,93.1z"/>
		</g>
		
			<rect x="18.6" y="161.8" transform="matrix(0.9998 2.028866e-02 -2.028866e-02 0.9998 3.5292 -1.2036)" class="st11" width="85.1" height="23"/>
		<g>
			<path class="st10" d="M32.2,94.7c-0.1,0.2-0.2,0.3-0.3,0.5l-0.2,0.4c-0.8-0.4-1.4-0.6-1.7-0.8c-0.3-0.2-0.7-0.4-1.1-0.8
				c-0.6,0.4-1.1,0.6-1.5,0.8c-0.4,0.2-1,0.4-1.8,0.7c0-0.1-0.1-0.2-0.1-0.4c-0.1-0.1-0.3-0.5-0.7-1c-0.2,0.1-0.3,0.2-0.4,0.3
				l-0.3,0.3c-0.6-0.4-0.6-0.4-0.9-0.7c-0.3-0.3-0.7-0.6-1-1l-0.1,1.8l0,0.6l-1.2,0l-0.5,0l0.1-0.7l0.1-1.3
				c-0.2,0.2-0.3,0.4-0.7,0.6L19,94.8c-0.3-0.3-0.6-0.5-0.7-0.6l-0.6-0.3c0.2-0.1,1-0.6,1.1-0.7c0.3-0.2,0.8-0.6,1.1-1l-0.9,0l-1,0
				l0-1.2l1,0.1l1.6,0l0-0.4c-0.8,0-1.2,0.1-1.8,0.1c-0.1-0.4-0.2-0.7-0.3-0.8l-0.2-0.5c0.8,0,1.1,0,1.9,0c0.8,0,1.5-0.1,2.1-0.1
				c0.6-0.1,0.9-0.2,1.6-0.3c0.3,0.4,0.5,0.8,0.7,1l0.3,0.4c-1.1,0.1-1.6,0.2-2.7,0.3l0,0.5l1.7,0l1.3,0l0,1.2l-1.1-0.1l-1,0
				c0.1,0.2,0.3,0.2,0.4,0.3c0.2,0.2,0.4,0.3,0.7,0.5c0.3,0.2,0.6,0.3,1.3,0.6c-0.2,0.1-0.4,0.3-0.6,0.4c1-0.2,2-0.6,2.8-1.1
				c-0.1-0.2-0.2-0.3-0.3-0.4c-0.1-0.1-0.3-0.4-0.6-0.9c-0.3-0.5-0.4-0.8-0.5-1l-0.1-0.4c0.2,0,0.4-0.1,0.4-0.1l0.5-0.2l-0.6,0
				l-0.9,0l0-1.4l1.1,0.1l4.6,0.1l0.5,0.6c-0.1,0.3-0.2,0.6-0.3,1c-0.1,0.4-0.3,0.8-0.5,1.3c-0.2,0.5-0.5,1-0.9,1.4
				c0.5,0.5,1.4,0.9,2.6,1.2C32.5,94.4,32.3,94.6,32.2,94.7z M23.4,88.7l0.1-0.6l0-0.6l-4-0.1l0,0.7l0,0.6l-1.5,0l0-0.8l0-0.7l0-1
				l0.8,0l1.6,0l2.5,0.1l1.5,0l0.7,0l0,0.8l0,0.9l0,0.7L23.4,88.7z M23.8,84.4l-1.3,0l0,0.4l1.1,0l0.8,0l0,1.2l-1.1-0.1l-3.4-0.1
				l-1,0l0-1.2l0.9,0l1.1,0l0-0.4l-1.6,0l-0.9,0l0-1.2l0.9,0l1.6,0l0-0.6l1.7,0l-0.1,0.6l1.3,0l1.1,0l0,1.2L23.8,84.4z M22,89
				l-1.6,0l-0.8,0l0-1.1l0.9,0.1l1.5,0l1.1,0l0,1.1L22,89z M32.5,87.2c0,0.2-0.1,0.4-0.1,0.5l0,0.4c-1.2,0-2-0.1-2.2-0.1
				c-0.3-0.1-0.5-0.2-0.6-0.3c-0.2-0.2-0.2-0.4-0.2-0.8l0.1-2.5l-1.2,0c0,0.3,0,0.6-0.1,1c0,0.4-0.1,0.8-0.3,1.2
				c-0.1,0.4-0.3,0.7-0.5,1c-0.2,0.3-0.4,0.6-0.8,0.9c-0.1-0.1-0.2-0.2-0.4-0.4c-0.1-0.1-0.5-0.3-1.1-0.7c0.1-0.1,0.3-0.2,0.5-0.3
				c0.2-0.1,0.4-0.4,0.5-0.7c0.2-0.3,0.3-0.7,0.3-1c0-0.3,0-0.6,0-1c0-0.5,0-0.8,0-0.9l0-0.5l1,0l2.6,0.1l1,0L31,84l0,2.1
				c0,0.2,0,0.4,0.1,0.5c0.1,0.1,0.2,0.1,0.5,0.1l0.5,0l0.6,0C32.6,86.8,32.5,87,32.5,87.2z M27.8,90c0.2,0.5,0.4,0.8,0.5,1
				c0.1,0.3,0.3,0.5,0.6,0.9c0.4-0.5,0.6-1,0.8-1.5l0.1-0.3L27.8,90z"/>
			<path class="st10" d="M20.2,98.2l9.8,0.2l1.9,0l0,1.6L30,99.9l-4-0.1l0,1.4l3.2,0.1l2.4,0l-0.1,2.3l-0.1,6c0,0.3,0,0.5-0.1,0.6
				c0,0.1-0.2,0.2-0.4,0.2c-0.2,0.1-0.6,0.1-1.1,0.1c-0.5,0-1,0.1-1.3,0.1c-0.1-0.6-0.2-1.1-0.3-1.3l-0.2-0.4c0.7,0.1,1.1,0.1,1.2,0
				c0.1,0,0.2,0,0.3-0.1c0,0,0.1-0.2,0.1-0.5l0.1-5.5l-3.7-0.1l-0.1,5.7l0,1.9l-1.8,0l0.1-1.9l0.1-5.7l-3.8-0.1l-0.1,6l0,1.8l-1.9,0
				l0.1-1.8l0.1-5.3l0-2.3l2.5,0.1l3.2,0.1l0-1.4l-4-0.1l-2.1,0l0-1.6L20.2,98.2z M21.8,105.7c0.4,0.4,1,1,1.8,1.9
				c-0.5,0.4-0.9,0.7-1.3,1.2c-0.4-0.5-0.7-0.9-0.9-1.1c-0.2-0.3-0.5-0.6-0.9-0.9C21,106.4,21.4,106,21.8,105.7z M22,102.9
				c0.2,0.2,0.5,0.4,0.9,0.9c0.5,0.4,0.8,0.7,0.9,0.8c-0.1,0.1-0.3,0.2-0.3,0.3l-0.6,0.6l-0.3,0.3c-0.4-0.4-0.7-0.8-1-1
				c-0.2-0.2-0.6-0.5-0.9-0.8C21.1,103.6,21.6,103.2,22,102.9z M26.5,106.4c0.1-0.1,0.4-0.3,0.8-0.7c0.4,0.4,1.1,0.9,2,1.7
				c-0.5,0.5-0.8,0.9-1.1,1.2c-0.1-0.1-0.3-0.3-0.5-0.5c-0.2-0.2-0.7-0.6-1.6-1.3C26.3,106.6,26.4,106.5,26.5,106.4z M26.8,103.6
				c0.1-0.1,0.4-0.3,0.7-0.6c0.5,0.5,1.2,1,1.9,1.6c-0.2,0.3-0.6,0.7-1.1,1.3c-0.7-0.7-1.4-1.3-2-1.9
				C26.5,103.8,26.6,103.7,26.8,103.6z"/>
		</g>
	</g>
	<g>
		<g>
			<path class="st10" d="M57.9,152.4L25,151.7c0.2-1.9,0.9-3.9,1.8-5.7c1.8-3.5,5.3-7.3,12.3-12.8c6.7-5.3,7.8-6.3,9.1-8.7
				c0.5-1,0.8-2,0.8-3.3c0.1-3.6-2.2-5.8-6.2-5.9c-4.1-0.1-6.4,2.1-6.8,6.6l-9.3-1c0.8-5.8,3.5-9.3,8.1-11.1c2.7-1,5.3-1.5,8.4-1.4
				c9.3,0.2,15.4,5.2,15.2,12.4c-0.1,2.5-1,5.4-2.3,7.4c-2.1,3.3-3.5,4.7-9,9c-6.1,4.8-6.5,5.2-7.8,7l18.6,0.4L57.9,152.4z"/>
			<path class="st10" d="M90.2,131.6c-0.3,14.9-5.6,22-16.3,21.8c-6.3-0.1-11.3-3.2-13.4-8.4c-1.6-3.7-2.2-8-2-14.1
				c0.3-14.8,5.6-21.9,16.3-21.7C85.4,109.4,90.5,116.7,90.2,131.6z M68.3,131.2c-0.2,11.3,1.3,15.3,5.7,15.4
				c4.5,0.1,6.2-3.9,6.4-15.1c0.2-11.3-1.3-15.3-5.8-15.4C70.1,116,68.5,119.9,68.3,131.2z"/>
		</g>
	</g>
</g>
<g>
	<g>
		<line class="st0" x1="338.8" y1="23.2" x2="389.9" y2="2.2"/>
		<line class="st0" x1="439.6" y1="23.2" x2="387.9" y2="2"/>
		<g>
			<rect x="338.8" y="40.9" class="st1" width="100.8" height="158.6"/>
			<polygon class="st2" points="437.8,198 337,198 339.9,39.8 437.8,39.4 			"/>
			<polygon class="st3" points="436.1,196.4 335.3,196.4 341,38.7 436.1,37.8 			"/>
			<polygon class="st4" points="434.4,194.8 333.6,194.8 342.1,37.6 434.4,36.2 			"/>
		</g>
		<polygon class="st5" points="338.8,41.9 323.3,183.6 333.6,192.7 433.4,194.8 439.6,41.9 		"/>
		<line class="st6" x1="335.1" y1="75" x2="438.2" y2="77.1"/>
		<rect x="338.8" y="23.2" class="st7" width="100.8" height="18.7"/>
		<circle cx="389.2" cy="2.5" r="2.5"/>
		<circle class="st8" cx="343.5" cy="27.5" r="1.4"/>
		<circle class="st8" cx="343.5" cy="37.6" r="1.4"/>
		<circle class="st8" cx="434.9" cy="27.5" r="1.4"/>
		<circle class="st8" cx="434.9" cy="37.6" r="1.4"/>
		<path class="st9" d="M323.6,180.2c0,0,9.2,0.3,9.9,1.1c0.7,0.8,2.8,11.4,2.8,11.4h-3.1l-9.9-9.1L323.6,180.2z"/>
		
			<rect x="343.4" y="164" transform="matrix(0.9998 2.028866e-02 -2.028866e-02 0.9998 3.5765 -7.1085)" class="st10" width="17.4" height="17.4"/>
		<g>
			
				<text transform="matrix(0.9998 2.029008e-02 -2.029008e-02 0.9998 343.5054 64.8447)" style="font-family:'CHei2HK-Xbold-B5pc-H'; font-size:20.9748px; letter-spacing:1;">穗穗平安</text>
		</g>
		<g>
			
				<text transform="matrix(0.9998 2.029008e-02 -2.029008e-02 0.9998 367.6779 177.519)" class="st10" style="font-family:'CHei2HK-Xbold-B5pc-H'; font-size:10.3292px;"> 新禾綠贊 </text>
		</g>
		<g>
			
				<text transform="matrix(0.9998 2.029008e-02 -2.029008e-02 0.9998 346.4177 176.4273)" class="st5" style="font-family:'CHei2HK-Xbold-B5pc-H'; font-size:10.3292px;">宜</text>
		</g>
		
			<text transform="matrix(1.1268 2.286672e-02 -2.029008e-02 0.9998 417.9969 84.1126)" class="st10" style="font-family:'CHei2HK-Xbold-B5pc-H'; font-size:14.0265px;glyph-orientation-vertical:0;writing-mode:tb; letter-spacing:1;">4</text>
		
			<text transform="matrix(1.1268 2.286672e-02 -2.029008e-02 0.9998 421.7271 112.1764)" class="st10" style="font-family:'CHei2HK-Xbold-B5pc-H'; font-size:11.631px;glyph-orientation-vertical:0;writing-mode:tb; letter-spacing:2;">星期三</text>
		
			<text transform="matrix(1.1268 2.286672e-02 -2.029008e-02 0.9998 426.9735 91.0373)" class="st10" style="font-family:'CHei2HK-Xbold-B5pc-H'; font-size:6.2963px;glyph-orientation-vertical:0;writing-mode:tb;">月</text>
		
			<rect x="340.3" y="161.8" transform="matrix(0.9998 2.028866e-02 -2.028866e-02 0.9998 3.5954 -7.7309)" class="st11" width="85.1" height="23"/>
		
			<text transform="matrix(1.1268 2.286672e-02 -2.029008e-02 0.9998 347.1165 81.9303)" class="st10" style="font-family:'CHei2HK-Xbold-B5pc-H'; font-size:14.0265px;glyph-orientation-vertical:0;writing-mode:tb; letter-spacing:1;">穀雨</text>
	</g>
	<g>
		
			<text transform="matrix(1.1268 2.287799e-02 -2.030008e-02 0.9998 344.9205 151.6588)" class="st10" style="font-family:'CHei2HK-Xbold-B5pc-H'; font-size:60.5538px; letter-spacing:-5.3;">20</text>
	</g>
</g>
</svg>
