<?xml version="1.0" encoding="utf-8"?>
<!-- Generator: Adobe Illustrator 22.0.1, SVG Export Plug-In . SVG Version: 6.00 Build 0)  -->
<svg version="1.1" id="圖層_1" xmlns="http://www.w3.org/2000/svg" xmlns:xlink="http://www.w3.org/1999/xlink" x="0px" y="0px"
	 viewBox="0 0 100 100" style="enable-background:new 0 0 100 100;" xml:space="preserve">
<style type="text/css">
	.st0{fill:#FFFFFF;}
	.st1{clip-path:url(#SVGID_2_);}
	.st2{fill:#B95542;}
	.st3{fill:#461827;}
	.st4{fill:#FFA097;}
	.st5{fill:#FF837E;}
	.st6{fill:#3A0A1B;}
	.st7{fill:#A64132;}
	.st8{fill:#6F3F4D;}
	.st9{fill:#FFEFDB;}
	.st10{fill:#F0A755;}
	.st11{fill:#5A3B47;}
	.st12{fill:#CE5252;}
</style>
<g>
	<circle class="st0" cx="38.9" cy="60" r="38.9"/>
	<g>
		<defs>
			<path id="SVGID_1_" d="M100,1.1H0v66.9h0.8c3.7,17.6,19.3,30.8,38,30.8s34.3-13.2,38-30.8H100V1.1z"/>
		</defs>
		<clipPath id="SVGID_2_">
			<use xlink:href="#SVGID_1_"  style="overflow:visible;"/>
		</clipPath>
		<g class="st1">
			<g>
				<g>
					<g>
						<path class="st2" d="M67.6,52.6c-4.1-1.4-8.4-7.9-11.8-12.2c-1-1.3-1.9-3.5-4.4-4.7c-1.5-0.8-4.8-2.1-6.3-1.3
							c-2.4,1.3-2,4.8-1.1,7.4c2,5.6,6.5,9.5,11,13.5c4.2,3.7,8.6,7.2,14,7C68.1,59.2,67.6,55.9,67.6,52.6z"/>
					</g>
					<g>
						<path class="st3" d="M62.1,59.4c0-2.8,0.4-5.5,1.1-8.2c-1,1.1-1.9,2.4-2.1,3.9C60.8,56.6,61.1,58.3,62.1,59.4z"/>
					</g>
					<g>
						<path class="st4" d="M73.1,48.7c-1.6,1-3.6,3-5.1,3.4c-0.8,0.2-1.6,0.1-2.4-0.1c-0.1,3,0.4,6,1.4,8.8c0.3,0,0.6,0,1-0.1
							c4.5-0.6,6.5-2,9.8-5.1c3.3-3.1,8.4-9.2,11-12.9c-1.3-1.3-3.2-1.5-4.5-2.8C80.3,43.6,76.4,46.6,73.1,48.7z"/>
					</g>
					<path class="st4" d="M97.9,33.7c-0.1-0.2-0.3-0.2-0.5-0.2c0,0-0.1,0-0.1,0c0.1-0.1,0.1-0.3,0-0.4c-0.1-0.2-0.3-0.2-0.5-0.2
						c-0.2,0-0.3,0.1-0.5,0.2c-0.5,0.3-0.9,0.7-1.4,1.1c-1.9,1.6-5.2,3.4-7.7,3.9c0-0.2,0.1-0.5,0.1-0.7c0-0.3,0-0.6,0.1-0.9
						c0.1-0.2,0.3-0.3,0.5-0.5c0.5-0.4,1-0.8,1.3-1.4c0.2-0.3,0.4-0.7,0.5-1.2c0-0.4-0.2-0.9-0.5-1.1c-1.3,1.1-2.7,2.3-3.7,3.7
						c-1.4,2-2.2,4-3.9,6.4l5.7,2.6c1.9-1.1,3.9-2.3,5.7-3.7c2.2-1.6,3.5-2.5,5.1-4.8c0.1-0.1,0.2-0.3,0.2-0.5
						c0-0.2-0.1-0.4-0.2-0.5c0,0,0,0-0.1,0c0.1-0.2,0.3-0.4,0.3-0.6c0.1-0.2,0.1-0.6-0.1-0.7c0,0-0.1,0-0.1,0
						C98,34.1,98,33.8,97.9,33.7z"/>
					<g>
						<path class="st5" d="M66.2,57.4c0.2,1.1,0.5,2.3,0.9,3.4c0.3,0,0.6,0,1-0.1c4.5-0.6,6.5-2,9.8-5.1c2.5-2.4,6.6-7.2,9.6-10.7
							c0.6-0.3,1.6-1,2.8-1.7c-1.1,0.3-2.4,0.6-3.6,1.9C79.7,51.8,74.9,55.7,66.2,57.4z"/>
					</g>
					<g>
						<path class="st2" d="M68.1,62.4c-0.4-0.1-0.8,0-1.1,0.3c-0.3,0.2-0.6,0.5-1,0.7c-1,0.5-2.3,0.1-3-0.7c-0.7-0.8-1-2-1.2-3.1
							c-0.3-1.9-0.3-3.8,0.1-5.6c0.3-1.1,0.8-2.2,1.4-3.1c0.5-0.7,1.4-1,2.3-0.7c0.3,0.1,0.6,0.2,0.8,0.2c0.7,0.1,1.5,0,2,0.5
							c0.5,0.5,0.5,1.3,0.5,2c0,2.4,0.1,4.8,0.9,7c0.2,0.6,0.5,1.2,0.4,1.9c-0.1,0.6-0.7,1.3-1.3,1.1C68.6,62.7,68.4,62.5,68.1,62.4
							z"/>
					</g>
					<g>
						<path class="st6" d="M69.2,62.8l-0.3,0.1c-1.1-4-1.6-8.2-1.5-12.4l0.3,0C67.6,54.6,68.1,58.8,69.2,62.8z"/>
					</g>
					<g>
						<path class="st6" d="M63.8,63.1l-0.3,0.1c-1.3-4.3-0.8-9,1.4-12.9l0.3,0.1C63,54.3,62.5,58.9,63.8,63.1z"/>
					</g>
					<path class="st5" d="M87,42.7l-0.1-0.1c1.8-1.5,3.9-2.5,6.2-3l0,0.2C90.8,40.2,88.7,41.2,87,42.7z"/>
					<path class="st5" d="M93.7,39l-0.1-0.2c0.7-0.3,1.5-1.1,2.4-2c0.3-0.3,0.6-0.6,0.9-0.9c0.1-0.1,0.3-0.2,0.4-0.3
						c0.2-0.1,0.4-0.1,0.6,0l-0.1,0.2c-0.1-0.1-0.3-0.1-0.4,0c-0.1,0.1-0.3,0.2-0.4,0.3c-0.3,0.3-0.6,0.6-0.9,0.9
						C95.3,37.8,94.4,38.7,93.7,39z"/>
					<path class="st5" d="M93.3,38.2L93.2,38c1.2-0.6,1.9-1.3,2.6-2l0.1-0.2c0.4-0.4,0.8-0.9,1.3-1.3c0.2-0.2,0.5-0.3,0.7-0.3l0,0.2
						c-0.2,0-0.4,0.1-0.5,0.2c-0.5,0.4-0.9,0.8-1.3,1.3l-0.1,0.2C95.3,36.8,94.5,37.6,93.3,38.2z"/>
					<path class="st5" d="M92.9,37.2l-0.1-0.2c0.5-0.2,1.7-1.3,2.3-1.9c0.5-0.5,1.1-1.1,1.7-1.5c0.1-0.1,0.3-0.2,0.4-0.2l0.1,0.2
						c-0.1,0-0.2,0.1-0.4,0.2c-0.6,0.4-1.2,1-1.7,1.5C94.7,35.8,93.5,37,92.9,37.2z"/>
				</g>
				<g>
					<g>
						<path class="st4" d="M38.4,41.9c2-0.7,5-3.8,6.3-7.2c-0.2-0.1-0.4-0.2-0.6-0.4c-1.8-1.6-3.5-4.4-3.5-6.9l-8.8,1.2
							c0,2.4,0.2,5.2-1.6,6.8c-0.2,0.2-0.4,0.3-0.6,0.5C31.6,39.8,34.1,42.9,38.4,41.9z"/>
					</g>
					<g>
						<path class="st5" d="M40.7,27.4l-8.8,1.2c0,0.8,0,1.6,0,2.3c1.1,3.8,3,7.4,4.4,11.1c0.7,0.1,1.4,0,2.2-0.2
							c1.1-0.4,2.6-1.6,4-3.2c-0.3-2.6-0.6-5.2-0.7-7.8C41.1,29.7,40.7,28.5,40.7,27.4z"/>
					</g>
					<g>
						<path class="st3" d="M38.4,34.2c1.4-0.8,2.5-1.9,3.3-3.1c-0.6-1.2-1.1-2.5-1.1-3.7l-8.8,1.2c0,0.9,0,1.9,0,2.8
							C33.3,33.7,35.3,35.5,38.4,34.2z"/>
					</g>
				</g>
				<g>
					<g>
						<path class="st2" d="M23.9,59.1c0.8,5.5,0.4,7.6,0.7,13.1h26.9c0.3-5.6,0.3-11.2,1.1-16.7c0.4-2.6,0.8-5.3,0.8-8
							c0-2.7-0.6-7.4-2.2-9.5c-2.8-3.7-4.7-2.7-6.4-3.7c-1.3,3.2-3.4,5.6-5.3,6.3c-4.3,1-7.8-1.5-9.8-5.1c-2.3,1.6-6.9,3.5-8.2,5.3
							c-1.6,2.1-0.6,4.2-0.6,6.9C20.7,50.3,23.5,56.4,23.9,59.1z"/>
					</g>
					<g>
						<path class="st7" d="M29.9,56c-1.4,0.9-2.9,2.1-2.8,3.7c6.2-2.1,12.7-3.6,19.2-4.4c0.4-0.1,0.9-0.1,1.3,0.1
							c0.4,0.2,0.7,0.6,0.6,1c-7.1,1.1-14.1,3.3-20.7,6.3c5.6-1.2,11.5-1.9,17.1-0.6c-5,0.1-9.9,1-14.8,2.1
							c-1.2,0.3-2.5,0.6-3.4,1.4c-0.9,0.8-1.3,2.4-0.4,3.3c0.9,1,2.7,1,3,2.3c0.1,0.3,0,0.6-0.1,0.9h22.4c0.1-1.6,0.2-3.1,0.2-4.7
							c-0.9-0.8-1.1-2.1-0.6-3.2c0.3-0.5,0.7-1.2,0.3-1.7c-0.1-0.2-0.4-0.2-0.6-0.3c-2.2-0.7-4.4-1.4-6.6-2.1
							c2.1-0.4,4.1-0.9,6.2-1.3c0.7-0.1,1.6-0.6,1.4-1.3c-0.2-0.7-1.3-0.9-1.3-1.6c0-0.5,0.6-0.8,0.7-1.3c0-0.4-0.3-0.8-0.5-1.2
							c-0.3-0.8,0.3-1.6,0.9-2.1c0.6-0.5,1.3-1.1,1.5-1.9c0.2-0.9-0.4-1.8-1.1-2.3c-0.8-0.5-1.7-0.6-2.6-0.7
							c-1.8-0.2-3.6-0.5-5.5-0.7c-1.3-0.2-2.5-0.3-3.8-0.1c-1.2,0.3-2.5,1-2.9,2.2c4.2-0.7,8.4-0.6,12.6,0.3
							c-7.4,0.6-14.7,2.3-21.5,5.1c-1.1,0.5-2.3,1-3,2C26.8,55.3,28.4,55.5,29.9,56z"/>
					</g>
					<g>
						<path class="st3" d="M24.7,61.1C24.4,56,24.1,50.6,25,45.6c1,0.2,1.7,1.6,2.1,3c1,3.5,0.6,7.6-0.1,11.3
							c-0.7,3.7-1.7,7.3-1.8,11.1C25,67.7,24.9,64.4,24.7,61.1z"/>
					</g>
					<g>
						<path class="st6" d="M37.8,42.5c-1.1,0-2.2-0.2-3.2-0.7c-2.2-0.9-4-2.7-5.3-5.1c-0.1-0.1,0-0.2,0.1-0.3c0.1-0.1,0.2,0,0.3,0.1
							c1.2,2.3,3,4,5.1,4.9c2.3,1,4.9,0.8,6.8-0.4c1.6-1,2.8-2.9,3.6-5.5c0-0.1,0.2-0.2,0.3-0.1c0.1,0,0.2,0.2,0.1,0.3
							c-0.8,2.7-2.1,4.6-3.8,5.7C40.6,42.1,39.2,42.5,37.8,42.5z"/>
						<path class="st6" d="M35.9,53.8l-0.1-0.3c3.6-0.9,7.4-1.5,11.1-1.6l0,0.3C43.2,52.3,39.5,52.9,35.9,53.8z"/>
						<rect x="44" y="53.8" class="st6" width="2.3" height="0.3"/>
					</g>
				</g>
				<g>
					<g>
						<path class="st8" d="M55.3,88.2c-0.4-6-1.5-12.1-3.6-17.3H24.8c-2.4,5.8-3.5,12.7-3.7,19.4c0,0.7,0,2.2-0.1,3.9
							c-4.6,30.3,0.1,42.2,1.2,62.2l10.5-0.4c1.5-16.8,4-36.7,6.7-53.4c2.2,17.2,6.6,37.5,8.1,54.8h10
							C59.9,137.9,60.3,104.5,55.3,88.2z"/>
					</g>
					<g>
						<g>
							<path class="st8" d="M49.7,74.3L49.7,74.3c1.3,0,2.3-1.1,2.1-2.4c-0.3-2-0.4-4.1-0.4-6.2c0.2-10.7-0.5-20.7-2.1-31.2
								c-0.1-0.4-0.4-0.6-0.8-0.6c-0.8,0.1-1.2-0.4-2.2,0c1.4,12.7,1.9,25.5,1.4,38.2C47.6,73.4,48.5,74.3,49.7,74.3z"/>
						</g>
						<g>
							<path class="st3" d="M49.4,71.5c0.4,0.4,1.2,0,1.3-0.5c0.1-0.5-0.6-1-1.1-0.8C49.2,70.4,49,71.1,49.4,71.5z"/>
						</g>
					</g>
					<g>
						<g>
							<path class="st8" d="M28.3,51.5c0.2,6.9,0.2,13.9,0,20.8c0,1.1,0.8,2,1.9,2h0c1.1,0,2-0.9,1.9-2c-0.6-12.2,0.3-23.9-3.2-36.2
								c-0.1-0.2-0.3-0.3-0.5-0.2c-1.1,0.6-1.4,0.6-2.5,1.2c-0.2,0.1-0.3,0.3-0.2,0.5C26.8,42,28.2,47,28.3,51.5z"/>
						</g>
						<g>
							<path class="st3" d="M30.2,72.5c0.4,0.4,1.2,0,1.3-0.5c0.1-0.5-0.6-1-1.1-0.8C29.9,71.4,29.8,72.2,30.2,72.5z"/>
						</g>
					</g>
					<g>
						<path class="st3" d="M47.5,87.2c1.1-0.3,2.2-0.9,3.3-1.3c1.1-0.4,2.4-0.7,3.4-0.1c0-3.4-0.5-6.8-1.4-10.1
							c-1.2,1.2-2.9,1.6-4.5,1.9c-8.4,1.6-17.1,1.4-25.7,0.7c1.6,2.7,4.7,4.1,7.8,4.8s6.2,1,9.2,2.1c1.3,0.5,2.6,1.2,3.9,1.6
							C44.6,87.2,46.1,87.5,47.5,87.2z"/>
					</g>
					<g>
						<path class="st3" d="M51.6,173.9C51.6,173.9,51.6,173.9,51.6,173.9c0.3,0.5,1,0.9,1.8,1.2c1.1,0.4,3.4,1,4.5,1h3.7
							c1.1,0,2.1-1,2.1-2.1v-0.8c0-1.6-0.7-3-1.9-4c-0.2-0.2-0.5-0.4-0.7-0.6c-0.8-0.7-1.4-1.5-2.3-2.8c-1-1.4-0.6-3.8-0.6-5.5
							c0.2-3.9,0.4-8,0.7-11.6H46.2c0.8,6.8,1.8,11.7,0.1,18.3c-0.2,0.7,0,3.8,0.6,4.2c0.3,0.2,1.2,0.6,1.5,0.7
							c0.6,0.1,0.9,0.2,1.3,0.4C50.5,172.5,51.2,173.1,51.6,173.9z"/>
					</g>
					<g>
						<path class="st3" d="M28.5,174.6C28.5,174.6,28.5,174.6,28.5,174.6c-0.3,0.5-1,0.9-1.8,1.2c-1.1,0.4-3.4,1-4.6,1h-3.8
							c-1.1,0-2.1-1.1-2.1-2.1v-0.8c0-1.6,0.7-3.1,1.9-4.1c0.2-0.2,0.5-0.4,0.7-0.6c0.8-0.7,1.4-1.6,2.4-2.9c1-1.4,0.6-3.9,0.6-5.7
							c-0.2-4-0.5-8.2-0.7-11.8h13.1c-0.8,7-1.8,12-0.1,18.7c0.2,0.7,0,3.9-0.6,4.3c-0.3,0.2-1.2,0.6-1.6,0.7
							c-0.6,0.2-0.9,0.2-1.3,0.4C29.6,173.1,28.9,173.8,28.5,174.6z"/>
					</g>
				</g>
				<g>
					<g>
						<path class="st2" d="M22.1,69.4C21,65.2,24,58,25.8,52.8c0.5-1.6,1.8-3.5,1.6-6.2c-0.2-1.7-0.9-5.2-2.4-6
							c-2.4-1.3-5.1,1-6.8,3.2c-3.6,4.8-4.4,10.7-5.2,16.6c-0.8,5.6-1.3,11.1,1.8,15.5C16.8,73.4,19.2,71.2,22.1,69.4z"/>
					</g>
					<g>
						<path class="st3" d="M13.3,68.5c2.3-1.5,4.8-2.7,7.5-3.5c-1.5-0.3-3.1-0.2-4.5,0.4C14.9,65.9,13.7,67.1,13.3,68.5z"/>
					</g>
					<g>
						<path class="st4" d="M28.3,71.8c-1.8-0.8-4.5-1.4-5.6-2.4c-0.6-0.5-1-1.2-1.2-2c-2.6,1.6-4.8,3.6-6.6,6
							c0.2,0.3,0.4,0.5,0.6,0.8c3,3.4,5.2,4.4,9.6,5.4c4.4,1,12.3,2,16.8,2.1c0.4-1.8-0.5-3.5-0.1-5.3C36.6,75,31.9,73.4,28.3,71.8z
							"/>
					</g>
					<g>
						<path class="st4" d="M42,76c0.9-0.6,2.7-1.2,3.4-1.6c0.6-0.3,1-0.8,1.5-1.2c0.5-0.4,1.2-0.7,1.8-0.6c0.5,0.1,0.9,0.5,1.4,0.7
							c0.5,0.2,1.1,0.1,1.6,0c0.5-0.1,1-0.3,1.6-0.4c0.3,0,0.5,0,0.8,0.1c0.2,0.1,0.4,0.4,0.3,0.6c-0.1,0.3-0.3,0.6-0.4,1
							c-0.1,0.5,0.4,0.6,0.5,1.1c0,0.4-0.4,0.7-0.7,0.9c-0.3,0.2-0.3,0.4-0.3,0.8c0.1,0.4,0.2,0.6,0.2,1c0.1,0.4-0.4,0.8-0.8,0.9
							c-0.4,0.2-0.5,0-0.7,0.4c-0.2,0.3-0.6,0.8-0.7,1.1c-0.2,0.3-0.5,0.4-0.8,0.4c-0.3,0-0.6,0-0.9-0.1c-0.9-0.1-1.7-0.2-2.6,0
							c-0.7,0.2-3.3,0.9-4.4,0.7c-1.1-0.2-2.1-0.4-3.2-0.4c0.2-1.3-0.6-4.7-0.7-5.9L42,76z"/>
					</g>
					<g>
						<path class="st5" d="M17.2,70.8c-0.8,0.8-1.6,1.7-2.3,2.6c0.2,0.3,0.4,0.5,0.6,0.8c3,3.4,5.2,4.4,9.6,5.4
							c4.4,1,13.7,2.3,18.2,2.5c-1.2-0.3-1.9-0.4-3.6-0.7C30.4,79.2,23.4,77.1,17.2,70.8z"/>
					</g>
					<g>
						<path class="st2" d="M14.1,75.1c-0.1-0.4-0.5-0.7-0.9-0.8c-0.4-0.2-0.8-0.2-1.1-0.4c-1-0.5-1.3-1.8-1-2.9
							c0.3-1.1,1.1-1.9,1.9-2.7c1.4-1.3,3-2.4,4.7-3c1.1-0.4,2.3-0.6,3.4-0.5c0.9,0,1.7,0.6,1.8,1.5c0.1,0.3,0.2,0.6,0.3,0.8
							c0.3,0.6,0.8,1.2,0.7,1.9c-0.1,0.7-0.8,1.1-1.3,1.5c-2,1.3-4,2.7-5.4,4.6c-0.4,0.5-0.8,1.1-1.3,1.4c-0.6,0.3-1.4,0.1-1.6-0.5
							C14.1,75.7,14.2,75.4,14.1,75.1z"/>
					</g>
					<g>
						<path class="st6" d="M14.4,76.3l-0.2-0.2c2.8-3.1,6-5.8,9.6-8l0.2,0.3C20.3,70.5,17.2,73.2,14.4,76.3z"/>
					</g>
					<g>
						<path class="st6" d="M11.2,71.9l-0.2-0.2c2.9-3.4,7.1-5.6,11.5-5.9l0,0.3C18.1,66.4,14,68.6,11.2,71.9z"/>
					</g>
				</g>
			</g>
			<g>
				<g>
					<path class="st9" d="M52.7,65.4c-0.1,0-0.2,0.1-0.2,0.1L52.7,65.4z"/>
				</g>
				<g>
					<g>
						<g>
							<g>
								<g>
									<path class="st10" d="M11.2,23.3c0.7,4.9,12.6,7.3,26.7,5.4c14.1-1.9,25-7.4,24.3-12.2S39.6,4.2,34.7,4.8
										C29.8,5.5,10.6,18.4,11.2,23.3z"/>
								</g>
							</g>
							<g>
								<g>
									
										<ellipse transform="matrix(0.9911 -0.1333 0.1333 0.9911 -2.3332 5.0995)" class="st3" cx="36.9" cy="20" rx="24.3" ry="8.4"/>
								</g>
							</g>
						</g>
						<g>
							<path class="st11" d="M17.1,15.5c5.4-1.9,11.4-3.7,17.6-4.8c7.5-1.2,14.6-1.1,21.1,0.3c0.4,0.2,0.7,0.4,1.1,0.6
								c-6.8-1.7-14.2-1.8-22.2-0.5c-6.5,1.1-12.7,3-18.3,5C16.6,15.9,16.8,15.7,17.1,15.5z"/>
							<path class="st11" d="M46.4,8.7c1.8,0.1,3.5,0.3,5.2,0.5c-0.4-0.2-0.8-0.3-1.2-0.5c-1.5-0.2-3.1-0.3-4.7-0.4
								c-0.9-0.4-1.8-0.8-2.7-1.2c0.9,0,1.9-0.1,2.8-0.1c-0.3-0.1-0.6-0.2-1-0.3c-0.9,0-1.7,0-2.6,0.1c-1.6-0.6-3.2-1-4.9-1.3
								l1.8,0.6c0.7,0.3,1.3,0.5,2,0.8c-1.4,0.1-2.7,0.2-4,0.4c-0.3-0.5-0.6-1-1-1.5c-0.1,0-0.1,0-0.2,0c0.2,0.5,0.5,1,0.8,1.5
								c-1.3,0.2-2.5,0.3-3.8,0.6c0.2-0.6,0.4-1.2,0.6-1.8c-0.3,0.6-0.6,1.2-0.8,1.9c-1.3,0.2-2.6,0.5-3.9,0.8
								C29.5,8.4,30,8,30.6,7.7c-0.8,0.3-1.5,0.7-2.3,1.1c-1.1,0.3-2.2,0.5-3.3,0.9c-0.3,0.2-0.6,0.4-0.9,0.6c1-0.3,2-0.6,3.1-0.8
								c-0.8,0.4-1.5,0.9-2.3,1.3c-0.7,0.2-1.5,0.3-2.2,0.5c-0.2,0.2-0.5,0.3-0.7,0.5c0.7-0.2,1.4-0.3,2.1-0.5
								c-1.4,0.9-2.8,1.9-4.1,3c1.7-1.1,3.3-2.2,5-3.2c2.4-0.5,4.8-1,7.2-1.4c-0.1,0.4-0.2,0.8-0.3,1.2c0.2-0.4,0.4-0.8,0.6-1.2
								c0.9-0.1,1.8-0.3,2.7-0.4C36,9.1,37,9,37.8,8.9c0.3,0.4,0.7,0.9,1,1.3c-0.2-0.4-0.5-0.9-0.8-1.3c2.6-0.2,5.2-0.3,7.6-0.2
								c0.7,0.3,1.4,0.5,2.1,0.8C47.3,9.1,46.8,8.9,46.4,8.7z M32.7,8.2c-0.1,0.3-0.2,0.7-0.4,1c-2.2,0.4-4.4,0.8-6.5,1.3
								c0.7-0.4,1.4-0.9,2.2-1.3C29.5,8.9,31.1,8.5,32.7,8.2z M37,7.6c0.2,0.3,0.4,0.7,0.6,1c-0.8,0.1-1.7,0.2-2.5,0.3
								c-0.9,0.1-1.7,0.2-2.6,0.4c0.1-0.3,0.2-0.7,0.4-1C34.2,8,35.6,7.8,37,7.6z M44.8,8.3c-2.2,0-4.5,0.1-6.9,0.3
								c-0.2-0.3-0.4-0.7-0.6-1c1.5-0.2,3-0.3,4.6-0.4C42.9,7.6,43.8,7.9,44.8,8.3z"/>
						</g>
					</g>
					<g>
						<path class="st5" d="M30.6,26.4c-0.5-1.7-0.8-5.9-0.8-5.9c0.4-1.4,1.5-2.4,2.6-2.9c1-0.5,2-0.7,3.1-0.8c1-0.2,2.1-0.3,3.2-0.1
							c1.3,0.2,2.6,0.9,3.4,2.1c0,0,0.9,4.1,0.9,5.9c0,0.9,0,1.9-0.1,2.8c0.2-3.4-0.4-6.5-3.2-8.7c-1.6-1.8-7.6-2.5-8.5,1.1
							c-0.6,3.1-0.5,6,0.3,8.7C31,27.8,30.8,27.1,30.6,26.4z"/>
					</g>
					<path class="st2" d="M29,22.5c-0.5-1.2-1-2.5-1.1-3.8c-0.1-1.3,0.2-2.7,1.1-3.5c0.1-0.1,0.6-0.3,0.7-0.4c-0.5,0-1.5,0.4-2,0.6
						c0.2-0.4,0.5-0.8,0.9-1c0.4-0.2,0.8-0.3,1.3-0.4c1-0.2,1.5-0.5,2.6-0.4c0.1-0.1,0.7-1,1.1-1.3c1.4-0.9,1.4-0.8,2.3-1.1
						c0.3-0.1,1.4-0.2,1.7,0c-0.5,0.1-1,0.4-1.4,0.6c0.4-0.1,0.8-0.2,1.2-0.1c0,0,0,0,0,0c0.5-0.1,1-0.2,1.5-0.1
						c0.9,0.1,1.8,0.5,2.5,1.2c0.5,0.5,0.9,1.1,0.7,1.8c-0.8-1-1.8-1.6-2.9-2c0.1,0.1,0.2,0.2,0.3,0.3c0.6,0.6,1.6,0.9,2.2,1.5
						c0.7,0.7,1.4,1.7,1.6,2.5c0.2,0.8,0.4,1.6,0.3,2.4c-0.1,0.8-0.3,1.6-0.3,2.4c0,1.4,0.4,2.9-0.1,4.2c-0.4,1.1-0.8,1.8-1.7,2.3
						c-1.3,0.7-2.3,1.2-3.6,1.9c-0.6,0.3-1.5,0.3-2.2,0.4c-0.7,0.2-2,0.1-2.7-0.3c-0.9-0.5-2.2-1.6-2.6-2.6
						C29.6,25.8,29.8,24.5,29,22.5z"/>
					<g>
						<g>
							<path class="st4" d="M30.3,24.2c-0.1-0.3-0.3-0.6-0.6-0.6c-0.3-0.1-0.7,0.1-0.8,0.4c-0.1,0.3,0,0.6,0.1,0.8
								c0.1,0.3,0.3,0.5,0.3,0.8c0.1,0.5-0.1,1.1,0,1.7c0.1,0.4,0.4,0.6,0.7,0.8c0.3,0.2,1.2,0.4,1.4,0.2
								C31.4,26.6,30.6,25.8,30.3,24.2z"/>
						</g>
						<g>
							<path class="st3" d="M29.8,26.2c0-0.2,0.2-0.3,0.3-0.5c0.1-0.2,0.1-0.4,0.1-0.6c0-0.2,0-0.4-0.1-0.5s-0.2-0.3-0.4-0.3
								c-0.2,0-0.4,0.1-0.4,0.2c0.3,0.2,0.5,0.4,0.6,0.7c0.1,0.5-0.3,1-0.3,1.5c0.1,0.4,0.4,0.6,0.7,0.9c0.1-0.3,0-0.7-0.2-0.9
								C30,26.4,29.8,26.3,29.8,26.2z"/>
						</g>
					</g>
					<g>
						<g>
							<path class="st4" d="M42.4,22.8c0.2-0.3,0.6-0.4,1-0.2c0.4,0.2,0.7,0.7,0.6,1.2c0,0.2-0.2,0.4-0.2,0.7c0,0.3,0.1,0.5,0.1,0.8
								c0.1,0.4,0,0.9-0.3,1.3c-0.3,0.4-0.6,0.8-1.1,0.9c0-1.3-0.2-2.9-0.2-4.2C42.3,23.1,42.3,23,42.4,22.8z"/>
						</g>
						<g>
							<path class="st3" d="M43.4,25c0-0.2-0.3-0.3-0.4-0.4c-0.1-0.2-0.2-0.4-0.2-0.6c0-0.2,0-0.4,0-0.5c0-0.2,0.1-0.3,0.3-0.4
								c0.2-0.1,0.4,0,0.5,0.1c-0.2,0.2-0.4,0.5-0.5,0.8c0,0.5,0.5,0.9,0.5,1.4c0,0.4-0.2,0.7-0.5,1c-0.2-0.3-0.2-0.6,0-0.9
								C43.3,25.3,43.4,25.2,43.4,25z"/>
						</g>
					</g>
					<g>
						<path class="st4" d="M29.7,20.3c0.4-1.3,1.5-2.3,2.7-2.8c1-0.5,2-0.6,3.1-0.8c1-0.2,2.1-0.3,3.2-0.1c1.3,0.2,2.6,0.8,3.3,2
							c0,0,0.8,3.9,0.9,5.6c0,1.7-0.1,3.5-0.9,5c-0.2,0.4-0.5,0.9-0.8,1.4c-0.7,1.2-2,2-3.4,2.2l0,0c-1.4,0.2-2.8-0.2-3.9-1.1
							c-0.4-0.4-0.8-0.8-1.2-1.1c-1.1-1.2-1.8-2.9-2.2-4.5C30,24.2,29.7,20.3,29.7,20.3z"/>
					</g>
					<g>
						<path class="st3" d="M37.8,26.4c0.3-0.1,0.5-0.3,0.7-0.5c0.2-0.1,0.3-0.3,0.4-0.5c0.1-0.3-0.2-0.7-0.4-0.9
							c-0.1-0.1-0.1-0.1-0.2,0c-0.1,0.1-0.1,0.1,0,0.2c0.2,0.3,0.3,0.5,0.3,0.6c0,0.1-0.2,0.3-0.3,0.4c-0.3,0.3-0.6,0.4-0.9,0.5
							c-0.3,0.1-0.7-0.1-1-0.2c-0.2-0.1-0.5-0.2-0.6-0.4c-0.1-0.2,0.1-0.5,0.2-0.7c0-0.1,0-0.2,0-0.2c-0.1,0-0.2,0-0.2,0
							c-0.2,0.3-0.4,0.6-0.3,0.9c0.1,0.4,0.5,0.5,0.8,0.6c0.3,0.1,0.8,0.3,1.2,0.2C37.6,26.5,37.7,26.5,37.8,26.4z"/>
					</g>
					<g>
						<path class="st2" d="M37.6,16.1c1.2,0.4,2.3,1.2,3,2.3c0.1,0,0.3-0.1,0.3-0.2c0-0.1,0-0.3-0.1-0.4c-0.3-0.8-1-1.3-1.7-1.8
							L37.6,16.1z"/>
					</g>
					<g>
						<path class="st3" d="M41.1,19.9c-0.6-0.6-1.5-0.8-2.3-0.6c-0.2,0-0.3,0.1-0.5,0.1c-0.2,0-0.3-0.2-0.3-0.3
							c0.6-0.3,1.4-0.4,2-0.2c0.7,0.2,1.2,0.7,1.6,1.3C41.4,20.2,41.2,20,41.1,19.9z"/>
					</g>
					<g>
						<path class="st3" d="M31.5,21.1c0.4-0.7,1.3-1.1,2.1-1.1c0.2,0,0.3,0,0.5-0.1c0.1-0.1,0.3-0.2,0.2-0.4c-0.7-0.2-1.4,0-2,0.3
							c-0.6,0.4-1,1-1.2,1.6C31.3,21.5,31.4,21.2,31.5,21.1z"/>
					</g>
					<g>
						<path class="st12" d="M39.7,27.2c-0.5,0.5-1.2,0.7-1.9,0.8c-1.2,0.2-2.2,0.2-3.3-0.1c0.1,0.7,0.5,1.5,1,1.9
							c0.6,0.6,2,0.7,2.8,0.3C39.5,29.7,40.1,28.3,39.7,27.2"/>
						<path class="st12" d="M39.6,27.1c-0.6,0.6-1.6,0.7-2.4,0.8c-0.9,0.1-1.7,0-2.6-0.2c-0.1,0-0.2,0.1-0.2,0.2
							c0.1,0.8,0.5,1.7,1.2,2.2c0.6,0.5,1.5,0.6,2.3,0.4c1.6-0.2,2.5-1.9,2.1-3.4c-0.1-0.2-0.4-0.1-0.3,0.1c0.3,1.3-0.4,2.7-1.8,2.9
							c-0.6,0.1-1.4,0.1-2-0.3c-0.7-0.4-1.1-1.2-1.2-2c-0.1,0.1-0.2,0.1-0.2,0.2c0.9,0.3,1.9,0.4,2.9,0.2c0.9-0.1,1.8-0.3,2.5-0.9
							C40,27.2,39.8,26.9,39.6,27.1L39.6,27.1z"/>
					</g>
					
						<ellipse transform="matrix(0.9911 -0.1333 0.1333 0.9911 -2.5504 5.4896)" class="st3" cx="39.7" cy="21.8" rx="0.6" ry="0.9"/>
					
						<ellipse transform="matrix(0.9911 -0.1333 0.1333 0.9911 -2.7019 4.6778)" class="st3" cx="33.6" cy="22.5" rx="0.6" ry="0.9"/>
					<path class="st10" d="M38,11.4c0,0-3.3,0.4-4.5,0.6c-1.2,0.2,0.4-0.6,0.4-0.6s2.6-0.7,3.6-0.5C38.4,11.1,38,11.4,38,11.4z"/>
					<path class="st3" d="M38.4,24.7C38.4,24.7,38.4,24.7,38.4,24.7c-0.1,0-0.2-0.1-0.2-0.2c0.1-0.4-0.1-1.5-0.2-1.9
						c0-0.1,0-0.2,0.1-0.2c0.1,0,0.2,0,0.2,0.1c0,0.1,0.3,1.5,0.2,2C38.5,24.7,38.5,24.7,38.4,24.7z"/>
				</g>
			</g>
		</g>
	</g>
</g>
</svg>
