<?xml version="1.0" encoding="utf-8"?>
<!-- Generator: Adobe Illustrator 22.0.1, SVG Export Plug-In . SVG Version: 6.00 Build 0)  -->
<svg version="1.1" id="圖層_1" xmlns="http://www.w3.org/2000/svg" xmlns:xlink="http://www.w3.org/1999/xlink" x="0px" y="0px"
	 viewBox="0 0 960 125" style="enable-background:new 0 0 960 125;" xml:space="preserve">
<style type="text/css">
	.st0{fill:#113332;}
	.st1{fill-rule:evenodd;clip-rule:evenodd;fill:#113332;}
</style>
<g>
	<rect y="89.4" class="st0" width="961" height="35.6"/>
	<g>
		<path class="st1" d="M407.6,46.8c1,2.7,1.9,5.5,2.5,8.3c0.5,2.3,1,4.5,1.3,6.5c-1,7-3.1,16.7-5.5,26.9c-1.7-7.1-3.2-12.7-4.7-18
			C402.4,61.9,404.6,53.8,407.6,46.8L407.6,46.8z M424.1,33.1c0.6-1.4,1.6-3.4,2.8-5.5c1.5,4.8,2.6,10.6,3.2,15.8
			c0.7,7.6,0.9,13.1,0.7,18.7c-2.1-6.3-4.5-11.6-7.2-15.5c2.6,7.1,5.1,19.7,5.9,28.8c0,0.1,0,0.3-0.1,0.5c0,0.3-0.1,0.7-0.1,1
			c-1,3.2-2,7.5-3,12c-0.4-5-1-10.3-2.2-15.1c0.1-11.8-0.8-23.2-2.8-33.7C422.2,37.7,423.1,35.3,424.1,33.1L424.1,33.1z M449.3,39.6
			c0.7,4.3,1.2,8.5,1.6,12.4c-4,11.4-6.3,26.1-7,28.4C443.7,68.1,446.2,52.8,449.3,39.6L449.3,39.6z M451.9,69.5
			c-1.3,3.4-2.5,7-3.7,10.7c0.7-8.3,1.7-16.8,3.1-23.9C451.6,61.3,451.8,65.8,451.9,69.5L451.9,69.5z M411.9,64.5
			c0.4,3.5,0.7,6.7,0.8,10c-0.3,3.1-0.6,6.1-1,9.2c-0.5,4.8-1.1,9.6-1.8,14.6h8.4c-0.3-2.5-0.8-5.3-1.4-7.9
			c-0.2-1.9-0.4-3.8-0.7-5.7c-0.2-2.4-0.4-4.9-0.7-7.3c0.1-9.1,0.6-15.8,3.1-27.3c0.1-0.7,0.4-1.4,0.5-2.1
			c0.8,5.5,1.4,11.3,1.7,17.4c-0.5-0.8-1-1.6-1.6-2.3c0.6,1.3,1.2,2.6,1.7,4c0.1,5.2,0.1,10.6-0.1,16.2c-0.7-4.3-1.7-8.2-3.7-11
			c3.3,14.5,1.9,17.6,1.3,26.1h4.1c0.6-4.7,1-9.4,1.2-14.1c0.3,4.9,0.3,9.7,0.4,14.1h50c-0.6-21.8-2.7-44.1,2.9-62.2c0,0,0,0,0-0.1
			c-5.5,10-9.5,25.7-12.6,41.3c1-12.9,1.8-24.8,1.4-33.8c-1,9.1-4.3,24.2-7.9,39.4c-0.4-4.4-0.8-7.6-1-8.8c-0.1-0.4-0.2-1.1-0.4-1.9
			c3.4-8.2,7-23,9.7-39.4c-0.8-1.4-1.7-3.1-2.5-4.8c-2.5,14.4-5.5,27.1-8.5,32.5c-0.5-4-1.1-8.7-1.9-13.4c0.4-1.6,1-2.8,1.6-4
			c-0.6,1-1.2,1.9-1.7,3.1c-0.7-4.2-1.5-8.4-2.5-12.3c0.9-3.4,1.8-6.5,2.6-9.4c-1.2,2.2-2.3,4.5-3.3,6.7c-1.6-5.6-3.7-10.6-6.1-14.1
			c1.9,5.7,3.4,11.7,4.6,17.6c-6.6,15.3-9.9,31.3-12.5,46.2c-1-4.3-1.7-7.5-2.8-11.2c0.1-2,0.1-4,0.1-5.9c1-5.7,2.8-15.2,6.7-21
			c-2.9,3-5.2,8.4-6.7,13c-0.1-9.9-1.2-21.9-4.9-30.8c1.3-2.2,2.7-4.3,4-5.8c-1.6,1.2-3.2,2.7-4.6,4.4c-1.9-4.2-4.5-7.5-7.9-9.5
			c2.3,2.8,5,8,6.3,11.4c-2.2,3.1-4,6.7-5.5,10.5c-1.3-5.8-3.1-10.8-5.4-15.2l-0.7,8.7c1.5,4,2.8,8.5,3.7,13.2
			c-2.2,7-3.4,14.4-4.3,20.7c-1-6.5-2.5-13.6-4.9-19.5c0.4-0.9,0.9-1.8,1.3-2.6c-0.6,0.5-1.1,1.1-1.7,1.7c-2.5-5.8-6.1-10.3-11-11.8
			c2.8,2.2,6.2,7.1,7.6,9.8c0.6,1.3,1.2,2.6,1.8,4.1c-3.3,4.6-5.8,10.8-7.9,17.6c-1.8-7.4-3.6-24.3-8.3-37c-1.1-0.6-2.2-1.2-3.3-1.9
			c6.1,15.4,7.3,37.7,8.8,43.6c0.2,0.9,0.4,1.8,0.6,2.8c-1.3,5.4-2.5,10.7-3.5,15.3c1.1-12.1-1.9-37-7.2-50.2
			c5.4,27.5,3.4,39.9-1.1,57c0.4-10.9-4.6-49.6-7.3-55.1c4.1,29,2.8,46.9,0.4,61.1h31.6C410.9,85.9,411.8,74.1,411.9,64.5
			L411.9,64.5z"/>
		<path class="st1" d="M659.9,65.5c-1.9-8.8-4.3-18.9-6.7-28.9c0.1-1.7,0.4-3.2,0.5-4.4c0.5-4.2,1-8,1.6-11.6
			C660,34.2,660.6,52.2,659.9,65.5L659.9,65.5z M630.2,82.8c-1-5.5-2.3-11.1-3.7-16.2c0.7-3.4,4.2-24.9,7-29
			c-6.4,6.2-8.4,20.7-8.3,24.2c-0.8-2.7-1-3.5-1.9-5.9c0.2-10.2,1.3-28.9,9.3-36.1c-8.1,4.8-11.3,17.5-12.5,27.8
			c-0.7-1.3-1.3-2.7-1.9-3.8c0.5,1.9,1.1,3.7,1.7,5.8c-0.6,5.4-0.7,9.9-0.7,12c-0.1,4.1-0.3,7.8-0.5,11.3
			c-1.6-17.6-3.6-39.9-7.1-58.3c0.6-1.7,1.2-3.4,1.9-4.9c-0.7,1.3-1.3,2.6-2,4.1c-1-5.1-2.1-9.9-3.4-14.2l-0.6,0.3
			c1.2,5.3,2.1,10.9,2.8,16.8c-2.6,6.3-4.9,14.1-7,22.4c-1-2.3-2-4.6-2.8-7.2c0.1-0.6,0.4-1.2,0.5-1.8c-0.2,0.4-0.4,0.7-0.7,1
			c-1-4.1-1.5-8.4-1.3-12.9c-1.1,5.2-1.3,10.4-0.3,15.6c-6,10.9-7.1,27.1-9.4,40.6c-0.1-0.5-0.2-1-0.3-1.5c0.9-10.7,1.3-19.3,1-27.3
			c-0.2,1.8-0.5,3.5-0.8,5.2c0.6-11,0.9-21.5,0.6-31.6c1.3-4.8,2.7-9.4,4.4-13.8c-4,3.4-7.9,8.8-9.9,11.8c-0.4,2.3-0.7,4.7-1.1,7
			c-1-5-2.8-10.3-5.5-15.6c3.9,14,4.2,22.6,4,29.5c-0.4,4.3-0.7,8.6-0.9,12.9c-1.3-7.9-2.9-15.9-5.8-21.5c0.8-1.6,4-5.3,4.9-6.6
			c-1.2,0.6-4.6,3.9-5.7,5.1c-0.6-1-1.3-1.9-1.9-2.8c0.4,1.2,0.8,2.4,1.2,3.7c-2.7,3.4-5,8.7-7,14.6c-1-5.1-2.1-10-3.1-14.9
			c1.5-5.2,10.3-23.3,12.2-28c-4,1.3-11.4,19.1-13.2,23.6c-1.6-7.1-3.3-13.8-5.1-19.9c-0.7,2.5-1.1,5.7-1.3,8.9
			c1.3,6,2.5,12.1,3.7,18.3c-1.1,3.2-2.1,6.7-3.1,10.4c-0.6-4-1.2-7.2-1.9-9.1c0.1,3,0.1,9.6-0.1,17.1c-1,4.4-2,9-3.1,13.8
			c-0.1-0.4-0.1-0.9-0.1-1.3c0,0.7,0,1.5-0.1,2.3c-0.8,4.2-1.7,8.5-2.5,12.9c-0.1-1-0.1-1.9-0.1-2.8c0.4-3.2,0.7-6.4,1.1-9.6
			c1-8.5,2.4-31.2,3.4-39.9c-0.5-2.9-1-6.7-1.3-10.1c-4.3,22.6-9.7,59.3-12.3,80.9c1.6-23.7,4.5-48.3,3.7-64.2
			c-1.3,11.9-6.4,33.8-11.1,53.3c-0.2-19.8,0.3-39.4,5.3-55.4c-5.4,9.6-9.5,25.1-12.6,40.7c0.3-4.2,0.4-9,0.5-14.1
			c1.9-13,5.7-26.2,13.2-38.6c-5.8,5.8-10.2,15.4-13.2,27c-0.7-18-3.8-37-13.4-45.7c10.8,20.6,10.2,45.7,7.2,68.3
			c-1-6.7-2-13.5-3.2-20.2c-0.4-3.6-1-6.7-1.8-9.4c-2.5-11.7-5.3-22.3-8.9-29.4c4,10.8,6.3,24.4,7.8,38.2c-0.9,9.6-3,21.9-5.3,34
			c-0.1-2.6-0.3-5.2-0.4-7.6c1.5-5.7,3.5-11.6,3.6-20.5c-1,6.4-2.5,11.6-4,16.4c-1-9.7-1.9-18.2,2.4-25.3c-6.4,8.5-6.1,18-7.8,30.7
			c0-16.2,1-32,5.2-45.4c-4.8,8.6-8.6,21.8-11.5,35.5c0.4-9.7,0-20.4-1.3-29c1.3-7.6,2.7-15.4,4.4-23.1l-3.1,4.1
			c-1,3.7-1.9,7.4-2.8,11.1c-0.4-1.6-0.8-3.1-1.3-4.3c0.1,1.6,0.4,4,0.7,7.1c-1.1,4.9-2.2,9.8-3.3,14.5c-0.1-0.4-0.1-0.9-0.1-1.3
			c0,0.7,0,1.4,0,2.2c-0.1,0.7-0.3,1.4-0.4,2.1c-0.1-9.1,0.3-19.1,1.7-30.3c-0.6-1.5-1.4-3.1-2.3-4.3c-4.2,20.1-4.7,40-4.2,56.6
			c-0.4,1.8-0.8,3.5-1.2,5c0.1-16.8,0.4-38.4-2.1-54.5c-0.9,2.4-1.7,4.1-2.5,5.4c0.1,3.4,0.1,6.8,0.3,10.2l0.1-0.1
			c0,0.1,0,0.1-0.1,0.1c1,21.5-0.7,47-2.9,62.2h128.5c-0.1-0.7-0.2-1.5-0.3-2.3c0.2-12.3,0.5-25.5,2.3-37.3
			c0.2,5.2-0.2,10.3-0.6,15.4c-0.7,9.7-1.4,16.8-1,24.2H641c0.1-9.2,0.7-17.3,1.8-22.5c-1.2,2-4.9,7.3-5.9,10.2
			c-1.8-20,1-37,10.5-48.6c0.1,0.8,0.2,1.6,0.4,2.3c-3,20.9-5.3,43.2-6.6,58.6h8.8c1-11.9,1.6-22.8,1.3-31.3
			c-0.7,6.4-2.6,15.6-4.9,25.7c1.3-10.5,3-24.2,4.4-36.4c1.1,5.8,2.2,11.6,3.2,17.1c0.1,1,0.4,2.1,0.5,3.1c-0.2,4.1-0.6,8.2-1.1,12
			c-0.7,3.4-1.4,6.7-2.1,9.9h47.9V59.2c-2.6,9.4-4.6,18.8-6,25.1c2.5-17.7,5.8-33.3,2.2-53.3c-0.1,13.5-3.2,29.4-6.7,46.2
			c1-22.1,3-48.4,9.9-66.4c-8.5,12.6-11.7,37.1-13.8,59c-0.1-8.4-0.8-15.6-2.8-20.8c1.9,16.6-2.6,26.1-6.1,42.8
			c-0.2-14.5,0.1-28.6,1.8-36.1c-3.9,6.1-6.3,16.7-8,29c0.1-16.1,1.5-34.9,8.7-43.7c-4.3,3.2-7.9,10.3-10.7,18.5
			c4.2-17.1,11.1-33.7,25.1-44.5c-12,4-21.8,22.1-29.4,44.1c-0.8-14.9-3.6-32.4-8.2-38.7c0.7-5.5,1.5-10.5,2.4-15.2
			c-2.2,1.3-3.7,2.6-4.6,3.7c-1,4.7-1.9,9.8-2.8,15.3c-1.6-6.4-3.2-12.5-4.6-18.1c-1.3-1.9-2.9-4-5-6.4c0.6,2.4,1.1,4.8,1.7,7
			c1,4.3,3.1,18.3,4.9,29.4C634.3,44.8,632.1,62.4,630.2,82.8L630.2,82.8z M623.2,73.3c-0.1-2.9-0.1-5.8-0.1-8.7
			c0.4,2.2,0.7,4.6,0.8,6.9C623.7,72.1,623.5,72.7,623.2,73.3L623.2,73.3z M612.3,71.1c-0.9-7-1.8-13.2-2.5-16.5
			c0.3,5.5,1.3,23.6,1.3,35.6c-0.6-4-1.2-8.2-1.9-13.1c-0.8-6.2-0.5-12.6-0.9-18.9c-0.3-3.5-0.8-6.7-1.7-9.8
			c1.2-4.9,2.8-9.5,4.9-13.4C612.3,47.6,612.3,60.1,612.3,71.1L612.3,71.1z M604.6,42.6c1.5-8.6,3.3-16.9,5.6-24.4
			c0.6,5.4,1,11,1.3,16.5c-2.6,2.2-4.7,5.5-6.4,9.2C605,43.5,604.8,43.1,604.6,42.6L604.6,42.6z M595.4,75.8
			c0.1-13.9,0.9-27.5,3.7-39.3c0.7,2.8,1.7,5.3,2.7,7.9C599.4,54.8,597.3,65.7,595.4,75.8L595.4,75.8z M585.8,57.4
			c-0.4-2.8-0.7-5.5-0.8-8.4c0.4-5.2,0.9-10.3,1.7-15.3C586.5,41.4,586.2,49.2,585.8,57.4L585.8,57.4z M578.9,86.7
			c0.3-12.3-0.3-23.1-2.9-29.8c0.3,5.5-0.6,14.1-2.1,23.8c-0.6-2.7-1.2-5.5-1.8-8.2c0.7-4.7,1.3-8.7,1.9-11.5c-1,1.6-2,3.7-3.1,6.3
			c-0.9-4.6-1.9-9.4-2.8-14.1c1.3-8,3.3-15.6,5.8-21.5c4.1,14.4,5.2,30.4,6.4,41.5c0.1,2.4,0.1,4.7,0.2,7
			C580.1,82.3,579.5,84.4,578.9,86.7L578.9,86.7z M565.4,86.2c-0.1-4,0.1-8.8,0.4-13.9c0.4,2.3,0.7,4.6,1.1,6.9
			C566.3,81.6,565.8,84,565.4,86.2L565.4,86.2z M558.1,77.5c0.1-6.5-0.1-16.2-0.7-24.9c1-4.8,2-9.5,3.1-14.1
			c1,5.3,1.8,10.6,2.6,15.9C560.9,62.8,559.3,71.4,558.1,77.5L558.1,77.5z M514.5,92.6c0.1-2,0.3-4.1,0.4-6.1c0,1.1,0.1,2.2,0.1,3.3
			C514.9,90.7,514.8,91.6,514.5,92.6L514.5,92.6z M489.6,61.8L489.6,61.8c0.7-5.8,1.6-12,2.7-18.7C492.5,50.2,492.1,57.4,489.6,61.8
			L489.6,61.8z"/>
		<path class="st1" d="M494.6,67.3c-0.2,4.3-0.9,8.2-1.9,12c0-0.4-0.1-0.8-0.1-1.2c-0.2-2.2-0.4-4.3-0.6-6.4
			C492.8,70.2,493.7,68.7,494.6,67.3L494.6,67.3z M486.9,75.5c0.4-1.9,0.7-3.8,1-5.7c0.4-2,0.7-3.8,1-5.5c0.1,2.3,0.2,4.6,0.2,7.1
			C488.4,72.6,487.7,74.1,486.9,75.5L486.9,75.5z M379.1,65.5c-2-8.8-4.3-18.9-6.7-28.9c0.2-1.7,0.4-3.2,0.5-4.4
			c0.6-4.2,1.1-8,1.6-11.6C379.1,34.2,379.7,52.2,379.1,65.5L379.1,65.5z M349.4,82.8c-1.1-5.5-2.4-11.1-3.7-16.2
			c0.6-3.4,4.1-24.9,6.9-29c-6.4,6.2-8.4,20.7-8.3,24.2c-0.7-2.7-1-3.5-1.9-5.9c0.1-10.2,1.3-28.9,9.2-36.1
			c-8.1,4.8-11.2,17.5-12.5,27.8c-0.6-1.3-1.3-2.7-1.9-3.8c0.6,1.9,1.2,3.7,1.7,5.8c-0.5,5.4-0.6,9.9-0.7,12
			c-0.1,4.1-0.2,7.8-0.4,11.3c-1.6-17.6-3.7-39.9-7.1-58.3c0.6-1.7,1.2-3.4,1.9-4.9c-0.7,1.3-1.4,2.6-2.1,4.1
			c-1-5.1-2.1-9.9-3.3-14.2l-0.7,0.3c1.2,5.3,2.1,10.9,2.8,16.8c-2.5,6.3-4.9,14.1-7,22.4c-1-2.3-2.1-4.6-2.8-7.2
			c0.2-0.6,0.4-1.2,0.6-1.8c-0.3,0.4-0.5,0.7-0.7,1c-1.1-4.1-1.5-8.4-1.3-12.9c-1.1,5.2-1.3,10.4-0.4,15.6
			c-5.9,10.9-7.1,27.1-9.4,40.6c-0.1-0.5-0.1-1-0.2-1.5c0.8-10.7,1.3-19.3,1-27.3c-0.1,1.8-0.4,3.5-0.8,5.2
			c0.7-11,0.9-21.5,0.6-31.6c1.3-4.8,2.8-9.4,4.5-13.8c-4,3.4-7.9,8.8-9.9,11.8c-0.4,2.3-0.7,4.7-1,7c-1-5-2.8-10.3-5.6-15.6
			c4,14,4.3,22.6,4,29.5c-0.4,4.3-0.7,8.6-0.8,12.9c-1.3-7.9-3-15.9-5.8-21.5c0.7-1.6,3.9-5.3,4.8-6.6c-1.1,0.6-4.6,3.9-5.6,5.1
			c-0.6-1-1.3-1.9-2-2.8c0.4,1.2,0.8,2.4,1.2,3.7c-2.7,3.4-5,8.7-7,14.6c-1-5.1-2.1-10-3.1-14.9c1.5-5.2,10.4-23.3,12.2-28
			c-4,1.3-11.3,19.1-13.2,23.6c-1.6-7.1-3.4-13.8-5.1-19.9c-0.7,2.5-1.1,5.7-1.4,8.9c1.3,6,2.6,12.1,3.7,18.3
			c-1,3.2-2.1,6.7-3.1,10.4c-0.5-4-1.2-7.2-1.9-9.1c0.1,3,0.1,9.6-0.1,17.1c-1,4.4-2.1,9-3.1,13.8c-0.1-0.4-0.1-0.9-0.2-1.3
			c0,0.7,0,1.5,0,2.3c-0.9,4.2-1.8,8.5-2.6,12.9c0-1-0.1-1.9-0.1-2.8c0.3-3.2,0.7-6.4,1-9.6c1-8.5,2.4-31.2,3.4-39.9
			c-0.5-2.9-1-6.7-1.3-10.1c-4.3,22.6-9.7,59.3-12.3,80.9c1.6-23.7,4.4-48.3,3.7-64.2c-1.3,11.9-6.3,33.8-11,53.3
			c-0.3-19.8,0.2-39.4,5.2-55.4c-5.3,9.6-9.5,25.1-12.6,40.7c0.2-4.2,0.4-9,0.5-14.1c1.8-13,5.7-26.2,13.1-38.6
			c-5.8,5.8-10.1,15.4-13.2,27c-0.7-18-3.8-37-13.4-45.7c10.9,20.6,10.2,45.7,7.2,68.3c-1-6.7-2-13.5-3.2-20.2
			c-0.4-3.6-1-6.7-1.8-9.4c-2.3-11.2-5.1-21.5-8.5-28.6v0.3c3.7,10.7,6,23.7,7.3,37c-0.9,9.6-3,21.9-5.3,34
			c-0.1-2.6-0.2-5.2-0.4-7.6c1.5-5.7,3.5-11.6,3.7-20.5c-1.1,6.4-2.6,11.6-4,16.4c-1-9.7-1.9-18.2,2.4-25.3c-1.6,2-2.7,4.1-3.6,6.3
			v48.2h97.5c-0.1-0.7-0.1-1.5-0.2-2.3c0.1-12.3,0.5-25.5,2.2-37.3c0.2,5.2-0.1,10.3-0.5,15.4c-0.7,9.7-1.5,16.8-1.1,24.2h38
			c0.1-9.2,0.7-17.3,1.8-22.5c-1.2,2-5,7.3-5.9,10.2c-1.9-20,1-37,10.5-48.6c0.1,0.8,0.2,1.6,0.4,2.3c-3,20.9-5.3,43.2-6.5,58.6h8.8
			c0.9-11.9,1.6-22.8,1.3-31.3c-0.7,6.4-2.6,15.6-4.9,25.7c1.4-10.5,3-24.2,4.4-36.4c1.1,5.8,2.2,11.6,3.2,17.1
			c0.2,1,0.4,2.1,0.6,3.1c-0.3,4.1-0.7,8.2-1.1,12c-0.7,3.4-1.4,6.7-2.2,9.9h49.1c0-18.9,4.4-52.7,11.8-69.4
			c1.8,14.1,2,26.3,1.5,36.9c-0.9,1.5-1.7,3-2.6,4.6c0.5-7.5,0.8-14.2,0.6-20c-1,8.3-4.2,21.7-7.8,35.5c-1.3,3.7-2.4,7.9-3.3,12.4h8
			c0.2-1.9,0.4-4,0.6-5.9c0.8-4,1.9-7.6,3.1-10.8c-0.8,6.2-1.7,11.8-2.5,16.7h7.9c0.5-8.5,1.3-19.4,1.1-31.6c1-2,1.9-3.9,2.8-5.9
			c1.6,9.5,0.8,22.9-0.7,31.3c-0.3-4.3-0.7-8.4-1.3-11.9c0,4.6-0.5,10.9-1.3,18H453c0.2-10.7,1-21,3-30.1c1.9,6.4,4,12.6,5.8,19.2
			c-0.2,3.7-0.6,7.3-1,10.9h22.7c0-1,0-1.9,0-3c1.4-6,3.2-12,5.5-17.5c-0.1,4.3-0.1,8.6-0.1,13.4c-0.9,2.4-1.8,4.8-2.7,7.1h8.8
			c-0.1-1-0.3-2-0.4-3c-0.1-0.5-0.1-1-0.1-1.6c1.3-9.9,2.3-19.7,1.6-28.6c3.5-4.9,7.9-9.2,13.3-12.4c-4.9,1-9.5,4.2-13.7,9.1
			c-0.4-3.4-1.3-6.7-2.4-9.7c0.8,3.9,1.3,7.6,1.3,11c-1,1.3-2,2.7-3.1,4.2c-0.1-1.9-0.4-3.7-0.5-5.5c-0.1-1.3-0.3-2.6-0.5-4
			c1.1-3.9,2.6-7.6,5.1-12.3c1.9-3.7,4.6-7.4,7.5-9.9c1.3-1.2,4-2.9,6.6-4c0-0.4,0-0.7,0-1.1c-9.9,0.3-16.2,11.7-20,21.7
			c-1.3-15.1-9.1-34.3-24.5-43.6c5,4.9,14.6,17.8,16.5,22.7c1.9,5.1,3.8,10.8,4.9,15.9c0.7,3.5,1.3,6.5,1.7,9.3
			c-0.8,2.3-1.5,4.6-2.2,6.9c-1.7,3.3-3.3,7.1-4.7,11.4c0-0.3,0-0.6,0-0.9c0-7.7,0.9-16.3,1.7-26.3c-3.1,9.7-4.1,18-4.7,25.6
			c-0.3,4-0.2,7.9-0.1,11.7c-0.3,1-0.6,2.1-0.8,3.1c-0.3,0.7-0.6,1.6-0.9,2.3c1.4-18.7,4.6-41.9,1.9-56.8c0.8,13.5-4,38-8.5,60
			c-0.6-1.9-1.2-3.7-1.9-5.5c0.1-1.9,0.3-3.2,0.4-4c0.7-6.2-0.3-34,8.2-57.1c-7.8,9.8-10.4,33.6-11.9,46.1
			c-0.9-7.1-2.2-12.7-3.8-14.2c1,3,1.5,8.3,1.6,14.7c-1.6-4-3.1-8-4.6-12.3c2.9-19.6,10.1-27.6,10.3-28.2
			c-8.4,5.3-11.1,20.6-11.1,26.1c-3.1-9.1-5.5-18-7.5-31.7c0.1,15.3,2.5,26.9,5.5,37.8c-3.8,7.9-7,18.6-9.4,29.7
			c0.4-9.7-0.4-27.8-3.9-36.4c4.6-11.2,7.3-24,2.4-48.8c2.9,22.1-0.1,34.3-5.2,44.7l0,0l0,0c-0.4,0.9-0.8,1.8-1.3,2.6
			C437,38.7,438.8,15.6,425.6-2c6.4,11.5,4.7,21.2,5.9,30.5c-9.6,11.7-15.9,41.4-19.1,55.7c2.6-17.7,5.8-33.3,2.2-53.3
			c-0.1,13.5-3.1,29.4-6.6,46.2c1-22.1,2.9-48.4,9.9-66.4c-8.5,12.6-11.7,37.1-13.8,59c-0.1-8.4-0.9-15.6-2.8-20.8
			c1.9,16.6-2.6,26.1-6.1,42.8c-0.2-14.5,0.1-28.6,1.8-36.1c-3.8,6.1-6.2,16.7-8,29c0.1-16.1,1.5-34.9,8.8-43.7
			c-4.3,3.2-7.9,10.3-10.8,18.5c4.2-17.1,11.1-33.7,25.1-44.5c-12,4-21.8,22.1-29.3,44.1c-0.9-14.9-3.6-32.4-8.3-38.7
			c0.7-5.5,1.6-10.5,2.5-15.2c-2.3,1.3-3.7,2.6-4.7,3.7c-1,4.7-1.9,9.8-2.8,15.3c-1.6-6.4-3.1-12.5-4.6-18.1c-1.3-1.9-2.8-4-5-6.4
			c0.6,2.4,1.2,4.8,1.7,7c1.1,4.3,3.2,18.3,4.9,29.4C353.5,44.8,351.3,62.4,349.4,82.8L349.4,82.8z M224.3,32.9
			c0.4-1.3,0.7-2.5,1.1-3.7c-0.4,0.7-0.7,1.3-1.1,2V32.9z M342.4,73.3c-0.1-2.9-0.1-5.8-0.1-8.7c0.3,2.2,0.6,4.6,0.7,6.9
			C342.8,72.1,342.6,72.7,342.4,73.3L342.4,73.3z M331.4,71.1c-0.9-7-1.7-13.2-2.5-16.5c0.4,5.5,1.3,23.6,1.4,35.6
			c-0.7-4-1.3-8.2-1.9-13.1c-0.7-6.2-0.4-12.6-0.9-18.9c-0.2-3.5-0.8-6.7-1.7-9.8c1.3-4.9,2.8-9.5,4.9-13.4
			C331.4,47.6,331.4,60.1,331.4,71.1L331.4,71.1z M323.8,42.6c1.4-8.6,3.2-16.9,5.6-24.4c0.6,5.4,1,11,1.3,16.5
			c-2.7,2.2-4.8,5.5-6.4,9.2C324.2,43.5,323.9,43.1,323.8,42.6L323.8,42.6z M314.6,75.8c0.1-13.9,0.8-27.5,3.6-39.3
			c0.7,2.8,1.8,5.3,2.7,7.9C318.5,54.8,316.4,65.7,314.6,75.8L314.6,75.8z M304.9,57.4c-0.4-2.8-0.7-5.5-0.7-8.4
			c0.3-5.2,0.9-10.3,1.6-15.3C305.7,41.4,305.4,49.2,304.9,57.4L304.9,57.4z M298,86.7c0.4-12.3-0.2-23.1-2.9-29.8
			c0.3,5.5-0.6,14.1-2.1,23.8c-0.6-2.7-1.2-5.5-1.7-8.2c0.6-4.7,1.3-8.7,1.9-11.5c-0.9,1.6-1.9,3.7-3,6.3c-1-4.6-1.9-9.4-2.9-14.1
			c1.4-8,3.3-15.6,5.8-21.5c4.1,14.4,5.2,30.4,6.4,41.5c0.1,2.4,0.1,4.7,0.2,7C299.2,82.3,298.6,84.4,298,86.7L298,86.7z
			 M284.5,86.2c0-4,0.1-8.8,0.5-13.9c0.4,2.3,0.7,4.6,1,6.9C285.4,81.6,284.9,84,284.5,86.2L284.5,86.2z M277.2,77.5
			c0.1-6.5-0.1-16.2-0.7-24.9c1-4.8,2-9.5,3.2-14.1c0.9,5.3,1.8,10.6,2.6,15.9C280.1,62.8,278.4,71.4,277.2,77.5L277.2,77.5z
			 M233.7,92.6c0.1-2,0.2-4.1,0.4-6.1c0,1.1,0.1,2.2,0.1,3.3C234,90.7,233.9,91.6,233.7,92.6L233.7,92.6z"/>
		<path class="st1" d="M45.2,65.5c-0.7-13.3-0.1-31.3,4.6-44.9c0.5,3.6,1,7.4,1.6,11.6c0.1,1.2,0.4,2.7,0.5,4.4
			C49.4,46.7,47.1,56.7,45.2,65.5L45.2,65.5z M74.9,82.8c-1.9-20.4-4.1-38-17.1-46.6c1.8-11.1,3.9-25.1,4.9-29.4
			c0.6-2.2,1.1-4.6,1.7-7c-2.1,2.4-3.7,4.6-5,6.4C58,11.9,56.4,18,54.8,24.4C53.9,18.9,53,13.8,52,9.1c-0.9-1.1-2.4-2.4-4.6-3.7
			c0.9,4.7,1.6,9.7,2.4,15.2c-4.6,6.4-7.4,23.9-8.2,38.7c-7.6-22-17.4-40.2-29.4-44.1C26,25.9,33,42.6,37.2,59.7
			c-2.8-8.2-6.4-15.3-10.7-18.5c7.2,8.8,8.5,27.6,8.7,43.7c-1.7-12.3-4.1-23-8-29c1.7,7.5,2,21.5,1.8,36.1
			c-3.4-16.7-7.9-26.2-6.1-42.8c-1.9,5.2-2.7,12.4-2.8,20.8C18,48,14.7,23.5,6.3,10.9c7,18,9,44.2,9.9,66.4
			C12.8,60.4,9.7,44.6,9.6,31C6,51,9.2,66.6,11.7,84.3c-1.3-6.3-3.4-15.6-6-25.1v39.1h47.9c-0.7-3.1-1.4-6.5-2.1-9.9
			c-0.5-3.7-0.9-7.9-1.1-12c0.1-1,0.4-2.1,0.5-3.1c1-5.5,2.1-11.2,3.2-17.1c1.4,12.1,3.1,25.9,4.4,36.4c-2.3-10.1-4.2-19.3-4.9-25.7
			C53.3,75.5,54,86.5,55,98.4h8.8c-1.3-15.3-3.6-37.7-6.6-58.6c0.1-0.7,0.3-1.5,0.4-2.3C67.2,49.1,69.9,66,68.1,86.1
			c-1-2.9-4.7-8.2-5.9-10.2c1.1,5.2,1.6,13.3,1.8,22.5H102c0.4-7.4-0.3-14.5-1-24.2c-0.4-5.1-0.8-10.2-0.6-15.4
			c1.8,11.8,2.1,25,2.3,37.3c-0.1,0.8-0.2,1.6-0.3,2.3h128.5c-2.2-15.3-4-40.8-2.9-62.2c-0.1,0-0.1-0.1-0.1-0.1l0.1,0.1
			c0.1-3.4,0.2-6.9,0.3-10.2c-0.7-1.3-1.6-3-2.5-5.4c-2.5,16.2-2.2,37.7-2.1,54.5c-0.4-1.5-0.7-3.2-1.2-5c0.5-16.5,0-36.4-4.2-56.6
			c-0.9,1.2-1.7,2.8-2.3,4.3c1.4,11.2,1.9,21.2,1.7,30.3c-0.1-0.7-0.3-1.3-0.4-2.1c0-0.7,0-1.4,0-2.2c-0.1,0.4-0.1,0.8-0.1,1.3
			c-1-4.7-2.2-9.6-3.3-14.5c0.3-3.1,0.6-5.5,0.7-7.1c-0.5,1.2-1,2.6-1.3,4.3c-0.9-3.7-1.8-7.4-2.8-11.1l-3.1-4.1
			c1.7,7.7,3.1,15.6,4.4,23.1c-1.3,8.6-1.7,19.4-1.3,29c-2.9-13.7-6.7-26.9-11.5-35.5c4.2,13.4,5.2,29.2,5.2,45.4
			c-1.6-12.7-1.3-22.2-7.8-30.7c4.3,7.1,3.4,15.6,2.4,25.3c-1.4-4.8-2.9-10-4-16.4c0.1,8.9,2.1,14.8,3.6,20.5
			c-0.1,2.5-0.4,5-0.4,7.6c-2.3-12.1-4.4-24.5-5.3-34c1.5-13.8,3.8-27.3,7.8-38.2c-3.6,7.1-6.4,17.7-8.9,29.4
			c-0.8,2.7-1.4,5.8-1.8,9.4c-1.2,6.7-2.2,13.5-3.2,20.2c-3-22.6-3.7-47.7,7.2-68.3c-9.6,8.8-12.7,27.8-13.4,45.7
			c-3.1-11.6-7.4-21.2-13.2-27c7.5,12.4,11.3,25.6,13.2,38.6c0.1,5.1,0.2,9.9,0.5,14.1c-3.1-15.6-7.3-31.1-12.6-40.7
			c5,16,5.5,35.6,5.3,55.4c-4.7-19.4-9.7-41.4-11.1-53.3c-0.7,15.9,2.2,40.5,3.7,64.2c-2.7-21.5-8.1-58.3-12.3-80.9
			c-0.4,3.4-0.8,7.2-1.3,10.1c1,8.7,2.5,31.4,3.4,39.9c0.4,3.2,0.7,6.4,1.1,9.6c-0.1,0.9-0.1,1.8-0.1,2.8c-0.8-4.4-1.7-8.7-2.5-12.9
			c-0.1-0.8-0.1-1.6-0.1-2.3c-0.1,0.4-0.1,0.8-0.1,1.3c-1-4.8-2-9.4-3.1-13.8c-0.3-7.5-0.3-14.1-0.1-17.1c-0.7,1.9-1.3,5.1-1.9,9.1
			c-1-3.7-1.9-7.2-3.1-10.4c1.2-6.2,2.4-12.3,3.7-18.3c-0.2-3.2-0.7-6.4-1.3-8.9c-1.8,6.1-3.4,12.8-5.1,19.9
			C141.2,20,133.7,2.3,129.8,1c1.9,4.6,10.7,22.8,12.2,28c-1,4.9-2.1,9.8-3.1,14.9c-2-5.9-4.3-11.1-7-14.6c0.4-1.3,0.7-2.5,1.2-3.7
			c-0.7,0.8-1.3,1.7-1.9,2.8c-1.1-1.2-4.5-4.5-5.7-5.1c0.9,1.3,4,5,4.9,6.6c-2.8,5.6-4.5,13.6-5.8,21.5c-0.2-4.3-0.5-8.6-0.9-12.9
			c-0.1-7,0.1-15.6,4-29.5c-2.8,5.2-4.5,10.5-5.5,15.6c-0.4-2.3-0.7-4.7-1.1-7C119,14.4,115,9,111.1,5.6c1.7,4.3,3.1,9,4.4,13.8
			c-0.3,10,0,20.6,0.6,31.6c-0.3-1.7-0.6-3.4-0.8-5.2c-0.3,8,0.1,16.6,1,27.3c-0.1,0.5-0.2,1-0.3,1.5c-2.3-13.5-3.4-29.7-9.4-40.6
			c1-5.2,0.8-10.4-0.3-15.6c0.2,4.5-0.2,8.8-1.3,12.9c-0.3-0.3-0.5-0.7-0.7-1c0.1,0.6,0.4,1.2,0.5,1.8c-0.7,2.5-1.7,4.9-2.8,7.2
			c-2.1-8.4-4.4-16.2-7-22.4c0.7-5.8,1.6-11.4,2.8-16.8l-0.6-0.3c-1.3,4.3-2.4,9.1-3.4,14.2c-0.7-1.5-1.3-2.8-2-4.1
			c0.7,1.6,1.3,3.2,1.9,4.9c-3.5,18.5-5.5,40.8-7.1,58.3c-0.2-3.5-0.4-7.2-0.5-11.3c0-2.1-0.1-6.7-0.7-12c0.6-2,1.2-3.9,1.7-5.8
			c-0.7,1.1-1.3,2.5-1.9,3.8c-1.2-10.3-4.4-23-12.5-27.8c7.9,7.2,9.1,25.9,9.3,36.1c-0.9,2.4-1.1,3.2-1.9,5.9
			c0.1-3.5-1.9-18-8.3-24.2c2.8,4,6.3,25.6,7,29C77.2,71.7,75.9,77.3,74.9,82.8L74.9,82.8z M81.8,73.3c-0.2-0.6-0.4-1.2-0.7-1.8
			c0.1-2.3,0.4-4.6,0.8-6.9C82,67.5,81.9,70.4,81.8,73.3L81.8,73.3z M92.8,71.1c0-11.1,0-23.6,0.7-36.1c2.1,3.9,3.7,8.5,4.9,13.4
			c-0.9,3.1-1.4,6.3-1.7,9.8c-0.4,6.3-0.1,12.7-0.9,18.9c-0.7,4.9-1.3,9.1-1.9,13.1c0.1-12,1-30.1,1.3-35.6
			C94.6,58,93.7,64.2,92.8,71.1L92.8,71.1z M100.5,42.6c-0.2,0.4-0.4,0.9-0.6,1.3c-1.6-3.7-3.7-7-6.4-9.2c0.3-5.5,0.7-11.1,1.3-16.5
			C97.2,25.7,99,34,100.5,42.6L100.5,42.6z M109.7,75.8c-1.9-10.2-4-21.1-6.4-31.4c1-2.5,1.9-5.1,2.7-7.9
			C108.8,48.3,109.6,61.9,109.7,75.8L109.7,75.8z M119.3,57.4c-0.4-8.2-0.7-16.1-0.9-23.6c0.8,4.9,1.3,10,1.7,15.3
			C120,51.9,119.8,54.7,119.3,57.4L119.3,57.4z M126.1,86.7c-0.5-2.2-1.1-4.4-1.6-6.4c0.1-2.3,0.1-4.6,0.2-7
			c1.2-11.1,2.2-27.1,6.4-41.5c2.5,5.8,4.5,13.5,5.8,21.5c-1,4.7-1.9,9.4-2.8,14.1c-1-2.5-2.1-4.7-3.1-6.3c0.6,2.8,1.3,6.8,1.9,11.5
			c-0.6,2.8-1.2,5.5-1.8,8.2c-1.5-9.7-2.4-18.3-2.1-23.8C126.4,63.6,125.8,74.3,126.1,86.7L126.1,86.7z M139.7,86.2
			c-0.4-2.2-0.9-4.6-1.6-7c0.4-2.2,0.7-4.6,1.1-6.9C139.5,77.4,139.7,82.2,139.7,86.2L139.7,86.2z M147,77.5
			c-1.2-6.1-2.8-14.7-5-23.1c0.8-5.3,1.6-10.6,2.6-15.9c1.1,4.6,2.2,9.4,3.1,14.1C147.1,61.3,146.8,71,147,77.5L147,77.5z
			 M190.5,92.6c-0.2-1-0.4-1.9-0.5-2.8c0-1.1,0.1-2.2,0.1-3.3C190.2,88.5,190.4,90.6,190.5,92.6L190.5,92.6z M215.4,61.8
			c-2.5-4.4-2.9-11.6-2.7-18.7C213.8,49.7,214.7,56,215.4,61.8L215.4,61.8L215.4,61.8z"/>
		<path class="st1" d="M961,67.3c-0.2,4.3-0.9,8.2-1.9,12c0-0.4-0.1-0.8-0.1-1.2c-0.2-2.2-0.4-4.3-0.6-6.4
			C959.2,70.2,960,68.7,961,67.3L961,67.3z M953.3,75.5c0.4-1.9,0.7-3.8,1-5.7c0.4-2,0.7-3.8,1-5.5c0.1,2.3,0.2,4.6,0.2,7.1
			C954.8,72.6,954,74.1,953.3,75.5L953.3,75.5z M845.4,65.5c-2-8.8-4.3-18.9-6.7-28.9c0.2-1.7,0.4-3.2,0.5-4.4
			c0.6-4.2,1.1-8,1.6-11.6C845.5,34.2,846.1,52.2,845.4,65.5L845.4,65.5z M815.7,82.8c-1.1-5.5-2.4-11.1-3.7-16.2
			c0.6-3.4,4.1-24.9,6.9-29c-6.4,6.2-8.4,20.7-8.3,24.2c-0.7-2.7-1-3.5-1.9-5.9c0.1-10.2,1.3-28.9,9.2-36.1
			c-8.1,4.8-11.2,17.5-12.5,27.8c-0.6-1.3-1.3-2.7-1.9-3.8c0.6,1.9,1.2,3.7,1.7,5.8c-0.5,5.4-0.6,9.9-0.7,12
			c-0.1,4.1-0.2,7.8-0.4,11.3c-1.6-17.6-3.7-39.9-7.1-58.3c0.6-1.7,1.2-3.4,1.9-4.9c-0.7,1.3-1.4,2.6-2.1,4.1
			c-1-5.1-2.1-9.9-3.3-14.2l-0.7,0.3c1.2,5.3,2.1,10.9,2.8,16.8c-2.5,6.3-4.9,14.1-7,22.4c-1-2.3-2.1-4.6-2.8-7.2
			c0.2-0.6,0.4-1.2,0.6-1.8c-0.3,0.4-0.5,0.7-0.7,1c-1.1-4.1-1.5-8.4-1.3-12.9c-1.1,5.2-1.3,10.4-0.4,15.6
			c-5.9,10.9-7.1,27.1-9.4,40.6c-0.1-0.5-0.1-1-0.2-1.5c0.8-10.7,1.3-19.3,1-27.3c-0.1,1.8-0.4,3.5-0.8,5.2
			c0.7-11,0.9-21.5,0.6-31.6c1.3-4.8,2.8-9.4,4.5-13.8c-4,3.4-7.9,8.8-9.9,11.8c-0.4,2.3-0.7,4.7-1,7c-1-5-2.8-10.3-5.6-15.6
			c4,14,4.3,22.6,4,29.5c-0.4,4.3-0.7,8.6-0.8,12.9c-1.3-7.9-3-15.9-5.8-21.5c0.7-1.6,3.9-5.3,4.8-6.6c-1.1,0.6-4.6,3.9-5.6,5.1
			c-0.6-1-1.3-1.9-2-2.8c0.4,1.2,0.8,2.4,1.2,3.7c-2.7,3.4-5,8.7-7,14.6c-1-5.1-2.1-10-3.1-14.9c1.5-5.2,10.4-23.3,12.2-28
			c-4,1.3-11.3,19.1-13.2,23.6c-1.6-7.1-3.4-13.8-5.1-19.9c-0.7,2.5-1.1,5.7-1.4,8.9c1.3,6,2.6,12.1,3.7,18.3
			c-1,3.2-2.1,6.7-3.1,10.4c-0.5-4-1.2-7.2-1.9-9.1c0.1,3,0.1,9.6-0.1,17.1c-1,4.4-2.1,9-3.1,13.8c-0.1-0.4-0.1-0.9-0.2-1.3
			c0,0.7,0,1.5,0,2.3c-0.9,4.2-1.8,8.5-2.6,12.9c0-1-0.1-1.9-0.1-2.8c0.3-3.2,0.7-6.4,1-9.6c1-8.5,2.4-31.2,3.4-39.9
			c-0.5-2.9-1-6.7-1.3-10.1c-4.3,22.6-9.7,59.3-12.3,80.9c1.6-23.7,4.4-48.3,3.7-64.2c-1.3,11.9-6.3,33.8-11,53.3
			c-0.3-19.8,0.2-39.4,5.2-55.4c-5.3,9.6-9.5,25.1-12.6,40.7c0.2-4.2,0.4-9,0.5-14.1c1.8-13,5.7-26.2,13.1-38.6
			c-5.8,5.8-10.1,15.4-13.2,27c-0.7-18-3.8-37-13.4-45.7c10.9,20.6,10.2,45.7,7.2,68.3c-1-6.7-2-13.5-3.2-20.2
			c-0.4-3.6-1-6.7-1.8-9.4c-2.3-11.2-5.1-21.5-8.5-28.6v0.3c3.7,10.7,6,23.7,7.3,37c-0.9,9.6-3,21.9-5.3,34
			c-0.1-2.6-0.2-5.2-0.4-7.6c1.5-5.7,3.5-11.6,3.7-20.5c-1.1,6.4-2.6,11.6-4,16.4c-1-9.7-1.9-18.2,2.4-25.3c-1.6,2-2.7,4.1-3.6,6.3
			v48.2h97.5c-0.1-0.7-0.1-1.5-0.2-2.3c0.1-12.3,0.5-25.5,2.2-37.3c0.2,5.2-0.1,10.3-0.5,15.4c-0.7,9.7-1.5,16.8-1.1,24.2h38
			c0.1-9.2,0.7-17.3,1.8-22.5c-1.2,2-5,7.3-5.9,10.2c-1.9-20,1-37,10.5-48.6c0.1,0.8,0.2,1.6,0.4,2.3c-3,20.9-5.3,43.2-6.5,58.6h8.8
			c0.9-11.9,1.6-22.8,1.3-31.3c-0.7,6.4-2.6,15.6-4.9,25.7c1.4-10.5,3-24.2,4.4-36.4c1.1,5.8,2.2,11.6,3.2,17.1
			c0.2,1,0.4,2.1,0.6,3.1c-0.3,4.1-0.7,8.2-1.1,12c-0.7,3.4-1.4,6.7-2.2,9.9H886c0-18.9,4.4-52.7,11.8-69.4
			c1.8,14.1,2,26.3,1.5,36.9c-0.9,1.5-1.7,3-2.6,4.6c0.5-7.5,0.8-14.2,0.6-20c-1,8.3-4.2,21.7-7.8,35.5c-1.3,3.7-2.4,7.9-3.3,12.4h8
			c0.2-1.9,0.4-4,0.6-5.9c0.8-4,1.9-7.6,3.1-10.8c-0.8,6.2-1.7,11.8-2.5,16.7h7.9c0.5-8.5,1.3-19.4,1.1-31.6c1-2,1.9-3.9,2.8-5.9
			c1.6,9.5,0.8,22.9-0.7,31.3c-0.3-4.3-0.7-8.4-1.3-11.9c0,4.6-0.5,10.9-1.3,18h15.6c0.2-10.7,1-21,3-30.1c1.9,6.4,4,12.6,5.8,19.2
			c-0.2,3.7-0.6,7.3-1,10.9h22.7c0-1,0-1.9,0-3c1.4-6,3.2-12,5.5-17.5c-0.1,4.3-0.1,8.6-0.1,13.4c-0.9,2.4-1.8,4.8-2.7,7.1h8.8
			c-0.1-1-0.3-2-0.4-3c-0.1-0.5-0.1-1-0.1-1.6c1.3-9.9,2.3-19.7,1.6-28.6c3.5-4.9,7.9-9.2,13.3-12.4c-4.9,1-9.5,4.2-13.7,9.1
			c-0.4-3.4-1.3-6.7-2.4-9.7c0.8,3.9,1.3,7.6,1.3,11c-1,1.3-2,2.7-3.1,4.2c-0.1-1.9-0.4-3.7-0.5-5.5c-0.1-1.3-0.3-2.6-0.5-4
			c1.1-3.9,2.6-7.6,5.1-12.3c1.9-3.7,4.6-7.4,7.5-9.9c1.3-1.2,4-2.9,6.6-4c0-0.4,0-0.7,0-1.1c-9.9,0.3-16.2,11.7-20,21.7
			c-1.3-15.1-9.1-34.3-24.5-43.6c5,4.9,14.6,17.8,16.5,22.7c1.9,5.1,3.8,10.8,4.9,15.9c0.7,3.5,1.3,6.5,1.7,9.3
			c-0.8,2.3-1.5,4.6-2.2,6.9c-1.7,3.3-3.3,7.1-4.7,11.4c0-0.3,0-0.6,0-0.9c0-7.7,0.9-16.3,1.7-26.3c-3.1,9.7-4.1,18-4.7,25.6
			c-0.3,4-0.2,7.9-0.1,11.7c-0.3,1-0.6,2.1-0.8,3.1c-0.3,0.7-0.6,1.6-0.9,2.3c1.4-18.7,4.6-41.9,1.9-56.8c0.8,13.5-4,38-8.5,60
			c-0.6-1.9-1.2-3.7-1.9-5.5c0.1-1.9,0.3-3.2,0.4-4c0.7-6.2-0.3-34,8.2-57.1c-7.8,9.8-10.4,33.6-11.9,46.1
			c-0.9-7.1-2.2-12.7-3.8-14.2c1,3,1.5,8.3,1.6,14.7c-1.6-4-3.1-8-4.6-12.3c2.9-19.6,10.1-27.6,10.3-28.2
			c-8.4,5.3-11.1,20.6-11.1,26.1c-3.1-9.1-5.5-18-7.5-31.7c0.1,15.3,2.5,26.9,5.5,37.8c-3.8,7.9-7,18.6-9.4,29.7
			c0.4-9.7-0.4-27.8-3.9-36.4c4.6-11.2,7.3-24,2.4-48.8c2.9,22.1-0.1,34.3-5.2,44.7l0,0l0,0c-0.4,0.9-0.8,1.8-1.3,2.6
			c-0.9-18.5,0.9-41.6-12.3-59.1c6.4,11.5,4.7,21.2,5.9,30.5c-9.6,11.7-15.9,41.4-19.1,55.7c2.6-17.7,5.8-33.3,2.2-53.3
			c-0.1,13.5-3.1,29.4-6.6,46.2c1-22.1,2.9-48.4,9.9-66.4c-8.5,12.6-11.7,37.1-13.8,59c-0.1-8.4-0.9-15.6-2.8-20.8
			c1.9,16.6-2.6,26.1-6.1,42.8c-0.2-14.5,0.1-28.6,1.8-36.1c-3.8,6.1-6.2,16.7-8,29c0.1-16.1,1.5-34.9,8.8-43.7
			c-4.3,3.2-7.9,10.3-10.8,18.5c4.2-17.1,11.1-33.7,25.1-44.5c-12,4-21.8,22.1-29.3,44.1c-0.9-14.9-3.6-32.4-8.3-38.7
			c0.7-5.5,1.6-10.5,2.5-15.2c-2.3,1.3-3.7,2.6-4.7,3.7c-1,4.7-1.9,9.8-2.8,15.3c-1.6-6.4-3.1-12.5-4.6-18.1c-1.3-1.9-2.8-4-5-6.4
			c0.6,2.4,1.2,4.8,1.7,7c1.1,4.3,3.2,18.3,4.9,29.4C819.8,44.8,817.6,62.4,815.7,82.8L815.7,82.8z M690.6,32.9
			c0.4-1.3,0.7-2.5,1.1-3.7c-0.4,0.7-0.7,1.3-1.1,2V32.9z M808.7,73.3c-0.1-2.9-0.1-5.8-0.1-8.7c0.3,2.2,0.6,4.6,0.7,6.9
			C809.1,72.1,809,72.7,808.7,73.3L808.7,73.3z M797.7,71.1c-0.9-7-1.7-13.2-2.5-16.5c0.4,5.5,1.3,23.6,1.4,35.6
			c-0.7-4-1.3-8.2-1.9-13.1c-0.7-6.2-0.4-12.6-0.9-18.9c-0.2-3.5-0.8-6.7-1.7-9.8c1.3-4.9,2.8-9.5,4.9-13.4
			C797.7,47.6,797.7,60.1,797.7,71.1L797.7,71.1z M790.1,42.6c1.4-8.6,3.2-16.9,5.6-24.4c0.6,5.4,1,11,1.3,16.5
			c-2.7,2.2-4.8,5.5-6.4,9.2C790.5,43.5,790.3,43.1,790.1,42.6L790.1,42.6z M780.9,75.8c0.1-13.9,0.8-27.5,3.6-39.3
			c0.7,2.8,1.8,5.3,2.7,7.9C784.8,54.8,782.7,65.7,780.9,75.8L780.9,75.8z M771.2,57.4c-0.4-2.8-0.7-5.5-0.7-8.4
			c0.3-5.2,0.9-10.3,1.6-15.3C772,41.4,771.7,49.2,771.2,57.4L771.2,57.4z M764.4,86.7c0.4-12.3-0.2-23.1-2.9-29.8
			c0.3,5.5-0.6,14.1-2.1,23.8c-0.6-2.7-1.2-5.5-1.7-8.2c0.6-4.7,1.3-8.7,1.9-11.5c-0.9,1.6-1.9,3.7-3,6.3c-1-4.6-1.9-9.4-2.9-14.1
			c1.4-8,3.3-15.6,5.8-21.5c4.1,14.4,5.2,30.4,6.4,41.5c0.1,2.4,0.1,4.7,0.2,7C765.5,82.3,765,84.4,764.4,86.7L764.4,86.7z
			 M750.8,86.2c0-4,0.1-8.8,0.5-13.9c0.4,2.3,0.7,4.6,1,6.9C751.7,81.6,751.2,84,750.8,86.2L750.8,86.2z M743.5,77.5
			c0.1-6.5-0.1-16.2-0.7-24.9c1-4.8,2-9.5,3.2-14.1c0.9,5.3,1.8,10.6,2.6,15.9C746.4,62.8,744.8,71.4,743.5,77.5L743.5,77.5z
			 M700,92.6c0.1-2,0.2-4.1,0.4-6.1c0,1.1,0.1,2.2,0.1,3.3C700.3,90.7,700.2,91.6,700,92.6L700,92.6z"/>
		<path class="st1" d="M504.4,98.4h5.2c0-15.9-1.2-35.9-7.9-48.9C508.1,75.8,506.2,85.8,504.4,98.4L504.4,98.4z"/>
		<path class="st1" d="M498,61.3c1.8,10.5,0.7,23.5-1.5,37.1h5.8C502.2,83,501.1,68.7,498,61.3L498,61.3z"/>
		<path class="st1" d="M454.2,98.4h3.8c0.2-5.6,0.7-10.4,1.6-13.8C457.4,87.9,455.7,92.7,454.2,98.4L454.2,98.4z"/>
	</g>
</g>
</svg>
