<?xml version="1.0" encoding="utf-8"?>
<!-- Generator: Adobe Illustrator 22.0.1, SVG Export Plug-In . SVG Version: 6.00 Build 0)  -->
<svg version="1.1" id="圖層_1" xmlns="http://www.w3.org/2000/svg" xmlns:xlink="http://www.w3.org/1999/xlink" x="0px" y="0px"
	 viewBox="0 0 400 320" style="enable-background:new 0 0 400 320;" xml:space="preserve">
<style type="text/css">
	.st0{fill:#BC8D48;}
	.st1{fill:#A87533;}
	.st2{fill:none;stroke:#BC8D48;stroke-width:6;stroke-miterlimit:10;}
	.st3{fill:#D3B48C;}
	.st4{fill:#B79C80;}
	.st5{fill:#726359;}
	.st6{fill:#9B7E6A;}
</style>
<g>
	<g>
		<path class="st0" d="M176.4,25.2c0,0,30.6,26.2,45.3,129c14.8,103.3,2.2,195.7,2.2,195.7h-14.3c0,0,12.5-171.4-0.7-228.8
			s-35.5-92-35.5-92L176.4,25.2z"/>
		<g>
			<path class="st1" d="M14.3,61.3c2.7-2,5.8-4.3,8.4-5.2c2.7-1.2,13.1-3.9,14.1,0.9c1.9,11-23.1,11.9-27.6,8.3
				C10.6,64.2,12.4,62.8,14.3,61.3L14.3,61.3z"/>
			<path class="st1" d="M28.1,47.8c1.7-0.8,3.8-1.8,5.9-2.9c3.3-1.6,6.8-3.2,9.5-3.6c3-0.7,14.1-1.5,14,3.4
				C57.6,56,31.9,52.3,28.1,47.8L28.1,47.8z"/>
			<path class="st1" d="M99.3,11.2c1.9-0.1,4.2-0.2,6.9-0.2c3.9-0.3,7.9-0.4,10.7,0.3c3.2,0.8,14.2,4.3,11.8,9.1
				C123.7,30.7,100.8,16.9,99.3,11.2L99.3,11.2z"/>
			<path class="st1" d="M176,26.3c-0.2,4.3-15.7,6.5-19.8,6.2c-3.8-0.3-8.3-1.4-12.7-2.3c-2.6-0.8-5.4-1.5-7.6-2.2
				C141.3,23.7,176.6,16.6,176,26.3L176,26.3z"/>
			<path class="st1" d="M50.5,32.9c1.9-0.7,3.9-1.4,6.1-2.1c3.5-1.1,7-2.1,9.7-2.2c3.1-0.1,13.9,0.9,13.2,5.7
				C77.7,45.4,53.5,37.9,50.5,32.9L50.5,32.9z"/>
		</g>
		<g>
			<path class="st0" d="M24.7,70.7c2.7,4.4-6.3,14.6-9,17c-2.5,2.2-6,4.1-9.4,5.8C4,94.8,2,95.6,0.1,96.6
				C0.6,88.8,18.4,60.7,24.7,70.7L24.7,70.7z"/>
			<path class="st0" d="M39,61.1c3.3,2.7-2.7,13.4-4.5,16.3c-1.7,2.4-4.5,5.3-7.1,7.7c-1.8,1.4-3.5,3-4.9,4.1
				C21.2,82.8,31.3,54.8,39,61.1L39,61.1z"/>
			<path class="st0" d="M59.1,48c3.1,3.2-3.1,15.5-5.2,18.1c-2.1,2.5-5.1,4.8-8.2,7.2c-2,1.4-3.9,2.9-5.4,3.8
				C39.6,70.7,52,41.2,59.1,48L59.1,48z"/>
			<path class="st0" d="M127.8,23.6c2.1,3.6-8.4,14-11.6,16.2c-3,1.6-7.1,3.4-11,5c-2.4,1-4.9,1.7-6.9,2.6
				C100,40.9,122.9,15.4,127.8,23.6L127.8,23.6z"/>
			<path class="st0" d="M152.9,18.6c1.3,4-11.5,11.8-15.3,13.1c-3.3,1.2-7.8,2.2-12.1,2.8c-2.8,0.6-5.5,0.9-7.7,1.1
				C120.9,29.7,149.6,9.6,152.9,18.6L152.9,18.6z"/>
			<path class="st0" d="M105,31.1c1.8,4-8.8,12.6-12,14.4c-3,1.6-7,3-10.7,4.2c-2.5,0.7-4.9,1.3-7,1.7
				C77.2,45.2,100.7,22.3,105,31.1L105,31.1z"/>
			<path class="st0" d="M80.4,37.6c2.9,3.2-5.2,13.2-7.7,15.7c-2.3,2.3-5.5,4.6-8.7,6.7c-1.9,1.3-3.9,2.5-5.6,3.6
				C58.4,57.1,74.2,30.4,80.4,37.6L80.4,37.6z"/>
			<path class="st0" d="M124.8,1.7c2.1,0.3,4.7,0.5,7.2,0.9c4,0.6,8.2,1.3,11.1,2.4c3.1,1.2,13.5,7,10.2,11.2
				C145.7,25.3,125,7.6,124.8,1.7L124.8,1.7z"/>
			<path class="st0" d="M155.6,0c1.9,1,4.1,2.4,6.4,3.8c3.6,2.2,7.1,4.6,9.3,6.8c2.4,2.4,9.9,12.1,5.1,14.6
				C165.8,30.7,153.6,5.7,155.6,0L155.6,0z"/>
			<path class="st0" d="M76.5,17.1c1.9,0.1,4.3,0,6.8,0.1c3.8,0.1,7.7,0.2,10.5,1.1c3.2,0.8,13.6,5,11.3,9.6
				C99.9,38,77.7,23,76.5,17.1L76.5,17.1z"/>
		</g>
		<path class="st2" d="M21,72.1c0.9,0.2,22.1-23.4,66.8-37.8s72.1-22.9,85.6-9.1"/>
	</g>
	<g>
		<path class="st3" d="M258.6,172.4L226.1,213c0,0-17.6,40.1-15,41.9c2.6,1.7,11.4,11.2,11.4,11.2l16.1-27.1l23.5-37.6L258.6,172.4z
			"/>
		<path class="st3" d="M203.1,209.3c-14.3-48.9-35.8-95.7-63.6-138.4c9.4,1.4,15.7,10,21,17.9c16.7,25.2,33.5,50.8,43.6,79.3
			c10.1,28.5,12.8,60.8,1.2,88.7"/>
		<path class="st3" d="M216.4,229.8c-4.2-25.4,11.9-49.1,18.6-74c5-18.7,4.8-38.5,10.2-57c12.2-41.2,50.3-69,88.5-88.7
			c-32.2,30.1-66.4,63.6-73.1,107.2c-2.7,17.2-0.8,34.8-3.1,52.1c-4.1,29.7-20.5,56-36.4,81.4"/>
		<path class="st4" d="M257.5,169.4c18.2-16.8,44-28.7,68.3-33.7c24.3-5,49.2-5.4,74-5.3c-31.5,13.4-62.1,28.9-91.6,46.2
			c-18.4,10.8-36.7,22.6-50.9,38.7c-16.9,19.2-27.2,44.1-28.7,69.7"/>
		<path class="st3" d="M211.1,322.4c6.3-35.1,28.1-66.2,56-88.5c27.8-22.3,61.4-36.5,95.6-46.6c-41.3,26.6-82.9,57.4-103.5,101.9
			c-5.6,12-9.4,26.2-4.2,38.4"/>
		<path class="st4" d="M204.5,330.7c-9.6-38.9-27.8-75.6-53-106.7c-18-22.3-39.4-41.5-60.6-60.7c39.1-1.3,78.4,15.6,104.3,44.8
			s38.1,70.2,32.3,108.9"/>
		<g>
			<g>
				<path class="st5" d="M256.2,120.9c-0.4-1.8-1.3-4-1.4-5.9c-0.7-1.4-0.3-2.5,1.1-3.5c0.8-0.6,1.5-1.2,2.3-1.8
					c-0.5-0.3-1-0.6-1.5-0.9c-0.2,2.6-3.8,3-4.3,5.3c-0.4,2,2.4,3.6,3.6,4.8c0.7,0.6,2,0,1.7-1c-0.2-0.6-2.4-5.3-0.8-5
					c-0.2-0.4-0.5-0.8-0.7-1.2c-0.9,2.4-1.7,4.9-1.4,7.5c0.3,2.8,2.5,5.3,1.9,8.3c-0.2,1.3,1.7,1.8,1.9,0.5c0.4-2.1-0.1-3.6-0.8-5.6
					c-1.5-3.8-1-6.5,0.3-10.2c0.2-0.5-0.2-1.1-0.7-1.2c-1.4-0.2-2.4,0.1-3,1.4c-1.1,2.2,0.7,4.1,1.4,6c0.6-0.3,1.1-0.6,1.7-1
					c-0.6-0.5-3-2.2-2.7-3.3c0.2-0.7,1.9-1.6,2.5-2.1c1-1,1.4-1.8,1.5-3.2c0-0.7-0.9-1.3-1.5-0.9c-1.4,1.1-4.2,2.4-4.8,4.3
					c-0.8,2.5,1.2,6.7,1.7,9.1C254.5,122.6,256.5,122.1,256.2,120.9L256.2,120.9z"/>
			</g>
		</g>
		<g>
			<path class="st6" d="M274.7,247.4l-4.9,4.1l-1.2,2.3l1.3,3l0.8,4.4l3.8,2c0,0,5.5-6.5,5.3-6.9
				C279.6,255.8,274.7,247.4,274.7,247.4z"/>
			<g>
				<path class="st6" d="M162.6,206.7l3,6.4c0,0,6.8,13.3,8.6,16.1s2.7,6.6,2.7,6.6l-0.4,4.5l1,5.5l-5.8,7.6l17.5,32.5
					c0,0,11.8-2.6,14.3-10.5c2.5-7.9,3.1-23.6,2.7-26c-0.4-2.4-6.5-10.6-8.8-13c-2.3-2.4-11-8.8-13.9-10.5c-2.9-1.6-6.2-5.6-5.7-7.9
					c0.5-2.3,3.2-7.4,3-8.3c-0.2-0.9-1.5-7.8-4.5-8.6c-3-0.8-8.7-2-10.3-3.6c-1.6-1.7-7.2-5.8-8-5.6s3.5,7.8,3.5,8.2
					C161.4,200.6,162.6,206.7,162.6,206.7z"/>
				<path class="st6" d="M159.7,89c0,0-5.7-10.6-10.2-13.5c-4.5-2.9-9.2-3.4-9.2-3.4L152,91l3,4.3l3.1-2.1L159.7,89z"/>
				<path class="st6" d="M236.4,236.7c0,0-3.3,7.1-5.9,10.2s-8.1,9.6-8,9.8c0.1,0.2,4.6,22.9,4.4,23.3s5.6-8.9,5.6-8.9l3.1-10.4
					l7.1-21.9l2.8-8.5L236.4,236.7z"/>
				<path class="st6" d="M265.6,277l-2.1-1.8l-10.5,4c0,0-3.8,2.2-3.7,3.8s1.6,7.1-0.5,10.5s-5.7,5.5-6.1,5.6c-0.4,0.1,0-3.3,0-3.3
					s3-7.3,2.1-8c-0.8-0.7-5.4-3.1-6.6-5.3s-3.2-7.2-3.2-7.2l-2.8-5l-5.3,9.8c0,0,2,13.4,1.9,17.8c-0.1,4.4-1.4,19.1-1.4,19.1
					l-1.3,9.5l27.6-2.3c0,0-3-4.8-1.6-12.1c1.4-7.4,5.3-17.6,7.4-22.4C261.5,284.9,265.6,277,265.6,277z"/>
				<g>
					<path class="st6" d="M152.6,222.1c1.3-0.6,1.5-2.4,1.4-3.9c-0.1-1.5-0.1-3.2,1.1-4c1.4-0.9,3.4,0.4,4,2.1s0.2,3.4,0.4,5.1
						c0.1,1.3,0.5,2.5,0.5,3.8c-0.1,1.3-0.8,2.6-2,2.9"/>
				</g>
				<g>
					<path class="st6" d="M162.1,207c0.9-0.1,0.9-1.5,0.3-2.2c-0.6-0.7-1.5-1.2-1.6-2.1c0-0.6,0.3-1.1,0.4-1.7
						c0.9-3.2-3.8-5.5-4-8.9c2-0.7,4.3,0.6,5.7,2.2c1.5,1.6,2.7,3.5,4.7,4.5c1.3,0.7,2.8,0.8,4.3,1.2c4.5,1.2,8.1,5.2,8.8,9.8
						c0.1,0.7,0.1,1.3-0.1,2c-0.3,0.8-1,1.4-1.5,2c-1.9,2.5-0.9,6.3,1,8.8c4.1,5.5,11.4,7.6,16.1,12.6c2.2,2.3,3.8,5.1,5.9,7.4
						c1.9,2,4.3,4.1,4,6.8"/>
				</g>
				<g>
					<path class="st6" d="M199.6,288.8c1.5-0.3,2.7-1.5,2.9-3c0.1-0.7,0-1.4,0.4-2c0.4-0.7,1.4-1,2.2-0.8c0.8,0.2,1.5,0.8,2.1,1.4
						c2.8,3.3,2.9,8.6,6.2,11.3c0.8,0.7,1.8,1.2,2.2,2.2c0.6,1.5-0.6,3.1-1.9,4.1c-1.3,1-2.8,1.9-3.2,3.5c-0.4,1.4,0.1,3.1-1,4
						c-0.4,0.3-0.9,0.4-1.4,0.5c-1.7,0.2-3.6,0.1-4.9-1c-1.9-1.6-1.9-4.4-1.9-6.9c0-3.5-0.4-7.3-2.9-9.6c-0.5-0.4-1-0.9-1.2-1.5
						c-0.3-1.1,1.3-2.1,2.2-1.4"/>
				</g>
				<g>
					<path class="st6" d="M135.2,172c-0.3,0.6,0.2,1.3,0.7,1.7c0.6,0.4,1.2,0.6,1.7,1.1c0.8,0.7,1,1.9,1.8,2.6
						c0.5,0.3,1,0.5,1.6,0.6c0.3,0.1,0.6,0.1,0.9-0.1c0.2-0.2,0.2-0.5,0.2-0.7c0-0.8,0-1.6,0-2.4"/>
				</g>
				<g>
					<path class="st6" d="M122.5,192.7c1.3,0,3.2-2.1,4.4-1.9c1.2,0.2,1.6,1.6,2,2.7c1.5,4.2,5.6,7.3,6.1,11.8"/>
				</g>
				<g>
					<path class="st6" d="M215.7,215.8c1.9-1.3,5.3-3.4,7.2-4.7c0.7-0.4,1.5-0.9,2.2-0.5c0.7,0.4,0.8,1.4,0.6,2.1
						c-0.2,0.8-0.5,1.6-0.4,2.3c0.3,1.1,1.4,1.7,2.2,2.5c1,1.3,0.9,3.3-0.3,4.5c-1.6,1.5-4.4,1.3-5.8,3c-0.7,1-0.9,2.4-1.9,3
						c-0.8,0.5-2,0.4-2.4,1.2c-0.6,1,0.2,3-1,3.1"/>
				</g>
				<g>
					<path class="st6" d="M234.7,228.5c3.3-1.4,0.9-8.2,0.6-11.8c-0.3-3.6-1.6-7.1-1.7-10.7c0-0.8,0-1.7,0.4-2.5
						c0.9-1.9,3.4-2.5,4.5-4.3c0.4-0.7,0.6-1.5,0.8-2.3c0.6-2.3,1.2-4.6,1.7-6.9c0.2-0.8,0.4-1.6,1-2.2c0.9-0.9,2.6-0.7,3.5,0.2
						c0.9,1,0.9,2.5,0.2,3.6c-0.5,0.8-1.3,1.4-1.8,2.2c-1.6,3.1,2.9,6.8,1.5,10.1"/>
				</g>
				<g>
					<path class="st6" d="M241.5,157.9c1.3-0.6,2-2.1,2-3.6c0-1.4-0.5-2.8-0.8-4.2c-0.8-3.1-1-6.4-0.5-9.5c0.2-1.3,0.9-2.9,2.2-2.8
						c0.9,0.1,1.5,1,1.8,1.8c1.5,3.6,1,8-1.4,11.2"/>
				</g>
				<g>
					<path class="st6" d="M224.1,254.9c2.7-3.3,5.4-6.7,8.1-10c1.3-1.6,2.6-3.2,3.4-5.1c0.8-2,1-4.2,1.6-6.3
						c2.5-7.5,11.3-11.2,14.7-18.3c2.4-5,1.7-10.8,1.7-16.3c0-5.5,1-11.7,5.5-14.9c1-0.7,2.3-1.2,3.4-0.8c1.4,0.5,2,2,3,3
						c3,3.1,8.1,1.4,12.2,0.2c5-1.5,10.2-2.1,15.4-1.7"/>
				</g>
				<g>
					<path class="st6" d="M255.4,177.2c1.9-2.5,4.4-4.6,7.5-4.9c1-0.1,2,0,3-0.4c0.9-0.4,1.8-1.3,1.5-2.3c-0.3-1.1-1.6-1.6-2.8-1.6
						c-3.6-0.3-7.7,1.6-8.3,5.1"/>
				</g>
				<g>
					<path class="st6" d="M293.5,160.3c1.3-0.9,2.7-1.8,4-2.7c0.3-0.2,0.6-0.4,1-0.5c0.8-0.1,1.5,0.5,1.8,1.2
						c0.3,0.7,0.3,1.5,0.3,2.3c-3.6,0.3-7.2,0.9-10.7,1.8c0.7-1.5,2.5-2.5,4.2-2.2"/>
				</g>
				<g>
					<path class="st6" d="M201.1,199.1c1,0,2,0,2.9-0.1c0.3,0,0.6,0,0.8,0.2c0.2,0.2,0.3,0.5,0.3,0.9c0.5,5.2,0.7,10.4,0.4,15.7"/>
				</g>
				<g>
					<path class="st6" d="M200,176.5c-3.5-4.4-5.6-9.8-6.1-15.3c1.5,0.5,1.8,2.4,2.3,3.9c0.8,2.2,2.7,3.8,3.7,5.9
						c0.8,1.7,0.9,3.7,1.1,5.5c0.2,2.9,0.4,5.8,0.6,8.8c-2.3-2.6-3.7-6-3.8-9.5"/>
				</g>
				<g>
					<path class="st6" d="M245.3,256.7c0.9,1.6-0.1,3.8,0,5.6c0.1,2,3,2.8,4.7,1.8c1.7-1,2.6-3,3.3-4.9c0.4-0.9,0.7-1.8,0.5-2.8
						c-0.2-0.8-0.7-1.4-0.9-2.1c-1-2.7,1.3-5.4,3.6-7.3c2.3-1.8,3.1-4.9,5.6-6.4"/>
				</g>
				<g>
					<path class="st6" d="M272.8,248.7c0.3-0.4,0.8-0.7,1.3-0.7c-1.4,1.2-2.9,2.3-4.3,3.5c-0.7,0.6-1.5,1.4-1.2,2.3
						c0.2,0.5,0.7,0.9,1,1.3c0.7,1.1,0,2.5,0,3.8c0.1,2.6,2.4,3.6,4.9,4.3"/>
				</g>
				<g>
					<path class="st6" d="M288.5,234.8c1.7-1.9,3.4-3.8,5.1-5.7c1.2,1.8,0.4,4.3-0.8,6.1s-2.9,3.4-3.4,5.5"/>
				</g>
				<g>
					<path class="st6" d="M153.6,94.6c4.9,1.8,5.3,9.7,10.3,11.5c0.9-2-0.8-4.1-1.6-6.2c-1.4-3.5-0.2-8-2.5-10.9
						c-1-1.3-2.7-2.5-2.3-4.1"/>
				</g>
				<g>
					<path class="st6" d="M371.7,143.1c-3.8-1.2-8.1-0.9-11.7,0.9c-1.2,0.6-2.4,1.4-2.6,2.7c-0.1,0.5,0,1-0.3,1.5
						c-0.2,0.3-0.6,0.5-0.9,0.7c-5.2,2.4-11.8,1.5-16.2,5.1c2.2,0.9,4.5,1.4,6.8,1.4"/>
				</g>
			</g>
		</g>
		<g>
			<g>
				<path class="st5" d="M168.4,207.7c1.7,1,2.5,2.5,2.6,4.4c0.4-0.3,0.8-0.6,1.3-1c-1.3-0.3-1.4-3.3-1.8-4.2
					c-0.5-1.2-1.1-2.2-1.8-3.2c-0.4,0.5-0.8,1-1.1,1.5c3.3,1,3.7,4,5.3,6.4c0.8,1.3,1.9,1.9,2.4,3.5c0.4,1.4,0.3,2.8,0.3,4.3
					c0,1.3,2,1.3,2,0c0-1.7,0-3.5-0.5-5.2c-0.6-1.8-1.9-2.6-2.9-4.2c-1.7-2.9-2.5-5.6-6.1-6.7c-0.8-0.2-1.7,0.8-1.1,1.5
					c1.5,2.1,1.7,4.1,2.6,6.4c0.4,1.2,1,1.7,2.2,2c0.6,0.1,1.3-0.3,1.3-1c-0.1-2.7-1.3-4.7-3.6-6.2
					C168.3,205.3,167.3,207,168.4,207.7L168.4,207.7z"/>
			</g>
		</g>
		<g>
			<g>
				<path class="st5" d="M170.7,213c-0.5,3.7,1.5,7.2,5.1,8.5c1.2,0.4,1.7-1.5,0.5-1.9c-2.4-0.9-4-3.5-3.7-6
					C172.8,212.3,170.8,211.8,170.7,213L170.7,213z"/>
			</g>
		</g>
		<g>
			<g>
				<path class="st5" d="M181.7,243.9c1.2-1.6,1.1-3.1-0.2-4.6c-0.9-1-0.5-1.5-0.7-2.7c-0.3-1.4-1-2.6-1.8-3.7
					c-0.5,0.5-0.9,0.9-1.4,1.4c2.2,1.1,3.8,2.9,4.6,5.3c0.2,0.5,0.7,0.9,1.2,0.7c0.8-0.3,1.3-0.7,1.6-1.5c0.5-1.1,0.1-4.1,2.1-3.2
					c1.2,0.5,1.7-1.5,0.5-1.9c-1.2-0.5-2.5-0.3-3.4,0.6c-0.4,0.4-0.7,0.9-0.8,1.5c-0.1,0.6,0.2,2.2-0.6,2.5c0.4,0.2,0.8,0.5,1.2,0.7
					c-0.9-2.9-2.8-5.2-5.5-6.5c-0.8-0.4-2,0.5-1.4,1.4c0.6,0.8,1.2,1.7,1.5,2.6c0.3,0.9-0.1,1.6,0,2.5c0.2,1,2.4,2.4,1.6,3.5
					C179.5,243.5,180.9,245,181.7,243.9L181.7,243.9z"/>
			</g>
		</g>
		<g>
			<g>
				<path class="st5" d="M191.4,237.8c2.3,2.9,4.6,5.7,6.9,8.6c1.5,1,2.1,2.3,2,3.9c0.4,1.2,0.1,2.2-1.1,2.9c-0.3,0.6-0.7,1.1-1,1.7
					c-2.4,6,3.3,13.1-1,18.6c0.6,0.1,1.1,0.3,1.7,0.4c-0.7-3-0.6-5.9-1-8.9c-0.1-0.9,0.1-1.5-0.5-2.3c-0.3-0.4-0.8-0.6-1.2-0.9
					c-2.3-1.9-4.4-2.2-6.3-5c-0.5,0.5-0.9,0.9-1.4,1.4c1.6,1,6,3,6.6,4.9c0.4,1.2,2.3,0.7,1.9-0.5c-0.9-3.1-5-4.5-7.5-6.1
					c-0.8-0.5-1.9,0.5-1.4,1.4c0.8,1.2,1.6,2.3,2.8,3.3c1.1,0.9,2.8,1.3,3.7,2.2c2.1,1.9,1.5,8.1,2.3,11.1c0.2,0.7,1.2,1,1.7,0.4
					c1.8-2.3,2.3-4.6,2.1-7.4c-0.1-1.5-0.4-2.9-0.7-4.4c-0.7-3.9-0.5-6,1.4-9.6c1.1-2.2,1.7-3.3,0.4-5.7c-2.3-4.1-6.2-7.9-9.1-11.5
					C192,235.4,190.6,236.8,191.4,237.8L191.4,237.8z"/>
			</g>
		</g>
		<g>
			<g>
				<path class="st5" d="M194.7,242.6c-0.1,1.1,0.5,1.9,1.3,2.6c1.2,1,2.3,2,3.3,3.2c0.5-0.5,0.9-0.9,1.4-1.4
					c-1.6-1.3-3.2-2.7-4.2-4.5c-0.8-1.4-0.7-3.3-2.3-4.1c-1.1-0.6-2.2,1.2-1,1.7c0.8,0.4,0.8,1.8,1.1,2.5c0.3,0.8,0.8,1.5,1.3,2.2
					c1.1,1.4,2.4,2.5,3.7,3.7c1,0.8,2.2-0.4,1.4-1.4c-0.7-0.8-1.3-1.7-2.2-2.4c-0.6-0.5-1.9-1.1-1.8-2.1
					C196.9,241.3,194.9,241.3,194.7,242.6L194.7,242.6z"/>
			</g>
		</g>
		<g>
			<g>
				<path class="st5" d="M199.5,252.4c-2.1,1.7-3,4.4-2.4,7c0.3,1.3,2.2,0.7,1.9-0.5c-0.4-2,0.4-3.8,1.9-5.1
					C201.9,253,200.5,251.6,199.5,252.4L199.5,252.4z"/>
			</g>
		</g>
		<g>
			<g>
				<path class="st5" d="M156.7,224.9c0.9-1.1,1.6-2.3,2-3.7c-0.6,0-1.3,0-1.9,0c0.3,0.9,0.1,1.9-0.8,2.4c-1.1,0.7-0.1,2.4,1,1.7
					c1.6-1,2.3-2.9,1.7-4.7c-0.3-0.9-1.6-1-1.9,0c-0.3,1.1-0.8,2-1.5,2.8C154.5,224.4,155.9,225.8,156.7,224.9L156.7,224.9z"/>
			</g>
		</g>
		<g>
			<g>
				<path class="st5" d="M203.2,296.7c0.1,0,0.1,0,0.2,0c-0.2-0.6-0.4-1.3-0.5-1.9c-0.3,0.1-0.5,0.2-0.8,0.2
					c0.3,0.6,0.5,1.2,0.8,1.8c0.8-0.4,1.2-1.1,1.3-1.9c0.2-0.9-0.4-2.4,0.2-3.2c-0.5,0-0.9,0-1.4,0c1.1,1.4,0.8,3.6,1.9,5.1
					c0.4,0.6,0.9,1,1.5,1.3c0.4,0.2,1.9,0.2,2.1,0.5c0.7,1.1,2.4,0.1,1.7-1c-1-1.5-3.1-0.7-3.9-2.4c-0.8-1.7-0.7-3.4-1.9-5
					c-0.3-0.4-1.1-0.4-1.4,0c-0.5,0.7-0.8,1.3-0.8,2.1c0,0.7,0.5,2.2-0.3,2.7c-1,0.5-0.3,2.1,0.8,1.8c0.3-0.1,0.5-0.2,0.8-0.2
					c1.3-0.4,0.7-2.2-0.5-1.9c-0.1,0-0.1,0-0.2,0C201.4,295,201.9,297,203.2,296.7L203.2,296.7z"/>
			</g>
		</g>
		<g>
			<g>
				<path class="st5" d="M207.5,298.8c0,1.3-0.3,2.6-1.2,3.7c-0.2,0.2-0.4,0.4-0.6,0.6c-0.3,0.2-0.1,0.2-0.1,0.1
					c0-0.3,0.4-0.9,0.6-1.2c0.3-0.7,0.4-1.4,0.1-2.1c-0.2-0.4-1.7-1.9-2-1.6c0.8-1-0.6-2.4-1.4-1.4c-0.5,0.6-0.7,1.2-0.3,2
					c0.3,0.8,0.9,1,1.5,1.5c0.7,0.7-0.1,1.3-0.4,2.1c-0.2,0.6-0.2,1.3,0.1,1.8c0.9,1.4,2.7,0.9,3.7-0.1c1.4-1.4,2.1-3.5,2.1-5.4
					C209.5,297.5,207.5,297.5,207.5,298.8L207.5,298.8z"/>
			</g>
		</g>
		<g>
			<g>
				<path class="st5" d="M204.9,289.3c0.6,0.4,2.1,1.6,1.1,2.4c-1,0.8,0.4,2.2,1.4,1.4c0.8-0.6,1-1.7,0.8-2.7
					c-0.3-1.1-1.1-1.8-1.9-2.5C205.3,287.1,203.9,288.5,204.9,289.3L204.9,289.3z"/>
			</g>
		</g>
		<g>
			<g>
				<path class="st5" d="M231.1,287.4c0.2-1.1,0.6-2.2,1.1-3.3c-0.6-0.2-1.2-0.3-1.9-0.5c0.3,4,0.7,8.6,2.6,12.1
					c1,1.9,2.3,3.2,2.8,5.4c0.3,1.4-0.4,2,0.6,3.2c2.2,2.7,6.4,0.9,9.2,0.8c3.4-0.1,4.5-0.8,5.1-4.5c0.1-0.7-0.4-1.5-1.2-1.2
					c-0.6,0.2-1.3,0.4-1.9,0.6c0.3,0.6,0.6,1.1,1,1.7c1.6-1.3,4.3-2.2,5.2-4.2c0.9-1.9-0.7-7.2,2.8-7c1.3,0.1,1.3-1.9,0-2
					c-2-0.1-3.8,0.6-4.6,2.6c-0.4,1.1,0.1,1.6-0.1,2.6c-0.6,3-2.4,4.8-4.8,6.6c-0.8,0.6,0.1,2,1,1.7c0.6-0.2,1.3-0.4,1.9-0.6
					c-0.4-0.4-0.8-0.8-1.2-1.2c-0.6,3.8-6.5,3.6-8.9,2.2c-2.9-1.7-1.6-1.3-2-3.7c-0.1-0.6-0.2-1.2-0.5-1.7c-0.5-1.1-1.4-1.5-2.2-2.4
					c-2.4-2.7-2.6-7.6-2.8-11c-0.1-0.9-1.4-1.5-1.9-0.5c-0.6,1.3-1,2.4-1.3,3.8C228.9,288.2,230.8,288.7,231.1,287.4L231.1,287.4z"
					/>
			</g>
		</g>
		<g>
			<g>
				<path class="st5" d="M228.4,303.5c0.7,0.9,1.4,1.4,2.3,2.1c2,1.5,2.8,3,2.9,5.5c0.1,3-0.4,6-0.7,9c-0.1,1,1.4,1.4,1.9,0.5
					c0.9-1.7,0.9-3.4,0.5-5.3c-0.2-0.7-0.1-0.8,0.4-0.1c-0.3,0.4-0.5,0.8-0.8,1.3c-0.8,1.3-1.4,2.5-2,3.9c-0.5,1.2,1,2.1,1.7,1
					c1.5-2.4,2.9-4.7,4.4-7.1c0.7-1.1-1.1-2.1-1.7-1c-1.5,2.4-2.9,4.7-4.4,7.1c0.6,0.3,1.2,0.7,1.7,1c0.9-2.1,5.8-7.6,2.4-9.7
					c-4.6-2.8-3.4,6.9-3.9,8c0.6,0.2,1.2,0.3,1.9,0.5c0.3-3.6,1.2-7.7,0.5-11.3c-0.8-3.5-3.5-4-5.5-6.6
					C229.1,301.1,227.6,302.5,228.4,303.5L228.4,303.5z"/>
			</g>
		</g>
		<g>
			<g>
				<path class="st5" d="M236.3,316.6c3.2-2.7,6.9-4,11-4c-0.3-0.3-0.7-0.7-1-1c0.2,2.1-0.2,3.7-1.6,5.3c-0.6,0.6-0.2,1.7,0.7,1.7
					c1.3,0,3.5,0,4.5-1.1c1.1-1.2,0.8-3.4,1.7-4.8c0.7-1.1-1.1-2.1-1.7-1c-0.6,0.9-1,1.9-1.2,2.9c-0.1,0.4-0.1,0.8-0.2,1.2
					c-0.9,0.6-2,0.9-3,0.8c0.2,0.6,0.5,1.1,0.7,1.7c1.7-1.9,2.5-4.1,2.2-6.7c-0.1-0.5-0.4-1-1-1c-4.7,0-8.9,1.5-12.5,4.5
					C233.9,316,235.3,317.4,236.3,316.6L236.3,316.6z"/>
			</g>
		</g>
		<g>
			<g>
				<path class="st5" d="M235.3,313.5c0,0.3-0.1,0.5-0.3,0.7c-0.9,0.9,0.5,2.3,1.4,1.4c0.7-0.7,0.9-1.6,0.8-2.6
					c-0.1-0.5-0.8-0.8-1.2-0.7C235.4,312.5,235.2,313,235.3,313.5L235.3,313.5z"/>
			</g>
		</g>
		<g>
			<g>
				<path class="st5" d="M243.8,306.4c1,0.2,2.1,0.3,3.1,0.5c0.7,0.1,1.5,0.3,2.2-0.1c0.6-0.3,0.8-0.9,0.9-1.5
					c0.1-0.4,0.1-1.7-0.2-1.6c1.3-0.2,1.3-2.2,0-2c-1.2,0.1-1.8,1.1-1.8,2.2c0,0.2,0.1,0.6,0.1,0.8c-0.1,0.4-0.1,0.3-0.6,0.2
					c-1-0.2-2.1-0.3-3.1-0.5C243.1,304.3,242.5,306.2,243.8,306.4L243.8,306.4z"/>
			</g>
		</g>
		<g>
			<g>
				<path class="st5" d="M238.2,306.4c1.2-0.6,0.7,2.2,0.6,2.6c0.7,0.1,1.3,0.2,2,0.3c0-1.8,2.4-1.6,3.6-1.5c1,0.1,1.3-1.4,0.5-1.9
					c-1.4-0.7-3.1-0.5-4.1,0.8c-0.2,0.3-0.4,0.6-0.4,0.9c-0.2,0.4-0.1,0.4,0.1,0c-0.3-0.2-0.6-0.4-0.8-0.6c-1.1-0.8-2-1.8-2.8-2.9
					c-0.7-1.1-2.5-0.1-1.7,1c1.2,1.7,2.9,3.7,4.9,4.5c2.2,0.9,2.1-2.9,3.8-2c0.2-0.6,0.3-1.2,0.5-1.9c-2.4-0.2-5.6,0.4-5.6,3.5
					c0,1.1,1.7,1.4,2,0.3c0.4-1.4,0.6-3-0.4-4.2c-0.8-1-2-1.1-3.1-0.6C236,305.2,237,306.9,238.2,306.4L238.2,306.4z"/>
			</g>
		</g>
		<g>
			<g>
				<path class="st5" d="M234.7,278.9c-3.7,4.5,3.7,8.2,7.1,9.2c1.2,0.4,1.7-1.5,0.5-1.9c-2.9-1-5.2-3.2-6.5-6
					c-0.5-1.2-2.3-0.2-1.7,1c1.5,3.3,4.3,5.7,7.7,6.9c0.2-0.6,0.4-1.3,0.5-1.9c-1.6-0.5-8.4-3.2-6.2-5.9
					C236.9,279.4,235.5,277.9,234.7,278.9L234.7,278.9z"/>
			</g>
		</g>
		<g>
			<g>
				<path class="st5" d="M242.7,288.1c0.8,0,1.3,0.5,1.6,1.2c0.2,0.5,0.9,0.6,1.4,0.4c0.5-0.3,0.6-0.9,0.4-1.4
					c-0.6-1.3-1.9-2.1-3.4-2.2C241.4,286.1,241.4,288.1,242.7,288.1L242.7,288.1z"/>
			</g>
		</g>
		<g>
			<g>
				<path class="st5" d="M187.8,254.5c1.9,1.2,3.3,2.9,4,5.1c0.6-0.3,1.1-0.6,1.7-1c-1.6-1.6-3.2-3.1-4.7-4.7
					c-0.9-0.9-2.3,0.5-1.4,1.4c1.6,1.6,3.2,3.1,4.7,4.7c0.7,0.7,2,0,1.7-1c-0.8-2.6-2.5-4.8-4.9-6.3
					C187.7,252.1,186.7,253.8,187.8,254.5L187.8,254.5z"/>
			</g>
		</g>
		<g>
			<g>
				<path class="st5" d="M216.8,219.6c1.3-0.4,2.6-0.7,3.8-1.1c-0.4-0.5-0.8-1-1.1-1.5c-0.3,0.7-0.7,1.3-1.3,1.9
					c-0.5,0.5-0.3,1.2,0.2,1.6c1.5,1.1,0.3,3.2-1.4,2.7c-1.2-0.4-1.8,1.6-0.5,1.9c1.7,0.5,3.6-0.2,4.3-1.8c0.8-1.7,0.1-3.5-1.4-4.5
					c0.1,0.5,0.1,1,0.2,1.6c0.7-0.7,1.2-1.4,1.6-2.3c0.3-0.8-0.2-1.7-1.1-1.5c-1.3,0.4-2.6,0.7-3.8,1.1
					C215.1,218.1,215.6,220,216.8,219.6L216.8,219.6z"/>
			</g>
		</g>
		<g>
			<g>
				<path class="st5" d="M239.4,216.7c1.7-1.3,1.2-3.5,0.4-5.2c-0.2-0.5-2.1-4.9,0.1-4.4c1.2,0.3,0.8,4,0.7,4.8c0,1.3,2,1.3,2,0
					c0-2.3,0-8.2-4.1-6.8c-1.6,0.5-1.7,2.4-1.6,3.8c0.1,1.7,2.7,5.1,1.1,6.3C237,216,238.4,217.4,239.4,216.7L239.4,216.7z"/>
			</g>
		</g>
		<g>
			<g>
				<path class="st5" d="M238.4,217.1c0.3,0.6,0.6,1.3,0.9,1.9c0.2,0.5,0.9,0.6,1.4,0.4c0.5-0.3,0.6-0.9,0.4-1.4
					c-0.3-0.6-0.6-1.3-0.9-1.9c-0.2-0.5-0.9-0.6-1.4-0.4C238.3,216.1,238.2,216.6,238.4,217.1L238.4,217.1z"/>
			</g>
		</g>
		<g>
			<g>
				<path class="st5" d="M234.4,204.2c3.7,1,7.1-2.4,6.1-6.1c-0.3-1.2-2.3-0.7-1.9,0.5c0.6,2.3-1.4,4.2-3.6,3.7
					C233.6,201.9,233.1,203.8,234.4,204.2L234.4,204.2z"/>
			</g>
		</g>
		<g>
			<g>
				<path class="st5" d="M241.7,198.1c1.2-1.8,1.2-3.9,0.3-5.8c-0.6-1.2-2.3-0.1-1.7,1c0.6,1.2,0.4,2.6-0.3,3.8
					C239.3,198.1,241,199.1,241.7,198.1L241.7,198.1z"/>
			</g>
		</g>
		<g>
			<g>
				<path class="st5" d="M243.9,202.7c-0.3,1.1-0.4,2.2-0.2,3.3c0.1,0.5,0.8,0.8,1.2,0.7c0.6-0.2,0.8-0.7,0.7-1.2
					c-0.1-0.8,0-1.5,0.2-2.3C246.2,202,244.3,201.5,243.9,202.7L243.9,202.7z"/>
			</g>
		</g>
		<g>
			<g>
				<path class="st5" d="M250.5,252.5c-0.4,1.9-0.4,3.9,0,5.8c0.3,1.3,2.2,0.7,1.9-0.5c-0.4-1.6-0.4-3.2,0-4.8
					C252.7,251.7,250.8,251.2,250.5,252.5L250.5,252.5z"/>
			</g>
		</g>
		<g>
			<g>
				<path class="st5" d="M251.4,257.4c0,0.6,0,1.2,0,1.9c0,1.1,1.8,1.4,2,0.3c0.2-1.3,0-2.6-0.6-3.8c-0.6-1.1-2.3-0.1-1.7,1
					c0.4,0.7,0.5,1.5,0.4,2.2c0.7,0.1,1.3,0.2,2,0.3c0-0.6,0-1.2,0-1.9C253.4,256.2,251.4,256.2,251.4,257.4L251.4,257.4z"/>
			</g>
		</g>
		<g>
			<g>
				<path class="st5" d="M276,257.6c-0.9-1.6-0.8-3.4,0.2-4.9c-0.6-0.2-1.2-0.3-1.9-0.5c-0.1,1.3-0.2,2.6-0.3,4
					c-0.1,1.1,1.8,1.4,2,0.3c0.1-0.9,0.3-1.8,0.4-2.7c-0.6,0-1.3,0-1.9,0c0.2,1.1,0.2,2.1,0.1,3.2c-0.1,1.3,1.9,1.3,2,0
					c0.1-1.3,0-2.5-0.2-3.7c-0.2-0.9-1.8-1-1.9,0c-0.1,0.9-0.3,1.8-0.4,2.7c0.7,0.1,1.3,0.2,2,0.3c0.1-1.3,0.2-2.6,0.3-4
					c0.1-1.1-1.4-1.3-1.9-0.5c-1.4,2.1-1.5,4.8-0.2,7C274.9,259.7,276.7,258.7,276,257.6L276,257.6z"/>
			</g>
		</g>
		<g>
			<g>
				<path class="st5" d="M279,190.7c-2.7-0.2-5.1,0.2-7.5,1.5c-2.1,1.1-3.7,2.4-6.3,2.7c-2.2,0.2-4.4-0.3-6.5-0.9
					c-0.6-0.2-1.3,0.3-1.3,1c0.1,3.5,5,4.6,7.8,4.3c2.2-0.2,3.4-1.3,5.2-2.4c2.4-1.5,5.5-1,7.1-3.4c0.5-0.7-0.3-1.8-1.1-1.5
					c-4.9,1.9-9.9,3.7-15.1,4.5c-1.3,0.2-0.7,2.1,0.5,1.9c5.3-0.8,10.2-2.5,15.1-4.5c-0.4-0.5-0.8-1-1.1-1.5
					c-0.7,1.1-3.3,0.6-4.5,1.1c-0.8,0.3-1.2,0.9-1.8,1.4c-1.5,1.2-2.6,2.1-4.6,2.2c-1.4,0.1-5.4-0.2-5.4-2.3c-0.4,0.3-0.8,0.6-1.3,1
					c3.2,0.8,6.7,1.5,10,0.4c3.9-1.3,6.4-4,10.9-3.6C280.3,192.7,280.3,190.7,279,190.7L279,190.7z"/>
			</g>
		</g>
		<g>
			<g>
				<path class="st5" d="M260.5,200c-0.1,3.2-0.2,6.3-0.3,9.5c0,1.2,1.6,1.3,2,0.3c1.3-3.7,3.9-8.2,0.4-11.5
					c-0.9-0.9-2.3,0.5-1.4,1.4c2.8,2.6,0.1,6.7-0.9,9.6c0.7,0.1,1.3,0.2,2,0.3c0.1-3.2,0.2-6.3,0.3-9.5
					C262.5,198.7,260.5,198.7,260.5,200L260.5,200z"/>
			</g>
		</g>
		<g>
			<g>
				<path class="st5" d="M226.3,259.2c0.8-0.9,1.7-1.4,3-1.6c-0.3-0.4-0.6-0.8-1-1.3c-0.4,2.9-1.1,5.7-1.9,8.4
					c-0.4,1.2,1.5,1.8,1.9,0.5c0.9-2.8,1.5-5.6,1.9-8.4c0.1-0.6-0.2-1.3-1-1.3c-1.8,0.2-3.2,0.9-4.4,2.2
					C224,258.7,225.5,260.1,226.3,259.2L226.3,259.2z"/>
			</g>
		</g>
		<g>
			<g>
				<path class="st5" d="M146,79c3.2,2.3,6,5.1,8.4,8.3c0.7,0.9,2.1,0.4,1.8-0.8c-0.5-2.4-2.6-4.5-4.1-6.4c-1.8-2.2-3.9-4.1-6.2-5.8
					c-1-0.7-1.9,0.8-1.2,1.6c4.6,5.5,9,11.6,14.7,16c0.4-0.5,0.8-1,1.2-1.6c-4.4-2.1-7.8-7.4-10.8-11c-0.8-1-2.2,0.4-1.4,1.4
					c3.3,3.8,6.6,9.1,11.2,11.3c0.9,0.4,2.2-0.8,1.2-1.6C155,86,150.6,80,146,74.5c-0.4,0.5-0.8,1-1.2,1.6c1.9,1.4,3.6,2.9,5.1,4.7
					c1.5,1.7,3.8,4,4.3,6.3c0.6-0.3,1.2-0.5,1.8-0.8c-2.6-3.5-5.6-6.4-9.1-9C145.9,76.5,144.9,78.2,146,79L146,79z"/>
			</g>
		</g>
	</g>
	<path d="M308,161.1c0,0,0.3-0.5,0.4-0.8c0.1-0.3,2.4-1.5,2.5-1.7c0.2-0.2-0.4-7.2,0-7.8c0.3-0.4,2.4-1.2,3.7-1.7
		c0.4,0.9,0.8,1.7,1.1,2.2c0.1,0.1,0.2,0.3,0.4,0.5c-0.8,1-1.9,2.1-1.9,2.1s0.1,0.6,3,3.6c3.2,3.3,2.7,3.2,2.7,3.6
		c0,0.3-0.1,1.1,0.1,0.9c0.2-0.2,0.6-1.2,0.4-1.5s-5.7-6.4-5.5-6.6c0.1-0.2,1.1-0.9,1.7-1.6c2.2,1.9,7.1,5.1,7.8,5.7
		c0.8,0.8,1.4,0.8,2.4-1c1-1.8,0.6-5.9-0.3-8.5c-0.2-0.7-0.7-1.3-1.2-1.9c0.4-0.1,0.9-0.3,1.3-0.5c0.1,0.2,0.2,0.3,0.2,0.2
		c0.1,0,0.5-0.2,0.9-0.3c0.8,1.4,2.9,7.4,3.1,7.7c0.2,0.3,1.4,0.5,1.6,0.4c0.3-0.1-0.5-0.3-0.8-0.5c-0.3-0.2-0.2,0.5-1.8-3.8
		c-0.8-2.1-1.3-3.2-1.6-3.9c0.6-0.2,1.1-0.3,1.2-0.3c0.3,0.1,0.6,0.1,0.9,0.6c0.2,0.3,0-0.4-0.7-0.7c-0.4-0.2-1,0-1.6,0.1
		c-0.2-0.4-0.3-0.5-0.3-0.5s-0.6,0.1-1.3,0.3c-0.6-1.1-1.7-3.9-2.9-4.1c-0.5-0.1-2.1,1.7-2.3,1.7c-0.1,0-0.2,0-0.5-0.1
		c-0.3-0.8-0.3-1.8-0.8-2c-0.4-0.1-1.1,1-1.3,1.1c-0.2,0.1-1.5-0.6-1.5-0.6c-0.8-1-4-1-4.3-0.9c0,0,0,0,0,0c-0.3-1-1.7-5.2-2.1-5.6
		c-0.4-0.4-1.2-0.2-0.3,0.2c0.7,0.4,1.7,4.2,2.1,5.5c-0.5,0.2-1.2,0.7-1.7,0.7c-0.3,0-0.4,0.3-0.5,0.7c-0.4,0-0.9,0.1-1.1-0.1
		c-0.3-0.2-4.8-3-5.4-3c-0.6,0-1.1,0.6-0.1,0.4c0.9-0.2,5.3,3.1,5.5,3c0.2-0.1,0.6,0,1,0c0,0.4,0.1,0.7,0.3,0.8
		c0.4,0,0.6,0.5,0.9,1.3c0.3,0.8,0.9,0.4,1.2,0.9c0.1,0.1,0.2,0.5,0.5,1c-1.7,0.2-6,0.7-6,0.7s-0.2,0.1-0.4,1.3
		c-0.2,1.3-0.2,1.5-0.4,1.5c-0.6,0.2-0.9,0.8-0.8,0.6c0.3-0.4,1-0.2,1-0.3c0.1-0.1,0.5-2.7,0.9-2.7c0.3,0,4.2-0.5,5.8-0.8
		c0.2,0.5,0.4,1,0.7,1.6c-1.2,0.5-4,1.6-4.1,2.1c-0.1,1.5,0.2,8,0.1,8.1c0,0.2-2.4,1.2-2.5,1.9C307.8,161.1,308,161.1,308,161.1z
		 M327.6,145.7L327.6,145.7L327.6,145.7L327.6,145.7z M322.2,143.6c0.5-0.3,1.3-1.7,1.8-1.5c0.3,0.1,1.5,2.1,2.2,3.3
		c-0.6,0.1-1.2,0.2-1.7,0.4C323.3,144.6,321.9,143.8,322.2,143.6z M319.3,142.3c0,0,0.6-0.5,0.8-0.7c0.1-0.1,0.4,0.6,0.7,1.2
		C320.1,142.6,319.3,142.3,319.3,142.3z"/>
	<path d="M131,180.1c0-0.6-2.1-1.5-2.1-1.6c0-0.1,0.2-5.6,0.1-6.9c0-0.4-2.4-1.4-3.4-1.7c0.2-0.5,0.4-0.9,0.6-1.4
		c1.4,0.2,4.7,0.6,4.9,0.6c0.3,0,0.7,2.2,0.7,2.3c0,0.1,0.6-0.1,0.9,0.3c0.1,0.2-0.2-0.3-0.6-0.5c-0.2-0.1-0.1-0.2-0.3-1.3
		c-0.2-1-0.3-1.1-0.3-1.1s-3.6-0.4-5.1-0.6c0.2-0.4,0.3-0.8,0.4-0.9c0.3-0.4,0.7-0.1,1-0.8c0.3-0.7,0.4-1.1,0.7-1.1
		c0.2,0,0.3-0.3,0.3-0.6c0.3,0,0.7,0,0.8,0c0.2,0.1,3.9-2.8,4.7-2.6c0.8,0.2,0.4-0.4-0.1-0.3s-4.3,2.4-4.5,2.5c-0.1,0.1-0.6,0-0.9,0
		c0-0.3-0.2-0.5-0.4-0.6c-0.4,0-1-0.4-1.4-0.6c0.4-1.1,1.1-4.3,1.8-4.6c0.7-0.4,0.1-0.5-0.3-0.2c-0.3,0.3-1.5,3.9-1.8,4.7
		c0,0,0,0,0,0c-0.3,0-3-0.1-3.6,0.8c0,0-1.1,0.6-1.3,0.5c-0.1-0.1-0.8-1-1.1-0.9c-0.4,0.1-0.5,1-0.7,1.7c-0.2,0.1-0.4,0.1-0.4,0.1
		c-0.2-0.1-1.5-1.5-2-1.5c-1,0.1-1.9,2.5-2.4,3.4c-0.6-0.1-1.1-0.2-1.1-0.2s-0.1,0.1-0.2,0.4c-0.5-0.1-1-0.2-1.3-0.1
		c-0.6,0.3-0.8,0.8-0.6,0.6c0.2-0.4,0.6-0.4,0.8-0.5c0.1,0,0.6,0.1,1,0.2c-0.3,0.6-0.7,1.5-1.3,3.3c-1.4,3.6-1.3,3-1.5,3.2
		c-0.2,0.2-0.9,0.4-0.7,0.4c0.2,0.1,1.2-0.1,1.4-0.3c0.1-0.2,1.9-5.3,2.6-6.5c0.4,0.1,0.7,0.2,0.8,0.2c0,0,0.1-0.1,0.2-0.2
		c0.3,0.1,0.7,0.3,1.1,0.4c-0.4,0.5-0.8,1-1,1.6c-0.8,2.2-1.2,5.6-0.3,7.2c0.9,1.5,1.3,1.5,2,0.9c0.6-0.5,4.7-3.2,6.6-4.8
		c0.5,0.5,1.3,1.2,1.5,1.3c0.2,0.2-4.5,5.3-4.6,5.6c-0.2,0.3,0.2,1.2,0.3,1.3c0.2,0.1,0-0.5,0.1-0.8c0-0.3-0.4-0.2,2.3-3
		c2.5-2.5,2.6-3.1,2.6-3.1s-0.9-1-1.6-1.8c0.2-0.1,0.3-0.3,0.4-0.4c0.3-0.4,0.6-1.1,1-1.9c1,0.4,2.8,1.1,3.1,1.4
		c0.4,0.5-0.1,6.4,0,6.6c0.1,0.2,2.1,1.3,2.1,1.5c0,0.2,0.3,0.7,0.3,0.7S131,180.7,131,180.1z M114.2,167.7L114.2,167.7L114.2,167.7
		L114.2,167.7z M116.8,167.8c-0.4-0.1-0.9-0.2-1.4-0.3c0.6-1,1.6-2.7,1.9-2.8c0.4-0.1,1.1,1,1.5,1.3
		C119,166.1,117.9,166.7,116.8,167.8z M120,165.3c0.2-0.5,0.5-1.1,0.6-1c0.2,0.1,0.7,0.6,0.7,0.6S120.6,165.1,120,165.3z"/>
	<path d="M298.7,47c0.1-0.3-0.9-1.3-0.9-1.4c0-0.1,1.3-3.2,1.6-4c0.1-0.2-1.1-1.3-1.6-1.8c0.2-0.2,0.4-0.5,0.6-0.7
		c0.8,0.4,2.6,1.4,2.7,1.5c0.1,0.1-0.1,1.4-0.1,1.5c0,0.1,0.3,0.1,0.4,0.3c0,0.1,0-0.2-0.3-0.4c-0.1-0.1,0-0.2,0.1-0.8
		c0.1-0.6,0-0.7,0-0.7s-2-1-2.8-1.5c0.2-0.2,0.4-0.4,0.4-0.4c0.3-0.2,0.4,0.1,0.7-0.2c0.3-0.3,0.4-0.5,0.7-0.5
		c0.1,0,0.2-0.1,0.3-0.3c0.2,0.1,0.4,0.1,0.5,0.2c0.1,0.1,2.9-0.7,3.3-0.4c0.4,0.3,0.3-0.1,0-0.2s-3,0.4-3.2,0.5
		c-0.1,0-0.3-0.1-0.5-0.2c0-0.2,0-0.3-0.1-0.4c-0.2-0.1-0.5-0.5-0.7-0.7c0.4-0.5,1.6-2.3,2-2.3c0.5,0,0.2-0.3-0.1-0.2
		c-0.3,0.1-1.7,1.9-2.1,2.3c0,0,0,0,0,0c-0.2-0.1-1.7-0.7-2.3-0.4c0,0-0.8,0.1-0.9,0c-0.1-0.1-0.2-0.8-0.4-0.8
		c-0.3,0-0.5,0.5-0.8,0.8c-0.1,0-0.2,0-0.2,0c-0.1-0.1-0.5-1.2-0.8-1.3c-0.6-0.1-1.7,1-2.2,1.5c-0.3-0.2-0.6-0.4-0.6-0.4
		s-0.1,0-0.2,0.2c-0.3-0.2-0.5-0.4-0.7-0.3c-0.4,0-0.6,0.3-0.5,0.2c0.2-0.2,0.4-0.1,0.6-0.1c0.1,0,0.3,0.2,0.6,0.4
		c-0.3,0.3-0.7,0.7-1.5,1.6c-1.6,1.8-1.4,1.5-1.6,1.5c-0.2,0-0.6,0-0.5,0.1s0.7,0.2,0.9,0.1c0.1-0.1,2.3-2.6,2.9-3.2
		c0.2,0.2,0.4,0.3,0.4,0.3c0,0,0.1,0,0.2-0.1c0.2,0.2,0.4,0.3,0.5,0.5c-0.4,0.2-0.7,0.4-0.9,0.7c-0.9,1.1-1.9,3-1.8,4.1
		c0.2,1.1,0.4,1.2,1,0.9c0.5-0.2,3.4-0.8,4.9-1.3c0.2,0.4,0.5,1,0.5,1.1c0.1,0.2-3.8,2.1-3.9,2.2c-0.1,0.1-0.1,0.7-0.1,0.8
		c0.1,0.1,0.1-0.3,0.2-0.4c0.1-0.2-0.2-0.2,2-1.2c2-0.9,2.2-1.2,2.2-1.2s-0.3-0.8-0.5-1.4c0.1-0.1,0.2-0.1,0.3-0.1
		c0.2-0.2,0.6-0.5,1-0.9c0.5,0.4,1.4,1.2,1.5,1.5c0.1,0.3-1.5,3.7-1.4,3.8c0,0.1,0.9,1.2,0.9,1.3s0,0.5,0,0.5S298.6,47.4,298.7,47z
		 M291.8,36.1L291.8,36.1L291.8,36.1L291.8,36.1z M293.3,36.7c-0.2-0.1-0.5-0.3-0.7-0.5c0.6-0.4,1.5-1.2,1.7-1.2
		c0.3,0,0.4,0.8,0.6,1.1C294.9,36.2,294.1,36.4,293.3,36.7z M295.7,36c0.2-0.2,0.5-0.5,0.6-0.5c0.1,0.1,0.3,0.5,0.3,0.5
		S296,36,295.7,36z"/>
	<path d="M205.2,121.1c0.4,0.1,1.4-1.2,1.5-1.2c0.1,0,3.9,1,4.8,1.2c0.3,0,1.3-1.5,1.8-2.1c0.3,0.2,0.6,0.4,0.9,0.6
		c-0.4,0.9-1.2,3.2-1.3,3.4c-0.1,0.2-1.6,0.1-1.7,0.1c-0.1,0,0,0.4-0.3,0.6c-0.1,0.1,0.3-0.1,0.5-0.4c0.1-0.1,0.2-0.1,1,0
		c0.7,0.1,0.8-0.1,0.8-0.1s0.9-2.4,1.3-3.4c0.3,0.2,0.5,0.3,0.5,0.4c0.3,0.3-0.1,0.5,0.4,0.8c0.4,0.3,0.7,0.4,0.6,0.7
		c0,0.1,0.2,0.2,0.4,0.3c-0.1,0.2-0.1,0.5-0.1,0.6c-0.1,0.1,1.3,3.2,1,3.7c-0.3,0.5,0.2,0.3,0.3,0c0.1-0.3-1-3.4-1-3.6
		c0-0.1,0.1-0.4,0.1-0.6c0.2,0,0.4,0,0.5-0.2c0.1-0.3,0.5-0.6,0.7-0.9c0.7,0.4,2.9,1.5,3,2c0.1,0.6,0.4,0.1,0.2-0.2
		c-0.2-0.3-2.5-1.7-3-2c0,0,0,0,0,0c0.1-0.2,0.6-2.1,0.1-2.7c0,0-0.3-0.9-0.2-1s0.8-0.4,0.8-0.6c0-0.3-0.7-0.5-1.1-0.8
		c0-0.1,0-0.3,0-0.3c0.1-0.1,1.3-0.8,1.4-1.1c0.1-0.7-1.4-1.8-2-2.3c0.2-0.4,0.3-0.7,0.3-0.7s0-0.1-0.3-0.2c0.2-0.3,0.3-0.7,0.3-0.9
		c-0.1-0.5-0.4-0.7-0.3-0.5c0.2,0.2,0.2,0.5,0.2,0.6c0,0.1-0.2,0.4-0.3,0.7c-0.3-0.3-1-0.7-2.1-1.5c-2.3-1.6-1.9-1.4-2-1.6
		c-0.1-0.2-0.1-0.7-0.2-0.6c-0.1,0.1-0.2,0.9,0,1c0.1,0.1,3.3,2.2,4.1,2.9c-0.1,0.2-0.3,0.5-0.3,0.5c0,0,0,0.1,0.1,0.2
		c-0.2,0.2-0.3,0.5-0.5,0.7c-0.3-0.4-0.6-0.7-0.9-1c-1.4-0.9-3.8-1.7-5-1.4c-1.2,0.4-1.3,0.7-0.9,1.3c0.3,0.5,1.5,3.8,2.3,5.4
		c-0.5,0.3-1.1,0.7-1.2,0.8c-0.2,0.1-3-4-3.1-4.2c-0.2-0.1-0.8-0.1-1,0c-0.1,0.1,0.4,0.1,0.5,0.2c0.2,0.1,0.2-0.2,1.7,2.1
		c1.4,2.2,1.7,2.3,1.7,2.3s0.8-0.4,1.5-0.8c0.1,0.1,0.1,0.2,0.2,0.3c0.2,0.3,0.7,0.6,1.1,1c-0.4,0.7-1.2,1.8-1.5,1.9
		c-0.4,0.2-4.5-1.1-4.6-1.1c-0.1,0.1-1.2,1.3-1.4,1.2c-0.2,0-0.5,0.1-0.5,0.1S204.8,121,205.2,121.1z M216.7,111.4L216.7,111.4
		L216.7,111.4L216.7,111.4z M216.2,113.2c0.1-0.3,0.3-0.6,0.4-0.9c0.6,0.6,1.6,1.5,1.6,1.8c0,0.3-0.9,0.6-1.1,0.9
		C217,115.1,216.7,114.2,216.2,113.2z M217.4,115.9c0.3,0.2,0.7,0.5,0.6,0.6c-0.1,0.1-0.5,0.4-0.5,0.4S217.4,116.3,217.4,115.9z"/>
</g>
</svg>
