<?xml version="1.0" encoding="utf-8"?>
<!-- Generator: Adobe Illustrator 22.0.1, SVG Export Plug-In . SVG Version: 6.00 Build 0)  -->
<svg version="1.1" id="圖層_1" xmlns="http://www.w3.org/2000/svg" xmlns:xlink="http://www.w3.org/1999/xlink" x="0px" y="0px"
	 viewBox="0 0 400 280" style="enable-background:new 0 0 400 280;" xml:space="preserve">
<style type="text/css">
	.st0{opacity:0.4;fill:url(#SVGID_1_);}
	.st1{fill:#A67C52;}
	.st2{fill:url(#XMLID_2_);}
	.st3{fill:url(#XMLID_3_);}
	.st4{fill:url(#XMLID_4_);}
	.st5{fill:#5E4E32;}
	.st6{fill:url(#XMLID_5_);}
	.st7{fill:url(#XMLID_6_);}
	.st8{fill:url(#XMLID_7_);}
	.st9{fill:url(#SVGID_2_);}
	.st10{fill:url(#SVGID_3_);}
	.st11{fill:#676767;}
	.st12{fill:url(#XMLID_8_);}
	.st13{fill:url(#XMLID_9_);}
	.st14{fill:url(#XMLID_10_);}
	.st15{fill:url(#XMLID_11_);}
	.st16{fill:url(#XMLID_12_);}
	.st17{fill:url(#XMLID_13_);}
	.st18{fill:url(#XMLID_14_);}
	.st19{fill:url(#XMLID_15_);}
	.st20{fill:url(#XMLID_16_);}
	.st21{fill:url(#SVGID_4_);}
	.st22{fill:url(#SVGID_5_);}
	.st23{fill:url(#XMLID_17_);}
	.st24{fill:url(#XMLID_18_);}
	.st25{fill:url(#XMLID_19_);}
	.st26{fill:url(#SVGID_6_);}
	.st27{fill:url(#SVGID_7_);}
</style>
<g>
	<linearGradient id="SVGID_1_" gradientUnits="userSpaceOnUse" x1="4.6219" y1="156.1295" x2="387.6109" y2="156.1295">
		<stop  offset="2.775224e-02" style="stop-color:#F4C973"/>
		<stop  offset="1" style="stop-color:#EAA62D"/>
	</linearGradient>
	<path class="st0" d="M93.4,45c19-3.7,91.6,4.9,111.8-6.8s55.9-3.1,85.5,0.6c29.6,3.8,74.2,28.8,78.8,41.6
		c4.5,12.7-35.9,79.3-17.4,102.1c18.6,22.8,48.6,63.7,29.4,79.4s-88.9,22.1-124.6,15.7s-69.2-7.9-110.8-3.6s-154.6,9-140-28.5
		s43.7-79,55.3-104.1S61,51.2,93.4,45z"/>
	<g id="XMLID_00000150065107400480978920000002379778431356292481_">
		<g id="XMLID_00000001630075121045650340000007979526048842438038_">
			<path id="XMLID_00000024717113589238233720000015856484376865930677_" class="st1" d="M148.9,76.9c18.8,0.2,34.1-2.6,34.2-6.3
				c0-1.3-2.3-2.5-5.6-3.6c6.6,1.3,10.8,3.1,10.7,5c-0.1,3.7-15.4,6.6-34.2,6.3c-12.2-0.1-22.3-1.6-28.3-3.6
				C131.8,75.9,139.9,76.8,148.9,76.9z"/>
			<path id="XMLID_00000125604141735959100940000000289816987571843971_" class="st1" d="M184.5,76.8c9.8-1,16.8-2.9,17.1-5.7
				c0.5-4.4-15.5-8.8-35.8-9.7c-4.8-0.2-9.4-0.2-13.7-0.1c6-0.6,12.8-0.9,20.5-0.5c20.2,1,36.3,5.3,35.8,9.7
				C208,73.9,198.1,76.3,184.5,76.8z"/>
			<path id="XMLID_00000160877836969204269880000003426177409032416678_" class="st1" d="M160.9,57.9c-18.8-0.2-34.1,2.6-34.2,6.3
				c0,1.3,2.3,2.5,5.6,3.6c-6.6-1.3-10.8-3.1-10.7-5c0.1-3.7,15.4-6.6,34.2-6.3c12.2,0.1,22.3,1.6,28.3,3.6
				C178,58.9,169.9,58,160.9,57.9z"/>
		</g>
		<g id="XMLID_00000168819947890757694690000011879494060745504690_">
			<g id="XMLID_00000178894473358119074460000000858051744307816599_">
				<linearGradient id="XMLID_2_" gradientUnits="userSpaceOnUse" x1="153.5151" y1="43.3575" x2="206.0932" y2="43.3575">
					<stop  offset="2.775224e-02" style="stop-color:#F4C973"/>
					<stop  offset="1" style="stop-color:#EAA62D"/>
				</linearGradient>
				<path id="XMLID_00000054945130335593309150000002059088657438473902_" class="st2" d="M153.5,53.4c0.1,5.4,0.7,10.6,1.4,14.9
					c0.2,1.1,0.4,2.2,0.7,3.2c-0.1,0.1,0,0.3,0,0.5h2.1v-0.9c0-1.8,0-3.8-0.1-5.8c0,0,0,0,0-0.1c0-0.3,0-0.7-0.1-1.1
					c0-1.9-0.1-3.8-0.3-5.5V58c-0.1-1.2-0.2-2.7-0.1-4.4c0-0.7,0.1-1.6,0.2-2.4c0.1-2.5,0.4-5.3,1-8.1c0.8-3.9,2-8,4-11.7
					c1.1-2.1,2.4-4.1,4.1-5.8c2.3-2.7,5.2-4.9,8.8-6.4c0.8-0.3,1.6-0.6,2.5-0.8c0.5-0.1,1-0.3,1.4-0.3c18-3.9,26.9,10.5,26.9,10.5
					c-0.7-5.3-12.6-15.9-26.9-13.7c-0.9,0.1-1.9,0.4-2.9,0.7c-3.9,1.1-7.8,3.2-11.8,6.6c-1.6,1.4-2.9,2.9-4.1,4.6
					c-2.3,3.2-4,6.8-5,10.5c-0.5,1.8-0.9,3.5-1.1,5.3c-0.2,0.5-0.2,0.9-0.3,1.4v0.1C153.6,47.3,153.4,50.4,153.5,53.4z"/>
			</g>
			<g id="XMLID_00000157282719965622284180000012389771721016558782_">
				<linearGradient id="XMLID_3_" gradientUnits="userSpaceOnUse" x1="116.1049" y1="49.207" x2="160.8452" y2="49.207">
					<stop  offset="2.775224e-02" style="stop-color:#F4C973"/>
					<stop  offset="1" style="stop-color:#EAA62D"/>
				</linearGradient>
				<path id="XMLID_00000145023843338584725140000011329470701900286862_" class="st3" d="M116.1,38.3c0,0,0.3-0.5,1-1.4
					c0.5-0.5,1-1.1,1.7-1.8c3.5-3.5,10.8-8.3,21.4-5.5c1.6,0.4,3,1,4.4,1.8c0.3,0.1,0.6,0.3,0.9,0.5c2.3,1.4,4.3,3.2,5.7,5.4
					c0.6,0.7,1,1.4,1.5,2.2c0,0.1,0,0.1,0,0.1c0.6,1,1.1,2,1.6,3.1c0.7,1.8,1.3,3.6,1.8,5.4c0.5,1.8,0.8,3.6,1,5.4
					c0.3,1.4,0.4,2.8,0.4,4c0.2,2.2,0.2,4.2,0.1,5.7c0,0.3-0.1,0.6-0.1,0.9c0,0.5-0.1,1.1-0.1,1.8c-0.1,1.1-0.1,2.2-0.2,3.2
					c0,0.1,0,0.1,0,0.1V72h0.8c0.5,0,1,0,1.5-0.1c0.6-3.7,1.2-8.1,1.2-12.7c0-2.6-0.1-5.3-0.4-7.8c-0.4-2.8-1-5.7-2-8.3
					c-0.7-2-1.7-3.9-2.9-5.7c-1-1.7-2.3-3.2-4-4.6c-0.1-0.1-0.2-0.2-0.4-0.3c-0.2-0.3-0.4-0.5-0.7-0.7c-1.8-1.5-3.7-2.6-5.5-3.4
					c-0.6-0.3-1.2-0.6-1.9-0.8c-11.3-4.1-21.6,2.2-25.4,7.4c-0.5,0.7-0.9,1.3-1.1,1.8C116.3,37.4,116.2,37.9,116.1,38.3z"/>
				<linearGradient id="XMLID_4_" gradientUnits="userSpaceOnUse" x1="161.226" y1="35.9151" x2="179.2838" y2="35.9151">
					<stop  offset="2.775224e-02" style="stop-color:#F4C973"/>
					<stop  offset="1" style="stop-color:#EAA62D"/>
				</linearGradient>
				<path id="XMLID_00000047756360557740440690000009222815220094435981_" class="st4" d="M161.5,49.4L161.5,49.4
					c-0.3,2.7-0.3,5.3,0,8v0.1c0.3,5.3,1.5,10.2,2.7,14.2v0.2c0.6-0.1,1.1-0.1,1.6-0.1c-0.6-3.2-0.9-6.4-1-9.7
					c-0.5-10.7,1.9-21.4,9.8-32.9c2.8-4.1,4.2-7.7,4.6-10.9c0.1-1.1,0.1-2.2,0-3.2C178.7,5.9,171,0.7,170,0c2,2.2,7.6,6.9,6.3,15.7
					c-0.2,1.1-0.5,2.3-1,3.6c-1.1,3.5-3.2,7.6-7,12.2c-1.9,2.4-3.4,5.1-4.6,7.8c0,0.1,0,0.1,0,0.1C162.5,42.6,161.8,46,161.5,49.4z"
					/>
			</g>
		</g>
		<g>
			<g>
				<path class="st5" d="M156.4,41c0.3,0.3,0.6,0.6,0.8,0.8c0,0.2,0,0.4,0.1,0.6c0.1,0.4,0.4,0.7,0.6,0.9l-1.4,0.7
					c0-0.4-0.1-0.8-0.2-1.3c-0.1-0.2-0.2-0.4-0.3-0.6C156.2,41.7,156.3,41.4,156.4,41c0.4,0,0.8,0.1,1.2,0.2
					c0.2,0.3,0.3,0.6,0.4,0.9c0.2,0.6,0.3,1.2,0.3,1.9l-0.1,1.8l-1.4-1.1c-0.6-0.5-1-1.1-1.2-1.7c-0.1-0.3-0.2-0.7-0.2-1
					C155.6,41.5,155.9,41.2,156.4,41z"/>
			</g>
			<g>
				<path class="st5" d="M157.8,52.7c0.4,0.1,0.7,0.3,1,0.5c0,0.2,0.1,0.4,0.1,0.7l0.2,1.3c0.1,0.4,0.1,0.9,0.1,1.3l0,0.7
					c-0.3,0.2-0.5,0.5-0.9,0.7c-0.4-0.2-0.6-0.4-0.9-0.6l0-0.6c0-0.4,0-0.8-0.1-1.2l-0.2-1.2c0-0.2-0.1-0.4-0.1-0.6
					C157.2,53.3,157.4,53,157.8,52.7z"/>
			</g>
			<g>
				<path class="st5" d="M155,62.1c0.1-0.3,0.3-0.6,0.8-0.7c0.1,0,0.3,0,0.5,0.1c0.2,0.1,0.3,0.3,0.4,0.5c0,0.2,0,0.4,0,0.6
					c-0.1,0.2-0.2,0.4-0.3,0.5c-0.4,0.4-0.6,0.4-0.7,0.4c0,0-0.1,0.1,0,0c0,0,0.2-0.2,0.1-0.4l0-0.2c0,0.2,0.3,0.4,0.4,0.5l0.6,1.1
					c0-0.1,0-0.2-0.1-0.3l-1.5,0.2l0.2-0.3c0-0.1,0.1-0.2,0.1-0.4c0.3-0.1,0.7-0.2,1.1-0.3c0.2,0.4,0.4,0.7,0.5,1.1
					c-0.1,0.1-0.1,0.2-0.2,0.3l-0.2,0.3l-0.6,1.2l-0.9-1c-0.3-0.4-0.5-0.9-0.3-1.4l0.6,1.1c-0.9-0.3-1.5-0.9-1.7-1.8l0-0.1l0-0.1
					c0-0.4,0.2-0.7,0.4-0.8c0.2-0.2,0.3-0.2,0.4-0.3c0.2-0.1,0.4-0.2,0.2-0.1c0,0-0.1,0.1-0.1,0.2c0,0.1,0,0.2,0,0.3
					c0,0.1,0.1,0.2,0.2,0.2c0.1,0,0.2,0,0.2,0C155.5,62.5,155.3,62.3,155,62.1z"/>
			</g>
			<g>
				<path class="st5" d="M164.1,40.5c0.1-0.3,0.3-0.6,0.4-0.8c0,0,0.1-0.1,0.1-0.1c0,0,0.1,0,0.1,0l0.2,0l-0.4,1.7
					c-0.3-0.2-0.6-0.6-0.7-0.9c-0.1-0.3,0-0.6,0-0.8c0.1-0.4,0.3-0.8,0.4-1l0.4-0.7l0.1-0.2c0-0.1,0.1-0.1,0.2-0.1
					c0.2,0,0.5-0.1,0.8-0.1c0.2,0.2,0.3,0.5,0.5,0.7c0.1,0.1,0.2,0.2,0.1,0.3l-0.1,0.2l-0.4,0.7c-0.1,0.3-0.2,0.4-0.2,0.6
					c0,0.1,0,0.1,0,0c0,0-0.1-0.2-0.2-0.3l-0.4,1.7l-0.2,0c0,0-0.1,0-0.1,0c0,0-0.1-0.1-0.1-0.1C164.4,41.1,164.2,40.8,164.1,40.5z"
					/>
			</g>
			<g>
				<path class="st5" d="M165.5,46.8c-0.1,0.4,0,0.6,0.2,0.8c0.1,0.1,0,0,0,0.1c0,0.1,0,0.1,0,0l-0.3,1.3c0,0-0.1,0.1-0.1,0.2
					c0,0.1,0,0.1,0,0.2c-0.2,0.1-0.5,0.3-0.7,0.7c-0.4,0.1-0.8,0-1.1-0.3c0-0.3,0-0.6,0-0.9c0.1-0.6,0.4-1.1,1-1.5l-0.3,1.3
					c-0.2-0.3-0.3-0.6-0.4-0.9c0-0.3,0-0.6,0.1-0.9c0.1-0.2,0.2-0.5,0.5-0.7C164.9,46.4,165.3,46.5,165.5,46.8z"/>
			</g>
			<g>
				<path class="st5" d="M163.3,57c0.2-0.1,0.5-0.1,0.7-0.2l0.3-0.1c0.1,0,0,0,0,0.1c0,0,0,0,0,0.1l-1.6,0.6l-0.1-1.4l0-0.7l0-0.2
					c0,0,0-0.1,0-0.1c0,0,0.1-0.1,0.1-0.1c0.2-0.1,0.4-0.3,0.7-0.4c0.3,0.1,0.5,0.2,0.8,0.3c0.1,0,0.1,0,0.2,0.1c0,0,0,0.1,0,0.1
					l0,0.2l0,0.7l0.1,1.4l0.2,2.6l-1.8-2c0,0,0,0,0-0.1c0,0-0.1,0,0-0.1l0.1-0.3C163,57.4,163.1,57.2,163.3,57z"/>
			</g>
			<g>
				<path class="st5" d="M164.2,60.8l0-0.9c0,0,0,0,0,0h0h0h0l0,0.9l0,0.9h0h0h0c0,0,0,0,0,0L164.2,60.8z"/>
			</g>
			<g>
				<path class="st5" d="M159.9,29.6c-0.2-0.2-0.3-0.3-0.4-0.5l-0.1-0.3c0-0.1-0.1-0.2,0-0.2c0.1-0.3,0.3-0.5,0.4-0.7
					c0.3-0.5,0.7-0.9,1.2-1.2l0.1,1.5c-0.4-0.2-0.7-0.6-0.8-1l-0.2-0.6l0.4-0.4l0.6-0.5c0-0.2,0.3,0,0.5,0c0.2,0,0.4,0.1,0.7,0.2
					c0,0.2,0.1,0.5,0.1,0.7c0,0.2,0.1,0.5-0.1,0.5l-0.6,0.5l0.3-0.9c0,0,0,0,0,0l1.8,0.3L162,28c-0.3,0.2-0.6,0.5-0.8,0.8
					c-0.1,0.2-0.2,0.3-0.3,0.5c0,0.1-0.1,0.1-0.2,0.1l-0.3,0.1C160.4,29.5,160.2,29.5,159.9,29.6z"/>
			</g>
			<g>
				<path class="st5" d="M153.1,35c0.2,0.1,0.4,0,0.5-0.1l0.3-0.3c0.1,0.1,0.2,0.1,0.5,0.3c0.5,0.4,0.7,0.8,0.9,1.1
					c0.2,0.4,0.3,0.6,0.4,0.7c0.1,0.1,0.1,0.1,0.1,0.1c-0.1,0.2-0.1,0.5,0.1,0.9c-0.1,0.4-0.5,0.6-0.9,0.7c-0.3-0.2-0.5-0.3-0.6-0.5
					c-0.3-0.4-0.5-0.8-0.6-1.1c-0.1-0.3-0.3-0.4-0.3-0.5c0,0-0.1-0.1-0.4-0.2c0-0.2-0.1-0.4-0.1-0.6C152.8,35.3,152.9,35,153.1,35z"
					/>
			</g>
			<g>
				<path class="st5" d="M174.8,22.5c0.1-0.3-0.1-0.6-0.2-0.7c-0.1-0.1-0.2-0.2-0.1-0.2c0,0,0-0.1,0.1-0.2c0.1-0.2,0.2-0.6,0.3-0.9
					l0.6-2l1.3,1c0,0,0,0,0,0c0,0,0,0.1-0.1,0c-0.2-0.1-0.5,0-0.8,0.2c-0.3-0.2-0.5-0.5-0.5-0.9c-0.1-0.2,0.1-0.3,0.2-0.5
					c0.1-0.1,0.3-0.2,0.4-0.3l1.9-1l-0.6,2l-0.6,2c-0.1,0.3-0.2,0.6-0.3,1c0,0.1-0.1,0.2-0.1,0.3c0,0.2-0.2,0.2-0.3,0.3
					C175.5,22.7,175.1,22.6,174.8,22.5z"/>
			</g>
		</g>
	</g>
	<g>
		<g id="XMLID_00000143619458453457560820000009893688541380566674_">
			<g id="XMLID_00000170260802594259000380000000894831896808206245_">
				<path id="XMLID_00000127008704321131510590000017814255127846522024_" class="st1" d="M132,146.9c20.5,0.3,37.2-2.8,37.3-6.9
					c0-1.4-2.5-2.7-6.1-3.9c7.2,1.4,11.7,3.4,11.7,5.5c-0.1,4.1-16.8,7.1-37.3,6.9c-13.3-0.2-24.3-1.7-30.8-3.9
					C113.3,145.9,122.1,146.8,132,146.9z"/>
				<path id="XMLID_00000040574924484054514070000005527705432839768206_" class="st1" d="M170.8,146.9c10.7-1.1,18.3-3.2,18.6-6.2
					c0.5-4.8-17-9.6-39-10.6c-5.3-0.3-10.3-0.2-14.9-0.1c6.5-0.6,13.9-1,22.3-0.6c22.1,1.1,39.6,5.8,39,10.6
					C196.4,143.7,185.7,146.3,170.8,146.9z"/>
				<path id="XMLID_00000070804665762038707500000017219600551365771679_" class="st1" d="M145.1,126.3c-20.5-0.2-37.2,2.8-37.3,6.9
					c0,1.4,2.5,2.7,6.1,3.9c-7.2-1.4-11.7-3.4-11.7-5.5c0.1-4.1,16.8-7.1,37.3-6.9c13.3,0.2,24.3,1.7,30.8,3.9
					C163.7,127.3,154.9,126.4,145.1,126.3z"/>
			</g>
			<g id="XMLID_00000057142873052334412930000001780970796567457664_">
				<g id="XMLID_00000119824559075592111940000001717386986724795265_">
					<linearGradient id="XMLID_5_" gradientUnits="userSpaceOnUse" x1="136.995" y1="110.3845" x2="194.3295" y2="110.3845">
						<stop  offset="2.775224e-02" style="stop-color:#F4C973"/>
						<stop  offset="1" style="stop-color:#EAA62D"/>
					</linearGradient>
					<path id="XMLID_00000060738330089015508800000011403434689119037347_" class="st6" d="M137,121.3c0.1,5.9,0.8,11.6,1.5,16.3
						c0.2,1.3,0.4,2.4,0.8,3.5c-0.1,0.1,0,0.4,0,0.5h2.3v-1c0-2,0-4.1-0.1-6.3c0,0,0,0,0-0.1c0-0.4,0-0.7-0.1-1.2
						c0-2.1-0.1-4.1-0.3-6v-0.7c-0.1-1.3-0.2-2.9-0.1-4.8c0-0.8,0.1-1.7,0.2-2.6c0.1-2.7,0.4-5.7,1.1-8.8c0.9-4.3,2.2-8.7,4.3-12.7
						c1.2-2.3,2.7-4.4,4.4-6.3c2.5-2.9,5.6-5.4,9.6-6.9c0.9-0.3,1.8-0.7,2.8-0.9c0.6-0.1,1.1-0.3,1.5-0.3
						c19.6-4.3,29.3,11.4,29.3,11.4c-0.8-5.7-13.7-17.4-29.3-14.9c-1,0.1-2.1,0.4-3.2,0.7c-4.2,1.2-8.5,3.5-12.8,7.2
						c-1.8,1.5-3.2,3.2-4.4,5c-2.5,3.5-4.3,7.4-5.4,11.5c-0.6,1.9-1,3.8-1.2,5.8c-0.2,0.5-0.2,1-0.3,1.5v0.1
						C137.1,114.7,136.9,118.1,137,121.3z"/>
				</g>
				<g id="XMLID_00000150097295029867474980000008520936768593927304_">
					<linearGradient id="XMLID_6_" gradientUnits="userSpaceOnUse" x1="96.2005" y1="116.7632" x2="144.9883" y2="116.7632">
						<stop  offset="2.775224e-02" style="stop-color:#F4C973"/>
						<stop  offset="1" style="stop-color:#EAA62D"/>
					</linearGradient>
					<path id="XMLID_00000169546589104883256930000015009407179370166426_" class="st7" d="M96.2,104.9c0,0,0.3-0.6,1.1-1.5
						c0.6-0.6,1.1-1.3,1.9-2c3.9-3.8,11.7-9.1,23.3-6c1.8,0.4,3.3,1.1,4.8,2c0.3,0.1,0.7,0.3,1,0.6c2.5,1.5,4.6,3.5,6.2,5.9
						c0.7,0.7,1.1,1.5,1.7,2.4c0,0.1,0,0.1,0,0.1c0.7,1.1,1.2,2.2,1.8,3.4c0.8,1.9,1.4,3.9,2,5.9c0.6,2,0.9,4,1.1,5.9
						c0.3,1.5,0.4,3,0.4,4.3c0.2,2.4,0.2,4.6,0.1,6.2c0,0.4-0.1,0.7-0.1,1c0,0.6-0.1,1.3-0.1,1.9c-0.1,1.2-0.1,2.4-0.2,3.5
						c0,0.1,0,0.1,0,0.1v2.9h0.9c0.6,0,1.1,0,1.7-0.1c0.7-4.1,1.3-8.8,1.3-13.9c0-2.9-0.1-5.7-0.4-8.5c-0.4-3.1-1.1-6.2-2.2-9.1
						c-0.8-2.2-1.9-4.3-3.2-6.2c-1.1-1.8-2.5-3.5-4.3-5c-0.1-0.1-0.2-0.2-0.4-0.3c-0.2-0.3-0.4-0.5-0.8-0.7c-2-1.6-4-2.8-6-3.7
						c-0.7-0.4-1.3-0.7-2.1-0.9c-12.3-4.5-23.6,2.4-27.7,8.1c-0.6,0.7-1,1.4-1.2,2C96.4,103.9,96.3,104.4,96.2,104.9z"/>
					<linearGradient id="XMLID_7_" gradientUnits="userSpaceOnUse" x1="145.4035" y1="102.2688" x2="165.0949" y2="102.2688">
						<stop  offset="2.775224e-02" style="stop-color:#F4C973"/>
						<stop  offset="1" style="stop-color:#EAA62D"/>
					</linearGradient>
					<path id="XMLID_00000068635715006508270260000014219574060380046005_" class="st8" d="M145.7,117L145.7,117
						c-0.3,2.9-0.3,5.8,0,8.7v0.1c0.3,5.7,1.7,11.1,3,15.5v0.2c0.7-0.1,1.2-0.1,1.8-0.1c-0.7-3.5-1-7-1.1-10.5
						c-0.6-11.6,2.1-23.3,10.7-35.9c3.1-4.4,4.5-8.4,5-11.9c0.1-1.2,0.1-2.4,0-3.5c-0.6-9.9-9-15.6-10.1-16.4
						c2.2,2.4,8.3,7.5,6.9,17.1c-0.2,1.2-0.6,2.5-1.1,3.9c-1.2,3.8-3.5,8.3-7.6,13.3c-2.1,2.7-3.8,5.5-5,8.5c0,0.1,0,0.1,0,0.1
						C146.8,109.5,146,113.3,145.7,117z"/>
				</g>
			</g>
		</g>
		<g>
			<linearGradient id="SVGID_2_" gradientUnits="userSpaceOnUse" x1="126.3741" y1="122.8745" x2="215.4532" y2="122.8745">
				<stop  offset="2.775224e-02" style="stop-color:#F4C973"/>
				<stop  offset="1" style="stop-color:#EAA62D"/>
			</linearGradient>
			<path class="st9" d="M130,137.1c0.8-1.8,1.8-3.6,2.9-5.2c1.1-1.7,2.4-3.2,3.8-4.7c0.7-0.8,1.4-1.5,2.1-2.2
				c0.7-0.7,1.5-1.4,2.2-2.1c0.8-0.7,1.6-1.3,2.3-2c0.8-0.6,1.6-1.2,2.5-1.8c1.7-1.2,3.5-2.2,5.2-3.2c0.9-0.5,1.8-0.9,2.8-1.4
				c0.9-0.4,1.9-0.9,2.8-1.3c1.9-0.7,3.8-1.5,5.8-2l3-0.8c1-0.3,2-0.4,3-0.6l3-0.5c1-0.2,2-0.2,3.1-0.3c2-0.1,4.1-0.3,6.1-0.3
				c2,0,4,0,6.1,0.2l3,0.3l3,0.5c4,0.8,8.1,1.9,11.8,4.2c1.8,1.2,3.5,2.6,4.8,4.3c1.3,1.8,2,4,1.6,6c-0.3-1-0.8-1.8-1.4-2.5
				c-0.3-0.4-0.6-0.7-0.9-1l-1-0.8c-0.8-0.5-1.5-0.9-2.3-1.2c-0.8-0.4-1.7-0.6-2.5-0.9c-3.4-0.9-7.1-1.1-10.7-1.2l-2.7,0l-2.8,0.1
				c-1.8,0-3.7,0.2-5.6,0.4c-0.9,0.1-1.9,0.1-2.8,0.2l-2.7,0.3c-0.9,0.1-1.8,0.2-2.7,0.3l-2.7,0.5c-0.9,0.2-1.8,0.3-2.7,0.5
				l-2.6,0.7c-1.8,0.3-3.5,1-5.2,1.5c-0.9,0.2-1.7,0.6-2.6,0.9c-0.9,0.3-1.7,0.6-2.6,0.9l-2.5,1.1l-1.3,0.5
				c-0.4,0.2-0.8,0.4-1.2,0.6c-0.8,0.4-1.7,0.8-2.5,1.2c-0.8,0.4-1.6,0.9-2.5,1.3c-0.8,0.4-1.6,0.9-2.4,1.4l-1.2,0.7l-1.2,0.7
				C136.3,132.4,133.1,134.6,130,137.1z"/>
		</g>
		<g>
			<linearGradient id="SVGID_3_" gradientUnits="userSpaceOnUse" x1="84.759" y1="123.566" x2="157.7415" y2="123.566">
				<stop  offset="2.775224e-02" style="stop-color:#F4C973"/>
				<stop  offset="1" style="stop-color:#EAA62D"/>
			</linearGradient>
			<path class="st10" d="M155,135.7c-6.1-2.3-11.7-4.9-17.3-7.4c-5.6-2.5-11.1-4.9-16.6-6.6c-0.7-0.2-1.4-0.5-2-0.6l-2-0.5
				c-0.7-0.2-1.3-0.3-2-0.4c-0.7-0.1-1.3-0.2-2.1-0.3c-3-0.4-6.1-0.7-9.2-1.1c-6.1-0.8-12.3-1.7-18.6-3c3-1.2,6.2-2,9.3-2.7
				c3.1-0.6,6.3-1,9.5-1.3c3.2-0.3,6.4-0.3,9.6-0.3c0.8,0,1.7,0.1,2.6,0.2c0.9,0.1,1.8,0.1,2.6,0.3l2.5,0.6c0.9,0.2,1.6,0.5,2.5,0.7
				c6.5,2.1,12.2,5.3,17.4,9.1c2.6,1.9,5.1,4,7.4,6.2C150.9,130.7,153.1,133,155,135.7z"/>
		</g>
		<path class="st11" d="M122.3,118.4c0-0.4-1.3-0.8-1.3-0.9c0-0.1-0.1-3.4-0.2-4.2c0-0.2-1.5-0.7-2.2-0.9c0.1-0.3,0.2-0.6,0.3-0.8
			c0.9,0.1,2.9,0.2,3.1,0.2c0.2,0,0.5,1.3,0.5,1.4c0,0,0.3-0.1,0.5,0.1c0.1,0.1-0.1-0.2-0.4-0.3c-0.1,0-0.1-0.1-0.2-0.8
			c-0.1-0.6-0.3-0.7-0.3-0.7s-2.2-0.1-3.1-0.2c0.1-0.3,0.2-0.5,0.2-0.5c0.2-0.3,0.4-0.1,0.6-0.5c0.1-0.4,0.2-0.7,0.4-0.7
			c0.1,0,0.2-0.2,0.2-0.4c0.2,0,0.4,0,0.5,0c0.1,0,2.3-1.8,2.8-1.7c0.5,0.1,0.2-0.2-0.1-0.2c-0.3,0-2.6,1.6-2.7,1.7
			c-0.1,0.1-0.3,0-0.5,0.1c0-0.2-0.1-0.3-0.3-0.3c-0.3,0-0.6-0.2-0.9-0.3c0.2-0.7,0.5-2.7,0.9-2.9c0.4-0.2,0-0.3-0.2-0.1
			c-0.2,0.2-0.8,2.4-0.9,3c0,0,0,0,0,0c-0.2,0-1.8,0-2.2,0.6c0,0-0.7,0.4-0.8,0.4s-0.5-0.6-0.7-0.5c-0.3,0.1-0.2,0.7-0.4,1.1
			c-0.1,0-0.2,0.1-0.2,0.1c-0.1,0-1-0.9-1.3-0.8c-0.6,0.1-1.1,1.6-1.4,2.2c-0.4-0.1-0.7-0.1-0.7-0.1s0,0-0.1,0.3
			c-0.3-0.1-0.6-0.1-0.8,0c-0.4,0.2-0.4,0.5-0.4,0.4c0.1-0.3,0.3-0.3,0.5-0.3c0.1,0,0.3,0,0.6,0.1c-0.1,0.3-0.4,1-0.7,2.1
			c-0.7,2.3-0.7,1.9-0.8,2c-0.1,0.1-0.6,0.3-0.4,0.3c0.1,0,0.8-0.1,0.8-0.2c0.1-0.1,1-3.3,1.4-4.1c0.2,0.1,0.4,0.1,0.5,0.1
			c0,0,0.1,0,0.1-0.1c0.2,0.1,0.5,0.2,0.7,0.2c-0.3,0.3-0.5,0.7-0.6,1c-0.4,1.4-0.5,3.5,0.1,4.4c0.6,0.9,0.9,0.9,1.3,0.5
			c0.3-0.3,2.8-2.1,3.9-3.2c0.4,0.3,0.9,0.7,0.9,0.8c0.1,0.1-2.6,3.4-2.7,3.6c-0.1,0.2,0.2,0.7,0.3,0.8c0.1,0.1,0-0.3,0-0.5
			c0-0.2-0.3-0.1,1.3-1.9c1.4-1.6,1.5-2,1.5-2s-0.6-0.6-1-1.1c0.1-0.1,0.2-0.2,0.2-0.2c0.2-0.3,0.3-0.7,0.5-1.2
			c0.6,0.2,1.8,0.6,1.9,0.8c0.2,0.3,0.2,3.9,0.2,4c0.1,0.1,1.3,0.7,1.4,0.8c0,0.1,0.2,0.4,0.2,0.4S122.4,118.8,122.3,118.4z
			 M111.7,111.4L111.7,111.4L111.7,111.4L111.7,111.4z M113.2,111.3c-0.3,0-0.6-0.1-0.9-0.1c0.4-0.6,0.9-1.7,1-1.8
			c0.3-0.1,0.7,0.6,1,0.7C114.5,110.2,113.9,110.7,113.2,111.3z M115.1,109.7c0.1-0.3,0.3-0.7,0.3-0.6c0.1,0.1,0.4,0.3,0.4,0.3
			S115.5,109.6,115.1,109.7z"/>
		<path class="st11" d="M176.4,82.6c0-0.2-0.6-0.6-0.6-0.6c0,0,0.3-1.7,0.3-2.1c0-0.1-0.7-0.5-1-0.7c0.1-0.1,0.2-0.3,0.2-0.4
			c0.4,0.1,1.4,0.4,1.5,0.4c0.1,0,0.1,0.7,0.1,0.7s0.2,0,0.3,0.1c0,0.1,0-0.1-0.2-0.2c0,0,0-0.1,0-0.4c0-0.3-0.1-0.4-0.1-0.4
			s-1.1-0.3-1.5-0.4c0.1-0.1,0.1-0.2,0.2-0.2c0.1-0.1,0.2,0,0.3-0.2c0.1-0.2,0.2-0.3,0.3-0.3c0.1,0,0.1-0.1,0.1-0.2
			c0.1,0,0.2,0,0.3,0c0.1,0,1.3-0.7,1.6-0.6c0.2,0.1,0.1-0.1,0-0.1c-0.2,0-1.4,0.5-1.5,0.6c0,0-0.2,0-0.3,0c0-0.1,0-0.2-0.1-0.2
			c-0.1,0-0.3-0.2-0.4-0.3c0.2-0.3,0.5-1.3,0.8-1.4c0.2-0.1,0-0.2-0.1-0.1c-0.1,0.1-0.6,1.1-0.8,1.4c0,0,0,0,0,0
			c-0.1,0-0.9-0.2-1.2,0.1c0,0-0.4,0.1-0.4,0.1c0,0-0.2-0.4-0.3-0.3c-0.1,0-0.2,0.3-0.3,0.5c-0.1,0-0.1,0-0.1,0
			c-0.1,0-0.4-0.5-0.5-0.5c-0.3,0-0.7,0.7-0.9,1c-0.2-0.1-0.3-0.1-0.3-0.1s0,0-0.1,0.1c-0.1-0.1-0.3-0.1-0.4-0.1
			c-0.2,0.1-0.3,0.2-0.2,0.2c0.1-0.1,0.2-0.1,0.3-0.1c0,0,0.2,0.1,0.3,0.1c-0.1,0.2-0.3,0.4-0.6,1c-0.6,1.1-0.5,0.9-0.6,0.9
			c-0.1,0-0.3,0.1-0.2,0.1c0.1,0,0.4,0,0.4,0c0.1-0.1,0.8-1.5,1.1-1.9c0.1,0.1,0.2,0.1,0.2,0.1c0,0,0,0,0.1-0.1
			c0.1,0.1,0.2,0.1,0.3,0.2c-0.2,0.1-0.3,0.3-0.4,0.4c-0.3,0.6-0.6,1.7-0.4,2.2c0.2,0.5,0.3,0.5,0.6,0.4c0.2-0.1,1.6-0.8,2.3-1.2
			c0.1,0.2,0.4,0.4,0.4,0.5c0,0.1-1.6,1.4-1.7,1.5s0,0.4,0,0.4c0,0.1,0-0.2,0.1-0.2s-0.1-0.1,0.9-0.8c0.9-0.7,0.9-0.8,0.9-0.8
			s-0.2-0.3-0.4-0.6c0.1,0,0.1-0.1,0.1-0.1c0.1-0.1,0.2-0.3,0.4-0.5c0.3,0.2,0.8,0.5,0.9,0.6c0.1,0.2-0.3,2-0.3,2
			c0,0.1,0.6,0.5,0.6,0.6s0.1,0.2,0.1,0.2S176.4,82.7,176.4,82.6z M171.8,77.9L171.8,77.9L171.8,77.9L171.8,77.9z M172.6,78.1
			c-0.1,0-0.3-0.1-0.4-0.2c0.2-0.3,0.6-0.8,0.7-0.8c0.1,0,0.3,0.4,0.4,0.5C173.3,77.6,173,77.8,172.6,78.1z M173.7,77.4
			c0.1-0.1,0.2-0.3,0.2-0.3c0,0,0.2,0.2,0.2,0.2S173.9,77.4,173.7,77.4z"/>
		<path class="st11" d="M154.4,119.9c0,0,0.2-0.2,0.2-0.4c0-0.1,1.1-0.7,1.2-0.8c0.1-0.1,0-3.4,0.2-3.7c0.2-0.2,1.2-0.5,1.8-0.7
			c0.2,0.4,0.3,0.8,0.5,1.1c0,0.1,0.1,0.1,0.2,0.2c-0.4,0.4-0.9,1-0.9,1s0,0.3,1.3,1.8c1.4,1.6,1.2,1.6,1.2,1.7c0,0.2-0.1,0.5,0,0.4
			c0.1-0.1,0.3-0.6,0.2-0.7c-0.1-0.1-2.5-3.1-2.4-3.2c0.1-0.1,0.5-0.4,0.9-0.7c1,0.9,3.2,2.6,3.5,2.9c0.4,0.4,0.6,0.4,1.2-0.4
			c0.5-0.8,0.4-2.8,0.1-4c-0.1-0.3-0.3-0.6-0.5-0.9c0.2-0.1,0.4-0.1,0.6-0.2c0.1,0.1,0.1,0.1,0.1,0.1c0,0,0.2-0.1,0.4-0.1
			c0.3,0.7,1.2,3.6,1.2,3.7c0.1,0.1,0.6,0.3,0.8,0.2c0.1,0-0.2-0.2-0.4-0.3c-0.1-0.1-0.1,0.2-0.7-1.8c-0.3-1-0.5-1.6-0.6-1.9
			c0.3-0.1,0.5-0.1,0.6-0.1c0.1,0,0.3,0.1,0.4,0.3c0.1,0.1,0-0.2-0.3-0.4c-0.2-0.1-0.5,0-0.7,0c-0.1-0.2-0.1-0.2-0.1-0.2
			s-0.3,0-0.6,0.1c-0.2-0.5-0.7-1.9-1.2-2c-0.3,0-1.1,0.7-1.1,0.8c0,0-0.1,0-0.2-0.1c-0.1-0.4-0.1-0.9-0.3-1
			c-0.2-0.1-0.6,0.4-0.6,0.5c-0.1,0.1-0.7-0.3-0.7-0.3c-0.3-0.5-1.8-0.6-2-0.5c0,0,0,0,0,0c-0.1-0.5-0.7-2.5-0.8-2.7
			c-0.2-0.2-0.6-0.1-0.2,0.1c0.3,0.2,0.7,2,0.8,2.6c-0.2,0.1-0.6,0.3-0.8,0.3c-0.1,0-0.2,0.1-0.2,0.3c-0.2,0-0.4,0-0.5-0.1
			c-0.1-0.1-2.2-1.5-2.4-1.6s-0.5,0.3-0.1,0.2c0.4-0.1,2.4,1.6,2.5,1.6c0.1,0,0.3,0,0.5,0c0,0.2,0.1,0.3,0.1,0.4
			c0.2,0,0.2,0.2,0.4,0.6c0.1,0.4,0.4,0.2,0.5,0.5c0,0.1,0.1,0.2,0.2,0.5c-0.8,0.1-2.8,0.2-2.8,0.2s-0.1,0.1-0.2,0.6
			c-0.1,0.6-0.1,0.7-0.2,0.7c-0.3,0.1-0.5,0.3-0.4,0.3c0.2-0.2,0.5-0.1,0.5-0.1c0,0,0.3-1.2,0.5-1.2c0.1,0,2-0.1,2.8-0.2
			c0.1,0.2,0.2,0.5,0.3,0.8c-0.6,0.2-1.9,0.6-2,0.9c-0.1,0.7-0.1,3.7-0.2,3.8c0,0.1-1.2,0.5-1.2,0.8
			C154.3,119.9,154.4,119.9,154.4,119.9z M164,113.2L164,113.2L164,113.2L164,113.2z M161.5,112.1c0.2-0.1,0.7-0.7,0.9-0.7
			c0.2,0.1,0.6,1,1,1.6c-0.3,0-0.6,0.1-0.8,0.1C162,112.6,161.4,112.2,161.5,112.1z M160.2,111.4c0,0,0.3-0.2,0.4-0.3
			c0.1,0,0.2,0.3,0.3,0.6C160.6,111.6,160.2,111.4,160.2,111.4z"/>
	</g>
	<g id="XMLID_00000145029025759620694890000012496877399166282916_">
		<g id="XMLID_00000047754361400599095000000017836769713768812219_">
			<path id="XMLID_00000101816876594025672390000011318999516969605507_" class="st1" d="M294.4,75.2C276,75.5,261,72.7,260.9,69
				c0-1.3,2.3-2.4,5.5-3.5c-6.4,1.3-10.5,3-10.5,4.9c0.1,3.6,15.1,6.4,33.5,6.2c11.9-0.1,21.8-1.6,27.7-3.5
				C311.1,74.3,303.2,75.1,294.4,75.2z"/>
			<path id="XMLID_00000156546992907995746600000002113572735461088414_" class="st1" d="M259.6,75.2c-9.6-1-16.4-2.9-16.7-5.6
				c-0.5-4.3,15.2-8.6,35-9.5c4.7-0.2,9.2-0.2,13.4-0.1c-5.9-0.6-12.5-0.9-20-0.5c-19.8,1-35.5,5.2-35,9.5
				C236.6,72.4,246.2,74.7,259.6,75.2z"/>
			<path id="XMLID_00000008829078949227440140000005069189768729483927_" class="st1" d="M282.7,56.7c18.4-0.2,33.4,2.5,33.5,6.2
				c0,1.3-2.3,2.4-5.5,3.5c6.4-1.3,10.5-3,10.5-4.9c-0.1-3.6-15.1-6.4-33.5-6.2c-11.9,0.1-21.8,1.6-27.7,3.5
				C265.9,57.6,273.8,56.8,282.7,56.7z"/>
		</g>
		<g id="XMLID_00000018238287192670682630000000385218229385538751_">
			<g id="XMLID_00000064323657407433048510000008856235719398632881_">
				
					<linearGradient id="XMLID_8_" gradientUnits="userSpaceOnUse" x1="7763.9097" y1="42.4341" x2="7815.3677" y2="42.4341" gradientTransform="matrix(-1 0 0 1 8053.8257 0)">
					<stop  offset="2.775224e-02" style="stop-color:#F4C973"/>
					<stop  offset="1" style="stop-color:#EAA62D"/>
				</linearGradient>
				<path id="XMLID_00000008139191534890890760000007105251640186533294_" class="st12" d="M289.9,52.2c-0.1,5.3-0.7,10.4-1.4,14.6
					c-0.2,1.1-0.4,2.2-0.7,3.2c0.1,0.1,0,0.3,0,0.5h-2.1v-0.9c0-1.8,0-3.7,0.1-5.7c0,0,0,0,0-0.1c0-0.3,0-0.7,0.1-1.1
					c0-1.9,0.1-3.7,0.3-5.4v-0.7c0.1-1.2,0.2-2.6,0.1-4.3c0-0.7-0.1-1.5-0.2-2.3c-0.1-2.4-0.4-5.2-1-7.9c-0.8-3.8-2-7.8-3.9-11.4
					c-1.1-2.1-2.4-4-4-5.7c-2.3-2.6-5.1-4.8-8.6-6.2c-0.8-0.3-1.6-0.6-2.5-0.8c-0.5-0.1-1-0.3-1.4-0.3C247.2,14,238.5,28,238.5,28
					c0.7-5.2,12.3-15.6,26.3-13.4c0.9,0.1,1.9,0.4,2.9,0.7c3.8,1.1,7.6,3.2,11.5,6.5c1.6,1.4,2.9,2.8,4,4.5
					c2.3,3.1,3.9,6.6,4.9,10.3c0.5,1.7,0.9,3.4,1.1,5.2c0.2,0.5,0.2,0.9,0.3,1.4v0.1C289.8,46.3,290,49.3,289.9,52.2z"/>
			</g>
			<g id="XMLID_00000011742901532493780490000000561757158021879203_">
				
					<linearGradient id="XMLID_9_" gradientUnits="userSpaceOnUse" x1="7727.2959" y1="48.1591" x2="7771.0835" y2="48.1591" gradientTransform="matrix(-1 0 0 1 8053.8257 0)">
					<stop  offset="2.775224e-02" style="stop-color:#F4C973"/>
					<stop  offset="1" style="stop-color:#EAA62D"/>
				</linearGradient>
				<path id="XMLID_00000096061413554803271740000017058502546463708600_" class="st13" d="M326.5,37.5c0,0-0.3-0.5-1-1.4
					c-0.5-0.5-1-1.1-1.7-1.8c-3.5-3.4-10.5-8.1-21-5.4c-1.6,0.4-3,1-4.3,1.8c-0.3,0.1-0.6,0.3-0.9,0.5c-2.3,1.3-4.2,3.2-5.6,5.3
					c-0.6,0.7-1,1.4-1.5,2.1c0,0.1,0,0.1,0,0.1c-0.6,1-1.1,2-1.6,3c-0.7,1.7-1.3,3.5-1.8,5.3c-0.5,1.8-0.8,3.6-1,5.3
					c-0.3,1.4-0.4,2.7-0.4,3.9c-0.2,2.2-0.2,4.1-0.1,5.6c0,0.3,0.1,0.6,0.1,0.9c0,0.5,0.1,1.1,0.1,1.7c0.1,1.1,0.1,2.1,0.2,3.2
					c0,0.1,0,0.1,0,0.1v2.6h-0.8c-0.5,0-1,0-1.5-0.1c-0.6-3.6-1.2-7.9-1.2-12.4c0-2.6,0.1-5.2,0.4-7.7c0.4-2.8,1-5.6,2-8.1
					c0.7-2,1.7-3.8,2.9-5.6c1-1.7,2.3-3.2,3.9-4.5c0.1-0.1,0.2-0.2,0.4-0.3c0.2-0.3,0.4-0.5,0.7-0.7c1.8-1.5,3.6-2.5,5.4-3.3
					c0.6-0.3,1.2-0.6,1.9-0.8c11-4,21.1,2.2,24.8,7.3c0.5,0.7,0.9,1.3,1.1,1.8C326.3,36.6,326.4,37.1,326.5,37.5z"/>
				
					<linearGradient id="XMLID_10_" gradientUnits="userSpaceOnUse" x1="7771.4561" y1="35.1502" x2="7789.1294" y2="35.1502" gradientTransform="matrix(-1 0 0 1 8053.8257 0)">
					<stop  offset="2.775224e-02" style="stop-color:#F4C973"/>
					<stop  offset="1" style="stop-color:#EAA62D"/>
				</linearGradient>
				<path id="XMLID_00000147180963563736097200000009405052317155506350_" class="st14" d="M282.1,48.3L282.1,48.3
					c0.3,2.6,0.3,5.2,0,7.8v0.1c-0.3,5.2-1.5,10-2.7,13.9v0.2c-0.6-0.1-1.1-0.1-1.6-0.1c0.6-3.2,0.9-6.3,1-9.5
					c0.5-10.4-1.9-20.9-9.6-32.2c-2.8-4-4.1-7.5-4.5-10.7c-0.1-1.1-0.1-2.1,0-3.1c0.5-8.9,8-14,9-14.7c-2,2.1-7.4,6.7-6.2,15.3
					c0.2,1.1,0.5,2.2,1,3.5c1.1,3.4,3.2,7.4,6.9,11.9c1.9,2.4,3.4,5,4.5,7.6c0,0.1,0,0.1,0,0.1C281.2,41.7,281.8,45,282.1,48.3z"/>
			</g>
		</g>
		<g>
			<g>
				<path class="st5" d="M287.1,40.1c0.4,0.2,0.7,0.5,0.9,0.9c-0.1,0.3-0.1,0.7-0.2,1c-0.2,0.6-0.6,1.2-1.2,1.7l-1.4,1.1l-0.1-1.7
					c0-0.6,0.1-1.3,0.3-1.8c0.1-0.3,0.2-0.6,0.4-0.9C286.3,40.2,286.7,40.1,287.1,40.1c0.1,0.4,0.2,0.7,0.3,1
					c-0.1,0.2-0.2,0.4-0.2,0.6c-0.1,0.4-0.2,0.8-0.2,1.2l-1.4-0.6c0.3-0.2,0.5-0.5,0.6-0.9c0.1-0.2,0.1-0.4,0.1-0.6
					C286.6,40.7,286.8,40.5,287.1,40.1z"/>
			</g>
			<g>
				<path class="st5" d="M285.8,51.6c0.3,0.3,0.5,0.5,0.7,0.8c-0.1,0.2-0.1,0.4-0.1,0.6l-0.2,1.2c-0.1,0.4-0.1,0.8-0.1,1.2l0,0.6
					c-0.3,0.2-0.5,0.4-0.9,0.6c-0.3-0.2-0.6-0.4-0.8-0.7l0-0.6c0-0.4,0-0.9,0.1-1.3l0.2-1.3c0-0.2,0.1-0.4,0.1-0.6
					C285.1,51.9,285.4,51.7,285.8,51.6z"/>
			</g>
			<g>
				<path class="st5" d="M288.4,60.8c-0.2,0.2-0.4,0.4-0.3,0.6c0,0,0.1,0,0.2,0c0.1,0,0.2-0.1,0.2-0.2c0-0.1,0-0.2,0-0.3
					c0-0.1-0.1-0.2-0.1-0.2c-0.1-0.1,0,0,0.2,0.1c0.1,0.1,0.2,0.1,0.4,0.3c0.2,0.1,0.4,0.5,0.4,0.8l0,0.1l0,0.1
					c-0.2,0.9-0.8,1.5-1.7,1.8l0.6-1.1c0.1,0.5,0,1-0.3,1.4l-0.9,1l-0.6-1.2l-0.2-0.3c-0.1-0.1-0.1-0.2-0.2-0.3
					c0.1-0.3,0.3-0.7,0.5-1.1c0.4,0.1,0.8,0.2,1.1,0.3c0,0.1,0.1,0.2,0.1,0.3l0.2,0.3l-1.4-0.2c-0.1,0.1-0.1,0.1-0.1,0.3l0.6-1.1
					c0.2,0,0.4-0.3,0.4-0.5l0,0.2c0,0.2,0.1,0.3,0.1,0.4c0,0,0,0,0,0c-0.1-0.1-0.3-0.1-0.6-0.4c-0.1-0.1-0.2-0.3-0.3-0.4
					c-0.1-0.2-0.1-0.4,0-0.6c0-0.2,0.2-0.4,0.3-0.5c0.2-0.1,0.3-0.1,0.5-0.1C288.2,60.2,288.3,60.5,288.4,60.8z"/>
			</g>
			<g>
				<path class="st5" d="M279.6,39.7c-0.2,0.3-0.3,0.5-0.5,0.7c0,0-0.1,0.1-0.1,0.1c0,0-0.1,0-0.1,0l-0.2,0l-0.4-1.6
					c-0.1,0-0.2,0.2-0.2,0.3c0,0,0,0,0,0c0-0.1-0.1-0.3-0.2-0.5l-0.4-0.7l-0.1-0.2c-0.1,0,0-0.2,0.1-0.3c0.1-0.2,0.3-0.4,0.4-0.7
					c0.3,0,0.6,0,0.8,0.1c0.1,0,0.3,0,0.2,0.1l0.1,0.2l0.4,0.7c0.1,0.2,0.3,0.5,0.4,1c0,0.2,0.1,0.4,0,0.8c0,0.3-0.3,0.7-0.6,0.9
					l-0.4-1.6l0.2,0c0,0,0.1,0,0.1,0c0,0,0.1,0.1,0.1,0.1C279.3,39.1,279.5,39.3,279.6,39.7z"/>
			</g>
			<g>
				<path class="st5" d="M278.2,45.8c0.2-0.3,0.6-0.4,1-0.4c0.3,0.1,0.4,0.4,0.5,0.7c0.1,0.3,0.1,0.5,0.1,0.8c0,0.3-0.1,0.6-0.4,0.9
					l-0.2-1.3c0.6,0.3,0.9,0.9,1,1.4c0.1,0.3,0,0.6,0,0.9c-0.3,0.3-0.7,0.4-1.1,0.3c-0.2-0.4-0.5-0.6-0.6-0.6c0,0,0-0.1,0-0.2
					c0-0.1-0.1-0.2-0.1-0.2l-0.2-1.3c0,0.1,0,0.1,0,0c0,0-0.1,0,0-0.1C278.2,46.5,278.3,46.2,278.2,45.8z"/>
			</g>
			<g>
				<path class="st5" d="M280.4,55.8c0.1,0.2,0.2,0.4,0.3,0.6l0.1,0.3c0,0,0,0,0,0.1c0,0,0,0,0,0.1l-1.7,2l0.2-2.6l0.1-1.4l0-0.7
					l0-0.2c0,0,0-0.1,0-0.1c0,0,0.1-0.1,0.2-0.1c0.2-0.1,0.5-0.2,0.8-0.3c0.3,0.1,0.5,0.3,0.7,0.4c0,0,0.1,0.1,0.1,0.1
					c0,0,0,0.1,0,0.1l0,0.2l0,0.7l-0.1,1.4l-1.5-0.6c0,0,0,0,0-0.1c0,0,0-0.1,0-0.1l0.3,0.1C279.9,55.7,280.1,55.7,280.4,55.8z"/>
			</g>
			<g>
				<path class="st5" d="M279.4,59.5l0,0.9c0,0,0,0,0,0h0h0h0l0-0.9l0-0.9h0h0h0c0,0,0,0,0,0L279.4,59.5z"/>
			</g>
			<g>
				<path class="st5" d="M283.6,29c-0.2-0.1-0.4-0.1-0.6-0.2l-0.3-0.1c-0.1,0-0.2,0-0.2-0.1c-0.1-0.2-0.2-0.3-0.3-0.5
					c-0.2-0.3-0.5-0.6-0.8-0.8l-1.7-1.2l1.7-0.3c0,0,0,0,0,0l0.3,0.9l-0.6-0.5c-0.2,0-0.1-0.3-0.1-0.5c0-0.2,0-0.4,0.1-0.7
					c0.2-0.1,0.4-0.1,0.6-0.2c0.2,0,0.5-0.2,0.5,0l0.6,0.5l0.4,0.4l-0.2,0.5c-0.1,0.4-0.4,0.8-0.8,1l0.1-1.5
					c0.5,0.3,0.9,0.7,1.2,1.2c0.2,0.2,0.3,0.5,0.4,0.7c0.1,0,0,0.2,0,0.2l-0.1,0.3C283.9,28.6,283.8,28.8,283.6,29z"/>
			</g>
			<g>
				<path class="st5" d="M290.3,34.2c0.2,0.1,0.3,0.3,0.3,0.5c0,0.2-0.1,0.4-0.1,0.6c-0.2,0.1-0.4,0.2-0.4,0.2
					c-0.1,0-0.2,0.2-0.3,0.5c-0.1,0.2-0.3,0.7-0.6,1c-0.2,0.2-0.3,0.4-0.6,0.5c-0.4-0.1-0.8-0.3-0.9-0.7c0.2-0.3,0.2-0.6,0.1-0.9
					c0,0,0.1-0.1,0.1-0.1c0.1-0.1,0.2-0.3,0.4-0.7c0.2-0.3,0.4-0.7,0.8-1.1c0.3-0.2,0.4-0.2,0.5-0.3l0.3,0.3
					C290,34.2,290.1,34.3,290.3,34.2z"/>
			</g>
			<g>
				<path class="st5" d="M269.1,22c-0.3,0.2-0.7,0.2-1,0.1c-0.2,0-0.4-0.1-0.3-0.2c-0.1-0.1-0.1-0.2-0.1-0.3c-0.1-0.4-0.2-0.7-0.3-1
					l-0.6-2l-0.6-2l1.8,1c0.2,0.1,0.3,0.2,0.4,0.3c0.1,0.1,0.3,0.2,0.2,0.5c0,0.4-0.2,0.7-0.5,0.9c-0.3-0.2-0.6-0.2-0.8-0.2
					c-0.2,0.1-0.1,0-0.1,0c0,0,0,0,0,0l1.2-1l0.6,2c0.1,0.3,0.2,0.7,0.3,0.9c0,0.1,0,0.1,0.1,0.2c0.1,0,0,0.1-0.1,0.2
					C269.1,21.4,269,21.6,269.1,22z"/>
			</g>
		</g>
	</g>
	<g>
		<g id="XMLID_00000158748001009372859340000008243092668411847562_">
			<g id="XMLID_00000044142576433390311450000008443131654108074112_">
				<path id="XMLID_00000114034216014498136870000006160802400511194008_" class="st1" d="M274.4,147.8c21.6,0.3,39.2-3,39.3-7.3
					c0-1.5-2.7-2.9-6.4-4.1c7.5,1.5,12.3,3.5,12.3,5.8c-0.1,4.3-17.7,7.5-39.3,7.3c-13.9-0.2-25.6-1.8-32.4-4.1
					C254.8,146.7,264,147.7,274.4,147.8z"/>
				<path id="XMLID_00000165226799532128389560000016442425408064320414_" class="st1" d="M315.3,147.8c11.2-1.1,19.2-3.4,19.6-6.5
					c0.5-5.1-17.8-10.1-41.1-11.2c-5.5-0.3-10.8-0.3-15.7-0.1c6.9-0.7,14.7-1,23.5-0.6c23.2,1.1,41.6,6.1,41.1,11.2
					C342.2,144.4,330.9,147.1,315.3,147.8z"/>
				<path id="XMLID_00000142173328861456022290000006951928093875470007_" class="st1" d="M288.2,126c-21.6-0.3-39.2,3-39.3,7.3
					c0,1.5,2.7,2.9,6.4,4.1c-7.5-1.5-12.3-3.5-12.3-5.8c0.1-4.3,17.7-7.5,39.3-7.3c13.9,0.2,25.6,1.8,32.4,4.1
					C307.8,127.1,298.5,126.2,288.2,126z"/>
			</g>
			<g id="XMLID_00000053515032335800555510000001050466820130381446_">
				<g id="XMLID_00000090972959057413421990000000096177840961927075_">
					<linearGradient id="XMLID_11_" gradientUnits="userSpaceOnUse" x1="279.6711" y1="109.3395" x2="339.9892" y2="109.3395">
						<stop  offset="2.775224e-02" style="stop-color:#F4C973"/>
						<stop  offset="1" style="stop-color:#EAA62D"/>
					</linearGradient>
					<path id="XMLID_00000117634428925856457590000013814566664124600213_" class="st15" d="M279.7,120.8c0.1,6.2,0.8,12.2,1.6,17.1
						c0.2,1.3,0.5,2.6,0.8,3.7c-0.1,0.2,0,0.4,0,0.5h2.4v-1c0-2.1,0-4.3-0.1-6.7c0,0,0,0,0-0.1c0-0.4,0-0.8-0.1-1.2
						c0-2.2-0.1-4.3-0.3-6.4v-0.8c-0.1-1.4-0.2-3.1-0.1-5c0-0.9,0.1-1.8,0.2-2.7c0.1-2.9,0.5-6,1.2-9.3c0.9-4.5,2.3-9.1,4.5-13.4
						c1.3-2.4,2.8-4.7,4.7-6.7c2.7-3.1,5.9-5.7,10.1-7.3c0.9-0.3,1.9-0.7,2.9-0.9c0.6-0.2,1.2-0.3,1.6-0.3c20.6-4.5,30.8,12,30.8,12
						c-0.8-6-14.4-18.3-30.8-15.7c-1,0.2-2.2,0.5-3.4,0.8c-4.4,1.2-9,3.7-13.5,7.6c-1.9,1.6-3.4,3.3-4.7,5.3
						c-2.7,3.6-4.5,7.8-5.7,12.1c-0.6,2-1,4-1.3,6.1c-0.2,0.5-0.2,1.1-0.3,1.6v0.1C279.8,113.9,279.6,117.4,279.7,120.8z"/>
				</g>
				<g id="XMLID_00000146460660747046006860000003010055723128351416_">
					<linearGradient id="XMLID_12_" gradientUnits="userSpaceOnUse" x1="236.7538" y1="116.0502" x2="288.0804" y2="116.0502">
						<stop  offset="2.775224e-02" style="stop-color:#F4C973"/>
						<stop  offset="1" style="stop-color:#EAA62D"/>
					</linearGradient>
					<path id="XMLID_00000166674242884611834000000006983690888944903324_" class="st16" d="M236.8,103.6c0,0,0.3-0.6,1.2-1.6
						c0.6-0.6,1.2-1.3,2-2.1c4.1-4,12.3-9.5,24.6-6.3c1.9,0.5,3.5,1.2,5,2.1c0.3,0.2,0.7,0.3,1,0.6c2.7,1.6,4.9,3.7,6.5,6.2
						c0.7,0.8,1.2,1.6,1.7,2.5c0,0.1,0,0.1,0,0.2c0.7,1.2,1.3,2.3,1.9,3.6c0.8,2,1.5,4.1,2.1,6.2c0.6,2.1,0.9,4.2,1.2,6.2
						c0.3,1.6,0.5,3.2,0.5,4.6c0.2,2.6,0.2,4.8,0.1,6.5c0,0.4-0.1,0.7-0.1,1.1c0,0.6-0.1,1.3-0.1,2c-0.1,1.2-0.1,2.5-0.2,3.7
						c0,0.1,0,0.2,0,0.2v3.1h0.9c0.6,0,1.2,0,1.7-0.1c0.7-4.3,1.4-9.3,1.4-14.6c0-3-0.1-6-0.5-9c-0.5-3.3-1.2-6.5-2.3-9.5
						c-0.8-2.3-2-4.5-3.4-6.5c-1.2-1.9-2.7-3.7-4.5-5.3c-0.1-0.1-0.2-0.2-0.5-0.3c-0.2-0.3-0.5-0.5-0.8-0.8
						c-2.1-1.7-4.2-2.9-6.3-3.9c-0.7-0.4-1.4-0.7-2.2-0.9c-12.9-4.7-24.8,2.6-29.1,8.5c-0.6,0.8-1,1.5-1.3,2.1
						C237,102.5,236.9,103.1,236.8,103.6z"/>
					<linearGradient id="XMLID_13_" gradientUnits="userSpaceOnUse" x1="288.5172" y1="100.8016" x2="309.2333" y2="100.8016">
						<stop  offset="2.775224e-02" style="stop-color:#F4C973"/>
						<stop  offset="1" style="stop-color:#EAA62D"/>
					</linearGradient>
					<path id="XMLID_00000031908615817036607700000009561727055239172761_" class="st17" d="M288.8,116.3L288.8,116.3
						c-0.3,3.1-0.3,6.1,0,9.1v0.1c0.3,6,1.7,11.7,3.1,16.3v0.2c0.7-0.1,1.3-0.1,1.9-0.2c-0.7-3.7-1-7.4-1.2-11.1
						c-0.6-12.2,2.2-24.5,11.3-37.8c3.3-4.7,4.8-8.8,5.2-12.6c0.1-1.2,0.1-2.5,0-3.6c-0.6-10.4-9.4-16.4-10.6-17.2
						c2.3,2.5,8.7,7.9,7.2,18c-0.2,1.2-0.6,2.6-1.2,4.1c-1.3,4-3.7,8.7-8,14c-2.2,2.8-4,5.8-5.2,8.9c0,0.1,0,0.1,0,0.1
						C289.9,108.4,289.1,112.4,288.8,116.3z"/>
				</g>
			</g>
		</g>
		<g>
			<g>
				<path class="st5" d="M276.8,99c0.4-0.4,1-0.6,1.7-0.6c0.1,0,0.3,0,0.5,0.1c0.1,0.1,0.2,0.2,0.3,0.3c0.2,0.2,0.4,0.4,0.6,0.6
					c0.7,0.9,1,2,0.8,3.2L280,105l-1.6-1.9l-2.1-2.5l-1-1.2c0-0.1-0.1-0.1-0.1-0.2l0-0.3l0-0.5c0-0.4,0-0.7,0-1.1
					c0.4,0,0.7,0.1,1.1,0.1l0.5,0.1l0.3,0.1c0.1,0,0.1,0.1,0.1,0.2l1,1.2l2.1,2.5l-2.1,0.5c0.1-0.4,0-0.9-0.3-1.2
					c-0.1-0.1-0.2-0.2-0.2-0.3c0,0-0.1-0.1-0.2-0.1c-0.1,0,0-0.2,0-0.3C277.3,99.9,277.2,99.4,276.8,99z"/>
			</g>
			<g>
				<path class="st5" d="M287.3,117.1c0.3,0.1,0.6,0.3,0.9,0.4c0.1,0.1,0.3,0.1,0.4,0.2c0,0.1,0,0.1,0,0.2l0,0.9l0,1.8l-2.4-0.4
					c0,0,0-0.1,0-0.2c0,0-0.1,0,0-0.1c0.1-0.1,0.2-0.1,0.3-0.2c0.2-0.2,0.4-0.4,0.5-0.7c0.3-0.1,0.6-0.1,0.9,0
					c0.1,0,0.3,0.1,0.4,0.2c0.2,0.1,0.1,0.2,0.1,0.3c0.1,0.5,0.1,1-0.1,1.4l-2.4,7.1l0-7.5l0-1.8l0-0.9c0-0.1,0-0.1,0-0.2
					c0.1-0.1,0.2-0.1,0.4-0.2C286.7,117.4,287,117.3,287.3,117.1z"/>
			</g>
			<g>
				<path class="st5" d="M281.1,125.5c0.5,0.1,0.9,0.3,1.2,0.5c0.2,0.1,0.4,0.2,0.4,0.3l0.2,0.4l0.6,1.7l-2.3,0.6
					c-0.1-0.9-0.5-1.8-1.2-2.4l2-0.9l0,0.5c0,0.1,0,0.2,0,0.2c0,0.1-0.1,0.2-0.2,0.2c-0.3,0.3-0.6,0.7-1.1,1c-0.4-0.3-0.8-0.7-1.1-1
					c-0.1-0.1-0.2-0.2-0.2-0.2c0-0.1,0-0.2,0-0.2l0-0.5l0-2.7l2,1.8c1.1,1,1.9,2.4,2,4l0.9,8.9l-3.2-8.3l-0.6-1.7l-0.2-0.4
					c-0.2-0.1,0-0.3,0.1-0.5C280.6,126.3,280.8,125.9,281.1,125.5z"/>
			</g>
			<g>
				<path class="st5" d="M286,130.2c0.5,0.1,0.9,0.3,1.3,0.5c0,0.3,0,0.5,0,0.7c0,0.5-0.1,1-0.2,1.5c-0.1,0.5-0.3,0.9-0.6,1.3
					c-0.1,0.2-0.3,0.4-0.4,0.6c-0.4,0-0.9-0.1-1.4-0.3c-0.2-0.5-0.4-0.8-0.6-1.2c0.1-0.1,0.2-0.2,0.2-0.4c0.1-0.2,0.3-0.5,0.4-0.8
					c0.1-0.3,0.1-0.6,0.1-0.9c0-0.1,0-0.3,0-0.4C285.2,130.7,285.5,130.5,286,130.2z"/>
			</g>
			<g>
				<path class="st5" d="M292.1,105.8c0.3-0.2,0.6-0.3,0.9-0.4l0.4-0.2c0.1,0,0.1-0.1,0.2-0.1c0.1,0,0.1,0.1,0.1,0.1l1.1,0.5
					l1.1,0.5l-0.4,1.1c-0.6,1.5-1.9,2.6-3.4,3l-1.5,0.4l0-1.5l0-1.2c0-0.1-0.1-0.1,0-0.2l0.2-0.2l0.3-0.3c0.2-0.2,0.5-0.4,0.7-0.6
					c0.3,0.2,0.5,0.4,0.8,0.6l0.3,0.3l0.2,0.1c0.1,0,0,0.1,0,0.2l0,1.2l-1.5-1.2c0.8-0.2,1.5-0.8,1.8-1.5l0.6,1.6l-1.1-0.5
					c0,0-0.1,0-0.1,0c0-0.1,0-0.1-0.1-0.2l-0.1-0.4C292.2,106.5,292.2,106.2,292.1,105.8z"/>
			</g>
			<g>
				<path class="st5" d="M290,122.8c0.5,0.2,0.8,0.4,1.2,0.6c0,0.2,0,0.3-0.1,0.5l-0.1,1l-0.1,1l-0.1,0.5c-0.4,0.1-0.8,0.2-1.3,0.4
					c-0.5-0.2-0.8-0.4-1.2-0.6l0.1-0.5l0.1-1l0.1-1c0-0.2,0-0.3,0-0.5C289.1,123.1,289.5,122.9,290,122.8z"/>
			</g>
			<g>
				<path class="st5" d="M298.2,84.9c-0.1-0.5-0.1-0.9-0.1-1.3c0.2-0.1,0.3-0.2,0.5-0.3l1-0.5l1-0.5l0.5-0.3
					c0.3,0.2,0.7,0.5,1.1,0.8c0.1,0.5,0.1,0.9,0.1,1.3l-0.5,0.3l-1,0.5l-1,0.5c-0.2,0.1-0.3,0.2-0.5,0.3
					C298.9,85.5,298.6,85.2,298.2,84.9z"/>
			</g>
			<g>
				<path class="st5" d="M313,78.8c0.2-0.4,0.3-0.7,0.5-0.9l0.1-0.2c0-0.1,0.1-0.1,0.1-0.1c0.1,0,0.2,0,0.2,0h0.9V80h-1.6h-0.8
					c-0.1,0-0.1,0.1-0.2-0.1l-0.2-0.4c-0.1-0.2-0.3-0.5-0.4-0.8c0.1-0.3,0.3-0.6,0.4-0.8l0.2-0.4c0.1-0.2,0.1,0,0.2-0.1h0.8h1.6V80
					h-0.9c-0.1,0-0.2,0-0.2,0c0,0.1-0.1,0-0.1-0.1l-0.1-0.2C313.3,79.4,313.2,79.1,313,78.8z"/>
			</g>
			<g>
				<path class="st5" d="M306.9,87.6c0.4-0.3,1,0.2,1.1,0.7c0,0.1,0.1,0.3,0,0.4c0,0.2-0.2,0.2-0.3,0.3c-0.2,0.2-0.6,0.4-1,0.4
					c-0.4,0-0.8-0.2-1-0.4c-0.2-0.2-0.4-0.5-0.5-0.7c-0.1-0.3-0.1-0.5-0.1-0.9c0.1-0.3,0.3-0.7,0.6-0.9l6.7-4.8l-5.1,6.5l-0.8,1.1
					l-0.4,0.5c0,0,0,0.1,0,0.1c0,0-0.1,0-0.2,0l-0.4-0.1c-0.3-0.1-0.5-0.1-0.8-0.2c-0.2-0.3-0.3-0.5-0.4-0.7l-0.2-0.3
					c0-0.1-0.1-0.1-0.1-0.2c0,0,0.1,0,0.1,0l0.4-0.5l0.8-1.1l1.7,1.7c0.2-0.1,0.3-0.4,0.4-0.6c0-0.2,0-0.3,0-0.4
					c0-0.1-0.1-0.2-0.2-0.3c-0.1-0.1-0.4-0.2-0.6-0.2c-0.2,0-0.5,0.1-0.6,0.2c0,0.1-0.2,0.1-0.2,0.2c0,0.1,0.1,0.2,0.1,0.2
					C306.2,87.9,306.8,88,306.9,87.6z"/>
			</g>
		</g>
	</g>
	<g>
		<g id="XMLID_00000089551436299037283750000011976963192810881458_">
			<g id="XMLID_00000046335345104760167910000018272475625393478300_">
				<path id="XMLID_00000021840360522188326170000007173256874397598898_" class="st1" d="M279.9,261.8c28.3,0.3,51.4-3.9,51.6-9.5
					c0.1-2-3.5-3.8-8.4-5.4c9.9,2,16.2,4.6,16.1,7.6c-0.2,5.6-23.2,9.9-51.6,9.5c-18.3-0.2-33.6-2.4-42.6-5.4
					C254.1,260.4,266.3,261.6,279.9,261.8z"/>
				<path id="XMLID_00000141428302052608354970000003777489185888715670_" class="st1" d="M333.5,261.7c14.8-1.5,25.3-4.4,25.7-8.6
					c0.7-6.6-23.4-13.2-53.9-14.7c-7.3-0.3-14.2-0.3-20.6-0.1c9-0.9,19.2-1.4,30.8-0.8c30.5,1.5,54.6,8,53.9,14.7
					C368.9,257.3,354,260.9,333.5,261.7z"/>
				<path id="XMLID_00000150098458676076149210000007114839387139306686_" class="st1" d="M298,233.2c-28.3-0.3-51.4,3.9-51.6,9.5
					c-0.1,2,3.5,3.8,8.4,5.4c-9.9-2-16.2-4.6-16.1-7.6c0.2-5.6,23.2-9.9,51.6-9.5c18.3,0.2,33.6,2.4,42.6,5.4
					C323.7,234.6,311.5,233.4,298,233.2z"/>
			</g>
			<g id="XMLID_00000049184645849167608550000015712713009484957071_">
				
					<linearGradient id="XMLID_14_" gradientUnits="userSpaceOnUse" x1="-916.2038" y1="211.2935" x2="-837.0146" y2="211.2935" gradientTransform="matrix(1 0 0 1 1181.677 0)">
					<stop  offset="2.775224e-02" style="stop-color:#F4C973"/>
					<stop  offset="1" style="stop-color:#EAA62D"/>
				</linearGradient>
				<path id="XMLID_00000040538523612739838980000013745554400419798667_" class="st18" d="M265.5,226.4c0.2,8.1,1.1,16,2.1,22.5
					c0.3,1.7,0.6,3.4,1.1,4.9c-0.2,0.2,0,0.5,0,0.7h3.2v-1.3c0-2.7,0-5.7-0.2-8.8c0,0,0,0,0-0.1c0-0.5,0-1-0.2-1.6
					c0-2.8-0.2-5.7-0.5-8.3v-1c-0.2-1.8-0.3-4.1-0.2-6.6c0-1.1,0.2-2.3,0.3-3.6c0.2-3.8,0.6-7.9,1.5-12.2c1.2-5.9,3.1-12,6-17.6
					c1.7-3.2,3.7-6.1,6.1-8.8c3.5-4.1,7.8-7.4,13.3-9.6c1.2-0.4,2.4-0.9,3.8-1.2c0.8-0.2,1.5-0.4,2.1-0.4
					c27-5.9,40.5,15.8,40.5,15.8c-1.1-7.9-18.9-24-40.5-20.6c-1.4,0.2-2.9,0.6-4.4,1c-5.8,1.6-11.8,4.9-17.7,10
					c-2.4,2.1-4.4,4.4-6.1,6.9c-3.5,4.8-6,10.2-7.5,15.9c-0.8,2.6-1.4,5.3-1.7,8c-0.3,0.7-0.3,1.4-0.5,2.1v0.1
					C265.7,217.2,265.4,221.9,265.5,226.4z"/>
			</g>
			<g id="XMLID_00000091725172351261245710000004820265555884939933_">
				
					<linearGradient id="XMLID_15_" gradientUnits="userSpaceOnUse" x1="-943.4921" y1="220.1036" x2="-876.1075" y2="220.1036" gradientTransform="matrix(1 0 0 1 1181.677 0)">
					<stop  offset="2.775224e-02" style="stop-color:#F4C973"/>
					<stop  offset="1" style="stop-color:#EAA62D"/>
				</linearGradient>
				<path id="XMLID_00000036972442452191824140000005138603994119862151_" class="st19" d="M238.2,203.7c0,0,0.5-0.8,1.5-2.1
					c0.8-0.8,1.5-1.7,2.6-2.7c5.3-5.3,16.2-12.5,32.2-8.2c2.4,0.6,4.6,1.5,6.6,2.7c0.5,0.2,0.9,0.4,1.4,0.8c3.5,2,6.4,4.9,8.6,8.1
					c0.9,1,1.5,2.1,2.3,3.3c0,0.1,0,0.1,0,0.2c0.9,1.5,1.7,3.1,2.4,4.7c1.1,2.6,2,5.4,2.8,8.1c0.8,2.7,1.2,5.5,1.5,8.1
					c0.5,2.1,0.6,4.2,0.6,6c0.3,3.4,0.3,6.3,0.2,8.5c0,0.5-0.2,0.9-0.2,1.4c0,0.8-0.2,1.7-0.2,2.6c-0.2,1.6-0.2,3.3-0.3,4.9
					c0,0.1,0,0.2,0,0.2v4.1h1.2c0.8,0,1.5,0,2.3-0.1c0.9-5.6,1.8-12.2,1.8-19.1c0-4-0.2-7.9-0.6-11.8c-0.6-4.3-1.5-8.5-3.1-12.5
					c-1.1-3.1-2.6-5.9-4.4-8.5c-1.5-2.5-3.5-4.9-6-6.9c-0.2-0.1-0.3-0.3-0.6-0.4c-0.3-0.4-0.6-0.7-1.1-1c-2.8-2.2-5.5-3.9-8.3-5.1
					c-0.9-0.5-1.8-0.9-2.9-1.2c-17-6.2-32.5,3.4-38.2,11.2c-0.8,1-1.4,1.9-1.7,2.7C238.5,202.4,238.3,203.1,238.2,203.7z"/>
				
					<linearGradient id="XMLID_16_" gradientUnits="userSpaceOnUse" x1="-875.534" y1="200.0843" x2="-848.3367" y2="200.0843" gradientTransform="matrix(1 0 0 1 1181.677 0)">
					<stop  offset="2.775224e-02" style="stop-color:#F4C973"/>
					<stop  offset="1" style="stop-color:#EAA62D"/>
				</linearGradient>
				<path id="XMLID_00000143606379800758813270000006310845524631135141_" class="st20" d="M306.5,220.4v0.1c-0.5,4-0.5,7.9,0,11.9
					v0.1c0.5,7.9,2.3,15.4,4.1,21.4v0.3c0.9-0.1,1.7-0.1,2.4-0.2c-0.9-4.9-1.4-9.7-1.5-14.6c-0.8-16.1,2.9-32.2,14.8-49.6
					c4.3-6.1,6.3-11.6,6.9-16.5c0.2-1.6,0.2-3.3,0-4.8c-0.8-13.6-12.4-21.6-13.9-22.6c3.1,3.3,11.5,10.4,9.5,23.6
					c-0.3,1.6-0.8,3.5-1.5,5.4c-1.7,5.3-4.9,11.4-10.5,18.3c-2.9,3.7-5.2,7.6-6.9,11.7c0,0.1,0,0.1,0,0.1
					C308,210.1,306.9,215.3,306.5,220.4z"/>
			</g>
		</g>
		<g>
			<linearGradient id="SVGID_4_" gradientUnits="userSpaceOnUse" x1="288.7156" y1="229.1616" x2="397.4944" y2="229.1616">
				<stop  offset="2.775224e-02" style="stop-color:#F4C973"/>
				<stop  offset="1" style="stop-color:#EAA62D"/>
			</linearGradient>
			<path class="st21" d="M292.1,249.6c2.5-4.2,5.6-8.1,8.8-11.7c3.3-3.7,6.8-7.1,10.6-10.3c7.6-6.3,16.2-11.7,25.8-15.1
				c2.4-0.8,4.9-1.5,7.4-2.1c0.6-0.1,1.3-0.3,1.9-0.4l1.9-0.3c1.3-0.2,2.5-0.3,3.7-0.4c4.9-0.5,9.9-0.6,14.9-0.3
				c5,0.3,9.9,1,14.7,2.3c2.4,0.7,4.8,1.4,7.1,2.4c2.3,1,4.5,2.1,6.5,3.6c-4.7-1.2-9.5-1.5-14.2-1.7c-4.7-0.2-9.4,0-14,0.4
				c-4.6,0.4-9.3,0.9-13.9,1.7c-2.4,0.4-4.5,0.7-6.7,1.3c-2.2,0.5-4.3,1.2-6.4,1.9c-8.5,3-16.7,7.4-24.6,12.4
				C307.6,238.2,299.9,243.7,292.1,249.6z"/>
		</g>
		<g>
			<linearGradient id="SVGID_5_" gradientUnits="userSpaceOnUse" x1="234.1632" y1="234.8681" x2="316.3506" y2="234.8681">
				<stop  offset="2.775224e-02" style="stop-color:#F4C973"/>
				<stop  offset="1" style="stop-color:#EAA62D"/>
			</linearGradient>
			<path class="st22" d="M313.1,254c-3.2-2-6.4-3.9-9.5-5.8c-3.2-1.8-6.3-3.7-9.4-5.4c-6.3-3.5-12.6-6.9-19.1-9.9
				c-6.5-3-13-6-19.7-8.6c-3.3-1.5-6.7-2.6-10.2-4c-1.7-0.7-3.4-1.3-5.2-1.9c-1.7-0.6-3.5-1.4-5.2-2.1c1.9-0.2,3.8-0.3,5.7-0.3
				c1.9,0,3.8-0.1,5.7,0.1c3.8,0.3,7.6,0.7,11.2,1.6c7.5,1.5,14.7,4.1,21.5,7.3c6.9,3.2,13.3,7.4,19.2,12.2
				C303.9,241.8,309.2,247.3,313.1,254z"/>
		</g>
		<path class="st11" d="M269.8,226.2c0-0.4-1.3-0.8-1.3-0.9c0-0.1-0.1-3.4-0.2-4.2c0-0.2-1.5-0.7-2.2-0.9c0.1-0.3,0.2-0.6,0.3-0.8
			c0.9,0.1,2.9,0.2,3.1,0.2c0.2,0,0.5,1.3,0.5,1.4c0,0,0.3-0.1,0.5,0.1c0.1,0.1-0.1-0.2-0.4-0.3c-0.1,0-0.1-0.1-0.2-0.8
			c-0.1-0.6-0.3-0.7-0.3-0.7s-2.2-0.1-3.1-0.2c0.1-0.3,0.2-0.5,0.2-0.5c0.2-0.3,0.4-0.1,0.6-0.5s0.2-0.7,0.4-0.7
			c0.1,0,0.2-0.2,0.2-0.4c0.2,0,0.4,0,0.5,0c0.1,0,2.3-1.8,2.8-1.7c0.5,0.1,0.2-0.2-0.1-0.2c-0.3,0-2.6,1.6-2.7,1.7
			c-0.1,0.1-0.3,0-0.5,0.1c0-0.2-0.1-0.3-0.3-0.3c-0.3,0-0.6-0.2-0.9-0.3c0.2-0.7,0.5-2.7,0.9-2.9c0.4-0.2,0-0.3-0.2-0.1
			c-0.2,0.2-0.8,2.4-0.9,3c0,0,0,0,0,0c-0.2,0-1.8,0-2.2,0.6c0,0-0.7,0.4-0.8,0.4c-0.1-0.1-0.5-0.6-0.7-0.5
			c-0.3,0.1-0.2,0.7-0.4,1.1c-0.1,0-0.2,0.1-0.2,0.1c-0.1,0-1-0.9-1.3-0.8c-0.6,0.1-1.1,1.6-1.4,2.2c-0.4-0.1-0.7-0.1-0.7-0.1
			s0,0-0.1,0.3c-0.3-0.1-0.6-0.1-0.8,0c-0.4,0.2-0.4,0.5-0.4,0.4c0.1-0.3,0.3-0.3,0.5-0.3c0.1,0,0.3,0,0.6,0.1
			c-0.1,0.3-0.4,1-0.7,2.1c-0.7,2.3-0.7,1.9-0.8,2c-0.1,0.1-0.6,0.3-0.4,0.3s0.8-0.1,0.8-0.2c0.1-0.1,1-3.3,1.4-4.1
			c0.2,0.1,0.4,0.1,0.5,0.1c0,0,0.1,0,0.1-0.1c0.2,0.1,0.5,0.2,0.7,0.2c-0.3,0.3-0.5,0.7-0.6,1c-0.4,1.4-0.5,3.5,0.1,4.4
			c0.6,0.9,0.9,0.9,1.3,0.5c0.3-0.3,2.8-2.1,3.9-3.2c0.4,0.3,0.9,0.7,0.9,0.8c0.1,0.1-2.6,3.4-2.7,3.6c-0.1,0.2,0.2,0.7,0.3,0.8
			c0.1,0.1,0-0.3,0-0.5c0-0.2-0.3-0.1,1.3-1.9c1.4-1.6,1.5-2,1.5-2s-0.6-0.6-1-1.1c0.1-0.1,0.2-0.2,0.2-0.2c0.2-0.3,0.3-0.7,0.5-1.2
			c0.6,0.2,1.8,0.6,1.9,0.8c0.2,0.3,0.2,3.9,0.2,4c0.1,0.1,1.3,0.7,1.4,0.8c0,0.1,0.2,0.4,0.2,0.4S269.9,226.5,269.8,226.2z
			 M259.1,219.1L259.1,219.1L259.1,219.1L259.1,219.1z M260.7,219.1c-0.3,0-0.6-0.1-0.9-0.1c0.4-0.6,0.9-1.7,1-1.8
			c0.3-0.1,0.7,0.6,1,0.7C262,217.9,261.4,218.4,260.7,219.1z M262.6,217.4c0.1-0.3,0.3-0.7,0.3-0.6c0.1,0.1,0.4,0.3,0.4,0.3
			S262.9,217.3,262.6,217.4z"/>
		<path class="st11" d="M324.1,172.7c0-0.2-0.7-0.4-0.7-0.5c0,0,0-1.8-0.1-2.1c0-0.1-0.8-0.4-1.1-0.5c0.1-0.2,0.1-0.3,0.2-0.4
			c0.4,0,1.5,0.1,1.6,0.1c0.1,0,0.2,0.7,0.3,0.7s0.2,0,0.3,0.1c0,0-0.1-0.1-0.2-0.1c-0.1,0,0-0.1-0.1-0.4c-0.1-0.3-0.1-0.3-0.1-0.3
			s-1.1-0.1-1.6-0.1c0-0.1,0.1-0.2,0.1-0.3c0.1-0.1,0.2,0,0.3-0.3c0.1-0.2,0.1-0.3,0.2-0.4c0.1,0,0.1-0.1,0.1-0.2c0.1,0,0.2,0,0.3,0
			c0.1,0,1.2-0.9,1.4-0.9c0.3,0.1,0.1-0.1,0-0.1c-0.2,0-1.3,0.8-1.4,0.9c0,0-0.2,0-0.3,0c0-0.1-0.1-0.2-0.1-0.2
			c-0.1,0-0.3-0.1-0.4-0.2c0.1-0.3,0.3-1.4,0.5-1.5c0.2-0.1,0-0.2-0.1-0.1c-0.1,0.1-0.4,1.2-0.5,1.5c0,0,0,0,0,0
			c-0.1,0-0.9,0-1.1,0.3c0,0-0.3,0.2-0.4,0.2c0,0-0.3-0.3-0.4-0.3c-0.1,0.1-0.1,0.3-0.2,0.5c-0.1,0-0.1,0-0.1,0
			c-0.1,0-0.5-0.5-0.6-0.4c-0.3,0.1-0.6,0.8-0.7,1.1c-0.2,0-0.4-0.1-0.4-0.1s0,0-0.1,0.1c-0.2,0-0.3-0.1-0.4,0
			c-0.2,0.1-0.2,0.3-0.2,0.2c0.1-0.1,0.2-0.1,0.2-0.2c0,0,0.2,0,0.3,0.1c-0.1,0.2-0.2,0.5-0.4,1.1c-0.4,1.2-0.3,1-0.4,1
			s-0.3,0.1-0.2,0.1c0.1,0,0.4,0,0.4-0.1c0-0.1,0.5-1.7,0.7-2.1c0.1,0,0.2,0.1,0.2,0.1c0,0,0,0,0.1-0.1c0.1,0,0.2,0.1,0.3,0.1
			c-0.1,0.2-0.2,0.3-0.3,0.5c-0.2,0.7-0.3,1.8,0,2.2s0.4,0.5,0.7,0.2c0.2-0.2,1.4-1.1,2-1.6c0.2,0.2,0.4,0.4,0.5,0.4
			c0.1,0.1-1.3,1.7-1.4,1.8c0,0.1,0.1,0.4,0.1,0.4c0.1,0,0-0.2,0-0.2c0-0.1-0.1-0.1,0.7-1c0.7-0.8,0.7-1,0.7-1s-0.3-0.3-0.5-0.5
			c0,0,0.1-0.1,0.1-0.1c0.1-0.1,0.2-0.4,0.3-0.6c0.3,0.1,0.9,0.3,1,0.4c0.1,0.1,0.1,2,0.1,2.1c0,0.1,0.7,0.4,0.7,0.4
			c0,0.1,0.1,0.2,0.1,0.2S324.1,172.8,324.1,172.7z M318.6,169.1L318.6,169.1L318.6,169.1L318.6,169.1z M319.4,169
			c-0.1,0-0.3,0-0.4-0.1c0.2-0.3,0.4-0.9,0.5-0.9c0.1-0.1,0.4,0.3,0.5,0.4C320.1,168.5,319.8,168.7,319.4,169z M320.4,168.2
			c0.1-0.2,0.1-0.3,0.2-0.3c0.1,0,0.2,0.2,0.2,0.2S320.6,168.1,320.4,168.2z"/>
		<path class="st11" d="M282.5,197.1c0,0,0.1-0.2,0.2-0.3c0-0.1,0.9-0.5,1-0.6c0.1-0.1,0-2.7,0.2-2.9c0.1-0.1,0.9-0.4,1.4-0.6
			c0.1,0.3,0.3,0.7,0.4,0.9c0,0,0.1,0.1,0.1,0.2c-0.3,0.3-0.8,0.8-0.8,0.8s0,0.2,1.1,1.4c1.2,1.3,1,1.3,1,1.4c0,0.1-0.1,0.4,0,0.4
			s0.2-0.5,0.2-0.6c-0.1-0.1-2-2.5-1.9-2.6c0.1-0.1,0.4-0.3,0.7-0.6c0.8,0.8,2.6,2.1,2.8,2.3c0.3,0.3,0.5,0.3,0.9-0.3
			c0.4-0.7,0.3-2.2,0-3.2c-0.1-0.3-0.2-0.5-0.4-0.7c0.2,0,0.3-0.1,0.5-0.2c0,0.1,0.1,0.1,0.1,0.1c0,0,0.2,0,0.4-0.1
			c0.3,0.6,0.9,2.9,1,3c0.1,0.1,0.5,0.2,0.6,0.2c0.1,0-0.2-0.1-0.3-0.2c-0.1-0.1-0.1,0.2-0.6-1.5c-0.3-0.8-0.4-1.3-0.5-1.5
			c0.2-0.1,0.4-0.1,0.5-0.1c0.1,0,0.2,0,0.3,0.2c0.1,0.1,0-0.1-0.3-0.3c-0.1-0.1-0.4,0-0.6,0c-0.1-0.2-0.1-0.2-0.1-0.2
			s-0.2,0-0.5,0.1c-0.2-0.4-0.6-1.5-1-1.6c-0.2,0-0.8,0.6-0.9,0.6c0,0-0.1,0-0.2,0c-0.1-0.3-0.1-0.7-0.3-0.8
			c-0.1-0.1-0.4,0.3-0.5,0.4s-0.6-0.3-0.6-0.3c-0.3-0.4-1.5-0.4-1.6-0.4c0,0,0,0,0,0c-0.1-0.4-0.5-2-0.7-2.2
			c-0.2-0.2-0.5-0.1-0.1,0.1c0.3,0.2,0.5,1.6,0.7,2.1c-0.2,0.1-0.5,0.2-0.6,0.2c-0.1,0-0.2,0.1-0.2,0.2c-0.1,0-0.3,0-0.4,0
			c-0.1-0.1-1.7-1.2-2-1.2c-0.2,0-0.4,0.2-0.1,0.1c0.4-0.1,1.9,1.3,2,1.3c0.1,0,0.2,0,0.4,0c0,0.1,0,0.3,0.1,0.3
			c0.2,0,0.2,0.2,0.3,0.5c0.1,0.3,0.3,0.2,0.4,0.4c0,0.1,0.1,0.2,0.2,0.4c-0.7,0-2.3,0.1-2.3,0.1s-0.1,0.1-0.2,0.5
			c-0.1,0.5-0.1,0.6-0.2,0.6c-0.2,0.1-0.4,0.3-0.3,0.2c0.1-0.1,0.4-0.1,0.4-0.1c0,0,0.3-1,0.4-1c0.1,0,1.6-0.1,2.2-0.2
			c0.1,0.2,0.1,0.4,0.2,0.6c-0.5,0.1-1.6,0.5-1.6,0.7c-0.1,0.6-0.1,3-0.1,3.1c0,0.1-0.9,0.4-1,0.7
			C282.4,197.1,282.5,197.1,282.5,197.1z M290.2,191.7L290.2,191.7L290.2,191.7L290.2,191.7z M288.2,190.7c0.2-0.1,0.5-0.6,0.7-0.5
			c0.1,0.1,0.5,0.8,0.8,1.3c-0.2,0-0.4,0.1-0.6,0.1C288.6,191.1,288.1,190.8,288.2,190.7z M287.1,190.2c0,0,0.2-0.2,0.3-0.2
			c0,0,0.1,0.2,0.2,0.5C287.4,190.3,287.1,190.2,287.1,190.2z"/>
		<path class="st11" d="M304.9,237.5c0,0,0-0.3,0-0.4c0-0.1,0.7-1.2,0.8-1.3c0-0.1-1.6-3.2-1.5-3.5c0.1-0.2,0.8-1,1.3-1.5
			c0.4,0.3,0.7,0.6,0.9,0.8c0.1,0,0.2,0.1,0.3,0.1c-0.2,0.6-0.4,1.3-0.4,1.3s0.2,0.3,2.1,1c2.1,0.8,1.8,0.9,1.9,1
			c0.1,0.1,0.2,0.5,0.2,0.4c0.1-0.1,0-0.7-0.1-0.8c-0.1-0.1-3.8-1.7-3.8-1.9c0-0.1,0.3-0.6,0.5-1.1c1.4,0.4,4.2,0.9,4.6,1
			c0.5,0.2,0.8,0.1,0.9-0.9c0.1-1-0.9-2.8-1.8-3.7c-0.2-0.3-0.6-0.4-0.9-0.6c0.2-0.2,0.3-0.3,0.5-0.5c0.1,0,0.1,0.1,0.2,0.1
			c0,0,0.2-0.2,0.4-0.3c0.6,0.5,2.8,2.7,2.9,2.8c0.1,0.1,0.7-0.1,0.8-0.2c0.1-0.1-0.3,0-0.5-0.1c-0.2,0,0,0.3-1.5-1.3
			c-0.8-0.8-1.2-1.2-1.5-1.4c0.2-0.2,0.4-0.4,0.5-0.4c0.1,0,0.3-0.1,0.5,0.1c0.1,0.1-0.1-0.2-0.5-0.2c-0.2,0-0.4,0.2-0.7,0.4
			c-0.2-0.1-0.2-0.2-0.2-0.2s-0.2,0.2-0.5,0.4c-0.5-0.4-1.6-1.4-2.1-1.3c-0.3,0.1-0.6,1.2-0.7,1.2c0,0-0.1,0-0.2,0.1
			c-0.3-0.3-0.5-0.8-0.8-0.7c-0.2,0-0.3,0.7-0.4,0.7c-0.1,0.1-0.8,0-0.8,0c-0.6-0.3-2,0.4-2.1,0.4c0,0,0,0,0,0c-0.3-0.4-1.8-2-2-2.1
			c-0.3-0.1-0.6,0.2-0.1,0.2c0.4,0,1.6,1.6,2,2c-0.2,0.2-0.4,0.5-0.6,0.7c-0.1,0.1-0.1,0.2-0.1,0.4c-0.2,0.1-0.4,0.2-0.5,0.2
			c-0.2,0-2.7-0.4-3-0.3s-0.3,0.5,0,0.2c0.4-0.3,3,0.4,3.1,0.3c0.1-0.1,0.3-0.1,0.4-0.2c0.1,0.2,0.2,0.3,0.3,0.3
			c0.2-0.1,0.3,0.1,0.6,0.4c0.3,0.3,0.5,0,0.7,0.2c0.1,0,0.2,0.2,0.4,0.4c-0.7,0.4-2.5,1.5-2.5,1.5s-0.1,0.1,0.1,0.7
			c0.2,0.6,0.2,0.7,0.1,0.8c-0.2,0.2-0.3,0.5-0.2,0.4c0.1-0.2,0.4-0.3,0.4-0.3c0-0.1-0.3-1.3-0.2-1.4c0.1-0.1,1.8-1.1,2.5-1.5
			c0.2,0.2,0.4,0.4,0.6,0.6c-0.4,0.4-1.5,1.5-1.4,1.7c0.3,0.7,1.6,3.5,1.7,3.6c0,0.1-0.8,1-0.7,1.3
			C304.8,237.6,304.9,237.5,304.9,237.5z M310.6,226.8L310.6,226.8L310.6,226.8L310.6,226.8z M307.8,226.9c0.2-0.2,0.3-1,0.5-1
			c0.2,0,1.1,0.7,1.6,1c-0.2,0.2-0.5,0.3-0.7,0.5C308.5,227.1,307.7,227,307.8,226.9z M306.2,226.9c0,0,0.2-0.3,0.2-0.4
			c0-0.1,0.3,0.2,0.5,0.4C306.7,226.9,306.2,226.9,306.2,226.9z"/>
		<path class="st11" d="M357,215c0,0,0.2-0.3,0.2-0.5c0-0.2,1.5-1,1.6-1.1c0.1-0.1-0.2-4.5,0-4.9c0.2-0.3,1.5-0.8,2.3-1.1
			c0.2,0.6,0.5,1.1,0.7,1.4c0.1,0.1,0.1,0.2,0.3,0.3c-0.5,0.6-1.2,1.3-1.2,1.3s0,0.4,1.9,2.3c2,2,1.7,2,1.7,2.2c0,0.2-0.1,0.7,0,0.6
			c0.1-0.1,0.4-0.8,0.3-1c-0.1-0.2-3.6-4-3.4-4.1c0.1-0.1,0.7-0.6,1.1-1c1.4,1.2,4.4,3.2,4.8,3.5c0.5,0.5,0.9,0.5,1.5-0.6
			c0.6-1.1,0.4-3.7-0.2-5.3c-0.2-0.4-0.4-0.8-0.8-1.2c0.3-0.1,0.6-0.2,0.8-0.3c0.1,0.1,0.1,0.2,0.2,0.2c0.1,0,0.3-0.1,0.6-0.2
			c0.5,0.9,1.8,4.6,1.9,4.8c0.1,0.2,0.9,0.3,1,0.2c0.2-0.1-0.3-0.2-0.5-0.3c-0.2-0.1-0.1,0.3-1.1-2.4c-0.5-1.3-0.8-2-1-2.4
			c0.4-0.1,0.7-0.2,0.8-0.2c0.2,0,0.4,0.1,0.6,0.3c0.1,0.2,0-0.2-0.5-0.4c-0.2-0.1-0.6,0-1,0.1c-0.1-0.3-0.2-0.3-0.2-0.3
			s-0.4,0.1-0.8,0.2c-0.3-0.7-1.1-2.5-1.8-2.5c-0.3,0-1.3,1-1.5,1.1c0,0-0.1,0-0.3-0.1c-0.2-0.5-0.2-1.2-0.5-1.3
			c-0.3-0.1-0.7,0.6-0.8,0.7s-0.9-0.4-0.9-0.4c-0.5-0.6-2.5-0.6-2.7-0.6c0,0,0,0,0,0c-0.2-0.6-1.1-3.3-1.3-3.5
			c-0.3-0.2-0.8-0.1-0.2,0.1c0.5,0.2,1,2.6,1.3,3.4c-0.3,0.1-0.7,0.4-1,0.5c-0.2,0-0.3,0.2-0.3,0.4c-0.2,0-0.6,0-0.7,0
			c-0.2-0.1-3-1.9-3.4-1.9c-0.4,0-0.7,0.4-0.1,0.3c0.6-0.2,3.3,1.9,3.4,1.9c0.1,0,0.4,0,0.6,0c0,0.2,0.1,0.5,0.2,0.5
			c0.3,0,0.3,0.3,0.5,0.8c0.2,0.5,0.5,0.2,0.7,0.6c0.1,0.1,0.2,0.3,0.3,0.6c-1.1,0.1-3.7,0.4-3.7,0.4s-0.1,0.1-0.3,0.8
			c-0.1,0.8-0.1,0.9-0.2,1c-0.3,0.1-0.6,0.5-0.5,0.4c0.2-0.3,0.6-0.1,0.6-0.2c0-0.1,0.3-1.7,0.5-1.7c0.2,0,2.6-0.3,3.6-0.5
			c0.1,0.3,0.3,0.6,0.4,1c-0.7,0.3-2.5,1-2.5,1.3c-0.1,0.9,0.1,5,0.1,5.1c0,0.1-1.5,0.8-1.5,1.2C356.9,215,357,215,357,215z
			 M369.3,205.4L369.3,205.4L369.3,205.4L369.3,205.4z M365.9,204.1c0.3-0.2,0.8-1,1.1-0.9c0.2,0.1,0.9,1.3,1.4,2.1
			c-0.4,0.1-0.7,0.2-1,0.2C366.5,204.7,365.7,204.2,365.9,204.1z M364,203.3c0,0,0.4-0.3,0.5-0.4c0.1-0.1,0.3,0.4,0.4,0.7
			C364.6,203.5,364,203.3,364,203.3z"/>
	</g>
	<g>
		<g id="XMLID_75_">
			<g id="XMLID_81_">
				<path id="XMLID_84_" class="st1" d="M135.4,261.9c-31.2,0.4-56.5-4.3-56.7-10.5c-0.1-2.2,3.9-4.1,9.3-5.9
					c-10.9,2.2-17.8,5.1-17.7,8.3c0.2,6.2,25.6,10.9,56.7,10.5c20.1-0.2,36.9-2.7,46.8-5.9C163.7,260.3,150.3,261.7,135.4,261.9z"/>
				<path id="XMLID_83_" class="st1" d="M76.4,261.8c-16.2-1.6-27.8-4.9-28.3-9.4c-0.8-7.3,25.8-14.5,59.3-16.1
					c8-0.4,15.6-0.4,22.7-0.1c-9.9-1-21.2-1.5-33.9-0.9c-33.5,1.6-60.1,8.8-59.3,16.1C37.5,257,53.8,261,76.4,261.8z"/>
				<path id="XMLID_82_" class="st1" d="M115.5,230.5c31.2-0.4,56.5,4.3,56.7,10.5c0.1,2.2-3.9,4.1-9.3,5.9
					c10.9-2.2,17.8-5.1,17.7-8.3c-0.2-6.2-25.6-10.9-56.7-10.5c-20.1,0.2-36.9,2.7-46.8,5.9C87.2,232,100.6,230.7,115.5,230.5z"/>
			</g>
			<g id="XMLID_79_">
				
					<linearGradient id="XMLID_17_" gradientUnits="userSpaceOnUse" x1="7415.4683" y1="206.3658" x2="7502.5791" y2="206.3658" gradientTransform="matrix(-1 0 0 1 7566.7021 0)">
					<stop  offset="2.775224e-02" style="stop-color:#F4C973"/>
					<stop  offset="1" style="stop-color:#EAA62D"/>
				</linearGradient>
				<path id="XMLID_80_" class="st23" d="M151.2,223c-0.2,9-1.2,17.6-2.4,24.7c-0.3,1.9-0.7,3.7-1.2,5.4c0.2,0.2,0,0.6,0,0.8h-3.5
					v-1.5c0-3,0-6.3,0.2-9.6c0,0,0,0,0-0.1c0-0.6,0-1.1,0.2-1.8c0-3.1,0.2-6.3,0.5-9.2v-1.1c0.2-2,0.3-4.5,0.2-7.3
					c0-1.2-0.2-2.6-0.3-3.9c-0.2-4.1-0.7-8.7-1.7-13.4c-1.3-6.5-3.4-13.2-6.6-19.4c-1.8-3.5-4-6.7-6.7-9.6
					c-3.9-4.5-8.6-8.2-14.6-10.5c-1.3-0.4-2.7-1-4.2-1.3c-0.8-0.2-1.7-0.4-2.4-0.4C78.9,158.2,64.1,182,64.1,182
					c1.2-8.7,20.8-26.4,44.5-22.6c1.5,0.2,3.2,0.7,4.9,1.1c6.4,1.8,12.9,5.4,19.5,11c2.7,2.4,4.9,4.8,6.7,7.6
					c3.9,5.3,6.6,11.2,8.2,17.5c0.8,2.9,1.5,5.8,1.8,8.8c0.3,0.8,0.3,1.6,0.5,2.4v0.1C151,212.9,151.4,218,151.2,223z"/>
			</g>
			<g id="XMLID_76_">
				
					<linearGradient id="XMLID_18_" gradientUnits="userSpaceOnUse" x1="7385.4502" y1="216.0573" x2="7459.5757" y2="216.0573" gradientTransform="matrix(-1 0 0 1 7566.7021 0)">
					<stop  offset="2.775224e-02" style="stop-color:#F4C973"/>
					<stop  offset="1" style="stop-color:#EAA62D"/>
				</linearGradient>
				<path id="XMLID_78_" class="st24" d="M181.3,198c0,0-0.5-0.9-1.7-2.4c-0.8-0.9-1.7-1.9-2.9-3c-5.9-5.8-17.8-13.8-35.5-9.1
					c-2.7,0.7-5,1.7-7.2,3c-0.5,0.2-1,0.4-1.5,0.9c-3.9,2.2-7.1,5.4-9.4,9c-1,1.1-1.7,2.4-2.5,3.6c0,0.1,0,0.1,0,0.2
					c-1,1.7-1.8,3.4-2.7,5.2c-1.2,2.9-2.2,5.9-3,9c-0.8,3-1.3,6-1.7,9c-0.5,2.4-0.7,4.6-0.7,6.6c-0.3,3.7-0.3,6.9-0.2,9.4
					c0,0.6,0.2,1,0.2,1.6c0,0.9,0.2,1.9,0.2,2.9c0.2,1.8,0.2,3.6,0.3,5.4c0,0.1,0,0.2,0,0.2v4.5h-1.3c-0.8,0-1.7,0-2.5-0.1
					c-1-6.2-2-13.4-2-21c0-4.4,0.2-8.7,0.7-13c0.7-4.7,1.7-9.4,3.4-13.8c1.2-3.4,2.9-6.5,4.9-9.4c1.7-2.8,3.9-5.4,6.6-7.6
					c0.2-0.1,0.3-0.3,0.7-0.4c0.3-0.4,0.7-0.8,1.2-1.1c3-2.5,6.1-4.3,9.1-5.6c1-0.6,2-1,3.2-1.3c18.7-6.8,35.8,3.7,42,12.3
					c0.8,1.1,1.5,2.1,1.8,3C180.9,196.6,181.1,197.3,181.3,198z"/>
				
					<linearGradient id="XMLID_19_" gradientUnits="userSpaceOnUse" x1="7460.2065" y1="194.0353" x2="7490.1245" y2="194.0353" gradientTransform="matrix(-1 0 0 1 7566.7021 0)">
					<stop  offset="2.775224e-02" style="stop-color:#F4C973"/>
					<stop  offset="1" style="stop-color:#EAA62D"/>
				</linearGradient>
				<path id="XMLID_77_" class="st25" d="M106.1,216.4v0.1c0.5,4.4,0.5,8.7,0,13.1v0.1c-0.5,8.7-2.5,16.9-4.5,23.5v0.3
					c-1-0.1-1.8-0.1-2.7-0.2c1-5.4,1.5-10.6,1.7-16c0.8-17.7-3.2-35.4-16.3-54.5c-4.7-6.7-6.9-12.8-7.6-18.1c-0.2-1.8-0.2-3.6,0-5.3
					c0.8-15,13.6-23.7,15.3-24.9c-3.4,3.6-12.6,11.4-10.4,26c0.3,1.8,0.8,3.8,1.7,5.9c1.8,5.8,5.4,12.5,11.6,20.2
					c3.2,4,5.7,8.4,7.6,12.9c0,0.1,0,0.1,0,0.1C104.4,205.1,105.6,210.8,106.1,216.4z"/>
			</g>
		</g>
		<g>
			<linearGradient id="SVGID_6_" gradientUnits="userSpaceOnUse" x1="11.8632" y1="232.8383" x2="127.6328" y2="232.8383">
				<stop  offset="2.775224e-02" style="stop-color:#F4C973"/>
				<stop  offset="1" style="stop-color:#EAA62D"/>
			</linearGradient>
			<path class="st26" d="M124,249.8c-3.8-3.6-7.7-6.9-11.8-9.9c-4.1-3-8.3-5.8-12.6-8c-8.7-4.6-18-7.4-27.4-7.1
				c-2.3,0-4.7,0.3-7,0.6c-2.4,0.4-4.9,0.8-7.4,1.3c-4.9,1-9.8,2.1-14.6,3.5c-4.8,1.4-9.6,3-14.3,4.8c-4.7,1.9-9.3,4-13.7,6.9
				c1.5-2.2,3.4-4.1,5.3-5.9c2-1.7,4.1-3.4,6.3-4.9c4.4-3,9.1-5.5,14-7.6l3.7-1.5c1.2-0.5,2.5-0.9,3.8-1.3c2.5-0.9,5.1-1.6,7.6-2.3
				c1.3-0.4,2.6-0.6,3.9-0.9l3.9-0.8c2.8-0.5,5.6-0.8,8.4-0.8c0.7,0,1.4,0,2.1,0l2.1,0.1c1.4,0.1,2.8,0.3,4.2,0.5
				c2.8,0.5,5.5,1.1,8.1,2c2.6,0.9,5.2,2,7.6,3.2c2.5,1.2,4.8,2.7,7,4.2c4.4,3.1,8.4,6.8,11.9,10.8c1.7,2,3.4,4.1,4.9,6.3
				C121.5,245.2,122.9,247.5,124,249.8z"/>
		</g>
		<g>
			<linearGradient id="SVGID_7_" gradientUnits="userSpaceOnUse" x1="102.1134" y1="227.8739" x2="197.8101" y2="227.8739">
				<stop  offset="2.775224e-02" style="stop-color:#F4C973"/>
				<stop  offset="1" style="stop-color:#EAA62D"/>
			</linearGradient>
			<path class="st27" d="M106.5,249.8c0-4.9,0.9-9.8,2.3-14.5c1.4-4.8,3.5-9.4,6.4-13.7c1.5-2.1,3.1-4.2,5-6c1.9-1.9,4-3.5,6.4-4.9
				c2.3-1.4,4.9-2.5,7.5-3.3c0.6-0.2,1.3-0.3,2-0.5c0.7-0.2,1.3-0.3,2-0.4l2-0.3l2-0.2c5.2-0.4,10.4,0.2,15.4,1.3
				c5,1.2,9.7,2.9,14.2,5.2c4.5,2.2,8.7,4.9,12.6,7.9c3.9,3,7.5,6.3,10.6,10.1c-8.6-4.6-17.1-8.6-25.9-11.5
				c-8.7-2.9-17.7-4.6-26.4-4.1L141,215l-1.5,0.2c-0.5,0-1,0.2-1.5,0.3c-0.5,0.1-1,0.2-1.5,0.3c-2,0.5-3.9,1.3-5.8,2.2
				c-3.7,1.9-7.1,4.6-10,7.9c-3,3.3-5.6,7.1-7.9,11.1C110.4,241.1,108.4,245.3,106.5,249.8z"/>
		</g>
		<g>
			<g>
				<path class="st5" d="M61.2,220c0.4-0.3,0.7-0.5,1-0.8c0.3,0,0.6,0,0.9,0c0.3,0,0.6,0,0.8-0.1l0.2,0c0,0,0.1,0,0,0
					c-0.1,0-0.1,0-0.2,0.1c-0.1,0.1-0.2,0.2-0.3,0.2c-0.1,0.2-0.1,0.2-0.1,0.3c0,0,0,0,0,0.1l0,0.1l0,0.1c0,0,0.1,0.1,0.1,0.2
					c0,0,0,0.1,0.1,0.1c0.1,0.1,0.3,0.2,0.5,0.2c0.2,0,0.4,0,0.4-0.1c0.1,0,0.2-0.1,0.3-0.2c0.1-0.1,0.1-0.2,0.2-0.2l0,0
					c0,0,0-0.1,0-0.1c0-0.1,0-0.1,0-0.1l-0.8-1c0.6,0.1,1.3,0.1,1.9,0c0.3,0,0.6,0,1-0.1c0.3,0.2,0.7,0.5,1.1,0.8
					c-0.3,0.4-0.6,0.8-0.9,1c-0.4,0-0.7,0.1-1.1,0.1c-0.7,0-1.4,0-2.1,0l-1-0.1l0.2-0.9c0-0.1,0-0.1,0-0.2l0-0.1l0-0.1
					c0,0,0.1-0.2,0.2-0.2c0.1-0.1,0.2-0.1,0.3-0.2c0.1,0,0.2-0.1,0.5-0.1c0.2,0,0.4,0.1,0.5,0.2c0,0,0.1,0.1,0.1,0.1
					c0.1,0.1,0.1,0.2,0.1,0.2l0,0.1c0,0.1,0,0.1,0,0.1c0,0.1,0,0.1,0,0.2c0,0.2,0,0.4-0.2,0.7c-0.1,0.1-0.2,0.3-0.4,0.4
					c-0.1,0-0.2,0.1-0.3,0.1l-0.1,0l-0.3,0c-0.3,0-0.7,0.1-1,0.1c-0.3,0-0.7,0-1,0C61.8,220.6,61.5,220.4,61.2,220z"/>
			</g>
			<g>
				<path class="st5" d="M90.3,220.3c0.9,0.1,1.7,0.2,2.5,0.4c0.3,0.2,0.7,0.4,1,0.6l1,0.6l-0.8,1.6c-1.5-0.7-3-1.3-4.5-1.6
					c-1.5-0.3-3-0.3-4.3,0.3l0.1-1.6c0.2,0.1,0.5,0.3,0.8,0.3c0.1,0,0.3,0.1,0.4,0.1c0.1,0,0.3,0.1,0.4,0.1c0.6,0.3,1.2,0.4,2,0.4
					c-0.5,0.6-1.3,1-2.1,1.2c-0.2,0.1-0.4,0.1-0.6,0c-0.2-0.1-0.4-0.1-0.6-0.2c-0.4-0.1-0.8-0.3-1.2-0.5l-1.4-0.8l1.4-0.7
					c0.9-0.4,1.8-0.7,2.7-0.7c0.9-0.1,1.8,0,2.7,0.2c1.7,0.4,3.3,1.1,4.8,1.8l-0.8,1.6l-1-0.6c-0.3-0.2-0.7-0.4-1-0.6
					C91.4,221.6,90.8,221,90.3,220.3z"/>
			</g>
			<g>
				<path class="st5" d="M98.5,230.2c0.2-0.4,0.4-0.6,0.6-0.9c0.2,0.1,0.4,0.1,0.6,0.2c0.4,0.1,0.8,0.3,1.1,0.6
					c0.3,0.3,0.6,0.6,0.9,0.9c0.1,0.2,0.2,0.4,0.3,0.6c-0.2,0.3-0.3,0.6-0.6,0.8c-0.4-0.1-0.7-0.1-1-0.1c-0.1-0.1-0.1-0.2-0.2-0.3
					c-0.1-0.2-0.3-0.4-0.5-0.5c-0.2-0.1-0.4-0.3-0.6-0.3c-0.1,0-0.2-0.1-0.3-0.1C98.8,230.9,98.6,230.6,98.5,230.2z"/>
			</g>
			<g>
				<path class="st5" d="M126.5,212.4l1.1-0.5c0.4-0.3,0.7-0.1,1-0.1c0.6,0,1.3,0,1.9-0.2l-0.5,1.4c-0.4-0.5-1.4-0.8-2-0.5l-6.2,2.5
					l5.4-4.1c0.6-0.4,1.2-0.8,1.9-1c0.2,0,0.3-0.1,0.5-0.2c0.2,0,0.4,0.1,0.6,0.2c0.4,0.1,0.7,0.3,1.1,0.5c-0.3,0.2-0.6,0.5-0.9,0.7
					c-0.1,0.1-0.2,0.2-0.4,0.4c-0.1,0.1-0.3,0.1-0.4,0.1c-0.5,0.2-1,0.4-1.4,0.8l-0.9-1.5c1.4-0.5,3-0.1,4,1l1,1.1l-1.5,0.3
					c-0.8,0.2-1.5,0.2-2.3,0.2c-0.4,0-0.8,0.1-1.1-0.3C127.1,213.1,126.7,212.8,126.5,212.4z"/>
			</g>
			<g>
				<path class="st5" d="M140.2,214.3c0-0.6,0.3-1.4,1-1.8l0.1-0.1l0.8,0.3c0.2,0.1,0.4,0.1,0.5,0.2c0.1,0.1,0.3,0.1,0.5,0.2
					c0.3,0.1,0.7,0,0.9-0.2l0.5,1.6l-1.6-0.1l-7-0.2l6.8-1.5c1.1-0.3,2.3-0.3,3.4-0.3l-0.1,1.8c-1.3,0-2.5,0.1-3.8,0.2l-0.9,0.1
					c-0.3,0-0.6,0.2-1,0.1c-0.7-0.1-1.3-0.3-2-0.4c0.6-0.4,1.2-0.8,1.8-1.2c0.3-0.2,0.6-0.2,1-0.2l1-0.1c1.3-0.2,2.6-0.2,4-0.3
					l-0.1,1.8c-1-0.1-2,0-2.9,0.2l-0.2-1.8l1.6,0.1l2.7,0.1l-2.2,1.5c-0.7,0.5-1.5,0.6-2.2,0.5c-0.4-0.1-0.7-0.2-1.1-0.4
					c-0.4-0.1-0.6-0.5-0.8-0.9l0.8,0.2C141.2,213.8,140.7,213.9,140.2,214.3z"/>
			</g>
			<g>
				<path class="st5" d="M118.6,219.1c0.3,0.2,0.5,0.5,0.7,0.7c-0.1,0.2-0.2,0.3-0.3,0.5c-0.2,0.3-0.4,0.6-0.7,0.9
					c-0.3,0.2-0.6,0.5-0.9,0.6c-0.2,0.1-0.3,0.2-0.5,0.2c-0.3-0.2-0.5-0.4-0.7-0.7c0.1-0.4,0.1-0.7,0.1-0.9c0.1,0,0.2-0.1,0.3-0.1
					c0.2-0.1,0.3-0.2,0.5-0.3c0.1-0.1,0.3-0.3,0.4-0.5c0-0.1,0.1-0.2,0.1-0.3C117.9,219.1,118.2,219.1,118.6,219.1z"/>
			</g>
			<g>
				<path class="st5" d="M123.4,193.9c-0.2-0.4-0.3-0.9-0.3-1.4c0.2-0.3,0.5-0.6,0.8-0.9c0.6-0.5,1.2-0.9,1.9-1.3
					c0.7-0.3,1.3-0.6,1.8-0.8c0.2-0.1,0.5-0.3,0.6-0.4c0.3,0,0.7,0,1.1-0.3c0.3,0.4,0.3,1,0.2,1.5c-0.3,0.3-0.7,0.6-1,0.8
					c-0.7,0.4-1.4,0.6-1.9,0.9c-0.6,0.3-1.1,0.6-1.5,1c-0.2,0.2-0.4,0.4-0.5,0.6C124.2,193.6,123.9,193.7,123.4,193.9z"/>
			</g>
			<g>
				<path class="st5" d="M94.9,199.4c0.5,0,1,0.1,1.5,0.3c0.3,0.3,0.5,0.7,0.7,1.1c0.4,0.8,0.6,1.7,0.6,2.7l0,0.7l-0.7,0.2
					c-0.2,0.1-0.5,0.1-0.8,0c-0.3-0.1-0.5-0.3-0.7-0.5c-0.3-0.4-0.4-0.6-0.4-0.9c-0.1-0.3-0.1-0.5-0.1-0.8l0-0.4c0-0.1,0-0.2,0-0.2
					c-0.1-0.3-0.2-0.6-0.4-0.8c0-0.4,0-0.9-0.2-1.4c0.6-0.1,1.2,0,1.7,0.3c0.3,0.5,0.6,1,0.7,1.5c0,0.1,0,0.3,0.1,0.4l0,0.3
					c0,0.2,0.1,0.4,0.1,0.5c0,0.1,0.1,0.3,0.1,0.3c0,0-0.1-0.1-0.1-0.1c-0.1,0-0.2,0-0.2,0l-0.7,0.9c0-0.6-0.1-1.3-0.4-1.9
					c-0.1-0.3-0.3-0.6-0.5-0.9C95,200.3,95,199.9,94.9,199.4z"/>
			</g>
			<g>
				<path class="st5" d="M95.8,188.3c0.5,0.3,0.9,0.5,1.4,0.8l0.7,0.4c0.1,0.1,0.2,0.2,0.2,0.3l0.2,0.3l1.8,2.4l1.9,2.6l-3-1.3
					c-1.6-0.7-2.8-2-3.2-3.7l1.7-0.6c0.5,1.2,1,2.3,1.7,3.4c0.2,0.3,0.4,0.5,0.5,0.8c0.2,0.3,0.4,0.5,0.5,0.8l0.7,2
					c-0.7-0.3-1.3-0.6-1.9-1c-0.4-0.2-0.5-0.5-0.7-0.8c-0.2-0.3-0.4-0.6-0.6-0.9c-0.8-1.2-1.4-2.4-1.9-3.7l1.7-0.6
					c0.3,1.1,1.2,2.1,2.2,2.5l-1.1,1.3l-1.8-2.4l-0.2-0.3c-0.1-0.1-0.2-0.2-0.2-0.3l-0.2-0.8C96,189.3,95.9,188.8,95.8,188.3z"/>
			</g>
			<g>
				<path class="st5" d="M115.9,203.1c0.1,0.3,0.2,0.5,0.2,0.8l0.1,0.4c0,0.1,0.1,0.3,0,0.3c-0.2,0.3-0.4,0.7-0.6,1
					c-0.5,0.7-1,1.3-1.5,1.8l0-1.3c0,0-0.1-0.1-0.3-0.1c-0.1,0-0.3,0-0.3,0c-0.1,0.1-0.1,0.1-0.1,0c0.1-0.1,0.1-0.2,0.1-0.3
					c0-0.2,0-0.4,0-0.6c0-0.1,0-0.2,0-0.3c0-0.1,0.1-0.2,0.2-0.3c0.2-0.2,0.4-0.3,0.7-0.4c0.3-0.1,0.6,0.1,0.7,0.2
					c-0.2,0.1-0.2,0.3-0.1,0.4c0.1,0.1,0.1,0.2,0.2,0.3c0,0,0.1,0.1,0.1,0.1c0,0,0,0.1,0,0.1c0,0.1,0,0.2,0,0.3
					c0,0.5-0.1,0.9-0.4,1.3c-0.1,0.2-0.3,0.4-0.7,0.6c-0.2,0.1-0.5,0.1-0.8,0.1c-0.1,0-0.2-0.1-0.4-0.1c-0.1-0.1-0.2-0.1-0.3-0.2
					l-0.7-0.6l0.7-0.7c0.5-0.5,0.9-1,1.3-1.6c0.2-0.3,0.4-0.6,0.6-0.9c0-0.1,0.1-0.1,0.2-0.2l0.3-0.1L115.9,203.1z"/>
			</g>
			<g>
				<path class="st5" d="M114.4,211.7c0,0.3,0,0.7,0,1c0,0.2,0,0.3,0,0.5c0,0.2,0,0.3,0,0.5l-1.7-0.7c0.2-0.4,0.3-0.8,0.5-1.2
					c0.2-0.4,0.4-0.8,0.7-1.1c0.5-0.7,1.1-1.4,1.9-1.9l0.9,1.5c-0.2,0.1-0.4,0.3-0.5,0.7c-0.2,0.4-0.3,0.9-0.4,1.5l-0.4,1.6
					c-0.4,0.5-0.8,0.9-1.2,1.4c-0.2-0.6-0.4-1.2-0.5-1.8l0.4-1.6c0.1-0.5,0.2-1,0.5-1.7c0.2-0.6,0.6-1.3,1.4-1.7l0.9,1.5
					c-0.6,0.4-1.1,0.9-1.5,1.5c-0.2,0.3-0.4,0.6-0.5,0.9c-0.1,0.3-0.3,0.6-0.3,1l-1.7-0.7c0.1-0.1,0.3-0.2,0.4-0.3
					c0.1-0.1,0.3-0.2,0.4-0.3C113.8,212,114.1,211.9,114.4,211.7z"/>
			</g>
			<g>
				<path class="st5" d="M139.8,193.3c0.6-0.3,1.3-0.3,2-0.1c0.4,0,0.6,0.4,0.8,0.6c0.2,0.2,0.4,0.5,0.6,0.8c0.7,1.1,1,2.6,0.5,4
					l-0.7,1.8l-0.9-1.6c-0.7-1.2-1.4-2.5-2-3.7l-0.9-1.9c-0.1-0.1-0.1-0.4-0.1-0.5l0-0.6c0-0.4,0-0.8,0.1-1.2
					c0.3,0.2,0.6,0.5,0.9,0.7l0.4,0.4c0.1,0.1,0.3,0.2,0.3,0.4c0.3,0.6,0.6,1.3,0.9,1.9c0.6,1.2,1.3,2.5,1.9,3.7l-1.6,0.1
					c0.3-0.7,0.1-1.7-0.3-2.4c-0.1-0.2-0.3-0.4-0.4-0.5c-0.1-0.1-0.2-0.2-0.2-0.2c-0.1,0-0.2-0.1-0.2-0.3
					C140.7,194.1,140.4,193.6,139.8,193.3z"/>
			</g>
			<g>
				<path class="st5" d="M142.4,185.9c0.2-0.1,0.4-0.2,0.6-0.2c0.1,0,0.1-0.1,0.2-0.1c0,0,0.1-0.1,0.1-0.1c0,0,0,0,0,0
					c0.1,0,0.1,0.1,0.2,0.1c0.1,0.1,0.3,0.1,0.4,0.1l-0.2,1.7c-0.3-0.1-0.6-0.2-0.8-0.4c-0.1,0-0.1-0.1-0.2-0.1c0,0-0.1,0-0.1-0.1
					l0-0.2c0.1-0.2,0.2-0.5,0.4-0.7c0.3-0.1,0.5-0.2,0.7-0.3l0.1-0.1c0,0,0,0,0,0l0,0c0.1,0,0.1,0.1,0.2,0.1l5.7,1.4l-5.9,0.4
					c-0.4,0-0.9-0.1-1.2-0.2c-0.2-0.1-0.4-0.2-0.5-0.3c-0.2,0,0-0.3,0-0.4C142.2,186.3,142.3,186.1,142.4,185.9z"/>
			</g>
		</g>
	</g>
</g>
</svg>
