<?xml version="1.0" encoding="utf-8"?>
<!-- Generator: Adobe Illustrator 26.0.1, SVG Export Plug-In . SVG Version: 6.00 Build 0)  -->
<svg version="1.1" id="圖層_1" xmlns="http://www.w3.org/2000/svg" xmlns:xlink="http://www.w3.org/1999/xlink" x="0px" y="0px"
	 viewBox="0 0 50 100" style="enable-background:new 0 0 50 100;" xml:space="preserve">
<style type="text/css">
	.st0{fill:#FFEFDB;}
	.st1{fill:#09BDC6;}
	.st2{fill:#05AFAF;}
	.st3{fill:#717EB9;}
	.st4{fill:#461827;}
	.st5{fill:#3A0A1B;}
	.st6{fill:#FFA097;}
	.st7{fill:#FF837E;}
	.st8{fill:#30333D;}
	.st9{fill:#FFFFFF;}
	.st10{opacity:0.5;}
	.st11{fill:#8291C4;}
	.st12{fill:#F0A755;}
	.st13{fill:#5A3B47;}
	.st14{fill:#B95542;}
	.st15{fill:#CE5252;}
	.st16{fill:#F4F2F4;}
	.st17{fill:#E5DFE6;}
	.st18{fill:#D6D0D8;}
</style>
<g>
	<g>
		<g>
			<path class="st0" d="M25.4,36.8h0.1H25.4z"/>
		</g>
		<g>
			<g>
				<path class="st1" d="M5,14.3c0,0-0.6-0.7-0.6-0.9s0.3-0.9,0.4-1.2C5,11.9,4.9,11.3,4.9,11s0.1-1.3,0-1.5c0-0.2-0.3-0.4-0.4-0.4
					S4,9.2,3.9,9.2S3.8,8.5,3.3,8.3S2,8.9,1.4,9.3s-1.1,0.6-0.9,1.2s1.2,2.5,1.3,2.9s0.5,0.9,0.6,1.1C2.5,14.6,3,15.3,3,15.3
					S4,15.5,5,14.3z"/>
				<path class="st2" d="M2.8,11.3C2.7,11.3,2.7,11.3,2.8,11.3l-0.1-0.1c0,0,0.4,0,0.7-0.1C3.6,11,3.7,9.9,3.8,9.2h0.1
					c0,0.3-0.2,1.8-0.5,2C3.3,11.3,3,11.3,2.8,11.3z"/>
				<path class="st2" d="M2.7,11.6L2.7,11.6c-0.1,0,0-0.5-0.2-0.8C2.4,10.4,2,10.4,2,10.4l0,0v-0.1l0,0c0,0,0.3,0,0.5-0.2
					s0.3-0.5,0.3-0.5h0.1c0,0-0.1,0.4-0.3,0.6c-0.1,0.1-0.2,0.1-0.3,0.2c0.1,0.1,0.3,0.2,0.4,0.3C2.9,11.1,2.8,11.6,2.7,11.6z"/>
			</g>
			<path class="st3" d="M24.7,17.9c0,0-6.4,0.6-8.2,1.3c-1.8,0.7-9.3,6.4-9.3,7.4s1.1,4.3,2.7,4c1.5-0.3,9.8-2.2,9.8-2.2L24.7,17.9z
				"/>
			<path class="st3" d="M9.8,23.5L5.2,13c0,0-1.7,0-2.7,0.4s-1.7,1.1-1.7,1.1s3.3,9.9,4.4,11.8s2.3,4.8,4.9,4.1S9.8,23.5,9.8,23.5z"
				/>
			<g>
				<path class="st4" d="M14.9,26.7c1,0.9,2,1.5,2.9,1.9c-0.3,0.3-0.7,0.5-1.2,0.2C16,28.4,15.4,27.7,14.9,26.7z"/>
			</g>
			<path class="st5" d="M9.9,23.8c-0.1,0.3-0.2,0.6-0.3,0.9s-0.2,0.6-0.3,0.9s-0.1,0.6-0.2,0.9C9.1,26.7,9,27,9,27.3
				c0-0.3,0-0.6,0-0.9s0.1-0.6,0.2-0.9c0.1-0.3,0.2-0.6,0.3-0.9C9.6,24.3,9.7,24,9.9,23.8z"/>
			<path class="st5" d="M9.9,23.8c-0.2,0.3-0.5,0.5-0.7,0.7S8.7,25,8.5,25.3c0-0.2,0.1-0.3,0.2-0.5c0.1-0.1,0.2-0.3,0.3-0.4
				s0.3-0.2,0.4-0.3C9.6,23.9,9.7,23.8,9.9,23.8z"/>
			<g>
				<path class="st1" d="M45.4,10.9c0,0,0.5-0.8,0.5-1S45.5,9,45.3,8.8c-0.2-0.2-0.2-0.9-0.2-1.2c0-0.3-0.2-1.3-0.2-1.5
					s0.2-0.4,0.3-0.4s0.6,0.1,0.6,0c0,0,0-0.7,0.5-1s1.3,0.4,2,0.7s1.2,0.4,1.1,1.1c-0.1,0.6-0.8,2.7-0.9,3c-0.1,0.4-0.3,1-0.4,1.2
					s-0.6,0.9-0.6,0.9S46.5,11.9,45.4,10.9z"/>
				<path class="st2" d="M46.9,7.6c-0.1,0-0.3,0-0.4-0.1c-0.3-0.1-0.7-1.6-0.7-1.9h0.1c0.2,0.7,0.5,1.7,0.7,1.8c0.3,0.1,0.7,0,0.7,0
					v0.1C47.2,7.6,47,7.6,46.9,7.6z"/>
				<path class="st2" d="M47.2,7.9c0,0-0.2-0.5-0.1-0.9c0.1-0.2,0.2-0.3,0.3-0.4c-0.1,0-0.2-0.1-0.3-0.1C46.8,6.3,46.7,6,46.7,6h0.1
					c0,0,0.1,0.3,0.4,0.5c0.2,0.2,0.5,0.1,0.5,0.1l0,0v0.1l0,0c0,0-0.4,0.1-0.5,0.4C47,7.5,47.2,7.9,47.2,7.9L47.2,7.9z"/>
			</g>
			<path class="st3" d="M26.4,17.2c0,0,6.4-0.3,8.3,0.1s10.1,5,10.3,6c0.1,0.9-0.5,4.4-2.1,4.3c-1.6,0-10-0.8-10-0.8L26.4,17.2z"/>
			<path class="st3" d="M41.9,20.7L45,9.6c0,0,1.6-0.3,2.7,0c1,0.3,1.9,0.9,1.9,0.9s-1.9,10.2-2.7,12.3s-1.6,5.1-4.3,4.8
				C40,27.2,41.9,20.7,41.9,20.7z"/>
			<g>
				<g>
					<path class="st6" d="M26.7,21.5c1.1-0.4,2.9-2.2,3.7-4.2c-0.1-0.1-0.2-0.1-0.3-0.2c-1-0.9-2-2.6-2-4L23,13.8c0,1.4,0.1,3-0.9,4
						c-0.1,0.1-0.2,0.2-0.4,0.3C22.8,20.3,24.2,22.1,26.7,21.5z"/>
				</g>
				<g>
					<path class="st7" d="M28,13.1l-5.1,0.7c0,0.4,0,0.9,0,1.4c0.7,2.2,1.7,4.3,2.6,6.5c0.4,0,0.8,0,1.2-0.1
						c0.7-0.2,1.5-0.9,2.3-1.9c-0.2-1.5-0.3-3-0.4-4.5C28.2,14.4,28,13.7,28,13.1z"/>
				</g>
				<g>
					<path class="st4" d="M26.7,17.1c0.8-0.5,1.4-1.1,1.9-1.8c-0.4-0.7-0.6-1.5-0.6-2.2l-5.1,0.7c0,0.5,0,1.1,0,1.6
						C23.7,16.8,24.9,17.8,26.7,17.1z"/>
				</g>
			</g>
			<g>
				<path class="st4" d="M18.8,32.7c-0.2-3-0.3-6.1,0.2-9c0.6,0.1,1,0.9,1.2,1.7c0.6,2.1,0.3,4.4-0.1,6.6c-0.4,2.1-1,4.2-1,6.5
					C19,36.5,18.9,34.6,18.8,32.7z"/>
			</g>
			<g>
				<path class="st8" d="M36.4,48.5c-0.2-3.5-1.1-6.6-2.3-9.6l-15.3-0.4c-1.4,3.4-2,7.4-2.2,11.3c0,0.4,0,1.3,0,2.3
					c-2.6,17.6,0.1,24.6,0.7,36.2l6.1-0.3c0.9-9.8,2.3-21.3,3.8-31c1.2,10,3.8,21.8,4.7,31.9h5.8C39.1,77.4,39.3,57.9,36.4,48.5z"/>
			</g>
			<g>
				<g>
					<g>
						<path class="st9" d="M33.9,59.4l1.8-0.4l-0.4-1.8l-1.8,0.4L33.9,59.4z M34.9,57.9l0.2,0.7l-0.7,0.2L34.2,58L34.9,57.9z"/>
						
							<rect x="33.9" y="56.1" transform="matrix(0.979 -0.2039 0.2039 0.979 -10.7875 8.1684)" class="st9" width="0.7" height="0.7"/>
					</g>
					<path class="st9" d="M33.1,55.7c0,0-0.2-0.8-0.2-1c-0.1-0.4,0.1-0.6,0.4-0.6c0.2,0,0.3,0,0.4,0.2c0-0.2,0.2-0.4,0.4-0.4
						c0.3-0.1,0.6,0.1,0.7,0.5c0,0.3,0.2,1,0.2,1L33.1,55.7z M34.4,54.9c0,0,0-0.2-0.1-0.4c0-0.1-0.1-0.2-0.2-0.2c0,0-0.2,0-0.1,0.2
						c0,0.1,0.1,0.4,0.1,0.4L34.4,54.9z M33.8,55c0,0,0-0.2-0.1-0.3c0-0.1-0.1-0.2-0.2-0.2c0,0-0.1,0-0.1,0.2c0-0.1,0.1,0.3,0.1,0.3
						L33.8,55z"/>
					<path class="st9" d="M32.7,53.5l-0.1-0.6l1.7-1.1l0.1,0.6l-0.3,0.2l0.1,0.6l0.3,0l0.1,0.6L32.7,53.5z M33.2,53.1l0.6,0
						l-0.1-0.3L33.2,53.1z"/>
					<path class="st9" d="M32.8,51.2l-0.1-0.6c-0.3,0.1-0.5,0.4-0.4,0.9c0.1,0.6,0.5,0.7,0.8,0.7c0.4-0.1,0.4-0.6,0.4-0.6
						c0-0.1,0-0.4,0-0.5c0-0.1,0-0.1,0.1-0.2c0.1,0,0.2,0.1,0.2,0.2c0,0.1,0,0.3-0.2,0.3l0.1,0.6c0.3-0.1,0.6-0.4,0.5-1
						c-0.1-0.7-0.6-0.7-0.8-0.7c-0.2,0-0.3,0.2-0.4,0.4c0,0.2,0,0.4,0,0.5c0,0.1,0,0.3-0.1,0.3c-0.2,0-0.2-0.2-0.2-0.2
						C32.6,51.3,32.6,51.2,32.8,51.2z"/>
					<polygon class="st9" points="32.1,50.5 31.8,49.1 32.3,49 32.4,49.9 32.8,49.8 32.6,49.1 33.1,49 33.2,49.7 33.8,49.6 
						33.9,50.2 					"/>
				</g>
				<g>
					<polygon class="st9" points="37,58 37,58 36.4,58.3 36.4,58.4 37.1,58.4 37.1,58.4 37.1,58.4 36.5,58.7 36.5,58.8 37.3,58.5 
						37.3,58.4 36.5,58.3 36.5,58.3 36.5,58.3 37.2,58 37.1,57.9 36.3,57.8 36.3,57.9 37,58 					"/>
					<path class="st9" d="M36.5,57.3C36.5,57.3,36.5,57.4,36.5,57.3c-0.1,0.1-0.1,0.2-0.1,0.2c0,0,0,0.1,0,0.1s0,0.1,0.1,0.1
						s0.1,0,0.1,0s0.1,0,0.1,0c0,0,0.1,0,0.1,0c0,0,0.1,0,0.1-0.1c0,0,0-0.1,0-0.1c0,0,0-0.1,0-0.1c0-0.1,0-0.1-0.1-0.2
						c0,0-0.1,0-0.2,0l0,0.1c0,0,0.1,0,0.1,0c0,0,0,0.1,0,0.1c0,0,0,0.1,0,0.1c0,0,0,0,0,0.1c0,0,0,0-0.1,0c0,0,0,0-0.1,0l0,0
						l-0.1-0.4c0,0-0.1,0-0.1,0C36.6,57.2,36.6,57.3,36.5,57.3 M36.8,57.7L36.8,57.7C36.7,57.7,36.7,57.7,36.8,57.7
						c-0.1,0-0.1,0-0.1,0s0,0,0,0c0,0,0,0,0-0.1c0,0,0,0,0-0.1c0,0,0,0,0-0.1c0,0,0,0,0,0c0,0,0,0,0.1,0l0,0L36.8,57.7z"/>
					<path class="st9" d="M36.8,56.5C36.8,56.5,36.8,56.6,36.8,56.5c0,0.1,0,0.1,0,0.1c0,0,0,0-0.1,0c0,0,0,0-0.1,0c0,0-0.1,0-0.1,0
						c0,0-0.1,0-0.1,0c0,0,0,0-0.1,0c0,0,0,0,0-0.1c0,0,0-0.1,0-0.1s0,0,0.1-0.1l0-0.1c0,0-0.1,0-0.1,0c0,0,0,0,0,0.1c0,0,0,0,0,0.1
						c0,0,0,0.1,0,0.1c0,0,0,0.1,0,0.1c0,0,0,0.1,0.1,0.1c0,0,0.1,0,0.1,0c0,0,0.1,0,0.1,0c0,0,0.1,0,0.1,0c0,0,0.1,0,0.1-0.1
						c0,0,0-0.1,0-0.1c0,0,0-0.1,0-0.1c0-0.1,0-0.1-0.1-0.2c0,0-0.1,0-0.2,0l0,0.1c0,0,0.1,0,0.1,0C36.8,56.4,36.8,56.4,36.8,56.5"
						/>
					<path class="st9" d="M36.2,56.1c0,0,0.1,0.1,0.1,0.1l0,0l0,0L36.2,56.1l0,0.2l0.6-0.1l0-0.1l-0.3,0c0,0-0.1,0-0.1,0
						c0,0-0.1,0-0.1,0C36.3,56.1,36.3,56,36.2,56.1c0.1-0.1,0-0.1,0-0.1l-0.1,0l0,0C36.1,56,36.2,56,36.2,56.1"/>
					<path class="st9" d="M36.1,55.4C36.1,55.5,36.1,55.5,36.1,55.4c-0.1,0.1-0.1,0.2-0.1,0.2c0,0,0,0.1,0,0.1c0,0,0,0.1,0.1,0.1
						c0,0,0.1,0,0.1,0s0.1,0,0.1,0c0,0,0.1,0,0.1,0c0,0,0.1,0,0.1-0.1c0,0,0-0.1,0-0.1c0,0,0-0.1,0-0.1c0-0.1,0-0.1-0.1-0.2
						c0,0-0.1,0-0.2,0l0,0.1c0,0,0.1,0,0.1,0c0,0,0,0.1,0,0.1c0,0,0,0.1,0,0.1s0,0,0,0.1c0,0,0,0-0.1,0c0,0,0,0-0.1,0l0,0l-0.1-0.4
						c0,0-0.1,0-0.1,0C36.2,55.4,36.2,55.4,36.1,55.4 M36.4,55.8L36.4,55.8C36.3,55.8,36.3,55.8,36.4,55.8c-0.1,0-0.1,0-0.1,0
						c0,0,0,0,0,0c0,0,0,0,0-0.1c0,0,0,0,0-0.1c0,0,0,0,0-0.1c0,0,0,0,0,0c0,0,0,0,0.1,0l0,0L36.4,55.8z"/>
					<path class="st9" d="M36.4,54.7C36.4,54.7,36.4,54.7,36.4,54.7l-0.3,0.1c0,0-0.1,0-0.1,0s0,0,0,0.1s0,0,0,0.1
						c0,0.1,0,0.1,0,0.2c0,0,0,0,0,0.1c0,0,0,0,0.1,0c0,0,0.1,0,0.1,0l0-0.1c0,0-0.1,0-0.1,0c0,0,0-0.1,0-0.1c0,0,0,0,0,0
						c0,0,0,0,0,0c0,0,0,0,0,0c0,0,0,0,0,0c0,0,0,0,0,0c0,0,0,0,0,0c0,0,0,0,0,0.1c0,0,0,0,0,0.1c0,0,0,0,0,0.1c0,0,0,0,0,0.1
						c0,0,0,0,0.1,0c0,0,0,0,0.1,0s0,0,0.1,0c0,0,0,0,0,0c0,0,0,0,0-0.1c0,0,0,0,0-0.1c0,0,0-0.1,0-0.1c0,0,0-0.1-0.1-0.1h0h0
						c0,0,0,0,0.1,0c0,0,0,0,0-0.1s0,0,0-0.1L36.4,54.7C36.5,54.7,36.5,54.7,36.4,54.7C36.4,54.7,36.4,54.7,36.4,54.7 M36.3,54.8
						C36.3,54.8,36.3,54.8,36.3,54.8C36.4,54.8,36.4,54.8,36.3,54.8c0.1,0,0.1,0.1,0.1,0.1c0,0,0,0,0,0.1c0,0,0,0,0,0c0,0,0,0,0,0
						c0,0,0,0,0,0c0,0,0,0,0,0c0,0,0,0-0.1,0c0,0,0,0,0,0c0,0,0,0,0-0.1c0,0,0,0,0-0.1C36.3,55,36.3,54.9,36.3,54.8
						C36.2,54.9,36.2,54.9,36.3,54.8L36.3,54.8L36.3,54.8z"/>
					<path class="st9" d="M35.8,53.9C35.8,53.9,35.8,53.9,35.8,53.9c-0.1,0.1-0.1,0.2-0.1,0.2c0,0,0,0.1,0,0.1c0,0,0,0.1,0.1,0.1
						s0.1,0,0.1,0s0.1,0,0.1,0c0,0,0.1,0,0.1,0c0,0,0.1,0,0.1-0.1c0,0,0-0.1,0-0.1c0,0,0-0.1,0-0.1c0-0.1,0-0.1-0.1-0.2
						c0,0-0.1,0-0.2,0l0,0.1c0,0,0.1,0,0.1,0c0,0,0,0.1,0,0.1c0,0,0,0.1,0,0.1c0,0,0,0,0,0.1c0,0,0,0-0.1,0c0,0,0,0-0.1,0l0,0
						L36,53.8c0,0-0.1,0-0.1,0C35.9,53.8,35.8,53.9,35.8,53.9 M36,54.2L36,54.2C36,54.2,36,54.2,36,54.2c-0.1,0-0.1,0-0.1,0
						c0,0,0,0,0,0c0,0,0,0,0-0.1c0,0,0,0,0-0.1c0,0,0,0,0-0.1c0,0,0,0,0,0c0,0,0,0,0.1,0l0,0L36,54.2z"/>
					<path class="st9" d="M36.1,53.1C36.1,53.1,36.1,53.1,36.1,53.1c0,0.1,0,0.1,0,0.1c0,0,0,0-0.1,0c0,0,0,0-0.1,0c0,0-0.1,0-0.1,0
						s-0.1,0-0.1,0c0,0,0,0-0.1,0c0,0,0,0,0-0.1c0,0,0-0.1,0-0.1c0,0,0,0,0.1-0.1l0-0.1c0,0-0.1,0-0.1,0c0,0,0,0,0,0.1
						c0,0,0,0,0,0.1c0,0,0,0.1,0,0.1c0,0,0,0.1,0,0.1c0,0,0,0.1,0.1,0.1s0.1,0,0.1,0c0,0,0.1,0,0.1,0c0,0,0.1,0,0.1,0
						c0,0,0.1,0,0.1-0.1c0,0,0-0.1,0-0.1c0,0,0-0.1,0-0.1c0-0.1,0-0.1-0.1-0.2c0,0-0.1,0-0.2,0l0,0.1c0,0,0.1,0,0.1,0
						C36,53,36.1,53,36.1,53.1"/>
					<path class="st9" d="M35.5,52.4C35.4,52.4,35.4,52.4,35.5,52.4c0,0.1,0,0.1,0,0.2c0,0,0,0,0,0c0,0,0,0,0,0c0,0,0,0,0,0s0,0,0,0
						l0,0l0,0l-0.3,0.1l0,0.1l0.8-0.2l0-0.1l-0.3,0.1c0,0,0,0-0.1,0s0,0-0.1,0c0,0,0,0,0,0c0,0,0,0,0-0.1
						C35.5,52.5,35.5,52.5,35.5,52.4c0.1,0,0.1,0,0.2,0l0.4-0.1l0-0.1l-0.4,0.1C35.6,52.3,35.5,52.3,35.5,52.4
						C35.5,52.3,35.5,52.3,35.5,52.4"/>
					<path class="st9" d="M35.4,51.7C35.3,51.8,35.3,51.8,35.4,51.7c-0.1,0.1-0.1,0.2-0.1,0.2c0,0,0,0.1,0,0.1s0,0.1,0.1,0.1
						s0.1,0,0.1,0s0.1,0,0.1,0c0,0,0.1,0,0.1,0c0,0,0.1,0,0.1-0.1c0,0,0-0.1,0-0.1c0,0,0-0.1,0-0.1c0-0.1,0-0.1-0.1-0.2
						c0,0-0.1,0-0.2,0l0,0.1c0,0,0.1,0,0.1,0c0,0,0,0.1,0,0.1c0,0,0,0.1,0,0.1c0,0,0,0,0,0.1c0,0,0,0-0.1,0c0,0,0,0-0.1,0l0,0
						l-0.1-0.4c0,0-0.1,0-0.1,0C35.4,51.7,35.4,51.7,35.4,51.7 M35.6,52.1L35.6,52.1C35.6,52.1,35.5,52.1,35.6,52.1
						c-0.1,0-0.1,0-0.1,0c0,0,0,0,0,0c0,0,0,0,0-0.1c0,0,0,0,0-0.1c0,0,0,0,0-0.1c0,0,0,0,0,0c0,0,0,0,0.1,0l0,0L35.6,52.1z"/>
					<path class="st9" d="M35.1,50.8C35.1,50.8,35.1,50.9,35.1,50.8c0,0.1,0,0.1,0,0.1c0,0,0,0.1,0,0.1c0,0,0,0,0.1,0.1l0,0l0,0
						c0,0-0.1,0-0.1,0.1c0,0,0,0.1,0,0.1c0,0.1,0.1,0.1,0.1,0.2l0,0l0,0l-0.1,0l0,0.1l0.6-0.1l0-0.1l-0.4,0.1c0,0,0,0,0,0
						c0,0,0,0-0.1,0c0,0,0,0,0,0c0,0,0,0,0-0.1c0,0,0,0,0-0.1c0,0,0,0,0,0c0,0,0,0,0,0c0,0,0,0,0,0l0.4-0.1l0-0.1L35.3,51
						c0,0-0.1,0-0.1,0c0,0-0.1-0.1-0.1-0.1C35.2,50.9,35.2,50.9,35.1,50.8C35.2,50.9,35.2,50.8,35.1,50.8c0.1,0,0.1,0,0.1,0
						c0,0,0,0,0,0l0.4-0.1l0-0.1l-0.4,0.1C35.2,50.7,35.2,50.7,35.1,50.8C35.1,50.8,35.1,50.8,35.1,50.8"/>
					<path class="st9" d="M34.9,50.5L34.9,50.5l-0.1,0.1l0-0.1L34.9,50.5z M35,50.5L35,50.5l0.6,0l0-0.1L35,50.5z"/>
					<path class="st9" d="M35.5,49.9C35.4,49.9,35.4,49.9,35.5,49.9c-0.1-0.1-0.1-0.1-0.2,0c0,0,0,0-0.1,0c0,0,0,0,0,0
						c0,0,0,0,0,0.1c0,0,0,0,0,0.1s0,0,0,0.1s0,0,0,0.1s0,0,0,0c0,0,0,0,0,0c0,0,0,0,0,0s0,0,0,0c0,0,0,0,0,0c0,0,0-0.1,0-0.1
						c0,0,0,0,0,0c0,0,0,0,0,0c0,0,0,0,0,0l0-0.1c0,0-0.1,0-0.1,0c0,0,0,0,0,0.1s0,0,0,0.1c0,0,0,0.1,0,0.1c0,0,0,0,0,0.1
						c0,0,0,0,0,0.1c0,0,0,0,0.1,0s0,0,0.1,0c0,0,0.1,0,0.1,0c0,0,0,0,0-0.1c0,0,0-0.1,0-0.1c0,0,0-0.1,0-0.1s0-0.1,0-0.1
						S35.3,49.9,35.5,49.9C35.4,49.9,35.4,49.9,35.5,49.9C35.4,49.9,35.4,49.9,35.5,49.9c0,0.1,0,0.1,0,0.1c0,0,0,0.1,0,0.1
						c0,0,0,0,0,0.1c0,0,0,0,0,0c0,0,0,0,0,0l0,0.1c0,0,0.1,0,0.1,0c0,0,0,0,0-0.1c0,0,0-0.1,0-0.1C35.5,50.1,35.5,50,35.5,49.9
						C35.5,49.9,35.5,49.9,35.5,49.9"/>
					<path class="st9" d="M34.7,49.7L34.7,49.7l0.2,0.1l0,0.1l0.1,0l0-0.1l0.4-0.1c0,0,0,0,0.1,0c0,0,0,0,0,0s0,0,0,0c0,0,0,0,0-0.1
						l0-0.1l-0.1,0l0,0c0,0,0,0,0,0c0,0,0,0,0,0l0,0c0,0,0,0,0,0l-0.4,0.1l0-0.1l-0.1,0l0,0.1L34.7,49.7z"/>
					<path class="st9" d="M35.7,54.6L35.7,54.6l0.2,0.1l0,0.1l0.1,0l0-0.1l0.4-0.1c0,0,0,0,0.1,0c0,0,0,0,0,0s0,0,0,0c0,0,0,0,0-0.1
						l0-0.1l-0.1,0l0,0c0,0,0,0,0,0c0,0,0,0,0,0l0,0c0,0,0,0,0,0l-0.4,0.1l0-0.1l-0.1,0l0,0.1L35.7,54.6z"/>
					<path class="st9" d="M34.9,49.3L34.9,49.3L34.9,49.3l-0.1,0l0,0.1l0.6-0.1l0-0.1l-0.2,0c0,0-0.1,0-0.1,0S34.9,49.3,34.9,49.3
						c0-0.1,0-0.1,0-0.1c0,0,0-0.1,0-0.1l-0.1,0C34.8,49.2,34.8,49.2,34.9,49.3C34.8,49.3,34.9,49.3,34.9,49.3"/>
					<path class="st9" d="M35.4,48.7C35.4,48.7,35.3,48.7,35.4,48.7l-0.8-0.1l0,0.1l0.5,0.1l0,0l0,0L34.7,49l0,0.1l0.5-0.3l0,0
						L35.4,48.7C35.4,48.8,35.4,48.8,35.4,48.7c0,0.1,0,0.1,0,0.1c0,0,0,0,0,0s0,0,0,0l0.1,0c0,0,0,0,0,0c0,0,0,0,0,0s0,0,0-0.1
						C35.5,48.7,35.5,48.7,35.4,48.7C35.4,48.7,35.4,48.7,35.4,48.7"/>
				</g>
			</g>
			<g class="st10">
				<path d="M36.9,50.1c-0.3-1.3-0.4-1.4-0.6-2.4c-0.8,0.5-2,0.8-3,1c-5.5,0.7-11.1,0.6-16.6,0.3c1.1,1.2,1.9,2,3.8,2.3
					c2,0.3,5,0.6,6.8,0.6C29.4,51.7,33.7,50.9,36.9,50.1z"/>
			</g>
			<g>
				<path class="st4" d="M34.3,98.3L34.3,98.3c0.1,0.3,0.6,0.5,1,0.7c0.6,0.2,1.9,0.6,2.6,0.6H40c0.6,0,1.2-0.6,1.2-1.2v-0.5
					c0-0.9-0.4-1.8-1.1-2.3c-0.1-0.1-0.3-0.2-0.4-0.3c-0.4-0.4-0.8-0.9-1.3-1.6c-0.6-0.8-0.4-2.2-0.3-3.2c0.1-2.3,0.3-4.6,0.4-6.7
					h-7.4c0.4,4,1,6.8,0.1,10.6c-0.1,0.4,0,2.2,0.4,2.4c0.2,0.1,0.7,0.4,0.9,0.4c0.4,0.1,0.5,0.1,0.7,0.2
					C33.7,97.5,34.1,97.8,34.3,98.3z"/>
			</g>
			<g>
				<path class="st4" d="M21,98.7L21,98.7c-0.2,0.3-0.6,0.5-1.1,0.7c-0.6,0.2-2,0.6-2.7,0.6H15c-0.6,0-1.2-0.6-1.2-1.2v-0.5
					c0-0.9,0.4-1.8,1.1-2.4c0.1-0.1,0.3-0.2,0.4-0.3c0.5-0.4,0.8-0.9,1.4-1.7c0.6-0.8,0.4-2.2,0.3-3.3c-0.1-2.3-0.3-4.8-0.4-6.9h7.5
					c-0.4,4.1-1,7-0.1,10.9c0.1,0.4,0,2.2-0.4,2.5c-0.2,0.1-0.7,0.4-0.9,0.4c-0.4,0.1-0.5,0.1-0.7,0.2C21.6,97.9,21.2,98.2,21,98.7z
					"/>
			</g>
			<path class="st3" d="M22.2,17.1c0,0,1.3,1.2,3.7,0.8c2.4-0.3,3.4-1.9,3.4-1.9s4.7,2.2,5.3,3.4c2.1,4.1,0.6,9.5,0.5,11
				c-0.2,1.5,0.4,4.7,0.4,5.6c0,1,1.5,12,1.5,12s-5,2.3-10.1,2.6C21,51,15.7,49,15.7,49s2-10.3,2.3-12.5c0.1-0.6,0.1-5.2,0.1-5.2
				s-1.2-3.7-1.6-5.6c-0.3-1.8-0.9-4.2,0.9-5.4c1.7-1.2,1.3-0.8,2.3-1.3S22.2,17.1,22.2,17.1z"/>
			<g>
				<path class="st11" d="M21.8,29.7c-0.8,0.5-1.7,1.2-1.6,2.1c3.6-1.2,7.3-2.1,11.1-2.5c0.2,0,0.5-0.1,0.7,0s0.4,0.4,0.3,0.6
					c-4.1,0.7-8.1,1.9-11.9,3.7c3.3-0.7,6.7-1.1,9.9-0.3c-2.9,0-5.7,0.6-8.6,1.2c-0.7,0.2-1.4,0.3-2,0.8c-0.5,0.5-0.7,1.4-0.3,1.9
					c0.5,0.6-0.7,0.9-0.5,1.6c0,0.2,2.3,0,2.2,0.2c0,0,3.2,2.4,4.7,2.4c1.8,0,8.3-2.4,8.3-2.4c0.1-0.9,0.1-1.8,0.1-2.8
					c-0.5-0.5-0.7-1.2-0.4-1.9c0.2-0.3,0.4-0.7,0.2-1c-0.1-0.1-0.2-0.1-0.3-0.2c-1.3-0.4-2.5-0.8-3.8-1.2c1.2-0.3,2.4-0.5,3.6-0.8
					c0.4-0.1,0.9-0.3,0.8-0.7c-0.1-0.4-0.7-0.5-0.7-0.9c0-0.3,0.4-0.5,0.4-0.8c0-0.2-0.2-0.4-0.3-0.7c-0.2-0.4,0.2-0.9,0.5-1.2
					c0.4-0.3,0.8-0.6,0.9-1.1c0.1-0.5-0.2-1-0.7-1.3c-0.4-0.3-1-0.3-1.5-0.4c-1.1-0.1-2.1-0.3-3.2-0.4c-0.7-0.1-1.5-0.2-2.2,0
					s-1.4,0.6-1.7,1.3c2.4-0.4,4.9-0.3,7.2,0.2c-4.3,0.3-8.5,1.3-12.4,3c-0.7,0.3-1.3,0.6-1.7,1.2C20,29.3,20.9,29.5,21.8,29.7z"/>
			</g>
			<g>
				<path class="st4" d="M38,24.9c-1,0.9-1.9,1.6-2.8,2c0.3,0.3,0.7,0.4,1.2,0.1S37.5,25.9,38,24.9z"/>
			</g>
			<path class="st5" d="M41.9,20.9c0.2,0.2,0.4,0.5,0.5,0.8c0.2,0.3,0.3,0.5,0.4,0.8c0.1,0.3,0.2,0.6,0.3,0.9s0.1,0.6,0.1,0.9
				c-0.1-0.3-0.2-0.6-0.3-0.9s-0.2-0.6-0.3-0.8c-0.1-0.3-0.3-0.5-0.4-0.8S42,21.2,41.9,20.9z"/>
			<path class="st5" d="M41.9,20.9c0.2,0,0.3,0.1,0.5,0.2s0.3,0.2,0.4,0.3c0.1,0.1,0.3,0.2,0.4,0.4c0.1,0.1,0.2,0.3,0.3,0.5
				c-0.2-0.2-0.5-0.4-0.8-0.7C42.4,21.3,42.1,21.1,41.9,20.9z"/>
			<g>
				<g>
					<path class="st0" d="M33.5,35.4L33.5,35.4L33.5,35.4z"/>
				</g>
				<g>
					<g>
						<g>
							<g>
								<g>
									<path class="st12" d="M11.2,9.1c0.1,2.8,6.7,4.9,14.8,4.8s14.6-2.6,14.6-5.4c-0.1-2.8-12-8.4-14.9-8.4S11.2,6.2,11.2,9.1z"
										/>
								</g>
							</g>
							<g>
								<g>
									
										<ellipse transform="matrix(0.9997 -2.326877e-02 2.326877e-02 0.9997 -0.1977 0.6074)" class="st4" cx="26" cy="8.8" rx="13.8" ry="4.8"/>
								</g>
							</g>
						</g>
						<g>
							<path class="st13" d="M15,5c3.2-0.8,6.7-1.4,10.3-1.6c4.3-0.2,8.4,0.3,12,1.5c0.2,0.1,0.4,0.3,0.6,0.4c-3.7-1.4-8-2-12.5-1.7
								C21.7,3.8,18,4.5,14.7,5.3C14.8,5.2,14.9,5.1,15,5z"/>
							<path class="st13" d="M32.1,2.9c1,0.2,2,0.4,2.9,0.6c-0.2-0.1-0.4-0.2-0.7-0.4c-0.8-0.2-1.7-0.4-2.6-0.5
								c-0.5-0.3-1-0.6-1.5-0.9c0.5,0,1.1,0.1,1.6,0.1c-0.2-0.1-0.4-0.2-0.5-0.2c-0.5,0-1-0.1-1.5-0.1c-0.9-0.4-1.8-0.8-2.7-1.1
								l1,0.5c0.4,0.2,0.7,0.4,1.1,0.6c-0.8,0-1.5-0.1-2.3-0.1c-0.1-0.3-0.3-0.6-0.5-0.9h-0.1c0.1,0.3,0.2,0.6,0.4,0.9
								c-0.7,0-1.5,0-2.2,0.1c0.2-0.3,0.3-0.7,0.5-1c-0.2,0.3-0.4,0.7-0.6,1c-0.7,0-1.5,0.1-2.2,0.2c0.3-0.1,0.7-0.3,1-0.4
								c-0.5,0.1-0.9,0.3-1.4,0.5C21.2,2,20.5,2,19.9,2.2c-0.2,0.1-0.4,0.2-0.5,0.3c0.6-0.1,1.2-0.2,1.8-0.3
								c-0.5,0.2-0.9,0.4-1.4,0.6c-0.4,0-0.9,0.1-1.3,0.1C18.3,3,18.2,3.1,18,3.1c0.4,0,0.8-0.1,1.3-0.1c-0.9,0.4-1.7,0.9-2.5,1.5
								c1-0.5,2-1,3.1-1.5c1.4-0.2,2.8-0.3,4.2-0.4C24,2.8,23.9,3,23.8,3.3C23.9,3,24,2.8,24.1,2.6c0.5,0,1.1-0.1,1.6-0.1s1,0,1.6,0
								c0.2,0.3,0.3,0.5,0.5,0.8c-0.1-0.3-0.2-0.5-0.4-0.8c1.5,0,2.9,0.1,4.3,0.3c0.4,0.2,0.7,0.4,1.1,0.6
								C32.6,3.3,32.3,3.1,32.1,2.9z M24.3,1.8C24.2,2,24.1,2.2,24,2.4c-1.3,0.1-2.5,0.2-3.8,0.3c0.4-0.2,0.9-0.4,1.3-0.6
								C22.5,2,23.4,1.9,24.3,1.8z M26.8,1.7c0.1,0.2,0.2,0.4,0.3,0.6c-0.5,0-1,0-1.5,0s-1,0-1.5,0.1c0.1-0.2,0.2-0.4,0.3-0.6
								C25.3,1.8,26,1.7,26.8,1.7z M31.2,2.6c-1.2-0.2-2.5-0.3-3.9-0.3c-0.1-0.2-0.2-0.4-0.3-0.6c0.9,0,1.7,0,2.6,0.1
								C30.2,2.1,30.7,2.3,31.2,2.6z"/>
						</g>
					</g>
					<g>
						<path class="st7" d="M22,12c-0.2-1-0.1-3.4-0.1-3.4c0.3-0.8,1-1.3,1.7-1.5c0.6-0.2,1.2-0.3,1.8-0.2c0.6,0,1.2,0,1.8,0.1
							c0.7,0.2,1.4,0.7,1.8,1.4c0,0,0.2,2.4,0.1,3.4c0,0.5-0.1,1.1-0.3,1.6c0.3-2,0.2-3.8-1.3-5.2c-0.8-1.1-4.2-1.9-4.9,0.1
							c-0.5,1.8-0.7,3.4-0.4,5C22.2,12.9,22.1,12.5,22,12z"/>
					</g>
					<path class="st14" d="M21.4,9.7C21.2,9,21,8.2,21,7.5c0-0.8,0.3-1.5,0.8-1.9l0.4-0.2c-0.3,0-0.9,0.1-1.2,0.2
						c0.1-0.2,0.3-0.4,0.6-0.5C21.8,5,22.1,5,22.3,4.9c0.6,0,0.9-0.2,1.5-0.1c0.1,0,0.5-0.5,0.7-0.6c0.9-0.4,0.8-0.4,1.4-0.5
						c0.2,0,0.8,0,1,0.1c-0.3,0.1-0.6,0.1-0.9,0.3c0.2-0.1,0.5-0.1,0.7,0l0,0C27,4,27.3,4,27.6,4.1c0.5,0.1,1,0.4,1.3,0.9
						c0.2,0.3,0.4,0.7,0.3,1.1c-0.4-0.6-0.9-1.1-1.5-1.3c0.1,0.1,0.1,0.1,0.2,0.2c0.3,0.4,0.9,0.6,1.2,1c0.4,0.4,0.7,1,0.7,1.5
						c0.1,0.5,0.1,0.9,0,1.4s-0.3,0.9-0.3,1.4c-0.1,0.8,0.1,1.7-0.3,2.4c-0.3,0.6-0.6,1-1.1,1.2c-0.8,0.3-1.4,0.5-2.2,0.9
						c-0.4,0.2-0.9,0.1-1.3,0.1c-0.4,0.1-1.1-0.1-1.5-0.3c-0.5-0.4-1.2-1.1-1.3-1.7C21.5,11.6,21.7,10.9,21.4,9.7z"/>
					<g>
						<g>
							<path class="st6" d="M22,10.8c0-0.2-0.1-0.3-0.3-0.4c-0.2-0.1-0.4,0-0.5,0.2c-0.1,0.1-0.1,0.3,0,0.5c0,0.2,0.1,0.3,0.1,0.5
								c0,0.3-0.1,0.6-0.1,1c0,0.2,0.2,0.4,0.3,0.5c0.2,0.1,0.6,0.3,0.8,0.2C22.4,12.2,22.1,11.7,22,10.8z"/>
						</g>
						<g>
							<path class="st4" d="M21.6,11.9c0-0.1,0.1-0.2,0.2-0.3s0.1-0.2,0.1-0.3s0-0.2,0-0.3s-0.1-0.2-0.2-0.2s-0.2,0-0.3,0.1
								c0.1,0.1,0.3,0.3,0.3,0.4c0,0.3-0.2,0.5-0.2,0.8c0,0.2,0.2,0.4,0.3,0.5c0.1-0.2,0.1-0.4,0-0.5C21.7,12,21.6,12,21.6,11.9z"/>
						</g>
					</g>
					<g>
						<g>
							<path class="st6" d="M28.9,10.8c0.1-0.2,0.4-0.2,0.6-0.1c0.2,0.2,0.3,0.5,0.3,0.7c0,0.1-0.1,0.2-0.1,0.4s0,0.3,0,0.5
								c0,0.3-0.1,0.5-0.2,0.7c-0.2,0.2-0.4,0.4-0.7,0.5c0.1-0.8,0.1-1.6,0.1-2.4C28.9,10.9,28.9,10.8,28.9,10.8z"/>
						</g>
						<g>
							<path class="st4" d="M29.4,12.1c0-0.1-0.1-0.2-0.2-0.3s-0.1-0.2-0.1-0.3s0-0.2,0-0.3s0.1-0.2,0.2-0.2s0.2,0,0.3,0.1
								c-0.1,0.1-0.3,0.3-0.3,0.4c0,0.3,0.2,0.5,0.2,0.8c0,0.2-0.2,0.4-0.3,0.5c-0.1-0.2,0-0.4,0.1-0.5
								C29.3,12.2,29.4,12.2,29.4,12.1z"/>
						</g>
					</g>
					<g>
						<path class="st6" d="M21.9,8.5c0.3-0.7,1-1.2,1.7-1.4c0.6-0.2,1.2-0.2,1.8-0.2c0.6,0,1.2,0,1.8,0.1c0.7,0.2,1.4,0.6,1.8,1.3
							c0,0,0.2,2.3,0.1,3.3s-0.3,2-0.8,2.8c-0.2,0.2-0.3,0.5-0.5,0.8c-0.5,0.6-1.2,1-2.1,1l0,0c-0.8,0-1.6-0.3-2.1-0.9
							c-0.2-0.2-0.4-0.5-0.6-0.7c-0.6-0.8-0.8-1.8-1-2.7C21.8,10.8,21.9,8.5,21.9,8.5z"/>
					</g>
					<g>
						<path class="st4" d="M26.1,12.5c0.2,0,0.3-0.1,0.4-0.2c0.1-0.1,0.2-0.2,0.3-0.3c0.1-0.2-0.1-0.4-0.2-0.5c0,0-0.1-0.1-0.1,0
							c0,0-0.1,0.1,0,0.1c0.1,0.2,0.2,0.3,0.1,0.4c0,0.1-0.1,0.1-0.2,0.2c-0.2,0.1-0.4,0.2-0.5,0.2c-0.2,0-0.4-0.1-0.6-0.2
							C25.2,12.1,25,12,25,11.9s0.1-0.3,0.2-0.4v-0.1h-0.1c-0.1,0.1-0.2,0.3-0.2,0.5s0.3,0.3,0.4,0.4c0.2,0.1,0.4,0.2,0.7,0.2
							C26,12.6,26.1,12.6,26.1,12.5z"/>
					</g>
					<g>
						<path class="st14" d="M26.7,6.6c0.7,0.3,1.2,0.8,1.6,1.5c0.1,0,0.2,0,0.2-0.1c0-0.1,0-0.2,0-0.2C28.4,7.3,28,7,27.6,6.6
							L26.7,6.6z"/>
					</g>
					<g>
						<path class="st4" d="M28.4,9c-0.3-0.4-0.8-0.6-1.3-0.5c-0.1,0-0.2,0-0.3,0c-0.1,0-0.2-0.1-0.1-0.2c0.4-0.1,0.8-0.1,1.2,0
							c0.4,0.2,0.7,0.5,0.8,0.8C28.6,9.2,28.5,9.1,28.4,9z"/>
					</g>
					<g>
						<path class="st4" d="M22.9,9.1c0.3-0.4,0.8-0.6,1.2-0.5c0.1,0,0.2,0,0.3,0c0.1,0,0.2-0.1,0.1-0.2c-0.4-0.1-0.8-0.1-1.2,0.1
							c-0.4,0.2-0.6,0.5-0.8,0.9C22.7,9.3,22.8,9.2,22.9,9.1z"/>
					</g>
					<path class="st12" d="M27.2,4c0,0-1.9,0-2.6,0.1c-0.7,0,0.3-0.3,0.3-0.3s1.5-0.2,2.1-0.1C27.4,3.8,27.2,4,27.2,4z"/>
					<path class="st4" d="M26.6,11.6C26.6,11.6,26.5,11.6,26.6,11.6c-0.1,0-0.1-0.1-0.1-0.1c0.1-0.2,0-0.9,0-1.1
						c0-0.1,0-0.1,0.1-0.1c0,0,0.1,0,0.1,0.1C26.7,10.4,26.7,11.2,26.6,11.6L26.6,11.6z"/>
					<path class="st4" d="M24.6,13.6c0.8,0.4,1.6,0.5,2.4,0.1c0.1-0.1,0-0.2-0.1-0.2c-0.7,0.4-1.5,0.4-2.2-0.1
						C24.6,13.4,24.5,13.5,24.6,13.6L24.6,13.6z"/>
					<g>
						<path class="st15" d="M27,13.2c-0.3,0.2-0.7,0.3-1.1,0.3c-0.6,0-1.2,0-1.7-0.2c0,0.3,0.1,0.7,0.4,1s1,0.4,1.5,0.3
							C26.7,14.4,27.1,13.7,27,13.2"/>
						<path class="st15" d="M27,13.1c-0.8,0.4-1.9,0.4-2.7,0c-0.1,0-0.1,0-0.1,0.1c-0.1,2,3.1,1.9,3-0.1C27.2,13.1,27,13.1,27,13.1
							c0.1,1.7-2.7,1.9-2.6,0.1l-0.1,0.1c0.8,0.3,2,0.4,2.8,0C27.2,13.2,27.1,13.1,27,13.1L27,13.1z"/>
					</g>
					<path class="st4" d="M23,10.5c0-0.1,0-0.2,0-0.3s0.1-0.2,0.1-0.2c0-0.1,0.1-0.2,0.2-0.2c0.1-0.1,0.2-0.1,0.3-0.1
						c0,0,0.1,0,0.2,0h0.1H24c0.1,0,0.2,0,0.3,0.1c0.1,0,0.2,0.1,0.2,0.2c0.1,0.1,0.1,0.2,0,0.3l0,0c-0.2-0.1-0.3-0.1-0.4-0.2
						C24,10.1,24,10,23.9,10l0,0l0,0h-0.1c-0.1,0-0.1,0-0.2,0s-0.1,0.1-0.2,0.1C23.2,10.3,23.1,10.4,23,10.5L23,10.5z"/>
					<path class="st4" d="M28.4,10.5c0-0.2-0.1-0.3-0.2-0.4C28.1,10,28.1,10,28,10s-0.1,0-0.2,0h-0.1l0,0l0,0
						c-0.1,0-0.1,0.1-0.2,0.1s-0.2,0.1-0.4,0.2l0,0c0-0.1,0-0.2,0-0.3c0.1-0.1,0.1-0.2,0.2-0.2c0.1-0.1,0.2-0.1,0.3-0.1h0.1h0.1
						c0.1,0,0.1,0,0.2,0s0.2,0.1,0.3,0.1c0.1,0,0.2,0.1,0.2,0.2c0.1,0.1,0.1,0.2,0.1,0.2C28.4,10.3,28.4,10.4,28.4,10.5L28.4,10.5z"
						/>
				</g>
			</g>
			<g>
				<polygon class="st16" points="29.1,10.6 28.9,11.1 28.9,11.5 29.2,10.6 				"/>
				<polygon class="st16" points="28.9,11.9 28.8,13.5 28.7,13.6 28.9,12.4 				"/>
				<polygon class="st16" points="21.9,10.6 22.3,12.1 22.3,11.7 21.9,10.4 				"/>
				<polygon class="st16" points="22.3,12.6 22.3,13.4 22.2,13.3 22.3,12.1 				"/>
				<g>
					<path class="st17" d="M22.2,11.4c0,0,2.4-0.7,3.2-0.7c0.8,0,3.5,0.2,3.5,0.2l-0.1,1.8c0,0-0.2,1.7-1.2,3.1
						c-0.1,0.2-1.3,0.7-1.9,0.7c-0.6,0-1.6-0.3-1.9-0.6c-0.6-0.5-1.5-2.5-1.5-2.5L22.2,11.4z"/>
					<g>
						<path class="st18" d="M22.8,12.3c0.5-0.2,0.9-0.4,1.4-0.5c0.2-0.1,0.5-0.1,0.7-0.2c0.1,0,0.2-0.1,0.4-0.1c0.1,0,0.1,0,0.2,0
							s0.1,0,0.2,0c0.5,0.1,1,0.1,1.5,0.3c0.5,0.1,1,0.2,1.4,0.3c-0.5-0.1-1-0.1-1.5-0.2l-0.7-0.1c-0.2,0-0.5-0.1-0.7-0.1
							c-0.1,0-0.1,0-0.2,0c-0.1,0-0.1,0-0.2,0c-0.1,0-0.2,0-0.4,0.1c-0.2,0-0.5,0.1-0.7,0.2L22.8,12.3z"/>
					</g>
					<g>
						<path class="st18" d="M23.4,13.3c0.2,0,0.3,0,0.5,0c0.2,0,0.3,0,0.5,0c0.2,0,0.3,0,0.5,0c0.2,0,0.3,0,0.5,0.1
							c-0.2,0-0.3,0-0.5,0c-0.2,0-0.3,0-0.5,0c-0.2,0-0.3,0-0.5,0C23.8,13.4,23.6,13.4,23.4,13.3z"/>
					</g>
					<g>
						<path class="st18" d="M26.5,13.5c0.2-0.1,0.4-0.1,0.7-0.1c0.2,0,0.4-0.1,0.7,0c-0.2,0.1-0.4,0.1-0.7,0.1
							C26.9,13.4,26.7,13.5,26.5,13.5z"/>
					</g>
					<g>
						<path class="st18" d="M23.1,14.4c0.4,0.2,0.8,0.4,1.3,0.6c0.2,0.1,0.4,0.2,0.7,0.2c0.2,0.1,0.5,0.1,0.7,0.1
							c0.2,0,0.5-0.1,0.7-0.2c0.2-0.1,0.4-0.2,0.6-0.3c0.4-0.2,0.8-0.4,1.3-0.7c-0.4,0.3-0.8,0.6-1.2,0.8s-0.9,0.5-1.4,0.5
							c-0.1,0-0.1,0-0.2,0c-0.1,0-0.1,0-0.2,0l-0.2,0L25,15.4c-0.2-0.1-0.4-0.2-0.7-0.3C23.9,14.9,23.5,14.7,23.1,14.4z"/>
					</g>
				</g>
			</g>
		</g>
	</g>
	<path class="st5" d="M21.6,18.6c0.3,0.2,0.6,0.3,1,0.4c0.3,0.1,0.7,0.2,1,0.2c0.7,0.1,1.4,0.1,2.1,0.1s1.4-0.2,2-0.4
		c0.3-0.1,0.6-0.3,0.9-0.5s0.6-0.4,0.8-0.7c-0.4,0.6-1,1-1.6,1.3c-0.3,0.1-0.7,0.2-1,0.3c-0.2,0-0.3,0.1-0.5,0.1s-0.4,0-0.5,0.1
		c-0.7,0-1.4,0-2.1-0.1C22.9,19.2,22.2,19,21.6,18.6z"/>
	<path class="st5" d="M24.9,30.4l2-0.3c0.7-0.1,1.3-0.2,2-0.3c0.7-0.1,1.3-0.3,1.9-0.5c0.3-0.1,0.6-0.2,0.9-0.4
		c0.3-0.1,0.6-0.3,0.9-0.4c-0.3,0.2-0.6,0.4-0.9,0.5c-0.3,0.2-0.6,0.3-0.9,0.4s-0.6,0.2-0.9,0.4c-0.3,0.1-0.7,0.2-1,0.2
		c-0.7,0.1-1.3,0.2-2,0.3C26.2,30.3,25.6,30.4,24.9,30.4z"/>
	<path class="st5" d="M28,31.7c0.6-0.1,1.2-0.3,1.8-0.5c0.3-0.1,0.6-0.2,0.9-0.3c0.3-0.1,0.6-0.3,0.9-0.4c-0.2,0.2-0.5,0.4-0.8,0.5
		c-0.3,0.2-0.6,0.3-0.9,0.4s-0.6,0.2-0.9,0.2C28.7,31.7,28.4,31.7,28,31.7z"/>
</g>
</svg>
