<?xml version="1.0" encoding="utf-8"?>
<!-- Generator: Adobe Illustrator 22.0.1, SVG Export Plug-In . SVG Version: 6.00 Build 0)  -->
<svg version="1.1" id="圖層_1" xmlns="http://www.w3.org/2000/svg" xmlns:xlink="http://www.w3.org/1999/xlink" x="0px" y="0px"
	 viewBox="0 0 45 100" style="enable-background:new 0 0 45 100;" xml:space="preserve">
<style type="text/css">
	.st0{fill:#B95542;}
	.st1{fill:#461827;}
	.st2{fill:#FFA097;}
	.st3{fill:#FF837E;}
	.st4{fill:#3A0A1B;}
	.st5{fill:#A64132;}
	.st6{fill:#6F3F4D;}
	.st7{fill:#FFEFDB;}
	.st8{fill:#F0A755;}
	.st9{fill:#5A3B47;}
</style>
<g>
	<g>
		<g>
			<g>
				<path class="st0" d="M6.5,34.4c0.6-2.4,5.1-5.6,7.7-7.1c1.2-0.7,1-1.6,1.6-3.1c0.4-0.9,1.7-2.2,1.2-3c-0.9-1.3-3.3-1.3-5.2-0.6
					c-3.2,1.2-5.5,4-7.5,6.8C2.4,30,0.6,32.7,1,35.8C2.7,35,4.6,34.6,6.5,34.4z"/>
			</g>
			<g>
				<path class="st1" d="M2.2,31.6c1.6-0.2,3.2-0.1,4.7,0.2c-0.7-0.5-1.5-0.9-2.4-1C3.8,30.7,2.8,31,2.2,31.6z"/>
			</g>
			<g>
				<path class="st2" d="M9,37.3c-0.7-0.9-1.9-1.9-2.2-2.7c-0.2-0.4-0.2-0.9-0.1-1.4c-1.7,0.1-3.4,0.6-4.9,1.3
					c0,0.2,0.1,0.4,0.1,0.5c0.6,2.5,1.5,3.6,3.4,5.3c2,1.7,5.7,4.3,8,5.6c0.7-0.8,0.7-1.9,1.4-2.7C12.3,41.2,10.4,39.1,9,37.3z"/>
			</g>
			<g>
				<path class="st3" d="M3.6,33.8C3,34,2.4,34.2,1.8,34.5c0,0.2,0.1,0.4,0.1,0.5c0.6,2.5,1.5,3.6,3.4,5.3c2,1.7,6.3,4.8,8.6,6.1
					c-0.5-0.5-0.9-0.7-1.6-1.3C8.1,41.6,5.1,38.7,3.6,33.8z"/>
			</g>
			<g>
				<path class="st0" d="M0.9,35.2c0-0.2-0.1-0.5-0.2-0.6c-0.2-0.2-0.3-0.3-0.5-0.5c-0.4-0.5-0.2-1.3,0.3-1.8
					c0.4-0.5,1.1-0.7,1.7-0.9c1-0.3,2.1-0.4,3.2-0.2c0.7,0.1,1.3,0.3,1.9,0.6c0.4,0.3,0.7,0.8,0.5,1.2c0,0.2-0.1,0.3-0.1,0.5
					c0,0.4,0.1,0.8-0.2,1.2c-0.2,0.3-0.7,0.4-1.1,0.4c-1.4,0.1-2.7,0.3-4,0.9c-0.3,0.2-0.7,0.3-1,0.3c-0.4,0-0.8-0.3-0.7-0.7
					C0.7,35.5,0.8,35.4,0.9,35.2z"/>
			</g>
			<g>
				<path class="st4" d="M0.7,35.9l-0.1-0.2c2.2-0.9,4.6-1.4,7-1.5l0,0.2C5.3,34.5,3,35,0.7,35.9z"/>
			</g>
			<g>
				<path class="st4" d="M0.2,32.8l-0.1-0.2c2.4-1,5.1-0.9,7.5,0.1l-0.1,0.2C5.2,31.9,2.6,31.8,0.2,32.8z"/>
			</g>
			<path class="st2" d="M12.5,45.3c0,0-1,0.4-1.4,0.8c-0.4,0.4-0.5,1.2-1,1.5s-1.9,0.5-1.9,0.8c-0.1,0.4,0.4,1,1.2,1.2
				c0.8,0.3,2.3-0.1,2.9-0.3s1.6-3.8,1.6-3.8L12.5,45.3z"/>
			<path class="st2" d="M14.6,43.3c0.7,0.6,1.3,1.7,0.8,3c-0.3,0.8-2.4,2.5-3.1,3c-0.8,0.6-1.3-0.2-1.3-0.2l2.5-4.5L14.6,43.3z"/>
		</g>
		<g>
			<g>
				<path class="st0" d="M38.5,32.7c-0.6-2.4-5.1-5.6-7.7-7.1c-1.2-0.7-3.2,0.1-3.8-1.4c-0.4-0.9-2.6-4.2-2-5
					c0.9-1.3,6.4-1.1,8.3-0.3c3.2,1.2,5.5,4,7.5,6.8c1.9,2.6,3.7,5.3,3.2,8.4C42.3,33.3,40.4,32.8,38.5,32.7z"/>
			</g>
			<g>
				<path class="st1" d="M42.8,29.9c-1.6-0.2-3.2-0.1-4.7,0.2c0.7-0.5,1.5-0.9,2.4-1C41.2,29,42.2,29.3,42.8,29.9z"/>
			</g>
			<g>
				<path class="st2" d="M36,35.6c0.7-0.9,1.9-1.9,2.2-2.7c0.2-0.4,0.2-0.9,0.1-1.4c1.7,0.1,3.4,0.6,4.9,1.3c0,0.2-0.1,0.4-0.1,0.5
					c-0.6,2.5-1.5,3.6-3.4,5.3c-2,1.7-5.7,4.3-8,5.6c-0.7-0.8-0.7-1.9-1.4-2.7C32.7,39.4,34.6,37.4,36,35.6z"/>
			</g>
			<g>
				<path class="st3" d="M41.4,32.1c0.6,0.2,1.3,0.4,1.9,0.7c0,0.2-0.1,0.4-0.1,0.5c-0.6,2.5-1.5,3.6-3.4,5.3
					c-2,1.7-6.3,4.8-8.6,6.1c0.5-0.5,0.9-0.7,1.6-1.3C36.9,39.9,39.9,37,41.4,32.1z"/>
			</g>
			<g>
				<path class="st0" d="M44.1,33.5c0-0.2,0.1-0.5,0.2-0.6c0.2-0.2,0.3-0.3,0.5-0.5c0.4-0.5,0.2-1.3-0.3-1.8
					c-0.4-0.5-1.1-0.7-1.7-0.9c-1-0.3-2.1-0.4-3.2-0.2c-0.7,0.1-1.3,0.3-1.9,0.6c-0.4,0.3-0.7,0.8-0.5,1.2c0,0.2,0.1,0.3,0.1,0.5
					c0,0.4-0.1,0.8,0.2,1.2c0.2,0.3,0.7,0.4,1.1,0.4c1.4,0.1,2.7,0.3,4,0.9c0.3,0.2,0.7,0.3,1,0.3c0.4,0,0.8-0.3,0.7-0.7
					C44.3,33.8,44.2,33.6,44.1,33.5z"/>
			</g>
			<g>
				<path class="st4" d="M44.3,34.1l0.1-0.2c-2.2-0.9-4.6-1.4-7-1.5l0,0.2C39.7,32.8,42,33.3,44.3,34.1z"/>
			</g>
			<g>
				<path class="st4" d="M44.8,31l0.1-0.2c-2.4-1-5.1-0.9-7.5,0.1l0.1,0.2C39.8,30.1,42.4,30.1,44.8,31z"/>
			</g>
			<path class="st2" d="M32.5,43.6c0,0,1,0.4,1.4,0.8s0.5,1.2,1,1.5c0.4,0.3,1.9,0.5,1.9,0.8c0.1,0.4-0.4,1-1.2,1.2
				c-0.8,0.3-2.3-0.1-2.9-0.3c-0.6-0.3-1.6-3.8-1.6-3.8L32.5,43.6z"/>
			<path class="st2" d="M30.4,41.5c-0.7,0.6-1.3,1.7-0.8,3c0.3,0.8,2.4,2.5,3.1,3c0.8,0.6,1.3-0.2,1.3-0.2l-2.5-4.5L30.4,41.5z"/>
		</g>
		<g>
			<g>
				<path class="st2" d="M23.1,21.9c1.1-0.4,2.9-2.2,3.6-4.1c-0.1-0.1-0.2-0.1-0.3-0.2c-1-0.9-2-2.6-2-4l-5.1,0.7
					c0,1.4,0.1,3-0.9,3.9c-0.1,0.1-0.2,0.2-0.4,0.3C19.2,20.7,20.6,22.5,23.1,21.9z"/>
			</g>
			<g>
				<path class="st3" d="M24.4,13.6l-5.1,0.7c0,0.4,0,0.9,0,1.3c0.7,2.2,1.7,4.3,2.5,6.4c0.4,0,0.8,0,1.2-0.1
					c0.7-0.2,1.5-0.9,2.3-1.8c-0.2-1.5-0.3-3-0.4-4.5C24.6,14.9,24.4,14.3,24.4,13.6z"/>
			</g>
			<g>
				<path class="st1" d="M23.1,17.5c0.8-0.5,1.4-1.1,1.9-1.8c-0.4-0.7-0.6-1.4-0.6-2.1l-5.1,0.7c0,0.5,0,1.1,0,1.6
					C20.1,17.2,21.3,18.2,23.1,17.5z"/>
			</g>
		</g>
		<g>
			<g>
				<path class="st0" d="M14.8,31.8c0.4,3.2,0.2,4.4,0.4,7.5h15.4c0.2-3.2,0.2-6.4,0.6-9.6c0.2-1.5,0.5-3,0.5-4.6
					c0-1.5-0.3-4.2-1.3-5.5c-1.6-2.2-2.7-1.6-3.7-2.1c-0.7,1.8-1.9,3.2-3.1,3.6c-2.5,0.5-4.5-0.8-5.6-2.9c-1.3,0.9-4.9,1.9-5.7,2.9
					c-0.9,1.2,0.6,2.5,0.6,4.1C12.9,26.8,14.5,30.3,14.8,31.8z"/>
			</g>
			<g>
				<path class="st5" d="M18.2,30c-0.8,0.5-1.7,1.2-1.6,2.1c3.6-1.2,7.3-2.1,11-2.5c0.2,0,0.5-0.1,0.7,0c0.2,0.1,0.4,0.3,0.3,0.6
					c-4.1,0.7-8.1,1.9-11.9,3.6c3.2-0.7,6.6-1.1,9.8-0.3c-2.9,0-5.7,0.6-8.5,1.2c-0.7,0.2-1.4,0.3-1.9,0.8c-0.5,0.5-0.7,1.4-0.3,1.9
					c0.5,0.6,1.6,0.6,1.7,1.3c0,0.2,0,0.3,0,0.5h12.9c0.1-0.9,0.1-1.8,0.1-2.7c-0.5-0.4-0.6-1.2-0.4-1.8c0.2-0.3,0.4-0.7,0.2-1
					c-0.1-0.1-0.2-0.1-0.3-0.2c-1.3-0.4-2.5-0.8-3.8-1.2c1.2-0.3,2.4-0.5,3.5-0.8c0.4-0.1,0.9-0.3,0.8-0.7c-0.1-0.4-0.7-0.5-0.7-0.9
					c0-0.3,0.4-0.5,0.4-0.8c0-0.2-0.2-0.4-0.3-0.7c-0.2-0.4,0.2-0.9,0.5-1.2c0.3-0.3,0.8-0.6,0.9-1.1c0.1-0.5-0.2-1-0.7-1.3
					c-0.4-0.3-1-0.3-1.5-0.4c-1-0.1-2.1-0.3-3.1-0.4c-0.7-0.1-1.5-0.2-2.2,0c-0.7,0.1-1.4,0.6-1.7,1.3c2.4-0.4,4.8-0.3,7.2,0.2
					c-4.2,0.3-8.4,1.3-12.4,2.9c-0.6,0.3-1.3,0.6-1.7,1.1C16.4,29.7,17.3,29.8,18.2,30z"/>
			</g>
			<g>
				<path class="st4" d="M22.7,22.3c-0.6,0-1.3-0.1-1.9-0.4c-1.2-0.5-2.3-1.5-3-2.9c0-0.1,0-0.1,0.1-0.2c0.1,0,0.1,0,0.2,0.1
					c0.7,1.3,1.7,2.3,2.9,2.8c1.3,0.6,2.8,0.5,3.9-0.3c0.9-0.6,1.6-1.7,2.1-3.2c0-0.1,0.1-0.1,0.2-0.1c0.1,0,0.1,0.1,0.1,0.2
					C26.7,19.9,26,21,25,21.6C24.4,22,23.6,22.3,22.7,22.3z"/>
				<path class="st4" d="M21.6,28.8l0-0.2c2.1-0.5,4.2-0.8,6.4-0.9l0,0.2C25.8,27.9,23.7,28.2,21.6,28.8z"/>
				<rect x="26.3" y="28.8" class="st4" width="1.3" height="0.2"/>
			</g>
		</g>
		<g>
			<g>
				<path class="st6" d="M32.8,48.5c-0.2-3.4-0.9-6.9-2.1-10H15.3c-1.4,3.4-2,7.3-2.1,11.1c0,0.4,0,1.2,0,2.3
					c-2.6,17.4,0.1,24.2,0.7,35.7l6-0.3c0.9-9.7,2.3-21.1,3.8-30.7c1.2,9.9,3.8,21.5,4.7,31.5H34C35.5,77.1,35.6,57.9,32.8,48.5z"/>
			</g>
			<g>
				<g>
					<path class="st6" d="M29.6,40.6L29.6,40.6c0.8,0,1.3-0.7,1.2-1.4c-0.2-1.2-0.3-2.4-0.2-3.6c0.1-6.2-0.2-11.2-1.2-17.3
						c0-0.2-0.1-0.4-0.5-0.5c-0.6-0.1-0.8-0.1-1.3,0c0.8,7.3,1.1,14.2,0.8,21.5C28.3,40,28.9,40.6,29.6,40.6z"/>
				</g>
				<g>
					<path class="st1" d="M29.4,38.9c0.2,0.2,0.7,0,0.7-0.3c0-0.3-0.3-0.6-0.6-0.5C29.3,38.3,29.2,38.7,29.4,38.9z"/>
				</g>
			</g>
			<g>
				<g>
					<path class="st6" d="M17.3,27.5c0.1,4,0.1,8,0,12c0,0.6,0.5,1.1,1.1,1.1h0c0.6,0,1.1-0.5,1.1-1.2c-0.3-7,0.2-13.7-1.9-20.8
						c0-0.1-0.2-0.2-0.3-0.1c-0.6,0.3-0.8,0.4-1.5,0.7c-0.1,0.1-0.2,0.2-0.1,0.3C16.4,22,17.2,24.9,17.3,27.5z"/>
				</g>
				<g>
					<path class="st1" d="M18.4,39.5c0.2,0.2,0.7,0,0.7-0.3c0-0.3-0.3-0.6-0.6-0.5C18.2,38.9,18.1,39.3,18.4,39.5z"/>
				</g>
			</g>
			<g>
				<path class="st1" d="M28.3,48c0.7-0.1,1.2-0.5,1.9-0.8c0.6-0.3,1.4-0.4,2-0.1c0-2-0.3-3.9-0.8-5.8c-0.7,0.7-1.7,0.9-2.6,1.1
					c-4.8,0.9-9.8,0.8-14.8,0.4c0.9,1.5,2.7,2.3,4.5,2.8s3.6,0.6,5.3,1.2c0.8,0.3,1.5,0.7,2.2,0.9C26.7,48,27.5,48.1,28.3,48z"/>
			</g>
			<g>
				<path class="st1" d="M30.7,97.7C30.7,97.7,30.7,97.7,30.7,97.7c0.1,0.3,0.6,0.5,1,0.7c0.6,0.2,1.9,0.5,2.6,0.6h2.1
					c0.6,0,1.2-0.6,1.2-1.2v-0.5c0-0.9-0.4-1.7-1.1-2.3c-0.1-0.1-0.3-0.2-0.4-0.3c-0.4-0.4-0.8-0.9-1.3-1.6
					c-0.6-0.8-0.4-2.2-0.3-3.2c0.1-2.2,0.3-4.6,0.4-6.6h-7.3c0.4,3.9,1,6.7,0.1,10.5c-0.1,0.4,0,2.2,0.4,2.4
					c0.2,0.1,0.7,0.4,0.9,0.4c0.4,0.1,0.5,0.1,0.7,0.2C30.1,96.9,30.4,97.3,30.7,97.7z"/>
			</g>
			<g>
				<path class="st1" d="M17.4,98.1C17.4,98.2,17.4,98.2,17.4,98.1c-0.1,0.3-0.6,0.5-1,0.7c-0.6,0.2-2,0.6-2.7,0.6h-2.2
					c-0.6,0-1.2-0.6-1.2-1.2v-0.5c0-0.9,0.4-1.8,1.1-2.4c0.1-0.1,0.3-0.2,0.4-0.3c0.5-0.4,0.8-0.9,1.4-1.6c0.6-0.8,0.4-2.2,0.3-3.3
					c-0.1-2.3-0.3-4.7-0.4-6.8h7.5c-0.4,4-1,6.9-0.1,10.8c0.1,0.4,0,2.2-0.4,2.5c-0.2,0.1-0.7,0.4-0.9,0.4c-0.4,0.1-0.5,0.1-0.7,0.2
					C18.1,97.3,17.7,97.7,17.4,98.1z"/>
			</g>
		</g>
	</g>
	<g>
		<g>
			<path class="st7" d="M31.3,35.4c0,0-0.1,0-0.1,0.1L31.3,35.4z"/>
		</g>
		<g>
			<g>
				<g>
					<g>
						<g>
							<path class="st8" d="M7.4,10.5c0.2,2.8,7,4.5,15.1,3.9s14.5-3.5,14.3-6.3S24.2,0.4,21.4,0.6S7.1,7.7,7.4,10.5z"/>
						</g>
					</g>
					<g>
						<g>
							
								<ellipse transform="matrix(0.9967 -8.057915e-02 8.057915e-02 0.9967 -0.6807 1.8187)" class="st1" cx="22.2" cy="9.3" rx="13.9" ry="4.8"/>
						</g>
					</g>
				</g>
				<g>
					<path class="st9" d="M10.9,6.2c3.2-0.9,6.6-1.8,10.2-2.2c4.4-0.5,8.4-0.2,12.1,0.8c0.2,0.1,0.4,0.2,0.6,0.4
						C30,4,25.8,3.7,21.2,4.2c-3.7,0.4-7.4,1.3-10.6,2.3C10.7,6.4,10.8,6.3,10.9,6.2z"/>
					<path class="st9" d="M28,3.1c1,0.1,2,0.3,3,0.5c-0.2-0.1-0.5-0.2-0.7-0.3c-0.9-0.2-1.8-0.3-2.7-0.4c-0.5-0.3-1-0.5-1.5-0.8
						c0.5,0,1.1,0,1.6,0.1c-0.2-0.1-0.4-0.1-0.5-0.2c-0.5,0-1,0-1.5,0c-0.9-0.4-1.8-0.7-2.8-0.9l1,0.4C24.3,1.7,24.7,1.8,25,2
						c-0.8,0-1.6,0-2.3,0.1c-0.2-0.3-0.3-0.6-0.5-0.9c0,0-0.1,0-0.1,0c0.1,0.3,0.3,0.6,0.4,0.9c-0.7,0-1.5,0.1-2.2,0.2
						c0.1-0.3,0.3-0.7,0.4-1c-0.2,0.3-0.4,0.7-0.5,1c-0.7,0.1-1.5,0.2-2.2,0.3c0.3-0.2,0.6-0.3,1-0.5c-0.5,0.2-0.9,0.4-1.3,0.6
						c-0.6,0.1-1.3,0.2-1.9,0.4c-0.2,0.1-0.4,0.2-0.5,0.3c0.6-0.1,1.2-0.3,1.8-0.4c-0.5,0.2-0.9,0.4-1.4,0.7
						c-0.4,0.1-0.9,0.1-1.3,0.2C14.1,4,14,4.1,13.8,4.2C14.3,4.1,14.7,4,15.1,4c-0.8,0.5-1.7,1-2.5,1.6c1-0.6,2-1.1,3-1.7
						c1.4-0.2,2.8-0.4,4.2-0.6c-0.1,0.2-0.2,0.5-0.2,0.7c0.1-0.2,0.2-0.5,0.4-0.7c0.5-0.1,1.1-0.1,1.6-0.2C22,3.1,22.6,3,23.1,3
						c0.2,0.3,0.4,0.5,0.6,0.8c-0.1-0.3-0.3-0.5-0.4-0.8c1.5-0.1,3,0,4.3,0.1c0.4,0.2,0.8,0.3,1.2,0.5C28.5,3.4,28.2,3.3,28,3.1z
						 M20.1,2.5c-0.1,0.2-0.2,0.4-0.2,0.6c-1.3,0.1-2.5,0.3-3.8,0.5c0.4-0.2,0.9-0.5,1.3-0.7C18.3,2.7,19.2,2.6,20.1,2.5z M22.6,2.3
						c0.1,0.2,0.2,0.4,0.3,0.6c-0.5,0-1,0-1.5,0.1C21,3,20.5,3,20,3.1c0.1-0.2,0.2-0.4,0.2-0.6C21,2.4,21.8,2.3,22.6,2.3z M27.1,2.9
						c-1.3-0.1-2.6-0.1-3.9-0.1c-0.1-0.2-0.2-0.4-0.3-0.6c0.9-0.1,1.8-0.1,2.6-0.1C26,2.4,26.5,2.6,27.1,2.9z"/>
				</g>
			</g>
			<g>
				<path class="st3" d="M18.4,12.8c-0.2-1-0.3-3.4-0.3-3.4c0.3-0.8,0.9-1.3,1.6-1.6c0.6-0.2,1.2-0.3,1.8-0.3c0.6-0.1,1.2-0.1,1.8,0
					c0.7,0.2,1.5,0.6,1.9,1.3c0,0,0.4,2.4,0.3,3.4c0,0.5-0.1,1.1-0.2,1.6c0.2-2,0-3.8-1.6-5.1C22.9,7.6,19.5,7,18.8,9
					c-0.4,1.8-0.5,3.4-0.1,5C18.6,13.6,18.5,13.2,18.4,12.8z"/>
			</g>
			<path class="st0" d="M17.6,10.6c-0.2-0.7-0.5-1.5-0.5-2.2c0-0.8,0.2-1.6,0.7-2c0,0,0.4-0.2,0.4-0.2c-0.3,0-0.9,0.2-1.2,0.3
				c0.1-0.2,0.3-0.4,0.5-0.5c0.2-0.1,0.5-0.2,0.7-0.2c0.6-0.1,0.9-0.2,1.5-0.2c0.1,0,0.4-0.6,0.7-0.7c0.8-0.4,0.8-0.4,1.3-0.5
				c0.2,0,0.8-0.1,1,0.1c-0.3,0.1-0.6,0.2-0.8,0.3c0.2-0.1,0.5-0.1,0.7,0c0,0,0,0,0,0c0.3-0.1,0.6-0.1,0.9,0c0.5,0.1,1,0.4,1.4,0.8
				c0.3,0.3,0.5,0.7,0.4,1c-0.4-0.6-1-1-1.6-1.2c0.1,0.1,0.1,0.1,0.2,0.2c0.3,0.4,0.9,0.6,1.2,0.9c0.4,0.4,0.7,1,0.8,1.5
				c0.1,0.5,0.2,0.9,0.1,1.4c-0.1,0.5-0.2,0.9-0.3,1.4c-0.1,0.8,0.2,1.7-0.2,2.4c-0.3,0.6-0.5,1-1.1,1.3c-0.7,0.4-1.4,0.6-2.1,1
				c-0.4,0.2-0.9,0.1-1.3,0.2c-0.4,0.1-1.2,0-1.5-0.3c-0.5-0.3-1.2-1-1.4-1.6C17.8,12.4,18,11.7,17.6,10.6z"/>
			<g>
				<g>
					<path class="st2" d="M18.3,11.6c0-0.2-0.2-0.3-0.3-0.4c-0.2,0-0.4,0-0.5,0.2c-0.1,0.1,0,0.3,0,0.5c0.1,0.1,0.1,0.3,0.2,0.4
						c0.1,0.3-0.1,0.7,0,1c0,0.2,0.2,0.4,0.4,0.5c0.2,0.1,0.7,0.2,0.8,0.2C18.8,13,18.4,12.5,18.3,11.6z"/>
				</g>
				<g>
					<path class="st1" d="M18,12.7c0-0.1,0.1-0.2,0.2-0.3c0.1-0.1,0.1-0.2,0.1-0.3c0-0.1,0-0.2,0-0.3c0-0.1-0.1-0.2-0.2-0.2
						c-0.1,0-0.2,0-0.3,0.1c0.1,0.1,0.3,0.2,0.3,0.4c0.1,0.3-0.2,0.5-0.2,0.8c0,0.2,0.2,0.4,0.4,0.5c0.1-0.2,0-0.4-0.1-0.5
						C18,12.8,17.9,12.8,18,12.7z"/>
				</g>
			</g>
			<g>
				<g>
					<path class="st2" d="M25.3,11.1c0.1-0.2,0.4-0.2,0.6-0.1c0.2,0.1,0.4,0.4,0.3,0.7c0,0.1-0.1,0.2-0.1,0.4c0,0.2,0,0.3,0.1,0.5
						c0,0.3,0,0.5-0.2,0.7c-0.2,0.2-0.4,0.5-0.6,0.5c0-0.8,0-1.6,0-2.4C25.2,11.3,25.2,11.2,25.3,11.1z"/>
				</g>
				<g>
					<path class="st1" d="M25.7,12.4c0-0.1-0.1-0.2-0.2-0.3c-0.1-0.1-0.1-0.2-0.1-0.3c0-0.1,0-0.2,0-0.3c0-0.1,0.1-0.2,0.2-0.2
						c0.1,0,0.2,0,0.3,0.1c-0.1,0.1-0.3,0.3-0.3,0.5c0,0.3,0.3,0.5,0.3,0.8c0,0.2-0.2,0.4-0.3,0.6c-0.1-0.2-0.1-0.4,0-0.5
						C25.7,12.6,25.8,12.5,25.7,12.4z"/>
				</g>
			</g>
			<g>
				<path class="st2" d="M18.1,9.3C18.4,8.6,19,8,19.7,7.8c0.6-0.2,1.2-0.3,1.8-0.3c0.6-0.1,1.2-0.1,1.8,0C24,7.6,24.7,8,25.1,8.7
					c0,0,0.4,2.3,0.3,3.2s-0.2,2-0.7,2.8c-0.1,0.2-0.3,0.5-0.5,0.8c-0.5,0.6-1.2,1.1-2,1.1l0,0c-0.8,0.1-1.6-0.2-2.2-0.8
					c-0.2-0.2-0.4-0.5-0.6-0.7c-0.6-0.7-0.9-1.7-1.2-2.7C18.1,11.6,18.1,9.3,18.1,9.3z"/>
			</g>
			<g>
				<path class="st1" d="M22.5,13.1c0.2-0.1,0.3-0.2,0.4-0.2c0.1-0.1,0.2-0.2,0.2-0.3c0.1-0.2-0.1-0.4-0.2-0.5c0,0-0.1,0-0.1,0
					c0,0,0,0.1,0,0.1c0.1,0.2,0.2,0.3,0.2,0.4c0,0.1-0.1,0.2-0.2,0.2c-0.2,0.2-0.4,0.2-0.5,0.2c-0.2,0-0.4-0.1-0.6-0.1
					c-0.1-0.1-0.3-0.1-0.3-0.3c0-0.1,0.1-0.3,0.1-0.4c0,0,0-0.1,0-0.1c0,0-0.1,0-0.1,0c-0.1,0.1-0.2,0.3-0.2,0.5
					c0.1,0.2,0.3,0.3,0.4,0.4c0.2,0.1,0.4,0.2,0.7,0.2C22.4,13.1,22.5,13.1,22.5,13.1z"/>
			</g>
			<g>
				<path class="st0" d="M22.7,7.1c0.7,0.3,1.3,0.8,1.7,1.4c0.1,0,0.2,0,0.2-0.1c0-0.1,0-0.2,0-0.2c-0.2-0.5-0.6-0.8-0.9-1.1
					L22.7,7.1z"/>
			</g>
			<g>
				<path class="st1" d="M24.6,9.4c-0.3-0.3-0.8-0.5-1.3-0.4c-0.1,0-0.2,0-0.3,0c-0.1,0-0.2-0.1-0.2-0.2c0.4-0.2,0.8-0.2,1.2,0
					c0.4,0.1,0.7,0.4,0.9,0.8C24.8,9.6,24.7,9.5,24.6,9.4z"/>
			</g>
			<g>
				<path class="st1" d="M19.1,9.8c0.3-0.4,0.8-0.6,1.2-0.6c0.1,0,0.2,0,0.3,0c0.1,0,0.2-0.1,0.1-0.2c-0.4-0.1-0.8-0.1-1.2,0.1
					c-0.4,0.2-0.6,0.5-0.7,0.9C18.9,10,19,9.9,19.1,9.8z"/>
			</g>
			
				<ellipse transform="matrix(0.9967 -8.057901e-02 8.057901e-02 0.9967 -0.7651 1.9547)" class="st1" cx="23.8" cy="10.5" rx="0.3" ry="0.5"/>
			
				<ellipse transform="matrix(0.9967 -8.057901e-02 8.057901e-02 0.9967 -0.8015 1.6558)" class="st1" cx="20.1" cy="10.8" rx="0.3" ry="0.5"/>
			<path class="st8" d="M23.1,4.5c0,0-1.9,0.1-2.6,0.2c-0.7,0.1,0.3-0.3,0.3-0.3s1.5-0.3,2.1-0.2C23.3,4.3,23.1,4.5,23.1,4.5z"/>
			<path class="st1" d="M22.9,12.1C22.9,12.1,22.9,12.1,22.9,12.1c-0.1,0-0.1-0.1-0.1-0.1c0.1-0.2,0-0.9,0-1.1c0,0,0-0.1,0.1-0.1
				c0,0,0.1,0,0.1,0.1C23,10.9,23.1,11.7,22.9,12.1C23,12.1,22.9,12.1,22.9,12.1z"/>
			<path class="st1" d="M21,14.2c0.8,0.4,1.6,0.4,2.4-0.1c0.1-0.1,0-0.2-0.1-0.2c-0.7,0.4-1.5,0.4-2.2,0.1C21,14,20.9,14.2,21,14.2
				L21,14.2z"/>
		</g>
	</g>
</g>
</svg>
