<?xml version="1.0" encoding="utf-8"?>
<!-- Generator: Adobe Illustrator 22.0.1, SVG Export Plug-In . SVG Version: 6.00 Build 0)  -->
<svg version="1.1" id="圖層_1" xmlns="http://www.w3.org/2000/svg" xmlns:xlink="http://www.w3.org/1999/xlink" x="0px" y="0px"
	 viewBox="0 0 100 55" style="enable-background:new 0 0 100 55;" xml:space="preserve">
<style type="text/css">
	.st0{fill:#F0A755;}
	.st1{fill:#461827;}
	.st2{fill:#5A3B47;}
	.st3{fill:#FF837E;}
	.st4{fill:#B95542;}
	.st5{fill:#FFA097;}
	.st6{fill:#CE5252;}
	.st7{fill:none;stroke:#461827;stroke-width:0.7621;stroke-linecap:round;stroke-miterlimit:10;}
</style>
<g>
	<g>
		<g>
			<g>
				<g>
					<path class="st0" d="M99.8,16.6c2.5,9.5-17.7,23.2-45.2,30.5S2.7,52.8,0.1,43.3s32.4-40.1,42-42.7S97.2,7.1,99.8,16.6z"/>
				</g>
			</g>
			<g>
				<g>
					
						<ellipse transform="matrix(0.9659 -0.2591 0.2591 0.9659 -6.1586 13.9168)" class="st1" cx="49.7" cy="30.3" rx="48.6" ry="16.8"/>
				</g>
			</g>
		</g>
		<g>
			<path class="st2" d="M83,6.7c-11.5,0.6-23.9,1.9-36.2,4.8c-14.9,3.5-27.9,9.2-38.9,16.9c-0.5,0.6-1.1,1.3-1.6,1.9
				C17.7,22,31.3,15.9,47,12.1c12.8-3,25.8-4.3,37.7-4.9C84.1,7.1,83.6,6.9,83,6.7z"/>
			<path class="st2" d="M21.5,19.2c1.1-1,2.1-2,3.2-3c4.4-2,9.1-3.8,14.2-5.4c-0.1,1-0.3,2-0.4,3c0.4-1,0.7-2.1,1-3.2
				c1.7-0.5,3.5-1.1,5.2-1.5c1.8-0.5,3.6-0.9,5.4-1.4c0.6,0.7,1.3,1.3,2,1.9c-0.5-0.7-1-1.3-1.6-2c4.8-1.1,9.6-2.1,14.5-3
				c3.9,0.6,7.9,1.3,11.8,2c-3.3-1-6.6-1.8-10-2.4c1.4-0.2,2.8-0.5,4.3-0.7c-0.6-0.1-1.1-0.2-1.7-0.4c-1.5,0.2-3,0.5-4.5,0.8
				c-1.8-0.3-3.5-0.5-5.3-0.7C61.8,3,63.9,2.7,66,2.5c-0.7-0.1-1.4-0.3-2.1-0.4c-2.3,0.3-4.6,0.6-6.9,1c-1.7-0.1-3.4-0.2-5.1-0.2
				c1.3,0.1,2.5,0.3,3.8,0.5c-2.6,0.5-5.2,1-7.7,1.5c-1-1-2-1.9-3-2.8c0.9,0.9,1.7,1.9,2.6,2.9c-2.5,0.6-5,1.2-7.5,1.9
				c0.2-1.1,0.3-2.2,0.3-3.3c-0.1,0-0.2,0-0.3,0.1c-0.2,1.1-0.4,2.3-0.7,3.5c-2.6,0.7-5.2,1.6-7.7,2.5c1-1,2.1-2,3.1-3l2.8-2.5
				c-2.8,1.8-5.5,3.9-8,6.2c-1.6,0.6-3.3,1.2-4.9,1.9c-0.5,0.4-1,0.9-1.6,1.3c1.7-0.7,3.5-1.4,5.3-2.1c-1.4,1.4-2.8,2.8-4.1,4.3
				c-2.9,1.3-5.7,2.8-8.4,4.3c-0.6,0.6-1.3,1.2-1.9,1.9c2.9-1.8,6-3.4,9.2-5C22.8,17.5,22.1,18.3,21.5,19.2z M58,3.5
				c1.7,0.2,3.4,0.5,5,0.7C58.6,5.1,54.3,5.9,50,7c-0.5-0.6-1-1.1-1.5-1.6C51.7,4.6,54.8,4.1,58,3.5z M48.1,5.5
				c0.5,0.6,1,1.1,1.5,1.6c-1.7,0.4-3.4,0.8-5.1,1.3c-1.7,0.5-3.3,0.9-4.9,1.4c0.2-0.8,0.3-1.5,0.4-2.3C42.7,6.7,45.4,6.1,48.1,5.5z
				 M30.6,10.5c2.9-1,5.8-2,8.7-2.8C39.2,8.5,39.1,9.2,39,10c-4.6,1.4-8.9,3-12.9,4.8C27.6,13.4,29.1,12,30.6,10.5z"/>
		</g>
	</g>
	<g>
		<path class="st3" d="M66.4,37.3c-0.5-3.6-3.1-11.5-3.1-11.5c-1.8-2.2-4.5-3.3-7.2-3.4c-2.1-0.1-4.2,0.3-6.3,1
			c-2.1,0.4-4.1,1.1-6,2.2c-2.2,1.4-4.1,3.7-4.6,6.5c0,0,1.6,8.2,2.9,11.5c0.7,1.7,1.5,3.4,2.4,5c-3-6.2-4.3-12.4-0.8-18.6
			c1.5-4.5,12.1-10.6,16.6-4.5C64,30.7,66,36,66.7,41.7C66.7,40.2,66.6,38.7,66.4,37.3z"/>
	</g>
	<path class="st4" d="M66.3,28.9c0-2.7-0.1-5.4-0.9-8c-0.8-2.5-2.5-4.9-4.8-5.7c-0.2-0.1-1.4-0.2-1.5-0.2c1-0.3,3-0.5,4.1-0.5
		c-0.6-0.7-1.5-1-2.4-1.1c-0.9-0.1-1.8,0-2.7,0.2c-2,0.4-3.2,0.3-5.1,1.2c-0.3,0-2.1-1.3-3-1.4c-3.3-0.5-3.2-0.4-5.1-0.2
		c-0.6,0.1-2.8,0.8-3.1,1.4c1-0.1,2.1-0.1,3.2,0.1c-0.8,0.1-1.7,0.3-2.4,0.7c0,0,0,0,0,0c-1,0.1-2,0.4-2.9,0.9
		c-1.6,0.9-2.9,2.4-3.6,4.2c-0.5,1.2-0.7,2.8,0,3.8c0.7-2.4,2.1-4.4,3.9-5.9c-0.1,0.3-0.3,0.5-0.4,0.8c-0.7,1.5-2.3,3-3,4.5
		c-0.8,1.8-1.2,4.1-1,5.9c0.2,1.7,0.5,3.3,1.3,4.7c0.8,1.4,1.8,2.7,2.4,4.2c1.2,2.6,1.5,5.8,3.4,7.8c1.6,1.6,2.9,2.7,5,2.9
		c2.9,0.4,5.3,0.4,8.2,0.8c1.4,0.2,3-0.7,4.3-0.9c1.4-0.2,3.8-1.4,4.7-2.6c1.2-1.7,2.9-4.7,2.9-6.9C67.7,35.4,66.4,33.2,66.3,28.9z"
		/>
	<g>
		<g>
			<path class="st5" d="M65.2,33c-0.1-0.6,0.1-1.3,0.6-1.7c0.5-0.4,1.3-0.4,1.7,0.1c0.4,0.4,0.5,1,0.5,1.5c0,0.6-0.1,1.1,0,1.7
				c0.2,1.1,1.1,2,1.2,3.1c0.1,0.7-0.2,1.5-0.6,2.1c-0.4,0.6-1.9,1.6-2.4,1.6C65.1,38.3,65.8,36.2,65.2,33z"/>
		</g>
		<g>
			<path class="st1" d="M67.6,36.3c-0.1-0.4-0.6-0.4-0.9-0.7c-0.3-0.2-0.5-0.7-0.6-1c-0.1-0.3-0.2-0.7-0.2-1.1
				c0-0.4,0.2-0.7,0.4-0.9c0.3-0.2,0.8-0.2,1,0.1c-0.3,0.5-0.7,1.1-0.6,1.8c0.2,1,1.4,1.5,1.6,2.5c0.2,0.7-0.2,1.5-0.6,2.2
				c-0.4-0.5-0.5-1.2-0.3-1.8C67.5,37,67.7,36.6,67.6,36.3z"/>
		</g>
	</g>
	<g>
		<g>
			<path class="st5" d="M41.8,39.8c-0.6-0.5-1.5-0.2-2,0.3c-0.6,0.7-0.7,1.9-0.1,2.7c0.3,0.4,0.6,0.7,0.9,1.1
				c0.3,0.5,0.3,1.1,0.4,1.6c0.2,0.9,0.8,1.7,1.5,2.1c0.8,0.5,1.8,1.1,2.7,0.9c-0.9-2.5-1.9-5.4-2.8-7.9C42.1,40.4,42,40,41.8,39.8z
				"/>
		</g>
		<g>
			<path class="st1" d="M41.6,44.6c-0.1-0.4,0.3-0.7,0.4-1.1c0.1-0.4,0-0.8-0.1-1.2c-0.1-0.3-0.2-0.7-0.4-1
				c-0.2-0.3-0.5-0.5-0.9-0.5c-0.4,0-0.7,0.3-0.8,0.6c0.6,0.3,1.2,0.6,1.5,1.2c0.4,0.9-0.3,2,0.1,3c0.3,0.7,1,1.1,1.7,1.5
				c0.1-0.6-0.2-1.3-0.7-1.7C42.1,45.1,41.7,44.9,41.6,44.6z"/>
		</g>
	</g>
	<g>
		<path class="st5" d="M63.2,25.4c-1.8-2.1-4.5-3.1-7.1-3.2c-2.1-0.1-4.2,0.4-6.3,1c-2.1,0.4-4.1,1.1-6,2.2
			c-2.2,1.4-4.1,3.5-4.7,6.2c0,0,1.5,7.8,2.8,11s2.9,6.3,5.5,8.5c0.8,0.6,1.6,1.4,2.5,2c2.3,1.6,5.2,2.1,7.9,1.4l0.1,0
			c2.7-0.7,5.1-2.6,6.3-5c0.5-1,0.9-2.1,1.3-3c1.2-3.1,1.1-6.7,0.7-10.1C65.7,32.9,63.2,25.4,63.2,25.4z"/>
	</g>
	<g>
		<path class="st1" d="M53,43c-0.6,0-1.2-0.2-1.6-0.3c-0.4-0.1-0.8-0.3-1.1-0.7c-0.4-0.5-0.1-1.5,0-1.9c0-0.2,0.2-0.2,0.4-0.2
			c0.2,0,0.2,0.2,0.2,0.4c-0.2,0.7-0.2,1.2-0.1,1.4c0.2,0.2,0.5,0.4,0.8,0.5c0.8,0.3,1.4,0.4,2,0.2c0.7-0.2,1.3-0.7,1.8-1.2
			c0.4-0.4,0.8-0.8,0.8-1.2c0-0.4-0.5-0.8-0.9-1c-0.1-0.1-0.2-0.3-0.1-0.4c0.1-0.1,0.3-0.2,0.4-0.1c0.6,0.4,1.1,0.8,1.2,1.5
			c0.1,0.8-0.6,1.4-1,1.7c-0.5,0.5-1.2,1.1-2,1.3C53.5,43,53.2,43,53,43z"/>
	</g>
	<g>
		<path class="st4" d="M45.4,23.7c-2,1.7-3.3,4-3.8,6.5c-0.2,0.2-0.6,0.1-0.8-0.2c-0.2-0.2-0.2-0.5-0.2-0.8c0-1.7,0.9-3.3,1.8-4.8
			L45.4,23.7z"/>
	</g>
	<g>
		<path class="st1" d="M41.9,33.4c0.7-1.5,2.1-2.6,3.8-2.9c0.3-0.1,0.7-0.1,0.9-0.2c0.3-0.2,0.5-0.6,0.3-0.8
			c-1.4-0.1-2.8,0.3-3.9,1.3c-1.1,0.9-1.8,2.2-1.9,3.6C41.5,34.2,41.7,33.7,41.9,33.4z"/>
	</g>
	<g>
		<path class="st1" d="M60.6,28.2c-1.4-0.9-3.2-1.1-4.7-0.5c-0.3,0.1-0.6,0.3-0.9,0.3c-0.3,0-0.7-0.2-0.7-0.6c1.1-0.8,2.6-1.2,4-0.9
			c1.4,0.2,2.7,1,3.5,2.1C61.3,28.7,60.9,28.4,60.6,28.2z"/>
	</g>
	<g>
		<path class="st6" d="M50.1,45.9c1.3,0.5,2.8,0.3,4.1,0c2.4-0.5,4.2-1.2,5.9-2.8c0.4,1.3,0.3,3.1-0.3,4.4c-0.7,1.5-3.1,2.8-4.9,2.8
			c-2.5,0.1-4.7-2.2-5-4.4"/>
		<g>
			<path class="st6" d="M50,46.3c3.5,1,7.8-0.6,10.5-2.9c-0.2-0.1-0.5-0.1-0.7-0.2c0.8,3-0.7,5.6-3.7,6.4c-2.8,0.7-5.2-1.2-5.7-3.9
				c-0.1-0.5-0.9-0.3-0.8,0.2c0.6,3.2,3.6,5.4,6.8,4.5c3.5-1,5.1-4,4.3-7.5c-0.1-0.3-0.5-0.4-0.7-0.2c-2.4,2-6.5,3.6-9.6,2.7
				C49.7,45.3,49.5,46.1,50,46.3L50,46.3z"/>
		</g>
	</g>
	<ellipse transform="matrix(0.9659 -0.2591 0.2591 0.9659 -7.4799 12.9939)" class="st1" cx="45.6" cy="34.9" rx="1.1" ry="1.8"/>
	<ellipse transform="matrix(0.9659 -0.2591 0.2591 0.9659 -6.1123 15.931)" class="st1" cx="57.4" cy="31.2" rx="1.1" ry="1.8"/>
	<path class="st0" d="M41.1,15.3c0,0,6.4-1.8,8.9-2.4c2.4-0.5-1.2-0.8-1.2-0.8s-5.4,0.7-7,1.8S41.1,15.3,41.1,15.3z"/>
	<path class="st7" d="M49.4,36.2c0,0,0.6,2.8,1.2,3.7"/>
</g>
</svg>
