<?xml version="1.0" encoding="utf-8"?>
<!-- Generator: Adobe Illustrator 22.0.1, SVG Export Plug-In . SVG Version: 6.00 Build 0)  -->
<svg version="1.1" id="圖層_1" xmlns="http://www.w3.org/2000/svg" xmlns:xlink="http://www.w3.org/1999/xlink" x="0px" y="0px"
	 viewBox="0 0 150 140" style="enable-background:new 0 0 150 140;" xml:space="preserve">
<style type="text/css">
	.st0{fill-rule:evenodd;clip-rule:evenodd;fill:#FFC4B2;}
	.st1{fill-rule:evenodd;clip-rule:evenodd;fill:#F2A19B;}
	.st2{fill:#ED8C82;}
	.st3{fill-rule:evenodd;clip-rule:evenodd;fill:#4BA8BF;}
	.st4{fill-rule:evenodd;clip-rule:evenodd;fill:#FFFFFF;}
	.st5{fill-rule:evenodd;clip-rule:evenodd;fill:#3780A2;}
	.st6{fill-rule:evenodd;clip-rule:evenodd;fill:#655B80;}
	.st7{fill-rule:evenodd;clip-rule:evenodd;fill:#4C466A;}
	.st8{fill-rule:evenodd;clip-rule:evenodd;fill:#0B91CE;}
	.st9{fill-rule:evenodd;clip-rule:evenodd;fill:#106EB4;}
	.st10{fill-rule:evenodd;clip-rule:evenodd;fill:#ED8C82;}
	.st11{fill:#461827;}
	.st12{fill:#CE5252;}
	.st13{fill-rule:evenodd;clip-rule:evenodd;fill:#4A385A;}
	.st14{fill-rule:evenodd;clip-rule:evenodd;fill:url(#SVGID_1_);}
	.st15{fill-rule:evenodd;clip-rule:evenodd;fill:url(#SVGID_2_);}
	.st16{fill-rule:evenodd;clip-rule:evenodd;fill:#3F8D9F;}
	.st17{fill:#F0A755;}
	.st18{fill:#E59545;}
	.st19{fill:#5A3B47;}
</style>
<g>
	<g>
		<path class="st0" d="M24.1,78.1c0,0-1.6,4-2.2,8c-0.6,4-1.4,21.5-1.8,24.3c-0.4,2.8-3.2,8-3.3,9.1c-0.2,1.1,1.7,6.2,1.8,6.6
			c0.1,0.3,0.7,0.3,0.7,0.3s-0.2,1.5,1,1.8c1.2,0.3,2.2-0.9,2.9-3.7l6.2-5c0,0,1.3-1.1,0.5-4.1c0,0,2.9-3.9-0.1-9.3l4.7-19.5
			c0,0,0.2-0.7,0.5-1.2c0.3-0.5,2.2-3.3,2.2-3.3L24.1,78.1z"/>
	</g>
	<g>
		<path class="st1" d="M24.1,78.1c0,0-0.5,1.2-1.1,3c1.4,1.4,5.4,4.8,11.5,5.3c0.1-0.2,0.2-0.6,0.4-0.8c0.3-0.5,2.2-3.3,2.2-3.3
			L24.1,78.1z"/>
	</g>
	<g>
		<path class="st1" d="M29.7,106.2l1.3-5.3c-2,1.9-5.1,4.8-5.2,4.9c-0.2,0.1-0.4,0.5-0.4,0.8c0.1,0.3,0.4,0.3,0.4,0.3L29.7,106.2z"
			/>
	</g>
	<g>
		<path class="st2" d="M19.3,126.6C19.3,126.6,19.3,126.6,19.3,126.6c-0.1,0-0.2-0.1-0.2-0.2l0.4-7.4l0.9-6.2c0-0.1,0.1-0.2,0.2-0.2
			c0.1,0,0.2,0.1,0.2,0.2l-0.9,6.2l-0.4,7.4C19.5,126.5,19.4,126.6,19.3,126.6z M23.1,124.7C23.1,124.7,23.1,124.7,23.1,124.7
			c-0.2,0-0.2-0.1-0.2-0.2l1.2-4.7c0,0,0-0.1,0-0.1c0,0,4.1-4.4,3.4-9.4c0-0.1,0.1-0.2,0.2-0.2c0.1,0,0.2,0.1,0.2,0.2
			c0.3,2.6-0.6,5.1-1.6,6.9l3.4-1.9c0.1-0.1,0.2,0,0.3,0.1c0.1,0.1,0,0.2-0.1,0.3l-1.8,1c0.3,0.5,0.9,1.8-0.2,4.2
			c0,0.1-0.2,0.1-0.3,0.1c-0.1,0-0.1-0.2-0.1-0.3c1-2.3,0.4-3.5,0.2-3.8l-1.8,1c0,0.1-0.1,0.1-0.1,0.2c0.3,0.4,1,1.6-0.1,4.6
			c0,0.1-0.2,0.2-0.3,0.1c-0.1,0-0.2-0.1-0.1-0.3c0.9-2.6,0.5-3.7,0.3-4.1c-0.6,0.9-1.1,1.4-1.2,1.6l-1.2,4.6
			C23.3,124.6,23.2,124.7,23.1,124.7z"/>
	</g>
	<g>
		<path class="st3" d="M36.5,43.2c0,0-2.8,3-4.6,7.3c-1.8,4.2-4.2,11.7-4.2,11.7s-1.1,0.7-1.2,1.8c0,0-7.5,10.2-8,11.1
			c-0.4,0.9,5.2,6.7,10.1,8c5,1.3,8.4,0.7,9.7,0.2c1.3-0.5,7-14.8,7-14.8s4.6-8.4,5.1-9.1c0.4-0.7,1.7-0.9,2.1-0.5L54,44.8
			L36.5,43.2z"/>
	</g>
	<g>
		<path class="st4" d="M20.2,72.6c-0.9,1.3-1.6,2.2-1.7,2.5c-0.4,0.9,5.2,6.7,10.1,8c5,1.3,8.4,0.7,9.7,0.2c0.4-0.2,1.1-1.5,2-3.2
			c-3.5,0.3-8.2,0.3-11.6-1.1C25,77.3,21.9,74.4,20.2,72.6z"/>
	</g>
	<g>
		<path class="st5" d="M36.5,43.2c0,0-1.7,1.9-3.3,4.7c0.9,1,2,2.1,2.9,2.8c2,1.4,6.4,4.3,6.4,4.3s5.3,3,4.7,10.3
			c1.4-2.5,3.1-5.5,3.3-6c0.4-0.7,1.7-0.9,2.1-0.5l1.3-13c-0.9-0.5-1.8-0.9-2.8-1.4L36.5,43.2z"/>
	</g>
	<g>
		<path class="st6" d="M73.1,110.7l-4.5,3l0.8,25.7h13.7c0,0,1-10.3,2.1-15.6c1.1-5.4,1.5-11.3,1.2-13.5
			C86,108.1,73.1,110.7,73.1,110.7z"/>
	</g>
	<g>
		<path class="st7" d="M73.1,110.7l-4.5,3l0.5,15.8c2.4-1.3,7.2-4.5,9.6-10.1c0,0,4.1-1,7.6-3.4c0.2-2.5,0.3-4.5,0.1-5.6
			C86,108.1,73.1,110.7,73.1,110.7z"/>
	</g>
	<g>
		<path class="st6" d="M118.7,112c-0.4,2.1-6,7.3-6,7.3l6.1,20.1h19.4c0,0,0.3-20.1-2.4-28C133.1,103.5,118.7,112,118.7,112z"/>
	</g>
	<g>
		<path class="st7" d="M118.7,112c-0.4,2.1-6,7.3-6,7.3l2.8,9.2c4.4-0.6,16.4-3.1,21.4-12.7c-0.3-1.7-0.6-3.2-1.1-4.4
			C133.1,103.5,118.7,112,118.7,112z"/>
	</g>
	<g>
		<path class="st8" d="M99.2,80.6l-12.3,23.6c0,0,0.6,0.3,0.1,1.4c0,0,0.4,3.1,0.5,4.3c0,1.2-5,4.8-9.3,6c-4.3,1.2-8.9-1.6-10-2.5
			c-1.1-0.9-0.7-11.7-0.7-14.3c0-2.7,5.4-20.6,5.7-22.2c0.3-1.6,0.5-5.2,0.5-5.2L99.2,80.6z"/>
	</g>
	<g>
		<path class="st9" d="M99.2,80.6l-12.3,23.6c0,0,0.6,0.3,0.1,1.4c0,0,0.4,3.1,0.5,4.3c0,1.2-5,4.8-9.3,6c-1.4,0.4-2.8,0.3-4.2,0.1
			l15.8-18.3l-3.8-11c0,0-10.8-7.6-11.8-8.3c-1-0.7-1.4,0.5-1.5,0.6c0.3-1.1,0.5-1.9,0.6-2.2c0.3-1.6,0.5-5.2,0.5-5.2L99.2,80.6z"/>
	</g>
	<g>
		<path class="st8" d="M132.5,52.7c0,0,3.8,2.7,3.5,9.6c-0.4,6.9-4.3,30.4-4.3,30.4s0.9,0.9,0.6,2.4c0,0,4.6,10.8,4.9,12.9
			c0.3,2.1-3.1,7.5-10.2,10.8c-7,3.3-14.8,0.7-16.3-0.6c-1.4-1.3-4.8-14.5-5.3-18.9c-0.6-4.4-0.7-19-1.8-21.6
			C102.5,75.1,132.5,52.7,132.5,52.7z"/>
	</g>
	<g>
		<path class="st9" d="M132.5,52.7c0,0,2.5,1.8,3.3,6.1c-2.1,1.2-4.8,4.2-10.6,12.6c-6.8,9.8-15,13-15,13l-4.7,15.7
			c0-0.3-0.1-0.5-0.1-0.8c-0.6-4.4-0.7-19-1.8-21.6C102.5,75.1,132.5,52.7,132.5,52.7z"/>
	</g>
	<g>
		<path class="st3" d="M58.9,25.7c0,0,8.4-6.5,27.2-2.9c36.2-6.8,37.9,11.5,51.3,31.7c0,0,0.4,0.6-0.1,1.3
			c-0.5,0.7-8.3,4.5-14.2,10.8c-5.9,6.3-18.5,20.5-36.6,13.3c-18.1-7.2-12.2-12.4-12.2-12.4s-1-0.3-1.2-1c0,0-11.2-2.8-17.2-5.7
			c-5.2-2.5-8.6-8.7-8.6-8.7L58.9,25.7z"/>
	</g>
	<g>
		<path class="st5" d="M58.9,25.7c0,0,5.8-4.5,18.4-4l-6.7,2.5c0,0-1.4,0.9-1.6,1.9c-0.2,1-3.4,19.9-4.9,25.5
			c-1.4,5.6-9.6,4-14.4,3.8c-1.6-1.9-2.6-3.3-2.6-3.3L58.9,25.7z"/>
	</g>
	<g>
		<path class="st5" d="M86.1,22.8c3.4-0.6,6.4-1,9.2-1.3c1.6,1.2,4.2,3.1,4.5,3.3c0.4,0.2,0.6,0.5,0.5,0.9c-0.1,0.4-0.5,0.4-0.5,0.4
			L86.1,22.8z"/>
	</g>
	<g>
		<path class="st5" d="M122.2,67.4c-6.2,6.6-18.5,19.4-35.9,12.5c-18.1-7.2-12.2-12.4-12.2-12.4s-1-0.3-1.2-1c0,0,4.2,0,7.7,0
			c3.5,0,4.5-3.9,4.5-3.9l22.7-0.4l7.7,3.6C115.5,65.9,118.6,67.6,122.2,67.4z"/>
	</g>
	<g>
		<path class="st4" d="M135.7,51.9c0.5,0.9,1.1,1.7,1.7,2.6c0,0,0.4,0.6-0.1,1.3c-0.5,0.7-8.3,4.5-14.2,10.8
			c-5.9,6.3-18.5,20.5-36.6,13.3C72,74.2,72.7,69.8,73.6,68.2c0,0,0.7,1.7,3.9,3.8c3.3,2.1,8.6,5.5,19.6,5.7
			c11,0.2,18.9-10.9,24.6-16.1C126.7,57.1,131.4,53.5,135.7,51.9z"/>
	</g>
	<g>
		<path class="st10" d="M32.7,33.8c0,0-1.7-1.3-2.6-1.1c-1,0.2-1.9,2.5-1.6,4.1c0.4,1.6,3,6.8,5.9,4.3
			C37.4,38.5,32.7,33.8,32.7,33.8z"/>
	</g>
	<g>
		<path class="st3" d="M122.2,67.4c-6.2,6.6-18.5,19.4-35.9,12.5C72,74.2,72.7,69.8,73.6,68.2c0,0,0.7,1.7,3.9,3.8
			c3.3,2.1,8.6,5.5,19.6,5.7c8.2,0.1,14.6-6,19.8-11.3C118.1,67,120.1,67.5,122.2,67.4z"/>
	</g>
	<g>
		<path class="st0" d="M62,29.9c0,0,1.3-1.7,2.3-1.8c1,0,2.5,1.9,2.6,3.5c0.1,1.6-1.1,7.4-4.6,5.7C58.7,35.6,62,29.9,62,29.9z"/>
	</g>
	<g>
		<path class="st10" d="M61,31.8c-0.1,0.1-0.1,0.3,0,0.4c0.1,0.1,0.2,0.1,0.3,0l0,0c0,0,1.5,4.8,2.1,3.9c0.6-0.9,1.3-1.7,1.5-3
			c0.1-1.3-1.1-2.3-0.7-2.6c0.3-0.4,0.8,0.1,0.9,0.1l0,0l0,0v0c0.4,0.4,0.6,0.9,0.6,0.9c0.1,0.1,0.2,0.2,0.3,0.1
			c0.1-0.1,0.2-0.3,0.1-0.4c0,0-0.8-1.8-2.2-1.6C62.5,29.8,61,31.8,61,31.8z"/>
	</g>
	<g>
		<path class="st0" d="M43.7,10.4c-20.2,3.1-15,18.4-11.5,30.8c1.5,5.2,4.9,8,4.9,8s6.4,4.2,8.5,5c1.3,0.5,2.8,0.5,4.2,0.3
			c1.5-0.2,2.9-0.7,4-1.5c1.8-1.3,6.8-7.1,6.8-7.1s2.5-3.6,2.5-9C63.2,23.9,64,7.8,43.7,10.4z"/>
	</g>
	<g>
		<g>
			<path class="st11" d="M49.6,29.8c-1.8-0.5-3.9-0.2-5.5,0.9c-0.3,0.2-0.6,0.5-1,0.5c-0.4,0.1-0.8,0-0.9-0.4
				c1.1-1.2,2.7-1.9,4.3-2.1c1.6-0.2,3.2,0.2,4.4,1.1C50.6,30.2,50,30,49.6,29.8z"/>
		</g>
		<g>
			<path class="st11" d="M36.8,34.4c0.3-0.2,0.8-0.1,1.1-0.3c0.3-0.2,0.6-0.6,0.4-0.9c-1.6-0.1-3.3,0.5-4.6,1.4
				C32.4,35.6,34,35.7,36.8,34.4z"/>
		</g>
		<ellipse transform="matrix(0.9659 -0.2591 0.2591 0.9659 -7.5654 13.6521)" class="st11" cx="48" cy="35.5" rx="1.2" ry="1.9"/>
		<ellipse transform="matrix(0.9659 -0.2591 0.2591 0.9659 -8.6219 11.7249)" class="st11" cx="40.2" cy="38.6" rx="1.1" ry="1.7"/>
		<g>
			<path class="st11" d="M43.4,45.7c0.2,0,0.3,0,0.5,0l4.4-0.3c0,0,0.4,0,0.4-0.5c0-0.4-0.4-0.4-0.4-0.4l-4.4,0.3
				c-0.5,0-1,0-1.2-0.2c-0.2-0.2-0.3-0.5-0.3-0.9l-0.5-5.4c-0.1-1-0.2-2.1-0.8-3c-0.6-1.1-1.2-0.3-0.7,0.4c0.5,0.8,0.6,1.8,0.6,2.7
				l0.5,5.4c0,0.4,0.1,1,0.6,1.5C42.4,45.6,42.9,45.7,43.4,45.7z"/>
		</g>
		<g>
			<path class="st12" d="M53.1,45.9c0.4,1.1-0.4,4-1.4,4.6c-1,0.6-2.7,0.9-4,0.8c-1.3-0.1-2-1.7-3.2-2.9
				C47.4,47.9,50.3,47,53.1,45.9z"/>
		</g>
	</g>
	<g>
		<path class="st1" d="M63.1,27.9c-0.1-1-0.1-2-0.3-3c-1.7-3.3-6.5-7.1-6.5-7.1l-17.3,6.5c0,0-6.1,9.6-6.1,9.8c0,0,1.5,1.9,7.1-3.2
			c5.6-5.2,8.1-10.6,12.1-11.1c0,0-0.1,10.8,8.3,9.4C61.9,29,62.7,28.5,63.1,27.9z"/>
	</g>
	<g>
		<path class="st6" d="M59.8,29c-2.5-0.4-5.5-2.6-7.7-9.3C43.2,20.9,37,40.1,29.8,33.3l0-0.3c-0.4,0.3-0.6,0.4-0.6,0.5
			C10.6,18.5,52-12,57.8,10c4.7-0.3,6.6,3,7.2,7.1l3.4,0.9c0,0,1.3,0.8-0.9,5.1L66,29.5l-0.6-0.8l0-0.1v0.1l0,0l0,0c0,0,0,0,0,0
			c-1.9-1.6-2.1,4.7-2.1,4.7C61.2,33,60.2,30.5,59.8,29z"/>
	</g>
	<g>
		<path class="st7" d="M55.7,26.6c-1.3-1.4-2.5-3.6-3.6-6.9c-0.1,0-0.3,0-0.4,0.1l-0.5-5.1c0,0,8,0.4,13.6,1
			c0.1,0.5,0.2,0.9,0.3,1.4l3.4,0.9c0,0,1.3,0.8-0.9,5.1c-0.3-1.8-2.3-1.4-2.3-1.4s-6.3,0.2-8.4,0.8C54.8,23,55.7,26.6,55.7,26.6z"
			/>
	</g>
	<g>
		<path class="st6" d="M31.5,31.5L30.9,37c0,0-1.3-4.4-2.1-3.9l-0.1-1.5C28.8,31.6,31.6,31.5,31.5,31.5z"/>
	</g>
	<g>
		<path class="st13" d="M53.3,3.2c2,1.4,3.6,3.6,4.5,6.8c-0.2,0.1-3,1.2-2.9,4.2C54.9,14.1,50.5,7.6,53.3,3.2z"/>
	</g>
	<g>
		<path class="st7" d="M53.6,17.6c0,0-0.8,0.2-2.3,0.5c1.3-1.6,3.3-4.1,5-6.2c2.1-0.4,4.3-0.9,6.4-1.5c0.6,1.5,1,2.7,1.4,3.7
			L53.6,17.6z"/>
	</g>
	<g>
		<path class="st7" d="M32.1,31.5c1.1-0.2,2.2-0.7,3.4-1.3c5.3-3.1,10.6-8.4,13.6-9.3c-1.4,0.4-2.4,0.7-2.4,0.7c0,0,0.1-0.1,0.1-0.1
			c-1.3,0.7-2.7,1.5-4.2,2.3c-1.5,0.8-3.1,1.7-4.8,2.6c-2.6,1.3-5.4,2.6-8.5,3.4c0,0,0,0,0,0c-1,0.3-2,0.4-3.1,0.6
			c0.3,0.4,0.6,0.9,1,1.3c0.5,0.1,1,0.2,1.6,0.2c0.3,0,0.5,0,0.8,0c0,0,0.1,0,0.1,0c0.6,0,1.2-0.1,1.8-0.2
			C31.7,31.5,31.9,31.5,32.1,31.5z"/>
	</g>
	<g>
		<path class="st0" d="M84.9,93.5c0,0-11.7,11.4-12.1,11.8l6.5,8.7l16.8-14.6L84.9,93.5z"/>
	</g>
	<g>
		<path class="st1" d="M84.9,93.5L83.4,95c1.2,0.9,4,3.1,6.1,4.9c1.1,0.9,2.4,1.6,3.6,2.1l3-2.6L84.9,93.5z"/>
	</g>
	<g>
		<path class="st3" d="M74.9,34.5c0,0-4.5,4.8-2.6,10.7c2,5.9,16.6,24.7,16.6,24.7s-1.5,2.3,0.1,4.6l-7.2,17.5c0,0-0.3,0.7,0.2,1.3
			c0.5,0.6,8.5,4.9,12.1,6.2c3.5,1.3,8.6,0.8,9.4,0.4c0.8-0.4,1.2-0.7,1.3-1.4c0.1-0.8,3.4-17.8,3.8-20c0.4-2.2,1.7-7.9,0.3-12.8
			c-1.4-4.9-7.2-19.6-8.7-23.8c-1.5-4.2-2-7-2.2-8.3C97.9,33.5,83.9,25.6,74.9,34.5z"/>
	</g>
	<g>
		<path class="st4" d="M82.9,89.1l-1.2,2.8c0,0-0.3,0.7,0.2,1.3c0.5,0.6,8.5,4.9,12.1,6.2c3.5,1.3,8.6,0.8,9.4,0.4
			c0.8-0.4,1.2-0.7,1.3-1.4c0-0.2,0.2-1.1,0.5-2.6c-4.3,0.9-7.8,0.6-10.8-0.5C90.4,93.9,82.9,89.1,82.9,89.1z"/>
	</g>
	<g>
		<g>
			<linearGradient id="SVGID_1_" gradientUnits="userSpaceOnUse" x1="9.094947e-13" y1="116.4902" x2="25.851" y2="116.4902">
				<stop  offset="2.666300e-02" style="stop-color:#3EC5A4"/>
				<stop  offset="1" style="stop-color:#188182"/>
			</linearGradient>
			<path class="st14" d="M19.1,104.3C19.1,104.3,19.1,104.3,19.1,104.3L19.1,104.3L19.1,104.3z M0.3,105C0.3,105,0.3,105,0.3,105
				L0.3,105L0.3,105z M5.9,116.6C5.9,116.6,5.9,116.6,5.9,116.6L5.9,116.6L5.9,116.6z M13.7,103.4C13.7,103.4,13.7,103.4,13.7,103.4
				L13.7,103.4L13.7,103.4z M13.6,113.2c-2.5-3.1-6.4-6.6-12.9-9.1c-0.3-0.1-0.5,0-0.6,0.3c-0.1,0.2,0,0.5,0.2,0.6
				c0.4,0.2,7.1,4.1,14.4,13.5c-2.3-1.2-5.2-2.2-8.5-2.9c-0.3-0.1-0.5,0.1-0.6,0.4c0,0.2,0.1,0.5,0.3,0.6c0.4,0.1,6.1,2.3,13.5,8.2
				l0.4-6.1l0.4-2.9c-1.5-6.8-1.1-11.1-1-11.5c0-0.2-0.1-0.5-0.4-0.5c-0.3-0.1-0.6,0.1-0.7,0.3c-1.3,4.6-1.4,8.4-0.9,11.6
				c-2.9-7.1-3.4-12-3.4-12.3c0-0.3-0.2-0.5-0.5-0.5c-0.3,0-0.5,0.2-0.5,0.5C12.5,107.2,12.9,110.5,13.6,113.2L13.6,113.2z M23,125
				l0.1,0.3c0.8,1,1.3,1.8,1.8,2.5c0.2,0.3,1.3,1.9,0.9,2.2c-0.1,0.1-0.3,0.2-0.5,0.1l0,0c-0.1,0-0.2-0.1-0.2-0.2
				c-1-1-1.9-1.9-2.9-2.8C22.3,126.9,22.7,126.1,23,125z"/>
		</g>
	</g>
	<g>
		<g>
			<linearGradient id="SVGID_2_" gradientUnits="userSpaceOnUse" x1="40.9029" y1="108.923" x2="66.022" y2="125.9763">
				<stop  offset="2.666300e-02" style="stop-color:#3EC5A4"/>
				<stop  offset="1" style="stop-color:#188182"/>
			</linearGradient>
			<path class="st15" d="M49.1,106.4C49.1,106.4,49.1,106.4,49.1,106.4L49.1,106.4L49.1,106.4z M55,106C55.1,106,55.1,106,55,106
				L55,106L55,106z M53.9,128.2C53.9,128.1,53.9,128.1,53.9,128.2L53.9,128.2L53.9,128.2z M38,121.5C38,121.5,38,121.5,38,121.5
				L38,121.5L38,121.5z M50.6,124.4C50.6,124.3,50.7,124.3,50.6,124.4L50.6,124.4L50.6,124.4z M45,110C45.1,110.1,45.1,110.1,45,110
				L45,110L45,110z M52.8,116.2c-4,0-9.2,0.9-15.2,4.4c-0.2,0.1-0.3,0.4-0.2,0.7c0.1,0.2,0.4,0.3,0.6,0.2c0.4-0.2,7.7-3,19.6-2.8
				c-2.4,1.1-4.9,2.7-7.6,4.9c-0.2,0.2-0.2,0.5-0.1,0.7c0.2,0.2,0.4,0.2,0.7,0.1c0.3-0.2,3.7-2.2,9.9-4.1c-2.5,1.6-5,3.8-7.4,7.2
				c-0.2,0.2-0.1,0.5,0.2,0.7c0.2,0.2,0.5,0.2,0.7,0c0.3-0.3,6.4-6.2,19.2-9.9l0.2,0c0.4,0,2.2,0.3,2.4-0.2c0.1-0.2,0-0.4-0.1-0.5
				l0,0c-0.1-0.1-0.2-0.1-0.3-0.1C62.1,112.8,55.4,106.3,55,106c-0.2-0.2-0.5-0.2-0.7-0.1c-0.2,0.2-0.3,0.5-0.1,0.7
				c2.7,3.5,5.4,6,8,7.7c-8.7-3.5-12.9-7.6-13.1-7.8c-0.2-0.2-0.5-0.2-0.7,0c-0.2,0.2-0.3,0.5-0.2,0.7c2.8,3.9,5.8,6.3,8.6,7.9
				c-7.4-2.2-11.5-4.8-11.8-5c-0.2-0.1-0.5-0.1-0.7,0.1c-0.2,0.2-0.2,0.5,0.1,0.7C47.4,113.3,50.2,115.1,52.8,116.2z"/>
		</g>
	</g>
	<g>
		<path class="st0" d="M77.5,104.4c-0.7,0-4.7,0.8-4.7,0.8s-1,0.5-2.5,0.8c-1.5,0.3-2.6,0.5-3.3,1.2c-0.7,0.7-4.2,4.3-4.2,4.3
			l2.2,1.7c0,0,1.1,0.7,1,2.7c-0.1,2-1.5,4.9-2.5,5.9l-2.5,1.3c0,0,0.6,0.8,1.3,1.1c0.6,0.2,1.6,0.3,1.6,0.3s1.1,0.5,2.3,0.8
			c1.2,0.3,1.8,0.3,2.5,0c0.7-0.2,5-3.2,5.9-4.3c1-1.1,3.6-6,4.8-7.2L77.5,104.4z"/>
	</g>
	<g>
		<path class="st2" d="M66.1,125.6c-0.1,0-0.2,0-0.2-0.1c0-0.1,0-0.2,0.1-0.3c0,0,1.4-0.6,2.2-1.2c0.8-0.6,3.4-3.6,3.4-3.6
			c0.1-0.1,0.2-0.1,0.3,0c0.1,0.1,0.1,0.2,0,0.3c-0.1,0.1-2.6,3-3.4,3.6C67.6,125.1,66.2,125.6,66.1,125.6
			C66.1,125.6,66.1,125.6,66.1,125.6z M63.7,124.8c-0.1,0-0.2-0.1-0.2-0.2c0-0.1,0.1-0.2,0.2-0.2c0,0,1-0.1,1.9-0.9
			c0.9-0.8,3.3-5.3,3.4-5.3c0.1-0.1,0.2-0.1,0.3-0.1c0.1,0.1,0.1,0.2,0.1,0.3c-0.1,0.2-2.5,4.6-3.5,5.4
			C64.9,124.7,63.8,124.8,63.7,124.8C63.8,124.8,63.8,124.8,63.7,124.8z"/>
	</g>
	<g>
		<g>
			<path class="st16" d="M149.2,127.1C149.2,127.1,149.2,127.1,149.2,127.1L149.2,127.1L149.2,127.1z M149.8,133
				C149.8,133,149.8,133,149.8,133L149.8,133L149.8,133z M127.5,132.6C127.5,132.6,127.5,132.6,127.5,132.6L127.5,132.6L127.5,132.6
				z M133.6,116.5C133.7,116.5,133.7,116.6,133.6,116.5L133.6,116.5L133.6,116.5z M131.2,129.2C131.2,129.2,131.2,129.2,131.2,129.2
				L131.2,129.2L131.2,129.2z M145.4,123.2C145.4,123.2,145.4,123.2,145.4,123.2L145.4,123.2L145.4,123.2z M139.4,131
				c-0.1-4-1.2-9.1-4.9-15c-0.1-0.2-0.5-0.3-0.7-0.2c-0.2,0.1-0.3,0.4-0.2,0.6c0.2,0.4,3.3,7.6,3.5,19.4c-1.2-2.3-2.8-4.8-5.1-7.4
				c-0.2-0.2-0.5-0.2-0.7,0c-0.2,0.2-0.2,0.5-0.1,0.7c0.2,0.3,2.4,3.6,4.4,9.7c-1.6-2.4-4-4.9-7.5-7.2c-0.2-0.1-0.5-0.1-0.7,0.2
				c-0.2,0.2-0.1,0.5,0,0.7c0.2,0.2,2.5,2.4,5.2,6.9h9.4c3.2-8.1,6.9-12.1,7.1-12.3c0.2-0.2,0.2-0.5,0-0.7c-0.2-0.2-0.5-0.3-0.7-0.1
				c-3.8,2.9-6.2,5.9-7.6,8.8c1.9-7.4,4.4-11.6,4.6-11.9c0.1-0.2,0.1-0.5-0.1-0.7c-0.2-0.2-0.5-0.1-0.7,0.1
				C142.2,125.6,140.5,128.4,139.4,131L139.4,131z M142.4,139.4h2.8c2.5-4.1,4.5-6.3,4.6-6.5c0.2-0.2,0.2-0.5,0.1-0.7
				c-0.2-0.2-0.5-0.2-0.7-0.1C146.2,134.7,144,137.1,142.4,139.4z"/>
		</g>
	</g>
	<g>
		<path class="st17" d="M38.8,0.9C44.2-1.6,81,11.7,88.6,14.1c6.3,1.9-2.5,9.2-7.7,11.8S58.9,36.1,42.2,40.3s-31.1,3.1-36.7,2.2
			c-3.9-0.7,3.6-9.6,6.6-13.3C16.2,24,30.1,4.8,38.8,0.9z"/>
		<path class="st18" d="M43,0.7c3.3,0.4,8,1.3,17.2,4.1s22.7,7.3,22.7,7.3l6.4,2.1c0,0,2.5,0.7,1,3.5s-4.6,5.3-8.4,7.4
			c-3.8,2.2-13.2,6.1-17.9,7.9s-17.9,6-17.9,6s4.1-3.3,8.8-5.4s18.3-13,15.9-14.5S38.8,0.9,38.8,0.9S40.3,0.3,43,0.7z"/>
		<g>
			<g>
				<path class="st19" d="M86,13.7c-5.8,3.9-12,7.4-18.2,10.6c-6.3,3.2-12.8,6-19.5,8.1c-6.8,2-13.8,3.1-20.8,3.6
					c-7,0.6-14.1,0.7-21.1,0.3c3.5,0,7,0,10.5-0.2c3.5-0.1,7-0.4,10.5-0.8c7-0.7,13.9-1.8,20.6-3.8c3.4-1,6.6-2.2,9.9-3.5
					c3.2-1.3,6.4-2.8,9.6-4.3c3.2-1.5,6.3-3.1,9.4-4.8C80,17.3,83,15.5,86,13.7z"/>
			</g>
			<g>
				<path class="st19" d="M76.6,10.1c-4.5,3.4-9.3,6.2-14.4,8.7c-5,2.5-10.3,4.6-15.7,6.1c-5.4,1.4-11,2.4-16.6,2.9
					c-5.6,0.5-11.2,0.6-16.8,0c2.8,0.1,5.6,0.1,8.4,0c2.8-0.1,5.6-0.3,8.4-0.6c5.5-0.6,11.1-1.6,16.4-3.1c2.7-0.7,5.3-1.6,8-2.6
					c2.6-1,5.2-2.1,7.7-3.3C67,15.9,72,13.2,76.6,10.1z"/>
			</g>
			<g>
				<path class="st19" d="M66.1,7.3c-3.5,2.1-7,4.1-10.7,5.9c-3.7,1.8-7.4,3.5-11.3,4.7c-2,0.6-4,1-6,1.3c-2,0.3-4.1,0.5-6.1,0.5
					c-4.1,0.2-8.2,0-12.2-0.4c2,0,4.1,0.1,6.1,0c2,0,4.1-0.1,6.1-0.3c4-0.3,8.1-0.8,11.9-2c3.9-1.2,7.6-2.8,11.3-4.5
					c1.9-0.8,3.7-1.7,5.5-2.6C62.5,9.1,64.3,8.2,66.1,7.3z"/>
			</g>
			<g>
				<path class="st19" d="M56.6,3.8c-2.2,1.5-4.6,2.9-7,4.1c-2.4,1.2-4.9,2.2-7.6,3c-2.6,0.7-5.3,1.1-8,1.2
					c-2.7,0.2-5.4,0.2-8.1-0.1c2.7-0.1,5.4-0.3,8-0.6c2.7-0.3,5.3-0.7,7.9-1.4c2.6-0.7,5-1.7,7.5-2.7C51.8,6.2,54.2,5.1,56.6,3.8z"
					/>
			</g>
			<g>
				<path class="st19" d="M45.5,2.4c2.9,1.4,5.7,2.8,8.5,4.3c2.8,1.5,5.6,3.1,8.3,4.7c2.7,1.6,5.5,3.3,8.1,5
					c2.7,1.7,5.3,3.5,7.8,5.5L70.1,17c-2.7-1.6-5.5-3.2-8.2-4.8l-8.2-4.8C50.9,5.7,48.2,4.1,45.5,2.4z"/>
			</g>
			<g>
				<path class="st19" d="M41.4,2.2C43,4,44.7,5.8,46.3,7.6c1.6,1.8,3.2,3.7,4.7,5.5c1.5,1.9,3.1,3.7,4.6,5.6c1.5,1.9,3,3.8,4.4,5.8
					c-1.7-1.7-3.3-3.6-4.9-5.4c-1.6-1.8-3.2-3.7-4.7-5.5c-1.5-1.9-3.1-3.7-4.6-5.6C44.3,6.1,42.8,4.2,41.4,2.2z"/>
			</g>
			<g>
				<path class="st19" d="M40,2.2c0,3.1,0,6.3-0.1,9.4L39.7,21l-0.3,9.4c-0.1,3.1-0.2,6.2-0.1,9.4c-0.4-3.1-0.5-6.2-0.5-9.4
					c-0.1-3.1,0-6.3,0.1-9.4c0.1-3.1,0.2-6.2,0.4-9.4C39.5,8.4,39.7,5.3,40,2.2z"/>
			</g>
			<g>
				<path class="st19" d="M38.6,1.8c-1.6,2.8-3.2,5.6-4.9,8.3c-1.7,2.8-3.4,5.5-5.1,8.2c-1.8,2.7-3.5,5.4-5.4,8
					c-1.8,2.6-3.7,5.3-5.7,7.8c1.7-2.7,3.4-5.5,5.1-8.2l5.2-8.1l5.3-8.1C34.9,7.1,36.7,4.4,38.6,1.8z"/>
			</g>
		</g>
	</g>
</g>
</svg>
