<?xml version="1.0" encoding="utf-8"?>
<!-- Generator: Adobe Illustrator 22.0.1, SVG Export Plug-In . SVG Version: 6.00 Build 0)  -->
<svg version="1.1" id="圖層_1" xmlns="http://www.w3.org/2000/svg" xmlns:xlink="http://www.w3.org/1999/xlink" x="0px" y="0px"
	 viewBox="0 0 340 200" style="enable-background:new 0 0 340 200;" xml:space="preserve">
<style type="text/css">
	.st0{fill:url(#SVGID_1_);}
	.st1{opacity:0.26;fill:url(#SVGID_2_);}
	.st2{opacity:0.4;fill:url(#SVGID_3_);}
	.st3{opacity:0.4;fill:url(#SVGID_4_);}
</style>
<g>
	<linearGradient id="SVGID_1_" gradientUnits="userSpaceOnUse" x1="48.6035" y1="-27.5596" x2="95.3443" y2="4.2639">
		<stop  offset="0" style="stop-color:#F4F7FF;stop-opacity:0"/>
		<stop  offset="1" style="stop-color:#F4F7FF"/>
	</linearGradient>
	<polygon class="st0" points="217.5,178.6 214,167.5 214.2,167.4 217.4,158.9 212,152.9 216.7,132.1 213.3,120.1 179.7,94.6 
		174,105.4 182.2,114.6 182.4,115.7 177.9,129.7 177.6,134.9 175.9,127.1 178.6,115.4 168.5,107.1 176.9,90.9 175.2,86.4 
		177.4,77.8 160.6,65.8 6.5,2.2 0,0.3 162.3,59.9 162.5,60.6 182.3,74.9 182.7,76.4 180.5,87.1 183.8,92.2 192.8,95.2 191.3,88.7 
		209.1,95.4 228.2,87.9 229.2,82.4 243.1,81.4 248.4,74.1 248.5,74.1 257.1,81.9 259.2,78.3 259.4,78.1 260.5,78.7 261.4,78.8 
		268.4,82 270.9,79.9 296.1,81.2 296.1,80.9 302,73.9 303.9,74.2 304.7,74.9 304.8,74.9 314.5,81.1 337.4,72.3 313.7,85.6 
		303.6,78.1 297.1,84 270.9,85.8 261.4,81.9 260.1,84.4 267.6,90.7 279.1,92.9 279,93.6 283,105.2 301.3,103 282.6,109.7 
		281.7,108.8 281.8,108.4 276.1,96.5 270.8,95.1 266.1,95.8 264.7,95.2 249.4,79 243.2,86.9 232.8,86.1 233.2,88.4 228.5,91.4 
		227.5,91.5 227.2,91.5 225.2,91.7 211.2,100.1 211.2,100 209.8,100.5 196.1,94.5 195.8,100.1 189.5,98.5 215.9,117.1 217.8,117.4 
		219.8,132.3 231.7,133.8 235.8,146.9 256.1,149.6 268.5,144.1 270.5,144.5 281.9,153 282,151.8 290.7,140.9 291.5,140.7 298,143.1 
		319.4,124.9 298.3,146.6 297.7,146.7 296.5,147.7 291.6,145.4 284,155.5 282.2,156.5 281.6,156.5 270.8,148.9 261.9,153.1 
		275.7,171 300.4,177.8 308.1,189.2 340,199.7 309.2,194.8 308.9,194.5 308.4,194.3 308.3,194.2 307.7,194 298,181.2 297.9,181.3 
		274,175.4 256,154.2 240.8,152.8 240.5,152.9 231.5,150.7 231.3,150.1 231.1,149.9 228.6,138.6 219.8,136.4 215.7,149.7 
		221.6,160.3 217.6,166.5 221.4,186.9 217.5,178.6 	"/>
	
		<radialGradient id="SVGID_2_" cx="-182.5475" cy="1431.0787" r="56.5824" gradientTransform="matrix(-0.7261 0.8527 0.84 0.7152 -1075.3643 -784.0847)" gradientUnits="userSpaceOnUse">
		<stop  offset="0.225" style="stop-color:#FFFFFF"/>
		<stop  offset="0.9651" style="stop-color:#FFFFFF;stop-opacity:0"/>
	</radialGradient>
	<path class="st1" d="M216.7,133.6c26.9,22.9,67.5,19.3,90.7-8c23.2-27.3,20.3-67.9-6.6-90.8c-26.9-22.9-67.5-19.3-90.7,8
		C186.9,70.1,189.9,110.8,216.7,133.6z"/>
	
		<radialGradient id="SVGID_3_" cx="-133.454" cy="1470.8115" r="31.6208" gradientTransform="matrix(-0.7261 0.8527 0.84 0.7152 -1075.3643 -784.0847)" gradientUnits="userSpaceOnUse">
		<stop  offset="9.765600e-02" style="stop-color:#FFFFFF"/>
		<stop  offset="0.9651" style="stop-color:#FFFFFF;stop-opacity:0"/>
	</radialGradient>
	<path class="st2" d="M233.2,181.9c15,12.8,37.7,10.8,50.7-4.4c13-15.2,11.3-38-3.7-50.7c-15-12.8-37.7-10.8-50.7,4.5
		C216.6,146.4,218.2,169.1,233.2,181.9z"/>
	
		<radialGradient id="SVGID_4_" cx="-128.9038" cy="1385.676" r="31.6116" gradientTransform="matrix(-0.7261 0.8527 0.84 0.7152 -1075.3643 -784.0847)" gradientUnits="userSpaceOnUse">
		<stop  offset="9.765600e-02" style="stop-color:#FFFFFF"/>
		<stop  offset="0.9651" style="stop-color:#FFFFFF;stop-opacity:0"/>
	</radialGradient>
	<path class="st3" d="M158.4,124.9c15,12.8,37.7,10.8,50.7-4.5c13-15.2,11.3-37.9-3.7-50.7c-15-12.8-37.7-10.8-50.6,4.4
		C141.8,89.4,143.4,112.1,158.4,124.9z"/>
</g>
</svg>
