<?xml version="1.0" encoding="utf-8"?>
<!-- Generator: Adobe Illustrator 22.0.1, SVG Export Plug-In . SVG Version: 6.00 Build 0)  -->
<svg version="1.1" id="圖層_1" xmlns="http://www.w3.org/2000/svg" xmlns:xlink="http://www.w3.org/1999/xlink" x="0px" y="0px"
	 viewBox="0 0 200 320" style="enable-background:new 0 0 200 320;" xml:space="preserve">
<style type="text/css">
	.st0{fill:#F4F7FF;}
	.st1{opacity:0.26;fill:url(#SVGID_1_);}
	.st2{opacity:0.4;fill:url(#SVGID_2_);}
	.st3{opacity:0.4;fill:url(#SVGID_3_);}
</style>
<g>
	<polygon class="st0" points="195.5,182.8 189,169.1 188.7,169.2 178.5,164.3 177.9,153.6 155.8,138.7 148.4,124.2 155.1,68.2 
		169.3,72.9 170.3,89.3 171,90.6 187.1,99.3 191.9,103.8 186.5,94.9 174.1,86.5 175.5,69.1 154.2,62.1 151.8,56.3 142.5,50.4 
		146.4,23 166.6,2.2 167.5,0 158,0 139.9,19.1 140.3,20 135.7,52.4 136.7,54.1 147.8,61.9 149.5,69.9 144.3,81.4 140,73.8 
		130.5,97.1 107.6,108.4 101.9,104.2 89.2,116.7 78.3,114.9 78.2,115.1 77.5,130.5 72.7,129.2 72.3,129.3 71.9,130.9 71.1,131.7 
		67.9,141.5 64,141.9 43.5,167.2 43.3,167 32.1,166.1 30.8,168.2 30.6,169.6 30.6,169.7 27.7,184.9 0.3,198.5 32.2,188.2 
		34.3,171.6 45,170.9 69.1,147.4 73.9,134.7 77.2,135.7 76.2,148.8 68.2,161.9 68.9,162.5 75.6,177.1 58,192.6 79.8,180.9 
		79.8,179.3 79.4,178.9 73.9,162.4 77.3,156.1 81.9,152.1 82.6,150.2 81.7,120.5 93.8,121.9 102,111.2 103.8,113.7 110.4,111.9 
		111.4,111.2 111.5,110.9 113.5,109.1 132.8,103.5 132.7,103.5 134.3,102.5 140.8,83.8 145.9,88.8 150,81.3 143.6,123.9 142.1,126 
		153.3,141.8 144.5,154.6 152.3,170.7 137.2,192.7 121.7,199.6 120.5,201.9 118,220.7 116.9,219.7 100,217.7 99.1,218.4 95.6,226.9 
		61.5,230.4 98.4,230.4 99,229.9 100.9,229.8 103.1,222.8 118.5,225 120.8,224.3 121.3,223.7 124,206.2 135.3,201.5 139,231.6 
		123.7,261.6 126.9,279.6 108.8,320 131,285.9 130.9,285.3 131.2,284.7 131.2,284.4 131.5,283.7 128.7,262.5 128.8,262.4 144.3,234 
		141.3,197 153.2,181 153.5,180.9 159.3,170.2 159,169.5 159,169.1 151.3,156.1 157,145.6 172,154.1 176.1,169.7 184.9,171.6 
		199.4,194.2 	"/>
	
		<radialGradient id="SVGID_1_" cx="123.9109" cy="227.6032" r="63.0289" gradientTransform="matrix(1.2243 8.938245e-02 -8.972297e-02 1.322 -41.5864 -201.1414)" gradientUnits="userSpaceOnUse">
		<stop  offset="0.225" style="stop-color:#FFFFFF"/>
		<stop  offset="0.9651" style="stop-color:#FFFFFF;stop-opacity:0"/>
	</radialGradient>
	<path class="st1" d="M169.6,116.7c-3.2,47.1-41.1,82.7-84.7,79.5c-43.6-3.2-76.4-43.9-73.2-91C14.8,58,52.8,22.4,96.4,25.6
		C140,28.8,172.8,69.6,169.6,116.7z"/>
	
		<radialGradient id="SVGID_2_" cx="169.8046" cy="290.229" r="35.2234" gradientTransform="matrix(1.2243 8.938245e-02 -8.972297e-02 1.322 -41.5864 -201.1414)" gradientUnits="userSpaceOnUse">
		<stop  offset="9.765600e-02" style="stop-color:#FFFFFF"/>
		<stop  offset="0.9651" style="stop-color:#FFFFFF;stop-opacity:0"/>
	</radialGradient>
	<path class="st2" d="M184.9,201c-1.8,26.3-23,46.2-47.3,44.4c-24.4-1.8-42.7-24.6-40.9-50.9c1.8-26.3,23-46.2,47.4-44.4
		C168.4,151.9,186.7,174.7,184.9,201z"/>
	
		<radialGradient id="SVGID_3_" cx="174.8732" cy="195.3938" r="35.2132" gradientTransform="matrix(1.2243 8.938245e-02 -8.972297e-02 1.322 -41.5864 -201.1414)" gradientUnits="userSpaceOnUse">
		<stop  offset="9.765600e-02" style="stop-color:#FFFFFF"/>
		<stop  offset="0.9651" style="stop-color:#FFFFFF;stop-opacity:0"/>
	</radialGradient>
	<path class="st3" d="M199.6,76.1c-1.8,26.3-23,46.2-47.4,44.4c-24.3-1.8-42.6-24.5-40.9-50.9c1.8-26.3,23-46.2,47.3-44.4
		C183,27,201.4,49.7,199.6,76.1z"/>
</g>
</svg>
