<?xml version="1.0" encoding="utf-8"?>
<!-- Generator: Adobe Illustrator 22.0.1, SVG Export Plug-In . SVG Version: 6.00 Build 0)  -->
<svg version="1.1" id="圖層_1" xmlns="http://www.w3.org/2000/svg" xmlns:xlink="http://www.w3.org/1999/xlink" x="0px" y="0px"
	 viewBox="0 0 250 200" style="enable-background:new 0 0 250 200;" xml:space="preserve">
<style type="text/css">
	.st0{opacity:0.5;}
	.st1{fill:#FFFFFF;}
	.st2{fill:url(#XMLID_2_);}
	.st3{fill:url(#XMLID_3_);}
	.st4{fill:url(#XMLID_4_);}
	.st5{fill:url(#XMLID_5_);}
	.st6{fill:url(#XMLID_6_);}
	.st7{fill:url(#XMLID_7_);}
	.st8{fill:url(#XMLID_8_);}
	.st9{fill:url(#SVGID_1_);}
</style>
<g>
	<g id="XMLID_00000094583196431969780550000001112907676013520524_">
		<g id="XMLID_00000142161134817952725140000005879919004769543334_" class="st0">
			<path id="XMLID_00000081610190464940151170000001813731081065588355_" class="st1" d="M174.4,195.5c-21.5,0.3-39.1-3.9-39.2-9.4
				c0-2,2.7-3.7,6.4-5.3c-7.5,2-12.3,4.6-12.3,7.5c0.1,5.6,17.7,9.8,39.2,9.4c13.9-0.2,25.5-2.4,32.3-5.3
				C193.9,194.1,184.7,195.4,174.4,195.5z"/>
			<path id="XMLID_00000012438027384099865640000004221990598984788609_" class="st1" d="M133.6,195.5c-11.2-1.5-19.2-4.4-19.5-8.5
				c-0.5-6.6,17.8-13.1,41-14.5c5.5-0.3,10.8-0.3,15.7-0.1c-6.8-0.9-14.6-1.3-23.4-0.8c-23.2,1.5-41.5,8-41,14.5
				C106.7,191.1,118,194.7,133.6,195.5z"/>
			<path id="XMLID_00000093137974180679258270000011149007155685135491_" class="st1" d="M160.6,167.2c21.5-0.3,39.1,3.9,39.2,9.4
				c0,2-2.7,3.7-6.4,5.3c7.5-2,12.3-4.6,12.3-7.5c-0.1-5.6-17.7-9.8-39.2-9.4c-13.9,0.2-25.5,2.4-32.3,5.3
				C141.1,168.6,150.3,167.4,160.6,167.2z"/>
		</g>
		<g id="XMLID_00000003793137706735923940000012319923887935283119_">
			<linearGradient id="XMLID_2_" gradientUnits="userSpaceOnUse" x1="153.6005" y1="118.6714" x2="250" y2="118.6714">
				<stop  offset="2.666300e-02" style="stop-color:#3EC5A4"/>
				<stop  offset="1" style="stop-color:#188182"/>
			</linearGradient>
			<path id="XMLID_00000134219597489595802380000013849773945617171102_" class="st2" d="M153.6,141.5c0.2,12.3,1.3,24.2,2.6,34
				c0.4,2.6,0.7,5.1,1.3,7.4c-0.2,0.3,0,0.8,0,1.1h3.9v-2c0-4.2,0-8.6-0.2-13.2c0,0,0,0,0-0.2c0-0.8,0-1.5-0.2-2.5
				c0-4.3-0.2-8.6-0.6-12.6V152c-0.2-2.8-0.4-6.2-0.2-10c0-1.7,0.2-3.5,0.4-5.4c0.2-5.7,0.7-12,1.9-18.5c1.5-8.9,3.7-18.2,7.3-26.6
				c2-4.8,4.5-9.2,7.4-13.2c4.3-6.2,9.5-11.2,16.2-14.5c1.5-0.6,3-1.4,4.7-1.8c0.9-0.3,1.9-0.6,2.6-0.6
				c32.9-8.9,49.3,23.9,49.3,23.9c-1.3-12-23.1-36.3-49.3-31.1c-1.7,0.3-3.5,0.9-5.4,1.5c-7.1,2.5-14.3,7.4-21.6,15.1
				c-3,3.2-5.4,6.6-7.4,10.5c-4.3,7.2-7.3,15.4-9.1,24c-0.9,4-1.7,8-2,12.2c-0.4,1.1-0.4,2.2-0.6,3.2v0.2
				C153.8,127.7,153.5,134.7,153.6,141.5z"/>
		</g>
		<linearGradient id="XMLID_3_" gradientUnits="userSpaceOnUse" x1="106.9581" y1="130.5926" x2="168.4101" y2="130.5926">
			<stop  offset="2.666300e-02" style="stop-color:#3EC5A4"/>
			<stop  offset="1" style="stop-color:#188182"/>
		</linearGradient>
		<path id="XMLID_00000114045365810911730060000014112684355648121776_" class="st3" d="M107,105.1c0,0,0.4-1.3,1.4-3.3
			c0.7-1.3,1.4-2.7,2.4-4.3c4.9-8.2,14.8-19.4,29.4-12.8c2.2,0.9,4.2,2.4,6,4.3c0.4,0.3,0.8,0.6,1.3,1.3c3.2,3.2,5.9,7.6,7.8,12.6
			c0.8,1.6,1.4,3.3,2.1,5.1c0,0.2,0,0.2,0,0.3c0.8,2.4,1.5,4.7,2.2,7.3c1,4.1,1.8,8.4,2.5,12.6c0.7,4.3,1.1,8.5,1.4,12.6
			c0.4,3.3,0.6,6.5,0.6,9.3c0.3,5.2,0.3,9.8,0.1,13.3c0,0.8-0.1,1.4-0.1,2.2c0,1.3-0.1,2.7-0.1,4.1c-0.1,2.5-0.1,5.1-0.3,7.6
			c0,0.2,0,0.3,0,0.3v6.3h1.1c0.7,0,1.4,0,2.1-0.2c0.8-8.7,1.7-19,1.7-29.7c0-6.2-0.1-12.3-0.6-18.3c-0.6-6.6-1.4-13.3-2.8-19.4
			c-1-4.7-2.4-9.2-4-13.3c-1.4-4-3.2-7.6-5.4-10.7c-0.1-0.2-0.3-0.5-0.6-0.6c-0.3-0.6-0.6-1.1-1-1.6c-2.5-3.5-5-6-7.5-7.9
			c-0.8-0.8-1.7-1.4-2.6-1.9c-15.5-9.6-29.7,5.2-34.8,17.4c-0.7,1.6-1.3,3-1.5,4.3C107.2,103.1,107.1,104.2,107,105.1z"/>
		
			<linearGradient id="XMLID_4_" gradientUnits="userSpaceOnUse" x1="2124.9934" y1="125.8293" x2="2186.4453" y2="125.8293" gradientTransform="matrix(-1 0 0 1 2361.3818 0)">
			<stop  offset="2.666300e-02" style="stop-color:#3EC5A4"/>
			<stop  offset="1" style="stop-color:#188182"/>
		</linearGradient>
		<path id="XMLID_00000016773851137485823260000013265170204374690217_" class="st4" d="M236.4,100.4c0,0-0.4-1.3-1.4-3.3
			c-0.7-1.3-1.4-2.7-2.4-4.3c-4.9-8.2-14.8-19.4-29.4-12.8c-2.2,0.9-4.2,2.4-6,4.3c-0.4,0.3-0.8,0.6-1.3,1.3
			c-3.2,3.2-5.9,7.6-7.8,12.6c-0.8,1.6-1.4,3.3-2.1,5.1c0,0.2,0,0.2,0,0.3c-0.8,2.4-1.5,4.7-2.2,7.3c-1,4.1-1.8,8.4-2.5,12.6
			c-0.7,4.3-1.1,8.5-1.4,12.6c-0.4,3.3-0.6,6.5-0.6,9.3c-0.3,5.2-0.3,9.8-0.1,13.3c0,0.8,0.1,1.4,0.1,2.2c0,1.3,0.1,2.7,0.1,4.1
			c0.1,2.5,0.1,5.1,0.3,7.6c0,0.2,0,0.3,0,0.3v6.3h-1.1c-0.7,0-1.4,0-2.1-0.2c-0.8-8.7-1.7-19-1.7-29.7c0-6.2,0.1-12.3,0.6-18.3
			c0.6-6.6,1.4-13.3,2.8-19.4c1-4.7,2.4-9.2,4-13.3c1.4-4,3.2-7.6,5.4-10.7c0.1-0.2,0.3-0.5,0.6-0.6c0.3-0.6,0.6-1.1,1-1.6
			c2.5-3.5,5-6,7.5-7.9c0.8-0.8,1.7-1.4,2.6-1.9c15.5-9.6,29.7,5.2,34.8,17.4c0.7,1.6,1.3,3,1.5,4.3
			C236.1,98.3,236.2,99.4,236.4,100.4z"/>
		<linearGradient id="XMLID_5_" gradientUnits="userSpaceOnUse" x1="169.1793" y1="101.7235" x2="205.6626" y2="101.7235">
			<stop  offset="2.666300e-02" style="stop-color:#3EC5A4"/>
			<stop  offset="1" style="stop-color:#188182"/>
		</linearGradient>
		<path id="XMLID_00000052077599420159785230000005802367573450966966_" class="st5" d="M169.6,132.4v0.2c-0.6,6-0.6,12,0,18v0.2
			c0.6,12,3.1,23.2,5.5,32.3v0.5c1.2-0.2,2.3-0.2,3.3-0.3c-1.2-7.4-1.8-14.6-2.1-22c-1-24.3,3.9-48.6,19.9-74.9
			c5.7-9.2,8.4-17.5,9.2-24.9c0.2-2.5,0.2-4.9,0-7.2c-1-20.6-16.6-32.6-18.7-34.2c4.1,4.9,15.4,15.7,12.7,35.7
			c-0.4,2.5-1,5.2-2.1,8.2c-2.3,8-6.6,17.2-14.1,27.7c-3.9,5.5-7,11.5-9.2,17.7c0,0.2,0,0.2,0,0.2
			C171.7,116.9,170.3,124.7,169.6,132.4z"/>
	</g>
	<g id="XMLID_00000094593990862484723500000008888756815187127225_">
		<g id="XMLID_00000069386596085696226250000010250286543665074573_" class="st0">
			<path id="XMLID_00000160174643840185772570000013676511782490056594_" class="st1" d="M59.1,177.4c23.5,0.3,42.6-3.2,42.7-7.9
				c0-1.6-2.9-3.1-7-4.5c8.2,1.6,13.4,3.8,13.4,6.3c-0.1,4.6-19.3,8.2-42.7,7.9c-15.2-0.2-27.8-2-35.3-4.5
				C37.8,176.2,47.9,177.3,59.1,177.4z"/>
			<path id="XMLID_00000076581662508281960370000010661427133436875446_" class="st1" d="M103.6,177.4c12.2-1.2,20.9-3.7,21.3-7.1
				c0.6-5.5-19.4-10.9-44.7-12.2c-6-0.3-11.8-0.3-17.1-0.1c7.5-0.7,16-1.1,25.5-0.7c25.3,1.2,45.3,6.7,44.7,12.2
				C132.9,173.7,120.6,176.7,103.6,177.4z"/>
			<path id="XMLID_00000036226248651907095200000013104948273611711134_" class="st1" d="M74.1,153.7c-23.5-0.3-42.6,3.2-42.7,7.9
				c0,1.6,2.9,3.1,7,4.5c-8.2-1.6-13.4-3.8-13.4-6.3c0.1-4.6,19.3-8.2,42.7-7.9c15.2,0.2,27.8,2,35.3,4.5
				C95.5,154.9,85.4,153.9,74.1,153.7z"/>
		</g>
		<g id="XMLID_00000051342485716271582100000011200505897756756375_">
			<linearGradient id="XMLID_6_" gradientUnits="userSpaceOnUse" x1="0" y1="102.5997" x2="82.5017" y2="102.5997">
				<stop  offset="2.666300e-02" style="stop-color:#3EC5A4"/>
				<stop  offset="1" style="stop-color:#188182"/>
			</linearGradient>
			<path id="XMLID_00000061460862832045321480000007106920957603155092_" class="st6" d="M82.5,125.8c-0.2,12.5-1.1,24.5-2.2,34.5
				c-0.3,2.7-0.6,5.2-1.1,7.5c0.2,0.3,0,0.8,0,1.1h-3.3v-2c0-4.2,0-8.8,0.2-13.4c0,0,0,0,0-0.2c0-0.8,0-1.6,0.2-2.5
				c0-4.4,0.2-8.8,0.5-12.8v-1.6c0.2-2.8,0.3-6.3,0.2-10.2c0-1.7-0.2-3.6-0.3-5.5c-0.2-5.8-0.6-12.2-1.6-18.8
				c-1.3-9.1-3.2-18.4-6.2-27c-1.8-4.8-3.8-9.4-6.4-13.4c-3.7-6.3-8.1-11.4-13.8-14.7c-1.3-0.6-2.5-1.4-4-1.9
				c-0.8-0.3-1.6-0.6-2.2-0.6C14,35.3,0,68.6,0,68.6C1.1,56.4,19.7,31.7,42.2,37c1.4,0.3,3,0.9,4.6,1.6c6.1,2.5,12.3,7.5,18.5,15.3
				c2.5,3.3,4.6,6.7,6.4,10.6c3.7,7.3,6.2,15.6,7.8,24.4c0.8,4.1,1.4,8.1,1.8,12.3c0.3,1.1,0.3,2.2,0.5,3.3v0.2
				C82.3,111.7,82.6,118.9,82.5,125.8z"/>
		</g>
		<linearGradient id="XMLID_7_" gradientUnits="userSpaceOnUse" x1="29.0049" y1="85.3826" x2="68.5089" y2="85.3826">
			<stop  offset="2.666300e-02" style="stop-color:#3EC5A4"/>
			<stop  offset="1" style="stop-color:#188182"/>
		</linearGradient>
		<path id="XMLID_00000051362005325510278330000013281911944879422394_" class="st7" d="M68,116.6v0.2c0.7,6.1,0.7,12.2,0,18.3v0.2
			c-0.7,12.2-3.3,23.6-6,32.8v0.5c-1.3-0.2-2.4-0.2-3.6-0.3c1.3-7.5,2-14.9,2.2-22.4c1.1-24.7-4.2-49.4-21.5-76.1
			c-6.2-9.4-9.1-17.8-10-25.3c-0.2-2.5-0.2-5,0-7.3c1.1-20.9,18-33.1,20.2-34.7c-4.4,5-16.6,15.9-13.8,36.3c0.4,2.5,1.1,5.3,2.2,8.3
			C40.3,55,44.9,64.4,53.1,75c4.2,5.6,7.5,11.7,10,18c0,0.2,0,0.2,0,0.2C65.8,100.8,67.3,108.8,68,116.6z"/>
		
			<linearGradient id="XMLID_8_" gradientUnits="userSpaceOnUse" x1="2027.9336" y1="87.053" x2="2069.7683" y2="87.053" gradientTransform="matrix(-1 0 0 1 2148.2761 0)">
			<stop  offset="2.666300e-02" style="stop-color:#3EC5A4"/>
			<stop  offset="1" style="stop-color:#188182"/>
		</linearGradient>
		<path id="XMLID_00000021822194252878909750000000935273047435285949_" class="st8" d="M79,115.4v0.1c-0.7,5.6-0.7,11.1,0,16.6v0.1
			c0.7,11.1,3.5,21.5,6.3,29.9v0.4c1.4-0.1,2.6-0.1,3.8-0.3c-1.4-6.8-2.1-13.5-2.4-20.3c-1.2-22.5,4.5-45,22.8-69.3
			c6.6-8.5,9.6-16.2,10.6-23.1c0.2-2.3,0.2-4.6,0-6.7c-1.2-19.1-19-30.2-21.4-31.6c4.7,4.6,17.6,14.5,14.6,33
			c-0.5,2.3-1.2,4.8-2.4,7.5c-2.6,7.4-7.5,15.9-16.2,25.6c-4.5,5.1-8,10.7-10.6,16.4c0,0.1,0,0.1,0,0.1
			C81.4,101.1,79.7,108.3,79,115.4z"/>
		<linearGradient id="SVGID_1_" gradientUnits="userSpaceOnUse" x1="70.9695" y1="100.7373" x2="135.0782" y2="100.7373">
			<stop  offset="2.666300e-02" style="stop-color:#3EC5A4"/>
			<stop  offset="1" style="stop-color:#188182"/>
		</linearGradient>
		<path class="st9" d="M73.7,168.8c0,0-11.2-67.7,11.7-102.3s49.7-34.2,49.7-34.2S97.7,45.7,88.8,72.6s-10.7,44.3-10.7,61.2
			c0,17,0.7,35.1,0.7,35.1S75.6,169.6,73.7,168.8z"/>
	</g>
</g>
</svg>
