<?xml version="1.0" encoding="utf-8"?>
<!-- Generator: Adobe Illustrator 22.0.1, SVG Export Plug-In . SVG Version: 6.00 Build 0)  -->
<svg version="1.1" id="圖層_1" xmlns="http://www.w3.org/2000/svg" xmlns:xlink="http://www.w3.org/1999/xlink" x="0px" y="0px"
	 viewBox="0 0 320 200" style="enable-background:new 0 0 320 200;" xml:space="preserve">
<style type="text/css">
	.st0{opacity:0.47;fill:#FFFFFF;}
	.st1{fill:url(#XMLID_2_);}
	.st2{fill:url(#XMLID_3_);}
	.st3{fill:url(#XMLID_4_);}
	.st4{fill:url(#XMLID_5_);}
	.st5{fill:url(#XMLID_6_);}
	.st6{fill:url(#SVGID_1_);}
</style>
<g>
	<path class="st0" d="M60.1,166.6c9.4-5.5,16.2-7.6,33.4-7.3c17.2,0.3,28.9,6.4,26.5,11.1s-13.3,6.2-26.5,8.6S45.7,175,60.1,166.6z"
		/>
	<path class="st0" d="M185.7,182.8c10-4.2,17.1-5.3,34.1-2.7s27.8,10.3,24.8,14.6c-3,4.3-14,4.4-27.5,4.9
		C203.7,200,170.4,189.1,185.7,182.8z"/>
	<g id="XMLID_6679_">
		<g id="XMLID_917_">
			<linearGradient id="XMLID_2_" gradientUnits="userSpaceOnUse" x1="196.6086" y1="115.156" x2="320" y2="115.156">
				<stop  offset="2.666300e-02" style="stop-color:#3EC5A4"/>
				<stop  offset="1" style="stop-color:#188182"/>
			</linearGradient>
			<path id="XMLID_918_" class="st1" d="M196.7,141.1c0.2,14,1.7,27.4,3.3,38.6c0.5,3,1,5.8,1.7,8.4c-0.2,0.3,0,0.9,0,1.2h5V187
				c0-4.7,0-9.8-0.2-15c0,0,0,0,0-0.2c0-0.9,0-1.7-0.2-2.8c0-4.9-0.2-9.8-0.7-14.3V153c-0.2-3.1-0.5-7-0.2-11.4c0-1.9,0.2-4,0.5-6.1
				c0.2-6.5,1-13.6,2.4-21c1.9-10.1,4.8-20.6,9.3-30.2c2.6-5.4,5.7-10.5,9.5-15c5.5-7,12.1-12.8,20.7-16.4c1.9-0.7,3.8-1.6,6-2.1
				c1.2-0.3,2.4-0.7,3.3-0.7C299,39.9,320,77.1,320,77.1c-1.7-13.6-29.5-41.2-63.1-35.3c-2.1,0.3-4.5,1-6.9,1.7
				c-9,2.8-18.3,8.4-27.6,17.1c-3.8,3.7-6.9,7.5-9.5,11.9c-5.5,8.2-9.3,17.5-11.7,27.3c-1.2,4.5-2.1,9.1-2.6,13.8
				c-0.5,1.2-0.5,2.4-0.7,3.7v0.2C196.9,125.4,196.4,133.4,196.7,141.1z"/>
		</g>
		<linearGradient id="XMLID_3_" gradientUnits="userSpaceOnUse" x1="136.9064" y1="128.6941" x2="215.5649" y2="128.6941">
			<stop  offset="2.666300e-02" style="stop-color:#3EC5A4"/>
			<stop  offset="1" style="stop-color:#188182"/>
		</linearGradient>
		<path id="XMLID_915_" class="st2" d="M136.9,99.8c0,0,0.5-1.4,1.8-3.8c0.9-1.4,1.8-3,3-4.8c6.2-9.3,18.9-22.1,37.6-14.5
			c2.9,1.1,5.3,2.7,7.7,4.8c0.5,0.4,1.1,0.7,1.6,1.4c4.1,3.6,7.5,8.6,10,14.4c1.1,1.8,1.8,3.8,2.7,5.7c0,0.2,0,0.2,0,0.4
			c1.1,2.7,2,5.4,2.9,8.3c1.2,4.7,2.3,9.5,3.2,14.4c0.9,4.8,1.4,9.7,1.8,14.4c0.5,3.8,0.7,7.4,0.7,10.6c0.4,5.9,0.4,11.1,0.2,15.1
			c0,0.9-0.2,1.6-0.2,2.5c0,1.4-0.2,3-0.2,4.7c-0.2,2.9-0.2,5.7-0.4,8.6c0,0.2,0,0.4,0,0.4v7.2h1.4c0.9,0,1.8,0,2.7-0.2
			c1.1-9.9,2.1-21.5,2.1-33.7c0-7-0.2-14-0.7-20.8c-0.7-7.5-1.8-15.1-3.6-22.1c-1.2-5.4-3-10.4-5.2-15.1c-1.8-4.5-4.1-8.6-7-12.2
			c-0.2-0.2-0.4-0.5-0.7-0.7c-0.4-0.7-0.7-1.3-1.2-1.8c-3.2-3.9-6.4-6.8-9.6-9c-1.1-0.9-2.1-1.6-3.4-2.2
			c-19.8-10.9-38,5.9-44.6,19.7c-0.9,1.8-1.6,3.4-2,4.8C137.3,97.4,137.1,98.7,136.9,99.8z"/>
		<linearGradient id="XMLID_4_" gradientUnits="userSpaceOnUse" x1="216.5495" y1="95.9095" x2="263.2481" y2="95.9095">
			<stop  offset="2.666300e-02" style="stop-color:#3EC5A4"/>
			<stop  offset="1" style="stop-color:#188182"/>
		</linearGradient>
		<path id="XMLID_914_" class="st3" d="M217.1,130.8v0.2c-0.8,6.8-0.8,13.6,0,20.4v0.2c0.8,13.6,3.9,26.4,7.1,36.7v0.5
			c1.6-0.2,2.9-0.2,4.2-0.3c-1.6-8.4-2.4-16.6-2.6-25c-1.3-27.6,5-55.2,25.4-85.1c7.3-10.5,10.8-19.9,11.8-28.3
			c0.3-2.8,0.3-5.6,0-8.2c-1.3-23.4-21.3-37-23.9-38.8c5.2,5.6,19.7,17.8,16.3,40.5c-0.5,2.8-1.3,5.9-2.6,9.3
			c-2.9,9.1-8.4,19.6-18.1,31.5c-5,6.3-8.9,13.1-11.8,20.1c0,0.2,0,0.2,0,0.2C219.8,113.1,217.9,122,217.1,130.8z"/>
	</g>
	<g id="XMLID_00000120558150931862345680000006645066084648750731_">
		<g id="XMLID_00000150801652537361029630000009352544484051869568_">
			<linearGradient id="XMLID_5_" gradientUnits="userSpaceOnUse" x1="0" y1="102.5976" x2="105.6022" y2="102.5976">
				<stop  offset="2.666300e-02" style="stop-color:#3EC5A4"/>
				<stop  offset="1" style="stop-color:#188182"/>
			</linearGradient>
			<path id="XMLID_00000117671179807075021480000015272523657374366592_" class="st4" d="M105.6,126.2c-0.2,12.7-1.4,25-2.9,35.2
				c-0.4,2.7-0.8,5.3-1.4,7.6c0.2,0.3,0,0.8,0,1.1H97v-2.1c0-4.3,0-8.9,0.2-13.7c0,0,0,0,0-0.2c0-0.8,0-1.6,0.2-2.5
				c0-4.5,0.2-8.9,0.6-13.1V137c0.2-2.9,0.4-6.4,0.2-10.3c0-1.8-0.2-3.7-0.4-5.6c-0.2-5.9-0.8-12.4-2-19.1
				c-1.6-9.2-4.1-18.8-7.9-27.5c-2.2-4.9-4.9-9.5-8.2-13.7c-4.7-6.4-10.4-11.6-17.7-15c-1.6-0.6-3.3-1.4-5.1-1.9
				c-1-0.3-2-0.6-2.9-0.6C17.9,34.1,0,68,0,68c1.4-12.4,25.3-37.6,54-32.1c1.8,0.3,3.9,1,5.9,1.6C67.7,40,75.6,45,83.5,53
				c3.3,3.3,5.9,6.8,8.2,10.8c4.7,7.5,7.9,15.9,10,24.8c1,4.1,1.8,8.3,2.2,12.6c0.4,1.1,0.4,2.2,0.6,3.3v0.2
				C105.3,111.9,105.8,119.2,105.6,126.2z"/>
		</g>
		<linearGradient id="XMLID_6_" gradientUnits="userSpaceOnUse" x1="37.1263" y1="85.0703" x2="87.6914" y2="85.0703">
			<stop  offset="2.666300e-02" style="stop-color:#3EC5A4"/>
			<stop  offset="1" style="stop-color:#188182"/>
		</linearGradient>
		<path id="XMLID_00000109741580603343882620000008775976972751543478_" class="st5" d="M87.1,116.8v0.2c0.8,6.2,0.8,12.4,0,18.6
			v0.2c-0.9,12.4-4.3,24-7.7,33.4v0.5c-1.7-0.2-3.1-0.2-4.5-0.3c1.7-7.6,2.6-15.1,2.8-22.8c1.4-25.1-5.4-50.3-27.6-77.5
			c-8-9.5-11.6-18.1-12.8-25.8c-0.3-2.5-0.3-5.1,0-7.5c1.4-21.3,23-33.7,25.9-35.3c-5.7,5.1-21.3,16.2-17.6,36.9
			c0.6,2.5,1.4,5.4,2.8,8.4c3.1,8.3,9.1,17.8,19.6,28.6c5.4,5.7,9.7,11.9,12.8,18.3c0,0.2,0,0.2,0,0.2
			C84.2,100.7,86.2,108.9,87.1,116.8z"/>
		<linearGradient id="SVGID_1_" gradientUnits="userSpaceOnUse" x1="90.8409" y1="100.7016" x2="172.9002" y2="100.7016">
			<stop  offset="2.666300e-02" style="stop-color:#3EC5A4"/>
			<stop  offset="1" style="stop-color:#188182"/>
		</linearGradient>
		<path class="st6" d="M94.3,170c0,0-14.3-68.9,14.9-104.2S172.9,31,172.9,31s-47.9,13.7-59.2,41s-13.7,45.1-13.7,62.4
			c0,17.3,0.9,35.7,0.9,35.7S96.8,170.8,94.3,170z"/>
	</g>
</g>
</svg>
