<?xml version="1.0" encoding="utf-8"?>
<!-- Generator: Adobe Illustrator 22.0.1, SVG Export Plug-In . SVG Version: 6.00 Build 0)  -->
<svg version="1.1" id="圖層_1" xmlns="http://www.w3.org/2000/svg" xmlns:xlink="http://www.w3.org/1999/xlink" x="0px" y="0px"
	 viewBox="0 0 550 100" style="enable-background:new 0 0 550 100;" xml:space="preserve">
<style type="text/css">
	.st0{fill:url(#SVGID_1_);}
	.st1{fill:url(#SVGID_2_);}
</style>
<g>
	<linearGradient id="SVGID_1_" gradientUnits="userSpaceOnUse" x1="164.0666" y1="181.0225" x2="335.0008" y2="-115.0442">
		<stop  offset="0" style="stop-color:#009A86"/>
		<stop  offset="1" style="stop-color:#9DE3AF"/>
	</linearGradient>
	<path class="st0" d="M-4,84c2,0.3,63.2,14.1,102,11.7c51.8-3.2,133.3-15.6,174.8-16.3C358,77.9,518.9,9.9,537.2,1.7
		c-34.4,0-94.5-0.9-94.5-0.9L229.1-1.8L0.4-2.5L-4,84z"/>
	<linearGradient id="SVGID_2_" gradientUnits="userSpaceOnUse" x1="534.6157" y1="58.7306" x2="364.4642" y2="-28.4201">
		<stop  offset="0" style="stop-color:#00B36F"/>
		<stop  offset="1" style="stop-color:#9DE3AF"/>
	</linearGradient>
	<path class="st1" d="M284.9-1.1c-6.2,0,30.4,21.8,58.5,23.8s74.8,25.8,115.5,29.4c45.1,4,92.6-4.5,108.5-13.9
		C586.4,26.9,550.6-4,550.6-4L389.1,0.2C389.1,0.2,311-1.1,284.9-1.1z"/>
</g>
</svg>
