<?xml version="1.0" encoding="utf-8"?>
<!-- Generator: Adobe Illustrator 22.0.1, SVG Export Plug-In . SVG Version: 6.00 Build 0)  -->
<svg version="1.1" id="圖層_1" xmlns="http://www.w3.org/2000/svg" xmlns:xlink="http://www.w3.org/1999/xlink" x="0px" y="0px"
	 viewBox="0 0 220 270" style="enable-background:new 0 0 220 270;" xml:space="preserve">
<style type="text/css">
	.st0{opacity:0.5;}
	.st1{fill:#FFFFFF;}
	.st2{fill:url(#SVGID_1_);}
	.st3{fill:url(#SVGID_2_);}
	.st4{fill:url(#SVGID_3_);}
	.st5{fill:url(#SVGID_4_);}
	.st6{fill:url(#SVGID_5_);}
	.st7{fill:url(#SVGID_6_);}
	.st8{fill:url(#SVGID_7_);}
	.st9{fill:url(#SVGID_8_);}
	.st10{fill:url(#SVGID_9_);}
</style>
<g>
	<g id="XMLID_71_" class="st0">
		<path id="XMLID_74_" class="st1" d="M158.2,265.3c-49.9,0.8-90.5-8.5-90.8-20.7c-0.1-4.3,6.2-8.2,14.9-11.7
			c-17.4,4.3-28.5,10.1-28.4,16.4c0.3,12.2,40.9,21.4,90.8,20.7c32.2-0.5,59.1-5.2,75-11.7C203.5,262.2,182.1,264.9,158.2,265.3z"/>
		<path id="XMLID_73_" class="st1" d="M63.7,265.2c-26-3.2-44.5-9.6-45.3-18.6c-1.3-14.4,41.2-28.7,94.9-31.9
			c12.8-0.8,25-0.7,36.3-0.2c-15.9-1.9-33.9-3-54.2-1.7c-53.7,3.2-96.2,17.5-95,31.9C1.4,255.6,27.6,263.4,63.7,265.2z"/>
		<path id="XMLID_72_" class="st1" d="M93.4,204.3c52.9-0.8,96.1,8.3,96.4,20.3c0.1,4.3-6.6,8.1-15.8,11.6
			c18.5-4.3,30.3-10,30.2-16.3c-0.3-12-43.4-21.1-96.4-20.3c-34.2,0.5-62.8,5.3-79.6,11.7C45.2,207.4,67.9,204.7,93.4,204.3z"/>
	</g>
	<g>
		
			<linearGradient id="SVGID_1_" gradientUnits="userSpaceOnUse" x1="103.2203" y1="550.8771" x2="122.0285" y2="550.8771" gradientTransform="matrix(0.9945 0.1043 -0.1043 0.9945 109.3847 -441.1125)">
			<stop  offset="2.666300e-02" style="stop-color:#3EC5A4"/>
			<stop  offset="1" style="stop-color:#188182"/>
		</linearGradient>
		<path class="st2" d="M149.1,235.1c0,0,0.9-74.5,5-113.2S170.9,0,170.9,0s-4.8,88.2-7.4,114.6c-2.5,26.4-2.6,121.9-2.6,121.9
			S153.7,237.9,149.1,235.1z"/>
		<linearGradient id="SVGID_2_" gradientUnits="userSpaceOnUse" x1="45.8125" y1="116.8212" x2="124.8182" y2="116.8212">
			<stop  offset="2.666300e-02" style="stop-color:#3EC5A4"/>
			<stop  offset="1" style="stop-color:#188182"/>
		</linearGradient>
		<path class="st3" d="M124.8,223.7c0,0,0.7-71.5-10.5-107.5S94.8,57.7,78.8,37.3s-33-27.7-33-27.7s32.4,31.6,45.7,67.8
			s17.2,70.9,18.6,92.1c1.4,21.3,1.7,54.1,1.7,54.1S119.9,224.4,124.8,223.7z"/>
		<linearGradient id="SVGID_3_" gradientUnits="userSpaceOnUse" x1="110" y1="156.1487" x2="145.6527" y2="156.1487">
			<stop  offset="2.666300e-02" style="stop-color:#3EC5A4"/>
			<stop  offset="1" style="stop-color:#188182"/>
		</linearGradient>
		<path class="st4" d="M129.9,241.9c0,0-0.8-85.2-3.6-103.5c-2.8-18.3-13.7-52.2-14.6-57.5c-0.9-5.3-1.8-13.5-1.8-13.5
			s16.9,41.6,21.2,50.9c4.3,9.3,8.2,40.4,9.8,52.1c1.6,11.8,4.7,74,4.7,74S137.6,246.4,129.9,241.9z"/>
		<linearGradient id="SVGID_4_" gradientUnits="userSpaceOnUse" x1="100.2041" y1="134.9342" x2="139.9197" y2="134.9342">
			<stop  offset="2.666300e-02" style="stop-color:#3EC5A4"/>
			<stop  offset="1" style="stop-color:#188182"/>
		</linearGradient>
		<path class="st5" d="M100.2,242.5h26.4c11-48.1,21.6-126.8,3.7-215.2c1.8,76.3-4.9,137.4-11.8,179c3.6-48.7,2-112.9-17.9-178.4
			C111.3,127,105.2,203.6,100.2,242.5z"/>
		<linearGradient id="SVGID_5_" gradientUnits="userSpaceOnUse" x1="135.1331" y1="145.7167" x2="156.1724" y2="145.7167">
			<stop  offset="2.666300e-02" style="stop-color:#3EC5A4"/>
			<stop  offset="1" style="stop-color:#188182"/>
		</linearGradient>
		<path class="st6" d="M155.2,251.1h-15.3c-6.8-50.5-10-129.7,16.3-210.7C144.9,135.8,150.2,210.7,155.2,251.1z"/>
		<linearGradient id="SVGID_6_" gradientUnits="userSpaceOnUse" x1="114.7205" y1="130.6646" x2="134.9159" y2="130.6646">
			<stop  offset="2.666300e-02" style="stop-color:#3EC5A4"/>
			<stop  offset="1" style="stop-color:#188182"/>
		</linearGradient>
		<path class="st7" d="M134.9,254.3c0,0-6.2-166.1-9.3-189.1S114.7,6.5,114.7,6.5s4,60.6,4.3,76.7s0.7,169.7,0.7,169.7
			S127.1,256.1,134.9,254.3z"/>
		<linearGradient id="SVGID_7_" gradientUnits="userSpaceOnUse" x1="71.8499" y1="156.1487" x2="118.0047" y2="156.1487">
			<stop  offset="2.666300e-02" style="stop-color:#3EC5A4"/>
			<stop  offset="1" style="stop-color:#188182"/>
		</linearGradient>
		<path class="st8" d="M118,246.5c0,0-9.5-87.7-18.6-114.6S71.8,65.1,71.8,65.1S96,140,98.5,180.7s1.1,64.7,1.1,64.7
			S109,248.6,118,246.5z"/>
		<linearGradient id="SVGID_8_" gradientUnits="userSpaceOnUse" x1="98.3481" y1="143.9108" x2="177.3538" y2="143.9108">
			<stop  offset="2.666300e-02" style="stop-color:#3EC5A4"/>
			<stop  offset="1" style="stop-color:#188182"/>
		</linearGradient>
		<path class="st9" d="M98.4,250.8c0,0-0.7-71.5,10.5-107.5s19.6-58.5,35.6-78.9s33-27.7,33-27.7s-32.4,31.6-45.7,67.8
			s-17.2,70.9-18.6,92.1s-1.7,54.1-1.7,54.1S103.2,251.5,98.4,250.8z"/>
		
			<linearGradient id="SVGID_9_" gradientUnits="userSpaceOnUse" x1="8462.0283" y1="189.7318" x2="8528.2627" y2="189.7318" gradientTransform="matrix(-1 0 0 1 8632.9971 0)">
			<stop  offset="2.666300e-02" style="stop-color:#3EC5A4"/>
			<stop  offset="1" style="stop-color:#188182"/>
		</linearGradient>
		<path class="st10" d="M158.3,244.5c0,0-12.7-40.5-25.8-61.8s-27.8-47.8-27.8-47.8s31,34,43.7,57.6s22.5,48.7,22.5,48.7
			L158.3,244.5z"/>
	</g>
</g>
</svg>
