<?xml version="1.0" encoding="utf-8"?>
<!-- Generator: Adobe Illustrator 22.0.1, SVG Export Plug-In . SVG Version: 6.00 Build 0)  -->
<svg version="1.1" id="圖層_1" xmlns="http://www.w3.org/2000/svg" xmlns:xlink="http://www.w3.org/1999/xlink" x="0px" y="0px"
	 viewBox="0 0 160 200" style="enable-background:new 0 0 160 200;" xml:space="preserve">
<style type="text/css">
	.st0{opacity:0.5;}
	.st1{fill:#FFFFFF;}
	.st2{fill:url(#SVGID_1_);}
	.st3{fill:url(#SVGID_2_);}
	.st4{fill:#E0B151;}
	.st5{fill:url(#SVGID_3_);}
	.st6{fill:url(#SVGID_4_);}
	.st7{fill:url(#SVGID_5_);}
	.st8{fill:url(#SVGID_6_);}
	.st9{fill:url(#SVGID_7_);}
	.st10{fill:url(#SVGID_8_);}
	.st11{fill:url(#SVGID_9_);}
	.st12{fill:url(#SVGID_10_);}
	.st13{fill:url(#SVGID_11_);}
	.st14{fill:url(#SVGID_12_);}
	.st15{fill:url(#SVGID_13_);}
	.st16{fill:url(#SVGID_14_);}
	.st17{fill:url(#SVGID_15_);}
	.st18{fill:url(#SVGID_16_);}
	.st19{fill:url(#SVGID_17_);}
	.st20{fill:url(#SVGID_18_);}
	.st21{fill:url(#SVGID_19_);}
	.st22{fill:url(#SVGID_20_);}
	.st23{fill:url(#SVGID_21_);}
	.st24{fill:url(#SVGID_22_);}
	.st25{fill:url(#SVGID_23_);}
	.st26{fill:url(#SVGID_24_);}
	.st27{fill:url(#SVGID_25_);}
	.st28{fill:url(#SVGID_26_);}
	.st29{fill:url(#SVGID_27_);}
	.st30{fill:url(#SVGID_28_);}
	.st31{fill:url(#SVGID_29_);}
	.st32{fill:url(#SVGID_30_);}
	.st33{fill:url(#SVGID_31_);}
	.st34{fill:url(#SVGID_32_);}
	.st35{fill:#BBBCAF;}
	.st36{fill:#D3D3CD;}
	.st37{fill:#ADAD9F;}
	.st38{fill:#524A40;}
	.st39{fill:#A5A4A0;}
	.st40{fill:#BEBCB5;}
	.st41{fill:#736D6E;}
	.st42{fill:#80756B;}
	.st43{fill:#CBD8CA;}
	.st44{clip-path:url(#SVGID_34_);fill:#EFF1E8;}
	.st45{clip-path:url(#SVGID_36_);fill:#7C89A0;}
	.st46{fill:#C3AD97;}
	.st47{fill:#D3BDAE;}
</style>
<g>
	<g id="XMLID_00000031926112795880299130000013812345833982662813_">
		<g id="XMLID_00000119104773635907516670000004803483979636754327_" class="st0">
			<path id="XMLID_00000101085534285822423410000011769960506248777608_" class="st1" d="M68.7,180.4c-19.9,0.3-36.1-3.4-36.2-8.3
				c0-1.7,2.5-3.3,5.9-4.7c-7,1.7-11.4,4.1-11.3,6.6c0.1,4.9,16.3,8.6,36.2,8.3c12.9-0.2,23.6-2.1,29.9-4.7
				C86.8,179.2,78.2,180.2,68.7,180.4z"/>
			<path id="XMLID_00000079469367553310144260000017614392180646547335_" class="st1" d="M34.1,180.3c-9.9-1.3-16.9-3.9-17.2-7.5
				c-0.5-5.8,15.6-11.5,36-12.8c4.9-0.3,9.5-0.3,13.8-0.1c-6-0.8-12.9-1.2-20.6-0.7c-20.4,1.3-36.5,7-36,12.8
				C10.4,176.5,20.4,179.6,34.1,180.3z"/>
			<path id="XMLID_00000036248737678466339090000018362281433634909840_" class="st1" d="M65.8,155.1c18.9-0.3,34.3,3.4,34.4,8.3
				c0,1.7-2.4,3.3-5.6,4.7c6.6-1.7,10.8-4,10.8-6.6c-0.1-4.9-15.5-8.6-34.4-8.3c-12.2,0.2-22.4,2.1-28.4,4.7
				C48.6,156.3,56.7,155.3,65.8,155.1z"/>
		</g>
		<linearGradient id="SVGID_1_" gradientUnits="userSpaceOnUse" x1="86.9621" y1="126.9357" x2="126.2081" y2="59.6056">
			<stop  offset="2.409013e-02" style="stop-color:#E0B151"/>
			<stop  offset="0.3566" style="stop-color:#3A9B53"/>
			<stop  offset="1" style="stop-color:#DCF25A"/>
		</linearGradient>
		<path class="st2" d="M84.3,164.8c0,0,0.5-52.3,2.9-79.4S145,32.9,145,32.9s-51,28.9-52.4,47.4s-1.5,85.5-1.5,85.5
			S86.9,166.7,84.3,164.8z"/>
		<linearGradient id="SVGID_2_" gradientUnits="userSpaceOnUse" x1="11.0066" y1="87.4974" x2="59.0118" y2="87.4974">
			<stop  offset="2.666300e-02" style="stop-color:#3A9B53"/>
			<stop  offset="1" style="stop-color:#DCF25A"/>
		</linearGradient>
		<path class="st3" d="M59,145.7c0,0-2.8-49.6-6-75.4c-2.3-18.6-5.6-33.6-14.8-39.9C24.3,20.7,11,68.8,11,68.8s21.5-51.1,29.1-25.7
			s9.8,49.7,10.6,64.6c0.8,14.9,1,38,1,38S56.2,146.2,59,145.7z"/>
		<g>
			<path class="st4" d="M54,162.5c-1.2-4.7-2.1-9.3-2.8-14c-0.7-4.7-1.4-9.4-1.8-14.1c-0.3-4.7-0.3-9.5-0.8-14.3
				c-0.5-4.7-1.4-9.4-2.5-14l-1.6-6.9L43,92.2c-0.5-2.3-1-4.6-1.6-6.9l-0.8-3.4l-0.9-3.4c-0.2-1.2-0.6-2.2-1-3.3
				c-0.2-0.5-0.3-1.1-0.5-1.6L37.7,72c-0.8-2.1-1.8-4.2-3-6.2c-1.1-2-2.5-3.8-4.1-5.4c-0.8-0.8-1.7-1.5-2.6-2.1
				c-1-0.6-2-1.1-3.1-1.3l0-0.4c1.3-0.1,2.5,0.2,3.7,0.6c1.2,0.4,2.3,1,3.4,1.7c0.5,0.4,1,0.7,1.5,1.1c0.5,0.4,1,0.8,1.4,1.3
				l1.3,1.4l1.2,1.5c0.4,0.5,0.7,1,1.1,1.5c0.3,0.5,0.7,1,1,1.6c0.6,1.1,1.3,2.1,1.8,3.2l0.8,1.7c0.2,0.6,0.4,1.2,0.7,1.7
				c0.4,1.2,0.9,2.4,1.2,3.5l0.9,3.5c0.3,1.2,0.5,2.4,0.7,3.5c0.5,2.4,0.8,4.7,1.2,7.1c0.8,4.7,1.2,9.5,1.6,14.2
				c0.2,2.4,0.4,4.8,0.6,7.1c0.3,2.4,0.6,4.7,0.9,7.1c0.8,4.7,2,9.3,2.8,14c0.4,2.3,0.7,4.7,1,7.1c0.3,2.4,0.4,4.7,0.6,7.1
				c0.3,4.8,0.5,9.5,0.2,14.3L54,162.5z"/>
		</g>
		<linearGradient id="SVGID_3_" gradientUnits="userSpaceOnUse" x1="58.4793" y1="105.0062" x2="78.7737" y2="105.0062">
			<stop  offset="2.666300e-02" style="stop-color:#3A9B53"/>
			<stop  offset="1" style="stop-color:#DCF25A"/>
		</linearGradient>
		<path class="st5" d="M69.8,165.2c0,0-0.5-59.7-2-72.6C66.2,79.7,60,56,59.5,52.2c-0.5-3.7-1-9.5-1-9.5s9.6,29.2,12.1,35.7
			c2.4,6.5,4.7,28.3,5.6,36.6s2.7,51.9,2.7,51.9S74.2,168.3,69.8,165.2z"/>
		<linearGradient id="SVGID_4_" gradientUnits="userSpaceOnUse" x1="61.1652" y1="139.6986" x2="65.4858" y2="36.363">
			<stop  offset="2.666300e-02" style="stop-color:#3A9B53"/>
			<stop  offset="1" style="stop-color:#DCF25A"/>
		</linearGradient>
		<path class="st6" d="M51.4,165.6h15.1c6.3-31.9,17.7-77,7.6-135.7c1,50.7-8.3,84.1-12.2,111.7c2-32.4,1.1-75.1-10.2-118.6
			C57.7,88.8,54.2,139.7,51.4,165.6z"/>
		<g>
			<path class="st4" d="M77.4,173.3c-1.3-6.4-2.2-12.9-3-19.4l-0.5-4.9l-0.5-4.9c-0.3-3.3-0.5-6.5-0.7-9.8
				c-0.3-6.5-0.1-13.1-0.5-19.6c-0.2-3.3-0.4-6.5-0.7-9.8c-0.3-3.3-0.7-6.5-1.1-9.7c-0.8-6.5-1.5-13-2-19.5
				c-0.3-3.3-0.4-6.5-0.6-9.8c-0.1-1.7-0.1-3.3-0.2-5c0.1-1.7,0-3.4,0.3-5.2c0.1-0.4,0.1-0.9,0.2-1.3l0.3-1.3
				c0.2-0.8,0.4-1.7,0.7-2.5c0.3-0.8,0.5-1.6,0.8-2.4l1-2.3c1.3-3.1,2.8-6.1,4.5-8.9c3.3-5.7,7.1-11.1,11.4-16.1l0.3,0.2
				c-3.2,5.7-6.2,11.5-8.9,17.3l-1,2.2l-0.9,2.2c-0.3,0.7-0.6,1.5-0.9,2.2c-0.3,0.7-0.6,1.5-0.8,2.2c-1.1,3-2,6-2.4,9
				c-0.3,1.4-0.2,3-0.3,4.6c0,1.6,0.1,3.2,0.1,4.8c0.1,3.2,0.1,6.5,0.2,9.8l0.3,9.8c0.1,3.3,0.1,6.5,0.1,9.8
				c0.1,6.5,0.3,13.1,0.9,19.6c0.6,6.5,1.7,13,2.5,19.4c0.4,3.2,0.7,6.5,0.9,9.8c0.2,3.3,0.4,6.5,0.6,9.8c0.3,6.5,0.5,13.1,0.3,19.6
				L77.4,173.3z"/>
		</g>
		<linearGradient id="SVGID_5_" gradientUnits="userSpaceOnUse" x1="50.1337" y1="114.5031" x2="115.9838" y2="114.5031">
			<stop  offset="2.409013e-02" style="stop-color:#E0B151"/>
			<stop  offset="0.3566" style="stop-color:#3A9B53"/>
			<stop  offset="1" style="stop-color:#DCF25A"/>
		</linearGradient>
		<path class="st7" d="M60,169.1c0.8-0.5-11.1-84.5,15.6-102.8s40.4,52.4,40.4,52.4S93.5,59.3,82.4,58.7c-11.1-0.5-22,10.2-26.4,24
			s-5.8,86.4-5.8,86.4S56,171.8,60,169.1z"/>
		<g>
			<path class="st4" d="M58.8,160.7c-0.9-4.7-1.4-9.5-2-14.2c-0.3-2.4-0.5-4.7-0.7-7.1c-0.2-2.4-0.4-4.7-0.6-7.1
				c-0.3-4.7-0.2-9.5-1-14.2c-0.7-4.7-2-9.3-4.2-13.4c-0.3-0.5-0.6-1-0.9-1.5c-0.3-0.5-0.6-0.9-1-1.4c-0.6-0.8-1.5-1.6-2.3-2.4
				c-0.8-0.8-1.7-1.5-2.6-2.2c-0.9-0.6-1.8-1.4-2.8-2c-3.8-2.5-8-4.3-12.4-5.7c-8.7-2.9-18-3.7-27.5-2.4l-0.1-0.4
				c4.4-2,9.3-3,14.2-3.2c4.9-0.2,9.9,0.4,14.7,1.8c4.8,1.4,9.3,3.7,13.3,6.7c0.5,0.4,1,0.7,1.5,1.2l1.4,1.2
				c0.5,0.4,0.9,0.9,1.3,1.3c0.4,0.5,0.9,0.9,1.3,1.4c0.8,1,1.6,1.9,2.2,3.1c0.3,0.6,0.6,1.2,0.9,1.7c0.3,0.6,0.5,1.2,0.7,1.7
				c0.8,2.3,1.4,4.7,1.9,7c0.5,2.3,1,4.7,1.5,7c1,4.7,2.3,9.3,3,14.1c0.4,2.4,0.6,4.8,0.8,7.1c0.2,2.4,0.3,4.8,0.3,7.2
				c0,4.8-0.1,9.6-0.7,14.4L58.8,160.7z"/>
		</g>
		<g>
			<path class="st4" d="M75.7,162.4c-2-5.4-3.6-11-5.1-16.5c-0.8-2.8-1.5-5.5-2.2-8.3c-0.7-2.8-1.3-5.6-1.8-8.4
				c-1.1-5.6-1.7-11.4-2.9-17c-1.2-5.6-2.7-11.2-4.4-16.6c-0.8-2.8-1.7-5.5-2.5-8.2c-0.8-2.8-1.6-5.5-2.3-8.3
				c-1.5-5.5-3.1-11.1-4.4-16.6c-1.4-5.6-2.6-11.2-3.9-16.8l-1.9-8.4c-0.6-2.8-1.2-5.6-2.1-8.3l0.4-0.2c0.8,1.2,1.4,2.6,2,3.9
				c0.6,1.3,1.2,2.7,1.7,4c1.1,2.7,2,5.4,3,8.1c1.8,5.5,3.5,11,5,16.5c1.5,5.6,2.7,11.2,4,16.8c0.6,2.8,1.2,5.6,1.8,8.4
				c0.6,2.8,1,5.7,1.5,8.5c1,5.7,2.1,11.3,3.6,16.9c1.4,5.6,3.4,11,4.9,16.5c0.8,2.8,1.5,5.6,2.1,8.4c0.6,2.8,1.2,5.6,1.7,8.4
				c1,5.7,2,11.3,2.5,17.1L75.7,162.4z"/>
		</g>
		<linearGradient id="SVGID_6_" gradientUnits="userSpaceOnUse" x1="77.0008" y1="98.9138" x2="88.9768" y2="98.9138">
			<stop  offset="2.409013e-02" style="stop-color:#E0B151"/>
			<stop  offset="0.3566" style="stop-color:#3A9B53"/>
			<stop  offset="1" style="stop-color:#DCF25A"/>
		</linearGradient>
		<path class="st8" d="M88.4,172.8h-8.7C75.9,137.4,74,81.8,89,25C82.6,92,85.6,144.5,88.4,172.8z"/>
		<linearGradient id="SVGID_7_" gradientUnits="userSpaceOnUse" x1="67.2715" y1="168.535" x2="60.7905" y2="35.945">
			<stop  offset="2.409013e-02" style="stop-color:#E0B151"/>
			<stop  offset="0.3566" style="stop-color:#3A9B53"/>
			<stop  offset="1" style="stop-color:#DCF25A"/>
		</linearGradient>
		<path class="st9" d="M71.1,173.9c0,0-3.5-116.5-5.3-132.7C64.1,25.1,59.6,0,59.6,0s2.3,42.5,2.4,53.8
			c0.1,11.3,0.4,119.1,0.4,119.1S66.7,175.1,71.1,173.9z"/>
		<linearGradient id="SVGID_8_" gradientUnits="userSpaceOnUse" x1="37.6707" y1="168.5135" x2="22.1883" y2="86.7812">
			<stop  offset="2.409013e-02" style="stop-color:#E0B151"/>
			<stop  offset="0.3566" style="stop-color:#3A9B53"/>
			<stop  offset="1" style="stop-color:#DCF25A"/>
		</linearGradient>
		<path class="st10" d="M54.8,170.8c0,0-5.4-61.5-10.6-80.4S2.5,97,2.5,97S29,83.5,37.2,89.1c9.3,6.3,7.1,80.9,7.1,80.9
			S49.7,172.3,54.8,170.8z"/>
		<linearGradient id="SVGID_9_" gradientUnits="userSpaceOnUse" x1="72.3092" y1="125.6384" x2="159.0099" y2="125.6384">
			<stop  offset="2.409013e-02" style="stop-color:#E0B151"/>
			<stop  offset="0.3566" style="stop-color:#3A9B53"/>
			<stop  offset="1" style="stop-color:#DCF25A"/>
		</linearGradient>
		<path class="st11" d="M72.3,171.9c0,0,5-71,27.7-87.2s59,5.1,59,5.1s-36.2-13.3-48.7-2.9S92.1,104.5,86,131.5
			c-6.1,27.1-6.3,40.4-6.3,40.4S75.3,173.4,72.3,171.9z"/>
		<g>
			<path class="st4" d="M61.2,173.3c0.5-2.7,1.2-5.3,1.9-7.9c0.8-2.6,1.7-5.1,2.6-7.6c1-2.5,2-5,3.2-7.4c1.1-2.5,2.4-4.8,3.8-7.1
				c2.8-4.6,6.2-8.9,9.4-13.2c3.2-4.3,6.5-8.5,10.3-12.5c3.7-4,8.4-7.3,13.8-9.2c2.8-0.9,5.4-1.3,8.2-1.8c1.4-0.2,2.7-0.3,4.1-0.4
				l1-0.1l1,0l2.1,0c5.5,0.1,11.1,1,16.3,3c2.6,1,5.1,2.2,7.3,3.8c2.3,1.5,4.4,3.3,6.1,5.5l-0.3,0.3c-2.1-1.6-4.4-2.9-6.8-4
				c-1.2-0.6-2.4-1-3.6-1.5c-0.6-0.2-1.2-0.4-1.9-0.6c-0.6-0.2-1.2-0.4-1.9-0.5c-5-1.3-10.1-1.8-15.3-1.7l-1.9,0l-1,0l-1,0.1
				c-1.3,0.1-2.6,0.2-3.9,0.3c-2.5,0.4-5.2,0.6-7.6,1.3c-2.4,0.7-4.7,1.7-7,2.9c-0.6,0.3-1.1,0.6-1.7,1c-0.5,0.3-1.1,0.7-1.7,1
				c-1.1,0.8-2.2,1.5-3.2,2.3c-4.1,3.2-7.8,7.2-10.7,11.6c-3,4.4-5.2,9.3-7.5,14c-2.3,4.8-4.7,9.4-7.1,14.2c-2.3,4.8-4.6,9.6-7,14.4
				L61.2,173.3z"/>
		</g>
		<g>
			<path class="st4" d="M83.2,173.2c-0.8-5.6-1.2-11.2-1.5-16.8c-0.1-2.8-0.2-5.6-0.3-8.4c-0.1-2.8,0-5.6,0.1-8.4
				c0.3-5.6,0.9-11.2,1.1-16.8c0.2-5.6,0-11.2-0.2-16.8c-0.3-5.6-0.4-11.2-0.3-16.9l0.2-4.3c0.1-1.4,0.2-2.9,0.4-4.4
				c0.5-3,1.3-5.8,2.4-8.5c1.1-2.7,2.3-5.3,3.6-7.8c1.3-2.5,2.7-5,4.3-7.4c3-4.8,6.3-9.4,10-13.7l0.3,0.2c-2.5,5-5.1,10-7.5,15
				c-2.4,5-4.8,10-6.6,15.1c-0.9,2.5-1.7,5.1-2.2,7.7c-0.2,1.3-0.4,2.6-0.5,4L86,89.3l-0.6,8.4l-0.7,8.4c-0.5,5.6-0.7,11.2-0.7,16.8
				c0.1,5.6,0.7,11.2,1,16.8c0.1,2.8,0.2,5.6,0.1,8.4c0,2.8-0.1,5.6-0.2,8.4c-0.2,5.6-0.5,11.2-1.2,16.8L83.2,173.2z"/>
		</g>
	</g>
	<g>
		<g id="XMLID_00000170967756086941345410000001952695171504397737_" class="st0">
			<path id="XMLID_00000173856295567490277920000007007725809520617877_" class="st1" d="M95.8,191.7c20.6,0.3,37.5-2.9,37.6-6.9
				c0-1.4-2.6-2.7-6.1-3.9c7.2,1.4,11.8,3.4,11.8,5.5c-0.1,4.1-16.9,7.2-37.6,6.9c-13.3-0.2-24.5-1.8-31-3.9
				C77,190.7,85.9,191.6,95.8,191.7z"/>
			<path id="XMLID_00000127045718952511973240000012944367948564524695_" class="st1" d="M98.1,174.6c-20.6-0.3-37.5,2.9-37.6,6.9
				c0,1.4,2.6,2.7,6.1,3.9c-7.2-1.4-11.8-3.4-11.8-5.5c0.1-4.1,16.9-7.2,37.6-6.9c13.3,0.2,24.5,1.8,31,3.9
				C116.8,175.6,108,174.7,98.1,174.6z"/>
		</g>
		<linearGradient id="SVGID_10_" gradientUnits="userSpaceOnUse" x1="101.9121" y1="162.5178" x2="127.3095" y2="162.5178">
			<stop  offset="0" style="stop-color:#00775C"/>
			<stop  offset="1" style="stop-color:#9DE3AF"/>
		</linearGradient>
		<path class="st12" d="M102.7,174c0,0,7.8-3.9,13.7-11.4c5.9-7.5,11-14.1,11-14.1s-5,11.1-10,17.6c-5,6.5-11.1,10-12,10.3
			c-0.9,0.3-3.4,0-3.4,0L102.7,174z"/>
		<linearGradient id="SVGID_11_" gradientUnits="userSpaceOnUse" x1="86.6765" y1="190.6877" x2="94.2376" y2="143.7007">
			<stop  offset="0" style="stop-color:#2CB081"/>
			<stop  offset="1" style="stop-color:#D2FFAD"/>
		</linearGradient>
		<path class="st13" d="M87.7,149.2c0,0,0.8,10.4,1.1,14.8c0.3,4.4,3.3,10.6,3.3,10.6l3-1.7c0,0-2.7-9.6-4.1-13.9
			C89.5,154.8,87.7,149.2,87.7,149.2z"/>
		<linearGradient id="SVGID_12_" gradientUnits="userSpaceOnUse" x1="68.3463" y1="158.9187" x2="98.1064" y2="158.9187">
			<stop  offset="0" style="stop-color:#00775C"/>
			<stop  offset="1" style="stop-color:#9DE3AF"/>
		</linearGradient>
		<path class="st14" d="M68.3,140.3c0,0,8.6,9.8,15,19.7c6.4,9.9,10.3,17.5,10.3,17.5l4.5,0.2c0,0-2.9-9.4-11.9-21.5
			C80.8,148.8,68.3,140.3,68.3,140.3z"/>
		<linearGradient id="SVGID_13_" gradientUnits="userSpaceOnUse" x1="88.0182" y1="155.64" x2="98.779" y2="155.64">
			<stop  offset="0" style="stop-color:#00775C"/>
			<stop  offset="1" style="stop-color:#9DE3AF"/>
		</linearGradient>
		<path class="st15" d="M88,133.9c0,0,2,11.9,3.4,20.3s1.2,22.4,1.2,22.4l6.2,0.8c0,0-0.7-7.1-3.2-19C93,146,88,133.9,88,133.9z"/>
		<linearGradient id="SVGID_14_" gradientUnits="userSpaceOnUse" x1="91.1288" y1="154.421" x2="107.2699" y2="154.421">
			<stop  offset="0" style="stop-color:#0C4B56"/>
			<stop  offset="0.338" style="stop-color:#317C5B"/>
			<stop  offset="0.5963" style="stop-color:#499B5E"/>
			<stop  offset="0.8456" style="stop-color:#5BB360"/>
			<stop  offset="1" style="stop-color:#62BC61"/>
		</linearGradient>
		<path class="st16" d="M107.3,132.3c0,0-3.2,12.4-6.5,21.7c-3.3,9.3-9.7,20.3-9.7,20.3l8.7,2.4c0,0,3.4-11.6,5.2-21.9
			C106.2,148.2,107.3,132.3,107.3,132.3z"/>
		<linearGradient id="SVGID_15_" gradientUnits="userSpaceOnUse" x1="103.9844" y1="193.4729" x2="111.5455" y2="146.4859">
			<stop  offset="0" style="stop-color:#2CB081"/>
			<stop  offset="1" style="stop-color:#D2FFAD"/>
		</linearGradient>
		<path class="st17" d="M98.3,177.1l23.9-44.7c0,0-7.7,23.4-11.3,31.2c-3.6,7.7-6.3,12.3-6.3,12.3L98.3,177.1z"/>
		<linearGradient id="SVGID_16_" gradientUnits="userSpaceOnUse" x1="66.2165" y1="178.4225" x2="88.1864" y2="178.4225">
			<stop  offset="0" style="stop-color:#00775C"/>
			<stop  offset="1" style="stop-color:#9DE3AF"/>
		</linearGradient>
		<path class="st18" d="M87.6,173.4c0,0-7.4,0.9-13.3,3.5c-5.9,2.6-8.1,6.5-8.1,6.5s5.6-3.5,12-5.4c6.4-1.9,10-2.7,10-2.7
			L87.6,173.4z"/>
		<linearGradient id="SVGID_17_" gradientUnits="userSpaceOnUse" x1="94.1272" y1="188.0063" x2="102.1977" y2="188.0063">
			<stop  offset="0" style="stop-color:#00775C"/>
			<stop  offset="1" style="stop-color:#9DE3AF"/>
		</linearGradient>
		<path class="st19" d="M94.1,178.3c0,0,2,4.9,3,9.8c1,4.8,1.8,11.7,1.8,11.7s0.8-7.7,1.5-13.1c0.7-5.4,1.8-9.1,1.8-9.1l-7.7-1.1
			L94.1,178.3z"/>
		<linearGradient id="SVGID_18_" gradientUnits="userSpaceOnUse" x1="100.9647" y1="185.3161" x2="117.2179" y2="185.3161">
			<stop  offset="0" style="stop-color:#0C4B56"/>
			<stop  offset="0.338" style="stop-color:#317C5B"/>
			<stop  offset="0.5963" style="stop-color:#499B5E"/>
			<stop  offset="0.8456" style="stop-color:#5BB360"/>
			<stop  offset="1" style="stop-color:#62BC61"/>
		</linearGradient>
		<path class="st20" d="M101,181.4c0,0,6.1,2.7,9.5,5.2c3.5,2.5,6.7,7.1,6.7,7.1s-1-6.1-5.4-10.1c-4.4-4-9.8-6.5-9.8-6.5L101,181.4z
			"/>
		<linearGradient id="SVGID_19_" gradientUnits="userSpaceOnUse" x1="109.3389" y1="194.3346" x2="116.9" y2="147.3475">
			<stop  offset="0" style="stop-color:#2CB081"/>
			<stop  offset="1" style="stop-color:#D2FFAD"/>
		</linearGradient>
		<path class="st21" d="M103.8,176.3c0,0,7.1-1.1,13.6-2.8c6.5-1.7,11.9-4.4,11.9-4.4s-3.8,4.8-11.3,7.3c-7.5,2.5-13.6,3-13.6,3
			l-7.4-2.4l-0.4-1.2L103.8,176.3z"/>
		<linearGradient id="SVGID_20_" gradientUnits="userSpaceOnUse" x1="92.4783" y1="159.2836" x2="120.4463" y2="159.2836">
			<stop  offset="0" style="stop-color:#00775C"/>
			<stop  offset="1" style="stop-color:#9DE3AF"/>
		</linearGradient>
		<path class="st22" d="M95.3,169.3c0,0,12.6-24.5,14.6-26.4c2-1.8,2.8-2.1,4.6,1s4.4,11.4,5.3,13.9c0.9,2.5,0.7,4.5,0.7,4.5
			s-3-7.2-5-10.1c-2-2.9-3.7-4.1-3.7-4.1s-5.7,13.9-8.3,19.1c-2.6,5.2-6,9.6-6,9.6l-5.1-2.6L95.3,169.3z"/>
		<linearGradient id="SVGID_21_" gradientUnits="userSpaceOnUse" x1="75.5739" y1="188.9011" x2="83.135" y2="141.914">
			<stop  offset="0" style="stop-color:#2CB081"/>
			<stop  offset="1" style="stop-color:#D2FFAD"/>
		</linearGradient>
		<path class="st23" d="M87.9,171.9l-10.6-13.8c0,0-2,1.2-5.7,4.9c-3.7,3.7-7.3,6.7-7.3,6.7s4.8-9.5,7.6-13.2
			c2.8-3.7,3.8-4.8,7.5-3.1c3.7,1.7,13.2,19.8,13.2,19.8L87.9,171.9z"/>
		<linearGradient id="SVGID_22_" gradientUnits="userSpaceOnUse" x1="95.4723" y1="174.3206" x2="118.1147" y2="174.3206">
			<stop  offset="0" style="stop-color:#0C4B56"/>
			<stop  offset="0.338" style="stop-color:#317C5B"/>
			<stop  offset="0.5963" style="stop-color:#499B5E"/>
			<stop  offset="0.8456" style="stop-color:#5BB360"/>
			<stop  offset="1" style="stop-color:#62BC61"/>
		</linearGradient>
		<path class="st24" d="M97.6,175.2c0,0,5.2-0.4,11.3-2.4c6.2-2,9.2-3.4,9.2-3.4s-5.9,6-12.5,7.9c-6.5,1.9-10,1.9-10,1.9l-0.2-4
			H97.6z"/>
		<linearGradient id="SVGID_23_" gradientUnits="userSpaceOnUse" x1="67.6657" y1="173.026" x2="93.8729" y2="173.026">
			<stop  offset="0" style="stop-color:#0C4B56"/>
			<stop  offset="0.338" style="stop-color:#317C5B"/>
			<stop  offset="0.5963" style="stop-color:#499B5E"/>
			<stop  offset="0.8456" style="stop-color:#5BB360"/>
			<stop  offset="1" style="stop-color:#62BC61"/>
		</linearGradient>
		<path class="st25" d="M93.9,173.5c-0.3,0-4.9-3.5-13.2-4c-8.3-0.5-13,1.4-13,1.4s9.3,0.6,14.2,1.3c4.9,0.7,10.5,4.5,10.5,4.5
			L93.9,173.5z"/>
		<linearGradient id="SVGID_24_" gradientUnits="userSpaceOnUse" x1="88.2784" y1="190.9455" x2="95.8395" y2="143.9585">
			<stop  offset="0" style="stop-color:#2CB081"/>
			<stop  offset="1" style="stop-color:#D2FFAD"/>
		</linearGradient>
		<path class="st26" d="M90.8,174c0,0-2.7,2.7-5,7.6c-2.4,4.9-4,13.2-4,13.2s4.5-7.6,7.8-12c3.4-4.4,7.1-6.5,7.1-6.5
			S93.6,172.2,90.8,174z"/>
		<linearGradient id="SVGID_25_" gradientUnits="userSpaceOnUse" x1="96.9295" y1="180.864" x2="127.6844" y2="180.864">
			<stop  offset="0" style="stop-color:#00775C"/>
			<stop  offset="1" style="stop-color:#9DE3AF"/>
		</linearGradient>
		<path class="st27" d="M101.1,180.3c0,0,3.3-0.3,11.9,1.3c8.6,1.7,14.7,3.8,14.7,3.8s-5.4-5.5-15.5-7.5c-10.1-2-15.3-1.5-15.3-1.5
			L101.1,180.3z"/>
		<linearGradient id="SVGID_26_" gradientUnits="userSpaceOnUse" x1="101.5008" y1="193.0733" x2="109.062" y2="146.0862">
			<stop  offset="0" style="stop-color:#2CB081"/>
			<stop  offset="1" style="stop-color:#D2FFAD"/>
		</linearGradient>
		<path class="st28" d="M95.5,178.9c0,0,3.5,0.9,6.7,6.3c3.3,5.4,7.6,14.8,7.6,14.8s0.1-9.5-4.1-16.1c-4.3-6.6-9.4-8.7-9.4-8.7
			s-1.2-0.1-1.6,1.7C94.4,178.6,95.5,178.9,95.5,178.9z"/>
		<linearGradient id="SVGID_27_" gradientUnits="userSpaceOnUse" x1="81.775" y1="189.899" x2="89.3362" y2="142.9119">
			<stop  offset="0" style="stop-color:#2CB081"/>
			<stop  offset="1" style="stop-color:#D2FFAD"/>
		</linearGradient>
		<path class="st29" d="M94.1,175.8c0,0-3.5-2-8.2,1.1C81.1,180,72,188.4,72,188.4s6.4-9.9,11.1-13.6c4.7-3.8,6.6-2.5,8.5-1.6
			C93.5,174,94.1,175.8,94.1,175.8z"/>
		<linearGradient id="SVGID_28_" gradientUnits="userSpaceOnUse" x1="79.4426" y1="154.1772" x2="95.4692" y2="154.1772">
			<stop  offset="0" style="stop-color:#0C4B56"/>
			<stop  offset="0.338" style="stop-color:#317C5B"/>
			<stop  offset="0.5963" style="stop-color:#499B5E"/>
			<stop  offset="0.8456" style="stop-color:#5BB360"/>
			<stop  offset="1" style="stop-color:#62BC61"/>
		</linearGradient>
		<path class="st30" d="M79.4,131.8c0,0-0.1,11.9,2.5,21.7c2.6,9.9,8.1,19.4,9.2,20.6c2,2.1,3.2,2.5,4.2,2.2c1-0.2-6.3-12-9.1-21.2
			C83.5,146.1,79.4,131.8,79.4,131.8z"/>
		<linearGradient id="SVGID_29_" gradientUnits="userSpaceOnUse" x1="78.5967" y1="181.2559" x2="96.6772" y2="181.2559">
			<stop  offset="0" style="stop-color:#00775C"/>
			<stop  offset="1" style="stop-color:#9DE3AF"/>
		</linearGradient>
		<path class="st31" d="M84,179c-2.4,2.5-4.1,5.7-5.4,9c2-2.3,4.4-4.3,6.8-6.3c4.5-3.6,9.4-4.9,11.3-5.3c-0.3,0-2.8-1.7-3.5-1.8
			c-0.9-0.2-2.2,0.2-3,0.5C87.8,175.8,85.7,177.3,84,179z"/>
		<linearGradient id="SVGID_30_" gradientUnits="userSpaceOnUse" x1="97.5905" y1="168.262" x2="114.3507" y2="168.262">
			<stop  offset="0" style="stop-color:#0C4B56"/>
			<stop  offset="0.338" style="stop-color:#317C5B"/>
			<stop  offset="0.5963" style="stop-color:#499B5E"/>
			<stop  offset="0.8456" style="stop-color:#5BB360"/>
			<stop  offset="1" style="stop-color:#62BC61"/>
		</linearGradient>
		<path class="st32" d="M106,167.8c3.1-2.2,5.9-4.8,8.4-7.7c-3.8,7-8.7,13.5-16.2,16.4c-0.7-2.2-0.6-3.5-0.1-4.3
			C100.6,171.1,103,169.8,106,167.8z"/>
		<linearGradient id="SVGID_31_" gradientUnits="userSpaceOnUse" x1="91.0616" y1="191.3934" x2="98.6227" y2="144.4063">
			<stop  offset="0" style="stop-color:#2CB081"/>
			<stop  offset="1" style="stop-color:#D2FFAD"/>
		</linearGradient>
		<path class="st33" d="M97.9,116.9c0,0-0.9,18.6-1.6,29.4c-0.7,10.8-3.1,28.5-3.1,28.5s-1.3,3,2.3,2.3c2.1-0.4,3.1-1,3.1-1
			s2.5-12.9,1-26.8C98.2,135.4,97.9,116.9,97.9,116.9z"/>
		<linearGradient id="SVGID_32_" gradientUnits="userSpaceOnUse" x1="89.1759" y1="185.5683" x2="98.7369" y2="185.5683">
			<stop  offset="0" style="stop-color:#0C4B56"/>
			<stop  offset="0.338" style="stop-color:#317C5B"/>
			<stop  offset="0.5963" style="stop-color:#499B5E"/>
			<stop  offset="0.8456" style="stop-color:#5BB360"/>
			<stop  offset="1" style="stop-color:#62BC61"/>
		</linearGradient>
		<path class="st34" d="M93,174.8c0,0-2.2,5.6-3,10.6c-1,5.7-0.8,10.9-0.8,10.9s3.4-9.7,5-12.9c1.7-3.4,4.6-7.3,4.6-7.3
			S95.5,176.5,93,174.8z"/>
	</g>
	<g>
		<g>
			<path class="st35" d="M81.9,74.7c0,0-0.1,0.3-0.2,0.3c0,0-0.1-0.1-0.2-0.1c-0.1-0.1-0.1-0.2-0.2-0.3c0,0,0-0.1,0-0.1
				c0-0.3,0.1-0.8,0.1-0.8c0,0,0,0,0,0c-0.1-0.2-0.7-0.7-0.8-0.7c-0.1-0.1,0-0.1,0.1-0.1c0.1,0.1,0.5,0.4,0.7,0.6
				c0.1,0.1,0.2,0.2,0.2,0.2c0.1,0.2-0.1,0.6-0.1,0.8c0,0,0,0,0,0.1c0,0.1,0.1,0.1,0.2,0.1C81.7,74.6,81.8,74.6,81.9,74.7z"/>
			<path class="st36" d="M81.4,73.6c-0.1-0.2-0.7-0.7-0.8-0.7c-0.1-0.1,0-0.1,0.1-0.1c0.1,0.1,0.5,0.4,0.7,0.6
				C81.4,73.4,81.4,73.5,81.4,73.6z"/>
		</g>
		<g>
			<path class="st37" d="M80.9,75.4C80.9,75.4,81,75.4,80.9,75.4c0.1,0,0.3,0.2,0.3,0.2c0.1-0.1,0.2-0.2,0.2-0.2
				c-0.1-0.1-0.1-0.2-0.3-0.2c0,0-0.1,0-0.2,0.1C81,75.3,80.9,75.4,80.9,75.4z"/>
			<g>
				<path class="st35" d="M79.9,75.4C79.9,75.4,79.9,75.5,79.9,75.4c0,0.1,0,0.1,0,0.1c0,0,0.1,0,0.1,0c0.1,0,0.1,0,0.2,0l0,0
					c0,0,0,0,0,0s0.1,0.3,0.3,0.1c0.2-0.1,0.3-0.3,0.4-0.3c0,0,0,0,0.1,0c0.1,0,0.2,0.2,0.3,0.2c0.1-0.1,0.2-0.2,0.2-0.2
					c-0.1-0.1-0.1-0.2-0.3-0.2c0,0-0.1,0-0.2,0.1c-0.2,0.1-0.4,0.2-0.6,0.2c0,0-0.1,0-0.1,0c0,0,0,0,0,0c-0.1,0-0.2-0.2-0.3-0.2
					c-0.1,0-0.1,0-0.1,0s-0.6-0.4-0.6-0.3C79.2,75,79.9,75.4,79.9,75.4z"/>
				<path class="st36" d="M79.9,75.4C79.9,75.4,79.9,75.5,79.9,75.4c0,0.1,0,0.1,0,0.1c0,0,0.1,0,0.1,0c0.1,0,0.1,0,0.2,0
					c0-0.1,0.1-0.1,0.1-0.2c-0.1,0-0.2-0.2-0.3-0.2c-0.1,0-0.1,0-0.1,0s-0.6-0.4-0.6-0.3C79.2,75,79.9,75.4,79.9,75.4z"/>
			</g>
		</g>
		<g>
			<path class="st35" d="M80.4,77.2c0,0,0,0.1,0,0.1c0,0.2,0.1,0.4,0,0.6c-0.1,0.2-0.2,0.2-0.5,0.3c0,0-0.1,0-0.2,0
				c-0.3,0.1-0.6,0.2-0.6,0.1c-0.1-0.2,0.7-0.4,0.9-0.5c0,0,0,0,0,0c0.2-0.1,0-0.2,0-0.5c0-0.2,0.1-0.3,0.2-0.4c0,0,0.1-0.1,0.1-0.1
				c0-0.1,0.4-0.3,0.6-0.3l0,0.4c0,0-0.1,0.1-0.3,0.1C80.5,77.2,80.4,77.2,80.4,77.2C80.4,77.2,80.4,77.2,80.4,77.2z"/>
			<path class="st36" d="M80,78.1c0,0.1,0,0.1-0.1,0.2c0,0-0.1,0-0.2,0c-0.3,0.1-0.6,0.2-0.6,0.1c-0.1-0.2,0.7-0.4,0.9-0.5
				c0,0,0,0,0,0C80,78,80,78.1,80,78.1z"/>
			<path class="st37" d="M80.9,77c0,0-0.1,0.1-0.3,0.1c0,0,0,0,0,0c-0.1,0-0.2,0-0.2,0s0,0,0,0.1c0,0-0.1-0.1-0.1-0.2
				c0,0,0.1-0.1,0.1-0.1c0,0,0.1-0.1,0.1-0.1c0.1-0.1,0.3-0.2,0.5-0.2L80.9,77z"/>
			<path class="st37" d="M80.6,77.2c-0.1,0-0.2,0-0.2,0s0,0,0,0.1c0,0-0.1-0.1-0.1-0.2c0,0,0.1-0.1,0.1-0.1c0,0,0.1-0.1,0.1-0.1
				C80.6,76.9,80.6,77,80.6,77.2z"/>
		</g>
		<g>
			<path class="st35" d="M84.6,75.2c0,0-0.1,0.3,0,0.4c0,0,0.1,0,0.2-0.1c0.1-0.1,0.2-0.1,0.3-0.2c0,0,0-0.1,0.1-0.1
				c0.1-0.2,0.3-0.7,0.3-0.8c0,0,0,0,0,0c0.2-0.1,0.9-0.3,0.9-0.3c0.1,0,0-0.1,0-0.1c-0.1,0-0.5,0.1-0.8,0.2c-0.1,0-0.2,0.1-0.3,0.1
				C85.1,74.4,85,75,85,75.2c0,0,0,0,0,0.1c0,0.1-0.1,0.1-0.2,0C84.7,75.2,84.7,75.2,84.6,75.2z"/>
			<path class="st36" d="M85.4,74.5c0.2-0.1,0.9-0.3,0.9-0.3c0.1,0,0-0.1,0-0.1c-0.1,0-0.5,0.1-0.8,0.2
				C85.5,74.3,85.4,74.4,85.4,74.5z"/>
		</g>
		<g>
			<path class="st35" d="M85.7,76.8C85.7,76.8,85.7,76.8,85.7,76.8c0,0.1,0,0.1-0.1,0.1c0,0,0,0-0.1,0c-0.1,0-0.1,0-0.1,0l0,0
				c0,0,0,0,0,0s-0.2,0.2-0.3,0c-0.1-0.2-0.1-0.4-0.2-0.5c0,0,0,0,0,0c-0.1,0-0.3,0.1-0.3,0c0-0.1-0.1-0.3-0.1-0.3
				c0.1-0.1,0.2-0.2,0.3-0.1c0,0,0.1,0.1,0.1,0.1c0.1,0.2,0.2,0.4,0.3,0.4c0,0,0.1,0,0.1,0c0,0,0,0,0,0c0.1,0,0.3-0.1,0.3,0
				c0,0.1,0.1,0,0.1,0s0.6-0.2,0.6,0C86.4,76.7,85.7,76.8,85.7,76.8z"/>
			<path class="st37" d="M85,76.3C85,76.3,85,76.3,85,76.3c-0.1,0-0.3,0.1-0.3,0c0-0.1-0.1-0.3-0.1-0.3c0.1-0.1,0.2-0.2,0.3-0.1
				c0,0,0.1,0.1,0.1,0.1C85,76.2,85,76.3,85,76.3z"/>
			<path class="st36" d="M85.7,76.8C85.7,76.8,85.7,76.8,85.7,76.8c0,0.1,0,0.1-0.1,0.1c0,0,0,0-0.1,0c-0.1,0-0.1,0-0.1,0
				c0-0.1,0-0.2,0-0.2c0.1,0,0.3-0.1,0.3,0c0,0.1,0.1,0,0.1,0s0.6-0.2,0.6,0C86.4,76.7,85.7,76.8,85.7,76.8z"/>
		</g>
		<g>
			<path class="st35" d="M84.6,78.2c0,0,0,0.1,0,0.1c-0.1,0.2-0.3,0.3-0.3,0.6c-0.1,0.2,0,0.3,0.2,0.5c0,0,0.1,0.1,0.1,0.1
				c0.2,0.2,0.4,0.4,0.4,0.4c0.1-0.1-0.4-0.7-0.5-0.8c0,0,0,0,0,0c-0.1-0.1,0.1-0.2,0.2-0.5c0.1-0.2,0-0.3,0-0.5c0,0,0-0.1,0-0.1
				c0-0.1-0.2-0.4-0.3-0.6l-0.1,0.3c0,0,0.1,0.1,0.2,0.3C84.5,78.2,84.6,78.2,84.6,78.2C84.6,78.2,84.6,78.2,84.6,78.2z"/>
			<path class="st36" d="M84.4,79.2c0,0.1,0,0.1,0,0.2c0,0,0.1,0.1,0.1,0.1c0.2,0.2,0.4,0.4,0.4,0.4c0.1-0.1-0.4-0.7-0.5-0.8
				c0,0,0,0,0,0C84.5,79.1,84.5,79.2,84.4,79.2z"/>
			<path class="st37" d="M84.3,77.8c0,0,0.1,0.1,0.2,0.3c0,0,0,0,0,0c0.1,0.1,0.1,0.1,0.1,0.1s0,0,0,0.1c0,0,0.1-0.1,0.1-0.1
				c0,0,0-0.1,0-0.1c0,0,0-0.1,0-0.2c-0.1-0.1-0.2-0.3-0.3-0.4L84.3,77.8z"/>
			<path class="st37" d="M84.4,78.1c0.1,0.1,0.1,0.1,0.1,0.1s0,0,0,0.1c0,0,0.1-0.1,0.1-0.1c0,0,0-0.1,0-0.1c0,0,0-0.1,0-0.2
				C84.6,77.9,84.5,78,84.4,78.1z"/>
		</g>
		<path class="st38" d="M84.9,76.5l-0.6,1.8c-0.1,0.3-0.3,0.6-0.6,0.8c-0.1,0.1-0.3,0.2-0.4,0.2c-0.1,0.1-0.2,0.1-0.4,0.1
			c-0.1,0-0.2,0-0.2,0c-0.1,0-0.2,0-0.3,0c0,0-0.1,0-0.1,0c-0.1,0-0.1,0-0.2,0c0,0,0,0,0,0l0,0c0,0,0,0-0.1,0c-0.1,0-0.1,0-0.2-0.1
			c0,0-0.1,0-0.1-0.1c-0.1,0-0.2-0.1-0.2-0.1c-0.1,0-0.1-0.1-0.2-0.1c-0.1-0.1-0.2-0.2-0.3-0.3c-0.1-0.1-0.2-0.3-0.2-0.4
			c-0.1-0.3-0.2-0.6-0.1-1l0.3-1.9c0-0.3,0.3-0.6,0.5-0.7c0,0,0.1,0,0.1-0.1c0.2-0.1,0.3-0.1,0.5,0l2.1,0.5c0.2,0.1,0.4,0.2,0.5,0.4
			c0,0,0,0,0,0C85,75.9,85,76.2,84.9,76.5z"/>
		<path class="st39" d="M83.2,73.6c0-0.2-1-1.3-1.3-1.6c-0.2-0.3-0.5-0.1-0.2,0.1c0.3,0.3,1.3,1.3,1.3,1.4
			C83,73.6,83.2,73.6,83.2,73.6z"/>
		<path class="st39" d="M83.8,73.8c0.1-0.2,1.5-0.6,1.9-0.8c0.3-0.1,0.5,0.1,0.2,0.2c-0.4,0.1-1.8,0.5-1.8,0.6
			C83.9,73.9,83.8,73.8,83.8,73.8z"/>
		<path class="st40" d="M84.1,74C84.1,74.1,84.1,74.1,84.1,74C84.1,74.1,84.1,74.1,84.1,74c-0.1,0.2-0.4,0.3-0.7,0.2
			c-0.3-0.1-0.5-0.3-0.5-0.4c0,0,0-0.1,0-0.1c0-0.1,0.1-0.1,0.2-0.2l0,0c0.1-0.1,0.3-0.1,0.6,0c0.2,0.1,0.4,0.2,0.5,0.3
			C84.1,73.9,84.1,74,84.1,74z"/>
		<path class="st41" d="M82.9,75.1L82,79.4c0,0,0,0,0.1,0l0,0l0,0l0,0c0,0,0,0,0,0l1.3-4.2L82.9,75.1z"/>
		<path class="st41" d="M84.8,75.6L84.8,75.6L83,75.7l-1.5-0.9c0,0,0.1,0,0.1-0.1L84.8,75.6L84.8,75.6z"/>
		<path class="st42" d="M84.8,75.6c0.2-0.8-0.4-1.5-1.3-1.8c-0.9-0.2-1.8,0.2-2,1c0,0,1.5,0.7,1.5,0.7S84.8,75.6,84.8,75.6z"/>
		<g>
			<path class="st38" d="M82.2,74.2c-0.1,0-0.3,0.3-0.1,0.4c0.2,0.1,0.2-0.1,0.2-0.2C82.4,74.2,82.2,74.2,82.2,74.2z"/>
			<path class="st38" d="M82.5,74.7c0.2,0,0.4,0,0.4,0.1c0,0.1-0.7,0-0.7,0C82.2,74.7,82.4,74.7,82.5,74.7z"/>
			<path class="st38" d="M83.6,74c0.1,0,0.7,0.2,0.6,0.4c0,0.1-0.2,0-0.4-0.1C83.5,74.1,83.6,74.1,83.6,74z"/>
			<path class="st38" d="M84.5,74.8c0.1,0,0.1,0.4-0.1,0.4c-0.2,0-0.1-0.1-0.1-0.3C84.3,74.7,84.5,74.7,84.5,74.8z"/>
			<path class="st38" d="M84,75c-0.2-0.1-0.4-0.1-0.4-0.1c0,0.1,0.6,0.3,0.6,0.3C84.3,75.2,84.1,75.1,84,75z"/>
			<circle class="st38" cx="83.2" cy="75.1" r="0.1"/>
		</g>
	</g>
	<g>
		<g>
			<path class="st35" d="M98.7,73.4c0,0-0.2-0.2-0.1-0.2c0,0,0.1,0,0.1,0c0.1,0,0.2,0,0.2,0c0,0,0.1,0,0.1,0
				c0.2,0.1,0.4,0.3,0.4,0.4c0,0,0,0,0,0c0.1,0,0.7-0.2,0.7-0.2c0.1,0,0.1,0.1,0,0.1c-0.1,0-0.4,0.1-0.6,0.2c-0.1,0-0.2,0-0.2,0
				c-0.1,0-0.3-0.3-0.4-0.4c0,0,0,0,0,0c0,0-0.1,0-0.1,0C98.8,73.3,98.8,73.4,98.7,73.4z"/>
			<path class="st36" d="M99.5,73.5c0.1,0,0.7-0.2,0.7-0.2c0.1,0,0.1,0.1,0,0.1c-0.1,0-0.4,0.1-0.6,0.2
				C99.6,73.6,99.6,73.6,99.5,73.5z"/>
		</g>
		<g>
			<path class="st37" d="M98.6,72.6C98.6,72.6,98.6,72.6,98.6,72.6c-0.1,0.1-0.2,0.1-0.2,0.1c0,0.1,0,0.2,0,0.2c0.1,0,0.2,0,0.2-0.1
				C98.7,72.8,98.7,72.7,98.6,72.6C98.7,72.6,98.6,72.6,98.6,72.6z"/>
			<g>
				<path class="st35" d="M99,72C99,72,98.9,72,99,72C98.9,71.9,98.9,71.9,99,72c-0.1,0-0.1,0-0.1,0c0,0-0.1,0.1-0.1,0.1l0,0
					c0,0,0,0,0,0s-0.2-0.1-0.2,0.1c0,0.1,0,0.3,0,0.4c0,0,0,0,0,0c0,0-0.2,0-0.2,0.1c0,0.1,0,0.2,0,0.2c0.1,0,0.2,0,0.2-0.1
					c0,0,0-0.1,0-0.1c0-0.1,0.1-0.3,0.1-0.4c0,0,0,0,0-0.1c0,0,0,0,0,0c0.1,0,0.2,0,0.2-0.1c0-0.1,0.1-0.1,0.1-0.1s0.5-0.1,0.4-0.2
					C99.5,71.8,99,72,99,72z"/>
				<path class="st36" d="M99,72C99,72,98.9,72,99,72C98.9,71.9,98.9,71.9,99,72c-0.1,0-0.1,0-0.1,0c0,0-0.1,0.1-0.1,0.1
					c0,0,0,0.1,0.1,0.1c0.1,0,0.2,0,0.2-0.1c0-0.1,0.1-0.1,0.1-0.1s0.5-0.1,0.4-0.2C99.5,71.8,99,72,99,72z"/>
			</g>
		</g>
		<g>
			<path class="st35" d="M97.7,71.6C97.7,71.5,97.7,71.5,97.7,71.6c-0.1-0.1-0.3-0.1-0.5-0.3c-0.1-0.1-0.1-0.2,0-0.4
				c0,0,0-0.1,0-0.1c0.1-0.2,0.1-0.4,0.2-0.4c0.1,0,0,0.6,0,0.7c0,0,0,0,0,0c0,0.1,0.1,0.1,0.3,0.2c0.1,0.1,0.1,0.2,0.1,0.3
				c0,0,0,0.1,0,0.1c0,0.1,0,0.3,0,0.5L97.7,72c0,0,0-0.1,0-0.2C97.7,71.6,97.8,71.6,97.7,71.6C97.8,71.6,97.8,71.6,97.7,71.6z"/>
			<path class="st36" d="M97.3,71c0,0-0.1-0.1-0.1-0.1c0,0,0-0.1,0-0.1c0.1-0.2,0.1-0.4,0.2-0.4C97.6,70.4,97.5,70.9,97.3,71
				C97.4,71.1,97.4,71.1,97.3,71C97.4,71.1,97.4,71,97.3,71z"/>
			<path class="st37" d="M97.7,72c0,0,0-0.1,0-0.2c0,0,0,0,0,0c0-0.1,0.1-0.1,0.1-0.1s0,0,0-0.1c0,0,0.1,0,0.1,0c0,0,0,0.1,0,0.1
				c0,0,0,0.1,0,0.1c0,0.1,0,0.3,0,0.4L97.7,72z"/>
			<path class="st37" d="M97.7,71.7C97.7,71.6,97.8,71.6,97.7,71.7c0.1-0.1,0.1-0.1,0-0.1c0,0,0.1,0,0.1,0c0,0,0,0.1,0,0.1
				c0,0,0,0.1,0,0.1C97.8,71.8,97.8,71.7,97.7,71.7z"/>
		</g>
		<g>
			<path class="st35" d="M97.4,74.7c0,0-0.2-0.2-0.2-0.2c0,0,0,0.1,0,0.1c0,0.1,0,0.2,0,0.2c0,0,0,0.1,0,0.1
				c0.1,0.2,0.3,0.4,0.3,0.5c0,0,0,0,0,0c0,0.1-0.2,0.6-0.2,0.6c0,0.1,0.1,0.1,0.1,0c0-0.1,0.1-0.3,0.2-0.5c0-0.1,0-0.1,0-0.2
				c0-0.1-0.3-0.4-0.4-0.5c0,0,0,0,0,0c0-0.1,0-0.1,0-0.1C97.3,74.8,97.4,74.7,97.4,74.7z"/>
			<path class="st36" d="M97.5,75.4c0,0.1-0.2,0.6-0.2,0.6c0,0.1,0.1,0.1,0.1,0c0-0.1,0.1-0.3,0.2-0.5
				C97.6,75.5,97.6,75.5,97.5,75.4z"/>
		</g>
		<g>
			<path class="st35" d="M96,74.7C96,74.7,96,74.7,96,74.7C96,74.6,96,74.6,96,74.7c0-0.1,0-0.1,0-0.1c0,0,0.1-0.1,0.1-0.1l0,0
				c0,0,0,0,0,0s-0.1-0.2,0.1-0.1c0.1,0,0.3,0.1,0.4,0.1c0,0,0,0,0,0c0,0,0-0.2,0.1-0.2c0.1,0,0.2,0.1,0.2,0.1c0,0.1,0,0.2-0.1,0.2
				c0,0-0.1,0-0.1,0c-0.1,0-0.3,0-0.4,0c0,0,0,0-0.1,0c0,0,0,0,0,0c0,0.1,0,0.2-0.1,0.2c-0.1,0-0.1,0.1-0.1,0.1s-0.1,0.4-0.2,0.4
				C95.8,75.1,96,74.7,96,74.7z"/>
			<path class="st37" d="M96.6,74.5C96.6,74.5,96.6,74.5,96.6,74.5c0.1,0,0.1-0.2,0.1-0.2c0.1,0,0.2,0.1,0.2,0.1
				c0,0.1,0,0.2-0.1,0.2C96.8,74.6,96.7,74.6,96.6,74.5C96.6,74.5,96.6,74.5,96.6,74.5z"/>
			<path class="st36" d="M96,74.7C96,74.7,96,74.7,96,74.7C96,74.6,96,74.6,96,74.7c0-0.1,0-0.1,0-0.1c0,0,0.1-0.1,0.1-0.1
				c0,0,0.1,0,0.1,0.1c0,0.1,0,0.2-0.1,0.2c-0.1,0-0.1,0.1-0.1,0.1s-0.1,0.4-0.2,0.4C95.8,75.1,96,74.7,96,74.7z"/>
		</g>
		<g>
			<path class="st35" d="M95.6,73.5C95.6,73.5,95.6,73.5,95.6,73.5c-0.1-0.2-0.1-0.3-0.3-0.5c-0.1-0.1-0.2-0.1-0.4-0.1
				c0,0-0.1,0-0.1,0c-0.2,0-0.4,0-0.4,0.1c0,0.1,0.5,0.1,0.7,0.1c0,0,0,0,0,0c0.1,0,0.1,0.1,0.2,0.3c0.1,0.1,0.2,0.2,0.3,0.2
				c0,0,0.1,0,0.1,0c0.1,0.1,0.3,0,0.5,0L96,73.5c0,0-0.1,0-0.2,0C95.7,73.5,95.7,73.5,95.6,73.5C95.7,73.5,95.6,73.5,95.6,73.5z"/>
			<path class="st36" d="M95.1,73.1C95,73,95,73,95,73c0,0-0.1,0-0.1,0c-0.2,0-0.4,0-0.4,0.1c0,0.1,0.5,0.1,0.7,0.1c0,0,0,0,0,0
				C95.1,73.1,95.1,73.1,95.1,73.1z"/>
			<path class="st37" d="M96,73.5c0,0-0.1,0-0.2,0c0,0,0,0,0,0c-0.1,0-0.1,0-0.1,0s0,0-0.1,0c0,0,0,0.1,0,0.1c0,0,0.1,0,0.1,0
				c0,0,0.1,0,0.1,0c0.1,0,0.3,0,0.3,0L96,73.5z"/>
			<path class="st37" d="M95.7,73.5C95.7,73.5,95.7,73.5,95.7,73.5c-0.1,0-0.1,0-0.1,0c0,0,0,0.1,0,0.1c0,0,0.1,0,0.1,0
				c0,0,0.1,0,0.1,0C95.8,73.6,95.8,73.6,95.7,73.5z"/>
		</g>
		<path class="st38" d="M96.5,74.4l-0.8-1c-0.2-0.2-0.2-0.4-0.3-0.6c0-0.1,0-0.2,0-0.3c0-0.1,0-0.2,0.1-0.3c0,0,0-0.1,0.1-0.1
			c0,0,0.1-0.1,0.1-0.1c0,0,0-0.1,0.1-0.1c0,0,0.1-0.1,0.1-0.1c0,0,0,0,0,0l0,0c0,0,0,0,0,0c0,0,0.1,0,0.1-0.1c0,0,0.1,0,0.1-0.1
			c0.1,0,0.1-0.1,0.2-0.1c0,0,0.1,0,0.2,0c0.1,0,0.2,0,0.3,0c0.1,0,0.2,0,0.3,0c0.2,0,0.4,0.2,0.6,0.3l1,0.9
			c0.2,0.1,0.3,0.4,0.2,0.6c0,0,0,0.1,0,0.1c0,0.1-0.1,0.2-0.2,0.3l-1.1,1c-0.1,0.1-0.3,0.1-0.4,0.1c0,0,0,0,0,0
			C96.9,74.7,96.7,74.5,96.5,74.4z"/>
		<path class="st39" d="M98.8,74.5c0.1,0.1,1.1-0.1,1.4-0.1c0.2,0,0.3-0.2,0-0.2c-0.3,0-1.3,0.2-1.3,0.2
			C98.9,74.4,98.8,74.5,98.8,74.5z"/>
		<path class="st39" d="M98.6,74.8c0.1,0.1-0.2,1.1-0.2,1.4c0,0.2-0.3,0.2-0.2,0C98.2,75.9,98.5,75,98.6,74.8
			C98.4,74.8,98.6,74.8,98.6,74.8z"/>
		<path class="st40" d="M98.3,74.9C98.2,74.9,98.2,74.9,98.3,74.9C98.2,74.8,98.2,74.8,98.3,74.9c-0.1-0.2,0-0.3,0.1-0.5
			c0.2-0.1,0.3-0.2,0.5-0.1c0,0,0,0,0,0c0,0,0.1,0.1,0,0.2l0,0c0,0.1-0.1,0.2-0.2,0.3c-0.1,0.1-0.2,0.2-0.4,0.2
			C98.3,74.9,98.3,74.9,98.3,74.9z"/>
		<path class="st41" d="M98.1,73.8l-2.2-2.1c0,0,0,0,0,0l0,0l0,0l0,0c0,0,0,0,0,0l2,2.3L98.1,73.8z"/>
		<path class="st41" d="M97.1,74.7L97.1,74.7l0.6-1l1.1-0.5c0,0,0,0.1,0,0.1L97.1,74.7L97.1,74.7z"/>
		<path class="st42" d="M97.1,74.7c0.4,0.4,1.1,0.4,1.5,0c0.5-0.4,0.5-1.1,0.2-1.5c0,0-1,0.6-1,0.6S97.1,74.7,97.1,74.7z"/>
		<g>
			<path class="st38" d="M98.9,73.7c0-0.1-0.1-0.3-0.2-0.2s0,0.1,0,0.2C98.8,73.9,98.9,73.8,98.9,73.7z"/>
			<path class="st38" d="M98.5,73.7c-0.1,0.1-0.2,0.2-0.2,0.2c-0.1,0,0.2-0.4,0.3-0.4C98.6,73.5,98.5,73.7,98.5,73.7z"/>
			<path class="st38" d="M98.4,74.6c0,0-0.4,0.3-0.4,0.2c-0.1-0.1,0.1-0.1,0.2-0.2C98.4,74.5,98.4,74.6,98.4,74.6z"/>
			<path class="st38" d="M97.7,74.8c-0.1,0-0.3-0.1-0.2-0.2c0.1-0.1,0.1,0,0.2,0C97.8,74.8,97.7,74.8,97.7,74.8z"/>
			<path class="st38" d="M97.7,74.4c0.1-0.1,0.2-0.1,0.2-0.2s-0.4,0.2-0.4,0.2S97.7,74.4,97.7,74.4z"/>
			<ellipse transform="matrix(0.5487 -0.836 0.836 0.5487 -17.608 115.2623)" class="st38" cx="98" cy="73.9" rx="0.1" ry="0.1"/>
		</g>
	</g>
	<g>
		<g>
			<path class="st35" d="M84.2,62.3c0,0,0,0.2,0,0.2c0,0-0.1,0-0.1,0c-0.1,0-0.1-0.1-0.1-0.1c0,0,0,0,0-0.1c0-0.1-0.1-0.4-0.1-0.4
				c0,0,0,0,0,0c-0.1-0.1-0.5-0.2-0.5-0.2c0,0,0-0.1,0-0.1c0.1,0,0.3,0.1,0.5,0.2c0.1,0,0.1,0.1,0.1,0.1c0.1,0.1,0.1,0.3,0.1,0.5
				c0,0,0,0,0,0c0,0,0,0,0.1,0C84.1,62.3,84.1,62.3,84.2,62.3z"/>
			<path class="st36" d="M83.7,61.9c-0.1-0.1-0.5-0.2-0.5-0.2c0,0,0-0.1,0-0.1c0.1,0,0.3,0.1,0.5,0.2C83.7,61.8,83.7,61.8,83.7,61.9
				z"/>
		</g>
		<g>
			<path class="st37" d="M83.8,62.9C83.9,62.9,83.9,62.9,83.8,62.9c0.1,0,0.2,0.1,0.2,0c0,0,0.1-0.1,0.1-0.1c0,0-0.1-0.1-0.2-0.1
				C83.9,62.7,83.9,62.8,83.8,62.9C83.8,62.8,83.8,62.9,83.8,62.9z"/>
			<g>
				<path class="st35" d="M83.4,63.1C83.4,63.1,83.4,63.1,83.4,63.1C83.4,63.1,83.4,63.1,83.4,63.1C83.4,63.1,83.4,63.1,83.4,63.1
					c0.1,0,0.2,0,0.2,0l0,0c0,0,0,0,0,0s0.1,0.1,0.2,0c0.1-0.1,0.1-0.2,0.2-0.2c0,0,0,0,0,0c0,0,0.1,0.1,0.2,0c0,0,0.1-0.1,0.1-0.1
					c0,0-0.1-0.1-0.2-0.1c0,0,0,0-0.1,0.1c-0.1,0.1-0.2,0.2-0.2,0.2c0,0,0,0-0.1,0c0,0,0,0,0,0c-0.1,0-0.1-0.1-0.2,0
					C83.4,63,83.3,63,83.4,63.1c0-0.1-0.4-0.2-0.4-0.2C83,63,83.4,63.1,83.4,63.1z"/>
				<path class="st36" d="M83.4,63.1C83.4,63.1,83.4,63.1,83.4,63.1C83.4,63.1,83.4,63.1,83.4,63.1C83.4,63.1,83.4,63.1,83.4,63.1
					c0.1,0,0.2,0,0.2,0c0,0,0-0.1,0-0.1c-0.1,0-0.1-0.1-0.2,0C83.4,63,83.3,63,83.4,63.1c0-0.1-0.4-0.2-0.4-0.2
					C83,63,83.4,63.1,83.4,63.1z"/>
			</g>
		</g>
		<g>
			<path class="st35" d="M83.9,63.9C83.9,63.9,83.9,63.9,83.9,63.9c0,0.1,0.1,0.2,0.2,0.4c0,0.1,0,0.2-0.2,0.2c0,0,0,0-0.1,0
				c-0.1,0.1-0.3,0.2-0.3,0.2c-0.1-0.1,0.3-0.3,0.3-0.4c0,0,0,0,0,0c0.1-0.1,0-0.1-0.1-0.3C83.8,64,83.8,63.9,83.9,63.9
				c-0.1-0.1-0.1-0.1-0.1-0.1c0-0.1,0.2-0.2,0.2-0.3l0,0.2c0,0-0.1,0.1-0.1,0.1C84,63.9,83.9,63.9,83.9,63.9
				C83.9,63.9,83.9,63.9,83.9,63.9z"/>
			<path class="st36" d="M83.9,64.4C83.9,64.5,83.9,64.5,83.9,64.4c0,0.1-0.1,0.1-0.1,0.1c-0.1,0.1-0.3,0.2-0.3,0.2
				C83.5,64.7,83.8,64.4,83.9,64.4C83.9,64.3,83.9,64.3,83.9,64.4C83.9,64.4,83.9,64.4,83.9,64.4z"/>
			<path class="st37" d="M84.2,63.7c0,0-0.1,0.1-0.1,0.1c0,0,0,0,0,0c-0.1,0-0.1,0-0.1,0s0,0,0,0c0,0,0,0-0.1-0.1c0,0,0,0,0-0.1
				c0,0,0,0,0-0.1c0.1-0.1,0.1-0.1,0.2-0.2L84.2,63.7z"/>
			<path class="st37" d="M84,63.8C84,63.9,83.9,63.9,84,63.8C83.9,63.9,83.9,63.9,84,63.8c-0.1,0.1-0.1,0-0.2,0c0,0,0,0,0-0.1
				c0,0,0,0,0-0.1C84,63.7,84,63.8,84,63.8z"/>
		</g>
		<g>
			<path class="st35" d="M85.6,62.1c0,0,0,0.2,0.1,0.2c0,0,0,0,0.1-0.1c0,0,0.1-0.1,0.1-0.1c0,0,0,0,0-0.1c0-0.1,0-0.4,0-0.4
				c0,0,0,0,0,0c0.1-0.1,0.4-0.3,0.4-0.3c0,0,0-0.1,0-0.1c0,0-0.2,0.2-0.3,0.2c0,0-0.1,0.1-0.1,0.1c-0.1,0.1,0,0.4,0,0.5
				c0,0,0,0,0,0c0,0,0,0-0.1,0C85.7,62.1,85.6,62.1,85.6,62.1z"/>
			<path class="st36" d="M85.9,61.6c0.1-0.1,0.4-0.3,0.4-0.3c0,0,0-0.1,0-0.1c0,0-0.2,0.2-0.3,0.2C85.9,61.5,85.9,61.6,85.9,61.6z"
				/>
		</g>
		<g>
			<path class="st35" d="M86.4,62.7C86.4,62.7,86.4,62.8,86.4,62.7C86.4,62.8,86.4,62.8,86.4,62.7C86.4,62.8,86.4,62.8,86.4,62.7
				c-0.1,0.1-0.1,0.1-0.1,0.1l0,0c0,0,0,0,0,0s0,0.2-0.1,0c-0.1-0.1-0.1-0.2-0.2-0.2c0,0,0,0,0,0c0,0-0.1,0.1-0.1,0.1
				c0,0-0.1-0.1-0.1-0.1c0,0,0.1-0.1,0.1-0.1c0,0,0,0,0.1,0.1c0.1,0.1,0.2,0.1,0.2,0.2c0,0,0,0,0,0c0,0,0,0,0,0
				c0.1,0,0.1-0.1,0.1-0.1c0,0,0.1,0,0.1,0s0.3-0.2,0.3-0.1C86.8,62.6,86.4,62.7,86.4,62.7z"/>
			<path class="st37" d="M86,62.6C86,62.6,86,62.6,86,62.6c-0.1,0-0.1,0.1-0.2,0.1c0,0-0.1-0.1-0.1-0.1c0,0,0.1-0.1,0.1-0.1
				C85.9,62.5,85.9,62.5,86,62.6C86,62.6,86,62.6,86,62.6z"/>
			<path class="st36" d="M86.4,62.7C86.4,62.7,86.4,62.8,86.4,62.7C86.4,62.8,86.4,62.8,86.4,62.7C86.4,62.8,86.4,62.8,86.4,62.7
				c-0.1,0.1-0.1,0.1-0.1,0.1c0,0,0-0.1,0-0.1c0.1,0,0.1-0.1,0.1-0.1c0,0,0.1,0,0.1,0s0.3-0.2,0.3-0.1
				C86.8,62.6,86.4,62.7,86.4,62.7z"/>
		</g>
		<g>
			<path class="st35" d="M86.2,63.7C86.2,63.7,86.2,63.7,86.2,63.7c0,0.2-0.1,0.3,0,0.4c0,0.1,0.1,0.1,0.2,0.2c0,0,0,0,0.1,0
				c0.1,0.1,0.3,0.2,0.3,0.1c0-0.1-0.3-0.3-0.4-0.4c0,0,0,0,0,0c-0.1,0,0-0.1,0-0.3C86.3,63.7,86.2,63.7,86.2,63.7
				c0-0.1,0-0.1,0-0.1c0-0.1-0.2-0.2-0.3-0.2l0,0.2c0,0,0.1,0.1,0.1,0.1C86.1,63.7,86.1,63.6,86.2,63.7
				C86.1,63.6,86.1,63.6,86.2,63.7z"/>
			<path class="st36" d="M86.3,64.2C86.3,64.2,86.3,64.3,86.3,64.2c0,0.1,0.1,0.1,0.1,0.1c0.1,0.1,0.3,0.2,0.3,0.1
				C86.7,64.4,86.4,64.2,86.3,64.2c0-0.1,0-0.1,0-0.1C86.3,64.1,86.3,64.2,86.3,64.2z"/>
			<path class="st37" d="M85.9,63.5c0,0,0.1,0.1,0.1,0.1c0,0,0,0,0,0c0.1,0,0.1,0,0.1,0s0,0,0,0c0,0,0-0.1,0.1-0.1c0,0,0,0,0-0.1
				c0,0,0,0-0.1-0.1c-0.1-0.1-0.2-0.1-0.2-0.2L85.9,63.5z"/>
			<path class="st37" d="M86.1,63.6C86.1,63.7,86.1,63.6,86.1,63.6C86.1,63.6,86.1,63.6,86.1,63.6c0.1,0,0.1,0,0.1,0c0,0,0,0,0-0.1
				c0,0,0,0-0.1-0.1C86.1,63.5,86.1,63.6,86.1,63.6z"/>
		</g>
		<path class="st38" d="M86,62.7l0,1c0,0.2,0,0.4-0.1,0.5c0,0.1-0.1,0.1-0.1,0.2c0,0-0.1,0.1-0.2,0.1c0,0-0.1,0-0.1,0.1
			c0,0-0.1,0-0.1,0c0,0,0,0-0.1,0c0,0-0.1,0-0.1,0c0,0,0,0,0,0l0,0c0,0,0,0,0,0c0,0-0.1,0-0.1,0c0,0,0,0-0.1,0c0,0-0.1,0-0.1,0
			c0,0-0.1,0-0.1,0c-0.1,0-0.1-0.1-0.2-0.1c-0.1,0-0.1-0.1-0.2-0.2c-0.1-0.1-0.2-0.3-0.2-0.5l-0.2-1c0-0.2,0-0.3,0.1-0.5
			c0,0,0,0,0,0c0.1-0.1,0.2-0.1,0.3-0.1l1.1-0.1c0.1,0,0.2,0,0.3,0.1c0,0,0,0,0,0C85.9,62.4,86,62.6,86,62.7z"/>
		<path class="st39" d="M84.6,61.5c0-0.1-0.7-0.5-0.9-0.6c-0.2-0.1-0.3,0-0.1,0.1c0.2,0.1,0.9,0.4,0.9,0.5
			C84.5,61.6,84.6,61.5,84.6,61.5z"/>
		<path class="st39" d="M84.9,61.5c0-0.1,0.6-0.6,0.8-0.7c0.1-0.1,0.3,0,0.1,0.1C85.7,61,85,61.4,84.9,61.5
			C85,61.6,84.9,61.5,84.9,61.5z"/>
		<path class="st40" d="M85.2,61.6C85.2,61.6,85.2,61.6,85.2,61.6C85.2,61.6,85.2,61.6,85.2,61.6c0,0.1-0.1,0.2-0.3,0.2
			c-0.2,0-0.3,0-0.3-0.1c0,0,0,0,0,0c0,0,0-0.1,0-0.1l0,0c0.1-0.1,0.2-0.1,0.3-0.1c0.1,0,0.2,0,0.3,0.1
			C85.1,61.5,85.1,61.6,85.2,61.6z"/>
		<path class="st41" d="M84.8,62.4l0.4,2.4c0,0,0,0,0,0l0,0l0,0l0,0c0,0,0,0,0,0L85,62.4L84.8,62.4z"/>
		<path class="st41" d="M85.8,62.3L85.8,62.3l-0.9,0.3L84,62.4c0,0,0,0,0,0L85.8,62.3L85.8,62.3z"/>
		<path class="st42" d="M85.8,62.3c0-0.4-0.5-0.7-1-0.7S84,62,84,62.4c0,0,0.9,0.1,0.9,0.1S85.8,62.3,85.8,62.3z"/>
		<g>
			<path class="st38" d="M84.2,62c-0.1,0-0.1,0.2,0,0.2c0.1,0,0.1-0.1,0.1-0.1C84.3,62,84.3,62,84.2,62z"/>
			<path class="st38" d="M84.5,62.2c0.1,0,0.2,0,0.2,0c0,0-0.3,0.1-0.3,0.1S84.4,62.2,84.5,62.2z"/>
			<path class="st38" d="M84.9,61.7c0,0,0.4,0,0.4,0.1c0,0.1-0.1,0-0.2,0C84.9,61.8,84.9,61.7,84.9,61.7z"/>
			<path class="st38" d="M85.5,61.9c0.1,0,0.1,0.2,0,0.2c-0.1,0-0.1,0-0.1-0.1C85.4,61.9,85.4,61.9,85.5,61.9z"/>
			<path class="st38" d="M85.3,62.1c-0.1,0-0.2,0-0.2,0c0,0.1,0.3,0.1,0.4,0C85.5,62.2,85.3,62.2,85.3,62.1z"/>
			
				<ellipse transform="matrix(0.9403 -0.3403 0.3403 0.9403 -16.1434 32.6113)" class="st38" cx="84.9" cy="62.3" rx="0.1" ry="0.1"/>
		</g>
	</g>
	<g>
		<g>
			<path class="st35" d="M85.9,39.6c0,0,0,0.2-0.1,0.2c0,0-0.1,0-0.1-0.1c0,0-0.1-0.1-0.1-0.1c0,0,0,0,0-0.1c0-0.1,0-0.4,0-0.4
				c0,0,0,0,0,0c-0.1-0.1-0.4-0.3-0.5-0.3c0,0,0-0.1,0-0.1c0.1,0,0.3,0.2,0.4,0.2c0.1,0,0.1,0.1,0.1,0.1c0.1,0.1,0,0.4,0,0.5
				c0,0,0,0,0,0c0,0,0,0,0.1,0C85.9,39.6,85.9,39.6,85.9,39.6z"/>
			<path class="st36" d="M85.6,39.1c-0.1-0.1-0.4-0.3-0.5-0.3c0,0,0-0.1,0-0.1c0.1,0,0.3,0.2,0.4,0.2C85.6,39,85.6,39,85.6,39.1z"/>
		</g>
		<g>
			<path class="st37" d="M85.5,40.1C85.5,40.1,85.5,40.1,85.5,40.1c0.1,0,0.2,0.1,0.2,0.1c0,0,0.1-0.1,0.1-0.1c0,0-0.1-0.1-0.2-0.1
				C85.6,40,85.6,40,85.5,40.1C85.5,40,85.5,40.1,85.5,40.1z"/>
			<g>
				<path class="st35" d="M85,40.2C85,40.2,85,40.2,85,40.2C85,40.3,85,40.3,85,40.2C85.1,40.3,85.1,40.3,85,40.2
					c0.1,0.1,0.1,0.1,0.2,0.1l0,0c0,0,0,0,0,0s0.1,0.1,0.1,0c0.1-0.1,0.1-0.2,0.2-0.2c0,0,0,0,0,0c0,0,0.1,0.1,0.2,0.1
					c0,0,0.1-0.1,0.1-0.1c0,0-0.1-0.1-0.2-0.1c0,0-0.1,0-0.1,0.1c-0.1,0.1-0.2,0.1-0.3,0.2c0,0,0,0-0.1,0c0,0,0,0,0,0
					c-0.1,0-0.1-0.1-0.2-0.1c0,0-0.1,0-0.1,0s-0.3-0.2-0.3-0.1C84.6,40,85,40.2,85,40.2z"/>
				<path class="st36" d="M85,40.2C85,40.2,85,40.2,85,40.2C85,40.3,85,40.3,85,40.2C85.1,40.3,85.1,40.3,85,40.2
					c0.1,0.1,0.1,0.1,0.2,0.1c0,0,0-0.1,0-0.1c-0.1,0-0.1-0.1-0.2-0.1c0,0-0.1,0-0.1,0s-0.3-0.2-0.3-0.1C84.6,40,85,40.2,85,40.2z"
					/>
			</g>
		</g>
		<g>
			<path class="st35" d="M85.4,41.1C85.4,41.1,85.4,41.2,85.4,41.1c0,0.1,0.1,0.3,0.1,0.4c0,0.1-0.1,0.1-0.2,0.2c0,0,0,0-0.1,0
				c-0.2,0.1-0.3,0.2-0.3,0.1c-0.1-0.1,0.3-0.3,0.4-0.3c0,0,0,0,0,0c0.1,0,0-0.1,0-0.3C85.2,41.2,85.3,41.1,85.4,41.1
				c0-0.1,0-0.1,0-0.1c0-0.1,0.2-0.2,0.3-0.2l0,0.2c0,0-0.1,0.1-0.1,0.1C85.5,41.1,85.4,41.1,85.4,41.1
				C85.4,41.1,85.4,41.1,85.4,41.1z"/>
			<path class="st36" d="M85.3,41.6C85.3,41.7,85.3,41.7,85.3,41.6c0,0.1-0.1,0.1-0.1,0.1c-0.2,0.1-0.3,0.2-0.3,0.1
				C84.8,41.8,85.2,41.6,85.3,41.6c0-0.1,0-0.1,0-0.1C85.3,41.6,85.3,41.6,85.3,41.6z"/>
			<path class="st37" d="M85.7,40.9c0,0-0.1,0.1-0.1,0.1c0,0,0,0,0,0c-0.1,0-0.1,0-0.1,0s0,0,0,0c0,0,0-0.1-0.1-0.1c0,0,0,0,0-0.1
				c0,0,0,0,0.1-0.1c0.1-0.1,0.2-0.1,0.2-0.2L85.7,40.9z"/>
			<path class="st37" d="M85.5,41.1C85.5,41.1,85.4,41.1,85.5,41.1C85.4,41.1,85.4,41.1,85.5,41.1c-0.1,0-0.1,0-0.2,0c0,0,0,0,0-0.1
				c0,0,0,0,0.1-0.1C85.5,40.9,85.5,41,85.5,41.1z"/>
		</g>
		<g>
			<path class="st35" d="M87.4,39.7c0,0,0,0.2,0,0.2c0,0,0.1,0,0.1,0c0,0,0.1-0.1,0.1-0.1c0,0,0,0,0-0.1c0-0.1,0.1-0.4,0.1-0.4
				c0,0,0,0,0,0c0.1-0.1,0.4-0.2,0.4-0.2c0,0,0-0.1,0-0.1c0,0-0.2,0.1-0.4,0.2c-0.1,0-0.1,0.1-0.1,0.1c-0.1,0.1-0.1,0.4-0.1,0.5
				c0,0,0,0,0,0c0,0,0,0-0.1,0C87.4,39.7,87.4,39.6,87.4,39.7z"/>
			<path class="st36" d="M87.7,39.2c0.1-0.1,0.4-0.2,0.4-0.2c0,0,0-0.1,0-0.1c0,0-0.2,0.1-0.4,0.2C87.7,39.1,87.7,39.1,87.7,39.2z"
				/>
		</g>
		<g>
			<path class="st35" d="M88.1,40.4C88.1,40.4,88.1,40.4,88.1,40.4C88.1,40.5,88.1,40.5,88.1,40.4C88.1,40.5,88,40.5,88.1,40.4
				c-0.1,0.1-0.1,0-0.1,0l0,0c0,0,0,0,0,0s-0.1,0.1-0.1,0c-0.1-0.1-0.1-0.2-0.1-0.3c0,0,0,0,0,0c0,0-0.1,0.1-0.2,0
				c0,0-0.1-0.1-0.1-0.1c0,0,0.1-0.1,0.1-0.1c0,0,0,0,0.1,0.1c0.1,0.1,0.2,0.2,0.2,0.2c0,0,0,0,0,0c0,0,0,0,0,0c0.1,0,0.1-0.1,0.1,0
				c0,0,0.1,0,0.1,0s0.3-0.1,0.3-0.1C88.5,40.3,88.1,40.4,88.1,40.4z"/>
			<path class="st37" d="M87.7,40.2C87.7,40.2,87.7,40.2,87.7,40.2c-0.1,0-0.1,0.1-0.2,0c0,0-0.1-0.1-0.1-0.1c0,0,0.1-0.1,0.1-0.1
				C87.6,40.1,87.6,40.1,87.7,40.2C87.7,40.2,87.7,40.2,87.7,40.2z"/>
			<path class="st36" d="M88.1,40.4C88.1,40.4,88.1,40.4,88.1,40.4C88.1,40.5,88.1,40.5,88.1,40.4C88.1,40.5,88,40.5,88.1,40.4
				c-0.1,0.1-0.1,0-0.1,0c0,0,0-0.1,0-0.1c0.1,0,0.1-0.1,0.1,0c0,0,0.1,0,0.1,0s0.3-0.1,0.3-0.1C88.5,40.3,88.1,40.4,88.1,40.4z"/>
		</g>
		<g>
			<path class="st35" d="M87.6,41.3C87.6,41.3,87.6,41.3,87.6,41.3c0,0.1-0.1,0.3-0.1,0.4c0,0.1,0,0.2,0.2,0.2c0,0,0,0,0.1,0
				c0.1,0.1,0.2,0.2,0.3,0.2c0.1-0.1-0.2-0.3-0.3-0.4c0,0,0,0,0,0c-0.1-0.1,0-0.1,0.1-0.3C87.8,41.4,87.7,41.3,87.6,41.3
				c0.1-0.1,0-0.1,0-0.1c0-0.1-0.1-0.2-0.2-0.3l0,0.2C87.4,41.1,87.5,41.1,87.6,41.3C87.6,41.3,87.6,41.2,87.6,41.3
				C87.6,41.2,87.6,41.3,87.6,41.3z"/>
			<path class="st36" d="M87.7,41.8c0,0,0,0.1,0,0.1c0,0,0,0,0.1,0c0.1,0.1,0.2,0.2,0.3,0.2C88.1,42.1,87.8,41.8,87.7,41.8
				c0-0.1,0-0.1,0-0.1C87.7,41.8,87.7,41.8,87.7,41.8z"/>
			<path class="st37" d="M87.4,41.1c0,0,0,0.1,0.1,0.1c0,0,0,0,0,0c0,0,0.1,0,0.1,0s0,0,0,0c0,0,0,0,0.1-0.1c0,0,0,0,0-0.1
				c0,0,0,0,0-0.1c0-0.1-0.1-0.1-0.2-0.2L87.4,41.1z"/>
			<path class="st37" d="M87.6,41.2C87.6,41.3,87.6,41.2,87.6,41.2C87.6,41.2,87.6,41.3,87.6,41.2c0.1,0.1,0.1,0,0.1,0
				c0,0,0,0,0-0.1c0,0,0,0,0-0.1C87.6,41.1,87.6,41.2,87.6,41.2z"/>
		</g>
		<path class="st38" d="M87.7,40.3l-0.1,1c0,0.2-0.1,0.4-0.2,0.5c-0.1,0.1-0.1,0.1-0.2,0.2c-0.1,0-0.1,0.1-0.2,0.1c0,0-0.1,0-0.1,0
			c0,0-0.1,0-0.1,0c0,0,0,0-0.1,0c0,0-0.1,0-0.1,0c0,0,0,0,0,0l0,0c0,0,0,0,0,0c0,0-0.1,0-0.1,0c0,0,0,0-0.1,0c0,0-0.1,0-0.1,0
			c0,0-0.1,0-0.1-0.1c-0.1,0-0.1-0.1-0.2-0.1c-0.1-0.1-0.1-0.1-0.2-0.2c-0.1-0.1-0.1-0.3-0.1-0.5l0-1c0-0.2,0.1-0.3,0.2-0.4
			c0,0,0,0,0.1,0c0.1-0.1,0.2-0.1,0.3-0.1l1.1,0.1c0.1,0,0.2,0.1,0.3,0.2c0,0,0,0,0,0C87.6,40,87.7,40.1,87.7,40.3z"/>
		<path class="st39" d="M86.5,38.9c0-0.1-0.6-0.6-0.8-0.7c-0.1-0.1-0.3,0-0.1,0.1C85.8,38.4,86.4,38.8,86.5,38.9
			C86.4,39,86.5,38.9,86.5,38.9z"/>
		<path class="st39" d="M86.8,38.9c0-0.1,0.7-0.5,0.9-0.6c0.2-0.1,0.3,0,0.1,0.1s-0.9,0.4-0.9,0.5C86.9,39,86.8,38.9,86.8,38.9z"/>
		<path class="st40" d="M87,39.1C87,39.1,87,39.1,87,39.1C87,39.1,87,39.1,87,39.1c0,0.1-0.2,0.2-0.3,0.2c-0.2,0-0.3-0.1-0.3-0.2
			c0,0,0,0,0,0c0,0,0-0.1,0.1-0.1l0,0c0.1-0.1,0.2-0.1,0.3-0.1c0.1,0,0.2,0.1,0.3,0.1C87,39,87,39,87,39.1z"/>
		<path class="st41" d="M86.5,39.8l0,2.4c0,0,0,0,0,0l0,0l0,0l0,0c0,0,0,0,0,0l0.3-2.4L86.5,39.8z"/>
		<path class="st41" d="M87.5,39.8L87.5,39.8L86.6,40l-0.8-0.3c0,0,0,0,0.1,0L87.5,39.8L87.5,39.8z"/>
		<path class="st42" d="M87.5,39.8c0-0.4-0.3-0.8-0.8-0.8c-0.5,0-0.9,0.3-0.9,0.7c0,0,0.9,0.3,0.9,0.3S87.5,39.8,87.5,39.8z"/>
		<g>
			<path class="st38" d="M86,39.3c-0.1,0-0.1,0.2,0,0.2c0.1,0,0.1,0,0.1-0.1C86.2,39.3,86.1,39.3,86,39.3z"/>
			<path class="st38" d="M86.3,39.6c0.1,0,0.2,0,0.2,0c0,0.1-0.3,0.1-0.4,0C86.1,39.6,86.2,39.6,86.3,39.6z"/>
			<path class="st38" d="M86.8,39.1c0,0,0.4,0.1,0.4,0.1c0,0.1-0.1,0-0.2,0C86.7,39.2,86.8,39.1,86.8,39.1z"/>
			<path class="st38" d="M87.3,39.4c0.1,0,0.1,0.2,0,0.2c-0.1,0-0.1-0.1-0.1-0.1C87.2,39.4,87.3,39.4,87.3,39.4z"/>
			<path class="st38" d="M87.1,39.6c-0.1,0-0.2,0-0.2,0c0,0,0.3,0.1,0.3,0.1C87.2,39.7,87.1,39.6,87.1,39.6z"/>
			<ellipse transform="matrix(0.9853 -0.171 0.171 0.9853 -5.5197 15.4051)" class="st38" cx="86.6" cy="39.7" rx="0.1" ry="0.1"/>
		</g>
	</g>
	<g>
		<g>
			<path class="st35" d="M75.2,60.5c0,0-0.2,0.1-0.2,0c0,0,0-0.1,0-0.1c0-0.1,0.1-0.2,0.1-0.2c0,0,0,0,0.1-0.1
				c0.1-0.1,0.4-0.2,0.4-0.3c0,0,0,0,0,0c0-0.1,0.1-0.6,0.1-0.6c0-0.1,0.1,0,0.1,0c0,0.1,0,0.4,0,0.6c0,0.1,0,0.2,0,0.2
				c0,0.1-0.4,0.2-0.5,0.3c0,0,0,0,0,0c0,0,0,0.1,0,0.1C75.2,60.4,75.2,60.5,75.2,60.5z"/>
			<path class="st36" d="M75.6,59.9c0-0.1,0.1-0.6,0.1-0.6c0-0.1,0.1,0,0.1,0c0,0.1,0,0.4,0,0.6C75.7,59.8,75.6,59.8,75.6,59.9z"/>
		</g>
		<g>
			<path class="st37" d="M74.5,60.3C74.5,60.3,74.5,60.3,74.5,60.3c0,0.1,0,0.2,0,0.2c0.1,0,0.2,0,0.2,0c0-0.1,0.1-0.1,0-0.2
				c0,0-0.1,0-0.1-0.1C74.5,60.3,74.5,60.3,74.5,60.3z"/>
			<g>
				<path class="st35" d="M74.1,59.9C74.1,59.9,74.1,59.9,74.1,59.9C74,59.9,74,59.9,74.1,59.9c-0.1,0.1,0,0.1,0,0.1
					c0,0,0,0.1,0,0.1l0,0c0,0,0,0,0,0s-0.1,0.1,0,0.2c0.1,0,0.3,0.1,0.3,0.1c0,0,0,0,0,0c0,0,0,0.2,0,0.2c0.1,0,0.2,0,0.2,0
					c0-0.1,0.1-0.1,0-0.2c0,0-0.1,0-0.1-0.1c-0.1-0.1-0.2-0.1-0.3-0.2c0,0,0,0,0-0.1c0,0,0,0,0,0c0-0.1,0-0.2,0-0.2
					C74.2,59.8,74.2,59.8,74.1,59.9c0.1-0.1,0.1-0.5,0-0.5C74.1,59.4,74.1,59.9,74.1,59.9z"/>
				<path class="st36" d="M74.1,59.9C74.1,59.9,74.1,59.9,74.1,59.9C74,59.9,74,59.9,74.1,59.9c-0.1,0.1,0,0.1,0,0.1
					c0,0,0,0.1,0,0.1c0,0,0.1,0,0.1,0c0-0.1,0-0.2,0-0.2C74.2,59.8,74.2,59.8,74.1,59.9c0.1-0.1,0.1-0.5,0-0.5
					C74.1,59.4,74.1,59.9,74.1,59.9z"/>
			</g>
		</g>
		<g>
			<path class="st35" d="M73.3,60.7C73.3,60.7,73.3,60.8,73.3,60.7C73.2,60.8,73.1,61,73,61c-0.1,0.1-0.2,0-0.3-0.1c0,0,0,0-0.1-0.1
				c-0.2-0.1-0.3-0.2-0.3-0.3c0.1-0.1,0.5,0.2,0.6,0.3c0,0,0,0,0,0c0.1,0.1,0.1-0.1,0.3-0.2c0.1-0.1,0.2-0.1,0.3,0c0,0,0.1,0,0.1,0
				c0.1,0,0.3,0.1,0.4,0.2l-0.2,0.1c0,0-0.1,0-0.2-0.1C73.4,60.8,73.4,60.7,73.3,60.7C73.4,60.7,73.4,60.7,73.3,60.7z"/>
			<path class="st36" d="M72.8,60.9c0,0-0.1,0-0.1,0c0,0,0,0-0.1-0.1c-0.2-0.1-0.3-0.2-0.3-0.3C72.3,60.5,72.8,60.8,72.8,60.9
				c0.1-0.1,0.1-0.1,0.1-0.1C72.8,60.9,72.8,60.9,72.8,60.9z"/>
			<path class="st37" d="M73.7,60.9c0,0-0.1,0-0.2-0.1c0,0,0,0,0,0c-0.1,0-0.1-0.1-0.1-0.1s0,0-0.1,0c0,0,0-0.1,0.1-0.1
				c0,0,0.1,0,0.1,0c0,0,0.1,0,0.1,0c0.1,0,0.2,0.1,0.3,0.2L73.7,60.9z"/>
			<path class="st37" d="M73.5,60.8C73.4,60.8,73.4,60.7,73.5,60.8c-0.1-0.1-0.1-0.1-0.1-0.1c0,0,0-0.1,0.1-0.1c0,0,0.1,0,0.1,0
				c0,0,0.1,0,0.1,0C73.6,60.7,73.5,60.8,73.5,60.8z"/>
		</g>
		<g>
			<path class="st35" d="M75.9,62c0,0-0.2,0.1-0.2,0.1c0,0,0,0,0.1,0.1c0.1,0,0.1,0.1,0.2,0.1c0,0,0,0,0.1,0c0.2,0,0.5-0.1,0.5-0.1
				c0,0,0,0,0,0c0.1,0.1,0.4,0.3,0.5,0.3c0,0,0.1,0,0.1-0.1c0,0-0.2-0.2-0.4-0.3c-0.1,0-0.1-0.1-0.1-0.1c-0.1-0.1-0.4,0.1-0.5,0.2
				c0,0,0,0,0,0c-0.1,0-0.1,0-0.1-0.1C75.9,62.1,75.9,62.1,75.9,62z"/>
			<path class="st36" d="M76.6,62.2c0.1,0.1,0.4,0.3,0.5,0.3c0,0,0.1,0,0.1-0.1c0,0-0.2-0.2-0.4-0.3C76.7,62.1,76.6,62.1,76.6,62.2z
				"/>
		</g>
		<g>
			<path class="st35" d="M75.5,63.2C75.5,63.2,75.4,63.2,75.5,63.2C75.4,63.2,75.4,63.2,75.5,63.2C75.4,63.2,75.4,63.2,75.5,63.2
				c-0.1-0.1-0.1-0.1-0.1-0.1l0,0c0,0,0,0,0,0s-0.2,0-0.1-0.1c0.1-0.1,0.2-0.2,0.2-0.3c0,0,0,0,0,0c0,0-0.2-0.1-0.1-0.1
				c0,0,0.1-0.1,0.1-0.1c0.1,0,0.2,0,0.1,0.1c0,0,0,0.1,0,0.1c0,0.1-0.1,0.3-0.1,0.3c0,0,0,0,0,0.1c0,0,0,0,0,0
				C75.5,63,75.6,63.1,75.5,63.2c0.1,0,0.1,0,0.1,0s0.3,0.2,0.2,0.3C75.8,63.5,75.5,63.2,75.5,63.2z"/>
			<path class="st37" d="M75.4,62.6C75.4,62.6,75.4,62.6,75.4,62.6c0-0.1-0.2-0.1-0.1-0.2c0,0,0.1-0.1,0.1-0.1c0.1,0,0.2,0,0.1,0.1
				C75.6,62.5,75.6,62.5,75.4,62.6C75.5,62.6,75.5,62.6,75.4,62.6z"/>
			<path class="st36" d="M75.5,63.2C75.5,63.2,75.4,63.2,75.5,63.2C75.4,63.2,75.4,63.2,75.5,63.2C75.4,63.2,75.4,63.2,75.5,63.2
				c-0.1-0.1-0.1-0.1-0.1-0.1c0,0,0.1-0.1,0.1-0.1C75.5,63,75.6,63.1,75.5,63.2c0.1,0,0.1,0,0.1,0s0.3,0.2,0.2,0.3
				C75.8,63.5,75.5,63.2,75.5,63.2z"/>
		</g>
		<g>
			<path class="st35" d="M74.3,63.2C74.3,63.2,74.3,63.2,74.3,63.2c-0.2,0.1-0.3,0-0.5,0.1c-0.1,0.1-0.1,0.1-0.2,0.3
				c0,0,0,0.1,0,0.1c0,0.2-0.1,0.3,0,0.4c0.1,0,0.2-0.4,0.3-0.5c0,0,0,0,0,0c0-0.1,0.1,0,0.3-0.1c0.1,0,0.2-0.1,0.2-0.2
				c0,0,0,0,0.1-0.1c0.1,0,0.1-0.3,0.2-0.4l-0.2,0.1c0,0-0.1,0.1-0.1,0.2C74.3,63.1,74.4,63.1,74.3,63.2
				C74.4,63.1,74.4,63.1,74.3,63.2z"/>
			<path class="st36" d="M73.8,63.5C73.7,63.5,73.7,63.5,73.8,63.5c-0.1,0.1-0.1,0.1-0.1,0.2c0,0.2-0.1,0.3,0,0.4
				c0.1,0,0.2-0.4,0.3-0.5c0,0,0,0,0,0C73.9,63.4,73.8,63.5,73.8,63.5z"/>
			<path class="st37" d="M74.4,62.8c0,0-0.1,0.1-0.1,0.2c0,0,0,0,0,0c0,0.1,0,0.1,0,0.1s0,0,0,0c0,0,0.1,0,0.1,0c0,0,0,0,0.1-0.1
				c0,0,0,0,0.1-0.1c0-0.1,0.1-0.2,0.1-0.3L74.4,62.8z"/>
			<path class="st37" d="M74.4,63C74.3,63.1,74.4,63.1,74.4,63c0,0.1,0,0.1,0,0.1c0,0,0.1,0,0.1,0c0,0,0,0,0.1-0.1c0,0,0,0,0.1-0.1
				C74.5,63,74.4,63,74.4,63z"/>
		</g>
		<path class="st38" d="M75.3,62.7L74.2,63c-0.2,0.1-0.4,0.1-0.6,0c-0.1,0-0.2-0.1-0.3-0.1c-0.1,0-0.1-0.1-0.2-0.1
			c0,0-0.1-0.1-0.1-0.1c0,0-0.1-0.1-0.1-0.1c0,0,0,0,0-0.1c0,0,0-0.1,0-0.1c0,0,0,0,0,0l0,0c0,0,0,0,0,0c0,0,0-0.1,0-0.1
			c0,0,0-0.1,0-0.1c0-0.1,0-0.1,0-0.2c0,0,0-0.1,0-0.1c0-0.1,0-0.2,0.1-0.2c0-0.1,0.1-0.2,0.1-0.3c0.1-0.2,0.3-0.3,0.5-0.4l1.1-0.6
			c0.2-0.1,0.4-0.1,0.6,0c0,0,0,0,0.1,0c0.1,0.1,0.2,0.1,0.2,0.2l0.5,1.2c0,0.1,0,0.3,0,0.4c0,0,0,0,0,0
			C75.7,62.5,75.5,62.6,75.3,62.7z"/>
		<path class="st39" d="M76.2,60.8c0.1-0.1,0.3-1,0.4-1.2c0.1-0.2-0.1-0.3-0.1-0.1c0,0.2-0.2,1.1-0.2,1.2
			C76.1,60.7,76.2,60.8,76.2,60.8z"/>
		<path class="st39" d="M76.3,61.1c0.1,0,0.9,0.5,1.1,0.6c0.2,0.1,0.1,0.3-0.1,0.2c-0.2-0.1-0.9-0.7-1-0.7S76.3,61.1,76.3,61.1z"/>
		<path class="st40" d="M76.3,61.4C76.3,61.4,76.3,61.4,76.3,61.4C76.3,61.4,76.3,61.4,76.3,61.4c-0.2,0-0.3-0.1-0.4-0.3
			c-0.1-0.2-0.1-0.4,0-0.4c0,0,0,0,0,0c0,0,0.1,0,0.1,0l0,0c0.1,0,0.2,0.1,0.2,0.3c0,0.1,0.1,0.3,0,0.3
			C76.4,61.3,76.4,61.3,76.3,61.4z"/>
		<path class="st41" d="M75.3,61.2l-2.5,1.2c0,0,0,0,0,0l0,0l0,0l0,0c0,0,0,0,0,0l2.6-1L75.3,61.2z"/>
		<path class="st41" d="M75.8,62.3L75.8,62.3l-0.7-0.9L75,60.4c0,0,0,0,0.1,0L75.8,62.3L75.8,62.3z"/>
		<path class="st42" d="M75.8,62.3c0.5-0.2,0.7-0.8,0.5-1.3c-0.2-0.5-0.7-0.8-1.2-0.6c0,0,0.2,1,0.2,1S75.8,62.3,75.8,62.3z"/>
		<g>
			<path class="st38" d="M75.6,60.5c0-0.1-0.3,0-0.3,0.1c0,0.1,0.1,0.1,0.2,0.1C75.6,60.6,75.6,60.5,75.6,60.5z"/>
			<path class="st38" d="M75.4,60.8c0.1,0.1,0.1,0.2,0.1,0.2c0,0-0.2-0.3-0.2-0.4C75.3,60.6,75.4,60.8,75.4,60.8z"/>
			<path class="st38" d="M76.1,61.1c0,0,0.1,0.4,0,0.4c-0.1,0-0.1-0.1-0.1-0.2C76.1,61.1,76.1,61.1,76.1,61.1z"/>
			<path class="st38" d="M76.1,61.8c0,0.1-0.2,0.2-0.2,0.1c-0.1-0.1,0-0.1,0.1-0.2C76.1,61.7,76.1,61.8,76.1,61.8z"/>
			<path class="st38" d="M75.8,61.7c0-0.1-0.1-0.2-0.1-0.2c-0.1,0,0,0.4,0.1,0.4C75.8,61.9,75.8,61.7,75.8,61.7z"/>
			<ellipse transform="matrix(0.807 -0.5905 0.5905 0.807 -21.6533 56.3734)" class="st38" cx="75.4" cy="61.3" rx="0.1" ry="0.1"/>
		</g>
	</g>
	<g>
		<path class="st43" d="M113.4,80.7c0.2-0.3,0.6-0.9,1.8-1c1.2-0.1,4.6-0.4,5.4-0.5c0.8-0.1,4.7-0.9,5-0.9s0.5,0.3,0.4,0.5
			c-0.1,0.2-0.7,0.6-1.7,0.8c-1,0.2-4,0.9-5,0.9c-1,0.1-3.4,0.4-4.2,0.4c-0.7,0-1.2,0-1.4,0.2C113.6,81.3,113.2,81,113.4,80.7z"/>
		<g>
			<defs>
				<path id="SVGID_33_" d="M113.4,80.7c0.2-0.3,0.6-0.9,1.8-1c1.2-0.1,4.6-0.4,5.4-0.5c0.8-0.1,4.7-0.9,5-0.9s0.5,0.3,0.4,0.5
					c-0.1,0.2-0.7,0.6-1.7,0.8c-1,0.2-4,0.9-5,0.9c-1,0.1-3.4,0.4-4.2,0.4c-0.7,0-1.2,0-1.4,0.2C113.6,81.3,113.2,81,113.4,80.7z"/>
			</defs>
			<clipPath id="SVGID_34_">
				<use xlink:href="#SVGID_33_"  style="overflow:visible;"/>
			</clipPath>
			<path class="st44" d="M113.8,81.1c0,0,0.3-0.5,0.7-0.6s2.1-0.2,3.4-0.3c1.3-0.1,3.4-0.5,4.5-0.7c1.1-0.1,2.7-0.6,2.7-0.6
				s0.9-0.2,1.1-0.1c0.1,0,0-0.5,0-0.5l-0.9-0.5l-6.3,1l-5.3,0.9l-0.7,1.1l0.6,0.5L113.8,81.1z"/>
		</g>
		<g>
			<defs>
				<path id="SVGID_35_" d="M113.4,80.7c0.2-0.3,0.6-0.9,1.8-1c1.2-0.1,4.6-0.4,5.4-0.5c0.8-0.1,4.7-0.9,5-0.9s0.5,0.3,0.4,0.5
					c-0.1,0.2-0.7,0.6-1.7,0.8c-1,0.2-4,0.9-5,0.9c-1,0.1-3.4,0.4-4.2,0.4c-0.7,0-1.2,0-1.4,0.2C113.6,81.3,113.2,81,113.4,80.7z"/>
			</defs>
			<clipPath id="SVGID_36_">
				<use xlink:href="#SVGID_35_"  style="overflow:visible;"/>
			</clipPath>
			<path class="st45" d="M113.4,81c0,0,0.3,0,0.5-0.2c0.2-0.2,0.6-0.4,1.2-0.5c0.6-0.1,2.7-0.3,3.2-0.3c0.5,0,3.1-0.4,3.7-0.5
				c0.6-0.1,2.4-0.6,2.9-0.6c0.5,0,1.1,0.1,1.1,0.1l0.2-0.6l-1.2-0.1l-5.9,1l-5,0.5l-1.1,0.8L113.4,81z"/>
		</g>
		<g>
			<path class="st43" d="M120.8,80.2c0,0,0.1,0.1,0.1,0.2c0,0.1-0.1,0.2-0.2,0.2c-0.1-0.1,0-0.1-0.1-0.2S120.7,80.2,120.8,80.2z"/>
			<path class="st43" d="M124.3,79.4c0,0,0.1,0.1,0.1,0.2c0,0.1-0.1,0.2-0.2,0.2c-0.1-0.1,0-0.1-0.1-0.2
				C124.2,79.5,124.3,79.4,124.3,79.4z"/>
			<path class="st43" d="M125.1,79.2c0,0,0.1,0.1,0.1,0.2s-0.1,0.2-0.2,0.2c-0.1-0.1,0-0.1-0.1-0.2S125,79.2,125.1,79.2z"/>
			<path class="st43" d="M119.5,80.3c0,0,0.1,0.1,0.1,0.3c0,0.1-0.1,0.2-0.2,0.1s0-0.1,0-0.2C119.4,80.4,119.4,80.3,119.5,80.3z"/>
			<path class="st43" d="M118.1,80.5c0,0,0.1,0.1,0.1,0.3c0,0.1-0.1,0.2-0.2,0.1c-0.1-0.1,0-0.1,0-0.2C118,80.6,118,80.5,118.1,80.5
				z"/>
			<path class="st43" d="M116.7,80.6c0,0,0.1,0.1,0.1,0.3c0,0.1-0.1,0.2-0.2,0.1c-0.1-0.1,0-0.1,0-0.2S116.6,80.6,116.7,80.6z"/>
		</g>
		
			<ellipse transform="matrix(0.9791 -0.2033 0.2033 0.9791 -13.3601 27.2795)" class="st46" cx="126.1" cy="78.7" rx="0.3" ry="0.4"/>
		<ellipse transform="matrix(0.2722 -0.9622 0.9622 0.2722 16.1312 178.339)" class="st47" cx="126" cy="78.5" rx="0.1" ry="0.1"/>
	</g>
</g>
</svg>
