<?xml version="1.0" encoding="utf-8"?>
<!-- Generator: Adobe Illustrator 22.0.1, SVG Export Plug-In . SVG Version: 6.00 Build 0)  -->
<svg version="1.1" id="圖層_1" xmlns="http://www.w3.org/2000/svg" xmlns:xlink="http://www.w3.org/1999/xlink" x="0px" y="0px"
	 viewBox="0 0 100 50" style="enable-background:new 0 0 100 50;" xml:space="preserve">
<style type="text/css">
	.st0{fill:#65AC1E;}
	.st1{fill:#FFFFFF;}
</style>
<g>
	<rect y="0" class="st0" width="100" height="50"/>
	<g>
		<g>
			<path class="st1" d="M12.5,12.5v13.4h13.4V12.5H12.5z M21.8,21.8h-5.2v-5.2h5.2V21.8z"/>
			<rect x="30.1" y="16.6" class="st1" width="5.2" height="5.2"/>
		</g>
		<path class="st1" d="M39.4,12.5c0,0,6.2,0,7.5,0c2.7,0,4,1.8,4,3.5c0,1.2-0.5,2-1.7,2.7c1.6,0.6,2.4,1.6,2.4,3.2
			c0,1.9-1.4,4-4.7,4c-1.8,0-7.5,0-7.5,0L39.4,12.5z M43.5,22.9c0,0,1.7,0,2.7,0c1,0,1.4-0.7,1.4-1.3c0,0.3,0.1-1.1-1.3-1.1
			c-0.7,0-2.8,0-2.8,0V22.9z M43.5,17.8c0,0,1.3,0,2.2,0c1,0,1.4-0.5,1.4-1.1c0-0.2,0-1-1.1-1c0.5,0-2.5,0-2.5,0V17.8z"/>
		<path class="st1" d="M55.8,12.5h4.3l4.9,13.4h-4.4l-0.7-2h-4.1l-0.6,2h-4.4L55.8,12.5z M57.8,16.5L56.7,21h2.4L57.8,16.5z"/>
		<path class="st1" d="M72,16.5h4.1c0-2.3-1.7-4.4-5.8-4.4c-4.5,0-5.8,2.5-5.8,4.3c0,2.9,3.6,3.7,3.7,3.7c0.5,0.2,2.7,0.8,3.3,1
			c0.5,0.2,0.9,0.6,0.9,1.1c0,0.8-0.9,1.2-1.7,1.2c-0.5,0-2.2-0.2-2.2-1.9h-4.3c0,2.4,1.6,5,6.2,5c5,0,6.1-3,6.1-4.6
			c0-1.3-0.7-2.7-2.4-3.4c-1-0.4-2.7-0.8-3.6-1c-0.4-0.1-1.9-0.4-1.9-1.3c0-1.1,1.8-1,1.6-1C71,15,72,15.5,72,16.5z"/>
		<polygon class="st1" points="77.2,12.5 87.5,12.5 87.5,16 81.3,16 81.3,18.4 86.8,18.4 86.8,21.8 81.3,21.8 81.3,25.9 77.2,25.9 
					"/>
	</g>
	<g>
		<polygon class="st1" points="17.9,36.6 17.9,36.5 16.6,31.7 15.8,31.7 14.5,36.6 14.4,36.6 14.4,36.5 13.3,31.7 12.5,31.7 
			14,37.5 14.8,37.5 16.1,32.6 16.2,32.6 16.2,32.6 17.5,37.5 18.3,37.5 19.8,31.7 19.1,31.7 17.9,36.6 		"/>
		<path class="st1" d="M23.3,34c-0.1-0.2-0.3-0.4-0.6-0.6c-0.2-0.2-0.6-0.2-0.9-0.2c-0.3,0-0.5,0.1-0.8,0.2
			c-0.2,0.1-0.4,0.3-0.6,0.5c-0.2,0.2-0.3,0.4-0.4,0.7s-0.1,0.6-0.1,0.9c0,0.3,0.1,0.6,0.1,0.9c0.1,0.3,0.2,0.5,0.4,0.7
			c0.2,0.2,0.4,0.3,0.6,0.5c0.2,0.1,0.5,0.2,0.9,0.2c0.5,0,0.9-0.1,1.2-0.4c0.3-0.2,0.5-0.6,0.6-1h-0.6c-0.1,0.3-0.2,0.5-0.4,0.6
			C22.4,37,22.1,37,21.8,37c-0.2,0-0.4,0-0.6-0.1c-0.2-0.1-0.3-0.2-0.4-0.3c-0.1-0.1-0.2-0.3-0.2-0.4c0-0.2-0.1-0.3-0.1-0.5l0,0h3.2
			c0-0.2,0-0.5-0.1-0.8C23.5,34.5,23.4,34.3,23.3,34 M20.5,35L20.5,35c0-0.2,0-0.3,0.1-0.5c0.1-0.1,0.1-0.3,0.3-0.4
			c0.1-0.1,0.2-0.2,0.4-0.3c0.1-0.1,0.3-0.1,0.5-0.1c0.2,0,0.3,0,0.5,0.1c0.1,0.1,0.3,0.2,0.4,0.3c0.1,0.1,0.2,0.2,0.3,0.4
			c0.1,0.1,0.1,0.3,0.1,0.5l0,0H20.5z"/>
		<path class="st1" d="M28.5,37c-0.2,0-0.4,0-0.6-0.1c-0.2-0.1-0.3-0.2-0.4-0.4c-0.1-0.1-0.2-0.3-0.2-0.5c0-0.2-0.1-0.4-0.1-0.6
			c0-0.2,0-0.4,0.1-0.6c0-0.2,0.1-0.4,0.2-0.5c0.1-0.2,0.2-0.3,0.4-0.4c0.2-0.1,0.4-0.1,0.6-0.1c0.3,0,0.5,0.1,0.7,0.2
			c0.2,0.1,0.3,0.4,0.3,0.6h0.7c0-0.2-0.1-0.4-0.2-0.6c-0.1-0.2-0.2-0.3-0.4-0.4c-0.2-0.1-0.3-0.2-0.5-0.3c-0.2-0.1-0.4-0.1-0.7-0.1
			c-0.3,0-0.6,0.1-0.9,0.2c-0.2,0.1-0.5,0.3-0.6,0.5c-0.2,0.2-0.3,0.4-0.4,0.7c-0.1,0.3-0.1,0.6-0.1,0.9c0,0.3,0,0.6,0.1,0.9
			c0.1,0.3,0.2,0.5,0.4,0.7c0.2,0.2,0.4,0.3,0.6,0.4c0.2,0.1,0.5,0.2,0.8,0.2c0.5,0,1-0.1,1.3-0.4c0.3-0.3,0.5-0.7,0.6-1.2h-0.7
			c0,0.3-0.2,0.6-0.4,0.8C29.1,36.9,28.9,37,28.5,37"/>
		<path class="st1" d="M32.5,33.4c-0.2,0.2-0.5,0.4-0.6,0.8l0,0h0v-0.9h-0.6v4.2h0.7v-1.9c0-0.3,0-0.5,0.1-0.7
			c0.1-0.2,0.1-0.4,0.3-0.5c0.1-0.1,0.3-0.3,0.5-0.3c0.2-0.1,0.4-0.1,0.7-0.1v-0.7c0,0,0,0,0,0C33,33.2,32.7,33.3,32.5,33.4"/>
		<path class="st1" d="M36.9,34c-0.1-0.2-0.3-0.4-0.6-0.6c-0.2-0.2-0.6-0.2-0.9-0.2c-0.3,0-0.5,0.1-0.8,0.2
			c-0.2,0.1-0.4,0.3-0.6,0.5c-0.2,0.2-0.3,0.4-0.4,0.7c-0.1,0.3-0.1,0.6-0.1,0.9c0,0.3,0.1,0.6,0.1,0.9c0.1,0.3,0.2,0.5,0.4,0.7
			c0.2,0.2,0.4,0.3,0.6,0.5c0.2,0.1,0.5,0.2,0.9,0.2c0.5,0,0.9-0.1,1.2-0.4c0.3-0.2,0.5-0.6,0.6-1h-0.6c-0.1,0.3-0.2,0.5-0.4,0.6
			C36,37,35.8,37,35.5,37c-0.2,0-0.4,0-0.6-0.1c-0.2-0.1-0.3-0.2-0.4-0.3c-0.1-0.1-0.2-0.3-0.2-0.4c0-0.2-0.1-0.3-0.1-0.5l0,0h3.2
			c0-0.2,0-0.5-0.1-0.8C37.2,34.5,37.1,34.3,36.9,34 M34.1,35L34.1,35c0-0.2,0-0.3,0.1-0.5c0.1-0.1,0.1-0.3,0.3-0.4
			c0.1-0.1,0.2-0.2,0.4-0.3c0.1-0.1,0.3-0.1,0.5-0.1c0.2,0,0.3,0,0.5,0.1c0.1,0.1,0.3,0.2,0.4,0.3c0.1,0.1,0.2,0.2,0.3,0.4
			c0.1,0.1,0.1,0.3,0.1,0.5l0,0H34.1z"/>
		<path class="st1" d="M41.5,36.9c0-0.1,0-0.2,0-0.4v-2.2c0-0.2,0-0.4-0.1-0.6c-0.1-0.1-0.2-0.3-0.4-0.3c-0.1-0.1-0.3-0.1-0.5-0.2
			c-0.4-0.1-0.8-0.1-1.2,0c-0.2,0-0.4,0.1-0.6,0.2c-0.2,0.1-0.3,0.3-0.4,0.4c-0.1,0.2-0.1,0.4-0.2,0.6h0.7c0-0.3,0.1-0.5,0.3-0.6
			c0.2-0.1,0.5-0.2,0.7-0.2c0.1,0,0.2,0,0.3,0c0.1,0,0.2,0.1,0.3,0.1c0.1,0.1,0.2,0.1,0.2,0.2c0.1,0.1,0.1,0.2,0.1,0.4
			c0,0.1,0,0.2-0.1,0.3c-0.1,0.1-0.2,0.1-0.3,0.2c-0.1,0-0.3,0.1-0.5,0.1c-0.2,0-0.4,0-0.5,0.1c-0.2,0-0.4,0.1-0.5,0.1
			c-0.2,0-0.3,0.1-0.5,0.2c-0.1,0.1-0.2,0.2-0.3,0.4C38,36,38,36.2,38,36.4c0,0.2,0,0.4,0.1,0.5c0.1,0.1,0.2,0.3,0.3,0.4
			c0.1,0.1,0.3,0.2,0.4,0.2c0.2,0,0.3,0.1,0.5,0.1c0.3,0,0.6,0,0.8-0.1c0.2-0.1,0.5-0.3,0.7-0.5l0,0V37c0,0.2,0.1,0.4,0.2,0.5
			c0.1,0.1,0.2,0.1,0.4,0.1c0.2,0,0.4,0,0.5-0.1V37c-0.1,0-0.1,0-0.2,0C41.6,37,41.6,37,41.5,36.9 M40.9,36.1c0,0.1,0,0.2-0.1,0.3
			c0,0.1-0.1,0.2-0.2,0.3c-0.1,0.1-0.2,0.2-0.4,0.2C40,37,39.8,37,39.5,37c-0.1,0-0.2,0-0.3,0c-0.1,0-0.2-0.1-0.3-0.1
			c-0.1-0.1-0.1-0.1-0.2-0.2c0-0.1-0.1-0.2-0.1-0.3c0-0.2,0-0.3,0.1-0.4c0.1-0.1,0.2-0.2,0.3-0.2c0.1-0.1,0.3-0.1,0.4-0.1
			c0.1,0,0.3,0,0.5-0.1c0.2,0,0.3,0,0.4-0.1c0.1,0,0.2-0.1,0.3-0.1l0,0V36.1z"/>
		<path class="st1" d="M48.4,34c-0.1-0.2-0.3-0.4-0.6-0.6c-0.2-0.2-0.6-0.2-0.9-0.2c-0.3,0-0.5,0.1-0.8,0.2
			c-0.2,0.1-0.4,0.3-0.6,0.5c-0.2,0.2-0.3,0.4-0.4,0.7c-0.1,0.3-0.1,0.6-0.1,0.9c0,0.3,0.1,0.6,0.1,0.9c0.1,0.3,0.2,0.5,0.4,0.7
			c0.2,0.2,0.4,0.3,0.6,0.5c0.2,0.1,0.5,0.2,0.9,0.2c0.5,0,0.9-0.1,1.2-0.4c0.3-0.2,0.5-0.6,0.6-1H48c-0.1,0.3-0.2,0.5-0.4,0.6
			C47.4,37,47.2,37,46.9,37c-0.2,0-0.4,0-0.6-0.1c-0.2-0.1-0.3-0.2-0.4-0.3c-0.1-0.1-0.2-0.3-0.2-0.4c0-0.2-0.1-0.3-0.1-0.5l0,0h3.2
			c0-0.2,0-0.5-0.1-0.8C48.6,34.5,48.5,34.3,48.4,34 M45.6,35L45.6,35c0-0.2,0-0.3,0.1-0.5c0.1-0.1,0.1-0.3,0.2-0.4
			c0.1-0.1,0.2-0.2,0.4-0.3c0.1-0.1,0.3-0.1,0.5-0.1c0.2,0,0.3,0,0.5,0.1c0.1,0.1,0.3,0.1,0.4,0.3c0.1,0.1,0.2,0.2,0.3,0.4
			c0.1,0.1,0.1,0.3,0.1,0.5l0,0H45.6z"/>
		<path class="st1" d="M53.6,37c-0.2,0-0.4,0-0.6-0.1c-0.2-0.1-0.3-0.2-0.4-0.4c-0.1-0.1-0.2-0.3-0.2-0.5c0-0.2-0.1-0.4-0.1-0.6
			c0-0.2,0-0.4,0.1-0.6c0-0.2,0.1-0.4,0.2-0.5c0.1-0.2,0.2-0.3,0.4-0.4c0.2-0.1,0.4-0.1,0.6-0.1c0.3,0,0.5,0.1,0.7,0.2
			c0.2,0.1,0.3,0.4,0.3,0.6h0.7c0-0.2-0.1-0.4-0.2-0.6c-0.1-0.2-0.2-0.3-0.4-0.4c-0.2-0.1-0.3-0.2-0.5-0.3c-0.2-0.1-0.4-0.1-0.7-0.1
			c-0.3,0-0.6,0.1-0.9,0.2c-0.2,0.1-0.5,0.3-0.6,0.5c-0.2,0.2-0.3,0.4-0.4,0.7c-0.1,0.3-0.1,0.6-0.1,0.9c0,0.3,0,0.6,0.1,0.9
			c0.1,0.3,0.2,0.5,0.4,0.7c0.2,0.2,0.4,0.3,0.6,0.4c0.2,0.1,0.5,0.2,0.8,0.2c0.5,0,1-0.1,1.3-0.4c0.3-0.3,0.5-0.7,0.6-1.2h-0.7
			c0,0.3-0.2,0.6-0.4,0.8C54.2,36.9,54,37,53.6,37"/>
		<path class="st1" d="M59.5,33.6c-0.1-0.1-0.3-0.2-0.4-0.3c-0.2-0.1-0.4-0.1-0.7-0.1c-0.1,0-0.3,0-0.4,0c-0.1,0-0.3,0.1-0.4,0.1
			c-0.1,0.1-0.2,0.1-0.3,0.2c-0.1,0.1-0.2,0.2-0.2,0.3l0,0h0v-2.2h-0.7v5.8H57v-2.4c0-0.2,0-0.4,0.1-0.5c0.1-0.2,0.1-0.3,0.2-0.4
			c0.1-0.1,0.2-0.2,0.4-0.3c0.2-0.1,0.3-0.1,0.6-0.1c0.3,0,0.5,0.1,0.6,0.2c0.2,0.2,0.2,0.4,0.2,0.6v2.8h0.7v-2.8
			c0-0.2,0-0.4-0.1-0.6C59.7,33.9,59.6,33.8,59.5,33.6"/>
		<path class="st1" d="M64.1,34c-0.1-0.2-0.3-0.4-0.6-0.6c-0.2-0.2-0.6-0.2-0.9-0.2c-0.3,0-0.5,0.1-0.8,0.2
			c-0.2,0.1-0.4,0.3-0.6,0.5c-0.2,0.2-0.3,0.4-0.4,0.7c-0.1,0.3-0.1,0.6-0.1,0.9c0,0.3,0.1,0.6,0.1,0.9c0.1,0.3,0.2,0.5,0.4,0.7
			c0.2,0.2,0.4,0.3,0.6,0.5c0.2,0.1,0.5,0.2,0.9,0.2c0.5,0,0.9-0.1,1.2-0.4c0.3-0.2,0.5-0.6,0.6-1h-0.6c-0.1,0.3-0.2,0.5-0.4,0.6
			C63.2,37,63,37,62.7,37c-0.2,0-0.4,0-0.6-0.1c-0.2-0.1-0.3-0.2-0.4-0.3c-0.1-0.1-0.2-0.3-0.2-0.4c0-0.2-0.1-0.3-0.1-0.5l0,0h3.2
			c0-0.2,0-0.5-0.1-0.8C64.4,34.5,64.3,34.3,64.1,34 M61.4,35L61.4,35c0-0.2,0-0.3,0.1-0.5c0.1-0.1,0.1-0.3,0.2-0.4
			c0.1-0.1,0.2-0.2,0.4-0.3c0.1-0.1,0.3-0.1,0.5-0.1c0.2,0,0.3,0,0.5,0.1c0.1,0.1,0.3,0.2,0.4,0.3c0.1,0.1,0.2,0.2,0.3,0.4
			c0.1,0.1,0.1,0.3,0.1,0.5l0,0H61.4z"/>
		<path class="st1" d="M70.9,33.5c-0.1-0.1-0.3-0.2-0.4-0.2c-0.2,0-0.4-0.1-0.6-0.1c-0.3,0-0.5,0.1-0.8,0.2
			c-0.2,0.1-0.4,0.3-0.6,0.5l0,0l0,0c-0.1-0.3-0.2-0.4-0.4-0.5c-0.2-0.1-0.4-0.2-0.7-0.2c-0.6,0-1.1,0.2-1.4,0.7l0,0h0v-0.6h-0.6
			v4.2H66v-2.6c0-0.1,0-0.2,0.1-0.3c0-0.1,0.1-0.2,0.2-0.4c0.1-0.1,0.2-0.2,0.4-0.3c0.1-0.1,0.3-0.1,0.5-0.1c0.2,0,0.3,0,0.4,0.1
			c0.1,0,0.2,0.1,0.3,0.2c0.1,0.1,0.1,0.2,0.1,0.3c0,0.1,0,0.2,0,0.4v2.7h0.7v-2.6c0-0.3,0.1-0.6,0.3-0.8c0.2-0.2,0.5-0.3,0.8-0.3
			c0.2,0,0.3,0,0.4,0.1c0.1,0.1,0.2,0.1,0.3,0.2c0.1,0.1,0.1,0.2,0.1,0.3c0,0.1,0,0.2,0,0.4v2.7h0.7v-3.1c0-0.2,0-0.4-0.1-0.6
			C71.1,33.7,71,33.6,70.9,33.5"/>
		<path class="st1" d="M73,32.5h-0.7v-0.8H73V32.5z M73,33.3h-0.7v4.2H73V33.3z"/>
		<path class="st1" d="M76.9,37.3c0.2-0.1,0.3-0.2,0.4-0.4c0.1-0.2,0.2-0.4,0.2-0.6c0-0.2,0-0.4-0.1-0.5c-0.1-0.1-0.2-0.2-0.3-0.3
			c-0.1-0.1-0.3-0.2-0.4-0.2c-0.2-0.1-0.3-0.1-0.5-0.1c-0.2,0-0.3-0.1-0.5-0.1c-0.2,0-0.3-0.1-0.4-0.1c-0.1-0.1-0.2-0.1-0.3-0.2
			c-0.1-0.1-0.1-0.2-0.1-0.3c0-0.1,0-0.2,0.1-0.3c0.1-0.1,0.1-0.1,0.2-0.2c0.1,0,0.2-0.1,0.3-0.1c0.2,0,0.4,0,0.7,0
			c0.1,0,0.2,0.1,0.3,0.1c0.1,0.1,0.2,0.1,0.2,0.2c0.1,0.1,0.1,0.2,0.1,0.3h0.7c0-0.2-0.1-0.4-0.2-0.6c-0.1-0.2-0.2-0.3-0.4-0.4
			c-0.2-0.1-0.3-0.2-0.5-0.2c-0.2,0-0.4-0.1-0.7-0.1c-0.2,0-0.4,0-0.6,0.1c-0.2,0-0.4,0.1-0.5,0.2c-0.1,0.1-0.3,0.2-0.4,0.4
			C74.1,34,74,34.2,74,34.4c0,0.3,0.1,0.5,0.2,0.6c0.1,0.2,0.3,0.3,0.5,0.4c0.2,0.1,0.4,0.1,0.7,0.2c0.2,0,0.5,0.1,0.7,0.2
			c0.2,0.1,0.4,0.1,0.5,0.2c0.1,0.1,0.2,0.2,0.2,0.4c0,0.1,0,0.2-0.1,0.3c-0.1,0.1-0.2,0.2-0.3,0.2c-0.1,0-0.2,0.1-0.3,0.1
			c-0.3,0-0.5,0-0.8,0c-0.1,0-0.3-0.1-0.4-0.1c-0.1-0.1-0.2-0.2-0.3-0.3c-0.1-0.1-0.1-0.2-0.1-0.4h-0.6c0,0.2,0.1,0.5,0.2,0.6
			c0.1,0.2,0.2,0.3,0.4,0.4c0.2,0.1,0.3,0.2,0.6,0.2c0.4,0.1,0.9,0.1,1.3,0C76.6,37.5,76.8,37.4,76.9,37.3"/>
		<path class="st1" d="M79.2,32.1h-0.7v1.3h-0.7v0.6h0.7v2.7c0,0.2,0,0.4,0.1,0.5c0,0.1,0.1,0.2,0.2,0.3c0.1,0.1,0.2,0.1,0.3,0.1
			c0.1,0,0.3,0,0.5,0h0.5v-0.6h-0.3c-0.1,0-0.2,0-0.3,0c-0.1,0-0.1,0-0.2-0.1c0,0-0.1-0.1-0.1-0.1c0-0.1,0-0.1,0-0.2v-2.6h0.9v-0.6
			h-0.9V32.1z"/>
		<path class="st1" d="M43.5,32.1h-0.7v1.3h-0.7v0.6h0.7v2.7c0,0.2,0,0.4,0.1,0.5c0,0.1,0.1,0.2,0.2,0.3c0.1,0.1,0.2,0.1,0.3,0.1
			c0.1,0,0.3,0,0.5,0h0.5v-0.6h-0.3c-0.1,0-0.2,0-0.3,0c-0.1,0-0.1,0-0.2-0.1c0,0-0.1-0.1-0.1-0.1c0-0.1,0-0.1,0-0.2v-2.6h0.9v-0.6
			h-0.9V32.1z"/>
		<path class="st1" d="M81.7,34.2L81.7,34.2L81.7,34.2l0-0.9h-0.6v4.2h0.7v-1.8c0-0.3,0-0.5,0.1-0.7c0.1-0.2,0.1-0.4,0.3-0.5
			c0.1-0.1,0.3-0.3,0.5-0.3C82.8,34,83,34,83.3,34v-0.7c-0.4,0-0.7,0.1-0.9,0.2C82.1,33.7,81.9,33.9,81.7,34.2"/>
		<path class="st1" d="M85.4,38.6c0.1-0.1,0.2-0.3,0.2-0.5l1.8-4.8h-0.7l-1.2,3.5h0l0,0l-1.2-3.4h-0.7l1.7,4.2l0,0L85,38.2
			c-0.1,0.1-0.1,0.2-0.2,0.3c-0.1,0.1-0.2,0.1-0.4,0.1c-0.1,0-0.1,0-0.2,0c-0.1,0-0.1,0-0.2-0.1v0.6c0.1,0,0.1,0,0.2,0.1
			c0.1,0,0.2,0,0.2,0c0.2,0,0.3,0,0.4-0.1c0.1,0,0.2-0.1,0.3-0.2C85.3,38.8,85.3,38.7,85.4,38.6"/>
	</g>
</g>
</svg>
