<?xml version="1.0" encoding="utf-8"?>
<!-- Generator: Adobe Illustrator 22.0.1, SVG Export Plug-In . SVG Version: 6.00 Build 0)  -->
<svg version="1.1" id="圖層_1" xmlns="http://www.w3.org/2000/svg" xmlns:xlink="http://www.w3.org/1999/xlink" x="0px" y="0px"
	 viewBox="0 0 280 140" style="enable-background:new 0 0 280 140;" xml:space="preserve">
<style type="text/css">
	.st0{opacity:0.7;fill:#FFFFFF;}
	.st1{fill:#FFFFFF;}
	.st2{fill:url(#SVGID_1_);}
	.st3{fill:url(#SVGID_2_);}
	.st4{opacity:0.18;fill:#3B5E43;}
	.st5{fill:url(#SVGID_3_);}
	.st6{fill:url(#SVGID_4_);}
	.st7{fill:url(#XMLID_2_);}
	.st8{display:none;}
	.st9{display:inline;fill:url(#SVGID_5_);}
	.st10{display:inline;fill:url(#SVGID_6_);}
	.st11{display:inline;fill:url(#SVGID_7_);}
	.st12{display:inline;}
	.st13{fill:url(#SVGID_8_);}
	.st14{display:inline;fill:url(#SVGID_9_);}
	.st15{fill:url(#SVGID_10_);}
	.st16{fill:url(#SVGID_11_);}
	.st17{fill:url(#SVGID_12_);}
	.st18{fill:url(#SVGID_13_);}
	.st19{fill:url(#SVGID_14_);}
	.st20{fill:url(#SVGID_15_);}
	.st21{fill:url(#SVGID_16_);}
	.st22{fill:url(#SVGID_17_);}
	.st23{fill:url(#SVGID_18_);}
	.st24{fill:url(#SVGID_19_);}
	.st25{fill:url(#SVGID_20_);}
	.st26{opacity:0.7;}
	.st27{fill:url(#SVGID_21_);}
	.st28{fill:url(#SVGID_22_);}
	.st29{fill:url(#SVGID_23_);}
	.st30{fill:url(#SVGID_24_);}
	.st31{fill:url(#SVGID_25_);}
	.st32{fill:url(#SVGID_26_);}
	.st33{fill:url(#SVGID_27_);}
	.st34{fill:url(#SVGID_28_);}
	.st35{fill:url(#SVGID_29_);}
	.st36{fill:url(#XMLID_3_);}
	.st37{fill:url(#SVGID_30_);}
</style>
<g>
	<g>
		<path class="st0" d="M145.4,113.6c0,0-1.9-7.8-0.3-8.6c1.8-0.8,1.8,5.2,1.8,5.2s1.4-4.9,2.9-4.3c1.9,0.8-1,4.6-1,4.6
			s3.9-2.9,4.2-1.3c0.3,1.6-3.6,3.1-3.6,3.1s3.1-0.3,3.1,1.2C152.4,115.1,145.4,113.6,145.4,113.6z"/>
		<path class="st1" d="M145.4,113.6c0,0-3.4-6.4-1.6-7.2s2,4.4,2,4.4s0.1-6,1.7-5.8c2.3,0.3,0,5.8,0,5.8s2.3-4.6,3.8-3.7
			c2.8,1.6-2.8,4.6-2.8,4.6s3.7-2.1,4.4-1c1.9,2.7-4.9,2.4-4.9,2.4s4.3,0,4,1.7C151.7,116.6,145.4,113.6,145.4,113.6z"/>
	</g>
	<g>
		<linearGradient id="SVGID_1_" gradientUnits="userSpaceOnUse" x1="85.5772" y1="195.7632" x2="156.0346" y2="73.7273">
			<stop  offset="0" style="stop-color:#00B36F"/>
			<stop  offset="1" style="stop-color:#9DE3AF"/>
		</linearGradient>
		<path class="st2" d="M-0.2,146.3L-0.7,68c41.8-15.9,70.5,38.9,76.6,40.2c6.1,1.3,11.7-24.4,28.6-25.6c17.2-1.2,20.4,22.8,25,24.7
			c2.1,0.8,4.6-2.5,6-3.5c10.2-7.5,26.3-5.6,31.9,7.5c0.8,1.9,1.9,3.7,3.1,5.3c2.7,3.6,16.8-6.2,23.3,3.3c1.7,2.5,0.8,10,2.2,13.4
			c1.5,3.7,6.4-1,10.4-1.5c2.3-0.3,8.6-3.2,12.4-2c5.8,1.8,5.5,6.2,8.7,7.7c4.2,2.1,8.5-1.4,13.1-0.8c10.4,1.2,18,2.1,35.4,6.5
			c-5.3,1.6-13.5-0.4-19-0.1c-46,2.7-93.8,2.3-139.8,5.4"/>
	</g>
	<g>
		
			<linearGradient id="SVGID_2_" gradientUnits="userSpaceOnUse" x1="-338.7466" y1="161.5339" x2="-322.1547" y2="132.7958" gradientTransform="matrix(-1 0 0 1 -314.3056 0)">
			<stop  offset="0" style="stop-color:#009A86"/>
			<stop  offset="1" style="stop-color:#9DE3AF"/>
		</linearGradient>
		<path class="st3" d="M-16.7,147c6.9-0.7,13.9-1.4,20.8-2.1c2.1-0.2,4.1-0.4,6.1-1.1c1.3-0.5,2.6-1.1,4-1.2c2-0.1,4.3,0.8,5.8-0.5
			c0.7-0.7,1-1.7,1.6-2.5c0.7-0.9,1.8-1.4,2.9-1.3c0.6,0,1.2,0.2,1.7,0.6c0.2,0.2,0.3,0.4,0.5,0.5c0.2,0.2,0.5,0.3,0.7,0.2
			c0.8-0.3,0.6-1.6,0.8-2.2c0.2-0.6,0.5-1.2,0.9-1.7c0.9-1.1,2.2-2,3.6-2.5c2.8-0.9,5.9,0.2,8.1,2.2c5.6,5,7.7,12.2,7.7,12.2
			C27,146.2,4.7,147.5-16.7,147z"/>
	</g>
	<ellipse class="st4" cx="98.7" cy="154.4" rx="4.1" ry="1.6"/>
	<ellipse class="st4" cx="87.1" cy="150.7" rx="4.1" ry="1.6"/>
	<ellipse class="st4" cx="58.5" cy="150.4" rx="21.1" ry="3.8"/>
	<g>
		<path class="st0" d="M155.7,85.6c0,0-2.4-10-0.4-11c2.3-1.1,2.3,6.7,2.3,6.7s1.8-6.3,3.7-5.5c2.4,1.1-1.3,5.9-1.3,5.9
			s5-3.8,5.4-1.7c0.4,2.1-4.6,4-4.6,4s4-0.3,3.9,1.6C164.6,87.5,155.7,85.6,155.7,85.6z"/>
		<path class="st1" d="M155.7,85.6c0,0-4.3-8.3-2.1-9.2c2.3-1,2.5,5.7,2.5,5.7s0.2-7.7,2.2-7.4c2.9,0.4,0,7.5,0,7.5s2.9-5.9,4.9-4.8
			c3.6,2.1-3.6,5.9-3.6,5.9s4.7-2.7,5.7-1.3c2.4,3.5-6.2,3.1-6.2,3.1s5.6,0,5.1,2.2C163.7,89.4,155.7,85.6,155.7,85.6z"/>
		
			<linearGradient id="SVGID_3_" gradientUnits="userSpaceOnUse" x1="5959.9365" y1="83.6208" x2="5947.1831" y2="119.4454" gradientTransform="matrix(1 0 0 1 -5806.3394 0)">
			<stop  offset="0" style="stop-color:#009A86"/>
			<stop  offset="1" style="stop-color:#9DE3AF"/>
		</linearGradient>
		<path class="st5" d="M158.4,85c-0.2-0.4-2,0.1-2,0.1s1.1-1.5,0.9-1.8c-0.2-0.3-1.5,1.4-1.5,1.4s0.6-2.1,0.2-2.2
			c-0.4-0.1-0.7,1.8-0.7,1.8s-0.9-2-1.2-2.1c-0.1,0,0,0.6,0.3,1.3c0.4,1,0,2.1-0.9,2.7c-6.6,4.7-10.7,12.3-13.3,19.8
			c-2.9,8.3-4.6,17.5-3.9,26.3c0,0.3,0.4,0.3,0.4,0c-0.1-8.5,1.1-17.1,3.8-25.2c2.6-7.9,6.8-15.6,13.5-20.7c0.7-0.5,1.6-0.6,2.4-0.3
			c0.6,0.3,1.2,0.5,1.2,0.5c0.4-0.2-1.2-0.9-1.2-0.9S158.7,85.4,158.4,85z"/>
	</g>
	<g>
		<path class="st0" d="M61.2,41.2c0,0-7.7-10.6-5.8-12.7c2.1-2.4,5.9,6.7,5.9,6.7s-1-8.3,1.7-8.2c3.3,0.1,1.3,7.5,1.3,7.5
			s4-6.8,5.5-4.6c1.5,2.3-3.4,6.9-3.4,6.9s4.5-2.3,5.4,0C72.7,39.1,61.2,41.2,61.2,41.2z"/>
		<path class="st1" d="M61.2,41.2c0,0-9.1-7.6-6.9-9.8c2.2-2.2,5.7,5.4,5.7,5.4s-3.5-9.1-1-9.7c3.6-1,3.6,8.8,3.6,8.8s0.6-8.4,3.4-8
			c5.2,0.7-1.3,8.7-1.3,8.7s4.3-5.4,6-4.3c4.5,3-5.8,6.7-5.8,6.7s6.5-2.7,7.1,0.1C72.5,41.8,61.2,41.2,61.2,41.2z"/>
		
			<linearGradient id="SVGID_4_" gradientUnits="userSpaceOnUse" x1="5514.4692" y1="1026.058" x2="5498.2534" y2="1071.6096" gradientTransform="matrix(0.9247 -0.3807 0.3807 0.9247 -5432.0244 1190.6251)">
			<stop  offset="0" style="stop-color:#009A86"/>
			<stop  offset="1" style="stop-color:#9DE3AF"/>
		</linearGradient>
		<path class="st6" d="M64.1,39.2c-0.5-0.4-2.3,1.1-2.3,1.1s0.6-2.4,0.2-2.6c-0.4-0.2-1.1,2.3-1.1,2.3s-0.4-2.7-0.8-2.6
			c-0.5,0.1,0.1,2.5,0.1,2.5s-2-2-2.4-1.9c-0.2,0,0.3,0.7,1,1.4c0.9,1,1,2.5,0.3,3.6c-5.4,8.7-6.6,19.6-6.1,29.7
			c0.6,11.1,3.1,22.8,8.1,32.8c0.1,0.3,0.6,0.1,0.5-0.2c-4.2-10-7-20.7-7.7-31.5c-0.7-10.6,0.5-21.7,5.9-30.9c0.6-1,1.6-1.5,2.7-1.5
			c0.8,0,1.6,0,1.7,0c0.3-0.4-1.8-0.4-1.8-0.4S64.6,39.5,64.1,39.2z"/>
	</g>
	
		<linearGradient id="XMLID_2_" gradientUnits="userSpaceOnUse" x1="-625.365" y1="160.6063" x2="-700.0891" y2="111.4397" gradientTransform="matrix(-0.8991 0.4377 0.4377 0.8991 -567.7158 241.5104)">
		<stop  offset="0" style="stop-color:#0C4B56"/>
		<stop  offset="0.338" style="stop-color:#317C5B"/>
		<stop  offset="0.5963" style="stop-color:#499B5E"/>
		<stop  offset="0.8456" style="stop-color:#5BB360"/>
		<stop  offset="1" style="stop-color:#62BC61"/>
	</linearGradient>
	<path id="XMLID_582_" class="st7" d="M47.5,95c10.6,10.2,15.3,26.2,16.2,29.7c0.8-3.2,1.7-6.7,2.9-10.4c0,0,0,0,0-0.1
		C55.9,101.7,55,86.4,55,86.4c10.8,13.3,12,23.4,12,26.9c0.9-2.8,2-5.7,3.3-8.8c-7.2-12-8.1-32.1-8.1-32.1c8.9,15,8.7,27.7,8.4,31.3
		c1.3-3,2.7-6.1,4.4-9.4C64.1,78.2,64.5,57.7,64.5,57.7C73.6,73.2,75,90.4,75.2,94c0.9-1.7,1.8-3.5,2.9-5.3
		c-8-19.8-3.5-37.3-3.5-37.3c7.5,19.8,5.4,31.9,4.2,36c1.7-3,3.6-6.1,5.7-9.2c-5.4-18.3,5.3-36.8,5.3-36.8
		c2.6,12.9-2.7,30.5-4.5,35.7c2.7-4,5.8-8.1,9.1-12.2c0.2-3.4,2.7-21.9,37.8-31.9c0,0-16.3,15.9-36.4,31.4
		c-2.9,3.5-5.5,6.9-7.9,10.3c11.4-9.8,37-18.3,37-18.3c-12,15.5-34.1,19-37.8,19.5c-3,4.4-5.7,8.6-8,12.7c3-2,15.2-9.3,37.9-12.1
		c0,0-19.5,15.7-38.2,12.7c-1.9,3.4-3.5,6.6-5,9.8c2.9-1.3,17.2-7.1,36.3-7.5c0,0-19.3,11.8-36.5,7.8c-1.7,3.6-3.1,7-4.3,10.2
		c2.6-1.4,15-7.4,31-6.2c0,0-14.9,9.6-31.1,6.5c-0.6,1.7-1.2,3.3-1.7,4.9c-0.6,1.8-1.1,3.6-1.6,5.3c2.3-1.5,12.6-7.8,26.9-5.6
		c0,0-13.5,7.6-27,6c-1,3.7-1.8,7.2-2.4,10.3c9-6.1,24-5.8,24-5.8c-13.5,7.5-22.2,6.5-24,6.1c-2.2,11.8-1.8,19.4-1.8,19.5l-0.7-0.1
		c0-0.1-0.5-10.1,3.1-25.2C47.2,106,47.5,95,47.5,95z"/>
	<g class="st8">
		<linearGradient id="SVGID_5_" gradientUnits="userSpaceOnUse" x1="75.4049" y1="78.7983" x2="76.3061" y2="90.3334">
			<stop  offset="0" style="stop-color:#00D6B0"/>
			<stop  offset="1" style="stop-color:#00AFE9"/>
		</linearGradient>
		<path class="st9" d="M76.6,90.8c0,0-5-4.9-1.1-12.2C75.5,78.7,79.7,83,76.6,90.8z"/>
		
			<linearGradient id="SVGID_6_" gradientUnits="userSpaceOnUse" x1="-117.3647" y1="216.5737" x2="-116.4635" y2="228.1088" gradientTransform="matrix(0.1595 0.9872 -0.9872 0.1595 316.9312 176.661)">
			<stop  offset="0" style="stop-color:#00D6B0"/>
			<stop  offset="1" style="stop-color:#00AFE9"/>
		</linearGradient>
		<path class="st10" d="M72.7,98.4c0,0,4-5.7,11.8-3C84.5,95.4,80.9,100.3,72.7,98.4z"/>
		
			<linearGradient id="SVGID_7_" gradientUnits="userSpaceOnUse" x1="129.2782" y1="107.7889" x2="130.1794" y2="119.3243" gradientTransform="matrix(0.9758 -0.2186 0.2186 0.9758 -83.7449 18.5121)">
			<stop  offset="0" style="stop-color:#00D6B0"/>
			<stop  offset="1" style="stop-color:#00AFE9"/>
		</linearGradient>
		<path class="st11" d="M69.7,106.9c0,0-6-3.7-3.7-11.6C66,95.3,71.1,98.6,69.7,106.9z"/>
		<g class="st12">
			<g>
				<linearGradient id="SVGID_8_" gradientUnits="userSpaceOnUse" x1="61.1448" y1="105.2648" x2="91.6714" y2="105.2648">
					<stop  offset="0" style="stop-color:#00D6B0"/>
					<stop  offset="1" style="stop-color:#00AFE9"/>
				</linearGradient>
				<path class="st13" d="M89.6,73.5C81.1,79.3,75.2,88.8,71.2,98c-2.4,5.6-4.4,11.4-5.8,17.3c-1.6,6.7-2.9,13.9-2.7,20.8
					c0,1.1,1.7,1.4,2,0.3c1.6-6.5,2.4-13.2,4-19.7c1.4-5.7,3-11.3,5.3-16.7c3.9-9.6,9.6-17.7,16.5-25.3C91,74.1,90.3,73,89.6,73.5
					L89.6,73.5z"/>
			</g>
		</g>
		<linearGradient id="SVGID_9_" gradientUnits="userSpaceOnUse" x1="85.7532" y1="73.6438" x2="94.4958" y2="73.6438">
			<stop  offset="0" style="stop-color:#00AFE9"/>
			<stop  offset="1" style="stop-color:#9DE3AF"/>
		</linearGradient>
		<path class="st14" d="M94.5,69.4c0,0-4.4,0-7.3,2.3c-1.6,1.3-2,3.7-0.3,5.3c1.6,1.4,3.9,1.2,5.4-0.5
			C94.3,73.9,94.5,69.4,94.5,69.4z"/>
	</g>
	<g>
		
			<linearGradient id="SVGID_10_" gradientUnits="userSpaceOnUse" x1="-71.9285" y1="89.6651" x2="-71.2046" y2="98.9308" gradientTransform="matrix(-0.9553 0.2958 0.2958 0.9553 -75.7016 8.344)">
			<stop  offset="0" style="stop-color:#62BC61"/>
			<stop  offset="0.1544" style="stop-color:#5BB360"/>
			<stop  offset="0.4037" style="stop-color:#499B5E"/>
			<stop  offset="0.662" style="stop-color:#317C5B"/>
			<stop  offset="1" style="stop-color:#0C4B56"/>
		</linearGradient>
		<path class="st15" d="M21.5,82.2c0,0,2.7-5-2-9.6C19.4,72.6,17.2,77,21.5,82.2z"/>
		
			<linearGradient id="SVGID_11_" gradientUnits="userSpaceOnUse" x1="-132.4567" y1="364.1521" x2="-131.7328" y2="373.4181" gradientTransform="matrix(0.1397 0.9902 0.9902 -0.1397 -325.5239 269.5901)">
			<stop  offset="0" style="stop-color:#62BC61"/>
			<stop  offset="0.1544" style="stop-color:#5BB360"/>
			<stop  offset="0.4037" style="stop-color:#499B5E"/>
			<stop  offset="0.662" style="stop-color:#317C5B"/>
			<stop  offset="1" style="stop-color:#0C4B56"/>
		</linearGradient>
		<path class="st16" d="M26.3,87.1c0,0-4.5-3.4-9.8,0.5C16.5,87.6,20.4,90.5,26.3,87.1z"/>
		
			<linearGradient id="SVGID_12_" gradientUnits="userSpaceOnUse" x1="-14.1823" y1="83.8807" x2="-13.4584" y2="93.1468" gradientTransform="matrix(-0.9968 7.980000e-02 7.980000e-02 0.9968 9.8979 0.766)">
			<stop  offset="0" style="stop-color:#62BC61"/>
			<stop  offset="0.1544" style="stop-color:#5BB360"/>
			<stop  offset="0.4037" style="stop-color:#499B5E"/>
			<stop  offset="0.662" style="stop-color:#317C5B"/>
			<stop  offset="1" style="stop-color:#0C4B56"/>
		</linearGradient>
		<path class="st17" d="M30.6,93c0,0,3.7-4.3,0.1-9.8C30.7,83.2,27.5,86.9,30.6,93z"/>
		<g>
			<g>
				<linearGradient id="SVGID_13_" gradientUnits="userSpaceOnUse" x1="6.6577" y1="93.3573" x2="43.4729" y2="93.3573">
					<stop  offset="0" style="stop-color:#0C4B56"/>
					<stop  offset="0.338" style="stop-color:#317C5B"/>
					<stop  offset="0.5963" style="stop-color:#499B5E"/>
					<stop  offset="0.8456" style="stop-color:#5BB360"/>
					<stop  offset="1" style="stop-color:#62BC61"/>
				</linearGradient>
				<path class="st18" d="M7,73c7.2,3.9,13.4,8.9,18.7,15.2c6.7,7.9,11,17.1,15.9,26.1c0.3,0.6,1.3,0.2,1.1-0.4
					c-3.1-9.8-8.9-19.2-15.6-27c-5.3-6.2-11.9-11.9-19.7-14.6C6.9,72.1,6.6,72.7,7,73L7,73z"/>
			</g>
		</g>
		<linearGradient id="SVGID_14_" gradientUnits="userSpaceOnUse" x1="10.3243" y1="73.9972" x2="1.6509" y2="69.4579">
			<stop  offset="0" style="stop-color:#0C4B56"/>
			<stop  offset="0.338" style="stop-color:#317C5B"/>
			<stop  offset="0.5963" style="stop-color:#499B5E"/>
			<stop  offset="0.8456" style="stop-color:#5BB360"/>
			<stop  offset="1" style="stop-color:#62BC61"/>
		</linearGradient>
		<path class="st19" d="M2.7,70c0,0,3.4-1,6.2,0c1.5,0.6,2.9,2.4,1.8,4.2c-0.8,1.4-3.1,1.6-4.6,0.6C3.9,73.5,2.7,70,2.7,70z"/>
	</g>
	<g>
		
			<linearGradient id="SVGID_15_" gradientUnits="userSpaceOnUse" x1="-71.9285" y1="89.6651" x2="-71.2046" y2="98.9308" gradientTransform="matrix(-0.9553 0.2958 0.2958 0.9553 -75.7016 8.344)">
			<stop  offset="0" style="stop-color:#62BC61"/>
			<stop  offset="0.1544" style="stop-color:#5BB360"/>
			<stop  offset="0.4037" style="stop-color:#499B5E"/>
			<stop  offset="0.662" style="stop-color:#317C5B"/>
			<stop  offset="1" style="stop-color:#0C4B56"/>
		</linearGradient>
		<path class="st20" d="M21.5,82.2c0,0,2.7-5-2-9.6C19.4,72.6,17.2,77,21.5,82.2z"/>
		
			<linearGradient id="SVGID_16_" gradientUnits="userSpaceOnUse" x1="-132.4567" y1="364.1521" x2="-131.7328" y2="373.4181" gradientTransform="matrix(0.1397 0.9902 0.9902 -0.1397 -325.5239 269.5901)">
			<stop  offset="0" style="stop-color:#62BC61"/>
			<stop  offset="0.1544" style="stop-color:#5BB360"/>
			<stop  offset="0.4037" style="stop-color:#499B5E"/>
			<stop  offset="0.662" style="stop-color:#317C5B"/>
			<stop  offset="1" style="stop-color:#0C4B56"/>
		</linearGradient>
		<path class="st21" d="M26.3,87.1c0,0-4.5-3.4-9.8,0.5C16.5,87.6,20.4,90.5,26.3,87.1z"/>
		
			<linearGradient id="SVGID_17_" gradientUnits="userSpaceOnUse" x1="-14.1823" y1="83.8807" x2="-13.4584" y2="93.1468" gradientTransform="matrix(-0.9968 7.980000e-02 7.980000e-02 0.9968 9.8979 0.766)">
			<stop  offset="0" style="stop-color:#62BC61"/>
			<stop  offset="0.1544" style="stop-color:#5BB360"/>
			<stop  offset="0.4037" style="stop-color:#499B5E"/>
			<stop  offset="0.662" style="stop-color:#317C5B"/>
			<stop  offset="1" style="stop-color:#0C4B56"/>
		</linearGradient>
		<path class="st22" d="M30.6,93c0,0,3.7-4.3,0.1-9.8C30.7,83.2,27.5,86.9,30.6,93z"/>
		<g>
			<g>
				<linearGradient id="SVGID_18_" gradientUnits="userSpaceOnUse" x1="6.6577" y1="93.3573" x2="43.4729" y2="93.3573">
					<stop  offset="0" style="stop-color:#0C4B56"/>
					<stop  offset="0.338" style="stop-color:#317C5B"/>
					<stop  offset="0.5963" style="stop-color:#499B5E"/>
					<stop  offset="0.8456" style="stop-color:#5BB360"/>
					<stop  offset="1" style="stop-color:#62BC61"/>
				</linearGradient>
				<path class="st23" d="M7,73c7.2,3.9,13.4,8.9,18.7,15.2c6.7,7.9,11,17.1,15.9,26.1c0.3,0.6,1.3,0.2,1.1-0.4
					c-3.1-9.8-8.9-19.2-15.6-27c-5.3-6.2-11.9-11.9-19.7-14.6C6.9,72.1,6.6,72.7,7,73L7,73z"/>
			</g>
		</g>
		<linearGradient id="SVGID_19_" gradientUnits="userSpaceOnUse" x1="10.3243" y1="73.9972" x2="1.6509" y2="69.4579">
			<stop  offset="0" style="stop-color:#0C4B56"/>
			<stop  offset="0.338" style="stop-color:#317C5B"/>
			<stop  offset="0.5963" style="stop-color:#499B5E"/>
			<stop  offset="0.8456" style="stop-color:#5BB360"/>
			<stop  offset="1" style="stop-color:#62BC61"/>
		</linearGradient>
		<path class="st24" d="M2.7,70c0,0,3.4-1,6.2,0c1.5,0.6,2.9,2.4,1.8,4.2c-0.8,1.4-3.1,1.6-4.6,0.6C3.9,73.5,2.7,70,2.7,70z"/>
	</g>
	<g>
		<linearGradient id="SVGID_20_" gradientUnits="userSpaceOnUse" x1="68.0986" y1="145.4114" x2="101.2265" y2="94.0902">
			<stop  offset="0" style="stop-color:#2CB081"/>
			<stop  offset="1" style="stop-color:#D2FFAD"/>
		</linearGradient>
		<path class="st25" d="M62.8,151.7l9.1-2.5c0,0,2.6-14.2,29.4-31.5c15.5-10,13.3-20.6,4.4-23.9c0,0,0,0,0,0
			c-6.5-2.4-16.7-1-26.1,7.5C58.1,120.3,62.8,151.7,62.8,151.7z"/>
		<g class="st26">
			<g>
				<path class="st1" d="M104.3,98.8c-12,3.3-22.4,12.3-29.2,22.5c-5.4,8-9.9,18.6-8.7,28.5c0.1,1,1.8,1.5,2,0.3
					c1.5-9.5,4.1-18.4,9.3-26.6c3-4.7,6.7-8.9,10.9-12.7c4.9-4.4,10.5-7.6,16.2-10.8C105.5,99.7,105.1,98.6,104.3,98.8L104.3,98.8z"
					/>
			</g>
		</g>
	</g>
	<g>
		<linearGradient id="SVGID_21_" gradientUnits="userSpaceOnUse" x1="53.4778" y1="144.8338" x2="38.5431" y2="66.9017">
			<stop  offset="0" style="stop-color:#2CB081"/>
			<stop  offset="1" style="stop-color:#D2FFAD"/>
		</linearGradient>
		<path class="st27" d="M55.8,147.1c0,0,0.4-31-32.9-76.7C7.8,49.6,31.3,39.1,51.6,67c20.3,27.9,12.5,80.1,12.5,80.1L55.8,147.1z"/>
		<g class="st26">
			<g>
				<path class="st1" d="M25.2,57.3C30.8,63,35.9,69,40,75.8c7.2,11.7,11.7,24.7,14.7,38.1c2.5,11.2,3.7,22.5,5.3,33.9
					c0.1,1,1.8,0.8,1.8-0.2c0.2-10.3-1.1-20.9-3.1-31c-1.6-8.1-3.9-16-6.9-23.7c-4.1-10.4-9.5-20.2-16.6-28.7
					c-2.6-3.1-5.3-5.9-8.2-8.7C25.9,54.2,24,56.1,25.2,57.3L25.2,57.3z"/>
			</g>
		</g>
	</g>
	<g>
		<path class="st0" d="M32,14.7c0,0,7.7-10.6,5.8-12.7c-2.1-2.4-5.9,6.7-5.9,6.7s1-8.3-1.7-8.2C26.8,0.6,28.8,8,28.8,8
			s-4-6.8-5.5-4.6s3.4,6.9,3.4,6.9s-4.5-2.3-5.4,0C20.5,12.6,32,14.7,32,14.7z"/>
		<path class="st1" d="M32,14.7c0,0,9.1-7.6,6.9-9.8s-5.7,5.4-5.7,5.4s3.5-9.1,1-9.7c-3.6-1-3.6,8.8-3.6,8.8s-0.6-8.4-3.4-8
			C22,2,28.5,10,28.5,10s-4.3-5.4-6-4.3c-4.5,3,5.8,6.7,5.8,6.7s-6.5-2.7-7.1,0.1S32,14.7,32,14.7z"/>
		
			<linearGradient id="SVGID_22_" gradientUnits="userSpaceOnUse" x1="479.6826" y1="-1074.9207" x2="458.8016" y2="-1016.264" gradientTransform="matrix(-0.9247 -0.3807 -0.3807 0.9247 69.7975 1190.6251)">
			<stop  offset="0" style="stop-color:#009A86"/>
			<stop  offset="1" style="stop-color:#9DE3AF"/>
		</linearGradient>
		<path class="st28" d="M29,12.6c0.5-0.4,2.3,1.1,2.3,1.1s-0.6-2.4-0.2-2.6c0.4-0.2,1.1,2.3,1.1,2.3s0.4-2.7,0.8-2.6
			c0.5,0.1-0.1,2.5-0.1,2.5s2-2,2.4-1.9c0.2,0-0.3,0.7-1,1.4c-0.9,1-1,2.5-0.3,3.6c5.4,8.7,6.6,19.6,6.1,29.7
			c-0.6,11.1-0.2,42.5-5.3,52.5c-0.1,0.3-0.6,0.1-0.5-0.2c4.2-10,4.1-40.4,4.9-51.3c0.7-10.6-0.5-21.7-5.9-30.9
			c-0.6-1-1.6-1.5-2.7-1.5c-0.8,0-1.6,0-1.7,0c-0.3-0.4,1.8-0.4,1.8-0.4S28.6,13,29,12.6z"/>
	</g>
	<g>
		<linearGradient id="SVGID_23_" gradientUnits="userSpaceOnUse" x1="53.3009" y1="149.0673" x2="-6.981" y2="92.0438">
			<stop  offset="0" style="stop-color:#6BE5CC"/>
			<stop  offset="1" style="stop-color:#D2FFAD"/>
		</linearGradient>
		<path class="st29" d="M59.9,150.4H47c0,0-8.6-17.7-50.1-30.6c-24-7.4-25-22.2-14.5-29.8c0,0,0,0,0,0c7.7-5.6,21.5-7.4,37,0.2
			C54.6,107.6,59.9,150.4,59.9,150.4z"/>
		<g class="st26">
			<g>
				<path class="st1" d="M-14,97.9c6.7,1.5,13.2,2.9,19.7,5.4c5.8,2.2,11.4,5.2,16.5,8.7c9.3,6.3,16.8,14.4,22.9,23.7
					c2.9,4.5,5.2,9.3,7.2,14.3c0.5,1.2,2.2,0.8,2-0.5c-1.9-10-7.9-19.3-14.6-26.8c-8.3-9.2-18.7-16.4-30.1-21
					c-7.3-2.9-15.4-5-23.3-5.2C-14.6,96.5-14.8,97.7-14,97.9L-14,97.9z"/>
			</g>
		</g>
	</g>
	<g>
		
			<linearGradient id="SVGID_24_" gradientUnits="userSpaceOnUse" x1="-292.8442" y1="117.3746" x2="-259.6357" y2="65.9285" gradientTransform="matrix(-0.9856 -0.169 -0.169 0.9856 -209.4706 -19.943)">
			<stop  offset="0" style="stop-color:#6BE5CC"/>
			<stop  offset="1" style="stop-color:#D2FFAD"/>
		</linearGradient>
		<path class="st30" d="M63.7,152.2h-8c0,0-0.7-17.9-24.5-39.8c-13.8-12.6-9.8-22.8-0.3-24.6c0,0,0,0,0,0
			c6.9-1.3,16.8,1.9,24.8,11.9C73.8,122.5,63.7,152.2,63.7,152.2z"/>
		<g class="st26">
			<g>
				<path class="st1" d="M30.6,94.3c5,4.1,9.8,8.1,13.9,13.1c3.7,4.6,6.9,9.8,9.1,15.3c3.8,9.2,4.9,18.8,4.7,28.7
					c0,1.2,1.7,1.4,2,0.3c2.9-9.8,0.3-21.2-3.6-30.3c-4.9-11.6-13.7-22.8-25.3-28.3C30.8,92.9,29.9,93.8,30.6,94.3L30.6,94.3z"/>
			</g>
		</g>
	</g>
	<g>
		
			<linearGradient id="SVGID_25_" gradientUnits="userSpaceOnUse" x1="545.2629" y1="52.2065" x2="546.1353" y2="63.3734" gradientTransform="matrix(0.9978 -6.650000e-02 6.650000e-02 0.9978 -452.8865 77.897)">
			<stop  offset="0" style="stop-color:#62BC61"/>
			<stop  offset="0.1544" style="stop-color:#5BB360"/>
			<stop  offset="0.4037" style="stop-color:#499B5E"/>
			<stop  offset="0.662" style="stop-color:#317C5B"/>
			<stop  offset="1" style="stop-color:#0C4B56"/>
		</linearGradient>
		<path class="st31" d="M96.6,105.3c0,0-5.2-4.4-1.8-11.7C94.7,93.6,99.1,97.5,96.6,105.3z"/>
		
			<linearGradient id="SVGID_26_" gradientUnits="userSpaceOnUse" x1="-68.3911" y1="-251.2334" x2="-67.5186" y2="-240.0664" gradientTransform="matrix(0.2248 0.9744 -0.9744 0.2248 -125.0149 232.2467)">
			<stop  offset="0" style="stop-color:#62BC61"/>
			<stop  offset="0.1544" style="stop-color:#5BB360"/>
			<stop  offset="0.4037" style="stop-color:#499B5E"/>
			<stop  offset="0.662" style="stop-color:#317C5B"/>
			<stop  offset="1" style="stop-color:#0C4B56"/>
		</linearGradient>
		<path class="st32" d="M93.3,112.9c0,0,3.5-5.8,11.2-3.7C104.5,109.2,101.4,114.1,93.3,112.9z"/>
		
			<linearGradient id="SVGID_27_" gradientUnits="userSpaceOnUse" x1="594.0983" y1="184.1358" x2="594.9708" y2="195.303" gradientTransform="matrix(0.9591 -0.283 0.283 0.9591 -535.306 101.9294)">
			<stop  offset="0" style="stop-color:#62BC61"/>
			<stop  offset="0.1544" style="stop-color:#5BB360"/>
			<stop  offset="0.4037" style="stop-color:#499B5E"/>
			<stop  offset="0.662" style="stop-color:#317C5B"/>
			<stop  offset="1" style="stop-color:#0C4B56"/>
		</linearGradient>
		<path class="st33" d="M91,121.3c0,0-6-3.2-4.4-11C86.6,110.3,91.8,113.1,91,121.3z"/>
		<g>
			<g>
				<linearGradient id="SVGID_28_" gradientUnits="userSpaceOnUse" x1="85.2912" y1="119.1715" x2="109.6697" y2="119.1715">
					<stop  offset="0" style="stop-color:#0C4B56"/>
					<stop  offset="0.338" style="stop-color:#317C5B"/>
					<stop  offset="0.5963" style="stop-color:#499B5E"/>
					<stop  offset="0.8456" style="stop-color:#5BB360"/>
					<stop  offset="1" style="stop-color:#62BC61"/>
				</linearGradient>
				<path class="st34" d="M108.1,87.9c-7.5,6.3-12.5,15.6-15.8,24.7c-4.2,11.6-6.7,24.8-5.9,37.2c0.1,0.9,1.3,0.9,1.4,0
					c1.6-12.2,2.5-24.2,6.5-35.9c3.2-9.4,8.1-17.8,14.5-25.3C109.2,88.1,108.6,87.5,108.1,87.9L108.1,87.9z"/>
			</g>
		</g>
		
			<linearGradient id="SVGID_29_" gradientUnits="userSpaceOnUse" x1="-592.0487" y1="220.5231" x2="-602.5012" y2="215.0527" gradientTransform="matrix(-0.9335 0.3587 0.3587 0.9335 -526.2194 97.6885)">
			<stop  offset="0" style="stop-color:#0C4B56"/>
			<stop  offset="0.338" style="stop-color:#317C5B"/>
			<stop  offset="0.5963" style="stop-color:#499B5E"/>
			<stop  offset="0.8456" style="stop-color:#5BB360"/>
			<stop  offset="1" style="stop-color:#62BC61"/>
		</linearGradient>
		<path class="st35" d="M112.5,83.4c0,0-4.2,0.3-6.9,2.7c-1.5,1.3-2.2,4-0.3,5.5c1.5,1.2,4.2,0.5,5.4-1.3
			C112.6,87.8,112.5,83.4,112.5,83.4z"/>
	</g>
	
		<linearGradient id="XMLID_3_" gradientUnits="userSpaceOnUse" x1="-686.5526" y1="114.9928" x2="-722.9692" y2="65.077" gradientTransform="matrix(-0.9935 0.1143 0.1143 0.9935 -603.7734 115.0325)">
		<stop  offset="0" style="stop-color:#0C4B56"/>
		<stop  offset="0.338" style="stop-color:#317C5B"/>
		<stop  offset="0.5963" style="stop-color:#499B5E"/>
		<stop  offset="0.8456" style="stop-color:#5BB360"/>
		<stop  offset="1" style="stop-color:#62BC61"/>
	</linearGradient>
	<path id="XMLID_581_" class="st36" d="M91.8,127.1c0,0,5.5,0.3,7.9,3.8c1.2,1.7,1.4,3.9,1.3,5.6c0.9-2.7,1.8-5.3,2.9-7.8
		c-1.2-0.1-5.5-0.8-7.6-3.8c-2.4-3.5-0.8-8.7-0.8-8.7s5.5,0.3,7.9,3.8c1.6,2.3,1.4,5.5,1.1,7.3c1.4-3,2.9-5.8,4.4-8.4
		c-1.2-0.3-5.3-1.7-6.9-4.9c-1.8-3.8,0.6-8.7,0.6-8.7s5.4,1.2,7.2,5c1.2,2.4,0.6,5.3,0,7.1c1.5-2.5,3.1-4.8,4.6-6.9
		c-1-0.6-4.7-3-5.4-6.6c-0.8-4.1,2.8-8.3,2.8-8.3s4.9,2.6,5.6,6.7c0.3,1.9-0.2,3.8-0.9,5.3c1.7-2.2,3.3-4.1,4.7-5.6
		c-0.1-1.4-0.1-5.5,2.3-8c2.9-3,8.4-2.4,8.4-2.4s0.7,5.4-2.2,8.5c-2.4,2.4-6.4,2.5-7.9,2.5c-1.2,1.4-2.6,3-4,4.8
		c1.1-0.8,2.4-1.5,3.9-1.7c4.2-0.4,8,3.5,8,3.5s-3,4.6-7.1,5.1c-3.4,0.4-6.6-2.2-7.6-3.2c-1.5,2.1-3.1,4.4-4.6,6.8
		c1.5-1.2,4-2.7,6.6-2.5c4.2,0.3,7.2,4.9,7.2,4.9s-3.7,4-7.9,3.7c-3.4-0.3-6-3.3-6.9-4.5c-1.5,2.5-2.9,5.1-4.2,7.9
		c1.3-1.4,3.4-3.2,6-3.4c4.2-0.3,7.9,3.7,7.9,3.7s-3.1,4.6-7.3,4.9c-3.4,0.3-6.5-2.3-7.6-3.3c-1.1,2.6-2.2,5.4-3,8.2
		c0.9-1.5,2.5-3.3,4.6-4.1c4-1.4,8.6,1.6,8.6,1.6s-1.8,5.2-5.8,6.5c-3.2,1.1-6.9-0.6-8.1-1.3c-1.2,4.5-2,9.3-2.1,14.3l-0.8,0
		c0.2-5.1,1-10.1,2.2-14.8c-1.3-0.2-5.5-0.9-7.5-3.8C90.2,132.4,91.8,127.1,91.8,127.1z"/>
	<path class="st4" d="M117.2,148.3c0,0-10.1,5.3-4.5,7.2c5.6,1.9,31.4,1.6,36.6-1.2c5.2-2.8,4,1.2,7.1,1.2c3.1,0,9.1-4.5,12.7-4.2
		c3.6,0.3,7.9,1.4,13.9,0.6c5.9-0.8,68.2-8.7,68.2-8.7l-37.2,1.6l-51.5,1.1L117.2,148.3z"/>
	<g>
		<linearGradient id="SVGID_30_" gradientUnits="userSpaceOnUse" x1="165.8288" y1="176.4106" x2="201.5381" y2="114.5604">
			<stop  offset="0" style="stop-color:#009A86"/>
			<stop  offset="1" style="stop-color:#9DE3AF"/>
		</linearGradient>
		<path class="st37" d="M251.2,143.3c-15.5-2.2-26.7,0-40.3-1.3c-4-0.4-16.5,3.5-20.4,2.1c-2.6-0.9-5.1-2.2-7.8-2.4
			c-3.9-0.3-8.5,1.7-11.4-1c-1.4-1.3-1.9-3.3-3.1-4.9c-1.3-1.8-3.5-2.7-5.7-2.6c-1.2,0-2.4,0.4-3.3,1.3c-0.4,0.3-0.7,0.7-1.1,1.1
			c-0.4,0.3-0.9,0.5-1.4,0.3c-1.5-0.5-1.1-3.2-1.6-4.3c-0.4-1.2-1.1-2.3-1.9-3.2c-1.8-2.2-4.2-4-7-4.9c-5.5-1.8-11.5,0.4-15.8,4.3
			c-11.1,9.9-13.3,20.7-13.3,20.7c27.1-1.8,59.5-2.3,89-3.2C222.4,144.7,236.3,143.6,251.2,143.3z"/>
	</g>
</g>
</svg>
