<?xml version="1.0" encoding="utf-8"?>
<!-- Generator: Adobe Illustrator 22.0.1, SVG Export Plug-In . SVG Version: 6.00 Build 0)  -->
<svg version="1.1" id="圖層_1" xmlns="http://www.w3.org/2000/svg" xmlns:xlink="http://www.w3.org/1999/xlink" x="0px" y="0px"
	 viewBox="0 0 140 50" style="enable-background:new 0 0 140 50;" xml:space="preserve">
<style type="text/css">
	.st0{fill:#F75D5F;}
	.st1{fill:#F0ECE7;}
	.st2{fill:#CDCFC2;}
	.st3{opacity:0.5;fill:#CDCFC2;}
	.st4{opacity:0.23;fill:#AFAFAE;}
	.st5{fill:#161513;}
	.st6{fill:#221F22;}
	.st7{fill:#3E4449;}
	.st8{fill:#F9F9F7;}
	.st9{fill:#4A4646;}
	.st10{fill:url(#SVGID_1_);}
	.st11{fill:#2D2E2B;}
	.st12{fill:url(#SVGID_2_);}
	.st13{fill:url(#SVGID_3_);}
	.st14{fill:url(#SVGID_4_);}
</style>
<g>
	<g>
		<path class="st0" d="M50.7,11c0,0.9-0.7,1.5-1.5,1.5c-0.9,0-1.5-0.7-1.5-1.5c0-0.9,0.7-1.5,1.5-1.5C50,9.4,50.7,10.1,50.7,11z"/>
		<circle class="st0" cx="90.7" cy="11" r="1.5"/>
	</g>
	<path class="st1" d="M111.8,27.2h0.5c0.5,0,0.9,0.8,0.9,0.2v-6.4c0-0.5-0.4-0.9-0.9-0.9h-0.5c-0.5,0-0.9,0.4-0.9,0.9v6.4
		C110.8,28,111.2,27.2,111.8,27.2z"/>
	<g>
		<path class="st2" d="M126.6,20.6C126.6,20.6,126.6,20.6,126.6,20.6C126.6,20.6,126.6,20.6,126.6,20.6z"/>
		<path class="st2" d="M126.4,20.8c0,0-0.1,0-0.1,0.1C126.3,20.8,126.3,20.8,126.4,20.8z"/>
		<path class="st2" d="M126.5,20c0,0,0.1,0.1,0.1,0.1C126.6,20.1,126.5,20,126.5,20z"/>
		<path class="st2" d="M126.1,19.7c0.1,0.1,0.2,0.1,0.3,0.2C126.3,19.8,126.2,19.8,126.1,19.7z"/>
		<path class="st2" d="M125.6,19.5c0.2,0.1,0.3,0.1,0.4,0.2C125.9,19.6,125.7,19.6,125.6,19.5z"/>
		<path class="st2" d="M126,21C126,21,125.9,21,126,21C125.9,21,126,21,126,21z"/>
		<path class="st2" d="M125.5,21.2c0,0-0.1,0-0.1,0C125.4,21.2,125.4,21.2,125.5,21.2z"/>
		<path class="st3" d="M108.3,22.5c-0.2,0-0.4,0-0.6,0C107.9,22.5,108,22.5,108.3,22.5z"/>
		<path class="st3" d="M105.4,22.4c-0.3,0-0.6,0-1-0.1C104.7,22.3,105,22.4,105.4,22.4z"/>
		<path class="st3" d="M119.9,22.2C119.9,22.2,119.8,22.2,119.9,22.2C119.8,22.2,119.9,22.2,119.9,22.2z"/>
		<path class="st3" d="M104,22.3c-0.4,0-0.8-0.1-1.2-0.1C103.2,22.2,103.6,22.3,104,22.3z"/>
		<path class="st3" d="M118.6,22.3c-0.1,0-0.3,0-0.4,0C118.4,22.3,118.5,22.3,118.6,22.3z"/>
		<path class="st3" d="M106.8,22.5c-0.3,0-0.6,0-0.9,0C106.2,22.4,106.5,22.4,106.8,22.5z"/>
		<path class="st3" d="M117.3,22.4c-0.2,0-0.4,0-0.6,0C116.9,22.4,117.1,22.4,117.3,22.4z"/>
		<path class="st3" d="M114.4,22.5c-0.3,0-0.7,0-1,0C113.8,22.5,114.1,22.5,114.4,22.5z"/>
		<path class="st3" d="M112.9,22.5c-0.5,0-1,0-1.6,0C111.9,22.6,112.4,22.5,112.9,22.5z"/>
		<path class="st3" d="M115.9,22.5c-0.3,0-0.6,0-0.9,0C115.3,22.5,115.6,22.5,115.9,22.5z"/>
		<path class="st3" d="M109.8,22.5c-0.2,0-0.3,0-0.5,0C109.4,22.5,109.6,22.5,109.8,22.5z"/>
		<path class="st3" d="M118.3,22.3c-0.3,0-0.6,0-1,0.1C117.6,22.4,118,22.3,118.3,22.3z"/>
		<path class="st3" d="M109.3,22.5c-0.3,0-0.7,0-1,0C108.6,22.5,108.9,22.5,109.3,22.5z"/>
		<path class="st3" d="M116.8,22.4c-0.3,0-0.6,0-0.9,0C116.2,22.4,116.5,22.4,116.8,22.4z"/>
		<path class="st3" d="M111.3,22.6c-0.5,0-1.1,0-1.6,0C110.3,22.5,110.8,22.6,111.3,22.6z"/>
		<path class="st3" d="M113.4,22.5c-0.2,0-0.3,0-0.5,0C113.1,22.5,113.3,22.5,113.4,22.5z"/>
		<path class="st3" d="M115,22.5c-0.2,0-0.4,0-0.6,0C114.6,22.5,114.8,22.5,115,22.5z"/>
		<path class="st3" d="M107.7,22.5c-0.3,0-0.6,0-0.9,0C107.1,22.5,107.4,22.5,107.7,22.5z"/>
		<path class="st3" d="M119.8,22.2c-0.4,0-0.8,0.1-1.2,0.1C119.1,22.3,119.4,22.2,119.8,22.2z"/>
		<path class="st3" d="M105.9,22.4c-0.2,0-0.4,0-0.6,0C105.6,22.4,105.7,22.4,105.9,22.4z"/>
		<path class="st3" d="M126.3,20.8c-0.1,0.1-0.2,0.1-0.3,0.2C126.1,20.9,126.2,20.9,126.3,20.8z"/>
		<path class="st3" d="M126.7,20.3c0,0.1,0,0.2-0.1,0.2C126.7,20.5,126.7,20.4,126.7,20.3z"/>
		<path class="st3" d="M126.6,20.1c0.1,0.1,0.1,0.1,0.1,0.2C126.7,20.3,126.7,20.2,126.6,20.1z"/>
		<path class="st3" d="M125.9,21c-0.1,0.1-0.3,0.1-0.4,0.2C125.6,21.1,125.8,21.1,125.9,21z"/>
		<path class="st3" d="M126.5,20.6c0,0-0.1,0.1-0.2,0.1C126.4,20.7,126.5,20.7,126.5,20.6z"/>
		<path class="st3" d="M102.8,22.2C102.8,22.2,102.8,22.2,102.8,22.2C102.8,22.2,102.8,22.2,102.8,22.2z"/>
		<path class="st3" d="M104.4,22.3c-0.1,0-0.3,0-0.4,0C104.2,22.3,104.3,22.3,104.4,22.3z"/>
		<path class="st3" d="M126.4,19.9c0,0,0.1,0.1,0.1,0.1C126.5,20,126.4,19.9,126.4,19.9z"/>
		<path class="st3" d="M126,19.7C126.1,19.7,126.1,19.7,126,19.7C126.1,19.7,126.1,19.7,126,19.7z"/>
		<path class="st3" d="M125.5,19.5C125.5,19.5,125.6,19.5,125.5,19.5C125.6,19.5,125.5,19.5,125.5,19.5z"/>
		<g>
			<path class="st2" d="M113.3,18.1c0.4,0,0.8,0,1.2,0C114.1,18.2,113.7,18.1,113.3,18.1z"/>
			<path class="st2" d="M111.3,18.1c0.5,0,1.1,0,1.6,0C112.4,18.1,111.9,18.1,111.3,18.1z"/>
			<path class="st2" d="M124.9,19.3c0.2,0.1,0.4,0.1,0.6,0.2C125.3,19.4,125.1,19.4,124.9,19.3z"/>
			<path class="st2" d="M114.8,18.2c0.4,0,0.8,0,1.2,0C115.6,18.2,115.2,18.2,114.8,18.2z"/>
			<path class="st2" d="M116.1,18.2c0.4,0,0.8,0,1.3,0.1C117,18.3,116.6,18.2,116.1,18.2z"/>
			<path class="st2" d="M105.2,18.3C105.2,18.3,105.3,18.3,105.2,18.3C105.3,18.3,105.2,18.3,105.2,18.3z"/>
			<path class="st2" d="M109.4,18.1c0.1,0,0.2,0,0.3,0C109.6,18.1,109.5,18.1,109.4,18.1z"/>
			<path class="st2" d="M107.9,18.2c0.1,0,0.2,0,0.3,0C108.1,18.2,108,18.2,107.9,18.2z"/>
			<path class="st2" d="M106.5,18.2c0.1,0,0.1,0,0.2,0C106.7,18.2,106.6,18.2,106.5,18.2z"/>
			<path class="st2" d="M124.9,19.3c-1.6-0.4-4.2-0.8-7.4-1c1.8,0.1,3.5,0.3,4.8,0.5C123.3,18.9,124.2,19.1,124.9,19.3z"/>
			<path class="st2" d="M124.8,21.4C124.8,21.4,124.8,21.4,124.8,21.4C124.8,21.4,124.8,21.4,124.8,21.4z"/>
			<path class="st3" d="M96.2,20c0,0,0.1-0.1,0.1-0.1C96.3,19.9,96.2,20,96.2,20z"/>
			<path class="st3" d="M97.2,21.2c-0.2-0.1-0.3-0.1-0.4-0.2C96.9,21.1,97,21.1,97.2,21.2z"/>
			<path class="st3" d="M97.8,19.3C97.8,19.3,97.8,19.3,97.8,19.3C97.8,19.3,97.8,19.3,97.8,19.3z"/>
			<path class="st3" d="M96.6,19.7C96.6,19.7,96.6,19.7,96.6,19.7C96.6,19.7,96.6,19.7,96.6,19.7z"/>
			<path class="st3" d="M96.3,20.8c-0.1-0.1-0.1-0.1-0.2-0.2C96.2,20.7,96.2,20.7,96.3,20.8z"/>
			<path class="st3" d="M96,20.3c0-0.1,0-0.2,0.1-0.2C96,20.2,96,20.3,96,20.3z"/>
			<path class="st3" d="M96.7,21c-0.1-0.1-0.2-0.1-0.3-0.2C96.5,20.9,96.6,20.9,96.7,21z"/>
			<path class="st3" d="M96.1,20.6C96,20.5,96,20.4,96,20.3C96,20.4,96,20.5,96.1,20.6z"/>
			<path class="st3" d="M97.1,19.5C97.1,19.5,97.1,19.5,97.1,19.5C97.1,19.5,97.1,19.5,97.1,19.5z"/>
			<path class="st3" d="M97.9,21.4c1.2,0.3,2.9,0.6,4.9,0.8c-0.8-0.1-1.6-0.2-2.3-0.3C99.5,21.8,98.6,21.6,97.9,21.4z"/>
			<path class="st3" d="M97.9,21.4c-0.2-0.1-0.4-0.1-0.6-0.2C97.5,21.3,97.6,21.3,97.9,21.4z"/>
			<path class="st2" d="M96.3,19.9c0.1-0.1,0.2-0.1,0.3-0.2C96.5,19.8,96.4,19.8,96.3,19.9z"/>
			<path class="st2" d="M96.4,20.8C96.4,20.8,96.3,20.8,96.4,20.8C96.3,20.8,96.4,20.8,96.4,20.8z"/>
			<path class="st2" d="M96.1,20.1c0,0,0.1-0.1,0.1-0.1C96.2,20,96.1,20.1,96.1,20.1z"/>
			<path class="st2" d="M97.3,21.2C97.3,21.2,97.2,21.2,97.3,21.2C97.2,21.2,97.3,21.2,97.3,21.2z"/>
			<path class="st2" d="M97.9,21.4C97.9,21.4,97.9,21.4,97.9,21.4C97.9,21.4,97.9,21.4,97.9,21.4z"/>
			<path class="st2" d="M96.8,21C96.8,21,96.7,21,96.8,21C96.7,21,96.8,21,96.8,21z"/>
			<path class="st2" d="M96.1,20.6C96.1,20.6,96.1,20.6,96.1,20.6C96.1,20.6,96.1,20.6,96.1,20.6z"/>
			<path class="st2" d="M96.7,19.7c0.1-0.1,0.3-0.1,0.4-0.2C97,19.6,96.8,19.6,96.7,19.7z"/>
			<path class="st2" d="M112.9,18.1c0.1,0,0.2,0,0.3,0C113.2,18.1,113,18.1,112.9,18.1z"/>
			<path class="st2" d="M116,18.2c0.1,0,0.1,0,0.2,0C116.1,18.2,116,18.2,116,18.2z"/>
			<path class="st2" d="M105.2,18.3c-3.2,0.2-5.8,0.6-7.4,1c0.7-0.2,1.6-0.4,2.6-0.5C101.7,18.6,103.4,18.4,105.2,18.3z"/>
			<path class="st2" d="M117.4,18.3C117.4,18.3,117.5,18.3,117.4,18.3C117.5,18.3,117.4,18.3,117.4,18.3z"/>
			<path class="st2" d="M109.8,18.1c0.5,0,1,0,1.6,0C110.8,18.1,110.3,18.1,109.8,18.1z"/>
			<path class="st2" d="M114.5,18.2c0.1,0,0.2,0,0.3,0C114.7,18.2,114.6,18.2,114.5,18.2z"/>
			<path class="st2" d="M97.2,19.5c0.2-0.1,0.4-0.1,0.6-0.2C97.6,19.4,97.4,19.4,97.2,19.5z"/>
			<path class="st2" d="M105.3,18.3c0.4,0,0.8,0,1.3-0.1C106.1,18.2,105.7,18.3,105.3,18.3z"/>
			<path class="st2" d="M106.7,18.2c0.4,0,0.8,0,1.2,0C107.5,18.2,107.1,18.2,106.7,18.2z"/>
			<path class="st2" d="M108.2,18.2c0.4,0,0.8,0,1.2,0C109,18.1,108.6,18.2,108.2,18.2z"/>
			<path class="st2" d="M111.3,20.4l11-1.6c-1.4-0.2-3-0.4-4.8-0.5c0,0-0.1,0-0.1,0c-0.4,0-0.8,0-1.3-0.1c-0.1,0-0.1,0-0.2,0
				c-0.4,0-0.8,0-1.2,0c-0.1,0-0.2,0-0.3,0c-0.4,0-0.8,0-1.2,0c-0.1,0-0.2,0-0.3,0c-0.5,0-1,0-1.6,0c-0.5,0-1.1,0-1.6,0
				c-0.1,0-0.2,0-0.3,0c-0.4,0-0.8,0-1.2,0c-0.1,0-0.2,0-0.3,0c-0.4,0-0.8,0-1.2,0c-0.1,0-0.1,0-0.2,0c-0.4,0-0.8,0-1.3,0.1
				c0,0-0.1,0-0.1,0c-1.8,0.1-3.5,0.3-4.8,0.5L111.3,20.4z"/>
			<path class="st4" d="M111.3,20.4l11-1.6c-1.4-0.2-3-0.4-4.8-0.5c0,0-0.1,0-0.1,0c-0.4,0-0.8,0-1.3-0.1c-0.1,0-0.1,0-0.2,0
				c-0.4,0-0.8,0-1.2,0c-0.1,0-0.2,0-0.3,0c-0.4,0-0.8,0-1.2,0c-0.1,0-0.2,0-0.3,0c-0.5,0-1,0-1.6,0c-0.5,0-1.1,0-1.6,0
				c-0.1,0-0.2,0-0.3,0c-0.4,0-0.8,0-1.2,0c-0.1,0-0.2,0-0.3,0c-0.4,0-0.8,0-1.2,0c-0.1,0-0.1,0-0.2,0c-0.4,0-0.8,0-1.3,0.1
				c0,0-0.1,0-0.1,0c-1.8,0.1-3.5,0.3-4.8,0.5L111.3,20.4z"/>
			<path class="st3" d="M111.3,20.4l-11-1.6c-1,0.1-1.9,0.3-2.6,0.5c0,0,0,0,0,0c-0.2,0.1-0.4,0.1-0.6,0.2c0,0,0,0-0.1,0
				c-0.2,0.1-0.3,0.1-0.4,0.2c0,0-0.1,0-0.1,0.1c-0.1,0.1-0.2,0.1-0.3,0.2c0,0-0.1,0.1-0.1,0.1c0,0-0.1,0.1-0.1,0.1
				C96,20.2,96,20.3,96,20.3c0,0.1,0,0.2,0.1,0.2c0,0,0,0,0.1,0.1c0,0.1,0.1,0.1,0.2,0.2c0,0,0.1,0,0.1,0c0.1,0.1,0.2,0.1,0.3,0.2
				c0,0,0.1,0,0.1,0c0.1,0.1,0.3,0.1,0.4,0.2c0,0,0.1,0,0.1,0c0.2,0.1,0.4,0.1,0.6,0.2c0,0,0,0,0,0c0.7,0.2,1.6,0.4,2.6,0.5
				L111.3,20.4z"/>
			<path class="st2" d="M111.3,20.4l-11-1.6c-1,0.1-1.9,0.3-2.6,0.5c0,0,0,0,0,0c-0.2,0.1-0.4,0.1-0.6,0.2c0,0,0,0-0.1,0
				c-0.2,0.1-0.3,0.1-0.4,0.2c0,0-0.1,0-0.1,0.1c-0.1,0.1-0.2,0.1-0.3,0.2c0,0-0.1,0.1-0.1,0.1c0,0-0.1,0.1-0.1,0.1
				C96,20.2,96,20.3,96,20.3c0,0.1,0,0.2,0.1,0.2c0,0,0,0,0.1,0.1c0,0.1,0.1,0.1,0.2,0.2c0,0,0.1,0,0.1,0c0.1,0.1,0.2,0.1,0.3,0.2
				c0,0,0.1,0,0.1,0c0.1,0.1,0.3,0.1,0.4,0.2c0,0,0.1,0,0.1,0c0.2,0.1,0.4,0.1,0.6,0.2c0,0,0,0,0,0c0.7,0.2,1.6,0.4,2.6,0.5
				L111.3,20.4z"/>
			<path class="st3" d="M125.4,21.2c-0.2,0.1-0.3,0.1-0.5,0.2C125,21.3,125.2,21.3,125.4,21.2z"/>
			<path class="st3" d="M119.9,22.2c2-0.2,3.7-0.5,4.9-0.8c-0.7,0.2-1.6,0.4-2.6,0.5C121.5,22,120.7,22.1,119.9,22.2z"/>
			<path class="st3" d="M124.9,19.3C124.9,19.3,124.9,19.3,124.9,19.3C124.9,19.3,124.9,19.3,124.9,19.3z"/>
			<path class="st2" d="M125.5,21.2c0.2-0.1,0.3-0.1,0.4-0.2c0,0,0.1,0,0.1,0c0.1,0,0.2-0.1,0.3-0.2c0,0,0.1,0,0.1-0.1
				c0.1,0,0.1-0.1,0.2-0.1c0,0,0.1,0,0.1-0.1c0.1-0.1,0.1-0.2,0.1-0.2c0-0.1,0-0.2-0.1-0.2c0,0-0.1-0.1-0.1-0.1c0,0-0.1-0.1-0.1-0.1
				c-0.1-0.1-0.2-0.1-0.3-0.2c0,0-0.1,0-0.1-0.1c-0.1-0.1-0.3-0.1-0.4-0.2c0,0,0,0-0.1,0c-0.2-0.1-0.4-0.1-0.6-0.2c0,0,0,0,0,0
				c-0.7-0.2-1.6-0.4-2.6-0.5l-11,1.6l10.8,1.5c1-0.1,1.9-0.3,2.6-0.5c0,0,0,0,0,0c0.2-0.1,0.4-0.1,0.5-0.2
				C125.4,21.2,125.4,21.2,125.5,21.2z"/>
			<path class="st2" d="M125.5,21.2c0.2-0.1,0.3-0.1,0.4-0.2c0,0,0.1,0,0.1,0c0.1,0,0.2-0.1,0.3-0.2c0,0,0.1,0,0.1-0.1
				c0.1,0,0.1-0.1,0.2-0.1c0,0,0.1,0,0.1-0.1c0.1-0.1,0.1-0.2,0.1-0.2c0-0.1,0-0.2-0.1-0.2c0,0-0.1-0.1-0.1-0.1c0,0-0.1-0.1-0.1-0.1
				c-0.1-0.1-0.2-0.1-0.3-0.2c0,0-0.1,0-0.1-0.1c-0.1-0.1-0.3-0.1-0.4-0.2c0,0,0,0-0.1,0c-0.2-0.1-0.4-0.1-0.6-0.2c0,0,0,0,0,0
				c-0.7-0.2-1.6-0.4-2.6-0.5l-11,1.6l10.8,1.5c1-0.1,1.9-0.3,2.6-0.5c0,0,0,0,0,0c0.2-0.1,0.4-0.1,0.5-0.2
				C125.4,21.2,125.4,21.2,125.5,21.2z"/>
			<path class="st3" d="M111.3,20.4l-10.8,1.5c0.7,0.1,1.5,0.2,2.3,0.3c0,0,0,0,0.1,0c0.4,0,0.8,0.1,1.2,0.1c0.1,0,0.3,0,0.4,0
				c0.3,0,0.6,0,1,0.1c0.2,0,0.4,0,0.6,0c0.3,0,0.6,0,0.9,0c0.3,0,0.6,0,0.9,0c0.2,0,0.4,0,0.6,0c0.3,0,0.7,0,1,0c0.2,0,0.3,0,0.5,0
				c0.5,0,1,0,1.6,0c0.5,0,1.1,0,1.6,0c0.2,0,0.3,0,0.5,0c0.3,0,0.7,0,1,0c0.2,0,0.4,0,0.6,0c0.3,0,0.6,0,0.9,0c0.3,0,0.6,0,0.9,0
				c0.2,0,0.4,0,0.6,0c0.3,0,0.6,0,1-0.1c0.1,0,0.3,0,0.4,0c0.4,0,0.8-0.1,1.2-0.1c0,0,0.1,0,0.1,0c0.8-0.1,1.6-0.2,2.3-0.3
				L111.3,20.4z"/>
			<path class="st3" d="M111.3,20.4l-10.8,1.5c0.7,0.1,1.5,0.2,2.3,0.3c0,0,0,0,0.1,0c0.4,0,0.8,0.1,1.2,0.1c0.1,0,0.3,0,0.4,0
				c0.3,0,0.6,0,1,0.1c0.2,0,0.4,0,0.6,0c0.3,0,0.6,0,0.9,0c0.3,0,0.6,0,0.9,0c0.2,0,0.4,0,0.6,0c0.3,0,0.7,0,1,0c0.2,0,0.3,0,0.5,0
				c0.5,0,1,0,1.6,0c0.5,0,1.1,0,1.6,0c0.2,0,0.3,0,0.5,0c0.3,0,0.7,0,1,0c0.2,0,0.4,0,0.6,0c0.3,0,0.6,0,0.9,0c0.3,0,0.6,0,0.9,0
				c0.2,0,0.4,0,0.6,0c0.3,0,0.6,0,1-0.1c0.1,0,0.3,0,0.4,0c0.4,0,0.8-0.1,1.2-0.1c0,0,0.1,0,0.1,0c0.8-0.1,1.6-0.2,2.3-0.3
				L111.3,20.4z"/>
		</g>
	</g>
	<path class="st5" d="M114.7,24.9h-5.5c-0.2,0-0.4,0.2-0.4,0.4v4.6c0,0.9,0.7,1.6,1.6,1.6h3.1c0.9,0,1.6-0.7,1.6-1.6v-4.6
		C115.1,25.1,114.9,24.9,114.7,24.9z"/>
	<path class="st6" d="M82.7,16.1l32,10.9c0.8,0.3,1.3,1,1.3,1.8l0,0c0,1.2-1.1,2.1-2.3,1.9l-32.2-7.3L82.7,16.1z"/>
	<path class="st1" d="M28.1,27.2h-0.5c-0.5,0-0.9,0.8-0.9,0.2v-6.4c0-0.5,0.4-0.9,0.9-0.9h0.5c0.5,0,0.9,0.4,0.9,0.9v6.4
		C29,28,28.6,27.2,28.1,27.2z"/>
	<g>
		<path class="st2" d="M43.1,20.7C43.1,20.7,43.1,20.7,43.1,20.7C43.1,20.7,43.1,20.7,43.1,20.7z"/>
		<path class="st2" d="M42.9,20.9c0,0-0.1,0-0.1,0.1C42.8,20.9,42.9,20.9,42.9,20.9z"/>
		<path class="st2" d="M43,20.1c0,0,0.1,0.1,0.1,0.1C43.1,20.2,43.1,20.1,43,20.1z"/>
		<path class="st2" d="M42.6,19.9c0.1,0.1,0.2,0.1,0.3,0.2C42.8,20,42.7,19.9,42.6,19.9z"/>
		<path class="st2" d="M42.1,19.6c0.2,0.1,0.3,0.1,0.4,0.2C42.4,19.7,42.3,19.7,42.1,19.6z"/>
		<path class="st2" d="M42.5,21.1C42.5,21.1,42.5,21.1,42.5,21.1C42.5,21.1,42.5,21.1,42.5,21.1z"/>
		<path class="st2" d="M42,21.3c0,0-0.1,0-0.1,0C41.9,21.3,42,21.3,42,21.3z"/>
		<path class="st3" d="M24.8,22.6c-0.2,0-0.4,0-0.6,0C24.4,22.6,24.6,22.6,24.8,22.6z"/>
		<path class="st3" d="M21.9,22.5c-0.3,0-0.6,0-1-0.1C21.3,22.4,21.6,22.5,21.9,22.5z"/>
		<path class="st3" d="M36.4,22.3C36.4,22.3,36.4,22.3,36.4,22.3C36.4,22.3,36.4,22.3,36.4,22.3z"/>
		<path class="st3" d="M20.6,22.4c-0.4,0-0.8-0.1-1.2-0.1C19.7,22.3,20.1,22.4,20.6,22.4z"/>
		<path class="st3" d="M35.2,22.4c-0.1,0-0.3,0-0.4,0C34.9,22.4,35,22.4,35.2,22.4z"/>
		<path class="st3" d="M23.3,22.6c-0.3,0-0.6,0-0.9,0C22.7,22.5,23,22.6,23.3,22.6z"/>
		<path class="st3" d="M33.8,22.5c-0.2,0-0.4,0-0.6,0C33.5,22.5,33.7,22.5,33.8,22.5z"/>
		<path class="st3" d="M31,22.6c-0.3,0-0.7,0-1,0C30.3,22.6,30.6,22.6,31,22.6z"/>
		<path class="st3" d="M29.4,22.7c-0.5,0-1,0-1.6,0C28.4,22.7,28.9,22.7,29.4,22.7z"/>
		<path class="st3" d="M32.4,22.6c-0.3,0-0.6,0-0.9,0C31.8,22.6,32.1,22.6,32.4,22.6z"/>
		<path class="st3" d="M26.3,22.7c-0.2,0-0.3,0-0.5,0C26,22.6,26.1,22.7,26.3,22.7z"/>
		<path class="st3" d="M34.8,22.4c-0.3,0-0.6,0-1,0.1C34.2,22.5,34.5,22.4,34.8,22.4z"/>
		<path class="st3" d="M25.8,22.6c-0.3,0-0.7,0-1,0C25.1,22.6,25.4,22.6,25.8,22.6z"/>
		<path class="st3" d="M33.3,22.5c-0.3,0-0.6,0-0.9,0C32.7,22.6,33,22.5,33.3,22.5z"/>
		<path class="st3" d="M27.9,22.7c-0.5,0-1.1,0-1.6,0C26.8,22.7,27.3,22.7,27.9,22.7z"/>
		<path class="st3" d="M30,22.6c-0.2,0-0.3,0-0.5,0C29.6,22.7,29.8,22.6,30,22.6z"/>
		<path class="st3" d="M31.6,22.6c-0.2,0-0.4,0-0.6,0C31.2,22.6,31.4,22.6,31.6,22.6z"/>
		<path class="st3" d="M24.2,22.6c-0.3,0-0.6,0-0.9,0C23.6,22.6,23.9,22.6,24.2,22.6z"/>
		<path class="st3" d="M36.3,22.3c-0.4,0-0.8,0.1-1.2,0.1C35.6,22.4,36,22.3,36.3,22.3z"/>
		<path class="st3" d="M22.5,22.5c-0.2,0-0.4,0-0.6,0C22.1,22.5,22.3,22.5,22.5,22.5z"/>
		<path class="st3" d="M42.8,21c-0.1,0.1-0.2,0.1-0.3,0.2C42.6,21.1,42.7,21,42.8,21z"/>
		<path class="st3" d="M43.2,20.4c0,0.1,0,0.2-0.1,0.2C43.2,20.6,43.2,20.5,43.2,20.4z"/>
		<path class="st3" d="M43.1,20.2c0.1,0.1,0.1,0.1,0.1,0.2C43.2,20.4,43.2,20.3,43.1,20.2z"/>
		<path class="st3" d="M42.4,21.1c-0.1,0.1-0.3,0.1-0.4,0.2C42.2,21.3,42.3,21.2,42.4,21.1z"/>
		<path class="st3" d="M43.1,20.7c0,0-0.1,0.1-0.2,0.1C43,20.8,43,20.8,43.1,20.7z"/>
		<path class="st3" d="M19.4,22.3C19.3,22.3,19.3,22.3,19.4,22.3C19.3,22.3,19.3,22.3,19.4,22.3z"/>
		<path class="st3" d="M20.9,22.4c-0.1,0-0.3,0-0.4,0C20.7,22.4,20.8,22.4,20.9,22.4z"/>
		<path class="st3" d="M42.9,20c0,0,0.1,0.1,0.1,0.1C43,20.1,43,20,42.9,20z"/>
		<path class="st3" d="M42.5,19.8C42.6,19.8,42.6,19.8,42.5,19.8C42.6,19.8,42.6,19.8,42.5,19.8z"/>
		<path class="st3" d="M42,19.6C42.1,19.6,42.1,19.6,42,19.6C42.1,19.6,42.1,19.6,42,19.6z"/>
		<g>
			<path class="st2" d="M29.8,18.2c0.4,0,0.8,0,1.2,0C30.6,18.3,30.2,18.3,29.8,18.2z"/>
			<path class="st2" d="M27.9,18.2c0.5,0,1.1,0,1.6,0C28.9,18.2,28.4,18.2,27.9,18.2z"/>
			<path class="st2" d="M41.4,19.4c0.2,0.1,0.4,0.1,0.6,0.2C41.9,19.5,41.6,19.5,41.4,19.4z"/>
			<path class="st2" d="M31.3,18.3c0.4,0,0.8,0,1.2,0C32.1,18.3,31.7,18.3,31.3,18.3z"/>
			<path class="st2" d="M32.7,18.3c0.4,0,0.8,0,1.3,0.1C33.5,18.4,33.1,18.4,32.7,18.3z"/>
			<path class="st2" d="M21.7,18.4C21.8,18.4,21.8,18.4,21.7,18.4C21.8,18.4,21.8,18.4,21.7,18.4z"/>
			<path class="st2" d="M25.9,18.2c0.1,0,0.2,0,0.3,0C26.2,18.2,26.1,18.2,25.9,18.2z"/>
			<path class="st2" d="M24.5,18.3c0.1,0,0.2,0,0.3,0C24.6,18.3,24.6,18.3,24.5,18.3z"/>
			<path class="st2" d="M23.1,18.3c0.1,0,0.1,0,0.2,0C23.2,18.3,23.1,18.3,23.1,18.3z"/>
			<path class="st2" d="M41.4,19.4c-1.6-0.4-4.2-0.8-7.4-1c1.8,0.1,3.5,0.3,4.8,0.5C39.9,19.1,40.7,19.2,41.4,19.4z"/>
			<path class="st2" d="M41.4,21.5C41.3,21.5,41.3,21.5,41.4,21.5C41.3,21.5,41.3,21.5,41.4,21.5z"/>
			<path class="st3" d="M12.7,20.1c0,0,0.1-0.1,0.1-0.1C12.8,20,12.8,20.1,12.7,20.1z"/>
			<path class="st3" d="M13.7,21.3c-0.2-0.1-0.3-0.1-0.4-0.2C13.4,21.2,13.6,21.3,13.7,21.3z"/>
			<path class="st3" d="M14.3,19.4C14.3,19.4,14.3,19.4,14.3,19.4C14.3,19.4,14.3,19.4,14.3,19.4z"/>
			<path class="st3" d="M13.1,19.9C13.1,19.8,13.2,19.8,13.1,19.9C13.2,19.8,13.1,19.8,13.1,19.9z"/>
			<path class="st3" d="M12.8,20.9c-0.1-0.1-0.1-0.1-0.2-0.2C12.7,20.8,12.8,20.8,12.8,20.9z"/>
			<path class="st3" d="M12.5,20.4c0-0.1,0-0.2,0.1-0.2C12.5,20.3,12.5,20.4,12.5,20.4z"/>
			<path class="st3" d="M13.2,21.1c-0.1-0.1-0.2-0.1-0.3-0.2C13,21,13.1,21.1,13.2,21.1z"/>
			<path class="st3" d="M12.6,20.7c-0.1-0.1-0.1-0.2-0.1-0.2C12.5,20.5,12.5,20.6,12.6,20.7z"/>
			<path class="st3" d="M13.6,19.6C13.7,19.6,13.7,19.6,13.6,19.6C13.7,19.6,13.7,19.6,13.6,19.6z"/>
			<path class="st3" d="M14.4,21.5c1.2,0.3,2.9,0.6,4.9,0.8c-0.8-0.1-1.6-0.2-2.3-0.3C16,21.9,15.1,21.7,14.4,21.5z"/>
			<path class="st3" d="M14.4,21.5c-0.2-0.1-0.4-0.1-0.6-0.2C14,21.4,14.2,21.5,14.4,21.5z"/>
			<path class="st2" d="M12.8,20c0.1-0.1,0.2-0.1,0.3-0.2C13,19.9,12.9,20,12.8,20z"/>
			<path class="st2" d="M12.9,20.9C12.9,20.9,12.9,20.9,12.9,20.9C12.9,20.9,12.9,20.9,12.9,20.9z"/>
			<path class="st2" d="M12.6,20.2c0,0,0.1-0.1,0.1-0.1C12.7,20.1,12.6,20.2,12.6,20.2z"/>
			<path class="st2" d="M13.8,21.3C13.8,21.3,13.8,21.3,13.8,21.3C13.8,21.3,13.8,21.3,13.8,21.3z"/>
			<path class="st2" d="M14.4,21.5C14.4,21.5,14.4,21.5,14.4,21.5C14.4,21.5,14.4,21.5,14.4,21.5z"/>
			<path class="st2" d="M13.3,21.1C13.3,21.1,13.2,21.1,13.3,21.1C13.2,21.1,13.3,21.1,13.3,21.1z"/>
			<path class="st2" d="M12.7,20.7C12.6,20.7,12.6,20.7,12.7,20.7C12.6,20.7,12.6,20.7,12.7,20.7z"/>
			<path class="st2" d="M13.2,19.8c0.1-0.1,0.3-0.1,0.4-0.2C13.5,19.7,13.3,19.7,13.2,19.8z"/>
			<path class="st2" d="M29.5,18.2c0.1,0,0.2,0,0.3,0C29.7,18.2,29.6,18.2,29.5,18.2z"/>
			<path class="st2" d="M32.5,18.3c0.1,0,0.1,0,0.2,0C32.6,18.3,32.5,18.3,32.5,18.3z"/>
			<path class="st2" d="M21.7,18.4c-3.2,0.2-5.8,0.6-7.4,1c0.7-0.2,1.6-0.4,2.6-0.5C18.3,18.7,19.9,18.5,21.7,18.4z"/>
			<path class="st2" d="M33.9,18.4C33.9,18.4,34,18.4,33.9,18.4C34,18.4,33.9,18.4,33.9,18.4z"/>
			<path class="st2" d="M26.3,18.2c0.5,0,1,0,1.6,0C27.3,18.2,26.8,18.2,26.3,18.2z"/>
			<path class="st2" d="M31,18.3c0.1,0,0.2,0,0.3,0C31.2,18.3,31.1,18.3,31,18.3z"/>
			<path class="st2" d="M13.7,19.6c0.2-0.1,0.4-0.1,0.6-0.2C14.1,19.5,13.9,19.5,13.7,19.6z"/>
			<path class="st2" d="M21.8,18.4c0.4,0,0.8,0,1.3-0.1C22.6,18.4,22.2,18.4,21.8,18.4z"/>
			<path class="st2" d="M23.2,18.3c0.4,0,0.8,0,1.2,0C24,18.3,23.6,18.3,23.2,18.3z"/>
			<path class="st2" d="M24.7,18.3c0.4,0,0.8,0,1.2,0C25.5,18.3,25.1,18.3,24.7,18.3z"/>
			<path class="st2" d="M27.9,20.5l11-1.6c-1.4-0.2-3-0.4-4.8-0.5c0,0-0.1,0-0.1,0c-0.4,0-0.8,0-1.3-0.1c-0.1,0-0.1,0-0.2,0
				c-0.4,0-0.8,0-1.2,0c-0.1,0-0.2,0-0.3,0c-0.4,0-0.8,0-1.2,0c-0.1,0-0.2,0-0.3,0c-0.5,0-1,0-1.6,0c-0.5,0-1.1,0-1.6,0
				c-0.1,0-0.2,0-0.3,0c-0.4,0-0.8,0-1.2,0c-0.1,0-0.2,0-0.3,0c-0.4,0-0.8,0-1.2,0c-0.1,0-0.1,0-0.2,0c-0.4,0-0.8,0-1.3,0.1
				c0,0-0.1,0-0.1,0c-1.8,0.1-3.5,0.3-4.8,0.5L27.9,20.5z"/>
			<path class="st4" d="M27.9,20.5l11-1.6c-1.4-0.2-3-0.4-4.8-0.5c0,0-0.1,0-0.1,0c-0.4,0-0.8,0-1.3-0.1c-0.1,0-0.1,0-0.2,0
				c-0.4,0-0.8,0-1.2,0c-0.1,0-0.2,0-0.3,0c-0.4,0-0.8,0-1.2,0c-0.1,0-0.2,0-0.3,0c-0.5,0-1,0-1.6,0c-0.5,0-1.1,0-1.6,0
				c-0.1,0-0.2,0-0.3,0c-0.4,0-0.8,0-1.2,0c-0.1,0-0.2,0-0.3,0c-0.4,0-0.8,0-1.2,0c-0.1,0-0.1,0-0.2,0c-0.4,0-0.8,0-1.3,0.1
				c0,0-0.1,0-0.1,0c-1.8,0.1-3.5,0.3-4.8,0.5L27.9,20.5z"/>
			<path class="st3" d="M27.9,20.5l-11-1.6c-1,0.1-1.9,0.3-2.6,0.5c0,0,0,0,0,0c-0.2,0.1-0.4,0.1-0.6,0.2c0,0,0,0-0.1,0
				c-0.2,0.1-0.3,0.1-0.4,0.2c0,0-0.1,0-0.1,0.1C13,19.9,12.9,20,12.8,20c0,0-0.1,0.1-0.1,0.1c0,0-0.1,0.1-0.1,0.1
				c-0.1,0.1-0.1,0.1-0.1,0.2c0,0.1,0,0.2,0.1,0.2c0,0,0,0,0.1,0.1c0,0.1,0.1,0.1,0.2,0.2c0,0,0.1,0,0.1,0c0.1,0.1,0.2,0.1,0.3,0.2
				c0,0,0.1,0,0.1,0c0.1,0.1,0.3,0.1,0.4,0.2c0,0,0.1,0,0.1,0c0.2,0.1,0.4,0.1,0.6,0.2c0,0,0,0,0,0c0.7,0.2,1.6,0.4,2.6,0.5
				L27.9,20.5z"/>
			<path class="st2" d="M27.9,20.5l-11-1.6c-1,0.1-1.9,0.3-2.6,0.5c0,0,0,0,0,0c-0.2,0.1-0.4,0.1-0.6,0.2c0,0,0,0-0.1,0
				c-0.2,0.1-0.3,0.1-0.4,0.2c0,0-0.1,0-0.1,0.1C13,19.9,12.9,20,12.8,20c0,0-0.1,0.1-0.1,0.1c0,0-0.1,0.1-0.1,0.1
				c-0.1,0.1-0.1,0.1-0.1,0.2c0,0.1,0,0.2,0.1,0.2c0,0,0,0,0.1,0.1c0,0.1,0.1,0.1,0.2,0.2c0,0,0.1,0,0.1,0c0.1,0.1,0.2,0.1,0.3,0.2
				c0,0,0.1,0,0.1,0c0.1,0.1,0.3,0.1,0.4,0.2c0,0,0.1,0,0.1,0c0.2,0.1,0.4,0.1,0.6,0.2c0,0,0,0,0,0c0.7,0.2,1.6,0.4,2.6,0.5
				L27.9,20.5z"/>
			<path class="st3" d="M41.9,21.3c-0.2,0.1-0.3,0.1-0.5,0.2C41.6,21.5,41.7,21.4,41.9,21.3z"/>
			<path class="st3" d="M36.4,22.3c2-0.2,3.7-0.5,4.9-0.8c-0.7,0.2-1.6,0.4-2.6,0.5C38,22.1,37.2,22.2,36.4,22.3z"/>
			<path class="st3" d="M41.4,19.4C41.4,19.4,41.4,19.4,41.4,19.4C41.4,19.4,41.4,19.4,41.4,19.4z"/>
			<path class="st2" d="M42,21.3c0.2-0.1,0.3-0.1,0.4-0.2c0,0,0.1,0,0.1,0c0.1,0,0.2-0.1,0.3-0.2c0,0,0.1,0,0.1-0.1
				c0.1,0,0.1-0.1,0.2-0.1c0,0,0.1,0,0.1-0.1c0.1-0.1,0.1-0.2,0.1-0.2c0-0.1,0-0.2-0.1-0.2c0,0-0.1-0.1-0.1-0.1c0,0-0.1-0.1-0.1-0.1
				c-0.1-0.1-0.2-0.1-0.3-0.2c0,0-0.1,0-0.1-0.1c-0.1-0.1-0.3-0.1-0.4-0.2c0,0,0,0-0.1,0c-0.2-0.1-0.4-0.1-0.6-0.2c0,0,0,0,0,0
				c-0.7-0.2-1.6-0.4-2.6-0.5l-11,1.6L38.7,22c1-0.1,1.9-0.3,2.6-0.5c0,0,0,0,0,0c0.2-0.1,0.4-0.1,0.5-0.2
				C41.9,21.3,42,21.3,42,21.3z"/>
			<path class="st2" d="M42,21.3c0.2-0.1,0.3-0.1,0.4-0.2c0,0,0.1,0,0.1,0c0.1,0,0.2-0.1,0.3-0.2c0,0,0.1,0,0.1-0.1
				c0.1,0,0.1-0.1,0.2-0.1c0,0,0.1,0,0.1-0.1c0.1-0.1,0.1-0.2,0.1-0.2c0-0.1,0-0.2-0.1-0.2c0,0-0.1-0.1-0.1-0.1c0,0-0.1-0.1-0.1-0.1
				c-0.1-0.1-0.2-0.1-0.3-0.2c0,0-0.1,0-0.1-0.1c-0.1-0.1-0.3-0.1-0.4-0.2c0,0,0,0-0.1,0c-0.2-0.1-0.4-0.1-0.6-0.2c0,0,0,0,0,0
				c-0.7-0.2-1.6-0.4-2.6-0.5l-11,1.6L38.7,22c1-0.1,1.9-0.3,2.6-0.5c0,0,0,0,0,0c0.2-0.1,0.4-0.1,0.5-0.2
				C41.9,21.3,42,21.3,42,21.3z"/>
			<path class="st3" d="M27.9,20.5L17,22c0.7,0.1,1.5,0.2,2.3,0.3c0,0,0,0,0.1,0c0.4,0,0.8,0.1,1.2,0.1c0.1,0,0.3,0,0.4,0
				c0.3,0,0.6,0,1,0.1c0.2,0,0.4,0,0.6,0c0.3,0,0.6,0,0.9,0c0.3,0,0.6,0,0.9,0c0.2,0,0.4,0,0.6,0c0.3,0,0.7,0,1,0c0.2,0,0.3,0,0.5,0
				c0.5,0,1,0,1.6,0s1.1,0,1.6,0c0.2,0,0.3,0,0.5,0c0.3,0,0.7,0,1,0c0.2,0,0.4,0,0.6,0c0.3,0,0.6,0,0.9,0c0.3,0,0.6,0,0.9,0
				c0.2,0,0.4,0,0.6,0c0.3,0,0.6,0,1-0.1c0.1,0,0.3,0,0.4,0c0.4,0,0.8-0.1,1.2-0.1c0,0,0.1,0,0.1,0c0.8-0.1,1.6-0.2,2.3-0.3
				L27.9,20.5z"/>
			<path class="st3" d="M27.9,20.5L17,22c0.7,0.1,1.5,0.2,2.3,0.3c0,0,0,0,0.1,0c0.4,0,0.8,0.1,1.2,0.1c0.1,0,0.3,0,0.4,0
				c0.3,0,0.6,0,1,0.1c0.2,0,0.4,0,0.6,0c0.3,0,0.6,0,0.9,0c0.3,0,0.6,0,0.9,0c0.2,0,0.4,0,0.6,0c0.3,0,0.7,0,1,0c0.2,0,0.3,0,0.5,0
				c0.5,0,1,0,1.6,0s1.1,0,1.6,0c0.2,0,0.3,0,0.5,0c0.3,0,0.7,0,1,0c0.2,0,0.4,0,0.6,0c0.3,0,0.6,0,0.9,0c0.3,0,0.6,0,0.9,0
				c0.2,0,0.4,0,0.6,0c0.3,0,0.6,0,1-0.1c0.1,0,0.3,0,0.4,0c0.4,0,0.8-0.1,1.2-0.1c0,0,0.1,0,0.1,0c0.8-0.1,1.6-0.2,2.3-0.3
				L27.9,20.5z"/>
		</g>
	</g>
	<path class="st6" d="M25.1,24.9h5.5c0.2,0,0.4,0.2,0.4,0.4v4.6c0,0.9-0.7,1.6-1.6,1.6h-3.1c-0.9,0-1.6-0.7-1.6-1.6v-4.6
		C24.8,25.1,24.9,24.9,25.1,24.9z"/>
	<path class="st6" d="M57.1,16.1L25.1,27c-0.8,0.3-1.3,1-1.3,1.8l0,0c0,1.2,1.1,2.1,2.3,1.9l32.2-7.3L57.1,16.1z"/>
	<g>
		<path class="st7" d="M83,20.8l13.3,10.3c1.5,1.2,2.7,2.7,3.5,4.5l5.6,12.8c0.3,0.8-0.5,1.6-1.2,1.2l0,0c-0.2-0.1-0.4-0.3-0.5-0.5
			l-5.7-12.3c-0.9-2-2.4-3.7-4.2-4.9l-11.1-7.2L83,20.8z"/>
		<path class="st7" d="M56.9,20.8L43.6,31.1c-1.5,1.2-2.7,2.7-3.5,4.5l-5.6,12.8c-0.3,0.8,0.5,1.6,1.2,1.2l0,0
			c0.2-0.1,0.4-0.3,0.5-0.5l5.7-12.3c0.9-2,2.4-3.7,4.2-4.9l11.1-7.2L56.9,20.8z"/>
	</g>
	<path class="st1" d="M117.4,12.3h0.6c0.7,0,1.3,1.1,1.3,0.3V3.8c0-0.7-0.6-1.3-1.3-1.3h-0.6c-0.7,0-1.3,0.6-1.3,1.3v8.9
		C116.1,13.4,116.7,12.3,117.4,12.3z"/>
	<path class="st5" d="M121.6,9.1h-7.8c-0.2,0-0.4,0.2-0.4,0.4v6.7c0,1.1,0.9,1.9,1.9,1.9h4.8c1.1,0,1.9-0.9,1.9-1.9V9.5
		C122.1,9.3,121.9,9.1,121.6,9.1z"/>
	<path class="st1" d="M21.8,12.3h0.6c0.7,0,1.3,1.1,1.3,0.3V3.8c0-0.7-0.6-1.3-1.3-1.3h-0.6c-0.7,0-1.3,0.6-1.3,1.3v8.9
		C20.5,13.4,21.1,12.3,21.8,12.3z"/>
	<path class="st6" d="M26,9.1h-7.8c-0.2,0-0.4,0.2-0.4,0.4v6.7c0,1.1,0.9,1.9,1.9,1.9h4.8c1.1,0,1.9-0.9,1.9-1.9V9.5
		C26.4,9.3,26.2,9.1,26,9.1z"/>
	<path class="st8" d="M83.8,14.7c-0.2-1.8,0.9-2.9,2.1-3.7h-7.3h-8.7h-8.7H17.6c-1.3,0-2.4,1.1-2.4,2.4c0,1.3,1,2.3,2.3,2.4
		l22.8,0.8c6.5,0.3,12.5,3.6,16.2,9l3.8,5.4c1.3,1.8,3.4,2.9,5.6,2.9h4h4c2.2,0,4.4-1.1,5.6-2.9l3.8-5.4c1.7-2.4,3.9-4.5,6.4-6
		C87.6,18.9,84,17.3,83.8,14.7z"/>
	<path class="st6" d="M122.4,15.8c1.3-0.1,2.3-1.1,2.3-2.4c0-1.3-1.1-2.4-2.4-2.4H85.9c-1.2,0.7-2.3,1.9-2.1,3.7
		c0.2,2.6,3.9,4.2,6,4.9c2.9-1.8,6.3-2.8,9.8-3L122.4,15.8z"/>
	<path class="st6" d="M17.1,15.8c-1.3-0.1-2.3-1.1-2.3-2.4c0-1.3,1.1-2.4,2.4-2.4h36.4c1.2,0.7,2.3,1.9,2.1,3.7
		c-0.2,2.6-3.9,4.2-6,4.9c-2.9-1.8-6.3-2.8-9.8-3L17.1,15.8z"/>
	<g>
		<path class="st2" d="M60.2,23.9h-0.5c-0.1,0-0.2-0.1-0.2-0.2v-7.8c0-0.1,0.1-0.2,0.2-0.2h0.5c0.1,0,0.2,0.1,0.2,0.2v7.8
			C60.4,23.8,60.3,23.9,60.2,23.9z"/>
		<path class="st2" d="M62.2,23.9h-0.5c-0.1,0-0.2-0.1-0.2-0.2v-7.8c0-0.1,0.1-0.2,0.2-0.2h0.5c0.1,0,0.2,0.1,0.2,0.2v7.8
			C62.4,23.8,62.3,23.9,62.2,23.9z"/>
		<path class="st2" d="M64.2,23.9h-0.5c-0.1,0-0.2-0.1-0.2-0.2v-7.8c0-0.1,0.1-0.2,0.2-0.2h0.5c0.1,0,0.2,0.1,0.2,0.2v7.8
			C64.4,23.8,64.3,23.9,64.2,23.9z"/>
		<path class="st2" d="M66.2,23.9h-0.5c-0.1,0-0.2-0.1-0.2-0.2v-7.8c0-0.1,0.1-0.2,0.2-0.2h0.5c0.1,0,0.2,0.1,0.2,0.2v7.8
			C66.4,23.8,66.3,23.9,66.2,23.9z"/>
		<path class="st2" d="M68.2,23.9h-0.5c-0.1,0-0.2-0.1-0.2-0.2v-7.8c0-0.1,0.1-0.2,0.2-0.2h0.5c0.1,0,0.2,0.1,0.2,0.2v7.8
			C68.4,23.8,68.3,23.9,68.2,23.9z"/>
		<path class="st2" d="M70.2,23.9h-0.5c-0.1,0-0.2-0.1-0.2-0.2v-7.8c0-0.1,0.1-0.2,0.2-0.2h0.5c0.1,0,0.2,0.1,0.2,0.2v7.8
			C70.4,23.8,70.3,23.9,70.2,23.9z"/>
		<path class="st2" d="M72.2,23.9h-0.5c-0.1,0-0.2-0.1-0.2-0.2v-7.8c0-0.1,0.1-0.2,0.2-0.2h0.5c0.1,0,0.2,0.1,0.2,0.2v7.8
			C72.4,23.8,72.3,23.9,72.2,23.9z"/>
		<path class="st2" d="M74.2,23.9h-0.5c-0.1,0-0.2-0.1-0.2-0.2v-7.8c0-0.1,0.1-0.2,0.2-0.2h0.5c0.1,0,0.2,0.1,0.2,0.2v7.8
			C74.4,23.8,74.3,23.9,74.2,23.9z"/>
		<path class="st2" d="M76.2,23.9h-0.5c-0.1,0-0.2-0.1-0.2-0.2v-7.8c0-0.1,0.1-0.2,0.2-0.2h0.5c0.1,0,0.2,0.1,0.2,0.2v7.8
			C76.4,23.8,76.3,23.9,76.2,23.9z"/>
		<path class="st2" d="M78.2,23.9h-0.5c-0.1,0-0.2-0.1-0.2-0.2v-7.8c0-0.1,0.1-0.2,0.2-0.2h0.5c0.1,0,0.2,0.1,0.2,0.2v7.8
			C78.4,23.8,78.3,23.9,78.2,23.9z"/>
		<path class="st2" d="M80.2,23.9h-0.5c-0.1,0-0.2-0.1-0.2-0.2v-7.8c0-0.1,0.1-0.2,0.2-0.2h0.5c0.1,0,0.2,0.1,0.2,0.2v7.8
			C80.4,23.8,80.3,23.9,80.2,23.9z"/>
	</g>
	<g>
		<rect x="110.9" y="30.8" class="st5" width="2.1" height="9.4"/>
		<rect x="110.3" y="33.3" class="st9" width="3.6" height="0.6"/>
		<rect x="110.3" y="34.6" class="st9" width="3.6" height="0.6"/>
		<rect x="108.6" y="37.2" class="st5" width="3.4" height="2.3"/>
		<linearGradient id="SVGID_1_" gradientUnits="userSpaceOnUse" x1="109.9091" y1="42.0207" x2="114.0486" y2="42.0207">
			<stop  offset="1.708984e-03" style="stop-color:#BC3511"/>
			<stop  offset="0.3102" style="stop-color:#DB552A"/>
			<stop  offset="0.5622" style="stop-color:#D44D24"/>
			<stop  offset="0.9414" style="stop-color:#C03914"/>
			<stop  offset="1" style="stop-color:#BC3511"/>
		</linearGradient>
		<path class="st10" d="M109.9,40.2c0,0,4.1,0,4.1,0v2.1l-1.4,1.5h-1.4l-1.4-1.5V40.2z"/>
		<ellipse class="st11" cx="108.2" cy="38.3" rx="1.5" ry="2"/>
	</g>
	<g>
		<path class="st2" d="M139.9,2.7c0,0-0.1,0-0.1,0.1C139.8,2.7,139.9,2.7,139.9,2.7z"/>
		<path class="st2" d="M139.6,2.9c0,0-0.1,0-0.2,0.1C139.4,2.9,139.5,2.9,139.6,2.9z"/>
		<path class="st2" d="M139.7,2.1c0.1,0,0.1,0.1,0.2,0.1C139.8,2.2,139.8,2.1,139.7,2.1z"/>
		<path class="st2" d="M139.2,1.8c0.1,0.1,0.3,0.1,0.4,0.2C139.5,1.9,139.3,1.9,139.2,1.8z"/>
		<path class="st2" d="M138.4,1.6c0.2,0.1,0.5,0.1,0.6,0.2C138.8,1.7,138.6,1.7,138.4,1.6z"/>
		<path class="st2" d="M139,3.1c0,0-0.1,0-0.1,0C138.9,3.1,139,3.1,139,3.1z"/>
		<path class="st2" d="M138.3,3.3c0,0-0.1,0-0.1,0C138.2,3.3,138.2,3.3,138.3,3.3z"/>
		<path class="st3" d="M113.5,4.6c-0.3,0-0.6,0-0.9,0C112.9,4.6,113.2,4.6,113.5,4.6z"/>
		<path class="st3" d="M109.3,4.5c-0.5,0-0.9,0-1.4-0.1C108.4,4.4,108.8,4.5,109.3,4.5z"/>
		<path class="st3" d="M130.2,4.3c0,0-0.1,0-0.1,0C130.1,4.3,130.2,4.3,130.2,4.3z"/>
		<path class="st3" d="M107.4,4.4c-0.6,0-1.2-0.1-1.7-0.1C106.2,4.3,106.8,4.4,107.4,4.4z"/>
		<path class="st3" d="M128.4,4.4c-0.2,0-0.4,0-0.5,0C128.1,4.4,128.2,4.4,128.4,4.4z"/>
		<path class="st3" d="M111.3,4.6c-0.4,0-0.8,0-1.2,0C110.5,4.5,110.9,4.5,111.3,4.6z"/>
		<path class="st3" d="M126.5,4.5c-0.3,0-0.5,0-0.8,0C126,4.5,126.2,4.5,126.5,4.5z"/>
		<path class="st3" d="M122.4,4.6c-0.5,0-1,0-1.4,0C121.4,4.6,121.9,4.6,122.4,4.6z"/>
		<path class="st3" d="M120.2,4.6c-0.7,0-1.5,0-2.3,0C118.7,4.7,119.4,4.7,120.2,4.6z"/>
		<path class="st3" d="M124.5,4.6c-0.4,0-0.8,0-1.3,0C123.6,4.6,124.1,4.6,124.5,4.6z"/>
		<path class="st3" d="M115.6,4.6c-0.3,0-0.5,0-0.8,0C115.2,4.6,115.4,4.6,115.6,4.6z"/>
		<path class="st3" d="M127.9,4.4c-0.5,0-0.9,0-1.4,0.1C127,4.5,127.4,4.4,127.9,4.4z"/>
		<path class="st3" d="M114.9,4.6c-0.5,0-1,0-1.4,0C113.9,4.6,114.4,4.6,114.9,4.6z"/>
		<path class="st3" d="M125.7,4.5c-0.4,0-0.8,0-1.2,0C124.9,4.5,125.3,4.5,125.7,4.5z"/>
		<path class="st3" d="M117.9,4.7c-0.8,0-1.5,0-2.3,0C116.4,4.7,117.1,4.7,117.9,4.7z"/>
		<path class="st3" d="M120.9,4.6c-0.3,0-0.5,0-0.8,0C120.4,4.6,120.7,4.6,120.9,4.6z"/>
		<path class="st3" d="M123.2,4.6c-0.3,0-0.6,0-0.9,0C122.6,4.6,122.9,4.6,123.2,4.6z"/>
		<path class="st3" d="M112.6,4.6c-0.4,0-0.8,0-1.3,0C111.8,4.6,112.2,4.6,112.6,4.6z"/>
		<path class="st3" d="M130.1,4.3c-0.5,0-1.1,0.1-1.7,0.1C129,4.4,129.6,4.3,130.1,4.3z"/>
		<path class="st3" d="M110.1,4.5c-0.3,0-0.5,0-0.8,0C109.6,4.5,109.8,4.5,110.1,4.5z"/>
		<path class="st3" d="M139.4,2.9C139.3,3,139.2,3,139,3.1C139.2,3,139.3,3,139.4,2.9z"/>
		<path class="st3" d="M140,2.4c0,0.1,0,0.2-0.1,0.2C140,2.6,140,2.5,140,2.4z"/>
		<path class="st3" d="M139.9,2.2c0.1,0.1,0.1,0.1,0.1,0.2C140,2.4,140,2.3,139.9,2.2z"/>
		<path class="st3" d="M138.9,3.1c-0.2,0.1-0.4,0.1-0.6,0.2C138.5,3.2,138.7,3.2,138.9,3.1z"/>
		<path class="st3" d="M139.8,2.7c-0.1,0-0.1,0.1-0.2,0.1C139.6,2.8,139.7,2.8,139.8,2.7z"/>
		<path class="st3" d="M105.7,4.3C105.6,4.3,105.6,4.3,105.7,4.3C105.6,4.3,105.6,4.3,105.7,4.3z"/>
		<path class="st3" d="M107.9,4.4c-0.2,0-0.4,0-0.5,0C107.6,4.4,107.8,4.4,107.9,4.4z"/>
		<path class="st3" d="M139.6,2c0.1,0,0.1,0.1,0.2,0.1C139.7,2.1,139.6,2,139.6,2z"/>
		<path class="st3" d="M139,1.8c0.1,0,0.1,0,0.1,0.1C139.1,1.8,139.1,1.8,139,1.8z"/>
		<path class="st3" d="M138.3,1.6C138.3,1.6,138.4,1.6,138.3,1.6C138.4,1.6,138.3,1.6,138.3,1.6z"/>
		<g>
			<path class="st2" d="M120.7,0.2c0.6,0,1.2,0,1.7,0C121.8,0.3,121.3,0.2,120.7,0.2z"/>
			<path class="st2" d="M117.9,0.2c0.8,0,1.5,0,2.3,0C119.4,0.2,118.7,0.2,117.9,0.2z"/>
			<path class="st2" d="M137.4,1.4c0.3,0.1,0.6,0.1,0.9,0.2C138,1.5,137.7,1.5,137.4,1.4z"/>
			<path class="st2" d="M122.8,0.3c0.6,0,1.2,0,1.8,0C124,0.3,123.4,0.3,122.8,0.3z"/>
			<path class="st2" d="M124.8,0.3c0.6,0,1.2,0,1.8,0.1C126,0.4,125.4,0.4,124.8,0.3z"/>
			<path class="st2" d="M109.1,0.4c0,0,0.1,0,0.1,0C109.1,0.4,109.1,0.4,109.1,0.4z"/>
			<path class="st2" d="M115.1,0.2c0.2,0,0.3,0,0.5,0C115.5,0.2,115.3,0.2,115.1,0.2z"/>
			<path class="st2" d="M113,0.3c0.1,0,0.3,0,0.4,0C113.3,0.3,113.1,0.3,113,0.3z"/>
			<path class="st2" d="M111,0.3c0.1,0,0.2,0,0.3,0C111.2,0.3,111.1,0.3,111,0.3z"/>
			<path class="st2" d="M137.4,1.4c-2.3-0.4-6.1-0.8-10.7-1c2.6,0.1,5,0.3,7,0.5C135.2,1,136.4,1.2,137.4,1.4z"/>
			<path class="st2" d="M137.3,3.5C137.3,3.5,137.3,3.5,137.3,3.5C137.3,3.5,137.3,3.5,137.3,3.5z"/>
			<path class="st3" d="M96.1,2.1c0.1,0,0.1-0.1,0.2-0.1C96.2,2,96.1,2.1,96.1,2.1z"/>
			<path class="st3" d="M97.6,3.3c-0.2-0.1-0.4-0.1-0.6-0.2C97.1,3.2,97.3,3.2,97.6,3.3z"/>
			<path class="st3" d="M98.4,1.4C98.4,1.4,98.4,1.4,98.4,1.4C98.4,1.4,98.4,1.4,98.4,1.4z"/>
			<path class="st3" d="M96.6,1.8c0,0,0.1,0,0.1-0.1C96.7,1.8,96.7,1.8,96.6,1.8z"/>
			<path class="st3" d="M96.3,2.9c-0.1-0.1-0.2-0.1-0.2-0.2C96.1,2.8,96.2,2.8,96.3,2.9z"/>
			<path class="st3" d="M95.8,2.4c0-0.1,0-0.2,0.1-0.2C95.9,2.3,95.8,2.4,95.8,2.4z"/>
			<path class="st3" d="M96.8,3.1C96.6,3,96.5,3,96.4,2.9C96.5,3,96.6,3,96.8,3.1z"/>
			<path class="st3" d="M95.9,2.7c-0.1-0.1-0.1-0.2-0.1-0.2C95.8,2.5,95.9,2.6,95.9,2.7z"/>
			<path class="st3" d="M97.4,1.6C97.5,1.6,97.5,1.6,97.4,1.6C97.5,1.6,97.5,1.6,97.4,1.6z"/>
			<path class="st3" d="M98.5,3.5c1.7,0.3,4.1,0.6,7.1,0.8c-1.2-0.1-2.3-0.2-3.3-0.3C100.8,3.9,99.5,3.7,98.5,3.5z"/>
			<path class="st3" d="M98.5,3.5c-0.3-0.1-0.6-0.1-0.8-0.2C97.9,3.4,98.2,3.4,98.5,3.5z"/>
			<path class="st2" d="M96.3,2c0.1-0.1,0.2-0.1,0.4-0.2C96.5,1.9,96.4,1.9,96.3,2z"/>
			<path class="st2" d="M96.4,2.9c0,0-0.1,0-0.1,0C96.3,2.9,96.4,2.9,96.4,2.9z"/>
			<path class="st2" d="M95.9,2.2c0,0,0.1-0.1,0.2-0.1C96,2.1,96,2.2,95.9,2.2z"/>
			<path class="st2" d="M97.7,3.3c0,0-0.1,0-0.1,0C97.6,3.3,97.6,3.3,97.7,3.3z"/>
			<path class="st2" d="M98.5,3.5C98.5,3.5,98.5,3.5,98.5,3.5C98.5,3.5,98.5,3.5,98.5,3.5z"/>
			<path class="st2" d="M96.9,3.1c0,0-0.1,0-0.1,0C96.8,3.1,96.9,3.1,96.9,3.1z"/>
			<path class="st2" d="M96,2.7C96,2.7,95.9,2.7,96,2.7C95.9,2.7,96,2.7,96,2.7z"/>
			<path class="st2" d="M96.8,1.8c0.2-0.1,0.4-0.1,0.6-0.2C97.2,1.7,97,1.7,96.8,1.8z"/>
			<path class="st2" d="M120.2,0.2c0.2,0,0.3,0,0.5,0C120.5,0.2,120.4,0.2,120.2,0.2z"/>
			<path class="st2" d="M124.6,0.3c0.1,0,0.2,0,0.3,0C124.7,0.3,124.6,0.3,124.6,0.3z"/>
			<path class="st2" d="M109.1,0.4c-4.6,0.2-8.3,0.6-10.7,1c1-0.2,2.2-0.4,3.7-0.5C104.1,0.7,106.4,0.5,109.1,0.4z"/>
			<path class="st2" d="M126.6,0.4c0,0,0.1,0,0.1,0C126.7,0.4,126.7,0.4,126.6,0.4z"/>
			<path class="st2" d="M115.6,0.2c0.7,0,1.5,0,2.3,0C117.1,0.2,116.4,0.2,115.6,0.2z"/>
			<path class="st2" d="M122.4,0.3c0.1,0,0.3,0,0.4,0C122.7,0.3,122.5,0.3,122.4,0.3z"/>
			<path class="st2" d="M97.5,1.6c0.3-0.1,0.6-0.1,0.9-0.2C98.1,1.5,97.8,1.5,97.5,1.6z"/>
			<path class="st2" d="M109.2,0.4c0.6,0,1.2,0,1.8-0.1C110.4,0.4,109.8,0.4,109.2,0.4z"/>
			<path class="st2" d="M111.3,0.3c0.6,0,1.2,0,1.8,0C112.4,0.3,111.8,0.3,111.3,0.3z"/>
			<path class="st2" d="M113.4,0.3c0.6,0,1.2,0,1.7,0C114.6,0.2,114,0.3,113.4,0.3z"/>
			<path class="st2" d="M117.9,2.5l15.8-1.6c-2-0.2-4.3-0.4-7-0.5c0,0-0.1,0-0.1,0c-0.6,0-1.2,0-1.8-0.1c-0.1,0-0.2,0-0.3,0
				c-0.6,0-1.2,0-1.8,0c-0.1,0-0.3,0-0.4,0c-0.6,0-1.2,0-1.7,0c-0.2,0-0.3,0-0.5,0c-0.8,0-1.5,0-2.3,0c-0.8,0-1.5,0-2.3,0
				c-0.2,0-0.3,0-0.5,0c-0.6,0-1.2,0-1.7,0c-0.1,0-0.3,0-0.4,0c-0.6,0-1.2,0-1.8,0c-0.1,0-0.2,0-0.3,0c-0.6,0-1.2,0-1.8,0.1
				c0,0-0.1,0-0.1,0c-2.6,0.1-5,0.3-7,0.5L117.9,2.5z"/>
			<path class="st4" d="M117.9,2.5l15.8-1.6c-2-0.2-4.3-0.4-7-0.5c0,0-0.1,0-0.1,0c-0.6,0-1.2,0-1.8-0.1c-0.1,0-0.2,0-0.3,0
				c-0.6,0-1.2,0-1.8,0c-0.1,0-0.3,0-0.4,0c-0.6,0-1.2,0-1.7,0c-0.2,0-0.3,0-0.5,0c-0.8,0-1.5,0-2.3,0c-0.8,0-1.5,0-2.3,0
				c-0.2,0-0.3,0-0.5,0c-0.6,0-1.2,0-1.7,0c-0.1,0-0.3,0-0.4,0c-0.6,0-1.2,0-1.8,0c-0.1,0-0.2,0-0.3,0c-0.6,0-1.2,0-1.8,0.1
				c0,0-0.1,0-0.1,0c-2.6,0.1-5,0.3-7,0.5L117.9,2.5z"/>
			<path class="st3" d="M117.9,2.5l-15.8-1.6c-1.5,0.1-2.7,0.3-3.7,0.5c0,0,0,0,0,0c-0.3,0.1-0.6,0.1-0.9,0.2c0,0-0.1,0-0.1,0
				c-0.2,0.1-0.5,0.1-0.6,0.2c-0.1,0-0.1,0-0.1,0.1c-0.1,0.1-0.3,0.1-0.4,0.2c-0.1,0-0.1,0.1-0.2,0.1c-0.1,0-0.1,0.1-0.2,0.1
				c-0.1,0.1-0.1,0.1-0.1,0.2c0,0.1,0,0.2,0.1,0.2c0,0,0.1,0,0.1,0.1c0.1,0.1,0.1,0.1,0.2,0.2c0,0,0.1,0,0.1,0
				C96.5,3,96.6,3,96.8,3.1c0,0,0.1,0,0.1,0c0.2,0.1,0.4,0.1,0.6,0.2c0,0,0.1,0,0.1,0c0.3,0.1,0.5,0.1,0.8,0.2c0,0,0,0,0,0
				c1,0.2,2.3,0.4,3.8,0.5L117.9,2.5z"/>
			<path class="st2" d="M117.9,2.5l-15.8-1.6c-1.5,0.1-2.7,0.3-3.7,0.5c0,0,0,0,0,0c-0.3,0.1-0.6,0.1-0.9,0.2c0,0-0.1,0-0.1,0
				c-0.2,0.1-0.5,0.1-0.6,0.2c-0.1,0-0.1,0-0.1,0.1c-0.1,0.1-0.3,0.1-0.4,0.2c-0.1,0-0.1,0.1-0.2,0.1c-0.1,0-0.1,0.1-0.2,0.1
				c-0.1,0.1-0.1,0.1-0.1,0.2c0,0.1,0,0.2,0.1,0.2c0,0,0.1,0,0.1,0.1c0.1,0.1,0.1,0.1,0.2,0.2c0,0,0.1,0,0.1,0
				C96.5,3,96.6,3,96.8,3.1c0,0,0.1,0,0.1,0c0.2,0.1,0.4,0.1,0.6,0.2c0,0,0.1,0,0.1,0c0.3,0.1,0.5,0.1,0.8,0.2c0,0,0,0,0,0
				c1,0.2,2.3,0.4,3.8,0.5L117.9,2.5z"/>
			<path class="st3" d="M138.1,3.3c-0.2,0.1-0.5,0.1-0.8,0.2C137.6,3.4,137.9,3.4,138.1,3.3z"/>
			<path class="st3" d="M130.2,4.3c2.9-0.2,5.3-0.5,7-0.8c-1,0.2-2.3,0.4-3.8,0.5C132.5,4.1,131.4,4.2,130.2,4.3z"/>
			<path class="st3" d="M137.4,1.4C137.4,1.4,137.4,1.4,137.4,1.4C137.4,1.4,137.4,1.4,137.4,1.4z"/>
			<path class="st2" d="M138.3,3.3c0.2-0.1,0.4-0.1,0.6-0.2c0,0,0.1,0,0.1,0c0.2,0,0.3-0.1,0.4-0.2c0,0,0.1,0,0.2-0.1
				c0.1,0,0.2-0.1,0.2-0.1c0,0,0.1,0,0.1-0.1c0.1-0.1,0.1-0.2,0.1-0.2c0-0.1,0-0.2-0.1-0.2c0,0-0.1-0.1-0.2-0.1
				c-0.1,0-0.1-0.1-0.2-0.1c-0.1-0.1-0.2-0.1-0.4-0.2c0,0-0.1,0-0.1-0.1c-0.2-0.1-0.4-0.1-0.6-0.2c0,0-0.1,0-0.1,0
				c-0.3-0.1-0.6-0.1-0.9-0.2c0,0,0,0,0,0c-1-0.2-2.2-0.4-3.7-0.5l-15.8,1.6L133.5,4c1.5-0.1,2.8-0.3,3.8-0.5c0,0,0,0,0,0
				c0.3-0.1,0.5-0.1,0.8-0.2C138.2,3.3,138.2,3.3,138.3,3.3z"/>
			<path class="st2" d="M138.3,3.3c0.2-0.1,0.4-0.1,0.6-0.2c0,0,0.1,0,0.1,0c0.2,0,0.3-0.1,0.4-0.2c0,0,0.1,0,0.2-0.1
				c0.1,0,0.2-0.1,0.2-0.1c0,0,0.1,0,0.1-0.1c0.1-0.1,0.1-0.2,0.1-0.2c0-0.1,0-0.2-0.1-0.2c0,0-0.1-0.1-0.2-0.1
				c-0.1,0-0.1-0.1-0.2-0.1c-0.1-0.1-0.2-0.1-0.4-0.2c0,0-0.1,0-0.1-0.1c-0.2-0.1-0.4-0.1-0.6-0.2c0,0-0.1,0-0.1,0
				c-0.3-0.1-0.6-0.1-0.9-0.2c0,0,0,0,0,0c-1-0.2-2.2-0.4-3.7-0.5l-15.8,1.6L133.5,4c1.5-0.1,2.8-0.3,3.8-0.5c0,0,0,0,0,0
				c0.3-0.1,0.5-0.1,0.8-0.2C138.2,3.3,138.2,3.3,138.3,3.3z"/>
			<path class="st3" d="M117.9,2.5L102.3,4c1,0.1,2.1,0.2,3.3,0.3c0,0,0.1,0,0.1,0c0.6,0,1.1,0.1,1.7,0.1c0.2,0,0.4,0,0.5,0
				c0.5,0,0.9,0,1.4,0.1c0.3,0,0.5,0,0.8,0c0.4,0,0.8,0,1.2,0c0.4,0,0.8,0,1.3,0c0.3,0,0.6,0,0.9,0c0.5,0,1,0,1.4,0
				c0.3,0,0.5,0,0.8,0c0.7,0,1.5,0,2.3,0c0.8,0,1.5,0,2.3,0c0.3,0,0.5,0,0.8,0c0.5,0,1,0,1.4,0c0.3,0,0.6,0,0.9,0c0.4,0,0.8,0,1.3,0
				c0.4,0,0.8,0,1.2,0c0.3,0,0.5,0,0.8,0c0.5,0,0.9,0,1.4-0.1c0.2,0,0.4,0,0.5,0c0.6,0,1.1-0.1,1.7-0.1c0,0,0.1,0,0.1,0
				c1.2-0.1,2.3-0.2,3.3-0.3L117.9,2.5z"/>
			<path class="st3" d="M117.9,2.5L102.3,4c1,0.1,2.1,0.2,3.3,0.3c0,0,0.1,0,0.1,0c0.6,0,1.1,0.1,1.7,0.1c0.2,0,0.4,0,0.5,0
				c0.5,0,0.9,0,1.4,0.1c0.3,0,0.5,0,0.8,0c0.4,0,0.8,0,1.2,0c0.4,0,0.8,0,1.3,0c0.3,0,0.6,0,0.9,0c0.5,0,1,0,1.4,0
				c0.3,0,0.5,0,0.8,0c0.7,0,1.5,0,2.3,0c0.8,0,1.5,0,2.3,0c0.3,0,0.5,0,0.8,0c0.5,0,1,0,1.4,0c0.3,0,0.6,0,0.9,0c0.4,0,0.8,0,1.3,0
				c0.4,0,0.8,0,1.2,0c0.3,0,0.5,0,0.8,0c0.5,0,0.9,0,1.4-0.1c0.2,0,0.4,0,0.5,0c0.6,0,1.1-0.1,1.7-0.1c0,0,0.1,0,0.1,0
				c1.2-0.1,2.3-0.2,3.3-0.3L117.9,2.5z"/>
		</g>
	</g>
	<g>
		<path class="st2" d="M44.1,2.7c0,0-0.1,0-0.1,0.1C44,2.7,44,2.7,44.1,2.7z"/>
		<path class="st2" d="M43.7,2.9c0,0-0.1,0-0.2,0.1C43.6,2.9,43.7,2.9,43.7,2.9z"/>
		<path class="st2" d="M43.9,2.1c0.1,0,0.1,0.1,0.2,0.1C44,2.2,44,2.1,43.9,2.1z"/>
		<path class="st2" d="M43.4,1.8c0.1,0.1,0.3,0.1,0.4,0.2C43.6,1.9,43.5,1.9,43.4,1.8z"/>
		<path class="st2" d="M42.6,1.6c0.2,0.1,0.5,0.1,0.6,0.2C43,1.7,42.8,1.7,42.6,1.6z"/>
		<path class="st2" d="M43.2,3.1c0,0-0.1,0-0.1,0C43.1,3.1,43.2,3.1,43.2,3.1z"/>
		<path class="st2" d="M42.4,3.3c0,0-0.1,0-0.1,0C42.3,3.3,42.4,3.3,42.4,3.3z"/>
		<path class="st3" d="M17.6,4.6c-0.3,0-0.6,0-0.9,0C17.1,4.6,17.4,4.6,17.6,4.6z"/>
		<path class="st3" d="M13.5,4.5c-0.5,0-0.9,0-1.4-0.1C12.6,4.4,13,4.5,13.5,4.5z"/>
		<path class="st3" d="M34.4,4.3c0,0-0.1,0-0.1,0C34.3,4.3,34.4,4.3,34.4,4.3z"/>
		<path class="st3" d="M11.6,4.4c-0.6,0-1.2-0.1-1.7-0.1C10.4,4.3,11,4.4,11.6,4.4z"/>
		<path class="st3" d="M32.6,4.4c-0.2,0-0.4,0-0.5,0C32.2,4.4,32.4,4.4,32.6,4.4z"/>
		<path class="st3" d="M15.5,4.6c-0.4,0-0.8,0-1.2,0C14.7,4.5,15.1,4.5,15.5,4.6z"/>
		<path class="st3" d="M30.7,4.5c-0.3,0-0.5,0-0.8,0C30.2,4.5,30.4,4.5,30.7,4.5z"/>
		<path class="st3" d="M26.5,4.6c-0.5,0-1,0-1.4,0C25.6,4.6,26.1,4.6,26.5,4.6z"/>
		<path class="st3" d="M24.4,4.6c-0.7,0-1.5,0-2.3,0C22.9,4.7,23.6,4.7,24.4,4.6z"/>
		<path class="st3" d="M28.7,4.6c-0.4,0-0.8,0-1.3,0C27.8,4.6,28.2,4.6,28.7,4.6z"/>
		<path class="st3" d="M19.8,4.6c-0.3,0-0.5,0-0.8,0C19.3,4.6,19.6,4.6,19.8,4.6z"/>
		<path class="st3" d="M32.1,4.4c-0.5,0-0.9,0-1.4,0.1C31.2,4.5,31.6,4.4,32.1,4.4z"/>
		<path class="st3" d="M19.1,4.6c-0.5,0-1,0-1.4,0C18.1,4.6,18.6,4.6,19.1,4.6z"/>
		<path class="st3" d="M29.9,4.5c-0.4,0-0.8,0-1.2,0C29.1,4.5,29.5,4.5,29.9,4.5z"/>
		<path class="st3" d="M22.1,4.7c-0.8,0-1.5,0-2.3,0C20.6,4.7,21.3,4.7,22.1,4.7z"/>
		<path class="st3" d="M25.1,4.6c-0.3,0-0.5,0-0.8,0C24.6,4.6,24.8,4.6,25.1,4.6z"/>
		<path class="st3" d="M27.4,4.6c-0.3,0-0.6,0-0.9,0C26.8,4.6,27.1,4.6,27.4,4.6z"/>
		<path class="st3" d="M16.8,4.6c-0.4,0-0.8,0-1.3,0C15.9,4.6,16.4,4.6,16.8,4.6z"/>
		<path class="st3" d="M34.3,4.3c-0.5,0-1.1,0.1-1.7,0.1C33.2,4.4,33.7,4.3,34.3,4.3z"/>
		<path class="st3" d="M14.3,4.5c-0.3,0-0.5,0-0.8,0C13.8,4.5,14,4.5,14.3,4.5z"/>
		<path class="st3" d="M43.6,2.9C43.5,3,43.3,3,43.2,3.1C43.3,3,43.5,3,43.6,2.9z"/>
		<path class="st3" d="M44.2,2.4c0,0.1,0,0.2-0.1,0.2C44.1,2.6,44.2,2.5,44.2,2.4z"/>
		<path class="st3" d="M44.1,2.2c0.1,0.1,0.1,0.1,0.1,0.2C44.2,2.4,44.1,2.3,44.1,2.2z"/>
		<path class="st3" d="M43.1,3.1c-0.2,0.1-0.4,0.1-0.6,0.2C42.7,3.2,42.9,3.2,43.1,3.1z"/>
		<path class="st3" d="M44,2.7c-0.1,0-0.1,0.1-0.2,0.1C43.8,2.8,43.9,2.8,44,2.7z"/>
		<path class="st3" d="M9.8,4.3C9.8,4.3,9.8,4.3,9.8,4.3C9.8,4.3,9.8,4.3,9.8,4.3z"/>
		<path class="st3" d="M12.1,4.4c-0.2,0-0.4,0-0.5,0C11.8,4.4,11.9,4.4,12.1,4.4z"/>
		<path class="st3" d="M43.7,2c0.1,0,0.1,0.1,0.2,0.1C43.9,2.1,43.8,2,43.7,2z"/>
		<path class="st3" d="M43.2,1.8c0.1,0,0.1,0,0.1,0.1C43.3,1.8,43.3,1.8,43.2,1.8z"/>
		<path class="st3" d="M42.5,1.6C42.5,1.6,42.6,1.6,42.5,1.6C42.6,1.6,42.5,1.6,42.5,1.6z"/>
		<g>
			<path class="st2" d="M24.9,0.2c0.6,0,1.2,0,1.7,0C26,0.3,25.4,0.2,24.9,0.2z"/>
			<path class="st2" d="M22.1,0.2c0.8,0,1.5,0,2.3,0C23.6,0.2,22.9,0.2,22.1,0.2z"/>
			<path class="st2" d="M41.6,1.4c0.3,0.1,0.6,0.1,0.9,0.2C42.2,1.5,41.9,1.5,41.6,1.4z"/>
			<path class="st2" d="M27,0.3c0.6,0,1.2,0,1.8,0C28.2,0.3,27.6,0.3,27,0.3z"/>
			<path class="st2" d="M29,0.3c0.6,0,1.2,0,1.8,0.1C30.2,0.4,29.6,0.4,29,0.3z"/>
			<path class="st2" d="M13.3,0.4c0,0,0.1,0,0.1,0C13.3,0.4,13.3,0.4,13.3,0.4z"/>
			<path class="st2" d="M19.3,0.2c0.2,0,0.3,0,0.5,0C19.6,0.2,19.5,0.2,19.3,0.2z"/>
			<path class="st2" d="M17.2,0.3c0.1,0,0.3,0,0.4,0C17.5,0.3,17.3,0.3,17.2,0.3z"/>
			<path class="st2" d="M15.2,0.3c0.1,0,0.2,0,0.3,0C15.4,0.3,15.3,0.3,15.2,0.3z"/>
			<path class="st2" d="M41.6,1.4c-2.3-0.4-6.1-0.8-10.7-1c2.6,0.1,5,0.3,7,0.5C39.4,1,40.6,1.2,41.6,1.4z"/>
			<path class="st2" d="M41.5,3.5C41.5,3.5,41.5,3.5,41.5,3.5C41.5,3.5,41.5,3.5,41.5,3.5z"/>
			<path class="st3" d="M0.3,2.1C0.3,2.1,0.4,2,0.4,2C0.4,2,0.3,2.1,0.3,2.1z"/>
			<path class="st3" d="M1.7,3.3C1.5,3.2,1.3,3.2,1.1,3.1C1.3,3.2,1.5,3.2,1.7,3.3z"/>
			<path class="st3" d="M2.6,1.4C2.6,1.4,2.6,1.4,2.6,1.4C2.6,1.4,2.6,1.4,2.6,1.4z"/>
			<path class="st3" d="M0.8,1.8c0,0,0.1,0,0.1-0.1C0.9,1.8,0.9,1.8,0.8,1.8z"/>
			<path class="st3" d="M0.5,2.9C0.3,2.8,0.3,2.8,0.2,2.7C0.3,2.8,0.3,2.8,0.5,2.9z"/>
			<path class="st3" d="M0,2.4c0-0.1,0-0.2,0.1-0.2C0,2.3,0,2.4,0,2.4z"/>
			<path class="st3" d="M1,3.1C0.8,3,0.7,3,0.6,2.9C0.7,3,0.8,3,1,3.1z"/>
			<path class="st3" d="M0.1,2.7C0,2.6,0,2.5,0,2.4C0,2.5,0,2.6,0.1,2.7z"/>
			<path class="st3" d="M1.6,1.6C1.6,1.6,1.7,1.6,1.6,1.6C1.7,1.6,1.6,1.6,1.6,1.6z"/>
			<path class="st3" d="M2.7,3.5c1.7,0.3,4.1,0.6,7.1,0.8C8.6,4.2,7.5,4.1,6.5,4C5,3.9,3.7,3.7,2.7,3.5z"/>
			<path class="st3" d="M2.7,3.5C2.4,3.4,2.1,3.4,1.8,3.3C2.1,3.4,2.4,3.4,2.7,3.5z"/>
			<path class="st2" d="M0.4,2c0.1-0.1,0.2-0.1,0.4-0.2C0.7,1.9,0.5,1.9,0.4,2z"/>
			<path class="st2" d="M0.6,2.9c0,0-0.1,0-0.1,0C0.5,2.9,0.5,2.9,0.6,2.9z"/>
			<path class="st2" d="M0.1,2.2c0,0,0.1-0.1,0.2-0.1C0.2,2.1,0.2,2.2,0.1,2.2z"/>
			<path class="st2" d="M1.8,3.3c0,0-0.1,0-0.1,0C1.8,3.3,1.8,3.3,1.8,3.3z"/>
			<path class="st2" d="M2.7,3.5C2.7,3.5,2.7,3.5,2.7,3.5C2.7,3.5,2.7,3.5,2.7,3.5z"/>
			<path class="st2" d="M1.1,3.1c0,0-0.1,0-0.1,0C1,3.1,1.1,3.1,1.1,3.1z"/>
			<path class="st2" d="M0.2,2.7C0.2,2.7,0.1,2.7,0.2,2.7C0.1,2.7,0.2,2.7,0.2,2.7z"/>
			<path class="st2" d="M1,1.8c0.2-0.1,0.4-0.1,0.6-0.2C1.4,1.7,1.2,1.7,1,1.8z"/>
			<path class="st2" d="M24.4,0.2c0.2,0,0.3,0,0.5,0C24.7,0.2,24.5,0.2,24.4,0.2z"/>
			<path class="st2" d="M28.7,0.3c0.1,0,0.2,0,0.3,0C28.9,0.3,28.8,0.3,28.7,0.3z"/>
			<path class="st2" d="M13.3,0.4C8.7,0.6,4.9,1,2.6,1.4c1-0.2,2.2-0.4,3.7-0.5C8.3,0.7,10.6,0.5,13.3,0.4z"/>
			<path class="st2" d="M30.8,0.4c0,0,0.1,0,0.1,0C30.9,0.4,30.9,0.4,30.8,0.4z"/>
			<path class="st2" d="M19.8,0.2c0.7,0,1.5,0,2.3,0C21.3,0.2,20.6,0.2,19.8,0.2z"/>
			<path class="st2" d="M26.6,0.3c0.1,0,0.3,0,0.4,0C26.9,0.3,26.7,0.3,26.6,0.3z"/>
			<path class="st2" d="M1.7,1.6C2,1.5,2.3,1.5,2.6,1.4C2.3,1.5,2,1.5,1.7,1.6z"/>
			<path class="st2" d="M13.4,0.4c0.6,0,1.2,0,1.8-0.1C14.6,0.4,14,0.4,13.4,0.4z"/>
			<path class="st2" d="M15.4,0.3c0.6,0,1.2,0,1.8,0C16.6,0.3,16,0.3,15.4,0.3z"/>
			<path class="st2" d="M17.6,0.3c0.6,0,1.2,0,1.7,0C18.7,0.2,18.2,0.3,17.6,0.3z"/>
			<path class="st2" d="M22.1,2.5l15.8-1.6c-2-0.2-4.3-0.4-7-0.5c0,0-0.1,0-0.1,0c-0.6,0-1.2,0-1.8-0.1c-0.1,0-0.2,0-0.3,0
				c-0.6,0-1.2,0-1.8,0c-0.1,0-0.3,0-0.4,0c-0.6,0-1.2,0-1.7,0c-0.2,0-0.3,0-0.5,0c-0.8,0-1.5,0-2.3,0c-0.8,0-1.5,0-2.3,0
				c-0.2,0-0.3,0-0.5,0c-0.6,0-1.2,0-1.7,0c-0.1,0-0.3,0-0.4,0c-0.6,0-1.2,0-1.8,0c-0.1,0-0.2,0-0.3,0c-0.6,0-1.2,0-1.8,0.1
				c0,0-0.1,0-0.1,0c-2.6,0.1-5,0.3-7,0.5L22.1,2.5z"/>
			<path class="st4" d="M22.1,2.5l15.8-1.6c-2-0.2-4.3-0.4-7-0.5c0,0-0.1,0-0.1,0c-0.6,0-1.2,0-1.8-0.1c-0.1,0-0.2,0-0.3,0
				c-0.6,0-1.2,0-1.8,0c-0.1,0-0.3,0-0.4,0c-0.6,0-1.2,0-1.7,0c-0.2,0-0.3,0-0.5,0c-0.8,0-1.5,0-2.3,0c-0.8,0-1.5,0-2.3,0
				c-0.2,0-0.3,0-0.5,0c-0.6,0-1.2,0-1.7,0c-0.1,0-0.3,0-0.4,0c-0.6,0-1.2,0-1.8,0c-0.1,0-0.2,0-0.3,0c-0.6,0-1.2,0-1.8,0.1
				c0,0-0.1,0-0.1,0c-2.6,0.1-5,0.3-7,0.5L22.1,2.5z"/>
			<path class="st3" d="M22.1,2.5L6.3,0.9C4.8,1,3.6,1.2,2.6,1.4c0,0,0,0,0,0C2.3,1.5,2,1.5,1.7,1.6c0,0-0.1,0-0.1,0
				C1.4,1.7,1.2,1.7,1,1.8c-0.1,0-0.1,0-0.1,0.1C0.7,1.9,0.5,1.9,0.4,2C0.4,2,0.3,2.1,0.3,2.1c-0.1,0-0.1,0.1-0.2,0.1
				C0,2.3,0,2.4,0,2.4c0,0.1,0,0.2,0.1,0.2c0,0,0.1,0,0.1,0.1c0.1,0.1,0.1,0.1,0.2,0.2c0,0,0.1,0,0.1,0C0.7,3,0.8,3,1,3.1
				c0,0,0.1,0,0.1,0c0.2,0.1,0.4,0.1,0.6,0.2c0,0,0.1,0,0.1,0c0.3,0.1,0.5,0.1,0.8,0.2c0,0,0,0,0,0C3.7,3.7,5,3.9,6.5,4L22.1,2.5z"
				/>
			<path class="st2" d="M22.1,2.5L6.3,0.9C4.8,1,3.6,1.2,2.6,1.4c0,0,0,0,0,0C2.3,1.5,2,1.5,1.7,1.6c0,0-0.1,0-0.1,0
				C1.4,1.7,1.2,1.7,1,1.8c-0.1,0-0.1,0-0.1,0.1C0.7,1.9,0.5,1.9,0.4,2C0.4,2,0.3,2.1,0.3,2.1c-0.1,0-0.1,0.1-0.2,0.1
				C0,2.3,0,2.4,0,2.4c0,0.1,0,0.2,0.1,0.2c0,0,0.1,0,0.1,0.1c0.1,0.1,0.1,0.1,0.2,0.2c0,0,0.1,0,0.1,0C0.7,3,0.8,3,1,3.1
				c0,0,0.1,0,0.1,0c0.2,0.1,0.4,0.1,0.6,0.2c0,0,0.1,0,0.1,0c0.3,0.1,0.5,0.1,0.8,0.2c0,0,0,0,0,0C3.7,3.7,5,3.9,6.5,4L22.1,2.5z"
				/>
			<path class="st3" d="M42.3,3.3c-0.2,0.1-0.5,0.1-0.8,0.2C41.8,3.4,42.1,3.4,42.3,3.3z"/>
			<path class="st3" d="M34.4,4.3c2.9-0.2,5.3-0.5,7-0.8c-1,0.2-2.3,0.4-3.8,0.5C36.7,4.1,35.6,4.2,34.4,4.3z"/>
			<path class="st3" d="M41.6,1.4C41.6,1.4,41.6,1.4,41.6,1.4C41.6,1.4,41.6,1.4,41.6,1.4z"/>
			<path class="st2" d="M42.4,3.3c0.2-0.1,0.4-0.1,0.6-0.2c0,0,0.1,0,0.1,0c0.2,0,0.3-0.1,0.4-0.2c0,0,0.1,0,0.2-0.1
				c0.1,0,0.2-0.1,0.2-0.1c0,0,0.1,0,0.1-0.1c0.1-0.1,0.1-0.2,0.1-0.2c0-0.1,0-0.2-0.1-0.2c0,0-0.1-0.1-0.2-0.1
				c-0.1,0-0.1-0.1-0.2-0.1c-0.1-0.1-0.2-0.1-0.4-0.2c0,0-0.1,0-0.1-0.1c-0.2-0.1-0.4-0.1-0.6-0.2c0,0-0.1,0-0.1,0
				c-0.3-0.1-0.6-0.1-0.9-0.2c0,0,0,0,0,0c-1-0.2-2.2-0.4-3.7-0.5L22.1,2.5L37.7,4c1.5-0.1,2.8-0.3,3.8-0.5c0,0,0,0,0,0
				c0.3-0.1,0.5-0.1,0.8-0.2C42.3,3.3,42.4,3.3,42.4,3.3z"/>
			<path class="st2" d="M42.4,3.3c0.2-0.1,0.4-0.1,0.6-0.2c0,0,0.1,0,0.1,0c0.2,0,0.3-0.1,0.4-0.2c0,0,0.1,0,0.2-0.1
				c0.1,0,0.2-0.1,0.2-0.1c0,0,0.1,0,0.1-0.1c0.1-0.1,0.1-0.2,0.1-0.2c0-0.1,0-0.2-0.1-0.2c0,0-0.1-0.1-0.2-0.1
				c-0.1,0-0.1-0.1-0.2-0.1c-0.1-0.1-0.2-0.1-0.4-0.2c0,0-0.1,0-0.1-0.1c-0.2-0.1-0.4-0.1-0.6-0.2c0,0-0.1,0-0.1,0
				c-0.3-0.1-0.6-0.1-0.9-0.2c0,0,0,0,0,0c-1-0.2-2.2-0.4-3.7-0.5L22.1,2.5L37.7,4c1.5-0.1,2.8-0.3,3.8-0.5c0,0,0,0,0,0
				c0.3-0.1,0.5-0.1,0.8-0.2C42.3,3.3,42.4,3.3,42.4,3.3z"/>
			<path class="st3" d="M22.1,2.5L6.5,4c1,0.1,2.1,0.2,3.3,0.3c0,0,0.1,0,0.1,0c0.6,0,1.1,0.1,1.7,0.1c0.2,0,0.4,0,0.5,0
				c0.5,0,0.9,0,1.4,0.1c0.3,0,0.5,0,0.8,0c0.4,0,0.8,0,1.2,0c0.4,0,0.8,0,1.3,0c0.3,0,0.6,0,0.9,0c0.5,0,1,0,1.4,0
				c0.3,0,0.5,0,0.8,0c0.7,0,1.5,0,2.3,0s1.5,0,2.3,0c0.3,0,0.5,0,0.8,0c0.5,0,1,0,1.4,0c0.3,0,0.6,0,0.9,0c0.4,0,0.8,0,1.3,0
				c0.4,0,0.8,0,1.2,0c0.3,0,0.5,0,0.8,0c0.5,0,0.9,0,1.4-0.1c0.2,0,0.4,0,0.5,0c0.6,0,1.1-0.1,1.7-0.1c0,0,0.1,0,0.1,0
				c1.2-0.1,2.3-0.2,3.3-0.3L22.1,2.5z"/>
			<path class="st3" d="M22.1,2.5L6.5,4c1,0.1,2.1,0.2,3.3,0.3c0,0,0.1,0,0.1,0c0.6,0,1.1,0.1,1.7,0.1c0.2,0,0.4,0,0.5,0
				c0.5,0,0.9,0,1.4,0.1c0.3,0,0.5,0,0.8,0c0.4,0,0.8,0,1.2,0c0.4,0,0.8,0,1.3,0c0.3,0,0.6,0,0.9,0c0.5,0,1,0,1.4,0
				c0.3,0,0.5,0,0.8,0c0.7,0,1.5,0,2.3,0s1.5,0,2.3,0c0.3,0,0.5,0,0.8,0c0.5,0,1,0,1.4,0c0.3,0,0.6,0,0.9,0c0.4,0,0.8,0,1.3,0
				c0.4,0,0.8,0,1.2,0c0.3,0,0.5,0,0.8,0c0.5,0,0.9,0,1.4-0.1c0.2,0,0.4,0,0.5,0c0.6,0,1.1-0.1,1.7-0.1c0,0,0.1,0,0.1,0
				c1.2-0.1,2.3-0.2,3.3-0.3L22.1,2.5z"/>
		</g>
	</g>
	<g>
		<rect x="116.8" y="17.3" class="st5" width="2.1" height="9.4"/>
		<rect x="116.2" y="19.9" class="st9" width="3.6" height="0.6"/>
		<rect x="116.2" y="21.2" class="st9" width="3.6" height="0.6"/>
		<rect x="114.5" y="23.8" class="st5" width="3.4" height="2.3"/>
		<linearGradient id="SVGID_2_" gradientUnits="userSpaceOnUse" x1="115.8365" y1="28.5943" x2="119.976" y2="28.5943">
			<stop  offset="1.708984e-03" style="stop-color:#BC3511"/>
			<stop  offset="0.3102" style="stop-color:#DB552A"/>
			<stop  offset="0.5622" style="stop-color:#D44D24"/>
			<stop  offset="0.9414" style="stop-color:#C03914"/>
			<stop  offset="1" style="stop-color:#BC3511"/>
		</linearGradient>
		<path class="st12" d="M115.8,26.8c0,0,4.1,0,4.1,0v2.1l-1.4,1.5h-1.4l-1.4-1.5V26.8z"/>
		<ellipse class="st11" cx="114.2" cy="24.9" rx="1.5" ry="2"/>
	</g>
	<g>
		
			<rect x="26.8" y="30.8" transform="matrix(-1 -4.141366e-11 4.141366e-11 -1 55.6687 70.9694)" class="st5" width="2.1" height="9.4"/>
		
			<rect x="25.9" y="33.3" transform="matrix(-1 -4.533586e-11 4.533586e-11 -1 55.4267 67.2898)" class="st9" width="3.6" height="0.6"/>
		
			<rect x="25.9" y="34.6" transform="matrix(-1 -4.508539e-11 4.508539e-11 -1 55.4267 69.8074)" class="st9" width="3.6" height="0.6"/>
		
			<rect x="27.8" y="37.2" transform="matrix(-1 -4.476565e-11 4.476565e-11 -1 59.082 76.7307)" class="st5" width="3.4" height="2.3"/>
		
			<linearGradient id="SVGID_3_" gradientUnits="userSpaceOnUse" x1="-4508.1367" y1="42.0207" x2="-4503.9971" y2="42.0207" gradientTransform="matrix(-1 0 0 1 -4478.2324 0)">
			<stop  offset="1.708984e-03" style="stop-color:#BC3511"/>
			<stop  offset="0.3102" style="stop-color:#DB552A"/>
			<stop  offset="0.5622" style="stop-color:#D44D24"/>
			<stop  offset="0.9414" style="stop-color:#C03914"/>
			<stop  offset="1" style="stop-color:#BC3511"/>
		</linearGradient>
		<path class="st13" d="M29.9,40.2c0,0-4.1,0-4.1,0v2.1l1.4,1.5h1.4l1.4-1.5V40.2z"/>
		<ellipse class="st11" cx="31.6" cy="38.3" rx="1.5" ry="2"/>
	</g>
	<g>
		
			<rect x="21.1" y="17.3" transform="matrix(-1 -4.610990e-11 4.610990e-11 -1 44.2366 44.1166)" class="st5" width="2.1" height="9.4"/>
		
			<rect x="20.2" y="19.9" transform="matrix(-1 -4.508539e-11 4.508539e-11 -1 43.9946 40.4371)" class="st9" width="3.6" height="0.6"/>
		
			<rect x="20.2" y="21.2" transform="matrix(-1 -4.533586e-11 4.533586e-11 -1 43.9946 42.9547)" class="st9" width="3.6" height="0.6"/>
		
			<rect x="22.1" y="23.8" transform="matrix(-1 -4.503210e-11 4.503210e-11 -1 47.6499 49.878)" class="st5" width="3.4" height="2.3"/>
		
			<linearGradient id="SVGID_4_" gradientUnits="userSpaceOnUse" x1="-4502.4204" y1="28.5943" x2="-4498.2813" y2="28.5943" gradientTransform="matrix(-1 0 0 1 -4478.2324 0)">
			<stop  offset="1.708984e-03" style="stop-color:#BC3511"/>
			<stop  offset="0.3102" style="stop-color:#DB552A"/>
			<stop  offset="0.5622" style="stop-color:#D44D24"/>
			<stop  offset="0.9414" style="stop-color:#C03914"/>
			<stop  offset="1" style="stop-color:#BC3511"/>
		</linearGradient>
		<path class="st14" d="M24.2,26.8c0,0-4.1,0-4.1,0v2.1l1.4,1.5h1.4l1.4-1.5V26.8z"/>
		<ellipse class="st11" cx="25.9" cy="24.9" rx="1.5" ry="2"/>
	</g>
</g>
</svg>
