<?xml version="1.0" encoding="utf-8"?>
<!-- Generator: Adobe Illustrator 26.0.1, SVG Export Plug-In . SVG Version: 6.00 Build 0)  -->
<svg version="1.1" id="圖層_1" xmlns="http://www.w3.org/2000/svg" xmlns:xlink="http://www.w3.org/1999/xlink" x="0px" y="0px"
	 viewBox="0 0 240 600" style="enable-background:new 0 0 240 600;" xml:space="preserve">
<style type="text/css">
	.st0{clip-path:url(#SVGID_00000035499091626467737890000010710487979915805354_);}
	.st1{fill:#09BDC6;}
	.st2{fill:#FFEFDB;}
	.st3{fill:#717EB9;}
	.st4{fill:#461827;}
	.st5{fill:#F0A755;}
	.st6{fill:#5A3B47;}
	.st7{fill:#FFA097;}
	.st8{fill:#FF837E;}
	.st9{fill:#30333D;}
	.st10{fill:#FFFFFF;}
	.st11{opacity:0.5;}
	.st12{fill:#B95542;}
	.st13{fill:#CE5252;}
	.st14{fill:#8291C4;}
	.st15{fill:none;stroke:#461827;stroke-width:1.338;stroke-linecap:round;stroke-miterlimit:10;}
	.st16{fill:#E5DFE6;}
	.st17{fill:#F4F2F4;}
	.st18{fill:#D6D0D8;}
	.st19{fill:#999999;}
	.st20{fill:#05AFAF;}
	.st21{fill:#87511E;}
	.st22{fill:#3A0A1B;}
</style>
<g>
	<g>
		<defs>
			<path id="SVGID_1_" d="M41.1,590.6c11.1,5.6,57.8,3.5,85,5.6s77-0.4,94.1-5.6c17.1-5.2,4.5-130.4,4.5-130.4l59.4-89.7l46.5-65.4
				l12.4-95.5c0,0-52.4-78.2-55.4-78.3s-110.7-36-110.7-36L224.6,42L185.4,5.9c0,0-107.3-12-108.8-10.2C75-2.5,4.2,60.4,4.2,60.4
				l5.9,50.2l32.4,28.8L-57,235.6l75.4,99.1L37.1,447L41.1,590.6z"/>
		</defs>
		<clipPath id="SVGID_00000139976922086899412680000005129587313525712040_">
			<use xlink:href="#SVGID_1_"  style="overflow:visible;"/>
		</clipPath>
		<g style="clip-path:url(#SVGID_00000139976922086899412680000005129587313525712040_);">
			<path class="st1" d="M59.5,295.9c0,0-6.9,2.4-9.3,5.3c-2.4,2.9-4.9,14.6-7.8,16.4c-2.9,1.8-12.7,3.2-13,5.6s2.6,6.5,8.1,8.2
				s15.6-0.5,19.3-2.2s11.8-31.6,11.8-31.6L59.5,295.9z"/>
			<g>
				<g>
					<path class="st2" d="M119.4,253.4c0.3,0,0.6,0,1,0H119.4z"/>
				</g>
				<g>
					<g>
						<g>
							<g>
								<path class="st1" d="M81.5,289.7c1.8-2.4,2.9-0.6,5.7,0.2c2.8,0.8,5.5,2.3,8.4,2.7c2.5,0.3,4.9-0.2,7.4-0.3
									c2.5-0.1,5.2,0.5,6.8,2.4c1.3,1.6,1.5,3.8,2.6,5.5c1.1,1.8,3,2.9,4.9,3.8c1.9,0.8,3.9,1.5,5.7,2.5c0.9,0.5,1.7,1.1,2.1,2
									s0.3,2.1-0.5,2.7c-1.1,0.8-2.5,1.2-3.5,2.1c-1.5,1.3-0.1,2.9-1.2,4.6c-0.8,1.3-2.7,1.2-4.2,1s-2.1,0.6-2.8,1.9
									c-0.8,1.3-1,2.3-1.7,3.7c-0.7,1.5-2.9,1.6-4.5,1.1s-1.5-1-3.1-0.3c-1.1,0.4-3.6,1.2-4.7,1.6s-2.4,0.1-3.4-0.5
									s-1.8-1.5-2.6-2.3c-2.3-2.3-4.9-4.6-7.9-6c-2.6-1.2-3.1,0-5.2-1.9s-8.5-3.6-9.9-6.1s-5.8-6.3-8.4-7.3
									c3.5-3.4,13.9-14,16.7-18L81.5,289.7z"/>
							</g>
							<path class="st3" d="M99.9,134.7c0,0-12.6-1.5-24,4.2s-19.6,9.2-34,23.4S7.7,194.4,3.5,206.9s0.1,29.3,5.5,38
								c5.3,8.8,14.3,24.5,23.6,39c5.8,9,12.2,19.3,12.2,19.3s9.1,0.1,15.4-2.7c6.6-2.9,13.9-10.4,13.9-10.4s-28-51.7-30.9-57
								s-6-12.3-5.9-12.6c0.1-0.4,13-14.6,16.6-17.4c3.6-2.8,13.7-9.6,13.7-9.6s32-16.3,35.3-29C106.3,151.8,115.4,145,99.9,134.7z"
								/>
							<g>
								<path class="st4" d="M16.7,212.7c7.3,0.8,14.5,2.5,21.4,5.2c-2.8-3-6.3-5.4-10.2-6.6C24.1,210.2,19.8,210.5,16.7,212.7z"/>
							</g>
							<g>
								<path class="st4" d="M11.5,225.9c8.6-4,17.6-6.6,26.6-7.8c-4.5-2-9.6-2.9-14.5-1.7C18.7,217.5,14,220.9,11.5,225.9z"/>
							</g>
						</g>
						<g>
							<g>
								<g>
									<g>
										<path class="st5" d="M203.6,37.4c4.9,18.2-34,44.4-86.7,58.6s-99.5,10.9-104.4-7.3S74.6,11.7,93,6.8
											S198.7,19.2,203.6,37.4z"/>
									</g>
								</g>
								<g>
									<g>
										
											<ellipse transform="matrix(0.9659 -0.2591 0.2591 0.9659 -12.8269 30.0536)" class="st4" cx="107.6" cy="63.7" rx="93.3" ry="32.2"/>
									</g>
								</g>
							</g>
							<g>
								<path class="st6" d="M171.4,18.4c-22.1,1.2-45.9,3.6-69.4,9.2C73.5,34.4,48.5,45.3,27.4,60c-1,1.2-2,2.4-3,3.6
									C46,47.7,72.2,36,102.2,28.8c24.5-5.8,49.4-8.3,72.3-9.3C173.5,19.1,172.5,18.8,171.4,18.4z"/>
								<path class="st6" d="M53.4,42.3c2.1-1.9,4.1-3.9,6.2-5.8C68,32.6,77.1,29.1,86.8,26c-0.3,1.9-0.6,3.8-0.8,5.7
									c0.7-1.9,1.3-4,1.8-6c3.3-1,6.6-2,10.1-3c3.4-0.9,6.9-1.8,10.3-2.6c1.2,1.3,2.5,2.5,3.8,3.6c-1-1.3-2-2.6-3-3.8
									c9.2-2.2,18.5-4,27.8-5.7c7.6,1.2,15.1,2.5,22.7,3.9c-6.3-1.9-12.7-3.4-19.1-4.5c2.7-0.5,5.4-0.9,8.2-1.4
									c-1.1-0.2-2.1-0.5-3.2-0.7c-2.9,0.5-5.7,1-8.6,1.5c-3.4-0.5-6.7-0.9-10.1-1.3c4-0.6,8.1-1.1,12.2-1.6
									c-1.4-0.3-2.7-0.5-4-0.8c-4.4,0.5-8.8,1.2-13.1,1.9c-3.3-0.2-6.5-0.4-9.8-0.5c2.4,0.3,4.8,0.6,7.3,0.9
									c-5,0.9-9.9,1.8-14.9,3c-1.8-1.9-3.7-3.7-5.7-5.3c1.7,1.8,3.3,3.6,5,5.5c-4.8,1.1-9.6,2.3-14.3,3.7c0.3-2.1,0.5-4.3,0.7-6.4
									c-0.2,0-0.4,0.1-0.6,0.1c-0.5,2.2-0.9,4.4-1.3,6.6c-5,1.4-9.9,3-14.9,4.7c2-1.9,4-3.8,6-5.7l5.5-4.9
									c-5.4,3.5-10.5,7.5-15.3,11.9c-3.2,1.1-6.3,2.3-9.4,3.6c-1,0.8-2,1.7-3,2.5c3.4-1.4,6.7-2.7,10.1-4
									c-2.7,2.6-5.3,5.4-7.9,8.2c-5.6,2.6-10.9,5.3-16,8.2c-1.2,1.2-2.5,2.4-3.7,3.6c5.6-3.4,11.5-6.6,17.7-9.6
									C55.9,39.1,54.6,40.7,53.4,42.3z M123.4,12.3c3.2,0.4,6.4,0.9,9.7,1.4c-8.4,1.5-16.7,3.2-25,5.2c-0.9-1.1-1.9-2.1-2.8-3.1
									C111.3,14.4,117.3,13.3,123.4,12.3z M104.4,16c0.9,1.1,1.9,2.1,2.8,3.1c-3.2,0.8-6.5,1.6-9.7,2.5s-6.3,1.8-9.4,2.8
									c0.3-1.5,0.6-2.9,0.8-4.4C94.1,18.5,99.2,17.2,104.4,16z M70.9,25.7c5.5-2,11.1-3.8,16.8-5.4c-0.3,1.5-0.5,3-0.7,4.4
									c-8.7,2.8-17,5.8-24.7,9.2C65.1,31.2,68,28.5,70.9,25.7z"/>
							</g>
						</g>
						<g>
							<g>
								<path class="st7" d="M128.1,153.1c7.5-2.6,19.3-14.4,24.3-27.4c-0.7-0.4-1.5-0.9-2.2-1.6c-6.8-6.2-13.2-17-13.3-26.4
									l-33.9,4.6c-0.1,9.4,0.7,20-6.1,26.2c-0.7,0.6-1.5,1.3-2.4,1.9C102.2,145,111.7,156.9,128.1,153.1z"/>
							</g>
							<g>
								<path class="st8" d="M136.8,97.6l-33.9,4.6c0,2.9,0,5.9-0.1,8.9c4.4,14.5,11.4,28.4,16.9,42.5c2.6,0.3,5.3,0.1,8.3-0.6
									c4.4-1.5,10.1-6.2,15.2-12.3c-1-9.9-2.1-19.7-2.8-29.8C138.3,106.6,136.9,102,136.8,97.6z"/>
							</g>
							<g>
								<path class="st4" d="M128.1,123.8c5.4-3.2,9.5-7.2,12.8-11.9c-2.4-4.6-4-9.6-4.1-14.3l-33.9,4.6c0,3.5,0.1,7.2-0.2,10.8
									C108.5,121.9,116.4,128.5,128.1,123.8z"/>
							</g>
						</g>
						<g>
							<path class="st4" d="M75.5,226.8c-1.2-19.9-2.3-40.3,1.5-59.4c3.8,0.8,6.5,6,8,11.4c3.7,13.5,2.2,29-0.4,43.1
								s-6.3,28-6.9,42.6C77,252,76.2,239.4,75.5,226.8z"/>
						</g>
						<g>
							<path class="st9" d="M192.7,330.5c-1.6-23-7.2-43.3-15.3-63.4l-101.4-3c-9.1,22.3-13.3,48.8-14.3,74.3
								c-0.1,2.5-0.2,8.3-0.2,15.1C43.9,469.3,61.9,515,66,591.6l40.3-1.7c5.9-64.4,15.2-140.4,25.5-204.3
								c8.3,66,25.1,143.4,31.1,209.7h38.2C210.6,520.9,211.8,392.7,192.7,330.5z"/>
						</g>
						<g>
							<g>
								<g>
									<path class="st10" d="M176.3,403l12.1-2.5l-2.5-12.1l-12.1,2.5L176.3,403z M183,392.9l1,4.7l-4.7,1l-1-4.7L183,392.9z"/>
									
										<rect x="176.2" y="381.1" transform="matrix(0.979 -0.2039 0.2039 0.979 -74.4533 44.4748)" class="st10" width="4.8" height="4.8"/>
								</g>
								<path class="st10" d="M171.3,378.7c0,0-1.2-5.6-1.4-6.8c-0.5-2.5,0.9-4,2.4-4.3c1.1-0.2,1.9,0,2.8,1c0.2-1.5,1-2.5,2.5-2.8
									c1.7-0.4,3.9,0.5,4.5,3.5c0.3,1.7,1.4,6.8,1.4,6.8L171.3,378.7z M179.9,373.1c0,0-0.3-1.6-0.5-2.4c-0.2-0.9-0.9-1.1-1.4-1
									c0.3-0.1-1,0.1-0.8,1.3c0.1,0.7,0.5,2.6,0.5,2.6L179.9,373.1z M175.3,374c0,0-0.2-1.1-0.4-2c-0.2-0.9-0.7-1.2-1.3-1
									c-0.1,0-0.9,0.2-0.7,1.2c-0.1-0.4,0.5,2.2,0.5,2.2L175.3,374z"/>
								<path class="st10" d="M168.2,363.8l-0.8-3.9l11.2-7l0.8,4l-1.7,1l0.8,3.7l1.9,0.1l0.8,4L168.2,363.8z M171.4,361.3l4.3,0.2
									l-0.5-2.2L171.4,361.3z"/>
								<path class="st10" d="M168.7,348.5l-0.8-3.7c-2.1,0.4-3.6,2.4-2.9,6.1c0.8,4,3.3,4.8,5,4.5c2.6-0.5,2.7-3.9,2.7-4
									c0.1-0.5,0.2-2.6,0.2-3.2c0.1-0.5,0.3-0.9,0.8-1c0.7-0.1,1.2,0.6,1.4,1.3c0.1,0.5,0.3,2-1.3,2.3l0.8,3.9
									c2.1-0.4,4.2-2.4,3.4-6.5c-0.9-4.5-3.9-4.9-5.3-4.6c-1.2,0.2-2.3,1.2-2.6,2.9c-0.2,1-0.2,2.6-0.3,3.4c0,0.4,0,1.8-0.8,1.9
									c-1,0.2-1.2-1.5-1.2-1.2C167.5,349.6,167.8,348.7,168.7,348.5z"/>
								<polygon class="st10" points="164.1,344.5 162.2,335.2 165.4,334.5 166.6,340.1 168.7,339.7 167.7,334.7 170.7,334.1 
									171.8,339.1 175.5,338.3 176.3,342 								"/>
							</g>
							<g>
								<polygon class="st10" points="197.1,393.6 197,393.6 192.9,395.7 193.1,396.4 197.7,396.7 197.7,396.8 197.7,396.8 
									193.5,398.7 193.7,399.4 198.6,397 198.5,396.3 193.8,396 193.8,395.9 193.8,395.9 198,393.8 197.8,393.1 192.3,392.8 
									192.4,393.4 197,393.6 								"/>
								<path class="st10" d="M193.8,389.2c-0.2,0.2-0.3,0.4-0.4,0.6c-0.1,0.2-0.1,0.5,0,0.9c0.1,0.3,0.2,0.5,0.3,0.7
									c0.1,0.2,0.3,0.4,0.5,0.5c0.2,0.1,0.4,0.2,0.7,0.2s0.5,0,0.8,0c0.3-0.1,0.5-0.2,0.8-0.3c0.2-0.1,0.4-0.3,0.6-0.5
									c0.1-0.2,0.2-0.4,0.3-0.6c0.1-0.2,0-0.5,0-0.8c-0.1-0.4-0.3-0.8-0.5-1c-0.3-0.2-0.6-0.3-1-0.3l0.1,0.6
									c0.3,0,0.5,0.1,0.6,0.2c0.2,0.1,0.3,0.4,0.3,0.6c0,0.2,0,0.4,0,0.6c0,0.2-0.1,0.3-0.2,0.4c-0.1,0.1-0.2,0.2-0.4,0.3
									c-0.1,0.1-0.3,0.1-0.5,0.2l0,0l-0.6-2.9c-0.2,0-0.5,0.1-0.7,0.2C194.2,388.9,193.9,389.1,193.8,389.2 M195.2,391.6
									L195.2,391.6c-0.2,0-0.3,0-0.5,0c-0.1,0-0.3-0.1-0.4-0.2c-0.1-0.1-0.2-0.2-0.3-0.3c-0.1-0.1-0.1-0.3-0.2-0.4
									c0-0.2,0-0.3,0-0.5c0-0.1,0.1-0.3,0.2-0.4c0.1-0.1,0.2-0.2,0.3-0.3c0.1-0.1,0.3-0.1,0.4-0.2l0,0L195.2,391.6z"/>
								<path class="st10" d="M195.5,383.9c0,0.2,0,0.4,0,0.5c-0.1,0.2-0.1,0.3-0.2,0.4c-0.1,0.1-0.3,0.2-0.4,0.3
									c-0.2,0.1-0.3,0.1-0.5,0.2c-0.2,0-0.4,0.1-0.6,0.1c-0.2,0-0.4,0-0.5-0.1c-0.2-0.1-0.3-0.2-0.4-0.3c-0.1-0.1-0.2-0.3-0.2-0.6
									c-0.1-0.3,0-0.5,0.1-0.7c0.1-0.2,0.3-0.3,0.5-0.4l-0.1-0.6c-0.2,0.1-0.4,0.2-0.5,0.3c-0.1,0.1-0.3,0.3-0.3,0.4
									c-0.1,0.2-0.1,0.3-0.1,0.5c0,0.2,0,0.4,0,0.6c0.1,0.3,0.2,0.5,0.3,0.7c0.2,0.2,0.3,0.4,0.5,0.5c0.2,0.1,0.5,0.2,0.7,0.2
									c0.3,0,0.5,0,0.8-0.1c0.3-0.1,0.5-0.2,0.8-0.3c0.2-0.1,0.4-0.3,0.5-0.5c0.1-0.2,0.2-0.4,0.3-0.6c0-0.2,0-0.5,0-0.8
									c-0.1-0.5-0.3-0.8-0.6-1.1c-0.3-0.2-0.7-0.3-1.2-0.3l0.1,0.6c0.3,0,0.6,0,0.7,0.2C195.3,383.4,195.4,383.6,195.5,383.9"/>
								<path class="st10" d="M191.5,381c0.2,0.2,0.5,0.4,0.8,0.4l0,0l0,0l-0.8,0.2l0.1,0.6l3.8-0.8l-0.1-0.6l-1.7,0.3
									c-0.2,0.1-0.5,0.1-0.7,0.1c-0.2,0-0.4-0.1-0.5-0.1c-0.2-0.1-0.3-0.2-0.4-0.4c-0.1-0.2-0.2-0.4-0.2-0.6l-0.6,0.1c0,0,0,0,0,0
									C191.2,380.6,191.3,380.8,191.5,381"/>
								<path class="st10" d="M191.2,376.9c-0.2,0.2-0.3,0.4-0.4,0.6c-0.1,0.2-0.1,0.5,0,0.9c0.1,0.3,0.2,0.5,0.3,0.7
									c0.1,0.2,0.3,0.4,0.5,0.5c0.2,0.1,0.4,0.2,0.7,0.2c0.3,0,0.5,0,0.8,0c0.3-0.1,0.5-0.2,0.8-0.3c0.2-0.1,0.4-0.3,0.6-0.5
									c0.1-0.2,0.2-0.4,0.3-0.6c0.1-0.2,0-0.5,0-0.8c-0.1-0.4-0.3-0.8-0.5-1c-0.3-0.2-0.6-0.3-1-0.3l0.1,0.6
									c0.3,0,0.5,0.1,0.6,0.2c0.2,0.1,0.3,0.4,0.3,0.6c0,0.2,0,0.4,0,0.6c0,0.2-0.1,0.3-0.2,0.4c-0.1,0.1-0.2,0.2-0.4,0.3
									c-0.1,0.1-0.3,0.1-0.5,0.2l0,0l-0.6-2.9c-0.2,0-0.5,0.1-0.7,0.2C191.6,376.5,191.4,376.7,191.2,376.9 M192.6,379.2
									L192.6,379.2c-0.2,0-0.3,0-0.5,0c-0.1,0-0.3-0.1-0.4-0.2c-0.1-0.1-0.2-0.2-0.3-0.3c-0.1-0.1-0.1-0.3-0.2-0.4
									c0-0.2,0-0.3,0-0.5c0-0.1,0.1-0.3,0.2-0.4c0.1-0.1,0.2-0.2,0.3-0.3c0.1-0.1,0.3-0.1,0.4-0.2l0,0L192.6,379.2z"/>
								<path class="st10" d="M192.9,372.2c-0.1,0-0.2,0.1-0.3,0.1l-2,0.4c-0.2,0-0.4,0.1-0.5,0.2c-0.1,0.1-0.2,0.2-0.2,0.4
									c0,0.2-0.1,0.3-0.1,0.5c0,0.4,0.1,0.8,0.3,1.1c0.1,0.2,0.2,0.3,0.3,0.5c0.1,0.1,0.3,0.2,0.5,0.3c0.2,0.1,0.4,0.1,0.6,0
									l-0.1-0.6c-0.3,0-0.5,0-0.6-0.2c-0.1-0.2-0.2-0.4-0.3-0.6c0-0.1,0-0.2,0-0.3c0-0.1,0-0.2,0-0.3c0-0.1,0.1-0.2,0.2-0.2
									c0.1-0.1,0.2-0.1,0.3-0.2c0.1,0,0.2,0,0.3,0.1c0.1,0.1,0.1,0.1,0.2,0.3c0.1,0.1,0.1,0.2,0.2,0.4c0,0.1,0.1,0.3,0.2,0.5
									c0.1,0.2,0.1,0.3,0.2,0.5c0.1,0.1,0.2,0.3,0.3,0.4c0.1,0.1,0.2,0.2,0.4,0.2c0.1,0,0.3,0,0.5,0c0.2,0,0.3-0.1,0.5-0.2
									c0.1-0.1,0.2-0.2,0.3-0.3c0.1-0.1,0.1-0.3,0.1-0.4c0-0.2,0-0.3,0-0.5c-0.1-0.3-0.2-0.5-0.3-0.7c-0.1-0.2-0.3-0.4-0.6-0.5
									l-0.1,0l0.1,0c0.2,0,0.3-0.1,0.4-0.2c0.1-0.1,0.1-0.2,0.1-0.4c0-0.2-0.1-0.3-0.2-0.4l-0.4,0.1c0,0.1,0.1,0.1,0.1,0.2
									C193,372.1,193,372.1,192.9,372.2 M192.3,372.9c0.1,0,0.2,0,0.3,0c0.1,0,0.2,0.1,0.3,0.2c0.1,0.1,0.2,0.2,0.3,0.3
									c0.1,0.1,0.2,0.3,0.2,0.5c0,0.1,0,0.2,0,0.3c0,0.1,0,0.2,0,0.3c0,0.1-0.1,0.1-0.1,0.2c-0.1,0.1-0.2,0.1-0.3,0.1
									c-0.2,0-0.3,0-0.4,0c-0.1-0.1-0.2-0.1-0.3-0.2c-0.1-0.1-0.1-0.2-0.2-0.4c0-0.1-0.1-0.3-0.1-0.4c0-0.1-0.1-0.3-0.1-0.4
									c-0.1-0.1-0.1-0.2-0.2-0.3l0,0L192.3,372.9z"/>
								<path class="st10" d="M189,366.5c-0.2,0.2-0.3,0.4-0.4,0.6c-0.1,0.2-0.1,0.5,0,0.9c0.1,0.3,0.2,0.5,0.3,0.7
									c0.1,0.2,0.3,0.4,0.5,0.5c0.2,0.1,0.4,0.2,0.7,0.2c0.3,0,0.5,0,0.8,0c0.3-0.1,0.5-0.2,0.8-0.3c0.2-0.1,0.4-0.3,0.6-0.5
									c0.1-0.2,0.2-0.4,0.3-0.6c0.1-0.2,0-0.5,0-0.8c-0.1-0.4-0.3-0.8-0.5-1c-0.3-0.2-0.6-0.3-1-0.3l0.1,0.6
									c0.3,0,0.5,0.1,0.6,0.2c0.2,0.1,0.3,0.4,0.3,0.6c0,0.2,0,0.4,0,0.6c0,0.2-0.1,0.3-0.2,0.4c-0.1,0.1-0.2,0.2-0.4,0.3
									c-0.1,0.1-0.3,0.1-0.5,0.2l0,0l-0.6-2.9c-0.2,0-0.5,0.1-0.7,0.2C189.4,366.2,189.2,366.4,189,366.5 M190.4,368.9
									L190.4,368.9c-0.2,0-0.3,0-0.5,0c-0.1,0-0.3-0.1-0.4-0.2c-0.1-0.1-0.2-0.2-0.3-0.3c-0.1-0.1-0.1-0.3-0.2-0.4
									c0-0.2,0-0.3,0-0.5c0-0.1,0.1-0.3,0.2-0.4c0.1-0.1,0.2-0.2,0.3-0.3c0.1-0.1,0.3-0.1,0.4-0.2l0,0L190.4,368.9z"/>
								<path class="st10" d="M190.7,361.2c0,0.2,0,0.4,0,0.5c0,0.2-0.1,0.3-0.2,0.4c-0.1,0.1-0.3,0.2-0.4,0.3
									c-0.2,0.1-0.3,0.1-0.5,0.2c-0.2,0-0.4,0.1-0.6,0.1c-0.2,0-0.4,0-0.5-0.1c-0.2-0.1-0.3-0.2-0.4-0.3c-0.1-0.1-0.2-0.3-0.2-0.6
									c-0.1-0.3,0-0.5,0.1-0.7c0.1-0.2,0.3-0.3,0.5-0.4l-0.1-0.6c-0.2,0.1-0.4,0.2-0.5,0.3c-0.1,0.1-0.3,0.3-0.3,0.4
									c-0.1,0.2-0.1,0.3-0.1,0.5c0,0.2,0,0.4,0,0.6c0.1,0.3,0.2,0.5,0.3,0.7c0.2,0.2,0.3,0.4,0.5,0.5c0.2,0.1,0.5,0.2,0.7,0.2
									c0.3,0,0.5,0,0.8-0.1c0.3-0.1,0.5-0.2,0.8-0.3c0.2-0.1,0.4-0.3,0.5-0.5c0.1-0.2,0.2-0.4,0.3-0.6c0-0.2,0-0.5,0-0.8
									c-0.1-0.5-0.3-0.8-0.6-1.1c-0.3-0.2-0.7-0.3-1.2-0.3l0.1,0.6c0.3,0,0.6,0,0.7,0.2C190.5,360.7,190.7,360.9,190.7,361.2"/>
								<path class="st10" d="M186.6,356.6c-0.1,0.1-0.2,0.3-0.2,0.5c0,0.2,0,0.4,0,0.6c0,0.1,0.1,0.2,0.1,0.3
									c0,0.1,0.1,0.2,0.2,0.3c0.1,0.1,0.2,0.2,0.3,0.3c0.1,0.1,0.2,0.1,0.3,0.2l0,0l0,0l-2,0.4l0.1,0.6l5.2-1.1l-0.1-0.6l-2.1,0.4
									c-0.2,0-0.3,0-0.5,0c-0.2,0-0.3-0.1-0.4-0.1c-0.1-0.1-0.2-0.2-0.3-0.3c-0.1-0.1-0.2-0.3-0.2-0.5c-0.1-0.2,0-0.5,0.1-0.6
									c0.1-0.2,0.3-0.3,0.5-0.3l2.6-0.5l-0.1-0.6l-2.5,0.5c-0.2,0-0.4,0.1-0.5,0.2C186.8,356.3,186.7,356.4,186.6,356.6"/>
								<path class="st10" d="M186.1,352.3c-0.2,0.2-0.3,0.4-0.4,0.6c-0.1,0.2-0.1,0.5,0,0.9c0.1,0.3,0.2,0.5,0.3,0.7
									c0.1,0.2,0.3,0.4,0.5,0.5s0.4,0.2,0.7,0.2c0.3,0,0.5,0,0.8,0c0.3-0.1,0.5-0.2,0.8-0.3c0.2-0.1,0.4-0.3,0.6-0.5
									c0.1-0.2,0.2-0.4,0.3-0.6c0.1-0.2,0-0.5,0-0.8c-0.1-0.4-0.3-0.8-0.5-1c-0.3-0.2-0.6-0.3-1-0.3l0.1,0.6
									c0.3,0,0.5,0.1,0.6,0.2c0.2,0.1,0.3,0.4,0.3,0.6c0,0.2,0,0.4,0,0.6c0,0.2-0.1,0.3-0.2,0.4c-0.1,0.1-0.2,0.2-0.4,0.3
									c-0.1,0.1-0.3,0.1-0.5,0.2l0,0l-0.6-2.9c-0.2,0-0.5,0.1-0.7,0.2C186.5,351.9,186.2,352.1,186.1,352.3 M187.5,354.6
									L187.5,354.6c-0.2,0-0.3,0-0.5,0c-0.1,0-0.3-0.1-0.4-0.2c-0.1-0.1-0.2-0.2-0.3-0.3c-0.1-0.1-0.1-0.3-0.2-0.4
									c0-0.2,0-0.3,0-0.5c0-0.1,0.1-0.3,0.2-0.4c0.1-0.1,0.2-0.2,0.3-0.3c0.1-0.1,0.3-0.1,0.4-0.2l0,0L187.5,354.6z"/>
								<path class="st10" d="M184.3,346.3c-0.1,0.1-0.1,0.3-0.1,0.4c0,0.2,0,0.3,0,0.5c0.1,0.2,0.2,0.5,0.3,0.6
									c0.2,0.2,0.3,0.3,0.6,0.4l0,0l0,0c-0.2,0.1-0.4,0.3-0.4,0.5c-0.1,0.2-0.1,0.4,0,0.7c0.1,0.5,0.4,0.9,0.9,1.1l0,0l0,0
									l-0.6,0.1l0.1,0.6l3.8-0.8l-0.1-0.6l-2.4,0.5c-0.1,0-0.2,0-0.3,0c-0.1,0-0.2-0.1-0.4-0.1c-0.1-0.1-0.2-0.2-0.3-0.3
									c-0.1-0.1-0.2-0.3-0.2-0.5c0-0.1,0-0.3,0-0.4c0-0.1,0.1-0.2,0.1-0.3c0.1-0.1,0.2-0.1,0.3-0.2c0.1,0,0.2-0.1,0.3-0.1l2.5-0.5
									l-0.1-0.6l-2.4,0.5c-0.3,0.1-0.6,0-0.8-0.1c-0.2-0.1-0.4-0.4-0.4-0.7c0-0.2,0-0.3,0-0.4c0-0.1,0.1-0.2,0.1-0.3
									c0.1-0.1,0.2-0.1,0.3-0.2c0.1,0,0.2-0.1,0.3-0.1l2.5-0.5l-0.1-0.6l-2.8,0.6c-0.2,0-0.4,0.1-0.5,0.2
									C184.5,346.1,184.4,346.2,184.3,346.3"/>
								<path class="st10" d="M183,344.5l0.1,0.6l-0.7,0.2l-0.1-0.6L183,344.5z M183.7,344.4l0.1,0.6l3.8-0.8l-0.1-0.6L183.7,344.4z
									"/>
								<path class="st10" d="M186.6,340.1c-0.1-0.1-0.3-0.2-0.4-0.3c-0.2-0.1-0.4-0.1-0.6,0c-0.2,0-0.3,0.1-0.4,0.2
									c-0.1,0.1-0.2,0.2-0.2,0.3c-0.1,0.1-0.1,0.3-0.1,0.4c0,0.2,0,0.3,0,0.5c0,0.2,0,0.3,0,0.5c0,0.2,0,0.3,0,0.4
									c0,0.1-0.1,0.2-0.1,0.3c-0.1,0.1-0.1,0.2-0.3,0.2c-0.1,0-0.2,0-0.3,0c-0.1,0-0.1-0.1-0.2-0.2c-0.1-0.1-0.1-0.2-0.1-0.3
									c-0.1-0.2-0.1-0.4-0.1-0.6c0-0.1,0-0.2,0-0.3c0-0.1,0.1-0.2,0.2-0.3c0.1-0.1,0.2-0.1,0.3-0.2l-0.1-0.6
									c-0.2,0.1-0.4,0.1-0.5,0.3c-0.1,0.1-0.2,0.2-0.3,0.4c-0.1,0.2-0.1,0.3-0.1,0.5c0,0.2,0,0.4,0.1,0.6c0,0.2,0.1,0.3,0.2,0.5
									c0.1,0.2,0.2,0.3,0.3,0.4c0.1,0.1,0.2,0.2,0.4,0.3c0.2,0.1,0.3,0.1,0.5,0c0.2-0.1,0.4-0.2,0.5-0.3c0.1-0.1,0.2-0.3,0.2-0.5
									c0-0.2,0.1-0.4,0.1-0.6c0-0.2,0-0.4,0-0.6c0-0.2,0-0.4,0.1-0.5c0.1-0.1,0.2-0.2,0.3-0.3c0.1,0,0.2,0,0.3,0
									c0.1,0,0.2,0.1,0.2,0.2c0.1,0.1,0.1,0.2,0.1,0.3c0.1,0.2,0.1,0.5,0.1,0.7c0,0.1,0,0.2-0.1,0.4c0,0.1-0.1,0.2-0.2,0.3
									c-0.1,0.1-0.2,0.1-0.3,0.2l0.1,0.6c0.2-0.1,0.4-0.1,0.5-0.3c0.1-0.1,0.3-0.3,0.3-0.4c0.1-0.2,0.1-0.4,0.1-0.5
									c0-0.4-0.1-0.8-0.2-1.2C186.8,340.4,186.7,340.2,186.6,340.1"/>
								<path class="st10" d="M181.4,339l0.1,0.6l1.1-0.2l0.1,0.6l0.5-0.1l-0.1-0.6l2.5-0.5c0.2,0,0.3-0.1,0.4-0.1
									c0.1-0.1,0.2-0.1,0.2-0.2c0-0.1,0.1-0.2,0.1-0.3c0-0.1,0-0.3-0.1-0.4l-0.1-0.5l-0.5,0.1l0.1,0.3c0,0.1,0,0.2,0,0.2
									c0,0.1,0,0.1,0,0.2c0,0-0.1,0.1-0.1,0.1c0,0-0.1,0-0.2,0.1l-2.4,0.5l-0.2-0.8l-0.5,0.1l0.2,0.8L181.4,339z"/>
								<path class="st10" d="M188.1,371.3l0.1,0.6l1.1-0.2l0.1,0.6l0.5-0.1l-0.1-0.6l2.5-0.5c0.2,0,0.3-0.1,0.4-0.1
									c0.1-0.1,0.2-0.1,0.2-0.2c0-0.1,0.1-0.2,0.1-0.3c0-0.1,0-0.3-0.1-0.4l-0.1-0.5l-0.5,0.1l0.1,0.3c0,0.1,0,0.2,0,0.2
									c0,0.1,0,0.1,0,0.2c0,0-0.1,0.1-0.1,0.1c0,0-0.1,0-0.2,0.1l-2.4,0.5l-0.2-0.8l-0.5,0.1l0.2,0.8L188.1,371.3z"/>
								<path class="st10" d="M182.9,336.3L182.9,336.3L182.9,336.3l-0.8,0.2l0.1,0.6l3.8-0.8l-0.1-0.6l-1.6,0.3
									c-0.2,0.1-0.5,0.1-0.7,0.1c-0.2,0-0.4-0.1-0.5-0.1c-0.2-0.1-0.3-0.2-0.4-0.4c-0.1-0.2-0.2-0.4-0.2-0.6l-0.6,0.1
									c0.1,0.3,0.2,0.6,0.4,0.8C182.3,336.1,182.6,336.2,182.9,336.3"/>
								<path class="st10" d="M186.2,332.2c-0.1,0-0.3-0.1-0.5-0.1l-4.6-0.8l0.1,0.6l3.4,0.4l0,0l0,0l-2.9,1.8l0.1,0.7l3.5-2.3l0,0
									l0.7,0.1c0.1,0,0.2,0.1,0.3,0.2c0.1,0.1,0.1,0.2,0.2,0.3c0,0.1,0,0.1,0,0.2c0,0.1,0,0.1,0,0.2l0.5-0.1c0-0.1,0-0.1,0-0.2
									c0-0.1,0-0.1,0-0.2c0-0.1-0.1-0.3-0.1-0.4c-0.1-0.1-0.1-0.2-0.2-0.2C186.4,332.3,186.3,332.2,186.2,332.2"/>
							</g>
						</g>
						<g class="st11">
							<path d="M195.7,340.9c-1.8-8.7-2.4-9.5-4.3-15.7c-5.1,3.5-13.1,5.4-20.1,6.3c-36.2,4.8-73.4,4.1-110.1,2.1
								c7,8,12.3,12.9,25.4,15.1s33.3,4.1,44.8,3.7C145.9,352.1,174.5,346.4,195.7,340.9z"/>
						</g>
						<g>
							<path class="st4" d="M178.7,658.4c0,0,0,0.1,0.1,0.1c0.9,1.7,3.7,3.2,6.8,4.4c4.1,1.6,12.9,3.7,17.3,3.8H217
								c4,0,7.9-3.9,7.9-8v-3.1c0-5.9-2.6-11.6-7.2-15.4c-0.9-0.7-1.7-1.4-2.6-2.2c-3-2.5-5.4-5.9-8.9-10.7
								c-3.9-5.4-2.4-14.5-2.2-21.2c0.6-15,1.7-30.6,2.8-44.3h-48.9c2.9,26.1,6.7,44.8,0.4,70c-0.7,2.8,0.1,14.5,2.4,16.1
								c1.2,0.8,4.5,2.4,5.9,2.7c2.4,0.6,3.5,0.9,4.8,1.4C174.6,653,177.2,655.4,178.7,658.4z"/>
						</g>
						<g>
							<path class="st4" d="M90.3,661.1C90.3,661.1,90.3,661.2,90.3,661.1c-1,1.9-3.9,3.4-7,4.6c-4.2,1.6-13.2,3.7-17.7,3.9H51.1
								c-4.1,0-8-4-8-8.2v-3.2c0-6.1,2.7-11.8,7.4-15.7c0.9-0.7,1.8-1.5,2.7-2.2c3-2.6,5.5-6,9.1-11c4-5.5,2.5-14.8,2.2-21.7
								c-0.6-15.3-1.7-31.3-2.8-45.3h50c-3,26.7-6.9,45.8-0.4,71.7c0.7,2.9-0.1,14.8-2.5,16.5c-1.2,0.8-4.6,2.5-6,2.8
								c-2.5,0.6-3.6,0.9-4.9,1.4C94.6,655.6,91.9,658,90.3,661.1z"/>
						</g>
						<g>
							<path class="st8" d="M139.5,77c-0.9-6.8-5.9-22-5.9-22c-3.5-4.2-8.7-6.3-13.7-6.5c-4.1-0.2-8.1,0.6-12.1,1.8
								c-4,0.8-7.9,2.1-11.4,4.2c-4.3,2.7-7.8,7-8.8,12.4c0,0,3,15.7,5.5,22.1c1.3,3.3,2.8,6.6,4.6,9.6c-5.7-11.9-8.2-23.9-1.6-35.8
								c2.9-8.7,23.2-20.3,31.9-8.7c6.8,10.3,10.6,20.5,12,31.4C140.1,82.7,139.9,79.8,139.5,77z"/>
						</g>
						<path class="st12" d="M139.4,61c-0.1-5.2-0.2-10.4-1.7-15.3s-4.7-9.4-9.1-10.9c-0.4-0.1-2.6-0.3-3-0.4c2-0.7,5.8-0.9,7.9-1
							c-1.2-1.3-2.9-2-4.6-2.2c-1.7-0.2-3.4,0.1-5.1,0.4c-3.9,0.8-6.2,0.5-9.8,2.3c-0.5,0-4-2.5-5.8-2.8c-6.3-0.9-6.1-0.8-9.7-0.4
							c-1.2,0.1-5.4,1.5-6,2.7c2-0.2,4-0.2,6,0.1c-1.6,0.1-3.2,0.5-4.6,1.4l0,0c-1.9,0.2-3.9,0.7-5.6,1.7c-3,1.7-5.5,4.6-6.9,8
							C80.4,47,80,50,81.5,52c1.3-4.5,4-8.5,7.5-11.3c-0.3,0.5-0.5,1-0.7,1.5c-1.3,3-4.4,5.7-5.8,8.6c-1.6,3.5-2.3,7.9-2,11.3
							c0.4,3.2,1,6.3,2.6,9c1.5,2.7,3.4,5.2,4.7,8.1c2.2,5,2.8,11.1,6.5,14.9c3.1,3.2,5.5,5.1,9.6,5.6c5.6,0.7,10.1,0.8,15.7,1.5
							c2.6,0.3,5.7-1.3,8.3-1.7c2.6-0.4,7.3-2.7,9-5c2.3-3.2,5.5-9.1,5.5-13.2C142,73.4,139.5,69.1,139.4,61z"/>
						<g>
							<g>
								<path class="st8" d="M137.2,68.8c-0.2-1.2,0.2-2.5,1.2-3.2s2.4-0.7,3.3,0.1c0.8,0.7,1,1.9,1,3s-0.2,2.1,0,3.2
									c0.3,2.1,2.1,3.9,2.4,6c0.1,1.4-0.4,2.8-1.2,4s-2.6,2.1-3.7,3C138.1,79.1,138.4,74.9,137.2,68.8z"/>
							</g>
							<g>
								<path class="st4" d="M141.8,75.2c-0.3-0.7-1.2-0.9-1.8-1.3c-0.6-0.5-0.9-1.3-1.1-2c-0.2-0.7-0.4-1.3-0.4-2s0.3-1.4,0.9-1.8
									s1.4-0.4,1.9,0.2c-0.6,1-1.3,2.2-1.1,3.4c0.3,1.9,2.6,2.9,3.1,4.8c0.4,1.4-0.4,2.9-1.1,4.1c-0.8-0.9-1-2.3-0.7-3.4
									C141.6,76.4,142,75.8,141.8,75.2z"/>
							</g>
						</g>
						<g>
							<g>
								<path class="st8" d="M92.3,81.9c-1.1-1-2.9-0.5-3.8,0.6c-1.2,1.4-1.3,3.7-0.3,5.2c0.5,0.7,1.2,1.3,1.7,2.1
									c0.5,0.9,0.5,2,0.7,3.1c0.4,1.7,1.5,3.2,2.9,4.1c1.5,0.9,2.8,2.4,4.5,1.9c-1.8-4.7-3.1-10.6-4.8-15.4
									C93,83,92.8,82.3,92.3,81.9z"/>
							</g>
							<g>
								<path class="st4" d="M92.1,91.1c-0.2-0.7,0.5-1.4,0.8-2.1c0.2-0.7,0-1.5-0.2-2.3c-0.2-0.7-0.4-1.3-0.8-1.9s-1-1-1.7-1
									s-1.4,0.5-1.4,1.2c1.1,0.5,2.3,1.1,2.8,2.2c0.8,1.8-0.5,3.9,0.1,5.7c0.5,1.4,1.9,2.2,3.3,2.8c0.1-1.2-0.4-2.5-1.4-3.2
									C92.9,92.1,92.2,91.8,92.1,91.1z"/>
							</g>
						</g>
						<g>
							<path class="st7" d="M133.6,54.7c-3.5-4.2-8.7-6.3-13.7-6.5c-4.1-0.2-8.1,0.6-12.1,1.8c-4,0.8-7.9,2.1-11.4,4.2
								c-4.3,2.7-7.8,7-8.8,12.4c0,0,3,15.7,5.5,22.1s5.8,12.8,10.7,17.2c1.5,1.3,3.1,2.7,4.9,4.1c4.4,3.2,10,4.3,15.3,2.9h0.1
								c5.3-1.4,9.7-5,11.9-10c0.9-2,1.7-4.1,2.3-6c2.2-6.3,1.9-13.4,1-20.2C138.6,69.9,133.6,54.7,133.6,54.7z"/>
						</g>
						<g>
							<path class="st4" d="M113.8,88c-1.2,0-2.3-0.3-3.1-0.6c-0.8-0.3-1.6-0.6-2.2-1.3c-0.7-1-0.3-2.9,0-3.7
								c0.1-0.3,0.4-0.5,0.7-0.4c0.3,0.1,0.5,0.4,0.4,0.7c-0.4,1.4-0.4,2.4-0.2,2.7c0.4,0.5,1,0.7,1.6,1c1.6,0.5,2.7,0.7,3.8,0.4
								c1.3-0.3,2.4-1.3,3.4-2.2c0.7-0.7,1.5-1.5,1.5-2.4c-0.1-0.8-0.9-1.5-1.8-2c-0.3-0.2-0.3-0.5-0.2-0.8c0.2-0.3,0.5-0.3,0.8-0.2
								c1.1,0.7,2.2,1.5,2.3,2.9c0.1,1.5-1.1,2.7-1.8,3.3c-1,0.9-2.3,2.1-3.9,2.5C114.7,88,114.3,88,113.8,88z"/>
						</g>
						<g>
							<path class="st12" d="M99.3,51c-3.7,3.2-6.4,7.7-7.4,12.5c-0.4,0.3-1.1,0.1-1.4-0.3c-0.3-0.4-0.4-1-0.4-1.6
								c0-3.3,1.7-6.3,3.4-9.1L99.3,51z"/>
						</g>
						<g>
							<path class="st4" d="M92.6,69.5c1.3-2.9,4.1-5,7.2-5.5c0.6-0.1,1.3-0.1,1.8-0.5c0.5-0.3,0.9-1.1,0.5-1.6
								c-2.7-0.2-5.4,0.7-7.5,2.4c-2,1.7-3.4,4.3-3.6,7C91.9,71.1,92.2,70.2,92.6,69.5z"/>
						</g>
						<g>
							<path class="st4" d="M128.4,59.5c-2.6-1.8-6.1-2.2-9.1-1c-0.6,0.2-1.1,0.5-1.8,0.5c-0.6,0-1.3-0.5-1.3-1.1
								c2.2-1.6,5-2.2,7.6-1.8s5.1,1.9,6.7,4.1C129.8,60.6,129,60,128.4,59.5z"/>
						</g>
						<g>
							<path class="st13" d="M108.3,93.5c2.5,0.9,5.3,0.5,7.9,0c4.6-1,8.1-2.4,11.4-5.3c0.8,2.6,0.5,5.9-0.6,8.4
								c-1.4,2.9-6,5.3-9.5,5.4c-4.8,0.1-8.9-4.2-9.5-8.5"/>
							<g>
								<path class="st13" d="M108.1,94.3c6.5,2.1,15-1.3,20-5.5c-0.4-0.1-0.8-0.2-1.3-0.3c1.6,5.8-1.3,10.8-7,12.4
									c-5.3,1.5-10.3-2.3-11.2-7.6c-0.2-0.9-1.6-0.5-1.4,0.4c1.1,6.1,7,10.3,13,8.6c6.5-1.9,9.9-7.7,8-14.3
									c-0.2-0.6-0.8-0.7-1.3-0.3c-4.6,3.9-12.6,7-18.6,5.2C107.6,92.5,107.2,94,108.1,94.3L108.1,94.3z"/>
							</g>
						</g>
						
							<ellipse transform="matrix(0.9659 -0.2591 0.2591 0.9659 -15.3558 28.2762)" class="st4" cx="99.6" cy="72.4" rx="2.2" ry="3.5"/>
						
							<ellipse transform="matrix(0.9659 -0.2591 0.2591 0.9659 -12.7397 33.9175)" class="st4" cx="122.3" cy="65.3" rx="2.2" ry="3.5"/>
						<path class="st3" d="M98.6,124.4c0,0,8.7,7.6,24.5,5.4s22.8-12.7,22.8-12.7s8.8,3.8,17.6,5.5s15.3,15.1,18.8,27.7
							c3.5,12.6,4.3,20.8,3.2,30.8s1.5,61.6,1.4,67.6c0,6,9.8,78.3,9.8,78.3s-33.2,14.9-66.9,17c-39.1,2.5-74-10.6-74-10.6
							S69,265.8,71.4,251c0.7-4.1,0.8-34.1,0.8-34.1s-8.2-24.6-10.4-36.6c-2.1-12-5.9-27.6,5.7-35.5s8.9-5.2,15.5-8.8
							C89.6,132.4,98.6,124.4,98.6,124.4z"/>
						<g>
							<path class="st14" d="M95.6,207.1c-5.2,3.3-11.1,7.9-10.7,14c23.8-8.2,48.5-13.8,73.5-16.7c1.6-0.2,3.4-0.4,4.9,0.3
								c1.5,0.6,2.8,2.3,2.3,3.9c-27.3,4.4-54,12.6-79.1,24.2c21.6-4.7,44.1-7.4,65.6-2.3c-19.1,0.3-38.1,3.9-56.8,8.1
								c-4.6,1.1-9.5,2.3-12.9,5.5c-3.5,3.2-4.9,9.2-1.7,12.7c3.3,3.7-4.6,6-3.4,10.8c0.3,1.1,15.1,0.1,14.7,1.3
								c0,0,21.4,16,31.1,16c11.8,0,54.8-16,54.8-16c0.5-6,0.7-12.1,0.6-18.1c-3.3-3-4.3-8.2-2.4-12.2c1-2.1,2.7-4.6,1.1-6.3
								c-0.5-0.6-1.4-0.9-2.1-1.1c-8.4-2.7-16.8-5.3-25.2-8c7.9-1.7,15.7-3.3,23.6-5c2.7-0.6,6.1-2.2,5.5-4.9
								c-0.6-2.6-4.8-3.4-4.8-6.1c0-1.9,2.4-3.1,2.6-5.1c0.2-1.6-1.3-3-1.9-4.5c-1.1-2.9,1-6,3.4-8.1c2.3-2.1,5.1-4.1,5.8-7.1
								c0.8-3.4-1.4-6.9-4.4-8.7s-6.5-2.3-10-2.7c-7-0.9-14-1.8-20.9-2.7c-4.8-0.6-9.8-1.2-14.5-0.2c-4.8,1-9.4,3.9-11.1,8.5
								c15.9-2.6,32.3-2.2,48.1,1.2c-28.3,2.2-56.2,8.9-82.4,19.5c-4.3,1.8-8.8,3.8-11.5,7.6C83.5,204.6,89.7,205.3,95.6,207.1z"/>
						</g>
						<path class="st5" d="M91.1,35c0,0,12.4-3.5,17-4.5c4.7-1-2.4-1.5-2.4-1.5s-10.4,1.4-13.4,3.5C89.2,34.4,91.1,35,91.1,35z"/>
						<path class="st15" d="M108.1,71.9c0,0,0.7,4.2,1.1,6.2"/>
						<path class="st15" d="M115.4,70.5c0,0,1.1,5.4,2.2,7.2"/>
						<path class="st16" d="M91.1,82.2c0,0,14.7-8.1,20.7-9.8c6-1.7,25.8-4.4,25.8-4.4l2.6,13.3c0,0,1.3,12.5-3.9,24.1
							c-0.7,1.6-8.3,7.4-12.4,8.5s-11.8,0.6-14.8-1c-5.5-2.9-13.3-16.6-13.3-16.6L91.1,82.2z"/>
						<polygon class="st17" points="139.4,61 138.4,72.7 139.1,75.6 139.6,65.1 						"/>
						<polygon class="st17" points="139.1,75.6 141.9,83.8 141.5,85.4 139.7,79.1 						"/>
						<path class="st17" d="M93.7,90.2l2.4,8.5c0,0,0.5,0.2,0.7,0.2s0.5,0.1,0.5,0.1l-2.8-7L93.7,90.2"/>
						<polygon class="st17" points="92.6,86.7 87,78.2 88.5,82.6 93.7,90.2 						"/>
						<g>
							<path class="st18" d="M95.5,88.6c3-2.1,6.1-4.1,9.3-6c1.6-0.9,3.2-1.8,4.9-2.6c0.8-0.4,1.7-0.8,2.6-1.1
								c0.4-0.2,0.9-0.3,1.4-0.4s1-0.2,1.4-0.2c3.7-0.4,7.4-0.6,11-0.6c3.7-0.1,7.4,0,11,0.1c-3.7,0.4-7.3,0.7-11,0.9l-5.5,0.4
								c-1.8,0.1-3.7,0.3-5.4,0.5c-0.5,0-0.9,0.1-1.3,0.2s-0.8,0.2-1.2,0.4c-0.8,0.3-1.7,0.7-2.5,1c-1.7,0.7-3.3,1.6-4.9,2.4
								L95.5,88.6z"/>
						</g>
						<g>
							<path class="st18" d="M102.2,94.9c1.2-0.3,2.4-0.6,3.7-0.8c1.2-0.3,2.5-0.4,3.7-0.7c1.2-0.2,2.5-0.4,3.7-0.5s2.5-0.3,3.7-0.3
								c-1.2,0.3-2.4,0.6-3.7,0.8c-1.2,0.2-2.5,0.4-3.7,0.7c-1.2,0.2-2.5,0.4-3.7,0.5S103.5,94.9,102.2,94.9z"/>
						</g>
						<g>
							<path class="st18" d="M124.2,90.8c1.4-0.8,2.9-1.4,4.5-2c1.5-0.6,3.1-1.1,4.7-1.4c-1.4,0.8-2.9,1.5-4.5,2
								C127.4,89.9,125.8,90.4,124.2,90.8z"/>
						</g>
						<g>
							<path class="st18" d="M101.5,103c3.4,0.9,6.8,1.8,10.3,2.4c1.7,0.3,3.4,0.6,5.2,0.7c1.7,0.1,3.5,0.2,5-0.3
								c1.6-0.5,3.1-1.4,4.5-2.4c1.5-0.9,2.8-2.1,4.2-3.1c2.7-2.2,5.3-4.6,7.9-7c-2.2,2.8-4.6,5.4-7.2,7.8c-2.6,2.4-5.4,4.7-8.9,6
								c-0.5,0.1-0.9,0.2-1.4,0.3c-0.5,0-0.9,0.1-1.4,0.1h-1.4l-1.4-0.1c-1.8-0.2-3.5-0.5-5.3-1C108,105.6,104.7,104.4,101.5,103z"
								/>
						</g>
					</g>
					<g>
						<g>
							<path class="st19" d="M186.6,332.3l-6.1-2.4c0,0-10.7-26.3-31.8-20.2c-19.1,5.6-13.6,25.1-7.8,30.3c5.4,4.7,9.5,5.4,9.5,5.4
								s-11.4-9.6-8-19.7c2.5-7.2,7.7-9.9,16.6-8.8c11.1,1.3,19.2,17,19.2,17l6.8,3.3L186.6,332.3z"/>
						</g>
						<g>
							<path class="st20" d="M209.1,321.7c0,0-10.9,6.6-13.3,9.6c-2.5,2.9,3.8,6.7,3.8,6.7l9.1-9.8L209.1,321.7z"/>
						</g>
						<g>
							<path class="st21" d="M184.1,340.4l42.4,15.2c1.9,0.7,4.1-0.3,4.7-2.2l1.7-4.8c0.7-1.9-0.3-4.1-2.2-4.7l-42.4-15.2
								c-1.9-0.7-4.1,0.3-4.7,2.2l-1.7,4.8C181.1,337.6,182.1,339.7,184.1,340.4z"/>
						</g>
						<g>
							<path class="st1" d="M194.1,348.5c1.2,5,18.5,10.9,26.5,7.8s8.6-29.6,8.6-29.6s0.3-1,0.9-2.8c0.1-0.2,0.1-0.5,0.2-0.7
								c0.2-0.6,0.4-1.3,0.6-2c0.1-0.2-21.6-4.3-21.6-4.3l-0.1,0.7l-0.8,4.2l-8.9,11.4C199.5,333.3,192.9,343.6,194.1,348.5z"/>
						</g>
					</g>
					<path class="st3" d="M163.5,122.6c0,0,32,9.8,40.5,18.7c12.1,12.7,29.2,59.2,33,79.6s-3.5,105.3-3.5,105.3s-10.1,3-16.8,2.2
						s-17-3.4-17-3.4s12-82.7,1-105.3c-6.9-14.2-38.8-52.5-39.2-56.2C160.7,153.8,163.5,122.6,163.5,122.6z"/>
				</g>
			</g>
			<g>
				<path class="st22" d="M94.5,133.8c2,1.1,4.2,1.9,6.4,2.6c2.2,0.7,4.4,1.2,6.7,1.5c4.5,0.7,9.1,0.9,13.7,0.6
					c4.6-0.2,9.1-1.1,13.3-2.7c2.1-0.8,4.2-1.8,6.1-3c1.9-1.2,3.7-2.7,5.2-4.4c-1.2,2-3,3.6-4.8,5c-1.9,1.4-4,2.5-6.1,3.5l-1.6,0.7
					l-1.7,0.6c-1.1,0.4-2.3,0.6-3.4,0.9c-1.2,0.2-2.3,0.4-3.5,0.6c-1.2,0.1-2.3,0.3-3.5,0.3c-4.7,0.3-9.4,0-14-0.9
					C102.8,138,98.3,136.5,94.5,133.8z"/>
			</g>
			<g>
				<path class="st4" d="M185.4,166.8c-5.8-6.7-11.6-11.7-17.1-14.8c2.2-2,4.9-2.3,8,0C179.4,154.4,182.9,159.7,185.4,166.8z"/>
			</g>
			<g>
				<path class="st22" d="M205.4,230.6c1-1.8,2.1-3.5,3.2-5.2c1.1-1.7,2.2-3.4,3.2-5.1c1-1.7,1.8-3.5,2.7-5.3
					c0.8-1.8,1.7-3.6,2.6-5.5c-0.4,2-0.9,4-1.6,5.9c-0.7,1.9-1.4,3.8-2.5,5.6s-2.2,3.4-3.5,5C208.2,227.7,206.8,229.2,205.4,230.6z"
					/>
			</g>
			<g>
				<path class="st22" d="M212,230.3c1.9-1.4,3.8-2.4,5.7-3.6c1.9-1.1,3.7-2.2,5.5-3.7c-0.4,1.1-1.2,2-2,2.8s-1.8,1.5-2.8,2.1
					s-2,1.1-3.1,1.5C214.3,229.8,213.2,230.1,212,230.3z"/>
			</g>
			<g>
				<path class="st22" d="M116.3,211.7l13.2-1.9c4.4-0.7,8.8-1.3,13.1-2.1s8.5-2,12.7-3.6c4.1-1.6,8.2-3.3,12.1-5.4
					c-3.7,2.5-7.6,4.7-11.7,6.4c-2,0.9-4.2,1.6-6.3,2.3c-2.1,0.6-4.3,1.2-6.5,1.6c-4.4,0.7-8.8,1.3-13.2,1.8
					C125.2,211.3,120.7,211.6,116.3,211.7z"/>
			</g>
			<g>
				<path class="st22" d="M137,220c4.1-1,8.1-2,12-3.4c2-0.7,3.9-1.4,5.8-2.2c1.9-0.8,3.8-1.8,5.7-2.7c-1.6,1.4-3.3,2.7-5.2,3.7
					c-0.9,0.6-1.9,1-2.9,1.4s-2,0.8-3,1.2c-2,0.7-4.1,1.2-6.2,1.6C141.3,219.9,139.2,220.1,137,220z"/>
			</g>
		</g>
	</g>
</g>
</svg>
