<?xml version="1.0" encoding="utf-8"?>
<!-- Generator: Adobe Illustrator 22.0.1, SVG Export Plug-In . SVG Version: 6.00 Build 0)  -->
<svg version="1.1" id="圖層_1" xmlns="http://www.w3.org/2000/svg" xmlns:xlink="http://www.w3.org/1999/xlink" x="0px" y="0px"
	 viewBox="0 0 360 240" style="enable-background:new 0 0 360 240;" xml:space="preserve">
<style type="text/css">
	.st0{opacity:0.18;fill:#3B5E43;}
	.st1{opacity:0.7;fill:#FFFFFF;}
	.st2{fill:#FFFFFF;}
	.st3{fill:url(#SVGID_1_);}
	.st4{fill:url(#SVGID_2_);}
	.st5{fill:url(#SVGID_3_);}
	.st6{fill:url(#SVGID_4_);}
	.st7{fill:url(#SVGID_5_);}
	.st8{fill:#C2FFEC;}
</style>
<g>
	<ellipse class="st0" cx="288.7" cy="250.9" rx="73.3" ry="8"/>
	<g>
		<path class="st1" d="M206.5,83.9c0,0,4.2-17.5,0.7-19.2c-4-1.9-4.1,11.6-4.1,11.6s-3.1-11-6.4-9.5c-4.2,1.9,2.3,10.2,2.3,10.2
			s-8.7-6.6-9.4-2.9c-0.7,3.7,8,7,8,7s-7-0.6-6.9,2.8C190.8,87.3,206.5,83.9,206.5,83.9z"/>
		<path class="st2" d="M206.5,83.9c0,0,7.6-14.4,3.6-16.1c-4-1.7-4.4,9.9-4.4,9.9s-0.3-13.4-3.8-12.9c-5.1,0.7,0,13.1,0,13.1
			s-5.1-10.3-8.5-8.4c-6.2,3.6,6.2,10.3,6.2,10.3s-8.3-4.6-9.9-2.3c-4.2,6.1,10.9,5.5,10.9,5.5s-9.7,0.1-8.9,3.8
			C192.4,90.6,206.5,83.9,206.5,83.9z"/>
		
			<linearGradient id="SVGID_1_" gradientUnits="userSpaceOnUse" x1="765.3753" y1="80.4686" x2="743.0894" y2="143.0715" gradientTransform="matrix(-1 0 0 1 975.4943 0)">
			<stop  offset="0" style="stop-color:#009A86"/>
			<stop  offset="1" style="stop-color:#9DE3AF"/>
		</linearGradient>
		<path class="st3" d="M201.7,82.9c0.4-0.7,3.5,0.2,3.5,0.2s-2-2.7-1.6-3.1c0.4-0.5,2.6,2.4,2.6,2.4s-1-3.7-0.3-3.8
			c0.6-0.1,1.2,3.2,1.2,3.2s1.5-3.5,2.1-3.7c0.2-0.1-0.1,1-0.5,2.2c-0.6,1.7,0,3.7,1.5,4.7c11.5,8.2,18.7,21.5,23.3,34.5
			c5.1,14.5,8,30.5,6.8,45.9c0,0.5-0.7,0.5-0.7,0c0.1-14.9-2-29.9-6.7-44c-4.6-13.8-11.9-27.3-23.6-36.3c-1.2-0.9-2.8-1.1-4.2-0.5
			c-1,0.5-2.1,0.9-2.2,0.8c-0.6-0.3,2-1.5,2-1.5S201.3,83.6,201.7,82.9z"/>
	</g>
	<g>
		
			<linearGradient id="SVGID_2_" gradientUnits="userSpaceOnUse" x1="480.675" y1="5.0176" x2="480.675" y2="153.7726" gradientTransform="matrix(-1 0 0 1 745.7681 0)">
			<stop  offset="0" style="stop-color:#9DE3AF"/>
			<stop  offset="1" style="stop-color:#00CCA6"/>
		</linearGradient>
		<path class="st4" d="M325.7,118c-5.5,9.5-12.2,13.1-12.9,23.7c5.2-52.3,33.8-83.3,28.8-135.6C329.4,56,320.5,84.9,306.1,133
			c11.9-44,2-93.3-30.5-128c17.7,41,26.8,84.9,26.7,128.8c-1.3-12.2-5.6-19.7-11.1-31c-7.9-16.2-20.7-33.1-35.8-44.5
			c-7.2-5.5-13.8-12-21.9-16.5c0.4,1.9,19,23.9,24,29.6c6.8,7.8,13.7,18.8,19.6,27.2c7.2,10.2,13.8,20.7,19.1,31.8
			c0.4,0.9,0.9,1.8,1.3,2.8c0,0-10.8-11.4-18.2-17.6c-17.5-14.7-35-29.5-52.6-44.2c8.7,18.4,23.2,34.6,41.4,46.3
			c8.6,5.5,18.6,10.7,21.7,19.7c-15-9.7-30.3-19.3-47.6-25.3c-17.3-5.9-36.9-7.9-54.3-2.2c17.6,1.2,35.4,2.3,52.5,6.3
			c17.1,4,33.7,10.9,46.1,22.1c-20.4-6-42-8.9-63.5-8.5c-8.7,0.1-17.9,1-25,5.5c56.3-2.6,80.9,8.2,80.9,8.2s-28.4-4.1-42.1-0.8
			c-5.1,1.2-11,4.4-10.4,9.2c29.5-5.7,60.5-5.1,89.7,1.9"/>
	</g>
	<g>
		
			<linearGradient id="SVGID_3_" gradientUnits="userSpaceOnUse" x1="506.2946" y1="303.6145" x2="594.6731" y2="150.5384" gradientTransform="matrix(-1 0 0 1 759.1594 0)">
			<stop  offset="0" style="stop-color:#00B36F"/>
			<stop  offset="1" style="stop-color:#9DE3AF"/>
		</linearGradient>
		<path class="st5" d="M267.1,245.6c-75.7-2.5-122.7-2.6-214.8-3.9c-12.4-0.2-25.7-0.3-45-0.4c37.1-5.9,49.4-12.6,72.7-15.2
			c10.4-1.2,20.1,6.5,29.4,1.9c7-3.5,6.4-13.4,19.4-17.3c8.7-2.6,22.6,4,27.9,4.6c9,1.1,18.2-1.3,21.7-9.6c3.1-7.5,1-24.4,4.8-29.9
			c14.7-21.3,46.2,0.7,52.2-7.3c2.8-3.7,4.6-7.9,7-11.8c14.5-24.3,47.1-40,86.1-12.4c0,0,8.4,5.9,13.7,1.9c5.3-4,6.6-14.6,19.8-16.5
			v111.1"/>
	</g>
	<g>
		<path class="st1" d="M256.8,148.9c0,0,4.2-17.5,0.7-19.2c-4-1.9-4.1,11.6-4.1,11.6s-3.1-11-6.4-9.5c-4.2,1.9,2.3,10.2,2.3,10.2
			s-8.7-6.6-9.4-2.9s8,7,8,7s-7-0.6-6.9,2.8C241.2,152.3,256.8,148.9,256.8,148.9z"/>
		<path class="st2" d="M256.8,148.9c0,0,7.6-14.4,3.6-16.1c-4-1.7-4.4,9.9-4.4,9.9s-0.3-13.4-3.8-12.9c-5.1,0.7,0,13.1,0,13.1
			s-5.1-10.3-8.5-8.4c-6.2,3.6,6.2,10.3,6.2,10.3s-8.3-4.6-9.9-2.3c-4.2,6.1,10.9,5.5,10.9,5.5s-9.7,0.1-8.9,3.8
			C242.8,155.6,256.8,148.9,256.8,148.9z"/>
		
			<linearGradient id="SVGID_4_" gradientUnits="userSpaceOnUse" x1="715.0394" y1="145.4249" x2="692.7535" y2="208.0278" gradientTransform="matrix(-1 0 0 1 975.4943 0)">
			<stop  offset="0" style="stop-color:#009A86"/>
			<stop  offset="1" style="stop-color:#9DE3AF"/>
		</linearGradient>
		<path class="st6" d="M252,147.8c0.4-0.7,3.5,0.2,3.5,0.2s-2-2.7-1.6-3.1c0.4-0.5,2.6,2.4,2.6,2.4s-1-3.7-0.3-3.8
			c0.6-0.1,1.2,3.2,1.2,3.2s1.5-3.5,2.1-3.7c0.2-0.1-0.1,1-0.5,2.2c-0.6,1.7,0,3.7,1.5,4.7c11.5,8.2,18.7,21.5,23.3,34.5
			c5.1,14.5,8,30.5,6.8,45.9c0,0.5-0.7,0.5-0.7,0c0.1-14.9-2-29.9-6.7-44c-4.6-13.8-11.9-27.3-23.6-36.3c-1.2-0.9-2.8-1.1-4.2-0.5
			c-1,0.5-2.1,0.9-2.2,0.8c-0.6-0.3,2-1.5,2-1.5S251.6,148.5,252,147.8z"/>
	</g>
	<g id="XMLID_583_">
		<g id="XMLID_592_">
			
				<linearGradient id="SVGID_5_" gradientUnits="userSpaceOnUse" x1="-2067.8508" y1="260.4799" x2="-2067.8508" y2="139.0918" gradientTransform="matrix(-1 0 0 1 -1779.2888 0)">
				<stop  offset="0" style="stop-color:#00775C"/>
				<stop  offset="1" style="stop-color:#9DE3AF"/>
			</linearGradient>
			<path class="st7" d="M267.1,248.9c0,0-33.5-0.5-33.8-7.5c-0.2-5.4,20.4-1.7,20.4-1.7S231,234,220.5,229c-2.3-1.1-4.7-2.3-6.3-4.3
				c-1.7-2-2.5-5-1.3-7.3c1.6-3.1,5.8-3.6,9.2-3.3c13.8,1.1,23.8,8.3,36.4,14.2c-9.2-4.3-17.5-10-25.4-16.6
				c-7.2-6.1-15.5-11.8-20.5-20.1c-3.1-5.2-4.6-13.1,0.4-17.7c4.8-4.5,12-2.8,17.6-1c14.9,4.7,28.2,14.7,37.2,27.8
				c-2.4-6.2-4.4-12.6-5.8-19.1c-0.6-2.6-0.9-5.9,1.2-7.5c2.7-2.1,6.5,0.4,8.7,3c5.4,6.3,9.7,13.7,12.4,21.7
				c-2.4-18-4.8-36.3-1.6-54.1c0.7-4.1,1.8-8.2,4.1-11.6c2.3-3.4,6.2-5.9,10.2-5.6c3.8,0.3,7,2.9,9.7,5.7c8.6,9.1,13.8,21.4,14.6,34
				s-2.9,25.5-10.3,35.6c3.9-4.6,22.9-31.7,33.7-25.7c10.8,6-24.3,34-27.3,38c10.4-13.5,27.2-21.4,43.8-20.8c2,0.1,4.3,0.4,5.4,2.2
				c0.6,1,0.7,2.3,0.6,3.5c-0.6,8.6-7.7,15.2-14.8,19.8c-6,3.9-12.3,7.3-18.6,10.6c3.6-0.7,7.4-1,11.1-0.9c0.8,0,1.8,0.1,2.3,0.8
				c1,1.3-0.3,3.1-1.5,4.1c-9,7.3-20.6,11.1-32,10.7"/>
		</g>
		<g>
			<g id="XMLID_591_">
				<path class="st8" d="M225.6,186.1c12.4,5.7,23,14.6,32.4,24.4c9.5,9.8,17.5,20.9,26.5,31.1c0.3,0.3,0.9-0.1,0.6-0.5
					c-8.1-11.3-17.3-22.2-27-32.1c-9.4-9.6-19.9-18.2-32.3-23.4C225.5,185.4,225.3,185.9,225.6,186.1L225.6,186.1z"/>
			</g>
			<g id="XMLID_590_">
				<path class="st8" d="M231.1,226.5c8,2.1,15.9,4.7,23.6,7.7c8,3.2,15.7,7.2,23.5,10.8c0.4,0.2,0.7-0.3,0.3-0.6
					c-14.2-9-31.1-14.7-47.2-18.7C230.8,225.6,230.6,226.4,231.1,226.5L231.1,226.5z"/>
			</g>
			<g id="XMLID_589_">
				<path class="st8" d="M301.7,252.1c12.4-10.1,27.6-14.5,42.4-19.4c0.4-0.1,0.2-0.7-0.2-0.6c-9.3,1.5-18.6,5.3-27,9.5
					c-5.5,2.8-11,6-15.8,10C300.7,251.9,301.3,252.5,301.7,252.1L301.7,252.1z"/>
			</g>
			<g id="XMLID_588_">
				<path class="st8" d="M244.8,244c12.7,0.6,25.2,2.3,37.9,3.2c0.3,0,0.4-0.5,0.1-0.5c-12.4-2.4-25.3-2.9-37.9-3.3
					C244.4,243.4,244.4,244,244.8,244L244.8,244z"/>
			</g>
			<g id="XMLID_587_">
				<path class="st8" d="M269,187.5c5.1,8.4,9.7,17.1,13.5,26.2c4,9.4,6.8,19.2,10,28.9c0.1,0.4,0.7,0.2,0.6-0.2
					c-1.8-9.7-5.3-19.3-9.1-28.3c-4-9.4-8.8-18.5-14.1-27.1C269.5,186.5,268.7,187,269,187.5L269,187.5z"/>
			</g>
			<g id="XMLID_586_">
				<path class="st8" d="M295.9,145c2.5,15.9,2.6,32.2,2,48.3c-0.7,15.9-2.8,31.6-4.2,47.4c0,0.6,0.9,0.7,1,0.1
					c2.8-15.8,4-32.1,4.6-48.1c0.6-16,0.1-32.2-2.4-48C296.7,144.2,295.8,144.4,295.9,145L295.9,145z"/>
			</g>
			<g id="XMLID_585_">
				<path class="st8" d="M337.8,185.2c-9.2,7.3-17.5,15.7-24.5,25.2c-7,9.5-13.9,20.4-17.4,31.8c-0.1,0.4,0.5,0.6,0.6,0.3
					c2.6-5.3,4.9-10.7,7.7-15.8c2.8-5.1,6-10.1,9.5-14.8c7.1-9.7,15.3-18.4,24.6-26C338.5,185.5,338.1,184.9,337.8,185.2
					L337.8,185.2z"/>
			</g>
			<g id="XMLID_584_">
				<path class="st8" d="M359.8,200.1c-11.2,6-23.1,10.4-34.4,16.3c-12.5,6.4-24.8,16.6-31.6,29.3c-0.3,0.6,0.5,1,0.9,0.5
					c8.7-12.5,19.3-22.6,32.8-29.4c10.9-5.5,22.3-9.8,33.1-15.6C361.1,200.8,360.5,199.7,359.8,200.1L359.8,200.1z"/>
			</g>
		</g>
	</g>
</g>
</svg>
