<?xml version="1.0" encoding="utf-8"?>
<!-- Generator: Adobe Illustrator 22.0.1, SVG Export Plug-In . SVG Version: 6.00 Build 0)  -->
<svg version="1.1" id="圖層_1" xmlns="http://www.w3.org/2000/svg" xmlns:xlink="http://www.w3.org/1999/xlink" x="0px" y="0px"
	 viewBox="0 0 50 50" style="enable-background:new 0 0 50 50;" xml:space="preserve">
<style type="text/css">
	.st0{fill:#FFFFFF;}
	.st1{fill:url(#XMLID_2_);}
	.st2{fill:url(#XMLID_3_);}
	.st3{fill:url(#XMLID_4_);}
	.st4{fill:url(#XMLID_5_);}
</style>
<g id="XMLID_44_">
	<g id="XMLID_51_">
		<path id="XMLID_54_" class="st0" d="M31.6,49C21.9,49.2,14,47.3,14,44.8c0-0.9,1.2-1.7,2.9-2.4c-3.4,0.9-5.5,2.1-5.5,3.4
			c0.1,2.5,7.9,4.4,17.6,4.2c6.3-0.1,11.5-1.1,14.5-2.4C40.4,48.4,36.2,49,31.6,49z"/>
		<path id="XMLID_53_" class="st0" d="M13.3,49c-5-0.7-8.6-2-8.8-3.8c-0.2-3,8-5.9,18.4-6.5c2.5-0.2,4.8-0.1,7,0
			c-3.1-0.4-6.6-0.6-10.5-0.4C9,38.9,0.8,41.8,1,44.8C1.2,47,6.3,48.7,13.3,49z"/>
		<path id="XMLID_52_" class="st0" d="M25.4,36.3C35.1,36.1,43,38,43,40.5c0,0.9-1.2,1.7-2.9,2.4c3.4-0.9,5.5-2.1,5.5-3.4
			c-0.1-2.5-7.9-4.4-17.6-4.2c-6.3,0.1-11.5,1.1-14.5,2.4C16.6,36.9,20.8,36.4,25.4,36.3z"/>
	</g>
	<g id="XMLID_45_">
		<g id="XMLID_49_">
			<linearGradient id="XMLID_2_" gradientUnits="userSpaceOnUse" x1="2.3452" y1="27.8011" x2="29.6049" y2="27.8011">
				<stop  offset="2.666300e-02" style="stop-color:#3EC5A4"/>
				<stop  offset="1" style="stop-color:#188182"/>
			</linearGradient>
			<path id="XMLID_50_" class="st1" d="M29.6,34.2c-0.1,3.5-0.4,6.8-0.7,9.6c-0.1,0.7-0.2,1.4-0.4,2.1c0.1,0.1,0,0.2,0,0.3h-1.1
				v-0.6c0-1.2,0-2.4,0.1-3.7c0,0,0,0,0,0c0-0.2,0-0.4,0.1-0.7c0-1.2,0.1-2.4,0.2-3.6v-0.4c0.1-0.8,0.1-1.7,0.1-2.8
				c0-0.5-0.1-1-0.1-1.5c-0.1-1.6-0.2-3.4-0.5-5.2c-0.4-2.5-1.1-5.1-2.1-7.5c-0.6-1.3-1.3-2.6-2.1-3.7c-1.2-1.7-2.7-3.2-4.6-4.1
				c-0.4-0.2-0.8-0.4-1.3-0.5c-0.3-0.1-0.5-0.2-0.7-0.2C7,9.1,2.3,18.4,2.3,18.4C2.7,15,8.9,8.1,16.3,9.6c0.5,0.1,1,0.3,1.5,0.4
				c2,0.7,4.1,2.1,6.1,4.2c0.8,0.9,1.5,1.9,2.1,2.9c1.2,2,2.1,4.3,2.6,6.8c0.3,1.1,0.5,2.3,0.6,3.4c0.1,0.3,0.1,0.6,0.2,0.9v0
				C29.5,30.3,29.6,32.3,29.6,34.2z"/>
		</g>
		<linearGradient id="XMLID_3_" gradientUnits="userSpaceOnUse" x1="25.8045" y1="31.5518" x2="49.0006" y2="31.5518">
			<stop  offset="2.666300e-02" style="stop-color:#3EC5A4"/>
			<stop  offset="1" style="stop-color:#188182"/>
		</linearGradient>
		<path id="XMLID_48_" class="st2" d="M49,24.6c0,0-0.2-0.3-0.5-0.9c-0.3-0.3-0.5-0.7-0.9-1.2c-1.8-2.3-5.6-5.3-11.1-3.5
			c-0.8,0.3-1.6,0.7-2.3,1.2c-0.2,0.1-0.3,0.2-0.5,0.3c-1.2,0.9-2.2,2.1-2.9,3.5c-0.3,0.4-0.5,0.9-0.8,1.4c0,0,0,0,0,0.1
			c-0.3,0.7-0.6,1.3-0.8,2c-0.4,1.1-0.7,2.3-0.9,3.5c-0.3,1.2-0.4,2.3-0.5,3.5c-0.2,0.9-0.2,1.8-0.2,2.6c-0.1,1.4-0.1,2.7-0.1,3.6
			c0,0.2,0.1,0.4,0.1,0.6c0,0.3,0.1,0.7,0.1,1.1c0.1,0.7,0.1,1.4,0.1,2.1c0,0,0,0.1,0,0.1v1.7h-0.4c-0.3,0-0.5,0-0.8,0
			c-0.3-2.4-0.6-5.2-0.6-8.1c0-1.7,0.1-3.4,0.2-5c0.2-1.8,0.5-3.6,1.1-5.3c0.4-1.3,0.9-2.5,1.5-3.6c0.5-1.1,1.2-2.1,2.1-2.9
			c0.1,0,0.1-0.1,0.2-0.2c0.1-0.2,0.2-0.3,0.4-0.4c0.9-1,1.9-1.6,2.8-2.2c0.3-0.2,0.6-0.4,1-0.5c5.8-2.6,11.2,1.4,13.2,4.8
			c0.3,0.4,0.5,0.8,0.6,1.2C48.9,24,48.9,24.3,49,24.6z"/>
		<linearGradient id="XMLID_4_" gradientUnits="userSpaceOnUse" x1="16.2448" y1="23.029" x2="25.6071" y2="23.029">
			<stop  offset="2.666300e-02" style="stop-color:#3EC5A4"/>
			<stop  offset="1" style="stop-color:#188182"/>
		</linearGradient>
		<path id="XMLID_47_" class="st3" d="M25.5,31.7L25.5,31.7c0.2,1.7,0.2,3.4,0,5.1v0c-0.2,3.4-0.8,6.5-1.4,9.1v0.1
			c-0.3,0-0.6,0-0.8-0.1c0.3-2.1,0.5-4.1,0.5-6.2c0.3-6.8-1-13.7-5.1-21.1c-1.5-2.6-2.2-4.9-2.4-7c-0.1-0.7-0.1-1.4,0-2
			c0.3-5.8,4.3-9.2,4.8-9.6c-1.1,1.4-3.9,4.4-3.3,10.1c0.1,0.7,0.3,1.5,0.5,2.3c0.6,2.3,1.7,4.9,3.6,7.8c1,1.6,1.8,3.2,2.4,5
			c0,0,0,0,0,0C25,27.3,25.3,29.5,25.5,31.7z"/>
		
			<linearGradient id="XMLID_5_" gradientUnits="userSpaceOnUse" x1="7379.6343" y1="472.8256" x2="7388.6504" y2="472.8256" gradientTransform="matrix(-1.1672 -0.1299 -9.881842e-02 0.8878 8701.1943 564.9934)">
			<stop  offset="2.666300e-02" style="stop-color:#3EC5A4"/>
			<stop  offset="1" style="stop-color:#188182"/>
		</linearGradient>
		<path id="XMLID_46_" class="st4" d="M29.9,32.5L29.9,32.5c-0.3,1.5-0.5,3-0.4,4.5l0,0c-0.1,3,0.4,5.9,0.9,8.3l0,0.1
			c0.4,0,0.7,0.1,1,0.1c-0.2-1.9-0.2-3.7-0.1-5.6c0.2-6.1,2.3-12,7.6-17.9c1.9-2.1,2.9-4,3.3-5.9c0.1-0.6,0.2-1.2,0.2-1.8
			c0.2-5.2-4.2-8.8-4.8-9.3c1.1,1.4,4.3,4.6,3,9.4c-0.2,0.6-0.4,1.3-0.8,2c-0.9,1.9-2.4,4-4.9,6.3c-1.3,1.2-2.3,2.6-3.2,4
			c0,0,0,0,0,0C30.8,28.7,30.2,30.6,29.9,32.5z"/>
	</g>
</g>
</svg>
