<?xml version="1.0" encoding="utf-8"?>
<!-- Generator: Adobe Illustrator 22.0.1, SVG Export Plug-In . SVG Version: 6.00 Build 0)  -->
<svg version="1.1" id="圖層_1" xmlns="http://www.w3.org/2000/svg" xmlns:xlink="http://www.w3.org/1999/xlink" x="0px" y="0px"
	 viewBox="0 0 55 70" style="enable-background:new 0 0 55 70;" xml:space="preserve">
<style type="text/css">
	.st0{fill:#FFFFFF;}
	.st1{fill:#EAC31C;}
	.st2{fill:#FFDA3E;}
	.st3{fill:url(#SVGID_1_);}
	.st4{fill:url(#SVGID_2_);}
	.st5{fill:url(#SVGID_3_);}
	.st6{fill:url(#SVGID_4_);}
	.st7{fill:url(#SVGID_5_);}
	.st8{fill:url(#SVGID_6_);}
	.st9{fill:url(#SVGID_7_);}
	.st10{fill:url(#SVGID_8_);}
	.st11{fill:url(#SVGID_9_);}
</style>
<g>
	<g id="XMLID_55_">
		<path id="XMLID_58_" class="st0" d="M28.5,68.4c-9,0.1-16.3-1.6-16.4-4c0-0.8,1.1-1.6,2.7-2.2c-3.1,0.8-5.2,1.9-5.1,3.1
			c0,2.3,7.4,4.1,16.4,4c5.8-0.1,10.7-1,13.5-2.2C36.7,67.9,32.8,68.4,28.5,68.4z"/>
		<path id="XMLID_57_" class="st0" d="M11.4,68.4c-4.7-0.6-8-1.8-8.2-3.5c-0.2-2.8,7.4-5.5,17.1-6.1c2.3-0.1,4.5-0.1,6.6,0
			c-2.9-0.4-6.1-0.6-9.8-0.3C7.4,59-0.2,61.8,0,64.5C0.2,66.6,4.9,68.1,11.4,68.4z"/>
		<path id="XMLID_56_" class="st0" d="M22.7,56.6c9-0.1,16.3,1.6,16.4,4c0,0.8-1.1,1.6-2.7,2.2c3.1-0.8,5.2-1.9,5.1-3.1
			c0-2.3-7.4-4.1-16.4-4c-5.8,0.1-10.7,1-13.5,2.2C14.5,57.2,18.4,56.7,22.7,56.6z"/>
	</g>
	<g>
		<path class="st1" d="M31.7,6.8c0.5,0.3,1.2-1,1.4-1.4c0.1-0.3,0.3-0.8,0.4-1.3c0-0.3,0.1-0.6,0.1-0.8C32.8,3.5,30.6,6.2,31.7,6.8
			L31.7,6.8z"/>
		<path class="st1" d="M30.3,17.8c0.5,0.3,1.6-1,1.8-1.4c0.2-0.4,0.3-0.9,0.4-1.4c0.1-0.3,0.1-0.6,0.2-0.9
			C31.9,14.3,29.2,17.1,30.3,17.8L30.3,17.8z"/>
		<path class="st1" d="M30.1,20.7c0.5,0.3,1.5-1.1,1.7-1.5c0.2-0.4,0.3-0.9,0.5-1.4c0.1-0.3,0.1-0.7,0.2-0.9
			C31.7,17,29,20,30.1,20.7L30.1,20.7z"/>
		<path class="st1" d="M30.9,12.4c0.5,0.3,1.3-0.9,1.5-1.3c0.2-0.3,0.3-0.8,0.5-1.3C33,9.5,33.1,9.2,33.1,9
			C32.4,9.1,29.8,11.7,30.9,12.4L30.9,12.4z"/>
		<path class="st2" d="M32.1,3.9l-0.5,0C28.7,25,28.4,42.6,29,62.7h0.6C28.9,42.6,29.3,25,32.1,3.9L32.1,3.9z"/>
		<path class="st2" d="M32.7,0.7C32,1,30.5,4.3,31.8,4.5c0.5,0.1,0.9-1.3,1-1.7c0-0.4,0-0.8,0-1.3C32.7,1.2,32.7,0.9,32.7,0.7
			L32.7,0.7z"/>
		<path class="st2" d="M31.2,9.4c0.5,0.3,1.5-1,1.7-1.4c0.1-0.3,0.3-0.8,0.4-1.3c0-0.3,0.1-0.6,0.1-0.8C32.7,6.1,30.1,8.8,31.2,9.4
			L31.2,9.4z"/>
		<path class="st2" d="M30.6,15.1c0.5,0.3,1.4-1,1.6-1.4c0.2-0.4,0.3-0.9,0.5-1.4c0.1-0.3,0.1-0.6,0.2-0.9
			C32.2,11.6,29.6,14.4,30.6,15.1L30.6,15.1z"/>
		<path class="st2" d="M30.3,2.9c0,0.2,0,0.5-0.1,0.8c0,0.4-0.1,0.9,0,1.3c0,0.4,0.4,1.8,1,1.7C32.4,6.4,30.9,3.2,30.3,2.9L30.3,2.9
			z"/>
		<path class="st2" d="M29.6,5.5c0,0.2,0,0.5,0,0.9c0,0.5,0,1,0.1,1.4c0.1,0.4,0.6,1.9,1.1,1.7C32,8.9,30.3,5.8,29.6,5.5L29.6,5.5z"
			/>
		<path class="st2" d="M28.6,13.7c0,0.3,0,0.6,0,0.9c0,0.5,0.1,1.1,0.2,1.4c0.1,0.4,0.7,1.9,1.2,1.7C31.2,17.2,29.3,14,28.6,13.7
			L28.6,13.7z"/>
		<path class="st2" d="M28.4,16.5c0,0.3,0,0.6,0,0.9c0,0.5,0,1.1,0.2,1.5c0.1,0.4,0.6,2,1.2,1.7C30.9,20.1,29.1,16.8,28.4,16.5
			L28.4,16.5z"/>
		<path class="st2" d="M29.8,23.9c0.5,0.3,1.6-1.1,1.8-1.6c0.2-0.4,0.3-1,0.5-1.5c0.1-0.4,0.2-0.7,0.2-1
			C31.5,20,28.7,23.1,29.8,23.9L29.8,23.9z"/>
		<path class="st2" d="M28.1,19.5c0,0.3,0,0.6,0,1c0,0.6,0,1.1,0.1,1.5c0.1,0.5,0.6,2.1,1.2,1.8C30.7,23.2,28.9,19.8,28.1,19.5
			L28.1,19.5z"/>
		<path class="st2" d="M28.8,11.1c0,0.3,0,0.6,0,0.9c0,0.5,0.1,1,0.2,1.4c0.1,0.4,0.7,1.9,1.2,1.6C31.4,14.5,29.5,11.4,28.8,11.1
			L28.8,11.1z"/>
		<path class="st2" d="M29.3,8.5c0,0.2,0,0.5,0,0.9c0,0.5,0,1,0.1,1.3c0.1,0.4,0.6,1.8,1.1,1.6C31.7,11.9,30,8.8,29.3,8.5L29.3,8.5z
			"/>
	</g>
	<g>
		<path class="st1" d="M17.6,34.6c-0.2,0.4-1.8-0.3-2.2-0.6c-0.4-0.3-0.8-0.7-1.1-1.1c-0.2-0.2-0.5-0.5-0.7-0.7
			C14.3,32.1,18,33.7,17.6,34.6L17.6,34.6z"/>
		<path class="st1" d="M12.8,24.8c0.2,0.4,0.4,0.9,0.5,1.2c0.1,0.4,0.4,1.8-0.2,1.7c-1.2,0-1.2-3.2-0.8-3.7
			C12.5,24.2,12.6,24.5,12.8,24.8L12.8,24.8z"/>
		<path class="st1" d="M8.6,19.9c0.6,0.3,1.6,3.6,0.4,4c-0.6,0.1-0.7-1.3-0.8-1.7c0-0.4,0.1-0.9,0.2-1.4C8.5,20.5,8.5,20.2,8.6,19.9
			L8.6,19.9z"/>
		<path class="st1" d="M4.3,20.9c0.6-0.3,3.8,0.6,3.4,1.8c-0.2,0.6-1.5-0.1-1.8-0.3c-0.3-0.2-0.7-0.6-1-0.9
			C4.7,21.3,4.4,21.1,4.3,20.9L4.3,20.9z"/>
		<path class="st2" d="M6.8,21.6c6.8,5.4,11.8,12.6,14.7,21.6c1.8,5.5,2.8,11.7,3,18.5H24c-0.6-17.5-6.3-30.8-17.2-39.5V21.6z"/>
		<path class="st2" d="M14.4,29.9c-0.1,0.4-1.8,0.1-2.2,0c-0.4-0.2-0.9-0.4-1.3-0.7c-0.3-0.2-0.5-0.4-0.8-0.5
			C10.8,28.3,14.6,28.8,14.4,29.9L14.4,29.9z"/>
		<path class="st2" d="M16,32.1c-0.2,0.4-1.8-0.1-2.2-0.3c-0.4-0.2-0.8-0.5-1.2-0.9c-0.3-0.2-0.5-0.4-0.7-0.6
			C12.5,30.1,16.3,31.1,16,32.1L16,32.1z"/>
		<path class="st2" d="M12.8,27.8c-0.1,0.5-1.7,0.1-2.1,0c-0.4-0.1-0.9-0.4-1.3-0.7c-0.3-0.2-0.5-0.3-0.8-0.5
			C9.2,26.4,12.9,26.8,12.8,27.8L12.8,27.8z"/>
		<path class="st2" d="M11.1,26.1c-0.1,0.5-1.6,0.1-2-0.1c-0.4-0.1-0.8-0.4-1.2-0.6c-0.3-0.1-0.5-0.3-0.7-0.4
			C7.7,24.6,11.3,25,11.1,26.1L11.1,26.1z"/>
		<path class="st2" d="M9.3,23.8c0,0.5-1.5,0.5-1.9,0.4c-0.4,0-0.9-0.1-1.3-0.3c-0.3-0.1-0.6-0.2-0.8-0.2
			C5.7,23.2,9.3,22.7,9.3,23.8L9.3,23.8z"/>
		<path class="st2" d="M14.4,26.4c0.2,0.4,0.4,0.9,0.5,1.3c0.1,0.4,0.3,1.9-0.3,1.8c-1.3-0.1-1-3.4-0.5-3.9
			C14.2,25.9,14.3,26.1,14.4,26.4L14.4,26.4z"/>
		<path class="st2" d="M16.1,28c0.1,0.2,0.2,0.5,0.3,0.8c0.2,0.5,0.3,1,0.4,1.4c0,0.4,0,1.9-0.5,1.8C14.9,31.7,15.5,28.3,16.1,28
			L16.1,28z"/>
		<path class="st2" d="M17.4,30.2c0.1,0.3,0.2,0.6,0.3,0.9c0.1,0.5,0.3,1,0.3,1.4c0,0.4,0,1.9-0.5,1.8
			C16.3,33.9,16.9,30.6,17.4,30.2L17.4,30.2z"/>
		<path class="st2" d="M11,23.1c0.3,0.4,0.5,0.8,0.6,1.1c0.1,0.4,0.5,1.7,0,1.7c-1.2,0.1-1.4-3-1-3.5C10.7,22.7,10.9,22.9,11,23.1
			L11,23.1z"/>
	</g>
	
		<linearGradient id="SVGID_1_" gradientUnits="userSpaceOnUse" x1="561.9903" y1="-498.195" x2="565.9529" y2="-498.195" gradientTransform="matrix(0.8898 0.4563 -0.4563 0.8898 -690.6054 225.8053)">
		<stop  offset="2.666300e-02" style="stop-color:#3EC5A4"/>
		<stop  offset="1" style="stop-color:#188182"/>
	</linearGradient>
	<path class="st3" d="M26.6,62.1c0,0,5.9-14.9,9.7-22.3S49,16.6,49,16.6S41.2,33.9,38.7,39s-9.9,24.2-9.9,24.2S27.3,63,26.6,62.1z"
		/>
	<g>
		<path class="st1" d="M48.5,17.5c0.1,0.5,1.7,0,2.1-0.1c0.4-0.1,0.9-0.4,1.3-0.7c0.3-0.2,0.5-0.3,0.8-0.5
			C52,15.8,48.2,16.4,48.5,17.5L48.5,17.5z"/>
		<path class="st1" d="M46.4,19.2c0.1,0.5,1.9,0.2,2.3,0c0.4-0.2,0.9-0.4,1.3-0.7c0.3-0.2,0.6-0.4,0.8-0.5
			C50.2,17.7,46.1,18.1,46.4,19.2L46.4,19.2z"/>
		<path class="st1" d="M41.2,25.3c0.1,0.5,2,0.1,2.4,0c0.4-0.2,0.9-0.5,1.4-0.8c0.3-0.2,0.6-0.4,0.8-0.6
			C45.2,23.6,41,24.2,41.2,25.3L41.2,25.3z"/>
		<path class="st1" d="M43,23.1c0.1,0.5,1.8,0.2,2.3,0c0.4-0.1,0.9-0.4,1.4-0.7c0.3-0.2,0.6-0.4,0.8-0.5
			C46.9,21.5,42.8,21.9,43,23.1L43,23.1z"/>
		<path class="st1" d="M52.3,13.5c-0.5,0.2-2.1,1.3-1.7,1.8c1,1.1,4.3-1.8,4.4-2.7c-0.3,0.1-0.7,0.2-1.1,0.3
			C53.3,13.1,52.7,13.3,52.3,13.5L52.3,13.5z"/>
		<path class="st1" d="M37.9,30.6c0.3,0.5,2-0.4,2.4-0.7c0.4-0.3,0.8-0.7,1.2-1.2c0.3-0.3,0.5-0.6,0.7-0.8
			C41.5,27.8,37.3,29.5,37.9,30.6L37.9,30.6z"/>
		<path class="st2" d="M51.5,15.4L51.1,15C42.8,21,37,29.5,33.8,40.1c-2,6.7-2.9,14.2-2.8,22.6h0.5C31.2,41.1,37.9,25.2,51.5,15.4
			L51.5,15.4z"/>
		<path class="st2" d="M39.5,27.8c0.2,0.5,2-0.1,2.4-0.3c0.4-0.2,0.9-0.6,1.4-0.9c0.3-0.2,0.6-0.5,0.8-0.7
			C43.3,25.6,39.1,26.7,39.5,27.8L39.5,27.8z"/>
		<path class="st2" d="M44.8,21.1c0.1,0.5,1.7,0.1,2.2-0.1c0.4-0.1,0.9-0.4,1.3-0.7c0.3-0.2,0.6-0.3,0.8-0.5
			C48.4,19.6,44.5,20,44.8,21.1L44.8,21.1z"/>
		<path class="st2" d="M49.8,14.1c-0.4,0.3-0.8,0.7-1,1c-0.3,0.3-1.1,1.6-0.6,1.9c1.2,0.6,2.6-2.7,2.4-3.5
			C50.3,13.7,50,13.9,49.8,14.1L49.8,14.1z"/>
		<path class="st2" d="M46.8,15.7c-0.3,0.4-0.6,0.8-0.8,1.2c-0.2,0.4-0.6,1.9,0,2.1c1.4,0.4,1.8-3.3,1.3-4
			C47.2,15.2,47,15.5,46.8,15.7L46.8,15.7z"/>
		<path class="st2" d="M41.1,21.6c-0.2,0.5-0.4,1-0.5,1.4c-0.1,0.4-0.2,2.1,0.4,2c1.4-0.1,1-3.8,0.5-4.3
			C41.3,20.9,41.2,21.2,41.1,21.6L41.1,21.6z"/>
		<path class="st2" d="M39.3,23.2c-0.1,0.3-0.2,0.6-0.3,1c-0.2,0.5-0.3,1.1-0.3,1.5c0,0.5,0,2.1,0.6,2
			C40.7,27.4,39.9,23.6,39.3,23.2L39.3,23.2z"/>
		<path class="st2" d="M37.9,25.7c-0.1,0.3-0.2,0.6-0.3,1c-0.1,0.5-0.3,1.1-0.3,1.5c0,0.5,0,2.1,0.6,2
			C39.3,29.8,38.5,26.2,37.9,25.7L37.9,25.7z"/>
		<path class="st2" d="M42.9,19.7c-0.2,0.5-0.5,1-0.6,1.3c-0.1,0.4-0.3,2,0.3,1.9c1.4,0,1.2-3.6,0.7-4.1
			C43.2,19.1,43.1,19.4,42.9,19.7L42.9,19.7z"/>
		<path class="st2" d="M44.7,17.9c-0.3,0.4-0.5,0.9-0.7,1.2c-0.1,0.4-0.5,1.8,0.1,1.9c1.3,0.1,1.5-3.3,1.1-3.9
			C45.1,17.4,44.9,17.7,44.7,17.9L44.7,17.9z"/>
	</g>
	<linearGradient id="SVGID_2_" gradientUnits="userSpaceOnUse" x1="6.2294" y1="33.596" x2="22.2907" y2="33.596">
		<stop  offset="2.666300e-02" style="stop-color:#3EC5A4"/>
		<stop  offset="1" style="stop-color:#188182"/>
	</linearGradient>
	<path class="st4" d="M22.3,56.6c0,0,0.1-15.4-2.1-23.1s-4-12.6-7.2-17s-6.7-5.9-6.7-5.9s6.6,6.8,9.3,14.6s3.5,15.2,3.8,19.8
		s0.4,11.6,0.4,11.6S21.3,56.7,22.3,56.6z"/>
	<linearGradient id="SVGID_3_" gradientUnits="userSpaceOnUse" x1="22.3945" y1="44.0968" x2="29.6425" y2="44.0968">
		<stop  offset="2.666300e-02" style="stop-color:#3EC5A4"/>
		<stop  offset="1" style="stop-color:#188182"/>
	</linearGradient>
	<path class="st5" d="M26.4,62.5c0,0-0.2-18.3-0.7-22.2c-0.6-3.9-2.8-11.2-3-12.4S22.4,25,22.4,25S25.8,34,26.7,36
		c0.9,2,1.7,8.7,2,11.2s0.9,15.9,0.9,15.9S28,63.5,26.4,62.5z"/>
	<linearGradient id="SVGID_4_" gradientUnits="userSpaceOnUse" x1="19.8506" y1="40.7522" x2="27.9245" y2="40.7522">
		<stop  offset="2.666300e-02" style="stop-color:#3EC5A4"/>
		<stop  offset="1" style="stop-color:#188182"/>
	</linearGradient>
	<path class="st6" d="M19.9,62.7h5.4c2.2-9.8,4.4-25.8,0.7-43.8c0.4,15.5-1,28-2.4,36.4c0.7-9.9,0.4-23-3.6-36.3
		C22.1,39.1,20.9,54.7,19.9,62.7z"/>
	<g>
		<path class="st1" d="M16,20.5c0.1,0.3,0.2,0.6,0.3,0.9c0.2,0.5,0.4,1,0.5,1.4c0.2,0.4,1.4,1.7,1.9,1.4
			C19.7,23.4,16.8,20.6,16,20.5L16,20.5z"/>
		<path class="st1" d="M15.9,17.8c0.1,0.3,0.1,0.6,0.2,0.9c0.1,0.5,0.3,1,0.4,1.4c0.2,0.4,1.2,1.7,1.7,1.4
			C19.2,20.8,16.6,18,15.9,17.8L15.9,17.8z"/>
		<path class="st1" d="M15.7,15.3c0,0.2,0.1,0.5,0.2,0.8c0.1,0.4,0.3,0.9,0.5,1.3c0.2,0.4,1,1.7,1.5,1.4
			C18.9,18.1,16.4,15.4,15.7,15.3L15.7,15.3z"/>
		<path class="st1" d="M19.1,24.2c0.5,0.3,1-1.2,1.1-1.7c0.1-0.4,0.1-0.9,0.1-1.4c0-0.3,0-0.6,0-0.9C19.6,20.5,17.9,23.7,19.1,24.2
			L19.1,24.2z"/>
		<path class="st1" d="M19.5,30.3c0.5,0.3,1.1-1.2,1.2-1.7c0.1-0.4,0.2-1,0.2-1.5c0-0.3,0-0.7,0-1C20.3,26.3,18.4,29.6,19.5,30.3
			L19.5,30.3z"/>
		<path class="st1" d="M18.3,18.7c0.5,0.2,1-1.2,1.1-1.6c0.1-0.4,0.1-0.9,0.1-1.3c0-0.3,0-0.6,0-0.8C18.8,15.2,17.1,18.2,18.3,18.7
			L18.3,18.7z"/>
		<path class="st2" d="M18.2,17.1c-0.3-2.2-0.6-4.5-1-7l-0.5,0c0.3,2.4,0.6,4.7,1,7c2.1,15.4,3.8,27.4,1.9,45.5h0.6
			C21.9,44.6,20.3,32.5,18.2,17.1L18.2,17.1z"/>
		<path class="st2" d="M15.8,6.4c0,0.3,0,0.6-0.1,0.9c0,0.5,0,1.1,0,1.5c0.1,0.5,0.5,2.1,1.2,2C18.4,10.6,16.6,6.9,15.8,6.4
			L15.8,6.4z"/>
		<path class="st2" d="M15.2,9.5c0,0.2,0.1,0.5,0.1,0.8c0.1,0.4,0.2,0.9,0.3,1.3c0.2,0.4,0.9,1.7,1.4,1.4C18.2,12.5,16,9.7,15.2,9.5
			L15.2,9.5z"/>
		<path class="st2" d="M15.4,12.1c0,0.2,0.1,0.6,0.1,0.9c0.1,0.5,0.2,1,0.4,1.4c0.2,0.4,1.2,1.7,1.7,1.4
			C18.6,15.2,16.1,12.3,15.4,12.1L15.4,12.1z"/>
		<path class="st2" d="M16.5,23.2c0.1,0.3,0.2,0.6,0.3,0.9c0.2,0.5,0.4,1.1,0.6,1.4c0.2,0.4,1.4,1.8,1.9,1.5
			C20.2,26.3,17.3,23.4,16.5,23.2L16.5,23.2z"/>
		<path class="st2" d="M18.5,9.2c-0.6,0.3-2.1,3.4-0.8,3.8c0.5,0.1,0.9-1.3,1-1.7c0-0.4,0-0.9,0-1.3C18.5,9.8,18.5,9.5,18.5,9.2
			L18.5,9.2z"/>
		<path class="st2" d="M18,15.7c0.5,0.2,1-1.2,1.1-1.6c0.1-0.4,0.1-0.9,0.1-1.4c0-0.3,0-0.6,0-0.9C18.5,12.1,16.8,15.2,18,15.7
			L18,15.7z"/>
		<path class="st2" d="M20.7,22.8c-0.7,0.3-2.4,3.6-1.2,4.2c0.6,0.3,1-1.3,1.1-1.7c0.1-0.4,0.1-1,0.1-1.5
			C20.7,23.5,20.7,23.1,20.7,22.8L20.7,22.8z"/>
		<path class="st2" d="M16.9,26.2c0.1,0.3,0.1,0.6,0.2,1c0.1,0.5,0.3,1.1,0.5,1.5c0.2,0.5,1.3,2,1.8,1.7
			C20.5,29.7,17.7,26.4,16.9,26.2L16.9,26.2z"/>
		<path class="st2" d="M18.5,21.5c0.5,0.3,1.1-1.2,1.2-1.6c0.1-0.4,0.2-0.9,0.2-1.4c0-0.3,0-0.6,0-0.9
			C19.3,17.8,17.3,20.9,18.5,21.5L18.5,21.5z"/>
	</g>
	<linearGradient id="SVGID_5_" gradientUnits="userSpaceOnUse" x1="29.0093" y1="42.2306" x2="33.2864" y2="42.2306">
		<stop  offset="2.666300e-02" style="stop-color:#3EC5A4"/>
		<stop  offset="1" style="stop-color:#188182"/>
	</linearGradient>
	<path class="st7" d="M33.1,64.9H30c-1.4-10.8-2-27.9,3.3-45.3C31,40.1,32.1,56.2,33.1,64.9z"/>
	<linearGradient id="SVGID_6_" gradientUnits="userSpaceOnUse" x1="26.9072" y1="41.185" x2="42.9686" y2="41.185">
		<stop  offset="2.666300e-02" style="stop-color:#3EC5A4"/>
		<stop  offset="1" style="stop-color:#188182"/>
	</linearGradient>
	<path class="st8" d="M26.9,64.1c0,0-0.1-15.4,2.1-23.1s4-12.6,7.2-17c3.3-4.4,6.7-5.9,6.7-5.9s-6.6,6.8-9.3,14.6S30.2,48,29.9,52.5
		s-0.4,11.6-0.4,11.6S27.9,64.3,26.9,64.1z"/>
	<linearGradient id="SVGID_7_" gradientUnits="userSpaceOnUse" x1="22.8017" y1="38.6201" x2="26.9072" y2="38.6201">
		<stop  offset="2.666300e-02" style="stop-color:#3EC5A4"/>
		<stop  offset="1" style="stop-color:#188182"/>
	</linearGradient>
	<path class="st9" d="M26.9,65.2c0,0-1.3-35.7-1.9-40.6s-2.2-12.6-2.2-12.6s0.8,13,0.9,16.5s0.1,36.5,0.1,36.5S25.3,65.6,26.9,65.2z
		"/>
	<linearGradient id="SVGID_8_" gradientUnits="userSpaceOnUse" x1="11.7039" y1="49.5729" x2="21.0868" y2="49.5729">
		<stop  offset="2.666300e-02" style="stop-color:#3EC5A4"/>
		<stop  offset="1" style="stop-color:#188182"/>
	</linearGradient>
	<path class="st10" d="M21.1,64.3c0,0-1.9-14.3-3.8-18.7c-1.8-4.4-5.6-10.9-5.6-10.9s4.9,12.2,5.4,18.8s0.2,10.5,0.2,10.5
		S19.2,64.6,21.1,64.3z"/>
	<linearGradient id="SVGID_9_" gradientUnits="userSpaceOnUse" x1="15.625" y1="53.6314" x2="29.09" y2="53.6314">
		<stop  offset="2.666300e-02" style="stop-color:#3EC5A4"/>
		<stop  offset="1" style="stop-color:#188182"/>
	</linearGradient>
	<path class="st11" d="M18.2,65.4c0,0,2.6-8.7,5.2-13.3s5.7-10.3,5.7-10.3s-6.3,7.3-8.9,12.4s-4.6,10.5-4.6,10.5L18.2,65.4z"/>
</g>
</svg>
