<?xml version="1.0" encoding="utf-8"?>
<!-- Generator: Adobe Illustrator 22.0.1, SVG Export Plug-In . SVG Version: 6.00 Build 0)  -->
<svg version="1.1" id="圖層_1" xmlns="http://www.w3.org/2000/svg" xmlns:xlink="http://www.w3.org/1999/xlink" x="0px" y="0px"
	 viewBox="0 0 20 20" style="enable-background:new 0 0 20 20;" xml:space="preserve">
<style type="text/css">
	.st0{fill:#B7AA9C;}
	.st1{fill:#CAB39C;}
	.st2{fill:none;stroke:#DDD9D3;stroke-width:0.2934;stroke-miterlimit:10;}
</style>
<g>
	<path class="st0" d="M14.3,1.1c0,0,0.8-1.1,1.3-1.1c0.5,0,1.5,0.5,2.1,0.8c0.6,0.3,0.9,1.4,0.9,1.5c0,0.1-0.7,1.1-0.7,1.1L14.3,1.1
		z"/>
	<path class="st1" d="M9.1,4.8c11.1-5.9,7.6,7.5,3.9,10.6S1.6,22.8,1.5,17.6S2.3,8.4,9.1,4.8z"/>
	<path class="st2" d="M15.9,4.2c0,0-4.8,4-7.8,7.5s-5.5,8.1-5.5,8.1"/>
	<path class="st0" d="M7.5,5.7c0,0,4.1-4.2,6.4-4.5s2.7,0.4,3.3,0.9c0.5,0.5,1.2,3.2,0.7,5c-0.5,1.8-1.8,3.1-1.8,3.1l-0.9-5.3
		C15.2,4.7,9,5.8,7.5,5.7z"/>
</g>
</svg>
