<?xml version="1.0" encoding="utf-8"?>
<!-- Generator: Adobe Illustrator 22.0.1, SVG Export Plug-In . SVG Version: 6.00 Build 0)  -->
<svg version="1.1" id="圖層_1" xmlns="http://www.w3.org/2000/svg" xmlns:xlink="http://www.w3.org/1999/xlink" x="0px" y="0px"
	 viewBox="0 0 50 70" style="enable-background:new 0 0 50 70;" xml:space="preserve">
<style type="text/css">
	.st0{fill:#FFFFFF;}
	.st1{fill:url(#SVGID_1_);}
	.st2{fill:url(#SVGID_2_);}
	.st3{fill:url(#SVGID_3_);}
	.st4{fill:url(#SVGID_4_);}
	.st5{fill:url(#SVGID_5_);}
	.st6{fill:url(#SVGID_6_);}
	.st7{fill:url(#SVGID_7_);}
	.st8{fill:url(#SVGID_8_);}
	.st9{fill:url(#SVGID_9_);}
</style>
<g>
	<g id="XMLID_59_">
		<path id="XMLID_62_" class="st0" d="M33.1,68.1c-10.5,0.2-19-1.9-19.1-4.6c0-1,1.3-1.8,3.1-2.6c-3.7,1-6,2.2-6,3.6
			c0.1,2.7,8.6,4.8,19.1,4.6c6.8-0.1,12.4-1.2,15.7-2.6C42.7,67.5,38.2,68.1,33.1,68.1z"/>
		<path id="XMLID_61_" class="st0" d="M13.3,68.1C7.8,67.4,3.9,66,3.8,64c-0.3-3.2,8.7-6.4,19.9-7.1c2.7-0.2,5.2-0.2,7.6,0
			c-3.3-0.4-7.1-0.7-11.4-0.4C8.7,57.2-0.3,60.4,0,63.6C0.2,66,5.7,67.7,13.3,68.1z"/>
		<path id="XMLID_60_" class="st0" d="M26.4,54.4c10.5-0.2,19,1.9,19.1,4.6c0,1-1.3,1.8-3.1,2.6c3.7-1,6-2.2,6-3.6
			c-0.1-2.7-8.6-4.8-19.1-4.6c-6.8,0.1-12.4,1.2-15.7,2.6C16.9,55,21.4,54.4,26.4,54.4z"/>
	</g>
	<g>
		
			<linearGradient id="SVGID_1_" gradientUnits="userSpaceOnUse" x1="4.4145" y1="466.4757" x2="9.0257" y2="466.4757" gradientTransform="matrix(0.9945 0.1043 -0.1043 0.9945 82.8999 -433.6082)">
			<stop  offset="2.666300e-02" style="stop-color:#3EC5A4"/>
			<stop  offset="1" style="stop-color:#188182"/>
		</linearGradient>
		<path class="st1" d="M37.3,60.2c0,0,0.2-18.6,1.2-28.3c1-9.7,4-30.5,4-30.5s-1.1,22.1-1.7,28.7c-0.6,6.6-0.6,30.5-0.6,30.5
			S38.4,60.9,37.3,60.2z"/>
		<linearGradient id="SVGID_2_" gradientUnits="userSpaceOnUse" x1="7.2488" y1="27.6008" x2="25.9384" y2="27.6008">
			<stop  offset="2.666300e-02" style="stop-color:#3EC5A4"/>
			<stop  offset="1" style="stop-color:#188182"/>
		</linearGradient>
		<path class="st2" d="M25.9,54.3c0,0,0.2-17.9-2.5-26.9S18.8,12.8,15,7.7S7.2,0.8,7.2,0.8s7.7,7.9,10.8,17s4.1,17.7,4.4,23
			c0.3,5.3,0.4,13.5,0.4,13.5S24.8,54.5,25.9,54.3z"/>
		<linearGradient id="SVGID_3_" gradientUnits="userSpaceOnUse" x1="26.0592" y1="39.82" x2="34.4932" y2="39.82">
			<stop  offset="2.666300e-02" style="stop-color:#3EC5A4"/>
			<stop  offset="1" style="stop-color:#188182"/>
		</linearGradient>
		<path class="st3" d="M30.8,61.3c0,0-0.2-21.3-0.8-25.9s-3.2-13-3.4-14.4s-0.4-3.4-0.4-3.4s4,10.4,5,12.7c1,2.3,1.9,10.1,2.3,13
			s1.1,18.5,1.1,18.5S32.6,62.4,30.8,61.3z"/>
		<linearGradient id="SVGID_4_" gradientUnits="userSpaceOnUse" x1="23.0989" y1="35.9281" x2="32.4941" y2="35.9281">
			<stop  offset="2.666300e-02" style="stop-color:#3EC5A4"/>
			<stop  offset="1" style="stop-color:#188182"/>
		</linearGradient>
		<path class="st4" d="M23.1,61.4h6.3c2.6-11.4,5.1-30.1,0.9-51c0.4,18.1-1.2,32.6-2.8,42.4c0.8-11.5,0.5-26.8-4.2-42.3
			C25.7,34,24.3,52.2,23.1,61.4z"/>
		<linearGradient id="SVGID_5_" gradientUnits="userSpaceOnUse" x1="33.7564" y1="37.6484" x2="38.7335" y2="37.6484">
			<stop  offset="2.666300e-02" style="stop-color:#3EC5A4"/>
			<stop  offset="1" style="stop-color:#188182"/>
		</linearGradient>
		<path class="st5" d="M38.5,64h-3.6c-1.6-12.6-2.4-32.4,3.8-52.7C36.1,35.2,37.3,53.9,38.5,64z"/>
		<linearGradient id="SVGID_6_" gradientUnits="userSpaceOnUse" x1="31.3104" y1="36.4317" x2="50" y2="36.4317">
			<stop  offset="2.666300e-02" style="stop-color:#3EC5A4"/>
			<stop  offset="1" style="stop-color:#188182"/>
		</linearGradient>
		<path class="st6" d="M31.3,63.2c0,0-0.2-17.9,2.5-26.9c2.6-9,4.6-14.6,8.4-19.7S50,9.6,50,9.6s-7.7,7.9-10.8,17
			c-3.2,9.1-4.1,17.7-4.4,23c-0.3,5.3-0.4,13.5-0.4,13.5S32.5,63.3,31.3,63.2z"/>
		<linearGradient id="SVGID_7_" gradientUnits="userSpaceOnUse" x1="26.5329" y1="33.4471" x2="31.3104" y2="33.4471">
			<stop  offset="2.666300e-02" style="stop-color:#3EC5A4"/>
			<stop  offset="1" style="stop-color:#188182"/>
		</linearGradient>
		<path class="st7" d="M31.3,64.4c0,0-1.5-41.5-2.2-47.3c-0.7-5.8-2.6-14.7-2.6-14.7s0.9,15.2,1,19.2S27.7,64,27.7,64
			S29.5,64.8,31.3,64.4z"/>
		<linearGradient id="SVGID_8_" gradientUnits="userSpaceOnUse" x1="13.6191" y1="40.6839" x2="24.5375" y2="40.6839">
			<stop  offset="2.666300e-02" style="stop-color:#3EC5A4"/>
			<stop  offset="1" style="stop-color:#188182"/>
		</linearGradient>
		<path class="st8" d="M24.5,63.3c0,0-2.3-21.9-4.4-28.7s-6.5-16.7-6.5-16.7s5.7,18.7,6.3,28.9C20.5,57,20.2,63,20.2,63
			S22.4,63.8,24.5,63.3z"/>
		<linearGradient id="SVGID_9_" gradientUnits="userSpaceOnUse" x1="18.1819" y1="50.9148" x2="33.8503" y2="50.9148">
			<stop  offset="2.666300e-02" style="stop-color:#3EC5A4"/>
			<stop  offset="1" style="stop-color:#188182"/>
		</linearGradient>
		<path class="st9" d="M21.2,64.6c0,0,3-10.1,6.1-15.4s6.6-12,6.6-12s-7.3,8.5-10.3,14.4s-5.3,12.2-5.3,12.2L21.2,64.6z"/>
	</g>
</g>
</svg>
