<?xml version="1.0" encoding="utf-8"?>
<!-- Generator: Adobe Illustrator 22.0.1, SVG Export Plug-In . SVG Version: 6.00 Build 0)  -->
<svg version="1.1" id="圖層_1" xmlns="http://www.w3.org/2000/svg" xmlns:xlink="http://www.w3.org/1999/xlink" x="0px" y="0px"
	 viewBox="0 0 50 50" style="enable-background:new 0 0 50 50;" xml:space="preserve">
<style type="text/css">
	.st0{fill:#74450C;}
	.st1{clip-path:url(#SVGID_2_);fill:#74450C;}
	.st2{clip-path:url(#SVGID_2_);fill:#6B3C0E;}
	.st3{clip-path:url(#SVGID_2_);}
	.st4{fill:#703E11;}
	.st5{fill:#70410D;}
	.st6{fill:#70410E;}
	.st7{fill:#7C4811;}
	.st8{fill:#432700;}
	.st9{opacity:0.47;fill:#5B2F08;}
	.st10{fill:url(#XMLID_3_);}
	.st11{fill:url(#XMLID_10_);}
	.st12{fill:url(#XMLID_11_);}
</style>
<g id="XMLID_1_">
	<g>
		<g>
			<path class="st0" d="M0.7,45.1c0-0.1,1.6-0.3,2.2-0.4c4.8-0.7,7.4-3,10.4-4.5c0.7-0.3,7.8-3.8,14.9-2.9c5.8,0.7,11.8,4.2,12.9,5
				c0.2,0.2,0.8,0.6,1.8,1c1.3,0.5,2.5,0.5,2.5,0.6c0,0.2-9.5,5-20.6,5C14.4,48.9,0.7,45.3,0.7,45.1z"/>
			<g>
				<defs>
					<path id="SVGID_1_" d="M0.7,45.1c0-0.1,1.6-0.3,2.2-0.4c4.8-0.7,7.4-3,10.4-4.5c0.7-0.3,7.8-3.8,14.9-2.9
						c5.8,0.7,11.8,4.2,12.9,5c0.2,0.2,0.8,0.6,1.8,1c1.3,0.5,2.5,0.5,2.5,0.6c0,0.2-9.2,5-20.3,5C13.7,48.9,0.7,45.3,0.7,45.1z"/>
				</defs>
				<clipPath id="SVGID_2_">
					<use xlink:href="#SVGID_1_"  style="overflow:visible;"/>
				</clipPath>
				<path class="st1" d="M0.7,45.1c0-0.1,1.6-0.3,2.2-0.4c4.8-0.7,7.4-3,10.4-4.5c0.7-0.3,7.8-3.8,14.9-2.9c5.8,0.7,11.8,4.2,12.9,5
					c0.2,0.2,0.8,0.6,1.8,1c1.3,0.5,2.5,0.5,2.5,0.6c0,0.2-3.2-0.2-4.4,0.7c-0.4,0.3-0.3,0.4-0.7,0.7c-1.1,0.5-2.6,0.2-2.8,0.5
					c-0.2,0.3,1,0.6,0.9,0.8c-0.2,0.4-4.9,0.2-7.4-0.1c-0.3,0-1.1-0.1-1.7,0.1c-0.7,0.2-0.8,0.6-1.1,0.7c-1.1,0.7-4.8-0.6-8.4-1.1
					C14,45.4,8.8,46.5,8.4,45.8c-0.2-0.3,0.7-0.6,0.4-0.9c-0.3-0.3-1.4-0.1-3.5,0.1C4,45.1,0.7,45.3,0.7,45.1z"/>
				<path class="st1" d="M0.7,45.1c0-0.1,1.6-0.3,2.2-0.4c4.8-0.7,7.4-3,10.4-4.5c0.7-0.3,7.8-3.8,14.9-2.9c5.8,0.7,11.8,4.2,12.9,5
					c0.2,0.2,0.8,0.6,1.8,1c1.3,0.5,2.5,0.5,2.5,0.6c0,0.2-3.2-0.2-4.4,0.7c-0.4,0.3-0.3,0.4-0.7,0.7c-1.1,0.5-2.6,0.2-2.8,0.5
					c-0.2,0.3,1,0.6,0.9,0.8c-0.2,0.4-4.9,0.2-7.4-0.1c-0.3,0-1.1-0.1-1.7,0.1c-0.7,0.2-0.8,0.6-1.1,0.7c-1.1,0.7-4.8-0.6-8.4-1.1
					C14,45.4,8.8,46.5,8.4,45.8C8.2,45.5,0.7,45.3,0.7,45.1z"/>
				<path class="st2" d="M39.8,43.8c0.8-1.7-4.4-3.9-5.5-4.5c-1.3-0.6-3.3-1.4-6.1-2c2.3,0.4,4,0.9,5.1,1.2c2.5,0.9,5.9,2.4,7.8,3.7
					c0.3,0.2,0.8,0.6,1.8,1c1.3,0.5,2.5,0.5,2.5,0.6c0,0.2-3.2-0.2-4.4,0.7c-0.4,0.3-0.3,0.4-0.7,0.7c-1.1,0.5-2.6,0.2-2.8,0.5
					c-0.2,0.3,1,0.6,0.9,0.8c-0.2,0.4-4.9,0.2-7.4-0.1c-0.3,0-1.1-0.1-1.7,0.1c-0.7,0.2-0.8,0.6-1.1,0.7c-1.1,0.7-4.8-0.6-8.4-1.1
					c-5.9-0.8-11.2-0.8-10.9-1c-0.2,0.2-0.4,0.5-0.3,0.6c0.3,0.3,1.6,0.1,2.1,0c2.7-0.4,5.5-0.4,6.6-0.4c2,0.1,4,0.6,7.9,1.5
					c0.8,0.2,2.3,0.6,3.1,0.2c0.6-0.3,0.3-0.7,0.9-1c0.7-0.3,1.7,0.1,3.6,0.3c2.6,0.4,5.2,0.2,5.3-0.1c0.1-0.2-0.8-0.3-0.8-0.7
					c0-0.4,1-0.5,1.9-1.1C39,44.8,39.5,44.4,39.8,43.8z"/>
				<g class="st3">
					<path class="st4" d="M29.7,37.6c2.5,0.6,4.4,1.3,5.8,1.9c0,0,4.1,1.6,5.1,3.1c0.1,0.2,0.6,0.9,0,1.2l0,0
						c-0.1,0.1-0.1,0.2-0.3,0.4c0,0-0.3,0.3-0.7,0.5c-0.5,0.3-1.7,0.5-3.1,0.5c2.2-0.4,2.7-0.8,2.8-1.1c0.3-1-3.2-1.7-6.9-4.2
						C31.1,38.9,30.2,38.1,29.7,37.6z"/>
					<path class="st5" d="M34.6,41.5c3,1.5,4.3,1.8,4.1,2.4c-0.1,0.2-0.4,0.3-0.9,0.5c-1.1,0.4-2.6,0.5-3.8,0.1
						c-1-0.3-1.3-0.9-1.7-1.6c-0.4-0.8-0.9-2.1-0.2-2.3C32.5,40.4,32.9,40.7,34.6,41.5z"/>
					<path class="st5" d="M30.2,40.2c-0.7,0.5-3.5-0.9-5.8-0.1c-0.9,0.3-1,0.6-2.4,1c-0.2,0.1-2.2,0.6-2.7,0.3
						c-0.5-0.4,0.7-1.5,1.7-2.1c0.5-0.3,1-0.6,1.9-0.8c0.9-0.2,1.2,0,2.9,0c1.9,0,2.1-0.3,2.8-0.1C29.8,38.6,30.7,39.8,30.2,40.2z"
						/>
					<path class="st5" d="M24.6,37.6c0.3-0.1,1.2,0.2,2.1,0.1c0.4,0,0.4-0.1,0.9-0.1c0.1,0,0.8-0.1,1,0c0.2,0.1-0.4,0.2-0.8,0.3
						c-0.2,0-0.4,0.1-0.7,0.1c-0.3,0-0.4,0-1,0c-0.7,0-0.8,0-1,0C24.6,37.9,24.4,37.7,24.6,37.6z"/>
					<path class="st6" d="M21.7,37.7c-0.9,0.2-2,0.5-3.3,0.9c-1.2,0.4-2.2,0.7-3.3,1.1c-1.6,0.7-2.7,1.4-4.3,2.5c-1.4,1-1.6,1-2,1.2
						c-1.9,0.8-4,1-3.9,1.1c0.1,0.2,4.4-0.4,4.8,0.1c0.2,0.3-0.6,0.6-0.4,0.8c0.2,0.2,1.1,0,2-0.1c2.8-0.3,4.7-0.1,4.8-0.3
						c0-0.1-0.9-0.1-2.1-0.6c-0.6-0.3-1.6-0.6-1.9-1.1c-0.7-1,1.9-2.5,3.6-3.4C16.9,39.5,18.8,38.6,21.7,37.7z"/>
					<path class="st7" d="M20.4,38.8c-0.1-0.1-0.8,0.3-1.1,0.4c-3.7,1.6-6.5,2.7-6.2,4c0.2,1,2.3,1.8,2.7,1.6
						c0.3-0.1-0.5-0.7-0.4-1.7c0.1-0.9,0.9-1.5,2.4-2.6C19.2,39.5,20.5,38.8,20.4,38.8z"/>
					<path class="st7" d="M26.3,42.4c1.1,1.2,3,1.9,5.2,2.6c3,1,5.2,1.2,5.1,1.4c-0.1,0.2-2.3,0.3-4.4-0.1c-2.7-0.5-3.6-1.6-4.6-1.4
						c-1,0.3-0.2,1.8-1.3,2.1c-0.9,0.3-2-0.6-5-1.3c-2.3-0.5-3.6-0.4-3.7-0.7c-0.1-0.5,2.8-0.6,5-2.2c1.4-1,1.6-2,2.4-1.9
						C25.5,40.9,25.5,41.6,26.3,42.4z"/>
				</g>
			</g>
		</g>
		<g>
			<g>
				<path class="st8" d="M24.6,37.4c0,0,0,0.1,0.1,0.1c0.1,0,0.1,0,0.1-0.1c0,0,0-0.1-0.1-0.1C24.8,37.3,24.8,37.4,24.6,37.4
					C24.7,37.4,24.6,37.4,24.6,37.4z"/>
			</g>
		</g>
		<g>
			<g>
				<path class="st8" d="M28.8,37.6c0,0-0.2,0-0.1,0.1c0,0,0.2,0.1,0.2,0.1c0,0,0.1,0,0.1-0.1C29,37.7,28.9,37.7,28.8,37.6
					C28.9,37.7,28.9,37.6,28.8,37.6z"/>
			</g>
		</g>
		<g>
			<g>
				<path class="st8" d="M22.1,37.8c0,0-0.1,0.1,0,0.1c0.1,0,0.2,0,0.2,0c0,0,0-0.1,0-0.1C22.2,37.8,22.2,37.8,22.1,37.8
					C22.1,37.8,22.1,37.8,22.1,37.8z"/>
			</g>
		</g>
	</g>
	<path class="st9" d="M18.2,39.8c2.2-1,3.7-1.4,7.7-1.4c4,0.1,6.7,1.2,6.1,2.1c-0.5,0.9-3.1,1.2-6.1,1.6S14.9,41.3,18.2,39.8z"/>
	<g id="XMLID_4_">
		<g id="XMLID_8_">
			<linearGradient id="XMLID_3_" gradientUnits="userSpaceOnUse" x1="20.7861" y1="25.091" x2="50" y2="25.091">
				<stop  offset="2.666300e-02" style="stop-color:#3EC5A4"/>
				<stop  offset="1" style="stop-color:#188182"/>
			</linearGradient>
			<path id="XMLID_9_" class="st10" d="M20.8,30.6c0.1,3,0.4,5.9,0.8,8.3c0.1,0.6,0.2,1.2,0.4,1.8c-0.1,0.1,0,0.2,0,0.3h1.2v-0.5
				c0-1,0-2.1-0.1-3.2c0,0,0,0,0,0c0-0.2,0-0.4-0.1-0.6c0-1-0.1-2.1-0.2-3.1v-0.4c-0.1-0.7-0.1-1.5-0.1-2.4c0-0.4,0.1-0.9,0.1-1.3
				c0.1-1.4,0.2-2.9,0.6-4.5c0.5-2.2,1.1-4.4,2.2-6.5c0.6-1.2,1.4-2.2,2.3-3.2c1.3-1.5,2.9-2.7,4.9-3.5c0.5-0.1,0.9-0.3,1.4-0.4
				c0.3-0.1,0.6-0.1,0.8-0.1C45,9,50,16.9,50,16.9c-0.4-2.9-7-8.8-14.9-7.6c-0.5,0.1-1.1,0.2-1.6,0.4c-2.1,0.6-4.3,1.8-6.5,3.7
				C26,14.2,25.3,15,24.6,16c-1.3,1.8-2.2,3.7-2.8,5.8c-0.3,1-0.5,1.9-0.6,3c-0.1,0.3-0.1,0.5-0.2,0.8v0
				C20.9,27.3,20.7,29,20.8,30.6z"/>
		</g>
		<g id="XMLID_5_">
			<linearGradient id="XMLID_10_" gradientUnits="userSpaceOnUse" x1="0" y1="28.3332" x2="24.859" y2="28.3332">
				<stop  offset="2.666300e-02" style="stop-color:#3EC5A4"/>
				<stop  offset="1" style="stop-color:#188182"/>
			</linearGradient>
			<path id="XMLID_7_" class="st11" d="M0,22.3c0,0,0.2-0.3,0.6-0.8c0.3-0.3,0.6-0.6,1-1c2-1.9,6-4.6,11.9-3c0.9,0.2,1.7,0.6,2.4,1
				c0.2,0.1,0.3,0.1,0.5,0.3c1.3,0.7,2.4,1.8,3.2,3c0.3,0.4,0.6,0.8,0.8,1.2c0,0,0,0,0,0.1c0.3,0.6,0.6,1.1,0.9,1.7c0.4,1,0.7,2,1,3
				c0.3,1,0.5,2,0.6,3c0.2,0.8,0.2,1.5,0.2,2.2c0.1,1.2,0.1,2.3,0.1,3.1c0,0.2-0.1,0.3-0.1,0.5c0,0.3-0.1,0.6-0.1,1
				c-0.1,0.6-0.1,1.2-0.1,1.8c0,0,0,0.1,0,0.1V41h0.5c0.3,0,0.6,0,0.8,0c0.3-2.1,0.7-4.5,0.7-7c0-1.5-0.1-2.9-0.2-4.3
				c-0.2-1.6-0.6-3.1-1.1-4.6c-0.4-1.1-1-2.2-1.6-3.1c-0.6-0.9-1.3-1.8-2.2-2.5c-0.1,0-0.1-0.1-0.2-0.1c-0.1-0.1-0.2-0.3-0.4-0.4
				c-1-0.8-2-1.4-3-1.9c-0.3-0.2-0.7-0.3-1.1-0.4c-6.3-2.3-12,1.2-14.1,4.1c-0.3,0.4-0.5,0.7-0.6,1C0.1,21.8,0.1,22.1,0,22.3z"/>
			<linearGradient id="XMLID_11_" gradientUnits="userSpaceOnUse" x1="25.0706" y1="20.966" x2="35.104" y2="20.966">
				<stop  offset="2.666300e-02" style="stop-color:#3EC5A4"/>
				<stop  offset="1" style="stop-color:#188182"/>
			</linearGradient>
			<path id="XMLID_6_" class="st12" d="M25.2,28.4L25.2,28.4c-0.2,1.5-0.2,3,0,4.4v0c0.2,2.9,0.8,5.7,1.5,7.9v0.1
				c0.3,0,0.6,0,0.9-0.1c-0.3-1.8-0.5-3.6-0.6-5.4c-0.3-5.9,1.1-11.8,5.5-18.2c1.6-2.2,2.3-4.3,2.5-6.1c0.1-0.6,0.1-1.2,0-1.8
				c-0.3-5-4.6-7.9-5.1-8.3c1.1,1.2,4.2,3.8,3.5,8.7c-0.1,0.6-0.3,1.3-0.6,2c-0.6,1.9-1.8,4.2-3.9,6.7c-1.1,1.3-1.9,2.8-2.5,4.3
				c0,0,0,0,0,0C25.8,24.7,25.4,26.6,25.2,28.4z"/>
		</g>
	</g>
</g>
</svg>
