<?xml version="1.0" encoding="utf-8"?>
<!-- Generator: Adobe Illustrator 22.0.1, SVG Export Plug-In . SVG Version: 6.00 Build 0)  -->
<svg version="1.1" id="圖層_1" xmlns="http://www.w3.org/2000/svg" xmlns:xlink="http://www.w3.org/1999/xlink" x="0px" y="0px"
	 viewBox="0 0 70 75" style="enable-background:new 0 0 70 75;" xml:space="preserve">
<style type="text/css">
	.st0{fill:#FFFFFF;}
	.st1{fill:#EF9D18;}
	.st2{fill:#FFB83B;}
	.st3{fill:url(#SVGID_1_);}
	.st4{fill:url(#SVGID_2_);}
	.st5{fill:url(#SVGID_3_);}
	.st6{fill:url(#SVGID_4_);}
	.st7{fill:url(#SVGID_5_);}
	.st8{fill:url(#SVGID_6_);}
	.st9{fill:url(#SVGID_7_);}
	.st10{fill:url(#SVGID_8_);}
	.st11{fill:url(#SVGID_9_);}
	.st12{fill:url(#SVGID_10_);}
</style>
<g>
	<g id="XMLID_40_">
		<path id="XMLID_43_" class="st0" d="M42.6,74.2c-8.2,0.1-14.8-1.5-14.9-3.6c0-0.7,1-1.4,2.4-2c-2.9,0.7-4.7,1.7-4.7,2.8
			c0,2.1,6.7,3.7,14.9,3.6c5.3-0.1,9.7-0.9,12.3-2C50.1,73.6,46.6,74.1,42.6,74.2z"/>
		<path id="XMLID_42_" class="st0" d="M27.1,74.1c-4.3-0.6-7.3-1.7-7.4-3.2c-0.2-2.5,6.8-5,15.6-5.5c2.1-0.1,4.1-0.1,6,0
			c-2.6-0.3-5.6-0.5-8.9-0.3c-8.8,0.6-15.8,3-15.6,5.5C16.9,72.5,21.2,73.8,27.1,74.1z"/>
		<path id="XMLID_41_" class="st0" d="M37.4,63.4c8.2-0.1,14.8,1.5,14.9,3.6c0,0.7-1,1.4-2.4,2c2.9-0.7,4.7-1.7,4.7-2.8
			c0-2.1-6.7-3.7-14.9-3.6c-5.3,0.1-9.7,0.9-12.3,2C30,63.9,33.5,63.5,37.4,63.4z"/>
	</g>
	<g>
		<path class="st1" d="M41.5,6.7c0.5,0.3,1.1-1.1,1.3-1.5c0.1-0.4,0.2-0.9,0.3-1.4c0-0.3,0.1-0.6,0.1-0.9
			C42.5,3.1,40.5,6.1,41.5,6.7L41.5,6.7z"/>
		<path class="st1" d="M40.2,18.8c0.4,0.3,1.4-1.1,1.6-1.6c0.2-0.4,0.3-1,0.4-1.5c0.1-0.4,0.1-0.7,0.2-1
			C41.7,15,39.2,18.1,40.2,18.8L40.2,18.8z"/>
		<path class="st1" d="M40,22.1c0.4,0.4,1.4-1.2,1.6-1.6c0.2-0.4,0.3-1,0.4-1.6c0.1-0.4,0.1-0.7,0.2-1C41.5,18,39.1,21.3,40,22.1
			L40,22.1z"/>
		<path class="st1" d="M40.8,12.9c0.4,0.4,1.2-1,1.4-1.4c0.2-0.4,0.3-0.9,0.4-1.4c0.1-0.3,0.2-0.6,0.2-0.9
			C42.1,9.3,39.8,12.1,40.8,12.9L40.8,12.9z"/>
		<path class="st2" d="M41.9,3.5l-0.5-0.1c-2.6,23.2-2.9,42.6-2.3,64.6h0.5C39,46.1,39.3,26.8,41.9,3.5L41.9,3.5z"/>
		<path class="st2" d="M42.4,0c-0.6,0.4-1.9,4-0.8,4.3c0.5,0.1,0.8-1.5,0.9-1.9c0-0.4,0-0.9,0-1.4C42.5,0.6,42.4,0.3,42.4,0L42.4,0z
			"/>
		<path class="st2" d="M41.1,9.6c0.5,0.3,1.4-1.1,1.5-1.5c0.1-0.4,0.2-0.9,0.3-1.5C43,6.4,43,6,43.1,5.8C42.4,5.9,40.1,8.9,41.1,9.6
			L41.1,9.6z"/>
		<path class="st2" d="M40.5,15.9c0.4,0.4,1.3-1.1,1.5-1.5c0.2-0.4,0.3-1,0.4-1.5c0.1-0.4,0.1-0.7,0.2-1
			C41.9,12.1,39.6,15.1,40.5,15.9L40.5,15.9z"/>
		<path class="st2" d="M40.2,2.4c0,0.3,0,0.6-0.1,0.9c0,0.5-0.1,1,0,1.4c0,0.4,0.4,2,0.9,1.9C42.1,6.3,40.8,2.8,40.2,2.4L40.2,2.4z"
			/>
		<path class="st2" d="M39.6,5.3c0,0.3,0,0.6,0,0.9c0,0.5,0,1.1,0.1,1.5c0.1,0.5,0.5,2.1,1,1.8C41.8,9.1,40.2,5.6,39.6,5.3L39.6,5.3
			z"/>
		<path class="st2" d="M38.7,14.4c0,0.3,0,0.6,0,1c0,0.6,0.1,1.2,0.2,1.6c0.1,0.5,0.6,2.1,1.1,1.8C41,18.2,39.3,14.7,38.7,14.4
			L38.7,14.4z"/>
		<path class="st2" d="M38.5,17.5c0,0.3,0,0.6,0,1c0,0.6,0,1.2,0.2,1.6c0.1,0.5,0.6,2.2,1.1,1.9C40.8,21.4,39.1,17.7,38.5,17.5
			L38.5,17.5z"/>
		<path class="st2" d="M39.7,25.5c0.4,0.4,1.4-1.2,1.6-1.7c0.2-0.5,0.3-1.1,0.4-1.7c0.1-0.4,0.2-0.8,0.2-1.1
			C41.3,21.2,38.8,24.7,39.7,25.5L39.7,25.5z"/>
		<path class="st2" d="M38.3,20.8c0,0.3,0,0.7,0,1.1c0,0.6,0,1.2,0.1,1.7c0.1,0.5,0.6,2.3,1.1,1.9C40.6,24.8,38.9,21.1,38.3,20.8
			L38.3,20.8z"/>
		<path class="st2" d="M38.9,11.5c0,0.3,0,0.6,0,1c0,0.5,0.1,1.1,0.2,1.5c0.1,0.5,0.6,2.1,1.1,1.8C41.3,15.3,39.5,11.8,38.9,11.5
			L38.9,11.5z"/>
		<path class="st2" d="M39.3,8.6c0,0.3,0,0.6,0,0.9c0,0.5,0,1.1,0.1,1.5c0.1,0.4,0.5,2,1,1.8C41.5,12.3,40,8.9,39.3,8.6L39.3,8.6z"
			/>
	</g>
	<g>
		<path class="st1" d="M68.4,5.7c-0.2,0.1-0.5,0.2-0.8,0.4c-0.4,0.2-1,0.4-1.4,0.5c-0.4,0.1-2.1,0.3-2.2-0.2
			C63.9,5.2,67.8,5.3,68.4,5.7L68.4,5.7z"/>
		<path class="st1" d="M52.4,13c0.2,0.6-1.1,3.8-2.2,3.6c-0.5-0.1,0.3-1.5,0.6-1.8c0.2-0.3,0.6-0.7,1-1.1
			C51.9,13.5,52.2,13.2,52.4,13L52.4,13z"/>
		<path class="st1" d="M50.4,15c0.2,0.5-0.9,4-2.1,3.8c-0.5-0.1,0.2-1.5,0.5-1.9c0.2-0.4,0.6-0.8,1-1.2C50,15.4,50.2,15.2,50.4,15
			L50.4,15z"/>
		<path class="st1" d="M56.6,9.1c0.2,0.6-0.8,3.8-1.9,3.6c-0.5-0.1,0.2-1.5,0.4-1.8c0.2-0.3,0.5-0.7,0.9-1.1
			C56.2,9.6,56.5,9.3,56.6,9.1L56.6,9.1z"/>
		<path class="st2" d="M57.9,9.8c1.7-1.4,3.5-2.8,5.3-4.3l0.3,0.3c-1.8,1.5-3.6,2.9-5.3,4.3c-8.1,6.6-15.7,15.6-15.1,26.1
			c0.4,8.1,0,15.8,2.8,26.2l-0.4-0.3c-3.6-10.6-2.4-18.2-2.8-26.4C42.2,25.4,49.8,16.4,57.9,9.8L57.9,9.8z"/>
		<path class="st2" d="M65.7,7.2c-0.2,0.1-0.5,0.1-0.8,0.2c-0.4,0.1-0.9,0.1-1.3,0.2c-0.4,0-1.8-0.1-1.7-0.6
			C62.2,5.9,65.3,6.7,65.7,7.2L65.7,7.2z"/>
		<path class="st2" d="M62.9,8.5c-0.2,0.1-0.5,0.2-0.8,0.4c-0.4,0.2-0.9,0.4-1.3,0.4C60.5,9.4,59,9.3,59,8.9
			C59.1,7.8,62.5,8.1,62.9,8.5L62.9,8.5z"/>
		<path class="st2" d="M56.9,13.4c-0.2,0.1-0.5,0.3-0.8,0.5c-0.4,0.2-0.9,0.5-1.3,0.7c-0.4,0.2-2,0.4-2-0.1
			C52.8,13.4,56.4,13.1,56.9,13.4L56.9,13.4z"/>
		<path class="st2" d="M54.5,15.7c-0.3,0.1-0.5,0.3-0.8,0.5c-0.4,0.3-0.9,0.5-1.3,0.7s-2,0.5-2,0C50.2,15.7,53.9,15.4,54.5,15.7
			L54.5,15.7z"/>
		<path class="st2" d="M58.8,11.6c-0.2,0.1-0.5,0.3-0.7,0.5c-0.4,0.3-0.8,0.6-1.2,0.7c-0.4,0.2-1.8,0.5-1.9,0
			C54.8,11.9,58.2,11.4,58.8,11.6L58.8,11.6z"/>
		<path class="st2" d="M60.6,10c-0.2,0.1-0.4,0.3-0.7,0.5c-0.4,0.2-0.8,0.5-1.2,0.6c-0.4,0.1-1.7,0.6-1.8,0.1
			C56.9,10.1,60.1,9.7,60.6,10L60.6,10z"/>
		<path class="st2" d="M65.1,4.6c-0.1,0.6-2.6,2.7-3.3,1.9c-0.3-0.4,0.9-1.1,1.3-1.3c0.3-0.2,0.8-0.3,1.2-0.4
			C64.6,4.7,64.9,4.7,65.1,4.6L65.1,4.6z"/>
		<path class="st2" d="M61.6,5.7c0.1,0.6-1.8,3.4-2.7,2.8c-0.4-0.3,0.6-1.3,0.9-1.6c0.3-0.3,0.7-0.5,1.1-0.8
			C61.1,6,61.4,5.9,61.6,5.7L61.6,5.7z"/>
		<path class="st2" d="M54.6,10.8c0.2,0.6-1,3.8-2.1,3.5c-0.5-0.1,0.3-1.5,0.5-1.8c0.2-0.3,0.6-0.7,0.9-1.1
			C54.2,11.2,54.4,11,54.6,10.8L54.6,10.8z"/>
		<path class="st2" d="M52.7,17.3c-0.2,0.2-0.5,0.4-0.8,0.6c-0.5,0.3-0.9,0.6-1.3,0.8c-0.4,0.2-2.1,0.6-2.2,0.1
			C48.3,17.8,52.1,17.1,52.7,17.3L52.7,17.3z"/>
		<path class="st2" d="M58.7,7.6c0.2,0.6-0.9,3.7-1.9,3.3c-0.5-0.2,0.2-1.4,0.5-1.7c0.2-0.3,0.5-0.6,0.8-1C58.3,8,58.6,7.7,58.7,7.6
			L58.7,7.6z"/>
	</g>
	<g>
		<path class="st1" d="M-0.2,37.5c0.2,0,0.6,0.1,0.9,0.1c0.5,0,1,0,1.4,0c0.4-0.1,2.1-0.4,2-0.9C3.9,35.5,0.3,36.8-0.2,37.5
			L-0.2,37.5z"/>
		<path class="st1" d="M17.4,39.1c0,0.6,2.3,3.3,3.3,2.6c0.4-0.3-0.8-1.3-1.1-1.5c-0.3-0.2-0.8-0.5-1.3-0.7
			C17.9,39.3,17.6,39.2,17.4,39.1L17.4,39.1z"/>
		<path class="st1" d="M19.9,40.3c-0.1,0.6,2.2,3.4,3.2,2.9c0.5-0.3-0.7-1.3-1.1-1.6c-0.3-0.3-0.8-0.5-1.3-0.8
			C20.4,40.5,20.1,40.4,19.9,40.3L19.9,40.3z"/>
		<path class="st1" d="M12.1,36.8c0,0.6,2,3.3,3,2.7c0.4-0.3-0.7-1.3-1-1.6c-0.3-0.2-0.8-0.5-1.2-0.8C12.6,37.1,12.3,37,12.1,36.8
			L12.1,36.8z"/>
		<path class="st2" d="M11.1,37.9c-2.1-0.7-4.2-1.5-6.4-2.3L4.5,36c2.2,0.8,4.3,1.6,6.4,2.3c9.9,3.5,20,9.5,23,19.6
			c2.3,7.8,2.5,7.3,0.2-0.5C31,47.3,20.9,41.4,11.1,37.9L11.1,37.9z"/>
		<path class="st2" d="M2.9,38c0.2,0,0.5-0.1,0.8-0.1c0.4-0.1,0.9-0.2,1.3-0.3c0.4-0.1,1.6-0.7,1.4-1.1C5.7,35.6,3.1,37.4,2.9,38
			L2.9,38z"/>
		<path class="st2" d="M5.9,38.3c0.3,0,0.6,0,0.9,0.1c0.5,0,1,0,1.3,0c0.4,0,1.8-0.6,1.6-1C9.3,36.4,6.2,37.8,5.9,38.3L5.9,38.3z"/>
		<path class="st2" d="M13.2,40.9c0.3,0.1,0.6,0.1,0.9,0.2c0.5,0.1,1,0.2,1.4,0.2c0.4,0,2-0.3,1.9-0.8
			C17.1,39.5,13.6,40.5,13.2,40.9L13.2,40.9z"/>
		<path class="st2" d="M16.3,42.3c0.3,0,0.6,0.1,0.9,0.2c0.5,0.1,1.1,0.2,1.5,0.2c0.4,0,2-0.2,1.9-0.7
			C20.3,40.9,16.7,41.8,16.3,42.3L16.3,42.3z"/>
		<path class="st2" d="M10.9,39.9c0.2,0.1,0.5,0.2,0.9,0.2c0.5,0.1,1,0.3,1.4,0.3c0.4,0,1.9-0.1,1.8-0.6
			C14.7,38.8,11.3,39.4,10.9,39.9L10.9,39.9z"/>
		<path class="st2" d="M8.6,38.9c0.2,0.1,0.5,0.1,0.8,0.2c0.4,0.1,0.9,0.2,1.3,0.2c0.4,0,1.8,0,1.7-0.5C12.2,37.8,9,38.5,8.6,38.9
			L8.6,38.9z"/>
		<path class="st2" d="M2.5,35.4c0.3,0.5,3.4,1.7,3.7,0.7c0.2-0.4-1.2-0.7-1.6-0.8c-0.3,0-0.8,0-1.3,0C3.1,35.3,2.8,35.4,2.5,35.4
			L2.5,35.4z"/>
		<path class="st2" d="M6.3,35.3c0.1,0.6,2.8,2.6,3.5,1.7c0.3-0.4-1-1.1-1.4-1.2c-0.3-0.2-0.8-0.3-1.3-0.4
			C6.8,35.4,6.5,35.3,6.3,35.3L6.3,35.3z"/>
		<path class="st2" d="M14.5,37.7c0,0.6,2.2,3.3,3.1,2.7c0.4-0.3-0.7-1.3-1.1-1.5c-0.3-0.2-0.8-0.5-1.2-0.7
			C15,38,14.8,37.8,14.5,37.7L14.5,37.7z"/>
		<path class="st2" d="M18.5,43.2c0.3,0.1,0.6,0.2,0.9,0.3c0.5,0.2,1.1,0.3,1.5,0.3c0.5,0,2.2-0.1,2.1-0.6
			C22.8,42.2,19,42.8,18.5,43.2L18.5,43.2z"/>
		<path class="st2" d="M9.6,36.1c0,0.6,2.1,3.1,2.9,2.5c0.4-0.3-0.7-1.3-1-1.5c-0.3-0.2-0.7-0.4-1.1-0.6
			C10.1,36.3,9.8,36.1,9.6,36.1L9.6,36.1z"/>
	</g>
	<linearGradient id="SVGID_1_" gradientUnits="userSpaceOnUse" x1="40.4136" y1="50.623" x2="70.1625" y2="50.623">
		<stop  offset="2.666300e-02" style="stop-color:#3EC5A4"/>
		<stop  offset="1" style="stop-color:#188182"/>
	</linearGradient>
	<path class="st3" d="M40.4,69.6c0,0,5.7-22.6,8.9-27.2C52.4,37.8,70.2,31,70.2,31s-17.3,9.3-19,12.7C49.4,47.2,43.6,70,43.6,70
		S42.4,70.7,40.4,69.6z"/>
	<linearGradient id="SVGID_2_" gradientUnits="userSpaceOnUse" x1="22.4312" y1="36.9265" x2="37.0261" y2="36.9265">
		<stop  offset="2.666300e-02" style="stop-color:#3EC5A4"/>
		<stop  offset="1" style="stop-color:#188182"/>
	</linearGradient>
	<path class="st4" d="M37,61.8c0,0,0.1-16.7-1.9-25c-2.1-8.4-3.6-13.6-6.6-18.4S22.4,12,22.4,12s6,7.4,8.4,15.8s3.2,16.5,3.4,21.5
		c0.3,5,0.3,12.6,0.3,12.6S36.1,62,37,61.8z"/>
	<g>
		<path class="st1" d="M27.7,18.2c0.1,0.3,0.2,0.6,0.3,1c0.2,0.6,0.5,1.1,0.7,1.6c0.3,0.5,1.7,1.9,2.2,1.5
			C32,21.4,28.6,18.3,27.7,18.2L27.7,18.2z"/>
		<path class="st1" d="M27.4,15.1c0.1,0.3,0.2,0.6,0.3,1c0.2,0.6,0.4,1.2,0.6,1.6c0.2,0.5,1.4,1.9,1.9,1.6
			C31.3,18.5,28.3,15.3,27.4,15.1L27.4,15.1z"/>
		<path class="st1" d="M27,12.2c0.1,0.3,0.2,0.6,0.3,1c0.2,0.5,0.4,1.1,0.6,1.5c0.2,0.4,1.3,1.9,1.8,1.5
			C30.8,15.3,27.9,12.3,27,12.2L27,12.2z"/>
		<path class="st1" d="M31.4,22.4c0.6,0.3,1.1-1.5,1.2-2c0.1-0.5,0.1-1.1,0-1.7c0-0.4-0.1-0.7-0.1-1.1C31.7,18,30,21.8,31.4,22.4
			L31.4,22.4z"/>
		<path class="st1" d="M32.3,29.4c0.6,0.3,1.2-1.5,1.3-2c0.1-0.5,0.1-1.1,0.1-1.8c0-0.4,0-0.8,0-1.1C32.8,24.7,30.9,28.7,32.3,29.4
			L32.3,29.4z"/>
		<path class="st1" d="M30.1,16c0.6,0.2,1.1-1.4,1.1-1.9c0.1-0.4,0.1-1,0-1.5c0-0.3-0.1-0.7-0.1-1C30.5,11.9,28.8,15.5,30.1,16
			L30.1,16z"/>
		<path class="st2" d="M29.9,14.2c-0.5-2.6-1-5.2-1.5-8l-0.6,0.1c0.5,2.8,1,5.4,1.5,8c3.3,17.7,5.9,31.5,5,52.6l0.6,0
			C35.8,45.7,33.3,31.9,29.9,14.2L29.9,14.2z"/>
		<path class="st2" d="M26.7,2c0,0.3,0,0.7,0,1.1c0,0.6,0,1.2,0.1,1.7c0.1,0.5,0.7,2.4,1.4,2.3C29.8,6.7,27.5,2.5,26.7,2L26.7,2z"/>
		<path class="st2" d="M26.2,5.6c0.1,0.3,0.1,0.6,0.2,1c0.1,0.5,0.3,1.1,0.4,1.5c0.2,0.4,1.1,1.9,1.6,1.6C29.7,8.9,27,5.8,26.2,5.6
			L26.2,5.6z"/>
		<path class="st2" d="M26.5,8.6c0.1,0.3,0.1,0.6,0.2,1c0.1,0.6,0.3,1.1,0.5,1.5c0.2,0.4,1.4,1.9,2,1.5C30.3,11.9,27.3,8.8,26.5,8.6
			L26.5,8.6z"/>
		<path class="st2" d="M28.5,21.4c0.1,0.3,0.2,0.7,0.4,1.1c0.2,0.6,0.5,1.2,0.7,1.6c0.3,0.5,1.7,2,2.2,1.6
			C32.8,24.7,29.3,21.5,28.5,21.4L28.5,21.4z"/>
		<path class="st2" d="M29.8,5.1c-0.7,0.4-2.1,4.1-0.7,4.5c0.6,0.1,0.9-1.5,1-2c0-0.4,0-1-0.1-1.5C29.9,5.7,29.8,5.3,29.8,5.1
			L29.8,5.1z"/>
		<path class="st2" d="M29.6,12.6c0.6,0.2,1.1-1.5,1.1-1.9c0.1-0.5,0.1-1,0-1.6c0-0.3-0.1-0.7-0.1-1C30,8.4,28.3,12.1,29.6,12.6
			L29.6,12.6z"/>
		<path class="st2" d="M33.1,20.7c-0.8,0.4-2.4,4.3-1,4.9c0.7,0.3,1.1-1.6,1.1-2.1c0.1-0.5,0-1.1,0-1.7C33.1,21.4,33.1,21,33.1,20.7
			L33.1,20.7z"/>
		<path class="st2" d="M29.1,24.8c0.1,0.3,0.2,0.7,0.3,1.1c0.2,0.6,0.4,1.3,0.6,1.8c0.3,0.5,1.6,2.2,2.1,1.8
			C33.3,28.6,30,25,29.1,24.8L29.1,24.8z"/>
		<path class="st2" d="M30.6,19.2c0.6,0.3,1.1-1.4,1.2-1.9c0.1-0.5,0.1-1.1,0.1-1.7c0-0.4,0-0.7,0-1C31.2,14.9,29.2,18.6,30.6,19.2
			L30.6,19.2z"/>
	</g>
	<linearGradient id="SVGID_3_" gradientUnits="userSpaceOnUse" x1="6.1041" y1="48.0777" x2="37.4904" y2="48.0777">
		<stop  offset="2.666300e-02" style="stop-color:#3EC5A4"/>
		<stop  offset="1" style="stop-color:#188182"/>
	</linearGradient>
	<path class="st5" d="M37.5,67.4c0,0-4.9-24.3-8.3-29.7S6.1,27.6,6.1,27.6s17.6,5.6,20.3,9.6s7,31.2,7,31.2S36.2,69,37.5,67.4z"/>
	<g>
		<path class="st1" d="M25.7,33.9c-0.2,0.5-1.7-0.3-2-0.6c-0.3-0.3-0.7-0.7-1.1-1.1c-0.2-0.3-0.5-0.5-0.6-0.7
			C22.7,31.3,26.1,32.8,25.7,33.9L25.7,33.9z"/>
		<path class="st1" d="M21,23.2c0.2,0.5,0.4,0.9,0.5,1.3c0.1,0.4,0.4,1.9-0.1,1.9c-1.1,0-1.2-3.5-0.8-4C20.7,22.7,20.9,23,21,23.2
			L21,23.2z"/>
		<path class="st1" d="M17,18.1c0.6,0.4,1.6,3.9,0.5,4.3c-0.5,0.2-0.7-1.4-0.8-1.9c0-0.4,0-1,0.1-1.5C16.9,18.7,17,18.4,17,18.1
			L17,18.1z"/>
		<path class="st1" d="M13.2,19.2c0.5-0.4,3.5,0.5,3.2,1.9c-0.2,0.6-1.3-0.1-1.7-0.3c-0.3-0.2-0.6-0.6-0.9-0.9
			C13.5,19.7,13.3,19.5,13.2,19.2L13.2,19.2z"/>
		<path class="st2" d="M15.5,20c6.4,5.7,11.2,13.5,14.1,23.2c1.8,6,3,12.7,3.5,20.2l-0.5,0c-1.2-19.2-6.9-33.6-17.1-42.8L15.5,20z"
			/>
		<path class="st2" d="M22.7,28.8c-0.1,0.5-1.6,0.2-2,0c-0.4-0.2-0.8-0.5-1.2-0.7c-0.3-0.2-0.5-0.4-0.7-0.5
			C19.4,27.2,22.9,27.7,22.7,28.8L22.7,28.8z"/>
		<path class="st2" d="M24.2,31.2c-0.1,0.5-1.6-0.1-2-0.3c-0.4-0.2-0.8-0.6-1.2-0.9c-0.3-0.2-0.5-0.4-0.7-0.6
			C21,29.1,24.5,30.1,24.2,31.2L24.2,31.2z"/>
		<path class="st2" d="M21.1,26.6c-0.1,0.5-1.5,0.2-1.9,0.1c-0.4-0.1-0.8-0.4-1.2-0.7c-0.3-0.2-0.5-0.4-0.7-0.5
			C17.9,25.1,21.2,25.5,21.1,26.6L21.1,26.6z"/>
		<path class="st2" d="M19.6,24.7c-0.1,0.5-1.4,0.1-1.8,0c-0.3-0.1-0.7-0.4-1.1-0.6c-0.2-0.2-0.5-0.3-0.7-0.4
			C16.5,23.3,19.7,23.6,19.6,24.7L19.6,24.7z"/>
		<path class="st2" d="M17.9,22.2c0,0.5-1.3,0.6-1.7,0.5c-0.3,0-0.8-0.1-1.2-0.3c-0.3-0.1-0.5-0.2-0.7-0.2
			C14.6,21.8,17.8,21.1,17.9,22.2L17.9,22.2z"/>
		<path class="st2" d="M22.6,25c0.2,0.5,0.4,1,0.5,1.4c0.1,0.4,0.3,2-0.2,2c-1.1-0.1-1.1-3.7-0.6-4.2C22.4,24.4,22.5,24.7,22.6,25
			L22.6,25z"/>
		<path class="st2" d="M24.2,26.6c0.1,0.3,0.2,0.6,0.3,0.9c0.2,0.5,0.3,1.1,0.4,1.5c0.1,0.5,0.1,2.1-0.4,2
			C23.3,30.8,23.7,27.1,24.2,26.6L24.2,26.6z"/>
		<path class="st2" d="M25.4,29.1c0.1,0.3,0.2,0.6,0.3,0.9c0.1,0.5,0.3,1.1,0.4,1.5c0,0.5,0.1,2.1-0.4,2
			C24.6,33.2,25,29.5,25.4,29.1L25.4,29.1z"/>
		<path class="st2" d="M19.4,21.5c0.3,0.4,0.5,0.8,0.6,1.2c0.1,0.4,0.5,1.8,0,1.9c-1.1,0.2-1.4-3.2-1.1-3.8
			C19.1,21,19.2,21.3,19.4,21.5L19.4,21.5z"/>
	</g>
	<linearGradient id="SVGID_4_" gradientUnits="userSpaceOnUse" x1="37.1205" y1="48.3099" x2="43.7067" y2="48.3099">
		<stop  offset="2.666300e-02" style="stop-color:#3EC5A4"/>
		<stop  offset="1" style="stop-color:#188182"/>
	</linearGradient>
	<path class="st6" d="M40.8,68.3c0,0-0.1-19.8-0.7-24.1S37.6,32,37.5,30.8c-0.2-1.2-0.3-3.2-0.3-3.2s3.1,9.7,3.9,11.9
		c0.8,2.2,1.5,9.4,1.8,12.1s0.9,17.2,0.9,17.2S42.2,69.3,40.8,68.3z"/>
	<linearGradient id="SVGID_5_" gradientUnits="userSpaceOnUse" x1="34.8088" y1="44.6842" x2="42.1456" y2="44.6842">
		<stop  offset="2.666300e-02" style="stop-color:#3EC5A4"/>
		<stop  offset="1" style="stop-color:#188182"/>
	</linearGradient>
	<path class="st7" d="M34.8,68.4h4.9c2-10.6,4-28,0.7-47.5c0.3,16.8-0.9,30.3-2.2,39.5c0.7-10.8,0.4-24.9-3.3-39.4
		C36.9,42.9,35.7,59.8,34.8,68.4z"/>
	<g>
		<path class="st1" d="M48.1,12c0.3,0.3,1.1-0.7,1.3-1c0.2-0.3,0.3-0.7,0.5-1.1c0.1-0.2,0.2-0.5,0.2-0.7C49.6,9.2,47.3,11.3,48.1,12
			L48.1,12z"/>
		<path class="st1" d="M47.3,14.2c0.4,0.3,1.4-0.7,1.6-1c0.2-0.3,0.3-0.7,0.5-1.1c0.1-0.3,0.2-0.5,0.3-0.7
			C49.1,11.5,46.5,13.5,47.3,14.2L47.3,14.2z"/>
		<path class="st1" d="M45.1,15.4c0,0.2-0.1,0.5-0.1,0.8c-0.1,0.4-0.1,0.9-0.1,1.3c0,0.4,0.3,1.8,0.7,1.6
			C46.7,18.8,45.7,15.7,45.1,15.4L45.1,15.4z"/>
		<path class="st2" d="M48.9,9.5l-0.5-0.1c-6.3,20.5-9.3,37.5-12.1,58.2c0,0.1,0,0.4-0.1,0.6h0.5c0-0.2,0-0.4,0.1-0.6
			C39.6,46.9,42.6,30,48.9,9.5L48.9,9.5z"/>
		<path class="st2" d="M48.5,10c0.4,0.2,1-1.1,1.1-1.4c0.1-0.3,0.2-0.8,0.2-1.2c0-0.3,0.1-0.5,0.1-0.7C49.3,6.9,47.6,9.6,48.5,10
			L48.5,10z"/>
		<path class="st2" d="M45.3,21.5c0.3,0.4,1.4-0.7,1.7-1c0.2-0.3,0.4-0.7,0.6-1.2c0.1-0.3,0.2-0.5,0.3-0.8
			C47.2,18.6,44.5,20.7,45.3,21.5L45.3,21.5z"/>
		<path class="st2" d="M44.7,24.1c0.3,0.4,1.4-0.7,1.6-1.1c0.2-0.3,0.4-0.8,0.6-1.2c0.1-0.3,0.2-0.6,0.3-0.8
			C46.6,21,43.9,23.3,44.7,24.1L44.7,24.1z"/>
		<path class="st2" d="M46,19.2c0.3,0.4,1.3-0.7,1.6-1c0.2-0.3,0.4-0.7,0.6-1.2c0.1-0.3,0.2-0.5,0.3-0.8
			C47.8,16.3,45.2,18.4,46,19.2L46,19.2z"/>
		<path class="st2" d="M46.6,16.8c0.3,0.3,1.2-0.6,1.4-0.9c0.2-0.3,0.4-0.7,0.6-1.1c0.1-0.3,0.2-0.5,0.3-0.7
			C48.3,14.1,45.9,16,46.6,16.8L46.6,16.8z"/>
		<path class="st2" d="M47.6,8.3c-0.1,0.2-0.1,0.5-0.2,0.7c-0.1,0.4-0.2,0.8-0.2,1.2c0,0.4,0,1.6,0.5,1.6
			C48.8,11.7,48.1,8.8,47.6,8.3L47.6,8.3z"/>
		<path class="st2" d="M46.6,10.5c0,0.2-0.1,0.5-0.2,0.8c-0.1,0.4-0.2,0.9-0.1,1.2c0,0.4,0.2,1.7,0.6,1.6
			C48.1,13.9,47.2,10.9,46.6,10.5L46.6,10.5z"/>
		<path class="st2" d="M44.5,17.7c0,0.2-0.1,0.5-0.1,0.8c-0.1,0.5-0.1,0.9-0.1,1.3c0,0.4,0.3,1.8,0.7,1.6
			C46.1,21.1,45.1,18,44.5,17.7L44.5,17.7z"/>
		<path class="st2" d="M43.9,20.1c0,0.2-0.1,0.5-0.1,0.8c-0.1,0.5-0.1,1-0.1,1.3c0,0.4,0.2,1.8,0.7,1.7
			C45.4,23.6,44.4,20.5,43.9,20.1L43.9,20.1z"/>
		<path class="st2" d="M43.9,26.8c0.3,0.4,1.5-0.8,1.7-1.2c0.2-0.4,0.4-0.8,0.6-1.3c0.1-0.3,0.2-0.6,0.3-0.8
			C45.9,23.6,43.2,26,43.9,26.8L43.9,26.8z"/>
		<path class="st2" d="M43.3,22.8c0,0.3-0.1,0.6-0.2,0.9C43,24.1,43,24.6,43,25c0,0.4,0.2,1.9,0.7,1.7
			C44.8,26.3,43.8,23.1,43.3,22.8L43.3,22.8z"/>
		<path class="st2" d="M45.9,13.2c0,0.2-0.1,0.5-0.2,0.7c-0.1,0.4-0.2,0.9-0.1,1.2c0,0.4,0.2,1.7,0.6,1.6
			C47.3,16.4,46.4,13.5,45.9,13.2L45.9,13.2z"/>
	</g>
	<linearGradient id="SVGID_6_" gradientUnits="userSpaceOnUse" x1="43.1313" y1="46.2868" x2="47.018" y2="46.2868">
		<stop  offset="2.666300e-02" style="stop-color:#3EC5A4"/>
		<stop  offset="1" style="stop-color:#188182"/>
	</linearGradient>
	<path class="st8" d="M46.8,70.8H44c-1.3-11.8-1.9-30.2,3-49.1C44.9,44,45.9,61.4,46.8,70.8z"/>
	<g>
		<path class="st1" d="M56.8,18.5c0.1,0.5,1.5,0.1,1.9-0.1c0.3-0.2,0.8-0.5,1.1-0.8c0.3-0.2,0.5-0.4,0.7-0.5
			C59.9,16.7,56.5,17.3,56.8,18.5L56.8,18.5z"/>
		<path class="st1" d="M54.9,20.4c0.1,0.5,1.7,0.2,2.1,0.1c0.4-0.2,0.8-0.5,1.2-0.8c0.3-0.2,0.5-0.4,0.7-0.6
			C58.3,18.7,54.6,19.2,54.9,20.4L54.9,20.4z"/>
		<path class="st1" d="M50.2,27.1c0.1,0.5,1.8,0.2,2.2-0.1c0.4-0.2,0.8-0.5,1.3-0.9c0.3-0.2,0.5-0.4,0.8-0.6
			C53.8,25.3,49.9,25.9,50.2,27.1L50.2,27.1z"/>
		<path class="st1" d="M51.8,24.6c0.1,0.6,1.7,0.2,2.1,0c0.4-0.2,0.8-0.5,1.3-0.8c0.3-0.2,0.5-0.4,0.8-0.6
			C55.3,22.9,51.6,23.4,51.8,24.6L51.8,24.6z"/>
		<path class="st1" d="M60.2,14.2c-0.4,0.3-1.9,1.4-1.5,2c0.9,1.2,3.9-2,4-2.9c-0.3,0.1-0.6,0.2-1,0.3
			C61.2,13.7,60.6,13.9,60.2,14.2L60.2,14.2z"/>
		<path class="st1" d="M47.1,32.9c0.2,0.5,1.8-0.4,2.2-0.8c0.3-0.3,0.7-0.8,1.1-1.3c0.2-0.3,0.5-0.6,0.6-0.9
			C50.4,29.9,46.6,31.7,47.1,32.9L47.1,32.9z"/>
		<path class="st2" d="M59.5,16.2l-0.3-0.4c-7.6,6.6-12.8,15.9-15.7,27.6c-1.8,7.3-2.7,15.6-2.5,24.8h0.5
			C41.1,44.4,47.2,27,59.5,16.2L59.5,16.2z"/>
		<path class="st2" d="M48.6,29.8c0.2,0.6,1.8-0.1,2.2-0.4c0.4-0.2,0.8-0.6,1.2-1c0.3-0.3,0.5-0.5,0.7-0.7
			C52.1,27.5,48.3,28.6,48.6,29.8L48.6,29.8z"/>
		<path class="st2" d="M53.4,22.5c0.1,0.6,1.6,0.1,2-0.1c0.4-0.2,0.8-0.5,1.2-0.7c0.3-0.2,0.5-0.4,0.7-0.5
			C56.7,20.8,53.2,21.2,53.4,22.5L53.4,22.5z"/>
		<path class="st2" d="M57.9,14.8c-0.4,0.4-0.7,0.7-0.9,1.1c-0.3,0.4-1,1.8-0.5,2.1c1.1,0.7,2.4-3,2.1-3.8
			C58.4,14.4,58.2,14.6,57.9,14.8L57.9,14.8z"/>
		<path class="st2" d="M55.2,16.6c-0.3,0.5-0.5,0.9-0.7,1.3c-0.2,0.4-0.5,2.1,0,2.3c1.3,0.4,1.6-3.6,1.2-4.3
			C55.6,16,55.4,16.3,55.2,16.6L55.2,16.6z"/>
		<path class="st2" d="M50,23c-0.2,0.5-0.4,1.1-0.5,1.6c-0.1,0.5-0.2,2.3,0.4,2.2c1.3-0.1,0.9-4.2,0.4-4.7
			C50.3,22.3,50.1,22.6,50,23L50,23z"/>
		<path class="st2" d="M48.4,24.8c-0.1,0.3-0.2,0.7-0.3,1.1c-0.2,0.6-0.3,1.2-0.3,1.7c0,0.5,0,2.3,0.6,2.2
			C49.7,29.4,49,25.3,48.4,24.8L48.4,24.8z"/>
		<path class="st2" d="M47.2,27.6c-0.1,0.3-0.2,0.7-0.3,1.1c-0.1,0.6-0.3,1.2-0.3,1.6c0,0.5,0,2.3,0.6,2.2
			C48.4,32,47.7,28,47.2,27.6L47.2,27.6z"/>
		<path class="st2" d="M51.7,20.9c-0.2,0.5-0.4,1.1-0.5,1.5c-0.1,0.5-0.3,2.2,0.2,2.1c1.2,0,1.1-3.9,0.7-4.5
			C52,20.3,51.8,20.6,51.7,20.9L51.7,20.9z"/>
		<path class="st2" d="M53.4,19c-0.2,0.5-0.5,0.9-0.6,1.3c-0.1,0.4-0.5,2,0.1,2.1c1.2,0.1,1.4-3.6,1-4.2
			C53.7,18.4,53.5,18.7,53.4,19L53.4,19z"/>
	</g>
	<linearGradient id="SVGID_7_" gradientUnits="userSpaceOnUse" x1="41.2212" y1="43.8112" x2="67.8038" y2="43.8112">
		<stop  offset="2.666300e-02" style="stop-color:#3EC5A4"/>
		<stop  offset="1" style="stop-color:#188182"/>
	</linearGradient>
	<path class="st9" d="M41.2,70c0,0-0.1-16.7,1.9-25S47,33,50,28.3c3-4.8,17.8-10.8,17.8-10.8s-13.3,7.1-16.7,11.4
		c-5.5,6.8-6.9,23.6-7.2,28.6c-0.3,5-0.3,12.6-0.3,12.6S42.1,70.2,41.2,70z"/>
	<linearGradient id="SVGID_8_" gradientUnits="userSpaceOnUse" x1="37.4904" y1="42.3729" x2="41.2212" y2="42.3729">
		<stop  offset="2.666300e-02" style="stop-color:#3EC5A4"/>
		<stop  offset="1" style="stop-color:#188182"/>
	</linearGradient>
	<path class="st10" d="M41.2,71.2c0,0-1.1-38.7-1.7-44.1s-2-13.7-2-13.7s0.7,14.1,0.8,17.9c0,3.8,0.1,39.5,0.1,39.5
		S39.8,71.6,41.2,71.2z"/>
	
		<linearGradient id="SVGID_9_" gradientUnits="userSpaceOnUse" x1="-563.5302" y1="441.8544" x2="-545.3145" y2="441.8544" gradientTransform="matrix(0.9716 -0.2366 0.2366 0.9716 459.0298 -502.9793)">
		<stop  offset="2.666300e-02" style="stop-color:#3EC5A4"/>
		<stop  offset="1" style="stop-color:#188182"/>
	</linearGradient>
	<path class="st11" d="M37.4,70.3c0,0-5.4-15.3-8.1-19.5s-16.8-6.1-16.8-6.1s11.5-1,13.6,3c3.4,6.4,8,22.5,8,22.5S35.8,71,37.4,70.3
		z"/>
	<linearGradient id="SVGID_10_" gradientUnits="userSpaceOnUse" x1="42.7501" y1="63.4137" x2="59.0431" y2="63.4137">
		<stop  offset="2.666300e-02" style="stop-color:#3EC5A4"/>
		<stop  offset="1" style="stop-color:#188182"/>
	</linearGradient>
	<path class="st12" d="M45.1,71.4c0,0,2.3-9.4,4.8-14.4s9.2,1.7,9.2,1.7s-9.8-5-12.1,0.5c-2.4,5.5-4.2,12.1-4.2,12.1
		s0.6,0.2,1.2,0.2C44.6,71.6,45.1,71.4,45.1,71.4z"/>
</g>
</svg>
