<?xml version="1.0" encoding="utf-8"?>
<!-- Generator: Adobe Illustrator 22.0.1, SVG Export Plug-In . SVG Version: 6.00 Build 0)  -->
<svg version="1.1" id="圖層_1" xmlns="http://www.w3.org/2000/svg" xmlns:xlink="http://www.w3.org/1999/xlink" x="0px" y="0px"
	 viewBox="0 0 100 110" style="enable-background:new 0 0 100 110;" xml:space="preserve">
<style type="text/css">
	.st0{fill:#FFFFFF;}
</style>
<g>
	<g>
		
			<image style="overflow:visible;opacity:0.75;" width="44" height="47" xlink:href="55476CF6.png"  transform="matrix(1 0 0 1 68 -12)">
		</image>
		<g>
			<g>
				<path class="st0" d="M90.1,0.1c0,0-2.6,5.4-5.1,7.9c-2.5,2.5-4.9,2.6-4.9,2.6s5.7,3.6,7.3,5.5c1.5,1.9,3.1,6.7,3.1,6.7
					s1.8-5.1,3.3-6.7s6.2-5.5,6.2-5.5s-4.5-1-6.2-3.5S90.1,0.1,90.1,0.1z"/>
			</g>
		</g>
	</g>
	<g>
		
			<image style="overflow:visible;opacity:0.75;" width="42" height="43" xlink:href="55476CFA.png"  transform="matrix(1 0 0 1 11 79)">
		</image>
		<g>
			<g>
				<path class="st0" d="M32.4,91.2c0,0-2.2,4.4-4.4,6.5s-4.2,2.1-4.2,2.1s5,3,6.3,4.5c1.3,1.6,2.7,5.6,2.7,5.6s1.5-4.2,2.9-5.6
					s5.3-4.5,5.3-4.5s-3.8-0.8-5.3-2.9C34.2,94.9,32.4,91.2,32.4,91.2z"/>
			</g>
		</g>
	</g>
	<g>
		
			<image style="overflow:visible;opacity:0.75;" width="33" height="34" xlink:href="55476CFD.png"  transform="matrix(1 0 0 1 26 3)">
		</image>
		<g>
			<g>
				<path class="st0" d="M42.4,15.4c0,0-1,2.3-2,3.3c-1,1.1-1.9,1.1-1.9,1.1s2.3,1.5,2.9,2.3s1.2,2.8,1.2,2.8s0.7-2.2,1.3-2.8
					c0.6-0.7,2.5-2.3,2.5-2.3s-1.8-0.4-2.5-1.5C43.2,17.3,42.4,15.4,42.4,15.4z"/>
			</g>
		</g>
	</g>
	<g>
		
			<image style="overflow:visible;opacity:0.75;" width="33" height="35" xlink:href="55476CFE.png"  transform="matrix(1 0 0 1 78 76)">
		</image>
		<g>
			<g>
				<path class="st0" d="M94.3,89c0,0-1,2.3-2,3.3c-1,1.1-1.9,1.1-1.9,1.1s2.3,1.5,2.9,2.3c0.6,0.8,1.2,2.8,1.2,2.8s0.7-2.2,1.3-2.8
					c0.6-0.7,2.5-2.3,2.5-2.3s-1.8-0.4-2.5-1.5C95.1,90.9,94.3,89,94.3,89z"/>
			</g>
		</g>
	</g>
	<g>
		
			<image style="overflow:visible;opacity:0.75;" width="40" height="42" xlink:href="55476CFC.png"  transform="matrix(1 0 0 1 57 62)">
		</image>
		<g>
			<g>
				<path class="st0" d="M76.7,74.6c0,0-2,3.9-3.9,5.8S69,82.2,69,82.2s4.4,2.6,5.6,4c1.2,1.4,2.4,4.9,2.4,4.9s1.4-3.7,2.5-4.9
					c1.2-1.2,4.7-4,4.7-4s-3.4-0.7-4.7-2.5S76.7,74.6,76.7,74.6z"/>
			</g>
		</g>
	</g>
	<g>
		
			<image style="overflow:visible;opacity:0.75;" width="37" height="42" xlink:href="55476CFB.png"  transform="matrix(1 0 0 1 -12 11)">
		</image>
		<g>
			<g>
				<path class="st0" d="M6.3,23.5c0,0-1.6,4.1-3.2,5.9C1.5,31.3,0,31.3,0,31.3s3.6,2.7,4.6,4.1s1.9,5.1,1.9,5.1s1.1-3.8,2.1-5.1
					c1-1.2,3.9-4.1,3.9-4.1s-2.8-0.7-3.9-2.6C7.5,26.8,6.3,23.5,6.3,23.5z"/>
			</g>
		</g>
	</g>
</g>
</svg>
