<?xml version="1.0" encoding="utf-8"?>
<!-- Generator: Adobe Illustrator 22.0.1, SVG Export Plug-In . SVG Version: 6.00 Build 0)  -->
<svg version="1.1" id="圖層_1" xmlns="http://www.w3.org/2000/svg" xmlns:xlink="http://www.w3.org/1999/xlink" x="0px" y="0px"
	 viewBox="0 0 65 100" style="enable-background:new 0 0 65 100;" xml:space="preserve">
<style type="text/css">
	.st0{opacity:0.4;}
	.st1{fill:#FFFFFF;}
	.st2{fill:url(#SVGID_1_);}
	.st3{fill:url(#SVGID_2_);}
	.st4{fill:url(#SVGID_3_);}
	.st5{fill:url(#SVGID_4_);}
	.st6{fill:url(#SVGID_5_);}
	.st7{fill:url(#SVGID_6_);}
	.st8{fill:url(#SVGID_7_);}
	.st9{fill:url(#SVGID_8_);}
	.st10{fill:url(#SVGID_9_);}
	.st11{fill:url(#SVGID_10_);}
	.st12{fill:url(#SVGID_11_);}
	.st13{fill:#9CC291;}
	.st14{fill:url(#SVGID_12_);}
	.st15{fill:url(#SVGID_13_);}
	.st16{fill:url(#SVGID_14_);}
	.st17{fill:url(#SVGID_15_);}
	.st18{fill:url(#SVGID_16_);}
	.st19{fill:url(#SVGID_17_);}
	.st20{fill:url(#SVGID_18_);}
	.st21{fill:url(#SVGID_19_);}
	.st22{fill:url(#SVGID_20_);}
	.st23{fill:url(#SVGID_21_);}
	.st24{fill:url(#SVGID_22_);}
	.st25{fill:url(#SVGID_23_);}
	.st26{fill:url(#SVGID_24_);}
	.st27{fill:url(#SVGID_25_);}
	.st28{fill:url(#SVGID_26_);}
	.st29{fill:url(#SVGID_27_);}
	.st30{fill:url(#SVGID_28_);}
	.st31{fill:url(#SVGID_29_);}
	.st32{fill:url(#SVGID_30_);}
	.st33{fill:url(#SVGID_31_);}
	.st34{fill:url(#SVGID_32_);}
	.st35{fill:url(#SVGID_33_);}
	.st36{fill:url(#SVGID_34_);}
	.st37{fill:url(#SVGID_35_);}
	.st38{fill:url(#SVGID_36_);}
</style>
<g>
	<g id="XMLID_00000089543389013692915690000015998501538706235070_" class="st0">
		<path id="XMLID_00000137838399909694302900000014458081355045237171_" class="st1" d="M29.9,98.7c14.6,0.2,26.6-2.4,26.6-5.8
			c0-1.2-1.8-2.3-4.4-3.3c5.1,1.2,8.4,2.8,8.3,4.6c-0.1,3.4-12,6-26.6,5.8c-9.5-0.1-17.4-1.5-22-3.3C16.6,97.8,22.9,98.6,29.9,98.7z
			"/>
		<path id="XMLID_00000052103150684176685210000007489036178564974260_" class="st1" d="M31.5,84.3c-14.6-0.2-26.6,2.4-26.6,5.8
			c0,1.2,1.8,2.3,4.4,3.3c-5.1-1.2-8.4-2.8-8.3-4.6c0.1-3.4,12-6,26.6-5.8c9.5,0.1,17.4,1.5,22,3.3C44.8,85.1,38.5,84.4,31.5,84.3z"
			/>
	</g>
	<linearGradient id="SVGID_1_" gradientUnits="userSpaceOnUse" x1="1.3367" y1="52.7614" x2="13.2364" y2="52.7614">
		<stop  offset="0" style="stop-color:#00775C"/>
		<stop  offset="1" style="stop-color:#9DE3AF"/>
	</linearGradient>
	<path class="st2" d="M13.2,61.7c-3.2-3.8-6.8-7.6-9.6-11.7c-0.6-0.9-3.8-6.8-1.2-6.1c2.7,0.7,5,5.1,6.1,7.3
		c1.1,2.2,2.3,4.3,3.3,6.5c0.4,0.9,1,1.9,1.3,2.9C13.1,60.7,13.4,61.9,13.2,61.7C10.7,58.8,13.6,62.1,13.2,61.7z"/>
	<linearGradient id="SVGID_2_" gradientUnits="userSpaceOnUse" x1="2.4909" y1="81.5508" x2="27.5817" y2="81.5508">
		<stop  offset="0" style="stop-color:#0C4B56"/>
		<stop  offset="0.338" style="stop-color:#317C5B"/>
		<stop  offset="0.5963" style="stop-color:#499B5E"/>
		<stop  offset="0.8456" style="stop-color:#5BB360"/>
		<stop  offset="1" style="stop-color:#62BC61"/>
	</linearGradient>
	<path class="st3" d="M27.6,93.6c0-1.4-0.3-2.7-0.6-4c-0.7-2.7-2-5.1-3.6-7.4c-3.4-4.8-8-9.4-13.6-11.4c-1.3-0.5-2.6-0.9-4-1
		c-0.6-0.1-2.6-0.4-3.1,0.2c-0.4,0.5,0.1,0.4,0.6,0.6c1,0.4,1.9,1,2.8,1.5c8.4,5.2,18.4,11.3,20.7,21.5H27.6z"/>
	<linearGradient id="SVGID_3_" gradientUnits="userSpaceOnUse" x1="1.2409" y1="59.6503" x2="27.6858" y2="59.6503">
		<stop  offset="0" style="stop-color:#0C4B56"/>
		<stop  offset="0.338" style="stop-color:#317C5B"/>
		<stop  offset="0.5963" style="stop-color:#499B5E"/>
		<stop  offset="0.8456" style="stop-color:#5BB360"/>
		<stop  offset="1" style="stop-color:#62BC61"/>
	</linearGradient>
	<path class="st4" d="M27.2,92.8c-0.6-9.7-3.5-19.1-6.7-28.2c-1.4-4.2-2.9-8.4-4.6-12.4c-2.2-4.9-4.8-9.6-7.4-14.3
		c-1.2-2.2-2.5-4.4-3.8-6.5c-0.6-1-1.3-1.9-1.9-2.8c-0.3-0.4-1.5-1.5-1.5-2c0-0.6,0.6-0.1,0.9,0.1c0.9,0.5,1.7,1.2,2.5,1.8
		c1.9,1.6,3.6,3.5,5.1,5.4c3.3,4.1,6,8.7,8,13.6c2,4.8,3.3,9.8,4.8,14.8c1.7,5.8,3.2,11.6,4.1,17.6c0.4,2.7,0.7,5.4,0.9,8
		c0.1,1.1,0.1,2.3,0.1,3.4c0,0.3,0.1,1.1,0,1.3C27.6,92.7,27.3,93.3,27.2,92.8z"/>
	<g>
		
			<linearGradient id="SVGID_4_" gradientUnits="userSpaceOnUse" x1="2097.7632" y1="-589.5938" x2="2094.0664" y2="-576.7709" gradientTransform="matrix(-0.4769 0.4926 0.4616 0.4469 1283.7429 -718.8154)">
			<stop  offset="0" style="stop-color:#C3E6A3"/>
			<stop  offset="1" style="stop-color:#9CC291"/>
		</linearGradient>
		<path class="st5" d="M14.9,53.6c-0.5-0.2-1.1-0.5-1.7-0.9c0.3,0,0.5,0,0.7-0.1c-0.8-0.5-1.6-1.2-2.3-2c0.5,0.1,1.1,0.3,1.7,0.7
			c0.2,0.1,0.5,0.4,0.7,0.6c-0.2-0.3-0.4-0.7-0.5-1C13.2,50,13,49.3,13,48.5c0.6,1,1.1,2.1,1.5,3.2c0.1-0.3,0.1-0.6,0.1-1
			c0.3,0.8,0.6,1.5,0.7,2.3c0.2-0.3,0.1-0.7,0.1-1.2c0.4,0.8,0.7,1.6,0.9,2.3c0-0.3,0.1-0.6,0.1-0.9c0.4,0.7,0.8,1.5,1,2.3
			c0-0.3,0-0.6,0-0.9c0.6,1,1.1,2.4,1.3,3.4c0,0,0.1,0.1,0.1,0.1c0,0-0.1,0-0.1,0c0,0,0,0,0,0c0,0,0,0,0,0c-0.7-0.2-1.7-0.9-2.5-1.7
			c0.2,0.1,0.5,0.1,0.7,0c-0.6-0.4-1.1-0.8-1.7-1.4c0.2,0,0.5-0.1,0.7-0.1c-0.6-0.3-1.2-0.6-1.7-1.1C14.3,53.8,14.7,53.8,14.9,53.6z
			"/>
		
			<linearGradient id="SVGID_5_" gradientUnits="userSpaceOnUse" x1="1534.5237" y1="676.3766" x2="1529.9618" y2="692.2007" gradientTransform="matrix(-0.5863 -0.1951 -0.2029 0.6096 1054.2793 -82.3341)">
			<stop  offset="0" style="stop-color:#C3E6A3"/>
			<stop  offset="1" style="stop-color:#9CC291"/>
		</linearGradient>
		<path class="st6" d="M16.6,36.2c-0.1-0.7-0.1-1.6-0.1-2.5c0.1,0.3,0.2,0.6,0.3,0.8c0-1.2,0.2-2.5,0.4-3.7c0.1,0.7,0.2,1.5,0.2,2.3
			c0,0.4,0,0.8-0.1,1.2c0.1-0.4,0.3-0.8,0.5-1.1c0.4-0.7,0.8-1.2,1.2-1.7c-0.4,1.2-0.9,2.3-1.4,3.3c0.2-0.1,0.4-0.2,0.6-0.4
			c-0.4,0.7-0.7,1.4-1.1,1.9c0.2,0.1,0.5-0.2,0.8-0.4c-0.3,0.8-0.7,1.5-1.1,2.1c0.2-0.1,0.4-0.2,0.6-0.3c-0.3,0.8-0.6,1.6-1,2.3
			c0.2-0.1,0.3-0.2,0.5-0.5c-0.4,1.2-1,2.5-1.6,3.1c0,0.1,0,0.1,0,0.2c0,0,0-0.1,0-0.1c0,0,0,0,0,0c0,0,0,0,0,0
			c-0.2-1-0.1-2.5,0.1-3.8c0,0.3,0.1,0.6,0.2,0.8c0-0.8,0.1-1.7,0.2-2.7c0.1,0.3,0.2,0.5,0.3,0.8c-0.1-0.8,0-1.7,0-2.6
			C16.3,35.6,16.4,36,16.6,36.2z"/>
		
			<linearGradient id="SVGID_6_" gradientUnits="userSpaceOnUse" x1="1665.5553" y1="-1165.213" x2="1662.2045" y2="-1153.5897" gradientTransform="matrix(-1.779372e-02 0.7305 0.9997 2.435127e-02 1199.2653 -1129.2035)">
			<stop  offset="0" style="stop-color:#F2EA8F"/>
			<stop  offset="1" style="stop-color:#6DAA59"/>
		</linearGradient>
		<path class="st7" d="M11.3,58.7c-0.8,0.4-1.7,0.7-2.6,0.9c0.3-0.2,0.6-0.5,0.8-0.8c-1.3,0.3-2.7,0.6-4.2,0.7
			c0.7-0.4,1.5-0.8,2.4-1.1c0.4-0.1,0.8-0.2,1.3-0.2c-0.5-0.1-1-0.2-1.4-0.4c-0.9-0.4-1.7-0.8-2.4-1.3c1.5,0.2,2.9,0.6,4.2,1
			C9.2,57.2,9,57,8.7,56.7c1,0.3,1.8,0.7,2.6,1.1c0-0.4-0.4-0.7-0.8-1c1,0.3,2,0.6,2.8,1c-0.2-0.3-0.4-0.6-0.6-0.8
			c1,0.2,2,0.4,2.9,0.8c-0.2-0.2-0.4-0.5-0.7-0.7c1.5,0.2,3.1,0.8,4.1,1.4c0.1,0,0.1,0,0.2,0c0,0-0.1,0-0.1,0.1c0,0,0,0,0,0
			c0,0,0,0-0.1,0c-1,0.6-2.6,1-4.1,1.1c0.3-0.2,0.6-0.4,0.8-0.6c-0.9,0.3-1.9,0.5-3,0.6c0.2-0.3,0.5-0.5,0.7-0.8
			c-0.8,0.4-1.8,0.6-2.8,0.8C10.8,59.4,11.2,59,11.3,58.7z"/>
		
			<linearGradient id="SVGID_7_" gradientUnits="userSpaceOnUse" x1="1118.2947" y1="-1370.9757" x2="1114.4948" y2="-1357.7948" gradientTransform="matrix(0.3659 0.745 0.8976 -0.4409 823.824 -1387.7653)">
			<stop  offset="0" style="stop-color:#C3E6A3"/>
			<stop  offset="1" style="stop-color:#9CC291"/>
		</linearGradient>
		<path class="st8" d="M8.6,45.6c-0.5,0.9-1.2,1.8-2,2.6c0.2-0.5,0.3-0.9,0.4-1.3c-1,1.2-2.2,2.3-3.5,3.4c0.4-0.9,1-1.8,1.7-2.7
			c0.3-0.4,0.7-0.7,1.1-1.1c-0.5,0.2-0.9,0.4-1.3,0.5c-0.9,0.2-1.8,0.3-2.6,0.2c1.4-0.7,2.8-1.3,4.1-1.6c-0.3-0.2-0.6-0.3-1-0.4
			c1-0.3,1.9-0.5,2.7-0.5c-0.2-0.4-0.6-0.5-1.1-0.6c1-0.4,2-0.7,2.9-0.8c-0.3-0.1-0.6-0.3-0.9-0.4c1-0.5,2-0.9,2.9-1.1
			c-0.2-0.1-0.5-0.2-0.9-0.2c1.4-0.8,3.1-1.2,4.1-1.2c0.1,0,0.1-0.1,0.2-0.1c0,0,0,0.1-0.1,0.1c0,0,0,0,0,0c0,0,0,0,0,0
			c-0.6,1.2-1.9,2.7-3.2,3.8c0.2-0.4,0.4-0.8,0.4-1.1c-0.7,0.9-1.5,1.7-2.4,2.5c0.1-0.4,0.2-0.8,0.3-1.2c-0.6,0.9-1.4,1.8-2.2,2.6
			C8.4,46.6,8.7,46,8.6,45.6z"/>
		
			<linearGradient id="SVGID_8_" gradientUnits="userSpaceOnUse" x1="1559.9952" y1="-1209.7638" x2="1556.6532" y2="-1198.1713" gradientTransform="matrix(-4.133505e-02 0.829 0.914 4.557610e-02 1170.9316 -1204.7441)">
			<stop  offset="0" style="stop-color:#F2EA8F"/>
			<stop  offset="1" style="stop-color:#6DAA59"/>
		</linearGradient>
		<path class="st9" d="M6.6,33c-0.7,0.4-1.5,0.7-2.4,1c0.3-0.3,0.5-0.6,0.7-0.9c-1.2,0.4-2.5,0.6-3.9,0.7c0.6-0.5,1.4-0.9,2.2-1.2
			c0.4-0.1,0.8-0.2,1.2-0.2c-0.5-0.1-0.9-0.2-1.2-0.4c-0.8-0.4-1.5-1-2.1-1.5c1.3,0.3,2.6,0.7,3.8,1.3c-0.1-0.3-0.4-0.7-0.6-1
			C5.2,31,5.9,31.5,6.6,32c0-0.4-0.4-0.8-0.7-1.2c0.9,0.3,1.8,0.7,2.5,1.2c-0.2-0.3-0.4-0.6-0.6-1c1,0.2,1.9,0.6,2.7,1
			c-0.1-0.3-0.4-0.5-0.7-0.8c1.4,0.3,2.9,0.9,3.7,1.7c0.1,0,0.1,0,0.2,0c0,0-0.1,0-0.1,0.1c0,0,0,0,0,0c0,0,0,0,0,0
			c-0.9,0.6-2.4,1.1-3.8,1.2c0.3-0.2,0.5-0.4,0.7-0.7c-0.8,0.3-1.8,0.5-2.7,0.6c0.2-0.3,0.4-0.6,0.7-0.9c-0.8,0.4-1.7,0.7-2.6,0.9
			C6.2,33.7,6.6,33.4,6.6,33z"/>
		
			<linearGradient id="SVGID_9_" gradientUnits="userSpaceOnUse" x1="1003.0867" y1="373.8061" x2="998.7958" y2="388.6902" gradientTransform="matrix(-0.5345 -0.4855 -0.6724 0.7402 815.4267 253.9658)">
			<stop  offset="0" style="stop-color:#C3E6A3"/>
			<stop  offset="1" style="stop-color:#9CC291"/>
		</linearGradient>
		<path class="st10" d="M23.3,50.5c0.3-1,0.7-2.2,1.2-3.3c-0.1,0.5-0.1,0.9-0.1,1.3c0.7-1.6,1.5-3.2,2.4-4.8c-0.2,1-0.5,2.1-1,3.2
			c-0.2,0.5-0.4,1-0.7,1.5c0.4-0.5,0.7-0.9,1.1-1.2c0.8-0.7,1.6-1.3,2.2-1.6c-1.1,1.4-2.2,2.6-3.3,3.7c0.3,0,0.6-0.1,0.9-0.2
			c-0.8,0.8-1.6,1.5-2.3,2c0.2,0.2,0.7,0,1.1-0.1c-0.8,0.9-1.6,1.7-2.4,2.2c0.3,0,0.6-0.1,0.9-0.1c-0.8,1-1.6,1.8-2.4,2.6
			c0.2,0,0.5-0.1,0.8-0.3c-1.1,1.4-2.5,2.8-3.4,3.3c0,0.1-0.1,0.1-0.1,0.2c0,0,0-0.1,0-0.1c0,0,0,0,0,0c0,0,0,0,0-0.1
			c0.3-1.4,1.2-3.4,2.1-5c-0.1,0.5-0.2,0.9-0.2,1.2c0.5-1.1,1-2.3,1.6-3.5c0,0.4,0,0.8,0,1.2c0.4-1.1,0.8-2.3,1.4-3.5
			C23.2,49.6,23.2,50.2,23.3,50.5z"/>
		
			<linearGradient id="SVGID_10_" gradientUnits="userSpaceOnUse" x1="-34.3789" y1="-3.6987" x2="-37.6856" y2="7.7717" gradientTransform="matrix(0.1959 -0.786 -0.9703 -0.2418 32.1853 15.4396)">
			<stop  offset="0" style="stop-color:#C3E6A3"/>
			<stop  offset="1" style="stop-color:#9CC291"/>
		</linearGradient>
		<path class="st11" d="M22.7,42.4c0.8-0.2,1.7-0.3,2.7-0.2c-0.4,0.2-0.7,0.4-0.9,0.6c1.3,0,2.8,0.2,4.2,0.5
			c-0.7,0.3-1.6,0.4-2.6,0.5c-0.4,0-0.8,0-1.3-0.1c0.5,0.2,0.9,0.5,1.3,0.8c0.8,0.7,1.5,1.4,2.1,2.1c-1.4-0.7-2.7-1.5-3.9-2.3
			c0.1,0.4,0.3,0.7,0.5,1.1c-0.9-0.6-1.7-1.3-2.3-2c0,0.4,0.3,0.9,0.6,1.4c-1-0.6-1.8-1.2-2.5-1.9c0.2,0.4,0.3,0.7,0.5,1.1
			c-1-0.5-1.9-1.1-2.7-1.7c0.1,0.3,0.3,0.6,0.6,0.9c-1.4-0.7-2.9-1.8-3.7-2.7c-0.1,0-0.1,0-0.2-0.1c0,0,0.1,0,0.1,0c0,0,0,0,0,0
			c0,0,0,0,0,0c1.1-0.3,2.8-0.3,4.2,0c-0.4,0.1-0.6,0.2-0.9,0.4c0.9,0,2,0.1,3,0.3c-0.3,0.2-0.5,0.4-0.8,0.6c0.9-0.1,1.9-0.1,2.9,0
			C23.2,41.8,22.8,42,22.7,42.4z"/>
		
			<linearGradient id="SVGID_11_" gradientUnits="userSpaceOnUse" x1="803.3748" y1="565.1702" x2="799.3541" y2="579.1171" gradientTransform="matrix(-0.4887 -0.646 -0.6525 0.4937 783.6288 262.7807)">
			<stop  offset="0" style="stop-color:#F2EA8F"/>
			<stop  offset="1" style="stop-color:#6DAA59"/>
		</linearGradient>
		<path class="st12" d="M17.9,27.5c0.3-0.9,0.7-1.8,1.2-2.7C19,25.3,19,25.7,19,26.1c0.7-1.2,1.4-2.5,2.3-3.6
			c-0.2,0.9-0.6,1.8-1,2.7c-0.2,0.4-0.4,0.8-0.7,1.1c0.4-0.3,0.7-0.5,1-0.7c0.8-0.3,1.5-0.5,2.1-0.5c-1.1,0.8-2.1,1.5-3.2,2.1
			c0.3,0.1,0.5,0.2,0.9,0.2c-0.8,0.4-1.5,0.7-2.2,0.9c0.2,0.3,0.6,0.3,1,0.4c-0.8,0.5-1.6,0.9-2.3,1.1c0.3,0.1,0.5,0.2,0.8,0.3
			c-0.8,0.6-1.5,1.1-2.3,1.4c0.2,0.1,0.5,0.1,0.8,0.1c-1.1,0.9-2.4,1.6-3.3,1.7c0,0-0.1,0.1-0.1,0.1c0,0,0-0.1,0-0.1c0,0,0,0,0,0
			c0,0,0,0,0,0c0.3-1.2,1.2-2.8,2.1-3.9c-0.1,0.4-0.2,0.8-0.2,1.1c0.4-0.9,1-1.8,1.6-2.6c0,0.4,0,0.8-0.1,1.2
			c0.4-0.9,0.8-1.8,1.4-2.7C17.8,26.6,17.7,27.2,17.9,27.5z"/>
		<g>
			<g>
				<path class="st13" d="M13.3,33.4c3,10.9,4.3,22.1,7.3,33c1.4,5.1,2.8,10.1,4.2,15.2c0.9,3.3,2,6.6,2.6,10c0,0.2,0.3,0.1,0.3-0.1
					c-0.6-3.4-1.7-6.7-2.6-10c-1.4-5.1-2.9-10.1-4.2-15.2c-3-10.9-4.3-22.1-7.3-33C13.5,33.1,13.2,33.2,13.3,33.4L13.3,33.4z"/>
			</g>
		</g>
		
			<linearGradient id="SVGID_12_" gradientUnits="userSpaceOnUse" x1="-532.8391" y1="-658.2872" x2="-536.7904" y2="-644.5808" gradientTransform="matrix(0.5313 -0.3591 -0.3307 -0.4892 89.6083 -447.553)">
			<stop  offset="0" style="stop-color:#C3E6A3"/>
			<stop  offset="1" style="stop-color:#9CC291"/>
		</linearGradient>
		<path class="st14" d="M21.1,62.6c0.5,0.3,0.9,0.7,1.4,1.3c-0.2-0.1-0.5-0.1-0.7-0.1c0.6,0.7,1.3,1.5,1.8,2.4
			c-0.5-0.2-0.9-0.6-1.4-1c-0.2-0.2-0.4-0.4-0.6-0.7c0.1,0.4,0.2,0.7,0.3,1.1c0.1,0.8,0.2,1.5,0.1,2.2c-0.4-1.1-0.7-2.2-0.9-3.2
			C21,64.7,21,65,20.9,65.3c-0.2-0.8-0.3-1.5-0.3-2.2c-0.2,0.2-0.2,0.6-0.3,1c-0.2-0.8-0.4-1.6-0.4-2.3c-0.1,0.3-0.1,0.6-0.2,0.8
			c-0.3-0.8-0.5-1.6-0.6-2.3C19,60.5,19,60.8,19,61.1c-0.4-1.1-0.7-2.4-0.7-3.4c0,0,0-0.1-0.1-0.1c0,0,0,0,0.1,0c0,0,0,0,0,0
			c0,0,0,0,0,0c0.6,0.3,1.5,1.2,2,2.2c-0.2-0.1-0.4-0.2-0.6-0.2c0.5,0.5,0.9,1,1.3,1.7c-0.2,0-0.4,0-0.6-0.1c0.5,0.4,1,0.9,1.4,1.5
			C21.6,62.6,21.3,62.5,21.1,62.6z"/>
		
			<linearGradient id="SVGID_13_" gradientUnits="userSpaceOnUse" x1="-34.0369" y1="-1463.2344" x2="-38.5811" y2="-1447.4716" gradientTransform="matrix(0.7467 2.185374e-02 1.727412e-02 -0.5902 67.7041 -810.7005)">
			<stop  offset="0" style="stop-color:#F2EA8F"/>
			<stop  offset="1" style="stop-color:#6DAA59"/>
		</linearGradient>
		<path class="st15" d="M15.9,47.1c0.3,0.6,0.5,1.4,0.7,2.1c-0.2-0.3-0.4-0.5-0.6-0.6c0.3,1.1,0.5,2.2,0.6,3.4
			c-0.3-0.5-0.6-1.2-0.9-2c-0.1-0.3-0.2-0.7-0.2-1.1c-0.1,0.4-0.1,0.8-0.3,1.1c-0.3,0.7-0.6,1.4-0.9,1.9c0.2-1.2,0.4-2.3,0.7-3.4
			c-0.2,0.1-0.4,0.3-0.6,0.6c0.2-0.8,0.5-1.5,0.8-2.1c-0.3,0-0.5,0.3-0.8,0.6c0.2-0.8,0.4-1.6,0.7-2.3c-0.2,0.2-0.4,0.3-0.6,0.5
			c0.1-0.8,0.3-1.7,0.6-2.4c-0.2,0.1-0.3,0.3-0.5,0.6c0.1-1.2,0.5-2.5,1-3.3c0-0.1,0-0.1,0-0.2c0,0,0,0.1,0,0.1c0,0,0,0,0,0
			c0,0,0,0,0,0c0.4,0.8,0.8,2.2,0.9,3.4c-0.1-0.3-0.3-0.5-0.5-0.6c0.2,0.7,0.4,1.6,0.4,2.4c-0.2-0.2-0.4-0.4-0.6-0.6
			c0.3,0.7,0.5,1.5,0.6,2.3C16.4,47.4,16.2,47.1,15.9,47.1z"/>
		
			<linearGradient id="SVGID_14_" gradientUnits="userSpaceOnUse" x1="566.2849" y1="-1625.5308" x2="561.9318" y2="-1610.431" gradientTransform="matrix(0.6779 0.4854 0.4354 -0.608 336.7457 -1192.5634)">
			<stop  offset="0" style="stop-color:#F2EA8F"/>
			<stop  offset="1" style="stop-color:#6DAA59"/>
		</linearGradient>
		<path class="st16" d="M15.4,64.9c-0.1,0.9-0.2,1.9-0.5,2.8c0-0.4-0.1-0.8-0.2-1.2c-0.3,1.3-0.7,2.7-1.2,4.1c0-0.9,0.1-1.8,0.2-2.8
			c0.1-0.4,0.2-0.8,0.4-1.3c-0.3,0.4-0.5,0.7-0.8,0.9c-0.6,0.5-1.3,0.9-1.9,1.2c0.8-1.1,1.6-2.1,2.4-2.9c-0.3,0-0.6,0-0.9,0.1
			c0.6-0.6,1.2-1.1,1.8-1.5c-0.3-0.2-0.7-0.1-1,0c0.6-0.7,1.2-1.3,1.8-1.7c-0.3,0-0.6,0-0.8,0c0.6-0.8,1.2-1.5,1.7-2
			c-0.2,0-0.5,0.1-0.8,0.2c0.8-1.2,1.8-2.2,2.6-2.6c0-0.1,0.1-0.1,0.1-0.2c0,0,0,0.1,0,0.1c0,0,0,0,0,0c0,0,0,0,0,0
			c0,1.2-0.4,2.9-0.9,4.3c0-0.4,0-0.8-0.1-1.1c-0.2,1-0.5,2-0.8,2.9c-0.1-0.4-0.2-0.7-0.2-1.1c-0.1,0.9-0.3,2-0.6,3
			C15.7,65.7,15.6,65.2,15.4,64.9z"/>
		
			<linearGradient id="SVGID_15_" gradientUnits="userSpaceOnUse" x1="-196.4405" y1="763.1485" x2="-199.7792" y2="774.7296" gradientTransform="matrix(4.096131e-02 -0.5939 -0.5083 -3.506132e-02 421.6732 -32.5812)">
			<stop  offset="0" style="stop-color:#F2EA8F"/>
			<stop  offset="1" style="stop-color:#6DAA59"/>
		</linearGradient>
		<path class="st17" d="M22.4,57.6c0.4-0.3,0.9-0.5,1.4-0.7c-0.2,0.2-0.3,0.4-0.4,0.6c0.7-0.3,1.4-0.4,2.2-0.5
			c-0.4,0.3-0.8,0.6-1.3,0.9C24,58,23.8,58,23.6,58c0.3,0.1,0.5,0.2,0.7,0.3c0.4,0.3,0.8,0.7,1.2,1.1c-0.7-0.2-1.5-0.5-2.1-0.9
			c0.1,0.2,0.2,0.5,0.3,0.7c-0.5-0.3-0.9-0.6-1.3-1c0,0.3,0.2,0.6,0.4,0.9c-0.5-0.2-1-0.5-1.4-0.9c0.1,0.2,0.2,0.5,0.3,0.7
			c-0.5-0.2-1-0.4-1.5-0.7c0.1,0.2,0.2,0.4,0.4,0.6c-0.8-0.2-1.6-0.7-2-1.2c0,0-0.1,0-0.1,0c0,0,0,0,0.1,0c0,0,0,0,0,0c0,0,0,0,0,0
			c0.5-0.4,1.4-0.8,2.1-0.8c-0.2,0.1-0.3,0.3-0.4,0.5c0.5-0.2,1-0.3,1.5-0.4c-0.1,0.2-0.3,0.4-0.4,0.6c0.4-0.3,0.9-0.5,1.5-0.6
			C22.6,57,22.4,57.3,22.4,57.6z"/>
		
			<linearGradient id="SVGID_16_" gradientUnits="userSpaceOnUse" x1="2111.1284" y1="-13.0144" x2="2106.8169" y2="1.9414" gradientTransform="matrix(-0.5954 0.165 0.2028 0.7316 1268.5526 -319.2842)">
			<stop  offset="0" style="stop-color:#C3E6A3"/>
			<stop  offset="1" style="stop-color:#9CC291"/>
		</linearGradient>
		<path class="st18" d="M11.4,25.3c-0.4-0.7-0.8-1.5-1.1-2.4c0.2,0.3,0.4,0.5,0.6,0.6c-0.5-1.2-1-2.6-1.4-4c0.4,0.6,0.8,1.3,1.2,2.1
			c0.2,0.4,0.3,0.8,0.4,1.2c-0.1-0.5-0.1-1-0.1-1.4c0-1,0.1-1.9,0.2-2.7c0.2,1.5,0.3,3,0.3,4.4c0.1-0.2,0.2-0.5,0.3-0.9
			c0,1,0,2-0.1,2.8c0.2-0.1,0.3-0.6,0.4-1c0.1,1.1,0.1,2.1,0,3c0.1-0.3,0.2-0.6,0.3-0.8c0.1,1.1,0.2,2.1,0.2,3.1
			c0.1-0.2,0.2-0.5,0.2-0.9c0.2,1.5,0.2,3.3,0.1,4.4c0,0.1,0,0.1,0,0.2c0,0,0-0.1-0.1-0.1c0,0,0,0,0,0c0,0,0,0,0-0.1
			c-0.6-0.8-1.2-2.4-1.6-3.9c0.2,0.3,0.4,0.5,0.5,0.6c-0.4-0.8-0.7-1.8-1-2.8c0.2,0.2,0.4,0.3,0.6,0.5c-0.4-0.7-0.8-1.6-1.1-2.6
			C10.9,25,11.2,25.3,11.4,25.3z"/>
	</g>
	<linearGradient id="SVGID_17_" gradientUnits="userSpaceOnUse" x1="0.4967" y1="74.3287" x2="28.2753" y2="74.3287">
		<stop  offset="0" style="stop-color:#00775C"/>
		<stop  offset="1" style="stop-color:#9DE3AF"/>
	</linearGradient>
	<path class="st19" d="M27.6,93.6h0.6c0-0.4-0.1-0.9-0.1-1.2c-0.1-1.9-0.3-3.8-0.6-5.7c-0.7-4.1-1.9-8.1-3.7-11.9
		C20.6,67.9,15.8,61.6,9,58c-0.6-0.3-8.2-3.7-8.5-2.7c-0.1,0.5,2.5,1.9,2.9,2.2c1.3,1,2.7,2,4,3c5.7,4.6,11.1,9.7,14.7,16.2
		C25,82,26.7,87.7,27.6,93.6z"/>
	<linearGradient id="SVGID_18_" gradientUnits="userSpaceOnUse" x1="18.4808" y1="63.4898" x2="28.8528" y2="63.4898">
		<stop  offset="0" style="stop-color:#0C4B56"/>
		<stop  offset="0.338" style="stop-color:#317C5B"/>
		<stop  offset="0.5963" style="stop-color:#499B5E"/>
		<stop  offset="0.8456" style="stop-color:#5BB360"/>
		<stop  offset="1" style="stop-color:#62BC61"/>
	</linearGradient>
	<path class="st20" d="M28.3,93.6h0.5c0-0.8,0-1.6,0-2.4c0-2.2,0-4.5-0.1-6.7c-0.1-5-0.4-10.1-0.8-15.1c-0.8-9.2-1.8-18.5-5-27.2
		c-0.7-2-1.6-4-2.5-5.9c-0.2-0.3-1.4-3.3-1.8-2.7c-0.1,0.2,0.2,1.3,0.2,1.6c0.1,0.8,0.3,1.7,0.4,2.5c0.3,2,0.7,4.1,1.1,6.1
		c1.7,9.1,3.9,18.1,5.3,27.2C26.7,78.4,27.6,86,28.3,93.6z"/>
	<linearGradient id="SVGID_19_" gradientUnits="userSpaceOnUse" x1="26.5862" y1="57.0464" x2="32.1157" y2="57.0464">
		<stop  offset="0" style="stop-color:#00775C"/>
		<stop  offset="1" style="stop-color:#9DE3AF"/>
	</linearGradient>
	<path class="st21" d="M27.1,25.4c0.2,2.4,0.4,4.7,0.6,7.1c0.8,10.6,1.3,21.3,1.1,32c-0.1,8.7-0.4,19.9-0.1,29h0.8
		c0-1.7,0-3.6,0-4.3c0.2-2.6,0.2-6.3,0.5-8.9c0.5-6,1-11.9,1.4-17.9c0.7-10.3,1.3-20.7-0.9-30.9c-0.5-2.3-1.1-4.5-1.9-6.7
		c-0.4-1.1-0.8-2.1-1.2-3.1c-0.1-0.3-0.4-1.5-0.8-1.1c-0.2,0.2,0.1,1.3,0.1,1.7C26.9,23.3,27,24.4,27.1,25.4z"/>
	<linearGradient id="SVGID_20_" gradientUnits="userSpaceOnUse" x1="29.4569" y1="55.6295" x2="41.1121" y2="55.6295">
		<stop  offset="0" style="stop-color:#00775C"/>
		<stop  offset="1" style="stop-color:#9DE3AF"/>
	</linearGradient>
	<path class="st22" d="M29.8,81.7c-0.8-5.3,0-24.8,0.9-30c0.5-3.1,1.1-6.1,2.2-9.1c1.1-2.8,2.6-5.3,4.3-7.8c0.7-1,1.3-2,2-3
		c0.2-0.3,1.2-2.5,1.5-2.5c1.1-0.1-0.2,5-0.4,5.7c-0.9,2.8-2.2,5.4-3.6,8c-1.6,2.8-2.6,5.5-3.4,8.5c-0.9,3.1-2,20.4-2.5,23.6
		c-0.2,1.4-0.4,2.9-0.5,4.3c0,0.5,0.1,1.2-0.1,1.7C30.2,80.9,29.9,82.5,29.8,81.7z"/>
	<linearGradient id="SVGID_21_" gradientUnits="userSpaceOnUse" x1="29.0944" y1="70.1686" x2="44.5099" y2="70.1686">
		<stop  offset="0" style="stop-color:#0C4B56"/>
		<stop  offset="0.338" style="stop-color:#317C5B"/>
		<stop  offset="0.5963" style="stop-color:#499B5E"/>
		<stop  offset="0.8456" style="stop-color:#5BB360"/>
		<stop  offset="1" style="stop-color:#62BC61"/>
	</linearGradient>
	<path class="st23" d="M30.2,93.6c0.4-3,0.8-7.1,1-8.5c0.8-4.1,1.7-8.1,2.8-12.2c1.8-6.4,4.4-12.7,7.2-18.8c0.7-1.6,1.4-3.2,2.2-4.7
		c0.2-0.4,1.5-2.6,0.8-2.6c-0.4,0-1.3,1.1-1.6,1.4c-0.6,0.6-1.2,1.2-1.8,1.8c-1.1,1.2-2.1,2.5-3,3.9c-3.8,5.9-5.3,12.7-6.5,19.5
		c-1.1,6-1.8,13.7-2.2,20.1H30.2z"/>
	<linearGradient id="SVGID_22_" gradientUnits="userSpaceOnUse" x1="29.9124" y1="67.6223" x2="62.0082" y2="67.6223">
		<stop  offset="0" style="stop-color:#0C4B56"/>
		<stop  offset="0.338" style="stop-color:#317C5B"/>
		<stop  offset="0.5963" style="stop-color:#499B5E"/>
		<stop  offset="0.8456" style="stop-color:#5BB360"/>
		<stop  offset="1" style="stop-color:#62BC61"/>
	</linearGradient>
	<path class="st24" d="M61.6,41.7c-0.8-0.1-2.1,0.7-2.8,0.9c-0.9,0.4-1.8,0.8-2.7,1.3c-1.7,0.9-3.3,2-4.8,3.1
		c-7.4,5.7-11.7,14.2-15.2,22.6c-2.8,6.6-6,16.2-6.2,23.9h0.8c0-0.5,0-0.8,0-0.9c0.1-1,0.2-2,0.4-3c0.5-2.4,1.2-4.8,2-7.1
		c1.7-4.8,3.9-9.4,6.2-14c4.2-8,9.8-15.3,16.4-21.5c1.6-1.5,3.3-2.9,5-4.3C61.4,42.5,62.7,41.8,61.6,41.7z"/>
	<g>
		
			<linearGradient id="SVGID_23_" gradientUnits="userSpaceOnUse" x1="612.0659" y1="1025.7245" x2="607.3583" y2="1042.0541" gradientTransform="matrix(0.4769 0.4926 -0.4616 0.4469 233.2272 -718.8154)">
			<stop  offset="0" style="stop-color:#F2EA8F"/>
			<stop  offset="1" style="stop-color:#6DAA59"/>
		</linearGradient>
		<path class="st25" d="M46.9,44.4c0.7-0.2,1.4-0.6,2.1-1.2c-0.3,0-0.7,0-0.9-0.1c1-0.7,2-1.5,3-2.5c-0.7,0.1-1.4,0.4-2.1,0.8
			c-0.3,0.2-0.6,0.4-0.9,0.8c0.3-0.4,0.5-0.9,0.6-1.3c0.3-1,0.6-2,0.7-2.9c-0.8,1.3-1.4,2.7-1.9,4c-0.1-0.4-0.1-0.8-0.1-1.3
			c-0.4,1-0.7,2-0.9,2.9c-0.2-0.3-0.2-0.9-0.1-1.5c-0.5,1-0.8,2-1.1,3c0-0.4-0.1-0.8-0.1-1.2c-0.5,0.9-1,1.9-1.3,2.9
			c0-0.3,0-0.7,0.1-1.1c-0.8,1.3-1.5,3-1.6,4.3c0,0.1-0.1,0.1-0.1,0.2c0,0,0.1,0,0.1,0c0,0,0,0,0,0c0,0,0,0,0,0
			c0.9-0.2,2.2-1.1,3.2-2.1c-0.3,0.1-0.6,0.1-0.8,0c0.7-0.5,1.4-1,2.2-1.7c-0.3-0.1-0.6-0.1-0.9-0.2c0.7-0.3,1.5-0.8,2.2-1.4
			C47.6,44.7,47.2,44.7,46.9,44.4z"/>
		
			<linearGradient id="SVGID_24_" gradientUnits="userSpaceOnUse" x1="-693.1784" y1="-62.0846" x2="-698.9879" y2="-41.933" gradientTransform="matrix(0.5863 -0.1951 0.2029 0.6096 462.6907 -82.3341)">
			<stop  offset="0" style="stop-color:#F2EA8F"/>
			<stop  offset="1" style="stop-color:#6DAA59"/>
		</linearGradient>
		<path class="st26" d="M44.7,22.2c0.1-0.9,0.1-2,0.1-3.1c-0.1,0.4-0.2,0.8-0.4,1.1c0-1.5-0.2-3.1-0.4-4.8c-0.2,0.9-0.3,1.9-0.3,3
			c0,0.5,0,1,0.1,1.5c-0.2-0.5-0.4-1-0.6-1.4c-0.5-0.8-1-1.6-1.5-2.1c0.5,1.5,1.1,2.9,1.7,4.2c-0.3-0.1-0.5-0.3-0.8-0.5
			c0.5,0.9,0.9,1.8,1.4,2.4c-0.3,0.1-0.6-0.2-1-0.5c0.4,1,0.9,1.9,1.4,2.7c-0.3-0.1-0.5-0.3-0.8-0.4c0.4,1.1,0.8,2.1,1.3,2.9
			c-0.2-0.1-0.4-0.3-0.7-0.6c0.5,1.6,1.3,3.1,2,3.9c0,0.1,0,0.1,0.1,0.2c0,0,0-0.1,0-0.1c0,0,0,0,0,0c0,0,0,0,0-0.1
			c0.2-1.2,0.2-3.2-0.1-4.8c-0.1,0.4-0.2,0.8-0.3,1c0-1.1-0.1-2.2-0.3-3.4c-0.1,0.3-0.3,0.7-0.4,1c0.1-1,0.1-2.1-0.1-3.3
			C45.1,21.5,44.9,22.1,44.7,22.2z"/>
		
			<linearGradient id="SVGID_25_" gradientUnits="userSpaceOnUse" x1="1606.6656" y1="286.5952" x2="1602.3983" y2="301.3972" gradientTransform="matrix(1.779372e-02 0.7305 -0.9997 2.435127e-02 317.7048 -1129.2035)">
			<stop  offset="0" style="stop-color:#C3E6A3"/>
			<stop  offset="1" style="stop-color:#9CC291"/>
		</linearGradient>
		<path class="st27" d="M51.5,50.9c1,0.5,2.1,0.9,3.3,1.2c-0.4-0.3-0.7-0.7-1-1c1.7,0.4,3.5,0.8,5.4,0.9c-0.9-0.6-1.9-1-3.1-1.4
			c-0.5-0.2-1.1-0.3-1.7-0.3c0.6-0.1,1.2-0.2,1.7-0.4c1.1-0.5,2.2-1,3-1.6c-1.9,0.3-3.7,0.7-5.3,1.3c0.2-0.4,0.5-0.7,0.9-1.1
			c-1.2,0.4-2.3,0.9-3.3,1.4c0-0.5,0.5-0.9,1-1.3c-1.3,0.3-2.5,0.8-3.6,1.3c0.3-0.4,0.5-0.7,0.8-1.1c-1.3,0.2-2.6,0.6-3.8,1
			c0.2-0.3,0.5-0.6,0.9-0.8c-1.9,0.3-4,1-5.2,1.8c-0.1,0-0.2,0-0.3,0c0,0,0.1,0.1,0.1,0.1c0,0,0,0,0,0c0,0,0,0,0.1,0
			c1.2,0.7,3.3,1.3,5.3,1.4c-0.4-0.2-0.7-0.5-1-0.8c1.2,0.3,2.5,0.6,3.8,0.7c-0.3-0.3-0.6-0.7-0.9-1c1.1,0.4,2.3,0.8,3.6,1
			C52,51.8,51.5,51.4,51.5,50.9z"/>
		
			<linearGradient id="SVGID_26_" gradientUnits="userSpaceOnUse" x1="1878.3453" y1="-63.3665" x2="1873.5062" y2="-46.5809" gradientTransform="matrix(-0.3659 0.745 -0.8976 -0.4409 693.1461 -1387.7653)">
			<stop  offset="0" style="stop-color:#F2EA8F"/>
			<stop  offset="1" style="stop-color:#6DAA59"/>
		</linearGradient>
		<path class="st28" d="M54.9,34.3c0.7,1.1,1.5,2.2,2.5,3.3C57.2,37,57,36.5,57,35.9c1.3,1.5,2.8,3,4.4,4.4
			c-0.5-1.1-1.3-2.3-2.2-3.4c-0.4-0.5-0.8-0.9-1.3-1.4c0.6,0.3,1.2,0.6,1.7,0.7c1.2,0.2,2.3,0.4,3.3,0.3c-1.8-0.9-3.5-1.6-5.2-2.1
			c0.3-0.2,0.7-0.4,1.2-0.5c-1.2-0.4-2.4-0.6-3.4-0.7c0.2-0.5,0.8-0.6,1.4-0.7c-1.3-0.5-2.5-0.8-3.6-1c0.4-0.2,0.8-0.4,1.1-0.5
			c-1.3-0.6-2.5-1.1-3.7-1.4c0.3-0.2,0.7-0.3,1.1-0.3c-1.8-1-3.9-1.6-5.3-1.5c-0.1-0.1-0.2-0.1-0.2-0.2c0,0.1,0.1,0.1,0.1,0.2
			c0,0,0,0,0,0c0,0,0,0,0.1,0c0.8,1.5,2.5,3.5,4.1,4.8c-0.3-0.5-0.5-1-0.6-1.4c0.9,1.1,1.9,2.2,3.1,3.2c-0.1-0.5-0.3-1-0.4-1.6
			c0.8,1.1,1.7,2.3,2.8,3.4C55.1,35.5,54.8,34.8,54.9,34.3z"/>
		
			<linearGradient id="SVGID_27_" gradientUnits="userSpaceOnUse" x1="1455.2135" y1="373.2857" x2="1450.9575" y2="388.0486" gradientTransform="matrix(4.133505e-02 0.829 -0.914 4.557610e-02 346.0385 -1204.7441)">
			<stop  offset="0" style="stop-color:#C3E6A3"/>
			<stop  offset="1" style="stop-color:#9CC291"/>
		</linearGradient>
		<path class="st29" d="M57.4,18.2c0.9,0.5,1.9,0.9,3.1,1.3c-0.4-0.3-0.7-0.7-0.9-1.1c1.5,0.5,3.2,0.8,4.9,0.9
			c-0.8-0.6-1.8-1.1-2.9-1.5c-0.5-0.2-1-0.3-1.5-0.3c0.6-0.1,1.1-0.3,1.6-0.5c1-0.6,2-1.2,2.7-1.9c-1.7,0.4-3.3,0.9-4.8,1.6
			c0.2-0.4,0.5-0.8,0.8-1.2c-1.1,0.5-2.1,1-3,1.7c0-0.5,0.5-1,0.9-1.5c-1.2,0.4-2.3,0.9-3.2,1.6c0.2-0.4,0.5-0.8,0.7-1.2
			c-1.2,0.3-2.4,0.7-3.4,1.2c0.2-0.3,0.5-0.7,0.8-1c-1.7,0.3-3.6,1.2-4.7,2.2c-0.1,0-0.2,0-0.2,0c0,0,0.1,0.1,0.1,0.1c0,0,0,0,0,0
			c0,0,0,0,0.1,0c1.1,0.8,3.1,1.4,4.9,1.5c-0.4-0.2-0.7-0.5-0.9-0.9c1.1,0.4,2.3,0.6,3.5,0.7c-0.3-0.4-0.6-0.7-0.8-1.1
			c1,0.5,2.1,0.9,3.3,1.1C57.9,19.1,57.5,18.7,57.4,18.2z"/>
		
			<linearGradient id="SVGID_28_" gradientUnits="userSpaceOnUse" x1="-481.2382" y1="-615.8228" x2="-486.7025" y2="-596.8683" gradientTransform="matrix(0.5345 -0.4855 0.6724 0.7402 701.5434 253.9658)">
			<stop  offset="0" style="stop-color:#F2EA8F"/>
			<stop  offset="1" style="stop-color:#6DAA59"/>
		</linearGradient>
		<path class="st30" d="M36.1,40.5c-0.4-1.3-0.9-2.8-1.5-4.2c0.1,0.6,0.1,1.2,0.1,1.7c-0.8-2-1.9-4.1-3-6.2c0.3,1.2,0.7,2.7,1.2,4.1
			c0.2,0.6,0.6,1.3,0.9,1.9c-0.5-0.6-0.9-1.1-1.4-1.5c-1-0.9-2-1.6-2.9-2.1c1.4,1.8,2.8,3.3,4.2,4.7c-0.3,0-0.7-0.1-1.2-0.3
			c1,1,2,1.9,2.9,2.5c-0.3,0.3-0.8,0.1-1.4-0.2c1,1.2,2.1,2.1,3,2.9c-0.4-0.1-0.7-0.1-1.1-0.2c1,1.2,2,2.3,3,3.3
			c-0.3,0-0.7-0.2-1.1-0.4c1.4,1.8,3.1,3.5,4.4,4.2c0.1,0.1,0.1,0.2,0.2,0.3c0-0.1,0-0.1,0-0.2c0,0,0,0,0,0c0,0,0,0,0-0.1
			C42,49,41,46.4,39.8,44.3c0.1,0.6,0.2,1.1,0.2,1.5c-0.6-1.4-1.3-2.9-2.1-4.4c0,0.5,0,1,0,1.6c-0.5-1.4-1.1-2.9-1.8-4.4
			C36.2,39.3,36.4,40.1,36.1,40.5z"/>
		
			<linearGradient id="SVGID_29_" gradientUnits="userSpaceOnUse" x1="415.5128" y1="-1416.5717" x2="411.3017" y2="-1401.9644" gradientTransform="matrix(-0.1959 -0.786 0.9703 -0.2418 1484.7848 15.4396)">
			<stop  offset="0" style="stop-color:#C3E6A3"/>
			<stop  offset="1" style="stop-color:#9CC291"/>
		</linearGradient>
		<path class="st31" d="M37,30.1c-1-0.2-2.2-0.3-3.5-0.3c0.5,0.2,0.8,0.5,1.1,0.8c-1.7,0-3.5,0.2-5.4,0.6c0.9,0.4,2.1,0.5,3.3,0.6
			c0.5,0,1.1,0,1.7-0.2c-0.6,0.3-1.2,0.6-1.6,1c-1,0.9-1.9,1.8-2.6,2.7c1.8-0.9,3.5-1.9,5-3c-0.1,0.5-0.4,0.9-0.7,1.4
			c1.1-0.8,2.1-1.6,2.9-2.5c0.1,0.5-0.3,1.1-0.7,1.7c1.2-0.7,2.3-1.6,3.2-2.5c-0.2,0.5-0.4,0.9-0.6,1.4c1.3-0.6,2.4-1.4,3.5-2.2
			c-0.2,0.4-0.4,0.8-0.8,1.2c1.8-0.8,3.7-2.2,4.7-3.5c0.1,0,0.2-0.1,0.3-0.1c0,0-0.1,0-0.1,0c0,0,0,0,0,0c0,0,0,0-0.1,0
			c-1.3-0.4-3.5-0.4-5.4,0c0.4,0.1,0.8,0.3,1.1,0.6c-1.2,0-2.5,0.1-3.8,0.3c0.3,0.3,0.7,0.5,1,0.8c-1.1-0.2-2.4-0.2-3.7,0
			C36.3,29.4,36.8,29.7,37,30.1z"/>
		
			<linearGradient id="SVGID_30_" gradientUnits="userSpaceOnUse" x1="-264.6701" y1="-868.0703" x2="-269.7904" y2="-850.3093" gradientTransform="matrix(0.4887 -0.646 0.6525 0.4937 733.3413 262.7807)">
			<stop  offset="0" style="stop-color:#F2EA8F"/>
			<stop  offset="1" style="stop-color:#6DAA59"/>
		</linearGradient>
		<path class="st32" d="M43.1,11.2c-0.4-1.1-0.9-2.3-1.5-3.4c0.1,0.6,0.1,1.1,0.1,1.6c-0.8-1.6-1.8-3.1-3-4.6
			C39,5.9,39.4,7.1,40,8.2c0.2,0.5,0.5,1,0.9,1.4C40.4,9.3,40,9,39.5,8.8c-1-0.4-1.9-0.6-2.7-0.7c1.3,1.1,2.7,2,4,2.6
			c-0.3,0.2-0.7,0.3-1.1,0.3c1,0.5,1.9,0.9,2.8,1.1c-0.3,0.4-0.8,0.4-1.3,0.5c1,0.6,2,1.1,2.9,1.4c-0.3,0.1-0.7,0.2-1,0.3
			c1,0.7,1.9,1.3,2.9,1.8c-0.3,0.1-0.6,0.1-1,0.1c1.3,1.1,3,2,4.2,2.1c0.1,0.1,0.1,0.1,0.2,0.2c0-0.1,0-0.1,0-0.2c0,0,0,0,0,0
			c0,0,0,0,0,0c-0.4-1.5-1.5-3.5-2.6-5c0.2,0.5,0.2,1,0.2,1.4c-0.6-1.1-1.3-2.2-2.1-3.3c0,0.5,0,1,0.1,1.5c-0.5-1.1-1.1-2.3-1.8-3.5
			C43.2,10.1,43.3,10.8,43.1,11.2z"/>
		<g>
			<g>
				<path class="st13" d="M48.5,18.5c-2.1,7.6-3.8,15.4-5.1,23.1c-0.7,3.9-1.2,7.8-2.2,11.6c-2.5,9.7-5.3,19.4-8,29.1
					c-0.9,3.4-2.1,6.8-2.7,10.3c0,0.3,0.3,0.4,0.4,0.1c1.4-7.8,4.2-15.5,6.3-23.1c2.3-8.1,4.9-16.2,6.1-24.6
					c1.3-8.9,3.3-17.7,5.6-26.4C49,18.4,48.6,18.3,48.5,18.5L48.5,18.5z"/>
			</g>
		</g>
		
			<linearGradient id="SVGID_31_" gradientUnits="userSpaceOnUse" x1="1355.5107" y1="-2032.7472" x2="1350.4788" y2="-2015.2925" gradientTransform="matrix(-0.5313 -0.3591 0.3307 -0.4892 1427.3617 -447.553)">
			<stop  offset="0" style="stop-color:#F2EA8F"/>
			<stop  offset="1" style="stop-color:#6DAA59"/>
		</linearGradient>
		<path class="st33" d="M39,55.9c-0.6,0.4-1.2,0.9-1.8,1.6c0.3-0.1,0.6-0.2,0.9-0.1c-0.8,0.9-1.6,1.9-2.3,3.1
			c0.6-0.3,1.2-0.7,1.8-1.3c0.3-0.2,0.5-0.6,0.7-0.9c-0.2,0.5-0.3,0.9-0.4,1.4c-0.1,1-0.2,1.9-0.2,2.8c0.5-1.4,0.9-2.8,1.2-4.1
			c0.1,0.3,0.2,0.7,0.2,1.1c0.2-1,0.4-2,0.4-2.9c0.2,0.3,0.3,0.8,0.3,1.3c0.3-1,0.5-2,0.6-3c0.1,0.4,0.2,0.7,0.3,1.1
			c0.3-1,0.6-2,0.8-3c0.1,0.3,0.1,0.6,0.1,1c0.5-1.4,0.9-3.1,0.9-4.3c0-0.1,0.1-0.1,0.1-0.2c0,0-0.1,0-0.1,0c0,0,0,0,0,0
			c0,0,0,0,0,0c-0.8,0.4-1.8,1.5-2.6,2.7c0.3-0.2,0.5-0.2,0.7-0.2c-0.6,0.6-1.2,1.3-1.7,2.1c0.3,0,0.5-0.1,0.8-0.1
			c-0.6,0.5-1.2,1.1-1.8,1.9C38.4,55.8,38.7,55.7,39,55.9z"/>
		
			<linearGradient id="SVGID_32_" gradientUnits="userSpaceOnUse" x1="1913.6133" y1="-1374.9059" x2="1907.8263" y2="-1354.8324" gradientTransform="matrix(-0.7467 2.185374e-02 -1.727412e-02 -0.5902 1449.266 -810.7005)">
			<stop  offset="0" style="stop-color:#F2EA8F"/>
			<stop  offset="1" style="stop-color:#6DAA59"/>
		</linearGradient>
		<path class="st34" d="M45.6,36.1c-0.4,0.8-0.7,1.7-0.9,2.7c0.2-0.3,0.5-0.6,0.8-0.8c-0.3,1.4-0.6,2.8-0.7,4.4
			c0.4-0.7,0.8-1.6,1.1-2.5c0.1-0.4,0.2-0.9,0.2-1.4c0.1,0.5,0.2,1,0.3,1.4c0.3,0.9,0.7,1.8,1.2,2.4c-0.2-1.5-0.5-3-0.9-4.3
			c0.3,0.2,0.5,0.4,0.8,0.7c-0.3-1-0.6-1.9-1-2.6c0.3,0,0.7,0.4,1,0.8c-0.2-1.1-0.6-2-0.9-2.9c0.3,0.2,0.5,0.4,0.8,0.7
			c-0.2-1.1-0.4-2.1-0.7-3c0.2,0.2,0.4,0.4,0.6,0.7c-0.2-1.6-0.7-3.2-1.3-4.2c0-0.1,0-0.1,0-0.2c0,0,0,0.1-0.1,0.1c0,0,0,0,0,0
			c0,0,0,0,0,0.1c-0.6,1-1,2.7-1.1,4.3c0.2-0.3,0.4-0.6,0.6-0.8c-0.3,1-0.5,2-0.6,3.1c0.2-0.2,0.5-0.5,0.7-0.7
			c-0.3,0.9-0.6,1.9-0.8,3C44.9,36.6,45.2,36.1,45.6,36.1z"/>
		
			<linearGradient id="SVGID_33_" gradientUnits="userSpaceOnUse" x1="1981.5695" y1="-488.2105" x2="1976.026" y2="-468.9813" gradientTransform="matrix(-0.6779 0.4854 -0.4354 -0.608 1180.2244 -1192.5634)">
			<stop  offset="0" style="stop-color:#C3E6A3"/>
			<stop  offset="1" style="stop-color:#9CC291"/>
		</linearGradient>
		<path class="st35" d="M46.2,58.8c0.1,1.1,0.3,2.4,0.6,3.6c0-0.6,0.1-1.1,0.3-1.5c0.4,1.7,0.9,3.5,1.6,5.2c0-1.1-0.1-2.3-0.3-3.6
			c-0.1-0.5-0.3-1.1-0.5-1.6c0.3,0.5,0.7,0.9,1,1.2c0.8,0.7,1.6,1.2,2.4,1.5c-1-1.4-2-2.7-3.1-3.7c0.3-0.1,0.7,0,1.1,0.1
			c-0.8-0.8-1.6-1.4-2.3-1.9c0.3-0.3,0.8-0.1,1.3,0c-0.8-0.9-1.6-1.7-2.4-2.2c0.4,0,0.7,0,1.1,0c-0.7-1-1.5-1.9-2.2-2.6
			c0.3,0,0.6,0.1,1,0.3c-1-1.5-2.3-2.8-3.4-3.3c0-0.1-0.1-0.1-0.1-0.2c0,0.1,0,0.1,0,0.2c0,0,0,0,0,0c0,0,0,0,0,0.1
			c0,1.5,0.5,3.7,1.2,5.4c0-0.5,0-1,0.1-1.3c0.2,1.2,0.6,2.5,1.1,3.7c0.1-0.5,0.2-0.9,0.3-1.4c0.1,1.2,0.4,2.5,0.8,3.8
			C45.9,59.9,45.9,59.2,46.2,58.8z"/>
		
			<linearGradient id="SVGID_34_" gradientUnits="userSpaceOnUse" x1="-14.2239" y1="-2090.6729" x2="-18.4756" y2="-2075.9246" gradientTransform="matrix(-4.096131e-02 -0.5939 0.5083 -3.506132e-02 1095.2969 -32.5812)">
			<stop  offset="0" style="stop-color:#F2EA8F"/>
			<stop  offset="1" style="stop-color:#6DAA59"/>
		</linearGradient>
		<path class="st36" d="M37.4,49.5c-0.5-0.4-1.1-0.7-1.7-0.9c0.2,0.2,0.4,0.5,0.5,0.8c-0.9-0.3-1.8-0.5-2.8-0.6
			c0.5,0.4,1,0.8,1.6,1.1c0.3,0.1,0.5,0.2,0.9,0.2c-0.3,0.1-0.6,0.2-0.9,0.4c-0.6,0.4-1.1,0.9-1.5,1.4c0.9-0.3,1.8-0.7,2.7-1.2
			c-0.1,0.3-0.2,0.6-0.4,0.9c0.6-0.3,1.2-0.8,1.6-1.2c0,0.4-0.2,0.8-0.5,1.1c0.7-0.3,1.3-0.7,1.8-1.1c-0.1,0.3-0.3,0.6-0.4,0.9
			c0.7-0.2,1.3-0.5,1.9-0.9c-0.1,0.3-0.3,0.5-0.4,0.7c1-0.3,2-0.9,2.6-1.6c0,0,0.1,0,0.1,0c0,0,0,0-0.1-0.1c0,0,0,0,0,0c0,0,0,0,0,0
			c-0.7-0.6-1.7-1-2.7-1c0.2,0.2,0.4,0.4,0.5,0.6c-0.6-0.3-1.3-0.4-2-0.5c0.2,0.3,0.3,0.5,0.5,0.8c-0.6-0.3-1.2-0.6-1.9-0.8
			C37,48.8,37.3,49.1,37.4,49.5z"/>
		
			<linearGradient id="SVGID_35_" gradientUnits="userSpaceOnUse" x1="-163.8008" y1="474.9189" x2="-169.2915" y2="493.9648" gradientTransform="matrix(0.5954 0.165 -0.2028 0.7316 248.4175 -319.2842)">
			<stop  offset="0" style="stop-color:#F2EA8F"/>
			<stop  offset="1" style="stop-color:#6DAA59"/>
		</linearGradient>
		<path class="st37" d="M51.3,8.4c0.5-0.9,1-1.9,1.4-3c-0.3,0.3-0.5,0.6-0.8,0.7c0.6-1.5,1.2-3.3,1.7-5.1c-0.5,0.7-1,1.7-1.5,2.7
			c-0.2,0.4-0.4,1-0.6,1.6c0.1-0.7,0.1-1.3,0.1-1.8c0-1.3-0.1-2.4-0.3-3.4C51.2,1.9,51,3.8,51,5.6c-0.2-0.3-0.3-0.7-0.4-1.2
			c0,1.3,0,2.5,0.1,3.6c-0.3-0.1-0.4-0.7-0.6-1.3c-0.1,1.4-0.1,2.7,0,3.9c-0.1-0.4-0.3-0.7-0.4-1.1c-0.2,1.4-0.2,2.7-0.2,4
			c-0.1-0.3-0.2-0.7-0.3-1.1c-0.3,2-0.3,4.2-0.1,5.6c0,0.1,0,0.2-0.1,0.3c0,0,0-0.1,0.1-0.1c0,0,0,0,0,0c0,0,0,0,0-0.1
			c0.7-1.1,1.5-3,2-4.9c-0.2,0.4-0.5,0.6-0.7,0.8c0.5-1.1,0.9-2.3,1.3-3.6c-0.3,0.2-0.5,0.4-0.8,0.6c0.5-1,1-2.1,1.4-3.4
			C52,8,51.6,8.4,51.3,8.4z"/>
	</g>
	<linearGradient id="SVGID_36_" gradientUnits="userSpaceOnUse" x1="30.2484" y1="78.851" x2="61.8237" y2="78.851">
		<stop  offset="0" style="stop-color:#00775C"/>
		<stop  offset="1" style="stop-color:#9DE3AF"/>
	</linearGradient>
	<path class="st38" d="M61.8,64.5c-0.5-0.7-3.4-0.3-4.1-0.3c-1.2,0.1-2.4,0.4-3.6,0.8c-6.5,2.1-11.4,7.2-15.5,12.4
		c-3.3,4.2-6.9,10.5-8.3,16.1h1c0.2-0.9,0.5-1.8,0.6-2.1c0.7-1.6,1.6-3.2,2.6-4.7c2-3,4.3-5.9,6.9-8.4c4.4-4.5,9.9-8.4,15.5-11.4
		c1.2-0.6,2.4-1.2,3.7-1.7C60.9,65.2,62.1,65.1,61.8,64.5z"/>
</g>
</svg>
