<?xml version="1.0" encoding="utf-8"?>
<!-- Generator: Adobe Illustrator 22.0.1, SVG Export Plug-In . SVG Version: 6.00 Build 0)  -->
<svg version="1.1" id="圖層_1" xmlns="http://www.w3.org/2000/svg" xmlns:xlink="http://www.w3.org/1999/xlink" x="0px" y="0px"
	 viewBox="0 0 60 80" style="enable-background:new 0 0 60 80;" xml:space="preserve">
<style type="text/css">
	.st0{opacity:0.5;}
	.st1{fill:#FFFFFF;}
	.st2{fill:url(#SVGID_1_);}
	.st3{fill:url(#SVGID_2_);}
	.st4{fill:url(#SVGID_3_);}
	.st5{fill:url(#SVGID_4_);}
	.st6{fill:url(#SVGID_5_);}
	.st7{fill:url(#SVGID_6_);}
	.st8{fill:url(#SVGID_7_);}
	.st9{fill:url(#SVGID_8_);}
</style>
<g>
	<g id="XMLID_1_" class="st0">
		<path id="XMLID_3_" class="st1" d="M29.2,78.5c14.6,0.2,26.6-2,26.7-4.9c0-1-1.8-1.9-4.3-2.8c5.1,1,8.4,2.4,8.4,3.9
			c-0.1,3-12,5.1-26.7,4.9c-9.5-0.1-17.4-1.2-22-2.8C15.8,77.8,22.1,78.4,29.2,78.5z"/>
		<path id="XMLID_2_" class="st1" d="M30.8,66.3c-14.6-0.2-26.6,2-26.7,4.9c0,1,1.8,1.9,4.3,2.8C3.3,73,0,71.5,0,70.1
			c0.1-3,12-5.1,26.7-4.9c9.5,0.1,17.4,1.2,22,2.8C44.1,67.1,37.9,66.3,30.8,66.3z"/>
	</g>
	<g>
		
			<linearGradient id="SVGID_1_" gradientUnits="userSpaceOnUse" x1="-510.915" y1="532.421" x2="-497.0214" y2="532.421" gradientTransform="matrix(1 0 0 1 537 -489.4946)">
			<stop  offset="0" style="stop-color:#0C4B56"/>
			<stop  offset="0.338" style="stop-color:#317C5B"/>
			<stop  offset="0.5963" style="stop-color:#499B5E"/>
			<stop  offset="0.8456" style="stop-color:#5BB360"/>
			<stop  offset="1" style="stop-color:#62BC61"/>
		</linearGradient>
		<path class="st2" d="M38.9,11.5c0,0,0.3,5.5-1,9.9c-1.2,4.3-5.9,13.8-7.2,18.7c-1.3,4.9-4.7,20.8-4.5,23.4c0.1,2.6,0,10.8,0,10.8
			h1.2c0,0-0.6-9.4-0.4-11.8c0.2-3,1.9-11.1,3.3-16.6c1.1-4.6,2.6-9,4.3-13.4c1.4-3.6,3.8-7.3,4.4-11.2c0.2-1.6,1.2-7.6,1.1-8.6
			C39.8,11.5,38.9,11.5,38.9,11.5z"/>
		
			<linearGradient id="SVGID_2_" gradientUnits="userSpaceOnUse" x1="-513.1949" y1="539.7679" x2="-505.8072" y2="539.7679" gradientTransform="matrix(1 0 0 1 537 -489.4946)">
			<stop  offset="0" style="stop-color:#0C4B56"/>
			<stop  offset="0.338" style="stop-color:#317C5B"/>
			<stop  offset="0.5963" style="stop-color:#499B5E"/>
			<stop  offset="0.8456" style="stop-color:#5BB360"/>
			<stop  offset="1" style="stop-color:#62BC61"/>
		</linearGradient>
		<path class="st3" d="M30.7,27.1c0,0-3.5,8.7-3.6,11.5c-0.1,3,0,9.6-1,12.8c-1,3.3-2.2,8.7-2.2,11.1c0,2.4,1.2,11,1.2,11h1
			c0,0-1.5-9.5-1.3-11.3c0.2-1.8,1.9-9.6,2.2-10.9c0.3-1.2,0.9-4.8,0.9-6.4c0-1.6,0.2-5.2,0.4-7.2c0.2-2,2.8-9.7,2.8-9.7L30.7,27.1z
			"/>
		
			<linearGradient id="SVGID_3_" gradientUnits="userSpaceOnUse" x1="-512.7989" y1="549.619" x2="-513.6313" y2="535.6066" gradientTransform="matrix(1 0 0 1 537 -489.4946)">
			<stop  offset="0" style="stop-color:#0C4B56"/>
			<stop  offset="0.338" style="stop-color:#317C5B"/>
			<stop  offset="0.5963" style="stop-color:#499B5E"/>
			<stop  offset="0.8456" style="stop-color:#5BB360"/>
			<stop  offset="1" style="stop-color:#62BC61"/>
		</linearGradient>
		<polygon class="st4" points="22.2,45.2 24.4,57.9 25.1,57.3 23.3,45.6 		"/>
		
			<linearGradient id="SVGID_4_" gradientUnits="userSpaceOnUse" x1="-510.4254" y1="548.5435" x2="-489.7514" y2="548.5435" gradientTransform="matrix(1 0 0 1 537 -489.4946)">
			<stop  offset="0" style="stop-color:#0C4B56"/>
			<stop  offset="0.338" style="stop-color:#317C5B"/>
			<stop  offset="0.5963" style="stop-color:#499B5E"/>
			<stop  offset="0.8456" style="stop-color:#5BB360"/>
			<stop  offset="1" style="stop-color:#62BC61"/>
		</linearGradient>
		<path class="st5" d="M26.5,71.1c0,0,5.8-5.4,8.8-9.2c3-3.8,11.2-16.7,11.2-16.7l0.6,0.5c0,0-4.6,8.1-7.2,12.1
			C37.2,62,33,67,30.6,69.2c-2.3,2.1-4.1,3.7-4.1,3.7V71.1z"/>
		
			<linearGradient id="SVGID_5_" gradientUnits="userSpaceOnUse" x1="-513.6808" y1="504.9471" x2="-482.9666" y2="504.9471" gradientTransform="matrix(1 0 0 1 537 -489.4946)">
			<stop  offset="0" style="stop-color:#2CB081"/>
			<stop  offset="1" style="stop-color:#D2FFAD"/>
		</linearGradient>
		<path class="st6" d="M39.3,12.7c0,0,0.1-2.2-3.4-4.7c-3.5-2.4-12.6-7.6-12.6-7.6S32-0.2,35.9,2.9c3.8,3,6.1,6.4,6.1,6.4
			s4.9-0.2,7.9,4.7c3,4.9,4.2,11.1,4.2,11.1s-3.4-5.6-5.6-7.9c-2.2-2.2-4.7-3.2-4.7-3.2s5.4,6.1,6.7,10.5s1.6,5.9,1.6,5.9
			s-6-9-7.9-11.5S39.3,12.7,39.3,12.7z"/>
		
			<linearGradient id="SVGID_6_" gradientUnits="userSpaceOnUse" x1="-509.7938" y1="512.5741" x2="-495.0999" y2="512.5741" gradientTransform="matrix(1 0 0 1 537 -489.4946)">
			<stop  offset="0" style="stop-color:#00775C"/>
			<stop  offset="1" style="stop-color:#9DE3AF"/>
		</linearGradient>
		<path class="st7" d="M30,28.7L29,23c0,0-1.8-5.1-1.8-7.7s0.3-6.6,0.3-6.6s3.3,4.9,3.7,6.6c0.4,1.7,1,5,1,5s0.9,0,3.2,2.4
			s4,4.2,5,7c1,2.9,1.5,6.5,1.5,6.5s-3.2-4.6-5-6.8c-1.8-2.2-3.3-3.4-3.3-3.4s1,3.9,1.4,5.9s0.3,5.4,0.3,5.4s-2.7-3.8-3.2-5.3
			C31.6,30.5,30,28.7,30,28.7z"/>
		
			<linearGradient id="SVGID_7_" gradientUnits="userSpaceOnUse" x1="-518.7513" y1="525.4822" x2="-511.5579" y2="525.4822" gradientTransform="matrix(1 0 0 1 537 -489.4946)">
			<stop  offset="0" style="stop-color:#2CB081"/>
			<stop  offset="1" style="stop-color:#D2FFAD"/>
		</linearGradient>
		<path class="st8" d="M21.8,44.5c0,0-0.5,1.8,0,3c0.5,1,1.1,2,1.3,3c0.2,0.8,0,1.8,0,1.8s1.8-4.3,1.9-6.1c0.1-1.8-0.1-4.7,0-7
			c0.1-2.4,0.8-4.7,0-6.8c-0.7-2-3.5-4-3.6-6.6c0-2.7,0-5.9,0-5.9s-2.2,2.3-2.3,4.6s1,4.8,0.7,6.1c-0.2,1.4-1.1,1.8-0.8,3.4
			c0.3,1.5,1.2,1.6,1,3.8c-0.3,2.1-2,5.5-1.8,7.7c0.1,2.1,2.3,5.7,2.3,5.7S19.2,46.1,21.8,44.5z"/>
		
			<linearGradient id="SVGID_8_" gradientUnits="userSpaceOnUse" x1="-501.8861" y1="530.5843" x2="-478.1634" y2="530.5843" gradientTransform="matrix(1 0 0 1 537 -489.4946)">
			<stop  offset="0" style="stop-color:#00775C"/>
			<stop  offset="1" style="stop-color:#9DE3AF"/>
		</linearGradient>
		<path class="st9" d="M58.9,24.4c0,0-3,3.1-5.6,4.8c-2.8,1.7-6.6,4-9.8,9.1c-3.2,5.1-7.1,9.2-7.4,12c-0.3,2.8-0.8,6.3-0.8,6.3
			s1.4-3.7,4.9-7s6.6-6.7,6.6-6.7s-1.4,6.3-1.8,8.6c-0.4,2.2-0.1,6.3-0.1,6.3s4.8-6.3,5.3-9.1c0.5-2.8,0.4-3.3,1.5-5.8
			c1.1-2.6,3.8-8,5.3-10.3C58.4,30.4,58.9,24.4,58.9,24.4z"/>
	</g>
</g>
</svg>
