<svg width="46" height="44" viewBox="0 0 46 44" fill="none" xmlns="http://www.w3.org/2000/svg">
<path d="M9.25911 9.85613C9.1468 9.23417 9.03961 8.65816 8.93751 8.0805C8.77076 7.1369 9.07364 6.72007 10.0418 6.55924C12.344 6.17688 14.6462 5.79451 16.996 5.40394C17.0028 5.26117 17.0147 5.11511 17.0147 4.9707C17.0164 4.08125 17.0096 3.19344 17.0181 2.30398C17.0266 1.54581 17.4384 1.14211 18.2228 1.11257C18.6057 1.09945 18.9885 1.10929 19.3714 1.10929C25.6807 1.10929 31.99 1.11422 38.2993 1.10109C38.8489 1.09945 39.2658 1.25699 39.6623 1.62623C41.2685 3.13108 42.8935 4.61951 44.5236 6.09975C44.8588 6.40334 45.0017 6.7332 45 7.18121C44.9898 15.933 44.9932 24.6847 44.9932 33.4365C44.9932 34.426 44.6086 34.7969 43.5843 34.7969C42.1516 34.7969 40.7206 34.8183 39.2879 34.792C37.195 34.7543 35.1872 35.1169 33.2202 35.8062C26.7424 38.0741 20.2528 40.3125 13.7665 42.5608C12.8255 42.8873 12.3423 42.6642 12.0003 41.7452C10.4162 37.4932 8.83032 33.2412 7.24618 28.9892C7.00797 28.3509 7.08284 28.0308 7.50822 27.8717C7.91659 27.719 8.21436 27.934 8.44747 28.5609C9.99077 32.6964 11.5341 36.8318 13.0774 40.9689C13.1284 41.1068 13.1812 41.2446 13.2492 41.4284C17.9234 39.8071 22.5652 38.1988 27.207 36.589C27.2019 36.5676 27.1968 36.5479 27.19 36.5266C25.9682 36.7268 24.7465 36.9254 23.5248 37.1272C20.8449 37.5703 18.1667 38.0167 15.485 38.4581C14.818 38.5681 14.3059 38.207 14.1817 37.5276C13.7257 35.0119 13.2798 32.4945 12.8323 29.9771C12.0224 25.4265 11.2159 20.8775 10.4076 16.3268C10.1116 14.6579 9.81211 12.9889 9.51434 11.32C9.50413 11.2674 9.48711 11.2166 9.45478 11.1001C7.22576 11.8369 5.01036 12.5704 2.76262 13.3138C3.25267 14.6283 3.72399 15.8969 4.19702 17.1654C5.22305 19.9142 6.24908 22.6629 7.27511 25.4101C7.28021 25.4232 7.28532 25.4363 7.29042 25.4478C7.45888 25.9188 7.33126 26.2766 6.94841 26.4029C6.58258 26.5244 6.26269 26.334 6.09084 25.8794C5.71309 24.8784 5.34216 23.8757 4.96782 22.8746C3.84991 19.8715 2.72689 16.8667 1.60727 13.8603C1.25165 12.9052 1.46605 12.4605 2.44954 12.1323C4.57646 11.4233 6.70339 10.7177 8.83032 10.0087C8.96304 9.96608 9.09406 9.91521 9.25911 9.85613ZM29.6657 34.8642C29.664 34.8429 29.6623 34.8199 29.6606 34.7986C29.5057 34.7986 29.3509 34.7986 29.1944 34.7986C25.6075 34.7986 22.0207 34.7986 18.4338 34.7986C17.4112 34.7986 17.0164 34.4211 17.0164 33.4398C17.0147 29.5833 17.0164 25.7284 17.0164 21.872C17.0164 21.2598 17.2393 20.948 17.6698 20.9513C18.0969 20.9562 18.296 21.2516 18.296 21.8851C18.296 25.6037 18.296 29.324 18.296 33.0426C18.296 33.2035 18.296 33.3626 18.296 33.5448C26.7867 33.5448 35.228 33.5448 43.6881 33.5448C43.6881 24.8948 43.6881 16.2628 43.6881 7.58983C43.4958 7.58983 43.3291 7.58983 43.1606 7.58983C41.8708 7.58491 40.5794 7.60296 39.2913 7.57014C38.2959 7.54388 37.7616 6.98264 37.7531 6.02754C37.7463 5.31696 37.7497 4.60475 37.748 3.89417C37.748 3.39364 37.748 2.89312 37.748 2.38111C31.2362 2.38111 24.7806 2.38111 18.296 2.38111C18.296 2.59117 18.296 2.7684 18.296 2.94564C18.296 8.07394 18.296 13.2006 18.296 18.3289C18.296 18.4799 18.3028 18.6309 18.2858 18.7802C18.2501 19.092 18.0629 19.2791 17.7396 19.3135C17.3976 19.3496 17.156 19.202 17.0624 18.8819C17.0164 18.7277 17.0181 18.5587 17.0181 18.3962C17.0164 14.6497 17.0164 10.9031 17.0164 7.15659C17.0164 6.99905 17.0164 6.83987 17.0164 6.65607C14.7108 7.03843 12.4682 7.40931 10.1881 7.78676C11.9339 17.6036 13.6729 27.3826 15.4204 37.2224C20.1915 36.4298 24.9286 35.647 29.6657 34.8642ZM42.9156 6.33278C41.585 5.11019 40.3412 3.96966 39.0327 2.76676C39.0327 3.92863 39.0259 4.98055 39.0446 6.03247C39.0463 6.13421 39.2028 6.31801 39.2896 6.31965C40.4603 6.33934 41.6309 6.33278 42.9156 6.33278Z" fill="#2AD1C9" stroke="#2AD1C9"/>
<path d="M31.1205 20.0306C28.1871 20.0306 25.2519 20.0306 22.3184 20.0306C22.1908 20.0306 22.0615 20.0421 21.9373 20.0208C21.6021 19.965 21.3979 19.7648 21.3877 19.4366C21.3775 19.0903 21.5783 18.8737 21.9305 18.8081C22.0547 18.7851 22.184 18.7966 22.3116 18.7966C28.1939 18.7966 34.0761 18.7966 39.9566 18.7966C40.0706 18.7966 40.1846 18.79 40.2969 18.8015C40.6543 18.8409 40.9214 19.1117 40.8942 19.4317C40.8635 19.773 40.6611 19.9814 40.302 20.0241C40.1761 20.0389 40.0468 20.029 39.9192 20.029C36.9891 20.0306 34.0557 20.0306 31.1205 20.0306Z" fill="#2AD1C9" stroke="#2AD1C9"/>
<path d="M31.1545 14.433C34.0744 14.433 36.9925 14.433 39.9124 14.433C40.0536 14.433 40.1965 14.4281 40.3378 14.4429C40.6644 14.479 40.8533 14.6776 40.8908 14.9762C40.9282 15.2798 40.7768 15.5112 40.4705 15.6097C40.3275 15.6556 40.1642 15.6638 40.0111 15.6638C34.1016 15.6671 28.1922 15.6671 22.2827 15.6638C22.1159 15.6638 21.8913 15.6835 21.7944 15.5933C21.6191 15.4325 21.4353 15.2027 21.4081 14.9861C21.3741 14.6923 21.6055 14.4872 21.9288 14.4445C22.0683 14.4265 22.2112 14.433 22.3525 14.433C25.2859 14.433 28.2194 14.433 31.1545 14.433Z" fill="#2AD1C9" stroke="#2AD1C9"/>
<path d="M31.1699 24.3961C28.2364 24.3961 25.3029 24.3961 22.3695 24.3961C22.2283 24.3961 22.0853 24.4027 21.9441 24.3879C21.6191 24.3518 21.4285 24.1631 21.3928 23.8578C21.3571 23.551 21.4983 23.3196 21.8063 23.2227C21.9628 23.1735 22.1398 23.1653 22.3082 23.1653C28.1888 23.162 34.071 23.162 39.9515 23.1653C40.1336 23.1653 40.3701 23.1423 40.4841 23.2392C40.6645 23.3918 40.8533 23.6264 40.8755 23.8431C40.9061 24.1319 40.6781 24.3436 40.3514 24.3863C40.2119 24.4043 40.0689 24.3977 39.9277 24.3977C37.0079 24.3961 34.0897 24.3961 31.1699 24.3961Z" fill="#2AD1C9" stroke="#2AD1C9"/>
<path d="M31.1716 27.5498C34.0761 27.5498 36.9823 27.5498 39.8869 27.5498C40.0281 27.5498 40.171 27.5449 40.3122 27.558C40.6781 27.5941 40.884 27.8091 40.8942 28.1504C40.9027 28.4737 40.7087 28.6887 40.3735 28.756C40.251 28.7806 40.12 28.7839 39.9941 28.7839C34.0999 28.7855 28.2041 28.7855 22.3099 28.7822C22.1415 28.7822 21.9645 28.7757 21.808 28.7264C21.5 28.6296 21.3145 28.3769 21.4115 28.0946C21.483 27.8879 21.7144 27.709 21.9152 27.5761C22.0241 27.5039 22.218 27.5498 22.3729 27.5498C25.3046 27.5482 28.2381 27.5498 31.1716 27.5498Z" fill="#2AD1C9" stroke="#2AD1C9"/>
<path d="M31.1716 11.2887C28.2381 11.2887 25.3047 11.2887 22.3712 11.2887C21.6838 11.2887 21.3741 11.0918 21.3809 10.6635C21.3877 10.2384 21.694 10.053 22.3899 10.053C28.2279 10.053 34.0659 10.053 39.9039 10.053C40.5828 10.053 40.9044 10.2581 40.8976 10.6799C40.8908 11.0983 40.576 11.2871 39.8852 11.2871C36.9823 11.2887 34.0778 11.2887 31.1716 11.2887Z" fill="#2AD1C9" stroke="#2AD1C9"/>
</svg>
