<?xml version="1.0" encoding="utf-8"?>
<!-- Generator: Adobe Illustrator 25.3.1, SVG Export Plug-In . SVG Version: 6.00 Build 0)  -->
<svg version="1.1" id="圖層_1" xmlns="http://www.w3.org/2000/svg" xmlns:xlink="http://www.w3.org/1999/xlink" x="0px" y="0px"
	 viewBox="0 0 100 8" style="enable-background:new 0 0 100 8;" xml:space="preserve">
<style type="text/css">
	.st0{clip-path:url(#SVGID_2_);}
	.st1{fill:url(#SVGID_3_);}
	.st2{fill:url(#SVGID_4_);}
	.st3{fill:url(#SVGID_5_);}
	.st4{fill:url(#SVGID_6_);}
	.st5{fill:url(#SVGID_7_);}
	.st6{fill:url(#SVGID_8_);}
	.st7{fill:url(#SVGID_9_);}
	.st8{fill:url(#SVGID_10_);}
	.st9{fill:url(#SVGID_11_);}
	.st10{fill:url(#SVGID_12_);}
</style>
<g>
	<defs>
		<rect id="SVGID_1_" x="-0.9" width="101.7" height="8"/>
	</defs>
	<clipPath id="SVGID_2_">
		<use xlink:href="#SVGID_1_"  style="overflow:visible;"/>
	</clipPath>
	<g class="st0">
		
			<linearGradient id="SVGID_3_" gradientUnits="userSpaceOnUse" x1="103.94" y1="6" x2="17.6733" y2="6" gradientTransform="matrix(1 0 0 -1 0 10)">
			<stop  offset="0" style="stop-color:#3D79FF;stop-opacity:0"/>
			<stop  offset="1" style="stop-color:#15E9C4"/>
		</linearGradient>
		<path class="st1" d="M78.5,0h3.3l7.4,8H86L78.5,0z"/>
		
			<linearGradient id="SVGID_4_" gradientUnits="userSpaceOnUse" x1="103.9394" y1="6" x2="17.6733" y2="6" gradientTransform="matrix(1 0 0 -1 0 10)">
			<stop  offset="0" style="stop-color:#3D79FF;stop-opacity:0"/>
			<stop  offset="1" style="stop-color:#15E9C4"/>
		</linearGradient>
		<path class="st2" d="M90.9,0h2.5l7.4,8h-2.5L90.9,0z"/>
		
			<linearGradient id="SVGID_5_" gradientUnits="userSpaceOnUse" x1="103.94" y1="6" x2="17.6735" y2="6" gradientTransform="matrix(1 0 0 -1 0 10)">
			<stop  offset="0" style="stop-color:#3D79FF;stop-opacity:0"/>
			<stop  offset="1" style="stop-color:#15E9C4"/>
		</linearGradient>
		<path class="st3" d="M67.9,0h5.1l7.4,8h-5.1L67.9,0z"/>
		
			<linearGradient id="SVGID_6_" gradientUnits="userSpaceOnUse" x1="103.9394" y1="6" x2="17.6735" y2="6" gradientTransform="matrix(1 0 0 -1 0 10)">
			<stop  offset="0" style="stop-color:#3D79FF;stop-opacity:0"/>
			<stop  offset="1" style="stop-color:#15E9C4"/>
		</linearGradient>
		<path class="st4" d="M58.1,0h6.5L72,8h-6.5L58.1,0z"/>
		
			<linearGradient id="SVGID_7_" gradientUnits="userSpaceOnUse" x1="103.94" y1="6" x2="17.6733" y2="6" gradientTransform="matrix(1 0 0 -1 0 10)">
			<stop  offset="0" style="stop-color:#3D79FF;stop-opacity:0"/>
			<stop  offset="1" style="stop-color:#15E9C4"/>
		</linearGradient>
		<path class="st5" d="M48.3,0h6.5l7.4,8h-6.5L48.3,0z"/>
		
			<linearGradient id="SVGID_8_" gradientUnits="userSpaceOnUse" x1="103.94" y1="6" x2="17.6734" y2="6" gradientTransform="matrix(1 0 0 -1 0 10)">
			<stop  offset="0" style="stop-color:#3D79FF;stop-opacity:0"/>
			<stop  offset="1" style="stop-color:#15E9C4"/>
		</linearGradient>
		<path class="st6" d="M38.4,0h6.5l7.4,8h-6.5L38.4,0z"/>
		
			<linearGradient id="SVGID_9_" gradientUnits="userSpaceOnUse" x1="103.9394" y1="6" x2="17.6733" y2="6" gradientTransform="matrix(1 0 0 -1 0 10)">
			<stop  offset="0" style="stop-color:#3D79FF;stop-opacity:0"/>
			<stop  offset="1" style="stop-color:#15E9C4"/>
		</linearGradient>
		<path class="st7" d="M28.6,0h6.5l7.4,8H36L28.6,0z"/>
		
			<linearGradient id="SVGID_10_" gradientUnits="userSpaceOnUse" x1="103.9394" y1="6" x2="17.6735" y2="6" gradientTransform="matrix(1 0 0 -1 0 10)">
			<stop  offset="0" style="stop-color:#3D79FF;stop-opacity:0"/>
			<stop  offset="1" style="stop-color:#15E9C4"/>
		</linearGradient>
		<path class="st8" d="M18.8,0h6.5l7.4,8h-6.5L18.8,0z"/>
		
			<linearGradient id="SVGID_11_" gradientUnits="userSpaceOnUse" x1="103.9394" y1="6" x2="17.6734" y2="6" gradientTransform="matrix(1 0 0 -1 0 10)">
			<stop  offset="0" style="stop-color:#3D79FF;stop-opacity:0"/>
			<stop  offset="1" style="stop-color:#15E9C4"/>
		</linearGradient>
		<path class="st9" d="M9,0h6.5l7.4,8h-6.5L9,0z"/>
		
			<linearGradient id="SVGID_12_" gradientUnits="userSpaceOnUse" x1="103.9394" y1="6" x2="17.6734" y2="6" gradientTransform="matrix(1 0 0 -1 0 10)">
			<stop  offset="0" style="stop-color:#3D79FF;stop-opacity:0"/>
			<stop  offset="1" style="stop-color:#15E9C4"/>
		</linearGradient>
		<path class="st10" d="M-0.9,0h6.5L13,8H6.6L-0.9,0z"/>
	</g>
</g>
</svg>
