<svg width="35" height="46" viewBox="0 0 35 46" fill="none" xmlns="http://www.w3.org/2000/svg">
<g clip-path="url(#clip0_65_207)">
<path d="M14.3732 34.4114C14.3692 34.3953 14.3712 34.4033 14.3732 34.4114V34.4114Z" fill="#01A982"/>
<path d="M14.373 34.4102C14.3748 34.4194 14.3767 34.4267 14.373 34.4102V34.4102Z" fill="#01A982"/>
<path d="M16.1359 33.2331C16.0894 33.2673 16.16 33.1612 16.1359 33.2331V33.2331Z" fill="#01A982"/>
<path d="M23.6229 29.9921C23.6229 29.99 23.6249 29.9879 23.6249 29.9858L23.6127 29.9879L23.6229 29.9921Z" fill="#01A982"/>
<path d="M34.8519 37.5656C34.8413 35.2593 33.9006 33.3889 32.1126 31.9246C30.9833 30.999 29.7114 30.3017 28.3409 29.8223C26.5088 29.1809 24.6432 28.6265 22.7882 28.0513C22.5028 27.9624 22.3936 27.8491 22.4077 27.544C22.4359 26.9513 22.3971 26.3534 22.4271 25.7607C22.4359 25.5916 22.5486 25.3929 22.6755 25.2726C23.3079 24.673 23.9544 24.0873 24.6133 23.5155C24.7613 23.3883 24.9727 23.268 25.1594 23.261C26.0525 23.2261 26.951 23.2802 27.8388 23.2105C29.0385 23.1181 29.9845 22.2221 30.0479 21.0472C30.1325 19.4626 30.1395 17.8781 30.2981 16.29C30.4126 15.1308 30.18 13.935 30.0708 12.7583C29.9898 11.8798 29.9264 10.9907 29.7343 10.1331C28.6492 5.25916 24.3244 1.09993 18.5867 0.674593C13.4833 0.296322 8.59122 3.10285 6.40856 7.82164C5.65282 9.455 5.31106 11.172 5.27406 12.964C5.25997 13.6805 5.11904 14.3952 5.09614 15.1116C5.07148 15.8734 5.00277 16.6631 5.15956 17.3969C5.47137 18.8734 6.76617 19.745 8.47495 19.7467C8.83256 19.7467 8.96997 19.8444 9.06158 20.1947C9.61297 22.2813 10.8021 23.9443 12.5866 25.1768C12.8649 25.3685 12.9654 25.562 12.9513 25.8845C12.9266 26.4353 12.9266 26.9879 12.9513 27.537C12.9654 27.8369 12.872 27.9711 12.5743 28.0495C11.7551 28.2674 10.943 28.5132 10.1291 28.7538C7.97993 29.3935 5.85893 30.1013 3.98455 31.3703C1.80012 32.8485 0.528224 34.8427 0.508846 37.515C0.49123 39.748 0.5018 41.9828 0.507084 44.2158C0.508846 44.8852 0.834748 45.2024 1.50593 45.2077C2.26872 45.2129 3.02974 45.2112 3.79253 45.2094C4.47604 45.2077 4.86008 44.8834 4.85303 44.3256C4.84775 43.7835 4.469 43.4715 3.81015 43.468C3.3028 43.4645 2.79545 43.468 2.27224 43.468C2.27224 41.404 2.25815 39.4029 2.27753 37.4034C2.29162 35.8886 2.8941 34.6126 4.01097 33.5876C5.71447 32.0257 7.84605 31.3058 10.0129 30.6172L11.7481 30.1082C12.3752 29.9234 12.9336 29.7544 13.4956 29.5992C13.596 29.5713 13.7387 29.5696 13.8197 29.6201C14.5103 30.0681 15.1921 30.5283 15.902 31.0025L17.6883 31.9891L19.2614 31.1367C19.2544 31.1315 19.2579 31.135 19.2614 31.1367C19.4517 31.0094 19.6384 30.8857 19.8252 30.7602C20.4083 30.3714 20.9773 29.9914 21.5498 29.6201C21.6308 29.5678 21.7964 29.4493 21.8951 29.4772C22.457 29.6323 23.0155 29.8032 23.6373 29.9879C23.6373 29.9897 23.6232 29.9879 23.6232 29.9897L25.3355 30.5545C25.3549 30.5179 25.3532 30.5998 25.3778 30.558C26.5299 31.0129 27.6944 31.4296 28.8218 31.9281C29.9651 32.4354 31.001 33.117 31.8236 34.0774C32.6076 34.9944 33.0568 36.0542 33.0744 37.2518C33.1061 39.2512 33.0885 41.2524 33.092 43.2536C33.092 43.3093 33.0762 43.3634 33.0656 43.4418C29.759 43.4418 26.4577 43.4418 23.1406 43.4418C22.6173 43.4418 22.0959 43.4418 21.5727 43.4418H19.7212C19.7212 43.4436 19.7212 43.4453 19.7212 43.4471C18.3665 43.4471 17.0118 43.4471 15.6113 43.4471C15.6113 43.4453 15.6113 43.4436 15.6131 43.4418H13.7933C13.7916 43.4505 13.7898 43.4593 13.788 43.4662C13.6189 43.4662 13.4727 43.4662 13.3283 43.4662C12.9037 43.4662 12.4774 43.4645 12.0528 43.4662C11.4186 43.4715 11.0082 43.8114 11.0047 44.3308C11.0011 44.8521 11.4116 45.2077 12.0405 45.2077C19.2967 45.2094 26.5511 45.2094 33.8072 45.2077C34.5366 45.2077 34.8537 44.8991 34.8537 44.174C34.8572 41.9741 34.8625 39.7689 34.8519 37.5656ZM28.3127 20.763C28.2951 21.2023 28.0485 21.4708 27.601 21.4917C27.0479 21.5178 26.4929 21.4986 25.8799 21.4986C25.9926 21.1796 26.1001 20.9025 26.1899 20.6201C26.278 20.3464 26.3485 20.0658 26.4242 19.7973C27.0496 19.738 27.6556 19.6805 28.318 19.6178C28.3162 19.9838 28.3286 20.3743 28.3127 20.763ZM28.5752 16.4347C28.5646 17.5643 27.8018 18.1674 26.6303 17.946C26.6303 16.7432 26.6303 15.5335 26.6303 14.3289C27.7543 14.0779 28.5629 14.709 28.5752 15.8246C28.577 16.0285 28.577 16.2325 28.5752 16.4347ZM8.7251 17.9687C7.50429 18.1465 6.78907 17.5469 6.78555 16.3737C6.78555 16.2151 6.78555 16.0547 6.78555 15.8961C6.79083 14.7229 7.51839 14.118 8.7251 14.315C8.7251 15.5195 8.7251 16.7293 8.7251 17.9687ZM8.74272 12.4707C8.20014 12.5335 7.65403 12.5962 7.04451 12.6659C7.21538 9.21619 8.62293 6.36957 11.4997 4.38583C15.1938 1.83904 19.1328 1.64032 23.0384 3.86113C26.4278 5.7856 28.0978 8.83443 28.325 12.6712C27.7261 12.6014 27.1782 12.5352 26.6004 12.4672C26.3538 9.8019 25.1858 7.60723 23.0102 5.9791C21.3384 4.72924 19.4323 4.15224 17.3395 4.22546C12.983 4.3806 9.13028 7.73971 8.74272 12.4707ZM13.3124 7.44163C15.6448 5.64964 18.858 5.47183 21.3895 6.99189C23.5228 8.27312 25.1189 11.0901 24.7718 13.0041C24.3755 12.7705 23.9897 12.5439 23.6056 12.3138C21.9021 11.2958 20.1546 11.1285 18.2749 11.8693C16.7441 12.4742 15.178 13.0128 13.5907 13.4486C12.6342 13.7101 11.6071 13.7171 10.633 13.8356C10.0569 11.9286 11.3447 8.95122 13.3124 7.44163ZM20.639 27.9781C20.6355 28.0757 20.5069 28.1925 20.4083 28.2605C19.5768 28.8252 18.7435 29.39 17.8962 29.9304C17.7905 29.9984 17.5597 29.9862 17.4505 29.9165C16.6031 29.3743 15.7681 28.8148 14.9384 28.2465C14.8344 28.175 14.7235 28.0304 14.7199 27.9153C14.697 27.3976 14.7094 26.8764 14.7094 26.2837C16.7212 26.9391 18.659 26.9287 20.6496 26.2889C20.6496 26.8903 20.6602 27.4359 20.639 27.9781ZM19.3865 24.8299C14.9877 25.8845 10.7422 22.7363 10.5396 18.2633C10.4991 17.3673 10.5343 16.4696 10.5343 15.6189C11.7939 15.4498 13.0253 15.4097 14.1826 15.0977C15.8721 14.6427 17.5157 14.0169 19.161 13.4155C20.2497 13.0181 21.2855 13.0407 22.2914 13.6003C23.0824 14.0413 23.8505 14.5207 24.6203 14.9948C24.7172 15.0541 24.8317 15.1883 24.83 15.2859C24.8018 16.7746 24.9991 18.279 24.6027 19.745C24.4706 20.2314 24.2381 20.6898 24.0601 21.164C23.958 21.4342 23.7818 21.5161 23.4894 21.5126C21.6731 21.4986 19.8551 21.5056 18.0371 21.5056C17.8768 21.5056 17.713 21.5021 17.5544 21.5213C17.1387 21.5753 16.8339 21.8996 16.804 22.3057C16.774 22.7084 17.0312 23.0884 17.4329 23.1913C17.6143 23.2366 17.8098 23.2471 17.9983 23.2471C19.2738 23.2523 20.5474 23.2488 21.8228 23.2488C21.9761 23.2488 22.1276 23.2488 22.2809 23.2488C21.4547 24.0786 20.477 24.5684 19.3865 24.8299Z" fill="#7630EA"/>
<path d="M7.95528 43.4711C7.47259 43.4607 7.05156 43.8686 7.05332 44.3427C7.05508 44.8012 7.44969 45.1969 7.91652 45.2091C8.41154 45.2213 8.80615 44.8326 8.80615 44.3375C8.80615 43.8616 8.43268 43.4816 7.95528 43.4711Z" fill="#7630EA"/>
<path d="M19.2597 31.1365C19.263 31.1382 19.2663 31.1415 19.2597 31.1365V31.1365Z" fill="#7630EA"/>
<path d="M16.7652 34.0266L19.4499 41.0551H17.1809L16.811 40.0371H14.313L13.9431 41.0551H11.7445L14.4293 34.0266H16.7652ZM14.9719 38.2399H16.1521L15.562 36.6257L14.9719 38.2399Z" fill="#7630EA"/>
<path d="M22.6544 41.0568H20.41V34.0283H22.6544V41.0568Z" fill="#7630EA"/>
</g>
<defs>
<clipPath id="clip0_65_207">
<rect width="34.3571" height="44.5714" fill="white" transform="translate(0.5 0.643066)"/>
</clipPath>
</defs>
</svg>
