<?xml version="1.0" encoding="utf-8"?>
<!-- Generator: Adobe Illustrator 25.3.1, SVG Export Plug-In . SVG Version: 6.00 Build 0)  -->
<svg version="1.1" id="圖層_1" xmlns="http://www.w3.org/2000/svg" xmlns:xlink="http://www.w3.org/1999/xlink" x="0px" y="0px"
	 viewBox="0 0 415 415" style="enable-background:new 0 0 415 415;" xml:space="preserve">
<style type="text/css">
	.st0{clip-path:url(#SVGID_2_);}
	.st1{fill:#E6E6E6;}
	.st2{fill:none;stroke:url(#SVGID_3_);stroke-width:1.3405;stroke-linecap:round;stroke-linejoin:round;stroke-miterlimit:10;}
	.st3{fill:none;stroke:url(#SVGID_4_);stroke-width:1.3405;stroke-linecap:round;stroke-linejoin:round;stroke-miterlimit:10;}
	.st4{fill:none;stroke:url(#SVGID_5_);stroke-width:1.3405;stroke-linecap:round;stroke-linejoin:round;stroke-miterlimit:10;}
	.st5{fill:none;stroke:url(#SVGID_6_);stroke-width:1.3405;stroke-linecap:round;stroke-linejoin:round;stroke-miterlimit:10;}
	.st6{fill:none;stroke:url(#SVGID_7_);stroke-width:1.3405;stroke-linecap:round;stroke-linejoin:round;stroke-miterlimit:10;}
	.st7{fill:none;stroke:url(#SVGID_8_);stroke-width:1.3405;stroke-linecap:round;stroke-linejoin:round;stroke-miterlimit:10;}
	.st8{fill:none;stroke:url(#SVGID_9_);stroke-width:1.3405;stroke-linecap:round;stroke-linejoin:round;stroke-miterlimit:10;}
	.st9{fill:none;stroke:url(#SVGID_10_);stroke-width:1.3405;stroke-linecap:round;stroke-linejoin:round;stroke-miterlimit:10;}
	.st10{fill:none;stroke:url(#SVGID_11_);stroke-width:1.3405;stroke-linecap:round;stroke-linejoin:round;stroke-miterlimit:10;}
	.st11{fill:none;stroke:url(#SVGID_12_);stroke-width:1.3405;stroke-linecap:round;stroke-linejoin:round;stroke-miterlimit:10;}
	.st12{fill:none;stroke:url(#SVGID_13_);stroke-width:1.3405;stroke-linecap:round;stroke-linejoin:round;stroke-miterlimit:10;}
	.st13{fill:none;stroke:url(#SVGID_14_);stroke-width:1.3405;stroke-linecap:round;stroke-linejoin:round;stroke-miterlimit:10;}
	.st14{fill:none;stroke:url(#SVGID_15_);stroke-width:1.3405;stroke-linecap:round;stroke-linejoin:round;stroke-miterlimit:10;}
	.st15{fill:none;stroke:url(#SVGID_16_);stroke-width:1.3405;stroke-linecap:round;stroke-linejoin:round;stroke-miterlimit:10;}
	.st16{fill:none;stroke:url(#SVGID_17_);stroke-width:1.3405;stroke-linecap:round;stroke-linejoin:round;stroke-miterlimit:10;}
	.st17{fill:none;stroke:url(#SVGID_18_);stroke-width:1.3405;stroke-linecap:round;stroke-linejoin:round;stroke-miterlimit:10;}
	.st18{fill:none;stroke:url(#SVGID_19_);stroke-width:1.3405;stroke-linecap:round;stroke-linejoin:round;stroke-miterlimit:10;}
	.st19{fill:none;stroke:url(#SVGID_20_);stroke-width:1.3405;stroke-linecap:round;stroke-linejoin:round;stroke-miterlimit:10;}
	.st20{fill:none;stroke:url(#SVGID_21_);stroke-width:1.3405;stroke-linecap:round;stroke-linejoin:round;stroke-miterlimit:10;}
	.st21{fill:none;stroke:url(#SVGID_22_);stroke-width:1.3405;stroke-linecap:round;stroke-linejoin:round;stroke-miterlimit:10;}
	.st22{fill:none;stroke:url(#SVGID_23_);stroke-width:1.3405;stroke-linecap:round;stroke-linejoin:round;stroke-miterlimit:10;}
	.st23{fill:none;stroke:url(#SVGID_24_);stroke-width:1.3405;stroke-linecap:round;stroke-linejoin:round;stroke-miterlimit:10;}
	.st24{fill:none;stroke:url(#SVGID_25_);stroke-width:1.3405;stroke-linecap:round;stroke-linejoin:round;stroke-miterlimit:10;}
	.st25{fill:none;stroke:url(#SVGID_26_);stroke-width:1.3405;stroke-linecap:round;stroke-linejoin:round;stroke-miterlimit:10;}
	.st26{fill:none;stroke:url(#SVGID_27_);stroke-width:1.3405;stroke-linecap:round;stroke-linejoin:round;stroke-miterlimit:10;}
	.st27{fill:none;stroke:url(#SVGID_28_);stroke-width:1.3405;stroke-linecap:round;stroke-linejoin:round;stroke-miterlimit:10;}
	.st28{fill:none;stroke:url(#SVGID_29_);stroke-width:1.3405;stroke-linecap:round;stroke-linejoin:round;stroke-miterlimit:10;}
	.st29{fill:none;stroke:url(#SVGID_30_);stroke-width:1.3405;stroke-linecap:round;stroke-linejoin:round;stroke-miterlimit:10;}
	.st30{fill:none;stroke:url(#SVGID_31_);stroke-width:1.3405;stroke-linecap:round;stroke-linejoin:round;stroke-miterlimit:10;}
	.st31{fill:none;stroke:url(#SVGID_32_);stroke-width:1.3405;stroke-linecap:round;stroke-linejoin:round;stroke-miterlimit:10;}
	.st32{fill:none;stroke:url(#SVGID_33_);stroke-width:1.3405;stroke-linecap:round;stroke-linejoin:round;stroke-miterlimit:10;}
	.st33{fill:none;stroke:url(#SVGID_34_);stroke-width:1.3405;stroke-linecap:round;stroke-linejoin:round;stroke-miterlimit:10;}
	.st34{fill:none;stroke:url(#SVGID_35_);stroke-width:1.3405;stroke-linecap:round;stroke-linejoin:round;stroke-miterlimit:10;}
	.st35{fill:none;stroke:url(#SVGID_36_);stroke-width:1.3405;stroke-linecap:round;stroke-linejoin:round;stroke-miterlimit:10;}
	.st36{fill:none;stroke:url(#SVGID_37_);stroke-width:1.3405;stroke-linecap:round;stroke-linejoin:round;stroke-miterlimit:10;}
	.st37{fill:none;stroke:url(#SVGID_38_);stroke-width:1.3405;stroke-linecap:round;stroke-linejoin:round;stroke-miterlimit:10;}
	.st38{fill:none;stroke:url(#SVGID_39_);stroke-width:1.3405;stroke-linecap:round;stroke-linejoin:round;stroke-miterlimit:10;}
	.st39{fill:none;stroke:url(#SVGID_40_);stroke-width:1.3405;stroke-linecap:round;stroke-linejoin:round;stroke-miterlimit:10;}
	.st40{fill:none;stroke:url(#SVGID_41_);stroke-width:1.3405;stroke-linecap:round;stroke-linejoin:round;stroke-miterlimit:10;}
	.st41{fill:none;stroke:url(#SVGID_42_);stroke-width:1.3405;stroke-linecap:round;stroke-linejoin:round;stroke-miterlimit:10;}
	.st42{fill:none;stroke:url(#SVGID_43_);stroke-width:1.3405;stroke-linecap:round;stroke-linejoin:round;stroke-miterlimit:10;}
	.st43{fill:none;stroke:url(#SVGID_44_);stroke-width:1.3405;stroke-linecap:round;stroke-linejoin:round;stroke-miterlimit:10;}
	.st44{fill:none;stroke:url(#SVGID_45_);stroke-width:1.3405;stroke-linecap:round;stroke-linejoin:round;stroke-miterlimit:10;}
	.st45{fill:none;stroke:url(#SVGID_46_);stroke-width:1.3405;stroke-linecap:round;stroke-linejoin:round;stroke-miterlimit:10;}
	.st46{fill:none;stroke:url(#SVGID_47_);stroke-width:1.3405;stroke-linecap:round;stroke-linejoin:round;stroke-miterlimit:10;}
	.st47{fill:none;stroke:url(#SVGID_48_);stroke-width:1.3405;stroke-linecap:round;stroke-linejoin:round;stroke-miterlimit:10;}
	.st48{fill:url(#SVGID_49_);}
	.st49{fill:none;stroke:#FFFFFF;stroke-width:0.7692;stroke-linecap:round;stroke-linejoin:round;stroke-miterlimit:10;}
	.st50{fill:none;stroke:#FFFFFF;stroke-width:1.3405;stroke-linecap:round;stroke-linejoin:round;stroke-miterlimit:10;}
	.st51{fill:#01A982;}
	.st52{fill:#FFFFFF;}
	.st53{fill:url(#SVGID_50_);}
	.st54{fill:#017358;}
	.st55{fill:none;stroke:#FFFFFF;stroke-width:1.3405;stroke-linecap:round;stroke-miterlimit:10;}
	.st56{fill:url(#SVGID_51_);}
	.st57{fill:#1F3399;}
	.st58{fill:#018062;}
	.st59{opacity:0.42;fill:url(#SVGID_52_);enable-background:new    ;}
	.st60{fill:url(#SVGID_53_);}
</style>
<g>
	<defs>
		<rect id="SVGID_1_" x="-1" y="-68.4" width="416.4" height="506"/>
	</defs>
	<clipPath id="SVGID_2_">
		<use xlink:href="#SVGID_1_"  style="overflow:visible;"/>
	</clipPath>
	<g class="st0">
		<path class="st1" d="M209.4,413.5c99.9,0,180.9-15.2,180.9-34c0-18.8-81-34-180.9-34c-99.9,0-180.9,15.2-180.9,34
			C28.6,398.3,109.6,413.5,209.4,413.5z"/>
		
			<linearGradient id="SVGID_3_" gradientUnits="userSpaceOnUse" x1="26.9306" y1="166.0256" x2="155.1783" y2="166.0256" gradientTransform="matrix(1 0 0 -1 0 371.1292)">
			<stop  offset="0" style="stop-color:#01A982"/>
			<stop  offset="0.2473" style="stop-color:#01A67F"/>
			<stop  offset="0.4549" style="stop-color:#019B77"/>
			<stop  offset="0.6483" style="stop-color:#018A6A"/>
			<stop  offset="0.8318" style="stop-color:#017257"/>
			<stop  offset="1" style="stop-color:#015440"/>
		</linearGradient>
		<path class="st2" d="M154.5,199.1h-41.6l-12.1,12.1H27.6"/>
		
			<linearGradient id="SVGID_4_" gradientUnits="userSpaceOnUse" x1="26.9306" y1="188.0006" x2="155.1783" y2="188.0006" gradientTransform="matrix(1 0 0 -1 0 371.1292)">
			<stop  offset="0" style="stop-color:#01A982"/>
			<stop  offset="0.2473" style="stop-color:#01A67F"/>
			<stop  offset="0.4549" style="stop-color:#019B77"/>
			<stop  offset="0.6483" style="stop-color:#018A6A"/>
			<stop  offset="0.8318" style="stop-color:#017257"/>
			<stop  offset="1" style="stop-color:#015440"/>
		</linearGradient>
		<path class="st3" d="M154.5,188.3H92.4L82,177.9H27.6"/>
		
			<linearGradient id="SVGID_5_" gradientUnits="userSpaceOnUse" x1="26.9306" y1="173.8466" x2="89.494" y2="173.8466" gradientTransform="matrix(1 0 0 -1 0 371.1292)">
			<stop  offset="0" style="stop-color:#01A982"/>
			<stop  offset="0.2473" style="stop-color:#01A67F"/>
			<stop  offset="0.4549" style="stop-color:#019B77"/>
			<stop  offset="0.6483" style="stop-color:#018A6A"/>
			<stop  offset="0.8318" style="stop-color:#017257"/>
			<stop  offset="1" style="stop-color:#015440"/>
		</linearGradient>
		<path class="st4" d="M88.8,197.3H27.6"/>
		
			<linearGradient id="SVGID_6_" gradientUnits="userSpaceOnUse" x1="26.0356" y1="203.4631" x2="155.1783" y2="203.4631" gradientTransform="matrix(1 0 0 -1 0 371.1292)">
			<stop  offset="0" style="stop-color:#01A982"/>
			<stop  offset="0.2473" style="stop-color:#01A67F"/>
			<stop  offset="0.4549" style="stop-color:#019B77"/>
			<stop  offset="0.6483" style="stop-color:#018A6A"/>
			<stop  offset="0.8318" style="stop-color:#017257"/>
			<stop  offset="1" style="stop-color:#015440"/>
		</linearGradient>
		<path class="st5" d="M154.5,176h-51.4l-16.6-16.6H26.7"/>
		
			<linearGradient id="SVGID_7_" gradientUnits="userSpaceOnUse" x1="26.9306" y1="216.8216" x2="154.9513" y2="216.8216" gradientTransform="matrix(1 0 0 -1 0 371.1292)">
			<stop  offset="0" style="stop-color:#01A982"/>
			<stop  offset="0.2473" style="stop-color:#01A67F"/>
			<stop  offset="0.4549" style="stop-color:#019B77"/>
			<stop  offset="0.6483" style="stop-color:#018A6A"/>
			<stop  offset="0.8318" style="stop-color:#017257"/>
			<stop  offset="1" style="stop-color:#015440"/>
		</linearGradient>
		<path class="st6" d="M27.6,144.6h65.9l19.4,19.4h41.3"/>
		
			<linearGradient id="SVGID_8_" gradientUnits="userSpaceOnUse" x1="119.8807" y1="220.3216" x2="154.9513" y2="220.3216" gradientTransform="matrix(1 0 0 -1 0 371.1292)">
			<stop  offset="0" style="stop-color:#01A982"/>
			<stop  offset="0.2473" style="stop-color:#01A67F"/>
			<stop  offset="0.4549" style="stop-color:#019B77"/>
			<stop  offset="0.6483" style="stop-color:#018A6A"/>
			<stop  offset="0.8318" style="stop-color:#017257"/>
			<stop  offset="1" style="stop-color:#015440"/>
		</linearGradient>
		<path class="st7" d="M154.3,150.8h-33.7"/>
		
			<linearGradient id="SVGID_9_" gradientUnits="userSpaceOnUse" x1="25.1405" y1="241.9761" x2="154.9513" y2="241.9761" gradientTransform="matrix(1 0 0 -1 0 371.1292)">
			<stop  offset="0" style="stop-color:#01A982"/>
			<stop  offset="0.2473" style="stop-color:#01A67F"/>
			<stop  offset="0.4549" style="stop-color:#019B77"/>
			<stop  offset="0.6483" style="stop-color:#018A6A"/>
			<stop  offset="0.8318" style="stop-color:#017257"/>
			<stop  offset="1" style="stop-color:#015440"/>
		</linearGradient>
		<path class="st8" d="M154.3,139.2h-48l-20.1-20.1H25.8"/>
		
			<linearGradient id="SVGID_10_" gradientUnits="userSpaceOnUse" x1="126.1317" y1="244.9016" x2="154.9513" y2="244.9016" gradientTransform="matrix(1 0 0 -1 0 371.1292)">
			<stop  offset="0" style="stop-color:#01A982"/>
			<stop  offset="0.2473" style="stop-color:#01A67F"/>
			<stop  offset="0.4549" style="stop-color:#019B77"/>
			<stop  offset="0.6483" style="stop-color:#018A6A"/>
			<stop  offset="0.8318" style="stop-color:#017257"/>
			<stop  offset="1" style="stop-color:#015440"/>
		</linearGradient>
		<path class="st9" d="M154.3,126.2h-27.5"/>
		
			<linearGradient id="SVGID_11_" gradientUnits="userSpaceOnUse" x1="86.4702" y1="259.1421" x2="112.0573" y2="259.1421" gradientTransform="matrix(1 0 0 -1 0 371.1292)">
			<stop  offset="0" style="stop-color:#01A982"/>
			<stop  offset="0.2473" style="stop-color:#01A67F"/>
			<stop  offset="0.4549" style="stop-color:#019B77"/>
			<stop  offset="0.6483" style="stop-color:#018A6A"/>
			<stop  offset="0.8318" style="stop-color:#017257"/>
			<stop  offset="1" style="stop-color:#015440"/>
		</linearGradient>
		<path class="st10" d="M111.4,124.1L87.1,99.9"/>
		
			<linearGradient id="SVGID_12_" gradientUnits="userSpaceOnUse" x1="26.9306" y1="271.1916" x2="154.9513" y2="271.1916" gradientTransform="matrix(1 0 0 -1 0 371.1292)">
			<stop  offset="0" style="stop-color:#01A982"/>
			<stop  offset="0.2473" style="stop-color:#01A67F"/>
			<stop  offset="0.4549" style="stop-color:#019B77"/>
			<stop  offset="0.6483" style="stop-color:#018A6A"/>
			<stop  offset="0.8318" style="stop-color:#017257"/>
			<stop  offset="1" style="stop-color:#015440"/>
		</linearGradient>
		<path class="st11" d="M154.3,114.2h-33.7L92.1,85.7H27.6"/>
		
			<linearGradient id="SVGID_13_" gradientUnits="userSpaceOnUse" x1="119.8807" y1="271.2586" x2="155.1783" y2="271.2586" gradientTransform="matrix(1 0 0 -1 0 371.1292)">
			<stop  offset="0" style="stop-color:#01A982"/>
			<stop  offset="0.2473" style="stop-color:#01A67F"/>
			<stop  offset="0.4549" style="stop-color:#019B77"/>
			<stop  offset="0.6483" style="stop-color:#018A6A"/>
			<stop  offset="0.8318" style="stop-color:#017257"/>
			<stop  offset="1" style="stop-color:#015440"/>
		</linearGradient>
		<path class="st12" d="M154.5,99.9h-34"/>
		
			<linearGradient id="SVGID_14_" gradientUnits="userSpaceOnUse" x1="146.2107" y1="352.8867" x2="147.5513" y2="352.8867" gradientTransform="matrix(1 0 0 -1 0 371.1292)">
			<stop  offset="0" style="stop-color:#01A982"/>
			<stop  offset="0.2473" style="stop-color:#01A67F"/>
			<stop  offset="0.4549" style="stop-color:#019B77"/>
			<stop  offset="0.6483" style="stop-color:#018A6A"/>
			<stop  offset="0.8318" style="stop-color:#017257"/>
			<stop  offset="1" style="stop-color:#015440"/>
		</linearGradient>
		<path class="st13" d="M146.9,37V-0.5"/>
		
			<linearGradient id="SVGID_15_" gradientUnits="userSpaceOnUse" x1="158.2727" y1="301.2691" x2="159.6133" y2="301.2691" gradientTransform="matrix(1 0 0 -1 0 371.1292)">
			<stop  offset="0" style="stop-color:#01A982"/>
			<stop  offset="0.2473" style="stop-color:#01A67F"/>
			<stop  offset="0.4549" style="stop-color:#019B77"/>
			<stop  offset="0.6483" style="stop-color:#018A6A"/>
			<stop  offset="0.8318" style="stop-color:#017257"/>
			<stop  offset="1" style="stop-color:#015440"/>
		</linearGradient>
		<path class="st14" d="M158.9,90.6V49.1"/>
		
			<linearGradient id="SVGID_16_" gradientUnits="userSpaceOnUse" x1="168.9997" y1="326.0692" x2="180.7743" y2="326.0692" gradientTransform="matrix(1 0 0 -1 0 371.1292)">
			<stop  offset="0" style="stop-color:#01A982"/>
			<stop  offset="0.2473" style="stop-color:#01A67F"/>
			<stop  offset="0.4549" style="stop-color:#019B77"/>
			<stop  offset="0.6483" style="stop-color:#018A6A"/>
			<stop  offset="0.8318" style="stop-color:#017257"/>
			<stop  offset="1" style="stop-color:#015440"/>
		</linearGradient>
		<path class="st15" d="M169.7,90.6V28.5l10.4-10.4V-0.5"/>
		
			<linearGradient id="SVGID_17_" gradientUnits="userSpaceOnUse" x1="160.0627" y1="358.9113" x2="161.4033" y2="358.9113" gradientTransform="matrix(1 0 0 -1 0 371.1292)">
			<stop  offset="0" style="stop-color:#01A982"/>
			<stop  offset="0.2473" style="stop-color:#01A67F"/>
			<stop  offset="0.4549" style="stop-color:#019B77"/>
			<stop  offset="0.6483" style="stop-color:#018A6A"/>
			<stop  offset="0.8318" style="stop-color:#017257"/>
			<stop  offset="1" style="stop-color:#015440"/>
		</linearGradient>
		<path class="st16" d="M160.7,25V-0.5"/>
		
			<linearGradient id="SVGID_18_" gradientUnits="userSpaceOnUse" x1="181.3707" y1="325.8489" x2="199.3153" y2="325.8489" gradientTransform="matrix(1 0 0 -1 0 371.1292)">
			<stop  offset="0" style="stop-color:#01A982"/>
			<stop  offset="0.2473" style="stop-color:#01A67F"/>
			<stop  offset="0.4549" style="stop-color:#019B77"/>
			<stop  offset="0.6483" style="stop-color:#018A6A"/>
			<stop  offset="0.8318" style="stop-color:#017257"/>
			<stop  offset="1" style="stop-color:#015440"/>
		</linearGradient>
		<path class="st17" d="M182,90.6V39.2l16.6-16.6V-0.1"/>
		
			<linearGradient id="SVGID_19_" gradientUnits="userSpaceOnUse" x1="193.3127" y1="301.3826" x2="194.6533" y2="301.3826" gradientTransform="matrix(1 0 0 -1 0 371.1292)">
			<stop  offset="0" style="stop-color:#01A982"/>
			<stop  offset="0.2473" style="stop-color:#01A67F"/>
			<stop  offset="0.4549" style="stop-color:#019B77"/>
			<stop  offset="0.6483" style="stop-color:#018A6A"/>
			<stop  offset="0.8318" style="stop-color:#017257"/>
			<stop  offset="1" style="stop-color:#015440"/>
		</linearGradient>
		<path class="st18" d="M194,49.1v41.3"/>
		
			<linearGradient id="SVGID_20_" gradientUnits="userSpaceOnUse" x1="220.2437" y1="359.0248" x2="221.5843" y2="359.0248" gradientTransform="matrix(1 0 0 -1 0 371.1292)">
			<stop  offset="0" style="stop-color:#01A982"/>
			<stop  offset="0.2473" style="stop-color:#01A67F"/>
			<stop  offset="0.4549" style="stop-color:#019B77"/>
			<stop  offset="0.6483" style="stop-color:#018A6A"/>
			<stop  offset="0.8318" style="stop-color:#017257"/>
			<stop  offset="1" style="stop-color:#015440"/>
		</linearGradient>
		<path class="st19" d="M220.9-0.5v25.2"/>
		
			<linearGradient id="SVGID_21_" gradientUnits="userSpaceOnUse" x1="206.5377" y1="326.1827" x2="207.8783" y2="326.1827" gradientTransform="matrix(1 0 0 -1 0 371.1292)">
			<stop  offset="0" style="stop-color:#01A982"/>
			<stop  offset="0.2473" style="stop-color:#01A67F"/>
			<stop  offset="0.4549" style="stop-color:#019B77"/>
			<stop  offset="0.6483" style="stop-color:#018A6A"/>
			<stop  offset="0.8318" style="stop-color:#017257"/>
			<stop  offset="1" style="stop-color:#015440"/>
		</linearGradient>
		<path class="st20" d="M207.2,90.4V56.7V-0.5"/>
		
			<linearGradient id="SVGID_22_" gradientUnits="userSpaceOnUse" x1="218.1597" y1="325.9624" x2="239.5653" y2="325.9624" gradientTransform="matrix(1 0 0 -1 0 371.1292)">
			<stop  offset="0" style="stop-color:#01A982"/>
			<stop  offset="0.2473" style="stop-color:#01A67F"/>
			<stop  offset="0.4549" style="stop-color:#019B77"/>
			<stop  offset="0.6483" style="stop-color:#018A6A"/>
			<stop  offset="0.8318" style="stop-color:#017257"/>
			<stop  offset="1" style="stop-color:#015440"/>
		</linearGradient>
		<path class="st21" d="M218.8,90.4v-48l20.1-20.1V-0.1"/>
		
			<linearGradient id="SVGID_23_" gradientUnits="userSpaceOnUse" x1="231.1177" y1="294.4561" x2="232.4583" y2="294.4561" gradientTransform="matrix(1 0 0 -1 0 371.1292)">
			<stop  offset="0" style="stop-color:#01A982"/>
			<stop  offset="0.2473" style="stop-color:#01A67F"/>
			<stop  offset="0.4549" style="stop-color:#019B77"/>
			<stop  offset="0.6483" style="stop-color:#018A6A"/>
			<stop  offset="0.8318" style="stop-color:#017257"/>
			<stop  offset="1" style="stop-color:#015440"/>
		</linearGradient>
		<path class="st22" d="M231.8,90.4V62.9"/>
		
			<linearGradient id="SVGID_24_" gradientUnits="userSpaceOnUse" x1="233.2417" y1="347.6297" x2="258.8152" y2="347.6297" gradientTransform="matrix(1 0 0 -1 0 371.1292)">
			<stop  offset="0" style="stop-color:#01A982"/>
			<stop  offset="0.2473" style="stop-color:#01A67F"/>
			<stop  offset="0.4549" style="stop-color:#019B77"/>
			<stop  offset="0.6483" style="stop-color:#018A6A"/>
			<stop  offset="0.8318" style="stop-color:#017257"/>
			<stop  offset="1" style="stop-color:#015440"/>
		</linearGradient>
		<path class="st23" d="M233.9,47.5l24.2-24.2V-0.5"/>
		
			<linearGradient id="SVGID_25_" gradientUnits="userSpaceOnUse" x1="243.1807" y1="326.1827" x2="272.9622" y2="326.1827" gradientTransform="matrix(1 0 0 -1 0 371.1292)">
			<stop  offset="0" style="stop-color:#01A982"/>
			<stop  offset="0.2473" style="stop-color:#01A67F"/>
			<stop  offset="0.4549" style="stop-color:#019B77"/>
			<stop  offset="0.6483" style="stop-color:#018A6A"/>
			<stop  offset="0.8318" style="stop-color:#017257"/>
			<stop  offset="1" style="stop-color:#015440"/>
		</linearGradient>
		<path class="st24" d="M243.9,90.4V56.7l28.4-28.4V-0.5"/>
		
			<linearGradient id="SVGID_26_" gradientUnits="userSpaceOnUse" x1="257.4747" y1="297.4686" x2="258.8152" y2="297.4686" gradientTransform="matrix(1 0 0 -1 0 371.1292)">
			<stop  offset="0" style="stop-color:#01A982"/>
			<stop  offset="0.2473" style="stop-color:#01A67F"/>
			<stop  offset="0.4549" style="stop-color:#019B77"/>
			<stop  offset="0.6483" style="stop-color:#018A6A"/>
			<stop  offset="0.8318" style="stop-color:#017257"/>
			<stop  offset="1" style="stop-color:#015440"/>
		</linearGradient>
		<path class="st25" d="M258.1,90.6v-34"/>
		
			<linearGradient id="SVGID_27_" gradientUnits="userSpaceOnUse" x1="259.9457" y1="139.0811" x2="273.3492" y2="139.0811" gradientTransform="matrix(1 0 0 -1 0 371.1292)">
			<stop  offset="0" style="stop-color:#01A982"/>
			<stop  offset="0.2473" style="stop-color:#01A67F"/>
			<stop  offset="0.4549" style="stop-color:#019B77"/>
			<stop  offset="0.6483" style="stop-color:#018A6A"/>
			<stop  offset="0.8318" style="stop-color:#017257"/>
			<stop  offset="1" style="stop-color:#015440"/>
		</linearGradient>
		<path class="st26" d="M260.6,205.2v41.6l12.1,12.1"/>
		
			<linearGradient id="SVGID_28_" gradientUnits="userSpaceOnUse" x1="238.7857" y1="129.6231" x2="250.5593" y2="129.6231" gradientTransform="matrix(1 0 0 -1 0 371.1292)">
			<stop  offset="0" style="stop-color:#01A982"/>
			<stop  offset="0.2473" style="stop-color:#01A67F"/>
			<stop  offset="0.4549" style="stop-color:#019B77"/>
			<stop  offset="0.6483" style="stop-color:#018A6A"/>
			<stop  offset="0.8318" style="stop-color:#017257"/>
			<stop  offset="1" style="stop-color:#015440"/>
		</linearGradient>
		<path class="st27" d="M249.9,205.2v62.1l-10.4,10.4"/>
		
			<linearGradient id="SVGID_29_" gradientUnits="userSpaceOnUse" x1="258.1557" y1="67.3581" x2="259.4962" y2="67.3581" gradientTransform="matrix(1 0 0 -1 0 371.1292)">
			<stop  offset="0" style="stop-color:#01A982"/>
			<stop  offset="0.2473" style="stop-color:#01A67F"/>
			<stop  offset="0.4549" style="stop-color:#019B77"/>
			<stop  offset="0.6483" style="stop-color:#018A6A"/>
			<stop  offset="0.8318" style="stop-color:#017257"/>
			<stop  offset="1" style="stop-color:#015440"/>
		</linearGradient>
		<path class="st28" d="M258.8,270.9v65.7"/>
		
			<linearGradient id="SVGID_30_" gradientUnits="userSpaceOnUse" x1="220.2437" y1="100.2071" x2="238.1893" y2="100.2071" gradientTransform="matrix(1 0 0 -1 0 371.1292)">
			<stop  offset="0" style="stop-color:#01A982"/>
			<stop  offset="0.2473" style="stop-color:#01A67F"/>
			<stop  offset="0.4549" style="stop-color:#019B77"/>
			<stop  offset="0.6483" style="stop-color:#018A6A"/>
			<stop  offset="0.8318" style="stop-color:#017257"/>
			<stop  offset="1" style="stop-color:#015440"/>
		</linearGradient>
		<path class="st29" d="M237.5,205.2v51.4l-16.6,16.6v63.4"/>
		
			<linearGradient id="SVGID_31_" gradientUnits="userSpaceOnUse" x1="205.4697" y1="100.0936" x2="226.2473" y2="100.0936" gradientTransform="matrix(1 0 0 -1 0 371.1292)">
			<stop  offset="0" style="stop-color:#01A982"/>
			<stop  offset="0.2473" style="stop-color:#01A67F"/>
			<stop  offset="0.4549" style="stop-color:#019B77"/>
			<stop  offset="0.6483" style="stop-color:#018A6A"/>
			<stop  offset="0.8318" style="stop-color:#017257"/>
			<stop  offset="1" style="stop-color:#015440"/>
		</linearGradient>
		<path class="st30" d="M206.1,336.6v-70.4l19.4-19.4v-41.3"/>
		
			<linearGradient id="SVGID_32_" gradientUnits="userSpaceOnUse" x1="211.6807" y1="148.7996" x2="213.0213" y2="148.7996" gradientTransform="matrix(1 0 0 -1 0 371.1292)">
			<stop  offset="0" style="stop-color:#01A982"/>
			<stop  offset="0.2473" style="stop-color:#01A67F"/>
			<stop  offset="0.4549" style="stop-color:#019B77"/>
			<stop  offset="0.6483" style="stop-color:#018A6A"/>
			<stop  offset="0.8318" style="stop-color:#017257"/>
			<stop  offset="1" style="stop-color:#015440"/>
		</linearGradient>
		<path class="st31" d="M212.4,205.5v33.7"/>
		
			<linearGradient id="SVGID_33_" gradientUnits="userSpaceOnUse" x1="179.9947" y1="100.0936" x2="201.3993" y2="100.0936" gradientTransform="matrix(1 0 0 -1 0 371.1292)">
			<stop  offset="0" style="stop-color:#01A982"/>
			<stop  offset="0.2473" style="stop-color:#01A67F"/>
			<stop  offset="0.4549" style="stop-color:#019B77"/>
			<stop  offset="0.6483" style="stop-color:#018A6A"/>
			<stop  offset="0.8318" style="stop-color:#017257"/>
			<stop  offset="1" style="stop-color:#015440"/>
		</linearGradient>
		<path class="st32" d="M200.7,205.5v48l-20.1,20.1v63.1"/>
		
			<linearGradient id="SVGID_34_" gradientUnits="userSpaceOnUse" x1="187.1007" y1="151.9321" x2="188.4413" y2="151.9321" gradientTransform="matrix(1 0 0 -1 0 371.1292)">
			<stop  offset="0" style="stop-color:#01A982"/>
			<stop  offset="0.2473" style="stop-color:#01A67F"/>
			<stop  offset="0.4549" style="stop-color:#019B77"/>
			<stop  offset="0.6483" style="stop-color:#018A6A"/>
			<stop  offset="0.8318" style="stop-color:#017257"/>
			<stop  offset="1" style="stop-color:#015440"/>
		</linearGradient>
		<path class="st33" d="M187.8,205.5v27.5"/>
		
			<linearGradient id="SVGID_35_" gradientUnits="userSpaceOnUse" x1="160.7447" y1="78.6461" x2="186.3313" y2="78.6461" gradientTransform="matrix(1 0 0 -1 0 371.1292)">
			<stop  offset="0" style="stop-color:#01A982"/>
			<stop  offset="0.2473" style="stop-color:#01A67F"/>
			<stop  offset="0.4549" style="stop-color:#019B77"/>
			<stop  offset="0.6483" style="stop-color:#018A6A"/>
			<stop  offset="0.8318" style="stop-color:#017257"/>
			<stop  offset="1" style="stop-color:#015440"/>
		</linearGradient>
		<path class="st34" d="M185.7,248.4l-24.2,24.2v64"/>
		
			<linearGradient id="SVGID_36_" gradientUnits="userSpaceOnUse" x1="146.5977" y1="100.0936" x2="176.3793" y2="100.0936" gradientTransform="matrix(1 0 0 -1 0 371.1292)">
			<stop  offset="0" style="stop-color:#01A982"/>
			<stop  offset="0.2473" style="stop-color:#01A67F"/>
			<stop  offset="0.4549" style="stop-color:#019B77"/>
			<stop  offset="0.6483" style="stop-color:#018A6A"/>
			<stop  offset="0.8318" style="stop-color:#017257"/>
			<stop  offset="1" style="stop-color:#015440"/>
		</linearGradient>
		<path class="st35" d="M175.7,205.5v33.7l-28.4,28.4v69"/>
		
			<linearGradient id="SVGID_37_" gradientUnits="userSpaceOnUse" x1="160.7447" y1="148.9131" x2="162.0853" y2="148.9131" gradientTransform="matrix(1 0 0 -1 0 371.1292)">
			<stop  offset="0" style="stop-color:#01A982"/>
			<stop  offset="0.2473" style="stop-color:#01A67F"/>
			<stop  offset="0.4549" style="stop-color:#019B77"/>
			<stop  offset="0.6483" style="stop-color:#018A6A"/>
			<stop  offset="0.8318" style="stop-color:#017257"/>
			<stop  offset="1" style="stop-color:#015440"/>
		</linearGradient>
		<path class="st36" d="M161.4,205.2v34"/>
		
			<linearGradient id="SVGID_38_" gradientUnits="userSpaceOnUse" x1="267.0927" y1="164.2956" x2="386.4043" y2="164.2956" gradientTransform="matrix(1 0 0 -1 0 371.1292)">
			<stop  offset="0" style="stop-color:#01A982"/>
			<stop  offset="0.2473" style="stop-color:#01A67F"/>
			<stop  offset="0.4549" style="stop-color:#019B77"/>
			<stop  offset="0.6483" style="stop-color:#018A6A"/>
			<stop  offset="0.8318" style="stop-color:#017257"/>
			<stop  offset="1" style="stop-color:#015440"/>
		</linearGradient>
		<path class="st37" d="M267.8,200.8h41.6l12.1,12.1h64.3"/>
		
			<linearGradient id="SVGID_39_" gradientUnits="userSpaceOnUse" x1="267.0927" y1="186.2636" x2="386.4043" y2="186.2636" gradientTransform="matrix(1 0 0 -1 0 371.1292)">
			<stop  offset="0" style="stop-color:#01A982"/>
			<stop  offset="0.2473" style="stop-color:#01A67F"/>
			<stop  offset="0.4549" style="stop-color:#019B77"/>
			<stop  offset="0.6483" style="stop-color:#018A6A"/>
			<stop  offset="0.8318" style="stop-color:#017257"/>
			<stop  offset="1" style="stop-color:#015440"/>
		</linearGradient>
		<path class="st38" d="M267.8,190.1h62.1l10.4-10.4h45.4"/>
		
			<linearGradient id="SVGID_40_" gradientUnits="userSpaceOnUse" x1="332.7907" y1="172.1106" x2="386.4043" y2="172.1106" gradientTransform="matrix(1 0 0 -1 0 371.1292)">
			<stop  offset="0" style="stop-color:#01A982"/>
			<stop  offset="0.2473" style="stop-color:#01A67F"/>
			<stop  offset="0.4549" style="stop-color:#019B77"/>
			<stop  offset="0.6483" style="stop-color:#018A6A"/>
			<stop  offset="0.8318" style="stop-color:#017257"/>
			<stop  offset="1" style="stop-color:#015440"/>
		</linearGradient>
		<path class="st39" d="M333.5,199h52.3"/>
		
			<linearGradient id="SVGID_41_" gradientUnits="userSpaceOnUse" x1="267.0927" y1="201.7331" x2="385.9633" y2="201.7331" gradientTransform="matrix(1 0 0 -1 0 371.1292)">
			<stop  offset="0" style="stop-color:#01A982"/>
			<stop  offset="0.2473" style="stop-color:#01A67F"/>
			<stop  offset="0.4549" style="stop-color:#019B77"/>
			<stop  offset="0.6483" style="stop-color:#018A6A"/>
			<stop  offset="0.8318" style="stop-color:#017257"/>
			<stop  offset="1" style="stop-color:#015440"/>
		</linearGradient>
		<path class="st40" d="M267.8,177.7h51.4l16.6-16.6h49.5"/>
		
			<linearGradient id="SVGID_42_" gradientUnits="userSpaceOnUse" x1="267.3197" y1="215.0921" x2="386.4043" y2="215.0921" gradientTransform="matrix(1 0 0 -1 0 371.1292)">
			<stop  offset="0" style="stop-color:#01A982"/>
			<stop  offset="0.2473" style="stop-color:#01A67F"/>
			<stop  offset="0.4549" style="stop-color:#019B77"/>
			<stop  offset="0.6483" style="stop-color:#018A6A"/>
			<stop  offset="0.8318" style="stop-color:#017257"/>
			<stop  offset="1" style="stop-color:#015440"/>
		</linearGradient>
		<path class="st41" d="M385.7,146.3h-57l-19.4,19.4H268"/>
		
			<linearGradient id="SVGID_43_" gradientUnits="userSpaceOnUse" x1="267.3197" y1="218.5856" x2="302.4043" y2="218.5856" gradientTransform="matrix(1 0 0 -1 0 371.1292)">
			<stop  offset="0" style="stop-color:#01A982"/>
			<stop  offset="0.2473" style="stop-color:#01A67F"/>
			<stop  offset="0.4549" style="stop-color:#019B77"/>
			<stop  offset="0.6483" style="stop-color:#018A6A"/>
			<stop  offset="0.8318" style="stop-color:#017257"/>
			<stop  offset="1" style="stop-color:#015440"/>
		</linearGradient>
		<path class="st42" d="M268,152.5h33.7"/>
		
			<linearGradient id="SVGID_44_" gradientUnits="userSpaceOnUse" x1="267.3197" y1="240.2396" x2="385.9633" y2="240.2396" gradientTransform="matrix(1 0 0 -1 0 371.1292)">
			<stop  offset="0" style="stop-color:#01A982"/>
			<stop  offset="0.2473" style="stop-color:#01A67F"/>
			<stop  offset="0.4549" style="stop-color:#019B77"/>
			<stop  offset="0.6483" style="stop-color:#018A6A"/>
			<stop  offset="0.8318" style="stop-color:#017257"/>
			<stop  offset="1" style="stop-color:#015440"/>
		</linearGradient>
		<path class="st43" d="M268,140.9h48l20.1-20.1h49.2"/>
		
			<linearGradient id="SVGID_45_" gradientUnits="userSpaceOnUse" x1="267.3197" y1="243.1656" x2="296.1393" y2="243.1656" gradientTransform="matrix(1 0 0 -1 0 371.1292)">
			<stop  offset="0" style="stop-color:#01A982"/>
			<stop  offset="0.2473" style="stop-color:#01A67F"/>
			<stop  offset="0.4549" style="stop-color:#019B77"/>
			<stop  offset="0.6483" style="stop-color:#018A6A"/>
			<stop  offset="0.8318" style="stop-color:#017257"/>
			<stop  offset="1" style="stop-color:#015440"/>
		</linearGradient>
		<path class="st44" d="M268,128h27.5"/>
		
			<linearGradient id="SVGID_46_" gradientUnits="userSpaceOnUse" x1="310.2148" y1="257.4126" x2="335.8013" y2="257.4126" gradientTransform="matrix(1 0 0 -1 0 371.1292)">
			<stop  offset="0" style="stop-color:#01A982"/>
			<stop  offset="0.2473" style="stop-color:#01A67F"/>
			<stop  offset="0.4549" style="stop-color:#019B77"/>
			<stop  offset="0.6483" style="stop-color:#018A6A"/>
			<stop  offset="0.8318" style="stop-color:#017257"/>
			<stop  offset="1" style="stop-color:#015440"/>
		</linearGradient>
		<path class="st45" d="M310.9,125.8l24.2-24.2"/>
		
			<linearGradient id="SVGID_47_" gradientUnits="userSpaceOnUse" x1="267.3197" y1="269.4616" x2="386.4043" y2="269.4616" gradientTransform="matrix(1 0 0 -1 0 371.1292)">
			<stop  offset="0" style="stop-color:#01A982"/>
			<stop  offset="0.2473" style="stop-color:#01A67F"/>
			<stop  offset="0.4549" style="stop-color:#019B77"/>
			<stop  offset="0.6483" style="stop-color:#018A6A"/>
			<stop  offset="0.8318" style="stop-color:#017257"/>
			<stop  offset="1" style="stop-color:#015440"/>
		</linearGradient>
		<path class="st46" d="M268,115.9h33.7l28.4-28.4h55.6"/>
		
			<linearGradient id="SVGID_48_" gradientUnits="userSpaceOnUse" x1="267.0927" y1="269.5356" x2="302.4043" y2="269.5356" gradientTransform="matrix(1 0 0 -1 0 371.1292)">
			<stop  offset="0" style="stop-color:#01A982"/>
			<stop  offset="0.2473" style="stop-color:#01A67F"/>
			<stop  offset="0.4549" style="stop-color:#019B77"/>
			<stop  offset="0.6483" style="stop-color:#018A6A"/>
			<stop  offset="0.8318" style="stop-color:#017257"/>
			<stop  offset="1" style="stop-color:#015440"/>
		</linearGradient>
		<path class="st47" d="M267.8,101.6h34"/>
		
			<radialGradient id="SVGID_49_" cx="110.8738" cy="287.5988" r="1.0001" gradientTransform="matrix(3.281092e-15 -53.5843 -53.5843 -3.281092e-15 15620.8291 6089.5342)" gradientUnits="userSpaceOnUse">
			<stop  offset="0" style="stop-color:#01A982"/>
			<stop  offset="1" style="stop-color:#005743"/>
		</radialGradient>
		<path class="st48" d="M263.6,105.6v85.7c-4.2,4.2-6.5,6.5-10.7,10.7h-85.7c-4.2-4.2-6.5-6.5-10.7-10.7v-85.7
			c4.2-4.2,6.5-6.5,10.7-10.7h85.7C257.1,99,259.4,101.4,263.6,105.6z"/>
		<path class="st49" d="M250.2,113.9V183c-2.2,2.2-3.4,3.4-5.6,5.6h-69.1c-2.2-2.2-3.4-3.4-5.6-5.6v-69.1c2.2-2.2,3.4-3.4,5.6-5.6
			h69.1C246.8,110.5,248,111.7,250.2,113.9z"/>
		<path class="st50" d="M280.1,88.2v120.4c-3.8,3.8-6,6-9.8,9.8H149.8c-3.8-3.8-6-6-9.8-9.8V88.2c3.8-3.8,6-6,9.8-9.8h120.4
			C274.1,82.2,276.2,84.4,280.1,88.2z"/>
		<path class="st51" d="M28.8,159.4c0,1.1-0.9,2.1-2.1,2.1c-1.1,0-2.1-0.9-2.1-2.1s0.9-2.1,2.1-2.1
			C27.9,157.3,28.8,158.2,28.8,159.4z"/>
		<path class="st51" d="M28.8,144.6c0,1.1-0.9,2.1-2.1,2.1c-1.1,0-2.1-0.9-2.1-2.1s0.9-2.1,2.1-2.1
			C27.9,142.5,28.8,143.4,28.8,144.6z"/>
		<path class="st51" d="M387.4,146.3c0,1.1-0.9,2.1-2.1,2.1s-2.1-0.9-2.1-2.1c0-1.1,0.9-2.1,2.1-2.1S387.4,145.2,387.4,146.3z"/>
		<path class="st51" d="M387.4,120.9c0,1.1-0.9,2.1-2.1,2.1s-2.1-0.9-2.1-2.1c0-1.1,0.9-2.1,2.1-2.1S387.4,119.7,387.4,120.9z"/>
		<path class="st51" d="M387.4,87.4c0,1.1-0.9,2.1-2.1,2.1s-2.1-0.9-2.1-2.1s0.9-2.1,2.1-2.1S387.4,86.3,387.4,87.4z"/>
		<path class="st51" d="M387.4,161.1c0,1.1-0.9,2.1-2.1,2.1s-2.1-0.9-2.1-2.1c0-1.1,0.9-2.1,2.1-2.1S387.4,159.9,387.4,161.1z"/>
		<path class="st51" d="M387.4,179.6c0,1.1-0.9,2.1-2.1,2.1s-2.1-0.9-2.1-2.1s0.9-2.1,2.1-2.1C386.4,177.6,387.4,178.5,387.4,179.6z
			"/>
		<path class="st51" d="M387.4,199c0,1.1-0.9,2.1-2.1,2.1s-2.1-0.9-2.1-2.1c0-1.1,0.9-2.1,2.1-2.1S387.4,197.9,387.4,199z"/>
		<path class="st51" d="M387.4,212.9c0,1.1-0.9,2.1-2.1,2.1s-2.1-0.9-2.1-2.1c0-1.1,0.9-2.1,2.1-2.1S387.4,211.7,387.4,212.9z"/>
		<path class="st51" d="M28.8,177.9c0,1.1-0.9,2.1-2.1,2.1c-1.1,0-2.1-0.9-2.1-2.1c0-1.1,0.9-2.1,2.1-2.1
			C27.9,175.8,28.8,176.8,28.8,177.9z"/>
		<path class="st51" d="M28.8,197.3c0,1.1-0.9,2.1-2.1,2.1c-1.1,0-2.1-0.9-2.1-2.1c0-1.1,0.9-2.1,2.1-2.1
			C27.9,195.2,28.8,196.1,28.8,197.3z"/>
		<path class="st51" d="M28.8,211.1c0,1.1-0.9,2.1-2.1,2.1c-1.1,0-2.1-0.9-2.1-2.1c0-1.1,0.9-2.1,2.1-2.1
			C27.9,209.1,28.8,210,28.8,211.1z"/>
		<path class="st51" d="M28.8,119.1c0,1.1-0.9,2.1-2.1,2.1c-1.1,0-2.1-0.9-2.1-2.1s0.9-2.1,2.1-2.1C27.9,117,28.8,118,28.8,119.1z"
			/>
		<path class="st51" d="M28.8,85.7c0,1.1-0.9,2.1-2.1,2.1c-1.1,0-2.1-0.9-2.1-2.1s0.9-2.1,2.1-2.1C27.9,83.6,28.8,84.6,28.8,85.7z"
			/>
		<path class="st52" d="M195,164.3h-9.5l10.7-32.4h12l10.7,32.4h-9.5l-7.1-23.5h-0.3L195,164.3z M193.2,151.5h17.9v6.6h-17.9V151.5z
			 M230.8,131.9v32.4H222v-32.4H230.8z"/>
		
			<linearGradient id="SVGID_50_" gradientUnits="userSpaceOnUse" x1="210.9359" y1="-12.5524" x2="210.9359" y2="8.4596" gradientTransform="matrix(1 0 0 -1 0 371.1292)">
			<stop  offset="0" style="stop-color:#01A982"/>
			<stop  offset="1" style="stop-color:#4EC7AB"/>
		</linearGradient>
		<path class="st53" d="M361,377.9c0,9.7-67.2,17.6-150.1,17.6s-150.1-7.9-150.1-17.6c0-0.2,0-0.9,0-1c0-3.3,0-10.2,0-15.3
			c0-0.2,0-0.3,0.1-0.5c2.4,9.5,68.6,17.1,150,17.1c81.4,0,147.7-7.6,150-17.1c0,0.2,0.1,0.3,0.1,0.5c0,0.2,0,0.3-0.1,0.5
			c0.2,0.8,0,1.7,0,2.4C361,365.4,361,377.8,361,377.9z"/>
		<path class="st54" d="M361,360.5c0,0.1,0,0.1,0,0.2c0,0.1,0,0.1,0,0.2c0,0,0,0.1,0,0.1c-2.3,9.5-68.6,17.1-150,17.1
			c-81.4,0-147.7-7.6-150-17.1c0,0,0-0.1,0-0.1c0-0.1,0-0.1,0-0.2c0-0.1,0-0.1,0-0.2c0-9.8,67.2-17.6,150.1-17.6
			C293.8,342.9,361,350.8,361,360.5z"/>
		<path class="st55" d="M60.9,361.1c2.4,9.5,68.6,17.1,150,17.1c81.4,0,147.7-7.6,150-17.1"/>
		
			<linearGradient id="SVGID_51_" gradientUnits="userSpaceOnUse" x1="210.9359" y1="13.7926" x2="210.9359" y2="34.8046" gradientTransform="matrix(1 0 0 -1 0 371.1292)">
			<stop  offset="0" style="stop-color:#01A982"/>
			<stop  offset="1" style="stop-color:#4EC7AB"/>
		</linearGradient>
		<path class="st56" d="M361,351.6c0,9.7-67.2,17.6-150.1,17.6s-150.1-7.9-150.1-17.6c0-0.2,0-0.9,0-1c0-3.3,0-10.2,0-15.3
			c0-0.2,0-0.3,0.1-0.5c2.4,9.5,68.6,17.1,150,17.1c81.4,0,147.7-7.6,150-17.1c0,0.2,0.1,0.3,0.1,0.5s0,0.3-0.1,0.5
			c0.2,0.8,0,1.7,0,2.4C361,339.1,361,351.4,361,351.6z"/>
		<path class="st54" d="M361,334.2c0,0.1,0,0.1,0,0.2c0,0.1,0,0.1,0,0.2c0,0,0,0.1,0,0.1c-2.3,9.5-68.6,17.1-150,17.1
			c-81.4,0-147.7-7.6-150-17.1c0,0,0-0.1,0-0.1c0-0.1,0-0.1,0-0.2c0-0.1,0-0.1,0-0.2c0-9.8,67.2-17.6,150.1-17.6
			C293.8,316.5,361,324.4,361,334.2z"/>
		<path class="st55" d="M60.9,334.7c2.4,9.5,68.6,17.1,150,17.1c81.4,0,147.7-7.6,150-17.1"/>
		<path class="st57" d="M210.9,343.3c82.9,0,150.1-7.9,150.1-17.6S293.8,308,210.9,308c-82.9,0-150.1,7.9-150.1,17.6
			S128,343.3,210.9,343.3z"/>
		<path class="st58" d="M361,290.4c0,0.1,0,0.1,0,0.2c0,0.1,0,0.1,0,0.2c0,0,0,0.1,0,0.1c-2.3,9.5-68.6,17.1-150,17.1
			c-81.4,0-147.7-7.6-150-17.1c0,0,0-0.1,0-0.1c0-0.1,0-0.1,0-0.2c0-0.1,0-0.1,0-0.2c0-9.8,67.2-17.6,150.1-17.6
			C293.8,272.7,361,280.6,361,290.4z"/>
		
			<linearGradient id="SVGID_52_" gradientUnits="userSpaceOnUse" x1="211.8771" y1="-20.5114" x2="211.8771" y2="398.167" gradientTransform="matrix(1 0 0 -1 0 371.1292)">
			<stop  offset="0" style="stop-color:#01A982"/>
			<stop  offset="1" style="stop-color:#FFFFFF;stop-opacity:0"/>
		</linearGradient>
		<path class="st59" d="M354.9-68.4h-286v378.1h286V-68.4z"/>
		<path class="st52" d="M275.3,290.4C275.3,290.4,275.3,290.4,275.3,290.4c0,0.1,0,0.1,0,0.2c-1,4.1-29.4,7.4-64.3,7.4
			c-34.9,0-63.3-3.3-64.3-7.3c0-0.1,0-0.1,0-0.1c0,0,0-0.1,0-0.1c0-4.2,28.8-7.6,64.3-7.6C246.5,282.8,275.3,286.2,275.3,290.4z"/>
		
			<linearGradient id="SVGID_53_" gradientUnits="userSpaceOnUse" x1="210.9359" y1="45.9056" x2="210.9359" y2="77.7946" gradientTransform="matrix(1 0 0 -1 0 371.1292)">
			<stop  offset="0" style="stop-color:#01A982"/>
			<stop  offset="1" style="stop-color:#4EC7AB"/>
		</linearGradient>
		<path class="st60" d="M361,313.7c-0.2,0.6,0,1.7,0,2.3c0,1,0,1.9,0,2.9c0,1.9,0,3.8,0,5.7c0,0.2,0,0.3-0.1,0.5
			c0,0.2,0.1,0.3,0.1,0.5c0,9.7-67.2,17.6-150.1,17.6s-150.1-7.9-150.1-17.6c0-0.2,0-0.3,0.1-0.5c0-0.2-0.1-0.3-0.1-0.5
			c0-3.3,0-6.7,0-10c0-2.6,0-5.2,0-7.7c0-5.1,0-10.3,0-15.4c0-0.2,0-0.3,0.1-0.5c2.4,9.5,68.6,17.1,150,17.1
			c81.4,0,147.7-7.6,150-17.1c0,0.2,0.1,0.3,0.1,0.5c0,0.2,0,0.3-0.1,0.5c0.2,0.8,0,1.7,0,2.4c0,0.9,0,1.8,0,2.6c0,1.8,0,3.6,0,5.4
			c0,3.6,0,7.2,0,10.7C361,313.4,361,313.5,361,313.7z"/>
		<path class="st55" d="M60.9,290.9c2.4,9.5,68.6,17.1,150,17.1c81.4,0,147.7-7.6,150-17.1"/>
	</g>
</g>
</svg>
