<?xml version="1.0" encoding="utf-8"?>
<!-- Generator: Adobe Illustrator 25.3.1, SVG Export Plug-In . SVG Version: 6.00 Build 0)  -->
<svg version="1.1" id="圖層_1" xmlns="http://www.w3.org/2000/svg" xmlns:xlink="http://www.w3.org/1999/xlink" x="0px" y="0px"
	 viewBox="0 0 224 304" style="enable-background:new 0 0 224 304;" xml:space="preserve">
<style type="text/css">
	.st0{opacity:0.6;fill:#FFFFFF;fill-opacity:0.31;enable-background:new    ;}
</style>
<path class="st0" d="M28.3,24.6c7.3-7.7,14.5-15.4,21.8-23.1c0.2-0.2,0.3-0.4,0.4-0.5c0.9,0,1.7,0,2.6,0c-3,3.2-5.9,6.3-8.9,9.5
	C36.9,18.3,29.5,26.1,22.1,34c-0.1,0.1-0.3,0.3-0.5,0.4c-2.5-2.7-5-5.4-7.4-8c-2.2,2.3-4.2,4.5-6.2,6.7
	c12.1,12.9,24.3,25.7,36.5,38.8c2.4-2.6,4.9-5.3,7.4-8.1c2.6,2.8,5,5.5,7.6,8.3c1.6-1.8,3.2-3.4,4.7-5.1c0.1-0.1,0.1-0.5,0-0.8
	c-0.3-1.4,0.3-2.8,1.4-3.5c1.2-0.7,2.5-0.5,3.5,0.5c0.9,0.9,1.2,2.6,0.6,3.7c-0.6,1.2-2,1.9-3.2,1.5c-0.5-0.1-0.8,0-1.2,0.4
	c-1.8,2-3.7,4-5.6,6c-2.5-2.8-5-5.4-7.5-8.2c-2.7,2.9-5.2,5.6-7.6,8.2c-13.2-14-26.2-27.8-39.2-41.6c2.8-3,5.7-6.1,8.7-9.3
	c2.5,2.7,4.9,5.3,7.5,8.1C23.9,29.4,26.1,27,28.3,24.6z"/>
<path class="st0" d="M-2.4,41.1c-10.1,10.7-20.2,21.4-30.3,32.1c0.3,0.3,0.5,0.6,0.7,0.8c1.6,1.8,3.3,3.5,5,5.2
	c0.4,0.4,0.5,0.7,0.4,1.3c-0.3,1.4,0.2,2.7,1.3,3.4c1.1,0.7,2.4,0.6,3.4-0.3c1-0.9,1.3-2.3,0.8-3.6c-0.4-1.2-1.7-2.1-2.9-1.8
	c-1.1,0.2-1.6-0.2-2.2-0.9c-0.2-0.2-0.4-0.4-0.5-0.6c-1.1-1.2-2.2-2.4-3.5-3.8c10.2-10.8,20.2-21.4,30.4-32.2
	c-2.5-2.5-5-5.1-7.3-7.6C0,25.6,7,18.1,14.2,10.5c2.4,2.6,4.9,5.2,7.4,7.9c0.3-0.3,0.6-0.6,0.8-0.8c4.2-4.4,8.3-8.9,12.5-13.3
	c0.2-0.2,0.7-0.4,1-0.4c2.1,0.4,3.6-0.7,3.8-3c-1.9,0-3.9,0-5.8,0c0.5,1.4-0.4,2.1-1.2,3c-1.8,1.9-3.6,3.8-5.3,5.7
	c-1.9,2-3.8,4.1-5.8,6.3c-2.6-2.8-5.1-5.5-7.5-8.1c-8,8.5-16,17-24.1,25.6C-7.4,35.9-4.9,38.5-2.4,41.1z"/>
<path class="st0" d="M163.1,157.6c3.3-3.5,6.7-7.1,10.1-10.8c2.5,2.7,5,5.4,7.7,8.3c0.5-0.7,0.9-1.3,1.4-1.8
	c4.4-4.7,8.8-9.3,13.2-14c2.7-2.8,5.3-5.6,8-8.4c0-0.2,0-0.3,0-0.5c0.4-0.4,0.8-0.7,1.3-1.1c-0.5-0.5-0.9-0.8-1.3-1.2
	c-3.9-4.2-7.8-8.3-11.8-12.4c-0.5-0.5-0.8-0.9-0.5-1.7c0.1-0.5,0-1.1-0.1-1.6c-0.5-1.5-2-2.3-3.5-1.9c-1.6,0.5-2.4,2-2.1,3.7
	c0.3,1.6,1.7,2.6,3.4,2.3c0.7-0.2,1.1,0.1,1.6,0.6c2.3,2.5,4.6,5,7,7.4c1.6,1.7,3.2,3.3,4.7,4.8c-7.3,7.7-14.4,15.3-21.6,22.9
	c-2.4-2.6-4.9-5.2-7.4-7.9c-1.1,1.2-2.2,2.3-3.2,3.4c-5.7,6-11.4,12.1-17.1,18.2c-0.6,0.6-1.1,1.2-2,0.8c-0.2-0.1-0.5,0-0.7,0
	c-1.6,0.3-2.7,1.9-2.4,3.6c0.3,1.6,1.8,2.8,3.4,2.5c1.7-0.3,2.7-1.9,2.3-3.7c-0.1-0.5-0.1-0.9,0.3-1.3
	C156.8,164.4,159.9,161,163.1,157.6z"/>
<path class="st0" d="M180.6,216.4c-2.4-2.6-4.9-5.2-7.3-7.8c-3,3.2-5.9,6.3-8.9,9.4c0.2,0.2,0.4,0.4,0.6,0.7c1.7,1.8,3.3,3.6,5,5.3
	c0.4,0.4,0.5,0.7,0.4,1.3c-0.4,1.4,0.2,2.8,1.4,3.4c1.1,0.7,2.5,0.4,3.4-0.5c0.9-0.9,1.1-2.4,0.5-3.7c-0.6-1.3-1.8-1.8-3.2-1.6
	c-0.3,0.1-0.7,0.1-0.9-0.1c-1.6-1.6-3.1-3.3-4.6-4.8c2.1-2.3,4.2-4.5,6.3-6.8c2.5,2.6,4.9,5.3,7.4,8c0.2-0.2,0.4-0.3,0.5-0.5
	c4.3-4.5,8.6-9.1,12.8-13.6c3.1-3.3,6.3-6.6,9.4-10c0-0.2,0-0.3,0-0.5c0.4-0.4,0.8-0.7,1.3-1.2c-0.5-0.4-0.9-0.8-1.3-1.2
	c-4.6-4.9-9.1-9.8-13.9-14.8c1.6-1.7,3.3-3.4,5-5.1c2.8-3,5.6-6,8.4-8.9c0.2-0.2,0.3-0.3,0.5-0.4c0-0.2,0-0.3,0-0.5
	c0.2-0.2,0.4-0.4,0.7-0.6c4.2-4.4,8.3-8.9,12.5-13.3c0.4-0.4,0.7-0.6,1.3-0.4c1.3,0.4,2.6-0.2,3.2-1.4c0.6-1.2,0.5-2.6-0.4-3.7
	c-0.8-1-2.3-1.3-3.4-0.7c-1.1,0.5-1.9,1.9-1.6,3.2c0.3,1-0.2,1.5-0.7,2.1c-2.4,2.5-4.7,5-7.1,7.5c-1.5,1.6-3,3.1-4.5,4.6
	c0,0.2,0,0.3,0,0.5c-0.1,0.1-0.3,0.2-0.4,0.3c-3.6,3.9-7.3,7.7-10.9,11.6c-1.7,1.8-3.4,3.5-5.2,5.5c5.1,5.4,10.2,10.7,15.1,15.9
	C194.8,201.3,187.8,208.8,180.6,216.4z"/>
<path class="st0" d="M-28.2,126.2c1.4,1.5,2.9,3.1,4.5,4.8c7.6-8.1,15.2-16.1,22.5-24c4.6,4.9,9.2,9.7,13.8,14.6
	c0,0-0.1,0.1-0.1,0.2c-3.9,4.2-7.9,8.3-11.8,12.5c-0.2,0.2-0.8,0.3-1.1,0.3c-1.3-0.2-2.5,0.3-3.2,1.5c-0.6,1.2-0.4,2.8,0.5,3.7
	c0.9,0.9,2.3,1.1,3.5,0.5c1.1-0.6,1.7-2,1.4-3.3c-0.1-0.6-0.1-0.9,0.3-1.4c3.8-4,7.5-8,11.3-11.9c0.7-0.7,1.4-1.3,2-1.8
	c-5.6-6-11.1-11.8-16.5-17.5c-7.5,7.9-15,15.9-22.6,24c-2-2.1-3.9-4.2-5.8-6.2c-3.1-3.3-6.3-6.6-9.4-10c0,0.9,0,1.9,0,2.8
	c0.1,0.1,0.3,0.2,0.4,0.3C-35.1,118.9-31.7,122.6-28.2,126.2z"/>
<path class="st0" d="M180.8,171c2.5-2.6,4.9-5.2,7.4-7.8c4.2-4.5,8.5-9,12.7-13.5c0.8-0.9,1.7-1.7,2.6-2.6c0-0.2,0-0.4,0-0.7
	c0.2-0.1,0.4-0.2,0.6-0.4c1.7-1.8,3.4-3.6,5.1-5.4c0.4-0.4,0.7-0.6,1.3-0.4c1.6,0.4,3.2-0.7,3.5-2.3c0.3-1.3-0.3-2.7-1.3-3.4
	c-0.9-0.6-2.4-0.6-3.3,0.1c-1,0.8-1.4,1.9-1.2,3.3c0.1,0.3,0,0.8-0.2,1c-1.5,1.6-3,3.2-4.5,4.8c0,0.2,0,0.3,0,0.5
	c-1.2,1.2-2.4,2.4-3.6,3.7c-4.6,4.9-9.2,9.7-13.7,14.6c-1.8,1.9-3.5,3.9-5.3,6c-2.7-2.9-5.2-5.6-7.6-8.2
	c-5.5,5.8-10.9,11.6-16.3,17.3c2.9,3.1,5.8,6.2,8.8,9.4c2.5-2.7,4.9-5.4,7.5-8.2c1.6,1.7,3.1,3.4,4.5,5c0.2,0.2,0.2,0.6,0.1,1
	c-0.1,1-0.1,2,0.6,2.8c1,1.2,2.6,1.4,3.8,0.6c1.1-0.8,1.6-2.4,1.2-3.7c-0.5-1.4-1.9-2.3-3.4-1.9c-0.6,0.1-0.8,0-1.2-0.4
	c-1.8-2-3.7-4.1-5.7-6.3c-2.6,2.8-5.1,5.5-7.5,8.2c-2.1-2.2-4.2-4.4-6.2-6.6c4.6-4.8,9.1-9.7,13.9-14.8
	C175.8,165.6,178.3,168.3,180.8,171z"/>
<path class="st0" d="M96.6,258.1c0.3,0.4,0.7,0.8,1.1,1.3c0.4-0.5,0.7-0.9,1-1.3c0.1,0,0.1,0,0.2,0c0.1-0.1,0.1-0.3,0.2-0.4
	c2.6-2.7,5.1-5.4,7.7-8.2c2.7-2.9,5.4-5.8,8.1-8.6c1.7-1.9,3.5-3.7,5.3-5.5c4.7,5,9.2,9.8,14,14.9c-2.5,2.6-5,5.2-7.5,7.8
	c0,0,0,0,0,0c0,0,0,0-0.1,0.1c-1.4,1.5-2.7,3-4.1,4.5c-0.4,0.4-0.7,0.6-1.4,0.4c-1.2-0.4-2.6,0.4-3.2,1.6c-0.6,1.3-0.4,2.7,0.6,3.7
	c0.9,0.9,2.3,1.1,3.4,0.4c1.2-0.7,1.8-2.1,1.4-3.4c-0.2-0.6,0-0.9,0.3-1.3c1.9-2,3.7-4,5.5-6c2.6-2.6,5.1-5.1,7.6-7.6
	c-5.7-6.1-11.2-11.8-16.7-17.7c-7.5,7.9-15,15.9-22.5,23.9c-0.2-0.1-0.3-0.3-0.4-0.4c-6.4-6.8-12.8-13.6-19.2-20.4
	c-0.2-0.3-0.3-0.8-0.3-1.2c0.2-1.4-0.3-2.8-1.5-3.4c-1.1-0.6-2.6-0.4-3.5,0.6c-0.9,1-1.1,2.5-0.4,3.7c0.6,1.2,1.9,1.8,3.2,1.4
	c0.5-0.1,0.8,0,1.2,0.4c4.4,4.7,8.9,9.4,13.4,14.2c2.1,2.2,4.1,4.4,6.1,6.6C96.2,258.1,96.4,258.1,96.6,258.1z"/>
<path class="st0" d="M123.9,212.6c-1.7,1.7-3.4,3.5-5,5.1c8.1,8.6,16.1,17.1,24.2,25.6c2.4-2.6,4.9-5.3,7.4-8
	c0.1,0.1,0.2,0.2,0.3,0.3c5.7,6,11.4,12.1,17.1,18.2c1.3,1.4,2.6,2.9,3.9,4.3c0.2,0,0.4,0,0.6,0c2.5,2.6,5,5.1,7.5,7.7
	c-0.3,0.4-0.4,0.5-0.5,0.7c-6.4,6.8-12.8,13.5-19.2,20.3c-0.4,0.4-0.7,0.5-1.3,0.4c-1.3-0.4-2.5,0.3-3.1,1.5
	c-0.6,1.3-0.4,2.7,0.5,3.7c0.9,0.9,2.3,1.1,3.5,0.5c1.1-0.6,1.7-2,1.4-3.4c-0.2-0.7,0-1,0.4-1.4c6-6.3,12-12.7,18-19.1
	c0.9-1,1.8-1.9,2.7-3c-0.7-0.8-1.4-1.5-2-2.2c-1.8-1.9-3.6-3.9-5.4-5.8c-0.2,0-0.4,0-0.6,0c-0.6-0.6-1.1-1.3-1.7-1.9
	c-5.2-5.5-10.4-11-15.6-16.6c-2.2-2.3-4.3-4.6-6.6-7.1c-2.6,2.8-5,5.4-7.4,8c-7.1-7.5-14.2-15.1-21.4-22.6c1.3-1.4,2.8-2.9,4.1-4.4
	c0.5-0.5,0.9-0.7,1.6-0.5c1.6,0.4,3.2-0.9,3.3-2.6c0.2-1.9-1.1-3.5-2.8-3.5c-1.7,0-3.3,1.6-2.9,3.3
	C125.1,211.4,124.6,211.9,123.9,212.6z"/>
<path class="st0" d="M158,47.7c-2.5-2.7-5-5.3-7.5-8.1c-1.9,2.1-3.7,4-5.5,6c-0.5,0.5-0.9,0.7-1.6,0.5c-1-0.3-2,0.1-2.7,1
	c-1,1.3-1,2.8,0,4.1c0.7,1,2.3,1.3,3.4,0.7c1.3-0.6,1.9-2,1.6-3.6c-0.1-0.3-0.1-0.6,0-0.8c1.5-1.7,3.1-3.3,4.8-5.2
	c2.5,2.8,4.9,5.4,7.3,8.1C171,36.5,184,22.7,197.2,8.7c-0.2-0.2-0.6-0.4-0.9-0.7c-2.2-2.4-4.4-4.7-6.6-7.1c-0.9,0-1.7,0-2.6,0
	c2.5,2.6,5.1,5.3,7.6,7.9C182.4,21.9,170.2,34.8,158,47.7z"/>
<path class="st0" d="M-33.4,230.5c-1.8-1.9-3.7-3.9-5.5-5.8c0,0.9,0,1.9,0,2.8c1.5,1.5,2.9,3,4.4,4.5c1.1,1.1,2.1,2.3,3.1,3.4
	c3.1-3.2,6-6.3,9.1-9.6c-2.5-2.6-5.1-5.2-7.7-8c7.6-8,15.2-16,22.7-24c-1.7-1.8-3.4-3.6-5.1-5.4c-0.7-0.7-1.1-1.3-0.9-2.4
	c0.3-1.8-1.1-3.2-2.7-3.3c-1.6-0.1-3,1.3-3,3.1c0,1.7,1.4,3.3,3,3.1c1.3-0.2,1.9,0.3,2.7,1.2c1,1.1,2.1,2.2,3.1,3.3
	c0.2,0.2,0.3,0.4,0.6,0.7c-7.6,8-15.1,16-22.7,24.1c2.5,2.6,5.1,5.2,7.5,7.7c-2.2,2.3-4.2,4.5-6.4,6.8
	C-32.2,231.9-32.8,231.2-33.4,230.5z"/>
<path class="st0" d="M51.2,242.6c3.4,3.7,6.9,7.3,10.3,11c1.4,1.5,2.7,3,4.1,4.5c0.1,0,0.1,0,0.2,0c-1.4,1.5-2.8,3-4.1,4.6
	c-0.4,0.4-0.7,0.5-1.3,0.4c-1.2-0.4-2.5,0.3-3.2,1.5c-0.7,1.3-0.4,2.7,0.5,3.7c0.8,0.9,2.3,1.1,3.4,0.6c1.2-0.7,1.8-2,1.5-3.4
	c-0.2-0.7,0-1.1,0.4-1.5c1.8-1.9,3.6-3.9,5.5-5.9c-0.1,0-0.2,0-0.3,0c0-0.1-0.1-0.2-0.1-0.2c-3.8-4.1-7.7-8.2-11.5-12.2
	c-1.1-1.2-2.2-2.3-3.3-3.3c7.3-7.7,14.4-15.2,21.5-22.8c0.1,0,0.1,0.1,0.2,0.2c3.8,4.1,7.7,8.2,11.5,12.2c0.5,0.5,0.6,0.9,0.5,1.6
	c-0.4,2.1,1.4,4,3.3,3.6c1.7-0.4,2.7-1.9,2.4-3.6c-0.3-1.7-1.7-2.7-3.4-2.4c-0.7,0.1-1.1-0.1-1.5-0.6c-1.4-1.5-2.8-3-4.2-4.5
	c-2.9-3.1-5.9-6.3-8.8-9.4c-8,8.5-16,17-24,25.5C50.9,242.2,51,242.4,51.2,242.6z"/>
<path class="st0" d="M164.5,9c-12.7,13.5-25.3,26.8-38.1,40.3c0.4,0.3,0.8,0.6,1.1,1c1.6,1.6,3.1,3.3,4.7,5c0.4,0.4,0.4,0.7,0.3,1.2
	c-0.3,1.4,0.3,2.8,1.4,3.4c1.2,0.7,2.5,0.5,3.4-0.5c0.9-0.9,1.1-2.5,0.6-3.6c-0.6-1.3-1.9-1.9-3.2-1.5c-0.6,0.2-1,0-1.4-0.5
	c-0.2-0.3-0.5-0.5-0.7-0.8c-1.2-1.2-2.4-2.4-3.8-3.8c12.8-13.5,25.4-26.9,38-40.3c-1.5-1.6-2.9-3.1-4.3-4.6c-1-1.1-2-2.2-3-3.3
	c-0.9,0-1.7,0-2.6,0c1.5,1.6,2.9,3.2,4.3,4.7C162.2,6.8,163.3,7.8,164.5,9z"/>
<path class="st0" d="M59.5,23.8C57,21,54.5,18.4,52,15.7c-0.3,0.3-0.5,0.5-0.7,0.7c-3.2,3.4-6.4,6.9-9.6,10.3
	c-3.5,3.7-7.1,7.5-10.6,11.2c-0.4,0.4-0.7,0.4-1.1,0.3c-1.4-0.3-2.6,0.3-3.3,1.5c-0.6,1.2-0.4,2.6,0.5,3.6c0.8,0.9,2.1,1.2,3.3,0.6
	c1.2-0.5,2-1.8,1.6-3.2c-0.2-1.1,0.3-1.6,0.8-2.2c4.6-4.9,9.2-9.8,13.8-14.7c1.7-1.9,3.4-3.8,5.2-5.8c2.7,2.9,5.1,5.6,7.6,8.2
	c0.2-0.1,0.3-0.2,0.3-0.3c7-7.4,14-14.8,21-22.3c0.9-0.9,1.7-1.9,2.5-2.9c-0.8,0-1.6,0-2.4,0c-0.1,0.1-0.2,0.3-0.3,0.4
	c-5.3,5.7-10.7,11.3-16,17C63,20.1,61.3,21.9,59.5,23.8z"/>
<path class="st0" d="M0.1,8.8c-1-1-2-2.1-3-3.1c-1.5-1.6-2.9-3.1-4.4-4.7c-0.9,0-1.9,0-2.8,0c-1.4,1.5-2.7,3-4.1,4.5
	c-0.6,0.7-1.2,1.5-2.1,2.5c-0.7-0.9-1.2-1.6-1.8-2.3c-1.4-1.6-2.9-3.2-4.3-4.7c-0.9,0-1.7,0-2.6,0c0.1,0.2,0.2,0.3,0.3,0.5
	c1.8,1.9,3.6,3.8,5.4,5.7c1,1.1,2,2.1,3.1,3.3c2.5-2.8,5-5.4,7.4-8C-6.6,4.6-4.6,6.8-2.5,9c-4.6,4.8-9.1,9.7-13.7,14.6
	c-0.2-0.1-0.3-0.3-0.5-0.4c-2.1-2.2-4.1-4.4-6.2-6.6c-4.9-5.2-9.8-10.4-14.7-15.7c-0.4,0-0.9,0-1.3,0c0,0.5,0,0.9,0,1.4
	c7.6,8,15.1,16,22.6,23.9C-10.9,20.4-5.4,14.6,0.1,8.8z"/>
<path class="st0" d="M149.1,217.8c0.3,0.4,0.5,0.6,0.8,0.9c3.3,3.5,6.6,7,9.9,10.6c8.5,9,17,18.1,25.5,27.1c0.5,0.5,1,1.2,1.5,1.7
	c0.2,0,0.4,0,0.6,0c2.5,2.6,5,5.2,7.5,7.8c-12.3,13-24.5,25.9-36.7,38.9c-2.5-2.7-5-5.3-7.5-8.1c-1.9,2.1-3.7,4-5.5,6
	c-0.5,0.5-0.9,0.7-1.6,0.5c-1-0.3-2,0.1-2.7,1c-1,1.3-1,2.8,0,4.1c0.7,1,2.3,1.3,3.4,0.7c1.3-0.6,1.9-2,1.6-3.6
	c-0.1-0.3-0.1-0.6,0-0.8c1.5-1.7,3.1-3.3,4.8-5.2c2.5,2.8,4.9,5.4,7.3,8.1c13.1-13.9,26.1-27.7,39.3-41.8c-0.2-0.2-0.6-0.4-0.9-0.7
	c-2.2-2.4-4.4-4.7-6.6-7.1c-0.2,0-0.3,0-0.5,0c-0.1-0.1-0.2-0.3-0.3-0.4c-5-5.3-10-10.6-15-15.9c-6.9-7.3-13.8-14.6-20.6-21.8
	c-0.6-0.6-1.2-1.3-1.8-2c1.3-1.4,2.5-2.6,3.6-3.9c0.7-0.8,1.4-1.6,2.6-1c0.1,0.1,0.3,0,0.5,0c1.6-0.3,2.7-1.9,2.5-3.5
	c-0.3-1.8-1.7-2.9-3.4-2.6c-1.6,0.3-2.7,1.9-2.3,3.6c0.1,0.7,0,1.1-0.4,1.5C152.9,213.9,151,215.9,149.1,217.8z"/>
<path class="st0" d="M-2,250.5c2.2,2.4,4.5,4.7,6.7,7.1c0.1,0.1,0.2,0.4,0.3,0.5c0.2,0,0.4,0,0.5,0c0.3,0.4,0.7,0.9,1.1,1.4
	c0.5-0.6,0.9-1,1.2-1.4c2.1-2.1,4.2-4.3,6.3-6.5c1.4,1.6,3,3.1,4.4,4.9c0.3,0.3,0,1.1,0,1.7c0.1,0,0.2,0,0.3,0
	c0.1,0.3,0.1,0.5,0.2,0.8c0.5,1.9,2.6,2.8,4.2,1.9c1-0.6,1.4-1.6,1.6-2.7c-0.1,0-0.2,0-0.3,0c-0.1-0.3-0.1-0.6-0.2-0.9
	c-0.4-1.4-1.8-2.5-3-2.1c-1.1,0.4-1.6-0.2-2.3-0.9c-1.7-1.8-3.4-3.6-5.2-5.6c-2.5,2.8-5,5.4-7.4,8.1c-2.1-2.3-4.2-4.5-6.3-6.8
	c2.5-2.6,5-5.2,7.5-7.9c-1.9-2-3.7-4-5.6-6c-0.4-0.4-0.6-0.7-0.4-1.4c0.3-1.2,0-2.2-0.9-3c-1-0.9-2.7-1-3.7-0.1
	c-1.1,0.9-1.4,2.5-0.8,3.8c0.6,1.3,1.9,1.9,3.3,1.6c0.3-0.1,0.7-0.1,0.9,0.1c1.6,1.6,3.1,3.3,4.8,5c-2.6,2.7-5.1,5.3-7.6,8
	C-2.2,250.2-2.1,250.4-2,250.5z"/>
<path class="st0" d="M126.7,19.4c4.5-4.7,8.9-9.4,13.4-14.2c1.3-1.4,2.6-2.9,3.9-4.3c-0.8,0-1.6,0-2.4,0c-0.1,0.1-0.1,0.2-0.2,0.2
	c-6.3,6.6-12.5,13.3-18.8,19.9c-0.8,0.9-1.7,1.7-2.5,2.6c-4.7-4.9-9.3-9.8-14.1-14.8c2.6-2.6,5.1-5.2,7.7-7.8c-0.9,0-1.7,0-2.6,0
	c-0.2,0.3-0.4,0.6-0.7,0.8c-2.3,2.4-4.5,4.8-6.7,7c5.5,5.9,11,11.7,16.5,17.5C122.4,24.1,124.6,21.7,126.7,19.4z"/>
<path class="st0" d="M-19.9,46.4c1.6-1.7,3.3-3.4,5.1-5.2c-1.9-1.9-3.5-3.7-5.2-5.4c-4.8-5.1-9.6-10.3-14.5-15.4
	c-1.5-1.6-3-3.1-4.5-4.6c0,0.9,0,1.9,0,2.8c0.2,0.2,0.5,0.3,0.6,0.5c5.7,6.1,11.5,12.1,17.2,18.2c1.2,1.3,2.4,2.6,3.6,3.8
	c-0.2,0.2-0.3,0.3-0.4,0.4c-4,4.3-8,8.5-12,12.8c-3,3.2-6,6.3-9,9.5c0,0.9,0,1.7,0,2.6c0.2-0.2,0.5-0.3,0.7-0.5
	C-32.2,59.4-26.1,52.9-19.9,46.4z"/>
<path class="st0" d="M159.9,29.7c-0.4,0.4-0.7,0.5-1.3,0.4c-1.3-0.4-2.5,0.3-3.1,1.5c-0.6,1.3-0.4,2.7,0.5,3.7
	c0.9,0.9,2.3,1.1,3.5,0.5c1.1-0.6,1.7-2,1.4-3.4c-0.2-0.7,0-1,0.4-1.4c6-6.3,12-12.7,18-19.1c0.9-1,1.8-1.9,2.7-3
	c-0.7-0.8-1.4-1.5-2-2.2c-1.8-1.9-3.6-3.9-5.4-5.8c-0.9,0-1.7,0-2.6,0c2.5,2.6,5.1,5.2,7.6,7.8c-0.3,0.4-0.4,0.5-0.5,0.7
	C172.7,16.2,166.3,22.9,159.9,29.7z"/>
<path class="st0" d="M-23.2,193.1c-4.2-4.4-8.3-8.8-12.5-13.3c-0.3-0.3-0.5-0.8-0.4-1.1c0.4-2.2-0.7-3.8-2.8-4c0,2,0,4.1,0,6.1
	c1.3-0.5,2,0.4,2.8,1.3c3,3.2,6,6.4,9.1,9.6c0.7,0.7,1.3,1.4,2.1,2.2c-2.5,2.6-4.9,5.1-7.3,7.6c-2.2,2.3-4.4,4.6-6.6,6.9
	c0,0.9,0,1.9,0,2.8c5.4-5.8,10.9-11.6,16.4-17.4C-22.8,193.6-23,193.3-23.2,193.1z"/>
<path class="st0" d="M191.8,28c-1.6,1.7-3.2,3.3-4.9,5c0.2,0.3,0.3,0.4,0.4,0.5c4,4.3,8,8.5,12,12.8c1.3,1.4,2.7,2.8,4.1,4.2
	c0-0.1,0-0.2,0-0.3c0.1-0.1,0.2-0.1,0.3-0.2c1.7-1.8,3.4-3.6,5.1-5.4c1.1-1.2,2.2-2.4,3.4-3.6c-2-2.1-3.8-4-5.7-6
	c-0.3-0.4-0.5-0.7-0.4-1.3c0.5-2-0.8-3.7-2.8-3.8c0,0.1,0,0.2,0,0.2c-1.7,0.1-2.9,1.4-2.9,3c0,1.7,1.2,3,3,3.1c0-0.1,0-0.2,0-0.3
	c1.1-0.4,1.8,0.1,2.5,1c1.2,1.4,2.4,2.6,3.7,4c-1.2,1.3-2.4,2.6-3.7,3.9c-0.8,0.9-1.7,1.7-2.6,2.6c0,0.1,0,0.1,0,0.2
	c-0.2-0.1-0.4-0.2-0.5-0.4c-2.8-3-5.6-5.9-8.4-8.9c-1.6-1.7-3.3-3.4-5-5.1c0.4-0.4,0.5-0.6,0.7-0.8c3.9-4.2,7.9-8.3,11.8-12.5
	c0.4-0.5,0.9-0.9,1.4-1.3c0-0.1,0-0.1,0-0.2c0.2,0.2,0.4,0.3,0.6,0.5c5.7,6.1,11.5,12.1,17.2,18.2c1.2,1.3,2.4,2.6,3.6,3.8
	c-0.2,0.2-0.3,0.3-0.4,0.4c-4,4.3-8,8.5-12,12.8c-3,3.2-6,6.3-9,9.5c0,0.1,0,0.1,0,0.2c-3.5-3.7-7.1-7.4-10.6-11.2
	c-1.5-1.6-3-3.2-4.5-4.9c-6.9,7.4-13.8,14.6-20.6,21.8c-0.4,0.5-0.8,0.9-1.6,0.7c-1.3-0.4-2.6,0.3-3.2,1.5c-0.6,1.2-0.4,2.8,0.5,3.7
	c0.9,0.9,2.3,1.2,3.3,0.6c1.2-0.7,1.9-2,1.5-3.5c-0.1-0.6,0-0.9,0.4-1.3c3.9-4.2,7.9-8.3,11.8-12.5c2.6-2.7,5.1-5.5,7.7-8.2
	c0.2,0.2,0.4,0.3,0.5,0.4c4.7,5,9.3,9.9,14,14.9c0.2,0.2,0.5,0.4,0.7,0.6c0-0.1,0-0.2,0-0.3c0.2-0.1,0.4-0.3,0.6-0.5
	c6.1-6.5,12.2-13,18.4-19.5c1.6-1.7,3.3-3.4,5.1-5.2c-1.9-1.9-3.5-3.7-5.2-5.4c-4.8-5.1-9.6-10.3-14.5-15.4c-1.5-1.6-3-3.1-4.5-4.6
	c0,0.1,0,0.2,0,0.3c-0.2,0.2-0.4,0.3-0.6,0.5C199.2,20.2,195.5,24.1,191.8,28z"/>
<path class="st0" d="M-38.3,162.3c4.2-4.4,8.3-8.9,12.5-13.3c0.4-0.4,0.7-0.6,1.3-0.4c1.3,0.4,2.6-0.2,3.2-1.4
	c0.6-1.2,0.5-2.6-0.4-3.7c-0.8-1-2.3-1.3-3.4-0.7c-1.1,0.5-1.9,1.9-1.6,3.2c0.3,1-0.2,1.5-0.7,2.1c-2.4,2.5-4.7,5-7.1,7.5
	c-1.5,1.6-3,3.1-4.5,4.6c0,0.9,0,1.9,0,2.8C-38.7,162.8-38.5,162.5-38.3,162.3z"/>
<path class="st0" d="M-27.2,95.1c0.5,0.5,0.8,1,0.6,1.9c-0.3,1.4,0.4,2.7,1.6,3.3c1.2,0.6,2.5,0.3,3.4-0.7c0.9-1,1-2.3,0.4-3.6
	c-0.6-1.2-2-1.9-3.2-1.5c-0.6,0.2-0.9,0-1.3-0.4c-2.2-2.3-4.4-4.7-6.6-7c-2.2-2.3-4.4-4.6-6.6-6.9c0,0.9,0,1.9,0,2.8
	c0.1,0.1,0.2,0.1,0.3,0.2C-34.8,87-31,91-27.2,95.1z"/>
<path class="st0" d="M-33.5,44.8c1.1-1.2,2.2-2.4,3.4-3.6c-2-2.1-3.8-4-5.7-6c-0.3-0.4-0.5-0.7-0.4-1.3c0.5-2-0.8-3.7-2.8-3.8
	c0,2,0,4.1,0,6.1c1.1-0.4,1.8,0.1,2.5,0.9c1.2,1.4,2.4,2.6,3.7,4c-1.2,1.3-2.4,2.6-3.7,3.9c-0.8,0.9-1.7,1.7-2.6,2.6
	c0,0.9,0,1.9,0,2.8c0.1-0.1,0.3-0.1,0.4-0.3C-36.9,48.4-35.2,46.6-33.5,44.8z"/>
<path class="st0" d="M-34.3,103.8c0.2,0.2,0.1,0.6,0.1,0.9c-0.3,1.4,0.3,2.8,1.4,3.5c1.1,0.7,2.6,0.5,3.5-0.5c1-1,1.1-2.5,0.5-3.7
	c-0.7-1.2-2-1.8-3.3-1.4c-0.5,0.1-0.8,0-1.1-0.3c-1.9-2-3.8-4-5.7-6c0,0.9,0,1.9,0,2.8C-37.4,100.5-35.8,102.1-34.3,103.8z"/>
<path class="st0" d="M121.5,11.7c1.2-0.7,1.8-2.1,1.4-3.4c-0.2-0.6,0-0.9,0.3-1.3c1.9-2,3.7-4,5.6-6c-0.9,0-1.7,0-2.6,0
	c-1.4,1.5-2.8,3.1-4.2,4.6c-0.4,0.4-0.7,0.6-1.4,0.4c-1.2-0.4-2.6,0.4-3.2,1.6c-0.6,1.3-0.4,2.7,0.6,3.7
	C119.1,12.2,120.5,12.3,121.5,11.7z"/>
<path class="st0" d="M60.8,11.8c1.2-0.7,1.8-2,1.5-3.4c-0.2-0.7,0-1.1,0.4-1.5c1.8-1.9,3.6-3.9,5.5-5.9c-0.9,0-1.7,0-2.6,0
	c-1.4,1.6-2.8,3.1-4.2,4.7C61,6,60.7,6.2,60.1,6c-1.2-0.4-2.5,0.3-3.2,1.5c-0.7,1.3-0.4,2.7,0.5,3.7C58.3,12.1,59.8,12.3,60.8,11.8z
	"/>
<path class="st0" d="M-33.3,140.9c0.4-0.4,0.7-0.6,1.3-0.4c1.6,0.4,3.2-0.7,3.5-2.3c0.3-1.3-0.3-2.7-1.3-3.4
	c-0.9-0.6-2.4-0.6-3.3,0.1c-1,0.8-1.4,1.9-1.2,3.3c0.1,0.3,0,0.8-0.2,1c-1.5,1.6-3,3.2-4.5,4.8c0,0.9,0,1.7,0,2.6
	c0.2-0.1,0.4-0.2,0.6-0.4C-36.7,144.6-35,142.8-33.3,140.9z"/>
<path class="st0" d="M23,3.7c1-0.6,1.4-1.6,1.6-2.7c-2,0-4,0-6,0c0.1,0.3,0.1,0.6,0.2,0.9C19.3,3.7,21.4,4.6,23,3.7z"/>
<path class="st0" d="M-36,242c0-1.6-1.2-2.8-3-3.1c0,2,0,4.1,0,6.1c0.1,0,0.2,0.1,0.4,0C-37.2,244.9-36,243.5-36,242z"/>
<path class="st0" d="M7.7,0.9c-0.8,0-1.6,0-2.4,0C5.6,1.4,6,1.9,6.4,2.4C6.9,1.8,7.3,1.4,7.7,0.9z"/>
<path class="st0" d="M98.5,0.9c-0.7,0-1.5,0-2.2,0c0.4,0.4,0.7,0.9,1.2,1.4C97.8,1.8,98.1,1.4,98.5,0.9z"/>
<path class="st0" d="M-39,128.4c0,0.8,0,1.6,0,2.4c0.4-0.4,0.8-0.7,1.3-1.2C-38.2,129.1-38.6,128.7-39,128.4z"/>
<path class="st0" d="M-39,192.6c0,0.8,0,1.6,0,2.4c0.4-0.4,0.8-0.7,1.3-1.2C-38.2,193.4-38.6,193-39,192.6z"/>
<path class="st0" d="M105,154.6c5.4-5.7,10.8-11.4,16.2-17.1c-2.9-3.1-5.8-6.2-8.9-9.4c-2.5,2.6-4.9,5.3-7.3,7.9
	c-2.1-2.2-4.1-4.3-6.2-6.5c0.1-0.1,0.1-0.2,0.2-0.2c4-4.2,7.9-8.4,11.9-12.6c0.2-0.2,0.6-0.3,1-0.2c1.1,0.1,2.1,0.1,2.9-0.9
	c1-1.2,1.1-2.7,0.2-4c-0.8-1.1-2.2-1.5-3.5-0.9c-1.3,0.6-2,2-1.6,3.5c0.2,0.7-0.1,1-0.4,1.4c-2.3,2.4-4.5,4.8-6.8,7.2
	c-2.1,2.2-4.2,4.4-6.3,6.6c3,3.2,5.9,6.3,8.9,9.4c2.5-2.6,4.9-5.2,7.3-7.8c2.1,2.2,4.2,4.4,6.3,6.5c-4.6,4.9-9.2,9.7-13.7,14.6
	c-14.6-15.5-29.3-31.1-44.2-46.9C73.3,91.9,86,78.6,98.7,65c-0.3-0.2-0.6-0.4-0.9-0.6c-4.2-4.4-8.3-8.8-12.5-13.2
	c-0.3-0.3-0.6-0.6-0.4-1.2c0.4-1.5-0.2-2.8-1.4-3.5c-1.1-0.7-2.5-0.4-3.5,0.5c-0.9,1-1.1,2.5-0.5,3.7c0.6,1.2,1.9,1.8,3.3,1.4
	c0.5-0.1,0.8,0,1.1,0.4c2.2,2.4,4.5,4.8,6.8,7.2c1.7,1.8,3.5,3.6,5.4,5.6c-12.7,13.5-25.3,26.8-37.8,40
	C74.1,121.8,89.6,138.3,105,154.6z"/>
<path class="st0" d="M144.4,94.7c-1.1-0.7-2.5-0.5-3.5,0.4c-0.9,0.9-1.2,2.4-0.7,3.6c0.6,1.3,1.8,2.1,3.1,1.7
	c0.7-0.2,1.1,0.1,1.6,0.6c8,8.5,15.9,16.9,23.9,25.4c1,1,2,2,3,3c-9.8,10.4-19.4,20.6-29.1,30.9c-2.4-2.6-4.9-5.3-7.4-7.9
	c-3,3.1-5.9,6.2-8.8,9.3c13,13.8,26,27.6,39.2,41.6c2.5-2.7,4.9-5.3,7.5-8.2c2.6,2.8,5,5.5,7.5,8.2c1.9-2,3.8-4,5.6-6
	c0.4-0.4,0.7-0.6,1.3-0.4c1,0.3,1.8,0,2.6-0.7c1.1-1,1.2-2.7,0.5-4c-0.7-1.2-2.3-1.7-3.5-1.2c-1.3,0.6-2,2-1.8,3.5
	c0.1,0.4,0.1,0.9-0.1,1.1c-1.5,1.7-3,3.3-4.7,5.2c-2.6-2.8-5-5.5-7.6-8.3c-2.5,2.7-5,5.4-7.4,8c-12.2-13-24.4-25.9-36.4-38.6
	c2.1-2.2,4.1-4.4,6.4-6.8c2.4,2.6,4.9,5.3,7.2,7.8c10.5-11.1,21-22.3,31.6-33.5c-0.1-0.1-0.2-0.1-0.4-0.3
	c-9.3-9.8-18.6-19.7-27.9-29.6c-0.4-0.4-0.6-0.7-0.4-1.3C146.1,96.7,145.5,95.4,144.4,94.7z"/>
<path class="st0" d="M68.6,161.8c4.6-4.9,9.1-9.8,13.5-14.5c7.1,7.5,14.2,15,21.2,22.4c-7,7.5-14.1,15-21.3,22.7
	c-5-5.3-10-10.6-15-15.9c-0.2,0.2-0.4,0.4-0.7,0.6c-6.7,7.1-13.4,14.2-20.1,21.3c-0.4,0.5-0.8,0.6-1.4,0.4c-1.2-0.4-2.5,0.4-3.1,1.6
	c-0.6,1.3-0.4,2.6,0.6,3.7c0.8,0.9,2.2,1.1,3.4,0.5c1.1-0.6,1.8-2,1.5-3.3c-0.3-0.9,0.2-1.3,0.6-1.7c4.9-5.1,9.7-10.3,14.6-15.4
	c1.6-1.6,3.1-3.3,4.7-5.2c5.1,5.5,10.1,10.9,15.1,16.1c8-8.5,16-16.9,23.9-25.3c-8-8.5-15.9-16.9-23.8-25.2
	c-5.4,5.7-10.8,11.5-16.2,17.1c5.4,5.7,10.8,11.5,16.2,17.2c2.9-3.1,5.8-6.1,8.7-9.3c-1.8-1.9-3.7-3.9-5.6-5.9
	c-0.3-0.4-0.6-0.6-0.4-1.3c0.4-1.4-0.2-2.8-1.3-3.5c-1.1-0.7-2.6-0.5-3.5,0.5c-0.9,1-1.1,2.5-0.5,3.7c0.6,1.1,1.9,1.7,3.2,1.5
	c0.3-0.1,0.7-0.1,0.8,0c1.6,1.6,3.2,3.3,4.6,4.8c-2.1,2.3-4.1,4.5-6.1,6.7C77.6,171.4,73.1,166.5,68.6,161.8z"/>
<path class="st0" d="M-12.6,132.4c-1.6,1.7-3.3,3.4-4.8,5c5.6,5.9,11,11.7,16.4,17.5c10-10.6,20-21.3,30.1-31.9
	c4.7,5,9.3,9.8,13.9,14.7C30.4,151,17.8,164.4,5.2,177.8c1.9,2,3.8,4,5.7,6c0.4,0.4,0.6,0.7,0.4,1.3c-0.4,1.6,0.4,3.2,1.8,3.6
	c1.2,0.4,2.4,0.1,3.2-0.9c0.8-1.1,0.9-2.5,0.2-3.7c-0.6-1-1.8-1.6-3.1-1.3c-0.3,0.1-0.7,0.1-0.9-0.1c-1.6-1.6-3.1-3.3-4.8-5.1
	c12.6-13.4,25.2-26.7,37.8-40c-5.5-5.8-10.9-11.6-16.5-17.5c-10,10.6-20.1,21.3-30.1,32c-4.6-4.9-9.2-9.7-13.7-14.6
	c0,0,0-0.1,0.1-0.1c4-4.2,7.9-8.5,11.9-12.7c0.2-0.2,0.7-0.3,1.1-0.2c0.9,0.2,1.7,0,2.5-0.6c1.2-0.9,1.4-2.6,0.7-4
	c-0.6-1.2-2.2-1.8-3.5-1.3c-1.4,0.5-2.1,1.9-1.9,3.4c0.1,0.4,0,1-0.2,1.3C-6.9,126.4-9.8,129.4-12.6,132.4z"/>
<path class="st0" d="M27.9,89.3c15.2,16.1,30.3,32.2,45.5,48.2c-12.2,12.9-24.3,25.9-36.6,38.9c-2.5-2.8-5-5.4-7.5-8.1
	c-1.9,2-3.7,3.9-5.5,5.8c-0.4,0.5-0.8,0.8-1.6,0.6c-1.3-0.4-2.7,0.5-3.2,1.9c-0.5,1.3-0.2,2.7,0.9,3.6c0.9,0.8,2.3,0.9,3.3,0.3
	c1.1-0.7,1.6-2,1.4-3.4c-0.1-0.4,0-0.9,0.2-1.1c1.4-1.6,2.9-3.2,4.6-5.1c2.6,2.8,5,5.5,7.4,8.1c13.1-13.9,26.1-27.7,39.3-41.6
	c-15.1-16-30.3-32.1-45.5-48.2c1.5-1.6,3.1-3.3,4.6-4.8c0.2-0.2,0.6-0.2,0.8-0.1c1.4,0.3,2.6-0.2,3.3-1.4c0.7-1.2,0.5-2.7-0.4-3.7
	c-0.9-1-2.3-1.2-3.4-0.6c-1.2,0.7-1.8,2-1.5,3.4c0.2,0.7-0.1,1.1-0.5,1.5C31.6,85.4,29.8,87.3,27.9,89.3z"/>
<path class="st0" d="M29.1,106.8c9.7,10.3,19.4,20.5,29,30.8c-0.1,0.1-0.2,0.3-0.3,0.4c-6.4,6.8-12.8,13.6-19.2,20.4
	c-0.2,0.2-0.7,0.3-1.1,0.2c-1.4-0.3-2.7,0.3-3.3,1.6c-0.6,1.1-0.3,2.8,0.5,3.6c1,1,2.3,1.2,3.4,0.5c1.2-0.7,1.8-2.1,1.4-3.5
	c-0.1-0.5,0-0.8,0.3-1.2c5.4-5.7,10.7-11.4,16.1-17c1.6-1.7,3.2-3.3,4.7-4.8c-10.7-11.3-21.1-22.4-31.7-33.7
	c-2.4,2.6-4.9,5.3-7.3,7.9c-7.2-7.6-14.3-15.1-21.4-22.7c1.4-1.5,2.9-3.1,4.3-4.6c0.4-0.4,0.7-0.5,1.2-0.3C7.2,84.6,8.5,84,9,82.7
	c0.6-1.3,0.4-2.7-0.5-3.6c-1-0.9-2.4-1.2-3.4-0.5c-1.2,0.7-1.7,2-1.4,3.5c0.1,0.4-0.1,1-0.4,1.3c-0.9,1.1-1.9,2.1-2.9,3.1
	c-0.9,1-1.9,1.9-2.8,2.8c8.1,8.6,16.1,17.1,24.1,25.6C24.2,112.1,26.7,109.5,29.1,106.8z"/>
<path class="st0" d="M94.1,207.7c0.4,0.4,0.6,0.8,0.5,1.5c-0.1,0.8,0,1.7,0.4,2.3c0.7,1.4,2.3,1.7,3.7,1.1c1.3-0.7,1.9-2.2,1.5-3.6
	c-0.5-1.6-1.8-2.4-3.3-2.2c-0.3,0.1-0.9,0.1-1.1-0.1c-1.6-1.6-3.1-3.2-4.8-5c10.2-10.8,20.2-21.4,30.5-32.3
	c-2.5-2.6-5.1-5.2-7.5-7.8c7.2-7.6,14.3-15.1,21.5-22.9c2.4,2.6,4.9,5.3,7.4,8c0.2-0.2,0.5-0.5,0.7-0.7c4.2-4.4,8.3-8.9,12.5-13.3
	c0.3-0.4,0.6-0.6,1.2-0.4c1.3,0.4,2.6-0.2,3.3-1.4c0.6-1.2,0.4-2.7-0.4-3.7c-0.9-1-2.3-1.2-3.5-0.6c-1.1,0.6-1.7,1.9-1.4,3.3
	c0.2,0.7,0,1-0.4,1.4c-2.7,2.8-5.4,5.7-8,8.5c-1.3,1.4-2.5,2.8-3.9,4.4c-2.6-2.9-5.1-5.5-7.6-8.2c-8,8.4-15.9,16.9-24.1,25.5
	c2.6,2.7,5.1,5.3,7.6,7.9c-10.1,10.7-20.2,21.4-30.3,32.1C90.4,203.9,92.2,205.8,94.1,207.7z"/>
<path class="st0" d="M90.9,22.5C85,28.8,79.1,35.1,73.2,41.3c-2.4,2.6-4.9,5.1-7.3,7.7C71,54.4,76,59.7,81,65
	c-7.3,7.7-14.4,15.3-21.7,23c-2.4-2.6-4.9-5.3-7.3-8c-3,3.2-5.9,6.2-8.8,9.4c1.8,2,3.7,3.9,5.5,5.8c0.4,0.5,0.7,0.9,0.5,1.6
	c-0.1,0.4-0.1,1,0,1.4c0.5,1.7,2.1,2.6,3.6,2.1c1.5-0.5,2.4-2.2,2-3.8c-0.4-1.7-1.9-2.5-3.6-2.1c-0.2,0.1-0.6,0.1-0.7-0.1
	c-1.6-1.6-3.2-3.3-4.7-4.9c2.1-2.3,4.2-4.5,6.4-6.9c2.5,2.7,4.9,5.3,7.3,7.9c8-8.4,15.9-16.9,24.1-25.5c-5-5.3-10-10.6-15.2-16
	c0.3-0.3,0.6-0.5,0.9-0.7c8.7-9.2,17.3-18.4,26-27.5c0.5-0.6,1-0.8,1.8-0.6c1.3,0.3,2.7-0.6,3.1-1.9c0.5-1.4,0-2.9-1.2-3.7
	c-1.1-0.7-2.1-0.7-3.2,0c-1.2,0.8-1.5,1.9-1.2,3.3c0.1,0.7,0,1-0.5,1.4C93,20.2,92,21.4,90.9,22.5z"/>
<path class="st0" d="M127.6,176.5c-0.1,0.1-0.3,0.3-0.4,0.4c-6.7,7.1-13.4,14.3-20.2,21.4c-0.4,0.5-0.8,0.7-1.4,0.5
	c-1.2-0.4-2.5,0.3-3.2,1.5c-0.6,1.1-0.4,2.6,0.4,3.6c0.9,1,2.2,1.3,3.3,0.7c1.2-0.6,2-1.8,1.7-3.2c-0.2-1,0.1-1.4,0.7-2
	c4.6-4.9,9.2-9.7,13.8-14.6c1.8-1.9,3.5-3.9,5.2-5.7c2.2,2.3,4.3,4.5,6.6,7c-2.5,2.6-5,5.2-7.4,7.6c2.9,3.1,5.8,6.2,9,9.6
	c2.4-2.7,4.9-5.3,7.3-8c2.1,2.2,4.1,4.3,6.3,6.6c-5,5.3-10.1,10.6-15.2,16c1.8,1.8,3.4,3.6,5.1,5.3c0.7,0.7,1.4,1.3,0.9,2.5
	c-0.1,0.1,0,0.4,0,0.6c0.2,1.8,1.8,3,3.4,2.7c1.6-0.3,2.6-1.9,2.3-3.6c-0.3-1.8-1.8-2.8-3.5-2.5c-0.3,0.1-0.7,0.1-0.9-0.1
	c-1.6-1.6-3.1-3.2-4.9-5c5.2-5.4,10.2-10.7,15.1-15.9c-2.9-3.1-5.8-6.2-8.8-9.5c-2.4,2.6-4.8,5.3-7.2,7.8c-2.2-2.2-4.3-4.4-6.4-6.6
	c2.5-2.6,5-5.2,7.4-7.7C133.5,182.8,130.6,179.7,127.6,176.5z"/>
<path class="st0" d="M6.4,47.9c-0.4,0.5-0.9,1-1.3,1.5c-6.4,6.8-12.8,13.6-19.2,20.4c-0.5,0.5-0.8,0.7-1.5,0.5
	c-2-0.5-3.8,1.5-3.4,3.6c0.4,1.7,1.8,2.7,3.4,2.4c1.6-0.3,2.6-1.8,2.3-3.6c-0.1-0.7,0-1.1,0.5-1.6C-8.1,66-3.3,60.9,1.5,55.8
	c1.6-1.7,3.2-3.5,4.8-5.2c2.2,2.3,4.3,4.5,6.4,6.7c-2.5,2.6-5,5.3-7.4,7.7c3,3.2,5.9,6.3,8.9,9.6c2.4-2.6,4.9-5.3,7.3-7.9
	c2.1,2.2,4.2,4.4,6.3,6.7c-5,5.3-10.1,10.6-15.1,16c1.9,2,3.7,4,5.6,6c0.4,0.4,0.6,0.8,0.4,1.5c-0.4,1.7,0.8,3.5,2.4,3.7
	c1.3,0.2,2.3-0.3,2.9-1.5c0.7-1.2,0.6-2.3-0.2-3.4c-0.8-1.1-1.8-1.4-3.1-1.2c-0.3,0.1-0.7,0.1-0.8,0c-1.6-1.6-3.1-3.3-4.8-5
	c5.1-5.4,10.2-10.7,15.1-15.9c-3-3.2-5.9-6.3-8.9-9.5c-2.4,2.6-4.8,5.3-7.3,7.9c-2.1-2.3-4.2-4.5-6.3-6.8c2.5-2.6,5-5.2,7.4-7.7
	C12.3,54.2,9.3,51,6.4,47.9z"/>
<path class="st0" d="M76.9,21.4c-3.6,3.8-7.2,7.6-10.7,11.4c-2.2,2.3-4.4,4.7-6.6,7.1c-2.6-2.8-5.1-5.4-7.5-8
	c-5.5,5.8-11,11.6-16.4,17.3c2.9,3.1,5.8,6.1,8.8,9.3c2.4-2.6,4.9-5.3,7.4-8c1.6,1.6,3,3.2,4.5,4.8c0.3,0.4,0.4,0.7,0.3,1.2
	c-0.4,1.4,0.2,2.7,1.3,3.4c1.2,0.7,2.5,0.6,3.5-0.4c0.9-0.9,1.2-2.4,0.6-3.6c-0.6-1.3-1.8-2-3.2-1.7c-0.8,0.2-1.2-0.1-1.7-0.6
	c-1.8-1.9-3.6-3.8-5.5-5.9c-2.5,2.7-5,5.4-7.4,8c-2.1-2.2-4.2-4.4-6.2-6.5c4.6-4.9,9.2-9.8,13.9-14.7c2.4,2.6,4.9,5.2,7.4,8
	c4.8-5.1,9.5-10,14.2-15c4.7-5,9.4-10,14.2-15c0.4-0.4,0.7-0.6,1.3-0.4c0.5,0.2,1.1,0.1,1.6-0.1c1.5-0.5,2.3-2.3,1.8-3.8
	c-0.5-1.6-2.1-2.5-3.5-2.1c-1.5,0.4-2.4,2-2.1,3.7c0.1,0.4,0,0.9-0.2,1.1C83.5,14.3,80.2,17.9,76.9,21.4z"/>
<path class="st0" d="M89.7,106.7c3-3.1,5.9-6.2,8.8-9.4c-2.5-2.6-5-5.2-7.6-8c7.7-8.2,15.3-16.2,22.9-24.3c-1.9-2-3.8-4-5.7-6
	c-0.3-0.3-0.5-0.6-0.3-1.2c0.4-1.5-0.2-2.8-1.4-3.5c-1.2-0.7-2.6-0.5-3.5,0.5c-0.9,1-1.1,2.5-0.5,3.6c0.6,1.3,1.9,1.8,3.3,1.5
	c0.3-0.1,0.7-0.1,0.8,0.1c1.6,1.6,3.1,3.2,4.7,4.9c-7.6,8.1-15.2,16.1-22.9,24.3c2.6,2.7,5.1,5.4,7.5,7.9c-2,2.2-4,4.4-6.3,6.8
	c-2.5-2.7-4.9-5.4-7.3-8c-3,3.1-5.9,6.2-8.9,9.4c1.9,2,3.7,4,5.7,5.9c0.3,0.4,0.4,0.7,0.3,1.2c-0.1,0.6-0.1,1.3,0.1,1.9
	c0.5,1.6,2.1,2.3,3.7,1.8c1.3-0.5,2.2-2.1,1.8-3.7c-0.4-1.6-1.8-2.6-3.3-2.3c-0.3,0.1-0.8,0.2-1,0c-1.6-1.6-3.1-3.3-4.5-4.8
	c2.1-2.2,4.1-4.5,6.2-6.8C84.9,101.5,87.3,104.1,89.7,106.7z"/>
<path class="st0" d="M142.7,80c-0.9,1-1.8,2-2.7,3c-0.9,1-1.9,2-2.8,3c-0.4,0.4-0.7,0.5-1.2,0.4c-1.4-0.4-2.9,0.4-3.4,1.8
	c-0.5,1.2-0.1,2.6,0.8,3.5c0.9,0.8,2.3,1,3.3,0.4c1.1-0.7,1.6-1.9,1.5-3.3c-0.1-0.4-0.1-0.9,0.1-1.2c1.5-1.7,3-3.3,4.6-5.2
	c7.7,8.2,15.2,16.2,22.7,24.2c2.9-3.1,5.8-6.2,8.8-9.4c-2.5-2.6-5-5.3-7.5-7.9c0.1-0.2,0.2-0.3,0.3-0.4c6.4-6.8,12.8-13.6,19.2-20.4
	c0.4-0.4,0.7-0.5,1.3-0.4c1.3,0.4,2.6-0.3,3.2-1.4c0.7-1.3,0.5-2.7-0.5-3.7c-0.9-0.9-2.3-1.2-3.4-0.5c-1.1,0.6-1.8,2-1.4,3.3
	c0.2,0.7,0,1.1-0.5,1.6c-0.2,0.2-0.5,0.4-0.7,0.7c-5.3,5.6-10.5,11.2-15.8,16.8c-1.4,1.5-2.8,2.9-4.4,4.5c2.6,2.7,5.1,5.3,7.6,7.9
	c-2.1,2.3-4.2,4.5-6.4,6.8C157.9,96.1,150.3,88.1,142.7,80z"/>
<path class="st0" d="M18.7,211.6c-0.9,1-1.9,2-2.8,3c-0.3,0.4-0.6,0.5-1.1,0.3c-1.3-0.4-2.6,0.2-3.3,1.4c-0.6,1.2-0.4,2.7,0.4,3.7
	c0.9,1,2.4,1.2,3.5,0.6c1.1-0.7,1.7-2,1.4-3.5c-0.1-0.3-0.1-0.7,0.1-0.9c1.5-1.7,3.1-3.3,4.8-5.1c7.6,8.1,15.1,16.1,22.5,24
	c3-3.1,5.9-6.2,8.9-9.4c-2.5-2.6-5-5.2-7.6-7.8c2.3-2.5,4.5-4.8,6.8-7.1c4.3-4.6,8.6-9.1,12.9-13.7c0.2-0.2,0.6-0.3,0.9-0.3
	c1.4,0.3,2.7-0.2,3.4-1.4c0.6-1.1,0.4-2.8-0.4-3.7c-1-1-2.3-1.3-3.5-0.6c-1.2,0.7-1.7,2-1.4,3.5c0.1,0.3,0,0.8-0.2,1
	c-4.9,5.3-9.9,10.6-14.9,15.8c-2,2.1-4.1,4.2-6.3,6.5c2.6,2.7,5.2,5.3,7.6,7.8c-2.1,2.3-4.2,4.5-6.4,6.8c-7.5-8-15.1-16-22.7-24.1
	C20.6,209.6,19.6,210.6,18.7,211.6z"/>
<path class="st0" d="M-20.9,160c1.5-1.6,3.1-3.3,4.7-5.1c5.1,5.5,10.1,10.8,15.1,16.2c0.2-0.2,0.3-0.3,0.3-0.3
	c3.8-4,7.5-8,11.3-11.9c5.6-6,11.3-11.9,16.9-17.9c0.4-0.4,0.6-0.5,1.2-0.4c1.3,0.4,2.6-0.2,3.2-1.5c0.6-1.2,0.4-2.7-0.5-3.7
	c-0.8-0.9-2.3-1.1-3.5-0.5c-1.1,0.6-1.7,2-1.4,3.4c0.1,0.6,0,1-0.4,1.4c-3,3.2-6,6.3-9,9.5c-4.4,4.7-8.8,9.4-13.2,14
	c-1.6,1.7-3.2,3.5-4.9,5.3c-5.2-5.5-10.2-10.8-15.3-16.3c-0.3,0.4-0.6,0.7-0.8,1.1c-4.1,4.4-8.2,8.7-12.3,13.1
	c-0.3,0.3-0.5,0.6-1.1,0.4c-1.4-0.4-2.6,0.1-3.3,1.4c-0.7,1.2-0.5,2.6,0.4,3.6c0.9,1,2.2,1.3,3.4,0.6c1.2-0.7,1.9-2,1.5-3.5
	c-0.2-0.7,0.1-1,0.4-1.4C-25.7,165.1-23.3,162.5-20.9,160z"/>
<path class="st0" d="M123,36.7c-0.9,1-1.8,2.1-2.9,3.3c-5.2-5.5-10.2-10.9-15.2-16.2c-0.1,0.1-0.3,0.2-0.4,0.4
	c-4.2,4.5-8.5,9-12.7,13.5c-0.4,0.4-0.7,0.6-1.3,0.4c-1.3-0.3-2.6,0.3-3.2,1.5c-0.6,1.3-0.4,2.8,0.5,3.7c0.9,0.9,2.4,1.1,3.5,0.4
	c1.1-0.6,1.6-2,1.3-3.4c-0.1-0.4,0.1-0.9,0.3-1.2c2.3-2.5,4.6-5,7-7.4c1.7-1.8,3.3-3.6,5.1-5.4c5.1,5.4,10.1,10.8,15.1,16.1
	c0.3-0.3,0.5-0.4,0.7-0.7c3-3.2,6-6.4,9.1-9.7c3.7-3.9,7.4-7.9,11.1-11.8c2.5-2.7,5-5.3,7.5-8c0.4-0.4,0.7-0.6,1.3-0.4
	c0.9,0.3,1.7,0.1,2.5-0.5c1.2-1,1.5-2.7,0.7-4.1c-0.7-1.3-2.3-1.8-3.6-1.2c-1.4,0.6-2,2.1-1.7,3.6c0.1,0.3,0,0.8-0.3,1.1
	c-1.1,1.2-2.2,2.4-3.3,3.6C137,21.9,130,29.3,123,36.7z"/>
<path class="st0" d="M140.4,66.5c-1.7,1.8-3.3,3.6-5.1,5.6C125.1,61.2,115,50.5,105,39.8c-1.9,2-3.7,4-5.6,6
	c-0.4,0.4-0.8,0.6-1.4,0.5c-0.6-0.1-1.4,0-2,0.2c-1.4,0.7-1.9,2.5-1.3,4c0.6,1.4,2.2,2.2,3.6,1.7c1.4-0.5,2.2-2,1.9-3.6
	c-0.1-0.3-0.1-0.8,0-1c1.5-1.7,3.1-3.3,4.7-5.1c10.1,10.7,20.2,21.4,30.3,32.2c0.2-0.2,0.4-0.4,0.5-0.5c4.2-4.5,8.4-8.9,12.6-13.4
	c0.3-0.4,0.6-0.7,1.3-0.5c1.3,0.4,2.6-0.2,3.2-1.3c0.7-1.3,0.5-2.7-0.4-3.8c-0.9-1-2.3-1.2-3.4-0.5c-1.2,0.7-1.8,2-1.4,3.4
	c0.2,0.6,0,0.9-0.4,1.3C145,61.6,142.7,64.1,140.4,66.5z"/>
<path class="st0" d="M-23,180.8c1.5-0.4,2.3-2,2.1-3.6c-0.1-0.4-0.1-1,0.2-1.2c1.4-1.7,2.9-3.3,4.6-5.1
	c10.2,10.9,20.3,21.6,30.5,32.4c0.2-0.3,0.4-0.7,0.7-0.9c4.1-4.4,8.2-8.8,12.4-13.1c0.2-0.3,0.8-0.4,1.1-0.4
	c1.5,0.3,2.7-0.3,3.4-1.6c0.6-1.2,0.3-2.7-0.6-3.6c-0.9-0.9-2.3-1.1-3.4-0.5c-1.2,0.7-1.7,2-1.5,3.5c0.1,0.4-0.1,0.9-0.3,1.2
	c-3.4,3.6-6.8,7.2-10.2,10.9c-0.6,0.6-1.1,1.3-1.7,2c-10.2-10.8-20.2-21.5-30.3-32.2c-0.4,0.4-0.8,0.7-1.1,1.1
	c-1.5,1.6-3.1,3.3-4.6,4.9c-0.4,0.4-0.7,0.5-1.2,0.4c-1.1-0.3-2.1,0-2.8,0.9c-0.7,0.9-1,2-0.6,3.1C-26.1,180.3-24.5,181.2-23,180.8z
	"/>
<path class="st0" d="M-3,205.2c0.4-0.4,0.7-0.4,1.2-0.4c0.7,0.1,1.6,0,2.2-0.4c1.3-0.7,1.7-2.5,1-4c-0.6-1.3-2.1-2-3.4-1.6
	c-1.5,0.5-2.4,1.9-2,3.5c0.1,0.7,0,1.1-0.4,1.6c-3.3,3.4-6.5,6.9-9.8,10.4c-1.1,1.2-2.2,2.2-3.5,3.5c2.7,2.8,5.2,5.4,7.8,8
	c-2,2.1-3.9,4.1-5.7,6.1c-4.6,4.9-9.2,9.8-13.8,14.7c-0.4,0.4-0.7,0.6-1.4,0.5c-1.3-0.4-2.6,0.3-3.2,1.6c-0.6,1.2-0.4,2.7,0.6,3.6
	c0.9,1,2.3,1.2,3.4,0.5c1.1-0.7,1.8-2,1.4-3.4c-0.2-0.6,0-1,0.4-1.4c1.7-1.8,3.3-3.5,5-5.3c3.4-3.6,6.8-7.2,10.1-10.8
	c1.9-2,3.7-3.9,5.7-6c-2.6-2.7-5.1-5.3-7.8-8.1c1.1-1.1,2.1-2.1,3.1-3.2C-8.9,211.5-6,208.4-3,205.2z"/>
<path class="st0" d="M117.9,77c0.5-0.6,1-0.9,1.8-0.7c1.3,0.3,2.5-0.5,3-1.7c0.6-1.3,0.3-2.7-0.8-3.7c-0.8-0.8-2.3-1-3.3-0.3
	c-1.1,0.7-1.7,2-1.4,3.4c0.2,0.7,0,1-0.4,1.4c-3.1,3.3-6.2,6.6-9.4,9.9c-1.3,1.3-2.6,2.6-4,4.1c2.7,2.8,5.2,5.4,7.9,8.1
	c-0.9,0.9-1.8,1.7-2.6,2.5c-5.7,6-11.3,12-17,18c-0.4,0.4-0.7,0.7-1.3,0.5c-1.3-0.4-2.6,0.3-3.2,1.5c-0.6,1.2-0.4,2.7,0.4,3.6
	c1,1,2.3,1.3,3.5,0.7c1.1-0.6,1.8-1.9,1.5-3.3c-0.2-0.8,0.1-1.2,0.5-1.7c5.4-5.7,10.7-11.4,16.1-17c1.5-1.6,3-3.2,4.7-4.9
	c-2.7-2.7-5.2-5.3-7.7-7.9c0.1-0.2,0.1-0.2,0.2-0.3C110.3,85.1,114.1,81,117.9,77z"/>
<path class="st0" d="M2.5,212.8c-1.1,1.1-2.2,2.3-3.2,3.4c-0.6,0.6-1.1,1.1-1.7,1.6c0.3,0.3,0.4,0.4,0.5,0.5
	c9.3,9.9,18.6,19.8,27.9,29.6c0.4,0.4,0.6,0.7,0.4,1.3c-0.4,1.4,0.2,2.8,1.4,3.5c1.1,0.7,2.5,0.5,3.4-0.5c0.9-1,1.2-2.5,0.6-3.6
	c-0.7-1.3-1.9-2-3.3-1.6c-0.6,0.2-0.9,0-1.3-0.4c-7.5-7.9-14.9-15.9-22.4-23.8c-1.5-1.6-3.1-3.2-4.7-4.9c1.5-1.6,3-3.1,4.3-4.6
	c0.4-0.5,0.8-0.6,1.5-0.5c1.7,0.4,3.2-0.8,3.4-2.6c0.2-1.9-1-3.4-2.7-3.5c-1.7-0.1-3.3,1.4-3,3.1C3.9,211.3,3.3,212,2.5,212.8z"/>
<path class="st0" d="M124,83.9c-0.4,0.4-0.7,0.8-1.1,1.2c-1.3,1.4-2.7,2.7-4.2,4.2c2.4,2.5,4.7,4.8,6.9,7.2
	c7.2,7.6,14.4,15.3,21.6,22.9c0.4,0.4,0.6,0.7,0.4,1.3c-0.4,1.4,0.2,2.8,1.3,3.4c1.2,0.7,2.6,0.5,3.5-0.4c1-1,1.2-2.4,0.5-3.7
	c-0.6-1.2-1.8-1.8-3.2-1.5c-0.5,0.1-0.8,0.1-1.2-0.3c-8.9-9.4-17.7-18.8-26.6-28.3c-0.2-0.2-0.3-0.4-0.5-0.7
	c1.5-1.6,2.9-3.1,4.4-4.6c0.4-0.4,0.7-0.6,1.3-0.4c1.2,0.4,2.5-0.2,3.1-1.4c0.6-1.1,0.5-2.6-0.2-3.6c-0.9-1.1-2.2-1.4-3.4-0.9
	c-1.1,0.5-2.1,1.8-1.7,3.1C125.1,82.7,124.6,83.3,124,83.9z"/>
<path class="st0" d="M127.9,130.8c2.4-2.6,4.9-5.2,7.4-7.9c1.6,1.7,3.1,3.2,4.6,4.8c0.2,0.2,0.3,0.7,0.2,1c-0.3,1.4,0.2,2.8,1.3,3.4
	c1.2,0.7,2.7,0.6,3.6-0.4c0.9-1,1.1-2.5,0.5-3.7c-0.6-1.2-1.9-1.7-3.3-1.4c-0.3,0.1-0.8,0-1-0.3c-1-1-1.9-2-2.8-3
	c-1-1.1-1.9-2.1-3-3.3c-2.7,2.9-5.1,5.5-7.5,8.1c-2.1-2.2-4.2-4.4-6.4-6.7c2.5-2.6,5.1-5.2,7.7-8c-1.9-2-3.8-4-5.7-5.9
	c-0.5-0.5-0.6-0.9-0.4-1.5c0.5-2-1.2-3.9-3.1-3.7c-1.6,0.2-2.9,1.8-2.7,3.4c0.2,1.8,1.8,3,3.5,2.7c0.3-0.1,0.8-0.1,1,0
	c1.6,1.6,3.2,3.2,4.9,5.1c-2.7,2.7-5.2,5.3-7.7,7.8C122,124.6,124.9,127.6,127.9,130.8z"/>
<path class="st0" d="M96.8,223c-0.6,0.2-0.9,0-1.3-0.4c-4.9-5.2-9.8-10.4-14.6-15.5c-2-2.2-4.1-4.3-6.1-6.6
	c-0.3,0.3-0.5,0.4-0.7,0.7c-4.2,4.5-8.4,8.9-12.6,13.4c-0.4,0.4-0.7,0.6-1.3,0.4c-1.3-0.4-2.5,0.2-3.1,1.5c-0.6,1.2-0.4,2.6,0.4,3.6
	c0.8,0.9,2.3,1.2,3.5,0.6c1.1-0.6,1.8-1.9,1.5-3.2c-0.2-0.9,0.1-1.3,0.6-1.9c2.4-2.5,4.8-5.1,7.2-7.6c1.5-1.6,2.9-3.2,4.6-5.1
	c0.3,0.5,0.5,0.9,0.8,1.2c6.1,6.4,12.1,12.9,18.2,19.3c0.6,0.7,1,1.2,0.9,2.3c-0.3,1.9,1.1,3.4,3,3.3c1.6-0.1,3-1.7,2.8-3.4
	C100.1,223.8,98.5,222.5,96.8,223z"/>
<path class="st0" d="M36.5,192.8c-2.8,3-5.7,6-8.5,9c0.2,0.2,0.3,0.3,0.4,0.4c1.8,1.9,3.5,3.7,5.3,5.6c0.4,0.4,0.5,0.7,0.4,1.4
	c-0.1,0.7,0,1.6,0.3,2.3c0.7,1.5,2.3,1.9,3.8,1.2c1.3-0.6,2-2.3,1.5-3.7c-0.5-1.6-1.9-2.4-3.5-2c-0.3,0.1-0.7,0.1-0.8,0
	c-1.6-1.6-3.2-3.2-5-5.1c0.6-0.4,1-0.7,1.3-1c4.9-5.2,9.8-10.4,14.8-15.6c3.8-4,7.5-8,11.3-12c0.3-0.3,0.6-0.7,1.2-0.5
	c1.4,0.4,2.7-0.2,3.4-1.4c0.6-1.2,0.4-2.7-0.4-3.6c-1-1-2.3-1.3-3.4-0.6c-1.3,0.7-1.8,2.1-1.5,3.6c0.1,0.3-0.1,0.8-0.3,1.1
	C49.8,178.7,43.1,185.7,36.5,192.8z"/>
<path class="st0" d="M157,64.9c-2.6,2.8-5.2,5.5-8,8.4c2,2,3.9,4,5.8,6c0.4,0.4,0.5,0.7,0.4,1.3c-0.4,1.4,0.2,2.7,1.3,3.4
	c1.1,0.7,2.4,0.6,3.5-0.4c0.9-0.9,1.2-2.3,0.7-3.5c-0.5-1.2-1.7-2.1-3-1.8c-1,0.2-1.5-0.2-2-0.9c-0.2-0.3-0.5-0.5-0.7-0.8
	c-1.1-1.1-2.1-2.3-3.3-3.5c2.6-2.7,5.2-5.3,7.7-8c6.5-6.9,13-13.8,19.5-20.7c0.4-0.5,0.8-0.6,1.4-0.4c2,0.5,3.8-1.3,3.5-3.4
	c-0.3-1.7-1.7-2.9-3.3-2.6c-1.7,0.3-2.7,1.7-2.4,3.5c0.1,0.5,0.2,1-0.3,1.5C170.7,50.4,163.9,57.6,157,64.9z"/>
<path class="st0" d="M98.1,239c-1.5-0.2-2.7,0.3-3.3,1.6c-0.5,1.1-0.3,2.8,0.5,3.6c0.9,1,2.4,1.2,3.5,0.6c1.2-0.7,1.7-2,1.4-3.5
	c-0.1-0.3,0-0.8,0.2-1c2.4-2.6,4.9-5.2,7.4-7.8c2-2.1,4-4.2,6.2-6.5c-2.6-2.7-5.2-5.3-7.7-7.9c0.2-0.2,0.3-0.4,0.4-0.5
	c3.8-4,7.6-8,11.4-12.1c0.4-0.4,0.7-0.7,1.4-0.5c1.3,0.4,2.6-0.3,3.2-1.6c0.6-1.2,0.3-2.7-0.6-3.6c-0.9-1-2.4-1.1-3.5-0.4
	c-1.1,0.7-1.6,2-1.3,3.5c0.1,0.3-0.1,0.8-0.3,1.1c-2.8,3-5.6,6-8.4,9c-1.6,1.7-3.3,3.4-5,5.2c2.6,2.7,5.1,5.3,7.7,8
	c-0.3,0.3-0.4,0.5-0.5,0.6c-3.9,4.1-7.7,8.2-11.6,12.3C99,239,98.5,239.1,98.1,239z"/>
<path class="st0" d="M-3,76.7c0.4-0.4,0.7-0.5,1.3-0.4c2.1,0.5,3.9-1.3,3.5-3.5C1.5,71,0,69.9-1.7,70.2c-1.6,0.3-2.5,1.9-2.2,3.8
	c0.1,0.4,0,0.9-0.2,1.1c-3,3.2-6,6.4-9.1,9.6c-1.4,1.5-2.9,3-4.4,4.6c2.6,2.7,5.1,5.3,7.6,7.8c-0.1,0.3-0.2,0.4-0.2,0.4
	c-4,4.2-8,8.5-12,12.7c-0.2,0.2-0.7,0.3-1.1,0.2c-1.2-0.3-2.2,0.1-3,1.1c-0.9,1.1-0.8,2.7,0.1,3.8c0.8,1.1,2.3,1.4,3.6,0.8
	c1.1-0.6,1.8-2,1.5-3.4c-0.1-0.6-0.1-1,0.3-1.4c1.8-1.9,3.6-3.8,5.4-5.6c2.6-2.8,5.3-5.6,8-8.4c-2.6-2.7-5.1-5.3-7.6-8
	c1-1,1.8-2,2.7-2.9C-9.2,83.2-6.1,80-3,76.7z"/>
<path class="st0" d="M240,40.9c-10.1,10.7-20.2,21.4-30.3,32.1c0.3,0.3,0.5,0.6,0.7,0.8c1.6,1.8,3.3,3.5,5,5.2
	c0.4,0.4,0.5,0.7,0.4,1.3c-0.3,1.4,0.2,2.7,1.3,3.4c1.1,0.7,2.4,0.6,3.4-0.3c1-0.9,1.3-2.3,0.8-3.6c-0.4-1.2-1.7-2.1-2.9-1.8
	c-1.1,0.2-1.6-0.2-2.2-0.9c-0.2-0.2-0.4-0.4-0.5-0.5c-1.1-1.2-2.2-2.4-3.5-3.8c10.2-10.8,20.2-21.4,30.4-32.2
	c-2.5-2.5-5-5.1-7.3-7.6c7.1-7.6,14.2-15.2,21.4-22.8c2.4,2.6,4.9,5.2,7.4,7.9c0.3-0.3,0.6-0.6,0.8-0.8c4.2-4.4,8.3-8.9,12.5-13.3
	c0.2-0.2,0.7-0.4,1-0.4c2.1,0.4,3.6-0.7,3.8-3c-1.9,0-3.9,0-5.8,0c0.5,1.4-0.4,2.1-1.2,3c-1.8,1.9-3.6,3.8-5.3,5.7
	c-1.9,2-3.8,4.1-5.8,6.3c-2.6-2.8-5.1-5.5-7.5-8.1c-8,8.5-16,17-24.1,25.6C235,35.6,237.5,38.2,240,40.9z"/>
<path class="st0" d="M212.9,121.9c-3.1-3.3-6.3-6.7-9.4-10c-1.5-1.5-2.9-3-4.4-4.4c-0.4-0.4-0.5-0.7-0.3-1.4
	c0.4-1.2-0.2-2.6-1.3-3.3c-1.1-0.7-2.4-0.6-3.5,0.3c-0.9,0.8-1.2,2.3-0.7,3.5c0.5,1.2,1.7,2.1,2.9,1.8c1-0.3,1.6,0.1,2.2,0.9
	c0.3,0.4,0.6,0.7,1,1c1.4,1.4,2.8,2.9,4.2,4.3v0c0.1,0.1,0.2,0.2,0.3,0.3c3.5,3.7,6.9,7.4,10.4,11.1c1.4,1.5,2.9,3.1,4.5,4.8
	c7.6-8.1,15.2-16.1,22.5-24c4.6,4.9,9.2,9.7,13.8,14.6c0,0-0.1,0.1-0.1,0.2c-3.9,4.2-7.9,8.3-11.8,12.5c-0.2,0.2-0.8,0.3-1.1,0.3
	c-1.3-0.2-2.5,0.3-3.2,1.5c-0.6,1.2-0.4,2.8,0.5,3.7c0.9,0.9,2.3,1.1,3.5,0.5c1.1-0.6,1.7-2,1.4-3.3c-0.1-0.6-0.1-0.9,0.3-1.4
	c3.8-4,7.5-8,11.3-11.9c0.7-0.7,1.4-1.3,2-1.8c-5.6-6-11.1-11.8-16.5-17.5c-7.5,7.9-15,15.9-22.6,24
	C216.7,125.9,214.8,123.9,212.9,121.9z"/>
<path class="st0" d="M217.3,225.6c-2.2,2.3-4.2,4.5-6.4,6.8c-0.6-0.7-1.2-1.4-1.9-2.1c-1.8-1.9-3.7-3.9-5.5-5.8c0,0.1,0,0.2,0,0.3
	c-1.2,1.3-2.5,2.5-3.7,3.8c-1.7,1.8-3.4,3.6-5.2,5.4c2,2.1,3.9,4.1,5.8,6.1c0.4,0.4,0.5,0.7,0.3,1.3c-0.5,2,0.9,3.8,2.8,3.7
	c0-0.1,0-0.2,0-0.2c0.1,0,0.2,0,0.3,0c1.5-0.2,2.6-1.6,2.6-3.1c0-1.6-1.2-2.8-3-3.1c0,0.1,0,0.2,0,0.3c-1.1,0.4-1.8-0.1-2.5-0.9
	c-1.2-1.4-2.5-2.6-3.8-4c1.3-1.4,2.5-2.7,3.7-3.9c0.9-0.9,1.7-1.8,2.6-2.6c0-0.1,0-0.1,0-0.2c1.5,1.5,2.9,3,4.3,4.5
	c1.1,1.1,2.1,2.3,3.1,3.4c3.1-3.2,6-6.3,9.1-9.6c-2.5-2.6-5.1-5.2-7.7-8c7.6-8,15.2-16,22.7-24c-1.7-1.8-3.4-3.6-5.1-5.4
	c-0.7-0.7-1.1-1.3-0.9-2.4c0.3-1.8-1.1-3.2-2.7-3.3c-1.6-0.1-3,1.3-3,3.1c0,1.7,1.4,3.3,3,3.1c1.3-0.2,1.9,0.3,2.7,1.2
	c1,1.1,2.1,2.2,3.1,3.3c0.2,0.2,0.3,0.4,0.6,0.7c-7.6,8-15.1,16-22.7,24.1C212.3,220.4,214.8,223,217.3,225.6z"/>
<path class="st0" d="M242.5,8.6c-1-1-2-2.1-3-3.1c-1.5-1.6-2.9-3.1-4.4-4.7c-0.9,0-1.9,0-2.8,0c-1.4,1.5-2.7,3-4.1,4.5
	c-0.6,0.7-1.2,1.5-2.1,2.5c-0.7-0.9-1.2-1.6-1.8-2.3c-1.4-1.6-2.9-3.2-4.3-4.7c-0.9,0-1.7,0-2.6,0c0.1,0.2,0.2,0.3,0.3,0.5
	c1.8,1.9,3.6,3.8,5.4,5.7c1,1.1,2,2.1,3.1,3.3c2.5-2.8,5-5.4,7.4-8c2.1,2.2,4.2,4.5,6.2,6.6c-4.6,4.8-9.1,9.7-13.7,14.6
	c-0.2-0.1-0.3-0.3-0.5-0.4c-2.1-2.2-4.1-4.4-6.2-6.6c-4.9-5.2-9.8-10.4-14.8-15.7c-0.4,0-0.9,0-1.3,0c0,0.5,0,0.9,0,1.4
	c7.6,8,15.1,16,22.6,23.9C231.6,20.1,237,14.4,242.5,8.6z"/>
<path class="st0" d="M243.2,231.4c-1-0.9-2.7-1-3.7-0.1c-1.1,0.9-1.4,2.5-0.8,3.8c0.6,1.3,1.9,1.9,3.3,1.6c0.3-0.1,0.7-0.1,0.9,0.1
	c1.6,1.6,3.1,3.3,4.8,5c-2.6,2.7-5.1,5.3-7.6,8c0.2,0.2,0.2,0.4,0.3,0.5c2.2,2.4,4.5,4.7,6.7,7.1c0.1,0.1,0.2,0.4,0.3,0.5
	c0.2,0,0.4,0,0.5,0c0.3,0.4,0.7,0.9,1.1,1.4c0.5-0.6,0.9-1,1.2-1.4c2.1-2.1,4.2-4.3,6.3-6.5c1.4,1.6,3,3.1,4.4,4.9
	c0.3,0.3,0,1.1,0,1.7c0.1,0,0.2,0,0.3,0c0.1,0.3,0.1,0.5,0.2,0.8c0.5,1.9,2.6,2.8,4.2,1.9c1-0.6,1.4-1.6,1.6-2.7c-0.1,0-0.2,0-0.3,0
	c-0.1-0.3-0.1-0.6-0.2-0.9c-0.4-1.4-1.8-2.5-3-2.1c-1.1,0.4-1.6-0.2-2.3-0.9c-1.7-1.8-3.4-3.6-5.2-5.6c-2.5,2.8-5,5.4-7.4,8.1
	c-2.1-2.3-4.2-4.5-6.3-6.8c2.5-2.6,5-5.2,7.5-7.9c-1.9-2-3.7-4-5.6-6c-0.4-0.4-0.6-0.7-0.4-1.4C244.4,233.3,244.1,232.2,243.2,231.4
	z"/>
<path class="st0" d="M206.7,179.6c-0.3-0.3-0.5-0.8-0.4-1.1c0.4-2.2-0.7-3.8-2.8-4c0,0.1,0,0.2,0,0.2c-1.8,0.2-3,1.6-2.9,3.3
	c0.1,1.7,1.4,2.9,3,2.9c0-0.1,0-0.2,0-0.3c1.3-0.5,2,0.5,2.7,1.3c3,3.2,6,6.4,9.1,9.6c0.7,0.7,1.3,1.4,2.1,2.2
	c-2.5,2.6-4.9,5.1-7.3,7.6c-2.2,2.3-4.4,4.6-6.6,6.9c0,0.2,0,0.3,0,0.5c-1.4,1.5-2.9,2.9-4.3,4.4c-5.2,5.5-10.4,11.1-15.7,16.6
	c-1.3,1.4-2.7,2.8-4.1,4.2c2.5,2.6,4.7,5,7,7.4c5.3,5.6,10.6,11.2,15.9,16.8c0.4,0,0.9,0,1.3,0c0-0.5,0-0.9,0-1.4
	c-7.1-7.6-14.2-15.2-21.4-22.8c2.6-2.7,5.1-5.4,7.7-8.1c4.4-4.6,8.7-9.3,13.1-13.9c0.2-0.2,0.4-0.3,0.6-0.5c0-0.2,0-0.3,0-0.5
	c5.4-5.8,10.9-11.6,16.3-17.4c-0.2-0.2-0.4-0.5-0.6-0.7C215,188.4,210.8,184,206.7,179.6z"/>
<path class="st0" d="M218,94.1c-0.6,0.2-0.9,0-1.3-0.4c-2.2-2.3-4.4-4.7-6.6-7c-2.2-2.3-4.4-4.6-6.6-6.9c-2.4-2.7-4.9-5.4-7.3-8.1
	c-0.4,0.4-0.5,0.5-0.7,0.6c-4.3,4.5-8.6,9.1-12.8,13.6c-0.3,0.4-0.7,0.6-1.2,0.4c-1.3-0.4-2.6,0.3-3.3,1.5c-0.6,1.1-0.4,2.8,0.5,3.7
	c1,1,2.3,1.3,3.5,0.6c1.2-0.7,1.8-2.1,1.4-3.4c-0.2-0.6,0-0.9,0.3-1.3c2.4-2.5,4.8-5,7.1-7.5c1.6-1.7,3.2-3.5,4.9-5.3
	c2.6,2.8,5.1,5.5,7.6,8.2c0,0,0,0,0,0c0.1,0,0.2,0.1,0.3,0.1c3.8,4,7.6,8,11.4,12.1c0.5,0.5,0.8,1,0.6,1.9c-0.3,1.4,0.4,2.7,1.6,3.3
	c1.2,0.6,2.5,0.3,3.4-0.7c0.9-1,1-2.3,0.4-3.6C220.5,94.5,219.1,93.8,218,94.1z"/>
<path class="st0" d="M210.3,102.2c-0.5,0.2-0.8,0-1.1-0.3c-1.9-2-3.8-4-5.7-6c-0.6-0.6-1.2-1.2-1.8-1.8c-1.9-2-3.8-4.1-5.6-6
	c-8.1,8.6-16,17-24.2,25.6c5,5.3,10,10.6,15.2,16c-1.5,1.5-2.9,3-4.4,4.5c-0.4,0.4-0.7,0.6-1.3,0.4c-1.2-0.4-2.4,0.2-3.1,1.3
	c-0.7,1.1-0.6,2.8,0.3,3.8c0.9,1,2.4,1.3,3.6,0.6c1.1-0.6,1.7-2,1.4-3.3c-0.1-0.6-0.1-1,0.4-1.4c0.7-0.7,1.4-1.4,2.1-2.2
	c1.2-1.3,2.5-2.5,3.8-3.9c-5.2-5.5-10.2-10.8-15.2-16c7.1-7.6,14.3-15.1,21.5-22.8c0.2,0.3,0.4,0.6,0.7,0.9c2.2,2.4,4.5,4.7,6.8,7.1
	c1.6,1.6,3.1,3.2,4.6,4.8c0.2,0.2,0.1,0.6,0.1,0.9c-0.3,1.4,0.3,2.8,1.4,3.5c1.1,0.7,2.6,0.5,3.5-0.5c0.9-1,1.1-2.5,0.5-3.7
	C212.9,102.4,211.6,101.8,210.3,102.2z"/>
<path class="st0" d="M265.4,3.4c1-0.6,1.4-1.6,1.6-2.7c-2,0-4,0-6,0c0.1,0.3,0.1,0.6,0.2,0.9C261.8,3.5,263.8,4.4,265.4,3.4z"/>
<path class="st0" d="M250.1,0.7c-0.8,0-1.6,0-2.4,0c0.4,0.5,0.7,0.9,1.2,1.5C249.4,1.6,249.7,1.1,250.1,0.7z"/>
<path class="st0" d="M248.8,47.6c-0.4,0.5-0.9,1-1.3,1.5c-6.4,6.8-12.8,13.6-19.2,20.4c-0.5,0.5-0.8,0.7-1.5,0.5
	c-2-0.5-3.8,1.5-3.4,3.6c0.4,1.7,1.8,2.7,3.4,2.4c1.6-0.3,2.6-1.8,2.3-3.6c-0.1-0.7,0-1.1,0.5-1.6c4.8-5.1,9.6-10.2,14.4-15.3
	c1.6-1.7,3.2-3.5,4.8-5.2c2.2,2.3,4.3,4.5,6.4,6.7c-2.5,2.6-5,5.3-7.4,7.7c3,3.2,5.9,6.3,8.9,9.6c2.4-2.6,4.9-5.3,7.3-7.9
	c2.1,2.2,4.2,4.4,6.3,6.7c-5,5.3-10.1,10.6-15.1,16c1.9,2,3.7,4,5.6,6c0.4,0.4,0.6,0.8,0.4,1.5c-0.4,1.7,0.8,3.5,2.4,3.7
	c1.3,0.2,2.3-0.3,2.9-1.5c0.7-1.2,0.6-2.3-0.2-3.4c-0.8-1.1-1.8-1.4-3.1-1.2c-0.3,0.1-0.7,0.1-0.8,0c-1.6-1.6-3.1-3.3-4.8-5
	c5.1-5.4,10.2-10.7,15.1-15.9c-3-3.2-5.9-6.3-8.9-9.5c-2.4,2.6-4.8,5.3-7.3,7.9c-2.1-2.3-4.2-4.5-6.3-6.8c2.5-2.6,5-5.2,7.4-7.7
	C254.7,53.9,251.8,50.8,248.8,47.6z"/>
<path class="st0" d="M259.5,148.9c-4.4,4.7-8.8,9.4-13.2,14c-1.6,1.7-3.2,3.5-4.9,5.3c-5.2-5.5-10.2-10.8-15.3-16.3
	c-0.3,0.4-0.6,0.7-0.8,1.1c-4.1,4.4-8.2,8.7-12.3,13.1c-0.3,0.3-0.5,0.6-1.1,0.4c-1.4-0.4-2.6,0.1-3.3,1.4c-0.7,1.2-0.5,2.6,0.4,3.6
	c0.9,1,2.2,1.3,3.4,0.6c1.2-0.7,1.9-2,1.5-3.5c-0.2-0.7,0.1-1,0.5-1.4c2.4-2.5,4.8-5.1,7.2-7.6c1.5-1.6,3.1-3.3,4.7-5.1
	c5.1,5.5,10.1,10.8,15.1,16.2c0.2-0.2,0.3-0.3,0.3-0.3c3.8-4,7.5-8,11.3-11.9c5.6-6,11.3-11.9,16.9-17.9c0.4-0.4,0.6-0.5,1.2-0.4
	c1.3,0.4,2.6-0.2,3.2-1.5c0.6-1.2,0.4-2.7-0.5-3.7c-0.8-0.9-2.3-1.1-3.5-0.5c-1.1,0.6-1.7,2-1.4,3.4c0.1,0.6,0,1-0.4,1.4
	C265.4,142.5,262.5,145.7,259.5,148.9z"/>
<path class="st0" d="M258.3,198.3c-0.6,0.6-1.1,1.3-1.7,2c-10.2-10.8-20.2-21.5-30.3-32.2c-0.4,0.4-0.8,0.7-1.1,1.1
	c-1.5,1.6-3.1,3.3-4.6,4.9c-0.4,0.4-0.7,0.5-1.2,0.4c-1.1-0.3-2.1,0-2.8,0.9c-0.7,0.9-1,2-0.6,3.1c0.5,1.5,2,2.4,3.5,2
	c1.5-0.4,2.3-2,2.1-3.6c-0.1-0.4-0.1-1,0.2-1.2c1.4-1.7,2.9-3.3,4.6-5.1c10.2,10.9,20.3,21.6,30.5,32.4c0.2-0.3,0.4-0.7,0.7-0.9
	c4.1-4.4,8.2-8.8,12.4-13.1c0.2-0.3,0.8-0.4,1.1-0.4c1.5,0.3,2.7-0.3,3.4-1.6c0.6-1.2,0.3-2.7-0.6-3.6c-0.9-0.9-2.3-1.1-3.4-0.5
	c-1.2,0.7-1.7,2-1.5,3.5c0.1,0.4-0.1,0.9-0.3,1.2C265.1,191.1,261.7,194.7,258.3,198.3z"/>
<path class="st0" d="M228.2,214.1c-1.1,1.2-2.2,2.2-3.5,3.5c2.7,2.8,5.2,5.4,7.8,8c-2,2.1-3.9,4.1-5.7,6.1
	c-4.6,4.9-9.2,9.8-13.8,14.7c-0.4,0.4-0.7,0.6-1.4,0.5c-1.3-0.4-2.6,0.3-3.2,1.6c-0.6,1.2-0.4,2.7,0.6,3.6c0.9,1,2.3,1.2,3.4,0.5
	c1.1-0.7,1.8-2,1.4-3.4c-0.2-0.6,0-1,0.4-1.4c1.7-1.8,3.3-3.5,5-5.3c3.4-3.6,6.8-7.2,10.1-10.8c1.9-2,3.7-3.9,5.7-6
	c-2.6-2.7-5.1-5.3-7.8-8.1c1.1-1.1,2.1-2.1,3.1-3.2c3-3.2,6-6.3,9-9.5c0.4-0.4,0.7-0.4,1.2-0.4c0.7,0.1,1.6,0,2.2-0.4
	c1.3-0.7,1.7-2.5,1-4c-0.6-1.3-2.1-2-3.4-1.6c-1.5,0.5-2.4,1.9-2,3.5c0.1,0.7,0,1.1-0.4,1.6C234.8,207.2,231.5,210.7,228.2,214.1z"
	/>
<path class="st0" d="M244.9,212.5c-1.1,1.1-2.2,2.3-3.2,3.4c-0.6,0.6-1.1,1.1-1.7,1.6c0.3,0.3,0.4,0.4,0.5,0.5
	c9.3,9.9,18.6,19.8,27.9,29.6c0.4,0.4,0.6,0.7,0.4,1.3c-0.4,1.4,0.2,2.8,1.4,3.5c1.1,0.7,2.5,0.5,3.4-0.5c0.9-1,1.2-2.5,0.6-3.6
	c-0.7-1.3-1.9-2-3.3-1.6c-0.6,0.2-0.9,0-1.3-0.4c-7.5-7.9-14.9-15.9-22.4-23.8c-1.5-1.6-3.1-3.2-4.7-4.9c1.5-1.6,3-3.1,4.3-4.6
	c0.4-0.5,0.8-0.6,1.5-0.5c1.7,0.4,3.2-0.8,3.4-2.6c0.2-1.9-1-3.4-2.7-3.5c-1.7-0.1-3.3,1.4-3,3.1
	C246.3,211.1,245.7,211.7,244.9,212.5z"/>
<path class="st0" d="M219.2,110.2c-1.2-0.3-2.2,0.1-3,1.1c-0.9,1.1-0.8,2.7,0.1,3.8c0.8,1.1,2.3,1.4,3.6,0.8c1.1-0.6,1.8-2,1.5-3.4
	c-0.1-0.6-0.1-1,0.3-1.4c1.8-1.9,3.6-3.8,5.4-5.6c2.6-2.8,5.3-5.6,8-8.4c-2.6-2.7-5.1-5.3-7.6-8c1-1,1.8-2,2.7-2.9
	c3.1-3.3,6.2-6.6,9.3-9.9c0.4-0.4,0.7-0.5,1.3-0.4c2.1,0.5,3.9-1.3,3.5-3.5c-0.3-1.8-1.8-2.9-3.5-2.6c-1.6,0.3-2.5,1.9-2.2,3.8
	c0.1,0.4,0,0.9-0.2,1.1c-3,3.2-6,6.4-9.1,9.6c-1.4,1.5-2.8,3-4.4,4.6c2.6,2.7,5.1,5.3,7.6,7.8c-0.1,0.3-0.2,0.4-0.2,0.4
	c-4,4.2-8,8.5-12,12.7C220.1,110.2,219.6,110.3,219.2,110.2z"/>
<path class="st0" d="M52.5,323.5c2.5,2.7,5,5.4,7.5,8.2c1.9-2,3.7-4,5.6-6c0.4-0.4,0.7-0.5,1.2-0.4c1.3,0.4,2.7-0.3,3.2-1.5
	c0.6-1.2,0.3-2.8-0.6-3.7c-0.9-0.9-2.3-1.1-3.5-0.5c-1.1,0.7-1.7,2.1-1.4,3.5c0.1,0.3,0.1,0.7,0,0.8c-1.5,1.7-3.1,3.4-4.7,5.1
	c-2.6-2.8-5-5.4-7.6-8.3c-2.6,2.8-5,5.5-7.4,8.1c-12.3-13-24.4-25.9-36.5-38.8c2-2.2,4.1-4.4,6.2-6.7c2.5,2.7,4.9,5.3,7.4,8
	c0.2-0.2,0.3-0.3,0.5-0.4c7.4-7.9,14.8-15.7,22.2-23.6c3-3.1,5.9-6.3,8.9-9.5c-0.1,0-0.2,0-0.3,0c-0.1-0.1-0.1-0.2-0.2-0.3
	c-4.2-4.4-8.4-8.9-12.6-13.3c-5.2-5.5-10.3-11-15.5-16.5c-0.4-0.4-0.4-0.7-0.3-1.3c0.3-1.4-0.3-2.8-1.3-3.4
	c-1.2-0.7-2.6-0.5-3.5,0.5c-1,1-1.1,2.5-0.5,3.7c0.6,1.1,2,1.8,3.2,1.4c0.6-0.2,0.9,0,1.3,0.4c7.3,7.8,14.7,15.6,22,23.4
	c1.7,1.8,3.3,3.6,4.9,5.4c0.1,0,0.1,0,0.2,0c-0.1,0.1-0.2,0.3-0.3,0.4c-7.3,7.7-14.5,15.4-21.8,23.2c-2.2,2.4-4.4,4.7-6.7,7.2
	c-2.6-2.8-5-5.4-7.5-8.1c-3,3.2-5.9,6.3-8.7,9.3c13,13.8,26,27.6,39.2,41.6C47.3,329.1,49.8,326.4,52.5,323.5z"/>
<path class="st0" d="M-25,341.1c1.1,0.7,2.4,0.6,3.4-0.3c1-0.9,1.3-2.3,0.8-3.6c-0.4-1.2-1.7-2.1-2.9-1.8c-1.1,0.2-1.6-0.2-2.2-0.9
	c-0.2-0.2-0.4-0.4-0.5-0.5c-1.1-1.2-2.2-2.4-3.5-3.8c10.2-10.8,20.2-21.4,30.4-32.2c-2.5-2.5-5-5.1-7.3-7.6
	c7.2-7.6,14.2-15.2,21.4-22.8c2.4,2.6,4.9,5.2,7.4,7.9c0.3-0.3,0.6-0.6,0.8-0.8c4.2-4.4,8.3-8.9,12.5-13.3c0.2-0.2,0.7-0.4,1-0.4
	c2.1,0.4,3.6-0.7,3.8-3c-0.1,0-0.2,0-0.3,0c-0.2-1.9-1.5-3.1-3.1-3c-1.6,0.1-2.7,1.4-2.7,3.1c0.1,0,0.2,0,0.3,0
	c0.4,1.3-0.4,2-1.2,2.9c-1.8,1.9-3.6,3.8-5.3,5.7c-1.9,2-3.8,4.1-5.8,6.2c-2.6-2.8-5.1-5.5-7.5-8.1c-8,8.5-16,17-24.1,25.6
	c2.5,2.6,5,5.2,7.6,7.9c-10.1,10.7-20.2,21.4-30.3,32.1c0.3,0.3,0.5,0.6,0.7,0.8c1.6,1.8,3.3,3.5,5,5.2c0.4,0.4,0.5,0.7,0.4,1.3
	C-26.7,339-26.1,340.4-25,341.1z"/>
<path class="st0" d="M162.7,261.4c-1-1.1-2-2.2-3-3.3c-0.2,0-0.4,0-0.6,0c-2.9-3.1-5.8-6.2-8.7-9.2c-0.3,0.3-0.5,0.5-0.7,0.7
	c-2.3,2.4-4.5,4.8-6.8,7.2c-0.4,0.5-0.8,1-1.2,1.4c0,0,0,0,0,0c0,0-0.1,0.1-0.1,0.1c-6.3,6.6-12.5,13.3-18.8,19.9
	c-0.8,0.9-1.7,1.7-2.5,2.6c-4.7-4.9-9.3-9.8-14.1-14.8c2.6-2.6,5.1-5.2,7.6-7.7c0,0,0,0,0.1-0.1c0,0,0,0,0,0c1.4-1.5,2.8-3,4.1-4.5
	c0.4-0.5,0.8-0.6,1.4-0.4c1.2,0.4,2.5-0.4,3.1-1.6c0.6-1.3,0.4-2.7-0.6-3.7c-0.9-0.9-2.2-1.1-3.4-0.4c-1.1,0.7-1.8,2.1-1.5,3.3
	c0.2,0.6,0,1-0.4,1.4c-1.9,2-3.7,4-5.6,6h0c-0.2,0.2-0.4,0.5-0.6,0.7c-2.3,2.4-4.5,4.8-6.7,7c5.5,5.9,11,11.7,16.5,17.5
	c2.1-2.3,4.3-4.6,6.4-6.9c4.5-4.7,8.9-9.4,13.4-14.2c1.3-1.4,2.6-2.9,3.9-4.3c2.1-2.2,4.1-4.3,6.1-6.4c2.1,2.2,4.2,4.3,6.3,6.5
	c0.2,0,0.4,0,0.6,0c1.4,1.5,2.8,3.1,4.3,4.6c1,1.1,2.1,2.1,3.3,3.3c-12.7,13.5-25.3,26.8-38.1,40.3c0.4,0.3,0.8,0.6,1.1,1
	c1.6,1.6,3.1,3.3,4.7,5c0.4,0.4,0.4,0.7,0.3,1.2c-0.3,1.4,0.3,2.8,1.4,3.4c1.2,0.7,2.5,0.5,3.4-0.5c0.9-0.9,1.1-2.5,0.6-3.6
	c-0.6-1.3-1.9-1.9-3.2-1.5c-0.6,0.2-1,0-1.4-0.5c-0.2-0.3-0.5-0.5-0.7-0.8c-1.2-1.2-2.4-2.4-3.8-3.8c12.8-13.5,25.4-26.9,38-40.3
	C165.6,264.4,164.1,262.9,162.7,261.4z"/>
<path class="st0" d="M33.1,295.7c4.6-4.9,9.2-9.8,13.8-14.7c1.7-1.9,3.4-3.8,5.2-5.8c2.7,2.9,5.1,5.6,7.6,8.2
	c0.2-0.1,0.3-0.2,0.3-0.3c7-7.4,14-14.8,21-22.3c0.9-0.9,1.7-1.9,2.5-2.9c-0.1,0-0.2,0-0.3,0c-0.1-0.2-0.2-0.4-0.4-0.5
	c-4-4.2-8-8.5-12-12.7c-0.8-0.8-1.2-1.5-1.1-2.8c0.2-1.8-1.1-3.1-2.8-3.1c-1.7,0-3,1.4-2.9,3.2c0.1,1.7,1.5,3.3,3.1,2.9
	c1.2-0.3,1.8,0.4,2.5,1.1c0.2,0.3,0.5,0.5,0.7,0.8c3.5,3.7,7,7.4,10.5,11.2c0.1,0,0.1,0,0.2,0c-0.1,0.1-0.2,0.2-0.2,0.3
	c-5.3,5.7-10.7,11.3-16,17c-1.7,1.8-3.3,3.6-5.1,5.5c-2.6-2.8-5.1-5.5-7.6-8.2c-0.3,0.3-0.5,0.5-0.7,0.7c-3.2,3.4-6.4,6.9-9.6,10.3
	c-3.5,3.7-7.1,7.5-10.6,11.2c-0.4,0.4-0.7,0.4-1.1,0.3c-1.4-0.3-2.6,0.3-3.3,1.5c-0.6,1.2-0.4,2.6,0.5,3.6c0.8,0.9,2.1,1.2,3.3,0.6
	c1.2-0.5,2-1.8,1.6-3.2C32.1,296.8,32.6,296.3,33.1,295.7z"/>
<path class="st0" d="M-38.7,258c0,0.5,0,0.9,0,1.4c7.6,8,15.1,16,22.6,23.9c5.5-5.9,11-11.6,16.5-17.4c-1-1-2-2.1-3-3.1
	c-1.5-1.6-2.9-3.1-4.4-4.7c-0.2,0-0.4,0-0.6,0c-0.4-0.4-0.7-0.8-1.1-1.3c-0.4,0.5-0.8,1-1.2,1.4c-1.3,1.5-2.7,2.9-4,4.4
	c-0.6,0.7-1.2,1.5-2.1,2.5c-0.7-0.9-1.2-1.6-1.8-2.3c-1.4-1.6-2.9-3.2-4.3-4.7c-0.1,0-0.2,0-0.2,0c0-0.1,0.1-0.2,0.1-0.2
	c3.9-4.2,7.9-8.3,11.8-12.5c0.2-0.2,0.7-0.3,1-0.2c1.4,0.2,2.7-0.3,3.3-1.5c0.6-1.3,0.4-2.8-0.5-3.7c-0.9-0.9-2.3-1.2-3.4-0.6
	c-1.3,0.7-1.8,2.1-1.5,3.6c0.1,0.3-0.1,0.8-0.3,1.1c-3,3.2-6,6.4-9,9.6c-1.4,1.5-2.8,3.1-4.2,4.6c0.1,0,0.2,0,0.3,0
	c0.1,0.1,0.2,0.3,0.3,0.4c1.8,1.9,3.6,3.8,5.4,5.7c1,1.1,2,2.1,3.1,3.3c2.5-2.8,5-5.4,7.4-8c2.1,2.2,4.2,4.5,6.2,6.6
	c-4.6,4.8-9.1,9.7-13.7,14.6c-0.2-0.1-0.3-0.3-0.5-0.4c-2.1-2.2-4.1-4.4-6.2-6.6c-4.9-5.2-9.8-10.4-14.8-15.7
	C-37.8,258-38.3,258-38.7,258z"/>
<path class="st0" d="M180.8,315.8c2.6-2.7,5.1-5.5,7.7-8.2c0.2,0.2,0.4,0.3,0.5,0.4c4.7,5,9.3,9.9,14,14.9c0.2,0.2,0.5,0.4,0.7,0.6
	c0-0.1,0-0.2,0-0.3c0.2-0.1,0.4-0.3,0.6-0.5c6.1-6.5,12.2-13,18.4-19.5c1.6-1.7,3.3-3.4,5.1-5.2c-1.9-1.9-3.5-3.7-5.2-5.4
	c-4.8-5.1-9.6-10.3-14.5-15.4c-1.5-1.6-3-3.1-4.5-4.6c0,0.1,0,0.2,0,0.3c-0.2,0.2-0.4,0.3-0.6,0.5c-3.7,3.9-7.3,7.8-11,11.7
	c-1.6,1.7-3.2,3.3-4.9,5c0.2,0.3,0.3,0.4,0.4,0.5c4,4.3,8,8.5,12,12.8c1.3,1.4,2.7,2.8,4.1,4.2c0-0.1,0-0.2,0-0.3
	c0.1-0.1,0.2-0.1,0.3-0.2c1.7-1.8,3.4-3.6,5.1-5.4c1.1-1.2,2.2-2.4,3.4-3.7c-2-2.1-3.8-4-5.7-6c-0.3-0.4-0.5-0.7-0.4-1.3
	c0.5-2-0.8-3.7-2.8-3.8c0,0.1,0,0.2,0,0.2c-1.7,0.1-2.9,1.4-2.9,3c0,1.7,1.2,3,3,3.1c0-0.1,0-0.2,0-0.3c1.1-0.4,1.8,0.1,2.5,1
	c1.2,1.4,2.4,2.6,3.7,4c-1.2,1.3-2.4,2.6-3.7,3.9c-0.8,0.9-1.7,1.7-2.6,2.6c0,0.1,0,0.1,0,0.2c-0.2-0.1-0.4-0.2-0.5-0.4
	c-2.8-3-5.6-5.9-8.4-8.9c-1.6-1.7-3.3-3.4-5-5.1c0.4-0.4,0.5-0.6,0.7-0.8c3.9-4.2,7.9-8.3,11.8-12.5c0.4-0.5,1-0.9,1.4-1.3
	c0-0.1,0-0.1,0-0.2c0.2,0.2,0.4,0.3,0.6,0.5c5.7,6.1,11.5,12.1,17.2,18.2c1.2,1.3,2.4,2.6,3.6,3.8c-0.2,0.2-0.3,0.3-0.4,0.4
	c-4,4.3-8,8.5-12,12.8c-3,3.2-6,6.3-9,9.5c0,0.1,0,0.1,0,0.2c-3.5-3.7-7.1-7.4-10.6-11.2c-1.5-1.6-3-3.2-4.5-4.9
	c-6.9,7.4-13.8,14.6-20.6,21.8c-0.4,0.5-0.8,0.9-1.6,0.7c-1.3-0.4-2.6,0.3-3.2,1.5c-0.6,1.2-0.4,2.8,0.5,3.7
	c0.9,0.9,2.3,1.2,3.4,0.6c1.2-0.7,1.9-2,1.5-3.5c-0.1-0.6,0-0.9,0.4-1.3C173,324.2,176.9,320,180.8,315.8z"/>
<path class="st0" d="M-36.1,302.1c-0.8,0.9-1.7,1.7-2.6,2.6c0,0.9,0,1.9,0,2.8c0.1-0.1,0.3-0.1,0.4-0.3c1.7-1.8,3.4-3.6,5.1-5.4
	c1.1-1.2,2.2-2.4,3.4-3.6c-2-2.1-3.8-4-5.7-6c-0.3-0.4-0.5-0.7-0.4-1.3c0.5-2-0.8-3.7-2.8-3.8c0,2,0,4.1,0,6.1
	c1.1-0.4,1.8,0.1,2.5,0.9c1.2,1.4,2.4,2.6,3.7,4C-33.7,299.5-34.9,300.8-36.1,302.1z"/>
<path class="st0" d="M59.7,347.6c8-8.4,15.9-16.9,24.1-25.5c-5-5.3-10-10.6-15.2-16c0.3-0.3,0.6-0.5,0.9-0.7
	c8.7-9.2,17.3-18.4,26-27.5c0.5-0.6,1-0.8,1.8-0.6c1.3,0.3,2.7-0.6,3.1-1.9c0.5-1.4,0-2.9-1.2-3.7c-1.1-0.7-2.1-0.7-3.2,0
	c-1.2,0.8-1.5,1.9-1.2,3.3c0.1,0.7,0,1-0.5,1.4c-1.1,1.1-2.2,2.3-3.2,3.4c-5.9,6.3-11.8,12.5-17.7,18.8c-2.4,2.6-4.9,5.1-7.3,7.7
	c5.1,5.4,10.1,10.7,15.1,15.9c-7.3,7.7-14.4,15.3-21.7,23c-2.4-2.6-4.9-5.3-7.3-8c-3,3.2-5.9,6.2-8.8,9.4c1.8,2,3.7,3.9,5.5,5.8
	c0.4,0.5,0.7,0.9,0.5,1.6c-0.1,0.4-0.1,1,0,1.4c0.5,1.7,2.1,2.6,3.6,2.1c1.5-0.5,2.4-2.2,2-3.8c-0.4-1.7-1.9-2.5-3.6-2.1
	c-0.2,0.1-0.6,0.1-0.7-0.1c-1.6-1.6-3.2-3.3-4.7-4.9c2.1-2.3,4.2-4.5,6.4-6.9C54.9,342.3,57.4,345,59.7,347.6z"/>
<path class="st0" d="M59.8,299.5c4.8-5.1,9.5-10,14.2-15c4.7-5,9.4-10,14.2-15c0.4-0.4,0.7-0.6,1.3-0.4c0.5,0.2,1.1,0.1,1.6-0.1
	c1.5-0.5,2.3-2.3,1.8-3.8c-0.5-1.6-2.1-2.5-3.5-2.1c-1.5,0.4-2.4,2-2.1,3.7c0.1,0.4,0,0.9-0.2,1.1c-3.3,3.6-6.6,7.1-9.9,10.6
	c-3.6,3.8-7.2,7.6-10.7,11.4c-2.2,2.3-4.4,4.7-6.6,7.1c-2.6-2.8-5.1-5.4-7.5-8c-5.5,5.8-11,11.6-16.4,17.3c2.9,3.1,5.8,6.1,8.8,9.3
	c2.4-2.6,4.9-5.3,7.4-8c1.6,1.6,3,3.2,4.5,4.8c0.3,0.4,0.4,0.7,0.3,1.2c-0.4,1.4,0.2,2.7,1.3,3.4c1.2,0.7,2.5,0.6,3.5-0.4
	c0.9-0.9,1.2-2.4,0.6-3.6c-0.6-1.3-1.8-2-3.2-1.7c-0.8,0.2-1.2-0.1-1.7-0.6c-1.8-1.9-3.6-3.8-5.5-5.9c-2.5,2.7-5,5.4-7.4,8
	c-2.1-2.2-4.2-4.4-6.2-6.5c4.6-4.9,9.2-9.8,13.9-14.7C54.8,294.2,57.3,296.8,59.8,299.5z"/>
<path class="st0" d="M100.2,288.8c1.7-1.8,3.3-3.6,5.1-5.4c5.1,5.4,10.1,10.8,15.1,16.1c0.3-0.3,0.5-0.4,0.7-0.7
	c3-3.2,6-6.4,9.1-9.7c3.7-3.9,7.4-7.9,11.1-11.8c2.5-2.7,5-5.3,7.5-8c0.4-0.4,0.7-0.6,1.3-0.4c0.9,0.3,1.7,0.1,2.5-0.5
	c1.2-1,1.5-2.7,0.7-4.1c-0.7-1.3-2.3-1.8-3.6-1.2c-1.4,0.6-2,2.1-1.7,3.6c0.1,0.3,0,0.8-0.3,1.1c-1.1,1.2-2.2,2.4-3.3,3.6
	c-7,7.4-14,14.9-21,22.3c-0.9,1-1.8,2.1-2.9,3.3c-5.2-5.5-10.2-10.9-15.2-16.2c-0.1,0.1-0.3,0.2-0.4,0.4c-4.2,4.5-8.5,9-12.7,13.5
	c-0.4,0.4-0.7,0.6-1.3,0.4c-1.3-0.3-2.6,0.3-3.2,1.5c-0.6,1.3-0.4,2.8,0.5,3.7c0.9,0.9,2.4,1.1,3.5,0.4c1.1-0.6,1.6-2,1.3-3.4
	c-0.1-0.4,0.1-0.9,0.3-1.2C95.6,293.8,97.9,291.3,100.2,288.8z"/>
<path class="st0" d="M136.1,331.2c4.2-4.5,8.4-8.9,12.6-13.4c0.3-0.4,0.6-0.7,1.3-0.5c1.3,0.4,2.6-0.2,3.2-1.3
	c0.7-1.3,0.5-2.7-0.4-3.8c-0.9-1-2.3-1.2-3.4-0.5c-1.2,0.7-1.8,2-1.4,3.4c0.2,0.6,0,0.9-0.4,1.3c-2.3,2.4-4.6,4.8-6.9,7.3
	c-1.7,1.8-3.3,3.6-5.1,5.6c-10.2-10.8-20.3-21.5-30.4-32.2c-1.9,2-3.7,4-5.6,6c-0.4,0.4-0.8,0.6-1.4,0.5c-0.6-0.1-1.4,0-2,0.2
	c-1.4,0.7-1.9,2.5-1.3,4c0.6,1.4,2.2,2.2,3.6,1.7c1.4-0.5,2.2-2,1.9-3.6c-0.1-0.3-0.1-0.8,0-1c1.5-1.7,3.1-3.3,4.7-5.1
	c10.1,10.7,20.2,21.4,30.3,32.2C135.8,331.5,135.9,331.3,136.1,331.2z"/>
<path class="st0" d="M179.1,301.6c0.4-0.5,0.8-0.6,1.4-0.4c2,0.5,3.8-1.3,3.5-3.4c-0.3-1.7-1.7-2.9-3.3-2.6
	c-1.7,0.3-2.7,1.7-2.4,3.5c0.1,0.5,0.2,1-0.3,1.5c-6.9,7.2-13.7,14.5-20.6,21.8c-2.6,2.8-5.2,5.5-8,8.4c2,2,3.9,4,5.8,6
	c0.4,0.4,0.5,0.7,0.4,1.3c-0.4,1.4,0.2,2.7,1.3,3.4c1.1,0.7,2.4,0.6,3.5-0.4c0.9-0.9,1.2-2.3,0.7-3.5c-0.5-1.2-1.7-2.1-3-1.8
	c-1,0.2-1.5-0.2-2-0.8c-0.2-0.3-0.5-0.5-0.7-0.8c-1.1-1.1-2.1-2.3-3.3-3.5c2.6-2.7,5.2-5.3,7.7-8
	C166.1,315.4,172.6,308.5,179.1,301.6z"/>
<path class="st0" d="M225.9,280c-2.1-2.2-4.1-4.4-6.2-6.6c-4.9-5.2-9.8-10.4-14.8-15.7c-0.4,0-0.9,0-1.3,0c0,0.5,0,0.9,0,1.4
	c7.6,8,15.1,16,22.6,23.9c5.5-5.9,11-11.6,16.5-17.4c-1-1-2-2.1-3-3.1c-1.5-1.6-2.9-3.1-4.4-4.7c-0.2,0-0.4,0-0.6,0
	c-0.4-0.4-0.7-0.8-1.1-1.3c-0.4,0.5-0.8,1-1.2,1.4c-1.3,1.5-2.7,2.9-4,4.4c-0.6,0.7-1.2,1.5-2.1,2.5c-0.7-0.9-1.2-1.6-1.8-2.3
	c-1.4-1.6-2.8-3.2-4.3-4.7c-0.1,0-0.2,0-0.2,0c0-0.1,0.1-0.2,0.1-0.2c3.9-4.2,7.9-8.3,11.8-12.5c0.2-0.2,0.7-0.3,1-0.2
	c1.4,0.2,2.7-0.3,3.3-1.5c0.6-1.3,0.4-2.8-0.5-3.7c-0.9-0.9-2.3-1.2-3.4-0.6c-1.3,0.7-1.8,2.1-1.5,3.6c0.1,0.3-0.1,0.8-0.3,1.1
	c-3,3.2-6,6.4-9,9.6c-1.4,1.5-2.8,3.1-4.2,4.6c0.1,0,0.2,0,0.3,0c0.1,0.1,0.2,0.3,0.3,0.4c1.8,1.9,3.6,3.8,5.4,5.7
	c1,1.1,2,2.1,3.1,3.3c2.5-2.8,5-5.4,7.4-8c2.1,2.2,4.2,4.5,6.2,6.6c-4.6,4.8-9.1,9.7-13.7,14.6C226.3,280.3,226.1,280.2,225.9,280z"
	/>
</svg>
