<svg width="30" height="30" viewBox="0 0 30 30" fill="none" xmlns="http://www.w3.org/2000/svg">
<path d="M0.912933 13.463H23.8073L10.1043 1.16639C9.88522 0.968188 10.0183 0.600098 10.3078 0.600098H13.7707C13.9233 0.600098 14.0681 0.656727 14.1816 0.75785L28.9685 14.0212C29.1039 14.1426 29.2125 14.2926 29.2869 14.4611C29.3614 14.6297 29.3999 14.8128 29.3999 14.9981C29.3999 15.1834 29.3614 15.3665 29.2869 15.535C29.2125 15.7035 29.1039 15.8536 28.9685 15.9749L14.0955 29.3192C14.0368 29.3718 13.9664 29.4001 13.892 29.4001H10.3117C10.0222 29.4001 9.88914 29.028 10.1083 28.8338L23.8073 16.5372H0.912933C0.740767 16.5372 0.599901 16.3916 0.599901 16.2136V13.7866C0.599901 13.6086 0.740767 13.463 0.912933 13.463Z" fill="black"/>
</svg>
