<svg width="30" height="30" viewBox="0 0 30 30" fill="none" xmlns="http://www.w3.org/2000/svg">
<path d="M29.0871 13.463H6.19267L19.8957 1.16639C20.1148 0.968188 19.9817 0.600098 19.6922 0.600098H16.2293C16.0767 0.600098 15.9319 0.656727 15.8184 0.75785L1.03155 14.0212C0.896116 14.1426 0.787502 14.2926 0.713062 14.4611C0.638623 14.6297 0.600098 14.8128 0.600098 14.9981C0.600098 15.1834 0.638623 15.3665 0.713062 15.535C0.787502 15.7035 0.896116 15.8536 1.03155 15.9749L15.9045 29.3192C15.9632 29.3718 16.0336 29.4001 16.108 29.4001H19.6883C19.9778 29.4001 20.1109 29.028 19.8917 28.8338L6.19267 16.5372H29.0871C29.2592 16.5372 29.4001 16.3916 29.4001 16.2136V13.7866C29.4001 13.6086 29.2592 13.463 29.0871 13.463Z" fill="black"/>
</svg>
