<?xml version="1.0" encoding="utf-8"?>
<!-- Generator: Adobe Illustrator 25.3.1, SVG Export Plug-In . SVG Version: 6.00 Build 0)  -->
<svg version="1.1" id="圖層_1" xmlns="http://www.w3.org/2000/svg" xmlns:xlink="http://www.w3.org/1999/xlink" x="0px" y="0px"
	 viewBox="0 0 180 100" style="enable-background:new 0 0 180 100;" xml:space="preserve">
<style type="text/css">
	.st0{fill:#9D6942;}
	.st1{fill:#DEA066;}
	.st2{fill:#8F562D;}
	.st3{fill:#7D4115;}
	.st4{fill:#824C24;}
	.st5{fill:#BA8656;}
	.st6{fill:#DE9A59;}
	.st7{opacity:0.35;fill:url(#SVGID_1_);enable-background:new    ;}
</style>
<g>
	<g id="圖層_2_1_">
		<g id="background">
			<rect y="0" class="st0" width="180" height="100"/>
			<rect x="4.3" y="4.4" class="st1" width="171.3" height="91.3"/>
			<rect x="4.3" y="0" class="st2" width="171.3" height="4.4"/>
			<rect x="4.3" y="95.6" class="st2" width="171.3" height="4.4"/>
			<path class="st3" d="M175.6,2.5c-5.5,0.3-18.2,0.4-22.5,0.1c-2.5-0.1-5-0.1-7.5,0c-2.2,0.1-4.4,0.1-6.7,0.1
				c-2.6-0.1-5.1,0.1-7.6,0.3c-1.6,0.1-3.2,0.2-4.8,0.3c-4.1,0.1-8.3-0.2-12.5-0.4c-1.1-0.1-2.1-0.1-3.1-0.2
				c-6-0.4-11.7-0.2-18.1,0.4c-4.1,0.4-8.3,0.3-12.4,0.2c-1.9-0.1-4-0.1-6-0.1c-2,0-4.1-0.1-6.1-0.3c-2.5-0.2-5.1-0.4-7.7-0.2
				c-2.4,0.1-5.1,0.3-8,0.5c-0.8,0.1-1.6,0.2-2.3,0.3c-1.6,0.2-3.2,0.4-4.8,0.3c-1.9-0.1-3.7-0.4-5.4-0.7c-1.1-0.2-2.2-0.4-3.3-0.5
				c-2-0.3-4.1-0.2-6.1-0.1c-1.8,0.1-3.7,0.1-5.6-0.1C22.6,1.8,20,2,17.3,2.2c-0.9,0.1-1.8,0.1-2.8,0.2l-1.3,0.1
				c-2.8,0.1-6.1,0.3-9,0.8v0.2c2.8-0.5,6.2-0.7,9-0.8c0.4,0,0.8,0,1.3-0.1c0.9,0,1.9-0.1,2.8-0.2c2.7-0.2,5.3-0.3,8-0.1
				c1.8,0.2,3.8,0.1,5.6,0.1c2-0.1,4.1-0.1,6,0.1c1.1,0.1,2.2,0.3,3.3,0.5c1.8,0.3,3.6,0.6,5.5,0.7C47.4,4,49,3.8,50.6,3.6
				c0.8-0.1,1.5-0.2,2.3-0.3c2.9-0.2,5.5-0.4,8-0.5c2.5-0.1,5.1,0.1,7.6,0.2c2,0.1,4.1,0.3,6.1,0.3c2,0,4,0.1,5.9,0.1
				c4.1,0.1,8.3,0.2,12.4-0.2c6.4-0.7,12.1-0.8,18.1-0.4c1,0.1,2.1,0.1,3.1,0.2c4.1,0.3,8.4,0.6,12.5,0.4c1.6,0,3.2-0.2,4.8-0.3
				c2.5-0.2,5-0.4,7.5-0.3c2.2,0.1,4.5,0,6.7-0.1c2.4-0.1,5-0.2,7.4,0c2.7,0.1,16.4,0.3,22.5-0.1V2.5z"/>
			<path class="st3" d="M62.5,0.8c1.8,0.3,3.6,0.5,5.4,0.7c-1.7-0.1-3.1-0.1-3.5-0.2c-2.3-0.2-4.5,0-6.7,0.2
				c-2.1,0.2-4.3,0.4-6.5,0.3c-3.9-0.2-7.9-0.3-11.8-0.3c-2.5,0-5.1-0.1-7.7-0.1c-2.9-0.1-5.9,0-8.8,0.1c-1.4,0-2.9,0.1-4.4,0.1
				c-1.1,0-2.2,0-3.3,0c-1.5,0-3.1-0.1-4.7,0C9.5,1.6,8.3,1.7,7.2,1.8c-1,0.1-2,0.2-2.9,0.2v0.2c1-0.1,2-0.1,3-0.2
				C8.4,2,9.5,1.9,10.6,1.8c1.6-0.1,3.1,0,4.6,0c1.1,0,2.2,0,3.3,0c1.5,0,3-0.1,4.4-0.1c2.9-0.1,5.9-0.2,8.7-0.1
				c2.6,0.1,5.2,0.1,7.7,0.1c3.9,0,7.8,0.1,11.7,0.3c2.2,0.1,4.4-0.1,6.6-0.3c2.2-0.2,4.4-0.4,6.7-0.2c1.8,0.1,18,0.7,19.9,0.3
				c0.9,0,1.8,0,2.7-0.1c8.5-0.2,17.2-0.1,25.6,0c3.7,0,7.6,0.1,11.3,0.1h0.4c2.5,0,5-0.1,7.4-0.3s4.9-0.3,7.4-0.3
				c0.6,0,1.2,0,1.8,0c2.4,0,4.9,0,7.3-0.1c0.4,0.3,1.7,0.4,3.5,0.4c1.3,0,2.9,0,4.5-0.1c1.1,0,1.9-0.1,2.2-0.1
				c4.2,0.2,8.6,0.1,12.8,0.1c1.5,0,3,0,4.5,0V1.4c-1.5,0-3,0-4.5,0c-4.2,0.1-8.5,0.1-12.7-0.1c-0.4,0-1.2,0-2.3,0.1
				c-2.2,0.1-6,0.2-7.3,0c0.8,0,1.6-0.1,2.5-0.1c3.8-0.3,7.6-0.7,11.5-1.2H161c-3.3,0.4-6.5,0.7-9.8,1c-3.4,0.3-7,0.3-10.4,0.3
				l-1.8,0H139c-2.5,0-5,0.1-7.4,0.3c-2.5,0.1-5.2,0.3-7.8,0.3c-3.8,0-7.6-0.1-11.3-0.1c-8.4-0.1-17-0.2-25.6,0
				c-9,0.2-16.6,0.3-24.4-1C60.8,0.3,59,0.1,57.2,0h-6C55,0.1,58.8,0.2,62.5,0.8z"/>
			<path class="st3" d="M4.3,0.2v0.2C6.1,0.1,7.9,0.1,9.7,0c0.5,0,1,0,1.4,0c0,0,0.1,0,0.1,0H5.7C5.2,0,4.8,0.1,4.3,0.2z"/>
			<path class="st3" d="M4.3,98.1c5.5,0.3,18.2,0.4,22.5,0.1c2.5-0.1,5-0.1,7.5,0c2.2,0.1,4.4,0.1,6.7,0.1c2.6-0.1,5.1,0.1,7.6,0.3
				c1.6,0.1,3.2,0.2,4.8,0.3c4.1,0.1,8.3-0.2,12.5-0.4c1.1-0.1,2.1-0.1,3.1-0.2c6-0.4,11.7-0.2,18.1,0.4c4.1,0.4,8.3,0.3,12.4,0.2
				c1.9-0.1,4-0.1,6-0.1c2,0,4.1-0.1,6.1-0.3c2.5-0.2,5.1-0.4,7.7-0.2c2.4,0.1,5.1,0.3,8,0.5c0.8,0.1,1.6,0.2,2.3,0.3
				c1.6,0.2,3.2,0.4,4.8,0.3c1.9-0.1,3.7-0.4,5.4-0.7c1.1-0.2,2.2-0.4,3.3-0.5c2-0.3,4.1-0.2,6.1-0.1c1.8,0.1,3.7,0.1,5.6-0.1
				c2.7-0.3,5.3-0.1,8.1,0.1c0.9,0.1,1.8,0.1,2.8,0.2l1.3,0.1c2.8,0.1,6.1,0.3,9,0.8V99c-2.8-0.5-6.2-0.7-9-0.8l-1.3-0.1
				c-0.9,0-1.9-0.1-2.8-0.2c-2.7-0.2-5.3-0.3-8-0.1c-1.8,0.2-3.8,0.1-5.6,0.1c-2-0.1-4.1-0.1-6,0.1c-1.1,0.1-2.2,0.3-3.3,0.5
				c-1.8,0.3-3.6,0.6-5.5,0.7c-1.7,0.1-3.3-0.1-4.9-0.3c-0.8-0.1-1.5-0.2-2.3-0.3c-2.9-0.2-5.5-0.4-8-0.5c-2.5-0.1-5.1,0.1-7.6,0.2
				c-2,0.1-4.1,0.3-6.1,0.3c-2,0-4,0.1-5.9,0.1c-4.1,0.1-8.3,0.2-12.4-0.2c-6.4-0.7-12.1-0.8-18.1-0.4c-1,0.1-2.1,0.1-3.1,0.2
				c-4.1,0.3-8.4,0.6-12.5,0.4c-1.6,0-3.2-0.2-4.8-0.3c-2.5-0.2-5-0.4-7.5-0.3c-2.2,0.1-4.5,0-6.7-0.1c-2.4-0.1-5-0.2-7.4,0
				c-2.7,0.1-16.4,0.3-22.5-0.1L4.3,98.1z"/>
			<path class="st3" d="M117.5,96.5c-1.8,0.3-3.6,0.5-5.4,0.7c1.7-0.1,3.1-0.1,3.5-0.2c2.3-0.2,4.5,0,6.7,0.2
				c2.1,0.2,4.3,0.4,6.5,0.3c3.9-0.2,7.9-0.3,11.8-0.3c2.5,0,5.1-0.1,7.7-0.1c2.9-0.1,5.9,0,8.8,0.1c1.4,0,2.9,0.1,4.4,0.1
				c1.1,0,2.2,0,3.3,0c1.5,0,3.1-0.1,4.7,0c1.1,0.1,2.2,0.2,3.3,0.2c1,0.1,2,0.2,2.9,0.2v0.2c-1-0.1-2-0.1-3-0.2
				c-1.1-0.1-2.2-0.2-3.3-0.2c-1.6-0.1-3.1,0-4.6,0c-1.1,0-2.2,0-3.3,0c-1.5,0-3-0.1-4.4-0.1c-2.9-0.1-5.9-0.2-8.7-0.1
				c-2.6,0.1-5.2,0.1-7.7,0.1c-3.9,0-7.8,0.1-11.7,0.3c-2.2,0.1-4.4-0.1-6.6-0.3c-2.2-0.2-4.4-0.4-6.7-0.2c-1.8,0.1-18,0.7-19.9,0.3
				c-0.9,0-1.8,0-2.7-0.1c-8.5-0.2-17.2-0.1-25.6,0c-3.7,0-7.6,0.1-11.3,0.1h-0.4c-2.5,0-5-0.1-7.4-0.3s-4.9-0.3-7.4-0.3
				c-0.6,0-1.2,0-1.8,0c-2.4,0-4.9,0-7.3-0.1c-0.4,0.3-1.7,0.4-3.5,0.4c-1.3,0-2.9,0-4.5-0.1c-1.1,0-1.9-0.1-2.2-0.1
				c-4.2,0.2-8.6,0.1-12.8,0.1c-1.5,0-3,0-4.5,0V97c1.5,0,3,0,4.5,0c4.2,0.1,8.5,0.1,12.7-0.1c0.4,0,1.2,0,2.3,0.1
				c2.2,0.1,6,0.2,7.3,0c-0.8,0-1.6-0.1-2.5-0.1c-3.8-0.3-7.6-0.7-11.5-1.2H19c3.3,0.4,6.5,0.7,9.8,1c3.4,0.3,7,0.3,10.4,0.3
				c0.6,0,1.2,0,1.8,0h0.1c2.5,0,5,0.1,7.4,0.3c2.5,0.1,5.2,0.3,7.8,0.3c3.8,0,7.6-0.1,11.3-0.1c8.4-0.1,17-0.2,25.6,0
				c9,0.2,16.6,0.3,24.4-1c1.7-0.3,3.5-0.5,5.3-0.6h6C125,95.7,121.1,95.8,117.5,96.5z"/>
			<path class="st3" d="M175.6,95.8V96c-1.8-0.2-3.6-0.3-5.4-0.3c-0.5,0-1,0-1.4,0h-0.1h5.5C174.7,95.7,175.2,95.7,175.6,95.8z"/>
			<path class="st4" d="M179.2,94c0.1-0.8,0.3-1.6,0.3-2.3c0.2-2.1,0.1-4-0.1-6c-0.1-0.8-0.1-1.7-0.2-2.5
				c-0.4-7.5-0.1-13.4,0.7-18.4c0-0.2,0.1-0.4,0.1-0.6v-6.1c-0.1,1-0.1,2-0.1,2.9c0,1.2,0,2.5-0.2,3.7c-0.8,5-1.1,10.9-0.7,18.4
				c0,0.9,0.1,1.7,0.2,2.5c0.2,2,0.3,3.9,0.1,5.9c-0.1,0.7-0.2,1.4-0.3,2.2c-0.3,2-0.7,4.1-0.4,6h0.2C178.4,98.1,178.8,96,179.2,94z
				"/>
			<path class="st4" d="M180,29.7c-0.4-2.4-0.7-4.5-0.7-7.5c0-0.3,0-0.7,0-1c0,0,0,0,0,0c-0.1-1.1-0.2-2.2-0.3-3.3
				c-0.2-1.6-0.4-3.2-0.4-4.8c0-0.9,0.1-1.9,0.2-2.8c0.1-1.3,0.2-2.6,0.1-3.9c-0.1-0.8-0.2-1.7-0.3-2.5c-0.1-1.3-0.3-2.6-0.4-3.9
				h-0.2c0.1,1.3,0.2,2.6,0.4,3.9c0.1,0.8,0.2,1.6,0.3,2.5c0.1,1.3,0,2.6-0.1,3.9c-0.1,0.9-0.2,1.9-0.2,2.8c0,1.6,0.2,3.3,0.4,4.8
				c0.1,1.1,0.2,2.2,0.3,3.3c0.1,5.4,0.1,13.5-0.2,14.1l-0.1,0v0.1c-0.1,1.6,0.1,3.2,0.4,4.7c0.2,1.1,0.3,2.3,0.4,3.4
				c0.1,2.2-0.3,4.4-0.6,6.6c-0.1,0.7-0.2,1.3-0.3,2c-0.7,4.8-0.6,9.7-0.6,14.4c0,0.8,0.1,1.7,0.2,2.5c0.1,1.1,0.2,2.3,0.2,3.4
				c-0.1,0.8-0.2,1.7-0.4,2.6c-0.3,1.6-0.5,3.3-0.4,4.8c0.1,0.7,0.2,1.4,0.4,2.1c0.3,1.4,0.5,2.8,0.4,4.4c-0.1,0.9-0.3,1.9-0.5,2.8
				c-0.2,0.8-0.4,1.7-0.5,2.6c-0.9-7.4-0.4-26.4-0.1-40.5c0.2-6.7,0.3-11.9,0.2-14.1c0-0.8-0.1-1.5-0.1-2.2
				c-0.1-1.3-0.1-2.5-0.1-3.8c0-1.3,0.2-2.6,0.3-3.9c0.1-1.6,0.3-3.2,0.3-4.9v-1.2c0-3,0-6.1,0-9.1c0-2.4-0.3-4.8-0.7-7.1
				c-0.2-1.6-0.5-3.2-0.6-4.8h-0.2c0.1,1.6,0.3,3.3,0.6,4.9c0.3,2.3,0.7,4.7,0.7,7.1c0,3,0,6.1,0,9.1v1.2c0,1.6-0.1,3.3-0.3,4.9
				c-0.1,1.3-0.2,2.6-0.3,3.9s0,2.5,0.1,3.8c0,0.7,0.1,1.5,0.1,2.2c0.1,2.2-0.1,7.5-0.2,14.1c-0.4,14.7-0.9,34.7,0.2,41.4
				c-0.1,1.3,0,2.7,0,3.9c0,1.2,0,2.3,0,3.5h0.2c0-1.1,0-2.3,0-3.5c0-1.3-0.1-2.6,0-3.9c0.1-1.2,0.3-2.4,0.6-3.5
				c0.2-0.9,0.4-1.9,0.5-2.8c0.2-1.6-0.1-3-0.4-4.4c-0.1-0.7-0.3-1.4-0.4-2.1c-0.2-1.5,0.1-3.1,0.4-4.7c0.2-0.9,0.3-1.8,0.4-2.6
				c0.1-1.2,0-2.3-0.2-3.4c-0.1-0.8-0.2-1.7-0.2-2.5c0-4.7-0.1-9.5,0.6-14.3c0.1-0.7,0.2-1.3,0.3-2c0.3-2.2,0.7-4.5,0.6-6.7
				c0-1.2-0.2-2.3-0.4-3.4c-0.2-1.5-0.4-3-0.4-4.6c0.1-0.2,0.3-1.2,0.3-7.2c0-0.8,0-1.6,0-2.4c0.1,1.3,0.3,2.6,0.5,3.8
				c0.1,0.5,0.2,0.9,0.2,1.4v-1.2C180,29.9,180,29.8,180,29.7z"/>
			<path class="st4" d="M3.4,5.5c0,1.5,0,2.8,0.1,3.9c0.2,1.5,0.1,3-0.2,4.5c-0.2,1-0.2,5.1-0.1,9.2l0-0.4c-0.3-2.4-0.5-4.8-0.5-7.4
				c0.1-3-0.1-6.1-0.2-9C2.4,4.1,2.3,2.1,2.3,0H2.1c0,2.1,0.1,4.2,0.2,6.2c0.1,3,0.2,6,0.2,9c-0.1,2.5,0.2,5,0.5,7.4
				c0.1,1,0.2,2,0.3,2.9c0,0.5,0,1,0,1.5c0,2.4,0.1,4.2,0.1,4.9c0,0.7-0.1,1.4-0.1,2c-0.2,2.9-0.4,5.9-0.4,8.7
				c0,1.1,0.1,2.2,0.1,3.2c0,0.6,0.1,1.3,0.1,1.9C3,49,2.8,50,2.6,51.1c-0.2,0.8-0.3,1.5-0.4,2.3c-0.1,1.6-0.3,3.2-0.5,4.8
				c-0.1,0.8-0.2,1.6-0.3,2.4c-0.3-3.1-0.1-7.6,0-11c0.1-1.5,0.1-2.8,0.1-3.7c0-1.3,0-2.5,0-3.8c0-2.3,0.1-4.7,0-7.2
				c-0.1-2.7-0.2-5.2,0.4-8.1c0.4-1.9,0.6-3.4,0.1-5.4c-1.2-4.7-1-9.8-0.9-14.7C1.2,4.5,1.2,2.2,1.2,0H0.9c0.1,2.2,0,4.5,0,6.6
				c-0.1,4.9-0.3,10.1,0.9,14.8c0.5,2,0.3,3.4-0.1,5.3c-0.6,2.9-0.5,5.4-0.4,8.2c0.1,2.4,0.1,4.8,0,7.1c0,1.2,0,2.5,0,3.8
				c0,0.9,0,2.2-0.1,3.7c-0.1,3.8-0.3,8.9,0.1,12c-0.2,2.5-0.4,5-0.2,7.5c0.6,6.2,0.5,12.2-0.2,17.7c-0.5,3.7-0.1,8.1,0.2,12v0
				c0,0.4,0.1,0.8,0.2,1.2h0.2c-0.1-0.4-0.2-0.8-0.2-1.3v0c-0.3-3.8-0.7-8.2-0.2-11.9C1.9,81.2,1.9,75.2,1.4,69
				c-0.3-3.7,0.1-7.3,0.5-10.8c0.2-1.6,0.4-3.2,0.5-4.8c0.1-0.8,0.2-1.5,0.4-2.3c0.1-0.5,0.2-1,0.3-1.5c0.2,2.6,0,7.5-0.2,11.5
				c-0.1,2.5-0.3,4.7-0.2,5.9c0,1,0.2,1.9,0.4,2.8c0.2,0.9,0.4,1.9,0.4,3c0,2.6,0,5.3,0.1,7.8c0,1.7,0.1,3.5,0.1,5.3
				c0,1.4-0.1,2.8-0.1,4.2c-0.1,2.1-0.2,4.2,0,6.4c0.1,0.8,0.1,1.7,0,2.6c0,0.3,0,0.6,0,0.9h0.2c0-0.3,0-0.6,0-0.9
				c0-0.9,0-1.8,0-2.6c-0.2-2.2-0.1-4.3,0-6.4c0.1-1.4,0.2-2.8,0.1-4.2c0-1.8-0.1-3.5-0.1-5.3c-0.1-2.6-0.1-5.2-0.1-7.8
				c0-1.1-0.2-2.1-0.4-3C3,68.9,2.8,68,2.8,67c0-1.2,0.1-3.4,0.2-5.9c0.2-4.5,0.6-10.2,0.1-12.5c0-0.3,0-0.6,0-0.8
				c0-0.6-0.1-1.3-0.1-1.9C3.1,44.8,3,43.8,3,42.7c0-2.7,0.2-5.8,0.4-8.7c0-0.7,0.1-1.4,0.1-2c0-0.4,0-0.8,0.1-1.2
				c0.1-1.7,0-3.5-0.1-5.2C3.3,20.8,3.3,15,3.5,13.9c0.3-1.5,0.4-3,0.2-4.5c-0.1-1-0.1-2.4-0.1-3.8c0-1.8,0-3.8-0.2-5.5H3.2
				C3.4,1.7,3.4,3.7,3.4,5.5z"/>
			<path class="st5" d="M4.3,4.4v91.3h171.3V4.4H4.3z M175,95.2H4.9V4.8H175L175,95.2z"/>
			<path class="st6" d="M165.1,82.5c-0.3-0.1-0.7-0.1-1-0.1c-0.6,0-1.2,0.2-1.8,0.5c-0.4,0.2-0.8,0.6-1.1,0.9
				c-0.3,0.3-0.5,0.7-0.6,1.1c-0.1,0.3-0.1,0.6-0.1,1c0.1,0.8,0.3,1.7,0.9,2.2c0.6,0.6,1.3,0.9,2.1,0.9c0.6,0,1.2-0.2,1.7-0.5
				c0.4-0.2,0.7-0.5,0.9-0.8c0.2-0.2,0.3-0.4,0.5-0.6c0.1-0.3,0.3-0.6,0.4-0.9c0,0.1,0,0.1-0.1,0.2c0.3-0.7,0.2-1.5,0-2.2
				C166.6,83.4,165.9,82.6,165.1,82.5z"/>
			<path class="st6" d="M162.1,78.8C162.1,78.8,162.1,78.8,162.1,78.8c0.3,1.2,1.2,2.1,2.3,2.4l0,0c0.4,0.1,0.9,0.2,1.3,0.1
				c0.4,0,0.9-0.2,1.3-0.4l0.7-0.5c0.4-0.4,0.7-1,0.9-1.5c0,0,0,0,0,0c0.5-1.8-0.6-3.8-2.4-4.3c-0.6-0.2-1.2-0.2-1.8,0l0,0
				c-0.8,0.3-1.5,0.8-2,1.6c-0.1,0.3-0.2,0.6-0.3,0.8C161.9,77.5,161.9,78.2,162.1,78.8z"/>
			<path class="st6" d="M155.9,72.6c-2,0-2,3.1,0,3.1C157.9,75.7,157.9,72.6,155.9,72.6z"/>
			<path class="st6" d="M22.5,10.9c0.4,0.4,0.9,0.6,1.5,0.6c0.3,0,0.6-0.1,0.8-0.2c0.3-0.1,0.5-0.2,0.7-0.4c0.2-0.2,0.3-0.4,0.4-0.7
				c0.1-0.3,0.2-0.5,0.2-0.8C26.1,9.2,26,9,26,8.8c-0.1-0.4-0.3-0.7-0.5-1c-0.4-0.4-0.9-0.6-1.5-0.6c-0.3,0-0.6,0.1-0.8,0.2
				c-0.3,0.1-0.5,0.2-0.7,0.4c-0.2,0.2-0.3,0.4-0.4,0.7c-0.1,0.3-0.2,0.5-0.2,0.8c0,0.2,0.1,0.4,0.1,0.6
				C22.1,10.3,22.2,10.6,22.5,10.9z"/>
			<path class="st6" d="M20.2,16.3c0.1,0,0.1,0,0.2,0c0.2,0.1,0.4-0.1,0.5-0.3c0-0.1,0-0.1,0-0.2c0-0.1,0-0.1,0-0.2
				c-0.1-0.3-0.4-0.4-0.6-0.4c-0.3,0.1-0.4,0.4-0.4,0.7C19.9,16.1,20,16.3,20.2,16.3L20.2,16.3z"/>
			<path class="st6" d="M24.8,14.4c-0.1,0.2-0.1,0.4-0.1,0.6c0,0.4,0.1,0.8,0.5,1.1c0.6,0.6,1.6,0.6,2.2,0c0.1-0.1,0.3-0.3,0.3-0.5
				c0.1-0.2,0.1-0.4,0.1-0.6c0-0.4-0.1-0.8-0.5-1.1c-0.6-0.6-1.6-0.6-2.2,0C24.9,14,24.8,14.2,24.8,14.4z"/>
			<path class="st6" d="M24.4,21.4c-2,0-2,3.1,0,3.1S26.3,21.4,24.4,21.4z"/>
			<path class="st6" d="M22.1,20.6c1.1,0,1.1-1.7,0-1.7C21.1,18.9,21.1,20.6,22.1,20.6z"/>
			<path class="st6" d="M8,21.1c0.9,0,0.9-1.5,0-1.5S7.1,21.1,8,21.1z"/>
			<path class="st6" d="M7.3,23.1c-0.5,0-0.5,0.8,0,0.8S7.8,23.1,7.3,23.1z"/>
			<path class="st6" d="M7.1,9C7.4,9,7.8,8.8,8,8.6c0.5-0.5,0.5-1.3,0-1.8c-0.5-0.5-1.3-0.5-1.8,0c0,0,0,0,0,0
				c-0.5,0.5-0.5,1.3,0,1.8c0,0,0,0,0,0C6.5,8.8,6.8,9,7.1,9z"/>
			<path class="st6" d="M7.5,11.5c0.5-0.5,0.5-1.3,0-1.7c0,0,0,0,0,0C7,9.2,6.3,9.2,5.8,9.7c-0.5,0.5-0.5,1.3,0,1.7c0,0,0,0,0,0
				C6.3,11.9,7,11.9,7.5,11.5C7.5,11.5,7.5,11.5,7.5,11.5z"/>
			<path class="st6" d="M7.3,31.9c-0.2,0.6,0,1.4,0.5,1.9c0.4,0.5,1.2,0.7,1.8,0.5c0.3-0.1,0.6-0.3,0.9-0.5c0.3-0.4,0.5-0.9,0.5-1.4
				c0-0.5-0.2-1-0.5-1.4c-0.4-0.3-0.8-0.6-1.3-0.6c-0.5,0-1,0.2-1.3,0.6C7.6,31.2,7.4,31.6,7.3,31.9z"/>
			<path class="st6" d="M15.2,35c0.1-0.3,0.2-0.5,0.2-0.8l-0.1-0.6c-0.1-0.4-0.3-0.7-0.5-0.9c-0.4-0.4-0.9-0.6-1.4-0.6
				c-0.3,0-0.5,0-0.8,0.2c-0.5,0.2-0.9,0.6-1.1,1.1c-0.1,0.2-0.2,0.5-0.2,0.8l0.1,0.6c0.1,0.4,0.3,0.7,0.5,0.9
				c0.4,0.4,0.9,0.6,1.5,0.6c0.3,0,0.5-0.1,0.8-0.2C14.6,35.9,15,35.5,15.2,35L15.2,35z"/>
			<path class="st6" d="M9.3,35.1c-0.7,0-0.7,1.1,0,1.1C10,36.2,10,35.1,9.3,35.1z"/>
			<path class="st6" d="M6.5,34.3c-0.1,0.2,0,0.5,0.1,0.7l0.1,0.2c0.1,0.1,0.2,0.2,0.3,0.3c0.1,0.1,0.3,0.1,0.4,0.1
				c0.5,0,0.9-0.4,0.9-0.9c0,0,0,0,0,0c0-0.2,0-0.3-0.1-0.5c-0.1-0.1-0.2-0.2-0.3-0.3l-0.2-0.1l-0.2-0.1c-0.1,0-0.2,0-0.3,0
				c-0.2,0-0.4,0.1-0.5,0.2C6.6,34,6.5,34.1,6.5,34.3z"/>
			<path class="st6" d="M7.8,39c0.1-0.1,0.1-0.2,0.1-0.2C8,38.5,8,38.2,7.9,38c-0.1-0.4-0.6-0.8-1-0.8c-0.4,0-0.8,0.3-1,0.7
				c-0.1,0.2-0.1,0.5-0.1,0.7L6,38.9c0.1,0.2,0.2,0.3,0.4,0.4l0.1,0c0.3,0.2,0.7,0.2,0.9,0l0.1,0C7.6,39.2,7.7,39.1,7.8,39z"/>
			<path class="st6" d="M9.3,39.1c0.2,0.2,0.6,0.3,0.9,0.2c0.3-0.1,0.5-0.4,0.5-0.8c0-0.3-0.2-0.6-0.4-0.8c-0.3-0.2-0.8-0.1-1,0.1
				l-0.1,0.1C8.9,38.2,8.9,38.7,9.3,39.1L9.3,39.1z"/>
			<path class="st6" d="M28.9,11.2c0.4,0.4,0.9,0.6,1.4,0.6c0.5,0,1-0.2,1.4-0.6c0.2-0.2,0.3-0.4,0.4-0.7c0.1-0.2,0.2-0.5,0.2-0.8
				c0-0.2,0-0.4-0.1-0.6c-0.1-0.3-0.3-0.7-0.5-0.9c-0.4-0.4-0.9-0.6-1.4-0.6c-0.3,0-0.5,0-0.8,0.2C29.1,8,28.7,8.4,28.5,9
				c-0.1,0.2-0.2,0.5-0.2,0.8c0,0.2,0,0.4,0.1,0.6C28.5,10.7,28.7,11,28.9,11.2z"/>
			<path class="st6" d="M34.3,9.8l0.1,0.1l0.3,0.3l0.4,0.2c0.2,0.1,0.4,0.1,0.6,0c0.3,0,0.5-0.1,0.8-0.3c0.1-0.1,0.2-0.2,0.3-0.3
				C36.9,9.7,37,9.6,37,9.4c0.1-0.2,0.1-0.4,0.1-0.6c0-0.1,0-0.3-0.1-0.4C37,8.2,37,8.1,36.9,7.9l-0.3-0.3l-0.3-0.3L36,7.2
				c-0.2-0.1-0.4-0.1-0.6,0c-0.1,0-0.3,0-0.4,0.1c-0.2,0.1-0.4,0.2-0.5,0.3c0,0-0.1,0.1-0.1,0.1C34.2,7.9,34.1,8,34,8.2
				c-0.1,0.2-0.1,0.4-0.1,0.6l0.1,0.4C34,9.4,34.1,9.6,34.3,9.8z"/>
			<path class="st6" d="M32.8,14.5c1.2,0,1.2-1.9,0-1.9C31.6,12.5,31.6,14.5,32.8,14.5z"/>
			<path class="st6" d="M30,16.6c0.2-0.3,0.1-0.7-0.1-1l-0.1-0.1c-0.3-0.3-0.7-0.3-0.9,0l-0.1,0.1c-0.2,0.2-0.3,0.6-0.2,0.9
				c0.1,0.3,0.4,0.5,0.7,0.5C29.6,17,29.8,16.8,30,16.6z"/>
			<path class="st6" d="M19,83.2l-0.1-0.6c-0.1-0.4-0.3-0.8-0.6-1l-0.5-0.4c-0.4-0.2-0.8-0.3-1.2-0.3c-0.3,0-0.6,0.1-0.9,0.2
				c-0.3,0.1-0.5,0.3-0.7,0.5c-0.4,0.5-0.6,1.1-0.7,1.7c0,0.2,0.1,0.4,0.1,0.6c0.1,0.4,0.3,0.8,0.6,1l0.5,0.4
				c0.4,0.2,0.8,0.3,1.2,0.3c0.3,0,0.6-0.1,0.9-0.2c0.6-0.2,1-0.7,1.2-1.3C18.9,83.9,19,83.6,19,83.2z"/>
			<path class="st6" d="M25.6,59.9c-3.2,0-3.2,5.2,0,5.2S28.9,59.9,25.6,59.9z"/>
			<path class="st6" d="M30.5,88c0-0.1,0-0.3-0.1-0.4c-0.3-1-1.1-1.8-2-2.1c-0.3-0.1-0.6-0.1-0.9-0.1l-0.2,0l-0.9,0.1l-0.8,0.3
				c-0.4,0.2-0.7,0.5-0.9,0.9c-0.5,0.7-0.8,1.6-0.6,2.5c0,0.3,0.1,0.6,0.2,0.8c0.1,0.4,0.4,0.8,0.7,1.1l0.7,0.5l0.8,0.3l0.9,0.1
				l0.9-0.1l0.8-0.3c0.4-0.2,0.7-0.5,0.9-0.9c0.2-0.2,0.3-0.5,0.4-0.7c0.2-0.4,0.3-0.8,0.3-1.3c0-0.1,0-0.1,0-0.2
				C30.5,88.4,30.5,88.2,30.5,88z"/>
			<path class="st6" d="M23.8,79.5c-2.3,0-2.3,3.6,0,3.6S26.1,79.5,23.8,79.5z"/>
			<path class="st6" d="M21.4,84.2c-0.7,0-0.7,1.1,0,1.1C22.1,85.3,22.1,84.2,21.4,84.2z"/>
			<path class="st6" d="M19.2,85.8c-1.1,0-1.1,1.7,0,1.7S20.3,85.8,19.2,85.8z"/>
			<path class="st6" d="M15.2,89c-0.3,0-0.5,0.1-0.7,0.3c-0.4,0.4-0.4,1.1,0,1.5c0,0,0,0,0,0c0.4,0.4,1,0.4,1.4,0
				c0.4-0.4,0.4-1.1,0-1.5C15.7,89.1,15.4,89,15.2,89z"/>
			<path class="st6" d="M11.7,86.1l-0.5-0.4c-0.4-0.2-0.7-0.3-1.2-0.3c-0.3,0-0.6,0.1-0.9,0.2c-0.3,0.1-0.5,0.3-0.7,0.5
				C8.2,86.4,8,86.6,8,86.9c-0.1,0.3-0.2,0.6-0.2,0.9c0,0.2,0.1,0.4,0.1,0.6c0.1,0.4,0.3,0.8,0.6,1c0.2,0.1,0.3,0.2,0.5,0.4
				c0.3,0.2,0.7,0.3,1.2,0.3c0.3,0,0.6-0.1,0.9-0.2c0.6-0.2,1-0.7,1.2-1.2c0.1-0.3,0.2-0.6,0.2-0.9c0-0.2-0.1-0.4-0.1-0.6
				C12.1,86.8,11.9,86.4,11.7,86.1z"/>
			<path class="st6" d="M8.8,81.2c1.4,0,1.4-2.3,0-2.3S7.3,81.2,8.8,81.2z"/>
			<path class="st6" d="M11.7,82.9c-0.9,0-0.9,1.4,0,1.4C12.6,84.3,12.6,82.9,11.7,82.9z"/>
			<path class="st6" d="M162,16.9l0.5,0.4c0.4,0.2,0.8,0.3,1.2,0.3c0.3,0,0.6-0.1,0.9-0.2c0.6-0.2,1-0.7,1.2-1.3
				c0.1-0.3,0.2-0.6,0.2-0.9c0-0.2-0.1-0.4-0.1-0.6c-0.1-0.4-0.3-0.8-0.6-1.1l-0.5-0.4c-0.4-0.2-0.8-0.3-1.2-0.3
				c-0.6,0-1.2,0.3-1.7,0.7c-0.2,0.2-0.4,0.5-0.5,0.8c-0.1,0.3-0.2,0.6-0.2,0.9c0,0.2,0.1,0.4,0.1,0.6
				C161.5,16.3,161.7,16.6,162,16.9z"/>
			<path class="st6" d="M158.9,24.3c0-0.2-0.1-0.5-0.1-0.7c-0.1-0.4-0.4-0.9-0.7-1.2l-0.5-0.4c-0.4-0.2-0.9-0.4-1.3-0.4
				c-0.7,0-1.3,0.3-1.8,0.8c-0.2,0.2-0.4,0.5-0.5,0.9c-0.2,0.3-0.2,0.7-0.2,1c0,0.2,0.1,0.5,0.1,0.7c0.1,0.4,0.4,0.9,0.7,1.2
				c0.2,0.1,0.4,0.3,0.5,0.4c0.4,0.2,0.9,0.4,1.3,0.4c0.7,0,1.3-0.3,1.8-0.8c0.2-0.2,0.4-0.5,0.5-0.9
				C158.8,25,158.9,24.7,158.9,24.3z"/>
			<path class="st6" d="M160.7,33.1l0.5,0.4c0.4,0.2,0.8,0.4,1.3,0.4c0.3,0,0.7-0.1,1-0.2c0.6-0.2,1.1-0.7,1.3-1.4
				c0.2-0.3,0.2-0.6,0.2-1l-0.1-0.7c-0.1-0.4-0.3-0.8-0.6-1.1l-0.5-0.4c-0.4-0.2-0.8-0.4-1.3-0.3c-1,0-1.9,0.6-2.3,1.6
				c-0.2,0.3-0.2,0.6-0.2,1l0.1,0.7C160.2,32.4,160.4,32.8,160.7,33.1z"/>
			<path class="st6" d="M165,21.2c-0.1,0.3-0.2,0.5-0.2,0.8l0.1,0.6c0.1,0.4,0.3,0.7,0.5,0.9c0.4,0.4,0.9,0.6,1.5,0.6
				c0.8,0,1.6-0.5,1.9-1.3c0.1-0.3,0.2-0.5,0.2-0.8l-0.1-0.6c-0.1-0.4-0.3-0.7-0.5-0.9c-0.4-0.4-0.9-0.6-1.5-0.6
				c-0.3,0-0.5,0.1-0.8,0.2c-0.3,0.1-0.5,0.2-0.7,0.4C165.3,20.7,165.1,20.9,165,21.2z"/>
			<path class="st6" d="M162.3,21.5c-1.3,0-1.3,2.1,0,2.1C163.7,23.6,163.7,21.5,162.3,21.5z"/>
			<path class="st6" d="M157.9,18.8c2.2,0,2.2-3.5,0-3.5C155.7,15.3,155.7,18.8,157.9,18.8z"/>
			<path class="st6" d="M138.3,22.5c-1.5,0-1.5,2.4,0,2.4C139.8,24.9,139.8,22.5,138.3,22.5z"/>
			<path class="st6" d="M148.8,43.5c0.3-0.3,0.4-0.6,0.5-1c0.1-0.3,0.1-0.6,0-0.9c0-0.3-0.1-0.6-0.3-0.8c-0.2-0.3-0.4-0.6-0.8-0.8
				l0,0c-0.6-0.4-1.5-0.4-2.1,0l0,0c-0.3,0.2-0.6,0.5-0.8,0.8c-0.2,0.2-0.2,0.5-0.3,0.8c-0.1,0.3-0.1,0.6,0,0.9
				c0.1,0.4,0.3,0.7,0.5,1l0,0c0.2,0.2,0.4,0.4,0.7,0.4c0.2,0.1,0.5,0.2,0.8,0.2l0.5-0.1C148.2,44,148.5,43.8,148.8,43.5L148.8,43.5
				z"/>
			<path class="st6" d="M155.5,37.7c-3.1,0-3.1,5,0,5C158.7,42.7,158.7,37.7,155.5,37.7z"/>
			<path class="st6" d="M146,48.3c-1.6,0-1.6,2.6,0,2.6C147.6,50.9,147.6,48.3,146,48.3z"/>
			<path class="st6" d="M157,48.1l-0.1,0c-0.2,0-0.4,0.1-0.5,0.2c-0.3,0.3-0.3,0.8,0,1c0.1,0.1,0.3,0.2,0.5,0.2l0.1,0
				c0.4,0,0.7-0.4,0.7-0.7C157.7,48.5,157.4,48.1,157,48.1z"/>
			<path class="st6" d="M162.7,42.3c-0.6,0-0.7,1,0,1S163.3,42.3,162.7,42.3z"/>
			<path class="st6" d="M165.3,46.3l-0.1,0c-0.6,0.1-0.6,1.2,0,1.3l0.1,0C166.3,47.8,166.3,46.1,165.3,46.3z"/>
			<path class="st6" d="M168.4,38.1C168.4,38.1,168.4,38.1,168.4,38.1C168.4,38.1,168.4,38.1,168.4,38.1
				C168.4,38.1,168.4,38.1,168.4,38.1C168.4,38.1,168.4,38.1,168.4,38.1z"/>
			<path class="st6" d="M168.7,35.1C168.7,35.1,168.8,35.1,168.7,35.1C168.7,35,168.7,35,168.7,35.1C168.7,35,168.7,35,168.7,35.1
				C168.7,35.1,168.7,35.1,168.7,35.1z"/>
			<path class="st6" d="M172.2,13.6c0.6,0,0.6-0.9,0-0.9C171.6,12.7,171.6,13.6,172.2,13.6z"/>
			<path class="st6" d="M173.3,25.7c-0.4,0-0.4,0.6,0,0.6C173.7,26.3,173.7,25.7,173.3,25.7z"/>
			<path class="st6" d="M169.7,34.6c0.6,0,0.6-1,0-1S169,34.6,169.7,34.6z"/>
			<path class="st6" d="M171.5,40.5c0.5,0,0.5-0.7,0-0.7S171,40.5,171.5,40.5z"/>
			<path class="st6" d="M171.7,34.8c0.7,0,0.7-1,0-1C171,33.8,171,34.8,171.7,34.8z"/>
			<path class="st6" d="M169.5,29.6c0.6,0,0.6-0.9,0-0.9S168.9,29.6,169.5,29.6z"/>
			<path class="st6" d="M166,30c0.3,0,0.3-0.5,0-0.5S165.7,30,166,30z"/>
			<path class="st6" d="M169.7,26.4c0.3,0,0.3-0.5,0-0.5C169.4,25.9,169.4,26.4,169.7,26.4z"/>
			<path class="st6" d="M172.2,23.4c-0.4,0-0.4,0.7,0,0.7C172.7,24.1,172.7,23.4,172.2,23.4z"/>
			<path class="st6" d="M165.8,26.3C165.8,26.3,165.8,26.4,165.8,26.3C165.8,26.4,165.8,26.4,165.8,26.3
				C165.8,26.4,165.8,26.4,165.8,26.3C165.8,26.3,165.8,26.3,165.8,26.3z"/>
			<path class="st6" d="M161.6,26.6c0.3,0,0.3-0.5,0-0.5C161.3,26.1,161.3,26.6,161.6,26.6z"/>
			<path class="st6" d="M157.4,31.1C157.4,31.1,157.4,31.1,157.4,31.1C157.4,31.1,157.4,31.1,157.4,31.1
				C157.4,31.1,157.4,31.1,157.4,31.1C157.4,31.1,157.4,31.1,157.4,31.1z"/>
			<path class="st6" d="M156.8,32.1c-0.6,0-0.6,1,0,1C157.4,33.1,157.4,32.1,156.8,32.1z"/>
			<path class="st6" d="M160.9,36.7c0.5,0,0.5-0.7,0-0.7S160.4,36.7,160.9,36.7z"/>
			<path class="st6" d="M163.6,35.7c-0.6,0-0.6,1,0,1S164.2,35.7,163.6,35.7z"/>
			<path class="st6" d="M164.2,39.9c0.1,0,0.1,0,0.1-0.1c0-0.1,0-0.1-0.1-0.1c-0.1,0-0.1,0-0.1,0.1
				C164.1,39.8,164.1,39.9,164.2,39.9z"/>
			<path class="st6" d="M40.7,11c0.6,0,0.6-0.9,0-0.9C40.1,10,40.1,11,40.7,11z"/>
			<path class="st6" d="M37.2,18.8c0.5,0,0.5-0.8,0-0.8C36.7,18,36.7,18.8,37.2,18.8z"/>
			<path class="st6" d="M37.6,24.1C37.6,24.1,37.6,24.1,37.6,24.1C37.6,24.1,37.6,24.1,37.6,24.1C37.5,24.1,37.5,24.1,37.6,24.1
				C37.5,24.1,37.5,24.1,37.6,24.1L37.6,24.1z"/>
			<path class="st6" d="M30.6,26.2c0.5,0,0.5-0.9,0-0.9C30,25.4,30,26.2,30.6,26.2z"/>
			<path class="st6" d="M31.7,19c-0.4,0-0.4,0.7,0,0.7S32.1,19,31.7,19z"/>
			<path class="st6" d="M32.8,24.6c0.5,0,0.5-0.7,0-0.7S32.3,24.6,32.8,24.6z"/>
			<path class="st6" d="M26.6,22.6c-0.1,0-0.1,0.1-0.1,0.1c0,0.1,0.1,0.1,0.1,0.1c0.1,0,0.1-0.1,0.1-0.1
				C26.7,22.7,26.6,22.6,26.6,22.6z"/>
			<path class="st6" d="M24.2,31.1c0.5,0,0.5-0.8,0-0.8C23.6,30.3,23.6,31.1,24.2,31.1z"/>
			<path class="st6" d="M19.6,31.8c0.5,0,0.5-0.7,0-0.7S19.1,31.8,19.6,31.8z"/>
			<path class="st6" d="M24.3,25.5c0.2-0.2,0.2-0.4,0-0.6c0,0,0,0-0.1-0.1c-0.2-0.1-0.6,0-0.6,0.2c0,0.2-0.1,0.3,0,0.5
				c0,0.1,0.1,0.3,0.3,0.3c0,0,0.1,0,0.1,0C24.1,25.7,24.2,25.6,24.3,25.5z"/>
			<path class="st6" d="M28.8,29.3c0.6,0,0.6-1,0-1C28.2,28.3,28.2,29.3,28.8,29.3z"/>
			<path class="st6" d="M29.5,34.1c0.5,0,0.5-0.8,0-0.8C29,33.3,29,34.1,29.5,34.1z"/>
			<path class="st6" d="M22.7,37.3C22.7,37.3,22.7,37.3,22.7,37.3C22.7,37.3,22.7,37.3,22.7,37.3L22.7,37.3
				C22.7,37.3,22.7,37.3,22.7,37.3C22.7,37.3,22.7,37.3,22.7,37.3z"/>
			<path class="st6" d="M17,37.9c-0.7,0-0.7,1.2,0,1.2C17.8,39,17.8,37.9,17,37.9z"/>
			<path class="st6" d="M31,41.9c-0.4,0-0.7,0.3-0.7,0.7c0,0.4,0.3,0.7,0.7,0.7c0.4,0,0.7-0.3,0.7-0.7C31.7,42.2,31.3,41.9,31,41.9z
				"/>
			<path class="st6" d="M37,52.2C37,52.2,37,52.2,37,52.2C37,52.3,37,52.3,37,52.2C37,52.3,37,52.3,37,52.2C37,52.2,37,52.2,37,52.2
				C37,52.2,37,52.2,37,52.2z"/>
			<path class="st6" d="M37.9,62.3c-0.1,0-0.1,0.1-0.1,0.2c0,0.1,0.1,0.1,0.1,0.1c0.1,0,0.1-0.1,0.1-0.2
				C38.1,62.4,38,62.3,37.9,62.3z"/>
			<path class="st6" d="M34.8,69.4c-0.7,0-0.7,1.1,0,1.1C35.5,70.6,35.5,69.4,34.8,69.4z"/>
			<path class="st6" d="M33.7,80.6c-0.1,0-0.2,0.1-0.2,0.2c0,0.1,0.1,0.2,0.2,0.2s0.2-0.1,0.2-0.2C33.9,80.7,33.8,80.6,33.7,80.6z"
				/>
			<path class="st6" d="M38.1,84.3c-0.6,0-0.6,1,0,1S38.7,84.3,38.1,84.3z"/>
			<path class="st6" d="M20.3,79.9c-0.1,0-0.1,0.1-0.1,0.1s0.1,0.1,0.1,0.1s0.1-0.1,0.1-0.1S20.4,79.9,20.3,79.9z"/>
			<path class="st6" d="M18.7,74.3c0.6,0,0.6-1,0-1S18,74.3,18.7,74.3z"/>
			<path class="st6" d="M20.7,71.5c0.6,0,0.6-1,0-1C20,70.4,20,71.5,20.7,71.5z"/>
			<path class="st6" d="M25.4,72.5C25.5,72.5,25.5,72.5,25.4,72.5C25.5,72.5,25.5,72.5,25.4,72.5C25.4,72.5,25.4,72.5,25.4,72.5
				C25.4,72.5,25.4,72.5,25.4,72.5z"/>
			<path class="st6" d="M27.7,73.3c-0.6,0-0.6,0.9,0,0.9S28.2,73.3,27.7,73.3z"/>
			<path class="st6" d="M26.2,75.9c0.2,0,0.2-0.4,0-0.4S25.9,75.9,26.2,75.9z"/>
			<path class="st6" d="M23.3,76.4c0.5,0,0.5-0.8,0-0.8S22.8,76.4,23.3,76.4z"/>
			<path class="st6" d="M20.3,77.3c-0.6,0-0.6,0.9,0,0.9S20.9,77.3,20.3,77.3z"/>
			<path class="st6" d="M7.8,71.8c-0.4,0-0.4,0.6,0,0.6S8.2,71.8,7.8,71.8z"/>
			<path class="st6" d="M11.7,58.2c-0.9,0-0.9,1.4,0,1.4C12.6,59.6,12.6,58.2,11.7,58.2z"/>
			<path class="st6" d="M47.1,33.4c0.2,0,0.4-0.1,0.5-0.3c0.1-0.2,0.1-0.5-0.1-0.7l-0.1-0.1c-0.2-0.2-0.4-0.2-0.6,0l-0.1,0.1
				C46.4,32.7,46.6,33.4,47.1,33.4z"/>
			<path class="st6" d="M125.5,27.9c-0.1,0.1-0.3,0.2-0.4,0.3c-0.1,0.2-0.1,0.4-0.1,0.6c0,0,0,0.1,0,0.1c0,0.2,0.2,0.3,0.4,0.4
				l0.1,0c0.2,0,0.3,0,0.5,0c0.1-0.1,0.3-0.2,0.4-0.3c0.2-0.4,0.1-0.8-0.3-1C126,27.9,125.8,27.8,125.5,27.9z"/>
			<path class="st6" d="M118.3,34.6c-0.8,0-0.8,1.3,0,1.3C119.1,35.9,119.1,34.6,118.3,34.6z"/>
			<path class="st6" d="M64.1,44.3c0.7,0,0.7-1.2,0-1.2S63.4,44.3,64.1,44.3z"/>
			<path class="st6" d="M118.1,50c0,0.3,0.3,0.6,0.6,0.6c0.3,0,0.6-0.3,0.6-0.6c0-0.3-0.3-0.6-0.6-0.6
				C118.3,49.4,118.1,49.6,118.1,50z"/>
			<path class="st6" d="M126.4,58.3c-0.9,0-0.9,1.5,0,1.5S127.3,58.3,126.4,58.3z"/>
			<path class="st6" d="M162.4,67.1c0.2,0.1,0.5,0.1,0.6-0.1l0.3-0.3c0.2-0.3,0.2-0.7,0-0.9c0,0-0.1-0.1-0.1-0.1
				c-0.3-0.2-0.9,0-0.9,0.4c0,0.1-0.1,0.3-0.1,0.4C162.1,66.7,162.2,67,162.4,67.1z"/>
			<path class="st6" d="M160.3,74.4c-0.8,0-0.8,1.3,0,1.3S161.1,74.4,160.3,74.4z"/>
			<path class="st6" d="M151,76.4c0.7,0,0.7-1.1,0-1.1C150.3,75.3,150.3,76.4,151,76.4z"/>
			<path class="st6" d="M146.6,73.6c-0.6,0-0.7,1,0,1S147.2,73.6,146.6,73.6z"/>
			<path class="st6" d="M143.6,79.1c-0.2,0-0.2,0.3,0,0.3l0.2,0c0.1,0,0.1-0.1,0.1-0.1s-0.1-0.1-0.1-0.1l0,0L143.6,79.1z"/>
			<path class="st6" d="M145.3,81C145.3,81,145.3,81,145.3,81C145.3,81,145.3,81,145.3,81C145.3,81,145.3,81,145.3,81
				C145.3,81,145.3,81,145.3,81z"/>
			<path class="st6" d="M141.2,82.3c-0.7,0-0.7,1.1,0,1.1C141.9,83.4,141.9,82.3,141.2,82.3z"/>
			<path class="st6" d="M138.5,78.7c-0.4,0-0.8,0.3-0.7,0.8c0,0.4,0.3,0.8,0.7,0.8c0.4,0,0.8-0.3,0.7-0.8
				C139.2,79,138.9,78.7,138.5,78.7z"/>
			<path class="st6" d="M138.7,74.9c-0.3-0.1-0.5,0-0.8,0.1c-0.4,0.2-0.5,0.7-0.4,1.2c0.1,0.2,0.3,0.4,0.5,0.5
				c0.2,0.1,0.5,0.2,0.7,0.1c0.2-0.1,0.4-0.2,0.5-0.4c0.1-0.2,0.2-0.5,0.1-0.7C139.2,75.3,139,75,138.7,74.9z M138.4,76.8
				L138.4,76.8L138.4,76.8C138.4,76.7,138.4,76.8,138.4,76.8z"/>
			<path class="st6" d="M134.6,82c-0.2-0.1-0.5-0.2-0.8-0.1c-0.4,0.2-0.9,0.3-1.1,0.6c-0.3,0.3-0.4,0.8-0.2,1.2
				c0.1,0.2,0.2,0.3,0.3,0.4c0.2,0.1,0.4,0.3,0.6,0.2c0.2,0,0.4-0.1,0.6-0.2c0.1,0,0.1-0.1,0.2-0.1l0.4-0.2c0.4-0.3,0.6-0.8,0.4-1.3
				C134.9,82.2,134.8,82.1,134.6,82z"/>
			<path class="st6" d="M125.8,88.2c-0.3,0-0.5,0.1-0.7,0.3c-0.4,0.4-0.4,1.1,0,1.5c0.4,0.4,1.1,0.4,1.5,0c0.4-0.4,0.4-1.1,0-1.5
				C126.4,88.3,126.1,88.2,125.8,88.2z"/>
			<path class="st6" d="M122.9,80.1c-0.3,0-0.6,0.1-0.8,0.4c-0.5,0.5-0.5,1.2,0,1.7c0,0,0,0,0,0c0.2,0.2,0.5,0.4,0.8,0.4
				c0.3,0,0.6-0.1,0.8-0.4c0.5-0.5,0.5-1.2,0-1.7c0,0,0,0,0,0C123.5,80.3,123.2,80.1,122.9,80.1z"/>
			<path class="st6" d="M121.8,80.3c1.3,0,1.3-2,0-2S120.5,80.3,121.8,80.3z"/>
			<path class="st6" d="M64.2,84.2c-0.2-0.4-0.7-0.6-1.1-0.5c-0.2,0-0.4,0.1-0.5,0.2c-0.2,0.1-0.4,0.4-0.4,0.6c0,0.2,0,0.4,0,0.6
				c0,0.1,0,0.1,0.1,0.2c0.2,0.4,0.6,0.7,1,0.7c0.4,0,0.7-0.2,0.9-0.6C64.4,85,64.4,84.5,64.2,84.2z"/>
			<path class="st6" d="M60.7,89c-1.1,0-1.1,1.7,0,1.7C61.8,90.7,61.8,89,60.7,89z"/>
			<path class="st6" d="M53,83.2c-1,0-1,1.6,0,1.6C54,84.8,54,83.2,53,83.2z"/>
			<path class="st6" d="M55,77.7c-1.3,0-1.3,2,0,2S56.2,77.7,55,77.7z"/>
			<path class="st6" d="M121.2,88.7c-0.9,0-0.9,1.5,0,1.5S122.2,88.7,121.2,88.7z"/>
			<path class="st6" d="M119.6,86.7c-0.6,0-0.6,1,0,1C120.2,87.7,120.2,86.7,119.6,86.7z"/>
			<path class="st6" d="M115.2,92.4c-0.6,0-0.6,1,0,1C115.8,93.4,115.8,92.4,115.2,92.4z"/>
			<path class="st6" d="M52.8,94.3c-0.1,0-0.1,0.1-0.1,0.1c0,0.1,0.1,0.1,0.1,0.1c0.1,0,0.1-0.1,0.1-0.1
				C52.9,94.3,52.8,94.3,52.8,94.3z"/>
			<path class="st6" d="M52.8,89.9c-0.4,0-0.4,0.6,0,0.6C53.2,90.6,53.2,89.9,52.8,89.9z"/>
			<path class="st6" d="M48.6,93c-0.3,0-0.3,0.5,0,0.5S48.9,93,48.6,93z"/>
			<path class="st6" d="M42.9,92.6c-0.3,0-0.3,0.5,0,0.5S43.2,92.6,42.9,92.6z"/>
			<path class="st6" d="M42.1,88.2c-0.4,0-0.4,0.6,0,0.6C42.5,88.8,42.5,88.2,42.1,88.2z"/>
			<path class="st6" d="M40.1,91C40.1,91,40.1,91,40.1,91C40.1,91,40.1,91,40.1,91C40.1,91,40.1,91,40.1,91C40.1,91,40.1,91,40.1,91
				z"/>
			<path class="st6" d="M38.5,90.9c-0.3,0-0.3,0.5,0,0.5C38.8,91.4,38.8,90.9,38.5,90.9z"/>
			<path class="st6" d="M175.9,91.5C175.9,91.5,175.9,91.5,175.9,91.5C175.9,91.6,175.9,91.6,175.9,91.5
				C175.9,91.6,175.9,91.6,175.9,91.5C175.9,91.5,175.9,91.5,175.9,91.5z"/>
			<path class="st6" d="M166.2,90.1c-0.2,0-0.5,0.1-0.6,0.3c-0.3,0.4-0.4,0.9,0,1.3c0.2,0.2,0.4,0.3,0.6,0.3c0.2,0,0.5-0.1,0.6-0.3
				c0.3-0.4,0.4-0.9,0-1.3C166.6,90.2,166.4,90.1,166.2,90.1z"/>
			<path class="st6" d="M171.3,86c-1.3,0-1.3,2,0,2C172.6,88,172.6,86,171.3,86z"/>
			<path class="st6" d="M172.5,90.4c-0.3-0.4-1-0.4-1.3,0l-0.1,0.1c-0.3,0.3-0.4,0.7-0.2,1.1c0.1,0.4,0.5,0.6,0.9,0.6
				c0.4,0,0.7-0.2,0.9-0.5C172.9,91.3,172.9,90.8,172.5,90.4C172.5,90.4,172.5,90.4,172.5,90.4z"/>
			<path class="st6" d="M170,78.2c-1.3,0-1.3,2.1,0,2.1C171.3,80.3,171.3,78.2,170,78.2z"/>
			<path class="st6" d="M168.6,84.2c-1.2,0-1.2,1.9,0,1.9C169.8,86.1,169.8,84.2,168.6,84.2z"/>
			<path class="st6" d="M172.9,65.2c-0.1-0.2-0.3-0.3-0.5-0.3s-0.4,0.1-0.5,0.3l-0.1,0.1c-0.1,0.2-0.1,0.5,0,0.7
				c0.2,0.3,0.6,0.4,0.9,0.2c0.1-0.1,0.2-0.1,0.2-0.2c0.1-0.2,0.1-0.5,0-0.7L172.9,65.2z"/>
			<path class="st6" d="M169.9,59c0,0.5,0.4,0.9,0.9,0.9c0.2,0,0.5-0.1,0.6-0.3c0.4-0.4,0.4-0.9,0-1.3c-0.2-0.2-0.4-0.3-0.6-0.3
				c-0.2,0-0.5,0.1-0.6,0.3C170,58.6,169.9,58.8,169.9,59z"/>
			<path class="st6" d="M169.7,67.7c0.2,0,0.5-0.1,0.6-0.3c0.3-0.4,0.4-0.9,0-1.3c-0.2-0.2-0.4-0.3-0.6-0.3c-0.2,0-0.5,0.1-0.6,0.3
				c-0.3,0.4-0.4,0.9,0,1.3C169.2,67.6,169.4,67.7,169.7,67.7z"/>
			<path class="st6" d="M154.3,63C154.2,63,154.2,63,154.3,63C154.2,63,154.2,63.1,154.3,63C154.3,63.1,154.3,63,154.3,63
				C154.3,63,154.3,63,154.3,63z"/>
			<path class="st6" d="M153,58.4c0.8,0,0.8-1.4,0-1.4S152.1,58.4,153,58.4z"/>
			<path class="st6" d="M162.5,55.7c0.3,0.4,0.9,0.5,1.2,0.2c0.1-0.1,0.2-0.1,0.2-0.2c0.2-0.2,0.3-0.5,0.3-0.8
				c0-0.3-0.1-0.6-0.3-0.8c-0.2-0.2-0.4-0.3-0.6-0.3c-0.5-0.1-0.9,0.2-1.1,0.7C162.1,54.9,162.2,55.4,162.5,55.7z"/>
			<path class="st6" d="M159.4,66.7c-1.3,0-1.3,2,0,2S160.7,66.7,159.4,66.7z"/>
			<path class="st6" d="M99.9,56.7c0.2,0.1,0.5,0.1,0.6-0.1l0.3-0.3c0.2-0.3,0.2-0.7,0-0.9c0,0-0.1-0.1-0.1-0.1
				c-0.3-0.2-0.9,0-0.9,0.4c0,0.1-0.1,0.3-0.1,0.4C99.7,56.3,99.7,56.6,99.9,56.7z"/>
			<path class="st6" d="M110.4,54.8c-0.1-0.2-0.3-0.3-0.5-0.3c-0.2,0-0.4,0.1-0.5,0.3l-0.1,0.1c-0.1,0.2-0.1,0.5,0,0.7
				c0.2,0.3,0.6,0.4,0.9,0.2c0.1-0.1,0.2-0.1,0.2-0.2c0.1-0.2,0.1-0.5,0-0.7L110.4,54.8z"/>
			<path class="st6" d="M107.4,48.7c0,0.5,0.4,0.9,0.9,0.9c0.2,0,0.5-0.1,0.6-0.3c0.4-0.4,0.4-0.9,0-1.3c-0.2-0.2-0.4-0.3-0.6-0.3
				c-0.2,0-0.5,0.1-0.6,0.3C107.5,48.2,107.4,48.4,107.4,48.7z"/>
			<path class="st6" d="M107.2,57.3c0.2,0,0.5-0.1,0.6-0.3c0.3-0.4,0.4-0.9,0-1.3c-0.2-0.2-0.4-0.3-0.6-0.3c-0.2,0-0.5,0.1-0.6,0.3
				c-0.3,0.4-0.4,0.9,0,1.3C106.7,57.2,106.9,57.3,107.2,57.3z"/>
			<path class="st6" d="M91.8,52.6C91.7,52.6,91.7,52.6,91.8,52.6C91.7,52.6,91.7,52.7,91.8,52.6C91.8,52.7,91.8,52.6,91.8,52.6
				C91.8,52.6,91.8,52.6,91.8,52.6L91.8,52.6z"/>
			<path class="st6" d="M90.5,48c0.8,0,0.8-1.4,0-1.4S89.6,48,90.5,48z"/>
			<path class="st6" d="M100,45.3c0.3,0.4,0.9,0.5,1.2,0.2c0.1-0.1,0.2-0.1,0.2-0.2c0.2-0.2,0.3-0.5,0.3-0.8c0-0.3-0.1-0.6-0.3-0.8
				c-0.2-0.2-0.4-0.3-0.6-0.3c-0.5-0.1-0.9,0.2-1.1,0.7C99.6,44.5,99.7,45,100,45.3z"/>
			<path class="st6" d="M96.9,56.3c-1.3,0-1.3,2,0,2C98.2,58.4,98.2,56.3,96.9,56.3z"/>
			<path class="st6" d="M39,49.4c-0.2,0-0.5,0.1-0.6,0.3c-0.2,0.2-0.3,0.6-0.2,0.9c0,0,0,0.1,0.1,0.1c0.1,0.2,0.2,0.3,0.3,0.5
				c0.1,0.1,0.3,0.2,0.5,0.2c0.1,0,0.3,0,0.4-0.1c0.2-0.1,0.3-0.3,0.4-0.5c0,0,0-0.1,0.1-0.1c0.1-0.3,0-0.7-0.2-0.9
				C39.5,49.5,39.3,49.4,39,49.4z"/>
			<path class="st6" d="M39.3,44.1c-0.4,0-0.8,0.2-1.1,0.5c-0.3,0.3-0.4,0.7-0.4,1.1c0,0.4,0.1,0.8,0.4,1.1c0.6,0.6,1.5,0.6,2.1,0
				c0,0,0,0,0,0c0.3-0.3,0.4-0.7,0.4-1.1c0-0.4-0.1-0.8-0.4-1.1C40,44.3,39.7,44.1,39.3,44.1z"/>
			<path class="st6" d="M38.9,41.9c0.5-0.2,1-0.5,1.2-1c0.1-0.2,0.1-0.3,0.2-0.5c0.1-0.3,0.1-0.6,0-0.8c0-0.3-0.1-0.5-0.2-0.8
				c0,0,0-0.1-0.1-0.1c-0.3-0.6-1-1-1.6-0.9c-0.2,0-0.4,0-0.6,0.1c-0.5,0.1-1,0.5-1.2,1c-0.3,0.5-0.3,1.1-0.2,1.6
				c0.1,0.5,0.5,1,0.9,1.2C37.8,41.9,38.3,42,38.9,41.9z"/>
			<path class="st6" d="M35.7,42.4c-1,0-1,1.6,0,1.6S36.7,42.4,35.7,42.4z"/>
			<path class="st6" d="M43.1,41.6c-0.8,0-0.8,1.2,0,1.2C43.8,42.9,43.8,41.6,43.1,41.6z"/>
			<path class="st6" d="M42.9,39c0.4,0,0.7-0.3,0.7-0.7c0-0.4-0.3-0.7-0.7-0.7c-0.4,0-0.7,0.3-0.7,0.7C42.2,38.7,42.5,39,42.9,39z"
				/>
			<path class="st6" d="M41.2,34.5c-0.9,0-0.9,1.4,0,1.4C42.1,35.9,42.1,34.5,41.2,34.5z"/>
			<path class="st6" d="M37.7,34.9c0.7,0,0.7-1.1,0-1.1C37,33.7,37,34.9,37.7,34.9z"/>
			<path class="st6" d="M34.3,35.2c-0.7,0-0.7,1.1,0,1.1C35,36.4,35,35.2,34.3,35.2z"/>
			<path class="st6" d="M32.4,40.6c0.6,0,0.6-0.9,0-0.9C31.8,39.7,31.8,40.6,32.4,40.6z"/>
			<path class="st6" d="M29.9,40.7c0.5,0,0.5-0.8,0-0.8S29.4,40.7,29.9,40.7z"/>
			<path class="st6" d="M31.3,35.6C31.3,35.6,31.3,35.6,31.3,35.6C31.3,35.6,31.3,35.6,31.3,35.6C31.3,35.6,31.3,35.6,31.3,35.6
				C31.3,35.6,31.3,35.6,31.3,35.6z"/>
			<path class="st6" d="M34.8,38.3l-0.3,0.1c-0.1,0.1-0.2,0.2-0.1,0.3c0,0,0.1,0.1,0.1,0.1l0.3,0.1c0.3,0.1,0.6,0,0.6-0.4
				C35.4,38.3,35.1,38.1,34.8,38.3z"/>
			<path class="st6" d="M37,30.9c-0.7,0-0.7,1.2,0,1.2S37.7,30.9,37,30.9z"/>
			<path class="st6" d="M38.7,30.5c0.2,0,0.4-0.2,0.5-0.4c0.1-0.3-0.2-0.8-0.6-0.8c-0.2,0-0.4,0.1-0.5,0.3c-0.1,0.2-0.1,0.4,0,0.6
				C38.3,30.5,38.5,30.6,38.7,30.5z"/>
			<path class="st6" d="M44.3,30.7C44.3,30.7,44.4,30.7,44.3,30.7C44.4,30.7,44.3,30.7,44.3,30.7C44.3,30.7,44.3,30.7,44.3,30.7
				C44.3,30.7,44.3,30.7,44.3,30.7z"/>
			<path class="st6" d="M48,36.1c1.1,0,1.1-1.7,0-1.7S47,36.1,48,36.1z"/>
			<path class="st6" d="M49.5,40.3c0,0.1-0.1,0.2-0.1,0.2c-0.1,0.2,0,0.4,0.1,0.5c0.1,0.1,0.2,0.1,0.3,0l0.2-0.1
				c0.2-0.1,0.3-0.4,0.2-0.6c-0.1-0.2-0.4-0.3-0.6-0.2C49.6,40.2,49.5,40.2,49.5,40.3z"/>
			<path class="st6" d="M46.5,43.2c-0.7,0-0.7,1.2,0,1.2C47.3,44.3,47.3,43.2,46.5,43.2z"/>
			<path class="st6" d="M45.3,47.8c-0.4,0-0.9,0.4-0.8,0.9c0,0.5,0.4,0.9,0.8,0.9c0.4,0,0.9-0.4,0.8-0.9
				C46.1,48.2,45.7,47.8,45.3,47.8z"/>
			<path class="st6" d="M33,48.5c-1.2,0-1.2,1.9,0,1.9C34.1,50.4,34.1,48.5,33,48.5z"/>
			<path class="st6" d="M24.5,57.9c0.4,0,0.4-0.7,0-0.7S24.1,57.9,24.5,57.9z"/>
			<path class="st6" d="M21.2,49.1c0.8,0,0.8-1.3,0-1.3C20.4,47.8,20.4,49.1,21.2,49.1z"/>
			<path class="st6" d="M20.3,41.1c-0.9,0-0.9,1.5,0,1.5C21.2,42.6,21.2,41.1,20.3,41.1z"/>
			<path class="st6" d="M31.1,48c-0.6,0-0.6,1,0,1C31.8,49,31.8,48,31.1,48z"/>
			<path class="st6" d="M25.6,54.7C25.6,54.7,25.6,54.7,25.6,54.7C25.6,54.7,25.6,54.7,25.6,54.7C25.6,54.7,25.6,54.7,25.6,54.7
				C25.6,54.7,25.6,54.7,25.6,54.7z"/>
			<path class="st6" d="M26.6,47.2c1.1,0,1.1-1.7,0-1.7C25.5,45.5,25.5,47.2,26.6,47.2z"/>
			<path class="st6" d="M30.5,55.4l-0.2,0.1c-0.3,0.2-0.4,0.7-0.1,0.9c0.2,0.2,0.7,0.2,0.9-0.1c0-0.1,0.1-0.2,0.1-0.2
				c0.1-0.2,0.1-0.4-0.1-0.6C30.9,55.3,30.7,55.3,30.5,55.4z"/>
			<path class="st6" d="M36.5,57.6c-0.9,0-0.9,1.4,0,1.4C37.3,59,37.3,57.6,36.5,57.6z"/>
			<path class="st6" d="M48.6,52.9c0.1-0.2,0-0.5-0.2-0.6l-0.3-0.4c-0.2-0.3-0.6-0.3-0.9-0.2c-0.5,0.1-0.8,0.6-0.7,1.2
				s0.6,0.8,1.1,0.7c0,0,0,0,0,0l0.5-0.1C48.4,53.3,48.6,53.2,48.6,52.9z"/>
			<path class="st6" d="M146.4,65.8c0,0.2,0.1,0.4,0.3,0.5c0.2,0.1,0.5,0.1,0.7-0.1c0,0,0.1-0.1,0.1-0.1c0.2-0.2,0.2-0.5,0-0.6
				l-0.1-0.1C147,65,146.4,65.3,146.4,65.8z"/>
			<path class="st6" d="M138.4,61.6c0-0.8-1.2-0.8-1.2,0C137.2,62.4,138.4,62.4,138.4,61.6z"/>
			<path class="st6" d="M140.9,61.4c0,0.4,0.3,0.8,0.7,0.7c0.4,0,0.7-0.3,0.7-0.7c0-0.4-0.3-0.8-0.7-0.7
				C141.2,60.7,140.9,61,140.9,61.4z"/>
			<path class="st6" d="M143.8,66.7c0,1.1,1.6,1.1,1.6,0C145.4,65.6,143.8,65.7,143.8,66.7z"/>
			<path class="st6" d="M139.7,68.2l-0.2-0.1c-0.2-0.1-0.4,0-0.5,0.1c-0.1,0.1-0.1,0.2,0,0.4c0,0.1,0.1,0.2,0.1,0.2
				c0.1,0.2,0.4,0.3,0.6,0.2c0.2-0.1,0.3-0.4,0.2-0.6C139.8,68.3,139.7,68.3,139.7,68.2L139.7,68.2z"/>
			<path class="st6" d="M136.9,65.2c0-0.8-1.2-0.8-1.2,0C135.7,66,136.9,66,136.9,65.2z"/>
			<path class="st6" d="M132.4,63.9c0-0.5-0.4-0.9-0.8-0.9c-0.5,0-0.8,0.4-0.8,0.9c0,0.5,0.4,0.9,0.8,0.9
				C132,64.8,132.4,64.4,132.4,63.9z"/>
			<path class="st6" d="M127.4,67.4c0.2,0.1,0.4,0,0.6-0.2l0.4-0.3c0.2-0.2,0.3-0.6,0.2-0.9c-0.1-0.5-0.6-0.8-1.1-0.7
				c-0.5,0.1-0.8,0.6-0.7,1.2c0,0,0,0,0,0c0,0.2,0.1,0.3,0.1,0.5C127,67.1,127.2,67.3,127.4,67.4z"/>
			<path class="st6" d="M58.8,33.4c-0.9,0-0.9,1.4,0,1.4S59.7,33.4,58.8,33.4z"/>
			<path class="st6" d="M59.1,50.6c0.6,0,0.6-1,0-1S58.5,50.6,59.1,50.6z"/>
			<path class="st6" d="M59.8,55.5c0.5,0,0.5-0.8,0-0.8S59.4,55.5,59.8,55.5z"/>
			<path class="st6" d="M61.3,63.2c-0.4,0-0.7,0.3-0.7,0.7c0,0.4,0.3,0.7,0.7,0.7c0.4,0,0.7-0.3,0.7-0.7
				C62,63.6,61.7,63.2,61.3,63.2z"/>
			<path class="st6" d="M67.4,73.6C67.4,73.6,67.4,73.6,67.4,73.6C67.4,73.6,67.4,73.6,67.4,73.6L67.4,73.6
				C67.4,73.6,67.4,73.6,67.4,73.6C67.4,73.6,67.4,73.6,67.4,73.6z"/>
			<path class="st6" d="M77.5,54.7c0.2,0,0.4-0.1,0.5-0.3c0.1-0.2,0.1-0.5-0.1-0.7l-0.1-0.1c-0.2-0.2-0.4-0.2-0.6,0l-0.1,0.1
				C76.7,54.1,77,54.7,77.5,54.7z"/>
			<path class="st6" d="M94.5,65.7c0.7,0,0.7-1.2,0-1.2S93.8,65.7,94.5,65.7z"/>
			<path class="st6" d="M69.4,70.8c-0.2,0-0.5,0.1-0.6,0.3c-0.2,0.2-0.3,0.6-0.2,0.9c0,0,0,0.1,0.1,0.1c0.1,0.2,0.2,0.3,0.3,0.5
				c0.1,0.1,0.3,0.2,0.5,0.2c0.1,0,0.3,0,0.4-0.1c0.2-0.1,0.3-0.3,0.4-0.5c0,0,0-0.1,0.1-0.1c0.1-0.3,0-0.7-0.2-0.9
				C69.8,70.9,69.6,70.8,69.4,70.8z"/>
			<path class="st6" d="M69.6,65.5c-0.4,0-0.8,0.2-1.1,0.5c-0.3,0.3-0.4,0.7-0.4,1.1c0,0.4,0.1,0.8,0.4,1.1c0.6,0.6,1.5,0.6,2.1,0
				c0.3-0.3,0.4-0.7,0.4-1.1c0-0.4-0.1-0.8-0.4-1.1C70.4,65.6,70,65.5,69.6,65.5z"/>
			<path class="st6" d="M69.2,63.2c0.5-0.2,1-0.5,1.2-1l0.2-0.5c0.1-0.3,0.1-0.6,0-0.8c0-0.3-0.1-0.5-0.2-0.8c0,0,0-0.1-0.1-0.1
				c-0.1-0.1-0.2-0.3-0.3-0.4c-0.4-0.4-0.9-0.6-1.4-0.5c-0.2,0-0.4,0-0.6,0.1c-0.5,0.1-1,0.5-1.2,1c-0.3,0.5-0.3,1.1-0.2,1.6
				c0.1,0.5,0.5,1,0.9,1.2C68.1,63.3,68.7,63.4,69.2,63.2z"/>
			<path class="st6" d="M66.1,63.7c-1,0-1,1.6,0,1.6C67.1,65.3,67.1,63.7,66.1,63.7z"/>
			<path class="st6" d="M73.4,63c-0.8,0-0.8,1.2,0,1.2S74.2,63,73.4,63z"/>
			<path class="st6" d="M73.2,60.4c0.4,0,0.7-0.3,0.7-0.7c0-0.4-0.3-0.7-0.7-0.7c-0.4,0-0.7,0.3-0.7,0.7
				C72.5,60,72.8,60.3,73.2,60.4z"/>
			<path class="st6" d="M71.6,55.9c-0.9,0-0.9,1.4,0,1.4S72.5,55.9,71.6,55.9z"/>
			<path class="st6" d="M68.1,56.2c0.7,0,0.7-1.1,0-1.1S67.4,56.2,68.1,56.2z"/>
			<path class="st6" d="M64.6,56.6c-0.7,0-0.7,1.1,0,1.1C65.3,57.7,65.3,56.6,64.6,56.6z"/>
			<path class="st6" d="M62.8,62c0.6,0,0.6-0.9,0-0.9C62.2,61,62.2,62,62.8,62z"/>
			<path class="st6" d="M60.2,62.1c0.5,0,0.5-0.8,0-0.8C59.7,61.3,59.7,62.1,60.2,62.1z"/>
			<path class="st6" d="M61.7,57C61.7,57,61.7,57,61.7,57C61.7,57,61.7,57,61.7,57C61.7,57,61.7,57,61.7,57C61.7,57,61.7,57,61.7,57
				z"/>
			<path class="st6" d="M65.1,59.6l-0.3,0.1c-0.1,0.1-0.2,0.2-0.1,0.3c0,0,0.1,0.1,0.1,0.1l0.3,0.1c0.3,0.1,0.6,0,0.6-0.4
				S65.4,59.5,65.1,59.6z"/>
			<path class="st6" d="M67.4,52.2c-0.7,0-0.7,1.2,0,1.2S68.1,52.2,67.4,52.2z"/>
			<path class="st6" d="M69.1,51.9c0.2,0,0.4-0.2,0.5-0.4c0.1-0.3-0.2-0.8-0.6-0.8c-0.2,0-0.4,0.1-0.5,0.3c-0.1,0.2-0.1,0.4,0,0.6
				C68.6,51.8,68.9,51.9,69.1,51.9z"/>
			<path class="st6" d="M74.7,52.1C74.7,52.1,74.7,52.1,74.7,52.1C74.7,52,74.7,52,74.7,52.1C74.7,52,74.7,52,74.7,52.1
				C74.7,52.1,74.7,52.1,74.7,52.1z"/>
			<path class="st6" d="M78.4,57.4c1.1,0,1.1-1.7,0-1.7S77.3,57.4,78.4,57.4z"/>
			<path class="st6" d="M79.8,61.7c0,0.1-0.1,0.2-0.1,0.2c-0.1,0.2,0,0.4,0.1,0.5c0.1,0.1,0.2,0.1,0.3,0l0.2-0.1
				c0.2-0.1,0.3-0.4,0.2-0.6c-0.1-0.2-0.4-0.3-0.6-0.2C79.9,61.5,79.9,61.6,79.8,61.7L79.8,61.7z"/>
			<path class="st6" d="M76.9,64.5c-0.7,0-0.7,1.2,0,1.2C77.6,65.7,77.6,64.5,76.9,64.5z"/>
			<path class="st6" d="M75.6,69.1c-0.4,0-0.9,0.4-0.8,0.9c0,0.5,0.4,0.9,0.8,0.9c0.4,0,0.9-0.4,0.8-0.9
				C76.4,69.5,76.1,69.2,75.6,69.1z"/>
			<path class="st6" d="M63.3,69.8c-1.2,0-1.2,1.9,0,1.9C64.5,71.7,64.5,69.8,63.3,69.8z"/>
			<path class="st6" d="M61.5,69.3c-0.6,0-0.6,1,0,1S62.1,69.3,61.5,69.3z"/>
			<path class="st6" d="M56.9,68.6c1.1,0,1.1-1.7,0-1.7S55.8,68.6,56.9,68.6z"/>
			<path class="st6" d="M79,74.3c0.1-0.2,0-0.5-0.2-0.6l-0.3-0.4c-0.2-0.3-0.6-0.3-0.9-0.2c-0.5,0.1-0.8,0.7-0.7,1.2
				c0.1,0.5,0.6,0.8,1.1,0.7l0.5-0.1C78.8,74.7,78.9,74.5,79,74.3z"/>
			<path class="st6" d="M89.2,54.8c-0.9,0-0.9,1.4,0,1.4S90,54.8,89.2,54.8z"/>
			<path class="st6" d="M55,22.7c0.4,0,0.4-0.6,0-0.6S54.6,22.7,55,22.7z"/>
			<ellipse class="st6" cx="12.8" cy="13.1" rx="3.1" ry="3.2"/>
			<path class="st6" d="M13.3,22.9c1.1,0,1.1-1.7,0-1.7S12.3,22.9,13.3,22.9z"/>
			<path class="st6" d="M16.5,20.2c2,0,2-3.2,0-3.2S14.5,20.2,16.5,20.2z"/>
			<path class="st6" d="M98.3,74c0.4,0.4,0.9,0.6,1.5,0.6c1.1,0,2.1-1,2.1-2.2l-0.1-0.6c-0.1-0.4-0.3-0.7-0.5-1
				c-0.4-0.4-0.9-0.6-1.5-0.6c-0.6,0-1.1,0.2-1.5,0.6c-0.2,0.2-0.3,0.4-0.4,0.7c-0.1,0.3-0.2,0.5-0.2,0.8c0,0.2,0,0.4,0.1,0.6
				C97.9,73.4,98.1,73.8,98.3,74z"/>
			<path class="st6" d="M96,79.5c0.1,0,0.1,0,0.2,0c0.2,0.1,0.4-0.1,0.5-0.3c0-0.1,0-0.1,0-0.2c0-0.1,0-0.1,0-0.2
				c-0.1-0.3-0.4-0.4-0.6-0.4c-0.3,0.1-0.4,0.4-0.4,0.6C95.7,79.3,95.8,79.4,96,79.5L96,79.5z"/>
			<path class="st6" d="M100.6,77.6c-0.1,0.2-0.1,0.4-0.1,0.6c0,0.4,0.1,0.8,0.5,1.1c0.6,0.6,1.6,0.6,2.2,0c0.1-0.1,0.3-0.3,0.3-0.5
				c0.1-0.2,0.1-0.4,0.1-0.6c0-0.4-0.1-0.8-0.5-1.1c-0.6-0.6-1.6-0.6-2.2,0c0,0,0,0,0,0C100.8,77.2,100.6,77.4,100.6,77.6z"/>
			<path class="st6" d="M100.2,84.5c-2,0-2,3.1,0,3.1S102.1,84.5,100.2,84.5z"/>
			<path class="st6" d="M98,83.8c1.1,0,1.1-1.7,0-1.7C96.9,82,96.9,83.8,98,83.8z"/>
			<path class="st6" d="M104.8,74.4c0.4,0.4,0.9,0.6,1.4,0.6c1.1,0,2-0.9,2-2.1c0-0.2,0-0.4-0.1-0.6c-0.1-0.3-0.3-0.7-0.5-0.9
				c-0.4-0.4-0.9-0.6-1.4-0.6c-1.1,0-2,0.9-2,2.1c0,0.2,0,0.4,0.1,0.6C104.3,73.8,104.5,74.1,104.8,74.4z"/>
			<path class="st6" d="M110.1,73l0.1,0.1l0.3,0.3l0.4,0.2c0.2,0.1,0.4,0.1,0.6,0c0.1,0,0.3,0,0.4-0.1c0.4-0.2,0.7-0.5,0.8-0.9
				c0.1-0.2,0.1-0.4,0.1-0.6c0-0.1,0-0.3-0.1-0.4c-0.1-0.1-0.1-0.3-0.2-0.4l-0.3-0.3l-0.3-0.3l-0.4-0.2c-0.2-0.1-0.4-0.1-0.6,0
				c-0.1,0-0.3,0-0.4,0.1c-0.2,0.1-0.4,0.2-0.5,0.3l-0.1,0.1c-0.3,0.3-0.4,0.6-0.4,1l0.1,0.4C109.8,72.6,109.9,72.8,110.1,73z"/>
			<path class="st6" d="M108.6,77.6c1.2,0,1.2-1.9,0-1.9C107.4,75.7,107.4,77.6,108.6,77.6z"/>
			<path class="st6" d="M105.8,79.7c0.2-0.3,0.1-0.7-0.1-1l-0.1-0.1c-0.3-0.3-0.7-0.3-0.9,0l-0.1,0.1c-0.2,0.2-0.3,0.6-0.2,0.9
				c0.1,0.3,0.4,0.5,0.7,0.5C105.4,80.1,105.7,80,105.8,79.7z"/>
			<path class="st6" d="M116.5,74.1c0.6,0,0.6-0.9,0-0.9C115.9,73.2,115.9,74.1,116.5,74.1z"/>
			<path class="st6" d="M113,82c0.5,0,0.5-0.8,0-0.8C112.5,81.2,112.5,82,113,82z"/>
			<path class="st6" d="M113.4,87.2C113.4,87.2,113.4,87.2,113.4,87.2C113.4,87.2,113.4,87.2,113.4,87.2
				C113.4,87.2,113.4,87.2,113.4,87.2C113.4,87.2,113.4,87.2,113.4,87.2z"/>
			<path class="st6" d="M106.4,89.4c0.5,0,0.5-0.9,0-0.9S105.9,89.4,106.4,89.4z"/>
			<path class="st6" d="M107.5,82.2c-0.4,0-0.4,0.7,0,0.7C108,82.9,107.9,82.2,107.5,82.2z"/>
			<path class="st6" d="M108.6,87.8c0.5,0,0.5-0.7,0-0.7S108.1,87.8,108.6,87.8z"/>
			<path class="st6" d="M102.4,85.8c-0.1,0-0.1,0.1-0.1,0.1c0,0.1,0.1,0.1,0.1,0.1c0.1,0,0.1-0.1,0.1-0.1
				C102.5,85.8,102.4,85.8,102.4,85.8z"/>
			<path class="st6" d="M100.1,88.7c0.2-0.2,0.2-0.4,0-0.6c0,0,0,0-0.1-0.1c-0.2-0.1-0.6,0-0.6,0.2c0,0.2-0.1,0.3,0,0.5
				c0,0.1,0.1,0.3,0.3,0.3c0,0,0.1,0,0.1,0C99.9,88.9,100,88.8,100.1,88.7z"/>
			<path class="st6" d="M104.6,92.4c0.6,0,0.6-1,0-1C104,91.5,104,92.4,104.6,92.4z"/>
			<ellipse class="st6" cx="88.6" cy="76.3" rx="3.1" ry="3.2"/>
			<path class="st6" d="M89.2,86c1.1,0,1.1-1.7,0-1.7C88.1,84.3,88.1,86,89.2,86z"/>
			<path class="st6" d="M92.3,83.3c2,0,2-3.2,0-3.2S90.3,83.3,92.3,83.3z"/>
			<path class="st6" d="M15.4,29C15.4,29,15.4,29,15.4,29C15.4,29,15.4,29,15.4,29L15.4,29C15.3,29,15.3,29,15.4,29
				C15.3,29,15.3,29,15.4,29z"/>
			<path class="st6" d="M150.2,85.1c-2.4,0-2.4,3.9,0,3.9S152.6,85.1,150.2,85.1z"/>
			<path class="st6" d="M143.1,87.9c-2.8,0-2.9,4.6,0,4.6S145.9,87.9,143.1,87.9z"/>
			<path class="st6" d="M155.4,79.8c-0.3,0-0.5,0-0.8,0c-0.5-0.2-1-0.3-1.5-0.1c-0.8,0.2-1.3,0.7-1.5,1.5c-0.4,1,0.6,2.1,1.5,2.1
				c1.2,0,2.3-0.4,3.1-1.2C157.1,81.3,156.5,79.8,155.4,79.8z"/>
			<path class="st6" d="M139.3,14.6c3,2,6.8-1,9.4-2.2c1-0.5,1.3-2,0.7-2.9c-1.7-2.9-5.3-2.3-7.7-0.6c-0.4,0.2-0.6,0.6-0.9,1
				c-0.9,0.5-1.7,1.2-2.3,2.1C138.1,12.9,138.5,14,139.3,14.6z"/>
			<path class="st6" d="M145.4,16.4c-0.4,0.5-0.4,1.2,0,1.7c0.5,0.5,1.2,0.5,1.6,0c0.4-0.5,0.4-1.2,0-1.7c-0.2-0.2-0.5-0.3-0.8-0.3
				C145.9,16.1,145.6,16.2,145.4,16.4z"/>
			<path class="st6" d="M149.9,15.2c1.7,0,1.7-2.7,0-2.7S148.2,15.2,149.9,15.2z"/>
			<path class="st6" d="M130.8,20.5c3.1,0.4,5.1-2.9,3.4-5.7c-0.8-1.2-2.1-2-3.5-2.2c-0.9-0.2-2-0.4-3-0.4c-0.2-0.1-0.3-0.1-0.5-0.2
				c-0.5-0.1-1.1-0.2-1.6,0c-1.6,0.5-2,2.3-1.4,3.7C125.3,18.1,128.3,20.2,130.8,20.5z M130.7,17.2
				C130.7,17.2,130.7,17.2,130.7,17.2C130.7,17.2,130.8,17.2,130.7,17.2L130.7,17.2z M131.1,16.3C131.3,16.1,131.4,16.3,131.1,16.3z
				"/>
			<path class="st6" d="M122.2,11.9c2.4,0,2.4-3.9,0-3.9C119.7,8,119.7,11.9,122.2,11.9z"/>
			<path class="st6" d="M117.6,15.3c0.4,0,0.7-0.2,0.9-0.4c0.5-0.5,0.5-1.4,0-1.9c-0.3-0.3-0.6-0.4-0.9-0.4c-0.4,0-0.7,0.2-0.9,0.4
				c-0.5,0.5-0.5,1.4,0,1.9C116.9,15.1,117.2,15.3,117.6,15.3z"/>
			<path class="st6" d="M119.2,18.3c-1.5,0-1.5,2.4,0,2.4C120.7,20.8,120.7,18.3,119.2,18.3z"/>
			<path class="st6" d="M63.4,10.7c0.7,0,0.7-1.1,0-1.1S62.7,10.7,63.4,10.7z"/>
			<path class="st6" d="M57.4,12.4c-1.4,0-1.4,2.2,0,2.2S58.8,12.4,57.4,12.4z"/>
			<path class="st6" d="M55,11.1c0.7,0,0.7-1.2,0-1.2S54.2,11.1,55,11.1z"/>
			<path class="st6" d="M60.3,8.8c0.5,0,0.5-0.8,0-0.8S59.8,8.8,60.3,8.8z"/>
			<path class="st6" d="M49.3,13.9c-0.9,0-0.9,1.4,0,1.4C50.2,15.4,50.2,13.9,49.3,13.9z"/>
			<path class="st6" d="M132.1,9.1c0.5,0,0.9-0.2,1.2-0.5c0.2-0.2,0.3-0.4,0.4-0.6c0.1-0.2,0.2-0.5,0.2-0.7c0-0.5-0.2-1-0.5-1.3
				c-0.7-0.7-1.8-0.7-2.5,0c0,0,0,0,0,0c-0.2,0.2-0.3,0.4-0.4,0.6c-0.1,0.2-0.2,0.5-0.2,0.7c0,0.5,0.2,1,0.5,1.3
				C131.2,8.9,131.7,9.1,132.1,9.1z"/>
			<path class="st6" d="M132.8,49.6l0.4-0.5c0.2-0.3,0.3-0.6,0.3-1c0.1-0.2,0.1-0.5,0-0.7c0-0.3-0.1-0.7-0.3-1l-0.4-0.5l-0.5-0.4
				c-0.3-0.2-0.6-0.3-0.9-0.3c-0.3-0.1-0.7-0.1-1,0l-0.3,0c-0.9,0.3-1.6,1-1.8,1.9l-0.1,0.7c0,0.5,0.1,1,0.4,1.4
				c0.4,0.6,0.9,1,1.6,1.2c0.9,0.3,1.9,0,2.6-0.7L132.8,49.6z"/>
			<path class="st6" d="M135.7,49.1c-1.1,0-1.1,1.7,0,1.7C136.8,50.8,136.8,49.1,135.7,49.1z"/>
			<path class="st6" d="M135.2,46.4c0.5,0,0.5-0.9,0-0.9C134.6,45.6,134.6,46.4,135.2,46.4z"/>
			<path class="st6" d="M130.6,43.5c0.9,0,0.9-1.4,0-1.4S129.7,43.5,130.6,43.5z"/>
			<path class="st6" d="M122.9,47.2c-1.1,0-1.1,1.7,0,1.7S124,47.2,122.9,47.2z"/>
			<path class="st6" d="M122.2,52.6c-1.5,0-1.5,2.4,0,2.4S123.6,52.6,122.2,52.6z"/>
			<path class="st6" d="M119.7,57.4c-0.4-0.4-0.9-0.6-1.4-0.6c-0.3,0-0.5,0-0.8,0.2c-0.2,0.1-0.5,0.2-0.6,0.4
				c-0.4,0.4-0.6,0.9-0.6,1.5c0,0.2,0,0.4,0.1,0.5c0.1,0.3,0.3,0.7,0.5,0.9c0.4,0.4,0.9,0.6,1.4,0.6c0.5,0,1-0.2,1.4-0.6
				c0.4-0.4,0.6-0.9,0.6-1.5l-0.1-0.5C120.1,58,120,57.7,119.7,57.4z"/>
			<path class="st6" d="M101.8,27c0.3-0.3,0.4-0.6,0.5-1c0.1-0.3,0.1-0.6,0-0.9c0-0.3-0.1-0.6-0.3-0.8c-0.2-0.3-0.4-0.6-0.8-0.8l0,0
				c-0.6-0.4-1.5-0.4-2.1,0l0,0c-0.3,0.2-0.6,0.5-0.8,0.8c-0.2,0.2-0.2,0.5-0.3,0.8c-0.1,0.3-0.1,0.6,0,0.9c0.1,0.4,0.3,0.7,0.5,1
				l0,0c0.4,0.4,0.9,0.6,1.5,0.6l0.5-0.1C101.2,27.5,101.5,27.3,101.8,27L101.8,27z"/>
			<path class="st6" d="M108.6,21.1c-3.1,0-3.1,5,0,5S111.7,21.1,108.6,21.1z"/>
			<path class="st6" d="M99,31.8c-1.6,0-1.6,2.6,0,2.6S100.6,31.8,99,31.8z"/>
			<path class="st6" d="M110,31.6l-0.1,0c-0.2,0-0.4,0.1-0.5,0.2c-0.3,0.3-0.3,0.8,0,1c0.1,0.1,0.3,0.2,0.5,0.2l0.1,0
				c0.4,0,0.7-0.4,0.7-0.7C110.7,31.9,110.4,31.5,110,31.6z"/>
			<path class="st6" d="M71.1,33.4c0,0.3,0.3,0.6,0.6,0.6c0.3,0,0.6-0.3,0.6-0.6c0-0.3-0.3-0.6-0.6-0.6
				C71.4,32.8,71.1,33.1,71.1,33.4z"/>
			<path class="st6" d="M79.4,41.8c-0.9,0-0.9,1.5,0,1.5C80.3,43.3,80.3,41.8,79.4,41.8z"/>
			<path class="st6" d="M106,41.9c0.8,0,0.8-1.4,0-1.4C105.2,40.5,105.2,41.9,106,41.9z"/>
			<path class="st6" d="M85.9,33.1l0.4-0.5c0.2-0.3,0.3-0.6,0.3-1c0.1-0.2,0.1-0.5,0-0.7c0-0.3-0.1-0.7-0.3-1l-0.4-0.5l-0.5-0.4
				c-0.3-0.2-0.6-0.3-0.9-0.3c-0.3-0.1-0.7-0.1-1,0l-0.3,0c-0.9,0.3-1.6,1-1.8,1.9l-0.1,0.7c0,0.5,0.1,1,0.4,1.4
				c0.4,0.6,0.9,1,1.6,1.2c0.9,0.3,1.9,0,2.6-0.7C85.7,33.2,85.8,33.1,85.9,33.1z"/>
			<path class="st6" d="M88.8,32.6c-1.1,0-1.1,1.7,0,1.7S89.8,32.6,88.8,32.6z"/>
			<path class="st6" d="M88.2,29.9c0.5,0,0.5-0.9,0-0.9C87.7,29,87.7,29.9,88.2,29.9z"/>
			<path class="st6" d="M83.6,27c0.9,0,0.9-1.4,0-1.4C82.8,25.6,82.8,27,83.6,27z"/>
			<path class="st6" d="M75.9,30.7c-1.1,0-1.1,1.7,0,1.7C77,32.4,77,30.7,75.9,30.7z"/>
			<path class="st6" d="M75.2,36c-1.5,0-1.5,2.4,0,2.4C76.7,38.4,76.7,36,75.2,36z"/>
			<path class="st6" d="M72.8,40.9c-0.4-0.4-0.9-0.6-1.4-0.6c-0.5,0-1,0.2-1.4,0.6c-0.2,0.2-0.3,0.4-0.4,0.7
				c-0.1,0.2-0.2,0.5-0.2,0.8l0.1,0.5c0.1,0.3,0.3,0.7,0.5,0.9c0.4,0.4,0.9,0.6,1.4,0.6c0.8,0,1.5-0.5,1.8-1.3
				c0.1-0.2,0.2-0.5,0.2-0.8c0-0.2,0-0.4-0.1-0.5C73.2,41.4,73,41.1,72.8,40.9z"/>
			
				<linearGradient id="SVGID_1_" gradientUnits="userSpaceOnUse" x1="90.0335" y1="93.8908" x2="89.8445" y2="-32.6282" gradientTransform="matrix(1 0 0 -1 0 100)">
				<stop  offset="0" style="stop-color:#FFFFFF"/>
				<stop  offset="0.15" style="stop-color:#C6C6C6"/>
				<stop  offset="0.32" style="stop-color:#8B8B8B"/>
				<stop  offset="0.48" style="stop-color:#595959"/>
				<stop  offset="0.64" style="stop-color:#323232"/>
				<stop  offset="0.78" style="stop-color:#171717"/>
				<stop  offset="0.91" style="stop-color:#060606"/>
				<stop  offset="1" style="stop-color:#000000"/>
			</linearGradient>
			<rect x="4.3" y="4.4" class="st7" width="171.3" height="91.3"/>
		</g>
	</g>
</g>
</svg>
