<svg width="61" height="60" viewBox="0 0 61 60" fill="none" xmlns="http://www.w3.org/2000/svg">
<path d="M23.4367 7.57477C22.1299 5.08267 23.072 1.95245 25.6249 0.615222C28.1474 -0.722101 31.2777 0.189742 32.6149 2.68184C33.9521 5.17394 32.9796 8.30426 30.4571 9.64149C27.9043 11.009 24.774 10.0669 23.4367 7.57477ZM47.2028 26.2959C47.2028 26.2655 40.2432 14.0785 37.4775 9.21591C36.8697 8.12181 35.4717 7.72673 34.3776 8.33455C31.5208 9.88442 26.5974 12.559 26.2935 12.7108C25.716 13.0148 25.1994 13.5315 25.1386 14.2305L24.318 21.9195C24.1661 23.3783 23.1632 24.6243 21.7348 25.0803L14.6839 27.2988C13.7114 27.6027 13.1644 28.6361 13.4683 29.6086C13.7114 30.3987 14.4408 30.885 15.2006 30.9153V59.1794C15.2006 59.6049 15.5349 59.9392 15.9604 59.9392C16.3859 59.9392 16.7202 59.6049 16.7202 59.1794V30.5507L23.8318 28.3017C26.02 27.6027 27.6003 25.6881 27.8738 23.3783L28.421 18.3941L37.4776 33.985L33.1924 40.124C32.0071 41.826 31.3386 43.8622 31.3386 45.9287L31.2474 57.2039C31.2474 58.7235 32.4629 59.9999 34.013 59.9999H34.0434C35.5631 59.9999 36.8091 58.7843 36.8091 57.2342L36.9003 46.6884C36.9003 45.26 37.3562 43.862 38.207 42.6766C40.4864 39.4551 45.2276 32.769 47.1422 29.9122C47.9627 28.6057 47.5372 26.9037 47.2028 26.2959Z" fill="black"/>
</svg>
