<svg width="61" height="60" viewBox="0 0 61 60" fill="none" xmlns="http://www.w3.org/2000/svg">
<path d="M28.6861 4.10224C17.9162 6.09621 10.3911 16.0424 11.0396 26.9797C11.0515 27.1814 11.0761 27.3714 11.1026 27.5633C10.708 29.5248 11.453 31.8435 13.7934 32.7893C17.5294 34.302 21.7919 36.6109 23.2032 40.652C24.713 44.9795 21.4415 49.5924 18.8029 52.6867C15.3189 56.771 21.2152 62.7263 24.7277 58.6124C29.4823 53.0351 32.8591 46.7638 31.5029 39.2702C31.4645 39.0645 31.4054 38.8687 31.3592 38.6679C31.682 38.2093 31.9172 37.663 31.9891 37.0026C32.8581 28.9057 35.1375 21.0519 35.9258 12.9432C36.5665 11.5653 36.7643 9.96997 36.3795 8.5488C35.4406 5.04017 32.053 3.47925 28.6861 4.10224ZM26.2217 30.6202C25.3773 29.882 24.4758 29.199 23.5329 28.5701C23.6097 28.1046 23.6382 27.6056 23.6087 27.0673C23.5713 26.4453 23.5998 25.8203 23.6372 25.2013C23.653 24.9828 23.6727 24.7682 23.6943 24.5537C23.7042 24.4956 23.715 24.4356 23.7307 24.3549C23.8803 23.5153 24.1106 22.6935 24.3655 21.8816C24.4748 21.5893 24.5329 21.4279 24.5427 21.3816C24.7307 20.986 24.9374 20.5992 25.1509 20.2163C25.8477 18.9645 25.46 19.5707 26.4953 18.5147C27.0337 17.9655 27.7964 17.5138 28.696 17.1457C28.009 21.6582 27.0199 26.1254 26.2217 30.6202Z" fill="#010002"/>
<path d="M43.4371 13.1232C47.0609 13.1232 49.9986 10.1854 49.9986 6.56158C49.9986 2.93772 47.0609 0 43.4371 0C39.8132 0 36.8755 2.93772 36.8755 6.56158C36.8755 10.1854 39.8132 13.1232 43.4371 13.1232Z" fill="#010002"/>
</svg>
