<svg width="61" height="60" viewBox="0 0 61 60" fill="none" xmlns="http://www.w3.org/2000/svg">
<g clip-path="url(#clip0_435_115)">
<path d="M10.8009 37.247L13.5024 35.137C13.6927 34.9888 13.8277 34.78 13.8854 34.5446C13.9431 34.3092 13.9202 34.0609 13.8203 33.8403L12.7482 31.4819L14.7806 29.8927C14.9709 29.7448 15.1059 29.5363 15.1639 29.3012C15.2219 29.066 15.1993 28.818 15.0999 28.5974L14.0358 26.2631L15.9472 24.8699C16.0917 24.7653 16.2079 24.6259 16.2853 24.4643C16.3627 24.3028 16.3987 24.1242 16.3901 23.945L16.273 21.5625L18.7471 20.9396C18.9793 20.8811 19.1852 20.7452 19.3314 20.554C19.4777 20.3629 19.5558 20.1275 19.5531 19.886L19.5212 17.2792L22.0298 16.6484C22.2604 16.5883 22.4642 16.452 22.6089 16.2612C22.7536 16.0705 22.8307 15.8362 22.8279 15.596L22.8013 12.1396L20.6731 12.1652L20.705 14.7745L18.1937 15.4068C17.963 15.4669 17.759 15.6034 17.6142 15.7944C17.4695 15.9855 17.3926 16.22 17.3957 16.4605L17.4169 19.0605L14.9123 19.6873C14.6747 19.7489 14.4655 19.8914 14.3201 20.0907C14.1746 20.2901 14.1019 20.534 14.1142 20.7813L14.2472 23.4658L12.0805 25.0403C11.8799 25.1855 11.7357 25.3965 11.6723 25.6372C11.609 25.8779 11.6306 26.1333 11.7333 26.3598L12.808 28.7249L10.7743 30.3074C10.5837 30.4554 10.4485 30.6641 10.3905 30.8996C10.3325 31.135 10.3553 31.3833 10.455 31.6041L11.5298 33.9598L9.5 35.5504L10.8009 37.247Z" fill="black"/>
<path d="M18.0597 60C17.4674 60.0018 16.8864 59.8361 16.3826 59.5218C15.8788 59.2074 15.4723 58.757 15.2092 58.2215L10.4487 48.6161C10.2329 48.1786 10.1205 47.6967 10.1201 47.2081V46.4268C10.12 45.9483 10.2784 45.4834 10.5699 45.106C10.8615 44.7286 11.2697 44.4603 11.7296 44.3436L13.5652 43.8805C13.7274 43.8384 13.8775 43.7582 14.0033 43.6465C14.129 43.5348 14.2268 43.3947 14.2888 43.2376L20.97 26.3973C22.1516 23.413 23.669 20.5756 25.4925 17.9409L30.1173 11.2859C30.2184 11.1402 30.282 10.9714 30.3024 10.7948C30.3228 10.6181 30.2994 10.4391 30.2344 10.2738L26.526 0.919463L40.1931 0L43.5277 10.0926C43.6824 10.5573 43.729 11.0517 43.6639 11.5374C43.5989 12.0232 43.4239 12.4874 43.1526 12.894L20.9248 46.5369C20.8455 46.6573 20.791 46.7925 20.7647 46.9346C20.7385 47.0767 20.7409 47.2226 20.7718 47.3638L22.9 57.0161C22.9529 57.254 23.0844 57.4667 23.273 57.6192C23.4615 57.7717 23.6959 57.8548 23.9375 57.855H27.1298C27.4121 57.855 27.6827 57.9682 27.8823 58.1696C28.0818 58.3709 28.194 58.6441 28.194 58.9289C28.194 59.2137 28.0818 59.4868 27.8823 59.6882C27.6827 59.8895 27.4121 60.0027 27.1298 60.0027L18.0597 60ZM30.1173 60C30.2434 59.6561 30.3095 59.2928 30.3129 58.9262C30.3129 58.0718 29.9765 57.2524 29.3778 56.6482C28.7792 56.0441 27.9672 55.7047 27.1205 55.7047H25.9234L29.0732 50.9383C29.1728 50.7899 29.2341 50.6187 29.2514 50.4403L30.5656 35.8161L41.3569 19.4832L36.7015 52.3356C36.6698 52.5587 36.7085 52.7863 36.8121 52.986C36.9157 53.1857 37.079 53.3475 37.2788 53.4483L45.7796 57.7369C45.9277 57.8108 46.0906 57.8494 46.2558 57.8497H49.4481C49.7304 57.8497 50.001 57.9628 50.2006 58.1642C50.4001 58.3656 50.5122 58.6387 50.5122 58.9235C50.5122 59.2083 50.4001 59.4814 50.2006 59.6828C50.001 59.8842 49.7304 59.9973 49.4481 59.9973L30.1173 60Z" fill="black"/>
</g>
<defs>
<clipPath id="clip0_435_115">
<rect width="60" height="60" fill="white" transform="translate(0.5)"/>
</clipPath>
</defs>
</svg>
