<svg width="61" height="60" viewBox="0 0 61 60" fill="none" xmlns="http://www.w3.org/2000/svg">
<path d="M57.5 13H47.5V21H57.5C57.7652 21 58.0196 20.8946 58.2071 20.7071C58.3946 20.5196 58.5 20.2652 58.5 20V14C58.5 13.7348 58.3946 13.4804 58.2071 13.2929C58.0196 13.1054 57.7652 13 57.5 13Z" fill="black"/>
<path d="M17.4999 9C16.7995 9.0024 16.1119 9.18832 15.5057 9.53923C14.8995 9.89015 14.3958 10.3938 14.0449 11H17.4999V9Z" fill="black"/>
<path d="M43 5.00007C42.3383 5.00426 41.7048 5.269 41.2369 5.73693C40.7689 6.20487 40.5042 6.83832 40.5 7.50006C40.5 7.76528 40.3946 8.01964 40.2071 8.20717C40.0196 8.39471 39.7652 8.50006 39.5 8.50006C39.2348 8.50006 38.9804 8.39471 38.7929 8.20717C38.6054 8.01964 38.5 7.76528 38.5 7.50006V5.50007C38.4958 4.83832 38.2311 4.20487 37.7631 3.73693C37.2952 3.269 36.6617 3.00426 36 3.00006C35.337 3.00006 34.7011 3.26346 34.2322 3.7323C33.7634 4.20114 33.5 4.83702 33.5 5.50007C33.5 5.76528 33.3946 6.01964 33.2071 6.20717C33.0196 6.39471 32.7652 6.50006 32.5 6.50006C32.2348 6.50006 31.9804 6.39471 31.7929 6.20717C31.6054 6.01964 31.5 5.76528 31.5 5.50007V4.50007C31.5017 4.17322 31.4378 3.84936 31.3123 3.54759C31.1867 3.24582 31.002 2.97227 30.769 2.74306C30.3233 2.28981 29.7212 2.02401 29.086 2.00006C28.7657 1.99312 28.4473 2.05162 28.1503 2.17198C27.8534 2.29234 27.5841 2.47204 27.359 2.70007C27.0898 2.95941 26.8752 3.26993 26.7277 3.61338C26.5802 3.95683 26.5028 4.32629 26.5 4.70006V5.50007C26.5 5.76528 26.3946 6.01964 26.2071 6.20717C26.0196 6.39471 25.7652 6.50006 25.5 6.50006C25.2348 6.50006 24.9804 6.39471 24.7929 6.20717C24.6054 6.01964 24.5 5.76528 24.5 5.50007C24.5017 5.17322 24.4378 4.84936 24.3123 4.54759C24.1867 4.24582 24.002 3.97227 23.769 3.74306C23.3233 3.28981 22.7212 3.02401 22.086 3.00006C21.7657 2.99365 21.4475 3.05239 21.1506 3.17272C20.8537 3.29305 20.5844 3.47246 20.359 3.70007C20.0898 3.95941 19.8752 4.26993 19.7277 4.61338C19.5802 4.95683 19.5028 5.32629 19.5 5.70006V23.0001C19.5 23.2653 19.3946 23.5196 19.2071 23.7072C19.0196 23.8947 18.7652 24.0001 18.5 24.0001C18.2348 24.0001 17.9804 23.8947 17.7929 23.7072C17.6054 23.5196 17.5 23.2653 17.5 23.0001H13.5V25.2311C13.4995 26.5311 13.7809 27.8158 14.3247 28.9966C14.8685 30.1774 15.6618 31.2263 16.65 32.0711L19.344 34.3931C20.3445 35.3912 21.1382 36.5769 21.6797 37.8822C22.2213 39.1875 22.5 40.5869 22.5 42.0001V57.0001C22.5 57.2653 22.6054 57.5196 22.7929 57.7072C22.9804 57.8947 23.2348 58.0001 23.5 58.0001H40.5C40.7652 58.0001 41.0196 57.8947 41.2071 57.7072C41.3946 57.5196 41.5 57.2653 41.5 57.0001V39.2111C41.5193 36.6332 42.292 34.1173 43.723 31.9731C44.882 30.1965 45.4994 28.1213 45.5 26.0001V7.50006C45.5 6.83702 45.2366 6.20114 44.7678 5.7323C44.2989 5.26346 43.663 5.00007 43 5.00007Z" fill="black"/>
<path d="M17.5 13H3.5C3.23478 13 2.98043 13.1054 2.79289 13.2929C2.60536 13.4804 2.5 13.7348 2.5 14V20C2.5 20.2652 2.60536 20.5196 2.79289 20.7071C2.98043 20.8946 3.23478 21 3.5 21H17.5V13Z" fill="black"/>
</svg>
