<svg width="61" height="60" viewBox="0 0 61 60" fill="none" xmlns="http://www.w3.org/2000/svg">
<g clip-path="url(#clip0_435_142)">
<path d="M1.89175 9.98604C-0.127499 12.2542 0.0742148 15.73 2.3425 17.7492C3.39055 18.6822 4.69595 19.141 5.99679 19.141C7.5114 19.141 9.01945 18.5187 10.1057 17.2985C12.1249 15.0303 11.9232 11.5545 9.65493 9.53529C8.60689 8.60227 7.30149 8.14344 6.00065 8.14355C4.48616 8.14355 2.9781 8.7658 1.89175 9.98604Z" fill="black"/>
<path d="M58.6935 52.0388H53.3972C53.6782 51.7885 53.9236 51.4821 54.1104 51.113C54.787 49.7762 54.3863 48.1423 53.2177 47.2048L38.2794 35.2205C37.8905 34.9086 37.4328 34.6939 36.9443 34.5943L27.1789 32.6041L37.3808 27.2927L48.2492 37.6827C49.4966 38.8752 51.4802 38.8373 52.6794 37.583C53.8752 36.3321 53.8307 34.3487 52.5798 33.1528L40.0893 21.2123C39.1195 20.2853 37.6671 20.0785 36.4771 20.6979L27.4312 25.4075L19.1913 18.4652L24.7774 17.8873C25.3855 17.8244 25.9522 17.5502 26.3788 17.1123L34.3564 8.92485C35.3444 7.91077 35.3974 6.27878 34.419 5.25534C33.392 4.18093 31.688 4.18023 30.6596 5.23554L23.2988 12.79C16.9783 13.4872 15.1784 13.578 14.3847 13.7169C13.9685 13.7898 13.5834 13.9927 13.2983 14.3045L13.2929 14.3103C13.154 15.8635 12.5245 17.3256 11.4686 18.5118C10.3116 19.8113 8.73328 20.6468 7.03043 20.8899C6.59888 21.2306 6.27078 21.7093 6.12213 22.2825L3.14889 33.7426C2.96733 34.4423 3.084 35.1859 3.47103 35.7964L9.98398 46.07C10.7576 47.2902 12.3715 47.6481 13.5874 46.8773C14.8054 46.1051 15.1668 44.4919 14.3947 43.2739L8.48846 33.9573L9.76985 29.018L18.2138 36.1941C19.2317 37.0592 20.4524 37.6518 21.7616 37.9165L34.9497 40.5834L49.2287 52.0388H7.12308C6.17695 52.0388 5.36283 52.7659 5.31831 53.711C5.27076 54.72 6.0748 55.553 7.07342 55.553H58.743C59.7417 55.553 60.5457 54.72 60.4981 53.711C60.4536 52.7659 59.6396 52.0388 58.6935 52.0388Z" fill="black"/>
</g>
<defs>
<clipPath id="clip0_435_142">
<rect width="60" height="60" fill="white" transform="translate(0.5)"/>
</clipPath>
</defs>
</svg>
