<svg width="61" height="60" viewBox="0 0 61 60" fill="none" xmlns="http://www.w3.org/2000/svg">
<g clip-path="url(#clip0_435_131)">
<path d="M2.18591 45.4922H35.4155V58.7297H2.18591V45.4922Z" fill="black"/>
<path d="M47.5535 10.5506C49.2032 6.72625 47.4403 2.2887 43.616 0.639003C39.7917 -1.01069 35.3541 0.752169 33.7044 4.57647C32.0548 8.40077 33.8176 12.8383 37.6419 14.488C41.4662 16.1377 45.9038 14.3749 47.5535 10.5506Z" fill="black"/>
<path d="M57.9634 53.2789L47.8983 39.9921L35.976 36.8545C35.0507 36.6111 34.2813 35.9956 33.8297 35.1702H29.6056C30.374 33.618 31.2571 32.1037 32.1696 30.6659L29.1169 22.1245C28.4762 20.3316 29.4135 18.3516 31.2061 17.7106C31.5813 17.5765 31.9725 17.5081 32.3687 17.5081C33.8234 17.5081 35.1298 18.429 35.62 19.7999L36.975 23.5915C38.4773 20.9776 38.5356 17.6208 36.4936 16.0652C34.1476 14.2773 29.7223 14.0638 26.2301 17.904C21.4592 23.213 19.267 27.0616 17.1171 34.2446C15.9447 39.6173 19.1232 41.5895 21.9604 42.7689C23.1364 43.258 24.0634 43.5842 24.8596 43.486C25.0916 43.5259 25.3289 43.551 25.5723 43.551H40.0801L51.2827 58.3391C52.1067 59.427 53.3588 59.9995 54.6264 59.9995C55.5078 59.9995 56.3965 59.7223 57.1535 59.149C58.9983 57.7521 59.3611 55.1237 57.9634 53.2789Z" fill="black"/>
<path d="M31.4656 18.4368C30.071 18.9353 29.3442 20.47 29.8427 21.865L34.3293 34.4179C34.627 35.251 35.3166 35.884 36.1722 36.1089L48.9115 39.4614C49.1405 39.5217 49.3698 39.5506 49.5957 39.5506C50.7845 39.5506 51.8711 38.754 52.1875 37.5505C52.5647 36.118 51.7088 34.6513 50.2766 34.2745L38.9044 31.2817L34.8939 20.0597C34.3954 18.6647 32.8603 17.9376 31.4656 18.4368Z" fill="black"/>
</g>
<defs>
<clipPath id="clip0_435_131">
<rect width="60" height="60" fill="white" transform="translate(0.5)"/>
</clipPath>
</defs>
</svg>
