<?xml version="1.0" encoding="utf-8"?>
<!-- Generator: Adobe Illustrator 25.3.1, SVG Export Plug-In . SVG Version: 6.00 Build 0)  -->
<svg version="1.1" id="圖層_1" xmlns="http://www.w3.org/2000/svg" xmlns:xlink="http://www.w3.org/1999/xlink" x="0px" y="0px"
	 viewBox="0 0 80 100" style="enable-background:new 0 0 80 100;" xml:space="preserve">
<style type="text/css">
	.st0{opacity:0.3;}
	.st1{fill:#FFFFFF;}
	.st2{fill:#D8DEE8;}
	.st3{fill:url(#SVGID_1_);}
	.st4{fill:url(#SVGID_2_);}
	.st5{fill:url(#SVGID_3_);}
</style>
<g id="圖層_2_1_">
	<g id="artwork">
		<g>
			<path class="st0" d="M9,4.8h67.8c1.6,0,2.9,1.3,2.9,2.9v89.5c0,1.6-1.3,2.9-2.9,2.9H9c-1.6,0-2.9-1.3-2.9-2.9V7.6
				C6.1,6,7.4,4.8,9,4.8z"/>
			<path class="st1" d="M3.3,0H71c1.6,0,2.9,1.3,2.9,2.9v89.5c0,1.6-1.3,2.9-2.9,2.9H3.3c-1.6,0-2.9-1.3-2.9-2.9V2.9
				C0.4,1.3,1.7,0,3.3,0z"/>
			<path class="st2" d="M16.5,27.9c-3,0-5.5-2.4-5.5-5.5c0-3,2.4-5.5,5.5-5.5c3,0,5.5,2.4,5.5,5.5c0,0,0,0,0,0
				C22,25.4,19.5,27.9,16.5,27.9z M16.5,17.7c-2.6,0-4.7,2.1-4.7,4.7s2.1,4.7,4.7,4.7s4.7-2.1,4.7-4.7
				C21.2,19.8,19.1,17.7,16.5,17.7L16.5,17.7z"/>
			
				<linearGradient id="SVGID_1_" gradientUnits="userSpaceOnUse" x1="5.4287" y1="78.7169" x2="27.6243" y2="78.7169" gradientTransform="matrix(1 0 0 -1 0 101.14)">
				<stop  offset="0" style="stop-color:#FE7062"/>
				<stop  offset="1" style="stop-color:#FF928E"/>
			</linearGradient>
			<path class="st3" d="M16.5,33.5c-6.1,0-11.1-5-11.1-11.1c0-6.1,5-11.1,11.1-11.1c0.5,0,1,0.4,1,1s-0.4,1-1,1
				c-5.1,0-9.2,4.1-9.2,9.1c0,5.1,4.1,9.2,9.1,9.2s9.2-4.1,9.2-9.1c0,0,0,0,0,0c0-0.5,0.4-1,1-1s1,0.4,1,1
				C27.6,28.6,22.7,33.5,16.5,33.5z"/>
			<path class="st2" d="M16.1,21.4c0,1-0.5,1.5-1.1,1.5s-1.1-0.5-1.1-1.4s0.5-1.5,1.2-1.5C15.6,19.9,16.1,20.5,16.1,21.4z
				 M14.4,21.4c0,0.6,0.2,1.1,0.6,1.1s0.6-0.5,0.6-1.1c0-0.6-0.2-1.1-0.6-1.1C14.5,20.3,14.4,20.8,14.4,21.4z M14.9,24.9l2.8-4.9
				h0.4l-2.8,4.9H14.9z M19.2,23.3c0,1-0.5,1.5-1.1,1.5c-0.6,0-1.1-0.5-1.1-1.4c0-1,0.5-1.5,1.1-1.5S19.2,22.4,19.2,23.3L19.2,23.3z
				 M17.5,23.4c0,0.6,0.2,1.1,0.6,1.1s0.6-0.5,0.6-1.1c0-0.6-0.2-1.1-0.6-1.1S17.5,22.8,17.5,23.4L17.5,23.4z"/>
			<path class="st2" d="M16.4,56.6c-3,0-5.5-2.5-5.5-5.5s2.5-5.5,5.5-5.5s5.5,2.5,5.5,5.5C21.9,54.1,19.4,56.5,16.4,56.6z
				 M16.4,46.4c-2.6,0-4.7,2.1-4.7,4.7c0,2.6,2.1,4.7,4.7,4.7s4.7-2.1,4.7-4.7l0,0C21.1,48.5,19,46.4,16.4,46.4z"/>
			
				<linearGradient id="SVGID_2_" gradientUnits="userSpaceOnUse" x1="5.2755" y1="50.0679" x2="27.469" y2="50.0679" gradientTransform="matrix(1 0 0 -1 0 101.14)">
				<stop  offset="0" style="stop-color:#FFC444"/>
				<stop  offset="1" style="stop-color:#F36F56"/>
			</linearGradient>
			<path class="st4" d="M16.4,62.2c-6.1,0-11.1-5-11.1-11.1c0-6.1,5-11.1,11.1-11.1c0.5,0,1,0.4,1,1s-0.4,1-1,1
				c-5.1,0-9.2,4.1-9.2,9.1c0,5.1,4.1,9.2,9.1,9.2c5.1,0,9.2-4.1,9.2-9.1c0-2.4-0.9-4.7-2.6-6.4c-0.4-0.4-0.4-1,0-1.4s1-0.4,1.4,0
				c4.3,4.4,4.2,11.4-0.2,15.7C22,61,19.3,62.2,16.4,62.2z"/>
			<path class="st2" d="M16,50c0,1-0.5,1.5-1.1,1.5s-1.1-0.5-1.1-1.4c0-1,0.5-1.5,1.2-1.5S16,49.1,16,50z M14.2,50.1
				c0,0.6,0.2,1.1,0.6,1.1s0.6-0.5,0.6-1.1c0-0.6-0.2-1.1-0.6-1.1S14.2,49.5,14.2,50.1z M14.7,53.5l2.8-4.9H18l-2.8,4.9H14.7z
				 M19.1,52c0,1-0.5,1.5-1.1,1.5s-1.1-0.5-1.1-1.4s0.5-1.5,1.1-1.5C18.6,50.6,19.1,51.1,19.1,52z M17.3,52c0,0.6,0.2,1.1,0.6,1.1
				s0.6-0.5,0.6-1.1S18.4,51,17.9,51C17.5,51,17.3,51.4,17.3,52L17.3,52z"/>
			<path class="st2" d="M16.4,85.3c-3,0-5.5-2.5-5.5-5.5c0-3,2.5-5.5,5.5-5.5s5.5,2.5,5.5,5.5C21.9,82.9,19.4,85.3,16.4,85.3z
				 M16.4,75.2c-2.6,0-4.7,2.1-4.7,4.7c0,2.6,2.1,4.7,4.7,4.7s4.7-2.1,4.7-4.7l0,0C21.1,77.3,19,75.2,16.4,75.2z"/>
			
				<linearGradient id="SVGID_3_" gradientUnits="userSpaceOnUse" x1="4.7952" y1="29.5857" x2="44.7803" y2="-4.614" gradientTransform="matrix(1 0 0 -1 0 101.14)">
				<stop  offset="0" style="stop-color:#AA80F9"/>
				<stop  offset="1" style="stop-color:#6165D7"/>
			</linearGradient>
			<path class="st5" d="M16.4,91c-6.1,0-11.1-5-11.1-11.1c0-6.1,5-11.1,11.1-11.1c0.5,0,1,0.4,1,1c0,0.5-0.4,1-1,1
				c-5.1,0-9.2,4.1-9.2,9.1s4.1,9.2,9.1,9.2c2.1,0,4.2-0.7,5.8-2.1c0.4-0.3,1-0.3,1.4,0.1c0.3,0.4,0.3,1-0.1,1.4
				C21.4,90.1,18.9,91,16.4,91z"/>
			<path class="st2" d="M16,78.8c0,1-0.5,1.5-1.1,1.5s-1.1-0.5-1.1-1.4c0-1,0.5-1.5,1.2-1.5S16,77.9,16,78.8z M14.2,78.9
				c0,0.6,0.2,1.1,0.6,1.1s0.6-0.5,0.6-1.1s-0.2-1.1-0.6-1.1S14.2,78.3,14.2,78.9z M14.7,82.3l2.8-4.9H18l-2.8,4.9H14.7z M19.1,80.8
				c0,1-0.5,1.5-1.1,1.5s-1.1-0.5-1.1-1.4s0.5-1.5,1.1-1.5C18.6,79.4,19.1,79.9,19.1,80.8z M17.3,80.8c0,0.6,0.2,1.1,0.6,1.1
				s0.6-0.5,0.6-1.1c0-0.6-0.2-1.1-0.6-1.1C17.5,79.8,17.3,80.2,17.3,80.8L17.3,80.8z"/>
			<path class="st2" d="M31.5,24.1c-0.1,0-0.3-0.1-0.3-0.1c-0.2-0.2-0.2-0.5,0-0.7c0,0,0,0,0,0l6.3-6.3c0.1-0.1,0.2-0.1,0.3-0.1H49
				c0.3,0,0.5,0.2,0.5,0.5c0,0.3-0.2,0.5-0.5,0.5H38L31.8,24C31.8,24.1,31.6,24.1,31.5,24.1z"/>
			<path class="st2" d="M43.6,7.5h21.5c1.1,0,2,0.9,2,2v2c0,1.1-0.9,2-2,2H43.6c-1.1,0-2-0.9-2-2v-2C41.6,8.4,42.5,7.5,43.6,7.5z"/>
			<path class="st2" d="M40.3,19.8h10.1c0.4,0,0.8,0.3,0.8,0.8v0.8c0,0.4-0.3,0.8-0.8,0.8H40.3c-0.4,0-0.8-0.3-0.8-0.8v-0.8
				C39.6,20.1,39.9,19.8,40.3,19.8z"/>
			<path class="st2" d="M40.3,25.2h25c0.4,0,0.8,0.3,0.8,0.8v0.8c0,0.4-0.3,0.8-0.8,0.8h-25c-0.4,0-0.8-0.3-0.8-0.8v-0.8
				C39.6,25.5,39.9,25.2,40.3,25.2z"/>
			<path class="st2" d="M31.5,53.1c-0.1,0-0.3-0.1-0.3-0.1c-0.2-0.2-0.2-0.5,0-0.7c0,0,0,0,0,0l6.3-6.3c0.1-0.1,0.2-0.1,0.3-0.1H49
				c0.3,0,0.5,0.2,0.5,0.5s-0.2,0.5-0.5,0.5H38l-6.2,6.2C31.8,53,31.6,53.1,31.5,53.1z"/>
			<path class="st2" d="M43.6,36.5h21.5c1.1,0,2,0.9,2,2v2c0,1.1-0.9,2-2,2H43.6c-1.1,0-2-0.9-2-2v-2C41.6,37.4,42.5,36.5,43.6,36.5
				z"/>
			<path class="st2" d="M40.3,48.8h10.1c0.4,0,0.8,0.3,0.8,0.8v0.8c0,0.4-0.3,0.8-0.8,0.8H40.3c-0.4,0-0.8-0.3-0.8-0.8v-0.8
				C39.6,49.1,39.9,48.8,40.3,48.8z"/>
			<path class="st2" d="M40.3,54.2h25c0.4,0,0.8,0.3,0.8,0.8v0.8c0,0.4-0.3,0.8-0.8,0.8h-25c-0.4,0-0.8-0.3-0.8-0.8v-0.8
				C39.6,54.5,39.9,54.2,40.3,54.2z"/>
			<path class="st2" d="M31.5,83c-0.1,0-0.3-0.1-0.3-0.1c-0.2-0.2-0.2-0.5,0-0.7c0,0,0,0,0,0l6.3-6.3c0.1-0.1,0.2-0.1,0.3-0.1H49
				c0.3,0,0.5,0.2,0.5,0.5s-0.2,0.5-0.5,0.5H38l-6.2,6.2C31.8,83,31.6,83,31.5,83z"/>
			<path class="st2" d="M43.6,66.4h21.5c1.1,0,2,0.9,2,2v2c0,1.1-0.9,2-2,2H43.6c-1.1,0-2-0.9-2-2v-2C41.6,67.3,42.5,66.4,43.6,66.4
				z"/>
			<path class="st2" d="M40.3,78.7h10.1c0.4,0,0.8,0.3,0.8,0.8v0.8c0,0.4-0.3,0.8-0.8,0.8H40.3c-0.4,0-0.8-0.3-0.8-0.8v-0.8
				C39.6,79,39.9,78.7,40.3,78.7z"/>
			<path class="st2" d="M40.3,84.1h25c0.4,0,0.8,0.3,0.8,0.8v0.8c0,0.4-0.3,0.8-0.8,0.8h-25c-0.4,0-0.8-0.3-0.8-0.8v-0.8
				C39.6,84.4,39.9,84.1,40.3,84.1z"/>
		</g>
	</g>
</g>
</svg>
