<?xml version="1.0" encoding="utf-8"?>
<!-- Generator: Adobe Illustrator 25.3.1, SVG Export Plug-In . SVG Version: 6.00 Build 0)  -->
<svg version="1.1" id="圖層_1" xmlns="http://www.w3.org/2000/svg" xmlns:xlink="http://www.w3.org/1999/xlink" x="0px" y="0px"
	 viewBox="0 0 175 100" style="enable-background:new 0 0 175 100;" xml:space="preserve">
<style type="text/css">
	.st0{fill:#F2994A;stroke:#F2C94C;}
	.st1{fill:none;stroke:#F2994A;stroke-opacity:0.3;}
	.st2{fill:none;stroke:#2D9CDB;stroke-opacity:0.3;}
	.st3{fill:#2D9CDB;stroke:#56CCF2;}
	.st4{clip-path:url(#SVGID_2_);}
	.st5{fill:#CA7122;}
	.st6{clip-path:url(#SVGID_4_);}
	.st7{fill:#2D9CDB;}
</style>
<circle class="st0" cx="44.8" cy="26" r="2.1"/>
<circle class="st0" cx="70.5" cy="19.9" r="2.1"/>
<circle class="st0" cx="95.3" cy="32.1" r="2.1"/>
<circle class="st0" cx="118.2" cy="35.5" r="2.1"/>
<circle class="st0" cx="139.3" cy="44.3" r="2.1"/>
<path class="st1" d="M19.8,32.7L45,26.3l25.7-6.6l24.6,12.4l22.9,3.4l21.1,9"/>
<path class="st2" d="M19.8,32.7L46.1,39l24.8,7.8l24.6,15.1l24.6,10.6l21.1,11.2"/>
<circle class="st3" cx="19.8" cy="32.7" r="2.1"/>
<circle class="st3" cx="44.8" cy="38.8" r="2.1"/>
<circle class="st3" cx="70.2" cy="46.8" r="2.1"/>
<circle class="st3" cx="95.3" cy="61.8" r="2.1"/>
<circle class="st3" cx="120.1" cy="72.5" r="2.1"/>
<circle class="st3" cx="141.2" cy="83.5" r="2.1"/>
<g>
	<defs>
		<rect id="SVGID_1_" x="143.6" y="25.4" width="11.9" height="21.4"/>
	</defs>
	<clipPath id="SVGID_2_">
		<use xlink:href="#SVGID_1_"  style="overflow:visible;"/>
	</clipPath>
	<g class="st4">
		<path class="st5" d="M152.8,46.8c0.3,0,0.6-0.1,0.8-0.3c0.2-0.2,0.3-0.5,0.3-0.8V35.4l-4.4-1.2c-0.2,1-0.2,2.5-0.1,4.6
			c0,0.2-0.1,0.4-0.2,0.6v6.3c0,0.3,0.1,0.5,0.3,0.7c0.2,0.2,0.5,0.3,0.8,0.3s0.6-0.1,0.8-0.3c0.2-0.2,0.3-0.5,0.3-0.7v-7.8h0.4v7.8
			c0,0.1,0,0.3,0.1,0.4c0.1,0.1,0.1,0.2,0.2,0.3c0.1,0.1,0.2,0.2,0.4,0.2C152.5,46.8,152.6,46.8,152.8,46.8z"/>
		<path class="st5" d="M149.5,28.3c0,0.4,0.1,0.8,0.3,1.1c0.2,0.3,0.5,0.6,0.9,0.7c0.4,0.1,0.8,0.2,1.1,0.1c0.4-0.1,0.7-0.3,1-0.5
			c0.3-0.3,0.5-0.6,0.5-1c0.1-0.4,0-0.8-0.1-1.1c-0.1-0.4-0.4-0.7-0.7-0.9c-0.3-0.2-0.7-0.3-1.1-0.3c-0.5,0-1,0.2-1.4,0.6
			C149.7,27.3,149.5,27.8,149.5,28.3z M152.4,29.2l-0.2,0.2c-0.8-0.7-1.8-0.5-1.8-0.5l-0.1-0.3C150.4,28.7,151.5,28.4,152.4,29.2z"
			/>
		<path class="st5" d="M148.8,32.2l4.5,1.2c0-0.2-0.1-0.5-0.2-0.7l0.2,0c0.1,0.3,0.2,0.7,0.2,1l-4.8-1.3c-0.2,0-0.4,0-0.5,0.1
			c-0.2,0.1-0.3,0.2-0.3,0.4c0,0.2,0,0.4,0.1,0.5c0.1,0.2,0.2,0.3,0.4,0.3l5.8,1.6c0.1,0,0.1,0,0.2,0c0.1,0,0.2,0,0.3-0.1
			c0.1,0,0.2-0.1,0.2-0.2c0.1-0.1,0.1-0.2,0.1-0.2c0-0.1,0-0.2,0-0.3c-0.1-0.9-0.2-1.6-0.4-2.1c-0.1-0.4-0.3-0.8-0.5-1
			c-0.3-0.4-0.6-0.6-0.9-0.7c-0.1,0-0.1,0-0.2,0h-3.4c-0.1,0-0.2,0-0.3,0.1c-0.3,0.1-0.8,0.5-1.2,1.4
			C148.5,32.1,148.6,32.1,148.8,32.2L148.8,32.2z"/>
		<path class="st5" d="M149.2,34.1l-0.9-0.2c-0.2,0-0.3-0.1-0.4-0.2c-0.2,1.2-0.3,2.9-0.2,5.3c0,0.2,0.1,0.3,0.2,0.5
			c0.1,0.1,0.3,0.2,0.5,0.2c0,0,0,0,0,0c0.1,0,0.2,0,0.3-0.1c0.1,0,0.2-0.1,0.2-0.2c0.1-0.1,0.1-0.1,0.1-0.2c0-0.1,0-0.2,0-0.3
			C149,36.6,149.1,35.1,149.2,34.1L149.2,34.1z"/>
		<path class="st5" d="M148.6,30.6C148.6,30.5,148.7,30.5,148.6,30.6C148.7,30.5,148.7,30.5,148.6,30.6
			C148.7,30.5,148.7,30.5,148.6,30.6C148.7,30.5,148.7,30.5,148.6,30.6c0.1-0.1,0.1-0.1,0.1-0.1c0,0,0,0,0,0c0,0,0,0,0,0
			c0,0,0,0,0,0c-0.2,0-0.4,0.1-0.5,0.2c-0.2,0.2-0.1,0.5-0.1,0.5c0,0,0,0,0,0.1c0,0,0,0,0.1,0h0c0,0,0,0,0,0c0,0,0,0,0-0.1
			c0,0,0-0.2,0.1-0.3C148.4,30.6,148.5,30.6,148.6,30.6L148.6,30.6z"/>
		<path class="st5" d="M148.5,30c-0.3,0-0.5,0.1-0.7,0.3c-0.2,0.3-0.2,0.6-0.2,0.7c0,0,0,0,0,0c0,0,0,0,0,0c0,0,0,0,0,0c0,0,0,0,0,0
			l0,0c0,0,0,0,0,0c0,0,0,0,0-0.1c0,0,0-0.3,0.2-0.5c0.1-0.1,0.3-0.2,0.6-0.3c0,0,0,0,0.1,0C148.6,30.1,148.6,30.1,148.5,30
			C148.6,30.1,148.6,30,148.5,30C148.6,30,148.5,30,148.5,30L148.5,30z"/>
		<path class="st5" d="M155.5,26.5c-0.1-0.7-1.4-0.4-1.7,0.4C154.9,26.7,155.6,27.1,155.5,26.5z"/>
		<path class="st5" d="M154.1,25.4c-0.4-0.3-1,0.6-0.7,1.2C153.9,25.9,154.5,25.7,154.1,25.4z"/>
		<path class="st5" d="M153.7,27.6c0.8,0,1.2,0.4,1.2,0C155,27.1,154.1,27.1,153.7,27.6z"/>
		<path class="st5" d="M145.5,31.9l1.7,0.8l0-0.1l-1.9-1.2l-0.1,0.8l-1.5-0.7l-0.1,0.3l1.9,0.7L145.5,31.9z"/>
		<path class="st5" d="M145.6,30l-0.2,0.2l1,1.3l0.3-0.6l0.9,1.3l0.1,0l-0.9-1.7l-0.4,0.6L145.6,30z"/>
	</g>
</g>
<g>
	<defs>
		<rect id="SVGID_3_" x="144.5" y="66.7" width="17.4" height="18.7"/>
	</defs>
	<clipPath id="SVGID_4_">
		<use xlink:href="#SVGID_3_"  style="overflow:visible;"/>
	</clipPath>
	<g class="st6">
		<path class="st7" d="M156.2,70c0.4-1.4-0.4-2.8-1.8-3.3c-1.4-0.4-2.9,0.4-3.3,1.7s0.4,2.8,1.8,3.3C154.3,72.2,155.7,71.4,156.2,70
			z"/>
		<path class="st7" d="M145.8,85.2c0,0,0.7,0.1,1.6,0.1c0.6,0,1.3,0,1.9-0.2c0.4-0.1,0.7-0.2,1-0.3c0.3-0.2,0.7-0.4,1-0.9
			c0.2-0.4,0.3-0.8,0.3-1.2c0-0.7-0.3-1.2-0.5-1.7c-0.2-0.3-0.3-0.5-0.5-0.7l0.1-0.1c0.2-0.1,0.4-0.2,0.6-0.3
			c-0.3-0.2-0.7-0.4-1-0.7c-0.5-0.4-0.9-0.9-1.3-1.4c0,0,0,0,0,0c-0.6-0.9-0.9-1.9-0.8-3c0-0.7,0.1-1.4,0.3-2.1
			c0-0.1,0.1-0.3,0.2-0.4c0.1-0.1,0.2-0.2,0.4-0.3c0.1-0.1,0.3-0.1,0.4-0.1c0.2,0,0.3,0,0.5,0c0.3,0.1,0.5,0.3,0.7,0.6
			c0.1,0.3,0.2,0.6,0.1,0.9c-0.2,0.5-0.2,1-0.2,1.4c0,0.5,0.1,0.9,0.3,1.3c0.1,0.1,0.1,0.2,0.2,0.4c0.1,0.1,0.2,0.2,0.3,0.4
			c0.2,0.3,0.5,0.5,0.8,0.7c0,0,0,0,0.1,0c0.6,0.4,1.2,0.7,1.8,0.9c0.2,0,0.3,0.1,0.4,0.2c0.2,0.2,0.4,0.4,0.4,0.6
			c0.1,0.3,0,0.5-0.1,0.8c-0.1,0.2-0.3,0.4-0.6,0.5c-0.2,0.1-0.5,0.1-0.8,0.1c-0.2-0.1-0.5-0.1-0.7-0.2c-0.1,0.5-0.2,1-0.3,1.4
			c-0.1,0.4-0.2,0.8-0.2,1.1c0,0.1-0.1,0.2-0.1,0.3c0,0.1,0,0.1,0,0.1c-0.1,0.4,0,0.8,0.2,1.1c0.2,0.3,0.5,0.6,0.9,0.7
			c0.4,0.1,0.8,0.1,1.1-0.1c0.3-0.2,0.6-0.5,0.7-0.9c0,0,0.2-0.7,0.4-1.6c0.2-0.9,0.4-2.1,0.4-3.1c0-0.3,0-0.6-0.1-0.9
			c-0.1-0.3-0.2-0.7-0.5-1c-0.3-0.3-0.6-0.6-1-0.7c-0.3-0.1-0.7-0.2-1.1-0.2c-0.6,0-1.1,0.1-1.6,0.3c-0.2-0.4-0.4-0.9-0.4-1.4
			c0.1-0.6,0.3-1.1,0.4-1.6c0.4-1.1,0.1-2.5-0.9-2.8c-1-0.3-2.4,0.1-3.1,1.8c-0.9,2.3-1.2,3.8-1.1,6.4c0.1,1,0.5,1.5,1,1.8
			c0,0,0.1,0.1,0.1,0.1c0.3,0.2,0.6,0.5,0.8,0.8c0.1,0.1,0.3,0.3,0.4,0.4c0,0-0.1,0-0.1,0c-0.4,0-0.7,0.1-1.1,0.1
			c-0.4,0-0.7,0-0.9,0c-0.1,0-0.2,0-0.3,0l-0.1,0h0c-0.2,0-0.4,0-0.6,0c-0.2,0.1-0.4,0.1-0.5,0.3c-0.2,0.1-0.3,0.3-0.4,0.4
			c-0.1,0.2-0.2,0.4-0.2,0.5c0,0.2,0,0.4,0.1,0.6c0.1,0.2,0.1,0.4,0.3,0.5c0.1,0.1,0.3,0.3,0.4,0.4
			C145.5,85.2,145.6,85.2,145.8,85.2z"/>
		<path class="st7" d="M153.7,80.6c0.1,0,0.2,0,0.3,0c0.2-0.1,0.4-0.2,0.5-0.3c0.1-0.2,0.2-0.4,0.2-0.6c0-0.2-0.1-0.4-0.2-0.6
			c-0.1-0.2-0.3-0.3-0.5-0.3c-0.1,0-1-0.3-1.9-0.9c-0.4-0.2-0.7-0.5-0.9-0.9c-0.1-0.1-0.2-0.2-0.2-0.3c0,0,0-0.1-0.1-0.1
			c-0.3-0.5-0.4-1-0.4-1.7c0-0.4,0.1-0.9,0.2-1.5c0.1-0.2,0-0.5-0.1-0.7c-0.1-0.2-0.3-0.4-0.5-0.4l0,0c-0.2-0.1-0.5,0-0.7,0.1
			c-0.2,0.1-0.4,0.3-0.5,0.5c-0.2,0.7-0.3,1.4-0.3,2c0,1.1,0.3,2.1,0.8,2.8c0,0,0,0,0,0c0.3,0.5,0.7,0.9,1.1,1.2
			c0.4,0.3,0.8,0.6,1.3,0.9c0.1,0,0.2,0.1,0.2,0.1c0.3,0.1,0.5,0.3,0.8,0.4c0.2,0.1,0.5,0.2,0.7,0.2
			C153.6,80.6,153.6,80.6,153.7,80.6L153.7,80.6z"/>
		<path class="st7" d="M159.3,79.5l0.3,1l-2.5-0.3l0,0.1L160,81l-0.3-1.1l2.2,0.2l0-0.5L159.3,79.5z"/>
		<path class="st7" d="M158.5,82.3l-1.7-1.3l-0.1,0.1l1.9,1.7l0.2-0.9l1.5,1.1l0.2-0.4l-1.9-1.2L158.5,82.3z"/>
		<path class="st7" d="M156.7,79.3l2.4-0.5l-0.6-0.7l1.7-0.6l-0.2-0.4l-2.1,0.9l0.6,0.6L156.7,79.3L156.7,79.3z"/>
	</g>
</g>
</svg>
