<?xml version="1.0" encoding="utf-8"?>
<!-- Generator: Adobe Illustrator 25.3.1, SVG Export Plug-In . SVG Version: 6.00 Build 0)  -->
<svg version="1.1" id="圖層_1" xmlns="http://www.w3.org/2000/svg" xmlns:xlink="http://www.w3.org/1999/xlink" x="0px" y="0px"
	 viewBox="0 0 240 300" style="enable-background:new 0 0 240 300;" xml:space="preserve">
<style type="text/css">
	.st0{opacity:0.46;}
	.st1{fill:#DB8851;}
	.st2{fill:#FFFFFF;}
	.st3{fill:#E3E3E3;}
	.st4{opacity:0.14;}
	.st5{clip-path:url(#SVGID_2_);}
	.st6{fill:#EBEBEB;}
	.st7{fill:#FAFAFA;}
	.st8{fill:#E0E0E0;}
	.st9{fill:#F5F5F5;}
	.st10{opacity:0.6;}
	.st11{fill:#263238;}
	.st12{fill:#CB675D;}
	.st13{opacity:0.3;}
	.st14{fill:#FFBF9D;}
	.st15{fill:#FF9A6C;}
	.st16{fill:#FF725E;}
	.st17{opacity:0.8;}
	.st18{fill:#455A64;}
</style>
<g>
	<g class="st0">
		<path class="st1" d="M0.3,25.1L235.1,4.5l4.9,270.6l-205.2,24L0.3,25.1z"/>
	</g>
	<path class="st2" d="M0,21.4L234.8,0.8l4.9,270.6L40.4,294.8L0,21.4z"/>
	<path class="st3" d="M5.7,25.9l38.9,263.3l190-22.3L229.9,6.3L5.7,25.9z"/>
	<g class="st4">
		<path class="st2" d="M233.6,208.7L196,271.5l38.6-4.5L233.6,208.7z"/>
		<path class="st2" d="M230.6,42.4l-190.1,219l4.1,27.9l23.4-2.7L231.4,88.3L230.6,42.4z"/>
		<path class="st2" d="M18.4,111.7l11.9,80.5L209.9,8l-89,7.8C90,44.5,47.6,84.3,18.4,111.7z"/>
	</g>
	<g>
		<defs>
			
				<rect id="SVGID_1_" x="38.3" y="56.4" transform="matrix(0.9945 -0.1045 0.1045 0.9945 -14.3677 14.3466)" width="182.8" height="175.8"/>
		</defs>
		<clipPath id="SVGID_2_">
			<use xlink:href="#SVGID_1_"  style="overflow:visible;"/>
		</clipPath>
		<g class="st5">
			<path class="st6" d="M206.5,51.5l-74.4,7.8l14.1,134.1l74.4-7.8L206.5,51.5z"/>
			<path class="st7" d="M203.2,55.8l-67.7,7.1l13.3,126.2l67.7-7.1L203.2,55.8z"/>
			<path class="st8" d="M223.9,186.5l-3.3-0.9L206.3,49.2l3.2-0.3L223.9,186.5z"/>
			<path class="st8" d="M208.5,91.9l-69.2,7.3l0.1,1.3l69.2-7.3L208.5,91.9z"/>
			<path class="st8" d="M211.6,122l-69.2,7.3l0.1,1.3l69.2-7.3L211.6,122z"/>
			<path class="st8" d="M214.8,152.1l-69.2,7.3l0.1,1.3l69.2-7.3L214.8,152.1z"/>
			<path class="st8" d="M171.5,96.5l9.8,92.8l3.4-0.4l-9.8-92.8L171.5,96.5z"/>
			<path class="st8" d="M150.1,61.4l-1.5,0.2l3.9,37l1.6-0.2L150.1,61.4z"/>
			<path class="st8" d="M163.4,60l-1.6,0.2l3.9,37l1.5-0.2L163.4,60z"/>
			<path class="st8" d="M176.8,58.6l-1.6,0.2l3.9,37l1.6-0.2L176.8,58.6z"/>
			<path class="st8" d="M190.2,57.1l-1.6,0.2l3.9,37l1.6-0.2L190.2,57.1z"/>
			<path class="st8" d="M131.9,57l-3.1,0.3l14.4,137.2l3.1-0.3L131.9,57z"/>
			<path class="st8" d="M209.3,47.5L128.6,56l0.4,3.7l80.7-8.5L209.3,47.5z"/>
			<path class="st8" d="M226.1,186.7l-85.1,8.9l0.4,3.4l85.1-8.9L226.1,186.7z"/>
			<path class="st6" d="M220.6,185.6l5.5,1.1l-85.1,8.9l5.2-2.2L220.6,185.6z"/>
			<path class="st9" d="M54.9,129.7l-18.5,1.9l1.9,18.5l18.5-1.9L54.9,129.7z"/>
			<path class="st9" d="M74.2,127.6l-18.5,1.9l1.9,18.5l18.5-1.9L74.2,127.6z"/>
			<path class="st9" d="M93.6,125.7l-18.5,1.9l1.9,18.5l18.5-1.9L93.6,125.7z"/>
			<path class="st9" d="M113.1,123.6l-18.5,1.9l1.9,18.5l18.5-1.9L113.1,123.6z"/>
			<path class="st9" d="M132.4,121.5l-18.5,1.9l1.9,18.5l18.5-1.9L132.4,121.5z"/>
			<path class="st9" d="M57,149.1L38.5,151l1.9,18.5l18.5-1.9L57,149.1z"/>
			<path class="st9" d="M76.3,147.1L57.8,149l1.9,18.5l18.5-1.9L76.3,147.1z"/>
			<path class="st9" d="M95.7,145.2l-18.5,1.9l1.9,18.5l18.5-1.9L95.7,145.2z"/>
			<path class="st9" d="M115.2,143l-18.5,1.9l1.9,18.5l18.5-1.9L115.2,143z"/>
			<path class="st9" d="M134.5,140.9l-18.5,1.9l1.9,18.5l18.5-1.9L134.5,140.9z"/>
			<path class="st9" d="M59.1,168.9l-18.5,1.9l1.9,18.5l18.5-1.9L59.1,168.9z"/>
			<path class="st9" d="M78.4,166.9l-18.5,1.9l1.9,18.5l18.5-1.9L78.4,166.9z"/>
			<path class="st9" d="M97.8,164.9l-18.5,1.9l1.9,18.5l18.5-1.9L97.8,164.9z"/>
			<path class="st9" d="M117.2,162.8l-18.5,1.9l1.9,18.5l18.5-1.9L117.2,162.8z"/>
			<path class="st9" d="M136.5,160.7l-18.5,1.9l1.9,18.5l18.5-1.9L136.5,160.7z"/>
			<g class="st10">
				<path class="st9" d="M76.3,211.8l-9.6,1c-1,0.1-1.8,1-1.7,2.1l2.3,22.4c0.1,1,1,1.8,2.1,1.7l9.6-1c1-0.1,1.8-1,1.7-2.1
					l-2.3-22.4C78.3,212.4,77.3,211.7,76.3,211.8z"/>
			</g>
			<path class="st6" d="M78,236.3l-7.9,0.8c-0.5,0-0.9-0.1-1.3-0.4s-0.6-0.7-0.6-1.2l-1.7-15.7l3.8,0.2c1,0.1,2,0,3-0.3l4.7-1.1
				l1.7,15.7c0,0.2,0,0.5-0.1,0.7c-0.1,0.2-0.2,0.4-0.3,0.6c-0.1,0.2-0.3,0.3-0.5,0.4C78.5,236.2,78.3,236.2,78,236.3z"/>
			<path class="st8" d="M78.2,211.7c-0.2,0.1-0.3,0.2-0.5,0.2c-0.4,0.2-0.9,0.4-1.4,0.5c-0.7,0.2-1.4,0.4-2.1,0.6
				c-2.4,0.5-4.9,0.6-7.4,0.3c-0.6-0.1-1.1-0.1-1.4-0.2c-0.2,0-0.4-0.1-0.5-0.1c0.2,0,0.4,0,0.5,0.1c0.3,0,0.8,0.1,1.4,0.2
				c1.6,0.1,3.2,0.2,4.8,0c0.9-0.1,1.7-0.2,2.6-0.4c0.8-0.2,1.5-0.3,2.1-0.5c0.6-0.2,1.1-0.3,1.4-0.5
				C77.8,211.8,78,211.8,78.2,211.7z"/>
			<path class="st8" d="M66.1,215.3c0,0,0.6,4.5,1.1,10c0.6,5.5,1,10,1,10c0,0-0.6-4.5-1.1-10C66.5,219.8,66.1,215.3,66.1,215.3z"/>
			<path class="st8" d="M77.3,236.4c0,0.1-1.6,0.3-3.6,0.5c-2,0.2-3.6,0.3-3.6,0.3c0-0.1,1.6-0.2,3.6-0.5
				C75.7,236.5,77.3,236.4,77.3,236.4z"/>
			<path class="st2" d="M66.6,219.9c1.2,1.1,2.7,1.6,4.3,1.7c2.6,0,5-1.5,7.2-3c-3.8,0.9-7.7,1.9-11.5,1.1"/>
			<g class="st10">
				<path class="st2" d="M73.6,225.6c-1.1,0.9-1.9,2.1-3,3c-1.1,0.9-2.7,1.4-3.9,0.7l0.2,1.8c1.2,0.7,2.8,0.2,3.9-0.7
					c1.1-0.9,1.9-2.1,3-3c0.8-0.7,1.8-1.2,2.8-1.4c1-0.3,2.1-0.3,3.1-0.2l-0.2-1.8c-1-0.2-2.1-0.1-3.1,0.2
					C75.3,224.4,74.4,224.9,73.6,225.6z"/>
			</g>
			<path class="st8" d="M78.5,237.9c0.2,0,0.3-0.1,0.5-0.1c0.5-0.2,0.9-0.5,1.2-0.9c0.2-0.3,0.3-0.6,0.4-1c0-0.4,0-0.9-0.1-1.3
				c-0.1-1-0.2-2.1-0.3-3.3c-0.5-4.9-1.3-11.8-2.1-19.7l0.1,0.1l-13.4,1.4l0.1-0.1c0.5,5,1,9.8,1.5,14.1c0.2,2.2,0.4,4.2,0.6,6.1
				c0.1,1,0.2,1.9,0.3,2.8c0,0.4,0.1,0.9,0.2,1.3c0.1,0.4,0.4,0.7,0.7,1c0.3,0.2,0.6,0.4,1,0.5c0.4,0.1,0.7,0.1,1.1,0l2.1-0.2
				l3.3-0.3l2.1-0.2l0.5-0.1C78.4,237.9,78.5,237.9,78.5,237.9l-0.2,0l-0.5,0.1l-2.1,0.2l-3.3,0.4l-2.1,0.2c-0.4,0.1-0.8,0.1-1.1,0
				c-0.4,0-0.8-0.2-1.1-0.4c-0.3-0.3-0.6-0.6-0.8-1c-0.1-0.4-0.2-0.9-0.2-1.3c-0.1-0.9-0.2-1.8-0.3-2.8c-0.2-1.9-0.4-4-0.6-6.1
				c-0.5-4.3-1-9.1-1.5-14.1l0-0.1l13.6-1.4l0,0.1c0.8,8,1.5,14.8,2,19.7c0.1,1.2,0.2,2.3,0.3,3.3c0.1,0.4,0.1,0.9,0.1,1.3
				c-0.1,0.4-0.3,0.9-0.6,1.2c-0.3,0.3-0.7,0.6-1.1,0.7C78.9,237.9,78.7,237.9,78.5,237.9z"/>
			<path class="st11" d="M228.3,222c0,0.1-38.9,4.2-86.9,9.2c-48,5-86.9,9.1-86.9,9c0-0.1,38.9-4.2,86.9-9.2
				C189.5,225.9,228.3,221.9,228.3,222z"/>
			<path class="st9" d="M103.6,77.3c-2.5-5.4-8-9.2-13.9-10.1c-5.9-0.9-12.1,1-16.7,4.8c-0.6-1.1-1.5-2.1-2.7-2.6
				c-1.1-0.6-2.4-0.7-3.7-0.5c-1.3,0.3-2.4,0.9-3.2,1.9c-0.8,1-1.3,2.2-1.4,3.4c-6.2-0.6-10.6,2.5-12.6,8.4
				c-1.7,5.2-0.1,11,3.9,14.6c-3.7,4.6-4.4,10.3-0.3,15.6c4.4,5.8,13.9,6.7,19.5,2c2,4.3,7.1,6.9,11.8,6.1c4.7-0.8,8.5-5.1,8.9-9.8
				c1.9-0.1,3.8-0.7,5.4-1.7c1.6-1.1,2.9-2.5,3.8-4.2c0.9-1.7,1.2-3.7,1.1-5.6c-0.1-1.9-0.8-3.8-1.8-5.4
				C105.4,89.6,106.1,82.7,103.6,77.3z"/>
			<path class="st11" d="M103.6,77.3c0,0,0.2,0.4,0.5,1.1c1.1,2.9,1.3,6,0.7,9c-0.5,2.5-1.6,4.8-3.2,6.8l0-0.1
				c0.9,1.4,1.5,3,1.7,4.7c0.3,1.8,0,3.7-0.6,5.5c-0.7,1.9-2,3.5-3.6,4.7c-1.7,1.3-3.8,2.1-6,2.2l0.1-0.1c-0.2,2.2-1.1,4.3-2.5,6
				c-1.5,1.8-3.5,3.1-5.8,3.7c-2.4,0.6-4.9,0.3-7.2-0.8c-2.3-1.1-4.2-2.9-5.4-5.2l0.1,0c-1.7,1.3-3.6,2.3-5.7,2.7
				c-0.5,0.1-1.1,0.2-1.6,0.3c-0.3,0-0.5,0-0.8,0c-0.3,0-0.5,0-0.8,0c-1.1,0-2.2-0.2-3.3-0.4c-0.3-0.1-0.5-0.1-0.8-0.2l-0.8-0.3
				l-0.4-0.1l-0.4-0.2l-0.8-0.3c-0.3-0.1-0.5-0.3-0.7-0.4c-0.2-0.1-0.5-0.3-0.7-0.4c-0.5-0.3-0.9-0.7-1.3-1.1
				c-1.7-1.6-3-3.6-3.7-5.8c-0.3-1-0.5-2-0.5-3.1c0-1,0.1-2.1,0.3-3.1c0.2-1,0.6-2,1.1-2.9c0.5-0.9,1-1.8,1.7-2.5l0,0.1
				c-2.1-2-3.6-4.6-4.2-7.5c-0.6-2.7-0.4-5.6,0.7-8.2c0.5-1.3,1.2-2.5,2-3.5c0.8-1,1.8-1.9,3-2.6c1.1-0.6,2.4-1.1,3.6-1.3
				c1.2-0.2,2.5-0.2,3.8-0.1l-0.1,0.1c0.1-1.3,0.6-2.5,1.5-3.5c0.9-1,2-1.6,3.3-1.9c1.3-0.3,2.6-0.1,3.7,0.5
				c1.2,0.6,2.1,1.5,2.7,2.6l-0.1,0c2.1-1.6,4.4-2.9,6.8-3.8c2.2-0.8,4.5-1.2,6.9-1.2c1.1,0,2.1,0.1,3.2,0.2c0.5,0.1,1,0.2,1.5,0.3
				c0.5,0.1,0.9,0.3,1.4,0.4c3,1,5.6,2.7,7.8,4.9c0.7,0.7,1.3,1.5,1.9,2.4c0.3,0.5,0.7,1.1,0.9,1.6
				C103.5,77.1,103.6,77.3,103.6,77.3c0,0-0.1-0.2-0.3-0.6c-0.3-0.6-0.6-1.1-1-1.6c-0.6-0.8-1.2-1.6-1.9-2.3c-1-1-2-1.9-3.2-2.6
				c-1.4-1-3-1.7-4.6-2.2c-0.4-0.1-0.9-0.3-1.4-0.4c-0.5-0.1-1-0.2-1.5-0.3c-1-0.2-2.1-0.2-3.1-0.2c-2.3,0-4.6,0.4-6.8,1.2
				c-2.5,0.9-4.8,2.1-6.8,3.8L73,72l0-0.1c-0.6-1.1-1.5-2-2.6-2.6s-2.4-0.7-3.6-0.5c-1.2,0.2-2.3,0.9-3.2,1.8
				c-0.8,0.9-1.3,2.1-1.4,3.4l0,0.1l-0.1,0c-1.2-0.1-2.5-0.1-3.7,0.1c-1.3,0.2-2.5,0.6-3.6,1.3c-1.1,0.7-2.1,1.5-2.9,2.6
				c-0.8,1-1.5,2.2-2,3.5c-1.1,2.6-1.3,5.4-0.7,8.1c0.6,2.8,2.1,5.4,4.2,7.3l0.1,0.1l-0.1,0.1c-0.6,0.8-1.2,1.6-1.7,2.5
				c-0.5,0.9-0.8,1.8-1.1,2.8c-0.2,1-0.4,2-0.3,3c0,1,0.2,2,0.5,3c0.7,2.2,2,4.1,3.6,5.7c0.4,0.4,0.8,0.7,1.3,1
				c0.2,0.2,0.5,0.3,0.7,0.4c0.2,0.1,0.5,0.3,0.7,0.4l0.8,0.3l0.4,0.2l0.4,0.1l0.8,0.3c0.3,0.1,0.5,0.1,0.8,0.2
				c1.1,0.2,2.1,0.4,3.2,0.4c0.3,0,0.5,0,0.8,0c0.3,0,0.5,0,0.8,0c0.5-0.1,1.1-0.1,1.6-0.2c2.1-0.4,4-1.3,5.6-2.7l0.1-0.1l0.1,0.1
				c1.1,2.3,3,4.1,5.3,5.1c2.2,1.1,4.7,1.3,7,0.8c2.2-0.6,4.2-1.9,5.7-3.7c1.4-1.7,2.3-3.7,2.5-5.9l0-0.1l0.1,0
				c2.1-0.1,4.2-0.9,5.9-2.2c1.6-1.2,2.9-2.8,3.6-4.7c0.6-1.7,0.9-3.6,0.6-5.4c-0.2-1.6-0.8-3.2-1.7-4.6l0,0l0,0
				c1.6-1.9,2.7-4.3,3.2-6.7c0.4-1.8,0.4-3.7,0.2-5.6c-0.2-1.2-0.4-2.3-0.8-3.4c-0.1-0.4-0.3-0.6-0.3-0.8S103.6,77.3,103.6,77.3z"/>
			<path class="st2" d="M98.9,120.2c1.6-0.2,2.7-1.6,2.6-3.2s-1.6-2.7-3.2-2.6c-1.6,0.2-2.7,1.6-2.6,3.2S97.3,120.4,98.9,120.2z"/>
			<path class="st11" d="M101.4,117c0,0,0-0.3-0.2-0.7c-0.2-0.6-0.7-1.1-1.2-1.4c-0.4-0.2-0.8-0.4-1.2-0.4c-0.5,0-1,0.1-1.4,0.3
				c-0.5,0.2-0.9,0.6-1.2,1.1c-0.3,0.5-0.4,1.1-0.4,1.7c0.1,0.6,0.3,1.1,0.7,1.6c0.4,0.4,0.8,0.7,1.4,0.8c0.5,0.1,1,0.1,1.5,0
				c0.4-0.1,0.8-0.3,1.1-0.6c0.5-0.4,0.8-1,0.9-1.6C101.5,117.3,101.4,117,101.4,117c0,0.1,0,0.1,0,0.2c0,0.2,0,0.4,0,0.5
				c-0.1,0.7-0.4,1.3-0.9,1.7c-0.3,0.3-0.7,0.6-1.2,0.7c-0.5,0.2-1.1,0.2-1.6,0c-0.6-0.1-1.1-0.4-1.5-0.9c-0.4-0.5-0.7-1.1-0.8-1.7
				c-0.1-0.6,0.1-1.3,0.4-1.8c0.3-0.5,0.7-0.9,1.2-1.1c0.5-0.3,1.1-0.4,1.6-0.3c0.5,0,0.9,0.2,1.3,0.4c0.6,0.4,1,0.9,1.2,1.5
				c0.1,0.2,0.1,0.3,0.1,0.5C101.4,116.9,101.4,117,101.4,117z"/>
			<path class="st12" d="M59.7,103.3c-0.4-0.4-0.7-0.9-0.9-1.4c-0.2-0.5-0.2-1.1-0.2-1.7c0.1-0.8,0.5-1.6,1.1-2.1
				c0.7-0.5,1.6-0.7,2.5-0.6c0.9,0.1,1.7,0.4,2.5,0.8c0,0,7.5,4.9,11.6,5.9c4.1,1,7.3,0.5,8.5,0.5c1.2-0.1,4,0.2,4.4,1.9
				c0.6,2.4-1,3.9-3,4.6c-1.6,0.6-8.7,1.9-17.2-1.8C62.1,106.4,59.7,103.3,59.7,103.3z"/>
			<g class="st13">
				<path d="M67,99.8c0.1,0.1-0.6,0.9-1,2.1c-0.5,1.2-0.6,2.2-0.8,2.2c-0.1,0-0.2-0.3-0.2-0.7c0-0.6,0.1-1.2,0.3-1.8
					c0.2-0.6,0.6-1.1,1-1.5C66.7,99.8,67,99.7,67,99.8z"/>
			</g>
			<g class="st13">
				<path d="M69,106.4c-0.1,0-0.2-0.3-0.2-0.8c0-1.3,0.4-2.5,1.2-3.4c0.3-0.4,0.6-0.5,0.6-0.5c0.1,0.1-0.5,1-0.9,2.3
					C69.2,105.2,69.1,106.4,69,106.4z"/>
			</g>
			<g class="st13">
				<path d="M73.1,108.1c-0.1,0-0.2-0.3-0.2-0.7c0-0.6,0.1-1.1,0.3-1.7c0.2-0.5,0.4-1.1,0.8-1.5c0.3-0.4,0.5-0.5,0.6-0.5
					c0.2,0.1-0.3,1-0.7,2.2C73.4,107.1,73.3,108.1,73.1,108.1z"/>
			</g>
			<g class="st13">
				<path d="M77.3,108.8c-0.2,0-0.2-1,0-2.1c0.2-1.1,0.5-2,0.7-2c0.2,0,0.2,1,0,2.1C77.8,107.9,77.5,108.8,77.3,108.8z"/>
			</g>
			<g class="st13">
				<path d="M82.3,109.1c-0.2,0-0.2-1-0.1-2.1c0-1.1,0.1-2.1,0.3-2.1c0.2,0,0.4,0.9,0.3,2.1C82.8,108.2,82.5,109.1,82.3,109.1z"/>
			</g>
			<g class="st13">
				<path d="M86.3,111.2c1.1-0.3,2-1.1,2.7-2c-4.3,2.9-11.6,2.2-17.1,0.4c-5.4-1.7-12.6-5.7-12.8-10.6c-0.1,0.3-0.3,0.7-0.3,1.1
					c-0.1,0.6,0,1.1,0.2,1.7c0.2,0.5,0.5,1,0.9,1.4c0,0,2.4,3.1,9.3,6.2C77.6,113.1,84.6,111.9,86.3,111.2z"/>
			</g>
			<path class="st2" d="M65.4,99.7c0,0-0.2-0.2-0.6-0.4c-1-0.7-2.1-1.1-3.3-1c-0.4,0-0.7,0.1-0.7,0c0.1,0,0.1-0.1,0.2-0.1
				c0.2,0,0.4-0.1,0.5-0.1c0.6,0,1.2,0,1.8,0.2c0.6,0.2,1.1,0.5,1.6,0.8c0.1,0.1,0.3,0.2,0.4,0.4C65.3,99.5,65.3,99.6,65.4,99.7z"/>
			<path class="st2" d="M69.1,101.5c-0.3-0.1-0.6-0.2-0.8-0.4c-0.3-0.1-0.5-0.3-0.8-0.5c0.3,0.1,0.6,0.2,0.8,0.4
				C68.6,101.2,68.8,101.3,69.1,101.5z"/>
			<path class="st2" d="M73.2,103.7c-0.4-0.1-0.7-0.2-1-0.4c-0.3-0.1-0.6-0.3-0.9-0.6c0.3,0.1,0.7,0.3,1,0.4
				C72.6,103.3,72.9,103.5,73.2,103.7z"/>
			<path class="st2" d="M76.7,104.8c-0.2,0-0.4,0-0.6-0.1c-0.2,0-0.4-0.1-0.6-0.2c0.2,0,0.4,0,0.6,0.1
				C76.3,104.6,76.5,104.7,76.7,104.8z"/>
			<path class="st2" d="M79.5,105.2c0,0-0.1,0.1-0.2,0c-0.1,0-0.2,0-0.2-0.1c0,0,0.1-0.1,0.2,0C79.4,105.1,79.5,105.2,79.5,105.2z"
				/>
			<path class="st11" d="M59.7,103.3l0.1,0.1c0.1,0.1,0.2,0.2,0.4,0.4c0.5,0.5,1,1,1.6,1.4c2.1,1.6,4.3,2.9,6.7,3.9
				c1.6,0.7,3.3,1.3,5.1,1.8c2,0.5,4,0.8,6.1,0.9c0.5,0,1.1,0,1.6,0c0.6,0,1.1,0,1.7-0.1c1.2-0.1,2.3-0.3,3.4-0.7
				c0.6-0.2,1.1-0.5,1.5-0.9c0.5-0.4,0.9-0.8,1.1-1.4c0.2-0.6,0.3-1.2,0.2-1.8l-0.1-0.4c0-0.1-0.1-0.3-0.2-0.4
				c-0.1-0.1-0.2-0.3-0.3-0.4c-0.1-0.1-0.2-0.2-0.3-0.3c-0.5-0.3-1.1-0.6-1.7-0.7c-0.6-0.1-1.2-0.2-1.8-0.1c-0.6,0-1.2,0.1-1.8,0.1
				c-0.6,0-1.2,0-1.8,0c-1.1,0-2.3-0.1-3.4-0.3c-1.1-0.2-2.2-0.5-3.2-0.9c-1.9-0.8-3.7-1.7-5.5-2.7c-1.7-0.9-3.2-1.9-4.6-2.7
				c-0.7-0.4-1.5-0.7-2.2-0.8c-0.7-0.1-1.4-0.1-2.1,0.2c-0.3,0.1-0.6,0.3-0.8,0.6c-0.2,0.2-0.4,0.5-0.5,0.8c-0.2,0.5-0.3,1-0.4,1.5
				c0,0.7,0.2,1.5,0.6,2.1c0.1,0.2,0.2,0.3,0.3,0.5L59.7,103.3l-0.1-0.2c-0.1-0.1-0.2-0.3-0.3-0.5c-0.4-0.6-0.6-1.3-0.6-2.1
				c0-0.5,0.1-1.1,0.4-1.6c0.1-0.3,0.3-0.5,0.5-0.8c0.2-0.2,0.5-0.4,0.8-0.6c0.7-0.3,1.4-0.4,2.1-0.2c0.8,0.2,1.6,0.4,2.3,0.8
				c1.4,0.9,2.9,1.8,4.6,2.7c1.8,1,3.6,1.9,5.5,2.7c1,0.4,2.1,0.7,3.2,0.9c1.1,0.2,2.3,0.3,3.4,0.3c0.6,0,1.2,0,1.8,0
				c0.6,0,1.2-0.1,1.8-0.1c0.6,0,1.2,0,1.8,0.1c0.6,0.1,1.2,0.3,1.7,0.7c0.1,0.1,0.3,0.2,0.4,0.3c0.1,0.1,0.2,0.2,0.3,0.4
				c0.1,0.1,0.1,0.3,0.2,0.4c0,0.2,0.1,0.3,0.1,0.5c0.1,0.6,0,1.3-0.2,1.9c-0.3,0.6-0.7,1.1-1.1,1.4c-0.5,0.4-1,0.7-1.6,0.9
				c-1.1,0.4-2.3,0.6-3.4,0.7c-0.6,0.1-1.1,0.1-1.7,0.1c-0.6,0-1.1,0-1.7,0c-2.1-0.1-4.1-0.4-6.1-0.9c-1.7-0.5-3.4-1.1-5.1-1.8
				c-2.4-1-4.7-2.4-6.7-4c-0.6-0.4-1.1-0.9-1.6-1.4c-0.2-0.2-0.3-0.3-0.4-0.4C59.8,103.4,59.8,103.3,59.7,103.3z"/>
			<path class="st14" d="M96.7,75.8l-2.3-0.3L75.2,73c-0.1,0-0.2,0-0.3,0c-0.9,0.4-5.2,3.1-7.2,4.5c-1.5,1-4.7,2.6-6.6,3.8
				c-1.9,1.1-4.3,2-4.3,2.2l0.5,4.5c0,0.1,0.1,0.2,0.1,0.3c0.1,0.1,0.2,0.2,0.3,0.2L97.1,81C97,80,96.8,76.5,96.7,75.8z"/>
			<g class="st13">
				<path class="st2" d="M80.4,74.4c-1.7-0.2-3.4-0.4-5,0c-1.6,0.4-3,1.3-4.4,2.2c-1.5,1-3,2.1-4.4,3.1c-0.1,0-0.1,0.1-0.1,0.2
					c0,0.1-0.1,0.1-0.1,0.2c0,0.1,0,0.2,0,0.2c0,0.1,0.1,0.1,0.1,0.2c1,0.7,2.2,0.4,3.2-0.2c1.2-0.6,2-1.7,2.9-2.6
					c0.9-0.9,2.1-1.7,3.4-1.7c0.7,0.1,1.3,0.3,2,0.5c0.7,0.1,1.5,0.1,2.2,0.1l3.9-0.2c0.1,0,0.3-0.1,0.4-0.2
					c0.1-0.1,0.2-0.2,0.2-0.4c0-0.1,0-0.3-0.1-0.4c-0.1-0.1-0.2-0.2-0.3-0.3C83.2,74.8,81.8,74.6,80.4,74.4z"/>
			</g>
			<path class="st15" d="M58.2,83.3l18.3-3.1l20.2-4l0.4,4.9l-39.7,7.5l-0.5-5.1L58.2,83.3z"/>
			<path class="st15" d="M67.5,79.2c-0.3,0.1-0.5,0.3-0.4,0.5c0.1,0.2,0.4,0.3,0.7,0.3c0.3-0.1,0.6-0.3,0.5-0.4
				c0-0.2-0.4-0.4-0.7-0.3"/>
			<path class="st15" d="M86.7,79.5c-0.3,0.1-0.5,0.3-0.4,0.5c0.1,0.2,0.4,0.3,0.7,0.3c0.3-0.1,0.6-0.3,0.5-0.5
				c0-0.2-0.4-0.4-0.7-0.3"/>
			<path class="st15" d="M86.7,78.7c-0.2,0-0.3,0.2-0.2,0.3c0,0.1,0.1,0.1,0.2,0.1c0.1,0,0.2,0,0.2,0c0.2,0,0.3-0.2,0.3-0.3
				C87.1,78.7,86.9,78.6,86.7,78.7"/>
			<path class="st15" d="M83.1,82.5c-0.2,0-0.3,0.2-0.2,0.3c0,0.1,0.2,0.2,0.4,0.2c0.2,0,0.3-0.2,0.3-0.3
				C83.5,82.5,83.3,82.4,83.1,82.5"/>
			<path class="st15" d="M65.9,80c-0.2,0-0.3,0.2-0.2,0.3c0,0.1,0.1,0.1,0.2,0.1c0.1,0,0.2,0,0.2,0c0.2,0,0.3-0.2,0.3-0.3
				C66.3,80,66.2,79.9,65.9,80"/>
			<path class="st15" d="M74.8,80.1c0,0,0-1.6,0-3.5c0.1-1.9,0.1-3.5,0.2-3.5c0,0,0,1.6,0,3.5C75,78.6,74.9,80.1,74.8,80.1z"/>
			<path class="st15" d="M70.2,83c0,0,0-1.5,0-3.3c0.1-1.8,0.2-3.3,0.2-3.3c0,0,0,1.5,0,3.3C70.3,81.5,70.2,83,70.2,83z"/>
			<path class="st15" d="M64.1,86.5c0,0,0-1.5,0-3.3c0.1-1.8,0.2-3.3,0.2-3.3c0,0,0,1.5,0,3.3C64.2,85.1,64.1,86.5,64.1,86.5z"/>
			<path class="st15" d="M79.9,80.6c0,0,0-1.5,0-3.3c0.1-1.8,0.2-3.3,0.2-3.3c0,0,0,1.5,0,3.3S79.9,80.6,79.9,80.6z"/>
			<path class="st15" d="M85.9,81.5c0,0,0-1.5,0-3.3c0.1-1.8,0.2-3.3,0.2-3.3c0,0,0,1.5,0,3.3C86.1,80,86,81.5,85.9,81.5z"/>
			<path class="st15" d="M91,81.9c0,0,0-1.5,0-3.3c0.1-1.8,0.2-3.3,0.2-3.3c0,0,0,1.5,0,3.3C91.1,80.5,91,81.9,91,81.9z"/>
			<path class="st11" d="M94.9,76.6L94.9,76.6l-0.4,0.1l-1.1,0.2l-4,0.8c-3.4,0.7-8.1,1.6-13.4,2.6c-5.2,1-10,1.8-13.4,2.4l-4.1,0.7
				l-1.1,0.2l-0.3,0l-0.1,0l0.1,0l0.3-0.1l1.1-0.2l4.1-0.7C66,82,70.7,81.1,76,80.2c5.2-1,10-1.9,13.4-2.5l4.1-0.8l1.1-0.2l0.3-0.1
				C94.9,76.6,94.9,76.6,94.9,76.6z"/>
			<path class="st2" d="M58.1,90.4c0.5-1.4,2-2.2,3.4-2.5s2.9-0.4,4.3-0.8c2.1-0.7,3.9-2.3,5.8-3.6c4.9-3.4,10.8-5,16.7-4.5
				c2.2,0.2,4.4,0.7,6.1,2c1.7,1.3,2.8,3.6,2.3,5.7c-0.7,2.5-2,3.5-3.5,4.8c-3.8,3.4-8.3,5.7-13.2,6.8c-4.9,1.1-10,1-14.9-0.4
				c-2.3-0.7-4.7-1.7-6.1-3.6C58.1,93.2,57.6,91.7,58.1,90.4z"/>
			<path class="st11" d="M58.1,90.4c0,0,0,0.1-0.1,0.2c-0.1,0.2-0.1,0.5-0.1,0.7c0,0.9,0.2,1.8,0.7,2.6c0.8,1.2,1.9,2.2,3.2,2.8
				c1.7,0.8,3.5,1.5,5.4,1.8c2.3,0.5,4.6,0.7,6.9,0.6c2.7-0.1,5.3-0.5,7.8-1.3c2.8-0.9,5.5-2.1,7.9-3.8c0.6-0.4,1.3-0.9,1.9-1.4
				c0.6-0.5,1.2-1,1.8-1.5c0.6-0.5,1.2-1.1,1.7-1.7c0.5-0.6,0.9-1.3,1.1-2.1c0.3-0.8,0.4-1.6,0.3-2.4c-0.1-0.8-0.4-1.6-0.8-2.3
				c-0.4-0.7-0.9-1.3-1.6-1.8c-0.6-0.5-1.3-0.9-2-1.1C91,79.3,89.5,79,88,78.9c-1.4-0.1-2.9-0.1-4.3,0.1c-2.7,0.3-5.3,0.9-7.7,2
				c-2.1,0.9-4.1,2.1-5.9,3.6c-0.8,0.6-1.6,1.2-2.5,1.7c-0.8,0.5-1.6,0.8-2.5,1c-0.8,0.2-1.6,0.3-2.3,0.4c-0.7,0.1-1.3,0.2-1.9,0.5
				c-0.9,0.3-1.7,0.8-2.2,1.5c-0.1,0.1-0.2,0.2-0.2,0.3c-0.1,0.1-0.1,0.2-0.1,0.3C58.1,90.3,58.1,90.4,58.1,90.4
				c0.1-0.3,0.3-0.6,0.4-0.8c0.6-0.7,1.4-1.2,2.2-1.5c0.6-0.2,1.3-0.4,1.9-0.4c0.7-0.1,1.5-0.2,2.3-0.4c0.9-0.2,1.7-0.5,2.5-1
				c0.9-0.5,1.7-1.1,2.5-1.7c1.8-1.4,3.8-2.6,5.9-3.6c2.4-1.1,5-1.7,7.7-2c1.4-0.1,2.9-0.1,4.3,0c1.5,0.1,3,0.4,4.4,0.9
				c0.7,0.3,1.4,0.7,2,1.1c0.6,0.5,1.1,1.1,1.5,1.7c0.4,0.7,0.7,1.4,0.8,2.2c0.1,0.8,0,1.6-0.3,2.3c-0.3,0.8-0.6,1.5-1.2,2.1
				c-0.5,0.6-1.1,1.2-1.7,1.7c-0.6,0.5-1.2,1-1.8,1.5c-0.6,0.5-1.2,0.9-1.9,1.4c-2.4,1.6-5.1,2.9-7.9,3.8c-2.5,0.8-5.2,1.2-7.8,1.3
				c-2.3,0.1-4.6-0.1-6.9-0.6c-1.9-0.3-3.7-0.9-5.4-1.8c-1.3-0.6-2.4-1.6-3.2-2.8c-0.5-0.8-0.8-1.7-0.7-2.6c0-0.2,0-0.5,0.1-0.7
				C58.1,90.5,58.1,90.4,58.1,90.4z"/>
			<path class="st16" d="M70.4,89.4c0.6-1.5,1.7-2.7,3-3.7c1.3-0.9,2.8-1.5,4.4-1.6c1.6-0.1,3.2,0.2,4.6,0.9
				c1.4,0.7,2.6,1.8,3.5,3.1c0.2,0.3,0.3,0.7,0.2,1.1c-0.1,0.4-0.3,0.7-0.6,0.9c-4,2.8-9.5,3.7-14,1.9c-0.5-0.1-1-0.5-1.3-1
				C70,90.5,70.2,89.9,70.4,89.4z"/>
			<g class="st13">
				<path class="st2" d="M73.3,90.2c0.3,0,0.7,0,1,0.1c2.2,0.4,4.5,0,6.5-1.1c0.5-0.3,1-0.7,0.9-1.3c-0.1-0.3-0.2-0.5-0.3-0.7
					c-0.2-0.2-0.2-0.5-0.2-0.8c0.1-0.3,0.4-0.5,0.6-0.3c0.8,0.4,1.5,0.9,2.1,1.5c0.3,0.2,0.4,0.5,0.5,0.9c0.1,0.3,0.1,0.7,0,1
					c-0.2,0.4-0.6,0.8-1,1c-1.9,1.1-4.2,1.4-6.4,1.6c-1.3,0.1-2.7,0.2-3.8-0.4c-0.1-0.1-0.3-0.2-0.4-0.3c-0.1-0.1-0.2-0.3-0.2-0.4
					c0-0.2,0.1-0.3,0.2-0.5C73,90.3,73.1,90.2,73.3,90.2z"/>
			</g>
			<g class="st17">
				<path class="st2" d="M78.6,84.6c0.1,0,0.2,0,0.3,0c0.1,0,0.3,0,0.4,0c0.1,0,0.3,0,0.5,0.1c0.2,0,0.4,0.1,0.6,0.1
					c0.2,0.1,0.4,0.1,0.7,0.2c1,0.4,2,0.9,2.8,1.6c0.2,0.2,0.4,0.3,0.5,0.5c0.2,0.2,0.3,0.3,0.4,0.4c0.1,0.1,0.2,0.3,0.3,0.4
					c0.1,0.1,0.2,0.2,0.2,0.3c0.1,0.1,0.1,0.2,0.2,0.3c0-0.1-0.1-0.2-0.2-0.3c-0.1-0.1-0.1-0.2-0.2-0.3c-0.1-0.1-0.2-0.3-0.3-0.4
					c-0.1-0.2-0.3-0.3-0.4-0.5c-0.2-0.2-0.3-0.3-0.5-0.5c-0.4-0.4-0.9-0.7-1.3-0.9c-0.5-0.3-1-0.5-1.5-0.7c-0.2-0.1-0.5-0.1-0.7-0.2
					c-0.2-0.1-0.4-0.1-0.6-0.1c-0.2,0-0.3-0.1-0.5-0.1c-0.1,0-0.3,0-0.4,0C78.8,84.6,78.7,84.6,78.6,84.6z"/>
			</g>
			<g class="st17">
				<path class="st2" d="M76.6,84.8c0.2,0,0.3,0,0.5-0.1c0.2,0,0.3,0,0.5-0.1c-0.2-0.1-0.3-0.1-0.5,0C77,84.7,76.8,84.7,76.6,84.8z"
					/>
			</g>
			<path class="st12" d="M70.7,101c-0.5-0.2-1-0.6-1.3-1c-0.4-0.4-0.6-0.9-0.7-1.5c-0.2-0.8-0.1-1.6,0.2-2.4
				c0.5-0.7,1.2-1.3,2.1-1.4c0.9-0.2,1.7-0.2,2.6-0.1c0,0,8.8,1.8,13,1.3c4.2-0.5,7-2.1,8.1-2.6c1.1-0.5,3.8-1.3,4.8,0.2
				c1.4,2,0.4,4-1.1,5.4c-1.3,1.2-7.4,4.9-16.7,4.5C74,103.1,70.7,101,70.7,101z"/>
			<g class="st13">
				<path d="M76.3,95.1c0.2,0.1-0.2,1.1-0.2,2.3c0,1.3,0.3,2.3,0.1,2.4c-0.1,0-0.3-0.2-0.5-0.6c-0.2-0.6-0.3-1.2-0.3-1.8
					c0-0.6,0.1-1.2,0.4-1.7C76,95.3,76.2,95.1,76.3,95.1z"/>
			</g>
			<g class="st13">
				<path d="M80.4,100.6c-0.1,0-0.3-0.2-0.5-0.6c-0.2-0.6-0.4-1.2-0.4-1.8c0-0.6,0.1-1.2,0.3-1.8c0.2-0.4,0.3-0.7,0.4-0.7
					c0.2,0.1-0.1,1.1,0,2.5C80.3,99.5,80.6,100.5,80.4,100.6z"/>
			</g>
			<g class="st13">
				<path d="M84.9,100.7c-0.1,0-0.3-0.2-0.4-0.6c-0.2-0.5-0.3-1.1-0.3-1.7c0-0.6,0-1.1,0.2-1.7c0.1-0.4,0.3-0.7,0.3-0.6
					c0.2,0,0.1,1.1,0.2,2.3S85.1,100.6,84.9,100.7z"/>
			</g>
			<g class="st13">
				<path d="M89.1,99.8c-0.2,0-0.5-0.9-0.8-2c-0.2-1.1-0.3-2.1-0.1-2.1c0.2,0,0.5,0.9,0.8,2C89.2,98.9,89.3,99.8,89.1,99.8z"/>
			</g>
			<g class="st13">
				<path d="M93.8,98.3c-0.2,0-0.5-0.8-0.9-1.9c-0.4-1.1-0.6-2-0.4-2.1c0.2-0.1,0.7,0.7,1.1,1.8C94,97.4,94,98.3,93.8,98.3z"/>
			</g>
			<g class="st13">
				<path d="M98.3,98.9c0.9-0.7,1.5-1.7,1.8-2.8c-3,4.2-10,6.2-15.8,6.6c-5.7,0.3-13.8-0.8-15.8-5.2c0,0.4,0,0.7,0.1,1.1
					c0.1,0.5,0.4,1.1,0.7,1.5c0.4,0.4,0.8,0.8,1.3,1c0,0,3.3,2.1,10.9,2.4C90.9,103.8,97,100.1,98.3,98.9z"/>
			</g>
			<path class="st2" d="M74.7,95.6c0,0-0.3-0.1-0.7-0.2c-1.1-0.3-2.3-0.2-3.4,0.2c-0.4,0.2-0.7,0.3-0.7,0.3c0,0,0-0.1,0.2-0.1
				c0.1-0.1,0.3-0.2,0.5-0.3c1.1-0.5,2.3-0.6,3.5-0.2c0.2,0.1,0.3,0.1,0.5,0.2C74.6,95.6,74.7,95.6,74.7,95.6z"/>
			<path class="st2" d="M78.8,96c-0.6,0-1.2-0.1-1.8-0.2c0.3,0,0.6,0,0.9,0.1C78.2,95.9,78.5,95.9,78.8,96z"/>
			<path class="st2" d="M83.4,96.5c-0.4,0.1-0.7,0.1-1.1,0c-0.4,0-0.7-0.1-1.1-0.2c0.4,0,0.7,0,1.1,0C82.7,96.4,83.1,96.5,83.4,96.5
				z"/>
			<path class="st2" d="M87,96.3c-0.2,0.1-0.4,0.2-0.6,0.2c-0.2,0-0.4,0-0.6,0c0.2-0.1,0.4-0.1,0.6-0.1C86.6,96.3,86.8,96.3,87,96.3
				z"/>
			<path class="st2" d="M89.8,95.7c0,0-0.1,0.1-0.2,0.1c-0.1,0-0.2,0-0.2,0c0,0,0.1-0.1,0.2-0.1C89.7,95.7,89.8,95.7,89.8,95.7z"/>
			<path class="st11" d="M159.6,80.9c-0.3-1.4-1-2.7-2.2-3.6c-1.1-0.9-2.5-1.4-3.9-1.3c1.4-2.9-0.4-6.7-3.4-7.9
				c-3-1.2-6.6,0-8.8,2.3c-0.8-1.1-2-1.9-3.3-2.3c-1.3-0.4-2.7-0.3-4,0.3c-1.3,0.5-2.3,1.5-3,2.7c-0.7,1.2-0.9,2.6-0.8,4
				c-2.7-0.6-5.4,1.9-5.6,4.6s1.6,5.4,4,6.7c-1.2,1.1-0.9,3.3,0.4,4.5s3,1.5,4.6,1.6l10.6,2c2.6,1.1,5.7,1.5,8.3,0.2
				c2.6-1.3,4.1-4.6,2.8-7.2c1.4-0.4,2.5-1.3,3.3-2.5C159.4,83.7,159.7,82.3,159.6,80.9z"/>
			<path class="st16" d="M151,87.2c-1.3-1.9-4.2-1.8-6.1-0.7c0-0.8-0.2-1.6-0.6-2.2s-1-1.2-1.7-1.6c-0.7-0.3-1.5-0.5-2.3-0.4
				c-0.8,0.1-1.5,0.4-2.1,0.9c-0.5,0.4-0.9,0.9-1.5,0.9c-0.6,0.1-1.1-0.5-1.6-0.9c-0.4-0.4-1-0.6-1.5-0.8c-0.6-0.1-1.1-0.2-1.7-0.1
				c-0.6,0.1-1.1,0.3-1.6,0.6c-0.5,0.3-0.9,0.7-1.2,1.2c-0.3,0.5-0.5,1-0.6,1.6c-0.1,0.6-0.1,1.1,0,1.7c0.1,0.6,0.4,1.1,0.7,1.5
				c0.3,0.5,0.8,0.8,1.3,1.1l0.2-1.1c3.8,3,8.5,4.7,13.4,4.9c2,0.1,4.2-0.1,5.8-1.4C151.3,91.3,152.1,88.9,151,87.2z"/>
			<path class="st11" d="M158,104.4c0.7-1.4,1-3,0.7-4.5c-0.2-1.5-0.9-3-2-4.1c-0.9-0.8-1.9-1.5-3.1-1.8c-0.4-1.9-1.2-3.7-2.6-5
				c-2.1-1.9-5.7-2.2-7.5-0.1c-1.9-3.2-6.6-4.1-9.5-1.9c-3-2.8-8.6-2.1-10.7,1.5c-0.9-0.5-1.8-0.7-2.8-0.6c-1,0.1-1.9,0.5-2.7,1.1
				c-0.8,0.6-1.3,1.4-1.6,2.4c-0.3,0.9-0.3,1.9-0.1,2.9c-1-0.1-1.9,0.1-2.8,0.6c-0.9,0.4-1.6,1.1-2.1,1.9c-0.5,0.8-0.8,1.7-0.9,2.7
				c-0.1,1,0.1,1.9,0.6,2.8c-0.8,0.1-1.5,0.5-2.1,1.1c-0.6,0.6-1,1.3-1.2,2.1c-0.2,0.8-0.1,1.6,0.2,2.4c0.3,0.8,0.8,1.4,1.5,1.9
				c-1.8,2.6-0.8,6.7,2.1,8.1c-0.1,1.2,0.2,2.3,0.9,3.3c0.7,1,1.7,1.6,2.9,1.9l34.7,10.1c6.1-2.2,6.3-6.1,6.1-9.5
				c1.3-0.6,2.7-3.1,3.2-4.4c0.7-2.1-0.3-4.2-1.2-5.5c0.7-0.5,1.3-1.2,1.7-2c0.4-0.8,0.6-1.7,0.6-2.6c0-0.9-0.2-1.8-0.6-2.6
				C159.2,105.6,158.7,104.9,158,104.4L158,104.4z"/>
			<path class="st14" d="M144.2,98.2l-20.9-2.4c-6.6,0.2-9.8,8.8-9.3,15.3c0.5,7.3,1.4,16.2,3,21.5c3.2,10.6,12.2,10.8,12.2,10.8
				l0.7,8.7c0.3,2.2,1.3,4.1,2.9,5.6c3.6,3.2,9,2.7,14.8-0.7c3.4-2,3-4,2.9-9.1l-2.1-47.7C147.9,99.6,146.2,98.2,144.2,98.2z"/>
			<path class="st11" d="M120.1,119.3c0,0.4,0.2,0.7,0.5,0.9c0.3,0.2,0.6,0.3,1,0.3c0.2,0,0.4-0.1,0.5-0.1c0.2-0.1,0.3-0.2,0.4-0.3
				c0.1-0.1,0.2-0.3,0.3-0.5c0.1-0.2,0.1-0.3,0.1-0.5c0-0.4-0.2-0.7-0.5-0.9c-0.3-0.2-0.6-0.3-1-0.3c-0.2,0-0.4,0.1-0.5,0.1
				c-0.2,0.1-0.3,0.2-0.4,0.3c-0.1,0.1-0.2,0.3-0.3,0.5C120.1,118.9,120.1,119.1,120.1,119.3z"/>
			<path class="st11" d="M117.5,114.8c0.2,0.2,1.1-0.8,2.7-1c1.5-0.2,2.7,0.4,2.8,0.2c0.1-0.1-0.1-0.4-0.7-0.7
				c-0.7-0.4-1.5-0.5-2.3-0.4c-0.8,0.1-1.5,0.5-2.1,1C117.5,114.4,117.4,114.7,117.5,114.8z"/>
			<path class="st11" d="M133.4,117.9c0,0.4,0.2,0.7,0.5,0.9c0.3,0.2,0.6,0.3,1,0.3c0.2,0,0.4-0.1,0.5-0.1c0.2-0.1,0.3-0.2,0.4-0.3
				c0.1-0.1,0.2-0.3,0.3-0.5c0.1-0.2,0.1-0.3,0.1-0.5c0-0.4-0.2-0.7-0.5-0.9c-0.3-0.2-0.6-0.3-1-0.3c-0.2,0-0.4,0.1-0.5,0.1
				c-0.2,0.1-0.3,0.2-0.4,0.3c-0.1,0.1-0.2,0.3-0.3,0.5C133.4,117.5,133.4,117.7,133.4,117.9z"/>
			<path class="st11" d="M131.5,112.6c0.2,0.2,1.1-0.8,2.7-1c1.5-0.2,2.7,0.4,2.8,0.2c0.1-0.1-0.1-0.4-0.7-0.7
				c-0.7-0.4-1.5-0.5-2.3-0.4c-0.8,0.1-1.5,0.5-2.1,1C131.5,112.1,131.4,112.5,131.5,112.6z"/>
			<path class="st11" d="M128.1,125.5c0-0.1-1-0.1-2.5-0.1c-0.4,0-0.8,0-0.9-0.3c-0.1-0.4-0.1-0.8,0.1-1.2c0.2-1,0.5-2,0.7-3.1
				c1-4.4,1.7-7.9,1.5-8c-0.2,0-1.1,3.5-2.1,7.8c-0.2,1.1-0.5,2.1-0.7,3.1c-0.1,0.5-0.3,1,0,1.5c0.1,0.1,0.2,0.2,0.3,0.3
				c0.1,0.1,0.3,0.1,0.4,0.2c0.2,0,0.4,0,0.7,0C127.2,125.7,128.1,125.6,128.1,125.5z"/>
			<path class="st15" d="M129.3,143.4c5-0.3,9.8-2.1,13.7-5.3c0,0-2.6,8.1-13.5,8.5L129.3,143.4z"/>
			<path class="st11" d="M130.1,105.7c0.2,0.4,1.7,0.1,3.4,0.2c1.8,0.1,3.2,0.4,3.4,0.1c0.1-0.2-0.2-0.5-0.8-0.9
				c-0.8-0.4-1.7-0.7-2.6-0.7c-0.9,0-1.8,0.1-2.6,0.5C130.3,105.2,130,105.5,130.1,105.7z"/>
			<path class="st11" d="M117.1,108.2c0.4,0.3,1.4-0.2,2.8-0.5c1.4-0.2,2.6-0.2,2.8-0.6c0.1-0.2-0.2-0.5-0.7-0.7
				c-0.8-0.3-1.6-0.3-2.4-0.2c-0.8,0.1-1.5,0.5-2.1,1C117,107.7,116.9,108.1,117.1,108.2z"/>
			<path class="st11" d="M123,94.7l0,0.2l0,0C123.1,94.8,123,94.7,123,94.7z"/>
			<path class="st14" d="M147.3,117.5c-0.1-0.3,0-0.7,0.2-1c0.2-0.3,0.5-0.5,0.8-0.6c1.7-0.6,4.8-0.9,5.6,3.5
				c1.1,6.1-5.2,5.9-5.3,5.7C148.5,125,147.7,119.8,147.3,117.5z"/>
			<path class="st15" d="M150,122.5c0,0,0.1,0.1,0.3,0.1c0.3,0.1,0.5,0,0.8-0.1c0.6-0.3,1-1.5,0.8-2.6c-0.1-0.5-0.3-1-0.5-1.5
				c-0.1-0.2-0.2-0.3-0.4-0.5c-0.2-0.1-0.4-0.2-0.6-0.2c-0.1,0-0.3,0-0.4,0.1c-0.1,0.1-0.2,0.2-0.2,0.3c-0.1,0.2,0,0.3,0,0.3
				c0,0-0.1-0.1-0.1-0.3c0-0.2,0.1-0.3,0.2-0.4c0.1-0.2,0.3-0.2,0.6-0.3c0.3,0,0.5,0.1,0.7,0.2c0.2,0.1,0.4,0.3,0.5,0.5
				c0.4,0.5,0.6,1,0.7,1.6c0.2,1.2-0.2,2.5-1.1,2.9c-0.2,0.1-0.3,0.1-0.5,0.1c-0.2,0-0.3,0-0.5-0.1C150,122.7,150,122.5,150,122.5z"
				/>
			<path class="st11" d="M150.9,95.9l-5.7-3.3l-10.1,2.9c-2.1-1.3-4.5-2-7-1.9c-3.4,0.1-6.6,1.2-9.7,2.6c-1.8,0.8-3.6,1.8-4.9,3.3
				c-1.3,1.7-1.9,3.8-2.4,5.9c-0.4,1.5-0.7,3-0.8,4.6c-0.1,1.6,0.2,3.1,0.9,4.5l0.4,0l0.6,0.3c0.6,0,1.1-0.2,1.6-0.5
				c0.5-0.3,0.9-0.7,1.2-1.2c0.3-0.5,0.5-1,0.6-1.6c0.1-0.6,0-1.1-0.1-1.7c0.6-0.1,1.2-0.2,1.7-0.6c0.5-0.3,1-0.8,1.3-1.3
				c0.3-0.5,0.5-1.1,0.6-1.7c0.1-0.6,0-1.2-0.3-1.8c0.7,0.3,1.4,0.4,2.2,0.3c0.7-0.1,1.5-0.3,2.1-0.7c0.6-0.4,1.2-0.9,1.6-1.5
				c0.4-0.6,0.7-1.3,0.7-2.1c0,0.2,0.1,0.5,0.3,0.7c0.2,0.2,0.4,0.3,0.6,0.4c0.5,0.2,1,0.2,1.5,0.1c0.8-0.2,1.6-0.5,2.2-1.1
				c0.6-0.5,1.1-1.2,1.3-2c0.6,0.8,1.5,1.3,2.4,1.5c1,0.2,1.9,0.1,2.8-0.4c0.1,0,0.2-0.1,0.2-0.2c0.4,1,1.1,1.8,2,2.4
				c0.9,0.6,1.9,1,2.9,1c-0.6,0.3-1.1,0.9-1.4,1.6c-0.2,0.7-0.2,1.4,0,2.1c0.3,0.7,0.8,1.2,1.4,1.5c0.6,0.3,1.4,0.4,2.1,0.2
				c-0.3,0.9-0.5,1.9-0.4,2.9c0.1,1,0.8,1.9,1.7,2.1c-0.4,0.6-1,3.3-0.6,4.2c0.3,0.7,1.2,3,2.6,2.9c0.9-0.1,1.5-4.3,2.4-4.6
				c0.7-0.2,1.3-0.2,2-0.1c0.7,0.1,1.3,0.4,1.8,0.8l-0.1-11.5L150.9,95.9z"/>
			<path class="st18" d="M153.5,96.6c-0.4,0-0.7,0-1.1,0c-0.5-0.1-0.9-0.2-1.3-0.5c-0.4-0.3-0.7-0.6-0.9-1.1l-0.3-0.7l0,0.7
				c0,0.9-0.4,1.7-1.1,2.4c-0.4,0.4-0.8,0.6-1.3,0.8s-1,0.2-1.5,0.1c-0.7-0.1-1.3-0.4-1.8-0.8l-0.2-0.2l-0.1,0.3
				c-0.5,0.9-1.2,1.7-2.1,2.1c-0.7,0.4-1.6,0.5-2.4,0.5c-1.4-0.1-2.1-0.7-2.2-0.6c0,0.1,0.2,0.2,0.5,0.3c0.5,0.3,1.1,0.4,1.6,0.5
				c0.9,0.1,1.8,0,2.6-0.4c1-0.5,1.9-1.3,2.4-2.3l-0.4,0.1c0.6,0.5,1.3,0.9,2,1c0.6,0.1,1.2,0.1,1.7-0.1c0.6-0.2,1.1-0.5,1.5-0.9
				c0.7-0.7,1.1-1.7,1.1-2.7l-0.3,0.1c0.3,0.5,0.6,0.9,1.1,1.1c0.4,0.3,1,0.5,1.5,0.5C152.8,96.8,153.1,96.7,153.5,96.6z"/>
			<path class="st18" d="M136.2,86.3c0,0.1,1,0.2,2.4,1c0.8,0.4,1.5,1.1,1.9,1.9c0.3,0.5,0.4,1,0.4,1.6c0,0.5-0.2,1.1-0.5,1.5
				c-0.2,0.3-0.5,0.5-0.8,0.7l-0.3,0.1l0.2,0.2c0.3,0.4,0.4,0.8,0.5,1.3c0.1,0.5,0,1-0.2,1.4c-0.3,0.7-0.7,1.4-1.3,2
				c-1,0.9-1.7,1.4-1.6,1.5c0.2-0.1,0.4-0.2,0.5-0.3c0.5-0.3,0.9-0.6,1.3-1c0.7-0.5,1.2-1.3,1.5-2c0.2-0.5,0.3-1.1,0.2-1.6
				c-0.1-0.5-0.3-1.1-0.6-1.5l-0.1,0.4c0.4-0.2,0.7-0.5,1-0.9c0.4-0.5,0.6-1.1,0.6-1.8c0-0.6-0.1-1.3-0.4-1.8
				c-0.5-0.9-1.2-1.6-2.1-2c-0.6-0.3-1.2-0.5-1.8-0.6C136.7,86.3,136.5,86.2,136.2,86.3z"/>
			<path class="st11" d="M107,126.3c0,0,0.1,0,0.2,0.1c0.2,0.1,0.5,0.1,0.7,0.1c0.9,0,1.7-0.4,2.4-1c0.4-0.4,0.6-0.8,0.8-1.3
				c0.2-0.5,0.2-1,0.1-1.6c-0.1-0.5-0.3-1-0.5-1.5c-0.3-0.4-0.7-0.8-1.1-1.1c-0.4-0.2-0.8-0.3-1.2-0.3c-0.2,0-0.5,0.1-0.7,0.2
				c-0.2,0.1-0.4,0.3-0.5,0.5c-0.1,0.2-0.2,0.5-0.2,0.7c0,0.2,0.1,0.5,0.2,0.7c0.2,0.4,0.6,0.7,1,0.8c0.7,0.3,1.6,0.3,2.3,0.1
				c0.7-0.2,1.3-0.6,1.7-1.2c0.4-0.5,0.7-1,0.8-1.6c0.2-0.8,0.2-1.7,0-2.6c-0.1-0.3-0.2-0.6-0.4-0.9c0,0.3,0.1,0.6,0.2,0.9
				c0.2,0.8,0.1,1.6-0.1,2.4c-0.2,0.5-0.4,1-0.8,1.4c-0.4,0.5-1,0.8-1.6,1c-0.6,0.2-1.3,0.2-2-0.1c-0.6-0.3-1.2-1-0.8-1.6
				c0.1-0.1,0.2-0.2,0.4-0.3c0.1-0.1,0.3-0.1,0.5-0.1c0.3,0,0.7,0.1,1,0.2c0.6,0.3,1.1,0.9,1.3,1.5c0.2,0.5,0.3,1.1,0.2,1.7
				c-0.1,0.6-0.4,1.1-0.8,1.5c-0.6,0.6-1.3,0.9-2.1,1C107.3,126.3,107,126.2,107,126.3z"/>
			<path class="st11" d="M154.2,113.5c0.2,0.2,0.5,0.3,0.8,0.3c0.8,0.2,1.6,0.3,2.5,0.2c1.2-0.1,2.4-0.5,3.5-1
				c0.3-0.2,0.6-0.4,0.9-0.7c0.2-0.3,0.4-0.7,0.5-1c0.1-0.4,0.1-0.9-0.1-1.3c-0.1-0.2-0.3-0.4-0.4-0.5c-0.2-0.1-0.4-0.2-0.6-0.3
				c-0.3-0.1-0.6,0-0.8,0.1l0.2,0.4c0.6-0.4,1.1-1,1.4-1.7c0.3-0.7,0.4-1.4,0.2-2.2c-0.1-0.6-0.4-1.2-0.9-1.7
				c-0.4-0.4-0.9-0.7-1.4-0.9c-0.7-0.3-1.6-0.3-2.3,0c-0.3,0.1-0.5,0.2-0.7,0.4c0,0,0.3-0.1,0.8-0.3c0.7-0.2,1.5-0.1,2.1,0.1
				c0.5,0.2,1,0.5,1.3,0.9c0.3,0.4,0.6,0.9,0.7,1.4c0.1,0.6,0,1.3-0.2,1.9c-0.3,0.6-0.7,1.1-1.2,1.5l0.2,0.4c0.2-0.1,0.3-0.1,0.5,0
				c0.2,0,0.3,0.1,0.4,0.2c0.1,0.1,0.2,0.2,0.3,0.4c0.1,0.3,0.2,0.6,0.1,0.9c-0.1,0.3-0.2,0.6-0.4,0.9c-0.2,0.3-0.5,0.5-0.7,0.6
				c-1,0.6-2.2,0.9-3.3,1.1C155.4,114,154.2,113.5,154.2,113.5z"/>
			<path class="st15" d="M133.6,131c-0.4,0.5-1,0.9-1.6,1c-0.6,0.2-1.3,0.3-1.9,0.1c0.6,0,1.2-0.1,1.9-0.3
				C132.5,131.6,133.1,131.3,133.6,131z"/>
			<path class="st15" d="M134,129c-0.5-0.9-1.9-1.4-3-1.1c-1.1,0.3-1.9,1.5-1.7,2.5c0,0,1.6,0.6,2.9,0
				C132.9,130.1,133.5,129.6,134,129z"/>
			<path class="st11" d="M134.6,127.6c-0.3-0.1-0.8,1.8-2.8,2.4c-1.9,0.6-3.7-0.5-3.8-0.2c-0.1,0.1,0.3,0.4,1,0.7
				c1,0.3,2.1,0.3,3.1,0c1-0.3,1.8-0.9,2.3-1.8C134.8,128,134.7,127.6,134.6,127.6z"/>
			<path class="st14" d="M118.3,152.1l13.4-4.1l14.3-2.1l13.5,3l-10.4,13.3l-11.6,5.2l-13.8-0.4L118.3,152.1z"/>
			<path class="st16" d="M118.7,151.2l-15.8,5.3l9.9,46.7l1.5,4.5l-3.3,26.6l62.6-6.6l-6.4-23.3l2.6-53.6l-13.7-3
				c0,0-7.4,12-20,13.2C123.6,162.1,118.7,151.2,118.7,151.2z"/>
			<path class="st16" d="M163.2,175.3l6.6-24.5c0,0,7,5.1,8.8,12.7c1.6,6.9,6.6,37.4,6.6,37.4s2.1,5.4,2.2,8.3
				c0.1,2.8-0.1,9.8-0.1,9.8l2.4,6.8l-17.2,2L163.2,175.3z"/>
			<g class="st13">
				<path d="M112.4,223.7c0,0,12-4.4,14.1-6.4c2.1-1.9-0.9-8.9-0.9-8.9l11.8-21.8l-1.3-5l-22.9,25L112.4,223.7z"/>
			</g>
			<path class="st11" d="M170.5,164.7l-0.1,0.2l-0.3,0.6l-1.1,2.3c-0.2,5.2-0.7,16-1.4,28.6c-0.1,2.8-0.3,5.4-0.4,7.9l0,0
				c1.8,6.7,3.4,12.5,4.6,16.7c0.6,2.1,1,3.7,1.3,4.9c0.1,0.6,0.3,1,0.3,1.3l0.1,0.3c0,0,0,0.1,0,0.1c0,0,0-0.1,0-0.1
				c0-0.1-0.1-0.2-0.1-0.3c-0.1-0.3-0.2-0.7-0.4-1.3c-0.3-1.2-0.8-2.8-1.4-4.9c-1.2-4.2-2.8-10-4.6-16.7l0,0
				c0.1-2.5,0.2-5.2,0.4-7.9c0.6-12.6,1.2-23.5,1.5-28.6l0,0l1.2-2.3l0.3-0.6C170.5,164.8,170.5,164.7,170.5,164.7z"/>
			<path class="st11" d="M153.2,185.2c-0.1,0.1-0.1,0.2-0.2,0.2l-0.6,0.6c-0.5,0.5-1.2,1.3-2.2,2.2c-1.8,1.9-4.4,4.4-7.4,7.1
				c-3,2.7-5.8,5-7.8,6.6c-1,0.8-1.9,1.5-2.5,1.9l-0.7,0.5c-0.1,0.1-0.2,0.1-0.2,0.2c0.1-0.1,0.1-0.1,0.2-0.2l0.7-0.5l2.4-2
				c2-1.7,4.8-4,7.8-6.7c3-2.7,5.6-5.2,7.5-7l2.2-2.2l0.6-0.6C153,185.3,153.1,185.3,153.2,185.2z"/>
			<path class="st11" d="M142.6,205.8c0,0.1-2.1,0.9-4.6,2c-2.6,1-4.7,1.8-4.7,1.8c0,0,2.1-0.9,4.6-2
				C140.5,206.5,142.6,205.8,142.6,205.8z"/>
			<g class="st13">
				<path d="M169,167.8c0,0,1.9,18.2-1.6,33L169,167.8z"/>
			</g>
			<path class="st14" d="M111.3,198.8l17.7-18.2l6.1,6.4l-15.8,23.9L111.3,198.8z"/>
			<path class="st8" d="M135.6,140.3c-0.1-1-1.9-10.3-1.9-10.3l-0.3,0l0.7,7c0,0.1,0,0.1,0,0.2c0,0.1,0,0.1-0.1,0.2
				c0,0-0.1,0.1-0.1,0.1c-0.1,0-0.1,0-0.2,0.1c-0.1,0-0.1,0-0.2,0c-0.1,0-0.1-0.1-0.2-0.1c0,0-0.1-0.1-0.1-0.1c0-0.1,0-0.1,0-0.2
				l-0.7-7l-0.7,0.1l0.7,7c0,0.1,0,0.2-0.1,0.3c-0.1,0.1-0.2,0.1-0.3,0.2s-0.2,0-0.3-0.1c-0.1-0.1-0.1-0.2-0.2-0.3l-0.7-7l-0.7,0.1
				l0.7,7c0,0.1,0,0.1,0,0.2c0,0.1,0,0.1-0.1,0.2c0,0-0.1,0.1-0.1,0.1c-0.1,0-0.1,0-0.2,0.1c-0.1,0-0.1,0-0.2,0
				c-0.1,0-0.1-0.1-0.2-0.1c0,0-0.1-0.1-0.1-0.1s0-0.1,0-0.2l-0.7-7l-0.4,0c-0.1,0.1,0.1,9.7,0.6,10.9c0.5,1.2,2.4,3.3,2.6,4.4
				s0.2,4.9,0.2,6.9c0,2,1.8,15.9,1.8,15.9l2.6-0.3l-2-16.2c0,0-1.1-5.3-1-6.5C134,144.4,135.7,141.3,135.6,140.3z"/>
			<path class="st14" d="M139.4,161.9c0,0,1-1,0-3.1c-0.5-1.1-6.3-2.2-6.8-1.8c-0.6,0.5-5.4,7.1-5.8,8c-0.4,0.9,0,3.3,0,4.2
				c0,0.9,2.8,10.6,2.8,10.6l-0.5,0.6l6.1,6.4c0,0,3.8-3.4,3.8-4.7c0.1-1.3-0.9-4.9-0.9-4.9c0.4,0,0.7-0.1,1.1-0.2
				c0.6-0.6,1.5-5.4,1.6-6.7C141,169.2,139.4,161.9,139.4,161.9z M137.3,161.8l-3.3,0.4l0.6-1.4l2.7,0.6L137.3,161.8z"/>
			<path class="st15" d="M129.9,168.9c0.1,0,0.1-0.1,0.2-0.1c0.1-0.1,0.3-0.1,0.6-0.2c0.7-0.2,1.4-0.4,2.2-0.5
				c0.9-0.1,2-0.3,3.3-0.5c0.6-0.1,1.3-0.2,1.9-0.2c0.2,0,0.4,0,0.5,0.1c0.2,0.1,0.3,0.2,0.4,0.4c0.2,0.3,0.3,0.6,0.5,1
				c0.2,0.7,0.3,1.4,0.4,2.1c0,0.3,0,0.7,0,1c-0.1,0.3-0.2,0.6-0.4,0.9c-0.2,0.3-0.4,0.5-0.6,0.7c-0.2,0.2-0.4,0.4-0.7,0.5
				c-0.2,0.1-0.5,0.2-0.8,0.2c-0.3,0-0.5,0-0.8-0.1c-0.4-0.2-0.7-0.5-0.9-0.9c0-0.1,0-0.2,0-0.3c0-0.1,0.1-0.2,0.1-0.3
				c0.1-0.1,0.2-0.2,0.3-0.4c0.1-0.2,0.3-0.3,0.4-0.4c0.1-0.1,0.2-0.1,0.2-0.1c0,0-0.2,0.2-0.6,0.6c-0.1,0.1-0.2,0.2-0.3,0.4
				c0,0.1-0.1,0.1-0.1,0.2c0,0.1,0,0.2,0,0.2c0.2,0.4,0.5,0.7,0.9,0.8c0.2,0.1,0.5,0.1,0.7,0.1c0.2,0,0.5-0.1,0.7-0.2
				c0.2-0.1,0.5-0.3,0.6-0.5c0.2-0.2,0.4-0.4,0.5-0.7c0.2-0.3,0.3-0.5,0.3-0.9c0-0.3,0-0.6,0-1c-0.1-0.7-0.2-1.4-0.4-2
				c-0.1-0.3-0.2-0.6-0.4-0.9c-0.1-0.1-0.2-0.2-0.3-0.3c-0.1,0-0.3-0.1-0.5-0.1c-0.6,0-1.3,0.1-1.9,0.2c-1.2,0.2-2.3,0.4-3.3,0.4
				c-0.7,0.1-1.5,0.3-2.2,0.5l-0.6,0.2C130,168.9,129.9,168.9,129.9,168.9z"/>
			<path class="st15" d="M139.7,170.9c0-0.2-0.1-0.4-0.1-0.6c0-0.4-0.1-1-0.1-1.7c0-0.4,0-0.7,0-1.2c0-0.4,0-0.9-0.2-1.3
				c-0.2-0.4-0.4-0.8-0.8-1.2c-0.2-0.1-0.5-0.2-0.7-0.2c-0.3,0-0.5,0-0.8,0c-1,0.1-2,0.2-3,0.4c-0.4,0.1-0.9,0.2-1.3,0.3
				c-0.4,0.1-0.8,0.2-1.2,0.3c-0.7,0.1-1.3,0.2-1.7,0.3c-0.2,0-0.4,0.1-0.6,0.1c0.2-0.1,0.4-0.1,0.6-0.1c0.4-0.1,1-0.2,1.6-0.3
				c0.3-0.1,0.7-0.2,1.1-0.3c0.4-0.1,0.9-0.3,1.3-0.3c1-0.2,2-0.3,3-0.4c0.3,0,0.5,0,0.8,0c0.3,0,0.6,0.1,0.8,0.2
				c0.4,0.3,0.7,0.8,0.9,1.2c0.2,0.4,0.2,0.9,0.2,1.3c0,0.4,0,0.8,0,1.2c0,0.7,0,1.2,0,1.7C139.7,170.5,139.7,170.7,139.7,170.9z"/>
			<path class="st15" d="M139.5,162c0,0-0.1-0.2-0.3-0.3c-0.4-0.1-0.8-0.1-1.2,0c-1,0.1-2.4,0.3-4,0.5c-1.3,0.2-2.6,0.4-3.9,0.8
				c-0.4,0.1-0.8,0.3-1.1,0.5c-0.1,0.1-0.3,0.2-0.4,0.2c0,0,0.1-0.2,0.3-0.3c0.4-0.2,0.7-0.4,1.1-0.5c1.3-0.4,2.6-0.7,4-0.9
				c1.6-0.2,3-0.4,4-0.5c0.4-0.1,0.8,0,1.2,0.1C139.3,161.8,139.4,161.8,139.5,162C139.4,162,139.5,162,139.5,162z"/>
			<path class="st15" d="M138.3,178c0,0-0.1-0.4-0.3-0.9c-0.3-0.7-0.6-1.4-1.1-2.1c-1-1.5-2.1-2.6-2.1-2.6c0.3,0.2,0.5,0.4,0.7,0.7
				c0.6,0.6,1.1,1.2,1.5,1.9c0.4,0.7,0.8,1.4,1,2.2C138.2,177.3,138.3,177.6,138.3,178z"/>
			<path class="st16" d="M115.2,194l-4.5,4.1c-0.2-0.9-0.7-0.6-0.7-0.6l0.5-4.3c0,0-1.7-39.1-7.7-36.7c-6,2.5-8.4,25.5-9.1,26.7
				c-0.4,0.9-0.7,1.8-0.7,2.8c-0.1,1,0.1,2,0.4,2.9c0.8,2,0.9,2.6-2.3,5.2c-3.2,2.6-0.3,4.9-0.3,4.9l-0.2,10.7
				c-1,11.5,6.3,13.9,11.3,14.1s22.4-8.7,22.4-8.7L115.2,194z"/>
			<path class="st11" d="M105.7,169.7C105.7,169.7,105.7,169.8,105.7,169.7l0.3,0.4l0.9,1.1c0.3,2.3,0.9,6.9,1.8,12.2
				c0.7,3.9,1.4,7.3,2,9.8c0.3,1.2,0.5,2.2,0.7,3c0.1,0.3,0.1,0.6,0.2,0.8c0,0.1,0,0.2,0,0.3c0-0.1-0.1-0.2-0.1-0.3l-0.2-0.8
				c-0.2-0.7-0.5-1.7-0.8-2.9c-0.6-2.5-1.4-6-2-9.8c-0.9-5.3-1.4-9.9-1.7-12.2l0,0l-0.8-1.1L105.7,169.7
				C105.7,169.7,105.7,169.7,105.7,169.7z"/>
			<path class="st11" d="M115.4,219.4c0,0,0.1-0.1,0.2-0.1l0.5-0.2l1.8-0.9l6.4-3.1l0,0.1l-6.8-15.7c-0.8-1.9-1.6-3.7-2.4-5.5l0.2,0
				l-3.9,3.6c-0.9,0.7-1.8,1.3-2.8,1.8c-0.9,0.5-1.8,1.1-2.6,1.5c-1.6,1-3,1.8-4.2,2.6c-0.9,0.6-1.7,1.3-2.5,2
				c-0.3,0.2-0.5,0.5-0.6,0.6l-0.2,0.2l-0.1,0c0.2-0.3,0.5-0.6,0.8-0.8c0.8-0.7,1.6-1.4,2.5-2c1.1-0.8,2.5-1.7,4.1-2.6l2.6-1.5
				c0.9-0.6,1.9-1.2,2.7-1.8l3.9-3.6l0.1-0.1l0.1,0.1c0.8,1.8,1.6,3.6,2.4,5.5c2.6,6,4.9,11.5,6.7,15.8l0,0.1l-0.1,0l-6.5,3
				l-1.8,0.8c-0.2,0.1-0.4,0.2-0.5,0.2L115.4,219.4z"/>
			<path class="st15" d="M139.4,161.9c0.2-0.1,0.3-0.3,0.3-0.5c0.1-0.6,0-1.2-0.2-1.8l-0.2-0.6l0-0.2c0,0,0-0.1-0.1-0.1
				c-0.1-0.1-0.1-0.2-0.2-0.2c-0.4-0.3-0.8-0.5-1.3-0.6c-0.5-0.1-1-0.2-1.5-0.4l-0.8-0.2c-0.3-0.1-0.6-0.1-0.8-0.2
				c-0.6-0.1-1.1-0.1-1.7,0c-0.1,0-0.2,0.1-0.3,0.2c-0.1,0.1-0.2,0.2-0.3,0.3l-0.5,0.6l-1.7,2.1l-1.1,1.4c-0.1,0.2-0.3,0.4-0.4,0.5
				c0.1-0.2,0.2-0.4,0.4-0.6c0.3-0.4,0.6-0.9,1.1-1.5c0.5-0.6,1-1.4,1.6-2.1l0.5-0.6c0.1-0.1,0.2-0.2,0.3-0.3
				c0.1-0.1,0.2-0.2,0.4-0.2c0.6-0.1,1.2-0.1,1.7,0c0.3,0,0.6,0.1,0.9,0.2l0.8,0.2c0.5,0.1,1.1,0.2,1.6,0.4c0.5,0.1,0.9,0.4,1.3,0.7
				c0.1,0.1,0.2,0.2,0.2,0.3c0,0.1,0.1,0.1,0.1,0.2l0,0.2c0.1,0.2,0.1,0.4,0.2,0.6c0.2,0.6,0.2,1.2,0.1,1.8c0,0.2-0.1,0.3-0.3,0.4
				C139.5,161.8,139.5,161.9,139.4,161.9z"/>
		</g>
	</g>
</g>
</svg>
