<?xml version="1.0" encoding="utf-8"?>
<!-- Generator: Adobe Illustrator 25.3.1, SVG Export Plug-In . SVG Version: 6.00 Build 0)  -->
<svg version="1.1" id="圖層_1" xmlns="http://www.w3.org/2000/svg" xmlns:xlink="http://www.w3.org/1999/xlink" x="0px" y="0px"
	 viewBox="0 0 240 300" style="enable-background:new 0 0 240 300;" xml:space="preserve">
<style type="text/css">
	.st0{opacity:0.46;}
	.st1{fill:#DB8851;}
	.st2{fill:#FFFFFF;}
	.st3{fill:#E3E3E3;}
	.st4{opacity:0.14;}
	.st5{clip-path:url(#SVGID_2_);}
	.st6{fill:#EBEBEB;}
	.st7{fill:#E0E0E0;}
	.st8{fill:#F5F5F5;}
	.st9{fill:#263238;}
	.st10{fill:#FF725E;}
	.st11{opacity:0.9;}
	.st12{opacity:0.6;}
	.st13{opacity:0.3;}
	.st14{fill:#FFBF9D;}
	.st15{fill:#FF9A6C;}
	.st16{fill:#455A64;}
	.st17{opacity:0.2;}
	.st18{opacity:0.3;enable-background:new    ;}
	.st19{fill:#AE7461;}
</style>
<g>
	<g class="st0">
		<path class="st1" d="M0.3,25.1L235.1,4.5l4.9,270.6l-205.2,24L0.3,25.1z"/>
	</g>
	<path class="st2" d="M0,21.4L234.8,0.8l4.9,270.6L40.4,294.8L0,21.4z"/>
	<path class="st3" d="M5.7,25.9l38.9,263.3l190-22.3L229.9,6.3L5.7,25.9z"/>
	<g class="st4">
		<path class="st2" d="M233.6,208.7L196,271.5l38.6-4.5L233.6,208.7z"/>
		<path class="st2" d="M230.6,42.4l-190.1,219l4.1,27.9l23.4-2.7L231.4,88.3L230.6,42.4z"/>
		<path class="st2" d="M18.4,111.7l11.9,80.5L209.9,8l-89,7.8C90,44.5,47.6,84.3,18.4,111.7z"/>
	</g>
	<g>
		<defs>
			
				<rect id="SVGID_1_" x="26.7" y="48.6" transform="matrix(0.9962 -8.715574e-02 8.715574e-02 0.9962 -12.4481 11.7094)" width="202.4" height="199.7"/>
		</defs>
		<clipPath id="SVGID_2_">
			<use xlink:href="#SVGID_1_"  style="overflow:visible;"/>
		</clipPath>
		<g class="st5">
			<path class="st6" d="M203.1,240.4c-4.1-4.7-8.1-11.9-8.5-18.2C199.2,227.2,202.1,233.6,203.1,240.4z"/>
			<path class="st6" d="M205,232.1c-4.1-4.7-8.1-11.9-8.5-18.2C201.1,219,204,225.3,205,232.1z"/>
			<path class="st6" d="M206.7,223.3c-3.5-5.2-6.7-12.8-6.3-19.2C204.3,209.8,206.5,216.4,206.7,223.3z"/>
			<path class="st6" d="M207.5,216.3c-1.5-6.2-1.8-14.4,0.7-20C210,202.9,209.7,209.8,207.5,216.3z"/>
			<path class="st6" d="M207.2,219.6c3.3-5.5,9-11.7,15.1-13.9C218.7,211.7,213.4,216.6,207.2,219.6z"/>
			<path class="st6" d="M205.9,226.9c3.9-5.4,10.4-11.3,17-13.1C218.6,219.8,212.7,224.3,205.9,226.9z"/>
			<path class="st6" d="M204.2,235.8c3.9-5.4,10.4-11.3,17-13.1C217,228.6,211.1,233.2,204.2,235.8z"/>
			<path class="st7" d="M202.4,242c0.7-2.4,1.1-3.4,1.8-6.3c1.3-5.7,2.2-10.9,2.7-14.6c0.3-1.9,0.5-3.4,0.6-4.5l0.2-1.2
				c0-0.1,0-0.2,0-0.3c0,0,0-0.1,0-0.1c0,0,0,0.1,0,0.1c0,0.1,0,0.2,0,0.3l-0.1,1.2c-0.1,1.1-0.3,2.6-0.5,4.5
				c-0.5,3.8-1.4,9-2.7,14.7l-1.4,6.2L202.4,242z"/>
			<path class="st6" d="M75.9,251.5c3.2-5.4,5.9-13.1,5.2-19.4C77.5,237.9,75.7,244.6,75.9,251.5z"/>
			<path class="st6" d="M72.5,243.7c3.2-5.4,5.9-13.1,5.2-19.4C74.2,230.1,72.4,236.8,72.5,243.7z"/>
			<path class="st6" d="M69.4,235.3c2.6-5.8,4.3-13.8,2.9-20C69.4,221.6,68.4,228.5,69.4,235.3z"/>
			<path class="st6" d="M67.4,228.5c0.4-6.4-0.7-14.5-4.2-19.6C62.7,215.7,64.1,222.5,67.4,228.5z"/>
			<path class="st6" d="M68.3,231.8c-4.2-4.9-10.9-9.9-17.3-11.1C55.6,226,61.6,229.9,68.3,231.8z"/>
			<path class="st6" d="M70.8,238.7c-4.8-4.6-12.2-9.3-19-9.9C57,233.9,63.6,237.4,70.8,238.7z"/>
			<path class="st6" d="M74,247.2c-4.8-4.6-12.2-9.3-19-9.9C60.2,242.3,66.8,245.8,74,247.2z"/>
			<path class="st7" d="M76.9,253c-1.1-2.3-1.7-3.2-2.8-5.9c-2.3-5.4-4-10.3-5.2-13.9c-0.6-1.8-1.1-3.3-1.4-4.3
				c-0.2-0.5-0.3-0.9-0.4-1.2c0-0.1-0.1-0.2-0.1-0.3c0,0,0-0.1,0-0.1c0,0,0,0.1,0,0.1c0,0.1,0,0.2,0.1,0.3c0.1,0.3,0.2,0.7,0.3,1.2
				c0.3,1,0.7,2.5,1.3,4.3c1.2,3.6,2.9,8.6,5.2,14l2.5,5.8L76.9,253z"/>
			<path class="st8" d="M136.3,79.8c0,0-4,47.3,5.4,117l8.1-0.7c0,0-14-82.1-10.6-116.2L136.3,79.8z"/>
			<path class="st6" d="M142.1,149.6c-0.7,0.3-1.5,0.4-2.2,0.4c-0.8,0.1-1.5,0-2.3-0.3c0-0.1,1,0.1,2.3,0.1
				C141.1,149.7,142.1,149.5,142.1,149.6z"/>
			<path class="st6" d="M140.4,140.9c-0.6,0.2-1.2,0.4-1.9,0.4c-0.6,0.1-1.3,0.1-1.9-0.1c0.6-0.1,1.3-0.1,1.9-0.2
				C139.1,141,139.7,140.9,140.4,140.9z"/>
			<path class="st6" d="M140.2,130.5c-1.1,0.5-2.3,0.6-3.5,0.4c0-0.1,0.8,0,1.8-0.2C139.4,130.6,140.1,130.4,140.2,130.5z"/>
			<path class="st6" d="M138.5,121.2c-0.5,0.2-1.1,0.3-1.6,0.2c-0.6,0-1.1,0-1.6-0.2c0-0.1,0.7,0,1.6,0
				C137.4,121.1,137.9,121.1,138.5,121.2z"/>
			<path class="st6" d="M138.1,111.2c-0.3,0.1-0.7,0.2-1.1,0.1c-0.4,0-0.8-0.1-1.1-0.3c0.4,0,0.7,0,1.1,0.1
				C137.4,111.1,137.8,111.1,138.1,111.2z"/>
			<path class="st6" d="M137.6,100.1c-0.3,0.2-0.7,0.2-1.1,0.2c-0.4,0-0.7,0-1.1-0.1c0.3-0.1,0.7-0.1,1.1-0.1
				C136.9,100,137.3,100,137.6,100.1z"/>
			<path class="st6" d="M138.5,88.9c-0.3,0.1-0.7,0.1-1,0c-0.3,0-0.7-0.1-1-0.3c0.3,0,0.7,0,1,0.1C137.8,88.7,138.1,88.8,138.5,88.9
				z"/>
			<path class="st6" d="M141.9,159.4c-1.1,0.2-2.2,0.3-3.3,0.3C139.7,159.4,140.8,159.3,141.9,159.4z"/>
			<path class="st6" d="M145,167.2c-1.1,0.2-2.2,0.3-3.3,0.3C142.8,167.3,143.9,167.2,145,167.2z"/>
			<path class="st6" d="M170,45.5c-0.1,0-0.3,0.1-0.5,0.1c-3.4,0.9-13.6,5.7-13.6,5.7l-1-1.5l-0.8,4.6l-6,6.5l-1.1-5.6
				c-0.9,0.9-1.5,8.8-1.5,8.8l-2.6,6.5l-2.3-7.4c-2,3.9,0.1,12.4,0.1,12.4l-4.1,7.4c-1.8-4.5-3.1-18.3,6.1-29.3
				C152.1,42.5,170,45.5,170,45.5z"/>
			<path class="st7" d="M169.2,45.8c0,0-0.1,0-0.1,0l-0.4,0c-0.4,0-0.9-0.1-1.7-0.1c-2,0-4.1,0.1-6.1,0.5c-3,0.5-5.9,1.5-8.6,2.8
				c-1.6,0.8-3.1,1.8-4.5,2.8c-1.5,1.2-2.9,2.5-4.1,4c-2.3,2.9-4,6.2-5.1,9.8c-0.5,1.5-0.8,3.1-1.1,4.7c-0.3,1.5-0.4,2.9-0.5,4.2
				c-0.2,2.6-0.2,4.7-0.2,6.1c0,0.7,0,1.3,0,1.7c0,0.2,0,0.3,0,0.4c0,0.1,0,0.1,0,0.2c0,0,0-0.1,0-0.1c0-0.1,0-0.3,0-0.4
				c0-0.4-0.1-0.9-0.1-1.7c0-1.4,0-3.5,0.1-6.1c0.1-1.3,0.2-2.7,0.5-4.2c0.3-1.6,0.6-3.2,1.1-4.7c1.1-3.6,2.8-6.9,5.1-9.8
				c1.2-1.5,2.6-2.8,4.2-4c1.4-1.1,3-2,4.6-2.9c4.6-2.3,9.7-3.4,14.8-3.2c0.7,0,1.3,0.1,1.7,0.1l0.4,0L169.2,45.8z"/>
			<path class="st6" d="M134.7,82.7l-0.3-0.5c0,0,10.1-15.8,25.3-15.5c15.2,0.4,22.5,9.9,24.2,11.9c1.7,2,5.8,9,5.8,9l-9.7-3.9
				c0,0-5.8-9.2-9.4-10.1c0,0,8.1,10.6,8.8,17.4c0,0-6.5-3.8-7.8-3.9c0,0-2.7-6.6-6.9-8.8l3.2,6.8l-8.7-3.7l-2.8-3.6l-0.8,2.6
				C155.5,80.2,147.6,77.1,134.7,82.7z"/>
			<path class="st6" d="M134.7,82.6c0.1,0,0.2,0,0.4,0c2.8,0,11.7,1.9,11.7,1.9l0.6-1.6l1.4,4l5.9,4.5l-0.1-5.3
				c0.8,0.6,2.7,7.7,2.7,7.7l3.2,5.3l0.5-7.3c2.3,3.1,2.1,11.3,2.1,11.3l4.6,6.6c0.7-4.5-0.8-18.4-10.1-26.1
				C148.3,75.6,134.7,82.6,134.7,82.6z"/>
			<path class="st6" d="M134.8,82.6c-1.2-3.3-6.9-10.4-6.9-10.4l2-1.4l-4.2-0.2l-7-5.3l3.7-2.1c-1-0.7-7.5,0-7.5,0l-6-2.4l4.8-2
				c-4.1-1.6-9.9,0.4-9.9,0.4l-8.6-3c4.2-2.3,19-7.6,30.9,0.5c11.9,8,10.1,26,10.1,26"/>
			<path class="st6" d="M135.6,82.3c-0.1-0.1-0.7,0.3-0.9,0.2c-2.8-1.4-10.7-0.8-10.7-0.8l0.2-1.8L121,83l-8,1.4l2.6-5
				c-1.1,0.2-6.4,6-6.4,6l-6.4,4.7l3-7.2c-1.6,1.6-6.7,8.5-6.7,8.5l-7.7,4.1c1.5-4.6,8.7-20,21.6-22.9
				C126,69.7,135.6,82.3,135.6,82.3z"/>
			<path class="st7" d="M168.7,72c0,0-0.1-0.1-0.3-0.2c-0.3-0.1-0.7-0.3-1-0.4c-0.5-0.1-1.1-0.3-1.7-0.3c-0.7-0.1-1.4-0.1-2.2-0.2
				c-4.4-0.2-8.7,0.3-12.9,1.7c-2.3,0.8-4.6,1.7-6.7,2.9l-0.7,0.4c-0.2,0.1-0.5,0.3-0.7,0.4c-0.5,0.3-0.9,0.6-1.3,0.8
				c-0.8,0.6-1.6,1.1-2.3,1.7l-1,0.8l-0.8,0.7c-0.5,0.5-1,0.9-1.3,1.2l-0.8,0.8c-0.1,0.1-0.2,0.2-0.3,0.3c0.1-0.1,0.2-0.2,0.3-0.3
				l0.8-0.8c0.3-0.4,0.8-0.8,1.3-1.2c0.3-0.2,0.5-0.5,0.8-0.8l1-0.8c0.7-0.6,1.4-1.1,2.3-1.7c0.4-0.3,0.9-0.6,1.3-0.9
				c0.2-0.1,0.5-0.3,0.7-0.4l0.7-0.4c2.1-1.2,4.4-2.2,6.7-3c4.2-1.4,8.6-1.9,13-1.6c0.8,0.1,1.6,0.1,2.2,0.2
				c0.6,0.1,1.1,0.2,1.7,0.4c0.3,0.1,0.7,0.2,1,0.4C168.5,71.8,168.5,71.9,168.7,72C168.7,71.9,168.7,72,168.7,72z"/>
			<path class="st7" d="M164,66.8c-0.1,0-0.2,0-0.3,0c-0.2,0-0.6-0.1-1-0.1c-1.2-0.1-2.4-0.1-3.6-0.1c-4.1,0.3-8,1.4-11.6,3.4
				c-3.6,2-6.9,4.7-9.7,7.8c-1.1,1.2-1.9,2.2-2.5,2.9c-0.3,0.4-0.5,0.6-0.6,0.8c-0.1,0.1-0.1,0.2-0.2,0.3c0.1-0.1,0.1-0.2,0.2-0.3
				c0.1-0.2,0.3-0.5,0.6-0.9c0.5-0.7,1.3-1.8,2.4-3c2.8-3.2,6-5.8,9.7-7.9c3.6-2,7.6-3.1,11.7-3.4c1.2-0.1,2.4,0,3.7,0.1
				c0.4,0,0.8,0.1,1,0.2C163.8,66.8,163.9,66.8,164,66.8z"/>
			<path class="st7" d="M154.2,80.9c-0.3,0-0.5-0.1-0.8-0.1c-0.5-0.1-1.2-0.2-2.1-0.4c-0.9-0.1-1.9-0.2-3.1-0.3l-0.9-0.1
				c-0.3,0-0.6,0-0.9,0c-0.6,0.1-1.3,0.1-2,0.2c-0.7,0.1-1.3,0.2-2,0.3c-0.6,0.1-1.2,0.3-1.8,0.4c-1.1,0.3-2.2,0.6-3,0.9l-2,0.6
				c-0.2,0.1-0.5,0.2-0.7,0.2c0,0,0.1,0,0.2-0.1c0.1-0.1,0.3-0.1,0.5-0.2c0.5-0.2,1.1-0.4,2-0.7c0.9-0.3,1.9-0.6,3-0.9
				c0.6-0.2,1.2-0.3,1.8-0.5c0.7-0.2,1.3-0.3,2-0.3c0.7-0.1,1.3-0.2,2-0.2c0.3,0,0.6,0,1,0l0.9,0.1c1.2,0.1,2.2,0.2,3.1,0.4
				c0.9,0.2,1.6,0.3,2.1,0.4c0.2,0.1,0.5,0.1,0.6,0.2C154.1,80.8,154.2,80.8,154.2,80.9z"/>
			<path class="st7" d="M135.7,79.3c0-0.1-0.1-0.2-0.1-0.3c-0.1-0.2-0.1-0.5-0.2-0.9c0-0.2-0.1-0.4-0.1-0.6
				c-0.1-0.2-0.1-0.5-0.2-0.7c-0.2-0.5-0.3-1.1-0.5-1.8c-0.1-0.3-0.2-0.7-0.4-1c-0.1-0.4-0.3-0.7-0.4-1.1c-0.3-0.8-0.7-1.6-1.1-2.4
				c-0.9-1.8-1.9-3.5-3.1-5.1c-1.2-1.6-2.5-3.1-3.9-4.5c-0.7-0.6-1.3-1.2-1.9-1.8c-0.3-0.3-0.6-0.5-0.9-0.8l-0.9-0.7
				c-0.6-0.4-1.1-0.8-1.5-1.1c-0.2-0.2-0.4-0.3-0.6-0.4l-0.6-0.3l-0.8-0.5c-0.1,0-0.2-0.1-0.3-0.2c0.1,0,0.2,0.1,0.3,0.1l0.8,0.4
				c0.2,0.1,0.4,0.2,0.6,0.3c0.2,0.1,0.4,0.3,0.7,0.4c0.5,0.3,1,0.6,1.6,1.1l0.9,0.6c0.3,0.2,0.6,0.5,0.9,0.8c0.6,0.5,1.3,1.1,2,1.8
				c1.4,1.4,2.7,2.9,3.9,4.6c1.2,1.6,2.2,3.4,3.1,5.2c0.4,0.8,0.8,1.6,1,2.4c0.1,0.4,0.3,0.8,0.4,1.1c0.1,0.4,0.2,0.7,0.3,1
				c0.2,0.7,0.4,1.3,0.5,1.8c0.1,0.3,0.1,0.5,0.2,0.8c0.1,0.2,0.1,0.4,0.1,0.6c0.1,0.4,0.1,0.7,0.2,0.9
				C135.7,79.1,135.8,79.2,135.7,79.3z"/>
			<path class="st7" d="M129.2,59.3c0.2,0.2,0.4,0.4,0.6,0.6c0.2,0.2,0.4,0.5,0.6,0.8s0.5,0.6,0.7,1.1c0.6,0.9,1.2,1.9,1.7,2.9
				c0.6,1.2,1.1,2.5,1.6,3.8c0.4,1.3,0.8,2.6,1,4c0.2,1.1,0.3,2.2,0.4,3.3c0,0.5,0,0.9,0,1.3c0,0.4,0,0.7,0,1c0,0.3,0,0.6-0.1,0.8
				c0-0.3,0-0.6,0-0.8c0-0.3,0-0.6,0-1c0-0.4,0-0.8-0.1-1.3c-0.1-1.1-0.2-2.2-0.4-3.3c-0.3-1.3-0.6-2.7-1-4c-0.4-1.3-1-2.6-1.5-3.8
				c-0.5-1-1-2-1.6-2.9c-0.2-0.4-0.5-0.8-0.7-1.1c-0.2-0.3-0.4-0.6-0.6-0.8C129.5,59.8,129.3,59.6,129.2,59.3z"/>
			<path class="st7" d="M103.9,81.1c0.1-0.1,0.2-0.2,0.2-0.2c0.2-0.1,0.4-0.4,0.7-0.6c0.9-0.8,1.9-1.4,2.9-2c3.4-2,7.2-3,11.1-3
				c3.9,0,7.7,1.1,11.1,3.1c1,0.6,2,1.3,2.8,2c0.3,0.3,0.5,0.5,0.7,0.6c0.1,0.1,0.2,0.2,0.2,0.2c0,0-0.1-0.1-0.3-0.2
				c-0.2-0.1-0.4-0.4-0.7-0.6c-3.4-2.8-7.7-4.5-12.1-4.9c-4.4-0.4-8.9,0.6-12.8,2.8c-1,0.6-2,1.2-2.9,1.9c-0.3,0.2-0.6,0.5-0.7,0.6
				C104.1,81,104,81.1,103.9,81.1z"/>
			<path class="st8" d="M61.6,127.3c0,0-3.9,31.3,0.5,77.8l5.3-0.5c0,0-7.1-54.6-4-77.1L61.6,127.3z"/>
			<path class="st6" d="M63.6,173.8c-0.5,0.2-1,0.3-1.5,0.3c-0.5,0-1-0.1-1.5-0.2c0,0,0.7,0.1,1.5,0.1
				C62.9,173.9,63.6,173.7,63.6,173.8z"/>
			<path class="st6" d="M62.7,168c-0.4,0.1-0.8,0.2-1.3,0.2c-0.4,0-0.9,0-1.3-0.1c0,0,0.6,0,1.3-0.1C61.9,168,62.3,168,62.7,168z"/>
			<path class="st6" d="M62.9,161.1c-0.7,0.3-1.5,0.3-2.3,0.2c0,0,0.5,0,1.2-0.1C62.3,161.1,62.9,161,62.9,161.1z"/>
			<path class="st6" d="M62,154.8c-0.3,0.1-0.7,0.2-1.1,0.1c-0.4,0-0.7-0.1-1.1-0.2c0.4,0,0.7,0,1.1,0.1
				C61.3,154.8,61.6,154.8,62,154.8z"/>
			<path class="st6" d="M62,148.2c-0.2,0.1-0.5,0.1-0.7,0.1c-0.3,0-0.5-0.1-0.7-0.2c0.2,0,0.5,0,0.7,0.1
				C61.5,148.1,61.8,148.2,62,148.2z"/>
			<path class="st6" d="M62,140.8c-0.2,0.1-0.5,0.1-0.7,0.1c-0.2,0-0.5,0-0.7-0.1c0.2,0,0.5-0.1,0.7,0
				C61.5,140.8,61.7,140.8,62,140.8z"/>
			<path class="st6" d="M62.8,133.4c-0.2,0-0.5,0-0.7,0c-0.2,0-0.4-0.1-0.6-0.2c0.2,0,0.4,0,0.7,0.1
				C62.5,133.3,62.8,133.4,62.8,133.4z"/>
			<path class="st6" d="M63.2,180.3c-0.4,0.1-0.7,0.1-1.1,0.1c-0.4,0-0.7,0-1.1,0c0.4-0.1,0.7-0.1,1.1-0.1
				C62.5,180.2,62.9,180.2,63.2,180.3z"/>
			<path class="st6" d="M65.1,185.5c-0.4,0.1-0.7,0.1-1.1,0.1c-0.4,0-0.7,0-1.1,0c0.4-0.1,0.7-0.1,1.1-0.1
				C64.3,185.5,64.7,185.5,65.1,185.5z"/>
			<path class="st6" d="M78,103.9c-0.1,0-0.2,0.1-0.3,0.1c-1.8,0.8-7.1,4.4-7.1,4.4l-0.7-0.8l0,2.6l-2.7,4.2l-1.1-3
				c-0.4,0.6,0,5.1,0,5.1l-0.9,3.9l-1.9-4c-0.8,2.3,1.2,6.9,1.2,6.9l-1.6,4.5c-1.4-2.3-3.4-9.9,0.8-16.9
				C67.8,103.9,78,103.9,78,103.9z"/>
			<path class="st7" d="M77.6,104.1L77.6,104.1l-0.3,0c-0.2,0-0.5,0-0.9,0.1c-1.1,0.2-2.3,0.4-3.4,0.8c-1.6,0.6-3.1,1.4-4.5,2.4
				c-0.8,0.6-1.6,1.3-2.3,2c-0.7,0.8-1.4,1.7-1.9,2.6c-1,1.8-1.7,3.8-2,5.9c-0.1,0.9-0.2,1.8-0.2,2.7c0,0.9,0,1.7,0.1,2.4
				c0.1,1.5,0.3,2.6,0.4,3.4c0.1,0.4,0.1,0.7,0.2,0.9c0,0.1,0,0.2,0,0.2c0,0.1,0,0.1,0,0.1s0,0,0-0.1c0-0.1,0-0.1-0.1-0.2
				c0-0.2-0.1-0.5-0.2-0.9c-0.1-0.8-0.3-2-0.5-3.4c-0.1-0.7-0.1-1.5-0.1-2.4c0-0.9,0.1-1.8,0.2-2.8c0.3-2.1,0.9-4.1,2-6
				c0.6-0.9,1.2-1.8,2-2.6c0.7-0.7,1.5-1.4,2.3-2c1.4-1,2.9-1.8,4.6-2.3c1.1-0.4,2.2-0.6,3.4-0.8c0.4,0,0.7-0.1,0.9-0.1L77.6,104.1
				L77.6,104.1z"/>
			<path class="st6" d="M61.7,127.8l-0.2-0.3c0,0,4.2-9.8,12.7-10.9c2.6-0.4,5.3-0.2,7.8,0.6c2.5,0.8,4.8,2.1,6.8,3.9
				c1.1,0.9,4.1,4.5,4.1,4.5l-5.8-1.3c0,0-4.1-4.6-6.2-4.8c0,0,5.5,5.2,6.5,8.9c0,0-4-1.5-4.7-1.5c0,0-2.1-3.5-4.7-4.3l2.4,3.5
				l-5.2-1.3l-1.9-1.8l-0.2,1.5C73.1,124.6,68.4,123.6,61.7,127.8z"/>
			<path class="st6" d="M61.7,127.8c0.1,0,0.1,0,0.2,0c1.6-0.3,6.7,0,6.7,0l0.2-1l1.2,2.1l3.7,2l-0.5-3c0.5,0.3,2.2,4.1,2.2,4.1
				l2.3,2.7l-0.4-4.1c1.5,1.5,2.2,6.1,2.2,6.1l3.1,3.3c0-2.6-2.1-10.2-8-13.7C68.7,122.7,61.7,127.8,61.7,127.8z"/>
			<path class="st6" d="M61.7,127.8c-1-1.7-4.8-5.2-4.8-5.2l1-1l-2.3,0.2l-4.4-2.3l1.9-1.5c-0.6-0.3-4.2,0.7-4.2,0.7l-3.6-0.8
				l2.5-1.6c-2.4-0.5-5.5,1.1-5.5,1.1l-5.1-0.9c2.2-1.7,9.9-6,17.3-2.5c7.4,3.4,8,13.6,8,13.6"/>
			<path class="st6" d="M62.2,127.6c-0.1,0-0.4,0.2-0.5,0.2c-1.7-0.5-6,0.5-6,0.5l0-1l-1.6,2l-4.3,1.5l1-3.1c-0.6,0.2-3,3.9-3,3.9
				l-3.1,3.2l1-4.3c-0.8,1.1-3,5.3-3,5.3l-3.9,3c0.4-2.7,3-11.9,10-14.7C55.6,121.4,62.2,127.6,62.2,127.6z"/>
			<path class="st7" d="M79.7,118.8c-0.1,0-0.1,0-0.2-0.1c-0.2-0.1-0.4-0.1-0.6-0.1c-0.3,0-0.6,0-1,0c-0.4,0-0.8,0.1-1.3,0.1
				c-2.5,0.3-4.9,1-7.1,2.1c-1.2,0.6-2.4,1.4-3.5,2.2l-0.4,0.3c-0.1,0.1-0.2,0.2-0.3,0.3c-0.2,0.2-0.5,0.4-0.7,0.6
				c-0.4,0.4-0.8,0.8-1.1,1.1l-0.5,0.5l-0.4,0.5c-0.2,0.3-0.5,0.6-0.6,0.8l-0.4,0.5c0,0.1-0.1,0.1-0.1,0.2c0-0.1,0.1-0.1,0.1-0.2
				l0.4-0.5c0.2-0.2,0.4-0.5,0.6-0.8c0.1-0.2,0.2-0.3,0.4-0.5l0.5-0.5c0.3-0.4,0.7-0.7,1.1-1.2c0.2-0.2,0.4-0.4,0.7-0.6
				c0.1-0.1,0.2-0.2,0.3-0.3l0.4-0.3c1.1-0.9,2.2-1.6,3.5-2.3c2.2-1.1,4.6-1.9,7.1-2.1c0.5,0,0.9-0.1,1.3-0.1c0.3,0,0.6,0,1,0.1
				c0.2,0,0.4,0.1,0.6,0.1C79.6,118.7,79.6,118.7,79.7,118.8L79.7,118.8z"/>
			<path class="st7" d="M76.6,116.3l-0.2,0c-0.1,0-0.3,0-0.6,0c-0.7,0-1.4,0.2-2,0.3c-2.2,0.5-4.3,1.5-6.1,3
				c-1.8,1.5-3.4,3.2-4.7,5.2c-0.5,0.8-0.9,1.4-1.1,1.9c-0.1,0.2-0.2,0.4-0.3,0.5c0,0.1-0.1,0.1-0.1,0.2c0-0.1,0-0.1,0.1-0.2
				c0.1-0.1,0.1-0.3,0.3-0.5c0.2-0.5,0.6-1.1,1.1-1.9c1.3-2,2.8-3.8,4.7-5.3c1.8-1.4,3.9-2.4,6.2-3c0.7-0.1,1.4-0.2,2.1-0.3
				c0.2,0,0.4,0,0.6,0C76.5,116.3,76.6,116.3,76.6,116.3z"/>
			<path class="st7" d="M72.4,125.1c-0.1,0-0.3,0-0.4,0c-0.3,0-0.7,0-1.2,0c-0.5,0-1.1,0-1.8,0.1l-0.5,0c-0.2,0-0.4,0-0.5,0.1
				c-0.4,0.1-0.7,0.2-1.1,0.3c-0.4,0.1-0.7,0.2-1.1,0.4l-1,0.4c-0.6,0.3-1.2,0.5-1.6,0.7l-1.1,0.5c-0.1,0.1-0.3,0.1-0.4,0.2
				c0,0,0,0,0.1-0.1l0.3-0.2c0.2-0.1,0.6-0.3,1.1-0.6c0.5-0.2,1-0.5,1.6-0.8c0.3-0.1,0.6-0.3,1-0.4c0.4-0.1,0.7-0.3,1.1-0.4
				c0.4-0.1,0.7-0.2,1.1-0.3c0.2,0,0.4-0.1,0.5-0.1l0.5,0c0.6-0.1,1.2-0.1,1.8-0.1c0.5,0,0.9,0,1.2,0.1L72.4,125.1
				C72.4,125,72.4,125,72.4,125.1z"/>
			<path class="st7" d="M62,125.9c0,0-0.1-0.1-0.1-0.2l-0.2-0.5c0-0.1-0.1-0.2-0.1-0.3c0-0.1-0.1-0.3-0.2-0.4
				c-0.1-0.3-0.3-0.6-0.5-1c-0.1-0.2-0.2-0.4-0.3-0.5c-0.1-0.2-0.2-0.4-0.3-0.6c-0.2-0.4-0.5-0.8-0.8-1.3c-0.7-0.9-1.4-1.8-2.2-2.6
				c-0.8-0.8-1.7-1.5-2.6-2.2c-0.4-0.3-0.8-0.6-1.2-0.8c-0.2-0.1-0.4-0.2-0.6-0.3l-0.6-0.3c-0.3-0.2-0.7-0.3-1-0.5
				c-0.1-0.1-0.3-0.1-0.4-0.2l-0.3-0.1l-0.5-0.2c-0.1,0-0.1,0-0.2-0.1c0.1,0,0.1,0,0.2,0.1l0.5,0.2l0.3,0.1l0.4,0.2
				c0.3,0.1,0.6,0.3,1,0.4l0.6,0.3c0.2,0.1,0.4,0.2,0.6,0.3c0.4,0.2,0.8,0.5,1.3,0.8c0.9,0.7,1.8,1.4,2.6,2.2
				c0.8,0.8,1.5,1.7,2.2,2.6c0.3,0.4,0.6,0.8,0.8,1.3c0.1,0.2,0.2,0.4,0.3,0.6l0.3,0.6c0.2,0.4,0.3,0.7,0.4,1
				c0.1,0.1,0.1,0.3,0.2,0.4c0.1,0.1,0.1,0.2,0.1,0.3c0.1,0.2,0.1,0.4,0.2,0.5C62,125.8,62,125.8,62,125.9z"/>
			<path class="st7" d="M56.5,115.3c0.1,0.1,0.3,0.2,0.4,0.3c0.1,0.1,0.3,0.2,0.4,0.4c0.2,0.2,0.3,0.3,0.5,0.5
				c0.4,0.5,0.8,0.9,1.2,1.5c0.5,0.6,0.9,1.3,1.2,2c0.4,0.7,0.7,1.4,0.9,2.1c0.2,0.6,0.4,1.2,0.5,1.8c0.1,0.3,0.1,0.5,0.1,0.7
				c0,0.2,0.1,0.4,0.1,0.5c0,0.2,0,0.3,0,0.5c0-0.2-0.1-0.3-0.1-0.5c0-0.1,0-0.3-0.1-0.5c-0.1-0.2-0.1-0.4-0.2-0.7
				c-0.1-0.6-0.3-1.2-0.5-1.8c-0.3-0.7-0.6-1.4-0.9-2.1c-0.4-0.7-0.8-1.3-1.2-2c-0.4-0.5-0.8-1-1.2-1.4c-0.2-0.2-0.4-0.4-0.5-0.5
				c-0.1-0.2-0.3-0.3-0.4-0.4C56.7,115.5,56.6,115.4,56.5,115.3z"/>
			<path class="st7" d="M44.4,129.8c0-0.1,0.1-0.1,0.1-0.2c0.1-0.1,0.2-0.2,0.3-0.4c0.4-0.5,0.9-1,1.4-1.4c0.8-0.6,1.6-1.2,2.5-1.6
				c2.2-1.1,4.6-1.4,7-1.1c1,0.1,1.9,0.4,2.9,0.8c0.6,0.2,1.2,0.5,1.8,0.9c0.2,0.1,0.3,0.2,0.5,0.3c0.1,0,0.1,0.1,0.2,0.1
				c-0.1,0-0.1-0.1-0.2-0.1c-0.1-0.1-0.3-0.2-0.5-0.3c-1.4-0.8-3-1.3-4.6-1.6c-2-0.3-4,0-5.9,0.7c-1.9,0.7-3.6,1.8-5,3.3
				c-0.2,0.2-0.3,0.3-0.4,0.4C44.5,129.7,44.4,129.7,44.4,129.8z"/>
			<path class="st8" d="M84.2,137.7c0.1-0.6,0.3-1.1,0.6-1.6c0.1-0.3,0.3-0.5,0.6-0.7c0.2-0.2,0.5-0.3,0.8-0.4
				c0.3-0.1,0.6,0,0.9,0.1c0.3,0.1,0.5,0.3,0.6,0.6c-0.1-1.3,0.1-2.5,0.6-3.7c0.5-1.1,1.6-2.1,2.9-2.1c1.2,0,2.3,0.8,2.9,1.7
				c0.6,1,1,2.1,1.2,3.3c0.4-0.6,1.4-0.5,1.9,0c0.5,0.5,0.8,1.2,0.9,1.9L84,138L84.2,137.7z"/>
			<path class="st8" d="M33.7,159.3c0.1-0.6,0.3-1.1,0.6-1.6c0.1-0.3,0.3-0.5,0.6-0.7c0.2-0.2,0.5-0.3,0.8-0.4
				c0.3-0.1,0.6,0,0.9,0.1c0.3,0.1,0.5,0.3,0.6,0.6c-0.1-1.3,0.1-2.5,0.6-3.7c0.5-1.1,1.6-2.1,2.9-2.1c1.2,0,2.3,0.8,2.9,1.7
				c0.6,1,1,2.1,1.2,3.3c0.4-0.6,1.4-0.5,1.9,0c0.5,0.5,0.8,1.2,0.9,1.9l-14,1.2L33.7,159.3z"/>
			<path class="st8" d="M30.8,100c0.2-0.7,0.4-1.5,0.8-2.1c0.2-0.3,0.4-0.6,0.7-0.9c0.3-0.2,0.6-0.4,1-0.5c0.4-0.1,0.8,0,1.1,0.1
				c0.3,0.2,0.6,0.4,0.8,0.8c0-1.6,0.1-3.3,0.7-4.8c0.7-1.5,2.1-2.7,3.7-2.7c1.5,0,2.9,1,3.8,2.2c0.8,1.3,1.2,2.8,1.6,4.3
				c0.5-0.8,1.7-0.6,2.4,0c0.7,0.6,0.9,1.6,1.1,2.5l-18.1,1.6L30.8,100z"/>
			<path class="st6" d="M58.5,70.3c0.2-1,0.6-2,1.1-2.9c0.3-0.5,0.6-0.9,1-1.2c0.4-0.3,0.9-0.6,1.4-0.7c0.5-0.1,1-0.1,1.5,0.1
				c0.5,0.2,0.9,0.6,1.1,1c0-2.2,0-4.5,1-6.5c1-2,2.9-3.7,5.1-3.8c2.1-0.1,4,1.3,5.2,3.1c1.2,1.7,1.7,3.8,2.2,5.8
				c0.7-1,2.4-0.9,3.3,0c0.9,0.9,1.2,2.2,1.5,3.4L58.1,71L58.5,70.3z"/>
			<path class="st6" d="M153.9,122.4c0.1-0.6,0.4-1.2,0.7-1.8c0.2-0.3,0.4-0.5,0.6-0.7c0.2-0.2,0.5-0.3,0.8-0.4
				c0.3-0.1,0.6,0,0.9,0.1c0.3,0.1,0.5,0.4,0.7,0.6c0-1.3,0-2.7,0.6-4c0.6-1.2,1.7-2.2,3.1-2.3c1.3,0,2.4,0.8,3.1,1.9
				c0.6,1.1,1.1,2.3,1.3,3.6c0.4-0.6,1.5-0.5,2,0c0.5,0.5,0.7,1.3,0.9,2.1l-15.1,1.3L153.9,122.4z"/>
			<path class="st8" d="M198.5,92.6c0.2-1.1,0.6-2.1,1.2-3.1c0.3-0.5,0.6-0.9,1.1-1.3c0.4-0.3,0.9-0.6,1.5-0.7
				c0.5-0.1,1.1-0.1,1.6,0.2c0.5,0.2,0.9,0.6,1.2,1.1c-0.1-2.4,0.1-4.8,1.1-6.9c1-2.1,3-3.9,5.4-4c2.2-0.1,4.3,1.4,5.5,3.3
				c1.2,1.9,1.8,4.1,2.3,6.2c0.7-1.1,2.5-0.9,3.5,0c1,0.9,1.3,2.3,1.6,3.6L198,93.2L198.5,92.6z"/>
			<path class="st8" d="M204.1,125.5c0,0,8.8,22.1,12.3,65.5l-5,0.6c0,0-2.4-45.6-9-65.8L204.1,125.5z"/>
			<path class="st6" d="M209.8,168.5c0.5,0.1,0.9,0.1,1.4,0c0.5-0.1,0.9-0.2,1.3-0.5c0,0-0.6,0.2-1.4,0.3
				C210.5,168.5,209.8,168.5,209.8,168.5z"/>
			<path class="st6" d="M209.7,163.1c0.8,0.1,1.6,0,2.3-0.3c0,0-0.5,0.1-1.2,0.2C210.5,162.9,210.1,163,209.7,163.1z"/>
			<path class="st6" d="M208.5,156.7c0.7,0.1,1.5,0.1,2.2-0.2c0,0-0.5,0.1-1.1,0.1C208.9,156.7,208.5,156.7,208.5,156.7z"/>
			<path class="st6" d="M208.2,150.9c0.3,0.1,0.7,0,1-0.1c0.3,0,0.7-0.2,1-0.3c-0.3,0.1-0.7,0.1-1,0.2
				C208.9,150.7,208.6,150.8,208.2,150.9z"/>
			<path class="st6" d="M207.1,144.8c0.2,0,0.5,0,0.7-0.1c0.2,0,0.4-0.1,0.6-0.3c-0.2,0-0.4,0.1-0.7,0.2
				C207.6,144.6,207.4,144.7,207.1,144.8z"/>
			<path class="st6" d="M206,138c0.4,0.1,0.9,0,1.3-0.2c-0.2,0-0.4,0-0.7,0.1C206.4,137.9,206.2,137.9,206,138z"/>
			<path class="st6" d="M204,131.4c0.2,0,0.4,0,0.6-0.1c0.2-0.1,0.4-0.2,0.5-0.3c-0.2,0-0.4,0.1-0.6,0.2
				C204.4,131.2,204.2,131.2,204,131.4z"/>
			<path class="st6" d="M211.2,174.4c0.3,0,0.7,0,1-0.1c0.3,0,0.7-0.1,1-0.2c-0.3,0-0.7,0-1,0.1
				C211.9,174.3,211.5,174.3,211.2,174.4z"/>
			<path class="st6" d="M210.4,179.6c0.3,0,0.7,0,1-0.1c0.3,0,0.7-0.1,1-0.2c-0.3,0-0.7,0-1,0.1C211,179.4,210.7,179.5,210.4,179.6z
				"/>
			<path class="st6" d="M185.3,106.7c0.1,0,0.2,0,0.2,0c1.8,0.4,7.2,2.9,7.2,2.9l0.5-0.8l0.4,2.4l3.2,3.4l0.6-3
				c0.5,0.5,0.8,4.6,0.8,4.6l1.4,3.4l1.1-3.9c1.1,2,0,6.5,0,6.5l2.2,3.9c0.9-2.4,1.5-9.7-3.4-15.4
				C194.7,105,185.3,106.7,185.3,106.7z"/>
			<path class="st7" d="M185.7,106.8L185.7,106.8l0.3,0c0.2,0,0.5,0,0.9,0c1.1,0,2.1,0,3.2,0.2c1.6,0.3,3.1,0.7,4.5,1.4
				c0.8,0.4,1.6,0.9,2.4,1.5c0.8,0.6,1.5,1.3,2.2,2.1c1.2,1.5,2.2,3.2,2.8,5.1c0.3,0.8,0.5,1.6,0.6,2.5c0.2,0.8,0.2,1.5,0.3,2.2
				c0.1,1.4,0.1,2.5,0.2,3.2c0,0.4,0,0.7,0,0.9c0,0.1,0,0.2,0,0.2c0,0.1,0,0.1,0,0.1s0,0,0-0.1l0-0.2c0-0.2,0-0.5,0-0.9
				c0-0.8,0-1.9-0.1-3.2c-0.1-0.7-0.1-1.4-0.3-2.2c-0.1-0.8-0.3-1.7-0.6-2.5c-0.6-1.9-1.5-3.6-2.8-5.2c-0.7-0.8-1.4-1.5-2.2-2.1
				c-0.8-0.6-1.6-1.1-2.4-1.5c-1.4-0.7-3-1.2-4.6-1.4c-1.1-0.2-2.1-0.2-3.2-0.2c-0.4,0-0.7,0.1-0.9,0.1L185.7,106.8L185.7,106.8z"/>
			<path class="st6" d="M204.1,126l0.1-0.3c0,0-5.4-8.3-13.5-8c-2.5,0-4.9,0.7-7.1,1.8s-4.1,2.7-5.6,4.7c-0.9,1.1-3,4.8-3,4.8
				l5.1-2.2c0,0,3-4.9,4.9-5.4c0,0-4.2,5.7-4.5,9.2c0,0,3.4-2.1,4.1-2.1c0,0,1.4-3.5,3.6-4.7l-1.6,3.6l4.6-2l1.5-1.9l0.5,1.4
				C193.1,124.9,197.3,123.2,204.1,126z"/>
			<path class="st6" d="M204.1,126l-0.2,0c-1.5,0-6.2,1.1-6.2,1.1l-0.3-0.9l-0.7,2.1l-3.1,2.4l0-2.8c-0.4,0.3-1.4,4.1-1.4,4.1
				l-1.6,2.8l-0.3-3.9c-1.2,1.6-1,6-1,6l-2.3,3.5c-0.4-2.4,0.3-9.7,5.1-13.9C196.9,122.4,204.1,126,204.1,126z"/>
			<path class="st6" d="M204.1,126c0.6-1.7,3.5-5.6,3.5-5.6l-1.1-0.7l2.2-0.2l3.6-2.8l-2-1.1c0.5-0.4,3.9-0.1,3.9-0.1l3.1-1.3
				l-2.5-1c2.1-0.9,5.2,0.1,5.2,0.1l4.5-1.6c-2.3-1.2-10.1-3.9-16.3,0.5c-6.2,4.3-5.2,13.8-5.2,13.8"/>
			<path class="st6" d="M203.6,125.8c0.1,0,0.4,0.2,0.5,0.1c1.5-0.8,5.6-0.5,5.6-0.5l-0.1-1l1.8,1.6l4.2,0.7l-1.4-2.6
				c0.6,0.1,3.4,3.1,3.4,3.1l3.4,2.4l-1.6-3.8c0.9,0.8,3.6,4.4,3.6,4.4l4.1,2.1c-0.8-2.4-4.7-10.5-11.6-11.9
				C208.6,119.1,203.6,125.8,203.6,125.8z"/>
			<path class="st7" d="M186.1,120.6c0.1,0,0.1,0,0.2-0.1c0.2-0.1,0.3-0.1,0.5-0.2c0.3-0.1,0.6-0.1,0.9-0.2c0.3-0.1,0.7-0.1,1.2-0.1
				c2.3-0.2,4.6,0.1,6.8,0.8c1.2,0.4,2.4,0.9,3.5,1.5l0.4,0.2c0.1,0.1,0.2,0.2,0.4,0.2c0.2,0.2,0.5,0.3,0.7,0.4
				c0.4,0.3,0.9,0.6,1.2,0.9l0.5,0.4l0.4,0.4c0.3,0.2,0.5,0.4,0.7,0.6l0.4,0.4c0,0.1,0.1,0.1,0.2,0.1c0-0.1-0.1-0.1-0.1-0.2
				l-0.4-0.4c-0.2-0.2-0.4-0.4-0.7-0.7c-0.1-0.1-0.3-0.3-0.4-0.4l-0.5-0.4c-0.3-0.3-0.8-0.6-1.2-0.9c-0.2-0.1-0.5-0.3-0.7-0.4
				c-0.1-0.1-0.2-0.2-0.4-0.2l-0.4-0.2c-1.1-0.6-2.3-1.1-3.6-1.5c-2.2-0.7-4.5-1-6.9-0.8c-0.4,0-0.8,0.1-1.2,0.1
				c-0.3,0-0.6,0.1-0.9,0.2c-0.2,0.1-0.4,0.1-0.5,0.2L186.1,120.6L186.1,120.6z"/>
			<path class="st7" d="M188.5,117.9l0.2,0c0.1,0,0.3,0,0.5,0c0.6-0.1,1.3-0.1,1.9-0.1c2.1,0.1,4.2,0.7,6.1,1.7c1.9,1,3.7,2.4,5.2,4
				c0.6,0.6,1,1.2,1.3,1.5c0.2,0.2,0.3,0.3,0.3,0.4c0,0.1,0.1,0.1,0.1,0.1c0-0.1-0.1-0.1-0.1-0.2c-0.1-0.1-0.2-0.3-0.3-0.5
				c-0.3-0.4-0.7-0.9-1.3-1.6c-1.5-1.6-3.2-3-5.2-4.1c-1.9-1-4-1.6-6.2-1.7c-0.6,0-1.3,0-1.9,0.1c-0.2,0-0.4,0.1-0.5,0.1
				C188.7,117.8,188.6,117.8,188.5,117.9z"/>
			<path class="st7" d="M193.8,125.2c0.1,0,0.3,0,0.4-0.1c0.3-0.1,0.6-0.1,1.1-0.2c0.5-0.1,1-0.1,1.6-0.2l0.5,0c0.2,0,0.3,0,0.5,0
				c0.3,0,0.7,0.1,1,0.1c0.3,0,0.7,0.1,1,0.2c0.3,0.1,0.7,0.1,1,0.2c0.6,0.1,1.1,0.3,1.6,0.4l1.1,0.3c0.1,0,0.3,0.1,0.4,0.1
				c0,0,0,0-0.1,0l-0.3-0.1c-0.2-0.1-0.6-0.2-1.1-0.3c-0.5-0.1-1-0.3-1.6-0.5c-0.3-0.1-0.6-0.2-1-0.2c-0.3-0.1-0.7-0.1-1-0.2
				c-0.4,0-0.7-0.1-1.1-0.1c-0.2,0-0.3,0-0.5,0l-0.5,0c-0.6,0-1.1,0.1-1.7,0.2c-0.5,0.1-0.8,0.2-1.1,0.2L193.8,125.2L193.8,125.2z"
				/>
			<path class="st7" d="M203.5,124.3c0-0.1,0-0.1,0-0.2c0-0.1,0.1-0.3,0.1-0.5c0-0.1,0-0.2,0.1-0.3s0.1-0.3,0.1-0.4
				c0.1-0.3,0.1-0.6,0.3-1c0.1-0.2,0.1-0.4,0.2-0.5c0.1-0.2,0.1-0.4,0.2-0.6c0.1-0.4,0.3-0.8,0.5-1.3c0.5-0.9,1-1.9,1.6-2.7
				c0.6-0.9,1.3-1.7,2.1-2.4c0.4-0.3,0.7-0.7,1-0.9c0.2-0.1,0.3-0.3,0.5-0.4l0.5-0.4c0.3-0.2,0.6-0.4,0.8-0.6
				c0.1-0.1,0.2-0.2,0.3-0.2l0.3-0.2l0.4-0.3l0.1-0.1c-0.1,0-0.1,0-0.1,0.1l-0.4,0.2l-0.3,0.2l-0.3,0.2c-0.2,0.2-0.5,0.3-0.8,0.6
				l-0.5,0.3c-0.2,0.1-0.3,0.3-0.5,0.4c-0.3,0.3-0.7,0.6-1,0.9c-0.7,0.8-1.4,1.6-2.1,2.4c-0.6,0.9-1.1,1.8-1.6,2.8
				c-0.2,0.5-0.4,0.9-0.5,1.3c-0.1,0.2-0.2,0.4-0.2,0.6l-0.2,0.6c-0.1,0.4-0.2,0.7-0.3,1c0,0.1-0.1,0.3-0.1,0.4l-0.1,0.3l-0.1,0.5
				C203.6,124.2,203.6,124.2,203.5,124.3z"/>
			<path class="st7" d="M206.9,113.7c-0.1,0.1-0.2,0.2-0.3,0.3c-0.1,0.1-0.2,0.2-0.3,0.4c-0.1,0.2-0.3,0.3-0.4,0.6
				c-0.3,0.5-0.6,1-0.9,1.5c-0.3,0.7-0.6,1.3-0.8,2c-0.2,0.7-0.4,1.4-0.5,2.1c-0.1,0.6-0.1,1.2-0.2,1.8c0,0.3,0,0.5,0,0.7
				c0,0.2,0,0.4,0,0.5c0,0.1,0,0.3,0,0.4c0-0.1,0-0.3,0-0.4c0-0.1,0-0.3,0-0.5c0-0.2,0-0.4,0-0.7c0-0.6,0.1-1.2,0.2-1.8
				c0.1-0.7,0.3-1.4,0.5-2.1c0.2-0.7,0.5-1.4,0.8-2c0.3-0.5,0.5-1,0.8-1.5c0.1-0.2,0.3-0.4,0.4-0.6c0.1-0.2,0.2-0.3,0.3-0.4
				C206.7,113.9,206.8,113.8,206.9,113.7z"/>
			<path class="st7" d="M220.4,125c0,0-0.1-0.1-0.1-0.1c-0.1-0.1-0.2-0.2-0.4-0.3c-0.5-0.4-1-0.7-1.5-1c-1.4-0.8-2.9-1.3-4.5-1.4
				c-1.6-0.2-3.2,0-4.7,0.5c-0.9,0.3-1.7,0.7-2.5,1.2c-0.5,0.3-1,0.7-1.5,1.1c-0.2,0.1-0.3,0.3-0.4,0.3c-0.1,0.1-0.1,0.1-0.1,0.1
				l0.1-0.1c0.1-0.1,0.2-0.2,0.4-0.3c1.2-1,2.5-1.7,4-2.2c1.5-0.5,3.1-0.6,4.7-0.5c1.6,0.2,3.1,0.6,4.5,1.4c0.5,0.3,1.1,0.6,1.5,1
				c0.2,0.1,0.3,0.2,0.4,0.3C220.3,124.9,220.3,125,220.4,125z"/>
			<path class="st6" d="M185.3,189.2c-15,2.8-20.8,4.9-22.5,4.7c-1.7-0.3-54.5-11.6-76.5-5.5c-22,6.1-46.8,18.6-46.8,18.6
				l180.5-15.8C219.9,191.2,200.2,186.4,185.3,189.2z"/>
			<path class="st7" d="M128.7,199.1c-50.9,4.5-89.2,7.8-89.2,7.8c0,0,38.3-3.2,89.2-7.6c50.9-4.5,92.2-8.1,92.2-8.2
				C220.8,191.1,179.6,194.7,128.7,199.1z"/>
			<path class="st7" d="M232.2,190.2c0,0.1-44.9,4-100.4,8.9c-55.4,4.8-100.4,8.7-100.4,8.7c0-0.1,44.9-4,100.4-8.9
				C187.3,194,232.2,190.1,232.2,190.2z"/>
			<path class="st9" d="M233,239.3c0,0.1-42.7,3.9-95.5,8.5C84.8,252.4,42,256.1,42,256c0-0.1,42.7-3.9,95.5-8.5
				C190.3,242.9,233,239.2,233,239.3z"/>
			<path class="st9" d="M52.3,79.1c0,0-0.3-0.1-0.8-0.1c-0.7-0.1-1.4-0.1-2.1,0.1c-1,0.2-2,0.7-2.8,1.5c-0.9,0.9-1.5,2.1-1.7,3.4
				l0,0l0,0.2L44.7,84c-0.6-1.2-1.5-2.1-2.7-2.7c-0.9-0.5-2-0.7-3-0.7c-0.7,0-1.4,0.1-2.1,0.4c-0.5,0.2-0.7,0.3-0.7,0.3
				c0.1,0,0.1-0.1,0.2-0.1c0.2-0.1,0.4-0.2,0.5-0.2c0.7-0.3,1.4-0.4,2.1-0.4c1.1,0,2.2,0.2,3.1,0.7c1.2,0.6,2.1,1.6,2.7,2.8l-0.1,0
				l0,0c0.2-1.3,0.8-2.5,1.8-3.5c0.8-0.8,1.8-1.3,2.8-1.5c0.7-0.2,1.4-0.2,2.2-0.1c0.2,0,0.4,0.1,0.6,0.1L52.3,79.1z"/>
			<path class="st9" d="M68.8,85.6c0,0-0.2,0-0.4-0.1c-0.4,0-0.8,0-1.2,0.1c-0.6,0.1-1.1,0.4-1.5,0.8c-0.5,0.5-0.8,1.1-0.9,1.8
				l0,0.2l-0.1-0.2c-0.3-0.6-0.8-1.1-1.5-1.5c-0.5-0.3-1.1-0.4-1.6-0.4c-0.4,0-0.8,0.1-1.1,0.2c-0.3,0.1-0.4,0.2-0.4,0.2
				c0,0,0,0,0.1-0.1c0.1-0.1,0.2-0.1,0.3-0.1c0.4-0.2,0.8-0.2,1.2-0.3c0.6,0,1.2,0.1,1.7,0.4c0.7,0.3,1.2,0.9,1.5,1.5l-0.1,0
				c0.1-0.7,0.5-1.4,1-1.9c0.4-0.3,0.8-0.6,1.3-0.7c0.5-0.1,1-0.2,1.5-0.1c0.1,0,0.2,0,0.3,0.1C68.8,85.5,68.8,85.6,68.8,85.6z"/>
			<path class="st9" d="M60.4,68.7c0,0-0.1,0.2-0.4,0.5c-0.3,0.5-0.6,0.9-0.9,1.4c-0.8,1.7-1.2,3.5-1,5.4l0,0.1L58,76
				c-0.2-1-0.6-1.9-1.2-2.8c-0.8-1.2-1.8-2.1-3-2.8c-0.3-0.2-0.5-0.3-0.5-0.3c0.1,0,0.1,0,0.2,0.1c0.1,0,0.2,0.1,0.4,0.2
				c0.5,0.3,1,0.6,1.4,0.9c1.4,1.2,2.5,2.8,2.9,4.6L58,76l0-0.1c-0.2-1.9,0.2-3.7,1.1-5.4c0.3-0.5,0.6-1,0.9-1.4
				c0.1-0.2,0.2-0.3,0.3-0.3C60.3,68.7,60.4,68.6,60.4,68.7z"/>
			<path class="st10" d="M205.9,63.8c1.3-6.9-3.2-13.5-10.1-14.8c-6.9-1.3-13.5,3.2-14.8,10.1c-1.3,6.9,3.2,13.5,10.1,14.8
				C198,75.2,204.6,70.6,205.9,63.8z"/>
			<g class="st11">
				<path class="st2" d="M205.9,63.8c1.3-6.9-3.2-13.5-10.1-14.8c-6.9-1.3-13.5,3.2-14.8,10.1c-1.3,6.9,3.2,13.5,10.1,14.8
					C198,75.2,204.6,70.6,205.9,63.8z"/>
			</g>
			<path class="st10" d="M194.4,72.7c6.2-0.5,10.8-6,10.3-12.3c-0.5-6.2-6-10.8-12.3-10.3c-6.2,0.5-10.8,6-10.3,12.3
				C182.7,68.6,188.2,73.2,194.4,72.7z"/>
			<g class="st12">
				<path class="st2" d="M194.4,72.7c6.2-0.5,10.8-6,10.3-12.3c-0.5-6.2-6-10.8-12.3-10.3c-6.2,0.5-10.8,6-10.3,12.3
					C182.7,68.6,188.2,73.2,194.4,72.7z"/>
			</g>
			<path class="st10" d="M202.9,61.4c0-5.2-4.2-9.4-9.4-9.4c-5.2,0-9.4,4.2-9.4,9.4c0,5.2,4.2,9.4,9.4,9.4
				C198.7,70.8,202.9,66.6,202.9,61.4z"/>
			<g class="st13">
				<path class="st2" d="M202.9,61.4c0-5.2-4.2-9.4-9.4-9.4c-5.2,0-9.4,4.2-9.4,9.4c0,5.2,4.2,9.4,9.4,9.4
					C198.7,70.8,202.9,66.6,202.9,61.4z"/>
			</g>
			<path class="st10" d="M201,61.7c0.1-4.2-3.1-7.7-7.3-7.8c-4.2-0.1-7.7,3.1-7.8,7.3c-0.1,4.2,3.1,7.7,7.3,7.8
				C197.4,69.1,200.9,65.8,201,61.7z"/>
			<path class="st9" d="M133.8,86.2c1.2-0.2,2.4-0.8,3.2-1.8c0.8-1,1.2-2.2,1.2-3.4c0-1.3-0.6-2.4-1.4-3.3c-0.9-0.9-2-1.5-3.3-1.5
				c0.6-1,0.8-2.1,0.7-3.2c-0.1-1.1-0.6-2.2-1.3-3c-0.7-0.8-1.7-1.4-2.8-1.6c-1.1-0.2-2.2-0.1-3.3,0.3c-0.3-1.1-0.9-2-1.7-2.8
				c-0.8-0.8-1.8-1.3-2.8-1.6c-1.1-0.3-2.2-0.3-3.2,0c-1.1,0.3-2,0.9-2.8,1.6c-1.4-0.7-3.1-0.8-4.6-0.5c-1.5,0.4-2.9,1.2-3.9,2.5
				c-1.1,0.1-2.1,0.5-2.9,1.2c-0.8,0.7-1.4,1.7-1.7,2.7c-0.2,1.1-0.1,2.2,0.3,3.2c0.4,1,1.2,1.8,2.1,2.4"/>
			<path class="st14" d="M107.8,73.1l1.1-0.3c5.3-1.4,10.8-0.7,15.6,1.9c4.8,2.6,8.4,6.9,10.2,12c3.4,9.9,7.1,20.9,8.4,26.3
				c2.8,11.3-8,15.9-8,15.9l4.4,13.3l-7.6,11.3l-19.9-5.1l-15-48.4C93,88.7,96.3,76.8,107.8,73.1z"/>
			<path class="st15" d="M135.1,129c0,0-7,2.2-15.7-0.6c0,0,5.7,7.2,16.7,3.3L135.1,129z"/>
			<path class="st9" d="M132.3,81.9c0,0-4.8-6.3-8.6-7.1c-4.6-0.9-5.2,4-9.4,3.9c-4.2-0.1-8.6-1-11.8,3.1c-3.5,4.4-0.9,6.3,0.1,11.3
				c4.1,20.5,1.9,27.2-1.6,17.9c-0.4-1-3.5-1.1-5.1-5.4c-2-5.6-4-12.5-3.8-16.8c0.2-3.7,1.5-6.6,4.4-10.1c4.5-5.5,12-7.6,17.3-8.4
				C119.1,69.6,130.5,72.9,132.3,81.9z"/>
			<path class="st14" d="M101.6,110.5c-0.1-0.4-0.3-0.8-0.6-1.1c-0.3-0.3-0.6-0.6-1-0.8c-0.4-0.2-0.8-0.3-1.2-0.3
				c-0.4,0-0.9,0-1.3,0.2c-2,0.7-4.1,2.5-2.8,6.8c2.2,7.6,9.4,3.8,9.4,3.6C104,118.7,102.6,113.7,101.6,110.5z"/>
			<path class="st15" d="M101.6,116.5c0,0-0.1,0.1-0.3,0.3c-0.3,0.2-0.6,0.3-1,0.3c-0.9-0.1-1.9-1.2-2.4-2.5c-0.2-0.6-0.3-1.3-0.2-2
				c0-0.3,0.1-0.5,0.2-0.7c0.1-0.2,0.3-0.4,0.5-0.6c0.1-0.1,0.3-0.1,0.5-0.1c0.2,0,0.3,0.1,0.4,0.2c0.2,0.2,0.2,0.3,0.2,0.4
				c0,0,0.1-0.2,0-0.5c-0.1-0.2-0.2-0.3-0.4-0.4c-0.3-0.1-0.5-0.1-0.8,0c-0.6,0.2-0.9,0.9-1,1.6c-0.1,0.8-0.1,1.5,0.2,2.3
				c0.5,1.5,1.7,2.7,2.9,2.7c0.2,0,0.4,0,0.6-0.1c0.2-0.1,0.4-0.2,0.5-0.4C101.7,116.7,101.6,116.5,101.6,116.5z"/>
			<path class="st9" d="M97.9,95.6c1.2,0.4,2.4,0.9,3.6,0.7c1.2-0.2,2.4-1.2,2.3-2.5c0-0.6-0.3-1.1-0.1-1.6c0.3-0.6,1.1-0.6,1.8-0.7
				c2.3-0.3,4.3-3.5,4.3-5.8c0.4,0.3,0.9,0.5,1.4,0.5c0.5,0,1-0.2,1.4-0.6c0.6-0.6,1.1-1.3,1.4-2.1c0.5-0.9,1.2-1.9,2.3-2
				c0.6-0.1,1.2,0.1,1.8-0.1c1-0.4,1.2-1.7,1.1-2.7c-0.1-1-0.3-2.2,0.4-3c0.7-0.8,1.8-0.7,2.7-0.8c1-0.1,2.1-0.6,2.1-1.6
				c0-0.3-0.1-0.5-0.2-0.7c-0.1-0.2-0.3-0.4-0.5-0.6c-0.9-0.8-2-1.2-3.1-1.3c-1.2-0.1-2.3,0.3-3.2,0.9c-0.7-1.2-1.7-2.1-3-2.7
				c-1.2-0.6-2.6-0.8-4-0.6c-1.4,0.2-2.6,0.8-3.7,1.7c-1,0.9-1.7,2.1-2.1,3.5c-1-0.5-2.1-0.8-3.3-0.8c-1.1,0-2.3,0.3-3.3,0.8
				c-1,0.5-1.9,1.3-2.5,2.2c-0.7,0.9-1.1,2-1.2,3.1c-1,0-2,0.3-2.8,0.8c-0.8,0.5-1.5,1.3-1.9,2.3c-0.4,0.9-0.5,1.9-0.3,2.9
				c0.2,1,0.6,1.9,1.3,2.6c-1.2,1.1-2,2.8-1.6,4.4c0.4,1.6,2.3,2.8,3.8,2c-0.2,0.7,0,1.5,0.3,2.1c0.4,0.6,1,1.1,1.7,1.3
				s1.4,0.1,2.1-0.2c0.6-0.3,1.1-0.9,1.4-1.6"/>
			<path class="st16" d="M118.6,73.7c0,0,0,0.1,0,0.1c0,0.1,0,0.2,0,0.4c0,0.5,0,1.1-0.2,1.6c-0.2,0.8-0.7,1.6-1.2,2.3
				c-0.8,0.9-1.8,1.5-2.9,1.7l0.1-0.2c0.4,0.6,0.6,1.4,0.4,2.2c-0.2,0.8-0.4,1.5-0.8,2.2c-0.2,0.4-0.4,0.8-0.6,1.1
				c-0.3,0.3-0.7,0.6-1.1,0.8c-0.4,0.2-0.9,0.3-1.4,0.2c-0.5,0-0.9-0.2-1.3-0.5l0.3-0.2c0.1,0.8,0,1.6-0.2,2.4
				c-0.2,0.8-0.6,1.5-1.2,2.2c-0.6,0.7-1.4,1.2-2.3,1.5c-0.9,0.2-1.8,0.2-2.6,0.1l0.2-0.1c-0.2,1-0.6,2-1.2,2.8
				c-0.3,0.4-0.7,0.7-1.1,1c-0.4,0.2-0.9,0.4-1.4,0.4c-0.9,0-1.7-0.2-2.4-0.6c-0.7-0.4-1.3-1.1-1.7-1.8l0.2,0
				c-0.7,0.6-1.6,1-2.6,1.1c-0.7,0-1.4-0.1-2.1-0.3c-0.4-0.2-0.8-0.4-1.1-0.7c-0.1-0.1-0.2-0.2-0.3-0.3c0.4,0.4,0.9,0.7,1.4,0.9
				c0.6,0.2,1.3,0.3,2,0.3c0.9-0.1,1.7-0.4,2.4-1L96,93l0.1,0.2c0.4,0.7,0.9,1.3,1.6,1.7c0.7,0.4,1.5,0.6,2.3,0.6
				c0.5,0,0.9-0.2,1.3-0.4c0.4-0.2,0.7-0.5,1-0.9c0.6-0.8,1-1.7,1.1-2.7l0-0.2l0.2,0c0.8,0.1,1.7,0.1,2.5-0.1
				c0.8-0.2,1.6-0.7,2.1-1.4c0.5-0.6,0.9-1.3,1.1-2c0.2-0.8,0.3-1.5,0.2-2.3l0-0.4l0.3,0.2c0.3,0.2,0.7,0.4,1.2,0.4
				c0.4,0,0.8,0,1.2-0.2c0.4-0.1,0.7-0.4,1-0.7c0.2-0.3,0.4-0.7,0.6-1c0.4-0.7,0.7-1.4,0.8-2.1c0.1-0.3,0.1-0.7,0-1
				c-0.1-0.3-0.2-0.7-0.4-0.9l-0.1-0.2l0.2,0c1.1-0.2,2.1-0.8,2.8-1.6c0.6-0.6,1-1.4,1.3-2.2C118.6,75.1,118.7,74.4,118.6,73.7z"/>
			<path class="st9" d="M133.8,99.8c0.1,0.4,0,0.9-0.2,1.2c-0.2,0.4-0.6,0.6-1,0.8c-0.2,0.1-0.4,0.1-0.6,0.1c-0.2,0-0.4-0.1-0.6-0.2
				c-0.2-0.1-0.4-0.2-0.5-0.4c-0.1-0.2-0.2-0.4-0.3-0.6c-0.1-0.4,0-0.9,0.2-1.2c0.2-0.4,0.6-0.6,1-0.8c0.2-0.1,0.4-0.1,0.6-0.1
				c0.2,0,0.4,0.1,0.6,0.2c0.2,0.1,0.4,0.2,0.5,0.4C133.6,99.4,133.7,99.6,133.8,99.8z"/>
			<path class="st9" d="M134.7,92.5c-0.1,0.3-1.6-0.3-3.3,0.1c-1.7,0.4-2.8,1.6-3,1.4c-0.1-0.1,0-0.5,0.5-1c0.6-0.7,1.4-1.2,2.4-1.4
				c0.9-0.2,1.8-0.1,2.7,0.2C134.5,92,134.8,92.4,134.7,92.5z"/>
			<path class="st9" d="M121.2,112.4c0.3-0.1,1,1.3,2.6,2.1c1.6,0.8,3.1,0.6,3.2,0.9c0,0.1-0.3,0.4-1,0.5c-0.9,0.1-1.9,0-2.7-0.5
				c-0.8-0.4-1.5-1.1-1.9-1.9C121.1,112.9,121.1,112.5,121.2,112.4z"/>
			<path class="st9" d="M119.1,103c0.1,0.4,0,0.9-0.2,1.2c-0.2,0.4-0.6,0.6-1,0.8c-0.2,0.1-0.4,0.1-0.6,0.1c-0.2,0-0.4-0.1-0.6-0.2
				c-0.2-0.1-0.4-0.2-0.5-0.4c-0.1-0.2-0.2-0.4-0.3-0.6c-0.1-0.4,0-0.9,0.2-1.2c0.2-0.4,0.6-0.6,1-0.8c0.2-0.1,0.4-0.1,0.6-0.1
				c0.2,0,0.4,0.1,0.6,0.2c0.2,0.1,0.4,0.2,0.5,0.4C118.9,102.6,119,102.8,119.1,103z"/>
			<path class="st9" d="M117.8,97c-0.1,0.3-1.6-0.3-3.3,0.1c-1.7,0.4-2.8,1.6-3,1.4c-0.1-0.1,0-0.5,0.4-1c0.6-0.7,1.4-1.2,2.4-1.4
				c0.9-0.2,1.8-0.1,2.7,0.2C117.6,96.6,117.9,96.9,117.8,97z"/>
			<path class="st9" d="M127.3,108.8c0-0.1,1-0.5,2.7-1.2c0.4-0.2,0.8-0.3,0.8-0.7c0-0.3-0.3-0.8-0.6-1.2l-2.1-3
				c-3-4.3-5.3-8-5.1-8.1c0.2-0.1,2.7,3.3,5.7,7.6l2.1,3.1c0.3,0.5,0.7,1,0.7,1.7c0,0.2-0.1,0.3-0.2,0.5c-0.1,0.1-0.2,0.3-0.4,0.3
				c-0.2,0.1-0.5,0.2-0.7,0.3C128.4,108.6,127.3,108.9,127.3,108.8z"/>
			<path class="st9" d="M117.1,90.2c0,0.5-1.8,0.8-3.8,1.6c-1.9,0.8-3.4,1.8-3.8,1.5c-0.2-0.2,0-0.7,0.5-1.3
				c0.7-0.8,1.6-1.4,2.6-1.8c1-0.4,2.1-0.6,3.1-0.5C116.6,89.7,117.1,89.9,117.1,90.2z"/>
			<path class="st9" d="M132,86.8c-0.2,0.5-1.6,0.4-3.1,0.8c-1.5,0.4-2.7,1-3.1,0.7c-0.2-0.2-0.1-0.6,0.4-1.1
				c0.6-0.6,1.5-1.1,2.4-1.3c0.9-0.2,1.8-0.2,2.7,0.1C131.9,86.3,132.1,86.6,132,86.8z"/>
			<path class="st16" d="M92.3,148.2l16.7-9.6c0,0,4.8,7.1,17,4.3c9-2.1,10.6-9.5,10.6-9.5l20,0.9l17.7,49l0.6,21.6l4.7,39.2
				l-75.7,6.6c-1-1.5-0.5-2.6,0.7-4.2l0.1-16.1l-16.4-56.7L92.3,148.2z"/>
			<g class="st13">
				<path d="M105.3,235.7c4.5-2.3,7-7.2,8.6-12c2.3-7.1,3.4-14.5,3.3-21.9c0-1.3-0.1-2.6-0.8-3.6c-1.1-1.7-3.3-2.1-5.3-2.1
					c-2,0.1-4,0.5-6,0l-1.2,31.6L105.3,235.7z"/>
			</g>
			<g class="st13">
				<path d="M127,217c6.3,6.4,14.6,10.4,23.6,11.5c8.9,1,18-1,25.6-5.7l-0.6-12.3l-27.9,10.8L127,217z"/>
			</g>
			<path class="st6" d="M114.4,185.4c0,0-0.9-0.4,1.3-4.5c2.2-4.1,7.6-8,7.8-8.2c0.2-0.1,6-1.7,6-1.7s13.6-0.3,13.7-0.4l6.4,2.4
				l5.1,3.1c0,0,3.8,5.2,3.9,5.4c0.1,0.2-1.1,4.5-1.1,4.5s-5.9,4.5-6.1,4.5c-0.2,0-11.2,0.1-11.2,0.1l-12.3,1.3l-9.4-2.4
				L114.4,185.4z"/>
			<path class="st10" d="M114.3,183.6c0,0-2.9,11.7,2.4,21.1c5.3,9.4,13.9,12.3,23.7,11.5c6-0.5,14.6-2.3,18-11.4
				c3.4-9.1,2.8-18.2,0.2-23.4c0,0-0.8,6.6-8.8,5.7c-8-0.9-10.6-2.7-10.6-2.7s-6.3,6-14.3,4.5c-8-1.5-10-5.4-10-5.4l-0.5-0.2
				L114.3,183.6z"/>
			<g class="st17">
				<path d="M156.6,187.9c0.8,5.2,0.9,10.5,0.5,15.8C159,199.2,158.1,192.7,156.6,187.9z"/>
			</g>
			<g class="st17">
				<path d="M122.3,205.7c-2-4.9-3.5-10-4.3-15.2C117.3,195.4,119.8,201.5,122.3,205.7z"/>
			</g>
			<g class="st17">
				<path d="M150.4,192.1c0.1,5.3-0.3,10.6-1.4,15.8C151.4,203.6,151.3,197,150.4,192.1z"/>
			</g>
			<g class="st17">
				<path d="M128.7,201c-0.3,1.4-0.4,2.8-0.2,4.1c0.3,1.4,1,2.6,2.2,3.5C129.7,206.2,129,203.6,128.7,201z"/>
			</g>
			<g class="st17">
				<path d="M153.7,190.3c0.7,1.2,1.2,2.5,1.4,3.9c0.1,1.4-0.2,2.8-1.1,4C154.2,195.6,154.1,192.9,153.7,190.3z"/>
			</g>
			<g class="st17">
				<path d="M130.1,191.5c-0.3,1.6-0.3,3.1-0.1,4.7c0.2,1.5,0.9,2.9,2,4C131,197.4,130.4,194.5,130.1,191.5z"/>
			</g>
			<g class="st17">
				<path d="M140.7,198.4c-0.3,1.6-0.3,3.1-0.1,4.7c0.2,1.5,0.9,2.9,2,4C141.6,204.3,141,201.4,140.7,198.4z"/>
			</g>
			<g class="st17">
				<path d="M123.4,196.2c-0.3,1.1-0.3,2.2-0.2,3.3c0.2,1.1,0.8,2.1,1.7,2.7C124.2,200.2,123.7,198.2,123.4,196.2z"/>
			</g>
			<path class="st18" d="M125.6,174.6c0.3,0,9.2,0.7,9.2,0.7l7.4-3.2l-6.4-0.4l-7.2,0.6L125.6,174.6z"/>
			<path class="st7" d="M139.1,184.4l-4.2-9.1l7.4-3.2l7.3,1l5.1,3.1l3.9,5.4c0,0-0.9,5.8-7.3,5.6
				C145,186.9,139.1,184.4,139.1,184.4z"/>
			<path class="st7" d="M116.2,179.9l9.4-5.3l3-2.3l-5.3,0.4C123.4,172.7,118,176.6,116.2,179.9z"/>
			<g class="st17">
				<path d="M158.4,204.7c0.4-0.9,0.7-1.9,0.9-2.8c-1.6,2.5-3.3,4.8-5.2,7.1l-0.7-3.5c-0.6,2.1-1.7,4-3.3,5.5s-3.5,2.5-5.7,3
					c-4.3,0.9-10.5-0.7-11.6-4.3c-0.5,1-0.7,2-0.8,3.1c-2.3-2.5-4.4-5.2-6.3-8.1c-0.2,2.3-0.2,4.5,0.4,6.6
					c-7.8-6.2-11.9-16.7-10.4-26.5c-0.2-0.2-0.5-0.5-0.7-0.8l-0.8-0.5l0,0.1c0,0-2.9,11.7,2.4,21.1c5.3,9.4,13.9,12.3,23.7,11.5
					C146.4,215.6,155,213.8,158.4,204.7z"/>
			</g>
			<path class="st9" d="M139.1,184.4c-0.1,0.1-0.1,0.1-0.2,0.2c-0.1,0.1-0.3,0.3-0.6,0.5c-0.8,0.6-1.6,1.1-2.4,1.6
				c-1.2,0.7-2.6,1.3-3.9,1.7c-0.8,0.3-1.6,0.4-2.5,0.6c-0.9,0.1-1.8,0.2-2.7,0.2c-1.8,0-3.5-0.4-5.2-1c-2.3-0.8-4.4-2-6.1-3.7
				c-0.3-0.2-0.4-0.4-0.6-0.6c-0.1-0.1-0.1-0.1-0.2-0.2c0.1,0,0.1,0.1,0.2,0.2c0.1,0.1,0.3,0.3,0.6,0.5c0.7,0.6,1.5,1.2,2.3,1.7
				c1.2,0.8,2.5,1.4,3.8,1.8c1.6,0.6,3.4,0.9,5.1,0.9c0.9,0,1.8,0,2.7-0.2c0.8-0.1,1.6-0.3,2.5-0.5c1.4-0.4,2.7-0.9,3.9-1.6
				c0.8-0.5,1.7-1,2.4-1.5c0.3-0.2,0.5-0.4,0.6-0.5C139,184.5,139,184.4,139.1,184.4z"/>
			<path class="st9" d="M138.5,183.3c-0.2-0.3-0.5-0.7-0.6-1.1c-0.4-0.7-0.9-1.7-1.3-2.8c-0.5-1.1-0.9-2.1-1.2-2.8
				c-0.2-0.4-0.3-0.8-0.4-1.2c0.2,0.4,0.4,0.8,0.5,1.2c0.3,0.7,0.7,1.7,1.2,2.8c0.5,1.1,0.9,2.1,1.3,2.8
				C138.2,182.5,138.4,182.9,138.5,183.3z"/>
			<path class="st9" d="M134.9,175.3c-0.5,0-0.9,0-1.4-0.1l-3.3-0.2l-3.3-0.2c-0.4,0-0.9-0.1-1.3-0.1c0.5,0,0.9,0,1.4,0
				c0.8,0,2,0.1,3.3,0.2c1.3,0.1,2.4,0.2,3.3,0.3C134,175.1,134.4,175.1,134.9,175.3z"/>
			<path class="st9" d="M158.3,182.5c0,0,0,0.1-0.1,0.2c-0.1,0.1-0.1,0.3-0.2,0.5c-0.3,0.7-0.7,1.3-1.2,1.8
				c-0.7,0.8-1.7,1.4-2.7,1.7c-1.3,0.4-2.6,0.5-3.9,0.4c-2.4-0.3-4.7-0.7-7-1.3c-0.9-0.2-1.6-0.4-2.1-0.6l-0.6-0.2
				c-0.1,0-0.1,0-0.2-0.1c0.3,0,0.5,0.1,0.8,0.2l2.1,0.5c2.3,0.5,4.6,1,7,1.2c1.3,0.2,2.6,0,3.8-0.3c1-0.3,1.9-0.9,2.6-1.7
				C157.4,184.2,157.9,183.4,158.3,182.5z"/>
			<path class="st9" d="M121.8,176.7c-0.6,0.5-1.2,0.9-1.9,1.3c-0.6,0.4-1.3,0.8-2,1.1c0.6-0.5,1.2-0.9,1.9-1.3
				C120.4,177.4,121.1,177,121.8,176.7z"/>
			<path class="st9" d="M146.5,172.6c-0.7,0.1-1.4,0.1-2.1,0c-0.7,0-1.4-0.2-2-0.5c0.7,0,1.4,0.1,2,0.2
				C145.1,172.4,145.8,172.5,146.5,172.6z"/>
			<path class="st9" d="M136.6,203.9c-0.2-0.3-0.4-0.7-0.6-1.1c-0.4-0.9-0.8-1.8-1-2.7c-0.3-0.9-0.5-1.9-0.7-2.8
				c-0.1-0.4-0.1-0.8-0.1-1.2c0.1,0.4,0.2,0.8,0.3,1.2c0.2,0.7,0.4,1.7,0.7,2.8c0.3,1.1,0.7,2,1,2.7
				C136.3,203.1,136.5,203.5,136.6,203.9z"/>
			<path class="st9" d="M133.9,194.3c-0.1,0-0.1-0.1-0.1-0.3c0-0.2,0-0.3,0.1-0.3c0.1,0,0.1,0.1,0.1,0.3
				C134,194.1,133.9,194.3,133.9,194.3z"/>
			<path class="st9" d="M153.6,205.3c-0.1,0,0.3-1.1,0.4-2.4c0.1-1.4,0-2.5,0.1-2.5C154.5,202,154.3,203.8,153.6,205.3z"/>
			<path class="st9" d="M154.5,198.5c0.1,0,0,0.2,0,0.3c0,0.2,0,0.3-0.1,0.3c-0.1,0-0.2-0.1-0.1-0.4
				C154.3,198.6,154.5,198.5,154.5,198.5z"/>
			<path class="st7" d="M145.6,156.4l0.3-1.1c0.1-0.3,0-0.5-0.1-0.8c-0.1-0.2-0.3-0.4-0.6-0.5c-0.1,0-0.3-0.1-0.4-0.1
				c-0.1,0-0.3,0-0.4,0.1c-0.1,0.1-0.2,0.2-0.3,0.3c-0.1,0.1-0.2,0.2-0.2,0.4l-0.4,1.4L145.6,156.4z"/>
			<path class="st19" d="M142.1,165c0,0.1-3.4,8.6-3.4,8.6l-1.5,0.6l4-10L142.1,165z"/>
			<path class="st10" d="M143.6,155.6l1.4,0.4l0.7,0.2l10.4,11.2c-0.3,0.1-0.7,0.2-1,0.2c-0.2-0.1-0.3,0.1-0.7,0.2
				c-0.4,0.1-0.6-0.4-1-0.2c-0.5,0.1-0.8,0.4-1.1,0c-0.3-0.4-0.9-0.1-1.4,0c-0.5,0.1-0.8-0.2-1.3-0.6c-0.5-0.4-1.2,0.5-2.1-0.1
				c-0.7-0.4-0.6-0.6-1.8-0.4c-0.9,0.2-1-0.2-1.5-0.8c-0.5-0.6-1-0.2-1.8-0.1c-0.2,0-0.3,0-0.4-0.1c-0.2,0.1-0.3,0.1-0.5,0.1
				c-0.2,0-0.3-0.1-0.5-0.2c-0.6-0.6-0.8-1.2-1.5-1c-0.8,0.2-1.1,0.4-1.7-0.2c-0.8-0.8-0.9-0.6-1.7-0.7c-1.1-0.1-1.1-1.2-1.7-1.2
				c-0.7,0-1.1,0.1-1.4-0.3c-0.3-0.4-0.7-1-1.1-0.8c-0.5,0.1-0.6-0.2-0.9-0.6c-0.3-0.4-0.7-0.1-1-0.4c-0.3-0.3-0.2-0.4-0.4-0.5
				c-0.3-0.2-0.5-0.5-0.7-0.8L143.6,155.6z"/>
			<path class="st9" d="M145.3,156.1c0,0,2.1,2.5,4.6,5.8c2.5,3.2,4.5,5.9,4.4,5.9s-2.1-2.5-4.6-5.8
				C147.2,158.7,145.3,156.1,145.3,156.1z"/>
			<path class="st9" d="M145,156c0.1,0,1.3,2.5,2.8,5.7c1.5,3.2,2.6,5.8,2.6,5.8c-0.1,0-1.3-2.5-2.8-5.7
				C146.1,158.6,144.9,156,145,156z"/>
			<path class="st9" d="M144.8,156c0.1,0,0.2,2.3,0.2,5.2c0.1,2.9,0.1,5.2,0,5.2c-0.1,0-0.2-2.3-0.2-5.2
				C144.8,158.3,144.8,156,144.8,156z"/>
			<path class="st9" d="M144.4,155.8c0.1,0-0.9,2-2.2,4.3c-1.2,2.3-2.3,4.2-2.4,4.2c-0.1,0,0.9-2,2.2-4.3
				C143.3,157.7,144.3,155.8,144.4,155.8z"/>
			<path class="st9" d="M144.1,155.7c0,0-1.9,1.8-4.3,3.8c-2.4,2.1-4.4,3.7-4.4,3.6c0,0,1.9-1.8,4.3-3.8
				C142.1,157.3,144.1,155.7,144.1,155.7z"/>
			<path class="st9" d="M132,161.1c0-0.1,2.6-1.3,5.9-2.8c3.3-1.5,5.9-2.7,6-2.6c0,0.1-2.6,1.3-5.9,2.8
				C134.7,160,132.1,161.2,132,161.1z"/>
			<path class="st9" d="M143.6,155.6c0,0.1-3.1,1.1-6.9,2.3c-3.8,1.2-7,2.1-7,2.1c0-0.1,3.1-1.1,6.9-2.3
				C140.4,156.4,143.6,155.5,143.6,155.6z"/>
			<path class="st10" d="M107.3,155.7l11.8,0.1c0.2,0,0.4,0.1,0.6,0.2c0.2,0.1,0.3,0.2,0.4,0.4c1.5,2.4,7.6,11.9,11.8,18.5l-2.2-0.2
				l-10.7-16.4c-0.1-0.2-0.3-0.3-0.4-0.4c-0.2-0.1-0.4-0.2-0.6-0.2l-10.8-0.1L107.3,155.7z"/>
			<path class="st9" d="M107.4,155.7c0,0,0.1,0.1,0.2,0.3c0.1,0.2,0.2,0.5,0.2,0.8c0,0.3-0.1,0.5-0.3,0.8c-0.1,0.2-0.2,0.3-0.2,0.2
				c0,0,0.1-0.1,0.2-0.3c0.1-0.2,0.2-0.5,0.2-0.7c0-0.3,0-0.5-0.1-0.8C107.5,155.9,107.4,155.8,107.4,155.7z"/>
			<path class="st9" d="M119.1,156.3c-0.1,0.3-0.2,0.5-0.3,0.8c-0.1,0.3-0.2,0.5-0.3,0.7c0-0.3,0.1-0.5,0.2-0.8
				C118.8,156.8,119,156.5,119.1,156.3z"/>
			<path class="st9" d="M119.8,156.2c-0.1,0.3-0.3,0.6-0.5,0.9c-0.2,0.3-0.4,0.6-0.6,0.8C119.1,157.3,119.4,156.7,119.8,156.2z"/>
			<path class="st9" d="M120.2,157c-0.2,0.2-0.4,0.4-0.6,0.6c-0.2,0.2-0.4,0.4-0.7,0.5c0.2-0.2,0.4-0.4,0.6-0.6
				C119.7,157.3,119.9,157.2,120.2,157z"/>
			<path class="st2" d="M145.9,189.5c0.1,0.2,0.1,0.4,0.2,0.6c0.1,0.4,0.2,1,0.2,1.7c0.1,0.8,0.1,1.7,0.1,2.5c0,0.2,0,0.5,0,0.7
				c0,0.3-0.1,0.5-0.2,0.8c-0.1,0.1-0.2,0.3-0.3,0.3c-0.1,0.1-0.3,0.1-0.4,0.1c-0.1,0-0.3-0.1-0.4-0.2c-0.1-0.1-0.2-0.2-0.3-0.3
				c-0.5-0.8-0.8-1.7-0.7-2.7l0.2,0c0,0.1,0,0.2-0.1,0.3c0,0.1-0.1,0.2-0.2,0.2c-0.2,0.1-0.3,0.2-0.5,0.2c-0.2,0-0.4,0-0.5-0.1
				c-0.2-0.1-0.3-0.2-0.4-0.3c-0.3-0.5-0.4-1-0.4-1.6c0-0.3,0-0.7,0-1c0-0.2-0.1-0.4-0.1-0.4c0.1,0.1,0.1,0.2,0.1,0.4
				c0.1,0.3,0.1,0.7,0.1,1.1c0,0.5,0.1,1,0.4,1.5c0.1,0.1,0.2,0.2,0.3,0.3c0.1,0.1,0.3,0.1,0.4,0.1c0.3,0,0.6-0.2,0.6-0.6l0.2,0
				c0,0.9,0.2,1.8,0.7,2.5c0.1,0.2,0.3,0.4,0.5,0.4c0.1,0,0.2,0,0.3-0.1c0.1-0.1,0.2-0.1,0.2-0.2c0.1-0.2,0.2-0.4,0.2-0.7
				c0-0.2,0-0.5,0-0.7c0-0.8,0-1.6,0-2.5c-0.1-0.7-0.1-1.3-0.1-1.7C145.9,189.9,145.9,189.7,145.9,189.5z"/>
			<path class="st2" d="M126.4,192.3c0.1,0.2,0.2,0.4,0.2,0.7c0,0.3,0,0.5-0.1,0.8c-0.1,0.2-0.2,0.3-0.3,0.4
				c-0.1,0.1-0.3,0.1-0.5,0.1c-0.2,0-0.3-0.1-0.5-0.2c-0.1-0.1-0.3-0.2-0.3-0.4c-0.1-0.2-0.2-0.5-0.2-0.8c0-0.2,0-0.5,0.1-0.7
				c0,0.2,0.1,0.5,0.1,0.7c0,0.2,0.1,0.5,0.2,0.7c0.1,0.1,0.2,0.2,0.3,0.3c0.1,0.1,0.2,0.1,0.4,0.2c0.1,0,0.3,0,0.4-0.1
				c0.1-0.1,0.2-0.2,0.3-0.3c0.1-0.2,0.2-0.4,0.2-0.7C126.4,192.8,126.4,192.5,126.4,192.3z"/>
			<path class="st2" d="M146.8,202.3c0.1,0.2,0.1,0.4,0.1,0.6c0,0.2,0,0.5-0.1,0.7c0,0.1-0.1,0.3-0.2,0.4c-0.1,0.1-0.2,0.2-0.3,0.3
				c-0.1,0.1-0.3,0.1-0.4,0.1c-0.2,0-0.3-0.1-0.4-0.2c-0.2-0.2-0.3-0.4-0.3-0.6c0-0.2,0-0.4,0.1-0.6c0,0,0,0.2,0.1,0.6
				c0,0.2,0.1,0.4,0.2,0.5c0.1,0.1,0.2,0.1,0.3,0.1c0.1,0,0.2,0,0.3-0.1c0.2-0.1,0.3-0.3,0.4-0.5c0.1-0.2,0.1-0.4,0.1-0.6
				C146.7,202.7,146.7,202.5,146.8,202.3z"/>
			<path class="st14" d="M155,194.3c0.2,0.3,2.2,2.9,3,5.1c0.9,2.2,0.7,5.5,0.6,7.2c-0.1,1.8-1.6,2.7-1.7,3.9
				c-0.1,1.3-0.1,5.2-0.1,5.2l-5.1,7.6c0,0-9.4-1.4-10.7-1.5c-1.3-0.1-12.1-4.4-12.9-4.7c-0.8-0.3-3.7,1.2-4.3,0.3
				c-0.6-0.9-4.6-8.2-4.9-9.1c-0.2-0.9,1.8-1,3,0.4c1.3,1.4,3.4,4.8,3.4,4.8l1.6-0.4c0,0-2.5-8.6-2-9.9c0.5-1.3,2.8-1.7,2.8-1.7
				s0.6-2.3,2.1-2.5c1.6-0.2,3.4,2,4.5,6.3c1,4.3,2.1,5.5,2.1,5.5l3.1,3.2c0,0-4.9-12.7-4.3-14.7c0.6-2,3.5-0.6,3.9,1
				s3.4,8.1,3.4,8.1s2,3.9,3.4,3.9c1.4,0,6.9-4.8,7.1-7.8c0.1-3-1.5-5.9-0.7-8.5C153.3,193.5,155,194.3,155,194.3z"/>
			<path class="st14" d="M153.4,211.9c0,0,7.8-5.1,12.6-9.7l5.5-5.4l-4-27L156,134.5c0,0,17.6,2.1,22.8,16.2
				c5.2,14,6.3,14.6,8.9,24.3c1.8,6.8,4.8,25.2,3.2,30.7c-1.6,5.5-7,8.8-10.7,9.7c-3.7,0.9-28.5,8-28.5,8l-3.4-5.8L153.4,211.9z"/>
			<path class="st15" d="M129.9,217.8c-0.3-0.1-0.5-0.3-0.7-0.5c-0.5-0.4-1-1-1.3-1.5c-0.4-0.6-0.6-1.2-0.8-1.9
				c-0.1-0.3-0.1-0.5-0.1-0.8C127.5,215,128.5,216.6,129.9,217.8z"/>
			<path class="st15" d="M136.7,217.5c-0.1,0-0.1,0-0.2,0c-0.1,0-0.3-0.1-0.5-0.2c-0.6-0.2-1.2-0.6-1.8-0.9
				c-1.8-1.3-3.3-3.1-4.2-5.2c-0.9-2.1-1.4-4.2-1.7-6.5c-0.1-0.9-0.2-1.5-0.2-2c0-0.2-0.1-0.5-0.1-0.7c0.1,0.2,0.1,0.5,0.1,0.7
				c0.1,0.5,0.2,1.2,0.3,2c0.3,2.2,0.9,4.4,1.8,6.4c0.9,2.1,2.3,3.8,4,5.2C135,216.7,135.8,217.2,136.7,217.5z"/>
			<path class="st15" d="M181.3,195.6c0,0-0.6-0.2-1.5-0.5c-0.5-0.1-1.1-0.2-1.7-0.3c-1.4-0.1-2.8,0.1-4.1,0.5
				c-0.5,0.2-1,0.4-1.5,0.7c-0.8,0.5-1.3,0.9-1.3,0.8c0.1-0.1,0.2-0.2,0.3-0.3c0.3-0.3,0.6-0.5,0.9-0.7c0.5-0.3,1-0.6,1.5-0.8
				c0.7-0.3,1.3-0.4,2-0.5c0.7-0.1,1.4-0.1,2.1,0c0.6,0.1,1.1,0.2,1.7,0.3c0.4,0.1,0.7,0.3,1.1,0.4
				C181.1,195.4,181.2,195.5,181.3,195.6z"/>
			<path class="st16" d="M155.8,134.2c0,0,20.8,0.1,26.2,17c5.9,18.7,7,23.5,7,23.5l-22.2,3.1L155.8,134.2z"/>
			<path class="st15" d="M157.5,216c0.1-0.4,0.2-0.8,0.3-1.2c0.2-0.9,0.4-1.9,0.5-2.8c0.1-1,0.1-1.9,0-2.9c0-0.4-0.1-0.8-0.1-1.2
				c0.1,0.4,0.2,0.8,0.2,1.2c0.2,1.9,0,3.9-0.5,5.8C157.8,215.2,157.7,215.6,157.5,216z"/>
			<path class="st9" d="M164,154.1c0.1,0,1.1,5,2.2,11.3c1.2,6.3,2.1,11.3,2,11.4c-0.1,0-1.1-5.1-2.2-11.3
				C164.8,159.2,163.9,154.1,164,154.1z"/>
			<path class="st14" d="M92.4,148.4c0,0-16,10.1-15.3,28.6c0.7,18.5,2.9,21.8,4,28.9c0.9,5.9,3.4,30.1,12.8,29.3
				c11.3-0.9,15.8-9.6,17.2-17.3c0.5-2.8-7.2-8.2-12-16.5c-0.1-0.2-2.3-15.2-2.3-15.2L92.4,148.4z"/>
			<path class="st14" d="M84.7,217.7c0,0,3.1-5.4,9.3-8.2l10.5-18.3c0,0,8.8,7.1,8.6,7.6c0,0-0.7,18.7-4.2,24.6
				c-3.5,5.9-11.5,10.8-11.5,10.8S84.7,228.9,84.7,217.7z"/>
			<path class="st14" d="M104.6,190.8c0-0.2,4-12,6-17.3c0.5-1.5,0.8-1.2,0.9-1.6c0.5-1.5,12.3-2.8,13.9-2.6
				c1.6,0.3,6.9,2.6,6.9,2.6l0.9,1.2c0,0,2.9,0.3,3.1,0.9c0.2,0.4,0.2,0.8,0.2,1.3c0,0.4-0.1,0.9-0.3,1.3c-0.2,0.6-0.6,1.1-1,1.5
				c-0.5,0.4-1,0.7-1.6,0.8c-2.1,0.4-6.6,0.9-6.6,0.9l-5.8,2.5c0,0,8.9-3,9.3-1.1c0.4,1.9,0,2.3-2,3c-2,0.7-8.6,2.8-8.6,2.8
				s-3.1,8.1-4.4,9.8c-0.7,1-1.6,1.8-2.7,2.5l-9.2-5.3L104.6,190.8z"/>
			<path class="st15" d="M125.4,169.3l-0.2,0c-0.1,0-0.3,0-0.5,0c-0.4,0-1.1,0.1-2,0.2c-1.7,0.2-4.1,0.5-7.2,1
				c-0.8,0.1-1.6,0.3-2.3,0.5c-0.8,0.2-1.5,0.7-2,1.4c-0.3,0.4-0.4,0.8-0.6,1.2c-0.1,0.5-0.3,0.9-0.5,1.3c-0.3,0.9-0.6,1.8-1,2.8
				l-4.3,12.4l-0.3,0.8l-10.4,18.2l0,0l-0.1,0c-1.6,0.2-3.2,0.9-4.5,1.9c-1.6,1.3-2.8,3-3.3,5c-0.1,0.3-0.1,0.5-0.1,0.6
				c0,0.1,0,0.1-0.1,0.2c0-0.1,0-0.1,0-0.2c0-0.1,0-0.3,0.1-0.6c0.2-0.8,0.5-1.5,0.9-2.2c0.6-1.1,1.4-2.1,2.4-2.9
				c1.3-1.1,2.9-1.8,4.5-2l-0.1,0l10.3-18.3l0.3-0.8l4.3-12.4c0.3-1,0.7-1.9,1-2.8l0.5-1.3c0.1-0.4,0.3-0.9,0.6-1.3
				c0.5-0.7,1.3-1.3,2.1-1.5c0.4-0.1,0.8-0.2,1.2-0.3l1.2-0.2c3-0.5,5.5-0.7,7.2-0.9c0.9-0.1,1.5-0.1,2-0.1c0.2,0,0.3,0,0.5,0
				C125.3,169.2,125.4,169.2,125.4,169.3z"/>
			<path class="st15" d="M113.1,198.8c0,0,0,0,0,0.1v0.3c0,0.3,0,0.7,0,1.2c0,1-0.1,2.5-0.3,4.4c-0.2,1.9-0.4,4.1-0.7,6.5
				c-0.4,2.6-0.9,5.3-1.5,7.9c-0.7,2.6-1.7,5.1-3,7.4c-1.1,1.9-2.5,3.6-4.1,5.1c-1.1,1-2.4,1.7-3.8,2.2l-0.3,0.1l-0.3,0.1l-0.5,0.1
				l-0.3,0.1l-0.1,0c0,0,0.1,0,0.1,0l0.3-0.1l0.5-0.1l0.3-0.1l0.3-0.1c1.4-0.5,2.6-1.3,3.7-2.2c1.6-1.4,3-3.1,4.1-5
				c1.3-2.3,2.3-4.8,3-7.4c0.7-2.6,1.2-5.2,1.5-7.8c0.4-2.4,0.6-4.6,0.8-6.5c0.2-1.8,0.3-3.4,0.3-4.4c0-0.5,0.1-0.9,0.1-1.2
				c0-0.1,0-0.2,0-0.3C113.1,198.8,113.1,198.8,113.1,198.8z"/>
			<path class="st16" d="M76.2,195l22.1-1.9l-3.4-46.2c0,0-17.6,5.6-19.1,25.6L76.2,195z"/>
			<path class="st9" d="M91.5,169.3c0,0.1,0.1,0.2,0.1,0.3l0.2,0.8c0.2,0.7,0.4,1.8,0.8,3c0.6,2.5,1.6,6,2.6,9.9
				c1,3.8,1.9,7.3,2.5,9.9c0.3,1.3,0.5,2.3,0.7,3l0.2,0.8c0,0.1,0,0.2,0,0.3c0-0.1-0.1-0.2-0.1-0.3l-0.2-0.8c-0.2-0.7-0.4-1.8-0.8-3
				c-0.6-2.5-1.6-6-2.6-9.9c-1-3.8-1.9-7.3-2.5-9.9c-0.3-1.3-0.5-2.3-0.7-3c-0.1-0.3-0.1-0.6-0.2-0.8
				C91.5,169.5,91.5,169.4,91.5,169.3z"/>
			<path class="st15" d="M119.4,176.9c0.2-0.1,0.4-0.2,0.6-0.3c0.4-0.2,1-0.4,1.8-0.6c3.9-1.2,8.1-1.5,12.1-0.7
				c0.8,0.1,1.4,0.3,1.8,0.4c0.2,0.1,0.4,0.1,0.7,0.2c-0.2,0-0.5-0.1-0.7-0.1c-0.4-0.1-1-0.2-1.8-0.3c-4-0.7-8.2-0.4-12.1,0.7
				c-0.7,0.2-1.4,0.4-1.8,0.6C119.8,176.8,119.6,176.9,119.4,176.9z"/>
			<path class="st15" d="M118.1,172.8c0.2-0.1,0.4-0.1,0.6-0.1c0.4-0.1,0.9-0.2,1.6-0.3c1.8-0.2,3.5-0.3,5.3-0.3
				c1.8,0.1,3.5,0.3,5.3,0.6c0.7,0.1,1.2,0.3,1.6,0.4c0.2,0,0.4,0.1,0.6,0.2c-0.2,0-0.4,0-0.6-0.1c-0.4-0.1-0.9-0.2-1.6-0.3
				c-1.7-0.3-3.5-0.5-5.2-0.5c-1.8-0.1-3.5,0-5.3,0.2c-0.7,0.1-1.2,0.1-1.6,0.2C118.5,172.8,118.3,172.8,118.1,172.8z"/>
		</g>
	</g>
</g>
</svg>
