<?xml version="1.0" encoding="utf-8"?>
<!-- Generator: Adobe Illustrator 25.3.1, SVG Export Plug-In . SVG Version: 6.00 Build 0)  -->
<svg version="1.1" id="圖層_1" xmlns="http://www.w3.org/2000/svg" xmlns:xlink="http://www.w3.org/1999/xlink" x="0px" y="0px"
	 viewBox="0 0 240 300" style="enable-background:new 0 0 240 300;" xml:space="preserve">
<style type="text/css">
	.st0{opacity:0.46;}
	.st1{fill:#DB8851;}
	.st2{fill:#FFFFFF;}
	.st3{fill:#E3E3E3;}
	.st4{clip-path:url(#SVGID_2_);}
	.st5{fill:#FBD1B9;}
	.st6{fill:#36303A;}
	.st7{fill:#A46E4A;}
	.st8{fill:#87C3A9;}
	.st9{fill:#619B80;}
	.st10{fill:#7D4646;}
	.st11{fill:#915F3A;}
	.st12{fill:#D9544A;}
	.st13{fill:#DBA78A;}
	.st14{fill:#4F657F;}
	.st15{fill:#FFFFFF;filter:url(#Adobe_OpacityMaskFilter);}
	.st16{mask:url(#mask0_68_3994_1_);}
	.st17{fill:#F5E6DF;}
	.st18{fill:#8CA3C3;}
	.st19{fill:#FFFFFF;filter:url(#Adobe_OpacityMaskFilter_1_);}
	.st20{mask:url(#mask1_68_3994_1_);}
	.st21{fill:#FFFFFF;filter:url(#Adobe_OpacityMaskFilter_2_);}
	.st22{mask:url(#mask2_68_3994_1_);}
	.st23{fill:#FFFFFF;filter:url(#Adobe_OpacityMaskFilter_3_);}
	.st24{mask:url(#mask3_68_3994_1_);}
	.st25{fill:#C6B6B0;}
	.st26{opacity:0.31;fill:#A46E4A;enable-background:new    ;}
	.st27{fill:#B23E32;}
	.st28{fill:#D18015;}
	.st29{fill:#BC7313;}
	.st30{fill:#CE7D1D;}
</style>
<g>
	<g class="st0">
		<path class="st1" d="M0.3,25.1L235.1,4.5l4.9,270.6l-205.2,24L0.3,25.1z"/>
	</g>
	<path class="st2" d="M0,21.4L234.8,0.8l4.9,270.6L40.4,294.8L0,21.4z"/>
	<path class="st3" d="M5.7,25.9l38.9,263.3l190-22.3L229.9,6.3L5.7,25.9z"/>
	<g>
		<defs>
			
				<rect id="SVGID_1_" x="33.9" y="18.6" transform="matrix(0.9962 -8.715574e-02 8.715574e-02 0.9962 -11.2854 11.4902)" width="184.2" height="232.7"/>
		</defs>
		<clipPath id="SVGID_2_">
			<use xlink:href="#SVGID_1_"  style="overflow:visible;"/>
		</clipPath>
		<g class="st4">
			<path class="st5" d="M141.8,117.9c0.9-0.8,1.8-1.4,2.9-1.8c1-0.3,2.1-0.3,3.2-0.1c3.1,0.3,6.6,0.9,8.1,3.6
				c0.4,0.8,0.7,1.8,0.9,2.7c0.1,0.5,0.2,1.1-0.2,1.5c-1.3-1.2-2.4-2.6-3.3-4.2c1,1.6,1.5,3.4,1.6,5.3c0,0.1,0,0.3-0.1,0.4
				c-0.1,0.1-0.2,0.2-0.3,0.2c-0.1,0-0.3,0-0.4,0c-0.1,0-0.2-0.1-0.3-0.2c-0.9-1.3-1.6-2.7-2.1-4.2c0.9,1.5,1.5,3.3,1.6,5.1
				c0,0.1,0,0.3-0.1,0.4c-0.1,0.1-0.2,0.2-0.3,0.2c-0.1,0-0.3,0.1-0.4,0c-0.1,0-0.2-0.1-0.3-0.2c-0.9-1.2-1.5-2.5-2-3.9
				c0.2,1.3,0.4,2.5,0.5,3.7c0,0.3,0.1,0.7-0.2,0.9c-0.1,0.1-0.3,0.1-0.4,0.1c-0.2,0-0.3-0.1-0.4-0.1c-0.8-0.6-0.6-1.6-1.2-2.3
				c-0.9-1.1-2.7-0.2-4.1,0.1c-0.6,0.1-1.1,0.1-1.7,0c-0.6-0.1-1.1-0.4-1.5-0.7c-0.3-0.2-0.7-0.6-1.1-0.5c-0.2,0-0.4,0.1-0.5,0.2
				c-3.4,1.8-6.9,2.6-10.3,4.4c-0.1-2-0.2-5.1-0.3-7.1C129,121.3,139.5,119.6,141.8,117.9z"/>
			<path class="st6" d="M108.6,121.9c11-1.4,15.5-1.3,26.6-2.2c0.4,2.2,1,6.9,1.4,9c-8.8,2.9-17.9,5-27.1,6.2
				c-4.1,0.5-8.8,0.7-11.9-2c-1.9-1.7-3-4.1-3.3-6.7c-0.2-2.5,0-5,0.5-7.5C96.6,109.7,108.6,121.9,108.6,121.9z"/>
			<path class="st7" d="M147.4,120.6c1,0.3,1.8,1,2.4,1.8c0.6,0.9,0.8,1.9,0.7,2.9c0,0.4,0.6,0.5,0.6,0.1c0.1-1.2-0.2-2.3-0.8-3.3
				c-0.6-1-1.6-1.7-2.7-2.1C147.2,119.9,147,120.5,147.4,120.6z"/>
			<path class="st7" d="M149.1,119.1c1,0.6,1.8,1.4,2.5,2.3c0.7,0.9,1.1,2,1.4,3.1c0,0.4,0.7,0.3,0.6-0.1c-0.3-1.2-0.8-2.4-1.5-3.4
				c-0.7-1-1.7-1.9-2.7-2.5C149,118.3,148.8,118.9,149.1,119.1z"/>
			<path class="st7" d="M150.7,118.4c0.9,0.4,1.7,0.9,2.3,1.7c0.6,0.7,1.1,1.6,1.2,2.6c0,0.4,0.7,0.3,0.6-0.1
				c-0.2-1.1-0.7-2.1-1.4-2.9c-0.7-0.8-1.6-1.5-2.6-1.9C150.6,117.7,150.3,118.2,150.7,118.4z"/>
			<path class="st7" d="M147.2,120.8c1-1,2.1-1.9,3.3-2.8c0.3-0.2-0.1-0.8-0.4-0.5c-1.2,0.9-2.3,1.9-3.4,2.9c0,0,0,0.1-0.1,0.1
				c0,0,0,0.1,0,0.1c0,0,0,0.1,0,0.1c0,0,0,0.1,0.1,0.1c0.1,0.1,0.1,0.1,0.2,0.1C147,120.9,147.1,120.8,147.2,120.8z"/>
			<path class="st7" d="M139.4,122.1c0.2,0.5,0.4,0.9,0.6,1.4c0,0.1,0.1,0.1,0.2,0.2c0.1,0,0.2,0,0.2,0c0,0,0.1,0,0.1-0.1
				c0,0,0.1-0.1,0.1-0.1c0,0,0-0.1,0-0.1c0,0,0-0.1,0-0.1c-0.2-0.5-0.4-0.9-0.6-1.4c0-0.1-0.1-0.1-0.2-0.2c-0.1,0-0.2,0-0.2,0
				c-0.1,0-0.1,0.1-0.2,0.2C139.4,122,139.4,122,139.4,122.1z"/>
			<path class="st8" d="M91.4,185.8l-4.3,0.4l3.2,37.1l4.3-0.4L91.4,185.8z"/>
			<path class="st9" d="M92.4,220.5L92.4,220.5c-2.3,0.2-3.9,2.2-3.7,4.4l0.5,5.8c0.2,2.2,2.2,3.9,4.4,3.7l0,0
				c2.2-0.2,3.9-2.2,3.7-4.4l-0.5-5.8C96.6,222,94.6,220.3,92.4,220.5z"/>
			<path class="st10" d="M69.4,249.8l-0.5-0.6c-1.2-1.7-1.6-3.8-1.3-5.9c0.2-2.2,1-5.1,2.6-6.4c0.3-0.3,1-0.8,8.4-1.7
				c5-0.6,11.1-1.1,15.3-1.4c5.2-0.5,10.7-0.7,15.1-0.9c7.1-0.3,7.5-0.1,7.7,0c4.6,2.1,4.6,9.2,4.6,11.5l0.1,0.8l-1.7,0l-0.1-0.8
				c0-5.5-1.2-8.8-3.6-9.9c-1.2-0.2-11.1,0.2-22.3,1.1c-15.3,1.2-21.7,2.2-22.5,2.8c-1.2,1.5-2,3.3-2,5.3c-0.3,1.6,0,3.3,0.9,4.7
				l0.5,0.6L69.4,249.8z"/>
			<path class="st10" d="M79,248.9l-0.4-0.7c-1.4-2.7-1.2-9.8,0.4-12c0.4-0.5,1.3-1.1,5.8-1.7c3.6-0.5,8.8-0.9,14.1-1.1
				c8.3-0.4,8.8,0,9.1,0.2c2.6,2.1,3.1,7.6,3.2,11.5l0.1,0.8l-1.7,0.1l-0.1-0.8c-0.2-5.4-1-8.8-2.5-10.1c-4.5-0.1-8.9,0-13.3,0.4
				c-9.5,0.6-12.9,1.5-13.4,1.9c-1.2,1.6-1.5,8-0.3,10.2l0.4,0.7L79,248.9z"/>
			<path class="st11" d="M114.4,247.4c0.1,0.9-0.1,1.8-0.5,2.6c-0.4,0.8-1.1,1.4-1.9,1.8c-0.8,0.4-1.7,0.6-2.6,0.5
				c-0.9-0.1-1.7-0.5-2.4-1c-0.7-0.6-1.2-1.3-1.4-2.2c-0.2-0.9-0.2-1.8,0-2.6c0.3-0.9,0.8-1.6,1.5-2.2c0.7-0.6,1.5-0.9,2.4-1
				c1.2-0.1,2.4,0.3,3.3,1C113.7,245.1,114.3,246.2,114.4,247.4z"/>
			<path class="st11" d="M121.6,251.3c2.5-0.2,4.3-2.4,4.1-4.9c-0.2-2.5-2.4-4.3-4.9-4.1c-2.5,0.2-4.3,2.4-4.1,4.9
				C116.9,249.6,119.1,251.5,121.6,251.3z"/>
			<path class="st11" d="M85.4,249.9c0.1,0.9-0.1,1.8-0.5,2.6c-0.4,0.8-1.1,1.4-1.9,1.8c-0.8,0.4-1.7,0.6-2.6,0.5
				c-0.9-0.1-1.7-0.5-2.4-1c-0.7-0.6-1.2-1.3-1.4-2.2c-0.2-0.9-0.2-1.8,0-2.6c0.3-0.9,0.8-1.6,1.5-2.2c0.7-0.6,1.5-0.9,2.4-1
				c1.2-0.1,2.4,0.3,3.3,1C84.7,247.6,85.3,248.7,85.4,249.9z"/>
			<path class="st11" d="M70,255.8c2.5-0.2,4.3-2.4,4.1-4.9s-2.4-4.3-4.9-4.1c-2.5,0.2-4.3,2.4-4.1,4.9
				C65.4,254.1,67.5,256,70,255.8z"/>
			<path class="st10" d="M114.4,247.2c0-0.6-0.2-1.2-0.4-1.8c-0.3-0.6-0.6-1-1.1-1.5c-0.5-0.4-1-0.7-1.6-0.9
				c-0.6-0.2-1.2-0.3-1.8-0.2c-0.6,0.1-1.2,0.2-1.7,0.5c-0.5,0.3-1,0.7-1.4,1.2c-0.4,0.5-0.7,1-0.8,1.6c-0.2,0.6-0.2,1.2-0.1,1.8
				L114.4,247.2z"/>
			<path class="st10" d="M125.7,246.4c-0.1-1.2-0.7-2.3-1.6-3.1c-0.9-0.8-2.1-1.1-3.3-1c-1.2,0.1-2.3,0.7-3.1,1.6
				c-0.8,0.9-1.1,2.1-1,3.3L125.7,246.4z"/>
			<path class="st10" d="M85.4,249.9c-0.2-1.1-0.8-2.2-1.7-2.9c-0.9-0.7-2-1.1-3.2-1c-1.1,0.1-2.2,0.6-3,1.5c-0.8,0.9-1.2,2-1.1,3.1
				L85.4,249.9z"/>
			<path class="st10" d="M74.2,250.7c-0.1-1.2-0.7-2.3-1.6-3.1c-0.9-0.8-2.1-1.1-3.3-1c-1.2,0.1-2.3,0.7-3.1,1.6
				c-0.8,0.9-1.1,2.1-1,3.3L74.2,250.7z"/>
			<path class="st12" d="M49,138c-2.1,4.5-3.3,9.3-3.2,14.3c0,4.9,1.1,9.8,3.3,14.3c2.2,4.4,5.3,8.3,9.2,11.5
				c3.8,3.1,8.2,5.5,13,6.8c3.5,0.9,7,1.5,10.6,1.7c9.7,0.6,19.5-0.6,28.8-3.7c4.9-1.6,10.1-4,12.9-8.4c3.1-5,2.5-11.3,1.4-17.1
				c-1-6.1-3-12-6-17.5c-8-13.4-24.6-19.8-40.3-20c-0.1,0-0.3,0-0.4,0c-5-0.7-10.1,0.1-14.6,2.2c-4.6,2.1-8.4,5.6-11.1,9.8
				C51.1,134,49.9,136.1,49,138z"/>
			<path class="st12" d="M112,136.3c2.9-1.1,6-1.4,9.1-1.1c3.1,0.4,6,1.4,8.6,3.1c2.6,1.7,4.7,4,6.3,6.6c1.6,2.7,2.5,5.7,2.7,8.7
				c0.2,2.4-0.2,4.8-1.3,7c-1.6,2.6-4,4.6-6.8,5.7c-2.2,1.2-4.5,1.8-7,1.9c-1.2,0-2.4-0.2-3.6-0.7c-1.1-0.5-2.1-1.2-2.9-2.2
				c-0.8-1.1-1.4-2.4-1.8-3.8c-2.2-7.1-3.8-14.4-4.9-21.7L112,136.3z"/>
			<path class="st13" d="M132.5,223.8c-0.5,4.1-0.8,8.2-0.9,12.2c1.8,0.4,3.7,0.4,5.6,0.1c1.7-4.6,3.1-9.4,4-14.3
				c-2-0.1-4,0-5.9,0.3L132.5,223.8z"/>
			<path class="st14" d="M103.2,144.7c15-0.4,33.2,3.9,48.2,5.1c2.1,0.2,9.1,2.1,7.4,14.6c-3.2,22.7-8.6,38-16,59.7
				c-1.2-0.3-10.3,1-11.5,1.1c-0.3-5-2.6-39.2,4.7-54.4c-2.9,1.1-5.9-2.3-8.9-2c-10.4,1-20.9,1-31.3,0.1c1.2-3.8,2.4-7.7,3.6-11.5
				L103.2,144.7z"/>
			<path class="st12" d="M126.1,248.2c-0.1,0.1,26.7-2.4,26.9-2.4c-4.2-0.9-13.9-4.5-14.1-5c-0.2-0.3,1.5-8.5,1.3-12
				c-3.5,0-7,0.3-10.5,0.9C129.7,229.7,126.8,244.1,126.1,248.2z"/>
			<defs>
				<filter id="Adobe_OpacityMaskFilter" filterUnits="userSpaceOnUse" x="125.1" y="233.9" width="35.4" height="13.5">
					<feColorMatrix  type="matrix" values="1 0 0 0 0  0 1 0 0 0  0 0 1 0 0  0 0 0 1 0"/>
				</filter>
			</defs>
			<mask maskUnits="userSpaceOnUse" x="125.1" y="233.9" width="35.4" height="13.5" id="mask0_68_3994_1_">
				<path class="st15" d="M126.1,248.2c-0.1,0.1,26.7-2.4,26.9-2.4c-4.2-0.9-13.9-4.5-14.1-5c-0.2-0.3,1.5-8.5,1.3-12
					c-3.5,0-7,0.3-10.5,0.9C129.7,229.7,126.8,244.1,126.1,248.2z"/>
			</mask>
			<g class="st16">
				<path class="st17" d="M125.4,247.5l34.8-3c0.1,0,0.2,0,0.2-0.1c0.1-0.1,0.1-0.1,0.1-0.2c0-0.1,0-0.2-0.1-0.2
					c-0.1-0.1-0.1-0.1-0.2-0.1l-34.8,3c-0.1,0-0.2,0-0.2,0.1c-0.1,0.1-0.1,0.1-0.1,0.2c0,0.1,0,0.2,0.1,0.2
					C125.3,247.5,125.3,247.5,125.4,247.5z"/>
				<path class="st17" d="M146.2,242.8c-0.3,0-0.6,0.1-0.9,0.3c-0.3,0.2-0.5,0.4-0.7,0.6c-0.2,0.3-0.3,0.6-0.4,0.9
					c-0.1,0.3,0,0.6,0,1c0,0.1,0.1,0.1,0.2,0.2c0.1,0,0.2,0,0.2,0c0.1,0,0.1-0.1,0.2-0.2c0-0.1,0-0.2,0-0.2c0,0,0-0.1,0-0.1
					c0,0,0-0.1,0-0.1l0-0.2c0,0,0-0.1,0-0.1c0-0.1,0-0.1,0-0.2c0-0.1,0.1-0.2,0.1-0.3c0-0.1,0.1-0.1,0.1-0.2c0,0,0.1-0.1,0,0l0-0.1
					c0.1-0.1,0.2-0.2,0.3-0.3l0.1,0l0.2-0.1l0.1,0l0.2,0l0.1,0l0.2,0c0,0,0.1,0,0.1,0c0,0,0.1,0,0.1-0.1c0,0,0.1-0.1,0.1-0.1
					c0,0,0-0.1,0-0.1c0,0,0-0.1,0-0.1c0,0-0.1-0.1-0.1-0.1c0,0-0.1,0-0.1,0c0,0-0.1,0-0.1,0L146.2,242.8z"/>
				<path class="st17" d="M126.3,243.4c0.7,0.2,1.4,0.7,1.8,1.3c0.5,0.6,0.7,1.4,0.7,2.1c0,0.4,0.6,0.3,0.6-0.1
					c0-0.9-0.3-1.8-0.9-2.5c-0.6-0.7-1.3-1.2-2.2-1.5c0,0-0.1,0-0.1,0c0,0-0.1,0-0.1,0c0,0-0.1,0.1-0.1,0.1c0,0,0,0.1,0,0.1
					c0,0,0,0.1,0,0.1c0,0,0,0.1,0,0.1c0,0,0.1,0.1,0.1,0.1C126.2,243.4,126.3,243.4,126.3,243.4z"/>
				<path class="st17" d="M131.5,234.4c0.2-0.2,0.5-0.3,0.8-0.4c0.3-0.1,0.6,0,0.9,0c0.3,0.1,0.5,0.3,0.7,0.5
					c0.2,0.2,0.3,0.5,0.4,0.8c0.1,0.3,0.1,0.6,0,0.9s-0.2,0.5-0.4,0.7c-0.2,0.2-0.5,0.4-0.8,0.4c-0.3,0.1-0.6,0.1-0.9,0
					c-0.3-0.1-0.5-0.2-0.7-0.4c-0.2-0.2-0.4-0.4-0.4-0.7c-0.1-0.3-0.1-0.6-0.1-0.8c0-0.3,0.2-0.5,0.3-0.8L131.5,234.4z"/>
			</g>
			<path class="st14" d="M141.5,244.6c0.1-0.6,0.4-1.2,0.8-1.7c0.4-0.5,1-0.8,1.6-1c0,0,0.1,0,0.1-0.1c0,0,0.1-0.1,0.1-0.1
				c0,0,0-0.1,0-0.1c0,0,0-0.1,0-0.1c0-0.1-0.1-0.1-0.2-0.2c-0.1,0-0.2,0-0.2,0c-0.7,0.2-1.3,0.6-1.8,1.1c-0.5,0.5-0.8,1.2-0.9,2
				C140.8,244.9,141.4,245,141.5,244.6L141.5,244.6z"/>
			<path class="st14" d="M139.8,243.9c0.2-0.6,0.6-1.2,1.1-1.5c0.5-0.4,1.2-0.5,1.8-0.5c0,0,0.1,0,0.1,0c0,0,0.1,0,0.1,0
				c0,0,0.1-0.1,0.1-0.1c0,0,0-0.1,0-0.1c0-0.1,0-0.2-0.1-0.2c0-0.1-0.1-0.1-0.2-0.1c-0.8-0.1-1.6,0.2-2.3,0.6
				c-0.7,0.5-1.2,1.1-1.4,1.9c0,0.1,0,0.2,0.1,0.2c0,0.1,0.1,0.1,0.2,0.1c0.1,0,0.2,0,0.2,0C139.7,244,139.8,243.9,139.8,243.9
				L139.8,243.9z"/>
			<path class="st14" d="M138,243.1c0.3-0.6,0.6-1.2,1.1-1.6c0.5-0.5,1.1-0.8,1.7-1c0.4-0.1,0.2-0.7-0.2-0.6
				c-0.7,0.2-1.4,0.6-1.9,1.1c-0.6,0.5-1,1.1-1.3,1.8C137.3,243.1,137.8,243.4,138,243.1L138,243.1z"/>
			<path class="st14" d="M139,236.3c-0.7-0.6-1.2-1.3-1.5-2c-0.1-0.4-0.3-0.8-0.3-1.2c-0.1-0.4-0.1-0.8,0-1.2c0.2-0.5,0.7,0,0.9,0.3
				c0.3,0.3,0.5,0.7,0.7,1.1c0.4,0.8,0.5,1.7,0.4,2.6c0,0.1,0,0.1,0,0.2c0,0.1,0.1,0.1,0.2,0.1c0.1,0,0.1,0,0.2,0
				c0.1,0,0.1-0.1,0.2-0.2c0.3-0.7,0.7-1.3,1.1-1.9c0.4-0.6,1-1.1,1.6-1.5c0.1-0.1,0.3-0.2,0.5-0.2c0.2,0,0.3,0.1,0.5,0.2
				c0.3,0.3-0.1,0.6-0.3,0.8c-0.5,0.5-1.1,1-1.8,1.5c-0.7,0.5-1.5,0.9-2.4,1.2c-0.4,0.2-0.2,0.7,0.2,0.6c0.9-0.3,1.7-0.8,2.5-1.3
				c0.8-0.5,1.5-1.1,2.2-1.8c0.1-0.1,0.2-0.3,0.3-0.5s0-0.4-0.1-0.6c-0.1-0.2-0.2-0.3-0.4-0.4c-0.2-0.1-0.4-0.2-0.6-0.2
				c-0.9,0-1.7,0.8-2.3,1.4c-0.7,0.8-1.3,1.6-1.7,2.6l0.6,0.2c0.1-0.8,0-1.7-0.3-2.5c-0.3-0.8-0.7-1.5-1.4-2.1
				c-0.1-0.1-0.3-0.2-0.5-0.2c-0.2,0-0.4,0-0.5,0.1c-0.1,0.1-0.3,0.3-0.3,0.4c-0.1,0.2-0.1,0.3-0.1,0.5c0,0.8,0.1,1.7,0.5,2.4
				c0.4,0.9,0.9,1.6,1.7,2.2C138.9,237,139.3,236.6,139,236.3L139,236.3z"/>
			<path class="st13" d="M115.6,228.8c-0.5,4.1-0.8,8.2-0.9,12.2c1.8,0.4,3.7,0.4,5.5,0.1c1.7-4.6,3.1-9.4,4-14.3
				c-2-0.1-3.9,0-5.9,0.3L115.6,228.8z"/>
			<path class="st18" d="M88.1,150.4c14.9-0.4,30.7,4.4,45.5,5.6c2.1,0.2,5.5,3.3,6.5,5.4c1.3,2.6,1.7,5.5,1.2,8.3
				c-4,22.5-9.9,38.2-17.2,59.9c-1.2-0.3-8.8,0.8-10,0.9c-0.3-5-2.7-39.2,4.6-54.4c-2.9,1.1-29.5-1-39.8-1.8
				C80,170.3,88.1,150.4,88.1,150.4z"/>
			<path class="st12" d="M109.3,253.2c-0.1,0,26.5-2.4,26.6-2.3c-4.2-0.9-13.7-4.5-14-5c-0.2-0.3,1.5-8.5,1.3-12.1
				c-3.5,0-6.9,0.3-10.4,0.9C112.9,234.7,109.9,249.1,109.3,253.2z"/>
			<defs>
				<filter id="Adobe_OpacityMaskFilter_1_" filterUnits="userSpaceOnUse" x="108.3" y="238.9" width="34.9" height="13.5">
					<feColorMatrix  type="matrix" values="1 0 0 0 0  0 1 0 0 0  0 0 1 0 0  0 0 0 1 0"/>
				</filter>
			</defs>
			<mask maskUnits="userSpaceOnUse" x="108.3" y="238.9" width="34.9" height="13.5" id="mask1_68_3994_1_">
				<path class="st19" d="M109.3,253.2c-0.1,0,26.5-2.4,26.6-2.3c-4.2-0.9-13.7-4.5-14-5c-0.2-0.3,1.5-8.5,1.3-12.1
					c-3.5,0-6.9,0.3-10.4,0.9C112.9,234.7,109.9,249.1,109.3,253.2z"/>
			</mask>
			<g class="st20">
				<path class="st17" d="M108.6,252.5l34.4-3c0.1,0,0.1-0.1,0.2-0.1c0-0.1,0.1-0.1,0.1-0.2c0-0.1,0-0.1-0.1-0.2
					c-0.1-0.1-0.1-0.1-0.2-0.1l-34.4,3c-0.1,0-0.1,0.1-0.2,0.1c0,0.1-0.1,0.1-0.1,0.2c0,0.1,0,0.1,0.1,0.2
					C108.5,252.4,108.5,252.5,108.6,252.5z"/>
				<path class="st17" d="M129.2,247.8c-0.3,0-0.6,0.1-0.9,0.3c-0.3,0.2-0.5,0.4-0.7,0.6c-0.2,0.3-0.3,0.6-0.4,0.9
					c-0.1,0.3,0,0.6,0,1c0,0,0,0.1,0.1,0.1c0,0,0.1,0.1,0.1,0.1c0,0,0.1,0,0.1,0c0,0,0.1,0,0.1,0c0,0,0.1,0,0.1-0.1
					c0,0,0.1-0.1,0.1-0.1c0,0,0-0.1,0-0.1c0,0,0-0.1,0-0.1c0,0,0-0.1,0-0.1c0,0,0-0.1,0-0.1c0-0.1,0-0.1,0-0.2l0-0.1
					c0-0.1,0-0.1,0-0.2c0-0.1,0-0.1,0-0.2l0-0.1l0.1-0.2c0,0,0,0,0-0.1l0.2-0.3l0.1,0l0.2-0.1l0.1,0l0.2,0l0.1,0l0.2,0
					c0,0,0.1,0,0.1,0c0,0,0.1,0,0.1-0.1c0,0,0-0.1,0.1-0.1c0,0,0-0.1,0-0.1c0-0.1-0.1-0.2-0.1-0.2c-0.1-0.1-0.1-0.1-0.2-0.1
					L129.2,247.8z"/>
				<path class="st17" d="M109.5,248.4c0.7,0.2,1.4,0.7,1.8,1.3c0.5,0.6,0.7,1.4,0.7,2.1c0,0.4,0.6,0.3,0.6-0.1
					c0-0.9-0.3-1.8-0.9-2.5c-0.5-0.7-1.3-1.2-2.2-1.5c-0.1,0-0.2,0-0.2,0.1c-0.1,0-0.1,0.1-0.1,0.2c0,0.1,0,0.2,0.1,0.2
					C109.3,248.4,109.4,248.4,109.5,248.4z"/>
				<path class="st17" d="M114.6,239.4c0.3-0.3,0.8-0.5,1.2-0.4c0.4,0,0.9,0.2,1.2,0.5c0.3,0.3,0.5,0.8,0.5,1.2
					c0,0.4-0.2,0.9-0.5,1.2c-0.3,0.3-0.7,0.5-1.2,0.5s-0.9-0.1-1.2-0.4c-0.3-0.3-0.5-0.7-0.6-1.2c0-0.4,0.1-0.9,0.4-1.2L114.6,239.4
					z"/>
			</g>
			<path class="st14" d="M124.5,249.6c0.1-0.6,0.4-1.2,0.8-1.7c0.4-0.5,1-0.8,1.6-1c0,0,0.1,0,0.1-0.1c0,0,0.1-0.1,0.1-0.1
				c0,0,0-0.1,0-0.1c0,0,0-0.1,0-0.1c0,0,0-0.1-0.1-0.1c0,0-0.1-0.1-0.1-0.1c0,0-0.1,0-0.1,0c0,0-0.1,0-0.1,0
				c-0.7,0.2-1.3,0.6-1.8,1.1c-0.5,0.5-0.8,1.2-0.9,2C123.9,249.9,124.5,250,124.5,249.6L124.5,249.6z"/>
			<path class="st14" d="M122.8,248.8c0.2-0.6,0.6-1.2,1.1-1.5c0.5-0.4,1.2-0.5,1.8-0.5c0.1,0,0.2,0,0.2-0.1c0.1,0,0.1-0.1,0.1-0.2
				c0-0.1,0-0.2-0.1-0.2c0-0.1-0.1-0.1-0.2-0.1c-0.8-0.1-1.6,0.1-2.3,0.6c-0.7,0.5-1.2,1.1-1.4,1.9c0,0,0,0.1,0,0.1s0,0.1,0,0.1
				c0,0,0.1,0.1,0.1,0.1c0,0,0.1,0,0.1,0c0,0,0.1,0,0.1,0c0,0,0.1,0,0.1,0c0,0,0.1-0.1,0.1-0.1C122.8,248.9,122.8,248.9,122.8,248.8
				L122.8,248.8z"/>
			<path class="st14" d="M121,248.1c0.3-0.6,0.6-1.2,1.1-1.6c0.5-0.5,1.1-0.8,1.7-1c0.4-0.1,0.2-0.7-0.2-0.6
				c-0.7,0.2-1.4,0.6-1.9,1.1c-0.6,0.5-1,1.1-1.3,1.8C120.3,248.2,120.9,248.4,121,248.1L121,248.1z"/>
			<path class="st14" d="M122.1,241.3c-0.6-0.5-1.2-1.2-1.5-2c-0.2-0.4-0.3-0.8-0.3-1.2c-0.1-0.4-0.1-0.8,0-1.2
				c0.2-0.5,0.7,0,0.8,0.3c0.3,0.3,0.5,0.7,0.7,1.1c0.4,0.8,0.5,1.7,0.4,2.6c0,0.3,0.4,0.5,0.6,0.2c0.3-0.7,0.7-1.3,1.1-1.9
				c0.4-0.6,1-1.1,1.7-1.5c0.1-0.1,0.3-0.2,0.5-0.1c0.2,0,0.3,0.1,0.5,0.2c0.2,0.3-0.1,0.6-0.3,0.8c-0.6,0.5-1.2,1-1.8,1.5
				c-0.7,0.5-1.5,0.9-2.3,1.2c-0.1,0-0.1,0.1-0.2,0.2c0,0.1,0,0.2,0,0.2c0,0.1,0.1,0.1,0.2,0.2c0.1,0,0.1,0,0.2,0
				c0.9-0.3,1.7-0.8,2.5-1.3c0.8-0.5,1.5-1.1,2.1-1.8c0.1-0.1,0.3-0.3,0.3-0.5c0-0.2,0-0.4-0.1-0.6c-0.1-0.2-0.2-0.3-0.4-0.4
				c-0.2-0.1-0.4-0.2-0.6-0.2c-0.9-0.1-1.7,0.8-2.3,1.4c-0.7,0.8-1.3,1.6-1.7,2.6l0.6,0.2c0.1-0.8,0-1.7-0.3-2.5
				c-0.2-0.8-0.7-1.5-1.4-2.1c-0.1-0.1-0.3-0.2-0.5-0.2c-0.2,0-0.4,0-0.6,0.1c-0.1,0.1-0.3,0.3-0.3,0.4c-0.1,0.2-0.1,0.3-0.1,0.5
				c0,0.8,0.1,1.7,0.5,2.4c0.4,0.9,0.9,1.6,1.6,2.2C122,242,122.4,241.5,122.1,241.3L122.1,241.3z"/>
			<path class="st14" d="M118.8,176.3c2.4-2.1,4.9-4.1,7.6-6c0.1-0.1,0.1-0.1,0.1-0.2c0-0.1,0-0.1-0.1-0.2c0-0.1-0.1-0.1-0.2-0.1
				c-0.1,0-0.1,0-0.2,0c-2.6,1.8-5.2,3.8-7.6,6C118.1,176.1,118.5,176.6,118.8,176.3z"/>
			<path class="st14" d="M114.9,225.2c3.2-0.5,6.4-0.8,9.8-1.1c0.1,0,0.2,0,0.2-0.1c0.1-0.1,0.1-0.1,0.1-0.2c0-0.1,0-0.2-0.1-0.2
				c-0.1-0.1-0.1-0.1-0.2-0.1c-3.3,0.3-6.5,0.6-9.8,1.1C114.4,224.6,114.5,225.2,114.9,225.2z"/>
			<path class="st18" d="M131.4,221.6c3.7-0.4,7.4-0.6,11.1-0.8c0.4,0,0.3-0.6-0.1-0.6c-3.7,0.1-7.4,0.4-11.1,0.7
				c-0.1,0-0.2,0-0.2,0.1c-0.1,0.1-0.1,0.1-0.1,0.2c0,0.1,0,0.2,0.1,0.2C131.2,221.6,131.3,221.6,131.4,221.6z"/>
			<path class="st14" d="M122,169.9c-0.5,1.3-1,2.6-1.4,3.9c-0.1,0.4,0.5,0.5,0.6,0.1c0.3-1.3,0.8-2.5,1.3-3.7
				C122.7,169.8,122.2,169.5,122,169.9z"/>
			<path class="st10" d="M209.8,86.1c-0.2-0.4-0.5-0.7-0.9-1c-0.4-0.2-0.8-0.4-1.3-0.4c-0.5,0-0.9,0.1-1.3,0.3l-0.1-1l-13.5,1.2
				l0.6,6.8c0.1,0.9,0.5,1.8,1.2,2.4c0.7,0.6,1.6,0.9,2.6,0.8l6.5-0.6c0.9-0.1,1.8-0.5,2.4-1.2c0.6-0.7,0.9-1.6,0.8-2.6l-0.1-1.1
				c0.4,0.2,0.9,0.3,1.3,0.2c0.4,0,0.8-0.2,1.1-0.4c0.3-0.2,0.6-0.6,0.8-0.9c0.2-0.4,0.2-0.8,0.2-1.3
				C210.1,86.9,210,86.5,209.8,86.1z M208.9,87.6c0,0.1,0,0.3-0.1,0.4l0,0.1l-0.1,0.2c0,0,0,0-0.1,0l-0.1,0.1c0,0-0.2,0.1-0.1,0
				l-0.3,0.1l-0.5,0l-0.2-0.1c0.2,0,0,0-0.1,0l-0.1,0l-0.2-0.1c0,0-0.1-0.1-0.1-0.1c0-0.1-0.1-0.1-0.2-0.2c-0.1,0-0.1-0.1-0.2-0.1
				l-0.1-1.2c0.1-0.1,0.1-0.2,0.1-0.3c0,0,0-0.1,0-0.1l0-0.1c0,0,0-0.1,0-0.1l0.1-0.1l0.2-0.1l0.1,0l0.2,0c0.1,0,0.1,0,0.2,0l0.1,0
				l0.2,0l0.2,0.1l0,0.1l0.2,0.2l0.1,0.1c0.1,0.1,0.1,0.1,0.2,0.2l0,0.1l0.1,0.2l0,0.2l0,0.1c0,0.1,0,0.1,0,0.2L208.9,87.6z"/>
			<path class="st12" d="M190.4,94.2l20.2-1.8c0,0.2,0,0.5-0.1,0.7c-0.1,0.2-0.2,0.4-0.3,0.6c-0.1,0.2-0.3,0.3-0.5,0.4
				c-0.2,0.1-0.4,0.2-0.7,0.2l-16.7,1.5c-0.5,0-0.9-0.1-1.3-0.4C190.6,95.1,190.4,94.7,190.4,94.2L190.4,94.2z"/>
			<path class="st17" d="M199.2,83.5c0.5-0.9,0.7-1.9,0.4-2.9c-0.2-0.3-0.4-0.5-0.7-0.7c-1.7-1.3-4-2.3-4.7-4.3
				c-0.1-0.2-0.1-0.5-0.1-0.7c0.1-0.3,0.3-0.5,0.6-0.7c0.3-0.1,0.6-0.2,0.9-0.1c0.6,0.2,1.1,0.5,1.5,1c-1.8-2.5-3.3-5.4-2.8-8.4
				c0.1-0.5,0.3-1.2,0.9-1.2c0.3,0,0.5,0.1,0.7,0.2c2.3,1.2,3.2,4,4,6.5c-0.2-0.6-0.3-1.3-0.2-2c0.1-0.7,0.4-1.3,0.9-1.8
				c0.2-0.3,0.6-0.5,0.9-0.5c0.8-0.1,1.2,0.8,1.4,1.6c0.3,1.6,0.2,3.3-0.3,4.9c0.3-0.8,0.8-1.7,1.6-1.6s1.1,1.2,1,2.1
				c-0.3,2.9-1.7,5.6-3.9,7.6C200.9,83,200.1,83.4,199.2,83.5L199.2,83.5z"/>
			<defs>
				<filter id="Adobe_OpacityMaskFilter_2_" filterUnits="userSpaceOnUse" x="192" y="86.6" width="15.4" height="5.3">
					<feColorMatrix  type="matrix" values="1 0 0 0 0  0 1 0 0 0  0 0 1 0 0  0 0 0 1 0"/>
				</filter>
			</defs>
			<mask maskUnits="userSpaceOnUse" x="192" y="86.6" width="15.4" height="5.3" id="mask2_68_3994_1_">
				<path class="st21" d="M209.8,86.1c-0.2-0.4-0.5-0.7-0.9-1c-0.4-0.2-0.8-0.4-1.3-0.4c-0.5,0-0.9,0.1-1.3,0.3l-0.1-1l-13.5,1.2
					l0.6,6.8c0.1,0.9,0.5,1.8,1.2,2.4c0.7,0.6,1.6,0.9,2.6,0.8l6.5-0.6c0.9-0.1,1.8-0.5,2.4-1.2c0.6-0.7,0.9-1.6,0.8-2.6l-0.1-1.1
					c0.4,0.2,0.9,0.3,1.3,0.2c0.4,0,0.8-0.2,1.1-0.4c0.3-0.2,0.6-0.6,0.8-0.9c0.2-0.4,0.2-0.8,0.2-1.3
					C210.1,86.9,210,86.5,209.8,86.1z M208.9,87.6c0,0.1,0,0.3-0.1,0.4l0,0.1l-0.1,0.2c0,0,0,0-0.1,0l-0.1,0.1c0,0-0.2,0.1-0.1,0
					l-0.3,0.1l-0.5,0l-0.2-0.1c0.2,0,0,0-0.1,0l-0.1,0l-0.2-0.1c0,0-0.1-0.1-0.1-0.1c0-0.1-0.1-0.1-0.2-0.2c-0.1,0-0.1-0.1-0.2-0.1
					l-0.1-1.2c0.1-0.1,0.1-0.2,0.1-0.3c0,0,0-0.1,0-0.1l0-0.1c0,0,0-0.1,0-0.1l0.1-0.1l0.2-0.1l0.1,0l0.2,0c0.1,0,0.1,0,0.2,0l0.1,0
					l0.2,0l0.2,0.1l0,0.1l0.2,0.2l0.1,0.1c0.1,0.1,0.1,0.1,0.2,0.2l0,0.1l0.1,0.2l0,0.2l0,0.1c0,0.1,0,0.1,0,0.2L208.9,87.6z"/>
			</mask>
			<g class="st22">
				<path class="st17" d="M192.5,91.1l1.9-2c0.1-0.1,0.1-0.1,0.2-0.2c0.1,0,0.1,0,0.2,0c0.2,0.1,0.3,0.3,0.5,0.4
					c0.3,0.3,0.6,0.6,0.9,0.9c0,0,0.1,0.1,0.1,0.1c0,0,0.1,0,0.1,0.1c0,0,0.1,0,0.1,0c0,0,0.1,0,0.1-0.1l1.8-1.8
					c0.1-0.1,0.2-0.2,0.4,0c0.2,0.2,0.3,0.3,0.4,0.4l0.8,0.9c0.1,0,0.1,0,0.2,0c0.1,0,0.1,0,0.2-0.1c0.7-0.6,1.3-1.3,1.9-2l-0.4,0
					c0.5,0.5,0.9,1,1.2,1.7c0,0.1,0,0.1,0.1,0.1c0,0,0.1,0.1,0.1,0.1c0.1,0,0.1,0,0.2,0c0.1,0,0.1,0,0.1-0.1l2-2l-0.5,0l1.6,1.8
					c0.3,0.3,0.8-0.1,0.5-0.4l-1.6-1.8c0,0-0.1-0.1-0.1-0.1c0,0-0.1,0-0.1,0c0,0-0.1,0-0.1,0c0,0-0.1,0.1-0.1,0.1l-2,2l0.5,0.1
					c-0.4-0.7-0.9-1.4-1.5-2c-0.1,0-0.1-0.1-0.2-0.1c-0.1,0-0.2,0-0.2,0.1c-0.5,0.7-1.1,1.3-1.8,1.9l0.4,0l-1-1.1
					c-0.3-0.3-0.6-0.6-1.1-0.4c-0.2,0.1-0.3,0.3-0.5,0.4l-0.5,0.5l-1.1,1.1l0.5,0c-0.3-0.4-0.7-0.8-1.1-1.1
					c-0.3-0.3-0.7-0.7-1.2-0.4c-0.2,0.1-0.3,0.3-0.5,0.5l-0.6,0.6l-1.2,1.3c-0.3,0.3,0.2,0.7,0.5,0.4L192.5,91.1z"/>
				<path class="st17" d="M195,91.9c0.1,0,0.2,0,0.2-0.1c0.1-0.1,0.1-0.1,0.1-0.2c0-0.1,0-0.2-0.1-0.2c-0.1-0.1-0.1-0.1-0.2-0.1
					c-0.1,0-0.2,0-0.2,0.1c-0.1,0.1-0.1,0.1-0.1,0.2c0,0.1,0,0.2,0.1,0.2C194.8,91.9,194.9,91.9,195,91.9z"/>
				<path class="st17" d="M196.5,87.8c0.1,0,0.1-0.1,0.2-0.1c0-0.1,0.1-0.1,0.1-0.2c0-0.1,0-0.1-0.1-0.2c-0.1-0.1-0.1-0.1-0.2-0.1
					c-0.1,0-0.1,0.1-0.2,0.1c0,0.1-0.1,0.1-0.1,0.2c0,0.1,0,0.1,0.1,0.2C196.4,87.7,196.4,87.8,196.5,87.8z"/>
				<path class="st17" d="M198.9,91.6c0.1,0,0.2,0,0.2-0.1c0.1-0.1,0.1-0.1,0.1-0.2c0-0.1,0-0.2-0.1-0.2c-0.1-0.1-0.1-0.1-0.2-0.1
					c-0.1,0-0.2,0-0.2,0.1c-0.1,0.1-0.1,0.1-0.1,0.2c0,0.1,0,0.2,0.1,0.2C198.7,91.5,198.8,91.6,198.9,91.6z"/>
				<path class="st17" d="M200.9,87.3l0-0.2c0,0,0-0.1,0-0.1c0,0,0-0.1,0-0.1c0,0-0.1,0-0.1-0.1c0,0,0,0-0.1,0c0,0,0,0-0.1,0l-0.1,0
					c0,0-0.1,0.1-0.1,0.1c0,0.1,0,0.1,0,0.2l0,0.2c0,0,0,0.1,0,0.1c0,0,0,0.1,0.1,0.1c0,0,0.1,0,0.1,0.1c0,0,0,0,0.1,0
					c0,0,0,0,0.1,0l0.1,0c0,0,0.1-0.1,0.1-0.1C201,87.4,201,87.3,200.9,87.3L200.9,87.3z"/>
				<path class="st17" d="M202.2,91.4c0.1,0,0.1-0.1,0.2-0.1c0-0.1,0.1-0.1,0.1-0.2c0-0.1,0-0.1-0.1-0.2c-0.1-0.1-0.1-0.1-0.2-0.1
					c-0.1,0-0.1,0.1-0.2,0.1c0,0.1-0.1,0.1-0.1,0.2c0,0.1,0,0.1,0.1,0.2C202.1,91.4,202.2,91.4,202.2,91.4z"/>
				<path class="st17" d="M204.1,87.1l0.1,0c0,0,0.1,0,0.1,0c0,0,0.1,0,0.1-0.1c0,0,0-0.1,0-0.1c0,0,0-0.1,0-0.1l0-0.1
					c0-0.1,0-0.1-0.1-0.1l-0.1,0c-0.1,0-0.1,0-0.2,0l-0.2,0c-0.1,0-0.1,0-0.2,0.1c0,0-0.1,0.1-0.1,0.1c0,0,0,0.1,0,0.1l0,0.1
					c0,0,0,0.1,0.1,0.1l0.1,0c0.1,0,0.1,0,0.2,0L204.1,87.1z"/>
			</g>
			<path class="st17" d="M211.3,99.4l-42.6,3.7l2.3,25.8l42.7-3.7L211.3,99.4z"/>
			<defs>
				<filter id="Adobe_OpacityMaskFilter_3_" filterUnits="userSpaceOnUse" x="165.6" y="98.8" width="68.7" height="29.4">
					<feColorMatrix  type="matrix" values="1 0 0 0 0  0 1 0 0 0  0 0 1 0 0  0 0 0 1 0"/>
				</filter>
			</defs>
			<mask maskUnits="userSpaceOnUse" x="165.6" y="98.8" width="68.7" height="29.4" id="mask3_68_3994_1_">
				<path class="st23" d="M211.3,99.4l-42.6,3.7l2.3,25.8l42.7-3.7L211.3,99.4z"/>
			</mask>
			<g class="st24">
				<path class="st25" d="M169.6,105.1l64.3-5.6c0.1,0,0.2,0,0.2-0.1c0.1-0.1,0.1-0.1,0.1-0.2c0-0.1,0-0.2-0.1-0.2s-0.1-0.1-0.2-0.1
					l-64.3,5.6c-0.1,0-0.2,0-0.2,0.1c-0.1,0.1-0.1,0.1-0.1,0.2c0,0.1,0,0.2,0.1,0.2C169.5,105.1,169.6,105.1,169.6,105.1z"/>
				<path class="st25" d="M165.9,107.6l29.2-2.6c0.1,0,0.2,0,0.2-0.1s0.1-0.1,0.1-0.2c0-0.1,0-0.2-0.1-0.2c-0.1-0.1-0.1-0.1-0.2-0.1
					l-29.2,2.6c-0.1,0-0.2,0-0.2,0.1c-0.1,0.1-0.1,0.1-0.1,0.2c0,0.1,0,0.2,0.1,0.2C165.8,107.6,165.8,107.6,165.9,107.6z"/>
				<path class="st25" d="M174,109.2l49.1-4.3c0.1,0,0.2,0,0.2-0.1c0.1-0.1,0.1-0.1,0.1-0.2c0-0.1,0-0.2-0.1-0.2
					c-0.1-0.1-0.1-0.1-0.2-0.1l-49.1,4.3c-0.1,0-0.2,0-0.2,0.1c-0.1,0.1-0.1,0.1-0.1,0.2c0,0.1,0,0.2,0.1,0.2
					C173.8,109.2,173.9,109.2,174,109.2z"/>
				<path class="st25" d="M182.2,110.6L224,107c0.1,0,0.2,0,0.2-0.1c0.1-0.1,0.1-0.1,0.1-0.2c0-0.1,0-0.2-0.1-0.2
					c-0.1-0.1-0.1-0.1-0.2-0.1l-41.8,3.7c-0.1,0-0.2,0-0.2,0.1s-0.1,0.1-0.1,0.2c0,0.1,0,0.2,0.1,0.2
					C182,110.6,182.1,110.6,182.2,110.6z"/>
				<path class="st25" d="M167.5,114.4l35.9-3.1c0.1,0,0.2,0,0.2-0.1c0.1-0.1,0.1-0.1,0.1-0.2c0-0.1,0-0.2-0.1-0.2
					c-0.1-0.1-0.1-0.1-0.2-0.1l-35.9,3.1c-0.1,0-0.2,0-0.2,0.1c-0.1,0.1-0.1,0.1-0.1,0.2c0,0.1,0,0.2,0.1,0.2
					C167.3,114.4,167.4,114.4,167.5,114.4z"/>
				<path class="st25" d="M170.8,117.9l34.9-3.1c0.1,0,0.2,0,0.2-0.1c0.1-0.1,0.1-0.1,0.1-0.2c0-0.1,0-0.2-0.1-0.2
					c-0.1-0.1-0.1-0.1-0.2-0.1l-34.9,3.1c-0.1,0-0.2,0-0.2,0.1c-0.1,0.1-0.1,0.1-0.1,0.2c0,0.1,0,0.2,0.1,0.2
					C170.6,117.8,170.7,117.9,170.8,117.9z"/>
				<path class="st25" d="M181.9,114.9l33.4-2.9c0.1,0,0.2,0,0.2-0.1s0.1-0.1,0.1-0.2c0-0.1,0-0.2-0.1-0.2s-0.1-0.1-0.2-0.1
					l-33.4,2.9c-0.1,0-0.2,0-0.2,0.1s-0.1,0.1-0.1,0.2c0,0.1,0,0.2,0.1,0.2C181.7,114.9,181.8,114.9,181.9,114.9z"/>
				<path class="st25" d="M180.6,119.2l23.6-2.1c0.1,0,0.2,0,0.2-0.1c0.1-0.1,0.1-0.1,0.1-0.2c0-0.1,0-0.2-0.1-0.2
					c-0.1-0.1-0.1-0.1-0.2-0.1l-23.6,2.1c-0.1,0-0.2,0-0.2,0.1c-0.1,0.1-0.1,0.1-0.1,0.2c0,0.1,0,0.2,0.1,0.2
					C180.4,119.2,180.5,119.2,180.6,119.2z"/>
				<path class="st25" d="M171.8,122.7l54.2-4.7c0.1,0,0.2,0,0.2-0.1c0.1-0.1,0.1-0.1,0.1-0.2c0-0.1,0-0.2-0.1-0.2s-0.1-0.1-0.2-0.1
					l-54.2,4.7c-0.1,0-0.2,0-0.2,0.1c-0.1,0.1-0.1,0.1-0.1,0.2c0,0.1,0,0.2,0.1,0.2C171.6,122.6,171.7,122.7,171.8,122.7z"/>
				<path class="st25" d="M167.1,124.6l65.9-5.8c0.1,0,0.2,0,0.2-0.1c0.1-0.1,0.1-0.1,0.1-0.2c0-0.1,0-0.2-0.1-0.2
					c-0.1-0.1-0.1-0.1-0.2-0.1L167,124c-0.1,0-0.2,0-0.2,0.1c-0.1,0.1-0.1,0.1-0.1,0.2c0,0.1,0,0.2,0.1,0.2
					C166.9,124.6,167,124.6,167.1,124.6z"/>
				<path class="st25" d="M168.2,126.3l56.1-4.9c0.1,0,0.2,0,0.2-0.1s0.1-0.1,0.1-0.2c0-0.1,0-0.2-0.1-0.2c-0.1-0.1-0.1-0.1-0.2-0.1
					l-56.1,4.9c-0.1,0-0.2,0-0.2,0.1c-0.1,0.1-0.1,0.1-0.1,0.2c0,0.1,0,0.2,0.1,0.2C168,126.3,168.1,126.3,168.2,126.3z"/>
				<path class="st25" d="M168.9,128.2l50-4.4c0.1,0,0.2,0,0.2-0.1c0.1-0.1,0.1-0.1,0.1-0.2c0-0.1,0-0.2-0.1-0.2
					c-0.1-0.1-0.1-0.1-0.2-0.1l-50,4.4c-0.1,0-0.2,0-0.2,0.1s-0.1,0.1-0.1,0.2c0,0.1,0,0.2,0.1,0.2
					C168.7,128.2,168.8,128.2,168.9,128.2z"/>
			</g>
			<path class="st17" d="M211.2,98.8l-42.7,3.7l0.1,1.2l42.7-3.7L211.2,98.8z"/>
			<path class="st17" d="M211,96.7l-42.7,3.7l0.1,1.2l42.7-3.7L211,96.7z"/>
			<path class="st17" d="M210.3,95.3l-42.6,3.7l0.1,1.2l42.7-3.7L210.3,95.3z"/>
			<path class="st10" d="M108.6,68.1c-1.5,0.1-3,0.5-4.4,1.2c-1.3,0.7-2.5,1.8-3.4,3c-1.6,2.4-2.8,5.1-3.5,7.9
				c-6.5,0.7-12.2,5.4-13.7,11.2c14.6,4.9,29.4,9.9,44.8,11.9c0.4-2,0.3-4.1-0.2-6.1c-0.5-2-1.4-3.9-2.7-5.5
				c-0.3-0.4-0.6-0.8-0.7-1.2c-0.1-0.5,0-1.1,0.3-1.5c1-2.4,1.7-4.8,2-7.4c0.3-2.6-0.4-5.1-2-7.2c-2-2-4.6-3.4-7.4-3.8
				c-2.8-0.6-5.7-0.8-8.5-1.4L108.6,68.1z"/>
			<path class="st6" d="M120.9,115c2.3,10-8.9,31.5-8.8,32.3c0,0.1,0.7,3-7.4,4.4c-5.5-3.4-5.5-13.3-9.7-18.2
				c-2.1-2.4,1.8-6.8,0.4-9.7c-5-9.6,0.6-18.3-3.7-28.4C91.2,94.6,116,94.1,120.9,115z"/>
			<path class="st17" d="M91.3,96.8c-4.1,1.3-7,5-8.3,9.1c-1.4,4-13.9,7.4-13.9,11.6c0.2,13.7,1,27.7,6.7,40.2
				c0.1,0.2,0.2,0.5,0.3,0.7c0.1,0.2,0.3,0.4,0.5,0.5c0.2,0.1,0.4,0.2,0.7,0.2c0.2,0,0.5,0,0.7-0.1c10.7-0.9,19-2,27.3-8.8
				c-2.3-3.7,17.7-18.6,2.2-48.8c-1.2-2.4-3-4.4-5.3-5.8c-2.2-1.4-5.4-1.7-7.4-0.1L91.3,96.8z"/>
			<path class="st11" d="M20.2,259.5c-1.1,0.1-2-1.1-1.9-2.4l7.3-108.4l5.2-0.5l-9.1,109.5c0,0.4-0.2,0.8-0.4,1.2
				C21,259.2,20.6,259.5,20.2,259.5z"/>
			<path class="st11" d="M224.4,241.7c0.3,0,0.6-0.2,0.9-0.3c0.3-0.2,0.5-0.4,0.6-0.7c0.2-0.3,0.3-0.6,0.3-0.9c0-0.3,0-0.6-0.1-0.9
				l-29.5-105.2l-6.2,0.5l31.7,105.9c0.1,0.5,0.4,0.9,0.8,1.1C223.4,241.6,223.9,241.7,224.4,241.7z"/>
			<path class="st9" d="M19.3,48c1.5,3.9,3.3,7.6,5.3,11.3c0.6,1,1.1,2.1,1.7,3.1c0.2,0.3,0.7-0.1,0.5-0.4c-2.1-3.5-4-7.2-5.6-11
				c-0.5-1.1-0.9-2.2-1.4-3.3c0-0.1-0.1-0.1-0.2-0.2c-0.1,0-0.2,0-0.2,0c-0.1,0-0.1,0.1-0.2,0.2C19.3,47.8,19.3,47.9,19.3,48
				L19.3,48z"/>
			<path class="st9" d="M23.9,55.6c0.2-1.6,0.2-3.3,0.1-4.9c0-0.1-0.1-0.1-0.1-0.2c-0.1,0-0.1-0.1-0.2-0.1c-0.1,0-0.1,0-0.2,0.1
				c-0.1,0-0.1,0.1-0.1,0.2c0.1,1.6,0.1,3.1-0.1,4.7C23.2,55.9,23.8,56,23.9,55.6z"/>
			<path class="st26" d="M107.8,95.7l-5.5,0.8l5.8,1.3L107.8,95.7z"/>
			<path class="st27" d="M56.1,131.5l1.6-2.1c0-0.1,0.1-0.1,0.1-0.2c0-0.1,0-0.2-0.1-0.2c0,0-0.1,0-0.1-0.1c0,0-0.1,0-0.1,0
				c0,0-0.1,0-0.1,0c0,0-0.1,0-0.1,0.1c-0.5,0.7-1.1,1.4-1.6,2.2c0,0.1-0.1,0.1-0.1,0.2c0,0.1,0,0.2,0.1,0.2c0,0,0.1,0,0.1,0.1
				c0,0,0.1,0,0.1,0C56,131.6,56,131.6,56.1,131.5C56.1,131.5,56.1,131.5,56.1,131.5z"/>
			<path class="st27" d="M58.7,131.2c0.1-0.2,0.2-0.4,0.3-0.7c0-0.1,0-0.2,0-0.2c0-0.1-0.1-0.1-0.2-0.2c0,0-0.1,0-0.1,0
				c0,0-0.1,0-0.1,0c0,0-0.1,0-0.1,0.1c0,0-0.1,0.1-0.1,0.1l-0.3,0.7c0,0.1,0,0.2,0,0.2c0,0,0,0.1,0.1,0.1c0,0,0.1,0.1,0.1,0.1
				c0.1,0,0.2,0,0.2,0C58.6,131.3,58.7,131.2,58.7,131.2L58.7,131.2z"/>
			<path class="st27" d="M59.2,133.7l0.9-1c0-0.1,0.1-0.1,0.1-0.2c0-0.1,0-0.2-0.1-0.2c0,0-0.1,0-0.1-0.1c0,0-0.1,0-0.1,0
				c0,0-0.1,0-0.1,0c0,0-0.1,0-0.1,0.1l-0.9,1c0,0,0,0.1-0.1,0.1c0,0,0,0.1,0,0.1c0,0,0,0.1,0,0.1c0,0,0,0.1,0.1,0.1
				c0.1,0,0.1,0.1,0.2,0.1C59,133.8,59.1,133.8,59.2,133.7z"/>
			<path class="st27" d="M62.2,125.5l0.9-0.7c0,0,0.1,0,0.1-0.1c0,0,0-0.1,0-0.1c0-0.1,0-0.2,0-0.2c0,0-0.1-0.1-0.1-0.1
				c0,0-0.1,0-0.1,0c0,0-0.1,0-0.1,0c0,0-0.1,0-0.1,0.1l-0.9,0.7c-0.1,0-0.1,0.1-0.1,0.2c0,0,0,0.1,0,0.1c0,0,0,0.1,0,0.1
				c0,0,0.1,0.1,0.1,0.1c0,0,0.1,0,0.1,0c0,0,0.1,0,0.1,0C62.1,125.5,62.1,125.5,62.2,125.5z"/>
			<path class="st12" d="M55.9,175.7c-0.3,1.1-0.2,2.2,0,3.3c0,0.1,0.1,0.1,0.2,0.2c0.1,0,0.2,0,0.2,0c0.1,0,0.1-0.1,0.2-0.2
				c0-0.1,0-0.2,0-0.2c-0.2-1-0.2-2,0-3C56.6,175.4,56,175.3,55.9,175.7z"/>
			<path class="st12" d="M58,177.5l0.2,2.8c0,0.1,0,0.2,0.1,0.2c0.1,0.1,0.1,0.1,0.2,0.1c0.1,0,0.2,0,0.2-0.1
				c0.1-0.1,0.1-0.1,0.1-0.2l-0.2-2.8c0-0.1,0-0.2-0.1-0.2c-0.1-0.1-0.1-0.1-0.2-0.1c-0.1,0-0.2,0-0.2,0.1
				C58,177.3,58,177.4,58,177.5z"/>
			<path class="st12" d="M58.2,123.4l3,1.2c0,0,0.1,0,0.1,0c0,0,0.1,0,0.1,0c0,0,0.1,0,0.1-0.1c0,0,0.1-0.1,0.1-0.1c0,0,0-0.1,0-0.1
				c0,0,0-0.1,0-0.1c0,0,0-0.1-0.1-0.1c0,0-0.1-0.1-0.1-0.1l-3-1.2c0,0-0.1,0-0.1,0c0,0-0.1,0-0.1,0c0,0-0.1,0-0.1,0.1
				c0,0-0.1,0.1-0.1,0.1c0,0,0,0.1,0,0.1c0,0,0,0.1,0,0.1C58,123.3,58,123.3,58.2,123.4C58.1,123.4,58.1,123.4,58.2,123.4z"/>
			<path class="st12" d="M56.8,125.1l1.6,0.5c0.1,0,0.2,0,0.2-0.1c0.1,0,0.1-0.1,0.1-0.2c0-0.1,0-0.2,0-0.2c0-0.1-0.1-0.1-0.2-0.1
				l-1.6-0.5c-0.1,0-0.2,0-0.2,0.1c-0.1,0-0.1,0.1-0.1,0.2c0,0.1,0,0.2,0.1,0.2C56.7,125.1,56.7,125.1,56.8,125.1z"/>
			<path class="st12" d="M76.3,185.8c0.3,0.5,0.5,1,0.8,1.5c0,0.1,0.1,0.1,0.2,0.2s0.2,0,0.2,0c0.1,0,0.3-0.2,0.2-0.4
				c-0.3-0.5-0.5-1-0.8-1.5c0,0,0-0.1-0.1-0.1c0,0-0.1-0.1-0.1-0.1c0,0-0.1,0-0.1,0c0,0-0.1,0-0.1,0c-0.1,0-0.1,0.1-0.2,0.2
				S76.2,185.8,76.3,185.8z"/>
			<path class="st12" d="M78,185.7c0.2,0.6,0.4,1.3,0.7,1.8c0,0,0,0.1,0.1,0.1c0,0,0.1,0.1,0.1,0.1c0,0,0.1,0,0.1,0c0,0,0.1,0,0.1,0
				c0.1,0,0.1-0.1,0.2-0.2c0-0.1,0-0.2,0-0.2l-0.7-1.8c0-0.1-0.1-0.1-0.2-0.2s-0.2,0-0.2,0c-0.1,0-0.1,0.1-0.2,0.2
				C78,185.6,78,185.6,78,185.7z"/>
			<path class="st28" d="M119.4,93.2l0.2,0.5c0,0.1,0.1,0.1,0.2,0.2l0.1,0l0.1,0c0,0,0.1,0,0.1-0.1c0,0,0.1-0.1,0.1-0.1
				c0,0,0-0.1,0-0.1c0,0,0-0.1,0-0.1L120,93c0-0.1-0.1-0.1-0.2-0.2l-0.1,0l-0.1,0c-0.1,0-0.1,0.1-0.2,0.2
				C119.4,93.1,119.4,93.1,119.4,93.2C119.4,93.2,119.4,93.2,119.4,93.2L119.4,93.2z"/>
			<path class="st14" d="M90.5,98.7c0.6,2,1.8,3.7,3.3,5.2c0.7,0.8,1.4,1.5,2.2,2.3c0.7,0.8,1.4,1.6,2,2.4c2.5,3.6-8.5,6.7-7.6,10.9
				c0.6,2.4,1,4.9,1.3,7.3c0,0.4,0.7,0.3,0.6-0.1c-0.5-4.4-1.5-8.6-3-12.8c-0.7-2,10.9-3,9.7-4.8c-1.2-1.8-2.5-3.5-4.1-5
				c-1.8-1.5-3.1-3.5-3.9-5.7C90.9,98.1,90.3,98.3,90.5,98.7L90.5,98.7z"/>
			<path class="st6" d="M95.3,103.3c-0.3-0.3-3.1-6-2.5-7.8c-3.3,2-6.3,4.4-9.2,7c-4.8,5-16.7,45.6-15.9,48.8
				c4.2-0.4,16.5,8.2,20.5,6.9c4-1.3,7.2-1.3,10-4.4c-1.5-5.5-2.7-11.2-3.3-16.9C94.1,129.1,109.7,117.6,95.3,103.3z"/>
			<path class="st5" d="M126,75.3l-3.2,16.5c-0.2,1.5-0.7,2.9-1.6,4.2c-0.8,0.8-1.7,1.3-2.7,1.6c-1,0.3-2.1,0.4-3.2,0.2
				c-2.1-0.2-3.3-0.9-5.4-1.1c-0.4,1.6-0.9,3.1-1.6,4.5c-0.2,0.6-0.6,1.1-1.1,1.6c-0.5,0.5-1,0.8-1.6,1.1s-1.2,0.4-1.9,0.4
				c-0.6,0-1.3-0.1-1.9-0.4l-0.1,0c-0.6-0.2-1.1-0.6-1.6-1.1c-0.5-0.5-0.8-1-1-1.6c-0.2-0.6-0.4-1.2-0.3-1.9c0-0.6,0.1-1.3,0.4-1.9
				c1.4-3.1,2.9-6.3,4.1-9.2c-0.9,0-4.9-1.3-2.3-6c0.7-1.3,2.7-1.9,3.7-0.8l4-8.6c0.1-0.3,0.3-0.5,0.4-0.7c0.3-0.2,0.7-0.3,1-0.3
				c5-0.1,11.3-2.5,16-0.9L126,75.3z"/>
			<path class="st10" d="M102.6,79.3c-0.7-0.4,1.4-1,0.6-0.8c0.3-2.5,0.8-4.9,1.6-7.2c0.6-1.9,1.6-3.9,3.4-4.7
				c1.6-0.6,3.4-0.6,5.1-0.1l10.4,1.9c1,0,1.9,0.3,2.7,0.9c0.8,0.6,1.4,1.4,1.7,2.3c1.1,2.1-0.8,13.1-1.5,9.9
				c-0.8-3.8-0.7-7.5-1.8-10.3c-4.9,5.3-12.7,10.6-19.9,10.1L102.6,79.3z"/>
			<path class="st10" d="M108.3,68.6c0.4,0,0.9-0.1,1.3-0.3c0.4-0.2,0.7-0.5,1-0.8c0.5-0.6,0.7-1.4,0.8-2.2c0.1-0.9-0.1-1.9-0.5-2.7
				c-0.5-0.8-1.1-1.5-2-1.9c-0.9-0.4-1.9-0.4-2.9-0.3c-1,0.2-1.9,0.6-2.6,1.3c-0.6,0.6-1,1.4-1.2,2.2c-0.2,0.8-0.1,1.7,0.1,2.5
				c0.3,0.9,0.9,1.7,1.7,2.3c0.8,0.5,1.8,0.8,2.7,0.7c1.9-0.3,2.9-2.2,4.6-3L108.3,68.6z"/>
			<path class="st10" d="M105.5,69.1c-1.8,0.4-3.5,1.3-4.8,2.6c-1.5,1.3-2.7,3-3.5,4.8c-0.4,0.9-0.7,1.9-0.8,2.9l0.3-0.2
				c-2.4,0.3-4.8,1-6.9,2.1c-2.1,1.2-4,2.7-5.5,4.6c-0.9,1.1-1.6,2.2-2.2,3.4c-0.2,0.4,0.4,0.6,0.6,0.3c2.1-4.2,5.7-7.4,10.2-9
				c1.2-0.4,2.5-0.7,3.8-0.8c0.1,0,0.1,0,0.2-0.1c0,0,0.1-0.1,0.1-0.2c0.2-1.8,0.9-3.4,2-4.8c1.1-1.6,2.4-2.9,4-3.9
				c0.8-0.5,1.6-0.8,2.5-1c0.4,0,0.3-0.7-0.1-0.6L105.5,69.1z"/>
			<path class="st7" d="M102.4,83.4c0.5,0.8,0.8,1.8,0.8,2.8c0,0.4,0.6,0.3,0.6-0.1c0-1.1-0.4-2.1-0.9-3.1c0,0-0.1-0.1-0.1-0.1
				c0,0-0.1,0-0.1,0c0,0-0.1,0-0.1,0c0,0-0.1,0-0.1,0c-0.1,0-0.1,0.1-0.1,0.2C102.4,83.3,102.4,83.4,102.4,83.4z"/>
			<path class="st7" d="M102.3,85.3l0.1,0l0.6-0.1l0.2,0c0.1,0,0.2,0,0.2-0.1c0.1,0,0.1-0.1,0.1-0.2c0-0.1,0-0.2-0.1-0.2
				c0-0.1-0.1-0.1-0.2-0.1c-0.4-0.1-0.9,0-1.3,0.1c0,0-0.1,0-0.1,0.1c0,0-0.1,0.1-0.1,0.1c0,0,0,0.1,0,0.1c0,0,0,0.1,0,0.1
				c0,0.1,0.1,0.1,0.2,0.2C102,85.3,102.1,85.3,102.3,85.3L102.3,85.3z"/>
			<path class="st7" d="M118.9,84.7c-0.3,1.2-0.2,2.4,0.1,3.6c0.1,0.5,0.4,0.9,0.7,1.2c0.3,0.3,0.8,0.6,1.2,0.8l0-0.6
				c-0.7,0.6-1.6,1.1-2.5,1.4c-0.4,0.1-0.2,0.7,0.2,0.6c1-0.3,1.9-0.9,2.7-1.5c0,0,0.1-0.1,0.1-0.1c0-0.1,0-0.1,0-0.2
				c0-0.1,0-0.1-0.1-0.2c0,0-0.1-0.1-0.2-0.1c-0.4-0.1-0.8-0.3-1-0.6c-0.3-0.3-0.5-0.7-0.6-1c-0.2-1-0.2-2.1,0-3.1
				C119.5,84.4,118.9,84.3,118.9,84.7z"/>
			<path d="M114.1,85c-0.1,0.2-0.2,0.3-0.4,0.5c-0.2,0.1-0.4,0.2-0.6,0.2c-0.2,0-0.4-0.1-0.6-0.2c-0.2-0.1-0.3-0.3-0.4-0.5
				c-0.1-0.2-0.1-0.4-0.1-0.6c0-0.2,0.1-0.4,0.3-0.6c0.1-0.2,0.3-0.3,0.5-0.3c0.2-0.1,0.4,0,0.6,0c0.1,0.1,0.3,0.1,0.4,0.2
				c0.1,0.1,0.2,0.2,0.3,0.4s0.1,0.3,0.1,0.4C114.2,84.7,114.2,84.9,114.1,85z"/>
			<path d="M123.2,87.7c-0.1,0.2-0.2,0.3-0.4,0.5c-0.2,0.1-0.4,0.2-0.6,0.2c-0.2,0-0.4-0.1-0.6-0.2c-0.2-0.1-0.3-0.3-0.4-0.5
				c-0.1-0.2-0.1-0.4-0.1-0.6c0-0.2,0.1-0.4,0.3-0.6c0.1-0.2,0.3-0.3,0.5-0.3c0.2-0.1,0.4,0,0.6,0c0.1,0.1,0.3,0.1,0.4,0.2
				c0.1,0.1,0.2,0.2,0.3,0.4c0.1,0.1,0.1,0.3,0.1,0.4C123.3,87.4,123.3,87.5,123.2,87.7z"/>
			<path class="st29" d="M116.9,80.7c0,0.2-0.1,0.4-0.1,0.6c-0.1,0.3-0.2,0.6-0.3,0.9c0,0.1-0.1,0.2-0.1,0.2
				c-0.1,0.1-0.1,0.1-0.2,0.2c-0.1,0-0.2,0.1-0.3,0.1c-0.1,0-0.2,0-0.3-0.1l-6.1-1.1L116.9,80.7z"/>
			<path class="st29" d="M121.1,79.9l0.5-0.3c0.2-0.2,0.5-0.3,0.7-0.5c0.1-0.1,0.3-0.1,0.4-0.1c0.2,0,0.3,0.2,0.4,0.3l3,4.3
				L121.1,79.9z"/>
			<path class="st10" d="M124.8,71.3c-0.9,3-2.7,5.5-5.3,7.3c-0.3,0.2,0.1,0.7,0.4,0.5c2.7-1.8,4.6-4.5,5.5-7.7
				C125.5,71,124.9,70.9,124.8,71.3z"/>
			<path class="st28" d="M123.5,70.3c-0.7-0.5-1.6-0.8-2.5-1l-3-0.8c-0.4-0.1-0.5,0.5-0.1,0.6l2.8,0.8c0.9,0.1,1.7,0.4,2.4,0.9
				C123.4,71,123.8,70.6,123.5,70.3z"/>
			<path class="st28" d="M121.2,71.4c-3.2,3.3-7.1,5.7-11.5,7.1c-1.2,0.4-2.5,0.7-3.7,1c-0.4,0-0.3,0.7,0.1,0.6
				c6-1.1,11.4-4,15.6-8.3C122,71.5,121.5,71.1,121.2,71.4z"/>
			<path class="st28" d="M116.6,72.9c-1.8,2.3-4.5,3.5-7.1,4.6l-2.7,1.1c-0.4,0.1-0.1,0.7,0.2,0.6c1.5-0.6,3-1.2,4.5-1.9
				c1.3-0.6,2.6-1.3,3.7-2.2c0.6-0.5,1.2-1.1,1.7-1.8C117.3,72.9,116.8,72.5,116.6,72.9L116.6,72.9z"/>
			<path class="st28" d="M105.1,61.9c-0.5,0.2-0.9,0.7-1.2,1.2c-0.3,0.5-0.3,1.1-0.2,1.7c0.1,0.6,0.4,1.1,0.8,1.5
				c0.4,0.4,0.9,0.7,1.5,0.8c0.6,0.1,1.2,0.1,1.8-0.2c0.6-0.2,1.1-0.6,1.4-1.1c0.6-0.9,0.9-2.5-0.3-3c-0.6-0.2-1.3-0.2-1.9,0
				c-0.3,0.1-0.6,0.3-0.7,0.6c-0.1,0.3-0.2,0.6-0.1,1c0,0.1,0.1,0.1,0.2,0.2c0.1,0,0.2,0,0.2,0c0.1,0,0.1-0.1,0.2-0.2
				c0-0.1,0-0.1,0-0.2c-0.2-0.4,0.3-0.8,0.7-0.9c0.4-0.1,0.9-0.1,1.3,0.1c0.9,0.4,0.4,1.7-0.1,2.3c-0.3,0.3-0.7,0.6-1.1,0.8
				c-0.4,0.2-0.9,0.2-1.3,0.1c-0.4-0.1-0.8-0.3-1.1-0.5c-0.3-0.3-0.6-0.6-0.7-1c-0.1-0.5-0.1-0.9,0.1-1.4c0.2-0.4,0.5-0.8,0.9-1
				C105.7,62.3,105.5,61.7,105.1,61.9L105.1,61.9z"/>
			<path class="st28" d="M125.7,71.3c0.6,2.6,0.8,5.3,0.5,8c-0.1,0.4,0.6,0.5,0.6,0.1c0.3-2.8,0.2-5.6-0.5-8.4
				C126.3,70.6,125.6,70.9,125.7,71.3z"/>
			<path class="st28" d="M104.1,71.6c-2,2.1-3.5,4.6-4.4,7.3c-0.3,0.8-0.5,1.6-0.6,2.4l0.3-0.3c-3.6,0.6-6.9,2.5-9.2,5.5
				c-0.6,0.8-1.2,1.7-1.6,2.7c0,0.1,0,0.2,0,0.2c0,0.1,0.1,0.1,0.2,0.2c0.1,0,0.2,0,0.2,0c0.1,0,0.1-0.1,0.2-0.2
				c1.5-3.2,4.2-5.7,7.4-7c0.9-0.4,1.9-0.6,2.8-0.8c0.1,0,0.1,0,0.2-0.1c0.1,0,0.1-0.1,0.1-0.2c0.7-3.6,2.4-6.8,5-9.4
				C104.9,71.7,104.4,71.3,104.1,71.6z"/>
			<path class="st28" d="M96.7,83.7c-2.2,1.5-4,3.5-5.2,5.9c0,0.1,0,0.2,0,0.2c0,0.1,0.1,0.1,0.2,0.2c0.1,0,0.2,0,0.2,0
				c0.1,0,0.1-0.1,0.2-0.2c1.1-2.3,2.8-4.3,5-5.6C97.4,84,97,83.5,96.7,83.7L96.7,83.7z"/>
			<path class="st28" d="M96.8,86.8c-1.2,1-2.1,2.4-2.5,4c0,0,0,0.1,0,0.1c0,0,0,0.1,0,0.1c0,0,0.1,0.1,0.1,0.1c0,0,0.1,0,0.1,0
				c0,0,0.1,0,0.1,0c0,0,0.1,0,0.1-0.1c0,0,0.1-0.1,0.1-0.1c0,0,0-0.1,0-0.1c0.4-1.4,1.2-2.6,2.3-3.6c0.1,0,0.1-0.1,0.1-0.2
				c0-0.1,0-0.2-0.1-0.2c0-0.1-0.1-0.1-0.2-0.1C97,86.7,96.9,86.7,96.8,86.8L96.8,86.8z"/>
			<path class="st10" d="M108.1,80.2c-1.2,1.3-2.1,2.9-2.5,4.6c-1.3,4.1-2.3,8.3-2.8,12.6c-1.5-0.4-4.2-1.4-5.7-1.8
				c3.2-5,6.8-10,8.4-15.6L108.1,80.2z"/>
			<path class="st18" d="M182.2,128.2l-41.2,3.6l7-27.2c0.3-1,0.8-1.9,1.6-2.6c0.8-0.7,1.8-1.1,2.8-1.2l34.2-3
				c0.8-0.1,1.6,0.1,2.3,0.4c0.7,0.3,1.4,0.8,1.9,1.4c0.5,0.6,0.9,1.3,1.1,2.1c0.2,0.8,0.2,1.6,0,2.4l-5.3,20.4
				c-0.3,1-0.8,1.9-1.6,2.6C184.2,127.7,183.2,128.1,182.2,128.2z"/>
			<path class="st18" d="M145.6,129.8l-27.9,2.4l0.1,1.6l27.9-2.4L145.6,129.8z"/>
			<path class="st17" d="M171.9,114.2c0,0.6-0.1,1.1-0.3,1.6c-0.3,0.5-0.7,0.9-1.2,1.1c-0.5,0.3-1,0.4-1.6,0.3
				c-0.5-0.1-1.1-0.3-1.5-0.6c-0.4-0.4-0.7-0.8-0.9-1.4s-0.1-1.1,0-1.6c0.2-0.5,0.5-1,0.9-1.3c0.4-0.3,1-0.6,1.5-0.6
				c0.4,0,0.7,0,1.1,0.1c0.4,0.1,0.7,0.3,1,0.5c0.3,0.2,0.5,0.5,0.7,0.9C171.7,113.4,171.8,113.8,171.9,114.2z"/>
			<path class="st14" d="M187.5,99.6c0.5,0.3,0.9,0.6,1.2,1.1c0.3,0.4,0.6,0.9,0.7,1.5c0.1,0.5,0.1,1.1,0,1.6
				c-0.1,0.5-0.3,1-0.6,1.5c-0.2,0.3,0.2,0.7,0.5,0.4c0.4-0.5,0.6-1.1,0.8-1.7c0.1-0.6,0.1-1.3,0-1.9c-0.1-0.6-0.4-1.2-0.8-1.7
				c-0.4-0.5-0.9-0.9-1.4-1.2c-0.1,0-0.1,0-0.2,0c-0.1,0-0.1,0.1-0.2,0.2c0,0.1,0,0.1,0,0.2C187.4,99.5,187.4,99.6,187.5,99.6z"/>
			<path class="st14" d="M149.2,129.8l24.6-2.2c0.1,0,0.2,0,0.2-0.1c0.1-0.1,0.1-0.1,0.1-0.2c0-0.1,0-0.2-0.1-0.2
				c-0.1-0.1-0.1-0.1-0.2-0.1l-24.6,2.2c-0.1,0-0.2,0-0.2,0.1c-0.1,0.1-0.1,0.1-0.1,0.2c0,0.1,0,0.2,0.1,0.2
				C149.1,129.7,149.2,129.8,149.2,129.8z"/>
			<path class="st10" d="M127.6,72.9l0.2,5.1c0.1,0.8,0,1.6,0.1,2.4c0,0.7,0.2,1.4,0.4,2c0.3,0.5,0.8,1,1.3,1.3
				c0.5,0.3,1.1,0.6,1.7,0.6c0.6,0.1,1.2,0.3,1.9,0.6c0.6,0.3,1.2,0.6,1.7,0.9c1.2,0.9,2.1,2,2.7,3.3c0.2,0.4,0.7,0.1,0.6-0.2
				c-0.5-1.2-1.3-2.2-2.3-3c-1-0.8-2.1-1.5-3.3-1.9c-1.1-0.4-2.6-0.5-3.4-1.4c-0.4-0.5-0.6-1.2-0.7-1.9c-0.1-0.7-0.1-1.5-0.1-2.2
				l-0.2-5.7C128.2,72.5,127.6,72.5,127.6,72.9L127.6,72.9z"/>
			<path class="st10" d="M104.8,69.2c-1.4,0-2.7,0.2-3.9,0.8c-1.3,0.5-2.4,1.3-3.3,2.2C96.7,73.1,96,74,95.3,75
				c-0.7,0.9-1.5,1.7-2.5,2.3c-1.6,0.6-3.3,0.6-4.9,0c-0.4-0.1-0.5,0.5-0.1,0.6c1.5,0.5,3.1,0.6,4.6,0.2c1.1-0.4,2-1.1,2.8-2
				c0.8-0.9,1.5-1.9,2.3-2.8c0.8-1,1.9-1.8,3-2.5c1.4-0.7,2.9-1.1,4.5-1C105.3,69.8,105.2,69.2,104.8,69.2L104.8,69.2z"/>
			<path class="st10" d="M108.1,60.6c1.1,0.6,2,1.4,2.6,2.5c0.6,1,1,2.2,1,3.4c0,0.7,0,1.4-0.2,2c-0.1,0.3,0.4,0.5,0.6,0.2
				c0.4-0.7,1.1-1.3,1.8-1.7c0.7-0.4,1.6-0.6,2.4-0.5c1.8-0.2,3.5,0.3,5,1.2c0.4,0.2,0.7,0.5,1,0.9c0.3,0.4,0.4,0.8,0.5,1.3
				c0,0.1,0,0.2,0.1,0.2c0.1,0.1,0.1,0.1,0.2,0.1c0.1,0,0.2,0,0.2-0.1c0.1-0.1,0.1-0.1,0.1-0.2c-0.2-2-2.2-3.1-4-3.6
				c-1.9-0.5-3.9-0.5-5.7,0.2c-1,0.4-1.8,1.1-2.3,2l0.6,0.2c0.3-1.3,0.3-2.6,0-3.9c-0.3-1.3-1-2.4-1.9-3.4c-0.5-0.5-1.1-1-1.8-1.3
				C108.1,59.9,107.8,60.4,108.1,60.6L108.1,60.6z"/>
			<path class="st26" d="M109.9,96.6l-4-0.6l3.3,2.9L109.9,96.6z"/>
			<path class="st5" d="M111.6,123.4c0.8-0.8,1.8-1.4,2.9-1.8c1-0.3,2.1-0.3,3.2-0.1c3.1,0.3,6.6,0.9,8.1,3.6
				c0.4,0.8,0.7,1.8,0.9,2.7c0.1,0.5,0.2,1.1-0.2,1.5c-1.3-1.2-2.4-2.6-3.3-4.2c1,1.6,1.5,3.4,1.6,5.3c0,0.1,0,0.3-0.1,0.4
				c-0.1,0.1-0.2,0.2-0.3,0.2c-0.1,0-0.3,0-0.4,0c-0.1,0-0.2-0.1-0.3-0.2c-0.9-1.3-1.6-2.7-2-4.2c0.9,1.5,1.5,3.3,1.6,5.1
				c0,0.1,0,0.3-0.1,0.4c-0.1,0.1-0.2,0.2-0.3,0.3c-0.1,0-0.3,0.1-0.4,0c-0.1,0-0.2-0.1-0.3-0.2c-0.9-1.2-1.6-2.4-2.1-3.8
				c0.2,1.3,0.4,2.5,0.5,3.7c0,0.3,0.1,0.7-0.2,0.9c-0.1,0.1-0.3,0.1-0.4,0.1c-0.2,0-0.3-0.1-0.4-0.1c-0.8-0.6-0.6-1.6-1.2-2.3
				c-0.9-1.1-2.7-0.2-4.1,0.1c-0.6,0.1-1.1,0.1-1.7,0c-0.6-0.1-1.1-0.4-1.5-0.7c-0.3-0.2-0.7-0.6-1.1-0.5c-0.2,0-0.4,0.1-0.5,0.2
				c-3.4,1.8-6.9,2.6-10.3,4.4c-0.1-2-0.2-5.1-0.3-7.1C98.7,126.9,109.3,125.1,111.6,123.4z"/>
			<path class="st6" d="M78.3,127.4c11-1.4,15.5-1.3,26.6-2.2c0.4,2.2,1,6.9,1.4,9c-8.8,2.9-17.9,5-27.1,6.2
				c-4.1,0.5-8.8,0.7-11.9-2c-1.8-1.7-3-4-3.2-6.5c-0.2-2.5,0-5.1,0.6-7.5c1.7-9,17.6-28.6,27.6-28.8l0.2,12.1L78.3,127.4z"/>
			<path class="st7" d="M117.1,126.2c1,0.3,1.8,1,2.4,1.8c0.6,0.9,0.8,1.9,0.7,2.9c0,0.4,0.6,0.5,0.6,0.1c0.1-1.2-0.1-2.4-0.8-3.3
				c-0.6-1-1.6-1.7-2.7-2.1C117,125.5,116.7,126.1,117.1,126.2z"/>
			<path class="st7" d="M118.8,124.6c1,0.6,1.8,1.4,2.5,2.3c0.7,0.9,1.1,2,1.4,3.1c0,0.4,0.7,0.3,0.6-0.1c-0.3-1.2-0.8-2.4-1.5-3.4
				c-0.7-1-1.7-1.9-2.7-2.5C118.7,123.9,118.5,124.4,118.8,124.6z"/>
			<path class="st7" d="M120.4,123.9c0.9,0.4,1.7,0.9,2.3,1.7c0.6,0.7,1.1,1.6,1.2,2.6c0,0.4,0.7,0.3,0.6-0.1
				c-0.2-1.1-0.7-2.1-1.4-2.9c-0.7-0.8-1.6-1.5-2.6-1.9C120.3,123.2,120.1,123.8,120.4,123.9z"/>
			<path class="st7" d="M116.9,126.3c1-1,2.1-1.9,3.3-2.8c0.3-0.2-0.1-0.8-0.4-0.5c-1.2,0.9-2.3,1.9-3.4,2.9
				c-0.1,0.1-0.1,0.1-0.1,0.2c0,0.1,0,0.2,0.1,0.2c0.1,0.1,0.1,0.1,0.2,0.1C116.8,126.4,116.9,126.4,116.9,126.3z"/>
			<path class="st7" d="M109.1,127.7l0.6,1.4c0,0.1,0.1,0.1,0.2,0.2c0.1,0,0.2,0,0.2,0c0.1,0,0.1-0.1,0.2-0.2c0-0.1,0-0.2,0-0.2
				l-0.6-1.4c0-0.1-0.1-0.1-0.2-0.2c-0.1,0-0.2,0-0.2,0c-0.1,0-0.1,0.1-0.2,0.2C109.1,127.5,109.1,127.6,109.1,127.7z"/>
			<path class="st30" d="M213,125.8L17.9,142.9c-1.8,0.2-3.2,1.8-3,3.6l0,0c0.2,1.8,1.8,3.2,3.6,3l195.1-17.1c1.8-0.2,3.2-1.8,3-3.6
				l0,0C216.4,127,214.8,125.7,213,125.8z"/>
			<path class="st30" d="M280.1,190.3l-51,4.5c-1.4,0.1-2.4,1.3-2.2,2.7l0,0c0.1,1.4,1.3,2.4,2.7,2.2l51-4.5
				c1.4-0.1,2.4-1.3,2.2-2.7l0,0C282.7,191.2,281.5,190.2,280.1,190.3z"/>
			<path class="st2" d="M31,134.4l-12,1c-0.9,0.1-1.6,0.9-1.5,1.8l0,0c0.1,0.9,0.9,1.6,1.8,1.5l12-1c0.9-0.1,1.6-0.9,1.5-1.8l0,0
				C32.7,135,31.9,134.3,31,134.4z"/>
			<path class="st2" d="M30,124l-12,1c-0.9,0.1-1.6,0.9-1.5,1.8l0,0c0.1,0.9,0.9,1.6,1.8,1.5l12-1c0.9-0.1,1.6-0.9,1.5-1.8l0,0
				C31.7,124.6,30.9,123.9,30,124z"/>
			<path class="st2" d="M29.1,113.6l-12,1c-0.9,0.1-1.6,0.9-1.5,1.8l0,0c0.1,0.9,0.9,1.6,1.8,1.5l12-1c0.9-0.1,1.6-0.9,1.5-1.8l0,0
				C30.8,114.2,30,113.5,29.1,113.6z"/>
			<path class="st14" d="M94.1,125.3c-5.3,0-10.6,0.6-15.8,1.7c-1.5,0.3-2.9,0.6-4.4,1c-0.4,0-0.2,0.7,0.2,0.6
				c5.1-1.4,10.3-2.2,15.6-2.5c1.5-0.1,3-0.2,4.4-0.2C94.6,125.9,94.5,125.3,94.1,125.3z"/>
			<path class="st14" d="M75.8,130.5c0.3-1.2,1.1-2.2,2.2-2.8c0.1,0,0.1-0.1,0.1-0.2c0-0.1,0-0.2,0-0.2c0-0.1-0.1-0.1-0.2-0.1
				c-0.1,0-0.2,0-0.2,0c-1.2,0.7-2.1,1.9-2.5,3.2c0,0.1,0,0.2,0.1,0.2c0,0.1,0.1,0.1,0.2,0.1c0,0,0.1,0,0.1,0c0,0,0.1,0,0.1,0
				c0,0,0.1-0.1,0.1-0.1C75.8,130.6,75.8,130.6,75.8,130.5L75.8,130.5z"/>
			<path class="st14" d="M101.1,126.7c0,2.2,0,4.4,0.1,6.7c0,0.4,0.6,0.3,0.6-0.1c0-2.2,0-4.4-0.1-6.7
				C101.7,126.2,101.1,126.3,101.1,126.7z"/>
			<path class="st14" d="M92.1,144.3c0,2.8,0.2,5.5,0.4,8.2c0,0.1,0,0.2,0.1,0.2c0.1,0.1,0.1,0.1,0.2,0.1c0.1,0,0.2,0,0.2-0.1
				s0.1-0.1,0.1-0.2c-0.2-2.7-0.4-5.5-0.4-8.2C92.7,143.9,92.1,143.9,92.1,144.3z"/>
			<path class="st12" d="M52.4,155.2c9.8-3.8,20.7-3.8,30.5-0.2c2.9,1,5.6,2.5,7.9,4.5c3.5,3.5,5.8,8,6.5,12.9
				c0.5,1.9,0.4,3.9-0.3,5.8c-1.3,2.8-4.5,4-7.5,4.6c-6.4,1.2-13.1,0.7-19.2-1.5c-6.2-2.2-11.7-5.9-16-10.8
				c-2.1-2.3-3.6-5.1-4.1-8.1c-0.3-3.1,1.1-6.5,3.9-7.7L52.4,155.2z"/>
			<path class="st27" d="M63.2,175c1.3,1.3,2.8,2.3,4.5,3.1c0.4,0.2,0.6-0.4,0.3-0.6c-1.6-0.7-3.1-1.7-4.4-3
				C63.4,174.3,63,174.8,63.2,175z"/>
			<path class="st27" d="M66.7,174.6c0.6,0.7,1.3,1.2,2.1,1.6c0,0,0.1,0,0.1,0c0,0,0.1,0,0.1,0c0,0,0.1,0,0.1-0.1
				c0,0,0.1-0.1,0.1-0.1c0-0.1,0-0.2,0-0.2c0-0.1-0.1-0.1-0.2-0.2c-0.2-0.1-0.4-0.2-0.5-0.3l-0.1-0.1l-0.1,0l-0.2-0.2
				c-0.2-0.1-0.3-0.2-0.5-0.4l-0.2-0.2l-0.1-0.1c-0.1-0.1-0.1-0.1-0.2-0.1c-0.1,0-0.2,0-0.2,0c0,0-0.1,0.1-0.1,0.1
				C66.8,174.5,66.8,174.5,66.7,174.6C66.7,174.6,66.7,174.6,66.7,174.6c0.1,0.1,0.1,0.1,0.1,0.1L66.7,174.6z"/>
			<path class="st27" d="M70.3,172.8c0.2,0.3,0.5,0.5,0.9,0.6c0.3,0.1,0.7,0.2,1.1,0.2c0.1,0,0.2,0,0.2-0.1c0.1-0.1,0.1-0.1,0.1-0.2
				c0-0.1-0.1-0.1-0.1-0.2c-0.1-0.1-0.1-0.1-0.2-0.1l-0.1,0l-0.2,0l-0.2-0.1l-0.1,0l-0.2-0.1l-0.1,0l-0.2-0.1l-0.1-0.1
				c-0.1-0.1-0.1-0.1-0.2-0.1c-0.1,0-0.2,0-0.2,0.1c0,0-0.1,0.1-0.1,0.1c0,0,0,0.1,0,0.1c0,0,0,0.1,0,0.1c0,0,0,0.1,0.1,0.1
				L70.3,172.8z"/>
			<path class="st27" d="M59.5,168.7l1.4,1.2c0.1,0.1,0.1,0.1,0.2,0.1c0.1,0,0.2,0,0.2-0.1c0.1-0.1,0.1-0.1,0.1-0.2
				c0-0.1,0-0.2-0.1-0.2l-1.4-1.2c-0.1,0-0.1-0.1-0.2-0.1c-0.1,0-0.2,0-0.2,0.1c0,0,0,0.1-0.1,0.1c0,0,0,0.1,0,0.1
				C59.5,168.6,59.5,168.6,59.5,168.7C59.5,168.7,59.5,168.7,59.5,168.7L59.5,168.7z"/>
			<path class="st27" d="M51.9,154.2c4.8-1.4,9.8-2,14.8-1.9c1.4,0,2.8,0.1,4.2,0.2c0.4,0,0.5-0.6,0.1-0.6
				c-5.1-0.5-10.2-0.3-15.2,0.7c-1.4,0.3-2.8,0.6-4.2,1C51.3,153.7,51.5,154.3,51.9,154.2z"/>
			<path class="st27" d="M97.1,176.6l0.3,3.8c0,0.1,0.1,0.1,0.1,0.2c0.1,0,0.1,0.1,0.2,0.1c0.1,0,0.1,0,0.2-0.1
				c0.1,0,0.1-0.1,0.1-0.2l-0.3-3.8c0-0.1-0.1-0.1-0.1-0.2c-0.1,0-0.1-0.1-0.2-0.1c-0.1,0-0.1,0-0.2,0.1
				C97.1,176.5,97.1,176.6,97.1,176.6z"/>
			<path class="st27" d="M72.2,178.5l2.1,1c0,0,0.1,0,0.1,0c0,0,0.1,0,0.1,0c0,0,0.1,0,0.1-0.1c0,0,0.1-0.1,0.1-0.1
				c0-0.1,0-0.2,0-0.2c0-0.1-0.1-0.1-0.2-0.2l-2.1-1c0,0-0.1,0-0.1,0c0,0-0.1,0-0.1,0c0,0-0.1,0-0.1,0.1c0,0-0.1,0.1-0.1,0.1
				c0,0,0,0.1,0,0.1c0,0,0,0.1,0,0.1C72.1,178.3,72.1,178.4,72.2,178.5C72.1,178.4,72.2,178.5,72.2,178.5z"/>
			<path class="st7" d="M114.2,89.4c1.4,0.8,2.7,1.9,3.7,3.1c0,0.1,0.1,0.1,0.2,0.1c0.1,0,0.2,0,0.2,0c0.1,0,0.1-0.1,0.1-0.2
				c0-0.1,0-0.2,0-0.2c-1.1-1.3-2.5-2.4-4-3.3c0,0-0.1,0-0.1,0c0,0-0.1,0-0.1,0c0,0-0.1,0-0.1,0.1c0,0-0.1,0.1-0.1,0.1
				c0,0,0,0.1,0,0.1c0,0,0,0.1,0,0.1C114,89.3,114.1,89.3,114.2,89.4C114.1,89.4,114.2,89.4,114.2,89.4z"/>
			<path class="st7" d="M114.6,88.2c-0.6,0.7-1.2,1.4-1.7,2.2c0,0.1-0.1,0.1-0.1,0.2c0,0.1,0,0.2,0.1,0.2c0.1,0.1,0.1,0.1,0.2,0.1
				c0.1,0,0.2,0,0.2-0.1c0.5-0.8,1.1-1.5,1.7-2.2c0,0,0-0.1,0.1-0.1c0,0,0-0.1,0-0.1c0,0,0-0.1,0-0.1c0,0,0-0.1-0.1-0.1
				c-0.1-0.1-0.1-0.1-0.2-0.1C114.7,88.1,114.6,88.1,114.6,88.2z"/>
			<path class="st6" d="M93.4,105c3.2,4.3,5.9,8.9,8.1,13.8c1.1-1.6,1.8-3.5,2.1-5.4c0.3-1.9,0.2-3.9-0.2-5.8
				c-1-3.8-2.8-7.3-5.2-10.4c-0.7-1-1.8-1.7-3-2c-1.2-0.3-2.4-0.2-3.6,0.3l-2.3,1l1.6,9.6L93.4,105z"/>
		</g>
	</g>
</g>
</svg>
