<?xml version="1.0" encoding="utf-8"?>
<!-- Generator: Adobe Illustrator 25.3.1, SVG Export Plug-In . SVG Version: 6.00 Build 0)  -->
<svg version="1.1" id="圖層_1" xmlns="http://www.w3.org/2000/svg" xmlns:xlink="http://www.w3.org/1999/xlink" x="0px" y="0px"
	 viewBox="0 0 240 300" style="enable-background:new 0 0 240 300;" xml:space="preserve">
<style type="text/css">
	.st0{opacity:0.46;}
	.st1{fill:#DB8851;}
	.st2{fill:#FFFFFF;}
	.st3{fill:#E3E3E3;}
	.st4{opacity:0.14;}
	.st5{clip-path:url(#SVGID_2_);}
	.st6{fill-rule:evenodd;clip-rule:evenodd;fill:#E3E3E3;}
	.st7{fill-rule:evenodd;clip-rule:evenodd;fill:#F7F2F3;}
	.st8{fill-rule:evenodd;clip-rule:evenodd;fill:#F5A475;}
	.st9{fill-rule:evenodd;clip-rule:evenodd;fill:#6DACEA;}
	.st10{fill-rule:evenodd;clip-rule:evenodd;fill:#2C5484;}
	.st11{fill-rule:evenodd;clip-rule:evenodd;fill:#FFC9A9;}
	.st12{fill-rule:evenodd;clip-rule:evenodd;fill:#36303A;}
	.st13{fill-rule:evenodd;clip-rule:evenodd;fill:#1D3663;}
	.st14{fill-rule:evenodd;clip-rule:evenodd;fill:#D9544A;}
	.st15{fill-rule:evenodd;clip-rule:evenodd;fill:#F59A90;}
</style>
<g>
	<g class="st0">
		<path class="st1" d="M0.3,25.5L234.5,4.9l4.8,269.8l-204.6,24L0.3,25.5z"/>
	</g>
	<path class="st2" d="M0,21.7L234.2,1.3l4.8,269.8L40.4,294.3L0,21.7z"/>
	<path class="st3" d="M8.6,29.4l38,255.8l184.5-21.6l-4.5-253.3L8.6,29.4z"/>
	<g class="st4">
		<path class="st2" d="M232.9,208.5l-37.4,62.7l38.4-4.5L232.9,208.5z"/>
		<path class="st2" d="M229.9,42.7L40.4,261l4.1,27.8l23.3-2.7L230.8,88.5L229.9,42.7z"/>
		<path class="st2" d="M18.3,111.7L30.2,192L209.3,8.4l-88.8,7.8C89.7,44.8,47.4,84.4,18.3,111.7z"/>
	</g>
	<g>
		<g>
			<defs>
				
					<rect id="SVGID_1_" x="21.9" y="56.1" transform="matrix(0.9962 -8.715528e-02 8.715528e-02 0.9962 -13.2912 11.6451)" width="209.6" height="203.9"/>
			</defs>
			<clipPath id="SVGID_2_">
				<use xlink:href="#SVGID_1_"  style="overflow:visible;"/>
			</clipPath>
			<g class="st5">
				<path class="st6" d="M165.9,247.4c21.6-2,39.3-1.4,39.5,1.1c0.2,2.4-17.1,6-38.7,8c-21.6,2-39.3,1.4-39.5-1.1
					C127.1,252.8,144.3,249.2,165.9,247.4z"/>
				<path class="st6" d="M134.3,253.2c34.4-3,62.3-4.1,62.4-2.3c0.2,1.8-27.5,5.6-61.8,8.6s-62.3,4.1-62.4,2.3
					C72.3,260.1,99.9,256.2,134.3,253.2z"/>
				<path class="st7" d="M151.7,143.1l52.2-4.5l4.5,51.6l-52.2,4.5L151.7,143.1z"/>
				<path class="st6" d="M163.2,194.1l52.2-4.5l4.5,51.6l-52.2,4.5L163.2,194.1z"/>
				<path class="st6" d="M58.4,145.3l-13.8,1.2l4.5,51.6l13.8-1.2L58.4,145.3z"/>
				<path class="st7" d="M58.4,145.3l52.2-4.5l4.5,51.6L62.9,197L58.4,145.3z"/>
				<path class="st6" d="M59.7,197.3l-15.3,1.4l5.1,57.5l15.3-1.4L59.7,197.3z"/>
				<path class="st7" d="M59.7,197.3l58.2-5.1l5.1,57.5l-58.2,5.1L59.7,197.3z"/>
				<path class="st8" d="M173,102.7c0,0-1.7-0.2-2.1,0.3c-0.5,0.5,0,1.8,0.2,1.8c0.2,0,2.1,2.7,2.6,2.6c0.5-0.2,1.5-0.9,1.7-1.1
					C175.4,105.9,173,102.6,173,102.7L173,102.7z"/>
				<path class="st7" d="M174.9,244.2c-0.3,0.9-0.5,1.8-0.6,2.9c0.2,4.1,2.4,4.2,6.2,4.4c3,0,11-1.2,12.3-4.5c0,0,0.5-2.6-0.6-3.3
					S174.9,244.2,174.9,244.2L174.9,244.2z"/>
				<path class="st9" d="M177,234.3c0,0,1.2,4.5-0.8,7.2c-2,2.9-1.7,3.9-1.5,4.5c0.5,4.5,14.4,1.5,16.8-0.2c1.1-0.8,0.6-2.4,0.6-2.4
					s-1.7-6.9-2.3-8.6c-0.8-1.8-1.4-3.6-1.4-3.6S176.1,231.2,177,234.3L177,234.3z"/>
				<path class="st9" d="M112.5,99.6c0,0-2.6,3.6-1.5,10.4c1.2,7.8,3.2,15.3,5.9,22.8c3.9-0.5,10.2-1.2,12.2-4.5
					c0.3-1.4-0.8-11.1-0.8-11.1L112.5,99.6z"/>
				<path class="st10" d="M142.1,141.4c0,0-6.5,13.8-9.3,18.3c-2.1,3.3-4.7,9-6.3,14.3c-0.8,2.4-0.5,5.6-0.5,7.2
					c0.2,5.7,1.7,12.3,1.7,12.3l20.6-2.3l-1.4-10.5c11.6-17.6,18.8-28.7,16.4-44.7L142.1,141.4L142.1,141.4z"/>
				<path class="st10" d="M161,141c0,0-2.6,28.7-2.1,38.7c0.2,4.1,0.8,8.4,2.4,11.1l19.8-8.3c1.2-10.5,8.4-44.1,1.7-50.6
					C181.4,130.6,157.2,133.3,161,141L161,141z"/>
				<path class="st11" d="M163.8,68.4c1.7-0.8,10.4-3.8,13.1-0.5c1.2,1.4,3.9,10.5,3.9,17c-0.2,6.5-0.8,19.1-0.8,19.1l-6.3-4.4
					c0,0-0.6-9-2.3-13.4c-1.7-4.4-3.3-10.4-3.3-10.4L163.8,68.4z"/>
				<path class="st9" d="M128.3,80.4c0,0,8-3.6,14.4-5.9c5.6-2,14.7-4.8,17.6-5.6c1.7-0.5,3.5-1.4,4.8-0.2c3.6,3.2,6.2,9.3,5,14.1
					l-13.1,6.9l-25.8,9.9L128.3,80.4L128.3,80.4z"/>
				<path class="st12" d="M156.8,86.7l17.9,21.2c6.2,7.8,10.2,13.1,11.1,28.1c0.6,11-46.2,10.1-44.1,5.3c1.5-3.2-0.2-3.3,0.5-7.7
					c0.3-2-0.3-3.5-2.6-5.3c-14.6-11.4-15.8-15-27-28.7l6.2-10.2l9.6-9c0,0,4.2-2.4,11.3-5c7.1-2.6,11.6-3.6,11.6-3.6L156.8,86.7z"
					/>
				<path class="st11" d="M173.6,99.4c-1.5,2.6-0.6,4.8,0.2,6.9c0.5,1.4,0.9,2.7,1.2,4.1c0,0.5-0.8,2.1-0.8,3.9s0.5,2.7,1.1,2.9
					c0.2,0,0.3,0.2,0.5,0.2s0.3-0.2,0.5-0.2c0.2-0.2,0.3-0.3,0.3-0.5c0-0.2,0.2-0.3,0-0.5c0-0.9,1.1-4.1,1.4-4.5
					c0.3-0.5,1.8-2.7,1.8-2.7c0.2-0.8-0.2-4.2,0.2-5.3c0.3-0.9-1.7-2.9-1.7-2.9L173.6,99.4L173.6,99.4z"/>
				<path class="st11" d="M124.1,176.3c0.3,1.2,1.2,4.8,1.2,5.3c0,0.5,0.8,0.5,0.9,0.5c0.2-0.2,0.6-0.8,0.6-1.5
					c0-0.6-0.2-4.2-0.2-5.6c0,0.5,0.2,0.9,0.2,1.2c0.5,1.1,2,4.4,2.1,4.8c0.3,0.5,1.4,0.6,1.5-0.8c0.2-1.4-0.8-4.4-0.8-4.5
					c-0.3-3.9,0.6-3.8,1.5-7.4c1.2,1.4,1.4,2.4,2.4,3.8c1.1,1.5,1.4,2.9,2.7,1.7c1.4-1.2-0.3-3.3-0.5-3.6c-0.5-1.1-0.8-2.3-0.9-3.5
					c-0.2-1.2-0.3-2.9-0.5-3.3c-0.2-0.6-0.3-1.2-0.6-1.7c-0.2-0.3-1.4-1.7-1.4-1.7c-3.3-10.5-0.8-19.5-5.3-31.2
					c-1.2-2.9-10.4,2.3-10.4,3.9c2.3,9.8,7.1,19.8,8.1,29.6C125.4,167.1,123.6,174.2,124.1,176.3L124.1,176.3z"/>
				<path class="st11" d="M99.6,80.1c5.3,5.9,10.7,14,19.8,12.2c0.5-0.2,0.9-0.3,1.4-0.5c4.4,2.6,5.3,4.5,8.3,2.4
					c3.6-2.4,6-11,2.3-13.7c-3.8-3.2-4.4-4.8-4.8-8c0-0.2,0-0.3,0-0.5c4.8-1.1,1.1-9.9-3.9-6.2C112.7,48.6,86.9,65.7,99.6,80.1z"/>
				<path class="st8" d="M111.2,82.5c0.5,1.4,1.4,1.5,1.8,1.5c0.8-0.2,0.8,0.5,0.2,0.6c-0.8,0.3-2,0.5-2.9-1.7
					c-0.9-2.3-1.5-3.8-4.1-4.7C106.1,78.1,109.5,77.5,111.2,82.5L111.2,82.5z"/>
				<path class="st8" d="M119.6,92.2c3.3-0.8,6.3-6.8,6.3-9.9v0.3C126.5,86.5,124.1,91.5,119.6,92.2z"/>
				<path class="st13" d="M103.7,80.2c0.5-0.9,0.9-3.9,1.5-1.7c0.2,0.3,0.2,0.5,0.2,0.8s-0.2,0.5-0.2,0.8
					C104.4,81,103.2,81.1,103.7,80.2z"/>
				<path class="st13" d="M110.7,72.3c-0.6,0.3-1.7,0.5-1.8,0.8c-0.8,0.9,2.3,1.5,3.3-0.3c0.6-1.1,0.2-1.2-0.3-1.1
					C111.6,71.8,111,72.1,110.7,72.3z"/>
				<path class="st13" d="M105.9,82.8c0.2,0.2,0.5,0.3,0.8,0.3s0.5-0.2,0.6-0.3c0.2-0.2,0.2-0.2,0.2-0.3c0-0.2,0-0.3,0-0.3
					c0-0.2,0-0.3,0-0.3c0-0.2-0.2-0.2-0.2-0.3c-0.2-0.2-0.5-0.3-0.8-0.3s-0.5,0.2-0.6,0.3c-0.2,0.2-0.2,0.2-0.2,0.3
					c0,0.2,0,0.3,0,0.3c0,0.2,0,0.3,0,0.3C105.8,82.6,105.9,82.8,105.9,82.8z"/>
				<path class="st13" d="M112.4,75.6c0.2,0.2,0.5,0.3,0.8,0.3s0.5-0.2,0.6-0.3c0.2-0.2,0.2-0.2,0.2-0.3c0-0.2,0-0.3,0-0.3
					c0-0.2,0-0.3,0-0.3c0-0.2-0.2-0.2-0.2-0.3c-0.2-0.2-0.5-0.3-0.8-0.3s-0.5,0.2-0.6,0.3c-0.2,0.2-0.2,0.2-0.2,0.3
					c0,0.2,0,0.3-0.2,0.3c0,0.2,0,0.3,0,0.3C112.2,75.3,112.4,75.4,112.4,75.6z"/>
				<path class="st13" d="M115.5,87c3.5,2.9,4.4-1.1,3.3-2.3C117.5,83.4,113.6,85.5,115.5,87z"/>
				<path class="st13" d="M102,82.8c-2-3.8-2.7-3-3.8-7.1c-0.2-0.5,4.7-6.2,5.1-6.6c0.6-0.5,1.1,1.8,1.7,1.7c1.7-0.9,5-6,6-5.9
					c2,0.2,1.5,4.8,5.4,4.1c2.6-0.5,4.8,2.9,6,3.9c0.3,0.3,1.2-0.8,0.2-3c-0.8-2-0.5-4.1,0.9-4.7c-2.4-3-5.9-10.4-11.7-8
					c-4.1-1.1-9.2,1.4-12.5,5.1c-3.2,3.6-4.2,8.9-5,12.3c-1.2,6.6,2,2.9,2,2.9S101.4,82.3,102,82.8z"/>
				<path class="st8" d="M126.9,69.6c-1.8,0.9-3.2-1.2-2.9-2.4c0.3-1.2-1.8,0.6,0.5,2.7C126.5,71.7,127.5,69.3,126.9,69.6
					L126.9,69.6z"/>
				<path class="st10" d="M158.9,171.6c0,5.7,0,12.3,1.4,16.8c1.2,4.4,11,34.7,12.5,36.6c1.1,2.7,1.8,8,4.1,9.9
					c0.2,0.2,0.3,0.3,0.5,0.3c0.5-1.5,9.3-1.7,12.5-1.1c1.5-0.8-0.5-6.3,0-8.9c0.3-1.8,0.5-3.8,0.2-5.6c-0.5-2.3-1.7-5.7-2.1-7.8
					c-2.9-12.2-4.7-16.7-6.5-29.6C179.1,167.3,169.8,165.5,158.9,171.6L158.9,171.6z"/>
				<path class="st6" d="M186.8,240.9c-2.3-0.2-4.7,0-6.9,0.6C179.6,240.5,185.9,239.7,186.8,240.9z"/>
				<path class="st6" d="M186.6,238.5c-2.3-0.2-4.7,0-6.9,0.6C179.4,238.1,185.9,237.3,186.6,238.5z"/>
				<path class="st6" d="M186.5,236.3c-2.3-0.2-4.7,0-6.9,0.6C179.3,235.7,185.7,234.9,186.5,236.3z"/>
				<path class="st9" d="M186.5,87L185,97.3l5.9-9L186.5,87z"/>
				<path class="st9" d="M202.4,93l-12.2,7.7l13.8-2.4L202.4,93z"/>
				<path class="st9" d="M197.9,109.2l-10.8,0.8l10.8,3.9V109.2z"/>
				<path class="st14" d="M87.3,260.9l84-7.4l-6.9-78.9l-84,7.4L87.3,260.9z"/>
				<path class="st12" d="M115.7,195l17.4-1.5c0.5,0,1.1,0.2,1.5,0.5c0.5,0.3,0.6,0.8,0.8,1.4l0.2,2.6c0,0.6-0.2,1.1-0.5,1.5
					c-0.3,0.5-0.9,0.6-1.4,0.8l-17.4,1.5c-0.6,0-1.1-0.2-1.5-0.5c-0.5-0.3-0.6-0.9-0.8-1.4l-0.2-2.6c0-0.5,0.2-1.1,0.5-1.5
					C114.6,195.3,115.2,195,115.7,195z"/>
				<path class="st15" d="M114.3,179.1l16.2-1.4l0.8,7.8l-4.1-0.6l-3.2,2.1l-4.2-0.5l-3.2,1.5l-1.7-1.4L114.3,179.1z"/>
				<path class="st15" d="M143.6,238.5l6-0.5l0.5,5.4c0,0.5,0,0.8-0.2,1.2c-0.2,0.5-0.3,0.8-0.6,1.1c-0.3,0.3-0.6,0.6-0.9,0.8
					s-0.8,0.3-1.2,0.3c-0.8,0-1.7-0.2-2.3-0.8c-0.6-0.5-1.1-1.2-1.1-2.1L143.6,238.5L143.6,238.5z"/>
				<path class="st15" d="M146.7,244.7l1.1-0.2l0.6,7.4l-1.1,0.2L146.7,244.7z"/>
				<path class="st15" d="M145.1,252.6l2.9-0.3l2.9-0.3l-3-1.2L145.1,252.6z"/>
				<path class="st15" d="M156.5,250.5l9.6-0.9l0.2,1.2l-9.6,0.9L156.5,250.5z"/>
				<path class="st15" d="M159.5,249.5l-0.8-8l1.2-0.2l-2.9-4.1l-2.1,4.5l1.2-0.2l0.8,8L159.5,249.5z"/>
				<path class="st15" d="M165.2,249l-0.8-8l1.2-0.2l-2.9-4.1l-2.1,4.5l1.2-0.2l0.8,8L165.2,249z"/>
				<path class="st15" d="M137.4,256.5l-16.2,1.4l-0.6-6.6l3.9-0.6l2.9,0.9l4.7-0.9l4.8-0.8L137.4,256.5z"/>
				<path class="st6" d="M62.9,197l18.6-1.7l-0.2-0.9l-18.6,1.7L62.9,197z"/>
				<path class="st6" d="M79.5,143.5l11.9-1.1l0.5,5.7l-2.9-0.5l-2.3,1.7l-3-0.5l-2.4,1.1l-1.2-0.9L79.5,143.5z"/>
				<path class="st8" d="M127.4,177.9c-0.2-0.2-0.5-0.9-0.8-1.8c-0.2-0.5-0.3-0.8-0.3-1.2s0-0.8,0-1.2c0.2-1.2,0-1.7,0.2-2
					c0.3,0.5,0.3,1.7,0.3,2c0,0.3,0,0.9,0,1.2c0,0.3,0.2,0.8,0.3,1.1c0.3,0.8,0.6,1.8,0.8,2H127.4z"/>
				<path class="st6" d="M30.3,257.7l19.2-1.7l-0.2-0.9l-19.2,1.7L30.3,257.7z"/>
				<path class="st6" d="M220,241.1l19.2-1.7l-0.2-0.9l-19.2,1.7L220,241.1z"/>
			</g>
		</g>
	</g>
</g>
</svg>
