<?xml version="1.0" encoding="utf-8"?>
<!-- Generator: Adobe Illustrator 25.3.1, SVG Export Plug-In . SVG Version: 6.00 Build 0)  -->
<svg version="1.1" id="圖層_1" xmlns="http://www.w3.org/2000/svg" xmlns:xlink="http://www.w3.org/1999/xlink" x="0px" y="0px"
	 viewBox="0 0 100 120" style="enable-background:new 0 0 100 120;" xml:space="preserve">
<style type="text/css">
	.st0{opacity:0.46;}
	.st1{fill:#DB8851;}
	.st2{fill:#FFFFFF;}
	.st3{fill:#E3E3E3;}
	.st4{opacity:0.14;}
	.st5{fill:#FFFFFF;filter:url(#Adobe_OpacityMaskFilter);}
	.st6{mask:url(#mask0_108_48_1_);}
	.st7{fill:#C9C9C9;}
	.st8{fill:#FFB570;}
	.st9{opacity:0.2;enable-background:new    ;}
	.st10{fill:#1A2E35;}
	.st11{fill:#007CFF;}
	.st12{opacity:0.3;fill:#FFFFFF;enable-background:new    ;}
	.st13{opacity:0.7;fill:#FFFFFF;enable-background:new    ;}
	.st14{opacity:0.6;fill:#FFFFFF;enable-background:new    ;}
	.st15{opacity:0.1;enable-background:new    ;}
	.st16{opacity:0.3;enable-background:new    ;}
	.st17{opacity:0.4;enable-background:new    ;}
	.st18{fill:#FF8935;}
	.st19{fill:#BA221F;}
	.st20{fill:none;stroke:#1A2E35;stroke-width:1.22;stroke-miterlimit:10;}
	.st21{opacity:0.1;fill:#FFFFFF;enable-background:new    ;}
	.st22{opacity:0.5;}
</style>
<g>
	<g class="st0">
		<path class="st1" d="M0.1,10.1l94.2-8.2L96.3,110l-82.4,9.6L0.1,10.1z"/>
	</g>
	<path class="st2" d="M0,8.6l94.2-8.2l1.9,108.2l-80,9.4L0,8.6z"/>
	<path class="st3" d="M2.3,10.4l15.6,105.3l76.2-8.9L92.3,2.5L2.3,10.4z"/>
	<g class="st4">
		<path class="st2" d="M93.7,83.4l-15.1,25.1l15.5-1.8L93.7,83.4z"/>
		<path class="st2" d="M92.5,17l-76.3,87.6l1.6,11.1l9.4-1.1l65.6-79.2L92.5,17z"/>
		<path class="st2" d="M7.4,44.7l4.8,32.2L84.2,3.2L48.5,6.4C36.1,17.8,19.1,33.7,7.4,44.7z"/>
	</g>
	<defs>
		<filter id="Adobe_OpacityMaskFilter" filterUnits="userSpaceOnUse" x="20.4" y="11.9" width="79.6" height="96.7">
			<feColorMatrix  type="matrix" values="1 0 0 0 0  0 1 0 0 0  0 0 1 0 0  0 0 0 1 0"/>
		</filter>
	</defs>
	<mask maskUnits="userSpaceOnUse" x="20.4" y="11.9" width="79.6" height="96.7" id="mask0_108_48_1_">
		<path class="st5" d="M92.3,2.5L2.3,10.9l15.5,104.8l76.2-8.9L92.3,2.5z"/>
	</mask>
	<g class="st6">
		<path class="st7" d="M99.8,100.4c-0.2,0.3-0.4,0.7-0.6,1c-0.2,0.4-0.5,0.8-0.7,1.1c-7.7,1.1-20.5,2.5-35,3.8
			c-23.7,2.1-43,3-43.1,2c-0.1-1,17.1-3.2,39-5.2l3.8-0.3C78.7,101.4,92.2,100.6,99.8,100.4z"/>
		<path class="st7" d="M100,102.4l-33.9,3c-0.1,0-0.3,0-0.4,0c-0.1,0-0.3-0.1-0.4-0.2c-0.1-0.1-0.2-0.2-0.3-0.3s-0.1-0.3-0.1-0.4
			l-0.6-7.1c0-0.1,0-0.3,0-0.4c0-0.1,0.1-0.3,0.2-0.4c0.1-0.1,0.2-0.2,0.3-0.3c0.1-0.1,0.3-0.1,0.4-0.1l6.7-0.6
			c0.1,0,0.3-0.1,0.4-0.1c0.1-0.1,0.2-0.2,0.3-0.3c0.1-0.1,0.2-0.2,0.2-0.4c0-0.1,0.1-0.3,0-0.4l-0.6-6.9c0-0.3,0.1-0.6,0.2-0.8
			c0.2-0.2,0.4-0.4,0.7-0.4l6.8-0.6c0.1,0,0.3-0.1,0.4-0.1c0.1-0.1,0.2-0.2,0.3-0.3c0.1-0.1,0.2-0.2,0.2-0.4c0-0.1,0.1-0.3,0-0.4
			l-0.6-6.8c0-0.1,0-0.3,0-0.4c0-0.1,0.1-0.3,0.2-0.4c0.1-0.1,0.2-0.2,0.3-0.3c0.1-0.1,0.3-0.1,0.4-0.1l6.7-0.6
			c0.1,0,0.3-0.1,0.4-0.1c0.1-0.1,0.2-0.2,0.3-0.3c0.1-0.1,0.2-0.2,0.2-0.4c0-0.1,0.1-0.3,0-0.4L88.6,68c0-0.3,0.1-0.6,0.2-0.8
			c0.2-0.2,0.4-0.4,0.7-0.4l7.2-0.6L100,102.4z"/>
		<path class="st8" d="M21.2,105.2l2.4,1.1l2.8-5.5L24,99.7L21.2,105.2z"/>
		<path class="st9" d="M24,99.7l2.4,1.1l-1.5,2.8l-2.4-1.1L24,99.7z"/>
		<path class="st10" d="M24.1,104.6l-3.2,0.3c-0.1,0-0.1,0-0.1,0.1c0,0-0.1,0.1-0.1,0.1l-0.3,2.4c0,0.1,0,0.1,0,0.2
			c0,0,0,0.1,0.1,0.1c0,0,0.1,0.1,0.1,0.1c0,0,0.1,0,0.1,0c0,0,0.1,0,0.1,0c1-0.1,1.8-0.2,3.1-0.4c0.8-0.1,3.3-0.2,4.4-0.3
			c1.1-0.1,1.2-1.2,0.7-1.3c-2.1-0.3-3.7-0.8-4.4-1.3C24.4,104.7,24.3,104.6,24.1,104.6z"/>
		<path class="st11" d="M24.3,105C24.3,105,24.3,105,24.3,105C24.3,105,24.3,104.9,24.3,105C24.3,104.9,24.3,104.9,24.3,105
			c0-0.1,0-0.1,0-0.1c0.1-0.1,0.9-0.7,1.2-0.5c0,0,0.1,0,0.1,0.1c0,0,0,0.1,0,0.1c0,0.1,0,0.1,0,0.2c0,0.1-0.1,0.1-0.1,0.2
			c-0.1,0.1-0.3,0.2-0.5,0.2C24.8,105,24.6,105,24.3,105z M24.5,104.9c0.3,0.1,0.7,0,0.9-0.1c0,0,0-0.1,0.1-0.1c0,0,0-0.1,0-0.1
			c0,0,0-0.1,0-0.1c0,0-0.1,0-0.1,0C25.1,104.5,24.8,104.7,24.5,104.9z"/>
		<path class="st11" d="M24.3,105C24.3,105,24.3,105,24.3,105C24.3,105,24.3,105,24.3,105c0-0.1,0-0.9,0.2-1.1c0,0,0.1-0.1,0.1-0.1
			c0,0,0.1,0,0.1,0c0,0,0.1,0,0.1,0c0,0,0.1,0.1,0.1,0.1C25.1,104.2,24.6,104.8,24.3,105L24.3,105L24.3,105z M24.7,103.9
			c-0.2,0.3-0.2,0.6-0.2,0.9c0.3-0.2,0.6-0.7,0.5-0.9c0,0,0-0.1-0.1-0.1l0,0C24.7,103.9,24.7,103.9,24.7,103.9z"/>
		<path class="st8" d="M58.4,102.6l2.7-0.6l-1.3-5.8l-2.7,0.6L58.4,102.6z"/>
		<path class="st9" d="M57.1,96.8l2.7-0.6l0.7,3l-2.7,0.6L57.1,96.8z"/>
		<path class="st10" d="M61.1,101.4l-3.2,0.3c-0.1,0-0.1,0-0.1,0.1c0,0-0.1,0.1-0.1,0.1l-0.3,2.4c0,0.1,0,0.2,0.1,0.3
			c0.1,0.1,0.2,0.1,0.3,0.1c0,0,0.1,0,0.1,0c1-0.1,1.8-0.2,3.1-0.4c0.8-0.1,3.3-0.2,4.4-0.3c1.1-0.1,1.2-1.2,0.7-1.3
			c-2.1-0.3-3.7-0.8-4.4-1.3C61.5,101.4,61.3,101.4,61.1,101.4z"/>
		<path class="st11" d="M61.4,101.7C61.3,101.7,61.3,101.7,61.4,101.7C61.3,101.7,61.3,101.7,61.4,101.7
			C61.3,101.7,61.3,101.7,61.4,101.7c0-0.1,0-0.1,0-0.1c0.1-0.1,0.9-0.7,1.2-0.5c0,0,0.1,0,0.1,0.1c0,0,0,0.1,0,0.1
			c0,0.1,0,0.1,0,0.2c0,0.1-0.1,0.1-0.1,0.2c-0.1,0.1-0.3,0.2-0.5,0.2C61.8,101.8,61.6,101.8,61.4,101.7z M61.5,101.6
			c0.3,0.1,0.7,0,0.9-0.1c0,0,0.1-0.1,0.1-0.1c0,0,0-0.1,0-0.1c0,0,0-0.1,0-0.1c0,0-0.1,0-0.1,0C62.1,101.3,61.8,101.4,61.5,101.6z"
			/>
		<path class="st11" d="M61.3,101.8C61.3,101.8,61.3,101.7,61.3,101.8C61.3,101.7,61.3,101.7,61.3,101.8c0-0.1,0-0.9,0.2-1.1
			c0,0,0.1-0.1,0.1-0.1c0,0,0.1,0,0.1,0c0,0,0.1,0,0.1,0s0.1,0.1,0.1,0.1C62.1,100.9,61.7,101.6,61.3,101.8L61.3,101.8L61.3,101.8z
			 M61.7,100.7c-0.2,0.3-0.3,0.6-0.2,0.9c0.3-0.2,0.6-0.7,0.5-0.9c0,0,0-0.1-0.1-0.1l0,0C61.8,100.6,61.7,100.6,61.7,100.7
			L61.7,100.7z"/>
		<path class="st10" d="M60.7,98L56,97.3c0,0-5.5-23.8-14.3-34.1c-1-1.3-2.3-2.3-3.6-3.2c0,6.1,0,12.6-0.2,16.1
			c-0.5,8.6-11,25.9-11,25.9l-4.3-1.4c0,0,8-18.5,7.8-26.9c-0.3-9.1-1.4-24.9-1.6-26.7L43,45.7C45,52.9,56.5,68.7,60.7,98z"/>
		<path class="st12" d="M60.7,98L56,97.3c0,0-5.5-23.8-14.3-34.1c-1-1.3-2.3-2.3-3.6-3.2c0,6.1,0,12.6-0.2,16.1
			c-0.5,8.6-11,25.9-11,25.9l-4.3-1.4c0,0,8-18.5,7.8-26.9c-0.3-9.1-1.4-24.9-1.6-26.7L43,45.7C45,52.9,56.5,68.7,60.7,98z"/>
		<path class="st8" d="M50.2,29.4c0.4,4.3,0.6,8.7,0.7,13L50.9,42c0.5,1.9,0.9,3.8,1.3,5.7c0.4,1.9,0.8,3.9,1.1,5.8l-1.9,0.5
			c-1.5-3.6-2.8-7.4-4-11.1c-0.5-4.4-0.9-8.9-1.2-13.3L50.2,29.4L50.2,29.4z"/>
		<path class="st11" d="M49.8,28.3c1.2,0.6,0.5,8.3,1.3,14c0.1,0.6,0.2,1.1,0.4,1.7l-3.9,0.8c-0.3-0.9-0.6-1.8-0.8-2.7
			C46.4,39.3,46,31.8,46,31.8L49.8,28.3z"/>
		<path class="st13" d="M51.1,42.2c0.1,0.6,0.2,1.1,0.4,1.7l-3.9,0.8c-0.3-0.9-0.6-1.8-0.8-2.7c-0.1-0.7-0.2-1.7-0.3-2.8
			c-0.1-1.7-0.3-3.6-0.4-5.1C46,32.8,46,31.8,46,31.8l3.8-3.6C51,28.9,50.3,36.6,51.1,42.2z"/>
		<path class="st8" d="M53.2,53.1l1.1,3.6L51,57.1c0,0-1.1-2.4,0.4-4L53.2,53.1z"/>
		<path class="st8" d="M53.7,59.2L51.2,59L51,57.1l3.2-0.4L53.7,59.2z"/>
		<path class="st11" d="M47.2,44.1l4.2-1l0.2,1.2l-4,0.8L47.2,44.1z"/>
		<path class="st14" d="M47.2,44.1l4.2-1l0.2,1.2l-4,0.8L47.2,44.1z"/>
		<path class="st15" d="M46.5,39.2c-0.1-1.7-0.3-3.6-0.4-5.1c0.2-0.7,0.6-1.4,1.1-2C47.8,34.5,47.5,37,46.5,39.2z"/>
		<path class="st10" d="M61.4,98.7l-6-0.4l0-1.7l6.2,0.3L61.4,98.7z"/>
		<path class="st10" d="M27.5,102.9l-5.5-1.7l0.5-1.6l5.8,1.6L27.5,102.9z"/>
		<path class="st16" d="M41.8,63.2c-1-1.3-2.3-2.3-3.6-3.2l-0.1-5C38.1,54.9,40.9,58.7,41.8,63.2z"/>
		<path class="st11" d="M49.8,28.3c-4.6,9.3-6,20.3-6,20.3l-2.2,4.7l-2.2-4.9l-0.4,0l-0.7,0l-0.7,0c-0.5,0-0.9-0.1-1.4-0.1
			c-0.2,0-0.5,0-0.7-0.1c-0.2,0-0.5,0-0.7-0.1l-0.7,0L33.4,48c-0.6-0.1-1.2-0.1-1.8-0.2l-0.3,0c-0.4-0.1-0.8-0.1-1.2-0.2
			c-0.4-0.1-0.7-0.1-1-0.2l-0.2-0.1c0.2-3.6,0.7-7.2,1.6-10.8c0.1-0.5,0.3-1,0.4-1.5c0.5-1.8,1.2-3.7,2-5.4c0,0,0-0.1,0.1-0.1
			c1.4-3.1,4.6-4.7,6.7-4.3c1.9,0.4,3.9,0.9,5.8,1.5C46.9,27,48.4,27.6,49.8,28.3z"/>
		<path class="st13" d="M49.8,28.3c-4.6,9.3-6,20.3-6,20.3l-2.2,4.7l-2.2-4.9l-0.4,0l-0.7,0l-0.7,0c-0.5,0-0.9-0.1-1.4-0.1
			c-0.2,0-0.5,0-0.7-0.1c-0.2,0-0.5,0-0.7-0.1l-0.7,0L33.4,48c-0.6-0.1-1.2-0.1-1.8-0.2l-0.3,0c-0.4-0.1-0.8-0.1-1.2-0.2
			c-0.4-0.1-0.7-0.1-1-0.2l-0.2-0.1c0.2-3.6,0.7-7.2,1.6-10.8c0.1-0.5,0.3-1,0.4-1.5c0.5-1.8,1.2-3.7,2-5.4c0,0,0-0.1,0.1-0.1
			c1.4-3.1,4.6-4.7,6.7-4.3c1.9,0.4,3.9,0.9,5.8,1.5C46.9,27,48.4,27.6,49.8,28.3z"/>
		<path class="st15" d="M41.8,35.2c0,0-0.1,0.8-0.2,2c-0.1,1.3-0.4,2.5-0.8,3.8c-0.2,0.6-1.2,3-0.9,4.1c0.3,1-0.6,3.4-0.6,3.4
			l-0.5,0c0.2-1.3,0.7-5.5,1.2-6c0.5-0.6,1.2-3.2,1-4.1C40.8,37.3,41.8,35.2,41.8,35.2z"/>
		<path class="st8" d="M39.5,54.3l1.1,3.6l-3.2,0.4c0,0-1.1-2.4,0.4-4L39.5,54.3z"/>
		<path class="st8" d="M40.1,60.4l-2.5-0.3l-0.2-1.9l3.2-0.4L40.1,60.4z"/>
		<path class="st8" d="M39.1,25.3c0.5,1,3.6,4.4,3.6,4.4l2.3-3.1c-0.2-0.1-0.4-0.3-0.5-0.5c-0.1-0.2-0.2-0.5-0.2-0.7
			c0-0.3,0.1-0.5,0.2-0.8c0.1-0.2,0.3-0.4,0.4-0.5c0,0,0.1,0,0.1-0.1l-1.7-4.6C42.6,21.3,40.9,24.8,39.1,25.3z"/>
		<path class="st9" d="M44.5,26c-0.1-0.2-0.2-0.5-0.2-0.7s0.1-0.5,0.2-0.8c0.1-0.2,0.3-0.4,0.4-0.5l-2.1-3.1
			C41.7,23.6,43.4,25.3,44.5,26z"/>
		<path class="st8" d="M48.2,14.9c0,0,1.3,3.5-0.3,5.3c-1.6,1.8-3.1-4.9-3.1-4.9L48.2,14.9z"/>
		<path class="st17" d="M48.2,14.9c0,0,1.3,3.5-0.3,5.3c-1.6,1.8-3.1-4.9-3.1-4.9L48.2,14.9z"/>
		<path class="st8" d="M43,24.3c0.5,0.5,1.2,0.8,1.9,0.9c0.7,0.1,1.5-0.1,2.1-0.5c0.8-0.5,1.4-1.2,1.7-2.1c0-0.1,0.1-0.3,0.1-0.4
			c0.5-2.4-0.4-7.9-2.7-7.2c-1.9,0.5-4,0.3-4.6,2.2c-0.2,0.5-0.3,1.1-0.2,1.7C41.6,21.4,41.6,23,43,24.3z"/>
		<path class="st18" d="M47,19.4c0.3,0.6,0.7,1.2,1.1,1.8c-0.1,0.1-0.3,0.2-0.5,0.2c-0.2,0-0.4,0-0.5,0L47,19.4z"/>
		<path class="st10" d="M45.9,17.6C45.9,17.6,45.9,17.6,45.9,17.6c-0.1,0-0.1,0-0.1,0.1c-0.1,0.1-0.2,0.2-0.3,0.3
			c-0.1,0.1-0.3,0.1-0.5,0.1c0,0-0.1,0-0.1,0c0,0,0,0.1,0,0.1c0,0,0,0.1,0,0.1c0,0,0.1,0,0.1,0c0.2,0,0.4-0.1,0.6-0.2
			c0.2-0.1,0.3-0.2,0.4-0.4c0,0,0-0.1,0-0.1C46.1,17.6,46,17.6,45.9,17.6C46,17.6,46,17.6,45.9,17.6z"/>
		<path class="st10" d="M47.5,17.3C47.5,17.3,47.5,17.3,47.5,17.3c-0.1,0-0.1,0.1-0.1,0.1c0,0,0,0.1,0,0.1c0.1,0.2,0.3,0.3,0.5,0.4
			c0.2,0.1,0.4,0.1,0.6,0.1c0,0,0.1,0,0.1,0c0,0,0-0.1,0-0.1c0,0,0-0.1,0-0.1c0,0-0.1,0-0.1,0c-0.2,0-0.3,0-0.5-0.1
			C47.8,17.5,47.7,17.4,47.5,17.3C47.6,17.3,47.6,17.3,47.5,17.3C47.6,17.3,47.5,17.3,47.5,17.3z"/>
		<path class="st8" d="M41.9,20.6c-0.2,0.1-0.2,1.2,0.2,2.2L41.7,23c-0.6-0.7-1-1.4-1.3-2.2c-0.7-2.1-0.9-3.5-0.8-4.5l3.5-0.8
			l0.3,1.1c-0.2,0.1-0.3,0.3-0.4,0.5c-0.1,0.2,0,0.4,0.1,0.6c0.5,0.9,0.1,2.5-0.6,3.2C42.3,20.9,42.3,20.5,41.9,20.6z"/>
		<path class="st17" d="M41.9,20.6c-0.2,0.1-0.2,1.2,0.2,2.2L41.7,23c-0.6-0.7-1-1.4-1.3-2.2c-0.7-2.1-0.9-3.5-0.8-4.5l3.5-0.8
			l0.3,1.1c-0.2,0.1-0.3,0.3-0.4,0.5c-0.1,0.2,0,0.4,0.1,0.6c0.5,0.9,0.1,2.5-0.6,3.2C42.3,20.9,42.3,20.5,41.9,20.6z"/>
		<path class="st8" d="M40.2,21c0.2,0.3,0.4,0.5,0.6,0.8c0.3,0.2,0.6,0.4,0.9,0.5c0.9,0.2,1.3-0.5,1.1-1.3c-0.2-0.7-0.9-1.7-1.8-1.6
			c-0.2,0-0.4,0.1-0.5,0.2c-0.2,0.1-0.3,0.3-0.4,0.4c-0.1,0.2-0.1,0.4-0.1,0.5C40.1,20.7,40.1,20.9,40.2,21z"/>
		<path class="st10" d="M40.2,15.1c0,0-0.5-0.7,0.4-1.7c0.9-1,4.7-1.7,6-1c1.2,0.6,2.1,0,2-0.5c0.1,0.1,0.2,0.3,0.2,0.5
			c0,0.2,0,0.4-0.1,0.5c0,0,0.7-0.1,1.2,1c-0.1,0-0.3,0-0.4,0.1c-0.1,0-0.2,0.1-0.3,0.2c0.2,0.1,0.3,0.3,0.3,0.5s0.1,0.4,0.1,0.6
			c-0.2-0.2-0.6-0.3-0.9-0.3c0.1,0.3,0.3,0.5,0.5,0.7c0,0-1.5,0.3-2.4-0.2c0.2,0.3,0.4,0.5,0.7,0.6c0,0-2.5,0.7-3.4-0.2
			c-0.1,0.2-0.2,0.4-0.2,0.6c0,0.2,0,0.4,0.1,0.6c-0.2,0-0.4,0-0.6-0.1c-0.2-0.1-0.4-0.2-0.5-0.3c-0.6,0.6-1.3,0.9-2.1,1.1
			c0.1-0.2,0.2-0.3,0.3-0.5c0,0-1.2,0.9-2.1,0.4c0.1-0.2,0.2-0.4,0.2-0.6l-0.3,0.2C38.7,17.2,38.5,15.3,40.2,15.1z"/>
		<path class="st18" d="M45.3,20.3c-0.1,0-0.2,0.1-0.2,0.1c0,0,0,0,0,0c0,0,0,0,0,0c0,0,0,0,0,0c0,0,0,0,0,0c0,0,0,0,0,0
			c0,0,0,0,0,0c0.2,0,0.4-0.1,0.6-0.2c0.2-0.1,0.3-0.3,0.3-0.5c0,0,0,0,0,0c0,0,0,0,0,0c0,0,0,0,0,0c0,0,0,0,0,0c0,0,0,0,0,0
			c0,0,0,0,0,0c0,0.2-0.1,0.4-0.2,0.5C45.6,20.2,45.5,20.3,45.3,20.3z"/>
		<path class="st18" d="M48.4,20.1L48.4,20.1c-0.5,0-0.7-0.6-0.8-0.6c0,0,0,0,0,0c0,0,0,0,0,0c0,0,0,0,0,0c0,0,0,0,0,0c0,0,0,0,0,0
			c0,0,0,0,0,0c0,0,0.2,0.5,0.6,0.5c0,0,0,0,0,0s0,0,0,0C48.4,20,48.4,20,48.4,20.1C48.4,20,48.4,20,48.4,20.1
			C48.4,20,48.4,20,48.4,20.1C48.4,20,48.4,20,48.4,20.1z"/>
		<path class="st10" d="M45.3,19.4c0,0.2,0.1,0.4,0.3,0.4s0.2-0.2,0.2-0.4c0-0.2-0.1-0.4-0.3-0.4S45.3,19.1,45.3,19.4z"/>
		<path class="st10" d="M47.7,19.2c0,0.2,0.1,0.4,0.3,0.4c0.1,0,0.2-0.2,0.2-0.4c0-0.2-0.1-0.4-0.3-0.4C47.8,18.8,47.7,19,47.7,19.2
			z"/>
		<path class="st8" d="M45.1,19.4c0.3,0,0.6-0.1,0.9-0.3c0.2-0.2-0.3-0.4-0.5-0.3C45.2,18.8,44.9,19.2,45.1,19.4z"/>
		<path class="st8" d="M47.6,19.1c0.3,0.1,0.6,0.1,0.9,0c0.3-0.1-0.1-0.4-0.4-0.5C47.9,18.6,47.5,18.9,47.6,19.1z"/>
		<path class="st10" d="M47.4,23.1c0,0-0.3,0.2-0.7,0.3C46,23.7,45,24,44.9,23.6c0-0.1,0-0.1,0-0.2c0-0.1,0-0.1,0.1-0.2
			c0.3-0.5,1.3-0.7,2-0.8c0,0.1,0.1,0.2,0.1,0.3C47.1,22.9,47.3,23,47.4,23.1z"/>
		<path class="st19" d="M46.7,23.4C46,23.7,45,24,44.9,23.6c0-0.1,0-0.1,0-0.2c0-0.1,0-0.1,0.1-0.2C45.6,23.2,46.4,23.1,46.7,23.4z"
			/>
		<path class="st2" d="M43.7,18.9c0,0,0.5,0.9,0.1,0.9C43.4,19.9,43.7,18.9,43.7,18.9z"/>
		<path class="st2" d="M43.2,19.8c0,0,0.5,0.9,0.1,0.9C42.9,20.8,43.2,19.8,43.2,19.8z"/>
		<path class="st2" d="M47.8,16.3c0,0,0.6,0.8,0.3,0.9C47.7,17.3,47.8,16.3,47.8,16.3z"/>
		<path class="st2" d="M48.5,20.9c0,0,0.4,0.9,0,0.9C48.2,21.8,48.5,20.9,48.5,20.9z"/>
		<path class="st11" d="M38.5,24.6c0,0,2.3,5.2,3.5,7.2l0.2-0.3c0,0-2.5-5.5-2.9-7L38.5,24.6z"/>
		<path class="st11" d="M44.4,26.7c0.1,1.7-0.3,3.4-1,5l0,0.4c0,0,1.3-1.3,1.4-5L44.4,26.7z"/>
		<path class="st11" d="M41.9,31.7l0.3-0.7c0.7,0.8,1.2,0.3,1.2,0.3l0.3,0.5l-0.5,1.8l-0.6,0.1L41.9,31.7z"/>
		<path class="st11" d="M43.1,32.7c0,0,0.3,5.8,0.8,9.2c0.3,2.1,0.8,6,0.8,7l-0.9,0.8L43,48.7c0,0,0.5-1.6-0.2-5.7
			c-0.6-4-0.1-10.1-0.1-10.1L43.1,32.7z"/>
		<path class="st11" d="M37.3,25l1.8-1.2l2.9,2.2l0.4,3.2l1.7-2.8l1.1-0.7l1,1.3l-0.9,1.8l-0.8-0.8l-2.1,2.1l-1.9-2.5l-1.1,0.7
			L37.3,25z"/>
		<path class="st14" d="M37.3,25l1.8-1.2l2.9,2.2l0.4,3.2l1.7-2.8l1.1-0.7l1,1.3l-0.9,1.8l-0.8-0.8l-2.1,2.1l-1.9-2.5l-1.1,0.7
			L37.3,25z"/>
		<path class="st15" d="M42.4,30.2l1.8-2.8l1,1.5l-0.8-0.8L42.4,30.2z"/>
		<path class="st15" d="M42.4,30.2l-1.2-3.3l-1.7,1.5l1.1-0.7L42.4,30.2z"/>
		<path class="st15" d="M37.9,46.1l-3.3,0.6c0,0-4-5-4.2-10.3c0.1-0.5,0.3-1,0.4-1.5c0.5-1.8,1.2-3.7,2-5.4c0.2-0.3,0.5-0.5,0.8-0.7
			l3.9,4.8C37.5,33.6,38.5,41.8,37.9,46.1z"/>
		<path class="st8" d="M36.6,30.6c0.4,4.3,0.6,8.7,0.7,13l-0.1-0.4c0.5,1.9,0.9,3.8,1.3,5.7c0.4,1.9,0.8,3.8,1.1,5.8l-1.9,0.5
			c-1.5-3.6-2.8-7.4-4-11.1c-0.5-4.4-0.9-8.9-1.2-13.3L36.6,30.6L36.6,30.6z"/>
		<path class="st11" d="M34.7,27.8c1.9,0.6,2.7,3.6,2.7,3.6s0.1,11.5,0.2,12c0.1,0.5,0.3,1.4,0.3,1.4l-3.9,1.1c0,0-0.5-2.1-1.1-6.4
			c-0.6-4.3-0.7-8,0.1-9.7C33.7,28.1,34.7,27.8,34.7,27.8z"/>
		<path class="st13" d="M34.7,27.8c1.9,0.6,2.7,3.6,2.7,3.6s0.1,11.5,0.2,12c0.1,0.5,0.3,1.4,0.3,1.4l-3.9,1.1c0,0-0.5-2.1-1.1-6.4
			c-0.6-4.3-0.7-8,0.1-9.7C33.7,28.1,34.7,27.8,34.7,27.8z"/>
		<path class="st11" d="M33.3,45.3l4.8-1.2l-0.2,1.3l-3.9,1.2L33.3,45.3z"/>
		<path class="st14" d="M33.3,45.3l4.8-1.2l-0.2,1.3l-3.9,1.2L33.3,45.3z"/>
		<path class="st10" d="M61.1,60.8l0.2,11.5c0,0.2-0.1,0.4-0.2,0.5C61,72.9,60.8,73,60.6,73l-14.8,0.5c-0.2,0-0.4-0.1-0.5-0.2
			c-0.1-0.1-0.2-0.3-0.2-0.5l-0.2-11.5c0-0.2,0.1-0.4,0.2-0.5s0.3-0.2,0.5-0.2l14.8-0.5c0.1,0,0.2,0,0.3,0c0.1,0,0.2,0.1,0.2,0.1
			c0.1,0.1,0.1,0.1,0.2,0.2C61.1,60.6,61.1,60.7,61.1,60.8z"/>
		<path d="M46.6,61.3l0.2,11.5c0,0.2-0.1,0.4-0.2,0.5c-0.1,0.1-0.3,0.2-0.5,0.2l-0.3,0c-0.2,0-0.4-0.1-0.5-0.2
			c-0.1-0.1-0.2-0.3-0.2-0.5l-0.2-11.5c0-0.2,0.1-0.4,0.2-0.5s0.3-0.2,0.5-0.2l0.3,0c0.1,0,0.2,0,0.3,0c0.1,0,0.2,0.1,0.2,0.1
			c0.1,0.1,0.1,0.1,0.2,0.2C46.6,61.1,46.6,61.2,46.6,61.3z"/>
		<path class="st11" d="M54.3,71.3l6.5-1.8c0,0,3.9,6.2,6,7.8l-7.1,3.4C59.8,80.6,55.9,76.8,54.3,71.3z"/>
		<path class="st13" d="M54.3,71.3l6.5-1.8c0,0,3.9,6.2,6,7.8l-7.1,3.4C59.8,80.6,55.9,76.8,54.3,71.3z"/>
		<path class="st11" d="M53.6,65.1c1.3,0.6,5.5,6.3,5.5,6.3l7.4-5c0,0-4.3-3.4-5.6-3.7C59.7,62.4,53.6,65.1,53.6,65.1z"/>
		<path class="st14" d="M53.5,65.1c1.3,0.6,5.6,6.3,5.6,6.3l7.5-5c0,0-4.3-3.4-5.6-3.7C59.7,62.4,53.5,65.1,53.5,65.1z"/>
		<path class="st11" d="M48.7,63.5c0,0,1.7,3.2,2.3,6.3l10-2.7c0,0-1.9-3.8-2.6-4.5C57.8,62,48.7,63.5,48.7,63.5z"/>
		<path class="st13" d="M48.7,63.5c0,0,1.7,3.2,2.3,6.3l10-2.7c0,0-1.9-3.8-2.6-4.5C57.8,62,48.7,63.5,48.7,63.5z"/>
		<path class="st20" d="M49.5,60.8c0,0,0.8-3.6,2.5-3.5c1.7,0.1,4.1,1.4,4.7,3.3"/>
		<path class="st10" d="M46.1,60.6c0.2,0,0.4,0.1,0.5,0.2c0.2,0.1,0.3,0.3,0.3,0.5l1.4,5.1c0.1,0.1,0.2,0.3,0.3,0.4
			c0.1,0.1,0.3,0.1,0.4,0.1l13.4-0.4c0.1,0,0.1,0,0.2,0c0.1,0,0.1-0.1,0.2-0.1c0-0.1,0.1-0.1,0.1-0.2c0-0.1,0-0.1,0-0.2l-1.4-5.1
			c-0.1-0.2-0.2-0.3-0.4-0.5c-0.2-0.1-0.4-0.2-0.6-0.2l-14.8,0.5L46.1,60.6z"/>
		<path class="st21" d="M46.1,60.6c0.2,0,0.4,0.1,0.5,0.2c0.2,0.1,0.3,0.3,0.3,0.5l1.4,5.1c0.1,0.1,0.2,0.3,0.3,0.4
			c0.1,0.1,0.3,0.1,0.4,0.1l13.4-0.4c0.1,0,0.1,0,0.2,0c0.1,0,0.1-0.1,0.2-0.1c0-0.1,0.1-0.1,0.1-0.2c0-0.1,0-0.1,0-0.2l-1.4-5.1
			c-0.1-0.2-0.2-0.3-0.4-0.5c-0.2-0.1-0.4-0.2-0.6-0.2l-14.8,0.5L46.1,60.6z"/>
		<path d="M57.8,68.9l-1,0c-0.1,0-0.1,0-0.2-0.1c0,0-0.1-0.1-0.1-0.1l-1.1-3.1l1.4,0l1.1,3.1c0,0,0,0,0,0.1c0,0,0,0,0,0.1
			C57.9,68.8,57.9,68.9,57.8,68.9C57.9,68.9,57.9,68.9,57.8,68.9z"/>
		<path class="st10" d="M57.4,67.9L57.4,67.9l-1,0c-0.1,0-0.2,0-0.2-0.1c-0.1-0.1-0.1-0.1-0.2-0.2L55.8,67c0,0,0-0.1,0-0.1
			c0,0,0-0.1,0-0.1c0,0,0.1-0.1,0.1-0.1c0,0,0.1,0,0.1,0l1,0c0.1,0,0.2,0,0.2,0.1c0.1,0.1,0.1,0.1,0.2,0.2l0.2,0.6c0,0,0,0.1,0,0.1
			c0,0,0,0.1,0,0.1c0,0-0.1,0.1-0.1,0.1C57.5,67.9,57.5,67.9,57.4,67.9z M57.4,67.7C57.4,67.7,57.5,67.7,57.4,67.7
			C57.5,67.7,57.5,67.7,57.4,67.7C57.5,67.7,57.5,67.6,57.4,67.7c0.1-0.1,0.1-0.1,0.1-0.1L57.3,67c0-0.1-0.1-0.1-0.1-0.1
			c0,0-0.1,0-0.2-0.1l-1,0c0,0,0,0,0,0c0,0,0,0,0,0c0,0,0,0,0,0.1c0,0,0,0,0,0l0.2,0.6c0,0.1,0.1,0.1,0.1,0.1c0,0,0.1,0,0.2,0.1
			L57.4,67.7z"/>
		<g class="st22">
			<path class="st2" d="M57.4,67.9L57.4,67.9l-1,0c-0.1,0-0.2,0-0.2-0.1c-0.1-0.1-0.1-0.1-0.2-0.2L55.8,67c0,0,0-0.1,0-0.1
				c0,0,0-0.1,0-0.1c0,0,0.1-0.1,0.1-0.1c0,0,0.1,0,0.1,0l1,0c0.1,0,0.2,0,0.2,0.1c0.1,0.1,0.1,0.1,0.2,0.2l0.2,0.6c0,0,0,0.1,0,0.1
				c0,0,0,0.1,0,0.1c0,0-0.1,0.1-0.1,0.1C57.5,67.9,57.5,67.9,57.4,67.9z M57.4,67.7C57.4,67.7,57.5,67.7,57.4,67.7
				C57.5,67.7,57.5,67.7,57.4,67.7C57.5,67.7,57.5,67.6,57.4,67.7c0.1-0.1,0.1-0.1,0.1-0.1L57.3,67c0-0.1-0.1-0.1-0.1-0.1
				c0,0-0.1,0-0.2-0.1l-1,0c0,0,0,0,0,0c0,0,0,0,0,0c0,0,0,0,0,0.1c0,0,0,0,0,0l0.2,0.6c0,0.1,0.1,0.1,0.1,0.1c0,0,0.1,0,0.2,0.1
				L57.4,67.7z"/>
		</g>
	</g>
</g>
</svg>
