<?xml version="1.0" encoding="utf-8"?>
<!-- Generator: Adobe Illustrator 25.3.1, SVG Export Plug-In . SVG Version: 6.00 Build 0)  -->
<svg version="1.1" id="圖層_1" xmlns="http://www.w3.org/2000/svg" xmlns:xlink="http://www.w3.org/1999/xlink" x="0px" y="0px"
	 viewBox="0 0 360 10" style="enable-background:new 0 0 360 10;" xml:space="preserve">
<style type="text/css">
	.st0{clip-path:url(#SVGID_2_);fill:#E8DCD3;}
</style>
<g>
	<g>
		<g>
			<defs>
				<rect id="SVGID_1_" x="3.7" width="356.3" height="10"/>
			</defs>
			<clipPath id="SVGID_2_">
				<use xlink:href="#SVGID_1_"  style="overflow:visible;"/>
			</clipPath>
			<path class="st0" d="M-4.9,31.9l15.2,21.3L1.8,68.5l-1.6,31.6l1.4,20.3l4.3,7.1l-4.9,29l7.8,16.9l-10.1,7.2l0.5,20.2l9.1,15.3
				l-8.2,16.6l21.7-0.6l26.7-7.9l9.1,3.7l12.1-4.3l11.6,6.9l26.9-0.7l8.9-6.2l12.3,2.9l31.7-5.4l25.5,6.5l43-9.7l20.5,2.1l6.9,5.7
				l13.5-0.4l39-10.9l23.1,9.2l33.8-0.9L360.1,0.4L3.7,10L-4.9,31.9z"/>
		</g>
	</g>
</g>
</svg>
