<?xml version="1.0" encoding="utf-8"?>
<!-- Generator: Adobe Illustrator 25.3.1, SVG Export Plug-In . SVG Version: 6.00 Build 0)  -->
<svg version="1.1" id="圖層_1" xmlns="http://www.w3.org/2000/svg" xmlns:xlink="http://www.w3.org/1999/xlink" x="0px" y="0px"
	 viewBox="0 0 8 300" style="enable-background:new 0 0 8 300;" xml:space="preserve">
<style type="text/css">
	.st0{clip-path:url(#SVGID_2_);fill:#E8DCD3;}
</style>
<g>
	<defs>
		<rect id="SVGID_1_" y="0.3" width="8" height="299.4"/>
	</defs>
	<clipPath id="SVGID_2_">
		<use xlink:href="#SVGID_1_"  style="overflow:visible;"/>
	</clipPath>
	<path class="st0" d="M-491.3,42.7l20.5,28.6l-11.5,20.6l-2.2,42.5l1.8,27.4l5.8,9.6l-6.6,39.1l10.5,22.7l-13.6,9.7l0.7,27.2
		l12.2,20.7l-11.1,22.4l29.2-0.8l36-10.7l12.2,5l16.3-5.7l15.5,9.3l36.2-1l11.9-8.3l16.6,4l42.6-7.3l34.3,8.8l57.9-13l27.5,2.8
		l9.3,7.7l18.1-0.5l52.5-14.7l31,12.4L8,299.7L0,0.3l-479.7,12.9L-491.3,42.7z"/>
</g>
</svg>
