<?xml version="1.0" encoding="utf-8"?>
<!-- Generator: Adobe Illustrator 25.3.1, SVG Export Plug-In . SVG Version: 6.00 Build 0)  -->
<svg version="1.1" id="圖層_1" xmlns="http://www.w3.org/2000/svg" xmlns:xlink="http://www.w3.org/1999/xlink" x="0px" y="0px"
	 viewBox="0 0 140 140" style="enable-background:new 0 0 140 140;" xml:space="preserve">
<style type="text/css">
	.st0{fill:#FFFFFF;}
	.st1{fill:#E3E3E3;}
	.st2{fill:#FFFFFF;filter:url(#Adobe_OpacityMaskFilter);}
	.st3{mask:url(#mask0_108_149_1_);}
	.st4{fill:#C9C9C9;}
	.st5{fill:#FDCFC0;}
	.st6{fill:#FABC71;}
	.st7{fill:#E89838;}
	.st8{fill:#E6A995;}
	.st9{fill:#1B1B33;}
	.st10{fill:#D9544A;}
	.st11{fill:#FAEBDF;}
	.st12{fill:#9C300B;}
	.st13{fill:#FDBAA4;}
	.st14{fill:#C23429;}
	.st15{fill:#E8C8AE;}
	.st16{fill:#DE7537;}
	.st17{opacity:0.17;}
</style>
<g>
	<path class="st0" d="M0,128.4L11.2,0.3L140,11.4l-11.2,128.2L0,128.4z"/>
	<path class="st1" d="M125.5,136.9l10.8-123.3L14.5,3.1L3.7,126.2L125.5,136.9z"/>
	<defs>
		<filter id="Adobe_OpacityMaskFilter" filterUnits="userSpaceOnUse" x="16.6" y="12.7" width="104.3" height="117.5">
			<feColorMatrix  type="matrix" values="1 0 0 0 0  0 1 0 0 0  0 0 1 0 0  0 0 0 1 0"/>
		</filter>
	</defs>
	<mask maskUnits="userSpaceOnUse" x="16.6" y="12.7" width="104.3" height="117.5" id="mask0_108_149_1_">
		<path class="st2" d="M136.2,14.1L14.8,3.5L4,126.6l121.4,10.6L136.2,14.1z"/>
	</mask>
	<g class="st3">
		<path class="st4" d="M120.9,129.4c-0.1,1.4-23.6,1.3-52.3-2.1c-23.1-2.7-51.1-5.7-51.9-7c-0.7-1.1,23.6-0.4,52.3,2.1
			C97.8,124.9,121,128,120.9,129.4z"/>
		<path class="st5" d="M60.8,69.7c0,0,0.2,4.1,0.5,6.7c0.7,6.9,2.5,19.1,3.7,24c1.5,6,17.6,16.5,19.8,19.2l3.9,2.7
			c0.2-2-9.8-15.1-14.9-20.5c-2.5-2.6-1.9-2.8-2-3.7c-0.2-2.5,0.8-15.2,0.2-19c-1.2-8.1-4-10.1-4-10.1L60.8,69.7z"/>
		<path class="st5" d="M66.9,71.9c0,0,3.9,7.9,5.3,10.1c3,4.5,7.8,12.4,9.7,14.7c1.8,2.4,7.7,1.9,14.1,2.3c8.4,0.5,14.3,1,16.7,0.9
			c0,0,1.7-0.9,0.8-2.5c0,0-14.6-2.6-20.9-4.7c-3.4-1.1-5.2-1.5-5.2-1.5S82,75.7,79.9,72.5c-4.5-6.9-6.2-7-6.2-7L66.9,71.9z"/>
		<path class="st6" d="M76.4,67.8c0,0,2.5,1.3,5,6.5s6.4,16.9,6.4,16.9l9,2.4c0,0-0.8,7.3-4.9,11.2c-3.8,3.7-20,10.4-20,10.4
			s-5.7-7.9-7.2-13.7c-1.4-5.8-3.9-29.3-3.9-29.3L76.4,67.8z"/>
		<path class="st5" d="M55,51.1c-2.3-0.4-8.7-1.4-9.8-1.9c-0.7-0.4-1.3-0.9-2.9-2.1c-0.7-0.6-1.5-1.1-2.3-1.5
			c-0.7-0.3-3-0.9-3.2-0.3c-0.2,0.4,1.2,0.4,0.9,0.4c-1.2,0-2,0.2-1.9,0.6c0.1,0.5,1.1,0.2,1.7,0.3l1,0.1c0,0-1.3,0.3-1.6,0.7
			c-0.2,0.4,1.9,0,2.6,0.5c0.4,0.3,1.5,1.7,2.6,2.6c1,0.8,3.3,1.1,4,1.4c2.4,0.8,7,2.8,9.4,3.2C57.2,55.4,55.5,51.2,55,51.1z"/>
		<path class="st7" d="M77.4,68.5c0,0-0.9,2.4-4.5,3.8c-3.8,1.5-8,1.8-11.9,0.6l-0.1-0.8c0,0,5.7,1.5,10,0.1c4.2-1.4,6-4.1,6-4.1
			L77.4,68.5z"/>
		<path class="st8" d="M41.1,48.5c-0.2-0.3-0.5-0.6-0.9-0.8c-1.2-0.9-1.8-0.9-1.8-0.9l0-0.2c0,0,0.6,0,1.9,0.9
			c0.3,0.2,0.6,0.5,0.9,0.8L41.1,48.5z"/>
		<path class="st8" d="M41.5,47.4c0,0-2.1-1.7-3.9-1.7l0-0.2c1.8,0,3.9,1.7,4,1.8L41.5,47.4z"/>
		<path class="st5" d="M62,14c0,0,1.5-1.1,1.8-1c0.3,0.1,0,0.4,0,0.4s1.5-0.9,1.6-0.6c0.1,0.2-0.8,1.1-0.8,1.1s1.2-1.2,1.4-0.8
			c0.2,0.4-1.3,1.5-1.3,1.5s0.9-0.8,1.1-0.5c0.2,0.3-2.5,2.7-2.5,2.7l-4.6-0.3L62,14z"/>
		<path class="st5" d="M58.4,24.5c0,0,1-4.8,1.7-5.3c0.6-0.4,1.4-0.8,2.1-0.9c1.3-0.4,3.2-0.5,3.4-1c0.1-0.3-0.4-0.4-1.3-0.3
			c-0.7,0.1-0.9-0.3-0.9-0.3l1.4-1.7c0,0-2-1.5-3-0.7c-1,0.8-2.8,1.4-3.5,2.7c-1,1.9-3.1,7.8-3.1,7.8L58.4,24.5z"/>
		<path class="st8" d="M60.3,17l-0.1-0.1c0.4-0.2,0.8-0.4,1.3-0.5c0.7-0.1,1.3,0,2,0.2l-0.1,0.1c-0.6-0.2-1.2-0.3-1.9-0.2
			C61.1,16.6,60.6,16.8,60.3,17z"/>
		<path class="st8" d="M63.1,16L63,15.9l2-1.7l0.1,0.1L63.1,16z"/>
		<path class="st8" d="M64.9,13.5l-2.4,1.9l0.1,0.1l2.4-1.9L64.9,13.5z"/>
		<path class="st8" d="M64,13.2l-2,1.5l0.1,0.1l2-1.5L64,13.2z"/>
		<path class="st5" d="M87.2,119.3l-2.2-3l-2.2,1.1l1.9,2c0.2,0.8,0.4,2.4-0.3,2.9l-2.5,2c0,0-0.1,0.1-0.1,0.2c0,0.1,0,0.1,0,0.2
			c0,0.1,0.1,0.1,0.1,0.1c0.1,0,0.1,0,0.2,0l5.9-1.7c0.2-0.1,0.3-0.2,0.4-0.4c0.1-0.2,0.1-0.4,0-0.6L87.2,119.3z"/>
		<path class="st9" d="M86.3,121.4c-0.4-0.3-0.8-0.4-1.2-0.5l-0.3-0.1l-3.5,4c-0.1,0.1-0.1,0.1-0.1,0.2c0,0.1,0,0.1,0,0.2
			c0,0.1,0.1,0.1,0.2,0.1c0.1,0,0.1,0,0.2,0l6.9-2c0.2-0.1,0.4-0.2,0.5-0.4c0.1-0.2,0.1-0.4,0.1-0.7
			C89.1,122.2,88.2,122.8,86.3,121.4z"/>
		<path class="st5" d="M113.4,97.5l-2-0.1l-0.3,2.5l1.5,0.1c0.8,0.1,4.2,0,4.9,0.5l2.5,2c0.1,0,0.1,0,0.2,0c0.1,0,0.1,0,0.2-0.1
			c0,0,0.1-0.1,0.1-0.2c0-0.1,0-0.1,0-0.2l-2.9-5.4c0-0.1-0.1-0.2-0.2-0.2c-0.1-0.1-0.2-0.1-0.3-0.1c-0.1,0-0.2,0-0.3,0
			c-0.1,0-0.2,0-0.3,0.1L113.4,97.5z"/>
		<path class="st9" d="M116,98.9c-0.2,0.4-0.3,0.8-0.3,1.3l0,0.3l4.6,2.6c0.1,0,0.1,0,0.2,0c0.1,0,0.1,0,0.2-0.1
			c0.1,0,0.1-0.1,0.1-0.2c0-0.1,0-0.1,0-0.2l-3.4-6.3c-0.1-0.1-0.1-0.2-0.2-0.3c-0.1-0.1-0.2-0.1-0.3-0.1c-0.1,0-0.2,0-0.3,0
			c-0.1,0-0.2,0.1-0.3,0.1C116.2,96,117,96.8,116,98.9z"/>
		<path class="st5" d="M57.7,39.7c-3.3-2.7-6.1-5.1-5.8-6.6c0.7-3.1,5.1-12.8,5.1-12.8l2,0.6C57.2,29.3,57.9,33,57.9,33
			c1.1,0.9,2.2,1.7,3.4,2.5L57.7,39.7z"/>
		<path class="st10" d="M61.7,52.6c0.4,2.3-0.4,2.9-0.8,4.2c-0.8,2.5-1.3,5.1-1.4,7.8c-0.1,2.6-0.2,7,1.4,7.6
			c3.7,1.4,6.8,0.9,9.7,0.1c2.8-0.8,7.3-3.2,6.3-5.6c-0.8-1.8-0.8-2.4,0.5-7.4c1.3-5,2.1-12.2-1.8-15.7c-1.5-1.3-8.8-2.3-10.1,0.7
			C65.5,44.3,61.3,50.3,61.7,52.6z"/>
		<path class="st10" d="M58.4,32.6c2.6,1.6,7.3,5.1,10.9,8c2.2,1.8,4.2,3,4.4,4.3c0.5,3.6-2.3,3.9-2.3,3.9l-4.4,2.3
			c0,0-8.7-7.3-13.4-13.4c-0.9-1.2-2.1-3.5-1.8-5l2.5-10.4l1.4-1.1c0.2-0.7,0.5-1.6,0.9-1.9c0.5-0.3,1.4-0.2,1.9,0
			c0.5,0.2,0.9,0.5,1.3,0.9c0.3,0.4,0.1,1.1,0,1.7l0.5,1.4L58.4,32.6z"/>
		<path class="st5" d="M83.5,31.7c-0.9-1.4-4-3.8-6.5-2.4c-4,2.4-6.2,7.2-6.2,8.8c0,1.6,2.1,2.8,4,3.1c1.9,0.3,3.8-0.9,3.8-0.9
			s1.2,0.5,1.8-0.2c0.6-0.7,1.2-1.3,1-1.7C81.5,38.4,85.6,34.9,83.5,31.7z"/>
		<path class="st5" d="M79.1,40.2c-3,1.8-3.4,3.3-3.4,4.1c0,0.4-0.6,0.8-2.2,1c-2.1,0.3-4.1,0.4-4.8-0.8c-0.4-0.7,0.9-1.9,2.3-3.9
			l0.1-0.1c0.2-0.4,0.2-0.9,0.2-1.4c0-0.1,0-0.3-0.1-0.4c0,0,0.1-0.1,0.1-0.1c0.4,0.5,0.8,1,1.3,1.5c0.2,0.1,0.5,0.3,0.7,0.4
			c0.2,0.1,0.3,0.1,0.5,0.2l0,0c0,0,0.1,0,0.1,0c0.4,0.1,0.7,0.2,1.1,0.2c0.9,0.1,1.9,0,2.8-0.4c0.3-0.2,0.7-0.4,0.9-0.7
			C78.8,40,79,40.1,79.1,40.2C79.1,40.2,79.1,40.2,79.1,40.2z"/>
		<path class="st8" d="M74.1,36.3c0-0.1-0.4-0.5-0.4-0.8c0-0.3,1.4-1,1.8-1.2l0.1,0.1c-0.8,0.4-1.7,0.9-1.7,1.1
			c0,0.2,0.2,0.6,0.4,0.7L74.1,36.3z"/>
		<path class="st11" d="M76,30.1c0,0,4.2,2.2,4.7,3.9c0.6,1.7-2.3,4.2-1.9,4.5c0.4,0.3,1.5-1.6,2.7,0c0.2,0.3-0.3,1-1,1.7
			c4.6-0.4,4.7-3.7,5.2-5.2c0.6-1.7,0.4-2.6-1.5-4C82.2,27.2,77.9,25,76,30.1z"/>
		<path class="st11" d="M78.5,35.7L78.5,35.7c-0.1,0-0.1-0.1-0.2-0.1c0-0.1,0-0.1,0-0.2c0-0.3,0-0.5-0.1-0.8s-0.2-0.5-0.4-0.7
			c0,0-0.1-0.1-0.1-0.2c0-0.1,0-0.1,0.1-0.2c0,0,0.1-0.1,0.2-0.1c0.1,0,0.1,0,0.2,0.1c0.2,0.3,0.4,0.6,0.5,0.9
			c0.1,0.3,0.1,0.7,0.1,1c0,0.1,0,0.1-0.1,0.1C78.6,35.7,78.6,35.7,78.5,35.7z"/>
		<path class="st11" d="M75.8,32.1c0,0-0.1,0-0.1-0.1c0,0-0.5-0.4-1-0.2c-0.1,0-0.1,0-0.2,0c-0.1,0-0.1-0.1-0.1-0.1
			c0-0.1,0-0.1,0-0.2c0-0.1,0.1-0.1,0.1-0.1c0.2-0.1,0.5-0.1,0.8-0.1c0.3,0.1,0.5,0.2,0.7,0.3c0,0,0.1,0.1,0.1,0.1c0,0,0,0.1,0,0.1
			c0,0-0.1,0.1-0.1,0.1C75.9,32,75.9,32.1,75.8,32.1z"/>
		<path class="st8" d="M79.5,39.6l-0.1,0l0-0.1c0,0,0.3,0.1,0.5-0.2c0.1-0.1,0.1-0.3,0.1-0.4c0.1-0.3,0.1-0.6,0.4-0.7
			c0.1,0,0.2,0,0.4,0c0.1,0,0.2,0.1,0.3,0.2l-0.1,0.1c0,0-0.2-0.3-0.4-0.2c-0.2,0.1-0.2,0.3-0.3,0.6c0,0.1-0.1,0.3-0.1,0.4
			c-0.1,0.1-0.1,0.2-0.2,0.2C79.7,39.6,79.6,39.6,79.5,39.6z"/>
		<path d="M76.9,35.8c-0.2,0.2-0.5,0.3-0.6,0.2c-0.1-0.1-0.1-0.4,0.1-0.6c0.2-0.2,0.5-0.3,0.6-0.1C77.2,35.3,77.1,35.6,76.9,35.8z"
			/>
		<path d="M73.9,33.3c-0.2,0.2-0.3,0.5-0.1,0.6c0.1,0.1,0.4,0,0.6-0.2c0.2-0.2,0.3-0.5,0.1-0.6C74.4,33,74.1,33,73.9,33.3z"/>
		<path class="st11" d="M84.5,28.5c-1.4,0.6-2.1,2.9-1.4,4.8c0.8,1.9,3.2,3.2,4.6,2.6c1.4-0.6,2.6-3.3,1.9-5.2
			C88.8,28.8,85.9,27.9,84.5,28.5z"/>
		<path class="st10" d="M49.1,48.3c1.6-0.8,10.5,3.1,10.9,2.9c3.4-1.5,9.4-4.1,11.6-4.7c2.8-0.8,4.2,0.5,5.5,1.7
			c0.8,0.7,0.7,2.6-1.2,4.8c-1.8,2-5.9,3.4-15.2,5.8c-2.2,0.6-10.2-2-13.2-4.1c-0.7-0.5-0.8-1.4-1-1.9c-0.7-0.2-1.3-0.5-1.8-1
			c-0.3-1.2,0.1-2,1.1-2.8c0.5,0.2,1.1,0.3,1.6,0.2C48,49.2,48.1,48.8,49.1,48.3z"/>
		<path class="st8" d="M78.7,33.1c-0.3,0-1.3-0.2-1.6-0.8c-0.3-0.6-0.4-0.8-0.9-0.9l0-0.1c0.5,0.2,0.7,0.3,1,1
			c0.3,0.7,1.5,0.7,1.5,0.7L78.7,33.1L78.7,33.1z"/>
		<path class="st8" d="M78.7,32.7c-0.3,0-0.6-0.1-0.9-0.3c-0.1-0.1-0.2-0.3-0.3-0.4c-0.1-0.2-0.3-0.4-0.5-0.5l0.1-0.1
			c0.2,0.2,0.4,0.4,0.6,0.6c0.1,0.1,0.2,0.3,0.3,0.4c0.2,0.2,0.5,0.3,0.8,0.3L78.7,32.7L78.7,32.7z"/>
		<path class="st8" d="M78.2,40.7c-0.1,0-0.2,0-0.3-0.1c-0.1,0-0.2-0.1-0.2-0.2c-0.1-0.1-0.1-0.2-0.1-0.3c0-0.1,0-0.2,0.1-0.3
			c0.1-0.1,0.1-0.2,0.1-0.3l0.2,0c0,0.2,0,0.3-0.1,0.4c-0.1,0.2-0.2,0.3,0,0.5c0.2,0.3,1.1,0.1,1.2,0l0.1,0.1
			C78.8,40.6,78.5,40.7,78.2,40.7L78.2,40.7z"/>
		<path class="st8" d="M75,40.3c-0.1-0.1-0.3-0.1-0.4-0.3c-0.1-0.1-0.2-0.2-0.2-0.4c-0.1-0.1-0.1-0.3-0.1-0.4c0-0.2,0-0.3,0.1-0.4
			c0,0,0-0.1,0-0.1c0-0.2,0-0.4,0-0.6l0.1-0.1c0.1,0.2,0.1,0.5,0,0.7c0,0,0,0.1,0,0.1c-0.1,0.4-0.3,1,0.5,1.3L75,40.3z"/>
		<path class="st8" d="M71.6,36.3L71.6,36.3l0-0.2c0.2,0,0.4-0.1,0.6-0.2l0.1,0.1C72,36.2,71.8,36.3,71.6,36.3z"/>
		<path class="st12" d="M72.1,36.6c0.2-0.1,0.4-0.1,0.6-0.1c0.2,0,0.4,0.2,0.5,0.3c0.5,0.5,0.5,1.5,0.2,1.7c-0.3,0.2-0.4-1-1.1-1.2
			C71.7,37.1,71.6,36.9,72.1,36.6z"/>
		<path class="st13" d="M76.1,41.3c-0.2,0.2-0.5,0.4-0.8,0.5c-0.3,0.1-0.6,0.1-1,0.1c-1.2-0.3-2.3-0.6-3.4-1.1l0.1-0.1
			c0.2-0.4,0.2-0.9,0.2-1.4c0,0,0,0.6,1,1c0.3,0.1,0.7,0.3,1.1,0.3c0.2,0,0.4,0.1,0.6,0.2l0,0C74.2,41,75.4,41.5,76.1,41.3z"/>
		<path class="st14" d="M63.4,47.7l-0.1-0.1c1-1.5,2.2-2.9,3.5-4.2l0.1,0.1C65.6,44.8,64.4,46.2,63.4,47.7z"/>
		<path class="st14" d="M62.4,50.2l-0.1-0.1c0.3-0.1,6.9-3,8.4-2.9l0,0.2C69.3,47.2,62.5,50.2,62.4,50.2z"/>
		<path class="st14" d="M60.3,58.9l0-0.2c1.9-0.3,3.8-0.7,5.6-1.3c2.7-0.8,6.2-2.3,7.5-4.4l0.1,0.1c-1.1,1.7-3.7,3.2-7.6,4.5
			C64.1,58.2,62.2,58.6,60.3,58.9z"/>
		<path class="st14" d="M61.1,54.7l-0.1,0c0.4-1.5-1-3.4-1-3.4l0.1-0.1C60.1,51.3,61.6,53.1,61.1,54.7z"/>
		<path class="st14" d="M59.1,53.7l-0.1-0.1c0.3-0.7,0.5-1.6,0.4-2.4l0.2,0C59.5,52.1,59.4,52.9,59.1,53.7z"/>
		<path class="st14" d="M55.7,33l-0.1-0.1c0.7-0.6,2.2,0,2.3,0l-0.1,0.1C57.8,33.1,56.4,32.5,55.7,33z"/>
		<path class="st14" d="M56.2,35c0.1-1.6,2.1-2.4,2.2-2.5l0.1,0.1c0,0-2,0.8-2.1,2.3L56.2,35z"/>
		<path class="st14" d="M72.5,68.3l0-0.1c2.5-0.6,3.5-3.9,3.5-3.9l0.1,0c-0.2,0.6-0.5,1.2-0.8,1.8c-0.3,0.5-0.7,1-1.2,1.4
			S73.1,68.1,72.5,68.3z"/>
		<path class="st14" d="M70.4,66.3c-0.1,0-0.3,0-0.4-0.1l0-0.2c2,0.4,4.9-1.3,4.9-1.4l0.1,0.1C75,64.9,72.5,66.5,70.4,66.3z"/>
		<path class="st15" d="M85.6,35.7l-0.2,0c0.9-3.1-2-6-2-6l0.1-0.1C83.6,29.6,86.5,32.5,85.6,35.7z"/>
		<path class="st9" d="M28.2,51.4c-0.4-0.3-0.9-0.4-1.5-0.5c-0.5,0-1,0-1.5,0.2c-0.9,0.3-1.7,0.8-2.4,1.4c-0.4,0.3-0.7,0.6-1,0.9
			c-0.2,0.2-0.5,0.4-0.8,0.4c-0.7,0.2-1.5,0.2-2.2,0.1l-0.1,0c-0.1,0-0.3,0-0.4,0.1c-0.1,0.1-0.2,0.2-0.2,0.4c0,0.1,0,0.3,0.1,0.4
			c0.1,0.1,0.2,0.2,0.3,0.2c0.7,0.2,1.5,0.3,2.2,0.2l-0.1,0L43.4,113c0,0-0.1,0.1-0.1,0.2l-0.1,1c0,0.1,0,0.1,0,0.2l0.8,1.9
			c0,0.1,0.1,0.2,0.2,0.2c0.1,0,0.2,0,0.3,0l1.6-0.6c0.1,0,0.1-0.1,0.1-0.1c0,0,0.1-0.1,0.1-0.1s0-0.1,0-0.2c0-0.1,0-0.1,0-0.2
			l-0.8-1.9c0-0.1-0.1-0.1-0.1-0.2l-0.7-0.6c0,0-0.1-0.1-0.2-0.1L22,55.1c0.3-0.2,0.6-0.4,0.8-0.6c0.3-0.3,0.5-0.6,0.8-0.8
			c0.6-0.5,1.2-0.9,2-1.3c0.3-0.2,0.7-0.2,1-0.2c0.3,0,0.7,0.1,1,0.2l0,0c0.1,0.1,0.3,0.1,0.4,0c0.1,0,0.2-0.1,0.3-0.2
			c0.1-0.1,0.1-0.3,0-0.4C28.4,51.6,28.3,51.5,28.2,51.4L28.2,51.4z"/>
		<path class="st16" d="M85.1,102.5c0,0-3.5-0.3-6-1.5c-2.5-1.2-4-5.9-4.1-6.1l0.1,0c0,0.1,1.6,4.9,4,6c2.4,1.1,5.9,1.5,6,1.5
			L85.1,102.5z"/>
		<path class="st16" d="M79.3,103.9c-2.1-0.5-3.7-2.6-3.7-2.6l0.1-0.1c0,0,1.5,2,3.6,2.5L79.3,103.9z"/>
		<path class="st16" d="M87.3,95.3l-0.1-0.1c1.3-1.4,0.5-3.9,0.5-3.9l0.1,0C87.9,91.3,88.7,93.8,87.3,95.3z"/>
		<path class="st16" d="M91,95.8l-0.2,0c0.1-0.8,0-1.7-0.2-2.5l0.1,0C91.1,94,91.1,94.9,91,95.8z"/>
	</g>
	<g class="st17">
		<path class="st0" d="M133.9,40.4l1.4-16L6,100.6l-2.1,24.3L133.9,40.4z"/>
		<path class="st0" d="M131.1,72.2l1-11.2L27.5,128.3l20,1.7L131.1,72.2z"/>
		<path class="st0" d="M9.7,58.4l85.9-48.3l-81.1-7L9.7,58.4z"/>
	</g>
</g>
</svg>
