<?xml version="1.0" encoding="utf-8"?>
<!-- Generator: Adobe Illustrator 25.3.1, SVG Export Plug-In . SVG Version: 6.00 Build 0)  -->
<svg version="1.1" id="圖層_1" xmlns="http://www.w3.org/2000/svg" xmlns:xlink="http://www.w3.org/1999/xlink" x="0px" y="0px"
	 viewBox="0 0 10 140" style="enable-background:new 0 0 10 140;" xml:space="preserve">
<style type="text/css">
	.st0{clip-path:url(#SVGID_2_);fill:#E8DCD3;}
</style>
<g>
	<defs>
		<rect id="SVGID_1_" x="0.2" width="9.8" height="140"/>
	</defs>
	<clipPath id="SVGID_2_">
		<use xlink:href="#SVGID_1_"  style="overflow:visible;"/>
	</clipPath>
	<path class="st0" d="M0.4,13.5L10,26.9l-5.4,9.7l-1,19.9l0.9,12.8l2.7,4.5L4,92l4.9,10.6l-6.4,4.5l0.3,12.7l5.7,9.7L3.5,140
		l13.7-0.4l16.8-5l5.7,2.3l7.6-2.7l7.3,4.4l16.9-0.5l5.6-3.9l7.8,1.9l20-3.4l16,4.1l27.1-6.1l12.9,1.3l4.4,3.6l8.5-0.2l24.6-6.9
		l14.5,5.8l21.3-0.6L230.3-6.3L5.8-0.3L0.4,13.5z"/>
</g>
</svg>
