<?xml version="1.0" encoding="utf-8"?>
<!-- Generator: Adobe Illustrator 25.3.1, SVG Export Plug-In . SVG Version: 6.00 Build 0)  -->
<svg version="1.1" id="圖層_1" xmlns="http://www.w3.org/2000/svg" xmlns:xlink="http://www.w3.org/1999/xlink" x="0px" y="0px"
	 viewBox="0 0 360 18" style="enable-background:new 0 0 360 18;" xml:space="preserve">
<style type="text/css">
	.st0{opacity:0.15;}
	.st1{clip-path:url(#SVGID_2_);fill:#E8DCD3;}
</style>
<g class="st0">
	<polygon points="1,1 1,2.3 1.1,2.5 1,2.7 1,19 14.6,18.6 41.5,10.6 50.6,14.3 62.8,10 74.4,17 101.5,16.3 110.4,10.1 122.8,13.1 
		154.7,7.6 180.3,14.2 223.5,4.4 244.1,6.5 251.1,12.3 264.7,11.9 303.5,1 	"/>
	<polygon points="304.1,1 327,10.3 361,9.4 360.8,1 	"/>
</g>
<g>
	<g>
		<defs>
			<rect id="SVGID_1_" width="360" height="18.8"/>
		</defs>
		<clipPath id="SVGID_2_">
			<use xlink:href="#SVGID_1_"  style="overflow:visible;"/>
		</clipPath>
		<path class="st1" d="M-13.1-183.7l15.3,21.4l-8.6,15.4L-8-115.2l1.4,20.4l4.3,7.1l-5,29.2l7.8,17l-10.2,7.2L-9.2-14L0.1,1.5
			l-8.3,16.7l21.8-0.6l26.9-8l9.1,3.7L61.8,9l11.6,7l27.1-0.7l8.9-6.2l12.4,3l31.9-5.5l25.6,6.6l43.2-9.8l20.6,2.1l7,5.8l13.6-0.4
			l39.2-11L326,9.3l34-0.9l-6-223.8l-358.5,9.6L-13.1-183.7z"/>
	</g>
</g>
</svg>
