<?xml version="1.0" encoding="utf-8"?>
<!-- Generator: Adobe Illustrator 25.3.1, SVG Export Plug-In . SVG Version: 6.00 Build 0)  -->
<svg version="1.1" id="圖層_1" xmlns="http://www.w3.org/2000/svg" xmlns:xlink="http://www.w3.org/1999/xlink" x="0px" y="0px"
	 viewBox="0 0 140 50" style="enable-background:new 0 0 140 50;" xml:space="preserve">
<style type="text/css">
	.st0{opacity:0.5;fill:#BAA495;enable-background:new    ;}
	.st1{fill:#F5F4DC;}
	.st2{fill:#CEBCAD;}
</style>
<g>
	<g id="圖層_2_1_">
		<g id="artwork">
			<polygon class="st0" points="4.8,0.6 2.2,33.5 136.6,50 138.9,17.1 			"/>
			<polygon class="st1" points="4.9,0 0,30.8 139.5,47.9 140,15.5 			"/>
			<path class="st2" d="M137.8,45.9L2.1,29.2L6.4,2l131.8,15.1L137.8,45.9z M3.4,28.2l133.2,16.3l0.4-26.3L7.4,3.3L3.4,28.2z"/>
			<path class="st2" d="M11,17.1c-0.2,0.1-0.4,0-0.6-0.1c-0.1,1.1-0.1,2.2,0.1,3.4c0.2-0.1,0.4-0.1,0.6,0
				C10.9,19.3,10.9,18.2,11,17.1z"/>
			<path class="st2" d="M20.3,6.8c-2-1.1-4.3-0.4-5.8,1.1c-1.9,1.9-3,4.6-3.6,7.2c0.2,0,0.4,0.1,0.5,0.2c0.6-2.5,1.6-5.1,3.4-6.9
				c1.5-1.5,3.7-2.2,5.6-0.9C20.1,7.3,20.1,7,20.3,6.8z"/>
			<path class="st2" d="M22.5,9.3c-0.3,0.1-0.6,0.1-0.8-0.2c0.9,1.6,1.4,3.3,1.6,5.1c0.2-0.1,0.4-0.2,0.6-0.1
				C23.8,12.5,23.3,10.8,22.5,9.3z"/>
			<path class="st2" d="M24.2,18c-0.2,0.1-0.4,0-0.6-0.2c0,2.8-0.4,6.7-3,8.3c-2.8,1.6-6.5-0.3-8.1-2.7c0,0.3,0.2,0.4,0.2,0.7
				c0,0.1,0,0.3-0.1,0.4c0.2,0.2,0.4,0.4,0.6,0.6c0.7,0.6,1.5,1.1,2.4,1.5c1.5,0.7,3.3,0.8,4.8,0.2C23.6,25.5,24.1,21.2,24.2,18z"/>
			<path class="st2" d="M23.2,17.1c0-2.7-0.4-6.2-2.5-8.2c-1.7-1.6-4.2-1.2-5.8,0.4c-2.2,2.2-3.4,5.9-3.4,8.9c-0.1,3,1.7,5.8,4.5,7
				c-0.1-0.2-0.1-0.4,0.1-0.6c-4.3-1.9-4.5-6.7-3.2-10.6c0.8-2.5,3-6.4,6.2-5.4c3.1,1,3.5,5.8,3.6,8.5c0.1,3.3-0.8,8.6-5.2,7.9
				c0,0.2-0.1,0.4-0.2,0.6C22.1,26.4,23.2,20.8,23.2,17.1z"/>
			<path class="st2" d="M20.3,22.5c0.2,0,0.4,0.2,0.4,0.4c1.8-2.2,1.7-6,1.1-8.6c-0.2,0.1-0.4,0.2-0.6,0.1
				C21.7,16.8,21.9,20.4,20.3,22.5z"/>
			<path class="st2" d="M13.1,17.5c0.2-2.2,1-4.8,2.7-6.3c1.6-1.4,3.7-0.9,4.7,1c0.1-0.2,0.3-0.3,0.5-0.3c-1.1-2.1-3.4-2.8-5.4-1.3
				c-2,1.6-3,4.6-3.1,7C12.7,17.4,12.9,17.4,13.1,17.5z"/>
			<path class="st2" d="M19.1,23.5c0,0,0-0.1,0-0.1c-1.4,0.6-2.9,0.1-4-0.8c-0.1,0.2-0.2,0.4-0.4,0.4c1.3,1.1,3.1,1.7,4.7,1
				C19.2,23.9,19.1,23.7,19.1,23.5z"/>
			<path class="st2" d="M21.2,17.4c0-1.8-0.3-4.2-1.8-5.4c-1.8-1.3-3.7,0.2-4.6,1.8c0.2,0,0.4,0.1,0.5,0.2c0.9-1.6,3-2.8,4.3-0.9
				c1.2,1.8,1.3,4.8,0.7,6.8c-0.6,2-2.5,3-4.4,1.6c-1.9-1.5-1.9-4.1-1.2-6.2c-0.2,0.1-0.4,0-0.6-0.1c-0.9,2.6-0.7,5.9,2.1,7.2
				c1.3,0.7,2.8,0.4,3.8-0.8C21,20.5,21.2,18.9,21.2,17.4z"/>
			<path class="st2" d="M17.3,21.3c-2.1-0.3-2.8-2.7-2.4-4.5c0.3-1.4,1.2-3.6,3-3.5c1.8,0.1,2.3,2.2,2.4,3.7
				C20.2,18.7,19.6,21.6,17.3,21.3z M17.9,13.8c-1.4-0.2-2.2,1.7-2.4,2.8c-0.3,1.5,0,3.6,1.7,4s2.3-1.8,2.4-3.2
				C19.6,16.3,19.4,14.1,17.9,13.8z"/>
			<path class="st2" d="M17.8,14.8c-1.2-0.1-1.9,1.4-1.9,2.4c0.2-0.1,0.4-0.1,0.6,0c0.1-0.6,0.3-1.5,1-1.7c0.6-0.2,1.1,0.6,1.1,1.1
				c0.2,0.8-0.1,1.6-0.6,2.2c-0.2,0.2-0.6,0.3-0.8,0.1c-0.1-0.2-0.2-0.2-0.3-0.1C16.6,19,16.4,19,16.3,19c0.9,1.3,2.3,0.4,2.7-0.8
				C19.3,17.1,19.2,15,17.8,14.8z"/>
			<path class="st2" d="M39.1,20.6c-0.2,0-0.4,0-0.5-0.1c-0.3,1-0.4,2-0.2,3c0.2-0.1,0.4-0.1,0.6,0C38.8,22.5,38.8,21.5,39.1,20.6z"
				/>
			<path class="st2" d="M47.5,11.1c-1.8-0.6-3.8,0-5,1.5c-1.6,1.9-2.3,4.1-3.3,6.3c0.2,0,0.4,0.1,0.5,0.2c1-2.2,1.6-4.1,3.2-6.1
				c1.3-1.5,3-2,4.9-1.3C47.5,11.5,47.3,11.3,47.5,11.1z"/>
			<path class="st2" d="M50.8,13.2c-0.3,0.1-0.6,0-0.9-0.1c1.3,1.4,1.3,3.3,1.4,5.1c0.1-0.1,0.3-0.2,0.5-0.1
				C51.8,16.4,51.7,14.6,50.8,13.2z"/>
			<path class="st2" d="M51.8,21.9c-0.2,0-0.4,0-0.5-0.1c-0.5,2.8-0.7,6-3.6,7.4c-2.9,1.4-5.7-0.6-7.5-2.8c0,0.2,0.1,0.4,0.2,0.6
				c0.1,0.2-0.1,0.2,0,0.4c0.1,0.2,0.3,0.4,0.5,0.5c0.6,0.6,1.3,1.1,2.1,1.5c1.5,0.6,3.1,1.2,4.6,0.5C50.7,28.4,51.3,25.1,51.8,21.9
				z"/>
			<path class="st2" d="M50.9,21c0.3-3,0.2-6.5-2.3-8c-2.1-1.3-4.2-0.8-5.6,0.8c-1.9,2.2-3.1,4.8-3.5,7.7c-0.4,2.9,1.6,5,3.9,6.4
				c-0.1-0.2,0-0.4,0.1-0.5c-3.5-2.4-4.1-5.6-2.3-9.4c1.2-2.5,2.1-5.6,5.6-5c3.5,0.5,4,4.9,3.6,8.1c-0.5,3.9-1.4,7.1-5.6,6.9
				c0,0.2-0.1,0.4-0.2,0.5C49.2,28.8,50.5,25.1,50.9,21z"/>
			<path class="st2" d="M47.8,25.9c0.2,0,0.3,0.2,0.4,0.4c1.9-2.4,2.1-5,1.8-7.9c-0.1,0.1-0.3,0.2-0.5,0.2
				C49.7,21.2,49.5,23.7,47.8,25.9z"/>
			<path class="st2" d="M41,20.9c0.7-2,1.5-4,3.1-5.4s3.5-1,4.7,0.6c0.1-0.2,0.3-0.3,0.5-0.3c-1.3-1.9-3.6-2.4-5.4-0.9
				s-2.7,3.8-3.4,6C40.6,20.9,40.8,20.9,41,20.9z"/>
			<path class="st2" d="M46.5,26.8c0-0.1,0.1-0.1,0-0.1c-1.4,0.2-2.8-0.1-3.9-1.1c-0.1,0.2-0.2,0.3-0.4,0.3c1.4,1.1,2.8,1.6,4.6,1.2
				C46.6,27.1,46.6,26.8,46.5,26.8z"/>
			<path class="st2" d="M49.1,21.4c0.2-1.6,0.2-4.1-1.6-5.2c-1.7-1-3.4,0.3-4.5,1.7c0.2,0,0.4,0.1,0.5,0.2c1.1-1.4,3-2.6,4.2-0.8
				s1.1,4.3,0.1,6.2c-0.9,1.9-2.7,2.4-4.5,1c-1.8-1.4-1.8-3.5-0.6-5.4c-0.2,0-0.4,0-0.6-0.2c-1.2,2.5-1.1,4.9,1.5,6.4
				c1.2,0.8,2.7,0.6,3.7-0.4C48.6,24.1,49,23,49.1,21.4z"/>
			<path class="st2" d="M44.9,24.5c-2-0.3-3-2.5-2.2-4.1c0.8-1.5,1.8-2.8,3.4-2.8c1.6,0,2.2,1.8,2.1,3.5
				C48.1,22.8,46.9,24.9,44.9,24.5z M46.3,18.3c-1.4-0.2-2.1,0.9-2.9,2.1c-0.7,1.1-0.3,2.6,0.7,3.2c0.2,0.1,0.4,0.2,0.7,0.3
				c1.6,0.4,2.5-1,2.8-2.3C48,20.3,47.7,18.5,46.3,18.3z"/>
			<path class="st2" d="M46.2,19.3c-1.2-0.3-1.9,0.7-2.5,1.5c0.2,0,0.5,0,0.7,0.1c0.3-0.6,0.8-1,1.4-1.1c0.5-0.1,1,0.3,1.1,0.8
				c0,0.1,0,0.2,0,0.3c-0.1,0.7-0.5,1.3-1.1,1.6c-0.3,0.1-0.6,0.1-0.9,0c-0.2-0.2-0.2-0.2-0.4-0.1c-0.2,0.1-0.4,0.1-0.6,0
				c0.9,1.1,2.3,0.8,3.1-0.2C47.8,21.1,47.4,19.6,46.2,19.3z"/>
			<path class="st2" d="M65.8,23.7c-0.2,0-0.4,0-0.5-0.1c-0.1,1-0.1,2,0.1,3.1c0.2-0.1,0.4-0.1,0.6,0C65.7,25.6,65.7,24.6,65.8,23.7
				z"/>
			<path class="st2" d="M74.2,14.3c-1.8-1-3.9-0.4-5.4,1c-1.8,1.7-2.7,4.2-3.3,6.5c0.2,0,0.4,0.1,0.5,0.2c0.6-2.2,1.4-4.6,3.1-6.3
				c1.3-1.3,3.4-2,5.1-0.9C74.1,14.7,74.1,14.5,74.2,14.3z"/>
			<path class="st2" d="M76.3,16.6c-0.2,0.1-0.5,0.1-0.7-0.2c0.8,1.4,1.3,3,1.5,4.6c0.2-0.1,0.3-0.1,0.5-0.1
				C77.4,19.5,77,18,76.3,16.6z"/>
			<path class="st2" d="M77.8,24.5c-0.2,0.1-0.4,0-0.5-0.2c0,2.5-0.3,6.1-2.8,7.6c-2.5,1.5-5.9-0.3-7.4-2.4c0,0.3,0.2,0.4,0.2,0.6
				c0,0.1,0,0.3-0.1,0.4c0.2,0.2,0.4,0.4,0.5,0.5c0.6,0.6,1.4,1,2.1,1.4c1.4,0.7,3,0.7,4.4,0.2C77.3,31.3,77.7,27.4,77.8,24.5z"/>
			<path class="st2" d="M76.9,23.6c0-2.5-0.4-5.7-2.3-7.5c-1.6-1.5-3.8-1.1-5.3,0.4c-2,2-3.1,5.3-3.1,8.1c-0.1,2.8,1.5,5.3,4.1,6.4
				c-0.1-0.2-0.1-0.4,0.1-0.5c-3.9-1.7-4.1-6.1-2.9-9.6c0.8-2.3,2.7-5.9,5.7-4.9c2.9,0.9,3.2,5.3,3.2,7.8c0.1,3-0.7,7.8-4.7,7.2
				c0,0.2-0.1,0.4-0.2,0.5C75.9,32.1,76.9,27,76.9,23.6z"/>
			<path class="st2" d="M74.2,28.5c0.2,0,0.3,0.2,0.4,0.4c1.6-2,1.5-5.4,1-7.8c-0.1,0.1-0.3,0.2-0.5,0.1
				C75.6,23.4,75.7,26.6,74.2,28.5z"/>
			<path class="st2" d="M67.7,24c0.2-2,0.9-4.4,2.5-5.7c1.5-1.3,3.3-0.8,4.2,0.9c0.1-0.1,0.3-0.2,0.5-0.2c-1-1.9-3.1-2.6-4.9-1.2
				c-1.7,1.4-2.7,4.1-2.9,6.4C67.3,23.9,67.5,23.9,67.7,24z"/>
			<path class="st2" d="M73.1,29.5c0,0,0-0.1,0-0.1c-1.2,0.5-2.7,0.1-3.7-0.8c-0.1,0.2-0.2,0.3-0.4,0.4c1.2,1,2.9,1.5,4.3,0.9
				C73.3,29.8,73.2,29.7,73.1,29.5z"/>
			<path class="st2" d="M75,23.9c0-1.7-0.2-3.9-1.7-4.9c-1.6-1.2-3.3,0.2-4.1,1.6c0.2,0,0.4,0.1,0.5,0.2c0.8-1.5,2.7-2.6,3.9-0.8
				c1.1,1.6,1.2,4.3,0.6,6.2c-0.6,1.8-2.3,2.7-4,1.5c-1.8-1.3-1.7-3.7-1.1-5.7c-0.2,0.1-0.4,0-0.5-0.1c-0.8,2.4-0.6,5.4,1.9,6.6
				c1.2,0.6,2.6,0.3,3.4-0.7C74.8,26.7,75,25.3,75,23.9z"/>
			<path class="st2" d="M71.5,27.5c-1.9-0.2-2.5-2.4-2.2-4.1c0.3-1.3,1.1-3.3,2.7-3.2s2.1,2,2.1,3.3C74.2,25.1,73.6,27.7,71.5,27.5z
				 M72.1,20.7c-1.3-0.2-1.9,1.5-2.2,2.5c-0.3,1.4,0,3.3,1.6,3.6c1.6,0.4,2.1-1.7,2.2-2.9C73.6,23,73.4,20.9,72.1,20.7z"/>
			<path class="st2" d="M72,21.6c-1.1-0.1-1.7,1.2-1.8,2.1c0.2-0.1,0.4-0.1,0.5,0c0-0.6,0.3-1.3,0.9-1.6c0.6-0.2,1,0.5,1,1
				c0.1,0.7-0.1,1.5-0.6,2c-0.2,0.2-0.5,0.3-0.8,0.1c-0.1-0.2-0.2-0.2-0.3-0.1c-0.1,0.1-0.3,0.1-0.4,0.1c0.8,1.2,2.1,0.3,2.4-0.7
				C73.4,23.7,73.3,21.8,72,21.6z"/>
			<path class="st2" d="M103.1,27.8c0.2,0.1,0.4,0.1,0.5,0c-0.1,1-0.3,1.9-0.4,2.9c-0.1-0.1-0.3-0.2-0.5-0.2
				C102.9,29.7,103,28.7,103.1,27.8z"/>
			<path class="st2" d="M97.1,16.9c1.9-0.4,3.8,0.5,4.8,2.2c1.3,2.2,1.5,4.5,1.8,6.9c-0.2-0.1-0.3,0-0.5,0.1
				c-0.2-2.3-0.5-4.5-1.7-6.6c-1-1.7-2.6-2.5-4.5-2C97.2,17.3,97.2,17.1,97.1,16.9z"/>
			<path class="st2" d="M94.6,18.6c0.2,0.2,0.5,0.2,0.7,0c-1.1,1.3-2,2.8-2.6,4.5c-0.1-0.1-0.3-0.2-0.5-0.2
				C92.8,21.4,93.6,19.9,94.6,18.6z"/>
			<path class="st2" d="M91.4,26.6c0.2,0.1,0.4,0,0.5-0.1c-0.2,2.8-0.1,6.2,2.4,7.9c2.5,1.7,5.8,0.7,7.6-1.5c0,0.2,0,0.4-0.1,0.6
				c-0.1,0.2,0.1,0.2,0,0.4c-0.1,0.2-0.3,0.3-0.5,0.5c-0.7,0.5-1.4,0.9-2.3,1.1c-1.5,0.4-3.3,0.7-4.7-0.3
				C91.4,33.3,91.2,29.9,91.4,26.6z"/>
			<path class="st2" d="M92.4,25.9c0.4-3,1.6-5.8,3.9-7.2c1.9-1.2,3.8-0.3,4.9,1.5c1.5,2.4,1.8,5.6,1.4,8.4
				c-0.4,2.8-1.1,4.4-3.6,5.5c0.1-0.2,0.1-0.4-0.1-0.6c3.2-1.6,3.7-5.4,3.1-9c-0.4-2.3-1.2-6-4.3-5.7c-3.1,0.3-4.6,4.2-4.9,7.2
				c-0.4,3.6,0.4,7.4,4.5,7.7c0,0.2,0.1,0.4,0.2,0.5C93,34.1,91.9,30,92.4,25.9z"/>
			<path class="st2" d="M94.7,31.2c-0.2,0-0.3,0.2-0.4,0.3c-1.5-2.6-1.3-5.3-0.3-8.1c0.1,0.2,0.3,0.2,0.4,0.2
				C93.4,26.3,93.3,28.7,94.7,31.2z"/>
			<path class="st2" d="M101.4,27.2c-0.1-2-0.4-4-1.6-5.6c-1.2-1.6-2.9-1.3-4.2,0c-0.1-0.2-0.2-0.3-0.3-0.4c1.5-1.5,3.4-1.9,4.9-0.1
				c1.5,1.8,1.8,4.1,1.7,6.4C101.7,27.4,101.6,27.3,101.4,27.2z"/>
			<path class="st2" d="M95.8,32.3c0-0.1,0-0.1,0-0.1c1.3,0.5,2.8,0.3,3.9-0.5c0.1,0.2,0.2,0.4,0.4,0.5c-1.4,1-3.1,1.2-4.6,0.5
				C95.6,32.6,95.7,32.4,95.8,32.3z"/>
			<path class="st2" d="M94,26.5c0.2-1.6,0.8-3.9,2.6-4.7c1.8-0.8,2.9,0.7,3.7,2.2c-0.2,0-0.4,0-0.6,0.1c-0.9-1.4-2.1-2.8-3.7-1.3
				c-1.6,1.5-1.9,4-1.3,6c0.6,2,2.4,2.9,4.1,1.6c1.7-1.2,1.9-3.5,1.4-5.3c0.2,0.1,0.4,0.1,0.5,0c0.4,2.3,0.1,5-2.2,6.2
				c-1.3,0.6-2.8,0.2-3.6-0.9C94.1,29.3,93.8,27.9,94,26.5z"/>
			<path class="st2" d="M97.5,30.2c1.9-0.1,2.9-2.5,2.5-4c-0.3-1.4-1.1-2.7-2.6-2.9c-1.5-0.2-2.4,1.4-2.6,3
				C94.7,28,95.6,30.3,97.5,30.2z M97.2,23.9c1.3,0,1.8,1.1,2.2,2.2c0.5,1.1-0.4,3.2-1.9,3.5c-1.5,0.3-2.2-1.4-2.3-2.7
				C95.2,25.6,95.9,24,97.2,23.9z"/>
			<path class="st2" d="M97.4,28.6c-1.2,0-1.6-0.8-1.9-1.7c0.2,0,0.4,0,0.7,0c0.1,0.6,0.4,1,1,1.2c0.5,0.2,1.1-0.2,1.2-0.7
				c0,0,0-0.1,0-0.1c0.1-0.6-0.1-1.3-0.6-1.7c-0.2-0.2-0.6-0.2-0.8-0.1c-0.2,0.1-0.2,0.2-0.4,0.1c-0.2-0.1-0.3-0.1-0.5-0.1
				c1-1,2.2-0.6,2.7,0.6C99.3,27.3,98.6,28.6,97.4,28.6z"/>
			<path class="st2" d="M119,29.2c-0.1,0.1-0.3,0-0.4-0.1c-0.1,0.9-0.2,1.8-0.2,2.6c0.1-0.1,0.3-0.1,0.4-0.1
				C118.9,30.8,118.9,30,119,29.2z"/>
			<path class="st2" d="M127.7,21.8c-1.5-1.1-3.3-0.9-4.9,0.2c-1.9,1.3-3,3.3-3.8,5.5c0.2,0,0.3,0.1,0.4,0.2c0.6-2,2-4.1,3.6-5.2
				c1.6-1.1,3.2-1.3,4.6-0.2C127.5,22.1,127.6,21.9,127.7,21.8z"/>
			<path class="st2" d="M128.3,23.8c-0.2,0.1-0.4,0-0.4-0.2c0,0,0,0,0,0c0.1,1.4,0.4,2.7,0.5,4.1c0.1-0.1,0.3-0.1,0.4,0
				C128.7,26.3,128.5,25.1,128.3,23.8z"/>
			<path class="st2" d="M128.5,30.6c-0.2,0-0.3-0.1-0.4-0.2c-0.5,2.2-1.1,4.8-3.4,5.7s-4.3-0.7-5.5-2.6c0,0.2,0,0.3,0,0.5
				c0,0.1-0.1,0.2-0.1,0.3c0.1,0.2,0.2,0.3,0.3,0.5c0.4,0.5,0.9,0.9,1.5,1.3c1.1,0.6,2.3,1.1,3.5,0.6
				C127.2,35.8,128,33.2,128.5,30.6z"/>
			<path class="st2" d="M127.8,29.8c0.3-2.2,0.2-4.6-0.6-6.5c-0.8-1.8-2.8-1.3-4.3-0.3c-2,1.3-3.4,4.5-3.6,6.9
				c-0.2,2.5,0.3,3.5,2.1,4.9c0-0.2,0-0.3,0.1-0.5c-2.6-2.1-2-5-0.8-8c0.8-1.9,3.4-4.8,5.5-3.5c2.1,1.3,1.4,4.6,1.2,6.8
				c-0.3,2.6-1.8,5.7-4.9,5.1c0,0.2-0.1,0.3-0.2,0.4C125.8,36,127.4,32.9,127.8,29.8z"/>
			<path class="st2" d="M125,33.4c0.1,0.1,0.3,0.2,0.3,0.4c1.7-1.8,2-3.9,1.9-6.3c-0.1,0.1-0.3,0.1-0.4,0
				C126.9,29.8,126.6,31.7,125,33.4z"/>
			<path class="st2" d="M120.6,29.4c0.4-1.8,1.3-3.8,2.9-4.8c1.6-1,2.5-0.4,3.1,1.1c0.1-0.1,0.2-0.2,0.4-0.2
				c-0.7-1.7-1.7-2.4-3.5-1.4c-1.8,1-2.9,3.2-3.3,5.4C120.2,29.4,120.4,29.3,120.6,29.4z"/>
			<path class="st2" d="M123.9,34c0-0.1,0.1-0.1,0-0.1c-1,0.1-2.1-0.2-2.8-1c-0.1,0.1-0.2,0.2-0.4,0.3c0.8,0.9,2.1,1.3,3.3,1.1
				C124,34.3,123.9,34.1,123.9,34z"/>
			<path class="st2" d="M126.4,29.8c0.2-1.3,0.4-3.1-0.7-4.3c-1-1.2-2.7,0-3.5,1c0.2,0,0.3,0.1,0.4,0.2c0.9-1.1,2.4-1.9,3.1-0.3
				c0.6,1.7,0.5,3.5-0.4,5.1c-0.8,1.4-2.2,1.9-3.4,0.7s-0.6-3.2,0-4.5c-0.2,0-0.3,0-0.4-0.1c-0.7,1.8-1.3,4,0.4,5.3
				c0.9,0.6,2.1,0.6,2.9-0.1C125.8,32,126.3,30.9,126.4,29.8z"/>
			<path class="st2" d="M123,32.1c-1.6-0.4-1.5-2.1-1.1-3.3c0.4-1.2,1.3-2.7,2.6-2.4c1.3,0.2,1.4,1.8,1.2,3S124.5,32.5,123,32.1z
				 M124.5,26.9c-1.1-0.3-1.7,1-2.1,1.9s-0.6,2.5,0.6,2.9c1.2,0.4,2-0.9,2.2-1.9C125.5,28.8,125.6,27.2,124.5,26.9L124.5,26.9z"/>
			<path class="st2" d="M124.3,27.6c-1-0.3-1.5,0.8-1.7,1.5c0.1-0.2,0.3,0.1,0.4,0c0.2-0.3,0.4-1.1,1-1.1c0.6-0.1,0.7,0.5,0.7,1
				c-0.1,0.6-0.3,1.1-0.8,1.4c-0.3,0.2-0.5,0.2-0.7,0s-0.1-0.2-0.2-0.1c-0.2,0.1-0.2,0.1-0.4,0c0.6,0.9,1.6,0.4,2.1-0.3
				C125.2,29.4,125.3,27.9,124.3,27.6z"/>
			<polygon class="st2" points="27.9,31.8 31.9,5.5 33.1,5.7 29.1,32 			"/>
			<polygon class="st2" points="55,35.1 59.3,8.6 60.5,8.8 56.2,35.3 			"/>
			<polygon class="st2" points="83.6,38.6 86.5,11.8 87.7,11.9 84.7,38.8 			"/>
			
				<rect x="98.9" y="27.8" transform="matrix(2.681776e-02 -0.9996 0.9996 2.681776e-02 81.2194 140.1866)" class="st2" width="27.5" height="1.2"/>
		</g>
	</g>
</g>
</svg>
