<?xml version="1.0" encoding="utf-8"?>
<!-- Generator: Adobe Illustrator 25.3.1, SVG Export Plug-In . SVG Version: 6.00 Build 0)  -->
<svg version="1.1" id="圖層_1" xmlns="http://www.w3.org/2000/svg" xmlns:xlink="http://www.w3.org/1999/xlink" x="0px" y="0px"
	 viewBox="0 0 100 60" style="enable-background:new 0 0 100 60;" xml:space="preserve">
<style type="text/css">
	.st0{clip-path:url(#SVGID_2_);}
	.st1{fill:#F3D671;}
	.st2{fill:#D22229;}
	.st3{fill:#221E1F;}
</style>
<g>
	<defs>
		<rect id="SVGID_1_" y="0.4" width="100" height="59.3"/>
	</defs>
	<clipPath id="SVGID_2_">
		<use xlink:href="#SVGID_1_"  style="overflow:visible;"/>
	</clipPath>
	<g class="st0">
		<path class="st1" d="M49.2,48.7c0.1,0,0.1,0,0.2,0h3.1c0.1,0,0.1,0,0.2,0c5.4,0.1,10.9,0.6,16.2,1.5c4.2,0.7,8.4,1.6,12.5,2.7
			c-1.6-2.8-12.8-9.3-12.3-11.2c0.6-2.2,8.9-2.9,8.9-5.1s-8.4-3-8.9-5.2c-0.6-2.2,13.2-13.1,12.1-15c-1.1-2-14.7,7.8-16.2,6.1
			c-1.6-1.6,3.5-11.5,1.7-12.6c-1.9-1.1-8.7,8.1-10.8,7.5C53.6,16.9,53,1.3,50.9,1.3c-2.2,0-2.7,15.5-4.8,16.1
			c-2.1,0.6-8.9-8.7-10.7-7.5c-1.8,1.1,3.2,11,1.7,12.6c-1.6,1.6-15.2-8.1-16.3-6.1c-1.1,1.9,12.6,12.9,12.1,15
			c-0.6,2.1-7.4,2.9-7.4,5.2c0,2.2,6.9,3,7.4,5.1c0.5,1.9-10.7,8.5-12.3,11.2c4.1-1.2,8.3-2.1,12.5-2.7
			C38.3,49.3,43.7,48.8,49.2,48.7z"/>
		<path class="st2" d="M90.8,59.5c-1.3-0.7-2.5-1.5-3.8-2.1c-6.1-3.1-12.7-4.5-19.4-5.6c-5-0.8-10.1-1.3-15.2-1.4h-2.9
			c-5.1,0.1-10.2,0.5-15.2,1.4c-6.8,1.1-13.3,2.6-19.4,5.6c-1.3,0.7-2.5,1.4-3.8,2.1l0.1,0.2c12.9-4.4,26.3-6.4,39.8-6.4
			c13.5,0.1,26.9,2,39.8,6.4L90.8,59.5z"/>
		<path class="st3" d="M9.2,14.9c-0.1-0.2-0.1-0.3-0.1-0.5c0.3,0,0.6,0,0.9-0.1h0.1v-0.7l-0.6,0.1l-0.6,0.1c0-0.1,0-0.2-0.1-0.2
			l0-0.2H8.1l0,0.1c0,0.1,0,0.2,0.1,0.4H7.1v0.7h0.1c0.3,0,0.7,0,1.2,0L8.5,15c-0.6,0-1,0-1.4,0H7v0.7h1.1l0.5,0h0.1l0.1,0.4
			c0,0.1,0.1,0.2,0.1,0.2l0,0.1h0.7l0-0.1c-0.1-0.2-0.1-0.4-0.2-0.6c0.5,0,0.7-0.1,1-0.1h0.1v-0.7h-0.1C10.1,14.9,9.7,14.9,9.2,14.9
			z"/>
		<path class="st3" d="M8.7,16.9c-0.4,0-0.6-0.1-0.7-0.2c0-0.1-0.1-0.1-0.1-0.2c0-0.2,0.1-0.3,0.2-0.4L8.3,16H7.5l0,0
			c-0.1,0.1-0.1,0.2-0.2,0.3c0,0.1-0.1,0.2-0.1,0.3c0,0.7,0.4,1,1.4,1h0.1c0.4,0,0.8,0,1.2-0.1h0.1v-0.7H9.9
			C9.5,16.9,9.1,16.9,8.7,16.9z"/>
		<path class="st3" d="M16,14.7c0-0.2-0.1-0.4-0.1-0.6l0-0.1h-0.6l0,0.1c0.1,0.2,0.1,0.3,0.1,0.5c-0.2,0-0.3,0-0.5,0.1
			c0-0.2-0.1-0.4-0.1-0.6V14h-0.7v0.1c0,0.1,0,0.2,0,0.3l0.1,0.5c-0.1,0-0.2,0.1-0.4,0.2l-0.1,0v0.7l0.5-0.3c0.1,0.7,0.3,1.4,0.5,2
			l0,0.1h0.7l0-0.1c-0.2-0.9-0.4-1.5-0.5-2.2c0.2-0.1,0.3-0.1,0.5-0.1h0c0.4,0,0.8,0.1,0.8,0.4c0,0.1,0,0.1,0,0.2
			c0,0.1-0.1,0.1-0.1,0.2c-0.1,0.1-0.2,0.1-0.3,0.1c-0.1,0-0.2,0-0.3,0h-0.1v0.6l0.1,0c0.3,0.1,0.6,0.1,0.9-0.1
			c0.2-0.1,0.3-0.2,0.4-0.4C17,16,17,15.9,17,15.7C17,15.1,16.6,14.8,16,14.7z"/>
		<path class="st3" d="M22.2,16.4c-0.2-0.2-0.5-0.5-0.9-0.8c-0.1-0.1-0.2-0.2-0.2-0.2c0,0,0-0.1,0.1-0.2c0.1-0.1,0.5-0.4,0.9-0.7
			l1.3-1h-1.1l0,0L21.7,14l-0.5,0.4c-0.2,0.2-0.4,0.3-0.4,0.4c-0.1,0.1-0.2,0.2-0.2,0.2s-0.1,0.2-0.1,0.3c0,0.1,0,0.2,0.1,0.4
			c0,0.1,0.1,0.2,0.2,0.3c0.1,0.1,0.2,0.2,0.3,0.3l0.4,0.3l1,0.9l0,0h1.1l-0.2-0.2C23.1,17.2,22.6,16.8,22.2,16.4z"/>
		<path class="st3" d="M80.6,14.3h1.8c-0.3,0.2-0.5,0.4-0.7,0.6c-0.2,0.3-0.3,0.6-0.4,0.9c0,0.2,0,0.5,0.1,0.7
			c0.1,0.2,0.2,0.4,0.4,0.6c0.3,0.2,0.6,0.4,1,0.4c0.1,0,0.2,0,0.4,0c0.2,0,0.3,0,0.5,0h0.1v-0.7h-0.1c-0.2,0-0.5,0-0.7,0
			c-0.2,0-0.3-0.1-0.4-0.1c-0.1-0.1-0.2-0.2-0.3-0.3c-0.1-0.2-0.1-0.4,0-0.6c0.2-0.5,0.6-0.9,1-1.1c0.2-0.1,0.5-0.2,0.8-0.3H84v-0.7
			h-3.4V14.3z"/>
		<path class="st3" d="M90.7,16.2c-0.1,0.2-0.3,0.4-0.5,0.5c-0.2,0.1-0.3,0.2-0.4,0.2c-0.1,0-0.1-0.2-0.1-0.3c0-0.1,0-0.5,0-0.8
			v-0.1c0-0.1,0-0.3-0.1-0.4c-0.1-0.1-0.2-0.2-0.3-0.3c-0.1,0-0.3,0-0.4,0c-0.1,0-0.3,0.1-0.4,0.2l0-0.1c0.1-0.3,0.1-0.4,0.3-1
			l0.2-0.7h-0.7l0,0.1c-0.3,1.1-0.7,2.2-0.8,2.8c-0.1,0.4-0.2,0.8-0.3,1.2l0,0.1h0.7l0.3-1.1c0-0.2,0.1-0.3,0.2-0.4
			c0.1-0.1,0.2-0.2,0.4-0.3c0.2-0.1,0.2-0.1,0.2-0.1c0,0,0,0,0,0.1c0,0,0,0.4,0,0.6c0,0.1,0,0.2,0,0.3c0,0.7,0.3,1.1,0.8,1.1
			c0.2,0,0.4-0.1,0.5-0.2c0.2-0.1,0.3-0.2,0.4-0.4l0,0V16L90.7,16.2z"/>
		<path class="st2" d="M56.7,13.3c-0.3-0.1-0.7-0.2-1.1-0.2l-0.6,3.1c0.2,0,0.5,0.1,0.7,0.2L56.7,13.3z"/>
		<path class="st2" d="M46.3,17.5c0.2-0.1,0.4-0.2,0.7-0.3l-1.3-2.9c-0.3,0.2-0.6,0.3-1,0.5L46.3,17.5z"/>
		<path class="st2" d="M50.5,16.1c0.2,0,0.5-0.1,0.7-0.1l-0.2-3.2c-0.4,0-0.7,0.1-1.1,0.1L50.5,16.1z"/>
		<path class="st2" d="M61.8,15.7c-0.3-0.2-0.6-0.4-0.9-0.6l-1.6,2.8c0.2,0.1,0.4,0.3,0.6,0.4L61.8,15.7z"/>
		<path class="st2" d="M39.5,28.5c0-0.2,0-0.5,0-0.7l-3.2-0.3c0,0.4,0,0.7-0.1,1.1L39.5,28.5z"/>
		<path class="st2" d="M40.2,33c-0.1-0.2-0.2-0.5-0.2-0.7l-3.1,0.8c0.1,0.4,0.2,0.7,0.3,1.1L40.2,33z"/>
		<path class="st2" d="M40.4,24.1c0.1-0.2,0.2-0.5,0.3-0.7l-2.9-1.4c-0.2,0.3-0.3,0.7-0.4,1L40.4,24.1z"/>
		<path class="st2" d="M42.7,20.3c0.2-0.2,0.3-0.4,0.5-0.5L41,17.5c-0.3,0.3-0.5,0.5-0.7,0.8L42.7,20.3z"/>
		<path class="st2" d="M68,44.8c-1.6-0.9-3.2-1.9-4.6-3c-1.6-1.3-3-2.9-4.1-4.7c-0.6-1.6-1-3.3-1.1-5c-0.4,0.2-0.8,0.4-1.2,0.6
			c-2.1,1-4.2,1.7-6,3.2c1.2,2,2.6,3.9,4.2,5.7c1.8,2,3.7,3.9,5.8,5.6l0.1,0.1c-1.3,0.2-2.5,0.8-3.5,1.5c-1.8,1.3,2.9,3.2,8.3,2.5
			c1.8-0.3,4.1-1,5.2-2.6C72.7,46.6,69.4,45.5,68,44.8z"/>
		<path class="st2" d="M61,22.6l-12.2-0.1c-0.5,0-0.8,2.4-0.8,2.8c0,1.2,0.1,2.5,0.4,3.7c-3.3,2.2-6.6,6.7-7.5,16.1
			c0,0-3.1-3.3-6.2-2.7c-3,0.6-4,3.5-1.2,5.3c2.6,1.6,10.2,6.1,13,2.6C48,48.4,46.2,39.8,50,36c0.2-0.2,0.5-0.5,0.7-0.7
			c0.4-0.4,1-0.8,1.5-1.2c1.6-0.9,3.6-1.6,4.6-2.1c0.5-0.2,1-0.5,1.5-0.8c1-0.7,1.9-1.7,2.7-3.7C62.1,24.6,61,22.6,61,22.6z"/>
		<path class="st3" d="M0,55h2.8V41.1h3.5v9.4h2.8V21.1H0V55z M2.8,38.3v-5.8h3.5v5.8H2.8z M3.1,23.9H6c0.1,0,0.2,0,0.2,0.1
			c0.1,0.1,0.1,0.1,0.1,0.2v5.5H2.8v-5.5c0-0.1,0-0.2,0.1-0.2C3,23.9,3.1,23.9,3.1,23.9z"/>
		<path class="st3" d="M21.7,21.1v26.6h2.8V24.3c0-0.1,0-0.2,0.1-0.2c0.1-0.1,0.1-0.1,0.2-0.1h1.7c0,0,0.1,0,0.1,0
			c0,0,0.1,0,0.1,0.1c0,0,0.1,0.1,0.1,0.1c0,0,0,0.1,0,0.1v15h-1.3V42h4.1V21.1H21.7z"/>
		<path class="st3" d="M15.5,42.6l0.8,2.5h-1.9c-0.1,0-0.1,0-0.2,0c0,0-0.1-0.1-0.1-0.1c0,0-0.1-0.1-0.1-0.1c0-0.1,0-0.1,0-0.2
			l2.5-8.1h4.3v-2.8h-4v-5.3h2.8v-2.8h-2.8v-3.8h-2.8v3.8h-2.8v2.8h2.8v5.3H10v2.8h3.7L10,47.9h7.3l0.6,1.8l3.3,0l-2.4-7.1
			L15.5,42.6z"/>
		<path class="st3" d="M97.5,30H87.4v-3h8v-2.8h-8v-3.7h-2.8V30H74.5v12.4h23V30z M94.7,39.3c0,0.1,0,0.2-0.1,0.2
			c-0.1,0.1-0.1,0.1-0.2,0.1H77.6c-0.1,0-0.2,0-0.2-0.1c-0.1-0.1-0.1-0.1-0.1-0.2v-6.1c0,0,0-0.1,0-0.1c0,0,0-0.1,0.1-0.1
			c0,0,0.1-0.1,0.1-0.1c0,0,0.1,0,0.1,0h16.7c0,0,0.1,0,0.1,0c0,0,0.1,0,0.1,0.1c0,0,0.1,0.1,0.1,0.1c0,0,0,0.1,0,0.1V39.3z"/>
		<path class="st3" d="M72.5,49.5h3.3l2.8-5.1l-3.3,0L72.5,49.5z"/>
		<path class="st3" d="M96.7,44.3l-3.3,0l3.2,7.5h3.3L96.7,44.3z"/>
		<path class="st3" d="M87.4,44.3L90,50h3.3l-2.6-5.7L87.4,44.3z"/>
		<path class="st3" d="M81.4,44.3L84,50h3.3l-2.6-5.7L81.4,44.3z"/>
	</g>
</g>
</svg>
