<?xml version="1.0" encoding="utf-8"?>
<!-- Generator: Adobe Illustrator 25.3.1, SVG Export Plug-In . SVG Version: 6.00 Build 0)  -->
<svg version="1.1" id="圖層_1" xmlns="http://www.w3.org/2000/svg" xmlns:xlink="http://www.w3.org/1999/xlink" x="0px" y="0px"
	 viewBox="0 0 100 80" style="enable-background:new 0 0 100 80;" xml:space="preserve">
<style type="text/css">
	.st0{clip-path:url(#SVGID_2_);}
	.st1{fill:#464F6E;}
	.st2{fill:#303C5A;}
	.st3{fill:#5D6D7E;}
	.st4{fill:#FF8E31;}
	.st5{fill:#FECE59;}
	.st6{fill:#34495E;}
	.st7{clip-path:url(#SVGID_4_);}
	.st8{fill:#6354B0;}
	.st9{fill:#FDCDC7;}
	.st10{fill:#FDBFB6;}
	.st11{fill:#FFDC00;}
</style>
<g>
	<defs>
		<rect id="SVGID_1_" width="100" height="80"/>
	</defs>
	<clipPath id="SVGID_2_">
		<use xlink:href="#SVGID_1_"  style="overflow:visible;"/>
	</clipPath>
	<g class="st0">
		<path class="st1" d="M70.4,38.3c0,18.5-15,33.5-33.5,33.5c-7.1,0-13.9-2.2-19.6-6.4c0-1-0.2-2-0.6-2.9c-0.4-0.9-0.9-1.7-1.6-2.4
			c-0.7-0.7-1.5-1.2-2.4-1.6c-0.9-0.4-1.9-0.6-2.9-0.6c-4.7-6.4-6.9-14.4-6.3-22.3c0.6-7.9,4.1-15.4,9.7-21c5.6-5.6,13.1-9.1,21-9.7
			c7.9-0.6,15.8,1.6,22.3,6.3c0,2,0.8,3.9,2.2,5.3c1.4,1.4,3.3,2.2,5.3,2.2C68.2,24.4,70.4,31.2,70.4,38.3z"/>
		<path class="st2" d="M70.4,38.3c0,18.5-15,33.5-33.5,33.5c-7.1,0-13.9-2.2-19.6-6.4c0-1-0.2-2-0.6-2.9c-0.4-0.9-0.9-1.7-1.6-2.4
			c-0.7-0.7-1.5-1.2-2.4-1.6c-0.9-0.4-1.9-0.6-2.9-0.6c-3.8-5.2-6-11.4-6.3-17.8s1.2-12.8,4.4-18.4c2.9,5.1,7.2,9.4,12.3,12.3
			c5.1,3,10.9,4.5,16.8,4.5S48.6,37,53.7,34c5.1-3,9.3-7.2,12.3-12.3C68.9,26.7,70.4,32.5,70.4,38.3z"/>
		<path class="st3" d="M59.8,66.5l2.5,2.5l2.9,2.9l1.1,1.1l5.7-5.7l-6.4-6.4L59.8,66.5z"/>
		<path class="st4" d="M77.8,67.2L97.6,87c1.5,1.5,2.4,3.6,2.4,5.8s-0.9,4.2-2.4,5.8c-1.5,1.5-3.6,2.4-5.8,2.4
			c-2.2,0-4.2-0.8-5.8-2.3L66.2,78.8L77.8,67.2z"/>
		<path class="st5" d="M75.1,69.9l1.6-1.6l19.8,19.8c1.2,1.2,1.9,2.9,1.9,4.7c0,1.8-0.7,3.4-1.9,4.7c-0.2,0.2-0.5,0.3-0.8,0.3
			c-0.2,0-0.4-0.1-0.6-0.2c-0.2-0.1-0.3-0.3-0.4-0.5c-0.1-0.2-0.1-0.4-0.1-0.7c0-0.2,0.2-0.4,0.3-0.6c0.8-0.8,1.3-1.9,1.3-3.1
			c0-1.2-0.5-2.3-1.3-3.1L75.1,69.9z"/>
		<path class="st6" d="M66.2,78.8l11.6-11.6l-0.9-0.9c-0.5-0.5-1.3-0.8-2-0.8c-0.8,0-1.5,0.3-2,0.8l-7.6,7.6
			c-0.3,0.3-0.5,0.6-0.6,0.9c-0.1,0.3-0.2,0.7-0.2,1.1c0,0.4,0.1,0.7,0.2,1.1c0.1,0.3,0.4,0.7,0.6,0.9L66.2,78.8z"/>
		<path class="st6" d="M37.1,1C16.6,1,0,17.6,0,38.1s16.6,37.1,37.1,37.2c20.5,0,37.1-16.6,37.1-37.2C74.3,17.6,57.7,1,37.1,1z
			 M37.1,71.3C18.9,71.3,4,56.4,4,38.1S18.9,5,37.1,5c18.3,0,33.1,14.8,33.1,33.1C70.3,56.4,55.4,71.3,37.1,71.3z"/>
		<g>
			<defs>
				<rect id="SVGID_3_" x="3.8" y="4.8" width="67.5" height="67.5"/>
			</defs>
			<clipPath id="SVGID_4_">
				<use xlink:href="#SVGID_3_"  style="overflow:visible;"/>
			</clipPath>
			<g class="st7">
				<path class="st8" d="M37.5,4.8C18.9,4.8,3.8,19.9,3.8,38.5c0,5.6,1.4,11.1,4,16c2.7,4.9,6.5,9.1,11.2,12.2l18.5,5.6h0
					c18.6,0,33.8-15.1,33.8-33.8S56.1,4.8,37.5,4.8z"/>
				<path class="st9" d="M37.5,72.2c0.8-2.1,0.8-4.4-0.1-6.5l-4.3-10.4c-0.5-1.3-0.8-2.7-0.7-4.1c0-1.4,0.4-2.8,1-4.1
					c0.9-1.9,1.1-3.8,0.3-5.6c-1.7-4.2-7.9-5.6-13.9-3.1c-5.9,2.5-9.3,7.8-7.6,12c0,0,0,0,0,0l6.7,16.2
					C24.4,70.3,30.9,72.3,37.5,72.2z"/>
				<path class="st10" d="M27.9,70.9c-0.2-0.3-0.3-0.6-0.5-1l-9.1-22v0c-1.4-3.4,0.6-7.7,4.7-10.5c-1.1,0.2-2.2,0.5-3.2,0.9
					c-5.9,2.5-9.3,7.8-7.6,12l0,0l6.7,16.2C21.7,68.5,24.7,69.9,27.9,70.9z"/>
				<path class="st9" d="M28.9,35.2c2.8,0,5-2.2,5-5c0-2.8-2.2-5-5-5c-2.8,0-5,2.2-5,5C24,32.9,26.2,35.2,28.9,35.2z"/>
				<path class="st10" d="M32.8,30.1c-0.7,0.3-1.5,0.4-2.2,0.4c-0.8,0-1.5-0.3-2.2-0.6c-0.7-0.4-1.2-0.9-1.7-1.5
					c-0.4-0.6-0.7-1.3-0.8-2.1c-0.7,0.5-1.3,1.2-1.6,2C24,29,23.9,29.9,24,30.8c0.1,0.9,0.4,1.7,1,2.4c0.5,0.7,1.2,1.2,2.1,1.6
					c0.8,0.3,1.7,0.5,2.6,0.3c0.9-0.1,1.7-0.5,2.4-1c0.7-0.5,1.2-1.3,1.6-2.1c0.3-0.8,0.4-1.7,0.3-2.6
					C33.5,29.7,33.2,29.9,32.8,30.1z"/>
				<path class="st9" d="M19.3,36.6c1.9,0,3.5-1.6,3.5-3.5c0-1.9-1.6-3.5-3.5-3.5c-1.9,0-3.5,1.6-3.5,3.5
					C15.8,35,17.4,36.6,19.3,36.6z"/>
				<path class="st10" d="M22,33.1c-0.9,0.4-1.8,0.4-2.7,0c-0.9-0.4-1.5-1-1.9-1.9c-0.1-0.3-0.2-0.6-0.2-0.9
					c-0.5,0.4-0.9,0.9-1.1,1.4c-0.2,0.6-0.3,1.2-0.2,1.8c0.1,0.6,0.3,1.2,0.7,1.7c0.4,0.5,0.9,0.9,1.4,1.1c0.6,0.2,1.2,0.3,1.8,0.2
					c0.6-0.1,1.2-0.3,1.7-0.7c0.5-0.4,0.9-0.9,1.1-1.4c0.2-0.6,0.3-1.2,0.2-1.8C22.5,32.8,22.3,33,22,33.1z"/>
				<path class="st9" d="M15.8,37c0.1-1.7-1.2-3-2.9-3.1c-1.7-0.1-3,1.2-3.1,2.9c-0.1,1.7,1.2,3,2.9,3.1
					C14.3,39.9,15.7,38.7,15.8,37z"/>
				<path class="st10" d="M15.1,36.9c-0.4,0.2-0.9,0.3-1.3,0.2c-0.5,0-0.9-0.2-1.3-0.4c-0.4-0.2-0.7-0.6-1-0.9
					C11.2,35.4,11,35,11,34.5c-0.4,0.3-0.7,0.7-0.9,1.2c-0.2,0.5-0.3,1-0.2,1.5c0.1,0.5,0.3,1,0.6,1.4c0.3,0.4,0.7,0.7,1.2,0.9
					c0.5,0.2,1,0.3,1.5,0.2c0.5-0.1,1-0.3,1.4-0.6c0.4-0.3,0.7-0.7,0.9-1.2c0.2-0.5,0.3-1,0.2-1.5C15.6,36.7,15.3,36.8,15.1,36.9z"
					/>
				<path class="st9" d="M9.3,45.7c1.4,0,2.5-1.2,2.4-2.5c0-1.4-1.2-2.5-2.5-2.4c-1.4,0-2.5,1.2-2.4,2.5C6.7,44.6,7.9,45.7,9.3,45.7
					z"/>
				<path class="st10" d="M11.1,43.3c-0.3,0.1-0.6,0.2-1,0.2c-0.3,0-0.7-0.1-1-0.2S8.6,43,8.4,42.7c-0.2-0.2-0.4-0.5-0.5-0.8
					c-0.1-0.2-0.1-0.5-0.2-0.7c-0.3,0.3-0.6,0.6-0.8,1c-0.2,0.4-0.2,0.8-0.1,1.3C6.8,44,7,44.4,7.2,44.7c0.3,0.3,0.6,0.6,1,0.8
					c0.4,0.2,0.8,0.2,1.3,0.2c0.4-0.1,0.8-0.2,1.2-0.5c0.3-0.3,0.6-0.6,0.8-1c0.2-0.4,0.2-0.8,0.2-1.3
					C11.5,43.1,11.3,43.2,11.1,43.3z"/>
				<path class="st9" d="M41.3,21.1c1.7-4.2,7.9-5.6,13.9-3.2c5.9,2.5,9.3,7.8,7.6,12l0,0l-9.1,22c-0.4,1.1-1.1,2-1.9,2.8
					C51,55.6,50,56.2,49,56.7c-1.1,0.4-2.2,0.7-3.3,0.7c-1.1,0-2.3-0.2-3.3-0.7c-1.1-0.4-2-1.1-2.8-1.9C38.7,54,38,53,37.6,52
					c-0.9-2.1-0.9-4.5,0-6.7l4.3-10.4c0.5-1.3,0.8-2.7,0.7-4.1c0-1.4-0.4-2.8-1-4.1C40.8,24.8,40.6,22.9,41.3,21.1z"/>
				<path class="st10" d="M43.7,47.8L48,37.4c0.5-1.3,0.8-2.7,0.7-4.1c0-1.4-0.4-2.8-1-4.1c-0.9-1.9-1.1-3.8-0.3-5.6
					c1.4-3.4,5.9-5,10.7-4.1c-0.9-0.6-1.9-1.1-2.9-1.6c-5.9-2.5-12.1-1-13.9,3.1c-0.7,1.8-0.6,3.7,0.3,5.6c0.6,1.3,0.9,2.7,1,4.1
					c0,1.4-0.2,2.8-0.7,4.1l-4.3,10.4c-0.5,1.3-0.8,2.8-0.6,4.2c0.1,1.4,0.6,2.8,1.4,4c0.8,1.2,1.9,2.2,3.1,2.8c1.3,0.7,2.7,1,4.1,1
					c-1.2-1.2-2.1-2.8-2.4-4.5C42.9,51.2,43,49.4,43.7,47.8z"/>
				<path class="st9" d="M46.1,14.7c2.8,0,5-2.2,5-5c0-2.8-2.2-5-5-5c-2.8,0-5,2.2-5,5C41.1,12.5,43.3,14.7,46.1,14.7z"/>
				<path class="st10" d="M48.8,12.4c-0.7-0.3-1.3-0.7-1.8-1.3c-0.5-0.6-0.9-1.3-1.1-2c-0.2-0.7-0.2-1.5-0.1-2.3
					c0.1-0.7,0.5-1.5,0.9-2.1c-0.9-0.1-1.8,0-2.6,0.3c-0.8,0.3-1.5,0.9-2.1,1.6c-0.5,0.7-0.9,1.5-1,2.4c-0.1,0.9,0,1.8,0.3,2.6
					c0.3,0.8,0.9,1.5,1.6,2.1c0.7,0.5,1.5,0.9,2.4,1c0.9,0.1,1.8,0,2.6-0.3c0.8-0.3,1.5-0.9,2-1.6C49.6,12.7,49.2,12.6,48.8,12.4
					L48.8,12.4z"/>
				<path class="st9" d="M55.7,16.1c1.9,0,3.5-1.6,3.5-3.5c0-1.9-1.6-3.5-3.5-3.5c-1.9,0-3.5,1.6-3.5,3.5
					C52.2,14.6,53.8,16.1,55.7,16.1z"/>
				<path class="st10" d="M57.6,14.5c-0.4-0.2-0.8-0.4-1.1-0.8c-0.3-0.3-0.6-0.7-0.8-1.1c-0.2-0.4-0.3-0.9-0.3-1.3
					c0-0.5,0.1-0.9,0.3-1.3c0.1-0.3,0.3-0.5,0.4-0.8c-0.6-0.1-1.2,0-1.8,0.2c-0.6,0.2-1.1,0.6-1.4,1.1c-0.4,0.5-0.6,1.1-0.7,1.7
					c-0.1,0.6,0,1.2,0.2,1.8c0.2,0.6,0.6,1.1,1.1,1.4c0.5,0.4,1.1,0.6,1.7,0.7c0.6,0.1,1.2,0,1.8-0.2c0.6-0.2,1.1-0.6,1.4-1.1
					C58.2,14.7,57.9,14.6,57.6,14.5z"/>
				<path class="st9" d="M62.2,19.4c1.7,0,3-1.3,3-3c0-1.7-1.3-3-3-3c-1.7,0-3,1.3-3,3C59.2,18.1,60.5,19.4,62.2,19.4z"/>
				<path class="st10" d="M63.7,18.1c-0.7-0.3-1.3-0.9-1.6-1.6c-0.3-0.7-0.3-1.6,0-2.3c0.1-0.3,0.3-0.5,0.4-0.7
					c-0.5-0.1-1,0-1.5,0.2c-0.5,0.2-0.9,0.5-1.2,1c-0.3,0.4-0.5,0.9-0.6,1.4c-0.1,0.5,0,1,0.2,1.5c0.2,0.5,0.5,0.9,0.9,1.2
					c0.4,0.3,0.9,0.5,1.4,0.6c0.5,0.1,1,0,1.5-0.2c0.5-0.2,0.9-0.5,1.2-0.9C64.2,18.3,63.9,18.2,63.7,18.1z"/>
				<path class="st9" d="M65.8,25.2c1.4,0,2.5-1.1,2.5-2.5s-1.1-2.5-2.5-2.5c-1.4,0-2.5,1.1-2.5,2.5S64.4,25.2,65.8,25.2z"/>
				<path class="st10" d="M67.3,24c-0.6-0.3-1.1-0.7-1.3-1.3c-0.3-0.6-0.3-1.3,0-1.9c0.1-0.2,0.2-0.3,0.3-0.5
					c-0.4-0.1-0.9,0-1.3,0.1c-0.4,0.2-0.8,0.4-1.1,0.8c-0.3,0.3-0.5,0.8-0.5,1.2c-0.1,0.4,0,0.9,0.2,1.3c0.2,0.4,0.4,0.8,0.8,1
					c0.4,0.3,0.8,0.4,1.2,0.5c0.4,0.1,0.9,0,1.3-0.2c0.4-0.2,0.8-0.5,1-0.8C67.6,24.1,67.5,24.1,67.3,24z"/>
			</g>
		</g>
		<path class="st11" d="M24.7,2.3l1.5,7.3c0.1,0.3,0,0.5,0,0.8c-0.1,0.3-0.2,0.5-0.4,0.7c-0.2,0.2-0.4,0.3-0.6,0.4
			c-0.2,0.1-0.5,0.1-0.7,0.1l-4.1-0.5l0.9,5.4c0,0.1,0,0.3-0.1,0.4c-0.1,0.1-0.2,0.2-0.3,0.3c-0.1,0-0.3,0-0.4,0
			c-0.1-0.1-0.2-0.1-0.3-0.3l-3.8-7.1c-0.1-0.3-0.2-0.6-0.2-0.9c0-0.3,0.1-0.6,0.3-0.8c0.2-0.2,0.4-0.4,0.6-0.6
			c0.3-0.1,0.6-0.2,0.8-0.1l3,0.4l-2.3-5.3c-0.1-0.2-0.1-0.3-0.1-0.5c0-0.2,0.1-0.4,0.2-0.5c0.1-0.1,0.2-0.3,0.4-0.3
			C19.4,1,19.6,1,19.8,1l4.1,0.5c0.2,0,0.4,0.1,0.6,0.3C24.5,1.9,24.6,2.1,24.7,2.3z"/>
		<path class="st11" d="M3.8,25.5l7.3,1.7c0.3,0.1,0.5,0.1,0.8,0c0.3-0.1,0.5-0.2,0.7-0.4c0.2-0.2,0.3-0.4,0.4-0.7
			c0.1-0.3,0.1-0.5,0.1-0.8l-0.5-4.6l5.4,1c0.1,0,0.3,0,0.4-0.1c0.1-0.1,0.2-0.2,0.3-0.3c0-0.1,0-0.3,0-0.4
			c-0.1-0.1-0.1-0.3-0.3-0.3l-7.1-4.2c-0.3-0.2-0.6-0.2-0.9-0.2c-0.3,0-0.6,0.1-0.8,0.3c-0.3,0.2-0.4,0.4-0.6,0.7
			c-0.1,0.3-0.2,0.6-0.1,0.9l0.4,3.4l-5.3-2.6c-0.2-0.1-0.3-0.1-0.5-0.1c-0.2,0-0.4,0.1-0.5,0.2c-0.1,0.1-0.3,0.3-0.3,0.5
			c-0.1,0.2-0.1,0.4-0.1,0.6L3,24.5c0,0.2,0.1,0.4,0.3,0.6C3.4,25.3,3.6,25.4,3.8,25.5L3.8,25.5z"/>
	</g>
</g>
</svg>
