<?xml version="1.0" encoding="utf-8"?>
<!-- Generator: Adobe Illustrator 22.0.1, SVG Export Plug-In . SVG Version: 6.00 Build 0)  -->
<svg version="1.1" id="_x33_6b3ac57-ca18-4606-9bd5-99a77d84e419"
	 xmlns="http://www.w3.org/2000/svg" xmlns:xlink="http://www.w3.org/1999/xlink" x="0px" y="0px" viewBox="0 0 1.5 21"
	 style="enable-background:new 0 0 1.5 21;" xml:space="preserve">
<style type="text/css">
	.st0{fill:#D4FFA2;}
</style>
<title>frame-r</title>
<path class="st0" d="M1.2,21c0.1-1.4,0.1-2.8-0.1-4.1C1.2,18.4,1,20.1,1.2,21z"/>
<polygon class="st0" points="0.9,19.1 1,19.3 0.9,18 "/>
<polygon class="st0" points="0.9,20 0.9,19.8 0.8,17.8 "/>
<path class="st0" d="M1.1,12v1.5c-0.1,1.4-0.2-0.9-0.3,0c0,1.8,0.3,0.6,0.2,2.9c0.1-0.2,0-3.6,0.2-3.3C1.4,11.1,1.2,13,1.1,12z"/>
<path class="st0" d="M1,0.2C0.9,1.3,0.9,2.3,1,3.4C1.1,2.3,1.2,4,1.3,4.5L1.1,0.9c0-0.1,0.1-0.5,0.1-0.9C0.9,0,0.6,0.2,1,0.2z"/>
<path class="st0" d="M0.6,0.5c0,0.3,0,0.6,0.1,0.6c0,0.6,0,0.6-0.1,0.4S0.6,0.9,0.6,0.5C0.3,0.6,0.3,0.7,0.4,0.7c0,0.3,0,0.7,0.1,1
	c0,0.6,0,1.1,0,1.7L0.4,2.7c0,0.7,0.1,2.2,0,2.3c0-0.3,0-0.5,0-0.8c0.3,0.4,0.2,3.4,0.5,3.1v-1C0.9,7.8,1.1,8.9,1,10.1
	c0,0.9-0.1-0.7-0.2-1.2c0,1.4,0.3,1.2,0.3,2.9c0-0.9,0.1-0.7,0.2-0.2c0.1-0.9,0.1-1.8,0-2.7v0.4C1.1,8.9,1,8.6,1,8.3
	c0-1.4,0.1-0.6,0.2-0.9c0-2.3-0.3-0.2-0.3-2.3L1,4.8c0-1-0.1-1.9-0.3-2.8c0.1-0.5,0.1-1.1,0-1.6C0.5,0.4,0.4,0.5,0.6,0.5z"/>
<path class="st0" d="M0.5,8.3L0.4,9.4c0,0.8,0.1,1.6,0.3,2.4C0.6,10.1,0.7,9.1,0.6,7L0.5,8.9L0.5,8.3z"/>
<path class="st0" d="M1.4,6.8v1.2c0-0.3,0.1-0.6,0.1-0.9L1.4,6.8z"/>
</svg>
