<?xml version="1.0" encoding="utf-8"?>
<!-- Generator: Adobe Illustrator 22.0.1, SVG Export Plug-In . SVG Version: 6.00 Build 0)  -->
<svg version="1.1" id="_x32_63fc70a-4133-4564-b31e-4a5ad77d4e86"
	 xmlns="http://www.w3.org/2000/svg" xmlns:xlink="http://www.w3.org/1999/xlink" x="0px" y="0px" viewBox="0 0 2.5 25"
	 style="enable-background:new 0 0 2.5 25;" xml:space="preserve">
<style type="text/css">
	.st0{fill:#D4FFA2;}
</style>
<title>frame-l</title>
<path class="st0" d="M2.5,23.4L2.5,23.4v-0.2v-1.4c0-0.8,0-1.6,0-2.4V9.6c0-2.1,0-4.1-0.1-6.1h0.1V0H2.4H1.7L0.2,0.2l0.1,1v1.1
	c0,0.6,0,1.3,0,2.2C0.2,5.8,0.2,2.9,0,3.5c-0.1,3.3,0.5,4,0.5,5.9c-0.1,2.4,0.1,2.3,0.1,4.8c-0.1-0.8-0.1,1.7-0.3,2.2l-0.1-1
	c0.1,0.4,0,0.9-0.1,1.3c0.1,0.4,0.1,3.3,0.2,4.9l0.2-0.3c0,0.5,0,1,0.1,1.6v1l0,1.2h1.9V23.4z"/>
</svg>
