<?xml version="1.0" encoding="utf-8"?>
<!-- Generator: Adobe Illustrator 22.0.1, SVG Export Plug-In . SVG Version: 6.00 Build 0)  -->
<svg version="1.1" id="ebb7288d-c424-4167-aca9-56a0c73de2fb"
	 xmlns="http://www.w3.org/2000/svg" xmlns:xlink="http://www.w3.org/1999/xlink" x="0px" y="0px" viewBox="0 0 200 3"
	 style="enable-background:new 0 0 200 3;" xml:space="preserve">
<style type="text/css">
	.st0{fill:#D4FFA2;}
</style>
<title>frame-b</title>
<path class="st0" d="M0.6,0.7V2h1.7h0.8h0.5c0.3,0,0.5,0,0.7-0.1c0.5-0.1,1-0.2,1.6-0.2c1,0.1,0.9,0.3,0.6,0.4C5.8,2,4.8,2.1,3.8,2
	L0.4,2.2C0.3,1.2,0,0.5,0,0.7v0.6c0,0.4,0,0.8,0,1.3l2.3,0.1h0.3h0.1H3h0.5C4.7,2.4,6,2.3,7.2,2.4L6.1,2.6c3,0,1.4-0.3,4.1-0.3
	c-1,0,0.9-0.2-0.9-0.2C10.8,2,12.2,2,13.7,2.1c0.4,0,0.1-0.1,0.1-0.1c-1.6-0.1-2.6,0.1-4-0.1L8.7,2.1C7.2,2,7,1.9,8,1.8
	c-0.4,0-0.8,0-1.1,0C6.6,1.5,8.7,1.9,9.3,1.6H8.2c-0.5-0.2,2.5-0.2,3.9-0.2c1.1,0,2.1,0.1,3.1,0.3l-2.1,0.1c1.1,0.1,2.7-0.1,4-0.1
	c0.1,0,0.2,0,0.3,0c-0.1,0-0.1,0-0.1,0c0.2,0,0.5,0,0.7,0.1c1.1,0,2.7-0.1,3.7,0l-0.1-0.1l-0.1,0.1c-1,0-2.3-0.1-1.6-0.2
	c1.1-0.1,2.1,0,3.2,0.2c-1.1,0.1-2.2,0.1-3.3,0.1c0.7,0.2,2.3,0,4.6,0.2c-0.9,0.2-2.7,0-3.2,0.2c1.9,0,2.4-0.1,4.3-0.1
	c-0.3,0.1-2.2,0.1-2,0.2l1.3,0.1c-3.1,0,0.5,0.3-1.9,0.3c1.1,0.1,1.6-0.2,3.2,0c-0.5-0.1-1.7-0.3-0.2-0.3l1.8,0.1
	c0.7,0.1-1.8,0.2-0.7,0.3l1.8-0.1c-0.1-0.1-0.9-0.1-0.4-0.2c1,0,2-0.2,3-0.3c0.7,0,1.4,0,2.1,0.1c2.5-0.2,5.7-0.2,8-0.4
	c-1.6,0.1,0.1,0.2,1,0.3c-1.8,0-1.8,0.2-1.7,0.4c1.1,0,1.8-0.2,1.3-0.3c1.8,0.1,1.3-0.1,2.9,0c1,0.1-0.5,0.2-0.2,0.3
	c2,0,0.5-0.2,2.7-0.2c-0.1,0-0.3,0-0.1,0.1c0.9,0.1,1.8,0,2.7-0.2c1.2,0.3,3.5,0,3.3,0.2c2.8-0.1-0.4-0.1,0.1-0.2
	c1.3-0.1,2.6-0.1,4,0c-0.7,0-1.3,0.1-2,0l0.6,0.2c3.5,0.1,2.2-0.4,5.6-0.3c-1.7,0.1-0.6,0.1-1.4,0.3c0.5,0,3.2,0,1.6-0.1
	c1.3,0,2.2,0,3,0.1c1.1-0.1,2.4-0.1,3-0.2c1.8,0,3.1,0.2,4,0.2c3.8-0.1,7.2,0.1,11.2,0h-0.3c3.1,0-1.3-0.2,1.8-0.2
	c-0.4,0.2,1.9,0.2,2.9,0.3c3.9,0.1,6.8-0.2,10.3,0c0,0-0.3,0.1-1,0.1c2.8,0.1,5,0,7.4,0h-0.1c4,0.2,7.6,0,11.7-0.1
	c-0.3,0-0.4,0.1-0.7,0.1c2.3,0.1,4.6,0.1,6.8-0.1c2.5,0.2,1.6-0.1,4.8,0.1c0.2,0-0.3,0-0.5,0c1.6,0.1,2.7,0,4.2,0.1
	c3.5-0.1,4.3-0.4,8.4-0.3c0.2,0.3-2.5,0.1-2.6,0.3c0.9-0.1,1.7-0.1,2.6,0c-0.7,0.1-0.1,0.1-0.6,0.2c0.7,0,1.3,0,2-0.1l1-0.1h0.4
	c0.1-0.1-0.2-0.1-1-0.1c0.9-0.2,4,0,5.9-0.1c-0.6,0-2.6-0.1-1.9-0.2c1.8,0,3.6-0.1,5.3-0.3c2.4,0.1-1.8,0.3-1.3,0.5s1.4,0.2,0.4,0.3
	c2.2,0,3.7-0.1,5.7-0.2v0.1c2.7,0,5.6-0.3,7.9-0.2L161,2.3c0.4,0,1.8,0,2.6-0.1c-0.1,0.1,1.2,0.2,1.1,0.2c1.4-0.3,6-0.2,7.3-0.5
	c0.7,0.1,0.1,0.2-0.1,0.3c-1.1-0.1-2.1-0.1-3.2,0c0.7-0.1,1.5,0,2.2,0.1c1.4-0.2,4.8-0.3,5.5-0.5c1,0.1,2,0.2,1.7,0.3
	c4.4-0.1-2.1-0.5,2.8-0.5c2.2,0.2-2.2,0.2,0.9,0.3h-0.6c2.2,0.4,1.6-0.3,4.1-0.3c0.3,0.2-1.8,0.2,0,0.3c2.3-0.1,3.3-0.4,5.6-0.3
	l-0.4,0.1h5.8c0.1,0-0.1,0-0.4,0c2.7,0.1,1.1-0.1,3.4,0l0.6-0.1c-1.6-0.1-3.1-0.1-4.7-0.1c1.4-0.1-2.2-0.3-1.5-0.5l-0.3,0.1
	c-3.7-0.3-8.5-0.4-13.2-0.5c-3,0.2-5-0.1-8.2,0.1c-0.5,0.3-0.6,0.1-3.3,0.1c1.4,0,0.2-0.2-0.7-0.2c-0.5,0.1-1.2,0.1-1.8,0.1
	c-1.7-0.2-3.5-0.2-5.2,0c-1.7-0.1,0.4-0.1,0.8-0.1c-0.7-0.1-1.4,0.1-1.9,0c0,0,0,0,0.2,0c-2.5,0-4-0.1-6.7-0.1
	c-0.2,0.3-2.6,0.1-3.8,0.2c-0.7-0.1-1.5-0.2-2.3-0.2l-1.4,0.2c-1.4,0.2-1.9-0.1-3.8,0h0.4c-2,0-4.1,0-6.1-0.2
	c-12.2,0.5-18.9-0.3-31.8-0.2c-0.8,0.1,0.6,0.1-0.1,0.3h-0.2c0.1,0-0.1,0,0.1,0.1c0.6,0,1.3-0.1,2.1-0.1c-1,0.1-2,0.2-3,0.2
	c0.2,0,0.5-0.1,0.7-0.1c-1.3,0-1.3,0.1-2.3,0c-1.2,0-0.9,0-1-0.1l-3.7-0.1c-1.5,0.1-3.1,0.1-4.6,0c0.4-0.2,2.4,0,3.3-0.2l-1.3-0.1
	l-0.1,0.1l-1.9,0h0.1c-0.3,0.1-0.6,0.1-0.9,0.1c-0.1,0-0.3,0-0.1-0.1l-1.3,0.1c0.8-0.2-1.2-0.1-1-0.2c-4.3-0.1-5.5,0.2-9.3,0
	c0.6,0.1-1.2,0.3-2.4,0.2c-0.7,0-0.8-0.1-0.4-0.2l-1.5,0.1c-1.9-0.3-3.8-0.1-6.7-0.2l0.1-0.1c-1.2,0.1-2.5,0.1-3.8,0.1l0.3-0.1
	c-1.9-0.1-1.5,0.3-3.6,0.2c0,0.2,1.3,0.2,1.6,0.4c-0.5-0.2-2.8-0.2-2.3-0.1c-2.1,0.1-1.5,0-1.6,0l-1.3,0.1c-1.5,0-0.5-0.2,0.1-0.3
	c-1.5,0.1-3,0.1-4.5,0l0.6-0.1h-2.1c-1.7,0.1-3.3,0.1-5,0.1L49,0.3c-1.2-0.1-0.6,0.1-1,0.1c-1.1,0.1-2.3,0-3.4-0.2
	c-3.1,0.2-6.2-0.3-8.9,0l-0.3-0.2C31.8,0.3,27.7,0,24.8,0.3c-4.4-0.4-2.9,0.4-7,0L18,0.4L2.3,0.3C2.3,0.3,0.6,0.3,0.6,0.7z
	 M18.1,1.6c-0.3-0.1,0.2-0.2,0.3-0.3c2.3,0,1.2,0,1.1,0.3C19,1.7,18.5,1.7,18.1,1.6c0.1,0.1,0,0.1-0.2,0L18.1,1.6z"/>
</svg>
