<?xml version="1.0" encoding="utf-8"?>
<!-- Generator: Adobe Illustrator 22.0.1, SVG Export Plug-In . SVG Version: 6.00 Build 0)  -->
<svg version="1.1" id="_x39_ffcd954-3a32-4a5d-8808-8f6970e84365"
	 xmlns="http://www.w3.org/2000/svg" xmlns:xlink="http://www.w3.org/1999/xlink" x="0px" y="0px" viewBox="0 0 200 3"
	 style="enable-background:new 0 0 200 3;" xml:space="preserve">
<style type="text/css">
	.st0{fill:none;}
	.st1{fill:#D4FFA2;}
</style>
<title>frame-t</title>
<path class="st0" d="M142,1.7h0.4C141.7,1.7,141.8,1.7,142,1.7z"/>
<path class="st0" d="M143.1,1.7h-0.7h0.1C142.7,1.7,142.9,1.7,143.1,1.7z"/>
<path class="st0" d="M198.5,1.7c0.3-0.1,0.6-0.1,0.9-0.1C199.3,1.9,198.6,1.5,198.5,1.7l-0.3-0.1l-0.4,0L197,1.4
	c-1.4,0.1-3.1,0.1-4,0.2c0.7-0.1,1.2-0.1,2-0.2c-1.9,0.1-2.8-0.3-4.2-0.1l1.1,0.1c-1.6,0-2.2,0-2.9,0.1s0.7,0.2,1.6,0.2
	c-0.8-0.1-1.6-0.1-2.4,0c-0.7-0.1-1.3-0.1-2,0c-1.4-0.1-0.5-0.1-0.6-0.2c-1.2,0-3.8,0-3.4,0.1c0.5,0,2.1,0,1.4,0.1
	c-0.5-0.2-0.8,0.1-1.8,0c1.8-0.2-2.2-0.2-0.9-0.3c-1.8,0-2.1,0.1-3.4,0.1v0l-2,0c-0.4-0.2,0.7-0.3-1.2-0.4c-1.5,0.2-1,0.4-3.4,0.5
	l0.5-0.2c-0.9-0.1-1.9,0-2.8,0.1c0.7,0.1,1.4,0.2,2.1,0.2h-0.3c-1.3,0.1,2.1,0.2-0.5,0.2c0.7-0.2-3.6-0.4-5-0.5
	c-0.9,0.1-2.7,0.1-3.2,0.2c0.1,0.1,1.4,0.1,0.8,0.2c-3.1-0.2-4.7,0.2-7.6-0.1c-0.1,0-0.2,0-0.1,0h0.1c0.1,0,0.1-0.1-0.7,0L154,1.8
	c-0.5,0-1.1,0-1.5,0h-2.3c-0.3,0-0.6,0-0.8,0.1h0.6h-0.6c-0.3,0-0.6,0-0.8,0c-0.8,0-1.7,0-2.5-0.2h0.6c-1.6-0.1-2.4,0.2-3.9,0
	l-0.2,0H142c-1.2,0-1,0.1-2.9,0.1l1,0.1h-0.9c-1.1,0.1-4.1,0.1-5.8,0c-1.3,0.2-2.5,0.3-3.8,0.3l0.3-0.2l-2.6,0
	c-0.8-0.2-1.7-0.2-2.5-0.1c-0.3,0-0.5,0-0.8,0h-0.7c0.2,0,0.5,0,0.7,0h0.9c-1.2-0.1-2.4-0.1-3.6,0c-0.5,0.1-1,0.1-1.6,0.1
	c-1,0.1-2,0.2-3.1,0.1l0,0c0.7,0,0.1,0,0,0h-0.5h0.2h0.2c-0.1,0-0.2,0-0.2,0c-1.1-0.1-1.6,0.1-3,0c-2-0.1,0.7-0.3-1.7-0.3l-1.2,0.1
	c-0.3,0-0.1,0,0.1-0.1c-0.8-0.1-1.6-0.1-2.4,0c1.8,0.1,2.3,0.2,4.2,0.2c-2.4,0-2.7,0.2-4.7,0.2c-0.1,0,0.3,0,0.6,0.1
	c-1.1,0-2-0.1-1.5-0.2c-1,0-1.3,0.1-2.6,0.2l-0.1,0.2c-1.8,0.1-3.8,0-5.3-0.1h-1h1c1.6,0,3-0.2,4.2-0.2c-0.6-0.4,4.7-0.1,5.5-0.3
	c-1.1-0.1,1.4-0.2-0.8-0.2c-1,0.1-2.1,0.1-3.1,0c-0.8-0.1,1.1-0.2-1.4-0.2c1.1,0.1-1.3,0.2,0.7,0.2c-3.2,0.2-3.9,0.1-7,0.2
	c2.6,0-1.1,0.2,0.5,0.3c-0.3-0.2,4.2-0.1,0.8-0.2h2.4c0.2,0.1-2.4,0.1-0.3,0.2c-2,0.1-2.7,0-4.6,0.2c0.4-0.1-1.7-0.2-2-0.3
	c-0.9,0.1-1.7,0.1-2.6,0l1.4-0.1C91.1,2.2,91,2,89.8,2c-0.8,0-0.9,0.1-0.5,0.2h1.1h-0.7c-0.1,0-0.3,0-0.4,0c-2,0-4,0.1-6.1,0
	c2.5,0,0.4-0.2,2.5-0.2l-1.5-0.1c-2.7,0.1-5.4,0.3-8.1,0.7c-3.6,0.1-2.6-0.3-6.8,0c0.6,0-0.4-0.2-0.1-0.2c-0.7,0-1.9,0-2.7,0
	l1.7,0.1c-2,0.1-4.9,0-7.1,0c-0.2,0-0.5,0-1.2,0H61c0.5,0-0.3-0.1,1-0.2c-0.8-0.1-1.5-0.1-2.3-0.1c-1.6,0.1-0.5,0.3-2.3,0.3
	c-9.5,0-18.8,0-28.3,0H15H2.1V3C2.1,3,198.8,1.7,198.5,1.7z M80.1,2.5c-0.4,0,0.8-0.1,1.1-0.1S80.6,2.4,80.1,2.5z M90.6,2.5
	c0,0.1-0.6,0-1.1,0h-0.3h0.3c1.4-0.1,2.4-0.1,3.6-0.2C92.3,2.4,91.4,2.5,90.6,2.5L90.6,2.5z M135.8,2.1h-0.4H135.8
	c1.1-0.1,3.6-0.2,4.3-0.1C140.4,2.1,137.1,2.1,135.8,2.1L135.8,2.1z M163.3,2l2.7-0.3h0.2C165,1.9,164.9,1.9,163.3,2z M167.9,2.2
	L166.6,2l1.8-0.1C168,2,170,2.1,167.9,2.2L167.9,2.2z M173.1,1.8c-0.5,0,1,0.1-0.4,0.1l0.2-0.2c1.4-0.1-0.1,0.1,1.5,0.1
	C173.9,1.8,173.5,1.8,173.1,1.8L173.1,1.8z M177.8,1.9c1.8,0,0-0.3,1.3-0.2l-0.5,0.1c0.7-0.1,1.4,0,2,0.2
	C179.4,2.1,178.8,2,177.8,1.9L177.8,1.9z M180.6,1.9c0.8,0,1.7,0,2.5,0l0,0C182.3,2,181.5,2,180.6,1.9L180.6,1.9z M192.7,1.8
	c-0.4,0-0.9-0.1-1.3,0c0.8-0.1,1.5-0.1,2.3,0L192.7,1.8z"/>
<path class="st0" d="M198.3,1.2c-0.4,0-0.5,0.1-0.5,0.1c0.6,0,1.2,0,1.8,0c0.1,0.5,0.1,1.1,0,1.6h0.2c0-0.5,0-1.2,0-1.8
	C199.2,1.2,198.6,1.2,198.3,1.2z"/>
<path class="st0" d="M154.2,1.8h0.3C155.2,1.7,154.8,1.8,154.2,1.8z"/>
<path class="st0" d="M134,1.8h-1C133.3,1.8,133.7,1.8,134,1.8c1.8,0.1,2.9,0,4.9,0.1c-0.2-0.1,0.5-0.1-1.6-0.1
	c0.9,0.1-3.7-0.2-4.6,0c0.5,0.1,1.1,0.2,1.7,0.1C134.3,1.8,134.2,1.8,134,1.8z"/>
<path class="st0" d="M175.8,0.8h-0.3l0,0H175.8z"/>
<path class="st1" d="M116.6,2.1h-0.2C116.4,2.1,116.5,2.1,116.6,2.1z"/>
<path class="st1" d="M90.3,2.2h-1.1c0.1,0,0.3,0,0.4,0H90.3z"/>
<path class="st1" d="M134,1.8c-0.3,0-0.7,0-1,0H134z"/>
<path class="st1" d="M61,2.5h-1.2C60.5,2.5,60.8,2.5,61,2.5z"/>
<path class="st1" d="M142.4,1.7H142H142.4L142.4,1.7z"/>
<path class="st1" d="M98.9,2.5h-1H98.9z"/>
<path class="st1" d="M188,0.8c-0.4,0-0.8,0-1.2,0C187.2,0.9,187.6,0.9,188,0.8z"/>
<path class="st1" d="M178.6,0.9L178.6,0.9C178.6,0.8,178.5,0.8,178.6,0.9z"/>
<path class="st1" d="M172.6,0.8h0.1C172.6,0.8,172.6,0.8,172.6,0.8z"/>
<path class="st1" d="M186.8,0.9c-0.7-0.2-1.3-0.2-2,0h0.2c-0.6-0.1-1.5,0-2.2,0.1c0.1,0,0.2,0.1,0.3,0.1h1.5
	C185.3,1,186.1,0.9,186.8,0.9z"/>
<path class="st1" d="M116.7,2C116.8,2,117.4,2,116.7,2z"/>
<path class="st1" d="M124.7,1.8h-0.8C124.2,1.8,124.4,1.9,124.7,1.8z"/>
<path class="st1" d="M155.2,1.9H155C155,1.9,155.1,1.9,155.2,1.9z"/>
<path class="st1" d="M123.2,1.8h0.7C123.7,1.8,123.5,1.8,123.2,1.8z"/>
<path class="st1" d="M146,1.8L146,1.8z"/>
<path class="st1" d="M62.9,0.4l0.8-0.1C63.4,0.3,63.2,0.4,62.9,0.4z"/>
<path class="st1" d="M18.4,0.6c-0.5,0.1-1.5-0.1-1.9,0.1h-0.1l1.3,0.1C18.3,0.8,19.4,0.7,18.4,0.6z"/>
<path class="st1" d="M143.1,0.7c0.4,0,1,0,2.3,0C144.6,0.6,143.8,0.6,143.1,0.7z"/>
<path class="st1" d="M165.6,1c-0.2-0.1-0.5-0.1-0.7-0.1C165.2,1,165.4,1,165.6,1z"/>
<path class="st1" d="M2.1,2.7V2.6h12.9h14.1c9.4,0,18.8,0,28.3,0c1.9-0.1,0.7-0.3,2.3-0.3c0.8,0,1.5,0,2.3,0.1c-1.3,0-0.6,0.1-1,0.2
	c2.2,0,5.1,0.1,7.1,0l-1.7-0.1c0.8,0,2,0,2.7,0c-0.3,0.1,0.7,0.2,0.1,0.2c4.2-0.3,3.3,0.1,6.8,0c2.7-0.4,5.4-0.6,8.1-0.7L85.7,2
	c-2,0,0,0.2-2.5,0.2c2.1,0.1,4.1,0,6.1,0C88.9,2.1,89,2,89.8,2c1.2,0,1.3,0.2,2.7,0.2l-1.4,0.1c0.9,0.1,1.7,0.1,2.6,0
	c0.3,0.1,2.4,0.1,2,0.3c1.9-0.2,2.6-0.1,4.6-0.2c-2.1-0.1,0.5-0.2,0.3-0.2h-2.4c3.4,0.1-1.1,0-0.8,0.2C95.8,2.2,99.6,2,96.9,2
	c3.2-0.1,3.8,0,7-0.2c-1.9,0,0.4-0.1-0.7-0.2c2.5,0,0.6,0.1,1.4,0.2c1,0.1,2.1,0.1,3.1,0c2.2,0.1-0.3,0.1,0.8,0.2
	c-0.8,0.1-6.1-0.2-5.5,0.3c-1.1,0-2.5,0.2-4.2,0.2c1.4,0.1,3.5,0.2,5.3,0.1l0.1-0.2c1.3,0,1.6-0.2,2.6-0.2c-0.5,0.1,0.4,0.2,1.5,0.2
	c-0.3,0-0.7,0-0.6-0.1c2,0,2.3-0.2,4.7-0.2c-2-0.1-2.4-0.1-4.2-0.2c0.8-0.1,1.6-0.1,2.4,0c-0.2,0-0.4,0-0.1,0.1l1.2-0.1
	c2.4,0.1-0.3,0.3,1.7,0.3c1.4,0.1,1.9-0.1,3,0h-0.2h0.5c1,0,2.1,0,3.1-0.1c0.5,0,1,0,1.6-0.1c1.2-0.1,2.4-0.1,3.6,0h-0.1
	c0.8-0.1,1.7,0,2.5,0.1l2.6,0l-0.3,0.2c1.3,0,2.5-0.1,3.8-0.3c1.7,0.1,4.7,0,5.8,0h0.9l-1-0.1c1.9,0,1.6-0.1,2.9-0.1
	c-0.3,0-0.3,0,0.4,0h0.7c-0.2,0-0.4,0-0.6,0l0.2,0c1.5,0.2,2.3-0.1,3.9,0H146c0.8,0.1,1.7,0.2,2.6,0.1c0.3,0,0.6,0,0.8,0h0.6h-0.6
	c0.3-0.1,0.6-0.1,0.8-0.1h2.3c0.4,0,1,0,1.5,0l0.4,0.1c0.8,0,0.8,0,0.7,0c2.9,0.2,4.5-0.1,7.6,0.1c0.6-0.1-0.7-0.2-0.8-0.2
	c0.5-0.1,2.3-0.2,3.2-0.2c1.4,0.1,5.7,0.3,5,0.5c2.6,0-0.8-0.1,0.5-0.2h0.3c-0.7,0-1.4-0.1-2.1-0.2c0.9-0.1,1.8-0.2,2.8-0.1
	l-0.5,0.2c2.4-0.1,1.9-0.3,3.4-0.5c1.9,0.1,0.8,0.2,1.2,0.4l2,0v0.1c1.3,0,1.6-0.1,3.4-0.1c-1.3,0.1,2.7,0.1,0.9,0.3
	c1,0,1.3-0.2,1.8,0c0.7-0.1-0.9-0.1-1.4-0.1c-0.4-0.2,2.2-0.1,3.4-0.1c0.1,0.1-0.8,0.1,0.6,0.2c0.7-0.1,1.3-0.1,2,0
	c0.8-0.1,1.6-0.1,2.4,0c-0.9,0-2.2-0.1-1.6-0.2s1.3-0.1,2.9-0.1l-1.1-0.1c1.4-0.2,2.3,0.1,4.2,0.1c-0.8,0.1-1.3,0.1-2,0.2
	c0.9-0.1,2.6-0.1,4-0.2l0.8,0.1l0.4,0l0.3,0c0.3-0.1,0.6-0.1,0.9,0c0,0.3-0.1,0.4-0.1,0.1c-0.3,0-0.6,0-0.9,0.1c0.3,0,0.6,0,0.8,0
	c0,0.4,0.4,0.2,0.4-0.3c-0.6,0-1.2,0-1.8,0c0-0.1,0.1-0.1,0.5-0.1s0.9,0,1.5,0c0,0.6,0.2,0.2,0.3-0.2c-0.6-0.1-1.1-0.1-1.7,0h0.4
	c-0.5,0-0.7,0-0.9,0l-0.4,0.1c-0.4,0-0.7,0-1.1,0c-0.2,0,0.2-0.1,0.3-0.1c-0.6,0-1.2,0-1.8,0.1c-1.2,0,0.6-0.2-0.4-0.2
	c-1.1,0.1-2.3,0.1-3.4,0c0.5,0.2-4.8,0.3-2.2,0.5l-2.9,0.1c-0.9-0.1,2-0.3,1.2-0.5h2.3c-0.4-0.3-4.8,0.2-6.3-0.1
	c-1.2,0-0.9,0-3.2-0.1l0.4,0.2c-0.6,0-1.1-0.1-1.6-0.2c-0.7,0-1.3,0-2,0c0.3-0.1,0.6-0.1,0.8-0.1c-0.5-0.1-1-0.1-1.5,0
	c-0.7,0.1-1.3,0.1-2,0.1l0.7-0.1c-0.4,0-0.7,0-1.1,0.1h-0.9c0.6,0.1,1.2,0.2,1.8,0.3c-2.8-0.1-4.9,0-7.3-0.2
	c0.1-0.1,1.1-0.2,0.8-0.2c-0.8-0.1-1.6,0-2.4,0.2h-0.7c-0.3-0.1-0.7-0.2-1.1-0.2c-0.2,0-0.5,0-0.8-0.1c-1.1,0.1-2.1,0.2-3.2,0.2
	c0.5,0,1.2,0,1.9,0C160.9,1,160,1.1,159.2,1c1.8-0.1-1.9-0.2,0.8-0.3c-1.9-0.2-1,0.2-3,0.1l-1.3-0.1c0.2-0.1,2.1-0.1,1.8-0.1h-0.9
	c0.9-0.1,4.3,0,6.4-0.2l-4.2-0.1c-5.3,0.2-11.8,0-16.3,0.3h0.2c-0.1,0-0.1,0-0.2,0.1h-0.2l-0.9,0.1c-1-0.1-2.9-0.2-4.5-0.3
	c1,0.1,1,0.1,1.1,0.2C137.9,1,137.7,1,136.2,1c0-0.1,0.9-0.1-0.2-0.2c0.6,0.1,0.1,0.1-0.6,0.1c-0.8,0-1.5-0.1-2.3-0.2
	c0.3,0,0.7,0,1,0c0.4,0-1.6-0.1-0.4-0.2l-1.5,0c-0.9-0.1,0.6-0.1,0.2-0.2c-2.5,0.1-3.8,0.3-6.1,0.4c0.1-0.1,0.1-0.3,0.1-0.2
	c-1.8-0.1-3.8,0.2-5.8,0.3c0.3-0.1,1,0,1.6-0.1c-6.1-0.1-11.1-0.1-16.8-0.3L104,0.7l-1.5-0.2c-6-0.1-10.7,0-16.4,0.1
	c-1.8,0-1.1-0.2-1.9-0.2c-3.9,0-4.9,0.2-8.6,0.3c0.5-0.1,1.4-0.3-0.2-0.3c-0.5,0.1-1,0.2-1.5,0.1l0.5-0.1c-0.9-0.1-1.8,0-3.7,0
	c-3.4,0-6.6,0.2-9.4,0.4c-3,0,0.3-0.2-0.3-0.3c2.1,0.1,1.5,0,1.9-0.1c-1,0.1-2,0-3-0.1c-1.6,0-2.3,0-3.8,0.1c0.8,0,1.4,0,0.7,0.1
	c-1.3-0.1-4.5,0-4.3-0.2c-7.4,0-15.7,0-23.6,0c-1.3,0.1,1,0,0.3,0.1c-1.9,0.1-1.5-0.1-3.1,0l0.6-0.1c-2.3,0-4.8,0.2-7,0.3
	c0.4-0.1-1.8-0.1,0-0.2c-1.1,0-2.4-0.5-3.3-0.4l1.2,0.5c-0.1,0.1-1.6,0-1.4,0.1c-1-0.1-2.1-0.2-2.8-0.2c-0.3-0.1,1.3-0.1,2.3-0.1
	c0.1-0.2-3.1-0.2-1.7-0.4c-2,0,0.3,0.1-0.9,0.2l-1.7,0l1.3,0.1c-1.3,0.1-2.5,0.2-3.8,0.1l-2,0.2C6,0.4,5.2,0.4,4.4,0.5L5,0.4
	c-1.3,0-1.8,0-2.7-0.1c0.8-0.2,1.2,0,1.6-0.1L2.4,0.1c0,0-0.1,0.1-0.1,0.1L1.9,0.3c-0.1,0-0.1,0,0,0.1h0.3h0.3H2.3H2L1.3,0.5
	C0.9,0.5,0.5,0.5,0,0.6l0.1,1C0.1,1.9,2.1,2.8,2.1,2.7z M175.8,0.8h-0.2l0,0H175.8z M165.6,1c-0.2,0-0.5,0-0.7-0.1
	C165.2,0.9,165.4,0.9,165.6,1z M154.4,1.8h-0.3C154.8,1.8,155.2,1.7,154.4,1.8L154.4,1.8z M145.4,0.7c-1.3,0-1.9,0-2.3,0
	C143.8,0.7,144.6,0.7,145.4,0.7z M137.4,1.7c2.1-0.1,1.4,0,1.6,0.1c-2-0.1-3.1,0-4.9-0.1c0.2,0,0.3,0.1,0.4,0.1
	c-0.6,0-1.1,0-1.7-0.1C133.6,1.5,138.3,1.9,137.4,1.7L137.4,1.7z M16.5,0.7c0.4-0.1,1.4,0,1.9-0.1c1.1,0.1-0.1,0.1-0.7,0.2L16.5,0.7
	L16.5,0.7z"/>
<path class="st1" d="M142.4,1.7L142.4,1.7z"/>
<path class="st1" d="M184.4,0.4l1.9,0.1C186.9,0.4,184.7,0.3,184.4,0.4z"/>
<path class="st1" d="M191.4,1.8c0.4,0,0.9,0,1.3,0l1-0.1C193,1.6,192.2,1.6,191.4,1.8z"/>
<path class="st1" d="M179.3,0.4c-0.6,0.2-1.9-0.1-2.3,0.1C177.8,0.5,178.5,0.5,179.3,0.4z"/>
<path class="st1" d="M183.1,2L183.1,2z"/>
<path class="st1" d="M180.6,1.9c0.8,0.1,1.7,0.1,2.5,0C182.3,1.9,181.5,1.9,180.6,1.9z"/>
<path class="st1" d="M169.2,0.9c0.6-0.1,1.2-0.1,1.8-0.1c-0.3,0-0.5,0.1-0.9,0.1c1.5-0.1,1.6-0.1,2.8-0.1c-1.2-0.1-3-0.1-2.8-0.3
	C169.2,0.6,168.1,0.8,169.2,0.9z"/>
<path class="st1" d="M178.5,1.9l0.5-0.1c-1.3-0.1,0.5,0.2-1.3,0.2c1,0,1.6,0.1,2.8,0.1C179.9,1.9,179.2,1.8,178.5,1.9z"/>
<path class="st1" d="M168.3,0.4c-1.7,0-3.8,0.1-4.6,0.2l0.6,0.1C165.7,0.5,167.5,0.6,168.3,0.4z"/>
<path class="st1" d="M172.9,1.7l-0.2,0.2c1.4,0-0.1-0.1,0.4-0.1c0.4,0,0.9,0,1.3,0C172.8,1.8,174.3,1.6,172.9,1.7z"/>
<path class="st1" d="M168.3,1.9L166.6,2l1.4,0.2C170,2.1,168,2,168.3,1.9z"/>
<path class="st1" d="M163.3,2c1.6-0.1,1.7-0.1,2.9-0.2h-0.2L163.3,2z"/>
<path class="st1" d="M134.4,0.6c0.3-0.1-1.8-0.2-0.6-0.1C133.5,0.6,135.1,0.7,134.4,0.6z"/>
<path class="st1" d="M135.8,2.1c1.3,0,4.5,0,4.3-0.1C139.4,2,136.9,2.1,135.8,2.1z"/>
<path class="st1" d="M135.8,2.1h-0.4H135.8z"/>
<path class="st1" d="M89.5,2.6h-0.3H89.5z"/>
<path class="st1" d="M90.6,2.5c0.8,0,1.6,0,2.5-0.1c-1.2,0-2.2,0.1-3.6,0.2C90,2.5,90.7,2.6,90.6,2.5z"/>
<path class="st1" d="M80.1,2.5c0.6,0,1.3,0,1.1-0.1S79.7,2.4,80.1,2.5z"/>
</svg>
