<?xml version="1.0" encoding="utf-8"?>
<!-- Generator: Adobe Illustrator 22.0.1, SVG Export Plug-In . SVG Version: 6.00 Build 0)  -->
<svg version="1.1" id="圖層_1" xmlns="http://www.w3.org/2000/svg" xmlns:xlink="http://www.w3.org/1999/xlink" x="0px" y="0px"
	 viewBox="0 0 200 125" style="enable-background:new 0 0 200 125;" xml:space="preserve">
<style type="text/css">
	.st0{fill:#424242;}
	.st1{fill:url(#SVGID_1_);}
	.st2{fill:#515151;}
	.st3{opacity:0.8;fill:url(#SVGID_2_);}
	.st4{fill:#3E3E3E;}
	.st5{opacity:0.8;fill:url(#SVGID_3_);}
	.st6{fill:#848484;}
	.st7{fill:#C6C6C6;}
</style>
<g>
	<g>
		<path class="st0" d="M18.7,124.6c0,0-7.9,1.6-15-11.3C-3.5,100.4,2,94.5,2,94.5l137.4-71.4l6.3,11.3l6.3,11.3L18.7,124.6z"/>
		
			<linearGradient id="SVGID_1_" gradientUnits="userSpaceOnUse" x1="10370.6289" y1="-1296.0873" x2="10401.5566" y2="-1288.6647" gradientTransform="matrix(0.4838 0.8752 -0.8752 0.4838 -6011.2954 -8434.1982)">
			<stop  offset="0" style="stop-color:#000000"/>
			<stop  offset="0.4225" style="stop-color:#222222"/>
			<stop  offset="0.5918" style="stop-color:#292929"/>
			<stop  offset="0.844" style="stop-color:#3E3E3E"/>
			<stop  offset="0.9383" style="stop-color:#474747"/>
		</linearGradient>
		<path class="st1" d="M152,45.9c-1.7,1-5.9-3.4-9.4-9.6c-3.5-6.3-4.9-12.1-3.2-13.1c1.7-1,5.9,3.4,9.4,9.6
			C152.3,39,153.7,44.9,152,45.9z"/>
		<path class="st2" d="M152,45.9c-1.7,1-5.9-3.4-9.4-9.6c-3.5-6.3-4.9-12.1-3.2-13.1c1.7-1,5.9,3.4,9.4,9.6
			C152.3,39,153.7,44.9,152,45.9z"/>
		
			<radialGradient id="SVGID_2_" cx="10393.9658" cy="-1289.5864" r="10.743" gradientTransform="matrix(0.4838 0.8752 -0.8752 0.4838 -6011.2954 -8434.1982)" gradientUnits="userSpaceOnUse">
			<stop  offset="0" style="stop-color:#FFFFFF"/>
			<stop  offset="0.1179" style="stop-color:#EEEEEE"/>
			<stop  offset="0.3502" style="stop-color:#C3C3C3"/>
			<stop  offset="0.6746" style="stop-color:#7E7E7E"/>
			<stop  offset="1" style="stop-color:#313131"/>
		</radialGradient>
		<path class="st3" d="M152,45.9c0,0-0.1,0-0.3,0.1c-0.2,0.1-0.5,0.1-0.9,0c-0.4-0.1-0.8-0.3-1.3-0.6c-0.5-0.3-1-0.7-1.4-1.1
			c-1-0.9-2-2.1-3-3.4c-1-1.3-1.9-2.8-2.8-4.4c-0.8-1.5-1.6-3.2-2.2-4.7c-0.6-1.6-1-3.1-1.3-4.4c-0.1-0.7-0.2-1.3-0.2-1.8
			c0-0.5,0.1-1,0.2-1.4c0.1-0.4,0.3-0.6,0.5-0.8c0.2-0.1,0.3-0.2,0.3-0.2s-0.1,0.1-0.2,0.2c-0.1,0.2-0.3,0.4-0.3,0.8
			c-0.1,0.4-0.1,0.8,0,1.4c0.1,0.5,0.2,1.1,0.3,1.7c0.3,1.3,0.9,2.7,1.5,4.2c0.6,1.5,1.4,3.1,2.3,4.6c0.8,1.5,1.7,3,2.7,4.4
			c0.9,1.3,1.9,2.6,2.8,3.5c0.4,0.5,0.9,0.9,1.3,1.2c0.4,0.3,0.8,0.6,1.2,0.7c0.4,0.1,0.6,0.2,0.8,0.1C151.9,45.9,152,45.9,152,45.9
			z"/>
		<path class="st4" d="M5.8,112.1C-0.9,100.1,2,94.5,2,94.5s-5.5,5.9,1.6,18.8c7.1,12.9,15,11.3,15,11.3S12.4,124.1,5.8,112.1z"/>
		
			<radialGradient id="SVGID_3_" cx="10396.5967" cy="-1134.1575" r="12.6476" gradientTransform="matrix(0.4838 0.8752 -0.8752 0.4838 -6011.2954 -8434.1982)" gradientUnits="userSpaceOnUse">
			<stop  offset="0" style="stop-color:#FFFFFF"/>
			<stop  offset="0.1179" style="stop-color:#EEEEEE"/>
			<stop  offset="0.3502" style="stop-color:#C3C3C3"/>
			<stop  offset="0.6746" style="stop-color:#7E7E7E"/>
			<stop  offset="1" style="stop-color:#313131"/>
		</radialGradient>
		<path class="st5" d="M18.7,124.6c0,0-0.1,0-0.4-0.1c-0.3-0.1-0.7-0.1-1.1-0.3c-0.2-0.1-0.5-0.2-0.8-0.3c-0.3-0.1-0.6-0.3-0.9-0.5
			c-0.3-0.2-0.7-0.3-1-0.5c-0.3-0.2-0.7-0.5-1-0.7c-0.7-0.5-1.4-1.2-2.1-1.9c-0.4-0.4-0.8-0.7-1.1-1.1c-0.3-0.4-0.7-0.8-1-1.3
			c-0.7-0.9-1.4-1.7-2-2.7c-0.6-1-1.2-2-1.9-3c-0.5-1-1-2.1-1.5-3.1c-0.5-1-0.9-2.1-1.2-3.1c-0.2-0.5-0.4-1-0.5-1.5
			c-0.1-0.5-0.2-1-0.3-1.5c-0.2-1-0.4-1.9-0.4-2.8c0-0.4-0.1-0.9-0.1-1.3c0-0.4,0-0.8,0.1-1.1c0-0.4,0-0.7,0.1-1
			c0.1-0.3,0.1-0.6,0.2-0.8c0.1-0.5,0.3-0.9,0.4-1.1C2,94.7,2,94.5,2,94.5S2,94.7,1.9,94.9c-0.1,0.3-0.2,0.6-0.2,1.1
			c0,0.2-0.1,0.5-0.1,0.8c0,0.3,0,0.6,0,1c0,0.3,0,0.7,0,1.1c0.1,0.4,0.1,0.8,0.2,1.2c0.1,0.8,0.3,1.7,0.6,2.7
			c0.1,0.5,0.2,1,0.4,1.4c0.2,0.5,0.4,1,0.6,1.5c0.4,1,0.7,2,1.3,3c0.5,1,1,2,1.5,3.1c0.6,1,1.2,1.9,1.8,2.9c0.5,1,1.2,1.9,1.9,2.7
			c0.3,0.4,0.6,0.9,0.9,1.3c0.3,0.4,0.7,0.7,1,1.1c0.7,0.7,1.3,1.4,2,1.9c0.3,0.3,0.6,0.5,0.9,0.8c0.3,0.3,0.6,0.4,0.9,0.6
			c0.3,0.2,0.6,0.4,0.8,0.5c0.3,0.1,0.5,0.3,0.7,0.4c0.4,0.2,0.8,0.3,1.1,0.4C18.5,124.6,18.7,124.6,18.7,124.6z"/>
	</g>
	<g>
		<path class="st6" d="M151,42.2c0,0-2.4,1.4-6.9-6.9c-4.6-8.2-2.1-9.5-2.1-9.5l44.1-24.3c4.5-2.5,10.2-0.9,12.7,3.7l0,0
			c2.5,4.5,0.9,10.2-3.7,12.7L151,42.2z"/>
		<path class="st7" d="M151,42.2c0,0-2.4,1.4-6.9-6.9c-4.6-8.2-2.1-9.5-2.1-9.5l44.1-24.3c4.5-2.5,10.2-0.9,12.7,3.7l0,0
			c2.5,4.5,0.9,10.2-3.7,12.7L151,42.2z"/>
	</g>
</g>
</svg>
