<?xml version="1.0" encoding="utf-8"?>
<!-- Generator: Adobe Illustrator 25.3.1, SVG Export Plug-In . SVG Version: 6.00 Build 0)  -->
<svg version="1.1" id="圖層_1" xmlns="http://www.w3.org/2000/svg" xmlns:xlink="http://www.w3.org/1999/xlink" x="0px" y="0px"
	 viewBox="0 0 15 50" style="enable-background:new 0 0 15 50;" xml:space="preserve">
<style type="text/css">
	.st0{fill:#DFCFAB;}
</style>
<path class="st0" d="M15,0c-1.1,0.9-2,1.6-1.3,3.3c0.4,1.1-0.2,2.5-0.4,3.8c-0.1,1.2-0.4,2.4-0.7,3.6c-0.2,0.7-0.6,1.4-1.2,1.8
	c-3.1,2-6.3,4-9.4,5.9c-1,0.6-0.4,1.3,0.1,1.9c1.5,1.7,3.1,3.4,4.6,5.1c2,2.2,3.1,5,3.2,7.9c0.1,1.1-0.4,1.6-1.6,2.1
	c-1.8,0.7-4,1.1-4.6,3.3c-0.1,0.3-0.6,0.5-1,0.7c-2.9,1-3.6,3.3-1.5,5.3c1.5,1.5,2.9,3.1,4.4,4.5c0.5,0.4,1.3,0.6,2,0.8
	C8.2,50,8.8,50,9.4,50l5.6,0V0z"/>
</svg>
