<?xml version="1.0" encoding="utf-8"?>
<!-- Generator: Adobe Illustrator 25.3.1, SVG Export Plug-In . SVG Version: 6.00 Build 0)  -->
<svg version="1.1" id="圖層_1" xmlns="http://www.w3.org/2000/svg" xmlns:xlink="http://www.w3.org/1999/xlink" x="0px" y="0px"
	 viewBox="0 0 200 240" style="enable-background:new 0 0 200 240;" xml:space="preserve">
<style type="text/css">
	.st0{fill:#FFF8F3;}
	.st1{fill:#E3E3E3;}
	.st2{fill:#DB453A;}
	.st3{clip-path:url(#SVGID_2_);}
	.st4{fill-rule:evenodd;clip-rule:evenodd;fill:#FFCCAD;}
	.st5{fill-rule:evenodd;clip-rule:evenodd;fill:#F5A673;}
	.st6{fill-rule:evenodd;clip-rule:evenodd;fill:#FCB280;}
	.st7{fill:#F5A673;}
	.st8{fill-rule:evenodd;clip-rule:evenodd;fill:#F7A16B;}
	.st9{opacity:0.3;fill-rule:evenodd;clip-rule:evenodd;fill:#BAC7D9;enable-background:new    ;}
	.st10{opacity:0.3;fill-rule:evenodd;clip-rule:evenodd;fill:#9EB0C2;enable-background:new    ;}
	.st11{opacity:0.3;fill-rule:evenodd;clip-rule:evenodd;fill:#E0AD61;enable-background:new    ;}
	.st12{opacity:0.3;fill-rule:evenodd;clip-rule:evenodd;fill:#CC9947;enable-background:new    ;}
	.st13{opacity:0.3;fill-rule:evenodd;clip-rule:evenodd;fill:#CC9C4F;enable-background:new    ;}
	.st14{opacity:0.3;fill-rule:evenodd;clip-rule:evenodd;fill:#BF8F40;enable-background:new    ;}
	.st15{opacity:0.3;fill-rule:evenodd;clip-rule:evenodd;fill:#DEA857;enable-background:new    ;}
	.st16{opacity:0.3;fill-rule:evenodd;clip-rule:evenodd;fill:#F5C275;enable-background:new    ;}
	.st17{fill-rule:evenodd;clip-rule:evenodd;fill:#F59E66;}
	.st18{opacity:0.3;}
	.st19{fill-rule:evenodd;clip-rule:evenodd;fill:#E54A33;}
	.st20{fill-rule:evenodd;clip-rule:evenodd;fill:#D62E14;}
	.st21{fill-rule:evenodd;clip-rule:evenodd;fill:#CF260F;}
	.st22{fill-rule:evenodd;clip-rule:evenodd;fill:#D42B14;}
	.st23{fill-rule:evenodd;clip-rule:evenodd;fill:#D42912;}
	.st24{fill-rule:evenodd;clip-rule:evenodd;fill:#FA543D;}
	.st25{fill:#FF6954;}
	.st26{opacity:0.2;fill-rule:evenodd;clip-rule:evenodd;fill:#F2BD69;enable-background:new    ;}
	.st27{opacity:0.3;fill-rule:evenodd;clip-rule:evenodd;fill:#F5BD69;enable-background:new    ;}
	.st28{fill-rule:evenodd;clip-rule:evenodd;fill:#FABA94;}
	.st29{opacity:0.1;}
	.st30{fill:none;stroke:#4D4D4D;stroke-width:0.75;stroke-miterlimit:10;}
	.st31{fill:none;stroke:#4D4D4D;stroke-width:0.75;stroke-miterlimit:10;stroke-dasharray:4.46,4.46;}
	.st32{fill:none;stroke:#4D4D4D;stroke-width:0.75;stroke-miterlimit:10;stroke-dasharray:5.13,5.13;}
	.st33{fill:none;stroke:#4D4D4D;stroke-width:0.75;stroke-miterlimit:10;stroke-dasharray:9.35,9.35;}
	.st34{fill:none;stroke:#4D4D4D;stroke-width:0.75;stroke-miterlimit:10;stroke-dasharray:7.86,7.86;}
	.st35{fill:none;stroke:#4D4D4D;stroke-width:0.75;stroke-miterlimit:10;stroke-dasharray:4.06,4.06;}
	.st36{fill:none;stroke:#4D4D4D;stroke-width:0.75;stroke-miterlimit:10;stroke-dasharray:7.89,7.89;}
	.st37{fill:none;stroke:#4D4D4D;stroke-width:0.75;stroke-miterlimit:10;stroke-dasharray:7.67,7.67;}
	.st38{fill:none;stroke:#4D4D4D;stroke-width:0.75;stroke-miterlimit:10;stroke-dasharray:8.14,8.14;}
</style>
<rect class="st0" width="200" height="240"/>
<g>
	<g id="圖層_2_1_">
		<g id="artwork">
			<g>
				<rect x="9.6" y="11.3" class="st1" width="180.7" height="217.5"/>
				<path class="st2" d="M83.4,129.5c-3.7-1.2-7.5-1.8-11.4-1.7c-0.5-0.5-1.2-0.6-1.7-0.3l-0.7,0.5c-13.3,1.2-26.3,9.4-30.9,22
					c-1.9,5.1-2.4,10.5-2.5,16c-0.1,5.6-0.5,13.1,2.6,18.1c4.8,7.5,15.9,5.9,24.2,3.4c1.6,0.3,3.4,0.5,5.1,0.4
					c9.4-0.5,18.1-5.5,23.9-12.8C102.6,161.3,102.7,136,83.4,129.5z M39.9,180.5c-1.5-3.8-1.2-8.8-1.3-12.9
					c-0.1-4.8,0.3-9.6,1.5-14.2c3.1-11.1,12.4-18.9,23.1-21.9c-6.3,3.9-12.2,8.5-16.1,14.9c-4.9,8.1-5.4,18.4-1.3,27
					c2.6,5.6,6.9,10.1,12.2,12.4C50.8,187.5,42.6,187.6,39.9,180.5z M69.2,184.8c0.2-0.7-0.3-1.5-1-1.5c-0.2-0.1-0.5,0-0.7,0
					c-1.2,0.5-2.6,0.9-4.2,1.4c-5.9-1-11.2-4.5-14.7-11.4c-4.4-8.9-3.5-19.4,2.3-27.4c4.9-6.7,12.2-11.2,19.3-15.2
					c2.3-0.2,4.5-0.1,6.8,0.2c20.1,2.5,24.5,25.4,14.6,40.3C86.5,178.6,77.8,184,69.2,184.8z"/>
				<g>
					<g>
						<g>
							<defs>
								<polygon id="SVGID_1_" points="9.3,228.5 188.9,227.7 190.5,25 10.9,25.7 								"/>
							</defs>
							<clipPath id="SVGID_2_">
								<use xlink:href="#SVGID_1_"  style="overflow:visible;"/>
							</clipPath>
							<g class="st3">
								<path class="st4" d="M-21.2,143.5c2.7,0.3,3.4,0.9,11,0.2c14.1-2.2,24.3,0.3,37.4,5.1c6.1,2.2,7.3,1.9,11.7,0.6
									c23.4-6.3,54.5-3.7,72.8,9.2c5.4,2.8,10.3,4.4,14.7,3.2c-1.5-22.5,2.1-42.2,9.2-60.1c3.6-9.8,4.9-20.3,3.7-30.7
									c0.5-3.5,1.8-6.3,5.3-6.9l18.8-0.8c3.1,4.7,3.8,10.6,3.1,17.3c0.2,8.9,1.2,17.8,3.2,26.4c2.6,10.9,2.7,22.3,0.8,34.2
									c-1.9,13.9-4.2,30.8-5,41.2c-0.1,6.3-0.5,12.2-3.7,15.2c-1.6,2.1-4.8,1.3-8.2,2.8c-37.6,12-76,16-118,0.7
									c-13.7-5.1-26.4-0.9-35.7,8.4c-11.2,10-25.4-5.4-30.2-24.9c-3-16-0.3-23.4,0.6-34.5C-29.4,147.9-27.6,143.1-21.2,143.5z"/>
								<path class="st4" d="M139.6,70.9c-0.2,0.2-8.3-0.5-12.1-1.1c-5.6-0.8-10.6-2.7-14.7-6.4c-6.4-4.2-12-9.1-15.3-15.8
									c-1.8-2.3-1.5-4.1-0.1-5.7c1.5-2.1,3.2-4,4.9-5.8c3.9-3.3,8.1-6.1,12.5-8.6c1.4-0.9,2.2-1.5,3.5-2c3.5-2.3,8.5-2.6,11.5,0.9
									c3.4,3.7,6,6.4,10.6,11.5l7.2,8.9c2.7,3.2,6.2,5.6,10.2,8.9c2.7,2.2,5.7,5.7,6.8,10.1l-12.4,3.9L139.6,70.9z"/>
								<path class="st5" d="M101.3,53c-3-0.6-4.5,0.3-4.5,2.4c-0.1,3.3,2,5.6,6.5,7c3.8,0.9,7.7,1.4,11.6,1.4L101.3,53z"/>
								<path class="st6" d="M96.5,43.9c2,1.8,4.5,2.9,7.3,2.9c1.8,6.9,5.7,12.4,11.3,16.9l-3.4-1.1c-7-4-11.3-9.5-14.9-15.6
									C96.2,45.6,95.9,44.5,96.5,43.9z"/>
								<path class="st6" d="M103.9,46.7c2.4,1.6,4.7,3.2,7.6,2.9c1.1,5.1,3.7,9.7,7.5,13.2c-2,1-4.2,1.3-6.6-1.2
									C108.3,57.6,105.4,52.4,103.9,46.7z"/>
								<path class="st6" d="M112.5,49.6c1.9,1.6,4.1,2.8,6.4,3.6c-0.3,4.4,2.5,8.3,6.8,12.1c-2.1-0.1-4.4-0.9-6.8-2.4
									c-2.6-3.2-4.9-6.7-6.7-10.4l-0.3-2.8L112.5,49.6z"/>
								<path class="st6" d="M119.4,53.6c2.2,1.5,4.7,2.4,7.3,2.6c-0.5,3.3,1.2,6.5,4.3,9.6c-2,0.4-4,0.2-5.8-0.7
									c-1.9-2.3-3.7-4.5-5.4-7C119,56.6,118,53,119.4,53.6z"/>
								<path class="st7" d="M125.3,42L125.3,42c0.1,0.1,0.2,0.1,0.2,0.2c0,0,0,0.1,0.1,0.1c0.1,0.2,0.1,0.5,0.2,0.7
									c0,0.8-0.1,1.7-0.4,2.5c-0.2,0.5-0.4,1.1-0.5,1.6c-0.3,0.6-0.6,1.3-1,1.9c-1.1,1.8-2.4,3.4-3.8,4.9c0.1-0.1,0.2-0.2,0.2-0.4
									c-0.5,1.5-0.1,2.8,0.5,4.3c0.3,0.6,0.5,1.2,0.9,1.7c0.2,0.4,0.5,0.7,0.6,1.1c0.4,0.5,0.7,1.1,1.2,1.5c0.5,0.6,1,1.4,1.5,2
									c0.3,0.3,0.5,0.6,0.6,1.1c-0.4-0.2-0.7-0.5-1.1-0.7c-0.7-0.6-1.5-1.3-2.1-2c-0.4-0.4-0.6-0.7-1-1.1
									c-1.5-1.8-3.2-4.4-3.2-6.8c0-0.5,0.1-0.9,0.2-1.4c0.1-0.4,0.3-0.5,0.5-0.7c0.2-0.3,0.5-0.5,0.7-0.8c0.8-1.1,1.6-2.2,2.3-3.4
									c0.3-0.5,0.5-1.1,0.8-1.6c0.2-0.4,0.5-0.8,0.5-1.2c0.3-0.6,0.6-1.4,1-2c0.2-0.4,0.4-0.7,0.6-1.1c0.1-0.2,0.3-0.3,0.5-0.3
									C125.2,42,125.3,42,125.3,42z"/>
								<path class="st8" d="M140.3,67.9c-0.9-2-2.4-3.6-4.4-4.8c-2.5-1.7-3.5-3.8-3.4-6.2c0.6-2.4,2.1-4.5,4.1-6
									c-2-1-3.5-2.6-4.4-4.6c0.3,3.4-0.9,6.8-3.2,9.3c0.7,3,2.3,5.8,4.4,8.1c0.1,1.1-0.8,1.8-2.5,2.3l-5.3-0.7l-7.2-2.4l-6,0.2
									c3.4,3.4,7.9,5.5,12.7,6.3c4.7,1,9.4,1.5,14.2,1.7C139.4,70,139.6,68.8,140.3,67.9z"/>
								<path class="st9" d="M134.7,167.3c-8.9,2.6-18.5,0.9-28.6-3.9l-0.2,18.6c5.9-4.1,14.5-6.4,27.9-5.7L134.7,167.3z"/>
								<path class="st10" d="M106.2,181.9v-3.4c6.1-3.7,14.9-5.8,28.1-5.1l-0.3,2.8C120.7,175.4,112.1,177.8,106.2,181.9z"/>
								<path class="st11" d="M143.5,73.5c-2-2.6-1.7-4.4,0.7-5.5c2.1-0.1,4.1,0.3,6.1,1.8l6.3,20l-0.7,58.5
									c-3.3,2.2-5.6,6.1-7.1,12c-1.3,4.2-2.2,8.1-3.1,11.8l-3.1,6.1l-9.1,0.7c-1.6-6.5-0.5-11.7,3-15.9c3.7-4.1,6.4-8.8,7.3-14.8
									c2.5-11.2,4.6-23,4.3-37c1.2-11.4,0.7-22.5-2.3-33C145.7,76.4,144.8,74.7,143.5,73.5z"/>
								<path class="st12" d="M139.5,178.7l3-6c0.8-3.8,1.8-7.7,3.1-12c1.5-6,6.4-10.8,9.6-13l-1.8-58.1l-6.3-20.2
									c-0.6-0.5-1.4-0.9-2.1-1.3c1.9,0,3.6,0.6,5.1,1.8l6.3,20l-0.7,58.4c-3.2,2.2-5.6,6.1-7.1,12c-1.3,4.2-2.3,8.1-3.1,11.8
									l-3.1,6.1L139.5,178.7z"/>
								<path class="st13" d="M151.9,75.4c-1.7-1.6-2-3.9-1.3-6.6c0.4-1.5,1.2-2.4,3.1-1.3c1.4,0.8,2.6,1.1,3.7-0.2
									c1.2-1,2.3-0.6,3.1,2.5c0.3,4.4-0.2,8.9-1.1,13.2c0.2,8.7,1.2,17.3,3.1,25.9c1.5,10.9,1.9,21.9,1,32.8
									c-0.8,12.2-2.4,23.5-4.1,34.7l-1.6,13.4c-0.4,1.9-1.4,3.7-2.8,5.1c-3.3,4.1-6.8,3.2-10.4,0.2l-4.6-17.3
									c4.4-3.3,8.1-6.4,9.8-11.4c2.9-8.1,3.2-15.2,4.4-21.5c1-13.4,1.2-26.9,1-40.6C156,94.6,155,84.8,151.9,75.4z"/>
								<path class="st9" d="M31.1,167.9c-7.8-3.9-18.9-6.9-27.8-8.8c-7.4-1.8-17.3-3.3-23.1,1.7l-4.9,3.9
									c3-9.6,11.1-14.4,28.9-11.3c9.4,2,15.4,5.5,22.9,5.3L31.1,167.9z"/>
								<path class="st11" d="M122.6,194c-5-1.4-7.9-2.3-14.1-2.9c-5.6-1.1-23.4-2.5-36.4-3.9c-33.5-2.4-86.3-6.1-86.8-6.1
									s1.2-5.6,2.1-8.5c25.2,1.7,75.8,5.2,76,5.2l12.1,6.7l25.3-2.4c8.3,0.3,16.7,1.1,26,1.4c2.3,0.4,5-0.2,5.5-1.9
									c0.7-3.8,3-5.5,7.2-5.4c4.4,0.2,6.4,1.5,7.2,6.9c2.7,4,2.7,8.3,0.1,10.7c-2.4,1.5-5.4,1.5-8.6,0.2c-1.7,1.9-4.4,3.2-7.3,4.2
									C126.4,198.8,123.7,196.7,122.6,194z"/>
								<path class="st11" d="M10.3,175.7c-8-0.4-15-2.2-21.2-7.1c-2-1.2-4.3,0.2-5.7,0.5c-3.2,0.1-6,3.5-3.8,6.9
									c-1.9,2.1-2.7,3.6-2.3,7c0.4,3.5,3.4,4.8,8.3,4.6c2.9,0.3,4.9-1.5,6.6-2.9c2.6-2.1,5.8-3.2,10.2-2.6L10.3,175.7z"/>
								<path class="st9" d="M17.4,166c-7.6,0.5-11.6,3.2-20,1.2c-3.5-0.9-7.9-0.5-8,1.8c3,1.8,4.4,2.8,7.2,1.7
									c8.3-0.8,14.6,0.2,21,1.8L17.4,166z"/>
								<path class="st13" d="M122.3,193.8c-5-1.4-7.9-2.3-14.1-2.9c-5.6-1.1-23.4-2.5-36.4-3.9c-33.5-2.4-74.8-5.4-75.3-5.4
									s0.6-3,1.1-3s41.8,3,75.3,5.4l2.1,0.2l0.2,0.1l0.5-0.1c12.6,1.3,28.4,2.5,33.6,3.6c6.2,0.6,9.1,1.5,14.1,2.9
									c-0.4,3,3,6.4,7.4,5.5c3-1,6.5-3.8,8.3-5.7c3.3,1.3,6.1,1.3,8.5-0.2c0.3-0.3,0.6-0.6,0.8-1c-0.1,1.5-0.8,2.9-1.9,4
									c-2.4,1.5-5.4,1.5-8.6,0.2c-1.2,2-3.3,3.4-7.2,4.3C126.1,199,123.4,196.6,122.3,193.8z"/>
								<path class="st7" d="M121,35.8L121,35.8c0.1,0.1,0.2,0.2,0.2,0.2s0,0.1,0.1,0.2c0.1,0.2,0.1,0.5,0.1,0.6
									c0,1.1-0.2,2.1-0.6,3.1c-0.2,0.5-0.5,1-0.7,1.5c-0.1,0.1-0.1,0.2-0.2,0.4c-0.1,0.1-0.2,0.2-0.3,0.4
									c-0.3,0.3-0.5,0.5-0.9,0.8c-0.5,0.5-1.1,1.1-1.6,1.7c-1.5,1.7-2.9,3.5-4.1,5.5c0.1-0.2,0.1-0.4,0.1-0.5
									c0.1,0.5,0.1,1,0.2,1.5c0.4,1.8,0.9,3.5,1.8,5.3c0.5,0.8,0.8,1.7,1.4,2.5c0.4,0.5,0.6,1.1,1,1.6l0.9,1.4
									c0.1,0.2,0.3,0.4,0.4,0.6c0.1,0.2,0.2,0.4,0.4,0.5c0,0.1,0.1,0.1,0.1,0.2c0,0.1,0.1,0.1,0.1,0.2v0.1
									c-0.3-0.1-0.5-0.3-0.7-0.5c-0.3-0.3-0.5-0.6-0.8-0.9c-0.5-0.5-0.9-1-1.3-1.5c-0.5-0.7-1.1-1.5-1.5-2.2
									c-1.4-2.1-2.4-4.4-3.1-6.7c-0.1-0.5-0.3-1-0.3-1.5c-0.1-0.3-0.1-0.5,0.1-0.8c0.4-0.7,0.7-1.4,1.2-2.1
									c1.2-1.8,2.4-3.5,3.9-5.2c0.5-0.6,1.1-1.3,1.7-1.8c-0.1,0.1-0.1,0.1-0.1,0.2c0.5-0.6,0.8-1.2,1.2-1.8
									c0.4-0.5,0.6-1.2,0.9-1.7C120.2,36.4,120.5,35.8,121,35.8z"/>
								<path class="st7" d="M114.1,32.4c0.2,0.1,0.2,0.4,0.2,0.5c0,0.4-0.1,0.7-0.3,1.1c-0.1,0.2-0.2,0.5-0.3,0.6
									c-0.7,1.3-1.8,2.4-3,3.3l0.1-0.1c-1.5,1.5-3,3.1-4.3,4.7c-1,1.3-1.6,2.7-1.9,4.3c0-0.1,0-0.3,0-0.4c0.2,0.9,0.5,1.7,0.7,2.5
									c0.3,1,0.6,2,1.1,2.9c0.6,1.5,1.5,3.1,2.4,4.4c0.3,0.5,0.6,0.9,0.9,1.3c0.2,0.3,0.4,0.5,0.6,0.8s0.5,0.5,0.7,0.9
									c0.6,0.7,1.3,1.5,2,2.1l0.7,0.7c0.2,0.2,0.3,0.3,0.5,0.5c0.3,0.2,0.5,0.4,0.5,0.6c-0.3-0.1-0.5-0.2-0.6-0.3
									c-0.5-0.3-0.9-0.5-1.3-0.9c-1.5-1.2-3-2.5-4.2-4c-0.4-0.5-0.8-1-1.2-1.5c-0.2-0.3-0.5-0.6-0.6-1c-0.4-0.5-0.6-1-0.9-1.5
									c-0.2-0.4-0.4-0.7-0.6-1.1c-0.5-1-1-2.1-1.4-3.2c-0.2-0.4-0.3-0.8-0.5-1.2c-0.1-0.3-0.2-0.5-0.3-0.9l-0.2-0.6
									c-0.1-0.2-0.1-0.4-0.1-0.5c0-0.2,0-0.3,0-0.5c0.2-1,0.5-2.1,0.9-3c0.1-0.2,0.2-0.4,0.3-0.5c0.3-0.5,0.5-1.1,0.9-1.5
									c0.3-0.4,0.5-0.8,0.8-1.2c0.6-0.8,1.3-1.5,2-2.4c0.5-0.5,1-1.1,1.5-1.5c0.2-0.1,0.3-0.2,0.5-0.4c0.3-0.2,0.5-0.4,0.7-0.5
									c0.3-0.2,0.6-0.5,0.9-0.7l1-0.8c0.4-0.4,0.7-0.7,1.1-1.1c0.2-0.2,0.3-0.3,0.5-0.4L114.1,32.4z"/>
								<path class="st9" d="M104.8,197.9c12,1.5,30.4,4.9,40.3-2.6c1.3,1.5,3.3,2.2,5.7,2.4c-17.1,7.3-33.7,2.7-46.2,5.1
									C105.5,201,105.5,199.4,104.8,197.9z"/>
								<path class="st9" d="M21.1,189.8c-9-2.4-17.1-4.9-20.8-9.7l-7.3,3.4c6.3,0.9,13.2,3.4,19.7,6.7c-9.6,2.5-18.7,2.1-29.5,1.4
									c-0.7,1.4-0.5,5.1,1.5,6.3c10.3-3.4,25.4-3.8,35.7-2.1L21.1,189.8z"/>
								<path class="st10" d="M-23.9,162.7L-23.9,162.7l4-3.1c5.8-5,15.8-3.5,23.3-1.7c8.6,1.8,19.2,4.7,27,8.3l1.1,1.4
									c-9.2-3.6-18.6-6.4-28.2-8.5c-7.4-1.8-17.4-3.3-23.1,1.7l-4.9,3.9C-24.5,164-24.2,163.4-23.9,162.7z"/>
								<path class="st10" d="M-10.7,169.1c0-0.3,0.1-0.5,0.2-0.7c2.5,1.5,4.1,2.2,6.6,1.2c8.5-0.8,14.9,0.2,21.4,1.7v1.3
									c-6.4-1.6-12.6-2.6-21-1.8C-6.1,171.8-7.7,170.9-10.7,169.1z"/>
								<path class="st10" d="M105.2,201.4c12.1-2,27.7,1.9,43.8-4.3c0.6,0.2,1.3,0.3,1.9,0.3c-17.1,7.3-33.7,2.7-46.3,5.1
									C104.9,202.2,105.1,201.8,105.2,201.4z M104.9,197.7L104.9,197.7c0.1,0.2,0.2,0.3,0.2,0.4C105,197.9,105,197.7,104.9,197.7z
									"/>
								<path class="st10" d="M-16.4,196.7c10.1-3.3,26.6-3.8,36.8-2.3l-0.2,1.2c-10.3-1.7-25.5-1.4-35.7,2.1
									C-15.8,197.5-16.1,197.1-16.4,196.7z M-7,183.3l1.9-0.8c6.2,1.3,12.2,3.4,17.8,6.4c-0.5,0.1-1,0.3-1.5,0.4
									C5.1,186.3-1.2,184.1-7,183.3z"/>
								<path class="st14" d="M147.5,196.9c1.3-0.3,2.6-1.1,3.8-2.6c1.5-1.4,2.4-3.1,2.9-5.1l1.6-13.4c1.6-11.2,3.3-22.5,4.1-34.7
									c0.9-10.9,0.5-22-1-32.8c-1.9-8.5-2.9-17.1-3.1-25.9c1-4.4,1.4-8.8,1.1-13.2c-0.1-0.5-0.3-0.9-0.5-1.3
									c0.4-0.2,0.7-0.5,1-0.7c1.2-1,2.2-0.6,3.1,2.5c0.3,4.4-0.1,8.9-1.1,13.2c0.2,8.7,1.2,17.3,3.1,25.9
									c1.5,10.9,1.9,21.9,1,32.8c-0.8,12.2-2.4,23.5-4.1,34.7l-1.6,13.4c-0.4,1.9-1.4,3.7-2.9,5.1
									C152.6,197.7,150.2,198.1,147.5,196.9z M151.3,67.5c0.5-0.5,1.1-0.7,2.1-0.3C152.8,67.6,152,67.6,151.3,67.5z"/>
								<path class="st15" d="M144.6,176.3c3.4-2.5,5.9-5.7,7-10.3c2.3-10.1,3.9-20.3,4.9-30.6c0.5-3.6,0.5-7.3,0.1-10.8
									c0.2-2.4,2.4-2,2.6,2.2c0.4,3.2,0.3,6.4-0.3,9.5c-0.5,10.5-1.7,21-3.5,31.4c-1.2,5.5-4,10.5-8.2,14.3
									C146.9,180.1,146,178.1,144.6,176.3z"/>
								<path class="st16" d="M136.3,165.7c-1.1,1.4-1.3,1.3-2.1,3.4c-0.6,3-0.6,6.2,0.1,9.2l4.2-1.9c-0.5-2-0.5-4.2,0.1-6.2
									C139.6,164.4,137.8,164.9,136.3,165.7z"/>
								<path class="st13" d="M-22.7,183c-0.2-1.2-0.2-2.4,0.2-3.5c0,0.2,0.1,0.5,0.1,0.6c0.4,3.5,3.4,4.8,8.3,4.6
									c2.9,0.3,4.9-1.5,6.6-2.9c2.6-2.1,5.8-3.2,10.2-2.6l-0.2,2.9c-4.4-0.5-7.5,0.6-10.2,2.6c-1.8,1.5-3.7,3.2-6.6,2.9
									C-19.3,187.9-22.2,186.6-22.7,183z M-20.7,172c0.1,0.5,0.3,0.8,0.5,1.2c-0.4,0.4-0.6,0.7-0.9,1.1
									C-21.1,173.5-21,172.7-20.7,172z"/>
								<path class="st17" d="M96.5,43.7c1.8,1.5,4.1,2.3,6.9,2.8c2.6,1.5,5.8,2.8,8.7,2.7c2.4,1.6,4.4,3.4,7.3,4.2
									c2,1.5,4.1,2.6,6.6,2.3c0.9,0.4,1.3,1,1.2,1.7c0.1,0.5-0.2,0.9-0.5,1.1c-2.6-0.3-5.1-1.2-7.3-2.7c-2.5-0.8-4.9-2.1-6.9-3.8
									c-2.8-0.2-5.6-1.1-8.1-2.6c-2.8-0.4-5.5-1.5-7.8-3.3C96,45.1,96,44.2,96.5,43.7z"/>
								<g class="st18">
									<path class="st19" d="M25.7,158.7c-1.9,1.6-1.4,5.4,0.8,7.2l0.8,0.4c-3.7-0.8-7.3-0.6-10.9-0.2c-2.4,1.3-2.4,5.1-0.2,6.5
										c5.3,3,10.6,5.6,16.2,7.9c28.1,10.8,55.8,11.9,82.3-2.5c4.2-2.3,4.4-8.8,1.1-10.8c-7.3-1.8-10.1-6.2-20.2-9.5
										c-10.2-3.8-21-5.4-32.4-5.4C40.5,150.9,36.3,158.9,25.7,158.7z"/>
									<path class="st19" d="M111.4,165.6c3.7,1.5,7.6,2.4,11.5,2.8c0.9,0.1,0.4,0.7-0.2,0.7c-3.4,0.5-7,0.3-10.3-0.7L111.4,165.6
										z"/>
									<path class="st19" d="M112.2,171.7c3.4,0.4,6.8,0.5,10.3,0.3c0.7,0,0.5,0.5-0.4,0.7c-3.3,1-6.7,1.4-10.2,1L112.2,171.7z"/>
									<path class="st19" d="M112,179.2c1.5-1.3,5.4-2.1,9.9-2.6c1-0.1,1.2-0.6,0.3-0.6c-3.1-0.1-6.2,0.2-9.2,0.8L112,179.2z"/>
									<path class="st19" d="M112,173.3c1.6-1.2,3.7-1.5,8.2-2.3c0.9,0,1.2-0.5,0.3-0.6c-3.1-0.4-5.6-1.3-8.7-0.8L112,173.3z"/>
									<path class="st19" d="M111.5,177.4c1.5-1.2,3.6-1.6,8.1-2.4c1-0.1,1.2-0.5,0.3-0.6c-3.1-0.3-5.7-1.2-8.7-0.6L111.5,177.4z"
										/>
									<path class="st19" d="M32.5,157.7c-3.9,0.9-7.9,1.2-11.9,0.8c-0.9-0.1-0.5,0.6,0.1,0.8c3.4,1.1,6.9,1.5,10.3,1L32.5,157.7z
										"/>
									<path class="st19" d="M30.2,161.7c-3.4-0.2-6.8-0.5-10.2-1.2c-0.7-0.1-0.5,0.4,0.3,0.7c3.1,1.5,6.4,2.3,9.9,2.4
										C30.2,163.6,30.2,161.7,30.2,161.7z"/>
									<path class="st19" d="M30.5,168.4c-1.3-1.5-4.9-3-9.3-4.4c-0.9-0.3-1-0.8-0.1-0.7c2.9,0.2,6.1,0.1,8.9,1.3L30.5,168.4z"/>
									<path class="st19" d="M104.9,197.9c-11.6-0.9-22-3-33.4-5.8c-8.1-1.8-17.1-1.6-26.4-0.6c-8.8,1.3-17,0.7-24.4-1.9
										c-2.2,0.9-3.1,4.7-0.6,5.9c19.7-0.5,40.8,13.8,71.4,7.7c4.4-0.6,8.9-0.8,13.2-0.5C105.7,201.2,105.9,199.6,104.9,197.9z"/>
									<path class="st19" d="M21.5,167.6c-2.9-0.5-5.8-0.4-8.7,0.1c-0.6,0.1-0.4-0.5,0-0.5c2.4-1,4.9-1.5,7.4-1.3L21.5,167.6z"/>
									<path class="st19" d="M19.4,171.2c-2.5-0.1-5-0.4-7.4-0.9c-0.5-0.1-0.5,0.3,0.2,0.5c2.3,1,4.1,1.9,7,3.1L19.4,171.2z"/>
									<path class="st19" d="M19.5,170.7c-1.2-0.9-4-1.3-7.3-1.5c-0.7,0-0.9-0.4-0.2-0.5c2.3-0.3,4.5-0.2,6.7,0.2L19.5,170.7z"/>
									<path class="st19" d="M19.2,172c-0.8-0.8-3.1-1.4-5.7-1.8c-0.5-0.1-0.6-0.4-0.1-0.4c1.8,0,3.6,0.3,5.4,0.7L19.2,172z"/>
									<path class="st19" d="M19.9,169.1c-1-0.6-3.3-0.7-5.9-0.7c-0.5,0-0.7-0.3-0.2-0.4c1.8-0.3,3.6-0.4,5.4-0.3L19.9,169.1z"/>
									<path class="st19" d="M103,197.7c1.7,0.1,3.4,0.3,5.1,0.5c0.4,0,0.2,0.3-0.1,0.3c-1.5,0.2-3,0.1-4.4-0.4L103,197.7z"/>
									<path class="st19" d="M103.4,199c1.4,0.3,2.7,0.5,4.1,0.5c0.3,0,0.2,0.3-0.2,0.4c-1.4,0.4-2.7,0.5-4.1,0.1L103.4,199z"/>
									<path class="st19" d="M103,202.6c0.6,0.1,1.7,0.4,4.4-0.4c0.4-0.1,0.5-0.3,0.1-0.3c-1.2-0.1-2.4-0.3-3.5-0.5L103,202.6z"/>
									<path class="st19" d="M103.5,202.4c0.8-0.5,1.8-0.8,4-1.3c0.5,0,0.6-0.3,0.2-0.4c-1.5-0.2-2.8-0.6-4.4-0.4L103.5,202.4z"/>
									<path class="st19" d="M22.8,190.2c-1.9-0.6-3.8-1.1-5.7-1.5c-0.5-0.1-0.3,0.3-0.1,0.4c1.5,0.8,3.2,1.4,5,1.5L22.8,190.2z"
										/>
									<path class="st19" d="M21.7,191.4c-1.5-0.2-3.1-0.5-4.6-1.1c-0.4-0.1-0.3,0.2,0.1,0.5c1.3,1,2.8,1.6,4.4,1.8L21.7,191.4z"
										/>
									<path class="st19" d="M20.8,195.5c-0.8-0.2-2.4,0.5-4.8-2.1c-0.5-0.2-0.5-0.5,0-0.4c1.4,0.5,2.7,0.7,4.1,1L20.8,195.5z"/>
									<path class="st19" d="M20.3,194.9c-0.5-1-1.6-1.6-3.8-3c-0.5-0.2-0.5-0.5,0-0.5c1.7,0.5,3.3,0.5,4.8,1.5L20.3,194.9z"/>
									<path class="st20" d="M100,163c1.5,3.3,0.5,5.8-0.9,9.4c-1.1,2.1,0.4,2.4-3.4,3.1c-4.5,2.2-6.4,10.3-2.7,9.9
										c4.5-0.9,7.1-1.2,11.5-3.3c6.5-2.9,7.3-10.3,4.1-16c-1.7-2.3-3.9-4.1-6.4-5.3C100.9,160.4,99.1,161.1,100,163z"/>
									<path class="st21" d="M27,166.2c17.7,5.1,35.8,8.5,54.2,10.3c6.4,0.5,12.7,0,18.9-1.4c2.6-0.6,3-2.3,0.8-2.4
										c-8.1-0.1-16.1-0.7-24-1.8c-17.6-2.4-31.9-4.6-49.2-7.5C25.6,163.1,24.7,164.9,27,166.2z"/>
									<path class="st22" d="M20,173.7c13.8,8.7,33.2,12.4,45.5,13.9c6.8,0.2,12.5,0.3,18.1-0.5c8.1-1.2,6.2-2.5-0.5-2.6
										s-13.3-0.7-20-1.9c-14.1-1.7-19.4-3.9-31-6.6C30.7,175.9,18.5,172.5,20,173.7z"/>
									<path class="st23" d="M69.8,203.8c-19.5-1.5-34.9-9.3-49.6-9c-0.9-0.5-1.5-1.5-1.5-2.5c0,0,0.1,0,0.1,0.1
										c20-0.5,41.5,13.8,72.5,7.7c4.4-0.6,8.9-0.8,13.4-0.5c-0.1,0.8-0.4,1.6-0.8,2.4c-4.4-0.4-8.8-0.2-13.2,0.5
										C83.9,203.9,76.8,204.4,69.8,203.8z"/>
									<path class="st24" d="M45.8,157.2c3.9-2.7,18-3.2,31.3-1s21,6.1,17.1,8.8s-18,3.2-31.3,1S41.9,159.9,45.8,157.2z"/>
									<path class="st24" d="M30.6,172.1c3.9-0.8,17.8,0.5,31,2.9s20.9,5.1,17,6c-3.9,0.8-17.8-0.5-31-2.9S26.8,173,30.6,172.1z"
										/>
									<path class="st24" d="M48.2,193.4c2.4-1.5,11.3-1.8,19.8-0.5s13.3,3.6,10.9,5.3c-2.4,1.6-11.3,1.8-19.8,0.5
										S45.8,194.9,48.2,193.4z"/>
									<path class="st20" d="M41.5,154.7c-3.6,3.7-1.6,11.6,2.4,14.7l-6.9-1.5c-4.4-2.4-5.4-8.8-2.1-10.6L41.5,154.7z"/>
									<path class="st20" d="M20.1,173.8c-3-3.1-2.8-5.5-0.6-7.5c1.5-0.5,3.8-0.4,6.2-0.1c-3.3,2.9-2.5,6.4,0,10.3
										C23.7,175.8,21.8,174.9,20.1,173.8z"/>
									<path class="st25" d="M40.7,157.8l1.7-0.5l1.8-0.3l1.8-0.3l1.8-0.2l1.8-0.2l1.8-0.2l1.8-0.2l1.8-0.1l1.8-0.1h1.8h1.8h1.8
										H64l2,0.3l1.8,0.1l1.8,0.1l1.8,0.2l1.8,0.2l1.8,0.2l1.8,0.3l1.8,0.3l1.8,0.3l1.8,0.4l1.8,0.4l1.8,0.4l1.8,0.5l1.8,0.5
										l1.8,0.5l1.8,0.5l1.8,0.5l1.8,0.6l1.7,0.7l-0.7-0.2c-1.5-0.3-2.9-0.7-4.4-1.1c-1.9-0.5-3.8-1-5.8-1.4
										c-6-1.4-12.2-2.2-18.2-2.6c-5.9-0.5-11.9-0.5-17.9-0.2c-1.6,0.1-3.4,0.2-5,0.4c-0.8,0.1-1.7,0.2-2.4,0.2
										c-0.4,0-0.7,0.1-1.1,0.1s-0.7,0-1.1,0L40.7,157.8z"/>
									<polygon class="st25" points="40,159.1 41.8,158.9 43.7,158.9 47.3,158.9 50.9,158.9 54.6,159 58.2,159.2 61.9,159.4 
										65.5,159.6 69.2,159.9 72.9,160.2 76.5,160.5 80.2,161 83.9,161.5 87.6,161.9 91.3,162.5 94.9,163.2 96.8,163.5 98.6,164 
										96.7,163.9 94.8,163.7 91.2,163.3 87.5,162.8 83.8,162.4 80.1,162 76.4,161.6 72.8,161.3 69.1,161 65.4,160.7 61.8,160.5 
										58.2,160.2 54.6,160 50.9,159.8 47.3,159.5 43.7,159.4 41.8,159.3 									"/>
									<polygon class="st25" points="39.9,160.8 41.7,160.9 43.5,161.1 47.1,161.4 50.7,161.7 54.4,162.1 58.1,162.4 61.7,162.7 
										65.3,163 69.1,163.3 72.7,163.5 76.4,163.8 80.1,164 83.9,164.3 87.6,164.4 91.3,164.6 95,164.8 96.9,164.9 98.8,165.2 
										96.9,165.4 95,165.4 91.3,165.4 87.6,165.3 83.8,165.2 80,165 76.3,164.8 72.6,164.6 69,164.4 65.3,164.1 61.6,163.7 
										57.9,163.4 54.3,163 50.6,162.5 47,162.1 43.4,161.5 41.7,161.3 									"/>
									<path class="st25" d="M33.5,192.9l1.7-0.3l1.7-0.1l1.7-0.1l1.7-0.1l1.8-0.1l1.7-0.1h1.8h1.8h1.8H51h2l1.8,0.1l1.8,0.1
										l1.8,0.1l1.8,0.1l1.8,0.1l1.8,0.2l1.8,0.2l1.8,0.2l1.8,0.2l1.8,0.2l1.8,0.3l1.8,0.3l1.8,0.3l1.8,0.3l1.8,0.3l1.8,0.4
										l1.8,0.4l1.8,0.4l1.8,0.4l1.8,0.5l1.8,0.5c-0.6-0.1-1.3-0.1-1.9-0.2c-0.4-0.1-0.7-0.1-1.1-0.2c-0.7-0.1-1.5-0.3-2.2-0.4
										c-1.9-0.3-3.9-0.6-5.8-0.9c-6.1-0.8-12.2-1.5-18.4-2c-5.9-0.5-11.9-0.6-17.8-0.7c-1.9,0-3.8,0-5.6-0.1h-1.7
										c-0.4,0-0.7,0-1.1,0C34.7,193,34,193,33.5,192.9z"/>
									<polygon class="st25" points="32.1,193.4 34,193.4 35.9,193.5 37.7,193.6 39.6,193.7 41.4,193.8 43.3,194 45.2,194.1 
										47.1,194.3 49.1,194.5 51,194.6 54.9,194.9 58.9,195.2 62.8,195.6 70.8,196.2 74.8,196.6 78.8,196.8 82.7,197.2 
										86.6,197.7 90.5,198 92.4,198.3 94.2,198.6 92.3,198.6 90.4,198.6 86.5,198.4 82.6,198.1 78.7,197.8 74.7,197.6 
										70.7,197.3 62.7,196.7 58.8,196.3 54.8,195.9 50.9,195.6 49,195.4 47.1,195.2 45.1,195 43.2,194.8 41.4,194.7 39.5,194.4 
										37.6,194.2 35.8,193.9 34,193.7 									"/>
									<polygon class="st25" points="25.2,172.1 27.2,172.3 29.2,172.6 33.2,173.3 37.1,174.1 41.1,174.8 45.1,175.5 49.1,176.2 
										53.1,177 57.1,177.6 61.2,178.2 65.2,178.9 69.2,179.5 73.2,180.1 77.3,180.7 81.4,181.2 85.5,181.8 87.6,182.1 
										89.7,182.5 87.6,182.5 85.5,182.3 81.3,182 77.2,181.5 73.1,181 69.1,180.5 65,180 61,179.3 56.9,178.7 52.9,178.1 
										48.9,177.3 44.9,176.5 40.9,175.8 37,175 33,174.1 29.1,173.2 27.2,172.7 									"/>
									<polygon class="st25" points="25.4,170.4 27.4,170.5 29.4,170.7 33.3,171.3 37.3,171.7 41.2,172.3 45.2,172.9 49.1,173.5 
										53.1,174.2 57.1,174.8 61,175.5 65,176.2 69,177 73.1,177.7 77,178.5 81.1,179.3 85.1,180.2 87.2,180.7 89.2,181.2 
										87.1,181 85,180.7 81,180.1 76.9,179.3 72.9,178.7 68.8,178 64.8,177.2 60.8,176.6 56.9,175.9 52.9,175.2 48.9,174.5 
										45,173.9 41.1,173.2 37.1,172.6 33.2,172 29.3,171.3 27.3,170.9 									"/>
								</g>
								<path class="st13" d="M132.6,181c1.9,1.5,3.3,3.4,4,5.6c3.6-2.2,8.3-2.2,11.9,0c-0.1-0.7-0.4-1.5-0.7-2.1
									c-3.7-2.1-7.2-1.5-10.3,0.5c-1.2-2.6-2.7-3.4-4.4-4.5L132.6,181z"/>
								<path class="st26" d="M126.2,190.4c1.5-0.8,3.5-0.5,4.7,0.8s1,3.1-0.4,3.9c-1.4,0.9-3.5,0.5-4.7-0.8
									C124.6,193,124.8,191.2,126.2,190.4z"/>
								<path class="st27" d="M137.4,177.8c1.4-0.2,2.8,0.8,3.2,2.3c0.5,1.5-0.3,2.7-1.6,2.9c-1.4,0.2-2.8-0.8-3.2-2.3
									S136,178,137.4,177.8z"/>
								<path class="st28" d="M135.3,103.5c3.6-9.8,4.9-20.2,3.7-30.7c0.5-3.5,1.8-6.3,5.3-6.9l1.3-0.1c-1.3,1.3-1.8,3.2-2.2,5.4
									c1.2,10.6-0.1,21.3-3.7,31.3c-7,17.8-13.9,37-12.7,59.3l-1,0.2C124.8,140.2,128.3,121,135.3,103.5z"/>
								<path class="st28" d="M-17.4,208.6c5.2,3.4,10.3,4,15.3-0.3c9.6-9.3,23-12.2,37.4-7.1c44.1,15.4,80.6,10.7,120-1.2
									c2.4-0.6,5.4-1.8,7.5-3.4c-0.7,1.3-1.5,2.5-2.5,3.6c-1.6,2.1-4.8,1.3-8.3,2.8c-37.6,12-72.6,16.2-114.5,1
									c-13.7-5.1-26.4-0.9-35.7,8.3C-4.5,218.2-11.4,215.4-17.4,208.6z"/>
								<path class="st28" d="M158.8,199.3c3.2-3.1,3.5-9.2,3.7-15.5c0.8-10.6,3.1-27.8,5-41.8c2-12.1,1.8-23.7-0.7-34.7
									c-2-8.8-3-17.8-3.2-26.8c0.6-6.4,1.5-13.3-1.2-18l0,0l1.1,1.1c3.1,4.7,3.8,10.6,3.1,17.3c0.2,8.9,1.2,17.8,3.2,26.4
									c2.6,10.9,2.7,22.3,0.8,34.2c-2,13.9-4.3,30.8-5,41.2c-0.1,6.3-0.5,12.2-3.7,15.2c-0.8,1-1.9,1.4-3.3,1.5L158.8,199.3z"/>
								<path class="st28" d="M110.8,159.8c-18.5-13-49.2-15.9-72.7-9.6c-4.4,1.2-5.7,1.5-11.8-0.7c-12.7-3.9-22.3-7.1-37-5.8
									c-7.6,0.7-8.3,0.1-11.1-0.2c-4.1-0.3-6.4,4-7.6,6c0-0.2,0-0.5,0.1-0.6c0.2-2.5,1.1-7.3,7.5-6.9c2.7,0.3,3.4,0.9,11,0.2
									c14.1-2.2,24.3,0.3,37.4,5.1c6.1,2.2,7.3,1.9,11.7,0.6c23.4-6.3,54.5-3.7,72.8,9.2c5.3,2.7,10.8,5.8,15.1,4.7h0.5l0.5,0.5
									l0,0C123,163.5,116.1,162.5,110.8,159.8z"/>
								<path class="st28" d="M118.7,25.1c3.4-1.5,7.2-2.5,10.8,0.8l10.3,11.3c2.4,2.6,4.8,5.3,7.1,8.8c2.9,3.4,6.4,6.4,10.1,8.9
									c3.7,3,6.7,6.7,8.3,12.1l-0.8,3c-1.2-5.4-4.4-10-8.8-13.2c-3.9-2.4-7.3-5.5-10.2-9.3c-2.2-3.4-4.6-6.4-7.1-9.6l-9.7-10.5
									C125.9,24.1,122.2,24.3,118.7,25.1z"/>
								<g class="st29">
									<path d="M123,168.4c-3.4-0.3-6.6-1-9.8-2.1c-5.5-2.1-8.7-5.8-17.5-8.7c-10.2-3.8-21-5.4-32.4-5.4
										c-17.6-0.9-24.1,3.6-31,5.6c-3.8,0.8-7.7,1.1-11.6,0.7c-0.9-0.1-0.5,0.6,0.1,0.8c1.3,0.5,2.6,0.7,4,1
										c-0.1,0.3-0.2,0.6-0.2,1c-1.5-0.2-3-0.5-4.4-0.7c-0.7-0.1-0.5,0.4,0.3,0.7c1.5,0.6,2.9,1.2,4.4,1.5
										c0.1,0.2,0.1,0.5,0.2,0.6c-1.3-0.1-2.4-0.1-3.6-0.2c-0.9-0.1-0.8,0.5,0.1,0.7c1.9,0.5,3.6,1.2,5.1,1.8l0,0l0.8,0.4
										c-2.4-0.5-4.9-0.7-7.3-0.5c-2.4-0.1-4.9,0.4-7.1,1.3c-0.4,0.2-0.6,0.6,0,0.5c0.8-0.1,1.5-0.2,2.3-0.3
										c-0.1,0.2-0.2,0.3-0.2,0.5c-0.4,0-0.7,0.1-1.1,0.2c-0.5,0.1-0.4,0.4,0.2,0.4H15c0,0.1,0,0.2-0.1,0.3
										c-0.9,0-1.8,0.1-2.7,0.2c-0.6,0.1-0.5,0.5,0.2,0.5c0.8,0,1.6,0.1,2.4,0.2c0,0.1,0,0.3,0,0.4c-0.5,0-0.8-0.1-1.3,0
										c-0.5,0-0.5,0.3,0.1,0.4c0.5,0.1,0.9,0.2,1.3,0.3c0,0.1,0.1,0.2,0.1,0.3c-0.9-0.1-1.9-0.3-2.9-0.5
										c-0.5-0.1-0.5,0.3,0.2,0.5c1.8,0.8,3.3,1.5,5.3,2.4c4.9,2.7,9.9,5.2,15.1,7.3c28.1,10.8,55.8,11.9,82.3-2.5l0.1-0.1
										c2.3-0.6,4.6-1.1,7-1.4c1-0.1,1.2-0.6,0.3-0.6c-1.8-0.1-3.5,0-5.3,0.2c0.2-0.2,0.3-0.5,0.5-0.6c0.7-0.2,1.5-0.3,2.4-0.5
										c1-0.1,1.2-0.5,0.3-0.6c-0.7-0.1-1.5-0.2-2.1-0.3c0.1-0.2,0.1-0.3,0.1-0.5c1.5-0.2,2.8-0.5,4.2-0.9
										c0.9-0.3,1.1-0.7,0.4-0.7c-1.5,0.1-2.9,0.1-4.4,0.1c0-0.2,0-0.5,0-0.6l2-0.3c0.9,0,1.2-0.5,0.3-0.6
										c-0.9-0.1-1.7-0.3-2.5-0.5c-0.1-0.2-0.1-0.5-0.2-0.6c1.7,0.1,3.4,0,5.1-0.3C123.3,169.1,123.9,168.5,123,168.4z"/>
									<path d="M108.1,198.3c-1.6-0.3-3.4-0.5-5.1-0.5c-10.9-1-20.7-3-31.5-5.7c-8.1-1.8-17.1-1.6-26.4-0.6
										c-8.1,1.1-15.5,0.7-22.4-1.3l0,0c-0.5-0.2-1.2-0.4-2-0.6l0,0l0,0c-1-0.3-2.2-0.5-3.7-0.9c-0.5-0.1-0.3,0.3-0.1,0.4
										c0.9,0.5,1.8,0.9,2.8,1.1c-0.2,0.2-0.4,0.5-0.5,0.7c-0.7-0.2-1.5-0.4-2.2-0.6c-0.4-0.1-0.3,0.2,0.1,0.5
										c0.5,0.4,1.1,0.7,1.7,1c0,0.1-0.1,0.2-0.1,0.3c-0.7-0.2-1.5-0.4-2.4-0.5c-0.5-0.1-0.5,0.2,0,0.5c0.9,0.5,1.6,1.1,2.3,1.5
										c0,0.1,0,0.2,0,0.4c-0.9-0.2-1.8-0.4-2.6-0.7c-0.5-0.2-0.5,0.1,0,0.4c1.7,1.9,3,2.1,3.9,2.1c0.1,0,0.1,0.1,0.2,0.1
										c19.7-0.5,40.8,13.8,71.4,7.7c3.8-0.5,7.7-0.7,11.5-0.5l0,0c0.6,0.1,1.7,0.4,4.4-0.4c0.4-0.1,0.5-0.3,0.1-0.3
										c-0.7,0-1.5-0.1-2.3-0.3c0-0.1,0.1-0.2,0.1-0.3c0.5-0.2,1.3-0.3,2.2-0.5c0.5,0,0.6-0.3,0.2-0.4c-0.7-0.1-1.5-0.2-2.1-0.3
										c0-0.1,0-0.2,0-0.3c0.5-0.1,1.2-0.2,1.7-0.3c0.4-0.1,0.5-0.4,0.2-0.4c-0.6,0-1.4-0.1-2-0.2c-0.1-0.3-0.1-0.5-0.2-0.7
										c0.9,0.1,1.8,0.1,2.7,0C108.3,198.6,108.4,198.4,108.1,198.3z"/>
								</g>
								<path class="st30" d="M22.7,159.9c0.6,0.2,1.4,0.3,2,0.4c-0.1,0.3-0.2,0.6-0.2,1c-0.6-0.1-1.4-0.2-2-0.3"/>
								<path class="st31" d="M20.3,160.6l-0.3-0.1c-0.7-0.1-0.5,0.4,0.3,0.7c0.5,0.2,0.9,0.4,1.5,0.5"/>
								<path class="st30" d="M22.8,162.3c0.6,0.2,1.3,0.5,1.9,0.6c0.1,0.2,0.1,0.5,0.2,0.6c-0.6-0.1-1.4-0.1-2-0.1"/>
								<path class="st32" d="M20.7,163.7c0.2,0.2,0.5,0.3,0.6,0.4c1,0.4,2,0.6,2.9,1"/>
								<path class="st30" d="M25.4,165.4c0.4,0.1,0.6,0.3,1,0.4l0,0l0.8,0.4c-0.6-0.2-1.4-0.3-2-0.4"/>
								<path class="st33" d="M20.6,165.7h-0.7c-2.1-0.1-4.2,0.3-6.2,1"/>
								<path class="st30" d="M13.1,167.6c0.7-0.1,1.4-0.2,2-0.2c-0.1,0.2-0.2,0.3-0.2,0.5c-0.4,0-0.7,0.1-1.1,0.2
									c-0.5,0.1-0.4,0.4,0.2,0.4h0.7c0,0.1,0,0.2-0.1,0.3c-0.6,0-1.4,0-2,0.1"/>
								<path class="st30" d="M12.6,169.3c0.7,0,1.4,0.1,2,0.2c0,0.1,0,0.3,0,0.4c-0.5,0-0.8-0.1-1.3,0c-0.5,0-0.5,0.3,0.1,0.4
									c0.5,0.1,0.9,0.2,1.3,0.2c0,0.1,0.1,0.2,0.1,0.3c-0.6-0.1-1.4-0.2-2-0.3"/>
								<path class="st34" d="M13.9,171.6c1.1,0.5,2.2,1,3.5,1.6c4.9,2.7,9.9,5.2,15.1,7.3c28.1,10.8,55.8,11.9,82.3-2.5l0.1-0.1
									c2.3-0.6,4.6-1.1,7-1.4c1-0.1,1.2-0.6,0.3-0.6c-0.5,0-0.9,0-1.4,0"/>
								<path class="st30" d="M118.8,176c-0.6,0-1.4,0.1-2,0.2c0.2-0.2,0.3-0.5,0.5-0.6c0.6-0.1,1.3-0.3,2-0.4"/>
								<path class="st30" d="M119.8,174.3c-0.6-0.1-1.4-0.2-2-0.3c0.1-0.2,0.1-0.3,0.1-0.5c0.6-0.1,1.3-0.2,2-0.4"/>
								<path class="st35" d="M121.9,172.8l0.2-0.1c0.9-0.3,1.1-0.7,0.4-0.7l-1.3,0.1"/>
								<path class="st30" d="M120.1,172.1c-0.6,0-1.4,0-2,0c0-0.2,0-0.5,0-0.6c0.6-0.1,1.3-0.2,2-0.4"/>
								<path class="st30" d="M119.9,170.3c-0.6-0.1-1.4-0.2-2-0.4c-0.1-0.2-0.1-0.5-0.2-0.6c0.6,0,1.4,0.1,2,0"/>
								<path class="st36" d="M123.4,168.8c0-0.2-0.1-0.3-0.5-0.3c-3.4-0.3-6.6-1-9.8-2.1c-5.5-2.1-8.7-5.8-17.5-8.7
									c-10.2-3.8-21-5.4-32.4-5.4c-17.6-0.9-24.1,3.6-31,5.6c-3.8,0.8-7.7,1.1-11.6,0.7c-0.9-0.1-0.5,0.6,0.1,0.8l0.2,0.1"/>
								<path class="st30" d="M24.7,190.8c-0.6-0.2-1.3-0.4-1.9-0.5l0,0c-0.5-0.2-1.2-0.4-2-0.6l0,0l0,0c-0.5-0.2-1.2-0.4-1.9-0.5"
									/>
								<path class="st30" d="M18,189.6c0.6,0.3,1.3,0.5,1.9,0.6c-0.2,0.2-0.4,0.5-0.5,0.7c-0.6-0.2-1.3-0.4-1.9-0.5"/>
								<path class="st30" d="M17.2,190.8L17.2,190.8c0.5,0.4,1.1,0.7,1.7,1c0,0.1-0.1,0.2-0.1,0.3c-0.6-0.2-1.3-0.3-2-0.5"/>
								<path class="st30" d="M17,192.4c0.6,0.5,1.2,0.8,1.6,1.1c0,0.1,0,0.2,0,0.4c-0.6-0.1-1.3-0.3-1.9-0.5"/>
								<path class="st37" d="M17.8,194.8c0.6,0.4,1.4,0.6,2.2,0.6c0.1,0,0.1,0.1,0.2,0.1c19.7-0.5,40.8,13.8,71.4,7.7
									c2.5-0.4,5.1-0.5,7.6-0.6"/>
								<path class="st30" d="M101,202.6c0.6,0,1.4,0,2,0.1l0,0c0.6,0.1,1.4,0.2,2,0.1"/>
								<path class="st30" d="M107.2,202.1c-0.6,0-1.4-0.1-2-0.3c0-0.1,0.1-0.2,0.1-0.3c0.5-0.1,1.2-0.3,2-0.5"/>
								<path class="st30" d="M107.5,200.7c-0.7-0.1-1.4-0.2-2-0.3c0-0.1,0-0.2,0-0.3c0.5-0.1,1.2-0.2,1.7-0.3
									c0.1,0,0.2-0.1,0.2-0.1"/>
								<path class="st30" d="M107.4,199.6c-0.6,0-1.4-0.1-2-0.2c-0.1-0.3-0.1-0.5-0.2-0.7c0.6,0.1,1.4,0.1,2,0"/>
								<path class="st38" d="M105.4,197.9c-1-0.1-1.7-0.2-2.4-0.2c-10.9-1-20.7-3-31.5-5.7c-8.1-1.8-17.1-1.6-26.4-0.6
									c-6.1,0.9-12.3,0.8-18.4-0.3"/>
							</g>
						</g>
					</g>
				</g>
			</g>
			<path class="st2" d="M101.8,116.9c-5.1,0.7-10,2.3-14.5,4.7c-1.3,0.6-2.2-1.2-1.1-2l2.3-12.1c0.4-1.9,0.2-4.4,2.1-5.4
				c0.5-0.2,1-0.1,1.4,0.3l0.2,0.2c0.3,0.3,0.4,0.7,0.2,1.1l-0.1,0.3c-0.2,0.5-0.5,0.7-1,0.7c-0.6,1.7-1,6.4-1.2,7.4
				s-0.4,1.9-0.5,2.9c8-11,17.7-20.6,28.8-28.4c1.2-0.8,2.7,0.9,1.5,1.7c-11.3,8-21.2,17.9-29.2,29.2c3.5-1.5,7.3-2.4,11-3
				C102.9,114.5,103.3,116.7,101.8,116.9z"/>
			<path class="st2" d="M190.4,41.5L190.4,41.5c-0.1-0.4-0.3-0.6-0.5-0.8l-4.4-3.9c-1.9-1.9-3.9-3.7-5.8-5.6l6.9-14.5
				c0.5-1.2-1.3-2.3-2-1.2l-0.2,0.3l0,0l0,0c-0.7,1.2-1.4,2.3-2.1,3.4c1-2.2,1.9-4.4,2.9-6.6c0.5-1.4-1.5-2.3-2.1-0.9
				c-2.4,5.4-4.7,10.7-7.1,16.1l-0.5-0.5c-1.5-1.5-3.4-2.9-5.3-4l-4.8-4.3c-1.1-1-2.5,0.8-1.5,1.8l1.5,1.4c-0.4,0-0.7,0-1.1,0.1
				c-0.9,0.1-1.5,1.5-0.5,2c3.6,2.2,7.2,4.5,10.6,7.1l-7,16c-0.6,1.4,1.5,2.3,2.1,0.9c0.1-0.3,0.3-0.5,0.4-0.7
				c0.3,0.3,0.7,0.4,1.1,0.2c1.6-0.7,2-2.5,2.7-4l4.2-8.8c0.1-0.3,0.3-0.5,0.4-0.8c2.3,1.7,4.5,3.5,6.7,5.4l4,3.7
				C190,44.3,191.4,42.6,190.4,41.5z"/>
		</g>
	</g>
</g>
</svg>
