<?xml version="1.0" encoding="utf-8"?>
<!-- Generator: Adobe Illustrator 25.3.1, SVG Export Plug-In . SVG Version: 6.00 Build 0)  -->
<svg version="1.1" id="圖層_1" xmlns="http://www.w3.org/2000/svg" xmlns:xlink="http://www.w3.org/1999/xlink" x="0px" y="0px"
	 viewBox="0 0 150 200" style="enable-background:new 0 0 150 200;" xml:space="preserve">
<style type="text/css">
	.st0{opacity:0.3;}
	.st1{fill:#E8DCD3;}
	.st2{fill:#969696;}
	.st3{fill:#BCB3AD;}
	.st4{opacity:0.5;fill:#CCC2BA;}
	.st5{fill:#EBE1E9;}
	.st6{fill:#CCC2BA;}
	.st7{fill:#DB453A;}
</style>
<g>
	<g id="圖層_2_1_">
		<g id="artwork">
			<path class="st0" d="M147.2,0l2.7,22.4L145,35.2l4.9,17.8v6.6l-6.2,9.6V76l6.2,23.6l-4.4,11.4l1.4,15.5c0,0-0.5,5.4,0,6.5
				s3.1,6.7,3.1,6.7v16.1l-4.4,2.9l1.7,7.7L145,171l4.9,11.5V200l-13.6-6.8l-9.2,3.4h-15.9l-3-2.1l-11.3,0.3l-19.1-2.4l-4.8,4.2
				l-34-3.4l-13.2-3.7L16.7,200L0.1,189.6L147.2,0z"/>
			<polygon class="st1" points="14.4,194.5 28.7,186.7 38.7,191.5 59.5,192.8 73,192.3 77.8,190.2 96.9,193.2 108.1,189.3 
				112.7,194.8 126,194.8 136.3,190.2 147.2,194.8 147.2,183.2 142.4,168.9 145,164.1 142.4,157.6 147.2,151.6 147.2,137.3 
				143.3,132.5 145.4,126 142.4,109 147.2,95.6 141.5,72.6 143.3,61.8 147.2,58.2 147.2,51 140.7,30.1 147.2,18 147.2,0 0.1,0 
				0.1,189.6 			"/>
			<path class="st2" d="M50.7,98.9c-0.3-6.2-1.1-12.3-2.4-18.3c-0.1-5.6-3.2-15.3-4.7-18.3s-7-4-8.4-4.2c-1.4-0.3-2-2.1-2-4.2
				c1.8-2,1.9-4.1,2.2-6.3c0.7-4.7-1.1-9-5.5-9h-0.2c-4.6,0-6.4,4.7-5.3,9.7c0.4,1.9,0.5,3.9,2,5.6c0,2.1-0.6,3.9-2,4.2
				s-7,1.1-8.5,4.1s-4.5,12.9-4.6,18.4C10,86.6,9.2,92.8,9,98.9c-1.7,3.2-0.7,10.2,0.2,10.2s1.6-7.2,2.4-6.9
				c0.7,0.3,0.4,3.2,0.8,2.7c0.4-0.4,1.5-3.5,0.1-6.7c2.9-8.6,4.4-14.6,4.3-16.8c1.2-3.4,2.4-5.7,2.4-5.7s0.7,11.3,0.5,11.5
				c-0.8,7-0.8,9.1-0.8,9.1c-1,5.4-3.3,10.8,0.3,23.4l0.1,7c-2.7,9.6,0.8,22.4,1.6,24.7c0.8,3.8-4.3,9.2-2.4,9.8
				c1.9,0.5,4.7-0.8,6.4-4.6s1.1-4.8,0.3-7.8s2-11.9,0.3-21.3c1.8-7.7,3.2-15.4,4.2-23.2h0.5c1,7.8,2.4,15.5,4.2,23.2
				c-1.7,9.4,1.1,18.4,0.3,21.3c-0.8,2.9-1.5,4,0.3,7.8c1.7,3.8,4.6,5.1,6.4,4.6c1.9-0.5-3.2-6-2.4-9.8c0.8-2.3,4.3-15,1.6-24.7
				l0.1-7c3.6-12.6,1.3-18,0.3-23.4c0,0,0-2.1-0.8-9.1c-0.1-0.3,0.5-11.5,0.5-11.5s1.1,2.4,2.4,5.7c-0.1,2.2,1.3,8.2,4.3,16.8
				c-1.3,3.2-0.3,6.3,0.1,6.7c0.4,0.4,0.1-2.5,0.8-2.7c0.7-0.3,1.4,6.9,2.4,6.9S52.4,102.1,50.7,98.9z"/>
			<path class="st3" d="M68.1,48.8H47.8c-0.3,0-0.6-0.2-0.7-0.5c0-0.3,0.2-0.6,0.5-0.7h0.1h20l11-11c0.1-0.1,0.3-0.2,0.4-0.2H88
				c0.3,0,0.6,0.3,0.6,0.6s-0.3,0.6-0.6,0.6h-8.6l-11,11C68.4,48.7,68.2,48.8,68.1,48.8z"/>
			<g>
				<path class="st3" d="M97.9,31c0,3.1-1.6,4.6-3.5,4.6c-1.8,0-3.4-1.5-3.4-4.4s1.6-4.6,3.5-4.6C96.5,26.7,97.9,28.2,97.9,31z
					 M92.5,31.2c0,1.9,0.7,3.3,1.9,3.3c1.2,0,1.9-1.4,1.9-3.3c0-1.8-0.5-3.3-1.9-3.3C93.2,27.9,92.5,29.3,92.5,31.2L92.5,31.2z
					 M94.2,41.8l8.6-15.1h1.3l-8.6,15.1H94.2z M107.4,37.1c0,3.1-1.6,4.6-3.5,4.6s-3.4-1.5-3.4-4.4s1.6-4.6,3.5-4.6
					C106.1,32.7,107.4,34.3,107.4,37.1L107.4,37.1z M102,37.2c0,1.9,0.7,3.3,1.9,3.3c1.3,0,1.9-1.4,1.9-3.3c0-1.8-0.5-3.3-1.9-3.3
					C102.7,33.9,102,35.4,102,37.2z"/>
			</g>
			<path class="st3" d="M123,31.3h-9c-0.9,0-1.6-0.7-1.6-1.6l0,0l0,0c0-0.9,0.7-1.6,1.6-1.6l0,0h9c0.9,0,1.6,0.7,1.6,1.6l0,0l0,0
				C124.6,30.6,123.9,31.3,123,31.3L123,31.3z"/>
			<path class="st3" d="M131.6,37.8H114c-0.9,0-1.6-0.7-1.6-1.6l0,0l0,0c0-0.9,0.7-1.6,1.6-1.6l0,0h17.7c0.9,0,1.6,0.7,1.6,1.6l0,0
				l0,0C133.3,37,132.5,37.8,131.6,37.8L131.6,37.8z"/>
			<path class="st3" d="M67.8,83.4H57.2c-0.3,0-0.6-0.3-0.5-0.7c0-0.3,0.3-0.5,0.5-0.5h10.3l11-11c0.1-0.1,0.3-0.2,0.4-0.2h8.9
				c0.3,0,0.6,0.2,0.7,0.5c0,0.3-0.2,0.6-0.5,0.7h-0.1h-8.6l-11,11C68.1,83.3,68,83.4,67.8,83.4z"/>
			<g>
				<path class="st3" d="M97.9,67.3c0,3.1-1.6,4.6-3.5,4.6c-1.8,0-3.4-1.5-3.4-4.4s1.6-4.6,3.5-4.6C96.5,62.9,97.9,64.5,97.9,67.3z
					 M92.5,67.4c0,1.9,0.7,3.3,1.9,3.3c1.2,0,1.9-1.4,1.9-3.3c0-1.8-0.5-3.3-1.9-3.3C93.2,64.1,92.5,65.6,92.5,67.4L92.5,67.4z
					 M94.2,78.1l8.6-15.1h1.3l-8.6,15.1H94.2z M107.4,73.4c0,3.1-1.6,4.6-3.5,4.6s-3.4-1.5-3.4-4.4s1.6-4.6,3.5-4.6
					C106.1,69,107.4,70.6,107.4,73.4L107.4,73.4z M102,73.5c0,1.9,0.7,3.3,1.9,3.3c1.3,0,1.9-1.4,1.9-3.3c0-1.8-0.5-3.3-1.9-3.3
					C102.7,70.2,102,71.6,102,73.5L102,73.5z"/>
			</g>
			<path class="st3" d="M123,67.6h-9c-0.9,0-1.6-0.7-1.6-1.6l0,0l0,0c0-0.9,0.7-1.6,1.6-1.6l0,0h9c0.9,0,1.6,0.7,1.6,1.6l0,0l0,0
				C124.6,66.9,123.9,67.6,123,67.6L123,67.6z"/>
			<path class="st3" d="M131.6,74H114c-0.9,0-1.6-0.7-1.6-1.6l0,0l0,0c0-0.9,0.7-1.6,1.6-1.6l0,0h17.7c0.9,0,1.6,0.7,1.6,1.6l0,0
				l0,0C133.3,73.3,132.5,74,131.6,74L131.6,74z"/>
			<path class="st3" d="M67,118.9H56.4c-0.3,0-0.6-0.3-0.6-0.6c0-0.3,0.3-0.6,0.6-0.6l0,0h10.3l11-11c0.1-0.1,0.3-0.2,0.4-0.2H87
				c0.3,0,0.6,0.3,0.5,0.7c0,0.3-0.3,0.5-0.5,0.5h-8.6l-11,11C67.3,118.8,67.2,118.9,67,118.9z"/>
			<g>
				<path class="st3" d="M97.1,102.8c0,3.1-1.6,4.6-3.5,4.6s-3.4-1.5-3.4-4.4s1.6-4.6,3.5-4.6C95.7,98.4,97.1,100,97.1,102.8z
					 M91.7,102.9c0,1.9,0.7,3.3,1.9,3.3c1.3,0,1.9-1.4,1.9-3.3c0-1.8-0.5-3.3-1.9-3.3C92.4,99.6,91.7,101.1,91.7,102.9z M93.4,113.5
					l8.6-15.1h1.3l-8.6,15.1H93.4z M106.6,108.8c0,3.1-1.6,4.6-3.5,4.6s-3.4-1.5-3.4-4.4s1.6-4.6,3.5-4.6
					C105.3,104.5,106.6,106,106.6,108.8L106.6,108.8z M101.3,109c0,1.9,0.7,3.3,1.9,3.3c1.3,0,1.9-1.4,1.9-3.3
					c0-1.8-0.5-3.3-1.9-3.3C101.9,105.7,101.2,107.1,101.3,109L101.3,109z"/>
			</g>
			<path class="st3" d="M122.2,103.1h-9c-0.9,0-1.6-0.7-1.6-1.6l0,0l0,0c0-0.9,0.7-1.6,1.6-1.6l0,0h9c0.9,0,1.6,0.7,1.6,1.6l0,0l0,0
				C123.8,102.3,123.1,103.1,122.2,103.1z"/>
			<path class="st3" d="M130.8,109.5h-17.7c-0.9,0-1.6-0.7-1.6-1.6l0,0l0,0c0-0.9,0.7-1.6,1.6-1.6l0,0h17.7c0.9,0,1.6,0.7,1.6,1.6
				l0,0l0,0C132.5,108.8,131.7,109.5,130.8,109.5z"/>
			<path class="st3" d="M67.8,152.3H57.2c-0.3,0-0.6-0.3-0.5-0.7c0-0.3,0.3-0.5,0.5-0.5h10.3l11-11c0.1-0.1,0.3-0.2,0.4-0.2h8.9
				c0.3,0,0.6,0.3,0.6,0.6s-0.3,0.6-0.6,0.6h-8.6l-11,11C68.1,152.2,68,152.3,67.8,152.3z"/>
			<g>
				<path class="st3" d="M97.9,136.2c0,3.1-1.6,4.6-3.5,4.6c-1.8,0-3.4-1.5-3.4-4.4s1.6-4.6,3.5-4.6
					C96.5,131.8,97.9,133.4,97.9,136.2z M92.5,136.3c0,1.9,0.7,3.3,1.9,3.3c1.2,0,1.9-1.4,1.9-3.3c0-1.8-0.5-3.3-1.9-3.3
					C93.2,133,92.5,134.5,92.5,136.3L92.5,136.3z M94.2,147l8.6-15.2h1.3l-8.6,15.1L94.2,147z M107.4,142.2c0,3.1-1.6,4.6-3.5,4.6
					s-3.4-1.5-3.4-4.4s1.6-4.6,3.5-4.6C106.1,137.9,107.4,139.4,107.4,142.2L107.4,142.2z M102,142.4c0,1.9,0.7,3.3,1.9,3.3
					c1.3,0,1.9-1.4,1.9-3.3c0-1.8-0.5-3.3-1.9-3.3C102.7,139,102,140.5,102,142.4L102,142.4z"/>
			</g>
			<path class="st3" d="M123,136.5h-9c-0.9,0-1.6-0.7-1.6-1.6l0,0c0-0.9,0.7-1.6,1.6-1.6h9c0.9,0,1.6,0.7,1.6,1.6l0,0l0,0
				C124.6,135.7,123.9,136.5,123,136.5L123,136.5z"/>
			<path class="st3" d="M131.6,142.9H114c-0.9,0-1.6-0.7-1.6-1.6l0,0c0-0.9,0.7-1.6,1.6-1.6h17.7c0.9,0,1.6,0.7,1.6,1.6l0,0l0,0
				C133.3,142.2,132.5,142.9,131.6,142.9L131.6,142.9z"/>
			<polygon class="st4" points="140.7,30.1 122.4,48.4 147.2,51 			"/>
			<polygon class="st4" points="147.2,95.6 120.7,100.8 142.4,109 			"/>
			<polygon class="st4" points="145.4,126 136.8,129.1 143.3,132.5 			"/>
			<polygon class="st4" points="147.2,151.6 133.7,152.7 142.4,157.6 			"/>
			<polygon class="st5" points="145,164.1 138.5,162.4 142.4,168.9 			"/>
			<polygon class="st6" points="136.3,190.2 132,184.1 125.5,190.2 112.7,194.8 126,194.8 			"/>
			<polygon class="st4" points="108.1,189.3 102.1,171.8 96.9,193.2 			"/>
			<polygon class="st4" points="77.8,190.2 73.3,184.1 73,192.3 			"/>
			<polygon class="st4" points="28.7,186.7 16.7,184.1 14.4,194.5 			"/>
			<polygon class="st4" points="0.1,99.6 48.4,110.3 79.5,108.2 41.8,129.1 0.1,135.8 			"/>
			<path class="st7" d="M136.6,57.7c-2.5-1.1-5.1-2-7.8-2.6c3-0.6,6.1-1,9.2-1.1c1.1,0,1.1-1.7,0-1.7c-4.6,0.2-9.3,0.9-13.7,2.1
				c-7.1-0.5-14.1,1.3-19.1,6.9c-0.7,0.8,0.5,2,1.2,1.2c3.4-3.8,7.9-5.8,12.6-6.3c-4.2,1.6-8.1,3.8-11.6,6.5
				c-3.4,2.6-5.9,6.1-5.6,10.6c0.3,4.1,2.5,7.8,5.9,10c8.7,5.7,19.3,1.1,26.5-4.8c3.5-2.9,7.1-6.4,7.9-11
				C142.8,63.1,140.6,59.6,136.6,57.7z M134.5,76.2c-6.4,5.7-15.9,10.7-24.4,6.5c-3.8-1.8-6.5-5.6-6.6-9.8c-0.2-4.7,3.3-7.9,7-10.3
				c4.4-2.8,9.2-5,14.2-6.4c2,0.2,4,0.6,5.9,1.1c4.4,1.2,10.1,3,10.1,8.5C140.6,70.2,137.5,73.5,134.5,76.2L134.5,76.2z"/>
			<path class="st7" d="M133.9,111.3c-2.4-7.5-5.8-14.7-10-21.3c0-0.1,0-0.2,0-0.3l7.4,2.9c1,0.4,1.4-1.2,0.4-1.6l-8.4-3.3
				c-0.7-0.3-1.2,0.5-0.9,1.1c-0.1,0.1-0.1,0.3-0.1,0.5c-0.1,3.7-0.5,7.3-1.2,10.9c-0.2,1.1,1.4,1.5,1.6,0.4
				c0.5-2.5,0.9-5.1,1.1-7.7c3.6,5.9,6.5,12.3,8.6,18.8C132.6,112.8,134.3,112.4,133.9,111.3z"/>
		</g>
	</g>
</g>
</svg>
