<?xml version="1.0" encoding="utf-8"?>
<!-- Generator: Adobe Illustrator 25.3.1, SVG Export Plug-In . SVG Version: 6.00 Build 0)  -->
<svg version="1.1" id="圖層_1" xmlns="http://www.w3.org/2000/svg" xmlns:xlink="http://www.w3.org/1999/xlink" x="0px" y="0px"
	 viewBox="0 0 100 100" style="enable-background:new 0 0 100 100;" xml:space="preserve">
<style type="text/css">
	.st0{opacity:0.3;}
	.st1{fill:#ADEA71;}
	.st2{fill:#ED1C24;}
</style>
<g id="圖層_2_1_">
	<g id="artwork">
		<g class="st0">
			<path d="M4.5,15.4L16.4,100l63.2-8.4c1.4-5.3,2.8-10.8,2.6-11.3c-0.2-1,8.8-1.2,8.8-1.2l0.9-9.9l8.1-5.5L91.6,3.8L4.5,15.4z"/>
		</g>
		<g>
			<path class="st1" d="M0,11.6l11.9,84.6l63.2-8.4c1.4-5.3,2.8-10.8,2.6-11.3c-0.2-1,8.8-1.2,8.8-1.2l0.9-9.9l8.1-5.5L87.1,0
				L0,11.6z"/>
		</g>
		<path class="st2" d="M40.7,34.2c2.5-8.2,13.5-5.4,14.9,1.6c1.2,5.9-4.2,8.7-8.3,12.4c-3.8,3.5-6.4,8.6-2.1,12.2
			c1.1,1,2.9,1,3.9-0.1c0.5-0.5,0.8-1.2,0.7-1.9c-0.3-6.7,10.7-10.7,12.6-17.6c1.5-5.4-0.5-11.1-5.1-14.6c-4.3-3.3-11.5-5-16.8-1.6
			c-3.8,2.4-5.5,7.2-1.9,9.9C39.4,35,40.6,35,40.7,34.2L40.7,34.2z"/>
		<path class="st2" d="M52,68.4c-1.3-1.2-3.4-1.3-4.8-0.1c-1.8,1.5-1.5,4.2,1,4.9c2.5,0.7,4.7-1.2,4.5-3.3c-0.1,0.4-0.1,0.9-0.2,1.4
			C52.7,70.2,52.8,69.2,52,68.4z"/>
	</g>
</g>
</svg>
