<?xml version="1.0" encoding="utf-8"?>
<!-- Generator: Adobe Illustrator 22.0.1, SVG Export Plug-In . SVG Version: 6.00 Build 0)  -->
<svg version="1.1" id="圖層_1" xmlns="http://www.w3.org/2000/svg" xmlns:xlink="http://www.w3.org/1999/xlink" x="0px" y="0px"
	 viewBox="0 0 100 80" style="enable-background:new 0 0 100 80;" xml:space="preserve">
<style type="text/css">
	.st0{fill:#004498;}
	.st1{fill:#022542;}
	.st2{fill:#1A6EC1;}
</style>
<g>
	<path class="st0" d="M25.2,45.6L35.8,75c0,0,1.3,2.8,2.8,2.8c1.4,0,22.6-22.1,22.6-22.1l23.6-45.5L25.5,38L25.2,45.6z"/>
	<path class="st1" d="M39.3,53.1l-2,21.7c0,0-0.9,6.7,5.8,0c6.7-6.7,13-11.8,13-11.8L39.3,53.1z"/>
	<g>
		<g>
			<path class="st2" d="M25.4,46.6L3.5,39.5c0,0-2.6-1.1-1.8-3.5c0.2-0.5,0.5-0.9,1.6-1.6C8.1,31,93.1,0.5,93.1,0.5s2.4-0.8,3.8-0.3
				c0.6,0.2,1.1,0.5,1.4,1.5c0.1,0.4,0.2,1.2,0.2,1.9c0,0.6-0.1,1.1-0.1,1.9c-0.5,8.3-16,70.7-16,70.7s-0.9,3.6-4.2,3.8
				c-1.2,0-2.7-0.2-4.4-1.7c-6.5-5.6-29-20.7-34-24.1c-0.3-0.2-0.4-0.4-0.4-0.7c-0.1-0.4,0.3-0.8,0.3-0.8s39.2-34.8,40.2-38.5
				c0.1-0.3-0.2-0.4-0.6-0.3c-2.6,1-47.7,29.5-52.7,32.6C26.2,46.7,25.4,46.6,25.4,46.6z"/>
		</g>
	</g>
</g>
</svg>
