<?xml version="1.0" encoding="utf-8"?>
<!-- Generator: Adobe Illustrator 25.3.1, SVG Export Plug-In . SVG Version: 6.00 Build 0)  -->
<svg version="1.1" id="圖層_1" xmlns="http://www.w3.org/2000/svg" xmlns:xlink="http://www.w3.org/1999/xlink" x="0px" y="0px"
	 viewBox="0 0 120 60" style="enable-background:new 0 0 120 60;" xml:space="preserve">
<style type="text/css">
	.st0{opacity:0.26;fill:#DB8851;enable-background:new    ;}
	.st1{fill:#FFFFFF;}
	.st2{fill:#ED1C24;}
</style>
<g>
	<g id="圖層_2_1_">
		<g id="artwork">
			<g>
				<polygon class="st0" points="2.6,2.7 108.7,6.2 120,53 60.8,60 2.6,51.3 				"/>
				<polygon class="st1" points="0,0 106.2,3.5 117.4,50.3 58.2,57.3 0,48.6 				"/>
				<path class="st2" d="M19.4,3.5c-0.9,5-1.7,10.1-2.5,15.1c-0.2,1.1-0.2,5.6-3.1,3.1c-0.6-0.5-0.8-2.8-1-3.6
					c-0.6-2.4-1.2-4.8-1.8-7.2c-0.1-0.4-0.6-0.7-1-0.6c-0.3,0.1-0.5,0.4-0.6,0.7c-2.2,12.4-2.4,24.7,0.8,36.8c0.2,0.6,1.2,0.4,1-0.2
					C9,37.1,8.3,26,10.2,15.3c0.4,2.6,1.1,5.1,2,7.5c0.8,2,2.6,3.2,4.6,1.7c2.2-1.6,2.2-5.7,2.6-8.1l1.1-6.6
					c0.7,5.8,1,11.6,1.1,17.4c0.1,3.5,0.2,7.1,0.5,10.6s0.5,7.5,1.8,10.8c0.3,0.9,1.9,0.6,1.8-0.4c-0.1-3.5-0.9-6.9-1.2-10.4
					c-0.4-4.1-0.5-8.2-0.6-12.3c-0.3-7.4-0.6-14.9-2.2-22.1c-0.1-0.6-0.7-1-1.3-0.9C19.8,2.6,19.5,3,19.4,3.5z"/>
				<path class="st2" d="M32.6,25.8c-0.1,3.1,0,6.2,0.3,9.2c0.2,3,0.2,6.3,1.7,9c0.2,0.3,0.6,0.4,0.9,0.2c0.1-0.1,0.2-0.2,0.3-0.4
					c0.5-2.9-0.3-5.8-0.6-8.7c-0.4-3.1-0.7-6.3-1-9.4C34,24.9,32.6,24.9,32.6,25.8z"/>
				<path class="st2" d="M42.9,33.8c-2.4-1.1-2.7-3.3-1.1-5.5c0.5-0.6,1-1.2,1.6-1.7l1-0.7c0.1,0,0.2-0.1,0.3-0.1
					c-0.2,0.4,0.4,1,0.8,0.6c1-1.2,0.9-2.5-0.9-2.4c-2.6,0.3-5.3,3.7-6,6c-0.7,2.8,1.1,4.7,3.5,5.8c1.3,0.6,4.1,0.9,5.2,1.9
					c1.9,1.9-2.7,3.9-4,4.8c-0.8,0.6-0.1,1.8,0.8,1.6c2.4-0.5,8.9-5,5.4-7.7C47.7,35,44.9,34.8,42.9,33.8z"/>
				<path class="st2" d="M56.1,31.4c-1.7-0.5-3.2-1.3-3.3-3.3c-0.2-2.3,1.7-3.8,3.9-4c0.8-0.1,0.7-1.4-0.1-1.4
					c-4.6-0.2-7.8,4.8-4.8,8.6c1.4,1.9,3.8,2.2,6,2.8c0.5,0.1,1.6,0.3,2,0.6c1,0.9,0.2,2.2-0.4,3c-1.2,1.3-2.4,2.6-3.7,3.7
					c-0.8,0.8,0.1,2.4,1.1,1.7c2.3-1.5,8.4-6.6,5.3-9.6C60.4,32,58,31.9,56.1,31.4z"/>
				<path class="st2" d="M65.2,21.6c0.3,3.6,0.4,7.1,0.8,10.7c0.4,3.3,0.6,7,2.1,10.1c0.3,0.7,1.6,0.5,1.6-0.3
					c0-3.6-1.1-7.1-1.5-10.7c-0.4-3.2,0-7.4-1.7-10.2c-0.2-0.3-0.6-0.4-0.9-0.2C65.3,21,65.1,21.3,65.2,21.6z"/>
				<path class="st2" d="M80.1,20c-2.8,0.8-4.2,5.7-4.9,8.1c-0.1,0.4-0.2,0.9-0.4,1.3c-0.4-2.9-1-5.7-1.7-8.6
					c-0.1-0.4-0.4-0.6-0.8-0.5c-0.4,0.1-0.6,0.4-0.5,0.8l0,0c0.9,5.4,1.6,10.9,2.1,16.4c0,0.9,0.1,1.9,0.2,2.8
					c0.1,1.2,1.9,0.8,1.9-0.4c0-0.4-0.1-0.8-0.1-1.2c-0.1-2.3,0-4.7,0.4-7c0.3-1.6,0.7-3.2,1.3-4.7c0.3-0.9,1.1-3.5,1.8-4
					c0.7-0.4,2,0,2.5,0.8c0.3,0.7,0.5,1.5,0.6,2.2c0.3,1.4,0.6,2.7,0.8,4.1c0.5,3.1,0.8,6.3,0.9,9.5c0.1,1.2,2,1.4,2,0.1
					c0-4.8-0.6-9.5-1.7-14.1C83.9,23.6,83.4,19,80.1,20z"/>
				<path class="st2" d="M106,36.4c-1-2.7-3.4-5-4.2-7.8c0.4-1.2,0.3-2.5-0.2-3.6c-0.4-1-1.7-0.5-1.8,0.4c-0.2,1.1-0.2,2.2,0.1,3.3
					c-1.3,2.5-6.2,3-8.5,2c-2.6-1.2-2.2-4.2-0.7-6.1c0.6-0.7,1.3-1.4,2.1-2l0.6-0.5c1.2-1.2,2.6-1.2,4.1,0.3
					c0.1,0.5,0.8,0.4,0.9-0.1c0.3-1.2-0.3-2.4-1.5-2.8c-1.6-0.6-3.3,0.3-4.6,1.3c-2.9,2.1-6.1,5.8-4.1,9.5c2.3,4.3,9.5,3.7,12.6,0.4
					c1.3,2.7,3.6,4.9,3.9,8c0.3,3.1-2,5-4.6,6.3C97,46.4,94,47,91.2,45.1c-0.4-0.3-1-0.1-1.2,0.3c-0.2,0.3-0.2,0.7,0,1
					c3.6,4.4,11.5,1,14.7-2.6C106.6,41.9,107.1,38.9,106,36.4z"/>
				<path class="st2" d="M66.8,15.7c-0.3,0-0.6,0-0.9,0.1c-0.3,0.1-0.5,0.3-0.7,0.4c-0.5,0.3-1.1,0.5-1.6,0.7c-1,0.4-0.4,2,0.6,1.7
					c0.6-0.2,1.3-0.4,1.9-0.6c0.3-0.1,0.6-0.3,0.9-0.4c0.2-0.2,0.5-0.5,0.6-0.8C68,16.3,67.4,15.6,66.8,15.7z"/>
				<path class="st2" d="M35.1,20.4c-1.8-0.1-3.5,0.6-4.7,2c-0.4,0.5,0.1,1.2,0.7,1.1c0.7-0.2,1.4-0.6,2.1-0.8
					c0.7-0.2,1.5-0.5,2.2-0.8c0.4-0.2,0.5-0.6,0.4-1C35.7,20.5,35.4,20.4,35.1,20.4z"/>
			</g>
		</g>
	</g>
</g>
</svg>
