<?xml version="1.0" encoding="utf-8"?>
<!-- Generator: Adobe Illustrator 25.3.1, SVG Export Plug-In . SVG Version: 6.00 Build 0)  -->
<svg version="1.1" id="圖層_1" xmlns="http://www.w3.org/2000/svg" xmlns:xlink="http://www.w3.org/1999/xlink" x="0px" y="0px"
	 viewBox="0 0 100 50" style="enable-background:new 0 0 100 50;" xml:space="preserve">
<style type="text/css">
	.st0{opacity:0.26;fill:#DB8851;enable-background:new    ;}
	.st1{fill:#FFFFFF;}
	.st2{fill:#ED1C24;}
</style>
<g>
	<g id="圖層_2_1_">
		<g id="artwork">
			<g>
				<polygon class="st0" points="12.5,2 25,4.1 23,14.3 34.5,5.7 94.5,11.9 100,50 73.1,45.6 61.3,40.3 46.2,44.8 2.2,37.6 				"/>
				<polygon class="st1" points="10.3,0 22.8,2.1 20.8,12.3 32.3,3.6 92.3,9.8 97.8,48 70.9,43.5 59,38.3 43.9,42.8 0,35.5 				"/>
				<path class="st2" d="M17,26.8c0.2-0.2,0.5-0.3,0.7-0.2c0.2,0.1,0.3,0.2,0.3,0.6c0,0.1,0,0.2-0.1,0.3c-0.1,0.1-0.1,0.2-0.2,0.3
					c-0.1,0.1-0.2,0.2-0.3,0.2c-0.1,0.1-0.2,0.1-0.3,0.2l-0.3,0.2l-0.3,0.1c-0.3,0.2-0.6,0.3-0.9,0.4l-0.1,0l-0.1,0l-0.2,0L15,29h0
					c-0.8,0.2-1.6,0.4-2.5,0.3c-0.7,0-1.3-0.1-1.9-0.3l-0.6-0.3c-0.3-0.1-0.5-0.2-0.7-0.4c-0.4-0.3-0.6-0.7-0.7-1.2
					c-0.4-0.9-0.6-1.8-0.5-2.8c0.1-0.6,0.2-1.2,0.5-1.8l0.1-0.3c0-0.1,0.1-0.3,0.1-0.3c0-0.1,0.1-0.2,0.1-0.3c0-0.1,0.1-0.2,0.1-0.3
					C8.9,21.2,9,21.1,9,21c0-0.1,0.1-0.2,0.2-0.3c0.2-0.2,0.4-0.5,0.7-0.7c0.7-0.6,1.7-0.9,2.6-0.7c1.1,0.1,1.6,0.5,1.7,1.1
					c0,0.5,0,0.9-0.2,1.4c-0.1,0.4-0.3,0.8-0.6,1.2c-0.2,0.3-0.5,0.7-0.9,1.2c-0.4,0.5-0.6,0.8-0.8,1.1c-0.4,0.5-0.7,1.1-0.9,1.7
					c0,0.1,0.1,0.4,0.4,0.7c0.1,0.2,0.3,0.3,0.5,0.3c0.3,0,0.6,0,0.9,0c0.7-0.1,1.4-0.2,2.1-0.3c0.3-0.1,0.7-0.2,1.3-0.4
					C16.3,27.1,16.6,27,17,26.8z M9.8,25.1c0.1,0,0.5-0.4,1-1.3c0.4-0.5,0.7-1,0.9-1.6c0-0.2-0.1-0.4-0.4-0.4
					c-0.2-0.1-0.5,0-0.6,0.1c-0.2,0.2-0.3,0.4-0.4,0.6c-0.1,0.3-0.3,0.5-0.4,0.8c-0.1,0.3-0.2,0.6-0.2,0.8c-0.1,0.2-0.1,0.4-0.1,0.7
					C9.7,25,9.7,25.1,9.8,25.1z"/>
				<path class="st2" d="M29,26.4c-0.4-0.1-0.8-0.2-1.1-0.4c-0.3-0.2-0.5-0.3-0.7-0.6c-0.2-0.2-0.5-0.4-0.8-0.5
					c-0.2,0-0.4,0-0.6,0.1c-0.2,0.1-0.3,0.1-0.5,0.3c-0.1,0.1-0.3,0.3-0.4,0.4c-0.1,0.2-0.3,0.3-0.4,0.5l-0.3,0.5
					c-0.1,0.2-0.2,0.3-0.3,0.4c-0.3,0.2-0.6,0.4-0.9,0.6c-0.5,0.2-0.9,0.5-1.3,0.7c-0.4,0.2-0.6,0.3-0.6,0.4c-0.3,0.1-0.6,0.2-1,0.2
					c-0.5,0-1,0-1.4-0.2c-0.4,0-0.7-0.2-0.9-0.5c-0.1-0.2-0.1-0.3-0.1-0.5c0-0.2,0-0.4,0-0.6s0-0.4,0-0.7c0-0.3,0-0.5,0-0.6
					c-0.1-0.5,0-0.9,0.3-1.3c0.1-0.3,0.2-0.7,0.3-1c0.1-0.6,0.3-1.2,0.5-1.9c0.1-0.6,0.4-1.1,0.7-1.6c0.6-0.8,1.2-0.7,2,0.2
					c0.2,0.3,0.2,0.7,0.1,1.1c-0.1,0.5-0.3,1.1-0.6,1.6c-0.2,0.3-0.4,0.8-0.7,1.4c-0.3,0.6-0.5,1-0.6,1.2c-0.3,0.4-0.3,1-0.1,1.5
					c0.1,0.1,0.2,0.1,0.3,0.1c0.2,0,0.4-0.1,0.6-0.2c0.2-0.1,0.4-0.2,0.6-0.3c0.1-0.1,0.3-0.2,0.4-0.3c0.5-0.5,0.9-1,1.2-1.6
					c0.4-0.5,0.7-1.1,0.9-1.7c0.1-0.4,0.4-0.8,0.7-1.1c0.3-0.3,0.7-0.6,1.1-0.8c0.4-0.2,0.8-0.2,1.2-0.1c0.4,0.1,0.8,0.4,0.9,0.8
					c0.1,0.4,0.2,0.7,0.2,1.1c0,0.4,0.2,0.9,0.4,1.2c0.2,0.2,0.4,0.4,0.7,0.6c0.3,0.1,0.6,0.2,1,0.3c0.3,0.1,0.6,0.1,0.9,0.2
					c0.3,0.1,0.5,0.3,0.6,0.5c0.1,0.2,0.1,0.4,0,0.6c-0.2,0.3-0.6,0.3-1.2,0.2C29.6,26.5,29.2,26.4,29,26.4z"/>
				<path class="st2" d="M37.5,27.8c0.1,0.1,0.1,0.3,0,0.4c-0.2,0.2-0.5,0.4-0.7,0.6c-0.7,0.4-1.4,0.8-2.2,1.1
					c-0.6,0.2-1.2,0.3-1.9,0.2c-0.6-0.1-1.3-0.3-1.8-0.6c-0.5-0.3-1-0.7-1.4-1.2c-0.6-0.8-0.7-1.7-0.3-2.6c0-0.1,0.1-0.3,0.2-0.8
					s0.2-0.9,0.3-1.2c0.1-0.2,0.2-0.5,0.3-0.7c0.2-0.1,0.3-0.2,0.6-0.2c0.3,0,0.5,0,0.8,0c0.3,0.1,0.5,0.1,0.8,0.3
					c0.2,0.1,0.4,0.3,0.5,0.5c0.1,0.2,0.1,0.4,0,0.6c-0.2,0.3-0.4,0.7-0.5,1.1c-0.1,0.3-0.2,0.5-0.4,0.7c-0.2,0.2-0.4,0.5-0.4,0.8
					c-0.1,0.3,0,0.6,0.1,0.7s0.2,0.2,0.2,0.4c0,0.3,0.2,0.6,0.4,0.7c0.1,0.2,0.3,0.3,0.5,0.4c0.2,0,0.5,0,0.7,0
					c0.7-0.2,1.4-0.5,2-0.9c0.4-0.3,1-0.5,1.5-0.6C37.1,27.3,37.4,27.5,37.5,27.8z M34.8,19.4c-0.4,0-0.8-0.1-1-0.4
					c-0.1-0.1-0.3-0.3-0.3-0.4c0-0.1,0.1-0.2,0.3-0.3c0.3-0.2,0.7-0.2,1-0.2c0.3,0,0.6,0.1,0.8,0.3c0.1,0.2,0.1,0.4,0,0.6
					C35.4,19.2,35.1,19.3,34.8,19.4z"/>
				<path class="st2" d="M49.8,28.1c0.2-0.2,0.5-0.3,0.7-0.2c0.2,0.1,0.3,0.2,0.3,0.6c0,0.1,0,0.2-0.1,0.3c-0.1,0.1-0.1,0.2-0.2,0.3
					c-0.1,0.1-0.2,0.2-0.3,0.2c-0.1,0.1-0.2,0.1-0.3,0.2l-0.3,0.2c-0.1,0-0.2,0.1-0.3,0.1c-0.3,0.2-0.6,0.3-0.9,0.4l-0.3,0.1
					c-0.1,0-0.2,0.1-0.3,0.1c-0.3,0.1-0.6,0.2-0.9,0.2c-0.7,0.1-1.4,0.1-2.2-0.1c-0.5-0.2-0.9-0.4-1.3-0.8c-0.2-0.2-0.4-0.5-0.6-0.8
					c-0.1-0.3-0.2-0.6-0.2-0.9c-0.1-0.6-0.2-1-0.4-1c-0.2,0-0.2,0.1-0.4,0.3c-0.3,0.4-0.7,0.8-1.2,1.2c-0.4,0.4-0.8,0.7-1.3,1
					c-0.2,0.1-0.5,0.2-0.8,0.3c-0.6,0.1-1.2,0.2-1.8,0.1c-0.2-0.1-0.3-0.2-0.4-0.3c-0.4-0.8-0.4-1.7-0.2-2.5c0.2-1,0.6-1.9,1.2-2.8
					c0.4-0.5,0.9-0.9,1.4-1.3c0.6-0.4,1.2-0.8,1.9-1.1c0.7-0.2,1.4-0.3,2.1-0.2c0.3,0,0.5,0,0.8-0.1c0.2-0.1,0.4-0.2,0.5-0.3
					c0.1-0.1,0.3-0.3,0.4-0.4c0.1-0.2,0.2-0.4,0.4-0.6c0.1-0.2,0.3-0.4,0.4-0.6c2.1-2.7,3.2-4.1,3.4-4.3c0-0.1,0.1-0.2,0.2-0.3
					c0.9-1.2,1.5-1.8,1.9-1.9s0.5,0.2,0.6,0.7c0.1,0.6,0,1.2-0.3,1.8c-0.3,0.6-0.7,1.2-1.1,1.8c-0.4,0.5-0.9,1.1-1.5,1.8
					c-0.4,0.5-0.8,0.9-1.2,1.4c-0.2,0.3-0.4,0.7-0.6,1c-0.2,0.5-0.4,0.8-0.5,0.9c-1.2,2.1-1.8,3.9-1.7,5.4c0,0.4,0.1,0.8,0.4,1.2
					c0.2,0.3,0.6,0.4,1,0.4c0.4,0,0.8,0,1.2-0.1c0.1,0,0.2-0.1,0.3-0.1C48.3,28.9,49.1,28.5,49.8,28.1z M40.2,26.8
					c1.9-1.9,2.9-3.1,2.8-3.4c0-0.3-0.3-0.4-0.7-0.4c-0.4,0-0.8,0.1-1.2,0.3c-0.6,0.3-1.2,0.8-1.7,1.2c-0.5,0.4-0.9,0.8-1.2,1.3
					c-0.2,0.4-0.3,0.9-0.4,1.4c0,0.7,0.1,1,0.4,1C38.6,28.2,39.2,27.8,40.2,26.8L40.2,26.8z"/>
				<path class="st2" d="M58.5,29.3c0.2-0.2,0.5-0.2,0.7-0.2c0.2,0,0.3,0.2,0.3,0.6c0,0.1,0,0.2-0.1,0.3c-0.1,0.1-0.1,0.2-0.2,0.3
					c-0.1,0.1-0.2,0.2-0.3,0.2l-0.3,0.2l-0.3,0.2c-0.1,0-0.2,0.1-0.3,0.1c-0.3,0.2-0.6,0.3-0.9,0.4l-0.1,0l-0.1,0l-0.2,0l-0.1,0
					h-0.1c-0.8,0.2-1.6,0.4-2.5,0.3c-0.7,0-1.3-0.1-1.9-0.3l-0.6-0.3c-0.3-0.1-0.5-0.2-0.7-0.4c-0.4-0.3-0.6-0.7-0.7-1.2
					c-0.4-0.9-0.6-1.8-0.5-2.8c0.1-0.6,0.2-1.3,0.4-1.9c0,0,0-0.1,0.1-0.3s0.1-0.3,0.1-0.3c0-0.1,0.1-0.2,0.1-0.3s0.1-0.2,0.1-0.3
					c0-0.1,0.1-0.2,0.2-0.3l0.2-0.3c0.2-0.2,0.4-0.5,0.7-0.7c0.7-0.6,1.7-0.9,2.6-0.7c1.1,0.1,1.6,0.5,1.7,1.1c0,0.5,0,0.9-0.2,1.4
					c-0.1,0.4-0.3,0.8-0.6,1.1c-0.2,0.3-0.5,0.7-0.9,1.2s-0.6,0.8-0.8,1.1c-0.4,0.5-0.7,1.1-0.9,1.7c0,0.1,0.1,0.4,0.4,0.7
					c0.1,0.2,0.3,0.3,0.5,0.3c0.3,0,0.6,0,0.9,0c0.7-0.1,1.4-0.2,2.1-0.3c0.3-0.1,0.7-0.2,1.3-0.4C57.8,29.6,58.2,29.5,58.5,29.3z
					 M51.4,27.7c0.1,0,0.5-0.4,1-1.3c0.4-0.5,0.7-1,0.9-1.6c0-0.2-0.1-0.4-0.4-0.5c0,0,0,0,0,0c-0.2-0.1-0.4,0-0.6,0.1
					c-0.2,0.2-0.3,0.4-0.4,0.6c-0.1,0.3-0.3,0.5-0.4,0.8c-0.1,0.3-0.2,0.6-0.2,0.8c-0.1,0.2-0.1,0.4-0.1,0.7
					C51.2,27.6,51.3,27.7,51.4,27.7z"/>
				<path class="st2" d="M57.4,28.8c0.2-0.3,0.7-1,1.3-2c0.5-0.8,1-1.5,1.6-2.2c0.1-0.1,0.1-0.1,0.2-0.2c0.2-0.2,0.4-0.3,0.6-0.3
					c0.2-0.1,0.5,0,0.7,0.1c0.1,0.1,0.1,0.2,0.1,0.4c0,0.2,0.1,0.3,0.1,0.3c0.1,0,0.3-0.1,0.7-0.3c0.9-0.4,1.8-0.7,2.8-0.7
					c0.3-0.1,0.7-0.1,1-0.1c0.2,0.1,0.4,0.2,0.5,0.3c0.3,0.3,0.4,0.6,0.4,1c0,0.4-0.2,0.8-0.5,1c-0.4,0.5-0.7,1.1-0.9,1.7
					c-0.3,0.5-0.5,1.1-0.6,1.7c0,0.3,0.1,0.5,0.2,0.8c0.1,0.3,0.4,0.5,0.6,0.7c0.2,0.2,0.4,0.3,0.6,0.3c0.7-0.1,1.3-0.3,1.9-0.6
					c0.8-0.3,1.6-0.7,2.4-1.2c0.3-0.2,0.6-0.3,0.9-0.3c0.2,0,0.2,0.2,0.2,0.5c0,0.2-0.1,0.3-0.2,0.5c-0.2,0.2-0.3,0.4-0.6,0.5
					c-0.3,0.2-0.5,0.4-0.8,0.5c-0.3,0.2-0.6,0.3-0.9,0.4L68,32.2c-0.5,0.2-1.1,0.3-1.7,0.1c-0.6-0.3-1.2-0.7-1.6-1.2
					c-0.3-0.3-0.6-0.7-0.9-1c-0.1-0.3-0.1-0.7-0.1-1c0.1-0.8,0.3-1.5,0.6-2.3c0.2-0.4,0.3-0.8,0.4-1.3c-0.1-0.1-0.6,0.3-1.6,1
					c-1,0.7-2,1.5-2.9,2.4c-1,0.8-1.4,1.3-1.5,1.5c0,0.1-0.1,0.3-0.3,0.4c-0.2,0.1-0.4,0.2-0.6,0.3c-0.2,0.1-0.4,0.1-0.6,0
					c-0.3,0-0.5-0.3-0.6-0.7c-0.1-0.2-0.1-0.5,0-0.7C56.9,29.4,57.2,29.1,57.4,28.8z"/>
				<path class="st2" d="M81.3,30.5c0.2-0.2,0.5-0.2,0.7-0.2c0.2,0,0.3,0.2,0.3,0.6c0,0.1,0,0.2-0.1,0.2c0,0.1-0.1,0.2-0.2,0.2
					l-0.2,0.2c-0.1,0.1-0.2,0.1-0.3,0.2c-0.1,0.1-0.2,0.1-0.3,0.2L81,32l-0.2,0.1c-0.3,0.2-0.6,0.3-0.9,0.4c-0.2,0.1-0.5,0.2-1,0.3
					c-0.5,0.1-1.1,0.2-1.8,0.4c-0.7,0.1-1.4,0.2-2.2,0.1c-0.6,0-1.1-0.3-1.5-0.6c-0.2-0.2-0.3-0.4-0.4-0.6c-0.2-0.3-0.3-0.5-0.4-0.7
					c-0.1-0.2-0.2-0.4-0.3-0.6c-0.1-0.5-0.2-1.1-0.1-1.7c0.3-2.2,1.5-4.1,3.4-5.4c0.3-0.2,0.7-0.4,1-0.6c0.4-0.1,0.8-0.1,1.2,0
					c0.9,0,1.7,0.3,2.4,0.8c0.5,0.4,0.7,1.1,0.5,1.8c-0.1,0.2-0.2,0.5-0.3,0.6c-0.2,0.1-0.4,0.2-0.6,0.1c-0.4,0-0.8-0.1-1.1-0.3
					c-0.3-0.2-0.4-0.4-0.4-0.6c0.1-0.2,0.1-0.4-0.1-0.6c-0.1-0.2-0.3-0.3-0.6-0.3c-0.4,0-1.1,0.3-2,1.1c-0.9,0.7-1.4,1.3-1.4,1.7
					c0,0.2-0.2,0.4-0.3,0.6c-0.3,0.4-0.4,0.8-0.4,1.3c-0.1,0.4,0,0.9,0.2,1.3c0.3,0.5,0.8,0.8,1.4,0.9c0.6,0.2,1.3,0.3,1.9,0.2
					c0.4,0,0.7-0.1,1-0.2c0.7-0.2,1.3-0.5,1.9-0.8c0.4-0.3,0.7-0.4,0.9-0.3C81.1,30.6,81.1,30.6,81.3,30.5
					C81.2,30.5,81.3,30.5,81.3,30.5z"/>
				<path class="st2" d="M90.2,31.2c0.2-0.2,0.5-0.2,0.7-0.2c0.2,0,0.3,0.2,0.3,0.6c0,0.1,0,0.2-0.1,0.3c-0.1,0.1-0.1,0.2-0.2,0.3
					c-0.1,0.1-0.2,0.2-0.3,0.2c-0.1,0.1-0.2,0.1-0.3,0.2L90,32.7c-0.1,0-0.2,0.1-0.3,0.1c-0.3,0.2-0.6,0.3-0.9,0.4l-0.1,0l-0.1,0
					l-0.2,0l-0.1,0h0c-0.8,0.2-1.6,0.4-2.5,0.3c-0.7,0-1.3-0.1-1.9-0.3c0,0-0.2-0.1-0.6-0.3c-0.3-0.1-0.5-0.2-0.7-0.4
					c-0.4-0.3-0.6-0.7-0.7-1.2c-0.4-0.9-0.6-1.8-0.5-2.8c0.1-0.6,0.2-1.3,0.4-1.9c0,0,0-0.1,0.1-0.3c0-0.1,0.1-0.3,0.1-0.3
					c0-0.1,0.1-0.2,0.1-0.3c0-0.1,0.1-0.2,0.1-0.3c0-0.1,0.1-0.2,0.2-0.3s0.1-0.2,0.2-0.3c0.2-0.2,0.4-0.5,0.7-0.7
					c0.7-0.6,1.7-0.9,2.6-0.7c1.1,0.1,1.6,0.5,1.7,1.1c0,0.5,0,0.9-0.2,1.4c-0.1,0.4-0.3,0.8-0.6,1.1c-0.2,0.3-0.5,0.7-0.9,1.2
					s-0.6,0.8-0.8,1.1c-0.4,0.5-0.7,1.1-0.9,1.7c0,0.1,0.1,0.4,0.4,0.7c0.1,0.2,0.3,0.3,0.5,0.3c0.3,0,0.6,0,0.9,0
					c0.7-0.1,1.4-0.2,2.1-0.3c0.3-0.1,0.7-0.2,1.3-0.4C89.5,31.6,89.9,31.4,90.2,31.2z M83.1,29.6c0.1,0,0.5-0.4,1-1.3
					c0.4-0.5,0.7-1,0.9-1.6c0-0.2-0.1-0.4-0.3-0.4c-0.2-0.1-0.4,0-0.6,0.1c-0.2,0.2-0.3,0.4-0.4,0.6c-0.1,0.3-0.3,0.5-0.4,0.8
					c-0.1,0.3-0.2,0.6-0.2,0.8c-0.1,0.2-0.1,0.4-0.1,0.7C82.9,29.5,83,29.6,83.1,29.6z"/>
			</g>
		</g>
	</g>
</g>
</svg>
