<?xml version="1.0" encoding="utf-8"?>
<!-- Generator: Adobe Illustrator 25.3.1, SVG Export Plug-In . SVG Version: 6.00 Build 0)  -->
<svg version="1.1" id="圖層_1" xmlns="http://www.w3.org/2000/svg" xmlns:xlink="http://www.w3.org/1999/xlink" x="0px" y="0px"
	 viewBox="0 0 100 50" style="enable-background:new 0 0 100 50;" xml:space="preserve">
<style type="text/css">
	.st0{opacity:0.26;fill:#DB8851;enable-background:new    ;}
	.st1{fill:#FFFFFF;}
	.st2{fill:#ED1C24;}
</style>
<g>
	<g id="圖層_2_1_">
		<g id="artwork">
			<polygon class="st0" points="12.5,2 25,4.1 23,14.3 34.5,5.7 94.5,11.9 100,50 73.1,45.6 61.3,40.3 46.2,44.8 2.2,37.6 			"/>
			<polygon class="st1" points="10.3,0 22.8,2.1 20.8,12.3 32.3,3.6 92.3,9.8 97.8,47.9 70.9,43.5 59,38.3 44,42.8 0,35.5 			"/>
			<path class="st2" d="M23.4,23.8c0.1-3.2-0.1-6.5-0.5-9.7c-0.1-0.5-1-0.7-1.2-0.1c-0.7,3-1.1,6-1.3,9v0.2h-0.8
				c-1.4-0.1-2.8-0.1-4.1,0c0.2-4,0.3-8,0.5-12c0-0.5-1.2-0.7-1.3-0.1C13.7,15,13,19,12.7,23c0,0.1,0,0.2,0,0.3
				c-1.1,0.1-1.4,1.3-0.2,1.5c0,1.5-0.1,3-0.2,4.4c-0.1,1.7-0.5,3.5,0.6,5.1c0.5,0.5,1.2,0.5,1.7,0c0,0,0,0,0,0
				c1-1.6,0.7-3.4,0.7-5.1c0-1.3,0-2.6,0.1-3.9c1.6,0.3,3.2,0.5,4.8,0.6c-0.3,2.2-0.4,4.5-0.2,6.7c0.2,1.2,2.8,1.8,3.1,0.3
				C23.6,30,23.3,26.8,23.4,23.8z"/>
			<path class="st2" d="M38,14.2c-2.1-1.4-4.9-1.4-7.1-0.1c-0.3,0.1-0.4,0.5-0.4,0.8c-1.7,1.1-2.5,3-3.2,4.5c-1.2,2.4-1.7,5-1.5,7.7
				c0.5,3.9,4.3,10,10.6,6.6c5.2-2.9,5.5-9.7,4.8-14.1C41,17.6,40.2,15.5,38,14.2z M35,31.1c-4.6,3.3-5.9-4.9-5.7-6.8
				c0.1-1.5,0.5-3,1-4.4c0.4-1.2,1-3.2,2.1-4.3C40.7,13.4,38.7,28.5,35,31.1z"/>
			<path class="st2" d="M59.6,14.4c-0.9,4.3-1.9,8.5-3.2,12.8c-0.3,1-0.6,2.1-0.9,3.1c-0.2,0.5-0.3,1-0.5,1.5c0,0,0,0.1,0,0.1
				c-1.7-1.8-2.5-4.2-3.1-6.2c-0.2-0.7-1.7-1.1-2.4-0.5c-1.1,1-2,2.3-2.5,3.7c-0.2,0.5-0.3,0.9-0.5,1.4c-0.2-2,0-4.1,0-6
				c0-3.5,0.1-7.1-0.3-10.6c-0.1-0.9-1.6-0.8-1.8,0c-0.4,3.8-0.6,7.6-0.7,11.4c-0.1,3.3-0.7,6.8,0.9,9.9c0.4,0.7,1.4,1,2.1,0.7
				c1.6-0.7,1.7-2.2,2-3.4c0.3-1.1,0.6-2.2,1.1-3.3c0.6,1.8,1.6,3.5,2.9,4.9c1.2,1.2,3.2,1.3,4.4,0.1c0.1-0.1,0.3-0.3,0.4-0.4
				c0.8-1.2,1-2.8,1.4-4.1c0.5-1.5,0.9-3.1,1.3-4.6c0.9-3.2,1.6-6.5,2.3-9.7C63,13.5,59.9,12.8,59.6,14.4z"/>
			<path class="st2" d="M77.1,15.9c-1-1.8-3.5-4.3-6.5-4c-2.9,0.3-3,2.4-2.2,4c0.1,0.3,0.8,0.4,0.8,0c0-0.5,0.2-1,0.5-1.4
				c0.7-0.7,2.2-0.2,3,0.4c1,0.8,1.7,1.9,1.8,3.2c0.1,2.4-2.9,3-5,4.3c-2.7,1.7-4.4,6-0.2,7.3c0.6,0.2,1.3-0.2,1.5-0.8
				c0,0,0-0.1,0-0.1c0.2-1.7-0.7-2.9,1.1-4.3c1.2-0.9,2.8-1.4,3.9-2.3C78.3,20.5,78.4,18,77.1,15.9z"/>
			<path class="st2" d="M70.1,30.9c-0.7,0-1.4,0.2-2,0.7c-0.8,0.5-1.1,1.7-0.6,2.5c0.1,0.2,0.3,0.4,0.6,0.6c1.2,0.8,2.8,0.8,4.1,0
				c0.8-0.5,1.1-1.7,0.6-2.5c-0.1-0.2-0.3-0.4-0.6-0.6C71.5,31.2,70.8,30.9,70.1,30.9z"/>
			<path class="st2" d="M83,11.8c-0.2-0.7-1.4-0.5-1.5,0.2c-0.4,2.9-0.7,5.9-1.4,8.8c-0.6,2.6-1.7,5.2-1.9,7.8
				c-0.1,1.4,2.4,1.4,3,0.3c1.3-2.6,1.7-5.8,2.1-8.6S83.9,14.6,83,11.8z"/>
			<path class="st2" d="M78.4,32.2c-0.9,0-1.9,0.7-1.8,1.4c0.2,0.9,0.9,1.5,1.8,1.4c1,0,1.9-0.7,1.8-1.4
				C80.1,32.7,79.3,32.1,78.4,32.2z"/>
		</g>
	</g>
</g>
</svg>
