<?xml version="1.0" encoding="utf-8"?>
<!-- Generator: Adobe Illustrator 25.3.1, SVG Export Plug-In . SVG Version: 6.00 Build 0)  -->
<svg version="1.1" id="圖層_1" xmlns="http://www.w3.org/2000/svg" xmlns:xlink="http://www.w3.org/1999/xlink" x="0px" y="0px"
	 viewBox="0 0 10 15" style="enable-background:new 0 0 10 15;" xml:space="preserve">
<style type="text/css">
	.st0{opacity:0.31;fill:#FFFFFF;enable-background:new    ;}
</style>
<g>
	<path class="st0" d="M8.3,0C7.6,0.9,6.8,2.2,6.1,2.8C5.4,3.4,6.6,1.1,5.3,1.6c-0.3,0-1,0.9-1.4,1.5C3.1,2.5,2.2,2.4,1.3,2.6L0,13.7
		L8.5,15L10,2.6C9.7,2.9,9.3,3.2,9.1,3.7C8.9,2.2,9.1,0.8,8.3,0z"/>
	<path class="st0" d="M9,2.2C7.4,3.8,5.8,5.5,4.2,7.1c-1.3,1.3-2.6,2.7-3.9,4L0,13.7l1.8,0.3c1.5-1.5,2.9-3,4.3-4.5
		C7.3,8.2,8.5,7,9.6,5.7L10,2.6C9.7,2.9,9.3,3.2,9.1,3.7C9,3.2,9,2.7,9,2.2z"/>
	<path class="st0" d="M1.3,2.6L1,5.1c0.7-0.8,1.4-1.6,2.1-2.3C2.6,2.5,2,2.4,1.3,2.6z"/>
</g>
</svg>
