<?xml version="1.0" encoding="utf-8"?>
<!-- Generator: Adobe Illustrator 25.3.1, SVG Export Plug-In . SVG Version: 6.00 Build 0)  -->
<svg version="1.1" id="圖層_1" xmlns="http://www.w3.org/2000/svg" xmlns:xlink="http://www.w3.org/1999/xlink" x="0px" y="0px"
	 viewBox="0 0 250 200" style="enable-background:new 0 0 250 200;" xml:space="preserve">
<style type="text/css">
	.st0{clip-path:url(#SVGID_2_);}
	.st1{fill:#0267A4;}
	.st2{opacity:0.15;fill:#0D0D1E;enable-background:new    ;}
	.st3{opacity:0.72;fill:#FFFFFF;enable-background:new    ;}
	.st4{opacity:0.26;fill:#0D0D1E;enable-background:new    ;}
	.st5{opacity:0.24;fill:#FFFFFF;enable-background:new    ;}
	.st6{opacity:0.84;fill:none;stroke:#FFFFFF;stroke-width:9;stroke-linecap:round;stroke-miterlimit:10;enable-background:new    ;}
	.st7{opacity:0.2;fill:#0D0D1E;enable-background:new    ;}
	.st8{fill:#EFAEA6;}
	.st9{fill:#1F1F3B;}
	.st10{opacity:0.16;fill:#1F1F39;enable-background:new    ;}
	.st11{opacity:0.85;fill:#0D0D1E;enable-background:new    ;}
	.st12{fill:#FFFFFF;}
	.st13{opacity:0.35;fill:#FFFFFF;enable-background:new    ;}
	.st14{opacity:0.36;fill:#1F1F39;enable-background:new    ;}
	.st15{opacity:0.17;fill:#1F1F39;enable-background:new    ;}
</style>
<g id="圖層_2_1_">
	<g id="artwork">
		<g>
			<defs>
				<rect id="SVGID_1_" width="237.6" height="200"/>
			</defs>
			<clipPath id="SVGID_2_">
				<use xlink:href="#SVGID_1_"  style="overflow:visible;"/>
			</clipPath>
			<g class="st0">
				<g>
					<path class="st1" d="M205.1,85.6c1.5,0.8,3.1,1.3,4.8,1.6c1.3,0.2,2.6,0.3,3.9,0.3c1.2,0,2.4-0.1,3.6-0.3
						c0.4-0.1,0.9-0.1,1.3-0.2c0.2,0,0.4-0.1,0.6-0.2c5.5-1.6,9.7-9.4,11.2-18.6c0.4-2.2,0.6-4.4,0.6-6.6c0.2-12.3-6-22.4-9.3-25.3
						c-2.2-1.9-6.9-3.7-13.4-3.7h-0.9l-0.2,3.4l-0.1,1.3l-0.1,2.7l-1.6,36.3l-0.2,5.1l-0.1,1.8L205.1,85.6z"/>
					
						<ellipse transform="matrix(0.9984 -5.634428e-02 5.634428e-02 0.9984 -3.0631 11.8825)" class="st1" cx="209.2" cy="60.3" rx="14.6" ry="24.3"/>
					
						<ellipse transform="matrix(0.9984 -5.634428e-02 5.634428e-02 0.9984 -3.0631 11.8825)" class="st2" cx="209.2" cy="60.3" rx="14.6" ry="24.3"/>
					<path class="st3" d="M210.2,82.4c1.4,1.5,3,2.7,4.8,3.5c7.2-3.6,12-14.4,11.3-27c-0.2-3.5-0.8-7.1-1.9-10.4l0,0
						c-3.5-4-7.3-7.7-11.5-11c-0.6,0-1.2,0.1-1.8,0.3C200.1,40.8,195.3,67.2,210.2,82.4z"/>
					<path class="st4" d="M217.4,87.2c0.7,0.5,1.4,0.9,2.2,1.3c-0.1-0.8-0.2-1.3-0.2-1.6c5.5-1.6,9.7-9.4,11.2-18.6
						c-3.3,7.9-9.1,15.6-13.6,16.5l0,0c-0.7,0.1-1,0.4-1.1,0.7c0,0.1,0,0.2,0.1,0.3C216.3,86.3,216.8,86.8,217.4,87.2z"/>
					<path class="st1" d="M191.6,60.8c-0.8-15.1,6.3-27.7,15.9-28.2c0.3,0,0.6,0,0.9,0c6.9,0.2,13,6.6,16,15.9l0,0
						c1.1,3.4,1.7,6.9,1.9,10.4c0.6,11.3-3.3,21.3-9.3,25.8c-0.3,0.3-0.7,0.5-1.1,0.7s-0.6,0.3-0.9,0.5c-1.4,0.7-3,1.1-4.6,1.2
						c-0.2,0-0.3,0-0.5,0C200.5,87.2,192.4,75.6,191.6,60.8z M194.6,60.6c0.1,1.2,0.2,2.4,0.4,3.5c1.3,8.2,5.3,14.7,10.3,17.2
						c1.5,0.8,3.2,1.1,4.9,1c7.9-0.4,13.8-10.9,13.1-23.3c-0.6-10.7-5.8-19.3-12.2-21.4c-1.1-0.3-2.2-0.5-3.4-0.4
						c-0.2,0-0.3,0-0.5,0c-5.9,0.6-10.6,6.8-12.2,15.1C194.6,55.1,194.4,57.9,194.6,60.6z"/>
					<path class="st5" d="M191.6,60.8c-0.8-15.1,6.3-27.7,15.9-28.2c0.3,0,0.6,0,0.9,0c6.9,0.2,13,6.6,16,15.9l0,0
						c1.1,3.4,1.7,6.9,1.9,10.4c0.6,11.3-3.3,21.3-9.3,25.8c-0.3,0.3-0.7,0.5-1.1,0.7s-0.6,0.3-0.9,0.5c-1.4,0.7-3,1.1-4.6,1.2
						c-0.2,0-0.3,0-0.5,0C200.5,87.2,192.4,75.6,191.6,60.8z M194.6,60.6c0.1,1.2,0.2,2.4,0.4,3.5c1.3,8.2,5.3,14.7,10.3,17.2
						c1.5,0.8,3.2,1.1,4.9,1c7.9-0.4,13.8-10.9,13.1-23.3c-0.6-10.7-5.8-19.3-12.2-21.4c-1.1-0.3-2.2-0.5-3.4-0.4
						c-0.2,0-0.3,0-0.5,0c-5.9,0.6-10.6,6.8-12.2,15.1C194.6,55.1,194.4,57.9,194.6,60.6z"/>
					<path class="st1" d="M223.9,146.3c1.3,0.4,2.8-0.1,3.4-2.9c1-4.9-6.3-45.3-7.7-55c-0.1-0.8-0.2-1.3-0.2-1.6c0-0.1,0-0.2,0-0.3
						c0-0.4-0.5-0.7-1.1-0.8c-0.7-0.1-1.5-0.1-2.2,0c-1.2,0.2-2.3,0.8-2.2,1.6c0,0,0,0.1,0,0.1c0.4,3.3,7,53.8,7.4,56.3
						C221.4,144.7,222.6,145.9,223.9,146.3z"/>
					<path class="st6" d="M214.5,45.4c-0.6-0.8-1.2-1.2-1.9-1.2c-0.9,0.1-1.8,0.6-2.3,1.3"/>
					<path class="st6" d="M218.5,60.7c0-1.6-0.1-3.1-0.3-4.7c-0.4-2.6-1-5.1-2-7.5"/>
					<path class="st7" d="M223.9,146.3c1.3,0.4,2.8-0.1,3.4-2.9c1.1-5.4-7.8-55.4-8-56.9c0-0.4-0.5-0.7-1.1-0.8
						C219.4,94.5,226.3,136.8,223.9,146.3z"/>
					<path class="st8" d="M229.4,121.8c-2,0.9-7.6,2.9-9.5,5.5c-0.5,0.6-1,1.3-1.5,2c-0.5,0.7-1.1,1.5-1.6,2.1
						c-3.4,4.3-5.9,6.2-9.3,9.6c0,0-15.1-10.6-13.9-13.5c0.7-1.8,3.6-4,6.7-6.8c1.3-1.2,2.7-2.4,4-3.7c0.6-0.7,1.3-1.4,1.8-2.1
						c1.3-1.7,2.2-3.6,2.8-5.6c2-6.2,0.6-15.2,4.8-14.4c4.1,0.7-1.2,12.2,7.2,0.7c2.4-3.2,11.1,3.8,12.5,10.7
						C233.9,108.3,234.2,119.6,229.4,121.8z"/>
					<path class="st8" d="M117.5,35c0,0,0,0.1,0,0.1c-0.2,0.7-0.5,1.3-0.7,1.9c-1.1,3-1.8,5.5-2.4,7.6l-0.1,0.4
						c-0.2,0.7-0.3,1.3-0.5,1.9l0,0c-0.3,1.1-0.5,2.1-0.6,2.9c-0.3,1.4-0.4,2.5-0.5,3.3l0,0c-0.1,0.6-0.2,1.1-0.4,1.6
						c-3.2,0-1.2-3-4.6,3.8c-5,9.9-9.8,17.1-16.3,3l-4.2,8.2l-0.8,1.6l-11,11.2L62.7,69.6c3.3-9.4,8.1-13.3,11.1-18.1
						c3.3-5.2,6-11.3,8.5-17l0.9-1.9c0.4-0.8,0.7-1.6,1.1-2.3c1.2-2.6,2.5-5.1,4-7.5c1.9-3,4-5,6.4-5.6c9-2.3,19,7.8,21.9,14l0,0
						C117.5,32.8,117.8,34.1,117.5,35z"/>
					<path class="st9" d="M80.7,25c-0.3,0.9-0.5,1.8-0.7,2.7c-0.2,0.7-0.3,1.4-0.5,2.1c-0.4,1.8-2.2-1.6-3.5,0.3
						c-3.8,5.5-4.4,17.4-2.1,21.4c0.6,1,1.5,1.9,2.6,2.4c5.7,2.7,13.7-3.5,15.7-7.4c-1.1-2.2-0.6-4.9,1.2-6.6
						c1.9-1.8,5.4-2.7,6.4,1.5c3.6,1.7,4.4,1.7,5.4-0.4c0.3-0.5,0.2-0.3,0.6-1.2c1.2-2.7,2.7-2.2,4.9-1.9c1.4,0.3,2.8,0.3,4.1,0
						c0.7-0.1,1.4-0.4,2-0.9c0.5-0.5,0.7-1.2,0.7-1.9c-0.1-1.3-0.3-2.6-0.7-3.9c-0.3-1.3-0.5-2.6-0.7-3.9c-0.3-3.1,0.4,0.5,1.6-0.9
						c0.1-0.2,0.2-0.4,0.2-0.6c0,0,0-0.1,0-0.1c0-2.9,6.7-8.4,1.7-7.7c-5.1,0.7-6,3.9-8.3-3.1c-2.3-7.1-7.8-10.1-13.4-4.7
						c-6.4,6.2-1.5-2.2-8.4,3.3C83.8,18.2,81.8,21.7,80.7,25z"/>
					<path class="st10" d="M91.4,61.5l-4.2,8.2c-2.9-3.1-5.9-6.2-1.8-12.3C86.3,56.2,90.3,56.1,91.4,61.5z"/>
					<path class="st1" d="M217.7,139.1c-5.1,5.9-40.5,50.3-59.5,48.2c-25.6-2.8-36.1-38.8-44.8-41.7c0,0,0,0,0,0l-0.2-0.1
						c-1.3-0.4-2.4-0.2-3.2,0.8c-2.7,3.4-5.7,25.7-5.4,48.9c0.1,9.6,0.9,19.4,2.4,28c1.6,8.8,3.2,16.6,4.8,24.4H0
						c0.1-0.9,0.2-1.8,0.2-2.8c4.6-50.9,10.4-93.3,25-135.4C31,92.9,38.9,84.6,50.1,78.7c0.2-0.1,0.5-0.3,0.7-0.4
						c0.9-0.5,1.7-2,2.4-4c2.1-5.7,3.7-15.5,6.3-16.5C70,54,86.6,63.4,90.3,67.1c1.6,1.6,3,9.8,5.1,11
						c33.2,18.6,58.7,75.5,65.9,76.3c4.5,0.5,39.9-38.1,41.8-40.6C205.7,110.4,220.4,135.9,217.7,139.1z"/>
					<path class="st10" d="M114.4,44.7c0,0.1,0,0.1,0,0.2c-0.2,0.7-0.3,1.3-0.5,1.9l0,0c-0.3,1.1-0.5,2.1-0.6,2.9
						c-7.4-2.4-17.9-5.7-23.9-9.9c-3.2-2.3-4.8-3.8-6.9-5.4c-0.4-0.3-0.8-0.6-1.2-0.9c-1.5-1.1-0.8-3.1-1.7-3.8
						c0.2-0.7,0.3-1.4,0.5-2.1l-1-0.6l5.5-7l3.9,2.6l22.3,15.2l3.2,2.2C113.9,40.1,114.7,43.8,114.4,44.7z"/>
					<path class="st11" d="M113.5,145.6L113.5,145.6C113.5,145.6,113.5,145.6,113.5,145.6z"/>
					<path class="st4" d="M104.7,195.2c-0.3-23.2,2.7-45.5,5.4-48.9c0.8-0.9,1.8-1.1,3.2-0.8C102.3,142,86.9,148.4,104.7,195.2z"/>
					<path class="st12" d="M188.8,44.6c-3.9-0.6-4.5-2.5-5.2-8.2c-0.5,5.4-1.2,7.5-5.2,8.1c3.5,1.5,4.7,2.1,5.3,8.4
						C184.6,46.6,185.4,46,188.8,44.6z"/>
					<path class="st12" d="M234.5,86.8c-3-0.5-3.5-1.9-4-6.4c-0.4,4.2-0.9,5.8-4,6.3c2.7,1.2,3.7,1.6,4.1,6.5
						C231.2,88.3,231.8,87.8,234.5,86.8z"/>
					<path class="st1" d="M64.9,25.8c3.6,5.2,33.6,18.8,65.3,23.2c3.1,0.4-1.9-6.7-7.2-10c-0.5-0.3-1-0.8-1.3-1.3
						c-1-1.4-1.3-3.5-1.2-5.8c0.3-3.2,0.8-6.4,1.6-9.5c3.4-8.9-4.5-18.9-14.7-19.8c-7.2,0-5.8,2-10.6,1.4
						c-6.3-0.8-12.6,7.3-15.5,13.3c-1.3,2-0.8,4.1-3.2,4.6C73.5,22.6,62.4,22.1,64.9,25.8z"/>
					<path class="st13" d="M78.1,21.7c7.3,3,23.9,9.8,24.8,8.8c1.1-1.1-17.1-8.7-21.6-13.4c-0.5,1.1-1,2.2-1.4,3.3
						C79.6,21.1,78.9,21.6,78.1,21.7z"/>
					<path class="st14" d="M113.2,34.7c2.2,1.2,6.5,2.4,8.4,2.9c-1-1.4-1.3-3.5-1.2-5.8c-1.5,1-0.8,2.7-3.8,2.3
						C112.9,33.6,110.4,33.1,113.2,34.7z"/>
					<path class="st15" d="M66.4,80.4c-3.8,0.5-10.1,1.2-16.4-1.7c0.2-0.1,0.5-0.3,0.7-0.4c0.9-0.5,1.7-2,2.4-4
						c5,1.6,2.7,4.1,5.5,4.2C61.5,78.8,70.6,79.9,66.4,80.4z"/>
				</g>
			</g>
		</g>
	</g>
</g>
</svg>
