<?xml version="1.0" encoding="utf-8"?>
<!-- Generator: Adobe Illustrator 25.3.1, SVG Export Plug-In . SVG Version: 6.00 Build 0)  -->
<svg version="1.1" id="圖層_1" xmlns="http://www.w3.org/2000/svg" xmlns:xlink="http://www.w3.org/1999/xlink" x="0px" y="0px"
	 viewBox="0 0 250 200" style="enable-background:new 0 0 250 200;" xml:space="preserve">
<style type="text/css">
	.st0{clip-path:url(#SVGID_2_);}
	.st1{fill:#EFAEA6;}
	.st2{opacity:0.14;fill:#1F1F3B;enable-background:new    ;}
	.st3{fill:#191939;}
	.st4{fill:#FFFFFF;}
	.st5{fill:#0069A8;}
	.st6{opacity:0.24;fill:#1F1F3B;enable-background:new    ;}
	.st7{opacity:0.2;fill:#1F1F3B;enable-background:new    ;}
	.st8{fill:#F4AD00;}
</style>
<g id="圖層_2_1_">
	<g id="artwork">
		<g>
			<defs>
				<rect id="SVGID_1_" x="0.4" width="249.3" height="200"/>
			</defs>
			<clipPath id="SVGID_2_">
				<use xlink:href="#SVGID_1_"  style="overflow:visible;"/>
			</clipPath>
			<g class="st0">
				<g>
					<path class="st1" d="M142.8,78.1l-19.2,6.7c0,0-18.8,6.3-15.8,1.5c3.9-6.4,2.5-3.3,3.8-7.4c0.8-2.5,1-7,1-11.8
						c0-1.6-0.1-3.2-0.1-4.8c-0.2-5-0.6-9.7-0.8-12.4c-0.1-1.4-0.2-2.2-0.2-2.2l-0.5-1.5l5.4-18.7c0,0,11.4,7.3,13.5,15.9
						C131.6,51.3,142.4,69.3,142.8,78.1z"/>
					<path class="st2" d="M112.4,62.3c-0.2-5-0.6-9.7-0.8-12.4l4.4-2.5c0,0,8.8-3.6,10.8-1.6C129.4,48.4,121.7,60.7,112.4,62.3z"/>
					<path class="st1" d="M134.5,30.2c0,0-1.3,3-3,6.8c-2.1,4.6-5,10.3-7.2,12.8c-0.2,0.2-0.3,0.4-0.5,0.5
						c-4.7,4.1-19.8,4.7-30.1-0.6c-4.5-2.3,7.2-12.9,2.9-14.9c-2.5-1.2,0.6-4.5,4.4-8.3c2.6-2.7,5.6-5.5,7.1-8l0.2-0.4L134.5,30.2z"
						/>
					<path class="st3" d="M142.1,37.4c0.3,0.9,0.4,1.8,0.3,2.7c-1,7.6-17.8,12.4-18.6,10.3l0,0c-1.1-2.8,4.8-7.8,3.6-10.2
						c-1.9-3.7-3.5-1.3-7.1-0.2c-3.9,1.3-8.9-0.9-3.4-4.3c1.1-0.6,2.1-1.4,2.9-2.3c1.4-1.9-0.4-3.1-2.9-3.9c-3.7-1.3-4.2-0.5-6-2.8
						s3.9-3.6-0.3-6.5c-0.8-0.6-1.6-1.1-2.4-1.6c-3.1-2.2-5.9-4.5-4.9-8.4c0.1-0.3,0.2-0.6,0.3-0.8c0.4-1.4,1.2-2.6,2.4-3.6
						c0.3-0.2,0.7-0.4,1.1-0.6l0,0c2.8-1,6.1,1.2,8.6,3.1l0.6,0.4c0.4,0.3,1,0.5,1.6,0.3c2.2-0.4,5.2-3.4,9.3-1.2
						c4.1,2.2,2.4,4.3,6,6.4c2.1,1.3,8.2-0.3,10.4,4c0.6,1.2,1,2.5,1.1,3.9C145,27.5,139.8,31,142.1,37.4z"/>
					<path class="st1" d="M44.1,66c3.1-13.2,18.3-24,23.4-30.8c2.9-3.8,19.7-1.2,18,2.3c-1.7,3.5-10.3-3.8-14.3,5.6
						c-1.5,3.5,9.1,6.9,7.1,11.7s-13,3.1-15.2,12.3C60.9,76.4,44.1,66,44.1,66z"/>
					<path class="st4" d="M138.6,63.1c-8.7-2.3-9.6,11.9-18.4,12.6c-4.6,0.4-3.6-1.6-5.8-3.8c-1.4-1.3-2.6-2.8-4.7-0.6
						c-43.4,44,1.8,154.8-3.8,162.5c-4.5,6.3,32.2,20.1,55.2,14.6c31.6-7.6,29.7-41.5,28.8-48c-0.9-6.5-21.3-116.6-21.3-116.6
						S152.7,75.5,138.6,63.1z"/>
					<path class="st5" d="M114.7,245.3c-0.2,8.5-1.3,14.7-4.5,17.6c-5.8,5.2-13.8,6.2-23.4-3.7c-0.5-0.6-1.1-1.2-1.5-1.8
						c-12.9-17.4-3.6-65.3-2.3-77c0.5-4.7,1.7-11.1,2.7-17.7c1.3-8.2,0.4-23.8-6.6-24.7c-8.8-1.2-59.8,22.5-73,8.8
						c-11.9-12.3,30.3-86.2,35.6-92.3c2-2.3,23.6,8.4,22.7,12.9c-1.6,8.1-27,47.4-25.5,49.5c3.2,4.3,33.4-27.4,71-45.9
						c0,0-3.7,24.7-4.2,28.7c-3.3,25.4,11.1,43.4,8.2,74.1c-1.3,13.2-1,26.6-0.5,38.8C114.1,225.1,114.9,236.4,114.7,245.3z"/>
					<path class="st5" d="M202.2,260.6c-13.8,8.5-32.2,8.8-44.4-3.9c-10.1-10.5,0.1-24.1-7.3-48.6c-4.1-13.6-10.6-37.9-11.9-54.8
						c-2.9-36-0.7-80.1,0.1-90.2c0,0,22,0.5,40,19.1c7.6,7.8,12.3,30.4,13.1,46.9c0.3,5.4,0.4,9.8,0.5,13.4c0.2,7.5,0,12.2-0.3,17.3
						c-0.1,2-0.2,4.2-0.3,6.5l0,0c-0.1,2.7-0.2,5.7-0.3,9.4c-0.1,6,2,16,4.5,26.9l0,0C201.6,226.9,209.6,256,202.2,260.6z"/>
					<path class="st6" d="M171.7,131.1l-8.5-12.8c0,0,1.9,10.6-0.4,11.9c-2.3,1.3-16.2,8.6-18.9,16.3
						C141.2,154.3,171.7,131.1,171.7,131.1z"/>
					<path class="st7" d="M182.5,128l-14.6,4.3c0,0-7.2,2.4-7.4,3.3c-0.2,0.9,11.2,3,12.7,4.1c2.3,4.7,26.4,39.5,33.2,49
						c5.9,8.3,8.4,77.3,11.4,78.3c6.1,2.1-3.8,12.3-2.3,14.4c1.5,2.1-1.5,1.7,3,0.8s10-21,10.2-21.9c0.2-0.9-4.2-63.8-7-66.6
						c-2.8-2.8-27.8-41.2-30.1-44.8C189.5,145.3,182.5,128,182.5,128z"/>
					<path class="st5" d="M161.9,113.9c24.6,45.6,44.6,60.9,48.7,72.8c4.4,12.9,6.7,70.8,7.3,74.1s30.5,2,31-4.2
						c0.3-3.9-3.6-61-8.5-79.6c-4.6-17.4-48-79.4-53.9-86.2s-31.3-9.7-31,2.5C155.7,100.6,157.9,107.7,161.9,113.9z"/>
					<path class="st6" d="M121.3,76.5c0.8-0.4,6.3,13.9,15.5,19.3c2.5,1.6,5.4,2.6,8.3,3.1c8.8,1.3,45.9-2.2,45.9-2.2l-5.4-7.1
						c0,0-34,1.8-38.5,0.9c-3.3-0.7-6.4-1.9-9.3-3.5c-5.3-2.9-9.7-6.8-12.9-10.2c-1.7-1.7-1.6-4.1-3.9-4.4
						C118.1,72,120.3,76.9,121.3,76.5z"/>
					<path class="st8" d="M117.6,74.4c0.2-2,2-3.5,4.1-3.3c0,0,0.1,0,0.1,0c2.2,0.1,2.4,1,4.1,2.6c5.3,4.8,13.4,10.7,23.2,12
						c9.8,1.3,32.9-10.6,47.3-7.2s18.3,16.1,39.1,19.9s43.9-4.2,50.1-3c6.2,1.2,9.9,2.6,9.6,5c-0.3,2.4-3.6,6.2-8,7.8
						c-4.4,1.6-43,3.1-53.1,1.5c-16.5-2.6-30-17.3-40.6-18.5c-10.6-1.2-33.4,4.1-45.8,3.1c-13.9-1.1-24.5-17-25.5-16.5
						c-1,0.8-2.4,1-3.6,0.6C117.4,78.1,117.4,75.7,117.6,74.4z"/>
				</g>
			</g>
		</g>
	</g>
</g>
</svg>
