<?xml version="1.0" encoding="utf-8"?>
<!-- Generator: Adobe Illustrator 25.3.1, SVG Export Plug-In . SVG Version: 6.00 Build 0)  -->
<svg version="1.1" id="圖層_1" xmlns="http://www.w3.org/2000/svg" xmlns:xlink="http://www.w3.org/1999/xlink" x="0px" y="0px"
	 viewBox="0 0 200 240" style="enable-background:new 0 0 200 240;" xml:space="preserve">
<style type="text/css">
	.st0{fill:#E8DCD3;}
	.st1{opacity:0.6;clip-path:url(#SVGID_2_);}
	.st2{fill:#E0E0E0;fill-opacity:0.8;}
	.st3{fill:#F5F5F5;fill-opacity:0.8;}
	.st4{fill:#FFFFFF;fill-opacity:0.8;}
	.st5{fill:#FAFAFA;fill-opacity:0.8;}
	.st6{fill:#EBEBEB;fill-opacity:0.8;}
	.st7{clip-path:url(#SVGID_4_);}
	.st8{fill:#C2CBCE;}
	.st9{fill:#B3B3B3;}
	.st10{fill:#CEEBF2;}
	.st11{fill:#FF9F80;}
	.st12{fill:#231F20;}
	.st13{fill:#141112;}
	.st14{fill:#443F41;}
	.st15{fill:#F27C55;}
	.st16{fill:#C23429;}
	.st17{fill:#36303A;}
	.st18{fill:#6F5E68;}
	.st19{fill:#EA876C;}
	.st20{fill:#FFFFFF;}
	.st21{fill:#D69C83;}
	.st22{fill:none;stroke:#B3B3B3;stroke-width:1.5;stroke-miterlimit:10;}
	.st23{fill:#CCCCCC;}
	.st24{fill:#4E4552;}
</style>
<g>
	<rect class="st0" width="200" height="240"/>
	<g>
		<g>
			<defs>
				
					<rect id="SVGID_1_" x="14.7" y="29.2" transform="matrix(0.9999 -1.580601e-02 1.580601e-02 0.9999 -1.1626 1.601)" width="172" height="90.3"/>
			</defs>
			<clipPath id="SVGID_2_">
				<use xlink:href="#SVGID_1_"  style="overflow:visible;"/>
			</clipPath>
			<g class="st1">
				<path class="st2" d="M63.3,33.4l-45.1,0.7l1,65.3l45.1-0.7L63.3,33.4z"/>
				<path class="st3" d="M61.1,33.4L16,34.1l1,65.3l45.1-0.7L61.1,33.4z"/>
				<path class="st4" d="M55.6,40.6l-33.9,0.5l0.8,51.2l33.9-0.5L55.6,40.6z"/>
				<path class="st2" d="M56.4,91.7c0,0,0-0.1,0-0.3c0-0.2,0-0.4,0-0.7c0-0.6,0-1.6,0-2.8c0-2.4-0.1-6-0.2-10.5
					c-0.1-9-0.4-21.8-0.6-36.8l0.1,0.1l-33.9,0.5l0.1-0.1c0.3,19.3,0.6,37.1,0.8,51.2l-0.1-0.1l24.7-0.3l6.8-0.1h1.8L56.4,91.7
					l-0.5-0.1h-1.8l-6.8,0.1l-24.7,0.4h-0.1V92c-0.2-14.1-0.5-31.8-0.8-51.2v-0.1h0.1l33.9-0.5h0.1v0.1c0.2,15.1,0.4,27.9,0.5,36.9
					c0.1,4.5,0.1,8.1,0.1,10.5c0,1.2,0,2.2,0,2.8c0,0.3,0,0.5,0,0.7C56.5,91.6,56.4,91.7,56.4,91.7z"/>
				<path class="st2" d="M61.2,33.4c-0.2,0.4-0.5,0.8-0.8,1.2c-0.5,0.7-1.3,1.7-2.1,2.7s-1.6,2-2.2,2.6c-0.3,0.4-0.6,0.7-1,1
					c0.2-0.4,0.5-0.8,0.8-1.1l2.1-2.7l2.1-2.7C60.6,34.1,60.9,33.8,61.2,33.4z"/>
				<path class="st2" d="M62.6,98.9c-0.4-0.3-0.7-0.6-1-0.9c-0.8-0.8-1.6-1.6-2.3-2.5s-1.4-1.8-2-2.7c-0.3-0.4-0.5-0.8-0.7-1.2
					c0.3,0.3,0.6,0.7,0.9,1.1c0.5,0.7,1.2,1.6,2.1,2.6c0.8,1,1.6,1.9,2.2,2.5C62,98.2,62.3,98.5,62.6,98.9z"/>
				<path class="st2" d="M22.8,92c-0.9,1.3-1.8,2.6-2.8,3.8c-0.9,1.2-1.9,2.4-3,3.6c0,0,1.2-1.7,2.8-3.8
					C20.7,94.4,21.7,93.2,22.8,92z"/>
				<path class="st2" d="M16,34.1c1,1.1,2,2.2,2.9,3.4c1,1.1,1.9,2.3,2.7,3.5c-1-1.1-2-2.2-2.9-3.4C17.7,36.5,16.8,35.4,16,34.1z"/>
				<path class="st2" d="M45.2,51.1l-11.4,0.2l0.5,32.2l11.4-0.2L45.2,51.1z"/>
				<path class="st2" d="M186.1,34.1l-33.2,0.5l0.5,34.5l33.2-0.5L186.1,34.1z"/>
				<path class="st5" d="M183.8,34.1l-33.2,0.5l0.5,34.5l33.2-0.5L183.8,34.1z"/>
				<path class="st2" d="M184.4,68.7l-33.2,0.5l-0.5-34.6l33.2-0.5L184.4,68.7z M151.2,69.2l33.2-0.5l-0.5-34.5l-33.2,0.5
					L151.2,69.2z"/>
				<path class="st4" d="M179.4,38.8l-24.3,0.4l0.4,25.2l24.3-0.4L179.4,38.8z"/>
				<path class="st2" d="M155.6,64.6c-0.2,0.3-0.4,0.5-0.6,0.7c-0.4,0.4-0.9,1-1.5,1.6s-1.1,1.2-1.6,1.5c-0.2,0.2-0.4,0.4-0.7,0.6
					c0.2-0.3,0.4-0.5,0.6-0.7c0.4-0.4,0.9-1,1.5-1.6s1.2-1.2,1.6-1.5C155.1,65,155.3,64.8,155.6,64.6z"/>
				<path class="st2" d="M179.8,64.2c0.3,0.2,0.5,0.4,0.7,0.6c0.4,0.4,1,0.9,1.6,1.5s1.2,1.2,1.5,1.6c0.2,0.2,0.4,0.4,0.6,0.7
					c-0.3-0.2-0.5-0.4-0.7-0.6c-0.4-0.4-1-0.9-1.6-1.5s-1.2-1.2-1.5-1.6C180.2,64.7,180,64.4,179.8,64.2z"/>
				<path class="st2" d="M179.4,38.9c0.2-0.3,0.4-0.5,0.6-0.7c0.4-0.4,0.9-1,1.5-1.6s1.2-1.2,1.6-1.5c0.2-0.2,0.4-0.4,0.7-0.6
					c-0.2,0.3-0.4,0.5-0.6,0.7c-0.4,0.4-0.9,1-1.5,1.6s-1.2,1.2-1.6,1.5C179.8,38.5,179.6,38.7,179.4,38.9z"/>
				<path class="st2" d="M155.1,39.4c-0.3-0.2-0.5-0.4-0.7-0.6c-0.4-0.4-1-0.9-1.6-1.5s-1.2-1.2-1.5-1.6c-0.2-0.2-0.4-0.4-0.6-0.7
					c0.3,0.2,0.5,0.4,0.7,0.6c0.4,0.4,1,0.9,1.6,1.5s1.2,1.2,1.5,1.6C154.7,38.9,154.9,39.1,155.1,39.4z"/>
				<path class="st2" d="M179.8,64.1L179.8,64.1c0-0.2,0-0.3,0-0.5c0-0.3,0-0.8,0-1.4c0-1.2,0-2.9-0.1-5.1
					c-0.1-4.4-0.2-10.7-0.3-18.3l0.1,0.1l-24.2,0.4l0.1-0.1c0.1,9.3,0.3,17.9,0.4,25.2l-0.1-0.1l17.5-0.2l4.9-0.1h1.3h-1.3l-4.9,0.1
					l-17.6,0.3h-0.1v-0.1c-0.1-7.3-0.3-16-0.4-25.2l0,0h0.1l24.2-0.4h0.1v0.1c0.1,7.6,0.2,13.9,0.2,18.3c0,2.2,0.1,3.9,0.1,5.1
					c0,0.6,0,1,0,1.3c0,0.1,0,0.3,0,0.3C179.8,64,179.8,64.1,179.8,64.1z"/>
				<path class="st6" d="M171.5,47.6l-8.1,0.1l0.1,8.1l8.1-0.1L171.5,47.6z"/>
				<path class="st2" d="M186.8,83.5L153.7,84l0.5,34.5l33.2-0.5L186.8,83.5z"/>
				<path class="st5" d="M184.6,83.5L151.4,84l0.5,34.5l33.2-0.5L184.6,83.5z"/>
				<path class="st2" d="M185.1,118.1l-33.2,0.5L151.4,84l33.2-0.5L185.1,118.1z M152,118.6l33.2-0.5l-0.5-34.5l-33.2,0.5L152,118.6
					z"/>
				<path class="st4" d="M180.2,88.2l-24.3,0.4l0.4,25.2l24.3-0.4L180.2,88.2z"/>
				<path class="st2" d="M156.4,114c-0.2,0.3-0.4,0.5-0.6,0.7c-0.4,0.4-0.9,1-1.5,1.6s-1.1,1.2-1.6,1.5c-0.2,0.2-0.4,0.4-0.7,0.6
					c0.2-0.3,0.4-0.5,0.6-0.7c0.4-0.4,0.9-1,1.5-1.6s1.2-1.2,1.6-1.5C155.9,114.4,156.1,114.2,156.4,114z"/>
				<path class="st2" d="M180.6,113.6c0.3,0.2,0.5,0.4,0.7,0.6c0.4,0.4,1,0.9,1.6,1.5s1.2,1.2,1.5,1.6c0.2,0.2,0.4,0.4,0.6,0.7
					c-0.3-0.2-0.5-0.4-0.7-0.6c-0.4-0.4-1-0.9-1.6-1.5s-1.2-1.2-1.5-1.6C181,114.1,180.8,113.9,180.6,113.6z"/>
				<path class="st2" d="M180.1,88.3c0.2-0.3,0.4-0.5,0.6-0.7c0.4-0.4,0.9-1,1.5-1.6s1.2-1.2,1.6-1.5c0.2-0.2,0.4-0.4,0.7-0.6
					c-0.2,0.3-0.4,0.5-0.6,0.7c-0.4,0.4-0.9,1-1.5,1.6s-1.2,1.2-1.6,1.5C180.6,87.9,180.4,88.1,180.1,88.3z"/>
				<path class="st2" d="M155.9,88.8c-0.3-0.2-0.5-0.4-0.7-0.6c-0.4-0.4-1-0.9-1.6-1.5s-1.2-1.2-1.5-1.6c-0.2-0.2-0.4-0.4-0.6-0.7
					c0.3,0.2,0.5,0.4,0.7,0.6c0.4,0.4,1,0.9,1.6,1.5s1.2,1.2,1.5,1.6C155.5,88.3,155.7,88.5,155.9,88.8z"/>
				<path class="st2" d="M180.5,113.5L180.5,113.5c0-0.2,0-0.3,0-0.5c0-0.3,0-0.8,0-1.4c0-1.2,0-2.9-0.1-5.1
					c-0.1-4.4-0.2-10.7-0.3-18.3l0.1,0.1L156,88.7l0.1-0.1c0.1,9.3,0.3,17.9,0.4,25.2l-0.1-0.1l17.5-0.2l4.9-0.1h1.3L180.5,113.5
					C180.6,113.5,180.5,113.5,180.5,113.5h-0.4h-1.3l-4.9,0.1l-17.6,0.3h-0.1v-0.1c-0.1-7.3-0.3-16-0.4-25.2l0,0h0.1l24.2-0.4h0.1
					v0.1c0.1,7.6,0.2,13.9,0.2,18.3c0,2.2,0.1,3.9,0.1,5.1c0,0.6,0,1,0,1.3c0,0.1,0,0.3,0,0.3C180.6,113.5,180.5,113.5,180.5,113.5z
					"/>
				<path class="st6" d="M172.3,97l-8.1,0.1l0.1,8.1l8.1-0.1L172.3,97z"/>
			</g>
		</g>
	</g>
	<g>
		<g>
			<defs>
				
					<rect id="SVGID_3_" x="62.1" y="17.7" transform="matrix(0.9994 -3.325578e-02 3.325578e-02 0.9994 -4.0824 3.4442)" width="78.8" height="213.5"/>
			</defs>
			<clipPath id="SVGID_4_">
				<use xlink:href="#SVGID_3_"  style="overflow:visible;"/>
			</clipPath>
			<g class="st7">
				<path class="st8" d="M134.9,226.4l-59.3,2L86.7,215l36.3-1.2L134.9,226.4z"/>
				<path class="st9" d="M75.6,228.4l59.3-2l0.1,2.8c0,0.2-0.1,0.4-0.2,0.6c-0.2,0.2-0.4,0.3-0.6,0.3L76.5,232
					c-0.2,0-0.4-0.1-0.6-0.2c-0.2-0.1-0.3-0.4-0.3-0.6V228.4z"/>
				<path class="st10" d="M115.5,225.8l-20.6,0.7l2.7-4l14.8-0.5L115.5,225.8z"/>
				<path class="st9" d="M86.2,221.4l8.4-0.3l-4.1,5.5l-8.9,0.3L86.2,221.4z"/>
				<path class="st9" d="M123.7,220.1l-8.4,0.3l4.4,5.2l8.9-0.3L123.7,220.1z"/>
				<path class="st9" d="M90.7,215.8l7.7-0.3l-3.2,4.4l-8.1,0.3L90.7,215.8z"/>
				<path class="st9" d="M119.1,214.9l-8.2,0.3l3.5,4.1l8.5-0.3L119.1,214.9z"/>
				<path class="st11" d="M100.9,218.5c-0.1-0.9-0.7-1.9-1.1-2.8c-0.7-1.5-1.1-3.3-1.1-3.4c0-0.2-1.1-2.9-1.1-3.5
					c0-0.2-0.4,0.7-0.5,0.6c-0.4-0.3-0.1,0.2-0.7,0.3s-1.2,0.2-1.8,0.2h-0.1c-1,0-2.2-0.1-3.2-0.3c-0.4-0.1-0.6,2.2-0.5,2.7
					l-0.1,0.4c0.1,0.2-1.1,3.8-1.4,4.7c-0.1,0.2-0.2,0.4-0.2,0.6c-0.1,0.5-0.1,1,0.2,1.5c0.1,0.2,0.2,0.3,0.3,0.4
					c0.7,0.6,2,0.9,3.3,1c1.1,0.1,2.2,0.1,3.3,0c3.6-0.4,4.1-0.9,4.3-1c0.2-0.1,0.4-0.5,0.4-0.6C101,219.1,101,218.8,100.9,218.5z"
					/>
				<path class="st11" d="M107.8,218.2c0-0.9,0.6-1.9,1-2.9c0.6-1.6,0.9-3.3,0.9-3.5s0.9-3,0.9-3.5c0-0.2,0.4,0.7,0.6,0.6
					c0.4-0.3,0.1,0.2,0.8,0.3c0.6,0.1,1.2,0.1,1.8,0.1h0.1c1-0.1,2.2-0.3,3.2-0.5c0.4-0.1,0.8,2.2,0.7,2.7l0.1,0.4
					c-0.1,0.2,1.4,3.8,1.7,4.6c0.1,0.2,0.2,0.4,0.2,0.6c0.1,0.5,0.1,1-0.1,1.5c-0.1,0.2-0.2,0.3-0.3,0.4c-0.7,0.7-1.9,1-3.2,1.3
					c-1.1,0.2-2.2,0.3-3.3,0.2c-3.7-0.1-4.1-0.6-4.4-0.7c-0.2-0.1-0.4-0.4-0.5-0.6C107.8,218.8,107.8,218.5,107.8,218.2z"/>
				<path class="st12" d="M121.1,156.4c0,2.6,1.3,13.4,0.8,24c-0.6,14.3-3,29-3,29s-2.4,0.1-4.9,0.3c-2.4,0.3-5.3-1.5-5.3-1.5
					s-1.5-35.8-2.1-47.4c-0.4-6.8-3.1-20.4-4.4-28.2c-0.4-2.7-1.6-2.8-1.6-2.8s-3,23.7-2.9,31c0.1,7.2,1.8,48.7,1.8,48.7
					s-4.5,1.1-5.8,0.9c-1.3-0.1-5.5-2.3-5.5-2.3s-2.8-15.6-4.4-30.2c-0.8-7.8-0.8-17.3-0.8-19.5c-0.2-6.2-1.8-33-2.2-40.7
					c-0.1-1,0.1-3.2,0.5-5.8c0.1-1.1,0.3-2.2,0.4-3.4c0.9-6.5,0.7-3.7,0.7-3.7l36.8-1.5c0,0,1.3,8.1,1.5,10.9
					c0.3,5.3,0.4,15,0.4,23.9C121.1,145.9,121.1,153.1,121.1,156.4z"/>
				<path class="st13" d="M96.4,158.2c-0.1,1.6-0.5,3.1-0.8,4.6s-0.7,3-1.1,4.5c-0.3,1.2,1.7,1.7,1.9,0.5c0.4-1.6,0.6-3.2,0.8-4.8
					c0.2-1.6,0.2-3.2,0.3-4.8C97.7,157.4,96.4,157.4,96.4,158.2L96.4,158.2z"/>
				<path class="st13" d="M106.9,156.9c0.1,1.3,0.7,2.5,1.4,3.6c0.7,1.1,1.5,2.3,1.6,3.6c0.1,0.8,1.3,0.8,1.2,0
					c-0.2-1.3-0.8-2.5-1.5-3.6s-1.5-2.3-1.6-3.6C108.1,156.1,106.8,156.1,106.9,156.9L106.9,156.9z"/>
				<path class="st14" d="M100.6,107.6c-0.1,7.1,0,14.1-0.1,21.2c0,0.4,0.6,0.4,0.6,0c0.1-7.1,0-14.1,0.1-21.2
					C101.2,107.2,100.6,107.2,100.6,107.6z"/>
				<path class="st14" d="M103.6,107.5c0.1,1.7-0.1,3.4-0.3,5.1c-0.3,2.2-1,4.3-2.3,6c-0.2,0.3,0.2,0.7,0.5,0.4
					c1.4-1.8,2.1-3.9,2.4-6.1c0.3-1.8,0.5-3.6,0.4-5.5C104.2,107.1,103.5,107.1,103.6,107.5L103.6,107.5z"/>
				<path class="st14" d="M85.1,104.7c-0.3,2.3-0.5,4.7-1,7s-1.5,4.5-2.7,6.5c-0.2,0.3,0.3,0.6,0.6,0.3c1.3-2,2.2-4.2,2.7-6.5
					c0.6-2.3,0.8-4.8,1.1-7.2C85.7,104.4,85.1,104.3,85.1,104.7L85.1,104.7z"/>
				<path class="st14" d="M115,104.1c-0.1,2.8,0.2,5.6,1.2,8.3c0.5,1.3,1,2.6,1.7,3.8c0.6,1.1,1.3,2.2,2.3,3
					c0.3,0.2,0.7-0.2,0.4-0.5c-1-0.7-1.6-1.8-2.2-2.8c-0.7-1.2-1.2-2.5-1.7-3.9c-0.9-2.6-1.1-5.3-1.1-8
					C115.6,103.7,115,103.7,115,104.1L115,104.1z"/>
				<path class="st11" d="M81.3,101.3c0,0-9.1-11.2-9.1-11.7s1.6-1.9,1.6-1.9s-4.7-8.8-4.8-8.8c-0.1,0-2.3-1.1-2.3-1.1
					s-5.3,7.7-5.8,9.5s5.1,8.1,9.6,12.1s10.2,8.8,10.2,8.8L81.3,101.3z"/>
				<path class="st15" d="M71.8,89.1L71.8,89.1c0.1,0,0.2,0,0.2-0.1v-0.1v-0.1l-2.5-3.1c0,0,0,0-0.1,0c0,0,0,0-0.1,0h-0.1
					c0,0,0,0-0.1,0c0,0,0,0,0,0.1c0,0,0,0,0,0.1V86c0,0,0,0,0,0.1l2.5,3.1C71.6,89,71.6,89.1,71.8,89.1
					C71.7,89.1,71.7,89.1,71.8,89.1z"/>
				<path class="st16" d="M88.4,69.2c0.1,1-0.2,2.2-0.5,3.4c-1.2,4-3.9,8.4-4.1,8.6c-0.2,0.1-3.7,2.6-6.8,4.7
					c-0.3,0.2-0.5,0.3-0.7,0.5c-0.1,0.1-0.2,0.2-0.4,0.2c-0.3,0.2-0.7,0.4-1,0.7c-1.4,1-2.4,1.6-2.4,1.6s-0.4-0.6-1-1.7
					c-0.2-0.3-0.3-0.5-0.5-0.8c-0.1-0.1-0.1-0.2-0.2-0.3c-0.2-0.3-0.3-0.5-0.5-0.8c-0.9-1.4-1.9-3.1-2.8-4.6
					c-0.2-0.3-0.4-0.6-0.5-0.9c-0.1-0.1-0.1-0.2-0.2-0.3c-0.2-0.3-0.3-0.6-0.5-0.8c-1-1.7-1.6-2.9-1.5-3.1c0.3-0.5,4.1-3.6,5.8-6.3
					c0.6-0.9,1.5-1.9,2.5-3c0.3-0.3,0.6-0.7,0.9-1c0.1-0.1,0.2-0.2,0.3-0.3c0.2-0.2,0.4-0.4,0.6-0.6c1.4-1.5,2.8-3,3.5-4.1
					C79.9,57.8,84,56,84,56s0.2,0.7,0.6,1.7c0.1,0.4,0.3,0.9,0.5,1.4c0,0.1,0,0.1,0.1,0.2l0,0c0.1,0.3,0.2,0.6,0.3,0.9
					c0.9,2.6,1.9,5.7,2.7,7.6C88.3,68.3,88.4,68.7,88.4,69.2z"/>
				<path class="st11" d="M120.4,103.3c0,0,8.3-11.7,8.3-12.2s-1.8-1.8-1.8-1.8s4.1-9,4.2-9l3.1-0.2c0,0,4.9,6.2,5.5,8
					c0.6,1.7-4.5,8.4-8.7,12.6s-9.5,9.4-9.5,9.4L120.4,103.3z"/>
				<path class="st16" d="M136.1,79.5c0.1,0.2-0.6,1.1-1.6,2.4c0,0.1-0.1,0.1-0.2,0.2c-0.1,0.1-0.2,0.2-0.2,0.3
					c-0.3,0.4-0.7,0.8-1,1.3c-1,1.2-2.2,2.6-3.3,3.7c-0.1,0.1-0.1,0.2-0.2,0.2c-0.1,0.1-0.2,0.2-0.3,0.3c-0.4,0.4-0.7,0.8-1.1,1.1
					c-1,1-1.8,1.6-2.1,1.5c-0.3,0-0.8-0.4-1.6-0.9c-0.1-0.1-0.3-0.2-0.4-0.3c-0.2-0.1-0.3-0.2-0.5-0.4c-0.4-0.3-0.8-0.6-1.2-0.9
					c-3.1-2.3-7-5.5-7.1-5.7c-0.2-0.2-4.1-10.4-2-13.8c0.9-1.5,2.1-3.7,3.2-5.7c0.4-0.8,0.8-1.5,1.1-2.2c0.9-1.8,1.5-3.1,1.5-3.1
					s3.3,1.8,4.8,4.1c0.1,0.1,0.2,0.3,0.2,0.4c0.3,0.6,0.7,1.2,1.1,1.8c0.1,0.2,0.3,0.4,0.4,0.6c0.2,0.3,0.4,0.5,0.5,0.8
					c1.8,2.5,3.8,4.6,5.4,7C133.4,75,135.8,79,136.1,79.5z"/>
				<path class="st17" d="M118,104.2c-1.3,0.2-2.6,0.3-2.7,0.4c-8.7,0.9-17.5,1.1-26.2,0.7c-2.2-0.1-4.4-0.3-6.5-0.5
					c0.1-1.1,0.2-2.2,0.3-3.2H83c2,0.2,4.1,0.3,6.2,0.4c8.7,0.3,17.4,0.1,26-1.1c0.7-0.1,1.5-0.2,2.2-0.3c0.2,0.8,0.3,1.6,0.5,2.4
					C117.9,103.3,118,103.7,118,104.2z"/>
				<path class="st18" d="M89,100.6l-0.6,6.4l0.7,0.1l0.6-6.4L89,100.6z"/>
				<path class="st18" d="M111,99.7l-0.7,0.2l1.4,6.3l0.7-0.2L111,99.7z"/>
				<path class="st19" d="M115.9,56.3c-0.1,0-0.2-0.1-0.3-0.1c-0.1-0.1-0.2-0.1-0.2-0.1c-2.6-0.8-4.7-1.7-6.9-3.4
					c-1.4-1.1-1.8-2.6-1.9-4.3c-0.1-1.6-0.3-3.3-0.1-4.9c0-0.2-0.7-0.3-0.8-0.1c-0.9,1.4-3.3,1.4-4.8,1.5c-1.7,0-3.3-0.2-4.9-0.7
					c-0.1-0.6-0.2-1.3-0.3-1.9c0-0.2-0.4-0.2-0.4,0c0.1,0.6,0.2,1.2,0.3,1.8c-0.2,0-0.2,0.3,0,0.4c0,0,0,0,0.1,0
					c0.2,1.3,0.4,2.5,0.5,3.8c0.1,1,0,2.7-0.6,3.7c-1.7,2.6-5.2,3.7-8.1,4.4c-0.2,0.1-0.1,0.4,0.1,0.4c0.3-0.1,0.5-0.1,0.8-0.2
					c0.8,2.1,2.9,2.9,4.9,3.3c2.8,0.6,5.4,2.8,8.3,3.1c2.7,0.2,5.6-1.8,8.2-2.6c2.2-0.7,4.4-1.8,5.8-3.7c0.1,0,0.2,0.1,0.3,0.1
					C116.1,56.7,116.2,56.3,115.9,56.3z"/>
				<path class="st20" d="M92.7,54.4c0,0,4.2,2,8.4,2c4.2,0,9.3-1.4,9.3-1.4l-8.8,8.3L92.7,54.4z"/>
				<path class="st16" d="M122.8,60.3c-0.4-1-1.5-1.6-2.4-2.1c-0.9-0.6-1.8-1.1-2.8-1.6c-0.2-0.1-0.4-0.2-0.6-0.4
					c-0.2-0.1-0.4-0.2-0.6-0.3c-0.3-0.2-1-0.4-1.7-0.6c-1.6-0.5-3.8-1.1-3.8-1.1l-1.6,1.2l-2.4,1.9l-1.4,1.1l0,0l-4,3.1l-2.4-1.9
					c0,0,0,0-0.1,0l-2.5-2l0,0l-2.1-1.7l-1.9-1.5c0,0-2.1,0.3-4.3,0.7c-0.9,0.1-1.8,0.3-2.6,0.5l0,0c-1,0.2-1.8,0.4-2.1,0.5
					c-1.9,0.8-3.3,2-3.6,4.1c-0.5,2.4-0.3,12.5-0.2,15.5c0.3,5.8-0.1,12.1,0.3,17.9c0.1,1.4,0.3,5,0.4,6.4c0.1,1.2,1.9,1.9,4,2.3
					c0.7,0.1,1.5,0.2,2.2,0.3c2.1,0.2,4.2,0.2,5.3,0.1c0.7,0,1.5-0.1,2.2-0.2s1.4-0.1,2.2-0.2h0.1c2.2-0.1,4.3,0,6.5,0.1
					c0.6,0,1.2,0,1.8,0.1c0.2,0,0.4,0,0.6,0c1.7,0,4.9-0.3,7.8-0.8c0.8-0.2,1.7-0.3,2.4-0.5c1.8-0.5,3.3-1,3.6-1.7
					c0.8-1.8,1.4-28,2.1-30.7c0.4-1.5,0.8-3.1,1.2-4.6C122.6,63,123.2,61.5,122.8,60.3z"/>
				<path class="st20" d="M103.7,101.9L103.7,101.9c-0.2-0.2-0.3-0.2-0.4-0.3c-0.1,0-0.3-0.1-0.4-0.1l-5.3,0.2
					c-0.3,0-0.5,0.1-0.7,0.3c-0.2,0.2-0.3,0.5-0.3,0.7l0.1,2.1c0,0.3,0.1,0.5,0.3,0.7c0.2,0.2,0.5,0.3,0.7,0.3l5.3-0.2l0,0
					c0.3,0,0.5-0.1,0.7-0.3c0.2-0.2,0.3-0.4,0.3-0.7l-0.1-1.5l0,0v-0.7C104,102.3,103.9,102.1,103.7,101.9z M103.7,104.7
					c0,0.2-0.1,0.3-0.2,0.5c-0.1,0.1-0.1,0.1-0.2,0.1s-0.2,0.1-0.2,0.1l-5.3,0.2c-0.1,0-0.2,0-0.2,0c-0.1,0-0.1-0.1-0.2-0.1
					c-0.1-0.1-0.1-0.1-0.1-0.2s-0.1-0.2-0.1-0.2l-0.1-2.1c0-0.1,0-0.2,0-0.2c0-0.1,0.1-0.1,0.1-0.2c0.1-0.1,0.3-0.2,0.4-0.2l0,0
					l5.3-0.2c0.1,0,0.2,0,0.2,0s0.1,0.1,0.2,0.1c0.1,0.1,0.2,0.3,0.2,0.4v0.6v0.3L103.7,104.7z"/>
				<path class="st16" d="M99.2,59.3l-0.5,3.4c0,0-0.9-0.3-2.1-0.7l0,0c-0.7-0.2-1.5-0.5-2.2-0.8c-1-0.4-2-0.8-2.5-1.1
					c-1.6-1-2.9-2.8-3.3-3.4c-0.1-0.1-0.2-0.2-0.4-0.4c-0.5-0.3-1.3-0.7-2-1l0,0c-0.5-0.2-1-0.4-1.1-0.6c-0.2-0.2,0.4-0.4,1.6-0.8
					c0.5-0.2,1-0.4,1.6-0.6c0.7-0.3,1.3-0.6,1.6-0.7c0.7-0.3,1-0.5,1.7-0.8c1-0.4,1.4,1.1,2.3,2.3c0.2,0.3,0.5,0.6,0.9,1.1
					c0.6,0.6,1.3,1.3,2,1.9C97.8,58.2,98.9,59.1,99.2,59.3C99.1,59.3,99.1,59.3,99.2,59.3z"/>
				<path class="st16" d="M117.3,56c0,0.1,0,0.2-0.1,0.4c-0.1,0.3-0.4,0.7-0.6,1.1l0,0c-0.6,0.9-1.3,1.8-1.9,2.3
					c-0.1,0.1-0.2,0.2-0.3,0.3c-1.3,0.9-4.8,2.5-5.9,2.9c-0.1,0-0.2,0.1-0.3,0.1c-0.3,0-1-1.2-1.6-2.5l0,0c-0.6-1.2-1.1-2.4-1.1-2.4
					s0,0,0-0.1l0,0c0.2-0.2,0.7-0.9,1.4-1.7c0.7-0.8,1.6-1.9,2.4-2.7c0.9-1,1.8-1.8,2.1-1.9c0.5-0.1,1.8,0.7,3.1,1.6
					c0.8,0.6,1.6,1.2,2.2,1.7l0,0C117,55.5,117.3,55.8,117.3,56z"/>
				<path class="st21" d="M99.8,100.6L99.8,100.6c-0.1,0-0.2-0.1-0.2-0.1v-0.1v-0.1c0,0,0.8-1.8,0.4-4.7c-0.5-3.1-0.5-15.7-0.5-18.1
					c0-0.7,0.1-1.6,0.1-2.7c0.2-2.6,0.4-5.7,0.2-8.2c-0.2-3.3,0.9-4.5,1.3-4.9l0.1-0.1l0.1-0.1c0.1,0,0.1,0,0.1,0l0.1,0.1
					c0,0.1,0,0.1,0,0.1s0,0.1-0.1,0.1c-0.4,0.4-1.4,1.5-1.2,4.6c0.2,2.5,0,5.7-0.2,8.3c-0.1,1-0.1,1.9-0.1,2.6
					c-0.1,2.7,0,15.1,0.5,18c0.5,3-0.4,4.8-0.4,4.9C100,100.5,100,100.5,99.8,100.6C99.9,100.6,99.9,100.6,99.8,100.6z"/>
				<path class="st21" d="M100.7,62.1C100.6,62.1,100.6,62.1,100.7,62.1c-0.4-0.1-7.8-2.8-8.6-3.3c-0.6-0.4-1-1.6-1.3-2.4
					c0-0.1-0.1-0.3-0.1-0.4c-0.4-0.1-2.7-0.2-4.2-0.4c0,0-0.1,0-0.1-0.1v-0.1c0,0,0-0.1,0.1-0.1c0,0,0.1-0.1,0.1,0
					c2.8,0.2,4.2,0.3,4.3,0.4c0.1,0,0.2,0.2,0.3,0.6c0.2,0.6,0.6,1.8,1.1,2.2c0.6,0.4,5.8,2.3,8.5,3.3c0,0,0.1,0,0.1,0.1V62
					c0,0,0,0.1-0.1,0.1C100.7,62.1,100.7,62.1,100.7,62.1L100.7,62.1z"/>
				<path class="st21" d="M101.5,62L101.5,62l-0.2-0.1v-0.1l0.1-0.1c0.1,0,6.3-1.6,8.2-2.6c1.8-1,1.8-2.2,1.8-2.3v-0.2h0.2h5.2
					c0,0,0,0,0.1,0c0,0,0,0,0.1,0c0,0,0,0,0,0.1c0,0,0,0,0,0.1s0,0.1-0.1,0.1l-0.1,0.1h-5c-0.1,0.5-0.3,1.6-2,2.4
					C107.8,60.4,101.8,62,101.5,62L101.5,62z"/>
				<path class="st22" d="M101.1,109.6l3.9,117.8"/>
				<path class="st23" d="M121.4,107.1l-39.7,1.3c-1,0-1.8,0.9-1.7,1.9l0,0c0,1,0.9,1.8,1.9,1.7l39.7-1.3c1,0,1.8-0.9,1.7-1.9l0,0
					C123.3,107.8,122.4,107.1,121.4,107.1z"/>
				<path class="st20" d="M101.9,63.6c-0.1,0.4-0.4,0.7-0.7,0.7c-0.3-0.1-0.4-0.5-0.3-0.9s0.4-0.7,0.6-0.7
					C101.8,62.7,102,63.1,101.9,63.6z"/>
				<path class="st20" d="M101.5,72c0,0.4-0.2,0.8-0.5,0.8s-0.5-0.4-0.5-0.8s0.2-0.8,0.5-0.8S101.5,71.6,101.5,72z"/>
				<path class="st20" d="M101.2,81.6c0,0.4-0.2,0.8-0.5,0.8s-0.5-0.4-0.5-0.8s0.2-0.8,0.5-0.8C101,80.8,101.2,81.2,101.2,81.6z"/>
				<path class="st20" d="M101.3,90.4c0.1,0.4-0.1,0.8-0.4,0.9c-0.3,0-0.5-0.3-0.6-0.7s0.1-0.8,0.4-0.9
					C101,89.6,101.3,90,101.3,90.4z"/>
				<path class="st20" d="M100.6,99.9c0.1-0.4,0.4-0.7,0.7-0.6c0.3,0.1,0.4,0.5,0.3,0.9s-0.4,0.7-0.7,0.6
					C100.6,100.7,100.5,100.3,100.6,99.9z"/>
				<path class="st15" d="M129.1,90.6H129c0,0-0.1,0-0.1-0.1v-0.1v-0.1l2.3-3.3l0.1-0.1c0.1,0,0.1,0,0.1,0l0.1,0.1
					c0,0.1,0,0.1,0,0.1l-2.3,3.3C129.2,90.5,129.2,90.6,129.1,90.6C129.2,90.6,129.1,90.6,129.1,90.6z"/>
				<path class="st17" d="M112.8,23.2c-0.8-1.4-1.9-3-3.2-4c-1.5-1.2-3.3-1.6-5.2-1.6c-1.4,0-2.9,0.1-3.9,1c-1.8-0.3-3.8-0.4-5.2,1
					c-0.3,0.3-0.5,0.6-0.6,1c-0.2,0.3-0.3,0.9-0.6,1.1c-0.2,0.2-0.6,0.3-0.8,0.4c-0.8,0.4-1.6,0.9-2.1,1.7c-1.3,2,0.1,4.5,0.1,6.7
					c0,1-0.2,2.1,0.4,3c0.1,0.2,0.3,0.4,0.5,0.6c0.6,2.6,4.2,3.7,6.6,4c2.1,0.2,4.3,0.1,6.4-0.1c1.7-0.2,3.9-0.4,5.3-1.5
					c1.1-0.8,1.7-2.2,1.9-3.6c0.1-0.7,0-1.4,0.1-2.2c0.1-1.1,0.8-1.9,1-3C114,26.1,113.6,24.6,112.8,23.2z"/>
				<path class="st11" d="M94.6,26.5c-1.2,3.1-1.6,13.8-1,15.9c0.8,2.7,5.5,6.4,6.8,6.4c2.2-0.1,6.8-2.2,8-5
					c0.7-1.5,3.6-13.8,2-17.6C108.8,22.3,96.4,21.8,94.6,26.5z"/>
				<path class="st17" d="M112.2,25.1c-0.3-1.1-1.4-1.6-2.4-2c-1.6-0.5-3.4-0.8-5.1-0.9s-3.4,0.1-5.1,0.5C98,23,96.4,23.3,95,24.2
					c-1.1,0.6-2,1.6-2.4,2.8c-0.6,1.7,0.3,3.3,0.4,4.9l0,0V32c0.3,0.6,0.7,1.2,1.2,0.3c0.3-0.6,0.3-1.5,0.4-2.2c0-0.2,0-0.3,0.1-0.5
					c0.8,0,1.8-0.4,2.6-0.8c0.9,1.4,2.9,1.1,4.1-0.1c0.4-0.4,0.6-0.7,1.3-0.8c0.3,0,0.6,0,0.9,0c0.4,0,0.8-0.1,1.2-0.3
					c0.5-0.3,0.9-0.8,1.3-1.3l1.3,0.9c0.7,0.5,1.6,1,2.1,1.7s0.4,2,0.5,2.9c0.1,1,0.1,1.9,0,2.9c0,0.2,0.2,0.2,0.3,0.2l0.4-0.3l0,0
					h0.1c0,0,0.1,0,0.1-0.1h0.1c0,0,0,0,0.1-0.1c0.8-1.3,1-2.8,1-4.3c0-1,0-1.9,0.1-2.9C112.2,26.6,112.4,25.8,112.2,25.1z"/>
				<path class="st24" d="M106.2,26.1L106.2,26.1L106,26c0,0-0.1-0.9,1-2.2c1-1.1,0.4-2.6,0.4-2.6v-0.1l0.1-0.1h0.1l0.1,0.1
					c0,0.1,0.7,1.8-0.4,3c-1,1.1-0.9,1.8-0.9,1.9s0,0.1,0,0.2C106.3,26,106.3,26.1,106.2,26.1L106.2,26.1z"/>
				<path class="st24" d="M93.9,29.7L93.9,29.7c-0.2,0-2-1-1.9-2.3c0.1-1.2,1.6-1.8,2.8-1.9c0.4,0,0.6-0.3,1-0.8
					c0.3-0.4,0.7-1,1.5-1.6c1.7-1.4,3.1-0.8,4-0.4c0.5,0.2,1,0,1.6-0.3c0.5-0.2,1-0.4,1.7-0.5c0.5-0.1,0.9,0,1.4,0.1
					c0.4,0.2,0.8,0.4,1.2,0.8v0.1c0,0,0,0.1-0.1,0.1H107c-0.1,0-0.1,0-0.1-0.1c-0.3-0.3-0.6-0.5-1-0.7c-0.4-0.1-0.8-0.2-1.2-0.1
					c-0.6,0.1-1.1,0.3-1.6,0.5c-0.7,0.3-1.3,0.6-1.9,0.3c-0.9-0.4-2-0.9-3.5,0.4c-0.7,0.6-1.1,1.1-1.4,1.5c-0.4,0.5-0.7,0.9-1.3,0.9
					c-0.9,0.1-2.3,0.5-2.5,1.6c-0.1,0.8,1.1,1.7,1.6,1.9l0.1,0.1v0.1c0,0,0,0.1-0.1,0.1C94,29.7,93.9,29.7,93.9,29.7L93.9,29.7z"/>
				<path class="st24" d="M96.3,21.9L96.3,21.9c-0.1,0-0.2,0-0.2-0.1s0-0.1,0-0.1v-0.1c0,0,0.7-1,1.7-1.2c0.6-0.1,1,0,1.6,0
					c0.5,0.1,0.9,0.1,1.4,0.1s0.8-0.1,1.2-0.3c0.5-0.2,1.1-0.5,2.2-0.4c2.1,0.1,2.9,1.2,3,1.3v0.1c0,0,0,0.1-0.1,0.1H107
					c0,0-0.1,0-0.1-0.1s-0.7-1-2.6-1.1c-1.1,0-1.6,0.2-2.1,0.4c-0.4,0.2-0.8,0.3-1.4,0.3c-0.5,0-0.9-0.1-1.4-0.1
					c-0.5-0.1-1-0.1-1.4,0c-0.8,0.2-1.4,1.1-1.4,1.1C96.5,21.9,96.4,21.9,96.3,21.9C96.4,21.9,96.4,21.9,96.3,21.9z"/>
				<path class="st24" d="M97.6,28.2L97.6,28.2l-0.2-0.1l0,0c-0.5-0.7-0.3-1.4,0.6-2c1.5-1,2.9-0.5,2.9-0.5l0.1,0.1v0.1l-0.1,0.1
					h-0.1c-0.1,0-1.3-0.5-2.6,0.4c-1,0.7-0.7,1.2-0.5,1.5c0,0,0.1,0.1,0.1,0.2s0,0.1,0,0.2S97.6,28.2,97.6,28.2L97.6,28.2z"/>
				<path class="st24" d="M112.4,29.1L112.4,29.1c-0.1,0-0.1,0-0.2-0.1c0,0-0.1-0.1,0-0.1c0,0,0.2-2.7-1-4.5c-1.1-1.7-2.9-0.9-3-0.8
					h-0.1l-0.1-0.1v-0.1c0,0,0-0.1,0.1-0.1c0,0,2.2-1,3.5,1c1.3,1.9,1,4.6,1,4.7c0,0,0,0.1-0.1,0.1
					C112.5,29.1,112.4,29.1,112.4,29.1z"/>
				<path class="st11" d="M88.4,104.1c-2.3-1.1-4.8-1.9-7.1-2.8l-3.8,2.9c0,0,1.5,2.4,4.4,5.1c1,0.9,2,1.7,2.9,2.7s2.3,1.5,3.7,1.3
					c1.6-0.2,3.1-1.3,3.7-2.8s0.2-3.3-0.8-4.5c-0.4-0.4-0.9-0.8-1.4-1.1C89.5,104.7,89,104.4,88.4,104.1z"/>
				<path class="st11" d="M113.6,106.6c2.2-1.2,4.7-2.2,6.9-3.3l3.9,2.7c0,0-1.4,2.5-4,5.4c-0.9,1-1.9,1.8-2.7,2.9
					c-0.9,1-2.2,1.6-3.5,1.5c-1.6-0.1-3.1-1.1-3.8-2.6c-0.7-1.5-0.5-3.3,0.5-4.6c0.4-0.5,0.8-0.8,1.3-1.2
					C112.5,107.2,113,106.9,113.6,106.6z"/>
			</g>
		</g>
	</g>
</g>
</svg>
