<?xml version="1.0" encoding="utf-8"?>
<!-- Generator: Adobe Illustrator 25.3.1, SVG Export Plug-In . SVG Version: 6.00 Build 0)  -->
<svg version="1.1" id="圖層_1" xmlns="http://www.w3.org/2000/svg" xmlns:xlink="http://www.w3.org/1999/xlink" x="0px" y="0px"
	 viewBox="0 0 200 240" style="enable-background:new 0 0 200 240;" xml:space="preserve">
<style type="text/css">
	.st0{fill:#E8DCD3;}
	.st1{opacity:0.7;clip-path:url(#SVGID_2_);}
	.st2{fill:#E0E0E0;}
	.st3{fill:#F0F0F0;}
	.st4{opacity:0.7;clip-path:url(#SVGID_4_);}
	.st5{opacity:0.7;clip-path:url(#SVGID_6_);}
	.st6{fill:#F5F5F5;}
	.st7{fill:#E6E6E6;}
	.st8{fill:#FAFAFA;}
	.st9{fill:#FFFFFF;}
	.st10{clip-path:url(#SVGID_8_);}
	.st11{fill:#C2CBCE;}
	.st12{fill:#B3B3B3;}
	.st13{fill:#CEEBF2;}
	.st14{fill:#EA957A;}
	.st15{fill:#FF9F80;}
	.st16{fill:#8E3E23;}
	.st17{fill:#49302E;}
	.st18{fill:#FFA787;}
	.st19{fill:#664844;}
	.st20{fill:#FF793E;}
	.st21{fill:#FF9E73;}
</style>
<rect class="st0" width="200" height="240"/>
<g>
	<g>
		<defs>
			
				<rect id="SVGID_1_" x="26.1" y="21.1" transform="matrix(8.730331e-03 -1 1 8.730331e-03 4.6876 82.4416)" width="35.6" height="35.6"/>
		</defs>
		<clipPath id="SVGID_2_">
			<use xlink:href="#SVGID_1_"  style="overflow:visible;"/>
		</clipPath>
		<g class="st1">
			<path class="st2" d="M43.7,56.7c9.8,0.1,17.9-7.8,17.9-17.6c0.1-9.8-7.8-17.9-17.6-17.9c-9.8-0.1-17.9,7.8-17.9,17.6
				C26,48.5,33.9,56.6,43.7,56.7z"/>
			<path class="st3" d="M43.8,54c8.4,0.1,15.2-6.6,15.3-15s-6.6-15.2-15-15.3c-8.4-0.1-15.2,6.6-15.3,15S35.4,53.9,43.8,54z"/>
			<path class="st3" d="M43.3,28.5l-0.1,10.6l-7-4"/>
			<path class="st2" d="M43.2,39.8c-0.1,0-0.2,0-0.4-0.1l-7-4c-0.2-0.1-0.3-0.3-0.3-0.4c0-0.2,0-0.4,0.1-0.6
				c0.1-0.2,0.3-0.3,0.4-0.3c0.2,0,0.4,0,0.6,0.1l5.9,3.4l0.1-9.3c0-0.2,0.1-0.4,0.2-0.5c0.1-0.1,0.3-0.2,0.5-0.2s0.4,0.1,0.5,0.2
				s0.2,0.3,0.2,0.5l-0.1,10.6c0,0.1,0,0.3-0.1,0.4c-0.1,0.1-0.2,0.2-0.3,0.3C43.4,39.8,43.3,39.8,43.2,39.8z"/>
		</g>
	</g>
</g>
<g>
	<g>
		<defs>
			
				<rect id="SVGID_3_" x="116.7" y="37.7" transform="matrix(8.730331e-03 -1 1 8.730331e-03 79.9872 223.188)" width="71.7" height="67"/>
		</defs>
		<clipPath id="SVGID_4_">
			<use xlink:href="#SVGID_3_"  style="overflow:visible;"/>
		</clipPath>
		<g class="st4">
			<path class="st2" d="M184.3,35.9l-64.5-0.6l-0.6,71.4l64.5,0.6L184.3,35.9z"/>
			<path class="st3" d="M186.4,36l-66.9-0.6l-0.6,71.4l66.9,0.6L186.4,36z"/>
			<path class="st2" d="M183.5,38.2h-1.8l-0.6,65.8h1.8L183.5,38.2z"/>
			<path class="st2" d="M121.6,85v1.8l60,0.5v-1.8L121.6,85z"/>
			<path class="st3" d="M183.1,82.6L120.8,82v3l62.3,0.5V82.6z"/>
		</g>
	</g>
</g>
<g>
	<g>
		<defs>
			
				<rect id="SVGID_5_" x="16.2" y="81.2" transform="matrix(8.730331e-03 -1 1 8.730331e-03 -64.4503 148.5256)" width="52.9" height="51.2"/>
		</defs>
		<clipPath id="SVGID_6_">
			<use xlink:href="#SVGID_5_"  style="overflow:visible;"/>
		</clipPath>
		<g class="st5">
			<path class="st6" d="M68.5,80.6l-51.2-0.4L16.9,133l51.2,0.4L68.5,80.6z"/>
			<path class="st7" d="M68.5,80.6h-0.6l-0.5,52.8H68L68.5,80.6z"/>
			<path class="st8" d="M64.8,101l-45.3-0.4l-0.3,30.3l45.3,0.4L64.8,101z"/>
			<path class="st3" d="M64.8,101h-3.3l-0.3,30.3h3.3L64.8,101z"/>
			<path class="st2" d="M64.8,101l-45.3-0.4v4.8l45.3,0.4V101z"/>
			<path class="st7" d="M61.5,100.9l-42-0.4v4.8l42,0.4V100.9z"/>
			<path class="st9" d="M31.5,108.4h-4.8v3.5h4.8V108.4z"/>
			<path class="st9" d="M37.1,108.4h-4.8v3.5h4.8V108.4z"/>
			<path class="st9" d="M42.8,108.5H38v3.5h4.8V108.5z"/>
			<path class="st9" d="M48.5,108.5h-4.8v3.5h4.8V108.5z"/>
			<path class="st9" d="M54.2,108.6h-4.8v3.5h4.8V108.6z"/>
			<path class="st9" d="M59.9,108.6h-4.8v3.5h4.8V108.6z"/>
			<path class="st9" d="M25.7,112.7h-4.8v3.5h4.8V112.7z"/>
			<path class="st9" d="M31.4,112.8h-4.8v3.5h4.8L31.4,112.8z"/>
			<path class="st9" d="M37.1,112.8h-4.8v3.5h4.8V112.8z"/>
			<path class="st9" d="M42.8,112.9H38v3.5h4.8V112.9z"/>
			<path class="st9" d="M48.5,112.9h-4.8v3.5h4.8V112.9z"/>
			<path class="st9" d="M54.1,113h-4.8v3.5h4.8V113z"/>
			<path class="st9" d="M59.8,113H55v3.5h4.8V113z"/>
			<path class="st9" d="M25.7,117.1h-4.8v3.5h4.8V117.1z"/>
			<path class="st9" d="M31.4,117.2h-4.8v3.5h4.8L31.4,117.2z"/>
			<path class="st9" d="M37.1,117.2h-4.8v3.5h4.8V117.2z"/>
			<path class="st9" d="M42.7,117.3h-4.8v3.5h4.8V117.3z"/>
			<path class="st9" d="M48.4,117.3h-4.8v3.5h4.8V117.3z"/>
			<path class="st7" d="M54.1,117.4h-4.8v3.5h4.8V117.4z"/>
			<path class="st9" d="M59.8,117.4H55v3.5h4.8V117.4z"/>
			<path class="st9" d="M25.7,121.5h-4.8v3.5h4.8V121.5z"/>
			<path class="st9" d="M31.3,121.6h-4.8v3.5h4.8V121.6z"/>
			<path class="st9" d="M37,121.6h-4.8v3.5H37V121.6z"/>
			<path class="st9" d="M42.7,121.7h-4.8v3.5h4.8V121.7z"/>
			<path class="st9" d="M48.4,121.7h-4.8v3.5h4.8V121.7z"/>
			<path class="st9" d="M54.1,121.8h-4.8v3.5h4.8V121.8z"/>
			<path class="st9" d="M59.7,121.8h-4.8v3.5h4.8V121.8z"/>
			<path class="st9" d="M25.6,125.9h-4.8v3.5h4.8L25.6,125.9z"/>
			<path class="st9" d="M31.3,126h-4.8v3.5h4.8V126z"/>
			<path class="st9" d="M37,126h-4.8v3.5H37V126z"/>
			<path class="st9" d="M42.7,126.1h-4.8v3.5h4.8V126.1z"/>
			<path class="st9" d="M48.3,126.1h-4.8v3.5h4.8V126.1z"/>
			<path class="st7" d="M26.9,108.1l-0.4,0.5l4.8,3.5l0.4-0.5L26.9,108.1z"/>
			<path class="st7" d="M31.3,108.1l-4.8,3.4l0.4,0.5l4.8-3.4L31.3,108.1z"/>
			<path class="st7" d="M32.5,108.1l-0.4,0.5l4.8,3.5l0.4-0.5L32.5,108.1z"/>
			<path class="st7" d="M37,108.2l-4.8,3.4l0.4,0.5l4.8-3.4L37,108.2z"/>
			<path class="st7" d="M38.2,108.2l-0.4,0.5l4.8,3.5l0.4-0.5L38.2,108.2z"/>
			<path class="st7" d="M42.6,108.2l-4.8,3.4l0.4,0.5l4.8-3.4L42.6,108.2z"/>
			<path class="st7" d="M43.9,108.2l-0.4,0.5l4.8,3.5l0.4-0.5L43.9,108.2z"/>
			<path class="st7" d="M48.3,108.3l-4.8,3.4l0.4,0.5l4.8-3.4L48.3,108.3z"/>
			<path class="st7" d="M49.6,108.3l-0.4,0.5l4.8,3.5l0.4-0.5L49.6,108.3z"/>
			<path class="st7" d="M54,108.3l-4.8,3.4l0.4,0.5l4.8-3.4L54,108.3z"/>
			<path class="st7" d="M55.3,108.3l-0.4,0.5l4.8,3.5l0.4-0.5L55.3,108.3z"/>
			<path class="st7" d="M59.7,108.4l-4.8,3.4l0.4,0.5l4.8-3.4L59.7,108.4z"/>
			<path class="st7" d="M55.2,112.7l-0.4,0.5l4.8,3.5l0.4-0.5L55.2,112.7z"/>
			<path class="st7" d="M59.6,112.8l-4.8,3.4l0.4,0.5l4.8-3.4L59.6,112.8z"/>
			<path class="st7" d="M49.5,112.7l-0.4,0.5l4.8,3.5l0.4-0.5L49.5,112.7z"/>
			<path class="st7" d="M54,112.7l-4.8,3.4l0.4,0.5l4.8-3.4L54,112.7z"/>
			<path class="st7" d="M43.9,112.6l-0.4,0.5l4.8,3.5l0.4-0.5L43.9,112.6z"/>
			<path class="st7" d="M48.3,112.7l-4.8,3.4l0.4,0.5l4.8-3.4L48.3,112.7z"/>
			<path class="st7" d="M38.2,112.6l-0.4,0.5l4.8,3.5l0.4-0.5L38.2,112.6z"/>
			<path class="st7" d="M42.6,112.6l-4.8,3.4l0.4,0.5l4.8-3.4L42.6,112.6z"/>
			<path class="st7" d="M32.5,112.5l-0.4,0.5l4.8,3.5l0.4-0.5L32.5,112.5z"/>
			<path class="st7" d="M36.9,112.6l-4.8,3.4l0.4,0.5l4.8-3.4L36.9,112.6z"/>
			<path class="st7" d="M26.8,112.5l-0.4,0.5l4.8,3.5l0.4-0.5L26.8,112.5z"/>
			<path class="st7" d="M31.3,112.5l-4.8,3.4l0.4,0.5l4.8-3.4L31.3,112.5z"/>
			<path class="st7" d="M21.1,112.4l-0.4,0.5l4.8,3.5l0.4-0.5L21.1,112.4z"/>
			<path class="st7" d="M25.6,112.5l-4.8,3.4l0.4,0.5L26,113L25.6,112.5z"/>
			<path class="st7" d="M21.1,116.8l-0.4,0.5l4.8,3.5l0.4-0.5L21.1,116.8z"/>
			<path class="st7" d="M25.5,116.9l-4.8,3.4l0.4,0.5l4.8-3.4L25.5,116.9z"/>
			<path class="st7" d="M26.8,116.9l-0.4,0.5l4.8,3.5l0.4-0.5L26.8,116.9z"/>
			<path class="st7" d="M31.2,116.9l-4.8,3.4l0.4,0.5l4.8-3.4L31.2,116.9z"/>
			<path class="st7" d="M32.5,116.9l-0.4,0.5l4.8,3.5l0.4-0.5L32.5,116.9z"/>
			<path class="st7" d="M36.9,117l-4.8,3.4l0.4,0.5l4.8-3.4L36.9,117z"/>
			<path class="st7" d="M38.1,117l-0.4,0.5l4.8,3.5l0.4-0.5L38.1,117z"/>
			<path class="st7" d="M42.6,117l-4.8,3.4l0.4,0.5l4.8-3.4L42.6,117z"/>
			<path class="st7" d="M43.8,117l-0.4,0.5l4.8,3.5l0.4-0.5L43.8,117z"/>
			<path class="st7" d="M48.2,117.1l-4.8,3.4l0.4,0.5l4.8-3.4L48.2,117.1z"/>
			<path class="st7" d="M54.7,86.9l-24.6-0.2L30,92.8L54.6,93L54.7,86.9z"/>
			<path class="st7" d="M47.2,83.7l-9.6-0.1v1.6l9.6,0.1L47.2,83.7z"/>
		</g>
	</g>
</g>
<g>
	<g>
		<defs>
			
				<rect id="SVGID_7_" x="-9.9" y="91.9" transform="matrix(8.730335e-03 -1 1 8.730335e-03 -27.2 218.7897)" width="213.3" height="62.4"/>
		</defs>
		<clipPath id="SVGID_8_">
			<use xlink:href="#SVGID_7_"  style="overflow:visible;"/>
		</clipPath>
		<g class="st10">
			<path class="st11" d="M68.3,225.9l58.8,0.5l-11.3-12.9l-36-0.3L68.3,225.9z"/>
			<path class="st12" d="M127.1,226.4l-58.8-0.5v2.8c0,0.2,0.1,0.4,0.2,0.6c0.2,0.2,0.4,0.2,0.6,0.2l57.1,0.5c0.2,0,0.4-0.1,0.6-0.2
				c0.2-0.2,0.2-0.4,0.2-0.6L127.1,226.4z"/>
			<path class="st13" d="M87.5,224.8l20.4,0.2l-2.8-3.8l-14.7-0.1L87.5,224.8z"/>
			<path class="st14" d="M114.6,78.3c-0.7-2.6-0.9-12.8-1.3-16.3c2.8-0.6,6.3-0.9,8.4-0.8c1,5.5-0.7,27.9-0.7,28.2L114.6,78.3z"/>
			<path class="st15" d="M96.4,217.3c0,0.1-0.2,0.4-0.3,0.5c-0.2,0.1-0.5,0.5-3.2,0.6c-0.8,0.1-1.6,0-2.4-0.1
				c-0.9-0.1-1.9-0.4-2.4-0.8c-0.1-0.1-0.2-0.2-0.2-0.3c-0.2-0.3-0.2-0.7-0.1-1.1c0-0.2,0.1-0.3,0.2-0.5c0.2-0.6,1.2-3.2,1.1-3.3
				l0.1-0.3c0-0.4,0.2-2,0.5-1.9c0.8,0.1,1.5,0.2,2.3,0.3l0,0c0.4,0,0.9,0,1.3-0.1c0.5-0.1,0.2-0.4,0.5-0.2c0.1,0.1,0.4-0.5,0.4-0.4
				c0,0.4,0.7,2.4,0.7,2.5s0.3,1.4,0.7,2.5c0.3,0.7,0.7,1.4,0.8,2.1C96.4,216.9,96.4,217.1,96.4,217.3z"/>
			<path class="st16" d="M84.2,192.1c-2.1-13.9,2.2-19.6-0.7-30.1c-0.8-2.8-3.8-18.5-4.6-21.6c-2.1-8.2-2.3-42.2,10.1-41.7
				c2.6,0.1,2.8,11.9,4.5,13.8c3.5,3.9,3.7,9.4,3.7,14.5c0,4.2,0,8.4,0,12.6c0,14.9,0,29.8-1.1,44.6c-0.6,8.6-2.3,22-1.8,26.1
				c0,0-0.1,0.1-0.5,0.4c-0.4,0.2-0.8,0.3-1.3,0.3l0,0c-0.9,0-1.8,0.1-2.5-0.1c0,0-0.4-0.1-0.5-0.1c-0.9-1.2-1.2-2.4-1.7-3.8
				c-1.4-3.8-2.2-7.9-3.1-11.8C84.5,194.1,84.3,193.1,84.2,192.1C84.2,192.1,84.2,192.2,84.2,192.1L84.2,192.1z"/>
			<path class="st15" d="M99,216.8c0.1-0.6,0.5-1.4,0.8-2.1c0.5-1.1,0.7-2.4,0.8-2.5c0-0.2,0.7-2.1,0.7-2.5c0-0.1,0.3,0.5,0.4,0.4
				c0.3-0.2,0.1,0.1,0.5,0.2c0.4,0.1,0.9,0.1,1.3,0.1l0,0c0.8,0,1.5-0.1,2.3-0.2c0.3,0,0.5,1.6,0.4,2l0.1,0.3c0,0.2,0.9,2.7,1.1,3.3
				c0,0.2,0.1,0.3,0.1,0.5c0.1,0.4,0.1,0.7-0.1,1.1c-0.1,0.1-0.1,0.2-0.2,0.3c-0.5,0.5-1.4,0.7-2.4,0.8c-0.8,0.1-1.6,0.1-2.4,0.1
				c-2.7-0.2-3-0.6-3.2-0.7c-0.1-0.1-0.3-0.3-0.3-0.5C98.9,217.2,98.9,217,99,216.8z"/>
			<path class="st16" d="M111.4,192.3c2.3-13.8-2-19.6,1-30.1c0.8-2.8,3.9-18.5,4.8-21.5c2.2-8.2,2.6-42.2-9.7-41.8
				c-2.6,0.1-2.9,11.9-4.6,13.7c-3.6,3.8-3.8,9.4-3.9,14.5c0,4.2-0.1,8.4-0.1,12.6c-0.1,14.9-0.3,29.8,0.6,44.6
				c0.5,8.6,2.1,22,1.5,26.1c0,0,0.1,0.1,0.5,0.4c0.4,0.2,0.8,0.3,1.3,0.3l0,0c0.9,0,1.8,0.1,2.5-0.1c0,0,0.4-0.1,0.5-0.1
				c0.9-1.1,1.2-2.4,1.7-3.8c1.5-3.8,2.3-7.8,3.2-11.8C111.1,194.3,111.3,193.3,111.4,192.3C111.4,192.3,111.4,192.4,111.4,192.3
				L111.4,192.3z"/>
			<path class="st16" d="M78.4,124.2c-0.4-3.2,0.6-10.8,1.4-13.9s1.3-4.6,4.3-6.2c3.2-1.7,7-1.7,10.6-1.7c4.9,0,10.4-4,15.2-2.9
				c1.5,0.3,1.6-0.3,2.6,0.9c0.5,0.5,1.1,0.1,1.4,0.7c2.9,6.2,3.4,17.6,3.7,19.8c0.4,2.5,0.2,6.6-0.5,10.1
				c-0.8,3.8-6.9-5.5-10.8-4.2c-4,1.4-5.6,2.5-9.8,2.3c-1.9-0.1-4.7,12.6-6.5,12C81.4,138.6,79.7,134.5,78.4,124.2z"/>
			<path class="st17" d="M109.5,41.7c0,3.3-0.3,7-2.7,9.3c-2.2,2.1-5.5,2.2-8.4,2.2h-4.2c-2.5,0-5.2,0-7.3-1.4
				c-2.4-1.6-3.7-4.6-3.8-7.6c-0.1-3,0.8-5.9,1.7-8.7c0.9-2.5,1.9-5.1,4.1-6.4c1.8-1.1,3.9-1.1,6-1.1c1.9,0,3.9,0,5.6,0.9
				c1.3,0.7,2.4,1.7,3.8,2.3c1.3,0.5,2.4,1,3.3,2.1C109.4,35.8,109.6,39,109.5,41.7z"/>
			<path class="st14" d="M91.2,49.2c0,0.8,0.7-0.7,1.6-0.3c0.4,0.2,0.8,0.2,1.2,0.2h4.8c0.5,0,2.5,2.1,3,1.9
				c1.5-0.5,0.6-4.4,0.6-5.8c0-3.4-0.6-6.7-1.2-10c0-0.2-0.1-0.4-0.3-0.5c-0.2-0.1-0.5-0.1-0.8-0.1C97,35.2,93,35,91.9,37.5
				C91,39.8,91.3,46.8,91.2,49.2z"/>
			<path class="st18" d="M91.4,42.6c-2.1-2.3-3.1-5.4-3.5-8.4c-0.3-3.1,0-6.2,0.4-9.2c0.3-2.1,3.1-6.8,9.3-6.7
				c6.9,0.2,8.3,4.7,9,7.2c0.6,2,0.4,4.7,0.2,6.8c-0.1,1.3-0.2,2.6-0.6,3.8c-1,3.6-3.9,6.7-7,8.7C96.3,46.7,93.7,45.1,91.4,42.6z"/>
			<path class="st19" d="M94.4,26.8c-2.9,2.3-5.8,4.8-7.8,7.9c-2,3.1-0.5,11.9,0.8,15.4c0.8,2,1.6,0.4,2.7,2.3
				c1.1,1.8-0.2,2.5-1.1,4.4c-0.3,0.6-0.8,1.1-1.5,1.2c-0.6,0-1.1-0.3-1.6-0.7c-3.5-2.6,2.2,7.8-0.7,4.4C79.6,55,83.4,31.3,84,28.9
				c1.4-5.6,1.8-8.8,6.4-11.2c2.2-1.2,9.6-2.1,11.2,0.6C103.5,21.5,96.6,25.1,94.4,26.8z"/>
			<path class="st19" d="M105.8,39c-0.1-8.2-3.3-14.4-8.8-18c-1.6-1-2.1-2.9-0.4-3.8c0.6-0.3,1.5-0.6,2.2-0.6
				c2.3-0.1,3.9,0.2,5.8,1.4c3.3,2,5,6.7,5.4,10.5c0.3,2.7,1,19.7-0.2,25.6c-0.7,3.5,3.9,0.9,2.4,1.8c-1.2,0.8-2.5,1.7-3.9,1.9
				c-4.5,0.9-7-1.7-6.1-4.1C103.8,49.8,105.9,44,105.8,39z"/>
			<path class="st14" d="M101.6,51.7c-4.4,2.5-8.4,0.4-11.3-2.7c2.5-0.6,4.9-1.2,6.4-1.6c1.2-0.3,1.6,0.5,2.5,0.5
				c0.7,0,2.6,0.6,4.6,1.2C103.2,50.2,102.5,51.1,101.6,51.7z"/>
			<path class="st20" d="M81.8,76.8c0.2-1.8,0.3-3.6,0.3-5.1c-1-5.8-3-11.2-5.9-15c1.9-2.9,3.3-3.4,6.1-4.7c4.1-1.7,7.5-3,8-3.1
				c2.9,3.1,6.9,5.2,11.3,2.7c0.9-0.6,1.6-1.5,2.2-2.6c0.4,0.1,1.6,0.4,1.8,0.4c1.8,0.3,11.1,2.2,12,3.8c-0.1,0.1,0.6,4.1,0.6,5.6
				c-2,3.9-2.1,6.1-3.1,7.5c-1,1.5-1.2,1.7-2.2,4c0.1,2.2,0.3,4.4,0.4,6.5c0.5,8,0.2,17.4,0.6,24.2c-10.5,4-21.2,2.9-32.3,1
				C82.6,93.1,81.1,82.9,81.8,76.8z"/>
			<path class="st20" d="M110.7,56.2c-0.9-2.7,2.1-4.5,2.5-4.3c6.6-1.3,8.6,9.7,9.2,12.1c0.6,2.3,0.9,5.3,1.1,7.3
				c-3.4-0.4-7.1,0.3-10.4,0.2C110.9,64.2,111.5,58.2,110.7,56.2z"/>
			<path class="st18" d="M103.6,58.3c3.3-1.4,5.4,4.5,5.8,5.8c0.7,2.5,2,7.9,0.1,9.4C109.2,73.7,101.1,59.4,103.6,58.3z"/>
			<path class="st18" d="M117.9,92.2c-3.9,0.5-14-29.6-13.8-30.3c0-0.1,2.9-2.1,3.3-1.1c1.7,4.5,11.6,16.7,12.9,22
				C123.2,94.3,117.9,92.2,117.9,92.2z"/>
			<path class="st21" d="M83.9,67.4L73.2,80.7c0,0,1.4,5,8.9,20.2c0.3,0.6,2.1,1.5,1.6,1.8c-1.3,0.9-1.5,0.7-2.8,1.6
				c-2.1-2.8-7.4-8.9-12.1-17.6c-1.4-2.6-2.5-3.6-2.9-6c-0.3-1.8,7.3-13.8,9.5-19.4C78.5,63.4,80.2,66.7,83.9,67.4z"/>
			<path class="st21" d="M84.3,100.3c0.8,0.2,1.6,0.5,2.3,1c0.7,0.5,1.2,1.2,1.2,2c0,0.3-0.1,0.6-0.3,0.9c-0.5,0.6-1.5,0.6-2.2,0.3
				c-0.7-0.2-1.1-0.4-1.9-0.4c-0.7,0-1,0.3-2.3,0.4c-0.8,0-1.6-0.3-1.7-0.7c-1.9-4.8-0.5-2.3,0.6-3C81.3,99.8,83,99.9,84.3,100.3z"
				/>
			<path class="st20" d="M86,58.6c1.6-2.4-1.5-5.1-1.9-5c-6-2.9-10.2,7.3-11.4,9.5c-1.2,2.1-1.8,3.9-2.5,5.8c3.4,0.5,8.8,2.2,12,3
				C86.2,65.4,84.7,60.4,86,58.6z"/>
		</g>
	</g>
</g>
</svg>
