<?xml version="1.0" encoding="utf-8"?>
<!-- Generator: Adobe Illustrator 25.3.1, SVG Export Plug-In . SVG Version: 6.00 Build 0)  -->
<svg version="1.1" id="圖層_1" xmlns="http://www.w3.org/2000/svg" xmlns:xlink="http://www.w3.org/1999/xlink" x="0px" y="0px"
	 viewBox="0 0 40 40" style="enable-background:new 0 0 40 40;" xml:space="preserve">
<style type="text/css">
	.st0{fill:#3B3C86;}
	.st1{fill:#2020A1;}
	.st2{fill:#2C2DC6;}
</style>
<g>
	<path class="st0" d="M4.4,35.6C7.2,38.4,11,40,15,40s7.8-1.6,10.6-4.4c0.4-0.4,0.8-0.8,1.1-1.2c2.3-2.9,3.4-6.5,3.1-10.2
		c-0.2-3.7-1.8-7.1-4.4-9.7s-6-4.1-9.7-4.4C12,9.9,8.4,11,5.5,13.2c-0.4,0.3-0.8,0.7-1.2,1.1C1.6,17.2,0,21,0,25S1.6,32.8,4.4,35.6z
		"/>
	<path class="st1" d="M6.7,33.3c2.6,2.6,6.1,4.2,9.8,4.4s7.3-1,10.2-3.3c2.3-2.9,3.4-6.5,3.1-10.2c-0.2-3.7-1.8-7.1-4.4-9.7
		s-6-4.1-9.7-4.4C12,9.9,8.4,11,5.5,13.2C3.2,16.1,2,19.7,2.2,23.4C2.5,27.2,4.1,30.7,6.7,33.3z"/>
	<path class="st0" d="M12.1,15.1l8.2-8.2l12.8,12.8l-8.2,8.2c-0.8,0.8-1.8,1.5-2.9,2s-2.3,0.7-3.5,0.7s-2.4-0.2-3.5-0.7
		s-2.1-1.1-2.9-2c-0.8-0.8-1.5-1.8-2-2.9s-0.7-2.3-0.7-3.5s0.2-2.4,0.7-3.5C10.6,16.9,11.3,15.9,12.1,15.1z"/>
	<path class="st1" d="M17.3,22.7c1.2,1.2,2.7,2.2,4.3,2.9c1.6,0.7,3.3,1,5.1,1c1.7,0,3.5-0.3,5.1-1c1.6-0.7,3.1-1.7,4.3-2.9
		c0.5-0.5,0.9-0.9,1.3-1.5c1.9-2.6,2.9-5.7,2.6-8.9c-0.2-3.2-1.6-6.2-3.9-8.4c-2.3-2.3-5.3-3.6-8.4-3.8c-3.2-0.2-6.3,0.7-8.9,2.6
		c-0.5,0.4-1,0.8-1.5,1.3c-1.2,1.2-2.2,2.7-2.9,4.3s-1,3.3-1,5.1s0.3,3.5,1,5.1C15.1,20,16.1,21.5,17.3,22.7z"/>
	<path class="st2" d="M20,20c2.2,2.2,5.2,3.6,8.4,3.8c3.2,0.2,6.3-0.7,8.9-2.6c1.9-2.6,2.8-5.7,2.6-8.9s-1.6-6.2-3.8-8.4
		s-5.2-3.6-8.4-3.8s-6.3,0.7-8.9,2.6c-1.9,2.6-2.8,5.7-2.6,8.9C16.4,14.7,17.8,17.7,20,20z"/>
</g>
</svg>
