<?xml version="1.0" encoding="utf-8"?>
<!-- Generator: Adobe Illustrator 25.3.1, SVG Export Plug-In . SVG Version: 6.00 Build 0)  -->
<svg version="1.1" id="圖層_1" xmlns="http://www.w3.org/2000/svg" xmlns:xlink="http://www.w3.org/1999/xlink" x="0px" y="0px"
	 viewBox="0 0 210 140" style="enable-background:new 0 0 210 140;" xml:space="preserve">
<style type="text/css">
	.st0{clip-path:url(#SVGID_2_);}
	.st1{opacity:0.5;fill:#F8FCFF;enable-background:new    ;}
	.st2{fill:#F9DDBF;}
	.st3{fill:#EAC3A2;}
	.st4{fill:#273F76;}
	.st5{fill:#ECF3FE;}
	.st6{fill:#FFFFFF;}
	.st7{fill:#D67330;}
	.st8{fill:#F8FCFF;}
	.st9{fill:#A8D29F;}
	.st10{fill:#9FC3F7;}
	.st11{fill:#B5CFFC;}
	.st12{fill:#233862;}
	.st13{fill:#E8945B;}
	.st14{fill:#FFB27D;}
	.st15{fill:#ED7D2B;}
	.st16{fill:#F99746;}
	.st17{fill:#2E3552;}
	.st18{fill:#163560;}
	.st19{fill:#2B478B;}
	.st20{opacity:0.5;fill:#2B478B;enable-background:new    ;}
</style>
<g>
	<defs>
		<rect id="SVGID_1_" y="0.5" width="210" height="139"/>
	</defs>
	<clipPath id="SVGID_2_">
		<use xlink:href="#SVGID_1_"  style="overflow:visible;"/>
	</clipPath>
	<g class="st0">
		<path class="st1" d="M185.8,18.2c-7.1-6.5-15.7-11.2-25-14.2c-1.1-0.3-2.2-0.7-3.3-1l-0.1,0c-0.2-0.1-0.4-0.1-0.6-0.2
			c-0.5-0.1-1.1-0.3-1.6-0.4c-0.7-0.2-1.4-0.3-2.2-0.5c-3.2-0.7-6.5-1.1-9.8-1.3c-1.4-0.1-2.7-0.1-4.1-0.2c-0.3,0-0.7,0-1,0
			c-4.4,0-8.7,0.4-13,1.2c-0.2,0-0.4,0.1-0.6,0.1l-0.3,0.1v68.3h62.7v-51C186.5,18.9,186.1,18.5,185.8,18.2z"/>
		<path class="st2" d="M139.6,116.7l3.4,7.4l6.6,14.3c0.1,0.1,0.1,0.2,0.3,0.3c0.1,0.1,0.2,0.1,0.4,0.1h0.1c0.1,0,0.2,0,0.3-0.1
			c0.1,0,0.2-0.1,0.3-0.2c0.1-0.1,0.1-0.2,0.1-0.3c0-0.1,0-0.2,0-0.3l-5.2-18.6l-0.8-2.7L139.6,116.7z"/>
		<path class="st3" d="M143,124.2c-0.3-3.4,2.7-4.8,2.7-4.8l-0.8-2.7l-5.4,0.1L143,124.2z"/>
		<path class="st2" d="M174.8,116.7l3.4,7.4l6.6,14.3c0.1,0.1,0.1,0.2,0.3,0.3c0.1,0.1,0.2,0.1,0.4,0.1h0.1c0.1,0,0.2,0,0.3-0.1
			c0.1,0,0.2-0.1,0.3-0.2c0.1-0.1,0.1-0.2,0.1-0.3c0-0.1,0-0.2,0-0.3l-5.2-18.6l-0.8-2.7L174.8,116.7z"/>
		<path class="st3" d="M178.2,124.2c-0.3-3.4,2.7-4.8,2.7-4.8l-0.8-2.7l-5.4,0.1L178.2,124.2z"/>
		<path class="st2" d="M184.8,102.1H29.2c-0.8,0-1.4,0.6-1.4,1.4v12.4c0,0.8,0.6,1.4,1.4,1.4h155.5c0.8,0,1.4-0.6,1.4-1.4v-12.4
			C186.2,102.7,185.5,102.1,184.8,102.1z"/>
		<path class="st3" d="M34.8,116.6l-0.8,2.7L28.9,138c0,0.1,0,0.2,0,0.3c0,0.1,0.1,0.2,0.1,0.3c0.1,0.1,0.2,0.2,0.3,0.2
			c0.1,0.1,0.2,0.1,0.3,0.1h0.1c0.1,0,0.3,0,0.4-0.1c0.1-0.1,0.2-0.2,0.3-0.3l6.6-14.3l3.4-7.4L34.8,116.6z"/>
		<path class="st3" d="M62.6,116.6l-0.8,2.7L56.6,138c0,0.1,0,0.2,0,0.3c0,0.1,0.1,0.2,0.1,0.3c0.1,0.1,0.2,0.2,0.3,0.2
			c0.1,0.1,0.2,0.1,0.3,0.1h0.1c0.1,0,0.3,0,0.4-0.1c0.1-0.1,0.2-0.2,0.3-0.3l6.6-14.3l3.4-7.4L62.6,116.6z"/>
		<path class="st3" d="M85.5,57.5H27.3c-0.9,0-1.6,0.7-1.6,1.6v56.6c0,0.9,0.7,1.6,1.6,1.6h58.2c0.9,0,1.6-0.7,1.6-1.6V59.1
			C87.2,58.2,86.4,57.5,85.5,57.5z"/>
		<path class="st2" d="M89.3,59.1v48.1c0,0.9-0.6,1.6-1.4,1.6H29.2c-0.8,0-1.4-0.7-1.4-1.6V59.1c0-0.9,0.6-1.6,1.4-1.6h58.7
			C88.6,57.5,89.3,58.2,89.3,59.1z"/>
		<path class="st3" d="M39,106.2c0,0-10.8-0.9-11.2-1.1v-9.9c2.3-2.2,6.7-4.6,6.7-4.6L39,106.2z"/>
		<path class="st3" d="M42.1,69c0-0.6,0.4-1,0.9-1s0.9,0.5,0.9,1c0,0.6-0.4,1-0.9,1S42.1,69.6,42.1,69z"/>
		<path class="st3" d="M77.5,69c0-0.6,0.4-1,0.9-1s0.9,0.5,0.9,1c0,0.6-0.4,1-0.9,1S77.5,69.6,77.5,69z"/>
		<path class="st4" d="M42.1,88.5c0-0.6,0.4-1,0.9-1s0.9,0.5,0.9,1c0,0.6-0.4,1-0.9,1S42.1,89.1,42.1,88.5z"/>
		<path class="st3" d="M77.5,88.5c0-0.6,0.4-1,0.9-1s0.9,0.5,0.9,1c0,0.6-0.4,1-0.9,1S77.5,89.1,77.5,88.5z"/>
		<path class="st3" d="M134.2,103.5v12.4c0,0.4-0.2,0.7-0.4,1c-0.3,0.3-0.6,0.4-1,0.4H27.7c-0.4,0-0.7-0.1-1-0.4
			c-0.3-0.3-0.4-0.6-0.4-1v-12.4c0-0.4,0.2-0.7,0.4-1c0.3-0.3,0.6-0.4,1-0.4h105.1c0.4,0,0.7,0.1,1,0.4
			C134,102.8,134.2,103.1,134.2,103.5z"/>
		<path class="st5" d="M62,83.3c0,0-4,11.5-1.9,18.9H67C67,102.2,69.5,88.7,62,83.3z"/>
		<path class="st6" d="M62,83.3c0,0,13.7-1.9,21.3,0l5.7,18.9H67C67,102.2,69.5,90.9,62,83.3z"/>
		<path class="st7" d="M137.9,101.6l-0.2-0.1C137.7,101.5,137.8,101.6,137.9,101.6z"/>
		<path class="st5" d="M35.3,83.3c0,0-4,11.5-1.9,18.9h6.8C40.2,102.2,42.7,88.7,35.3,83.3z"/>
		<path class="st6" d="M35.3,83.3c0,0,13.7-1.9,21.3,0l5.7,18.9H40.2C40.2,102.2,42.7,90.9,35.3,83.3z"/>
		<path class="st6" d="M143.4,24.3c0-0.5,0.1-0.9,0.4-1.3s0.6-0.7,1-0.9c0.4-0.2,0.9-0.2,1.3-0.1c0.4,0.1,0.9,0.3,1.2,0.6
			c0.3,0.3,0.5,0.7,0.6,1.2c0.1,0.4,0,0.9-0.1,1.3c-0.2,0.4-0.5,0.8-0.9,1c-0.4,0.3-0.8,0.4-1.3,0.4c-0.6,0-1.2-0.2-1.6-0.7
			C143.6,25.5,143.4,24.9,143.4,24.3z"/>
		<path class="st8" d="M128.3,43.9c0,0,1.8-2.7,6.2-2.4c0,0,6.3-4.6,13.1-0.6c0,0,7.2-1,12.5,0.9c3.5,1.2,4.7,2.5,4.7,2.5
			L128.3,43.9z"/>
		<path class="st9" d="M149.5,68.4c0,0-1.7-9.9,6.8-13.8c8.6-3.9,12-3.1,15.5-11.4c3.4-8.4,14-3.5,14-3.5v28.6L149.5,68.4z"/>
		<path class="st10" d="M177.9,102.3c0,0-21.8-9.9-25.8-10s-21.8,4.9-25.9,4.1c-4.1-0.8-26.7-7.8-29.8-7.8
			c-3.1,0-51.4,5.1-58.6,13.7c-1.3,1.6,21.1,31.2,34.3,29.6c8.7-1.1,28.2-29.8,30.7-30.2c2.4-0.4,49.3,0.6,49.3,0.6
			C162.6,102.1,177.9,102.3,177.9,102.3z"/>
		<path class="st9" d="M152.8,4.6c-1,2.5-6.4,5.2-10.9,5.7c-4.5,0.5-2.7,4.3-6.5,7c-3.8,2.7-10.3,2.3-10.3,2.3V1.7
			c4.3-0.8,8.7-1.1,13-1.2c0.3,0,0.7,0,1,0c1.4,0,2.7,0.1,4.1,0.2c3.3,0.2,6.6,0.7,9.8,1.3C153.1,2.9,153.1,3.8,152.8,4.6z"/>
		<path class="st11" d="M186.8,19.2c-0.3-0.3-0.7-0.7-1.1-1v50.2h-60.7V1.9c-0.2,0-0.4,0.1-0.6,0.1l-0.3,0.1
			c-0.4,0.1-0.8,0.2-1.1,0.3v69.9h64.9v-52C187.6,19.9,187.2,19.5,186.8,19.2z"/>
		<path class="st11" d="M193.6,72.3h-76.9c0-0.5,0.1-1,0.3-1.5c0.2-0.5,0.5-0.9,0.8-1.2c0.4-0.4,0.8-0.6,1.2-0.8
			c0.5-0.2,1-0.3,1.5-0.3h69.2c1,0,2,0.4,2.7,1.1C193.2,70.3,193.6,71.2,193.6,72.3z"/>
		<path class="st11" d="M157.4,3v67.1h-2.2V2.5c0.5,0.1,1.1,0.3,1.6,0.4C157,2.9,157.2,3,157.4,3z"/>
		<path class="st12" d="M106.5,33.4c0,0-3.8,0.3-5.2,3.9c-1.4,3.6-3.7,6.3-2.5,8c1.2,1.6,2.6,2.6,2.2,3.4c-0.3,0.8-2.6,0.8-4.4,2.6
			c-1.8,1.9-5,7.2,0.1,8.2c3.9,0.8,1,5.7,3.6,7.7c3.3,2.5,14.7,4.9,18.4,2c3.7-2.9,2.4-8.8,1.2-10.8s2.7-4.9,3.3-5.9
			c2.4-4.1-5.3-4.6-4.2-6.9c1.1-2.3,2.3-4.5-1.4-6.6C115.7,37.9,114.6,31.9,106.5,33.4z"/>
		<path class="st13" d="M147,95.2c-0.7,7.1-5.4,7.1-23.3,6.9c-5.8-0.1-11.3-0.2-16-0.3c-9.9-0.2-5.6-3.1-4.6-2.9
			c1.8,0.5,3.7,0.4,5.4-0.1c5.2-1.6,12.7-5.2,16.1-5c5.2,0.3,12.1-0.2,12.1-0.2s-18.5-2.4-19.2-5.5c-0.7-3.2-10.6-8.2-8.5-8.6
			c2.2-0.4,10.1,0.7,10.1,0.7c3.1,1.5,6.3,2.8,9.6,3.8C137,86.6,147.5,89.8,147,95.2z"/>
		<path class="st14" d="M113.3,56.8c-1.6,0.7-4.7,0.6-6.1-0.5c-0.7-0.6-1-0.8-0.6-1.4c0.7-0.5,1.5-3.2,0.7-7.5l0.3,0l5.8,0.1
			c0,0,0.2,1.8,0.5,3.4c0.2,1.4,0.5,2.8,0.9,2.9C115.7,54.3,116.6,55.3,113.3,56.8z"/>
		<path class="st13" d="M113.4,47.7c0,0,0.2,1.8,0.5,3.4c-3.1,0.5-5.3-2.1-6.2-3.6L113.4,47.7z"/>
		<path class="st14" d="M115.2,48.2c0,0-7,2.7-8.6-1.7c-1.6-4.4-3.6-7,0.8-8.9c4.4-1.9,5.9-0.5,6.8,0.8S117,47.4,115.2,48.2z"/>
		<path class="st12" d="M110.6,36.4c0,0-0.1,5.8-2.7,7.7c-2.7,1.8-4.3,1.5-4.3,1.5s1.6-2.6,0.9-5.9
			C104.5,39.6,108.2,34.4,110.6,36.4z"/>
		<path class="st12" d="M110.3,36.9c0,0,1.9,0.6,2.6,1.6c0.8,1,1.9,1.9,2.4,2.9c0,0,0.2-4-2.2-5.4C110.6,34.6,110.3,36.9,110.3,36.9
			z"/>
		<path class="st12" d="M110.6,37c0,0,0.6,5.9-2.5,9c0,0,2.5-4.7,1.6-8.3C108.6,34,110.6,37,110.6,37z"/>
		<path class="st6" d="M112.8,46.4c0,0,2.3-1,2.4-1.1s0,0.4,0.1,0.7c0.1,0.3-0.7,0.7-1.1,0.9C113.7,47,113.1,47,112.8,46.4z"/>
		<path class="st14" d="M113.5,53.5c0,0,3.1,0.6,7.5-3.1c1.7-1.4,9-6.1,11.1-7.6c2.2-1.5,9.1-4.3,9.1-4.3l1.3,1.3c0,0-8,6.8-8.7,7.1
			c-0.8,0.3-8,7.1-8.3,7.7c-0.3,0.6-3.2,3.2-2.9,6.5C122.7,63,113.5,53.5,113.5,53.5z"/>
		<path class="st14" d="M107.1,54c0,0-2.5,0.2-4.4-1.9c-1.5-1.6-9-6.1-11.1-7.6C89.4,43.1,80.5,40,80.5,40l-0.8,1.2
			c0,0,9.4,7.1,10.2,7.4c0.8,0.3,6.4,5.6,7.3,7.2c0.9,1.5,3.4,5.3,4.4,6.9C103,65.4,107.1,54,107.1,54z"/>
		<path class="st14" d="M118.1,53.5c0,0,4.7,7.4,4.9,9.1c0.3,1.6-2,9.3-2.1,10.4c-0.1,1.1-1.9,7.3-1.9,7.3h-13.8
			c0,0-0.7-10-1.7-12.6c-1-2.6-3.3-8.1-3.3-8.1l7.4-4.8L118.1,53.5z"/>
		<path class="st14" d="M158.4,128.8l-3.6,0.6c-0.3-0.6-0.7-1.3-1.1-1.9c-3.1-5.2-7.5-10-10.3-13.7c-8.5-10.8,2.7-14.7-15.7-14.3
			c-18.3,0.3-25.4-2.8-25.5-8.2c0-2.1,3.1-11.1,3.1-11.1h13.8c0,0-1.4,1-0.8,2.3c0.6,1.3,19.7,6.8,22.4,7.6
			c4.6,1.4,5.1,5.2,8.6,13.7c1.8,4.4,6.1,16.6,8.1,22.1C158,127.7,158.4,128.8,158.4,128.8z"/>
		<path class="st14" d="M81.6,40.5c0,0-2.2-1.5-3.3-1.7c-1.2-0.2-2.4-0.4-2.2,0c0.2,0.4,1.6,0.4,1.5,0.9c-0.1,0.5-4.4-0.2-4,0.8
			c0.4,1,3,1.7,4,1.7c1,0,3.7-0.5,3.7-0.5L81.6,40.5z"/>
		<path class="st14" d="M141,38.6c0,0,2.2-1.5,3.3-1.7c1.2-0.2,2.4-0.4,2.2,0c-0.2,0.4-1.6,0.4-1.5,0.9c0.1,0.5,4.4-0.2,4,0.8
			c-0.4,1-3,1.7-4,1.7s-3.7-0.5-3.7-0.5L141,38.6z"/>
		<path class="st6" d="M106.1,53.9c0,0,4.1,8.7-3.6,11l2.2,8.7c0,0,4.3,3.3,16.2,0.1c0,0,2.6-8,2.2-11.2c-0.4-2.9-7.1-9.3-7.1-9.3
			l-0.9,0.1c0,0,3.3,4.5,3.1,5.8c-0.2,1.3-5,2.4-8.2,0.4C109.1,59,107,54,107,54L106.1,53.9z"/>
		<path class="st15" d="M119.3,80l8.2,3.6c0,0-0.7,1.9-4.3,2.2c-2.7,0.2-6.7-3.1-7-4.7L119.3,80z"/>
		<path class="st15" d="M105.3,80.2c0,0-0.3-0.3-0.1-0.8c0,0,6.3,2.7,14.1,0.1c0,0,0.2,0.3-0.2,0.7C119.1,80.2,112.5,83,105.3,80.2z
			"/>
		<path class="st6" d="M163.6,138.3c-0.5,0.8-3.8,0.9-4.4,0c-0.5-0.9-1-2.8-2.4-3.8c-1.4-1-3-1.4-2.4-2.9c0.6-1.5,0.4-2.1,0.4-2.1
			c-0.3-0.6-0.7-1.3-1.1-1.9c1.1-0.3,2.6-0.8,3.7-1.6c0.6,1.7,1,2.8,1,2.8s2.4,4.1,2.9,6S164.1,137.6,163.6,138.3z"/>
		<path class="st6" d="M112.5,101.9c-9.9-0.2-17.1-0.6-16.9-1c0.2-0.6,0.7-1.8,3.9-2.1c3.2-0.3,3.8-1.9,5.5-2
			c1.7-0.1,1.5,1.9,2.5,2.1c0.3,0.1,2.5-0.6,5.3-1.4C112.8,98.7,113.2,100.4,112.5,101.9z"/>
		<path class="st16" d="M105.3,80.2c0.8-0.2,4.5,2.5,13,0.2c0,0,2.7,2.4,4.3,3.4c1,0.6,2,1.2,3.1,1.7c0,0,0.9,10.6-15.4,13.5
			c0,0-8.7-0.8-8.9-7.8C101.2,84.1,105.3,80.2,105.3,80.2z"/>
		<path class="st10" d="M157.4,102.1c0,0,11.9,5.6,13.1,5c1.2-0.6,7.3-4.8,7.3-4.8l-10-1.5L157.4,102.1z"/>
		<path class="st10" d="M72.1,131.7c0,0-0.9,1.4,0,3.1c0,0,1.2,0,2.1-0.8C74.2,134,73.8,131.8,72.1,131.7z"/>
		<path class="st10" d="M170.3,106.9c0,0-0.5,0.8-0.2,2.2c0,0,1.2,0.2,1.9-0.3C172,108.9,171.4,107,170.3,106.9z"/>
		<path class="st17" d="M209.7,138.8H0.3c-0.2,0-0.3,0.1-0.3,0.3v0.1c0,0.2,0.1,0.3,0.3,0.3h209.4c0.2,0,0.3-0.1,0.3-0.3v-0.1
			C210,138.9,209.9,138.8,209.7,138.8z"/>
		<path class="st15" d="M84.8,133.3c0,0-6.4,1.9-6.8,5.5h20.1c0,0-0.2-0.9-0.7-0.9s-8.6-0.1-8.6-0.1S87.2,133.2,84.8,133.3z"/>
		<path class="st16" d="M109.7,133.3c0,0-6.4,1.9-6.8,5.5h20.1c0,0-0.2-0.9-0.7-0.9c-0.6,0-8.6-0.1-8.6-0.1S112.1,133.2,109.7,133.3
			z"/>
		<path class="st18" d="M172.6,130.2c0,0,1.7,7.2,0.8,7.7c0,0-0.8-0.3-1.1,0.4c-0.1,0.2-0.1,0.4-0.1,0.6h2.1c0,0,0.3-1,0.8-1.4
			c0.2-0.2,2-6.7,2-6.7L172.6,130.2z"/>
		<path class="st19" d="M170.1,130.2c0,0,1.7,7.2,0.8,7.7c0,0-0.8-0.3-1.1,0.4c-0.1,0.2,0,0.3,0,0.6h1.9c0,0,0.4-1,0.9-1.4
			c0.2-0.2,2-6.7,2-6.7L170.1,130.2z"/>
		<path class="st12" d="M170.1,118.9c0,0,2,2.5,1.4,3.5l-2.4-1.2C169.1,121.2,168.9,120.4,170.1,118.9z"/>
		<path class="st19" d="M172.6,124.9c0.6-1.7-0.4-3.6-2.2-4c-0.8-0.2-1.9-0.3-2.7,1c-0.2,0.3-0.9,0.7-1.2,0.7c-0.2,0-0.4,1-0.4,1.2
			c0.2,1.9,1.2,2.3,2.7,3C170.4,127.5,172,126.6,172.6,124.9z"/>
		<path class="st19" d="M169.7,121.4l2.4,1.2c0.1-0.2,0.1-0.4,0.1-0.6c-0.1-1.1-1.5-2.9-1.5-2.9
			C169.5,120.6,169.7,121.4,169.7,121.4z"/>
		<path class="st19" d="M172.2,122c0,0,1,0.8,1.1,2c0-0.1-0.1-0.2-0.2-0.3c0,0,0.3,0.7-0.1,1.2c0-0.1,0-0.2-0.1-0.3
			c0,0,0.1,0.6-0.6,1.1l0-0.2c-0.1,0.2-0.2,0.4-0.3,0.5c-0.1,0.2-0.4,0.1-0.4,0.1c0,0,0.3-2.5,0.3-2.5l-0.4-1.3L172.2,122z"/>
		<path class="st18" d="M166.5,122.6c0,0,0.1-0.1,0.1-0.1c0,0,0.1,0,0.1,0c0,0,0.1,0.5-0.4,0.6C166.3,123.1,166.4,122.7,166.5,122.6
			z"/>
		<path class="st18" d="M167.6,123.4c0,0,1.9,0.2,3.4,1.3C169.4,123.6,167.6,123.4,167.6,123.4L167.6,123.4z"/>
		<path class="st18" d="M167.4,123.6c0,0,2.1,0.8,3.6,2.5C169.5,124.3,167.5,123.5,167.4,123.6L167.4,123.6z"/>
		<path class="st18" d="M167.3,123.8c0,0,1.6,1,2.5,2.7C168.9,124.8,167.3,123.7,167.3,123.8L167.3,123.8z"/>
		<path class="st20" d="M170.7,119.1c0,0,0.6,2.1,0.9,2.5c0.2,0.2,0.4,0.3,0.6,0.4C172.1,120.8,170.7,119.1,170.7,119.1z"/>
		<path class="st18" d="M189,129.6c0.8-2.1,0-6.6-4.1-4.8c-0.9,0.3-1.9,0.9-3.2,2c0,0-1.8,4.2,5.3,7c0,0,0.7,0.3,0.8,0.9
			c0.1,0.6,0.2,3.5,0,3.6c-0.2,0.1-0.6-0.2-0.9,0.1c-0.3,0.4-0.2,1-0.2,1h2.6c0,0,1.2-6.5,1.2-7C190.4,131.9,188.6,130.6,189,129.6z
			"/>
		<path class="st19" d="M171.4,131.8c6.7,4.4,14,0.6,14,0.6l0.8-8c-1.9,0-2.4,0.3-3.6,0.7c-0.6,0.2-1.1,0.4-1.5,0.5
			c-3,0.8-5.4,0.5-6.5,0.5c-1.6,0-3.2-2.6-3.2-2.6l-2.2,2.8C169.3,126.3,169.4,130.4,171.4,131.8z"/>
		<path class="st19" d="M188.5,125.4l0.4,1.8c0,0,7.6-2.4,5.6-5.9c-0.6-1-1.4-2.7-0.3-3.4c0.9-0.6,0.6-1.8,0-2.1
			c-1.1-0.6-2.3,0.2-2.8,0.9c-1,1.4,0.3,3.7,0.3,3.7C193.4,124,188.5,125.4,188.5,125.4z"/>
		<path class="st19" d="M188.2,130.5c0.8-0.6,2.4-6.5-2-6.3c-1.4,0.2-2.6,0.5-4.2,1.1c0,0-2.8,3.4,2.8,8.5c0,0,0.6,0.5,0.4,1.2
			c-0.1,0.6-1,3.4-1.3,3.4c-0.3,0-1.1-0.4-1.5-0.1c-0.4,0.3,0.1,1.2,0.1,1.2h2.6c0,0,3.2-5.3,3.3-5.8
			C188.8,133.1,187.3,131.1,188.2,130.5z"/>
	</g>
</g>
</svg>
