<svg width="214" height="139" viewBox="0 0 214 139" fill="none" xmlns="http://www.w3.org/2000/svg">
<g clip-path="url(#clip0_409_709)">
<path d="M208.575 135.729C198.796 161.704 178.518 175.334 170.753 179.934C130.759 203.633 70.7229 196.386 40.0343 158.362C20.3826 134.013 20.1263 106.146 20.3265 98.21C21.4117 55.1177 53.2161 7.64139 100.111 0.837922C152.021 -6.69276 187.669 38.8923 191.127 43.474C195.315 49.0187 225.6 90.5107 208.575 135.729Z" fill="#E5E5E5"/>
<path d="M157.742 46.2944C158.718 44.6602 200.88 12.1816 200.88 12.1816L210.323 20.6103C213.076 23.0684 214.389 26.7474 213.899 30.6337L210.045 61.1878L190.141 161.91C189.276 166.288 186.231 170.211 182.05 172.333L170.031 178.435L157.742 46.2944Z" fill="#97A6B7"/>
<path d="M194.58 10.5882L91.2386 17.1331C86.0298 17.4629 81.2711 22.2796 80.5633 27.8948L76.3718 61.131C76.3358 61.4121 76.3109 61.693 76.297 61.9737L71.262 161.88C70.9926 167.223 74.513 171.663 79.3998 172.093L164.092 179.538C169.883 180.047 175.322 175.969 176.548 170.148L199.872 59.4837C199.939 59.1685 199.992 58.8528 200.032 58.5367L204.733 21.2579C205.528 14.9598 200.953 10.1852 194.58 10.5882Z" fill="url(#paint0_linear_409_709)"/>
<path d="M79.7229 169.531C76.071 169.22 73.3859 165.846 73.5867 161.851L78.6155 61.719C78.6266 61.5116 78.6453 61.2953 78.6716 61.0837L82.8728 27.7722C83.406 23.5465 87.0026 19.9166 90.9177 19.6781L194.227 13.3876C199.005 13.0965 202.436 16.696 201.841 21.4125L197.151 58.5979C197.122 58.8336 197.082 59.0721 197.032 59.3079L173.79 169.697C172.877 174.03 168.759 177.132 164.44 176.763L79.7229 169.531Z" fill="#D8DEE8"/>
<g style="mix-blend-mode:soft-light">
<path d="M176.921 28.1341L102.499 31.755C96.5087 32.046 91.0499 37.4545 90.2451 43.8376L87.9929 61.6945C87.9527 62.0143 87.9248 62.3337 87.9091 62.6526L83.4468 152.748C83.1462 158.814 87.2026 163.823 92.8312 164.269L151.194 168.891C157.548 169.394 163.529 164.812 164.886 158.34L185.346 60.7751C185.419 60.4253 185.478 60.0751 185.522 59.7244L187.988 40.1753C188.869 33.1859 183.879 27.7974 176.921 28.1341Z" fill="white"/>
</g>
<path d="M180.681 24.9842C153.175 20.2933 126.267 21.823 99.9141 29.1249C94.983 30.4916 91.3996 35.8012 92.0084 40.8212L95.4373 69.0879C95.9276 73.1366 98.9943 75.9411 102.934 75.9162L164.128 75.5326C168.579 75.5049 172.885 72.444 174.596 68.0669L186.732 37.0012C188.923 31.3909 186.146 25.9154 180.681 24.9842Z" fill="#D8DEE8"/>
<path d="M103.59 70.7344C101.835 70.7537 100.457 69.506 100.236 67.7004L96.7594 39.3169C96.6271 38.2337 96.9228 37.0917 97.5905 36.1004C98.2581 35.1091 99.2277 34.3909 100.301 34.0957C112.92 30.6594 125.834 28.5614 138.689 27.9116C151.858 27.2459 165.353 28.0803 178.816 30.4472C179.993 30.6546 180.92 31.33 181.432 32.3524C181.944 33.3747 181.966 34.5914 181.501 35.7886L169.462 66.7181C168.707 68.6536 166.797 70.0244 164.821 70.0465L103.59 70.7344Z" fill="white"/>
<path d="M127.957 55.1548C130.372 54.3903 132.882 53.9657 135.415 53.8932C136.891 53.8524 138.368 53.9417 139.828 54.16C143.111 46.9411 146.768 38.883 149.732 32.3567C145.958 31.565 142.097 31.2614 138.245 31.4532C132.906 31.7055 127.701 32.8468 122.771 34.7202C124.443 41.3874 126.296 48.7087 127.957 55.1548Z" fill="url(#paint1_linear_409_709)"/>
<path d="M151.681 32.8174C149.334 37.9915 145.448 46.5563 141.814 54.5467C145.854 55.5 149.551 57.5526 152.493 60.4764L169.434 42.6362C164.515 37.9825 158.476 34.5946 151.681 32.8174Z" fill="url(#paint2_linear_409_709)"/>
<path d="M124.972 51.4292C123.479 45.5894 121.999 39.7136 120.931 35.4609C115.45 37.7795 110.344 41.0063 105.817 44.9216L117.167 61.19C119.823 58.9146 122.841 57.0974 126.096 55.8133C125.739 54.4243 125.364 52.9629 124.972 51.4292Z" fill="url(#paint3_linear_409_709)"/>
<path d="M136.242 70.3668L130.439 70.4325L136.94 39.3496C137.023 38.9556 137.577 38.9349 137.563 39.3247L136.242 70.3668Z" fill="url(#paint4_linear_409_709)"/>
<path d="M179.841 86.627C179.621 81.777 176.531 78.6705 175.76 77.917C171.155 73.4237 164.654 73.6014 162.573 73.6574C155.19 73.8544 153.523 77.5119 148.372 76.1508C144.008 74.9984 143.675 71.9721 139.922 71.7674C135.998 71.5532 131.882 74.6155 130.235 78.096C127.058 84.8013 132.014 95.2602 139.088 98.4193C146.439 101.698 150.414 94.5703 163.89 96.6752C168.807 97.4426 171.685 98.9226 174.87 97.126C178.357 95.1558 180.018 90.4939 179.841 86.627Z" fill="url(#paint5_linear_409_709)"/>
<path d="M151.373 118.686C169.631 98.5472 144.952 86.9567 143.616 86.3463C143.6 86.3333 143.58 86.3245 143.559 86.3207C139.123 86.244 133.357 86.4362 133.176 86.459C132.056 86.6152 129.977 86.7355 129.816 86.9021C126.48 88.5895 107.334 99.414 122.951 118.684L124.683 116.67C124.683 116.67 118.796 101.979 129.823 94.3851C129.978 94.5615 130.123 94.7461 130.258 94.9381C133.014 98.8859 130.558 104.533 128.979 110.375C127.865 114.508 125.558 118.136 124.878 124.084H150.315C150.263 123.653 150.199 123.21 150.119 122.752C149.475 119.088 148.467 118.234 145.293 110.839C143.985 107.794 141.61 101.837 143.002 97.7273C143.034 97.632 143.066 97.5518 143.095 97.4826C143.71 96.0054 144.192 95.1199 144.953 94.3954C157.334 101.527 149.976 117.691 149.976 117.691L151.373 118.686Z" fill="#893976"/>
<path d="M126.582 153.816C126.593 154.066 126.623 154.934 126.708 156.116C126.9 158.764 127.124 160.769 127.229 161.63C127.922 167.309 128.45 170.667 128.822 174.122C129.073 176.472 129.36 179.905 129.418 184.155C129.566 184.297 129.756 184.388 129.959 184.414C130.099 184.427 130.24 184.411 130.373 184.367C130.506 184.322 130.628 184.25 130.732 184.155C130.773 183.772 130.815 183.107 130.939 182.292C131.632 177.828 131.928 174.174 132.078 171.629C132.435 165.535 132.063 163.232 132.978 158.92C133.193 157.906 133.285 157.692 133.867 155.578C135.079 151.177 136.869 144.597 137.76 137.523C138.586 130.971 139.007 127.276 136.844 125.597C135.616 124.643 134.818 125.321 130.788 123.888C127.566 122.743 126.523 121.769 125.6 122.34C124.676 122.911 124.684 124.612 124.687 127.693C124.682 128.747 124.733 129.801 124.841 130.85C125.753 138.36 126.458 151.058 126.582 153.816Z" fill="url(#paint6_linear_409_709)"/>
<path style="mix-blend-mode:multiply" opacity="0.3" d="M136.841 125.596C135.614 124.642 134.815 125.32 130.785 123.887C129.371 123.384 128.377 122.915 127.628 122.595C130.411 125.556 133.277 128.394 134.779 132.139C136.153 135.983 132.303 138.454 131.478 142.024C131.478 142.848 130.928 143.672 131.201 144.496C133.401 148.613 132.576 152.731 131.201 157.124C129.55 161.791 129.825 167.282 130.1 172.224C130.1 175.85 130.848 180.225 129.408 183.804C129.408 183.921 129.412 184.037 129.413 184.156C129.562 184.298 129.751 184.388 129.955 184.415C130.094 184.428 130.235 184.412 130.368 184.368C130.501 184.323 130.624 184.251 130.727 184.156C130.769 183.773 130.811 183.108 130.935 182.293C131.627 177.829 131.924 174.175 132.073 171.63C132.43 165.536 132.058 163.233 132.974 158.921C133.188 157.907 133.281 157.693 133.862 155.579C135.074 151.178 136.865 144.598 137.756 137.524C138.584 130.969 139.001 127.275 136.841 125.596Z" fill="url(#paint7_linear_409_709)"/>
<path d="M148.363 185.374C148.458 185.472 148.573 185.549 148.7 185.6C148.827 185.651 148.963 185.675 149.1 185.67C149.309 185.655 149.508 185.571 149.664 185.43C149.659 185.269 149.664 185.107 149.678 184.947C152.178 180.059 153.003 175.877 153.298 173.115C153.555 170.725 153.47 168.45 153.298 163.9C153.207 161.488 153.06 159.545 152.642 157.25C152.278 155.259 151.867 153.869 151.714 153.315C150.34 148.314 151.948 145.509 151.739 136.903C151.592 130.849 150.637 125.683 150.264 123.704C150.036 122.497 149.821 121.496 149.664 120.797C149.157 120.847 147.839 121.129 146.283 121.792C144.329 122.621 143.888 123.595 141.473 125.07C139.36 126.361 140.504 125.439 139.88 126.046C137.692 128.178 138.087 133.858 139.589 138.459C140.807 142.192 142.546 147.783 144.456 154.989C146.564 159.959 148.874 167.278 148.997 176.259C149.038 179.31 148.826 182.358 148.363 185.374Z" fill="url(#paint8_linear_409_709)"/>
<path d="M149.383 119.514C147.928 120.52 145.979 121.646 143.749 122.352C135.381 124.998 127.82 121.343 125.607 120.168C124.898 121.786 124.589 123.55 124.707 125.313C126.805 125.131 128.917 125.4 130.901 126.101C135.272 127.657 137.609 130.863 138.403 132.072C139.264 130.42 140.451 128.959 141.893 127.777C145.262 125.029 149.158 124.702 150.55 124.65C150.559 123.942 150.33 123.025 150.092 121.984C149.87 121.027 149.673 120.119 149.383 119.514Z" fill="url(#paint9_linear_409_709)"/>
<path d="M142.623 86.2684L141.152 86.2041L142.623 95.1146L143.309 96.578L144.094 95.8867L142.623 86.2684Z" fill="url(#paint10_linear_409_709)"/>
<path d="M132.032 86.542L130.953 86.5696L129.972 94.7114L131.002 96.5771L132.032 86.542Z" fill="url(#paint11_linear_409_709)"/>
<path d="M142.649 100.604C142.961 99.1907 143.374 97.8014 143.884 96.4468C143.953 96.2594 144.022 96.0728 144.091 95.8861C143.716 95.4714 143.122 94.6688 142.271 94.2534C140.358 93.3188 138.511 93.9686 137.914 94.1241H136.736C135.484 93.8891 134.486 93.6333 133.794 93.4391C133.017 93.2213 132.694 93.0996 132.225 93.1453C131.178 93.2483 130.418 94.0847 129.97 94.7117C130.395 96.1468 130.901 97.5839 131.326 99.0197C133.268 99.0567 135.207 99.2197 137.128 99.5077C139.049 99.7911 141.108 100.191 142.649 100.604Z" fill="url(#paint12_linear_409_709)"/>
<path d="M138.01 81.0752C138.01 81.0752 137.941 84.7445 138.973 85.5263C139.6 85.9948 140.369 86.234 141.152 86.2037C141.152 86.2037 138.381 87.6616 133.175 86.4623L134.042 86.1374C134.532 85.9542 134.96 85.6379 135.278 85.2243C135.596 84.8108 135.792 84.3164 135.843 83.7974L136.017 82.0361L138.01 81.0752Z" fill="url(#paint13_linear_409_709)"/>
<path d="M138.316 81.6093C138.316 81.6093 137.194 82.9753 135.513 82.4962C134.012 82.0676 134.438 78.2657 135.547 77.6698C135.917 77.4714 136.586 77.4949 137.086 77.7673C137.381 77.9283 137.462 78.0928 137.951 78.3452C138.401 78.5788 138.545 78.5525 138.665 78.7108C138.815 78.9134 138.876 79.3468 138.388 80.3851C138.734 80.1217 139.106 80.0699 139.332 80.2503C139.409 80.3204 139.467 80.4102 139.498 80.5102C139.638 80.9851 139.185 81.46 138.316 81.6093Z" fill="url(#paint14_linear_409_709)"/>
<path d="M122.951 118.686C122.951 118.686 124.601 115.844 125.702 116.147C126.802 116.449 127.902 118.343 128.383 118.686C128.865 119.03 125.587 118.341 124.681 119.032C123.776 119.723 122.951 118.686 122.951 118.686Z" fill="url(#paint15_linear_409_709)"/>
<path d="M151.386 118.686C151.386 118.686 149.735 115.844 148.635 116.147C147.536 116.449 146.435 118.343 145.954 118.686C145.472 119.03 148.75 118.341 149.655 119.032C150.56 119.723 151.386 118.686 151.386 118.686Z" fill="url(#paint16_linear_409_709)"/>
<path d="M88.296 127.636C88.7261 131.852 88.7773 136.099 88.449 140.324C87.9033 147.345 86.4973 151.787 84.7334 159.272C83.6557 163.847 82.2034 170.579 80.8889 178.999C80.5842 179.173 79.6866 179.632 78.5341 179.46C78.0293 179.385 77.5466 179.202 77.1185 178.924C73.6695 168.406 74.6883 161.888 76.3525 157.828C77.0617 156.1 77.9219 154.731 78.3818 152.07C78.9899 148.55 78.2377 146.582 77.1649 138.428C76.4031 132.616 76.5333 131.718 77.0417 130.846C79.0723 127.361 85.2916 127.429 88.296 127.636Z" fill="url(#paint17_linear_409_709)"/>
<path d="M76.4264 128.858C74.3133 139.747 72.2404 145.467 70.6711 148.701C69.5402 150.984 68.5717 153.344 67.7727 155.763C66.6922 159.029 66.2421 161.431 66.0114 162.489C65.2829 165.827 63.4829 170.701 58.6397 177.093C58.5794 177.128 57.7532 177.595 56.9637 177.179C56.6706 177.02 56.4338 176.775 56.2856 176.477C56.9187 170.366 57.6459 165.23 58.2768 161.269C58.4091 160.44 58.9922 156.801 59.9064 151.995C60.2645 150.115 60.7888 147.36 61.4169 144.529C62.1981 141.004 63.3977 136.211 65.2455 130.466L76.4264 128.858Z" fill="url(#paint18_linear_409_709)"/>
<path style="mix-blend-mode:multiply" opacity="0.3" d="M76.3492 157.828C77.0584 156.1 77.9186 154.731 78.3785 152.07C78.9866 148.55 78.2344 146.582 77.1616 138.428C76.3998 132.616 76.53 131.718 77.0384 130.846C78.1465 128.953 80.4853 128.112 82.8747 127.769C82.8428 127.891 82.8109 128.014 82.7846 128.132C81.5311 133.848 86.3167 137.335 84.158 143.617C83.0935 146.714 81.3953 147.424 80.9999 151.017C80.6293 154.383 81.9736 155.084 81.6862 158.143C81.2568 162.716 78.0024 163.823 77.1554 167.325C76.6055 169.6 77.0688 172.928 81.0878 177.744C81.0186 178.159 80.9548 178.573 80.8884 178.998C80.5829 179.173 79.6861 179.631 78.5336 179.46C78.0287 179.384 77.546 179.201 77.118 178.923C73.6662 168.406 74.685 161.888 76.3492 157.828Z" fill="url(#paint19_linear_409_709)"/>
<path d="M59.342 72.8534C60.732 73.4327 61.8297 73.8129 63.2377 73.9802C65.6832 74.2705 67.1909 73.6968 70.6482 72.9018C75.053 71.8884 77.2554 71.381 78.2741 71.7764C81.7148 73.1113 83.1014 78.9712 82.4296 83.4437C81.8485 87.3099 78.7728 91.9269 75.0793 93.0558C72.1892 93.9392 70.1863 92.4855 68.3517 94.3235C66.7061 95.9722 67.9423 98.1172 66.2047 99.9014C64.958 101.184 63.9005 101.013 61.4509 102.044C57.1431 103.864 57.2525 106.002 54.291 107.246C50.6703 108.767 49.0905 106.166 42.4079 105.687C35.2467 105.173 33.8892 107.932 29.9686 106.609C24.6143 104.805 21.8773 97.8933 21.1618 93.4629C19.5107 83.2397 26.4254 72.6371 35.4288 68.6021C37.9602 67.4691 43.6206 64.9301 48.7311 67.0488C51.4633 68.1811 53.4586 70.4008 59.342 72.8534Z" fill="url(#paint20_linear_409_709)"/>
<path d="M113.722 98.4354C113.722 98.4354 114.526 96.7176 115.48 95.5742C116.434 94.4308 119.059 95.7525 119.985 95.785C120.156 95.7913 120.254 95.8376 120.291 95.9108C120.381 96.0913 119.687 96.4348 118.364 97.1275C116.217 98.2522 116.047 98.3828 115.508 98.4409C114.823 98.5045 113.722 98.4354 113.722 98.4354Z" fill="url(#paint21_linear_409_709)"/>
<path d="M113.501 97.1287C113.963 97.7454 114.426 98.3617 114.89 98.9779C114.579 100.271 113.551 103.776 110.258 106.606C109.801 107 105.864 110.281 100.223 110.073C91.6635 109.759 87.1701 101.709 86.9443 101.289C85.6035 98.5887 80.7562 88.5218 83.3325 86.5115C85.1249 85.1138 90.1267 87.9114 92.9662 90.1939C97.4444 93.7934 96.9908 96.47 101.535 99.2088C103.138 100.177 106.476 102.187 109.718 100.904C111.898 100.042 113.032 98.091 113.501 97.1287Z" fill="white"/>
<path style="mix-blend-mode:multiply" opacity="0.33" d="M113.501 97.1287C113.963 97.7454 114.426 98.3617 114.89 98.9779C114.579 100.271 113.551 103.776 110.258 106.606C109.801 107 105.864 110.281 100.223 110.073C91.6635 109.759 87.1701 101.709 86.9443 101.289C85.6035 98.5887 80.7562 88.5218 83.3325 86.5115C85.1249 85.1138 90.1267 87.9114 92.9662 90.1939C97.4444 93.7934 96.9908 96.47 101.535 99.2088C103.138 100.177 106.476 102.187 109.718 100.904C111.898 100.042 113.032 98.091 113.501 97.1287Z" fill="url(#paint22_linear_409_709)"/>
<path d="M91.0362 134.499C92.5806 133.497 92.8632 131.371 92.9754 130.114C93.6485 122.528 90.7848 116.215 90.3436 107.068C90.2099 104.303 90.4128 103.711 90.1891 99.3625C89.7251 90.4299 88.6433 88.8047 87.7187 87.8819C85.4803 85.6477 82.2259 85.6007 80.3082 85.5696C79.5464 85.5579 72.496 85.542 69.7118 89.9405C67.6071 93.2696 70.4418 95.1838 69.5733 101.366C68.5144 108.91 63.023 115.118 61.7757 116.469C59.975 118.416 58.2782 119.713 56.8355 122.71C55.4151 125.658 56.0931 126.41 54.7509 128.874C52.2867 133.397 48.1583 134.249 48.5752 135.886C48.8959 137.146 51.5948 137.634 53.3616 137.581C55.9823 137.503 56.6859 136.23 58.9361 135.651C63.2993 134.531 64.744 138.257 69.1862 137.812C74.1672 137.315 74.5266 132.414 78.9902 132.572C81.4371 132.66 82.3326 134.168 87.4826 134.884C88.93 135.085 90.0583 135.134 91.0362 134.499Z" fill="#EFEFEF"/>
<path style="mix-blend-mode:multiply" opacity="0.15" d="M91.0364 134.499C92.5808 133.497 92.8634 131.371 92.9756 130.114C93.6488 122.527 90.785 116.215 90.3438 107.068C90.2102 104.303 90.4131 103.711 90.1894 99.3622C89.8202 92.2573 89.6755 89.6104 87.719 87.8816C86.8186 87.0846 85.0955 86.0691 84.0906 86.6484C82.2331 87.7205 85.3483 92.7903 83.2415 96.7409C81.447 100.107 78.0541 98.552 72.8972 101.98C67.268 105.722 69.4447 108.814 61.78 116.466C60.1179 118.125 58.2819 119.715 56.8399 122.708C55.4195 125.656 56.0975 126.408 54.7553 128.872C52.2911 133.395 48.1627 134.246 48.5796 135.884C48.9003 137.143 51.5992 137.632 53.366 137.579C55.9867 137.5 56.6903 136.228 58.9405 135.649C63.3037 134.528 64.7484 138.254 69.1906 137.81C74.1716 137.312 74.531 132.412 78.9946 132.57C81.4415 132.657 82.337 134.165 87.487 134.882C88.9303 135.085 90.0585 135.133 91.0364 134.499Z" fill="url(#paint23_linear_409_709)"/>
<path style="mix-blend-mode:multiply" opacity="0.15" d="M51.8188 136.042C54.8156 135.133 55.3364 132.562 58.8443 131.882C62.1582 131.239 63.177 133.247 65.869 132.344C69.0881 131.264 68.48 128.108 71.5821 126.719C75.599 124.922 79.4732 128.931 81.8494 126.95C83.3593 125.689 81.9658 123.924 83.6245 121.017C85.4425 117.832 88.0736 118.275 89.4144 115.625C90.695 113.093 89.217 110.868 88.5653 107.226C88.0757 104.486 87.9808 100.492 89.8812 95.2139C90.0003 96.389 90.1042 97.757 90.188 99.3663C90.4145 103.715 90.2088 104.305 90.3425 107.072C90.785 116.219 93.6488 122.531 92.9742 130.118C92.8627 131.375 92.5802 133.501 91.035 134.503C90.0571 135.137 88.9289 135.089 87.4842 134.888C82.3342 134.172 81.4387 132.663 78.9919 132.576C74.5283 132.418 74.1688 137.318 69.1878 137.816C64.745 138.261 63.301 134.535 58.9378 135.655C56.6855 136.234 55.9839 137.506 53.3632 137.585C51.7703 137.633 49.4218 137.24 48.7417 136.235C49.9856 136.415 50.9981 136.29 51.8188 136.042Z" fill="url(#paint24_linear_409_709)"/>
<path d="M77.6296 81.334C77.6296 81.334 77.8373 84.7572 76.9862 85.3993C76.4487 85.8058 75.5712 86.2192 74.9999 86.4687C74.9622 86.4852 74.9307 86.5131 74.9099 86.5486C74.8892 86.584 74.8802 86.6251 74.8843 86.6659C74.8883 86.7068 74.9053 86.7453 74.9326 86.7759C74.96 86.8066 74.9964 86.8278 75.0366 86.8365L79.9587 87.9425C80.0742 87.9714 80.1949 87.9726 80.311 87.9459C80.427 87.9192 80.5351 87.8655 80.6263 87.7891L82.5198 86.2047C82.5482 86.1807 82.5688 86.1488 82.5789 86.1131C82.589 86.0773 82.5882 86.0394 82.5765 86.0041C82.5648 85.9689 82.5428 85.9379 82.5133 85.9153C82.4838 85.8926 82.4482 85.8793 82.4111 85.877L80.8009 85.7844C80.4476 85.71 80.124 85.534 79.8698 85.2781C79.6157 85.0222 79.4422 84.6976 79.3707 84.3445L78.9108 82.0723L77.6296 81.334Z" fill="url(#paint25_linear_409_709)"/>
<path d="M77.6989 82.5119C77.6989 82.5119 78.575 83.7126 79.9491 83.2121C81.1798 82.7642 80.4457 79.592 79.4691 79.2304C79.1436 79.1095 78.5459 79.1613 78.1463 79.4115C77.8651 79.5871 77.1144 80.5176 77.5452 81.5607C77.2342 81.4701 76.9606 81.5524 76.8921 81.7059C76.8048 81.9008 77.068 82.1662 77.1276 82.2264C77.2835 82.3788 77.4833 82.4786 77.6989 82.5119Z" fill="url(#paint26_linear_409_709)"/>
<path d="M87.7854 98.7384L87.2127 96.406C87.124 96.0445 87.2771 95.6733 87.6234 95.4196C88.4545 94.8092 88.6622 94.3343 89.1574 94.2009C90.0578 93.9582 90.4989 94.6212 89.8389 94.8921C89.1789 95.1631 88.6726 95.7051 88.9441 96.659C89.2156 97.613 88.7003 98.4273 87.7854 98.7384Z" fill="url(#paint27_linear_409_709)"/>
<path d="M89.2871 98.7984L86.9192 97.3087C86.5584 98.1071 85.3616 100.473 82.6481 101.778C80.265 102.923 76.4732 103.368 74.7736 101.521C73.0234 99.621 73.3192 96.1598 73.7444 92.223C74.0623 89.3017 74.6773 87.6289 73.8989 87.1118C73.1204 86.5947 71.5261 87.6364 69.7815 88.7812C68.8258 89.4089 67.0569 90.5695 65.865 92.0219C63.164 95.3116 62.2221 101.561 65.304 106.555C67.6221 110.313 72.0026 112.994 76.6227 112.757C82.9958 112.43 88.7656 106.602 89.2871 98.7984Z" fill="#EFEFEF"/>
<path d="M66.24 15.8584H4.56918C2.38359 15.8584 0.611816 17.6268 0.611816 19.8083V54.7257C0.611816 56.9071 2.38359 58.6756 4.56918 58.6756H66.24C68.4256 58.6756 70.1974 56.9071 70.1974 54.7257V19.8083C70.1974 17.6268 68.4256 15.8584 66.24 15.8584Z" fill="#F0EDEE"/>
<path d="M9.12652 47.6385C9.12652 47.6385 8.63271 43.7301 9.84887 44.4746C12.8581 46.3168 16.1665 44.3979 16.5093 43.7142C18.5871 39.5597 17.6327 27.6152 23.2502 27.6152C28.8676 27.6152 26.2975 38.5082 29.3489 40.9111C32.4004 43.3139 36.5711 32.2606 41.0645 32.2606C45.5579 32.2606 46.682 40.5903 50.5334 40.5903C54.3848 40.5903 55.6716 36.7455 59.6816 36.1047V47.6676L9.12652 47.6385Z" fill="#D388E3"/>
<path d="M8.07301 26.3836C7.98454 26.3838 7.89925 26.3507 7.83407 26.291C7.7649 26.2274 7.72374 26.1391 7.71959 26.0453C7.71543 25.9516 7.74862 25.8599 7.81191 25.7905L9.11048 24.3755C9.14378 24.3393 9.18424 24.3104 9.2293 24.2907C9.27437 24.2709 9.32306 24.2607 9.37228 24.2607C9.42145 24.2608 9.47007 24.2711 9.51504 24.291C9.56 24.3108 9.6003 24.3399 9.63338 24.3762L10.8163 25.673C10.8493 25.707 10.8752 25.7473 10.8923 25.7915C10.9095 25.8357 10.9175 25.8828 10.9161 25.9302C10.9146 25.9775 10.9037 26.0241 10.8838 26.0671C10.864 26.1102 10.8358 26.1488 10.8007 26.1807C10.7656 26.2127 10.7245 26.2373 10.6798 26.253C10.635 26.2688 10.5876 26.2755 10.5402 26.2726C10.4928 26.2697 10.4465 26.2574 10.404 26.2363C10.3615 26.2153 10.3236 26.1859 10.2927 26.15L9.37089 25.1387L8.3348 26.2682C8.30152 26.3044 8.26107 26.3334 8.21602 26.3533C8.17096 26.3731 8.12227 26.3835 8.07301 26.3836Z" fill="#3B3348"/>
<path d="M63.0088 46.5473C63.0087 46.4786 63.0286 46.4114 63.0661 46.3538C63.1037 46.2963 63.1572 46.2509 63.2202 46.2233C63.2832 46.1956 63.3529 46.1869 63.4207 46.1981C63.4886 46.2094 63.5517 46.2402 63.6023 46.2867L65.0214 47.5828C65.0577 47.616 65.0866 47.6564 65.1064 47.7014C65.1262 47.7464 65.1364 47.795 65.1364 47.8441C65.1363 47.8932 65.126 47.9417 65.1061 47.9866C65.0862 48.0314 65.0571 48.0717 65.0207 48.1047L63.7201 49.2875C63.6857 49.3187 63.6455 49.3429 63.6017 49.3587C63.558 49.3745 63.5115 49.3815 63.4651 49.3793C63.4186 49.3772 63.373 49.3659 63.3309 49.3462C63.2888 49.3264 63.251 49.2986 63.2197 49.2643C63.1883 49.23 63.1641 49.1898 63.1483 49.1462C63.1325 49.1025 63.1255 49.0562 63.1276 49.0098C63.1298 48.9634 63.1411 48.9179 63.1609 48.8759C63.1806 48.8339 63.2085 48.7961 63.2429 48.7649L64.2554 47.8448L63.1238 46.8079C63.0877 46.7747 63.0588 46.7344 63.039 46.6895C63.0192 46.6447 63.009 46.5963 63.0088 46.5473Z" fill="#3B3348"/>
<path d="M23.3135 47.6661C23.2903 47.6663 23.2672 47.6619 23.2456 47.6531C23.2241 47.6443 23.2045 47.6313 23.188 47.615C23.1715 47.5986 23.1584 47.5791 23.1496 47.5576C23.1407 47.5361 23.1361 47.5131 23.1362 47.4899V24.6718C23.139 24.6268 23.1589 24.5847 23.1918 24.5538C23.2247 24.523 23.2681 24.5059 23.3132 24.5059C23.3583 24.5059 23.4017 24.523 23.4346 24.5538C23.4674 24.5847 23.4873 24.6268 23.4901 24.6718V47.4892C23.4903 47.5124 23.4859 47.5354 23.4771 47.5569C23.4683 47.5785 23.4553 47.598 23.4389 47.6145C23.4224 47.6309 23.4029 47.644 23.3814 47.6528C23.3599 47.6617 23.3368 47.6662 23.3135 47.6661Z" fill="#3B3348"/>
<path d="M40.9141 47.6661C40.8908 47.6663 40.8678 47.6619 40.8462 47.6531C40.8247 47.6443 40.8051 47.6313 40.7886 47.615C40.7721 47.5986 40.759 47.5791 40.7501 47.5576C40.7413 47.5361 40.7367 47.5131 40.7368 47.4899V24.6718C40.7396 24.6268 40.7595 24.5847 40.7924 24.5538C40.8253 24.523 40.8687 24.5059 40.9138 24.5059C40.9589 24.5059 41.0023 24.523 41.0352 24.5538C41.068 24.5847 41.0879 24.6268 41.0907 24.6718V47.4892C41.0909 47.5124 41.0865 47.5354 41.0777 47.5569C41.0689 47.5785 41.0559 47.598 41.0394 47.6145C41.023 47.6309 41.0035 47.644 40.982 47.6528C40.9605 47.6617 40.9374 47.6662 40.9141 47.6661Z" fill="#3B3348"/>
<path d="M59.6996 47.6661C59.6763 47.6662 59.6533 47.6617 59.6319 47.6529C59.6104 47.6441 59.5909 47.6311 59.5745 47.6147C59.5581 47.5983 59.545 47.5789 59.5362 47.5574C59.5274 47.536 59.5229 47.513 59.523 47.4899V24.6718C59.5258 24.6268 59.5456 24.5847 59.5785 24.5538C59.6114 24.523 59.6548 24.5059 59.6999 24.5059C59.745 24.5059 59.7884 24.523 59.8213 24.5538C59.8542 24.5847 59.874 24.6268 59.8769 24.6718V47.4892C59.877 47.5125 59.8726 47.5356 59.8637 47.5571C59.8549 47.5787 59.8418 47.5982 59.8253 47.6147C59.8088 47.6312 59.7892 47.6442 59.7676 47.653C59.746 47.6619 59.7229 47.6663 59.6996 47.6661Z" fill="#3B3348"/>
<path d="M9.31289 50.6153C9.26633 50.6154 9.22021 50.6063 9.17719 50.5885C9.13417 50.5708 9.09508 50.5447 9.06219 50.5118C9.0293 50.4789 9.00325 50.4398 8.98554 50.3969C8.96783 50.3539 8.9588 50.3078 8.95899 50.2614V25.4987C8.95899 25.4051 8.99627 25.3152 9.06264 25.249C9.12901 25.1827 9.21903 25.1455 9.31289 25.1455C9.40675 25.1455 9.49677 25.1827 9.56314 25.249C9.62951 25.3152 9.6668 25.4051 9.6668 25.4987V50.2614C9.66689 50.3078 9.6578 50.3538 9.64006 50.3968C9.62231 50.4397 9.59626 50.4787 9.56339 50.5116C9.53051 50.5445 9.49147 50.5706 9.44849 50.5883C9.4055 50.6061 9.35943 50.6153 9.31289 50.6153Z" fill="#3B3348"/>
<path d="M64.2477 48.1391H6.8334C6.73954 48.1391 6.64952 48.1019 6.58315 48.0356C6.51678 47.9694 6.47949 47.8795 6.47949 47.7859C6.47949 47.6922 6.51678 47.6023 6.58315 47.5361C6.64952 47.4698 6.73954 47.4326 6.8334 47.4326H64.2477C64.3415 47.4326 64.4316 47.4698 64.4979 47.5361C64.5643 47.6023 64.6016 47.6922 64.6016 47.7859C64.6016 47.8795 64.5643 47.9694 64.4979 48.0356C64.4316 48.1019 64.3415 48.1391 64.2477 48.1391Z" fill="#3B3348"/>
<path d="M23.9722 26.9337C23.9722 26.8149 23.9369 26.6988 23.8708 26.6C23.8047 26.5012 23.7107 26.4242 23.6007 26.3787C23.4907 26.3333 23.3697 26.3214 23.253 26.3446C23.1362 26.3677 23.029 26.4249 22.9448 26.509C22.8607 26.593 22.8033 26.7 22.7801 26.8165C22.7569 26.9331 22.7688 27.0538 22.8144 27.1636C22.8599 27.2734 22.9371 27.3672 23.036 27.4332C23.135 27.4992 23.2514 27.5344 23.3704 27.5344C23.53 27.5344 23.6831 27.4711 23.796 27.3585C23.9088 27.2458 23.9722 27.093 23.9722 26.9337Z" fill="white"/>
<path d="M23.3693 27.7034C23.2169 27.7034 23.068 27.6583 22.9413 27.5738C22.8147 27.4893 22.7159 27.3692 22.6577 27.2287C22.5994 27.0882 22.5842 26.9336 22.614 26.7845C22.6437 26.6354 22.7172 26.4984 22.8249 26.3909C22.9327 26.2834 23.07 26.2103 23.2194 26.1807C23.3689 26.1511 23.5237 26.1664 23.6645 26.2247C23.8052 26.283 23.9254 26.3816 24.0099 26.5081C24.0945 26.6346 24.1395 26.7833 24.1394 26.9354C24.1392 27.1391 24.058 27.3345 23.9136 27.4785C23.7692 27.6225 23.5734 27.7034 23.3693 27.7034ZM23.3693 26.5006C23.2831 26.5006 23.1989 26.5261 23.1272 26.5739C23.0556 26.6216 22.9998 26.6896 22.9668 26.769C22.9338 26.8485 22.9252 26.9359 22.942 27.0202C22.9588 27.1046 23.0003 27.182 23.0612 27.2429C23.1222 27.3037 23.1998 27.3451 23.2843 27.3619C23.3688 27.3786 23.4564 27.37 23.536 27.3371C23.6156 27.3042 23.6836 27.2485 23.7315 27.177C23.7793 27.1055 23.8049 27.0214 23.8049 26.9354C23.805 26.8783 23.7938 26.8217 23.7719 26.7689C23.7501 26.7161 23.718 26.6681 23.6775 26.6277C23.637 26.5873 23.589 26.5553 23.5361 26.5335C23.4832 26.5117 23.4265 26.5005 23.3693 26.5006Z" fill="#3B3348"/>
<path d="M40.8636 32.6614C41.196 32.6614 41.4654 32.3924 41.4654 32.0607C41.4654 31.7289 41.196 31.46 40.8636 31.46C40.5312 31.46 40.2617 31.7289 40.2617 32.0607C40.2617 32.3924 40.5312 32.6614 40.8636 32.6614Z" fill="white"/>
<path d="M40.8637 32.827C40.7115 32.827 40.5627 32.782 40.4361 32.6975C40.3096 32.6131 40.211 32.4931 40.1527 32.3528C40.0945 32.2124 40.0793 32.0579 40.1091 31.9089C40.1388 31.7599 40.2122 31.6231 40.3199 31.5157C40.4275 31.4083 40.5647 31.3352 40.714 31.3057C40.8633 31.2761 41.018 31.2914 41.1586 31.3497C41.2992 31.4079 41.4193 31.5065 41.5038 31.6328C41.5883 31.7592 41.6333 31.9078 41.6331 32.0597C41.633 32.2633 41.5518 32.4584 41.4075 32.6023C41.2632 32.7462 41.0676 32.827 40.8637 32.827ZM40.8637 31.6256C40.7777 31.6256 40.6936 31.6511 40.622 31.6988C40.5505 31.7465 40.4948 31.8143 40.4619 31.8936C40.4289 31.9729 40.4203 32.0602 40.4371 32.1444C40.4539 32.2286 40.4953 32.306 40.5561 32.3667C40.617 32.4274 40.6945 32.4687 40.7788 32.4855C40.8632 32.5022 40.9507 32.4936 41.0301 32.4608C41.1096 32.4279 41.1775 32.3723 41.2253 32.3009C41.2731 32.2295 41.2986 32.1456 41.2986 32.0597C41.2987 32.0027 41.2875 31.9462 41.2657 31.8935C41.2439 31.8408 41.2118 31.7929 41.1714 31.7525C41.131 31.7122 41.083 31.6802 41.0302 31.6584C40.9774 31.6367 40.9208 31.6255 40.8637 31.6256Z" fill="#3B3348"/>
<path d="M59.5345 36.6116C59.8669 36.6116 60.1363 36.3426 60.1363 36.0109C60.1363 35.6791 59.8669 35.4102 59.5345 35.4102C59.2021 35.4102 58.9326 35.6791 58.9326 36.0109C58.9326 36.3426 59.2021 36.6116 59.5345 36.6116Z" fill="white"/>
<path d="M59.5341 36.7772C59.3816 36.7772 59.2325 36.732 59.1058 36.6472C58.9791 36.5625 58.8805 36.4421 58.8225 36.3013C58.7645 36.1606 58.7497 36.0057 58.78 35.8566C58.8103 35.7074 58.8844 35.5706 58.9927 35.4635C59.1011 35.3564 59.2389 35.2838 59.3887 35.2551C59.5384 35.2263 59.6934 35.2426 59.8338 35.3019C59.9743 35.3612 60.0939 35.4608 60.1776 35.5881C60.2612 35.7154 60.305 35.8646 60.3035 36.0168C60.3015 36.2192 60.2196 36.4126 60.0755 36.555C59.9314 36.6974 59.7368 36.7772 59.5341 36.7772ZM59.5341 35.5758C59.4481 35.5759 59.3641 35.6015 59.2927 35.6492C59.2213 35.697 59.1656 35.7648 59.1328 35.8441C59.1 35.9234 59.0914 36.0106 59.1082 36.0948C59.125 36.1789 59.1664 36.2562 59.2272 36.3169C59.288 36.3775 59.3654 36.4189 59.4497 36.4356C59.534 36.4524 59.6214 36.4439 59.7009 36.4111C59.7803 36.3783 59.8483 36.3228 59.8961 36.2515C59.9439 36.1802 59.9696 36.0964 59.9697 36.0106C59.9691 35.8957 59.923 35.7857 59.8413 35.7047C59.7597 35.6237 59.6492 35.5784 59.5341 35.5785V35.5758Z" fill="#3B3348"/>
</g>
<defs>
<linearGradient id="paint0_linear_409_709" x1="93.4812" y1="170.797" x2="191.675" y2="-31.8345" gradientUnits="userSpaceOnUse">
<stop stop-color="#D8DEE8"/>
<stop offset="1" stop-color="white"/>
</linearGradient>
<linearGradient id="paint1_linear_409_709" x1="138.119" y1="28.2616" x2="111.957" y2="102.435" gradientUnits="userSpaceOnUse">
<stop stop-color="#FFC444"/>
<stop offset="1" stop-color="#F36F56"/>
</linearGradient>
<linearGradient id="paint2_linear_409_709" x1="160.2" y1="35.6675" x2="136.571" y2="102.659" gradientUnits="userSpaceOnUse">
<stop stop-color="#FF9085"/>
<stop offset="1" stop-color="#FB6FBB"/>
</linearGradient>
<linearGradient id="paint3_linear_409_709" x1="121.201" y1="35.5522" x2="97.9751" y2="101.399" gradientUnits="userSpaceOnUse">
<stop stop-color="#E38DDD"/>
<stop offset="1" stop-color="#9571F6"/>
</linearGradient>
<linearGradient id="paint4_linear_409_709" x1="108.99" y1="132.816" x2="134.783" y2="20.4053" gradientUnits="userSpaceOnUse">
<stop stop-color="#444B8C"/>
<stop offset="1" stop-color="#26264F"/>
</linearGradient>
<linearGradient id="paint5_linear_409_709" x1="171.252" y1="128.6" x2="149.381" y2="71.5205" gradientUnits="userSpaceOnUse">
<stop stop-color="#444B8C"/>
<stop offset="1" stop-color="#26264F"/>
</linearGradient>
<linearGradient id="paint6_linear_409_709" x1="117.136" y1="218.131" x2="161.94" y2="-52.8498" gradientUnits="userSpaceOnUse">
<stop stop-color="#FFC444"/>
<stop offset="1" stop-color="#F36F56"/>
</linearGradient>
<linearGradient id="paint7_linear_409_709" x1="-1144.46" y1="1319.56" x2="-1247.41" y2="1414.18" gradientUnits="userSpaceOnUse">
<stop stop-color="#FFC444"/>
<stop offset="1" stop-color="#F36F56"/>
</linearGradient>
<linearGradient id="paint8_linear_409_709" x1="134.336" y1="220.973" x2="179.141" y2="-50.0083" gradientUnits="userSpaceOnUse">
<stop stop-color="#FFC444"/>
<stop offset="1" stop-color="#F36F56"/>
</linearGradient>
<linearGradient id="paint9_linear_409_709" x1="322.618" y1="208.516" x2="124.241" y2="116.351" gradientUnits="userSpaceOnUse">
<stop stop-color="#311944"/>
<stop offset="1" stop-color="#893976"/>
</linearGradient>
<linearGradient id="paint10_linear_409_709" x1="319.702" y1="173.225" x2="139.249" y2="89.387" gradientUnits="userSpaceOnUse">
<stop stop-color="#311944"/>
<stop offset="1" stop-color="#893976"/>
</linearGradient>
<linearGradient id="paint11_linear_409_709" x1="317.533" y1="177.657" x2="137.12" y2="93.8373" gradientUnits="userSpaceOnUse">
<stop stop-color="#311944"/>
<stop offset="1" stop-color="#893976"/>
</linearGradient>
<linearGradient id="paint12_linear_409_709" x1="319.687" y1="181.284" x2="136.327" y2="96.0953" gradientUnits="userSpaceOnUse">
<stop stop-color="#311944"/>
<stop offset="1" stop-color="#893976"/>
</linearGradient>
<linearGradient id="paint13_linear_409_709" x1="131.077" y1="120.561" x2="140.806" y2="65.6474" gradientUnits="userSpaceOnUse">
<stop stop-color="#FFC444"/>
<stop offset="1" stop-color="#F36F56"/>
</linearGradient>
<linearGradient id="paint14_linear_409_709" x1="114.678" y1="215.055" x2="159.483" y2="-55.9286" gradientUnits="userSpaceOnUse">
<stop stop-color="#FFC444"/>
<stop offset="1" stop-color="#F36F56"/>
</linearGradient>
<linearGradient id="paint15_linear_409_709" x1="110.885" y1="207.926" x2="140.809" y2="26.9451" gradientUnits="userSpaceOnUse">
<stop stop-color="#FFC444"/>
<stop offset="1" stop-color="#F36F56"/>
</linearGradient>
<linearGradient id="paint16_linear_409_709" x1="163.454" y1="207.926" x2="133.53" y2="26.9451" gradientUnits="userSpaceOnUse">
<stop stop-color="#FFC444"/>
<stop offset="1" stop-color="#F36F56"/>
</linearGradient>
<linearGradient id="paint17_linear_409_709" x1="89.4235" y1="162.278" x2="75.5441" y2="143.615" gradientUnits="userSpaceOnUse">
<stop stop-color="#AA80F9"/>
<stop offset="1" stop-color="#6165D7"/>
</linearGradient>
<linearGradient id="paint18_linear_409_709" x1="79.0879" y1="164.59" x2="46.5595" y2="134.197" gradientUnits="userSpaceOnUse">
<stop stop-color="#AA80F9"/>
<stop offset="1" stop-color="#6165D7"/>
</linearGradient>
<linearGradient id="paint19_linear_409_709" x1="87.6479" y1="163.598" x2="73.7685" y2="144.935" gradientUnits="userSpaceOnUse">
<stop stop-color="#AA80F9"/>
<stop offset="1" stop-color="#6165D7"/>
</linearGradient>
<linearGradient id="paint20_linear_409_709" x1="30.4194" y1="63.7536" x2="57.2539" y2="93.2554" gradientUnits="userSpaceOnUse">
<stop stop-color="#444B8C"/>
<stop offset="1" stop-color="#3E4177"/>
</linearGradient>
<linearGradient id="paint21_linear_409_709" x1="118.321" y1="93.0988" x2="112.166" y2="112.42" gradientUnits="userSpaceOnUse">
<stop stop-color="#FFC444"/>
<stop offset="1" stop-color="#F36F56"/>
</linearGradient>
<linearGradient id="paint22_linear_409_709" x1="114.891" y1="98.1097" x2="82.5901" y2="98.1097" gradientUnits="userSpaceOnUse">
<stop stop-color="#AA80F9"/>
<stop offset="1" stop-color="#6165D7"/>
</linearGradient>
<linearGradient id="paint23_linear_409_709" x1="93.0774" y1="112.163" x2="48.5484" y2="112.163" gradientUnits="userSpaceOnUse">
<stop stop-color="#AA80F9"/>
<stop offset="1" stop-color="#6165D7"/>
</linearGradient>
<linearGradient id="paint24_linear_409_709" x1="93.0767" y1="116.531" x2="48.7417" y2="116.531" gradientUnits="userSpaceOnUse">
<stop stop-color="#AA80F9"/>
<stop offset="1" stop-color="#6165D7"/>
</linearGradient>
<linearGradient id="paint25_linear_409_709" x1="80.3271" y1="89.0313" x2="73.2832" y2="77.1533" gradientUnits="userSpaceOnUse">
<stop stop-color="#FFC444"/>
<stop offset="1" stop-color="#F36F56"/>
</linearGradient>
<linearGradient id="paint26_linear_409_709" x1="79.8819" y1="81.73" x2="66.1405" y2="73.4417" gradientUnits="userSpaceOnUse">
<stop stop-color="#FFC444"/>
<stop offset="1" stop-color="#F36F56"/>
</linearGradient>
<linearGradient id="paint27_linear_409_709" x1="90.1561" y1="96.4434" x2="87.1884" y2="96.4434" gradientUnits="userSpaceOnUse">
<stop stop-color="#FFC444"/>
<stop offset="1" stop-color="#F36F56"/>
</linearGradient>
<clipPath id="clip0_409_709">
<rect width="214" height="139" fill="white"/>
</clipPath>
</defs>
</svg>
