<?xml version="1.0" encoding="utf-8"?>
<!-- Generator: Adobe Illustrator 25.3.1, SVG Export Plug-In . SVG Version: 6.00 Build 0)  -->
<svg version="1.1" id="圖層_1" xmlns="http://www.w3.org/2000/svg" xmlns:xlink="http://www.w3.org/1999/xlink" x="0px" y="0px"
	 viewBox="0 0 210 140" style="enable-background:new 0 0 210 140;" xml:space="preserve">
<style type="text/css">
	.st0{clip-path:url(#SVGID_2_);}
	.st1{opacity:0.5;fill:#E0F4F7;enable-background:new    ;}
	.st2{fill:#E0F4F7;}
	.st3{fill:#C4EAF4;}
	.st4{fill:#63AAB4;}
	.st5{fill:#95BEC9;}
	.st6{fill:#DD3F37;}
	.st7{fill:#EB594C;}
	.st8{fill:#EE816F;}
	.st9{fill:#30545D;}
	.st10{fill:#FFFFFF;}
	.st11{fill:#F2BEB7;}
	.st12{fill:#EDA8A2;}
	.st13{fill:#4A190C;}
	.st14{fill:#23393D;}
	.st15{fill:#333333;}
</style>
<g>
	<defs>
		<rect id="SVGID_1_" x="0.2" width="209.5" height="140"/>
	</defs>
	<clipPath id="SVGID_2_">
		<use xlink:href="#SVGID_1_"  style="overflow:visible;"/>
	</clipPath>
	<g class="st0">
		<path class="st1" d="M93.7,42.8c0,0-3.1-25.9-16.3-41.3c-1.8-2.1-5.1-0.7-5.1,2v0.1C72.5,8.2,87.4,27.7,93.7,42.8z"/>
		<path class="st1" d="M95.4,50.2c0,0-13.2-32.3-35.7-46.6c-1.4-0.9-3.2-0.6-4.2,0.8c-0.6,0.9-0.9,2.2-0.2,4.4
			C57.1,14.4,82.2,33.6,95.4,50.2z"/>
		<path class="st2" d="M63.5,31.5c0,0-0.8,19.8-4.5,19.4c-3.7-0.4,2.5-22,2.5-22S45.8,16.4,38.7,15.4c0,0,6.6,21.1,3.2,19.8
			C38.4,34,30.5,12.3,30.5,12.3S13.2,4.8,7.8,14.8C2.4,24.9,5.9,31.3,8.4,32.6c2.5,1.3,19.8,5.1,18.8,7.2c-1,2.1-13.4,3-19.4-0.5
			c0,0,3,19.3,12.6,20.6c9.6,1.3,13.8-3.9,19.7-2.9c5.9,0.9,9.8,3.5,6.5,4.3c-3.3,0.9-12.8-2.4-18.5,0.5c-5.6,2.9-10,4.5-1.7,8.3
			c8.3,3.8,24.2,6.3,28.9,0.4c0.2-0.3,0.4-0.5,0.6-0.7c-0.2,0.3-0.4,0.5-0.6,0.7c1.4,1.3,2.8,6.3,3.6,10.2c0.1,0.6,0.3,1.5,0.6,2.8
			c0.1,0.5,0.2,1,0.3,1.3c1.3,8.4-3.4,21.3-3.4,21.3l1.7,0.9c7.2-12.4,2.5-25.1,2.5-25.1c-2.7-9.8-0.7-17.4-0.7-17.4
			s18.9-5.5,14.1-20C74.1,44.4,69.7,35.1,63.5,31.5z"/>
		<path class="st3" d="M147.7,32.4l-7.2,17.1l-14.2,33.6c-0.2-0.1-0.3-0.1-0.5-0.2c-9-3.5-19-3.3-27.9,0.5l-2-4L81.2,50.9l-8.4-16.5
			c11.6-5.6,24.3-8.7,37.2-9c12.9-0.3,25.7,2,37.6,7L147.7,32.4z"/>
		<path class="st4" d="M82.6,95.8c-0.1,0.2-0.3,0.4-0.4,0.5c-4.2,6.1-6.4,13.3-6.4,20.7v0h-55c0-17.3,4.9-34.3,14.2-49l16,9.3
			L82.6,95.8z"/>
		<path class="st5" d="M97.8,83.4c-0.1,0.1-0.3,0.1-0.4,0.2l-0.1,0c-5.9,2.7-10.9,6.9-14.7,12.1L51.1,77.4L35,68
			c9.2-14.5,22.2-26.2,37.7-33.6l8.4,16.5l14.6,28.5L97.8,83.4z"/>
		<path class="st6" d="M148.9,117L148.9,117c0-7.3-2.1-14.4-6.2-20.4c-0.1-0.2-0.2-0.3-0.3-0.5L174,77.7l16-9.3
			c9.1,14.6,13.9,31.4,13.9,48.6H148.9z"/>
		<path class="st7" d="M190,68.4l-16,9.3l-31.5,18.4c-4-5.8-9.6-10.3-16.2-13c0,0-0.1,0-0.1,0l14.2-33.6l7.2-17.1
			C165.1,39.7,179.9,52.3,190,68.4z"/>
		<path class="st2" d="M126.3,83.1C126.2,83.1,126.2,83.1,126.3,83.1c-0.2-0.1-0.4-0.2-0.6-0.2c-9-3.5-19-3.3-27.9,0.5
			c-0.1,0.1-0.3,0.1-0.4,0.2L81.2,50.9c9.2-4.4,19.3-6.7,29.5-7c10.2-0.2,20.3,1.6,29.8,5.6L126.3,83.1z"/>
		<path class="st5" d="M82.2,96.3c-4.2,6.1-6.4,13.3-6.4,20.7H39.4c0-14.4,4.5-28.3,11.6-39.6L82.2,96.3z"/>
		<path class="st3" d="M97.4,83.6L97.4,83.6c-6,2.7-11,6.9-14.8,12.2c-0.1,0.2-0.3,0.4-0.4,0.5L51.1,77.4
			c7.3-11.3,18-20.6,30.1-26.5L97.4,83.6z"/>
		<path class="st7" d="M184.9,117h-36.1c0-7.3-2.1-14.5-6.1-20.6l31.2-18.6C181.2,89.6,185,103.1,184.9,117z"/>
		<path class="st8" d="M142.7,96.6c-0.1-0.2-0.2-0.3-0.3-0.5c-4-5.8-9.6-10.3-16.2-13l14.1-33.6c13.8,5.8,25.5,15.6,33.6,28.3
			C174.1,77.9,142.7,96.6,142.7,96.6z"/>
		<path class="st3" d="M136.1,117H88.7c0-4.4,1.2-8.7,3.5-12.5c2.3-3.7,5.6-6.8,9.5-8.8c0.6-0.3,1.3-0.6,1.9-0.9
			c1.5-0.6,3.1-1,4.6-1.3c4.1-0.7,8.4-0.3,12.3,1.1c0.2,0.1,0.4,0.1,0.6,0.2c4.4,1.8,8.2,4.8,10.9,8.7
			C134.7,107.6,136.1,112.2,136.1,117z"/>
		<path class="st5" d="M128.1,117H96.7c0-4.1,1.6-8.1,4.5-11.1c2.9-2.9,6.8-4.6,11-4.7h0.2c1.7,0,3.4,0.3,5,0.8
			c0.2,0.1,0.4,0.2,0.6,0.2c3,1.1,5.5,3.2,7.3,5.8C127.2,110.7,128.1,113.8,128.1,117z"/>
		<path class="st9" d="M113.4,115.3c-0.8,0.3-1.6,0.3-2.4,0.1c-0.1,0-0.2-0.1-0.4-0.1c-0.1,0-0.2-0.1-0.4-0.1
			c-0.8-0.4-1.4-1-1.9-1.8c-0.4-0.8-0.6-1.7-0.5-2.5c0,0,0-0.1,0-0.1l0.5-1.6l2-6.3l2.2-7.2l3.6-11.5l1.2-4l6.9-22.1
			c0-0.1,0.1-0.2,0.2-0.3c0.1-0.1,0.2-0.1,0.4,0l0.8,0.2c0.1,0,0.2,0.1,0.3,0.2c0.1,0.1,0.1,0.2,0.1,0.4L121,85.6l-2.3,12.1
			l-1.5,7.8l-1.2,6.1l-0.2,0.9l0,0.2c0,0,0,0.1,0,0.1c-0.2,0.6-0.6,1.1-1,1.5C114.4,114.7,113.9,115.1,113.4,115.3z"/>
		<path class="st10" d="M110.3,110.3c0.1-0.3,0.4-0.6,0.7-0.9c0.3-0.2,0.7-0.3,1-0.3c0.4,0,0.7,0.1,1,0.3c0.3,0.2,0.6,0.5,0.7,0.8
			c0.2,0.3,0.2,0.7,0.1,1.1c-0.1,0.4-0.2,0.7-0.5,1c-0.3,0.3-0.6,0.5-0.9,0.5c-0.4,0.1-0.7,0.1-1.1-0.1c-0.2-0.1-0.4-0.2-0.6-0.4
			c-0.2-0.2-0.3-0.4-0.4-0.6c-0.1-0.2-0.2-0.5-0.2-0.7C110.2,110.7,110.3,110.5,110.3,110.3z"/>
		<path class="st10" d="M64.7,73.4h0.5l1.6,2.1v-2.1h0.5v3h-0.4l-1.7-2.2v2.2h-0.5L64.7,73.4z"/>
		<path class="st10" d="M68,74.9c0-0.3,0.1-0.6,0.3-0.9s0.4-0.5,0.7-0.6c0.3-0.1,0.6-0.2,0.9-0.1c0.3,0.1,0.6,0.2,0.8,0.4
			c0.2,0.2,0.4,0.5,0.4,0.8c0.1,0.3,0,0.6-0.1,0.9c-0.1,0.3-0.3,0.5-0.6,0.7c-0.3,0.2-0.6,0.3-0.9,0.3c-0.2,0-0.4,0-0.6-0.1
			c-0.2-0.1-0.4-0.2-0.5-0.3c-0.1-0.1-0.3-0.3-0.3-0.5C68,75.3,68,75.1,68,74.9z M70.6,74.9c0-0.1,0-0.3-0.1-0.4
			c0-0.1-0.1-0.2-0.2-0.4c-0.1-0.1-0.2-0.2-0.3-0.2c-0.1-0.1-0.3-0.1-0.4-0.1c-0.6,0-1,0.5-1,1.1c0,0.1,0,0.3,0.1,0.4
			c0,0.1,0.1,0.2,0.2,0.4s0.2,0.2,0.3,0.2c0.1,0.1,0.3,0.1,0.4,0.1c0.1,0,0.3,0,0.4-0.1c0.1-0.1,0.2-0.1,0.3-0.2
			c0.1-0.1,0.2-0.2,0.2-0.4C70.6,75.1,70.6,75,70.6,74.9z"/>
		<path class="st10" d="M71.8,73.4h1.3c0.7,0,1.1,0.4,1.1,1c0,0.2-0.1,0.4-0.2,0.6c-0.1,0.2-0.3,0.3-0.5,0.3l0.8,1.2h-0.6L73,75.3
			h-0.7v1.1h-0.5L71.8,73.4z M73.1,74.9c0.4,0,0.6-0.2,0.6-0.5c0-0.3-0.2-0.5-0.6-0.5h-0.8v1H73.1z"/>
		<path class="st10" d="M74.9,73.4h0.6l0.9,1.4l0.9-1.4h0.6v3h-0.5v-2.2l-1,1.4h0l-1-1.4v2.2h-0.5L74.9,73.4z"/>
		<path class="st10" d="M79.8,73.3h0.5l1.3,3.1h-0.6l-0.3-0.7h-1.4L79,76.4h-0.5L79.8,73.3z M80.6,75.2L80,74l-0.5,1.2H80.6z"/>
		<path class="st10" d="M82.1,73.4h0.5v2.6h1.6v0.5h-2.1V73.4z"/>
		<path class="st10" d="M103.1,50.9h2.3v0.5h-1.7v0.8h1.5v0.5h-1.5v0.8h1.7v0.5h-2.3V50.9z"/>
		<path class="st10" d="M106.8,52.4l-1.1-1.5h0.6l0.8,1.1l0.8-1.1h0.6l-1.1,1.5l1.1,1.6H108l-0.8-1.2l-0.8,1.2h-0.6L106.8,52.4z"/>
		<path class="st10" d="M108.8,52.4c0-0.2,0-0.4,0.1-0.6c0.1-0.2,0.2-0.4,0.3-0.5c0.1-0.1,0.3-0.3,0.5-0.3c0.2-0.1,0.4-0.1,0.6-0.1
			c0.2,0,0.4,0,0.6,0.1c0.2,0.1,0.4,0.2,0.5,0.4l-0.3,0.4c-0.1-0.1-0.2-0.2-0.4-0.3c-0.1-0.1-0.3-0.1-0.5-0.1c-0.6,0-1,0.5-1,1.1
			c0,0.6,0.4,1.1,1,1.1c0.4,0,0.6-0.2,0.9-0.4l0.3,0.3c-0.2,0.2-0.3,0.3-0.6,0.4c-0.2,0.1-0.4,0.1-0.7,0.1c-0.2,0-0.4,0-0.6-0.1
			c-0.2-0.1-0.4-0.2-0.5-0.3c-0.1-0.1-0.3-0.3-0.3-0.5C108.8,52.8,108.8,52.6,108.8,52.4z"/>
		<path class="st10" d="M112.1,50.9h2.3v0.5h-1.7v0.8h1.5v0.5h-1.5v0.8h1.7v0.5h-2.3V50.9z"/>
		<path class="st10" d="M114.8,53.5l0.3-0.4c0.3,0.3,0.6,0.4,1,0.4c0.3,0,0.5-0.2,0.5-0.4c0-0.2-0.1-0.3-0.7-0.5
			c-0.6-0.2-1-0.3-1-0.9c0-0.5,0.4-0.9,1-0.9c0.4,0,0.8,0.1,1.1,0.4l-0.3,0.4c-0.2-0.2-0.5-0.3-0.8-0.3c-0.3,0-0.5,0.2-0.5,0.4
			c0,0.2,0.1,0.3,0.7,0.5c0.6,0.2,1,0.4,1,0.9c0,0.6-0.4,0.9-1.1,0.9C115.6,54,115.2,53.8,114.8,53.5z"/>
		<path class="st10" d="M117.6,53.5l0.3-0.4c0.3,0.3,0.6,0.4,1,0.4c0.3,0,0.5-0.2,0.5-0.4c0-0.2-0.1-0.3-0.7-0.5
			c-0.6-0.2-1-0.3-1-0.9c0-0.5,0.4-0.9,1-0.9c0.4,0,0.8,0.1,1.1,0.4l-0.3,0.4c-0.2-0.2-0.5-0.3-0.8-0.3c-0.3,0-0.5,0.2-0.5,0.4
			c0,0.2,0.1,0.3,0.7,0.5c0.6,0.2,1,0.4,1,0.9c0,0.6-0.4,0.9-1.1,0.9C118.3,54,117.9,53.8,117.6,53.5z"/>
		<path class="st10" d="M102.3,56.1h0.6l0.7,2.3l0.7-2.3h0.5l0.7,2.3l0.7-2.3h0.6l-1.1,3.1h-0.5l-0.7-2.2l-0.7,2.2h-0.5L102.3,56.1z
			"/>
		<path class="st10" d="M107.3,56.1h2.2v0.5h-1.7v0.8h1.5v0.5h-1.5v0.8h1.7v0.5h-2.3V56.1z"/>
		<path class="st10" d="M110.3,56.1h0.5v3h-0.5L110.3,56.1z"/>
		<path class="st10" d="M111.5,57.6c0-0.2,0-0.4,0.1-0.6c0.1-0.2,0.2-0.4,0.3-0.5c0.1-0.1,0.3-0.3,0.5-0.3c0.2-0.1,0.4-0.1,0.6-0.1
			c0.4,0,0.8,0.1,1.2,0.4l-0.3,0.4c-0.2-0.2-0.5-0.3-0.8-0.3c-0.6,0-1,0.5-1,1.1c0,0.6,0.4,1.1,1,1.1c0.3,0,0.5-0.1,0.7-0.2v-0.6
			H113v-0.5h1.3v1.3c-0.4,0.3-0.8,0.5-1.3,0.5c-0.2,0-0.4,0-0.6-0.1c-0.2-0.1-0.4-0.2-0.5-0.3s-0.3-0.3-0.3-0.5
			C111.5,58,111.5,57.8,111.5,57.6z"/>
		<path class="st10" d="M115,56.1h0.5v1.3h1.4v-1.3h0.5v3H117v-1.3h-1.4v1.3H115V56.1z"/>
		<path class="st10" d="M119,56.6h-1v-0.5h2.5v0.5h-1v2.5H119V56.6z"/>
		<path class="st10" d="M139.4,74.9c0-0.3,0.1-0.6,0.3-0.9c0.2-0.3,0.4-0.5,0.7-0.6c0.3-0.1,0.6-0.2,0.9-0.1
			c0.3,0.1,0.6,0.2,0.8,0.4c0.2,0.2,0.4,0.5,0.4,0.8c0.1,0.3,0,0.6-0.1,0.9c-0.1,0.3-0.3,0.5-0.6,0.7c-0.3,0.2-0.6,0.3-0.9,0.3
			c-0.2,0-0.4,0-0.6-0.1c-0.2-0.1-0.4-0.2-0.5-0.3c-0.1-0.1-0.3-0.3-0.3-0.5C139.5,75.3,139.4,75.1,139.4,74.9z M142,74.9
			c0-0.1,0-0.3-0.1-0.4c0-0.1-0.1-0.2-0.2-0.4c-0.1-0.1-0.2-0.2-0.3-0.2c-0.1-0.1-0.3-0.1-0.4-0.1c-0.6,0-1,0.5-1,1.1
			c0,0.1,0,0.3,0.1,0.4c0,0.1,0.1,0.2,0.2,0.4c0.1,0.1,0.2,0.2,0.3,0.2c0.1,0.1,0.3,0.1,0.4,0.1c0.1,0,0.3,0,0.4-0.1
			c0.1-0.1,0.2-0.1,0.3-0.2c0.1-0.1,0.2-0.2,0.2-0.4C142,75.1,142.1,75,142,74.9L142,74.9z"/>
		<path class="st10" d="M143.3,73.4h1.4c0.1,0,0.3,0,0.4,0.1c0.1,0,0.3,0.1,0.4,0.2c0.1,0.1,0.1,0.1,0.2,0.2c0,0.1,0.1,0.2,0,0.3
			c0,0.1,0,0.3-0.1,0.4s-0.2,0.2-0.3,0.3c0.4,0.1,0.6,0.3,0.6,0.7c0,0.5-0.4,0.8-1.1,0.8h-1.4L143.3,73.4z M144.5,74.6
			c0.3,0,0.6-0.1,0.6-0.4c0-0.2-0.2-0.4-0.5-0.4h-0.8v0.8H144.5z M144.7,75.9c0.4,0,0.6-0.1,0.6-0.4c0-0.3-0.2-0.4-0.6-0.4h-0.8v0.8
			H144.7z"/>
		<path class="st10" d="M146.4,73.4h2.2v0.5h-1.7v0.8h1.5v0.5h-1.5v0.8h1.7v0.5h-2.3V73.4z"/>
		<path class="st10" d="M149.1,75.9l0.3-0.4c0.3,0.2,0.6,0.4,1,0.4c0.3,0,0.5-0.2,0.5-0.4c0-0.2-0.1-0.3-0.7-0.5
			c-0.6-0.2-1-0.3-1-0.9c0-0.5,0.4-0.9,1-0.9c0.4,0,0.8,0.1,1.1,0.4l-0.3,0.4c-0.2-0.2-0.5-0.3-0.8-0.3c-0.3,0-0.5,0.2-0.5,0.4
			c0,0.2,0.1,0.3,0.7,0.5c0.6,0.2,1,0.4,1,0.9c0,0.6-0.4,0.9-1.1,0.9C149.9,76.4,149.4,76.3,149.1,75.9z"/>
		<path class="st10" d="M152.1,73.4h0.5v3h-0.5V73.4z"/>
		<path class="st10" d="M154.2,73.8h-1v-0.5h2.5v0.5h-1v2.5h-0.5V73.8z"/>
		<path class="st10" d="M157.1,75.2l-1.2-1.8h0.6l0.9,1.3l0.9-1.3h0.6l-1.2,1.8v1.2h-0.5L157.1,75.2z"/>
		<path class="st10" d="M150.7,98.3h2.3v0.5h-1.7v0.8h1.5v0.5h-1.5v0.8h1.7v0.5h-2.3V98.3z"/>
		<path class="st10" d="M154.4,99.8l-1.1-1.5h0.6l0.8,1.1l0.8-1.1h0.6l-1.1,1.5l1.1,1.6h-0.6l-0.8-1.2l-0.8,1.2h-0.6L154.4,99.8z"/>
		<path class="st10" d="M157.5,98.8h-1v-0.5h2.5v0.5h-1v2.5h-0.5L157.5,98.8z"/>
		<path class="st10" d="M159.5,98.3h1.4c0.7,0,1.1,0.4,1.1,1c0,0.2-0.1,0.4-0.2,0.6c-0.1,0.2-0.3,0.3-0.5,0.3l0.8,1.2h-0.6l-0.8-1.1
			h-0.7v1.1h-0.5L159.5,98.3z M160.9,99.8c0.4,0,0.6-0.2,0.6-0.5c0-0.3-0.2-0.5-0.6-0.5h-0.8v1H160.9z"/>
		<path class="st10" d="M162.7,98.3h2.2v0.5h-1.7v0.8h1.5v0.5h-1.5v0.8h1.7v0.5h-2.3L162.7,98.3z"/>
		<path class="st10" d="M165.6,98.3h0.6l0.9,1.4l0.9-1.4h0.6v3H168v-2.2l-1,1.4h0l-0.9-1.4v2.2h-0.5L165.6,98.3z"/>
		<path class="st10" d="M169.4,98.3h2.2v0.5h-1.7v0.8h1.5v0.5h-1.5v0.8h1.7v0.5h-2.3L169.4,98.3z"/>
		<path class="st10" d="M172.3,98.3h0.5v2.6h1.6v0.5h-2.1V98.3z"/>
		<path class="st10" d="M175.3,100.2l-1.2-1.8h0.6l0.8,1.3l0.9-1.3h0.6l-1.2,1.8v1.2h-0.5V100.2z"/>
		<path class="st10" d="M154,105.1c0-0.3,0.1-0.6,0.3-0.9c0.2-0.3,0.4-0.5,0.7-0.6s0.6-0.2,0.9-0.1c0.3,0.1,0.6,0.2,0.8,0.4
			c0.2,0.2,0.4,0.5,0.4,0.8c0.1,0.3,0,0.6-0.1,0.9c-0.1,0.3-0.3,0.5-0.6,0.7c-0.3,0.2-0.6,0.3-0.9,0.3c-0.2,0-0.4,0-0.6-0.1
			c-0.2-0.1-0.4-0.2-0.5-0.3c-0.1-0.1-0.3-0.3-0.3-0.5C154.1,105.5,154,105.3,154,105.1z M156.7,105.1c0-0.1,0-0.3-0.1-0.4
			c0-0.1-0.1-0.3-0.2-0.4c-0.1-0.1-0.2-0.2-0.3-0.2c-0.1-0.1-0.3-0.1-0.4-0.1c-0.6,0-1,0.5-1,1.1c0,0.1,0,0.3,0.1,0.4
			c0.1,0.1,0.1,0.2,0.2,0.3c0.1,0.1,0.2,0.2,0.3,0.2c0.1,0.1,0.3,0.1,0.4,0.1c0.1,0,0.3,0,0.4-0.1c0.1-0.1,0.2-0.1,0.3-0.2
			c0.1-0.1,0.2-0.2,0.2-0.4C156.6,105.3,156.7,105.2,156.7,105.1z"/>
		<path class="st10" d="M157.9,103.5h1.4c0.1,0,0.3,0,0.4,0.1c0.1,0,0.3,0.1,0.4,0.2c0.1,0.1,0.1,0.1,0.2,0.2c0,0.1,0.1,0.2,0,0.3
			c0,0.1,0,0.3-0.1,0.4c-0.1,0.1-0.2,0.2-0.3,0.3c0.4,0.1,0.6,0.3,0.6,0.7c0,0.5-0.4,0.8-1.1,0.8h-1.4L157.9,103.5z M159.1,104.8
			c0.3,0,0.6-0.1,0.6-0.4c0-0.2-0.2-0.4-0.5-0.4h-0.8v0.8H159.1z M159.3,106.1c0.4,0,0.6-0.1,0.6-0.4c0-0.3-0.2-0.4-0.6-0.4h-0.8
			v0.8H159.3z"/>
		<path class="st10" d="M161,103.5h2.3v0.5h-1.7v0.8h1.5v0.5h-1.5v0.8h1.7v0.5H161L161,103.5z"/>
		<path class="st10" d="M163.7,106.1l0.3-0.4c0.3,0.2,0.6,0.4,1,0.4c0.3,0,0.5-0.2,0.5-0.4c0-0.2-0.1-0.3-0.7-0.5
			c-0.6-0.2-1-0.3-1-0.9c0-0.5,0.4-0.9,1-0.9c0.4,0,0.8,0.1,1.1,0.4l-0.3,0.4c-0.2-0.2-0.5-0.3-0.8-0.3c-0.3,0-0.5,0.2-0.5,0.4
			c0,0.2,0.1,0.3,0.7,0.5c0.6,0.2,1,0.4,1,0.9c0,0.6-0.4,0.9-1.1,0.9C164.5,106.6,164,106.5,163.7,106.1z"/>
		<path class="st10" d="M166.7,103.5h0.5v3h-0.5L166.7,103.5z"/>
		<path class="st10" d="M168.8,104h-1v-0.5h2.5v0.5h-1v2.5h-0.5V104z"/>
		<path class="st10" d="M171.8,105.4l-1.2-1.8h0.6l0.8,1.3l0.9-1.3h0.6l-1.2,1.8v1.2h-0.5V105.4z"/>
		<path class="st11" d="M167.5,126.5c0,0,0.7,7.6-0.2,8l-11,0c0,0,0-1.3,1.8-1.6c1.8-0.3,4.9-1.3,5.4-3.6
			C164.1,127,167.5,126.5,167.5,126.5z"/>
		<path class="st11" d="M169,106.9c-0.4,11.1-1.2,21.5-1.2,21.5s-0.5,0.6-2.2,1c-0.7,0.2-1.4,0.2-2-0.2c0,0-0.8-6.2-1-7.7
			c-0.3-1.6-10.7-32.7-9.3-44.2c0.9-8.1,5.3-13.3,5.3-13.3h8.6c0,0,0,6,0.7,14c0.2,2.3,0.5,4.7,0.8,7.2
			C169.3,90.2,169.3,98.7,169,106.9z"/>
		<path class="st12" d="M169,106.9c-1.9-4.8-7.2-18.2-7.8-20.6c-0.5-1.7-1.3-3.2-2.6-4.5l9.3-3.7c0.2,2.3,0.5,4.7,0.8,7.2
			C169.3,90.2,169.3,98.7,169,106.9z"/>
		<path class="st13" d="M165.5,22.7c-2.3-0.6-3.8,0.5-3.8,0.5c-6.5,0.8-6.6,8.6-5.9,11.1s1.6,5.2-0.4,9.1
			c-5.9,11.4,11.3,7.8,11.3,7.8c-1.7-7.6,8.1-7,7.9-6.2C186.9,45,170.8,24,165.5,22.7z"/>
		<path class="st11" d="M152.2,73.8c0,0,1.1,2.5,1.1,3.2c0,0.7-0.3,1.8-0.5,1.9c-0.2,0.1-0.4-1.3-0.5-1.2c-0.1,0.1,0.3,2.3-0.1,2.6
			c-0.4,0.2-1.8-1.9-2-2.9c-0.2-1,0-2.6,0-2.6L152.2,73.8z"/>
		<path class="st11" d="M163.4,51.5c0,0-1.6,1.8-3.1,4.8c-0.7,1.4-1.2,2.8-1.6,4.3c-1,3.9-4.9,11.3-6.3,13.8
			c-0.3,0.5-0.5,0.8-0.5,0.8l-1.8-0.3c0,0,1.1-10,1.9-12.9c0.8-3,1.1-12.3,2.3-15.3c1.6-3.9,5-4.5,5-4.5L163.4,51.5z"/>
		<path class="st12" d="M160.3,56.3c-0.7,1.4-1.2,2.8-1.6,4.3c-1,3.9-2.9,9.2-6.3,13.8c0,0,0.6-6.2,1.7-8.1
			c1.1-1.9,1.3-13.9,1.3-13.9L160.3,56.3z"/>
		<path class="st11" d="M184.1,125.8c0,0,2,1.8,1.6,3.1c-0.4,1.3-2.2,2.1-2.4,3.7c-0.2,1.6-1.2,2.4-2.1,2.4h-4.1
			c0,0-0.6-1.1,0.9-1.4c1.5-0.3,2.1-2.2,2-3.9c-0.1-1.7,0.1-4,0.1-4l3.3-0.8L184.1,125.8z"/>
		<path class="st11" d="M172,63.9c0,0,6.9,3.1,8.5,11.5c1.7,9.1-2.5,19.3-1.6,23.6c1,4.3,4.5,12.5,4.5,25.9c0,0-0.4,0.8-1.5,1.2
			c-0.4,0.1-1.4,0.5-1.8,0.6c-0.3-1-0.6-2-1.1-3c-2.8-5.9-10.8-18.7-11.2-21.9c-0.3-2.3-2.7-17.4-7.9-26.3
			c-1.3-2.1,0.8-10.6,0.8-10.6L172,63.9z"/>
		<path class="st11" d="M175.4,72c-2.3-5.1-3.7-6.6-3.4-8.1c0.2-1.2-0.6-21.9-0.6-21.9c-0.3-0.1-0.8-0.2-1.1-0.2
			c-0.9-0.2-1.6-0.9-2-1.8c-0.6-1.1-1.2-3.2-1.2-5.2l-2.2,0.1l-3.1,1c0,0,0.8,1.9,0.8,3.4v0c0,0.6-0.2,1.2-0.6,1.7
			c-0.4,0.5-0.9,0.8-1.5,1c-0.6,0.2-1.2,0.3-1.2,0.3s-1.8,5.1-2.1,10.4c-0.3,5.3,3.3,7.6,0,18.1C153.8,81.6,176.6,74.9,175.4,72z"/>
		<path class="st12" d="M161.8,36.4c0,0,0.7,1.5,0.7,3c2.7-0.4,3.9-2.6,4.5-4L161.8,36.4z"/>
		<path class="st11" d="M174.5,51.1c0,0,1.1,10.5,2,13.2c1.1,3.5,0,5.3,0,5.3l-11,2.7l-9.6-1.4c0,0-0.5-2.2-0.3-4
			c0.2-1.8,1.2-3.3,1.2-6c0-5.1-2.6-5.9-1.7-10.2c1-4.6,4.2-8.4,4.2-8.4s5.2,5.1,12.1-0.4L174.5,51.1z"/>
		<path class="st11" d="M161.9,38.5c0,0,6.3-1.4,5.4-5.3c-0.9-3.9-0.7-6.8-4.8-6c-4.1,0.7-4.5,2.4-4.5,3.8
			C158,32.3,160.2,38.8,161.9,38.5z"/>
		<path class="st13" d="M159.6,27.7c0,0,2.8,4.2,5.6,4.2C168,32,169,31,169,31c-1.6-0.8-2.8-2.2-3.5-3.8
			C165.5,27.2,160.4,25.2,159.6,27.7z"/>
		<path class="st13" d="M160.1,28c0,0-1.2,0.8-1.5,1.8c-0.4,1.2-0.4,2.6,0,3.8c0,0-2-2.8-1-4.9C158.7,26.5,160.1,28,160.1,28z"/>
		<path class="st9" d="M180.9,80.8c0,0-5.4-1.3-11.1-0.5c-2.3,0.3-4.6,1-6.7,2.1c0,0-6.2-1.2-10.1-0.7c0,0-1.3-5.1,2.2-12.5
			c0,0,7.5,0.5,17.1-0.8c1.5-0.2,3-0.5,4.5-0.8C177,67.6,182,72.9,180.9,80.8z"/>
		<path class="st9" d="M175.6,60.1c-1.1,0.3-2.1,0.5-3.1,0.8c-13.1,3-16.7,1-16.7,1s-1-5.6-0.4-9.2c0.6-3.6,3.9-10.4,3.9-10.4
			l1.3-0.2c0,0-0.9,3.9-1.1,5.3c-0.2,2,1.8,2.5,4.5,2c4.4-0.8,5.5-7.8,5.5-7.8c0.6,0,1.3,0.1,1.9,0.3c-0.6,3.9,0.1,7.5,1,10.2
			c1.2,3.3,2.7,5.4,2.7,5.4L175.6,60.1z"/>
		<path class="st14" d="M180.9,80.8c0,0-5.4-1.3-11.1-0.5c4.6-5,2.6-11.9,2.6-11.9c1.5-0.2,3-0.5,4.5-0.8
			C177,67.6,182,72.9,180.9,80.8z"/>
		<path class="st12" d="M162.4,65.2c0,0.3-0.1,0.5-0.3,0.5c-0.2,0-0.3-0.2-0.3-0.5c0-0.3,0.1-0.5,0.3-0.5
			C162.2,64.7,162.4,64.9,162.4,65.2z"/>
		<path class="st11" d="M171.5,41.8c0,0,2.9,0.8,4,2.6c1.1,1.8,7.2,11.2,8,15.9c0.8,4.7-4.9,16.1-4.9,16.1l-1.6-1.1
			c0,0,0.7-13.1,0-14.4c-0.8-1.6-1.7-3.4-1.7-3.4s-3.5-7.9-3.6-8.3C170.7,44.8,171.5,41.8,171.5,41.8z"/>
		<path class="st11" d="M177,74.4c0,0-1,0.3-1.6,0.6c-0.6,0.3-1.8,1.6-1.5,1.9c0.3,0.2,1.1-0.6,1.5-0.6s-2,2.2-1.8,2.7
			c0.2,0.5,2.9,0.2,3.8-0.5c0.9-0.8,1.4-3.4,1.4-3.4L177,74.4z"/>
		<path class="st14" d="M175.6,60.1c-1.1,0.3-2.1,0.5-3.1,0.8c-1.5-2.8,0.1-8.4-0.1-8.9c1.2,3.3,2.7,5.4,2.7,5.4L175.6,60.1z"/>
		<path class="st9" d="M202.7,134.5h-69.4v2.5h69.4V134.5z"/>
		<path class="st14" d="M138.1,137.1h-2.2v1.6h2.2V137.1z"/>
		<path class="st14" d="M197.7,137.1h-2.2v1.6h2.2V137.1z"/>
		<path class="st14" d="M150.4,96.7H131c-0.2,0-0.4-0.1-0.6-0.2c-0.2-0.1-0.3-0.3-0.4-0.5l-1.8-4.2c0-0.1-0.1-0.2-0.1-0.3
			c0-0.1,0-0.2,0.1-0.3c0.1-0.1,0.2-0.2,0.3-0.2c0.1-0.1,0.2-0.1,0.3-0.1h19.7l2.2,5.1c0,0.1,0,0.2,0,0.2c0,0.1,0,0.2-0.1,0.2
			c0,0.1-0.1,0.1-0.2,0.2C150.6,96.7,150.5,96.7,150.4,96.7z"/>
		<path class="st9" d="M150.6,96.7h-18.4c-0.3,0-0.6-0.1-0.8-0.2c-0.2-0.2-0.4-0.4-0.5-0.6l-1.8-4.3c0-0.1,0-0.1,0-0.2
			c0-0.1,0-0.1,0.1-0.2c0-0.1,0.1-0.1,0.2-0.1c0.1,0,0.1-0.1,0.2-0.1h19.2c0.3,0,0.5,0.1,0.8,0.2c0.2,0.2,0.4,0.4,0.5,0.6l1.5,3.6
			c0.1,0.2,0.1,0.3,0.1,0.5c0,0.2-0.1,0.3-0.2,0.5c-0.1,0.1-0.2,0.2-0.4,0.3C150.9,96.7,150.7,96.7,150.6,96.7z"/>
		<path class="st10" d="M150,94.9h-18.2l-1.4-3.3h18.2L150,94.9z"/>
		<path class="st9" d="M141.1,95.7h-1.8v39.2h1.8V95.7z"/>
		<path class="st10" d="M43.7,101.2v-1.6h0.6v1.6c0,0.5,0.2,0.7,0.6,0.7s0.6-0.2,0.6-0.7v-1.6h0.6v1.6c0,0.9-0.5,1.3-1.2,1.3
			C44.2,102.5,43.7,102,43.7,101.2z"/>
		<path class="st10" d="M46.8,99.6h0.6l1.3,1.7v-1.7h0.6v2.8h-0.5l-1.4-1.8v1.8h-0.6V99.6z"/>
		<path class="st10" d="M50,99.6h1.1c0.9,0,1.5,0.6,1.5,1.4c0,0.8-0.6,1.4-1.5,1.4H50V99.6z M51.1,101.9c0.2,0,0.4-0.1,0.6-0.2
			c0.2-0.2,0.2-0.4,0.2-0.6c0-0.2-0.1-0.4-0.2-0.6c-0.2-0.2-0.4-0.2-0.6-0.2h-0.5v1.7H51.1z"/>
		<path class="st10" d="M53.1,99.6h2.1v0.6h-1.5v0.6h1.3v0.6h-1.3v0.6h1.5v0.6h-2.1V99.6z"/>
		<path class="st10" d="M55.8,99.6h1.3c0.1,0,0.3,0,0.4,0.1c0.1,0,0.3,0.1,0.4,0.2c0.1,0.1,0.1,0.2,0.2,0.3c0,0.1,0.1,0.2,0.1,0.3
			c0,0.2,0,0.4-0.2,0.5c-0.1,0.2-0.3,0.3-0.4,0.3l0.7,1h-0.7l-0.6-0.9h-0.5v0.9h-0.6L55.8,99.6z M57.1,101c0.3,0,0.5-0.2,0.5-0.4
			c0-0.3-0.2-0.4-0.5-0.4h-0.6v0.8H57.1z"/>
		<path class="st10" d="M58.4,99.6h0.7l0.6,1.9l0.6-1.9h0.5l0.6,1.9l0.6-1.9h0.6l-1,2.8h-0.5l-0.6-1.8l-0.6,1.8h-0.5L58.4,99.6z"/>
		<path class="st10" d="M63.2,99.6h2.1v0.6h-1.5v0.6h1.3v0.6h-1.3v0.6h1.5v0.6h-2.1V99.6z"/>
		<path class="st10" d="M65.9,99.6h0.6v2.8h-0.6V99.6z"/>
		<path class="st10" d="M67.1,101c0-0.2,0-0.4,0.1-0.6c0.1-0.2,0.2-0.3,0.3-0.5c0.1-0.1,0.3-0.2,0.5-0.3c0.2-0.1,0.4-0.1,0.6-0.1
			c0.4,0,0.8,0.1,1.1,0.4l-0.4,0.5c-0.2-0.2-0.5-0.3-0.7-0.3c-0.2,0-0.4,0.1-0.6,0.3c-0.1,0.2-0.2,0.4-0.2,0.6
			c0,0.2,0.1,0.4,0.3,0.6c0.2,0.2,0.4,0.3,0.6,0.3c0.2,0,0.4-0.1,0.6-0.2v-0.4h-0.6v-0.5h1.2v1.2c-0.3,0.3-0.8,0.4-1.2,0.4
			C67.7,102.5,67.1,101.8,67.1,101z"/>
		<path class="st10" d="M70.4,99.6H71v1.1h1.1v-1.1h0.6v2.8h-0.6v-1.1H71v1.1h-0.6V99.6z"/>
		<path class="st10" d="M74.1,100.2h-0.9v-0.6h2.3v0.6h-0.9v2.2h-0.6V100.2z"/>
		<path class="st15" d="M214.7,138.7H1.3c-0.2,0-0.3,0.2-0.3,0.3v0.2c0,0.2,0.2,0.3,0.3,0.3h213.3c0.2,0,0.3-0.2,0.3-0.3V139
			C215,138.8,214.8,138.7,214.7,138.7z"/>
	</g>
</g>
</svg>
