<svg width="214" height="139" viewBox="0 0 214 139" fill="none" xmlns="http://www.w3.org/2000/svg">
<g clip-path="url(#clip0_409_577)">
<g style="mix-blend-mode:hard-light" opacity="0.5">
<path d="M180.851 24.4216C164.388 11.9554 141.824 12.6607 122.169 12.8697C102.744 13.0735 83.5172 15.6284 64.5205 19.5103C52.6847 21.9242 38.4045 26.2607 29.5512 35.0748C21.1941 43.3926 22.5626 63.3667 21.6172 74.3595C19.4131 100.007 19.3712 125.795 21.4919 151.45C22.6148 165.035 21.2411 181.848 31.5517 192.475C42.4316 203.687 60.4516 202.997 74.8258 203.698C92.5858 204.557 110.387 203.919 128.04 201.791C146.624 199.549 172.902 199.439 182.883 181.158C188.472 170.923 190.237 159.078 192.771 147.845C197.435 127.176 200.12 106.1 201.65 84.9814C203.394 61.5851 201.096 39.7405 180.851 24.4216Z" fill="#727272"/>
</g>
<path d="M203.541 54.2954C202.282 51.1606 198.678 49.9955 195.805 48.7415C192.63 47.3139 189.319 46.2094 185.923 45.4447C179.906 44.1594 172.489 44.3005 169.209 50.4552C167.391 53.8774 166.947 58.2087 167.198 61.819C167.527 66.5213 171.288 67.4252 175.148 68.7731C178.084 69.8052 181.075 70.6773 184.106 71.3855L179.582 75.1473L190.399 72.6029C192.823 73.1253 195.508 73.7993 197.754 72.8066C200 71.8139 201.483 69.4889 202.22 67.3207C203.395 63.8358 204.988 57.89 203.541 54.2954Z" fill="#7B85E8"/>
<path d="M183.546 60.8005L183.792 60.2205C184.346 58.9335 185.386 57.9176 186.686 57.394C187.777 56.8715 188.67 56.4587 189.02 55.7168C189.37 54.9749 189.114 54.2121 188.038 53.6583C187.265 53.3081 186.409 53.1831 185.568 53.2978L185.944 50.5652C187.347 50.4881 188.747 50.7686 190.013 51.3803C192.896 52.7335 193.46 54.9436 192.624 56.7565C191.846 58.418 190.305 59.0293 189.046 59.557C188.52 59.7465 188.037 60.0397 187.626 60.4193C187.215 60.799 186.885 61.2573 186.654 61.767L186.466 62.1641L183.546 60.8005ZM181.562 63.5487C181.749 63.1648 182.045 62.8448 182.413 62.6291C182.782 62.4134 183.206 62.3117 183.632 62.3366C184.058 62.3616 184.467 62.5122 184.808 62.7695C185.149 63.0267 185.406 63.3791 185.547 63.7822C185.688 64.1854 185.706 64.6212 185.6 65.0347C185.494 65.4483 185.267 65.8212 184.949 66.1063C184.632 66.3914 184.236 66.576 183.814 66.6369C183.391 66.6978 182.96 66.6322 182.575 66.4484C182.309 66.3352 182.069 66.1679 181.871 65.9572C181.673 65.7466 181.521 65.497 181.424 65.2245C181.327 64.9519 181.288 64.6623 181.309 64.3738C181.33 64.0853 181.411 63.8044 181.546 63.5487H181.562Z" fill="white"/>
<path d="M114.956 1.88655C107.33 -0.297388 94.9613 1.88655 93.0183 8.67869C91.3573 14.4938 97.223 20.6015 103.752 23.5796L106.766 33.6268L108.646 25.1575C116.267 26.5734 126.927 24.0237 128.719 17.7488C130.651 10.988 122.576 4.06526 114.956 1.88655Z" fill="#E2817F"/>
<path d="M107.873 15.4547L107.92 14.8278C108.042 13.4308 108.708 12.1378 109.774 11.2279C110.646 10.4076 111.341 9.71275 111.456 8.89769C111.571 8.08263 111.07 7.44522 109.889 7.25713C109.046 7.17043 108.195 7.3225 107.434 7.696L106.912 4.9896C108.219 4.46882 109.637 4.28903 111.033 4.46712C114.198 4.83808 115.431 6.75555 115.212 8.74617C114.997 10.5696 113.733 11.6354 112.704 12.5341C112.264 12.88 111.898 13.3115 111.629 13.8027C111.359 14.2939 111.192 14.8345 111.137 15.392L111.085 15.8205L107.873 15.4547ZM106.865 18.6888C106.924 18.2677 107.105 17.8733 107.387 17.5552C107.669 17.237 108.039 17.0094 108.45 16.9007C108.861 16.792 109.295 16.8073 109.697 16.9444C110.1 17.0816 110.453 17.3346 110.712 17.6718C110.971 18.0089 111.124 18.415 111.153 18.8392C111.183 19.2634 111.086 19.6868 110.875 20.0561C110.664 20.4254 110.349 20.7243 109.97 20.9151C109.59 21.106 109.162 21.1803 108.74 21.1288C108.452 21.1034 108.172 21.0185 107.919 20.8794C107.665 20.7403 107.443 20.55 107.267 20.3207C107.091 20.0913 106.964 19.8278 106.895 19.5469C106.825 19.266 106.815 18.9738 106.865 18.6888Z" fill="white"/>
<path d="M37.6943 46.536C35.7095 39.7438 29.1021 37.795 22.3068 39.7804C15.5114 41.7658 10.1785 47.6175 12.1634 54.4096C13.7303 59.7754 19.3922 63.0722 25.0542 63.2499L32.68 68.3649L29.6506 62.6595C36.3467 60.6323 39.6634 53.2863 37.6943 46.536Z" fill="#FFB552"/>
<path d="M25.5351 54.1279L25.3575 53.6577C24.97 52.5961 25.0169 51.4245 25.4881 50.3974C25.8485 49.4988 26.1305 48.7516 25.9268 48.1247C25.7231 47.4977 25.1486 47.1894 24.2136 47.4611C23.5681 47.6847 22.9981 48.0847 22.5683 48.6158L21.2729 46.8133C22.0532 45.9911 23.029 45.38 24.1091 45.0369C26.5431 44.2322 28.0944 45.2145 28.6011 46.7453C29.0659 48.1508 28.5018 49.3577 28.0788 50.3661C27.8747 50.7671 27.7538 51.2052 27.7233 51.6541C27.6927 52.103 27.7533 52.5535 27.9012 52.9784L28.0109 53.3128L25.5351 54.1279ZM25.8955 56.8343C25.7938 56.5066 25.7913 56.1562 25.8882 55.827C25.9852 55.4979 26.1772 55.2048 26.4402 54.9846C26.7033 54.7643 27.0255 54.6268 27.3665 54.5893C27.7074 54.5518 28.0518 54.6159 28.3564 54.7737C28.661 54.9315 28.9122 55.1758 29.0783 55.476C29.2445 55.7762 29.3182 56.1188 29.2902 56.4607C29.2622 56.8027 29.1337 57.1287 28.9209 57.3979C28.7082 57.667 28.4206 57.8672 28.0944 57.9733C27.8757 58.053 27.6429 58.0865 27.4106 58.0716C27.1783 58.0567 26.9517 57.9937 26.745 57.8866C26.5383 57.7796 26.3561 57.6308 26.2098 57.4496C26.0636 57.2685 25.9566 57.059 25.8955 56.8343Z" fill="white"/>
<path d="M158.032 29.6613C157.687 27.3677 155.859 25.1942 153.373 25.2726C150.604 25.3614 149.131 27.8849 148.228 30.1472C147.528 31.9027 150.124 33.3657 150.839 31.5945C151.189 30.7063 151.571 29.3792 152.37 28.7784C153.848 27.6759 155.133 29.0291 155.148 30.6384C155.148 32.6185 153.89 34.5047 152.281 35.5548C149.497 37.3678 146.373 37.326 144.446 40.3668C143.402 41.9865 146.013 43.4233 147.058 41.814C148.818 39.0449 153.216 39.1285 155.535 36.7408C157.274 34.9226 158.418 32.2162 158.032 29.6613Z" fill="white"/>
<path d="M142.738 44.436C140.879 43.9814 140.173 46.8759 142.033 47.3305C143.892 47.785 144.603 44.8905 142.738 44.436Z" fill="white"/>
<path d="M56.0071 63.3855C54.2208 63.0407 52.1001 64.0647 51.0398 65.512C49.7654 67.2518 50.5175 69.0387 51.7763 70.5382C52.7426 71.6824 54.6908 70.3658 53.7193 69.2059C52.5911 67.8683 52.7321 66.1285 54.7065 65.7523C57.5166 65.2299 56.8846 68.6886 56.5294 70.1829C55.9705 72.5131 55.5474 74.8068 57.1405 76.834C58.0702 78.0148 60.0185 76.6929 59.0783 75.5017C57.2606 73.1923 59.4074 70.115 59.235 67.5078C59.1044 65.6217 57.9553 63.7617 56.0071 63.3855Z" fill="white"/>
<path d="M59.5635 77.8595C58.1324 78.3559 58.895 80.5816 60.3314 80.0852C61.7677 79.5889 60.9947 77.3684 59.5635 77.8595Z" fill="white"/>
<path d="M160.079 72.8796C159.034 69.9537 153.973 69.7813 154.307 73.449C154.396 74.4522 155.968 74.3947 155.874 73.3811C155.696 71.4114 158.23 72.2265 158.632 73.5117C159.065 74.8858 158.057 75.8472 156.882 76.2704C155.425 76.7929 153.931 76.9705 152.918 78.2715C152.301 79.0656 153.44 80.1524 154.067 79.353C155.247 77.8274 157.519 78.1147 158.966 76.9235C159.544 76.445 159.96 75.8003 160.159 75.0769C160.358 74.3535 160.33 73.5864 160.079 72.8796Z" fill="white"/>
<path d="M152.532 80.1001C152.333 80.0662 152.129 80.1098 151.961 80.2218C151.793 80.3339 151.675 80.5059 151.63 80.7025C151.585 80.8992 151.617 81.1055 151.72 81.2791C151.823 81.4528 151.988 81.5805 152.182 81.6361C152.38 81.67 152.584 81.6264 152.752 81.5144C152.92 81.4024 153.038 81.2304 153.083 81.0337C153.128 80.8371 153.096 80.6307 152.993 80.4571C152.89 80.2834 152.725 80.1557 152.532 80.1001Z" fill="white"/>
<path d="M72.5853 30.8787C72.4398 30.3093 72.1407 29.7908 71.7206 29.3799C71.3006 28.969 70.7758 28.6814 70.2035 28.5484C69.6378 28.4268 69.0475 28.5038 68.5319 28.7664C68.0163 29.029 67.6069 29.4613 67.3726 29.9905C66.7249 31.422 67.2524 32.8745 67.8688 34.212C67.9692 34.3846 68.134 34.5101 68.327 34.5611C68.52 34.612 68.7253 34.5842 68.8977 34.4837C69.0702 34.3833 69.1957 34.2184 69.2466 34.0254C69.2976 33.8323 69.2698 33.627 69.1693 33.4545C68.7567 32.561 68.1821 31.2758 68.8821 30.3667C69.4879 29.5829 70.5796 30.1472 70.9713 30.8526C71.5511 31.9288 71.1698 33.2559 70.8094 34.3322C70.3654 35.675 69.8327 37.0282 69.9946 38.4702C70.0011 38.6677 70.0824 38.8553 70.2221 38.995C70.3618 39.1347 70.5493 39.216 70.7467 39.2226C70.9458 39.2212 71.1363 39.1415 71.2771 39.0007C71.4178 38.8599 71.4975 38.6693 71.4989 38.4702C71.3474 37.1379 71.8749 35.9101 72.2823 34.6666C72.7644 33.4638 72.87 32.1429 72.5853 30.8787Z" fill="white"/>
<path d="M71.0964 40.6914C70.8969 40.6914 70.7056 40.7707 70.5645 40.9118C70.4235 41.0529 70.3442 41.2442 70.3442 41.4438C70.3442 41.6433 70.4235 41.8347 70.5645 41.9758C70.7056 42.1169 70.8969 42.1961 71.0964 42.1961C71.2959 42.1961 71.4872 42.1169 71.6282 41.9758C71.7693 41.8347 71.8485 41.6433 71.8485 41.4438C71.8485 41.2442 71.7693 41.0529 71.6282 40.9118C71.4872 40.7707 71.2959 40.6914 71.0964 40.6914Z" fill="white"/>
<mask id="mask0_409_577" style="mask-type:luminance" maskUnits="userSpaceOnUse" x="-23" y="-23" width="262" height="262">
<path d="M238.39 -22.2363H-22.769V239H238.39V-22.2363Z" fill="white"/>
</mask>
<g mask="url(#mask0_409_577)">
<path d="M131.315 75.7058C130.27 74.5303 129.126 73.4331 128.181 72.1844C127.176 70.9067 126.463 69.4248 126.092 67.8426C125.329 64.6242 125.668 61.2699 125.214 58.0097C124.818 55.2403 123.8 52.5966 122.237 50.2771C120.737 47.9955 118.768 46.061 116.46 44.603C114.152 43.145 111.559 42.1974 108.855 41.8235C106.094 41.5124 103.299 41.7917 100.654 42.6429C98.0096 43.4941 95.5759 44.8977 93.5145 46.7608C93.1594 47.0796 92.8407 47.4296 92.5169 47.7744C92.4243 47.8192 92.3504 47.895 92.308 47.9887C91.9685 48.3648 91.6446 48.7515 91.3312 49.1538C90.198 48.5675 88.9174 48.3277 87.6489 48.4641C84.6717 48.8507 81.8094 51.0765 80.1327 53.7254C77.5682 57.785 77.4846 63.2501 78.9471 67.7747C79.7201 70.1728 81.0363 72.5135 81.1042 75.1154C81.1617 77.6129 79.8455 79.7184 78.3255 81.4583C75.5625 84.6349 71.2481 87.6182 71.4309 92.5608C71.6242 97.8796 76.2885 100.889 80.3417 102.592C82.6876 103.577 85.1424 104.278 87.6541 104.682C89.9941 105.058 92.5065 105.361 94.8308 104.729C99.2026 103.533 100.931 98.6528 101.997 94.3895C102.279 93.2609 102.519 92.1167 102.707 90.9673C104.964 96.8764 107.408 102.885 111.895 107.488C113.895 109.64 116.356 111.311 119.092 112.378C121.417 113.209 124.196 113.423 126.468 112.315C129.048 111.041 129.951 108.23 129.602 105.523C129.178 102.389 127.423 99.6821 126.64 96.6413C126.259 95.1575 126.092 93.5378 126.64 92.0749C127.162 90.7687 128.207 89.8596 129.356 89.0864C131.414 87.6705 133.869 86.3538 134.386 83.6683C134.971 80.6902 133.206 77.8584 131.315 75.7058Z" fill="#162A45"/>
<path d="M54.497 162.687L39.7729 116.333C39.4321 115.295 39.5016 114.167 39.9672 113.179C40.4328 112.192 41.259 111.42 42.2759 111.023C43.2929 110.627 44.4231 110.635 45.4343 111.046C46.4455 111.457 47.2606 112.24 47.7121 113.235L68.2445 157.321C69.0756 159.099 69.1667 161.134 68.4977 162.979C67.8287 164.824 66.4543 166.327 64.677 167.159C62.8997 167.99 60.865 168.081 59.0206 167.412C57.1761 166.743 55.6729 165.368 54.8418 163.59C54.7095 163.296 54.5944 162.994 54.497 162.687Z" fill="#EFAD9C"/>
<path d="M62.8906 167.865C61.6841 167.862 60.4968 167.564 59.4322 166.996C58.3676 166.428 57.4582 165.608 56.7832 164.608C56.1083 163.608 55.6885 162.457 55.5604 161.257C55.4322 160.058 55.5997 158.844 56.0482 157.724L77.9333 103.34C78.7073 101.588 80.1317 100.205 81.9057 99.4844C83.6797 98.7634 85.6644 98.7603 87.4407 99.4758C89.2169 100.191 90.6457 101.569 91.4251 103.319C92.2046 105.068 92.2738 107.052 91.6181 108.852L69.7382 163.241C69.188 164.607 68.242 165.778 67.0218 166.602C65.8015 167.426 64.3628 167.866 62.8906 167.865Z" fill="#EFAD9C"/>
<path d="M46.8347 109.666C46.8347 109.666 46.9339 94.6812 45.6699 93.8766C44.4059 93.072 42.1234 103.187 42.1234 103.187C42.1234 103.187 20.0606 95.5276 19.2876 96.7659C18.5146 98.0042 27.9685 101.803 27.9685 101.803C27.9685 101.803 16.7021 99.0543 16.1485 100.434C15.6262 101.688 27.1172 105.251 27.1172 105.251C27.1172 105.251 14.9158 103.683 15.1926 104.922C15.4695 106.16 26.3285 108.448 26.3285 108.448C26.3285 108.448 16.2895 108.448 16.5454 109.248C16.8014 110.047 26.7359 112.001 26.7359 112.001C31.6718 112.994 33.4372 114.436 38.3522 116.703C47.1742 120.774 48.5792 117.336 46.8347 109.666Z" fill="#EFAD9C"/>
<path d="M132.307 156.01L152.996 115.696C153.489 114.73 154.33 113.988 155.35 113.62C156.369 113.251 157.491 113.284 158.487 113.712C159.483 114.14 160.28 114.93 160.715 115.924C161.15 116.917 161.191 118.038 160.831 119.061L145.866 161.831C145.574 162.781 145.093 163.662 144.452 164.422C143.812 165.182 143.025 165.805 142.138 166.254C141.252 166.702 140.284 166.968 139.292 167.034C138.301 167.101 137.306 166.967 136.368 166.64C135.429 166.314 134.566 165.801 133.83 165.133C133.094 164.466 132.5 163.657 132.083 162.754C131.667 161.852 131.436 160.875 131.405 159.881C131.375 158.888 131.545 157.898 131.905 156.972C132.017 156.643 132.152 156.322 132.307 156.01Z" fill="#EFAD9C"/>
<path d="M137.457 166.778C135.751 166.775 134.099 166.182 132.781 165.099C131.463 164.016 130.561 162.51 130.228 160.837L119.395 106.421C119.055 104.519 119.475 102.559 120.563 100.962C121.652 99.3659 123.323 98.2601 125.218 97.8825C127.113 97.5049 129.08 97.8857 130.698 98.943C132.315 100 133.453 101.65 133.868 103.537L144.701 157.953C145.082 159.873 144.686 161.865 143.598 163.493C142.511 165.12 140.823 166.249 138.903 166.631C138.427 166.728 137.943 166.777 137.457 166.778Z" fill="#EFAD9C"/>
<path d="M155.127 109.897C155.127 109.897 158.068 94.9175 159.494 94.1076C160.92 93.2978 161.15 103.423 161.15 103.423C161.15 103.423 184.748 95.8109 185.286 97.0544C185.824 98.2979 175.581 102.07 175.581 102.07C175.581 102.07 187.406 99.3428 187.678 100.722C187.929 101.976 175.754 105.524 175.754 105.524C175.754 105.524 188.289 103.956 187.767 105.21C187.245 106.464 175.921 108.721 175.921 108.721C175.921 108.721 185.965 108.721 185.542 109.536C185.119 110.351 174.792 112.269 174.792 112.269C169.658 113.251 167.6 114.688 162.226 116.945C152.526 120.999 151.821 117.561 155.127 109.897Z" fill="#EFAD9C"/>
<path d="M96.397 50.6221C96.397 50.6221 93.1639 59.572 97.6976 66.7717C97.6976 66.7717 98.3453 53.7674 101.709 51.6513L96.397 50.6221Z" fill="#162A45"/>
<path d="M162.716 124.521L150.034 163.241C146.54 173.905 131.2 173.079 128.865 162.102L128.301 159.432C129.612 175.08 132.411 191.538 136.266 208.545C132.411 209.046 128.654 209.475 124.994 209.83L122.613 205.128L120.628 210.201C96.9459 212.108 77.829 210.394 64.63 202.176C68.0286 189.57 70.8404 176.674 73.0655 163.487L71.6656 167.536C68.8399 175.697 57.2653 175.592 54.5911 167.374L41.6846 127.713L54.7425 119.473L61.9662 133.277L67.1006 121.391L74.1989 102.112C76.4135 96.5839 83.6006 94.2746 89.2573 97.1534C98.727 102.007 109.205 100.811 120.388 95.2412C126.77 92.0645 134.704 95.6435 135.754 102.153L142.544 124.521L143.84 129.536L149.073 119.985L162.716 124.521Z" fill="#E2817F"/>
<path d="M149.522 120.142C149.522 120.142 150.442 117.258 151.335 117.53C152.228 117.801 152.071 118.982 152.071 118.982C152.071 118.982 153.685 117.608 154.317 118.272C154.504 118.482 154.639 118.734 154.709 119.006C154.78 119.279 154.785 119.564 154.725 119.839C154.725 119.839 156.48 118.977 157.279 119.264C158.078 119.552 157.984 120.91 157.984 120.91C157.984 120.91 159.102 119.714 159.87 120.064C160.637 120.414 160.392 122.013 160.392 122.013C160.392 122.013 160.998 120.8 161.86 121.182C162.721 121.563 162.163 124.317 162.163 124.317L149.522 120.142Z" fill="#D35D57"/>
<path d="M42.1343 127.441C42.1343 127.441 40.9695 125.351 41.6851 124.776C42.4007 124.202 43.4244 124.776 43.4244 124.776C43.4244 124.776 43.2521 122.901 44.1505 122.686C45.0488 122.472 46.0204 123.533 46.0204 123.533C46.0204 123.533 45.5555 121.401 46.574 121.145C47.3046 121.038 48.0491 121.205 48.6633 121.615C48.6633 121.615 48.1096 119.635 48.9192 119.473C49.7288 119.311 50.6638 120.252 50.6638 120.252C50.6638 120.252 50.3243 118.846 51.3898 118.418C52.4553 117.989 54.2573 119.781 54.2573 119.781L42.1343 127.441Z" fill="#D35D57"/>
<path d="M122.027 125.242L121.228 124.625C118.361 122.42 117.791 120.215 117.765 120.121L118.251 120.001C118.251 120.001 118.705 121.72 120.753 123.58C120.022 121.741 118.538 117.54 118.428 113.491H118.951C119.097 118.747 121.604 124.286 121.625 124.338L122.027 125.242Z" fill="#D35D57"/>
<path d="M79.2655 146.558C79.1976 146.521 72.4754 142.749 72.8358 135.225C73.1021 129.635 76.1891 125.377 78.9103 121.641L79.1245 121.343C79.1245 120.486 79.067 114.028 80.4146 110.371L80.8847 110.549C79.5006 114.258 79.6259 121.338 79.6259 121.406V121.489L79.3125 121.923C76.6278 125.622 73.567 129.818 73.3267 135.256C72.982 142.467 79.4379 146.093 79.5006 146.129L79.2655 146.558Z" fill="#D35D57"/>
<path d="M79.2548 119.692C77.5782 118.6 77.1655 116.474 77.1655 116.385L77.6565 116.291C77.6565 116.291 78.0535 118.297 79.5473 119.274L79.2548 119.692Z" fill="#D35D57"/>
<path d="M104.843 147.211H104.368V146.689C112.934 146.861 118.068 141.95 118.993 138.402L119.478 138.528C118.601 141.934 113.863 147.211 104.843 147.211Z" fill="#D35D57"/>
<path d="M62.216 133.573L61.7544 133.769L65.5876 142.806L66.0492 142.61L62.216 133.573Z" fill="#D35D57"/>
<path d="M143.042 130.891L138.142 141.926L138.6 142.129L143.5 131.095L143.042 130.891Z" fill="#D35D57"/>
<path d="M127.992 158.46C127.966 158.314 125.423 143.763 125.553 136.517H126.076C125.945 143.716 128.478 158.225 128.504 158.372L127.992 158.46Z" fill="#D35D57"/>
<path d="M105.721 106.459C105.95 106.917 106.331 107.281 106.799 107.488C107.267 107.695 107.793 107.732 108.285 107.593C110.056 107.07 109.952 104.98 109.952 104.98C109.952 104.98 112.386 106.26 113.086 105.325C113.785 104.39 112.819 102.556 112.819 102.556C112.819 102.556 114.757 102.692 115.352 101.856C115.948 101.02 114.485 99.766 114.485 99.766C114.485 99.766 115.99 99.4002 116.089 98.5016C116.131 98.1358 115.619 97.8276 115.002 97.582C106.739 100.67 98.9046 101.124 91.6339 98.2038C90.8975 98.5329 90.2341 99.0084 90.2498 99.6353C90.2811 101.036 92.1824 100.769 92.1824 100.769C92.1824 100.769 91.0489 102.002 91.3519 102.901C91.6548 103.799 93.7493 103.705 93.7493 103.705C93.7493 103.705 92.6524 105.571 93.7493 106.239C94.8462 106.908 96.4863 106.077 96.4863 106.077C96.4863 106.077 96.5855 108.167 98.0846 108.361C98.5698 108.389 99.0553 108.309 99.5066 108.129C99.9579 107.948 100.364 107.671 100.696 107.316C100.696 107.316 102.399 108.585 103.903 108.418C105.407 108.251 105.721 106.459 105.721 106.459Z" fill="#D35D57"/>
<path d="M107.977 82.2578L109.111 99.6875C109.111 99.6875 101.516 104.588 95.3789 100.732L95.5983 87.5034L107.977 82.2578Z" fill="#EFAD9C"/>
<path d="M95.5039 93.2616C97.7625 93.4783 100.041 93.1847 102.171 92.4025C104.301 91.6202 106.228 90.3693 107.81 88.7422H95.577L95.5039 93.2616Z" fill="#162A45"/>
<path d="M101.093 100.695L93.5405 98.9186C93.5405 107.471 108.129 109.603 113.911 97.9834L101.093 100.695Z" fill="#EFAD9C"/>
<path d="M101.845 52.6184C115.582 54.4314 120.325 64.0292 114.976 78.4965C110.719 89.9909 101.511 94.4423 92.783 90.3514C85.8779 87.1068 82.9425 80.0482 84.6975 71.0878C87.1994 58.2977 93.7075 51.5473 101.845 52.6184Z" fill="#EFAD9C"/>
<path d="M120.221 73.5271C120.317 72.2855 120.317 71.0382 120.221 69.7966C119.844 64.7913 117.912 60.0525 114.721 56.7348C112.802 54.7324 110.421 53.231 107.788 52.362C105.155 51.4931 102.348 51.2831 99.6151 51.7504C99.4885 51.7809 99.3758 51.8532 99.2953 51.9555C99.2148 52.0579 99.171 52.1844 99.1711 52.3147C99.0639 52.3388 98.9683 52.3994 98.9007 52.4861C98.8331 52.5728 98.7976 52.6802 98.8003 52.7901C98.487 58.0002 99.657 63.1923 102.174 67.7642C104.637 72.1677 108.565 75.5691 113.274 77.3777C114.432 77.8273 115.638 78.1463 116.867 78.3286C117.797 78.4488 118.863 78.3286 119.479 77.2836C120.095 76.2387 120.132 74.7026 120.221 73.5271Z" fill="#162A45"/>
<path d="M112.866 78.82C111.445 80.6434 111.477 82.8064 112.793 83.8409C114.109 84.8754 116.34 84.2276 117.76 82.4041C119.181 80.5807 119.27 78.2661 117.948 77.2369C116.627 76.2076 114.292 77.0018 112.866 78.82Z" fill="#EFAD9C"/>
<path d="M113.639 82.0024C113.524 82.0058 113.413 81.9635 113.329 81.8846C113.245 81.8057 113.196 81.6968 113.193 81.5818C113.189 81.4668 113.231 81.3551 113.31 81.2713C113.389 81.1875 113.498 81.1385 113.613 81.1351C113.798 81.1313 113.978 81.076 114.133 80.9753C114.288 80.8747 114.412 80.7328 114.491 80.5656C114.526 80.3932 114.526 80.2155 114.491 80.0431C114.452 79.8131 114.452 79.5782 114.491 79.3482C114.547 79.1121 114.65 78.8899 114.795 78.695C114.939 78.5001 115.122 78.3366 115.331 78.2144C115.57 78.0621 115.842 77.9697 116.124 77.9451C116.406 77.9205 116.689 77.9645 116.951 78.0734C117.302 78.2633 117.575 78.5718 117.72 78.944C117.866 79.3161 117.874 79.7278 117.745 80.1058C117.713 80.2133 117.641 80.3044 117.543 80.36C117.446 80.4155 117.331 80.4311 117.222 80.4036C117.115 80.3708 117.025 80.2985 116.97 80.2014C116.915 80.1043 116.898 79.9897 116.925 79.8811C116.992 79.7012 116.997 79.5035 116.938 79.3204C116.88 79.1374 116.761 78.9796 116.601 78.8727C116.465 78.8269 116.32 78.8129 116.178 78.8319C116.036 78.851 115.9 78.9025 115.781 78.9825C115.675 79.0439 115.582 79.1259 115.509 79.2238C115.435 79.3216 115.382 79.4332 115.352 79.552C115.334 79.6959 115.334 79.8416 115.352 79.9856C115.397 80.2702 115.377 80.5611 115.295 80.8372C115.163 81.1693 114.937 81.4557 114.644 81.6616C114.352 81.8675 114.007 81.9841 113.65 81.9971L113.639 82.0024Z" fill="#AD6253"/>
<path d="M107.215 69.7191C107.215 69.7191 103.694 67.3419 101.156 66.694C103.245 65.5393 106.243 67.927 107.215 69.7191Z" fill="#162A45"/>
<path d="M93.3885 77.4723C93.322 77.4708 93.2564 77.4566 93.1952 77.4305C92.9162 77.3176 92.6648 77.1457 92.4584 76.9265C92.2519 76.7074 92.0953 76.4462 91.9991 76.1609C91.9539 75.9483 91.9577 75.7282 92.0102 75.5173C92.0626 75.3064 92.1625 75.1102 92.302 74.9436C92.5859 74.5988 92.8987 74.2789 93.237 73.9874C93.5413 73.7173 93.8258 73.4257 94.0884 73.1149C94.1219 73.0688 94.1643 73.0298 94.2132 73.0003C94.262 72.9708 94.3162 72.9513 94.3726 72.943C94.4291 72.9347 94.4866 72.9378 94.5418 72.9521C94.597 72.9664 94.6489 72.9915 94.6943 73.0261C94.7402 73.0597 94.7791 73.102 94.8087 73.1507C94.8383 73.1994 94.858 73.2534 94.8668 73.3096C94.8755 73.3659 94.873 73.4234 94.8596 73.4787C94.8461 73.534 94.8219 73.5862 94.7883 73.6322C94.496 73.9875 94.1745 74.3178 93.8272 74.6196C93.5304 74.8795 93.2528 75.1606 92.9967 75.4608C92.7878 75.7377 92.8296 75.9049 92.8452 75.9833C92.8975 76.2132 93.1691 76.464 93.5817 76.6729C93.6849 76.7236 93.7637 76.8131 93.8009 76.9218C93.8382 77.0306 93.8307 77.1496 93.7802 77.2529C93.7407 77.3214 93.6835 77.3779 93.6145 77.4165C93.5456 77.4551 93.4675 77.4744 93.3885 77.4723Z" fill="#AD6253"/>
<path d="M95.5724 80.5547C96.155 80.7743 96.675 81.133 97.0872 81.5996C97.173 81.7134 97.2127 81.8554 97.1981 81.9972C97.1836 82.139 97.116 82.27 97.0088 82.364C96.9016 82.4579 96.7629 82.5078 96.6205 82.5037C96.4781 82.4995 96.3425 82.4416 96.241 82.3415C95.8096 81.873 95.2384 81.5563 94.6126 81.4386C93.9867 81.321 93.3396 81.4086 92.7676 81.6884C92.7052 81.7286 92.6354 81.756 92.5624 81.7692C92.4894 81.7824 92.4145 81.7811 92.342 81.7653C92.2695 81.7495 92.2008 81.7196 92.1398 81.6773C92.0789 81.635 92.0268 81.5811 91.9867 81.5186C91.9466 81.4562 91.9191 81.3865 91.906 81.3134C91.8928 81.2404 91.8941 81.1655 91.9099 81.0929C91.9256 81.0204 91.9555 80.9517 91.9978 80.8907C92.0401 80.8297 92.094 80.7777 92.1565 80.7375C92.6782 80.4602 93.2542 80.3001 93.8442 80.2685C94.4343 80.2369 95.0241 80.3346 95.5724 80.5547Z" fill="#C16B5B"/>
</g>
</g>
<defs>
<clipPath id="clip0_409_577">
<rect width="214" height="139" fill="white"/>
</clipPath>
</defs>
</svg>
