<?xml version="1.0" encoding="utf-8"?>
<!-- Generator: Adobe Illustrator 25.3.1, SVG Export Plug-In . SVG Version: 6.00 Build 0)  -->
<svg version="1.1" id="圖層_1" xmlns="http://www.w3.org/2000/svg" xmlns:xlink="http://www.w3.org/1999/xlink" x="0px" y="0px"
	 viewBox="0 0 25 50" style="enable-background:new 0 0 25 50;" xml:space="preserve">
<style type="text/css">
	.st0{fill:#1C23A0;}
</style>
<g>
	<path class="st0" d="M6.4,9.6c4.5-7.1,13-0.9,12.1,6.3c-0.7,6-6.1,7-10.7,9.3c-4.2,2.2-7.9,6.2-5.3,11.1c0.7,1.3,2.2,1.8,3.4,1.1
		c0.6-0.3,1-0.9,1.2-1.6c1.7-6.5,12.2-6.9,15.8-13c2.8-4.7,2.8-10.9,0-15.6c-2.7-4.5-8.3-8.5-13.7-6.9c-3.9,1.1-6.8,5.2-4.5,9
		C5,9.9,5.9,10.3,6.4,9.6L6.4,9.6z"/>
	<path class="st0" d="M5.8,46c-0.8-1.6-2.5-2.3-4.1-1.7c-1.9,0.9-2.5,3.5-0.6,5s4.3,0.3,4.8-1.8c-0.2,0.3-0.4,0.8-0.6,1.3
		C5.9,47.9,6.3,47.1,5.8,46L5.8,46z"/>
</g>
</svg>
