<?xml version="1.0" encoding="utf-8"?>
<!-- Generator: Adobe Illustrator 22.0.1, SVG Export Plug-In . SVG Version: 6.00 Build 0)  -->
<svg version="1.1" id="圖層_1" xmlns="http://www.w3.org/2000/svg" xmlns:xlink="http://www.w3.org/1999/xlink" x="0px" y="0px"
	 viewBox="0 0 200 200" style="enable-background:new 0 0 200 200;" xml:space="preserve">
<style type="text/css">
	.st0{fill:url(#SVGID_1_);}
	.st1{fill:#DFDFDF;}
	.st2{fill:url(#SVGID_2_);}
	.st3{fill:url(#SVGID_3_);}
	.st4{opacity:0.5;fill:url(#SVGID_4_);}
	.st5{opacity:0.7;fill:url(#SVGID_5_);}
	.st6{opacity:0.21;fill:url(#SVGID_6_);}
	.st7{opacity:0.44;fill:url(#SVGID_7_);}
	.st8{filter:url(#Adobe_OpacityMaskFilter);}
	.st9{filter:url(#Adobe_OpacityMaskFilter_1_);}
	.st10{mask:url(#SVGID_8_);fill:url(#SVGID_9_);}
	.st11{opacity:0.6;fill:url(#SVGID_10_);}
	.st12{filter:url(#Adobe_OpacityMaskFilter_2_);}
	.st13{filter:url(#Adobe_OpacityMaskFilter_3_);}
	.st14{mask:url(#SVGID_11_);fill:url(#SVGID_12_);}
	.st15{fill:url(#SVGID_13_);}
	.st16{filter:url(#Adobe_OpacityMaskFilter_4_);}
	.st17{filter:url(#Adobe_OpacityMaskFilter_5_);}
	.st18{mask:url(#SVGID_14_);fill:url(#SVGID_15_);}
	.st19{fill:url(#SVGID_16_);}
	.st20{fill:url(#SVGID_17_);}
	.st21{fill:url(#SVGID_18_);}
</style>
<g>
	<g>
		
			<linearGradient id="SVGID_1_" gradientUnits="userSpaceOnUse" x1="8566.8779" y1="-5798.7349" x2="8440.1182" y2="-5925.4951" gradientTransform="matrix(0 1 -1 0 -5761.7402 -8403.7959)">
			<stop  offset="0" style="stop-color:#282828"/>
			<stop  offset="4.073274e-02" style="stop-color:#676767"/>
			<stop  offset="7.865568e-02" style="stop-color:#9B9B9B"/>
			<stop  offset="0.1115" style="stop-color:#C0C0C0"/>
			<stop  offset="0.1379" style="stop-color:#D7D7D7"/>
			<stop  offset="0.1546" style="stop-color:#DFDFDF"/>
			<stop  offset="0.2041" style="stop-color:#AFAFAF"/>
			<stop  offset="0.29" style="stop-color:#626262"/>
			<stop  offset="0.3296" style="stop-color:#434343"/>
			<stop  offset="0.3722" style="stop-color:#4A4A4A"/>
			<stop  offset="0.435" style="stop-color:#5E5E5E"/>
			<stop  offset="0.5105" style="stop-color:#7F7F7F"/>
			<stop  offset="0.5957" style="stop-color:#ACACAC"/>
			<stop  offset="0.688" style="stop-color:#E6E6E6"/>
			<stop  offset="0.6931" style="stop-color:#E9E9E9"/>
			<stop  offset="0.7019" style="stop-color:#DBDBDB"/>
			<stop  offset="0.7338" style="stop-color:#ACACAC"/>
			<stop  offset="0.7656" style="stop-color:#868686"/>
			<stop  offset="0.7969" style="stop-color:#686868"/>
			<stop  offset="0.8276" style="stop-color:#525252"/>
			<stop  offset="0.8575" style="stop-color:#454545"/>
			<stop  offset="0.8853" style="stop-color:#414141"/>
			<stop  offset="0.9217" style="stop-color:#484848"/>
			<stop  offset="0.995" style="stop-color:#515151"/>
		</linearGradient>
		<path class="st0" d="M22.4,143c-23.7-42.9-8.2-96.8,34.7-120.5c42.9-23.7,96.8-8.2,120.5,34.7c23.7,42.9,8.2,96.8-34.7,120.5
			C100,201.4,46.1,185.8,22.4,143z M179.3,56.2C155.1,12.4,100-3.5,56.1,20.7C12.3,45-3.6,100.1,20.7,143.9
			c24.2,43.8,79.4,59.7,123.2,35.5C187.7,155.2,203.6,100,179.3,56.2z"/>
		<path class="st1" d="M187.4,51.7C160.7,3.5,100-14.1,51.7,12.6C3.4,39.3-14.1,100.1,12.6,148.4c26.7,48.3,87.5,65.8,135.8,39.1
			C196.6,160.8,214.1,100,187.4,51.7z M20.7,143.9c-24.2-43.8-8.3-99,35.5-123.2c43.8-24.2,99-8.3,123.2,35.5
			c24.2,43.8,8.3,99-35.5,123.2C100,203.6,44.9,187.8,20.7,143.9z"/>
		
			<radialGradient id="SVGID_2_" cx="8473.3867" cy="-5957.4297" r="205.0133" gradientTransform="matrix(0 1 -1 0 -5761.7402 -8403.7959)" gradientUnits="userSpaceOnUse">
			<stop  offset="0" style="stop-color:#FFFFFF"/>
			<stop  offset="2.368178e-02" style="stop-color:#EEEEEE"/>
			<stop  offset="9.310716e-02" style="stop-color:#C3C3C3"/>
			<stop  offset="0.1603" style="stop-color:#A1A1A1"/>
			<stop  offset="0.2236" style="stop-color:#888888"/>
			<stop  offset="0.2817" style="stop-color:#797979"/>
			<stop  offset="0.3296" style="stop-color:#747474"/>
			<stop  offset="0.3606" style="stop-color:#6D6D6D"/>
			<stop  offset="0.3984" style="stop-color:#5D5D5D"/>
			<stop  offset="0.4263" style="stop-color:#6E6E6E"/>
			<stop  offset="0.4815" style="stop-color:#999999"/>
			<stop  offset="0.5494" style="stop-color:#D7D7D7"/>
			<stop  offset="0.5628" style="stop-color:#D2D2D2"/>
			<stop  offset="0.6465" style="stop-color:#BABABA"/>
			<stop  offset="0.6978" style="stop-color:#B1B1B1"/>
			<stop  offset="0.7024" style="stop-color:#A9A9A9"/>
			<stop  offset="0.733" style="stop-color:#7D7D7D"/>
			<stop  offset="0.7602" style="stop-color:#5C5C5C"/>
			<stop  offset="0.783" style="stop-color:#484848"/>
			<stop  offset="0.7984" style="stop-color:#414141"/>
			<stop  offset="0.81" style="stop-color:#494949"/>
			<stop  offset="0.8279" style="stop-color:#5E5E5E"/>
			<stop  offset="0.8498" style="stop-color:#828282"/>
			<stop  offset="0.8747" style="stop-color:#B2B2B2"/>
			<stop  offset="0.8826" style="stop-color:#C3C3C3"/>
			<stop  offset="0.8985" style="stop-color:#C9C9C9"/>
			<stop  offset="0.9195" style="stop-color:#DADADA"/>
			<stop  offset="0.9432" style="stop-color:#F5F5F5"/>
			<stop  offset="0.9493" style="stop-color:#FDFDFD"/>
			<stop  offset="0.9554" style="stop-color:#EAEAEA"/>
			<stop  offset="0.967" style="stop-color:#CDCDCD"/>
			<stop  offset="0.9785" style="stop-color:#B7B7B7"/>
			<stop  offset="0.9896" style="stop-color:#AAAAAA"/>
			<stop  offset="1" style="stop-color:#A6A6A6"/>
		</radialGradient>
		<path class="st2" d="M187.4,51.7C160.7,3.5,100-14.1,51.7,12.6C3.4,39.3-14.1,100.1,12.6,148.4c26.7,48.3,87.5,65.8,135.8,39.1
			C196.6,160.8,214.1,100,187.4,51.7z M13.5,147.1C-13,99.2,4.4,38.9,52.3,12.4C100.2-14.1,160.5,3.3,187,51.2
			c26.5,47.9,9.1,108.2-38.8,134.7C100.3,212.4,40,195,13.5,147.1z"/>
		
			<linearGradient id="SVGID_3_" gradientUnits="userSpaceOnUse" x1="8573.917" y1="-5791.5586" x2="8430.5879" y2="-5935.167" gradientTransform="matrix(0 1 -1 0 -5761.7402 -8403.7959)">
			<stop  offset="0" style="stop-color:#282828"/>
			<stop  offset="4.073274e-02" style="stop-color:#676767"/>
			<stop  offset="7.865568e-02" style="stop-color:#9B9B9B"/>
			<stop  offset="0.1115" style="stop-color:#C0C0C0"/>
			<stop  offset="0.1379" style="stop-color:#D7D7D7"/>
			<stop  offset="0.1546" style="stop-color:#DFDFDF"/>
			<stop  offset="0.2041" style="stop-color:#AFAFAF"/>
			<stop  offset="0.29" style="stop-color:#626262"/>
			<stop  offset="0.3296" style="stop-color:#434343"/>
			<stop  offset="0.3722" style="stop-color:#4A4A4A"/>
			<stop  offset="0.435" style="stop-color:#5E5E5E"/>
			<stop  offset="0.5105" style="stop-color:#7F7F7F"/>
			<stop  offset="0.5957" style="stop-color:#ACACAC"/>
			<stop  offset="0.688" style="stop-color:#E6E6E6"/>
			<stop  offset="0.6931" style="stop-color:#E9E9E9"/>
			<stop  offset="0.7019" style="stop-color:#DBDBDB"/>
			<stop  offset="0.7338" style="stop-color:#ACACAC"/>
			<stop  offset="0.7656" style="stop-color:#868686"/>
			<stop  offset="0.7969" style="stop-color:#686868"/>
			<stop  offset="0.8276" style="stop-color:#525252"/>
			<stop  offset="0.8575" style="stop-color:#454545"/>
			<stop  offset="0.8853" style="stop-color:#414141"/>
			<stop  offset="0.9217" style="stop-color:#484848"/>
			<stop  offset="0.995" style="stop-color:#515151"/>
		</linearGradient>
		<path class="st3" d="M182.5,54.5C157.3,9,100-7.6,54.4,17.6c-45.5,25.2-62,82.5-36.9,128c25.2,45.5,82.5,62,128,36.9
			C191.1,157.4,207.6,100,182.5,54.5z M20.7,143.9c-24.2-43.8-8.3-99,35.5-123.2c43.8-24.2,99-8.3,123.2,35.5
			c24.2,43.8,8.3,99-35.5,123.2C100,203.6,44.9,187.8,20.7,143.9z"/>
		
			<linearGradient id="SVGID_4_" gradientUnits="userSpaceOnUse" x1="8573.917" y1="-5791.5586" x2="8430.5879" y2="-5935.167" gradientTransform="matrix(0 1 -1 0 -5761.7402 -8403.7959)">
			<stop  offset="0" style="stop-color:#282828"/>
			<stop  offset="2.113801e-02" style="stop-color:#434343"/>
			<stop  offset="6.532145e-02" style="stop-color:#767676"/>
			<stop  offset="0.1039" style="stop-color:#9B9B9B"/>
			<stop  offset="0.135" style="stop-color:#B2B2B2"/>
			<stop  offset="0.1546" style="stop-color:#BABABA"/>
			<stop  offset="0.1689" style="stop-color:#AFAFAF"/>
			<stop  offset="0.279" style="stop-color:#626262"/>
			<stop  offset="0.3296" style="stop-color:#434343"/>
			<stop  offset="0.4103" style="stop-color:#4A4A4A"/>
			<stop  offset="0.5294" style="stop-color:#5E5E5E"/>
			<stop  offset="0.6717" style="stop-color:#7E7E7E"/>
			<stop  offset="0.6931" style="stop-color:#848484"/>
			<stop  offset="0.742" style="stop-color:#676767"/>
			<stop  offset="0.7917" style="stop-color:#525252"/>
			<stop  offset="0.8401" style="stop-color:#454545"/>
			<stop  offset="0.8853" style="stop-color:#414141"/>
			<stop  offset="0.9217" style="stop-color:#484848"/>
			<stop  offset="0.995" style="stop-color:#515151"/>
		</linearGradient>
		<path class="st4" d="M182.5,54.5C157.3,9,100-7.6,54.4,17.6c-45.5,25.2-62,82.5-36.9,128c25.2,45.5,82.5,62,128,36.9
			C191.1,157.4,207.6,100,182.5,54.5z M20.7,143.9c-24.2-43.8-8.3-99,35.5-123.2c43.8-24.2,99-8.3,123.2,35.5
			c24.2,43.8,8.3,99-35.5,123.2C100,203.6,44.9,187.8,20.7,143.9z"/>
		
			<linearGradient id="SVGID_5_" gradientUnits="userSpaceOnUse" x1="8571.959" y1="-5793.5215" x2="8432.6377" y2="-5933.1138" gradientTransform="matrix(0 1 -1 0 -5761.7402 -8403.7959)">
			<stop  offset="0" style="stop-color:#282828"/>
			<stop  offset="4.073274e-02" style="stop-color:#676767"/>
			<stop  offset="7.865568e-02" style="stop-color:#9B9B9B"/>
			<stop  offset="0.1115" style="stop-color:#C0C0C0"/>
			<stop  offset="0.1379" style="stop-color:#D7D7D7"/>
			<stop  offset="0.1546" style="stop-color:#DFDFDF"/>
			<stop  offset="0.2041" style="stop-color:#AFAFAF"/>
			<stop  offset="0.29" style="stop-color:#626262"/>
			<stop  offset="0.3296" style="stop-color:#434343"/>
			<stop  offset="0.3722" style="stop-color:#4A4A4A"/>
			<stop  offset="0.435" style="stop-color:#5E5E5E"/>
			<stop  offset="0.5105" style="stop-color:#7F7F7F"/>
			<stop  offset="0.5957" style="stop-color:#ACACAC"/>
			<stop  offset="0.688" style="stop-color:#E6E6E6"/>
			<stop  offset="0.6931" style="stop-color:#E9E9E9"/>
			<stop  offset="0.7019" style="stop-color:#DBDBDB"/>
			<stop  offset="0.7338" style="stop-color:#ACACAC"/>
			<stop  offset="0.7656" style="stop-color:#868686"/>
			<stop  offset="0.7969" style="stop-color:#686868"/>
			<stop  offset="0.8276" style="stop-color:#525252"/>
			<stop  offset="0.8575" style="stop-color:#454545"/>
			<stop  offset="0.8853" style="stop-color:#414141"/>
			<stop  offset="0.9217" style="stop-color:#484848"/>
			<stop  offset="0.995" style="stop-color:#515151"/>
		</linearGradient>
		<path class="st5" d="M180.1,55.8C155.7,11.5,100-4.5,55.7,19.9C11.4,44.4-4.6,100.1,19.9,144.4c24.5,44.3,80.2,60.3,124.5,35.8
			C188.6,155.8,204.6,100,180.1,55.8z M20.7,143.9c-24.2-43.8-8.3-99,35.5-123.2c43.8-24.2,99-8.3,123.2,35.5
			c24.2,43.8,8.3,99-35.5,123.2C100,203.6,44.9,187.8,20.7,143.9z"/>
		
			<radialGradient id="SVGID_6_" cx="10392.6328" cy="-1200.3198" r="90.6603" gradientTransform="matrix(0.4838 0.8752 -0.8752 0.4838 -5978.4751 -8414.8408)" gradientUnits="userSpaceOnUse">
			<stop  offset="0.6036" style="stop-color:#FFFFFF"/>
			<stop  offset="0.7024" style="stop-color:#F9F9FB"/>
			<stop  offset="0.839" style="stop-color:#E7EAF1"/>
			<stop  offset="0.9972" style="stop-color:#CAD1E0"/>
			<stop  offset="1" style="stop-color:#C9D0E0"/>
		</radialGradient>
		<path class="st6" d="M143.9,179.4c-43.8,24.2-99,8.3-123.2-35.5c-24.2-43.8-8.3-99,35.5-123.2c43.8-24.2,99-8.3,123.2,35.5
			C203.6,100,187.7,155.2,143.9,179.4z"/>
		
			<radialGradient id="SVGID_7_" cx="10392.832" cy="-1200.6807" r="90.6603" fx="10407.3389" fy="-1190.1318" gradientTransform="matrix(0.4838 0.8752 -0.8752 0.4838 -5978.4751 -8414.8408)" gradientUnits="userSpaceOnUse">
			<stop  offset="8.489290e-02" style="stop-color:#FFFFFF;stop-opacity:0"/>
			<stop  offset="0.3307" style="stop-color:#FCFCFD;stop-opacity:0.2686"/>
			<stop  offset="0.525" style="stop-color:#F2F4F7;stop-opacity:0.4809"/>
			<stop  offset="0.7017" style="stop-color:#E1E5EE;stop-opacity:0.6741"/>
			<stop  offset="0.8669" style="stop-color:#CAD1E0;stop-opacity:0.8546"/>
			<stop  offset="1" style="stop-color:#B1BBD2"/>
		</radialGradient>
		<path class="st7" d="M144.3,179.4c-43.8,24.2-99,8.3-123.2-35.5c-24.2-43.8-8.3-99,35.5-123.2c43.8-24.2,99-8.3,123.2,35.5
			C204,100,188.1,155.2,144.3,179.4z"/>
		<defs>
			<filter id="Adobe_OpacityMaskFilter" filterUnits="userSpaceOnUse" x="15.8" y="84.4" width="168.6" height="97">
				<feFlood  style="flood-color:white;flood-opacity:1" result="back"/>
				<feBlend  in="SourceGraphic" in2="back" mode="normal"/>
			</filter>
		</defs>
		<mask maskUnits="userSpaceOnUse" x="15.8" y="84.4" width="168.6" height="97" id="SVGID_8_">
			<g class="st8">
				<defs>
					<filter id="Adobe_OpacityMaskFilter_1_" filterUnits="userSpaceOnUse" x="15.8" y="84.4" width="168.6" height="97">
						<feFlood  style="flood-color:white;flood-opacity:1" result="back"/>
						<feBlend  in="SourceGraphic" in2="back" mode="normal"/>
					</filter>
				</defs>
				<mask maskUnits="userSpaceOnUse" x="15.8" y="84.4" width="168.6" height="97" id="SVGID_8_">
					<g class="st9">
					</g>
				</mask>
				
					<radialGradient id="SVGID_9_" cx="10521.0195" cy="493.2357" r="121.4131" gradientTransform="matrix(0.6225 0.7826 -0.7826 0.6225 -6065.0156 -8347.7861)" gradientUnits="userSpaceOnUse">
					<stop  offset="0" style="stop-color:#FFFFFF"/>
					<stop  offset="1" style="stop-color:#000000"/>
				</radialGradient>
				<path class="st10" d="M184.5,103.5c-3.1,20.4-13.5,39.7-30.9,53.5c-36.5,29-89.6,23-118.7-13.5C21,126.1,15.2,104.9,16.8,84.4
					c-3.4,22.4,2.2,46,17.4,65.1c29,36.5,82.2,42.6,118.6,13.5C171.9,147.8,182.7,126.1,184.5,103.5z"/>
			</g>
		</mask>
		
			<radialGradient id="SVGID_10_" cx="10521.0195" cy="493.2357" r="121.4131" gradientTransform="matrix(0.6225 0.7826 -0.7826 0.6225 -6065.0156 -8347.7861)" gradientUnits="userSpaceOnUse">
			<stop  offset="0" style="stop-color:#FFFFFF"/>
			<stop  offset="1" style="stop-color:#FFFFFF"/>
		</radialGradient>
		<path class="st11" d="M184.5,103.5c-3.1,20.4-13.5,39.7-30.9,53.5c-36.5,29-89.6,23-118.7-13.5C21,126.1,15.2,104.9,16.8,84.4
			c-3.4,22.4,2.2,46,17.4,65.1c29,36.5,82.2,42.6,118.6,13.5C171.9,147.8,182.7,126.1,184.5,103.5z"/>
		<defs>
			<filter id="Adobe_OpacityMaskFilter_2_" filterUnits="userSpaceOnUse" x="23.6" y="26.3" width="44.8" height="46.4">
				<feFlood  style="flood-color:white;flood-opacity:1" result="back"/>
				<feBlend  in="SourceGraphic" in2="back" mode="normal"/>
			</filter>
		</defs>
		<mask maskUnits="userSpaceOnUse" x="23.6" y="26.3" width="44.8" height="46.4" id="SVGID_11_">
			<g class="st12">
				<defs>
					<filter id="Adobe_OpacityMaskFilter_3_" filterUnits="userSpaceOnUse" x="23.6" y="26.3" width="44.8" height="46.4">
						<feFlood  style="flood-color:white;flood-opacity:1" result="back"/>
						<feBlend  in="SourceGraphic" in2="back" mode="normal"/>
					</filter>
				</defs>
				<mask maskUnits="userSpaceOnUse" x="23.6" y="26.3" width="44.8" height="46.4" id="SVGID_11_">
					<g class="st13">
					</g>
				</mask>
				
					<radialGradient id="SVGID_12_" cx="10330.249" cy="-1232.4419" r="102.2685" gradientTransform="matrix(0.4838 0.8752 -0.8752 0.4838 -5978.4751 -8414.8408)" gradientUnits="userSpaceOnUse">
					<stop  offset="0" style="stop-color:#FFFFFF"/>
					<stop  offset="1" style="stop-color:#000000"/>
				</radialGradient>
				<path class="st14" d="M68.4,40.6c-1.3-4.7-2.4-9.5-3.4-14.3c-1.5,0.7-3.1,1.5-4.6,2.3c-18.1,10-30.7,26-36.8,44.1
					c7.1-10,16.6-18.7,28.1-25C57.1,44.7,62.7,42.4,68.4,40.6z"/>
			</g>
		</mask>
		
			<radialGradient id="SVGID_13_" cx="10330.249" cy="-1232.4419" r="102.2685" gradientTransform="matrix(0.4838 0.8752 -0.8752 0.4838 -5978.4751 -8414.8408)" gradientUnits="userSpaceOnUse">
			<stop  offset="0" style="stop-color:#FFFFFF"/>
			<stop  offset="1" style="stop-color:#FFFFFF"/>
		</radialGradient>
		<path class="st15" d="M68.4,40.6c-1.3-4.7-2.4-9.5-3.4-14.3c-1.5,0.7-3.1,1.5-4.6,2.3c-18.1,10-30.7,26-36.8,44.1
			c7.1-10,16.6-18.7,28.1-25C57.1,44.7,62.7,42.4,68.4,40.6z"/>
		<defs>
			<filter id="Adobe_OpacityMaskFilter_4_" filterUnits="userSpaceOnUse" x="77.8" y="18.7" width="100.6" height="93">
				<feFlood  style="flood-color:white;flood-opacity:1" result="back"/>
				<feBlend  in="SourceGraphic" in2="back" mode="normal"/>
			</filter>
		</defs>
		<mask maskUnits="userSpaceOnUse" x="77.8" y="18.7" width="100.6" height="93" id="SVGID_14_">
			<g class="st16">
				<defs>
					<filter id="Adobe_OpacityMaskFilter_5_" filterUnits="userSpaceOnUse" x="77.8" y="18.7" width="100.6" height="93">
						<feFlood  style="flood-color:white;flood-opacity:1" result="back"/>
						<feBlend  in="SourceGraphic" in2="back" mode="normal"/>
					</filter>
				</defs>
				<mask maskUnits="userSpaceOnUse" x="77.8" y="18.7" width="100.6" height="93" id="SVGID_14_">
					<g class="st17">
					</g>
				</mask>
				
					<radialGradient id="SVGID_15_" cx="10330.2451" cy="-1232.4445" r="102.2712" gradientTransform="matrix(0.4838 0.8752 -0.8752 0.4838 -5978.4751 -8414.8408)" gradientUnits="userSpaceOnUse">
					<stop  offset="0" style="stop-color:#FFFFFF"/>
					<stop  offset="1" style="stop-color:#000000"/>
				</radialGradient>
				<path class="st18" d="M168.5,59.8C150.3,26.9,112.4,12,77.8,21.6c1.2,5.4,2.4,10.9,3.9,16.2c33.7-4.5,68.2,11.6,85.6,43.2
					c5.4,9.8,8.7,20.3,10,30.8C180.2,94.5,177.6,76.2,168.5,59.8z"/>
			</g>
		</mask>
		
			<radialGradient id="SVGID_16_" cx="10330.2451" cy="-1232.4445" r="102.2712" gradientTransform="matrix(0.4838 0.8752 -0.8752 0.4838 -5978.4751 -8414.8408)" gradientUnits="userSpaceOnUse">
			<stop  offset="0" style="stop-color:#FFFFFF"/>
			<stop  offset="1" style="stop-color:#FFFFFF"/>
		</radialGradient>
		<path class="st19" d="M168.5,59.8C150.3,26.9,112.4,12,77.8,21.6c1.2,5.4,2.4,10.9,3.9,16.2c33.7-4.5,68.2,11.6,85.6,43.2
			c5.4,9.8,8.7,20.3,10,30.8C180.2,94.5,177.6,76.2,168.5,59.8z"/>
		
			<radialGradient id="SVGID_17_" cx="10340.1992" cy="-1253.1021" r="76.088" gradientTransform="matrix(0.4838 0.8752 -0.8752 0.4838 -5978.4751 -8414.8408)" gradientUnits="userSpaceOnUse">
			<stop  offset="0.3955" style="stop-color:#FFFFFF"/>
			<stop  offset="0.4667" style="stop-color:#EEEEEE"/>
			<stop  offset="0.6072" style="stop-color:#C3C3C3"/>
			<stop  offset="0.8033" style="stop-color:#7E7E7E"/>
			<stop  offset="1" style="stop-color:#313131"/>
		</radialGradient>
		<path class="st20" d="M187.4,51.7c0,0-0.3-0.5-1-1.5c-0.3-0.5-0.7-1.1-1.1-1.8c-0.4-0.7-1-1.5-1.6-2.4c-0.6-0.9-1.3-1.8-2-2.9
			c-0.8-1-1.6-2.1-2.6-3.3c-0.9-1.2-2-2.3-3.1-3.6c-1.1-1.3-2.3-2.5-3.6-3.8c-1.3-1.3-2.6-2.6-4.1-3.9c-0.7-0.6-1.5-1.3-2.2-2
			c-0.4-0.3-0.8-0.7-1.2-1c-0.4-0.3-0.8-0.6-1.2-1c-0.8-0.6-1.6-1.3-2.5-2c-0.9-0.6-1.7-1.3-2.6-1.9c-0.9-0.7-1.8-1.3-2.7-1.9
			c-0.9-0.6-1.9-1.3-2.8-1.8c-3.9-2.4-8-4.6-12.4-6.6c-4.4-1.9-8.9-3.6-13.6-4.9c-4.6-1.4-9.4-2.3-14.1-3c-4.7-0.7-9.4-0.9-14-1
			c-1.1,0-2.3,0-3.4,0.1c-0.6,0-1.1,0-1.7,0.1c-0.6,0-1.1,0.1-1.6,0.1c-2.2,0.1-4.3,0.3-6.4,0.6c-1,0.1-2,0.3-3.1,0.4
			c-1,0.2-2,0.3-3,0.5c-1,0.2-1.9,0.4-2.8,0.6c-0.9,0.2-1.8,0.4-2.7,0.6C71,5.3,67.8,6.3,65,7.2c-1.4,0.5-2.7,1-3.9,1.4
			c-1.2,0.5-2.3,0.9-3.3,1.3c-0.5,0.2-1,0.4-1.4,0.6c-0.4,0.2-0.8,0.4-1.2,0.6c-0.8,0.3-1.4,0.6-1.9,0.9c-1,0.5-1.6,0.7-1.6,0.7
			s0.5-0.3,1.6-0.8c0.5-0.3,1.1-0.6,1.9-1c0.4-0.2,0.8-0.4,1.2-0.6c0.4-0.2,0.9-0.4,1.4-0.6c1-0.4,2.1-0.9,3.2-1.4
			c1.2-0.5,2.5-1,3.9-1.5c2.8-1,6-2.1,9.5-3c0.9-0.3,1.8-0.5,2.7-0.7c0.9-0.2,1.9-0.4,2.8-0.6c1-0.2,2-0.4,3-0.5
			c1-0.2,2-0.4,3.1-0.5c2.1-0.3,4.2-0.6,6.4-0.7c2.2-0.2,4.5-0.2,6.8-0.3c4.6,0,9.4,0.2,14.1,0.9c4.8,0.7,9.6,1.6,14.3,3
			c4.7,1.4,9.3,3.1,13.7,5.1c4.4,2,8.6,4.3,12.5,6.7c1,0.6,1.9,1.3,2.8,1.9c0.5,0.3,0.9,0.6,1.4,0.9c0.5,0.3,0.9,0.7,1.3,1
			c0.9,0.7,1.8,1.3,2.6,2c0.8,0.7,1.7,1.4,2.5,2c0.4,0.3,0.8,0.7,1.2,1c0.4,0.3,0.8,0.7,1.1,1c0.8,0.7,1.5,1.4,2.2,2
			c1.4,1.4,2.8,2.7,4,4.1c1.2,1.4,2.4,2.6,3.5,3.9c1,1.3,2.1,2.5,3,3.7c0.9,1.2,1.7,2.3,2.5,3.4c0.7,1.1,1.4,2.1,2,2.9
			c0.3,0.4,0.6,0.9,0.8,1.3c0.3,0.4,0.5,0.8,0.7,1.1c0.4,0.7,0.8,1.3,1.1,1.8C187.1,51.2,187.4,51.7,187.4,51.7z"/>
		
			<radialGradient id="SVGID_18_" cx="10441.5732" cy="-1152.0999" r="47.5521" gradientTransform="matrix(0.4838 0.8752 -0.8752 0.4838 -5978.4751 -8414.8408)" gradientUnits="userSpaceOnUse">
			<stop  offset="0.3955" style="stop-color:#FFFFFF"/>
			<stop  offset="0.4667" style="stop-color:#EEEEEE"/>
			<stop  offset="0.6072" style="stop-color:#C3C3C3"/>
			<stop  offset="0.8033" style="stop-color:#7E7E7E"/>
			<stop  offset="1" style="stop-color:#313131"/>
		</radialGradient>
		<path class="st21" d="M17.6,147.2c0,0,0.3,0.5,0.9,1.4c0.3,0.5,0.6,1,1.1,1.7c0.2,0.3,0.4,0.7,0.7,1.1c0.3,0.4,0.5,0.8,0.8,1.2
			c0.6,0.8,1.2,1.7,1.9,2.8c0.7,1,1.5,2,2.4,3.1c1.8,2.2,3.8,4.6,6.2,7.1c1.2,1.3,2.5,2.5,3.8,3.8c0.7,0.6,1.4,1.2,2.1,1.9
			c0.7,0.6,1.4,1.3,2.2,1.9c0.8,0.6,1.5,1.2,2.3,1.9c0.8,0.6,1.6,1.2,2.5,1.8c1.7,1.3,3.5,2.4,5.2,3.6c3.7,2.3,7.6,4.4,11.7,6.2
			c4.1,1.8,8.4,3.4,12.8,4.7c4.4,1.2,8.9,2.2,13.4,2.8c4.5,0.6,8.9,0.9,13.2,0.9c2.1-0.1,4.3-0.1,6.3-0.2c1-0.1,2.1-0.1,3.1-0.2
			c1-0.1,2-0.2,3-0.3c1-0.1,1.9-0.3,2.9-0.4c0.9-0.2,1.9-0.3,2.8-0.5c1.8-0.4,3.6-0.7,5.2-1.2c3.3-0.9,6.4-1.8,9-2.7
			c1.3-0.5,2.5-1,3.7-1.4c1.1-0.5,2.1-0.9,3.1-1.3c0.5-0.2,0.9-0.4,1.3-0.6c0.4-0.2,0.8-0.4,1.1-0.5c0.7-0.3,1.3-0.6,1.8-0.9
			c1-0.5,1.5-0.7,1.5-0.7s-0.5,0.3-1.5,0.8c-0.5,0.3-1.1,0.6-1.7,1c-0.3,0.2-0.7,0.4-1.1,0.6c-0.4,0.2-0.8,0.4-1.3,0.6
			c-0.9,0.4-1.9,0.9-3,1.5c-1.1,0.5-2.3,1-3.6,1.5c-1.3,0.6-2.7,1-4.2,1.6c-0.7,0.3-1.5,0.5-2.3,0.8c-0.8,0.2-1.6,0.5-2.5,0.7
			c-1.7,0.5-3.5,0.9-5.3,1.3c-0.9,0.2-1.9,0.4-2.8,0.5c-1,0.2-1.9,0.4-2.9,0.5c-1,0.1-2,0.3-3,0.4c-1,0.1-2.1,0.2-3.1,0.3
			c-0.5,0-1.1,0.1-1.6,0.1c-0.5,0-1.1,0-1.6,0.1c-1.1,0-2.2,0.1-3.2,0.1c-4.4,0-8.9-0.2-13.5-0.8c-4.6-0.6-9.1-1.6-13.6-2.8
			c-4.5-1.3-8.9-3-13-4.8c-4.2-1.9-8.1-4.2-11.8-6.5c-0.9-0.6-1.8-1.2-2.7-1.8c-0.4-0.3-0.9-0.6-1.3-0.9c-0.4-0.3-0.8-0.6-1.3-1
			c-0.8-0.6-1.7-1.3-2.5-1.9c-0.8-0.7-1.6-1.3-2.3-2c-0.8-0.6-1.5-1.3-2.2-2c-0.7-0.7-1.4-1.3-2.1-2c-1.3-1.4-2.6-2.6-3.8-3.9
			c-0.6-0.7-1.1-1.3-1.7-1.9c-0.6-0.6-1.1-1.2-1.6-1.9c-1-1.3-1.9-2.4-2.7-3.6c-0.8-1.2-1.6-2.2-2.3-3.2c-0.7-1-1.2-2-1.8-2.8
			c-0.3-0.4-0.5-0.8-0.8-1.2c-0.2-0.4-0.4-0.8-0.6-1.1c-0.4-0.7-0.7-1.3-1-1.8C17.9,147.7,17.6,147.2,17.6,147.2z"/>
	</g>
</g>
</svg>
