<?xml version="1.0" encoding="utf-8"?>
<!-- Generator: Adobe Illustrator 25.3.1, SVG Export Plug-In . SVG Version: 6.00 Build 0)  -->
<svg version="1.1" id="圖層_1" xmlns="http://www.w3.org/2000/svg" xmlns:xlink="http://www.w3.org/1999/xlink" x="0px" y="0px"
	 viewBox="0 0 10 50" style="enable-background:new 0 0 10 50;" xml:space="preserve">
<style type="text/css">
	.st0{opacity:0.3;}
	.st1{fill:#E0D0AC;}
</style>
<g>
	<path class="st0" d="M5,38.7L5,38.7c0-0.1,0-0.2-0.1-0.3l-0.4-2.7c0.1-0.6,0.1-1.2,0.3-1.7c0.6-1.4,0.4-2.8,0.3-4.5
		c-0.2-2.5,0.4-5.1,0.7-7.6c0.1-0.6,0.3-1.1,0.4-1.6c0.8-2.6,0.1-4.7-1.4-6.7c-0.6-0.8-1.3-1.6-1.7-2.5C3,10.7,2.9,10.2,2.9,9.8
		c0-0.4,0-0.9,0.1-1.3c0.3-1.1,0.7-2.1,1.3-2.9c0.8-1.1,1.2-2.5,1.5-4h-4l-0.9,0l0.9,38.5C2,39,2.2,37.8,2.6,36.8
		c-0.4,1-0.6,2.1-0.9,3.3L0,50l5.7,0c0.6,0,1.1,0,1.7,0l2.6-3.4l0-0.3L5,38.7z M2.8,36.4C3.1,36.1,3.7,36,4,35.7
		C3.7,36,3.1,36.1,2.8,36.4z"/>
	<path class="st1" d="M3.2,37.1L3.2,37.1c0-0.1,0-0.2-0.1-0.3l-0.4-2.7c0.1-0.6,0.1-1.2,0.3-1.7c0.6-1.4,0.4-2.8,0.3-4.5
		c-0.2-2.5,0.4-5.1,0.7-7.6c0.1-0.6,0.3-1.1,0.4-1.6c0.8-2.6,0.1-4.7-1.4-6.7c-0.6-0.8-1.3-1.6-1.7-2.5C1.3,9.1,1.2,8.6,1.2,8.2
		c0-0.4,0-0.9,0.1-1.3C1.5,5.8,2,4.8,2.5,4C3.4,2.9,3.7,1.5,4,0H0l0,0v38.5c0.3-1.2,0.5-2.3,0.9-3.3c-0.4,1-0.6,2.1-0.9,3.3v9.8l4,0
		c0.6,0,1.1,0,1.7,0L8.3,45l0-0.3L3.2,37.1z M1.1,34.8c0.3-0.3,0.8-0.4,1.2-0.7C1.9,34.3,1.4,34.5,1.1,34.8z"/>
</g>
</svg>
