<?xml version="1.0" encoding="utf-8"?>
<!-- Generator: Adobe Illustrator 25.3.1, SVG Export Plug-In . SVG Version: 6.00 Build 0)  -->
<svg version="1.1" id="圖層_1" xmlns="http://www.w3.org/2000/svg" xmlns:xlink="http://www.w3.org/1999/xlink" x="0px" y="0px"
	 viewBox="0 0 643 400" style="enable-background:new 0 0 643 400;" xml:space="preserve">
<style type="text/css">
	.st0{fill:#F2F2F2;}
	.st1{fill:#F2994A;}
	.st2{fill:#FFFFFF;}
	.st3{fill:#E0E0E0;}
	.st4{fill:#4F4F4F;}
	.st5{fill:none;stroke:#BDBDBD;}
	.st6{fill:#EB5757;}
	.st7{clip-path:url(#SVGID_2_);}
	.st8{fill:#0267A4;}
	.st9{opacity:0.15;fill:#0D0D1E;enable-background:new    ;}
	.st10{opacity:0.72;fill:#FFFFFF;enable-background:new    ;}
	.st11{opacity:0.26;fill:#0D0D1E;enable-background:new    ;}
	.st12{opacity:0.24;fill:#FFFFFF;enable-background:new    ;}
	
		.st13{opacity:0.84;fill:none;stroke:#FFFFFF;stroke-width:9;stroke-linecap:round;stroke-miterlimit:10;enable-background:new    ;}
	.st14{opacity:0.2;fill:#0D0D1E;enable-background:new    ;}
	.st15{fill:#EFAEA6;}
	.st16{fill:#1F1F3B;}
	.st17{opacity:0.16;fill:#1F1F39;enable-background:new    ;}
	.st18{opacity:0.35;fill:#FFFFFF;enable-background:new    ;}
	.st19{opacity:0.36;fill:#1F1F39;enable-background:new    ;}
	.st20{opacity:0.17;fill:#1F1F39;enable-background:new    ;}
</style>
<g>
	<path shape-rendering="crispEdges" class="st0" d="M10.9,81.3h621.2c6,0,10.9,4.9,10.9,10.9v296.9c0,6-4.9,10.9-10.9,10.9H10.9
		c-6,0-10.9-4.9-10.9-10.9V92.2C0,86.2,4.9,81.3,10.9,81.3z"/>
	<g>
		<path class="st1" d="M103.8,56.9c0-6,4.9-10.9,10.9-10.9h148.9c6,0,10.9,4.9,10.9,10.9V99c0,0.8-0.6,1.4-1.4,1.4h-168
			c-0.8,0-1.4-0.6-1.4-1.4V56.9z"/>
		<path class="st2" d="M173.1,81.3V65.2h5.3c3.3,0,5.8,1,5.8,4c0,1.5-0.8,3-2.2,3.5v0.1c1.7,0.4,3,1.6,3,3.8c0,3.2-2.7,4.7-6.2,4.7
			H173.1z M176.3,71.8h1.9c2,0,2.9-0.8,2.9-2.1c0-1.4-1-2-2.9-2h-1.9V71.8z M176.3,78.9h2.2c2.2,0,3.4-0.8,3.4-2.5
			c0-1.6-1.2-2.2-3.4-2.2h-2.2V78.9z M187.9,81.3V65.2h3.2v16.1H187.9z M198.1,74.7h3.8l-0.5-1.8c-0.5-1.7-0.9-3.5-1.4-5.3h-0.1
			c-0.4,1.8-0.9,3.6-1.4,5.3L198.1,74.7z M203.8,81.3l-1.1-4.1h-5.2l-1.1,4.1H193l5.2-16.1h3.8l5.2,16.1H203.8z"/>
		<path class="st3" d="M103.8,100.4h170.7v274.7c0,6-4.9,10.9-10.9,10.9H114.7c-6,0-10.9-4.9-10.9-10.9V100.4z"/>
		<path class="st4" d="M188.2,123.7v1.1h-8v-1.1h3.8c-0.2-0.5-0.7-1.3-1.1-1.9l1-0.5c0.4,0.6,0.9,1.4,1.1,1.9l-1,0.5H188.2z
			 M185.1,125.8l0.9-0.6c0.8,1,1.9,2.4,2.4,3.3l-1,0.7C187,128.3,186,126.9,185.1,125.8z M182.1,125.3l1.1,0.4
			c-0.7,1.3-1.6,2.7-2.4,3.7c-0.2-0.2-0.7-0.6-0.9-0.7C180.7,127.7,181.6,126.4,182.1,125.3z M175,128.8v1.6h1.3v-1.6H175z
			 M175,126.3v1.6h1.3v-1.6H175z M178.6,127.9v-1.6h-1.4v1.6H178.6z M178.6,130.3v-1.6h-1.4v1.6H178.6z M179.9,133.6h-2.6v2.7h-1.1
			v-2.7h-2.7v-1.1h2.7v-1.3h-2.2v-5.8h2.2v-1.2h-2.5v-1h2.5v-1.7h1.1v1.7h2.5v1h-2.5v1.2h2.3v5.8h-2.3v1.3h2.6V133.6z M185.4,128.2
			l1.1,0.3c-0.4,1.5-0.9,2.8-1.7,3.9c1,1.3,2.3,2.3,3.8,2.9c-0.3,0.2-0.6,0.7-0.8,1c-1.4-0.7-2.7-1.7-3.7-3c-1,1.2-2.3,2.2-3.8,3
			c-0.2-0.3-0.5-0.7-0.8-0.9c1.6-0.8,2.9-1.8,3.9-3.1c-0.7-1.1-1.3-2.4-1.8-3.8l1-0.3c0.4,1.1,0.8,2.1,1.4,3.1
			C184.7,130.4,185.1,129.4,185.4,128.2z M193.5,121.5l1.1,0.3c-0.5,1.2-1,2.4-1.7,3.5v11h-1.2v-9.2c-0.5,0.7-1.1,1.4-1.6,2
			c-0.1-0.3-0.5-0.9-0.7-1.2C191.1,126.4,192.6,124,193.5,121.5z M196.8,135.9v-1h4.4v1H196.8z M196.4,127.6h3.7
			c-0.1-1.4-0.2-2.8-0.3-4.3c-1.1,0.2-2.3,0.4-3.4,0.6V127.6z M204.4,128.8h-3.1c0.4,3.6,1.1,6.1,2,6.1c0.3,0,0.5-0.8,0.6-2.4
			c0.2,0.2,0.7,0.5,0.9,0.6c-0.3,2.4-0.9,3.1-1.5,3.1c-1.7,0-2.6-3.1-3.1-7.4h-3.8v4.6l3-0.8c0,0.3,0,0.8,0,1
			c-3.6,1-4.1,1.2-4.4,1.4c0-0.3-0.3-0.8-0.5-1c0.3-0.1,0.7-0.4,0.7-1v-9.9h0l0,0c2.7-0.4,5.9-1.1,7.6-1.7l1,0.9
			c-0.8,0.3-1.8,0.6-2.9,0.8c0,1.6,0.1,3.1,0.3,4.6h3.2V128.8z"/>
		<path class="st5" d="M103.8,157.5h170.7"/>
		<path class="st4" d="M181.5,187h4.7v-4.3h-4.7V187z M175.6,187h4.7v-4.3h-4.7V187z M181.5,181.4h5.9v7.6h-1.2v-0.9h-4.7v5.3h-1.3
			v-5.3h-4.7v1h-1.2v-7.7h5.9v-2.9h1.3V181.4z M193.8,180.8h-1.5c-0.5,0.8-1,1.4-1.6,1.9c-0.2-0.2-0.6-0.6-0.9-0.8
			c1-0.9,2-2.2,2.5-3.5l1.1,0.3c-0.1,0.3-0.3,0.7-0.5,1h4.2v1.1h-3.1c0.6,0.5,1.2,1.1,1.6,1.5l-0.8,0.7c-0.4-0.5-1.1-1.2-1.7-1.7
			L193.8,180.8z M192.8,190.2l0.9-0.6c0.9,0.7,2.2,1.7,2.8,2.4l-0.9,0.7C195,192,193.8,191,192.8,190.2z M201.2,187.2v1.1h3.2v1
			h-3.2v2.8c0,0.7-0.2,1-0.7,1.1c-0.6,0.2-1.5,0.2-2.9,0.2c0-0.3-0.2-0.7-0.3-1c1.1,0,2.1,0,2.4,0c0.3,0,0.4-0.1,0.4-0.3v-2.7h-9.8
			v-1h9.8v-1.1H201.2z M199.9,179.7h4.9v1.1h-3.6c0.5,0.5,1.2,1.2,1.5,1.6l-0.8,0.7c-0.3-0.5-1-1.2-1.6-1.7l0.7-0.6h-1.6
			c-0.4,0.8-0.9,1.4-1.4,2l-0.1-0.1v0.8h6v1.1h-6v1.5h5.1v1h-11.4v-1h5.1v-1.5h-5.9v-1.1h5.9v-1h0.9c-0.2-0.1-0.3-0.3-0.5-0.3
			c0.9-0.9,1.6-2.2,2-3.6l1.1,0.3C200.1,179.1,200,179.4,199.9,179.7z"/>
		<path class="st5" d="M103.8,214.6h170.7"/>
		<path class="st4" d="M181.5,244.1h4.7v-4.3h-4.7V244.1z M175.6,244.1h4.7v-4.3h-4.7V244.1z M181.5,238.6h5.9v7.6h-1.2v-0.9h-4.7
			v5.3h-1.3v-5.3h-4.7v1h-1.2v-7.7h5.9v-2.9h1.3V238.6z M193.8,237.9h-1.5c-0.5,0.8-1,1.4-1.6,1.9c-0.2-0.2-0.6-0.6-0.9-0.8
			c1-0.9,2-2.2,2.5-3.5l1.1,0.3c-0.1,0.3-0.3,0.7-0.5,1h4.2v1.1h-3.1c0.6,0.5,1.2,1.1,1.6,1.5l-0.8,0.7c-0.4-0.5-1.1-1.2-1.7-1.7
			L193.8,237.9z M192.8,247.3l0.9-0.6c0.9,0.7,2.2,1.7,2.8,2.4l-0.9,0.7C195,249.2,193.8,248.1,192.8,247.3z M201.2,244.4v1.1h3.2v1
			h-3.2v2.8c0,0.7-0.2,1-0.7,1.1c-0.6,0.2-1.5,0.2-2.9,0.2c0-0.3-0.2-0.7-0.3-1c1.1,0,2.1,0,2.4,0c0.3,0,0.4-0.1,0.4-0.3v-2.7h-9.8
			v-1h9.8v-1.1H201.2z M199.9,236.8h4.9v1.1h-3.6c0.5,0.5,1.2,1.2,1.5,1.6l-0.8,0.7c-0.3-0.5-1-1.2-1.6-1.7l0.7-0.6h-1.6
			c-0.4,0.8-0.9,1.4-1.4,2l-0.1-0.1v0.8h6v1.1h-6v1.5h5.1v1h-11.4v-1h5.1v-1.5h-5.9v-1.1h5.9v-1h0.9c-0.2-0.1-0.3-0.3-0.5-0.3
			c0.9-0.9,1.6-2.2,2-3.6l1.1,0.3C200.1,236.2,200,236.5,199.9,236.8z"/>
		<path class="st5" d="M103.8,271.8h170.7"/>
		<path class="st6" d="M176.3,301.9v-2.1h-1.2v2.1H176.3z M169.5,299.8v2.1h1.1v-2.1H169.5z M173.5,299.8h-1.3v2.1h1.3V299.8z
			 M179.7,299.8h-1.6v2.1h2v1.7h-14.6v-1.7h2.2v-2.1H166v-1.7h1.7v-1.5h1.7v1.5h1.1v-1.5h1.6v1.5h1.3v-1.5h1.6v1.5h1.2v-1.5h1.8v1.5
			h1.6V299.8z M179.6,296h-11.5c-0.6,0.7-1.3,1.3-1.9,1.8c-0.2-0.4-0.8-1.2-1.1-1.6c1.3-0.9,2.6-2.4,3.4-3.9l1.7,0.6
			c-0.2,0.5-0.5,0.9-0.8,1.4h10.3V296z M167.3,307.9l-1.9-0.8c0.6-0.8,1.4-2.1,1.8-3.2l1.9,0.5C168.6,305.6,167.9,307,167.3,307.9z
			 M170,304.6l1.8-0.2c0.2,1,0.4,2.3,0.4,3.1l-1.9,0.3C170.3,307,170.2,305.6,170,304.6z M173.3,304.6l1.8-0.3c0.4,0.9,0.8,2.2,1,3
			l-1.9,0.4C174,306.9,173.7,305.6,173.3,304.6z M176.6,304.6l1.8-0.7c0.7,1,1.5,2.3,1.9,3.2l-1.9,0.8
			C178.1,307,177.3,305.6,176.6,304.6z M183.3,300.3v1h1v-1H183.3z M183.3,298.1v1h1v-1H183.3z M186.6,299v-1h-1.1v1H186.6z
			 M186.6,301.3v-1h-1.1v1H186.6z M185.8,302.6v0.9h2.6v1.7h-2.6v2.6h-1.7v-2.6h-2.6v-1.7h2.6v-0.9h-2.2v-5.9h2.2v-0.9h-2.4v-1.7
			h2.4v-1.6h1.7v1.6h2.4v1.7h-2.4v0.9h2.3v5.9H185.8z M191.6,302.1h-1.4v1.1h1.4V302.1z M194.7,303.2v-1.1h-1.5v1.1H194.7z
			 M193.2,305.7h1.5v-1.1h-1.5V305.7z M190.3,305.7h1.4v-1.1h-1.4V305.7z M188.5,307.9v-7.4h8v7.3h-1.8v-0.6h-4.4v0.6H188.5z
			 M194.1,298.3v-1.1h-3.2v1.1H194.1z M189.1,295.7h6.8v4h-6.8V295.7z M188.5,293.4h8v1.7h-8V293.4z M200.9,300.3v0.8
			c0.8-0.1,1.6-0.1,2.4-0.2v-0.6H200.9z M203.2,296.8v-0.9h-2.4v0.9H203.2z M203.2,298.9v-0.8h-2.4v0.8H203.2z M205,294.4v5.9
			l1.3,0.7c-0.4,0.5-0.8,1-1.3,1.4v3.6c0,0.8-0.2,1.3-0.7,1.6c-0.5,0.3-1.3,0.3-2.4,0.3c-0.1-0.5-0.3-1.2-0.6-1.6c0.7,0,1.4,0,1.6,0
			c0.2,0,0.3-0.1,0.3-0.3v-2c-1.5,1.2-3.2,2.2-4.7,3c-0.1-0.4-0.5-1.3-0.8-1.7c1.6-0.7,3.4-1.7,4.9-2.8c-1.7,0.2-3.3,0.4-4.6,0.5
			l-0.2-1.5l1.3-0.1v-6.9h1.6c0.2-0.6,0.4-1.3,0.5-1.8l2,0.2c-0.2,0.6-0.5,1.1-0.7,1.6H205z M209.4,302.8l-1.6,0.7
			c-0.3-1.1-1-2.7-1.8-3.9l1.5-0.6C208.4,300.2,209.1,301.7,209.4,302.8z M213,296.1v1.9h-1.6v7.6c0,1-0.2,1.5-0.8,1.8
			c-0.6,0.3-1.6,0.4-3,0.4c-0.1-0.5-0.4-1.3-0.6-1.8c0.9,0,1.9,0,2.2,0c0.3,0,0.4-0.1,0.4-0.4V298h-4v-1.9h4v-3.4h1.8v3.4H213z"/>
		<path class="st5" d="M103.8,328.9h170.7"/>
		<path class="st6" d="M136.3,362.4h7.8v-1.7h-7.8V362.4z M144.1,357.2h-7.8v1.7h7.8V357.2z M144.1,353.7h-7.8v1.7h7.8V353.7z
			 M140.6,351.8h5.6V365h-2.1v-0.8h-7.8v0.8h-2v-13.1h4.2c0.2-0.7,0.4-1.5,0.4-2.1l2.4,0.3C141.1,350.6,140.8,351.3,140.6,351.8z
			 M163.5,350.7v1.8h-7.9v-1.8H163.5z M152.5,349.7l1.9,0.8c-1.2,1.6-2.9,3.2-4.5,4.3c-0.3-0.4-0.8-1.2-1.1-1.6
			C150.2,352.4,151.7,350.9,152.5,349.7z M153.1,353.3l1.8,0.7c-0.5,0.8-1.1,1.7-1.7,2.5v8.6h-1.9v-6.4c-0.5,0.5-0.9,0.9-1.4,1.2
			c-0.3-0.4-0.9-1.3-1.3-1.6C150.2,357,152,355.1,153.1,353.3z M163.9,355.2v1.8h-2.2v5.7c0,1-0.2,1.6-0.9,1.8
			c-0.7,0.3-1.7,0.3-3.1,0.3c-0.1-0.6-0.3-1.4-0.6-1.9c0.9,0,2,0,2.3,0c0.3,0,0.4-0.1,0.4-0.3V357h-4.8v-1.8H163.9z M177.1,351.4
			v9.4h-1.7v-9.4H177.1z M169.5,351.5l-1.2,1.5c-0.5-0.5-1.6-1.2-2.5-1.7l1.1-1.4C167.8,350.3,168.9,350.9,169.5,351.5z
			 M168.9,355.7l-1.2,1.6c-0.5-0.5-1.7-1.2-2.6-1.6l1.1-1.4C167.1,354.6,168.3,355.2,168.9,355.7z M167.5,358.6l1.6,1.1
			c-0.6,1.7-1.3,3.6-1.9,5.2l-1.7-1C166.1,362.6,166.9,360.5,167.5,358.6z M170.1,361.2l1.8,0.5c-0.6,1.3-1.5,2.7-2.3,3.5
			c-0.3-0.3-1.1-0.8-1.5-1.1C168.9,363.4,169.7,362.2,170.1,361.2z M172.4,361.8l1.4-0.8c0.6,0.8,1.4,1.8,1.8,2.5l-1.5,0.9
			C173.8,363.8,173,362.7,172.4,361.8z M172.9,353.4v-1.4h-1.6v1.4H172.9z M172.9,356.4V355h-1.6v1.4H172.9z M172.9,359.3v-1.4h-1.6
			v1.4H172.9z M174.6,350.4V361h-5v-10.6H174.6z M178.1,349.8h1.8v13c0,1-0.2,1.5-0.8,1.8c-0.6,0.3-1.5,0.4-2.7,0.4
			c-0.1-0.5-0.3-1.3-0.6-1.8c0.8,0,1.6,0,1.9,0c0.2,0,0.3-0.1,0.3-0.3V349.8z M192.4,351.8v-0.6h-6.8v0.6H192.4z M192.4,353.3v-0.6
			h-6.8v0.6H192.4z M194.4,350.2v4h-10.6v-4H194.4z M196.5,354.8v1.4h-14.8v-1.4H196.5z M185.3,359.8h2.8v-0.6h-2.8V359.8z
			 M185.3,357.7v0.6h2.8v-0.6H185.3z M192.9,358.2v-0.6H190v0.6H192.9z M192.9,359.8v-0.6H190v0.6H192.9z M190,363.2h6.5v1.4h-14.8
			v-1.4h6.4v-0.6h-5v-1.3h5v-0.5h-4.7v-4.2h11.3v4.2H190v0.5h5v1.3h-5V363.2z M201.9,351.6v3.8h-1.9v-5.1h10.7v5.1h-2v-3.8H201.9z
			 M208.2,352.2v1.1h-5.8v-1.1H208.2z M208.2,355.1h-5.8v-1.1h5.8V355.1z M210,359.5h-2.2c0.3,0.6,0.7,1.1,1.1,1.5
			C209.4,360.6,209.7,360.1,210,359.5z M201.2,361.4v0.8c0.7-0.1,1.5-0.1,2.3-0.2v-0.6H201.2z M203.4,357.4h-2.3v0.7h2.3V357.4z
			 M201.2,359.4v0.7h2.3v-0.7H201.2z M211.1,358l1.2,0.5c-0.4,1.5-1.1,2.8-2,3.8c0.8,0.5,1.7,0.9,2.8,1.1c-0.4,0.3-0.9,1-1.1,1.5
			c-1.1-0.3-2.1-0.8-2.9-1.4c-0.9,0.7-1.8,1.2-2.9,1.6c-0.2-0.4-0.6-1-1-1.4v1.5h-1.8v-1.4c-1.9,0.2-3.8,0.4-5.3,0.6l-0.1-1.7
			c0.4,0,0.9-0.1,1.4-0.1v-4.9h-1.3v-1.5h14.5v1.5h-7.4v6c0.9-0.3,1.7-0.7,2.5-1.2c-0.6-0.7-1.2-1.6-1.6-2.5l0.6-0.2h-1V358h5.1
			L211.1,358z M215.4,357.7l-1.5-0.5c0.4-1.1,0.7-2.9,0.8-4.3l1.4,0.2C216,354.6,215.7,356.5,215.4,357.7z M220.2,355.5l-1.4,0.7
			c-0.1-0.6-0.4-1.4-0.7-2.2v11h-1.9v-15.2h1.9v3.1l0.9-0.4C219.4,353.4,220,354.7,220.2,355.5z M224.7,354v1.5c0,0.5,0,1,0,1.5h1.7
			v-3H224.7z M229.3,358.8h-4.9c-0.5,2.3-1.7,4.6-4.6,6.2c-0.3-0.4-0.9-1.1-1.4-1.5c2.5-1.2,3.5-2.9,4-4.7h-3.2V357h3.5
			c0-0.5,0-1,0-1.5V354h-2.8v-1.8h2.8v-2.5h2v2.5h3.5v4.8h1V358.8z M224.5,359.7l1.6-0.8c1.1,1.6,2.6,3.7,3.3,5l-1.8,1
			C227,363.6,225.5,361.4,224.5,359.7z M242.9,355.1h-1.8v1.4h1.8V355.1z M237.4,355.1v1.4h1.8v-1.4H237.4z M239.2,353.7v-0.9h-4
			v-1.6h4v-1.4h1.9v1.4h4.3v1.6h-4.3v0.9h3.7v4.4h-3.1c1.3,0.8,2.8,1.8,3.6,2.5l-1.2,1.3c-0.6-0.7-1.8-1.6-3-2.4v2.9h-1.9v-2.9
			c-0.9,1.1-2,2.1-3.2,2.7c-0.3-0.4-0.8-1.1-1.2-1.5c1.3-0.5,2.7-1.5,3.6-2.6h-2.7v-4.4H239.2z M234.2,352.4l-1.7,0.8
			c-0.3-0.8-0.8-1.9-1.2-2.8l1.7-0.6C233.3,350.5,233.9,351.6,234.2,352.4z M234.1,357.1l1.1,0.5c-0.3,1.5-0.7,2.9-1.4,4.1
			c0.2,0.1,0.5,0.3,0.9,0.5c1.1,0.6,2.7,0.7,4.5,0.7c1.8,0,4.8-0.2,6.6-0.4c-0.2,0.5-0.5,1.5-0.6,2.1c-1.3,0.1-4.2,0.2-6.1,0.2
			c-2.1,0-3.5-0.2-4.7-0.8c-0.7-0.4-1.3-0.8-1.6-0.8c-0.4,0-1,1.1-1.4,1.9l-1.3-1.9c0.5-0.6,1-1.1,1.6-1.4c0.6-0.8,1.1-1.9,1.4-2.9
			h-2.3c0.4-1,0.9-2.3,1.3-3.5h-1.6v-1.7h4.1c-0.4,1.2-0.9,2.5-1.3,3.6h0.4L234.1,357.1z"/>
	</g>
	<g>
		<defs>
			
				<rect id="SVGID_1_" x="18.1" y="8.3" transform="matrix(0.1644 -0.9864 0.9864 0.1644 -1.8861 128.2088)" width="113.3" height="113.9"/>
		</defs>
		<clipPath id="SVGID_2_">
			<use xlink:href="#SVGID_1_"  style="overflow:visible;"/>
		</clipPath>
		<g class="st7">
			<g>
				<path class="st8" d="M112.9,52.2c0.6,0.5,1.3,0.8,2,1c0.6,0.2,1.1,0.3,1.7,0.4c0.5,0.1,1.1,0.1,1.6,0.1c0.2,0,0.4,0,0.6,0
					c0.1,0,0.2,0,0.3,0c2.6-0.3,5-3.5,6.4-7.4c0.3-0.9,0.6-1.9,0.8-2.9c1-5.4-1-10.4-2.3-12c-0.9-1-2.8-2.1-5.7-2.6
					c-0.1,0-0.3,0-0.4-0.1l-0.3,1.5l-0.1,0.6l-0.3,1.2l-3.4,16l-0.5,2.2l-0.2,0.8L112.9,52.2z"/>
				<path class="st8" d="M115.4,52.1c3.6,0.4,7.1-4.2,7.7-10.2c0.7-6-1.7-11.2-5.3-11.6c-3.6-0.4-7.1,4.2-7.7,10.2
					C109.4,46.5,111.8,51.7,115.4,52.1z"/>
				<path class="st9" d="M115.4,52.1c3.6,0.4,7.1-4.2,7.7-10.2c0.7-6-1.7-11.2-5.3-11.6c-3.6-0.4-7.1,4.2-7.7,10.2
					C109.4,46.5,111.8,51.7,115.4,52.1z"/>
				<path class="st10" d="M115.4,51.2c0.5,0.8,1.1,1.4,1.9,1.9c3.5-1.1,6.4-5.5,7-11.2c0.2-1.6,0.2-3.2-0.1-4.8
					c-1.3-2-2.7-4-4.3-5.8c-0.3,0-0.5,0-0.8,0C114,31.9,109.9,43.3,115.4,51.2z"/>
				<path class="st11" d="M118.3,53.8c0.3,0.3,0.6,0.5,0.9,0.7c0-0.4,0-0.6,0-0.7c2.6-0.3,5-3.5,6.4-7.4c-2,3.3-5.2,6.3-7.3,6.3
					c-0.3,0-0.5,0.1-0.5,0.2c0,0.1,0,0.1,0,0.2C117.8,53.4,118,53.6,118.3,53.8z"/>
				<path class="st8" d="M108.7,40.2c0.8-6.8,4.9-11.8,9.2-11.4c0.1,0,0.3,0,0.4,0.1c3,0.6,5.3,3.9,5.9,8.3c0.2,1.6,0.3,3.2,0.1,4.8
					c-0.6,5.1-3,9.2-6.1,10.8c-0.2,0.1-0.3,0.2-0.5,0.2c-0.2,0.1-0.3,0.1-0.4,0.2c-0.7,0.2-1.4,0.3-2.1,0.2l-0.2,0
					C110.8,52.6,108,46.8,108.7,40.2z M110.1,40.3c-0.1,0.5-0.1,1.1-0.1,1.6c0,3.7,1.3,7,3.3,8.4c0.6,0.4,1.3,0.7,2.1,0.8
					c3.6,0.4,7-3.8,7.6-9.4c0.5-4.8-1.1-9-3.9-10.4c-0.5-0.2-1-0.4-1.5-0.4c-0.1,0-0.1,0-0.2,0c-2.7-0.2-5.2,2.2-6.5,5.8
					C110.5,37.9,110.2,39.1,110.1,40.3z"/>
				<path class="st12" d="M108.7,40.2c0.8-6.8,4.9-11.8,9.2-11.4c0.1,0,0.3,0,0.4,0.1c3,0.6,5.3,3.9,5.9,8.3
					c0.2,1.6,0.3,3.2,0.1,4.8c-0.6,5.1-3,9.2-6.1,10.8c-0.2,0.1-0.3,0.2-0.5,0.2c-0.2,0.1-0.3,0.1-0.4,0.2c-0.7,0.2-1.4,0.3-2.1,0.2
					l-0.2,0C110.8,52.6,108,46.8,108.7,40.2z M110.1,40.3c-0.1,0.5-0.1,1.1-0.1,1.6c0,3.7,1.3,7,3.3,8.4c0.6,0.4,1.3,0.7,2.1,0.8
					c3.6,0.4,7-3.8,7.6-9.4c0.5-4.8-1.1-9-3.9-10.4c-0.5-0.2-1-0.4-1.5-0.4c-0.1,0-0.1,0-0.2,0c-2.7-0.2-5.2,2.2-6.5,5.8
					C110.5,37.9,110.2,39.1,110.1,40.3z"/>
				<path class="st8" d="M116.8,80.6c0.6,0.3,1.3,0.2,1.7-1c0.8-2.1,0.5-20.6,0.7-25c0-0.4,0-0.6,0-0.7c0-0.1,0-0.1,0-0.1
					c0-0.2-0.2-0.3-0.4-0.4c-0.3-0.1-0.6-0.2-1-0.1c-0.5,0-1.1,0.2-1.1,0.5c0,0,0,0,0,0.1c-0.1,1.5-0.9,24.4-0.9,25.6
					C115.8,79.7,116.2,80.3,116.8,80.6z"/>
				<path class="st13" d="M120,35c-0.2-0.4-0.5-0.6-0.7-0.7c-0.2,0-0.4,0-0.6,0.1c-0.2,0.1-0.4,0.2-0.5,0.3"/>
				<path class="st13" d="M120.7,42.1c0.1-0.7,0.2-1.4,0.2-2.1c0-1.2-0.1-2.3-0.3-3.5"/>
				<path class="st14" d="M116.8,80.6c0.6,0.3,1.3,0.2,1.7-1c0.9-2.3,0.6-25.2,0.7-25.9c0-0.2-0.2-0.3-0.4-0.4
					C118.6,57.2,118.6,76.5,116.8,80.6z"/>
				<path class="st15" d="M121,70.1c-1,0.3-3.6,0.7-4.7,1.7c-0.3,0.2-0.5,0.5-0.8,0.8c-0.3,0.3-0.6,0.6-0.9,0.8
					c-1.8,1.7-3.1,2.3-4.8,3.6c0,0-5.9-5.9-5.2-7.1c0.5-0.7,1.9-1.5,3.5-2.5c0.7-0.4,1.4-0.9,2-1.4c0.3-0.2,0.7-0.5,1-0.8
					c0.7-0.7,1.3-1.4,1.7-2.3c1.3-2.6,1.4-6.7,3.2-6.1c1.8,0.6-1.4,5.3,3.1,0.9c1.3-1.3,4.7,2.5,4.8,5.7
					C124,64.4,123.3,69.5,121,70.1z"/>
				<path class="st15" d="M77.7,23.2C77.7,23.2,77.7,23.2,77.7,23.2c-0.2,0.3-0.3,0.6-0.5,0.9c-0.7,1.2-1.2,2.3-1.6,3.2
					c0,0.1,0,0.1-0.1,0.2c-0.1,0.3-0.2,0.6-0.3,0.8c-0.2,0.5-0.4,0.9-0.5,1.3c-0.2,0.6-0.4,1.1-0.5,1.4c-0.1,0.2-0.2,0.5-0.3,0.7
					c-1.4-0.2-0.3-1.4-2.3,1.4c-2.9,4-5.6,6.9-7.5,0.1l-2.5,3.3L61.2,37l-5.7,4.2l-4.7-6.7c2.2-4,4.6-5.3,6.3-7.2
					c1.9-2.1,3.5-4.6,5.1-6.9l0.5-0.8c0.2-0.3,0.4-0.6,0.7-1c0.7-1.1,1.5-2.1,2.3-3c1.1-1.2,2.2-1.9,3.3-2c4.2-0.3,7.9,4.9,8.7,7.9
					C77.9,22.2,77.9,22.8,77.7,23.2z"/>
				<path class="st16" d="M62.1,16c-0.2,0.4-0.4,0.8-0.5,1.1c-0.1,0.3-0.2,0.6-0.4,0.9c-0.3,0.8-0.9-0.9-1.6-0.1
					c-2.1,2.2-3.3,7.4-2.5,9.3c0.2,0.5,0.5,0.9,1,1.3c2.3,1.6,6.3-0.5,7.5-2.1c-0.2-0.5-0.1-1.1,0-1.6c0.2-0.5,0.5-1,1-1.3
					c1-0.7,2.6-0.8,2.7,1.1c1.5,1,1.8,1.1,2.5,0.2c0.2-0.2,0.1-0.1,0.4-0.5c0.7-1.1,1.4-0.8,2.3-0.5c0.6,0.2,1.2,0.3,1.8,0.3
					c0.3,0,0.7-0.1,1-0.3c0.1-0.1,0.2-0.2,0.3-0.4c0.1-0.1,0.1-0.3,0.1-0.4c0-0.6,0-1.2,0-1.8c0-0.6,0-1.2,0-1.8
					c0.1-1.4,0.1,0.2,0.8-0.3c0.1-0.1,0.1-0.2,0.1-0.2c0,0,0,0,0-0.1c0.2-1.3,3.6-3.2,1.3-3.3c-2.3-0.1-3,1.3-3.4-2
					c-0.5-3.3-2.7-5.1-5.6-3.1c-3.3,2.3-0.5-1.1-4,0.9C64,13.2,62.8,14.7,62.1,16z"/>
				<path class="st17" d="M64.1,33.1l-2.5,3.3c-1-1.6-2.2-3.2,0.1-5.6C62.2,30.3,64.1,30.6,64.1,33.1z"/>
				<path class="st8" d="M114.6,76.9c-2.7,2.3-21.7,19.4-30,17c-11.2-3.2-13.2-19.9-16.8-21.9l0,0c0,0-0.1,0-0.1,0
					c-0.6-0.3-1-0.3-1.5,0.1c-1.5,1.3-4.4,11-6,21.3c-0.6,4.3-1.1,8.7-1,12.7c0.1,4,0.2,7.6,0.3,11.2l-49.8-8.3
					c0.1-0.4,0.2-0.8,0.3-1.2c5.8-22.3,11.5-40.7,21.2-58.4c3.8-6.9,7.9-10,13.3-11.8l0.3-0.1c0.4-0.1,0.9-0.7,1.4-1.6
					c1.3-2.4,2.8-6.6,4-6.9c5-0.9,11.7,4.5,13,6.4c0.6,0.8,0.6,4.6,1.5,5.3c13.4,10.7,20.5,37.9,23.7,38.8c2,0.5,20.6-14,21.6-15
					C111.3,63.3,116,75.7,114.6,76.9z"/>
				<path class="st17" d="M75.6,27.3C75.6,27.3,75.6,27.4,75.6,27.3c-0.2,0.4-0.3,0.6-0.4,0.9c-0.2,0.5-0.4,0.9-0.5,1.3
					c-3.1-1.6-7.6-3.9-9.9-6.2c-1.3-1.3-1.9-2-2.7-2.9c-0.1-0.2-0.3-0.3-0.5-0.5c-0.6-0.6-0.1-1.4-0.5-1.8c0.1-0.3,0.3-0.6,0.4-0.9
					l-0.4-0.3l3-2.7l1.5,1.5l8.8,8.4l1.3,1.2C75.7,25.2,75.8,26.9,75.6,27.3z"/>
				<path class="st11" d="M60.1,93.5c1.6-10.3,4.6-20.1,6-21.3c0.4-0.4,0.9-0.4,1.5-0.1C63,69.7,55.7,71.4,60.1,93.5z"/>
				<path class="st2" d="M108.7,32.8c-1.7-0.6-1.8-1.4-1.7-4c-0.6,2.4-1.1,3.2-2.9,3.2c1.4,0.9,1.9,1.3,1.7,4.1
					C106.7,33.3,107.1,33.1,108.7,32.8z"/>
				<path class="st2" d="M125.9,54.9c-1.3-0.4-1.4-1.1-1.3-3.1c-0.5,1.8-0.8,2.5-2.2,2.5c1.1,0.7,1.5,1,1.4,3.2
					C124.3,55.3,124.6,55.2,125.9,54.9z"/>
				<path class="st8" d="M55,15.2c1.2,2.6,13.5,10.8,27.3,15.1c1.4,0.4-0.3-3.1-2.4-5c-0.2-0.2-0.4-0.4-0.5-0.7C79,24,79,23,79.3,22
					c0.4-1.4,0.8-2.8,1.4-4.1c2.2-3.7-0.6-8.8-5.1-9.9c-3.2-0.6-2.7,0.5-4.8-0.2c-2.8-0.8-6.1,2.3-7.9,4.8c-0.7,0.8-0.7,1.8-1.8,1.8
					C59,14.4,54.2,13.4,55,15.2z"/>
				<path class="st18" d="M61.2,14.4c3,1.9,9.9,6.1,10.4,5.8c0.6-0.4-7-5.1-8.6-7.6c-0.3,0.4-0.6,0.9-0.9,1.3
					c-0.1,0.2-0.2,0.3-0.4,0.4C61.5,14.3,61.3,14.4,61.2,14.4z"/>
				<path class="st19" d="M75.8,22.8c0.9,0.7,2.7,1.5,3.5,1.9C79,24,79,23,79.2,22c-0.7,0.3-0.5,1.1-1.9,0.7
					C75.8,22.3,74.7,21.9,75.8,22.8z"/>
				<path class="st20" d="M51.6,39.6c-1.7-0.1-4.6-0.2-7.2-2l0.3-0.1c0.4-0.1,0.9-0.7,1.4-1.6c2.1,1.1,0.9,2,2.1,2.3
					C49.5,38.5,53.5,39.7,51.6,39.6z"/>
			</g>
		</g>
	</g>
	<g>
		<path class="st1" d="M290.8,56.9c0-6,4.9-10.9,10.9-10.9h148.9c6,0,10.9,4.9,10.9,10.9v43.5H290.8V56.9z"/>
		<path class="st2" d="M356.7,81.3V65.2h4.4c4.9,0,8,2.5,8,8c0,5.4-3,8.1-7.8,8.1H356.7z M359.9,78.8h1c3,0,4.9-1.6,4.9-5.5
			c0-3.9-1.9-5.4-4.9-5.4h-1V78.8z M369.9,81.3l4.5-8.3l-4.2-7.8h3.6l1.6,3.3c0.4,0.8,0.7,1.5,1.2,2.5h0.1c0.4-1,0.7-1.8,1.1-2.5
			l1.5-3.3h3.4l-4.2,7.9l4.5,8.2h-3.6l-1.8-3.6c-0.4-0.8-0.8-1.7-1.3-2.7h-0.1c-0.4,1-0.8,1.8-1.2,2.7l-1.7,3.6H369.9z M388.2,74.7
			h3.8l-0.5-1.8c-0.5-1.7-0.9-3.5-1.4-5.3H390c-0.4,1.8-0.9,3.6-1.4,5.3L388.2,74.7z M393.8,81.3l-1.1-4.1h-5.2l-1.1,4.1h-3.3
			l5.2-16.1h3.8l5.2,16.1H393.8z"/>
		<path class="st3" d="M290.8,100.4h170.7v274.7c0,6-4.9,10.9-10.9,10.9H301.7c-6,0-10.9-4.9-10.9-10.9V100.4z"/>
		<path class="st6" d="M365.1,127.7v-1h-0.7v1H365.1z M365.1,130v-1h-0.7v1H365.1z M362.3,129v1h0.7v-1H362.3z M362.3,126.7v1h0.7
			v-1H362.3z M364.6,125.3h2.1v6h-2.1v1h2.3v1.6h-2.3v2.5h-1.8V134h-2.4v-1.6h2.4v-1h-2v-6h2v-0.9h-2.3v-1.6h2.3v-1.5h1.8v1.5h2.3
			v1.6h-2.3V125.3z M375.7,128.4l-1.6,1.1c-0.1-0.1-0.1-0.2-0.2-0.4c-0.4,1.2-0.9,2.4-1.5,3.3c0.9,1,2.1,1.8,3.4,2.4
			c-0.4,0.4-1,1.1-1.3,1.6c-1.3-0.6-2.4-1.4-3.3-2.4c-0.9,1-2.1,1.8-3.5,2.5c-0.2-0.4-0.8-1.1-1.2-1.5c1.4-0.6,2.6-1.5,3.5-2.6
			c-0.6-1-1.1-2.1-1.6-3.3c-0.1,0.2-0.3,0.3-0.4,0.5c-0.4-0.3-1.1-0.9-1.6-1.2c0.8-0.8,1.6-2.2,2.2-3.3l1.8,0.6c-0.5,1-1.2,2-1.8,3
			l1.3-0.3c0.3,0.9,0.6,1.7,1.1,2.4c0.4-0.8,0.8-1.6,1-2.5l1.4,0.4c-0.5-0.8-1.2-1.8-1.7-2.6l1.4-0.9h-6.3v-1.8h3.5
			c-0.2-0.5-0.6-1.1-0.9-1.6l1.6-0.7c0.4,0.6,0.8,1.4,1.1,1.9l-0.9,0.4h3.9v1.8h-1.9C374.2,126.2,375.2,127.6,375.7,128.4z
			 M386,133.6v-0.9h-3.6v0.9H386z M391.1,129.2v5.5c0,0.8-0.2,1.2-0.8,1.4c-0.6,0.2-1.5,0.2-2.6,0.2c-0.1-0.4-0.4-1-0.6-1.4h-4.7
			v0.7h-1.8v-4.3h7.1v3.6h-0.2c0.6,0,1.1,0,1.3,0c0.2,0,0.3-0.1,0.3-0.3v-3.9h-9.7v5.7h-1.9v-7.3H391.1z M387.5,127.2v-0.9h-6.3v0.9
			H387.5z M389.5,125v3.5h-10.3V125H389.5z M385.6,122.8h5.9v1.6h-14.4v-1.6h6.3c-0.1-0.4-0.3-0.8-0.4-1.1l2-0.5
			C385.1,121.6,385.4,122.2,385.6,122.8z"/>
		<path class="st5" d="M290.8,157.5h170.7"/>
		<path class="st6" d="M364.5,180.2v3.8h-1.9v-5.1h10.7v5.1h-2v-3.8H364.5z M370.8,180.8v1.1H365v-1.1H370.8z M370.8,183.7H365v-1.1
			h5.8V183.7z M372.5,188.1h-2.2c0.3,0.6,0.7,1.1,1.1,1.5C371.9,189.2,372.3,188.7,372.5,188.1z M363.7,190v0.8
			c0.7-0.1,1.5-0.1,2.3-0.2V190H363.7z M366,186h-2.3v0.7h2.3V186z M363.7,188v0.7h2.3V188H363.7z M373.7,186.6l1.2,0.5
			c-0.4,1.5-1.1,2.8-2,3.8c0.8,0.5,1.7,0.9,2.8,1.1c-0.4,0.3-0.9,1-1.1,1.5c-1.1-0.3-2.1-0.8-2.9-1.4c-0.9,0.7-1.8,1.2-2.9,1.6
			c-0.2-0.4-0.6-1-1-1.4v1.5H366v-1.4c-1.9,0.2-3.8,0.4-5.3,0.6l-0.1-1.7c0.4,0,0.9-0.1,1.4-0.1V186h-1.3v-1.5h14.5v1.5h-7.4v6
			c0.9-0.3,1.7-0.7,2.5-1.2c-0.6-0.7-1.2-1.6-1.6-2.5l0.6-0.2h-1v-1.5h5.1L373.7,186.6z M391.5,184.8h-5.7c1.1,3.2,3.1,5.7,6.1,7
			c-0.5,0.4-1.1,1.3-1.4,1.8c-3-1.4-4.8-3.8-6.1-6.9c-0.9,2.7-2.6,5.3-6.1,6.9c-0.3-0.5-0.9-1.2-1.5-1.6c3.7-1.7,5.3-4.4,5.9-7.2
			h-5.6v-2h5.9c0.2-1.5,0.1-3,0.2-4.4h2.1c0,1.3,0,2.8-0.2,4.4h6.4V184.8z"/>
		<path class="st5" d="M290.8,214.6h170.7"/>
		<path class="st4" d="M363.9,237.1v4h-1.2v-4.9h10.5v4.9h-1.2v-4H363.9z M371.2,238v0.8h-6.6V238H371.2z M371.2,240.6h-6.6v-0.8
			h6.6V240.6z M366.3,244v-1.1h-3v1.1H366.3z M363.3,247v1.3c0.9-0.1,2-0.2,3-0.4v-1H363.3z M366.3,246.1v-1.1h-3v1.1H366.3z
			 M375.1,242.9h-7.6v7.7h-1.1V249c-2,0.3-4,0.5-5.5,0.7l-0.1-1.1c0.5,0,1-0.1,1.6-0.1v-5.5h-1.4v-1h14.3V242.9z M373.2,244.9h-3.4
			c0.4,0.9,1,1.7,1.6,2.4C372.2,246.6,372.7,245.8,373.2,244.9z M373.9,243.9l0.8,0.3c-0.5,1.5-1.3,2.8-2.4,3.8
			c0.9,0.7,2,1.2,3.2,1.5c-0.2,0.2-0.6,0.7-0.7,1c-1.2-0.4-2.4-1-3.3-1.7c-1,0.8-2.2,1.4-3.3,1.8c-0.1-0.3-0.4-0.7-0.7-0.9
			c1.1-0.3,2.2-0.9,3.1-1.6c-0.8-0.8-1.5-1.8-1.9-3l0.3-0.1h-0.9v-1h5.6L373.9,243.9z M386.5,246.4h-4.7v1.5h4.7V246.4z
			 M387.6,245.5v3.3h-5.7v0.8h-1.1v-4.1H387.6z M390.8,243.5v5.8c0,0.6-0.1,0.8-0.6,1c-0.4,0.1-1.1,0.2-2.2,0.1
			c-0.1-0.3-0.2-0.7-0.4-0.9c0.7,0,1.5,0,1.6,0c0.2,0,0.3-0.1,0.3-0.3v-4.8h-10.7v6.1h-1.2v-7.1H390.8z M387.8,241.7v-1.5h-7v1.5
			H387.8z M379.6,239.3h9.5v3.3h-9.5V239.3z M385.2,237.4h6.2v1h-14.2v-1h6.7c-0.1-0.5-0.3-1-0.5-1.5l1.2-0.3
			C384.7,236.2,385,236.8,385.2,237.4z"/>
		<path class="st5" d="M290.8,271.8h170.7"/>
		<path class="st4" d="M353.3,294.3v4.1h-5.1v-4.1h0.9v3.1h1.2v-4.7h0.9v4.7h1.1v-3.1H353.3z M347.9,300.5l0-1h5.4v1H347.9z
			 M346.6,292.8l1,0.4c-0.7,1.3-1.8,2.8-2.8,3.7c-0.1-0.2-0.4-0.7-0.6-0.9C345.1,295.2,346.1,293.8,346.6,292.8z M346.9,296l1,0.4
			c-0.3,0.7-0.6,1.4-1,2.1v9.2h-1.1v-7.5c-0.4,0.6-0.8,1.1-1.2,1.5c-0.1-0.2-0.4-0.8-0.6-1C345.1,299.5,346.2,297.7,346.9,296z
			 M348.7,301.1h1.1c0,2.9-0.3,5-1.7,6.3c-0.1-0.3-0.5-0.7-0.7-0.9C348.5,305.5,348.7,303.7,348.7,301.1z M352.5,304.2l1.3-0.7
			c0.1,0.3,0.2,0.7,0.3,0.9c-2.1,1.3-2.4,1.6-2.6,1.9c-0.1-0.3-0.3-0.8-0.5-1.1c0.2-0.1,0.5-0.4,0.5-1v-3h1V304.2z M357.3,296.9
			h-1.8c0,0.2-0.1,0.3-0.1,0.5c0.2,1.8,0.5,3.4,1,4.8C356.8,300.7,357.1,298.9,357.3,296.9z M359.1,296.9h-0.8
			c-0.3,2.7-0.7,4.9-1.5,6.7c0.6,1.3,1.4,2.3,2.4,3c-0.2,0.2-0.6,0.6-0.7,0.9c-0.9-0.7-1.6-1.6-2.2-2.8c-0.6,1.1-1.4,2.1-2.5,2.9
			c-0.1-0.2-0.5-0.6-0.8-0.8c1.2-0.9,2.1-2,2.7-3.4c-0.5-1.3-0.8-2.9-1.1-4.6c-0.2,0.4-0.4,0.8-0.6,1.1c-0.1-0.2-0.5-0.7-0.8-0.9
			c1.1-1.5,1.7-3.9,2-6.4l1,0.2c-0.2,1-0.3,2-0.6,2.9h3.3V296.9z M372,295v-0.9h-8.1v0.9H372z M372,296.6v-0.9h-8.1v0.9H372z
			 M373.2,293.3v4h-10.4v-4H373.2z M375.2,297.9v0.9h-14.5v-0.9H375.2z M363.6,302.9h3.8v-1h-3.8V302.9z M363.6,300.3v0.9h3.8v-0.9
			H363.6z M372.4,301.3v-0.9h-3.9v0.9H372.4z M372.4,302.9v-1h-3.9v1H372.4z M368.5,306.3h6.8v0.9h-14.7v-0.9h6.7v-0.9H362v-0.9h5.4
			v-0.9h-4.9v-4.1h11.2v4.1h-5.1v0.9h5.4v0.9h-5.4V306.3z M378.2,300.1v1.5h1.5v-1.5H378.2z M378.2,297.7v1.5h1.5v-1.5H378.2z
			 M382.2,299.2v-1.5h-1.6v1.5H382.2z M382.2,301.6v-1.5h-1.6v1.5H382.2z M380.7,302.5v1.3h2.8v1.1h-2.8v2.9h-1.1v-2.9h-2.8v-1.1
			h2.8v-1.3h-2.3v-5.7h2.4v-1.2H377v-1.1h2.7v-1.8h1.1v1.8h2.6v1.1h-2.6v1.2h2.4v5.7H380.7z M387.1,301.7H385v1.7h2.1V301.7z
			 M390.4,303.4v-1.7h-2.3v1.7H390.4z M388.1,306h2.3v-1.7h-2.3V306z M385,306h2.1v-1.7H385V306z M383.9,307.7v-7h7.7v7h-1.2v-0.5
			H385v0.6H383.9z M389.8,298.6v-1.8h-4.3v1.8H389.8z M384.4,295.8h6.6v3.7h-6.6V295.8z M383.8,293.7h7.8v1h-7.8V293.7z
			 M395.6,300.1v1.3c1-0.1,2.1-0.2,3.2-0.3v-1H395.6z M398.8,295.6h-3.2v1.4h3.2V295.6z M398.8,299.2v-1.3h-3.2v1.3H398.8z
			 M400.2,300.5l0.9,0.5c-0.3,0.4-0.7,0.9-1.1,1.3v4.1c0,0.7-0.2,1-0.6,1.2c-0.4,0.2-1.2,0.2-2.3,0.2c-0.1-0.3-0.2-0.8-0.4-1.1
			c0.8,0,1.6,0,1.8,0c0.2,0,0.3-0.1,0.3-0.3v-3c-1.6,1.4-3.5,2.6-5.3,3.5c-0.1-0.2-0.4-0.8-0.6-1c2-0.9,4.1-2.2,5.7-3.8
			c-2,0.2-4,0.4-5.5,0.6l-0.1-1c0.4,0,0.9-0.1,1.4-0.1v-6.9h1.6c0.2-0.6,0.5-1.3,0.6-1.8l1.2,0.2c-0.2,0.6-0.5,1.2-0.7,1.6h2.7v6.1
			L400.2,300.5z M408,296.5v1.2h-1.7v8.5c0,0.8-0.2,1.1-0.7,1.3c-0.5,0.2-1.3,0.2-2.6,0.2c0-0.3-0.2-0.8-0.4-1.1c1,0,1.9,0,2.2,0
			c0.3,0,0.4-0.1,0.4-0.4v-8.5h-4.3v-1.2h4.3v-3.7h1.2v3.7H408z M404.5,302.9l-1,0.5c-0.3-1-1.1-2.6-1.9-3.8l1-0.4
			C403.4,300.3,404.2,301.8,404.5,302.9z"/>
		<path class="st5" d="M290.8,328.9h170.7"/>
		<path class="st4" d="M321.5,353.7v2.5h-1.2v-3.5h6.2v-1.2H321v-0.9h12.3v0.9h-5.6v1.2h6.3v3.5h-1.2v-2.5h-5.2v3.6h-1.2v-3.6H321.5
			z M332.5,356.6l-0.3,0.8c-0.9-0.3-2.5-0.7-3.8-0.9l0.3-0.7C329.9,356,331.6,356.3,332.5,356.6z M331.7,353.9l0.5,0.7
			c-0.9,0.4-2.3,0.7-3.2,0.9l-0.4-0.6C329.5,354.7,330.9,354.2,331.7,353.9z M322.2,354.6l0.4-0.7c1,0.2,2.4,0.5,3.1,0.8l-0.3,0.7
			C324.6,355.3,323.2,354.8,322.2,354.6z M322.1,357.4l-0.3-0.9c1-0.1,2.4-0.3,3.9-0.5l0,0.8C324.4,357,323.2,357.2,322.1,357.4z
			 M334.3,358.7h-6.6c-0.1,0.4-0.3,0.8-0.4,1.2h6.1v3.7c0,0.6-0.1,0.8-0.5,1c-0.4,0.2-1,0.2-1.9,0.2c-0.1-0.3-0.2-0.7-0.4-1
			c0.7,0,1.2,0,1.4,0c0.2,0,0.2-0.1,0.2-0.2v-2.7h-2.5v3.8h-1.1v-3.8h-2.5v3.8h-1.1v-3.8h-2.4v3.9h-1.2v-4.9h4.7
			c0.1-0.4,0.2-0.8,0.3-1.2h-6.3v-1h14.2V358.7z M344,357.5v0.8l3,0c-0.4-0.2-0.8-0.3-1.1-0.5l0.3-0.3H344z M339,356.7h3.8v-1H339
			V356.7z M339,353.9v1h3.8v-1H339z M348,353.9h-4v1h4V353.9z M348,356.7v-1h-4v1H348z M350.8,360.2v1h-3.9v2.4c0,0.6-0.1,1-0.7,1.1
			c-0.5,0.2-1.3,0.2-2.6,0.2c-0.1-0.3-0.2-0.8-0.4-1.1c1,0,1.9,0,2.2,0c0.2,0,0.3,0,0.3-0.3v-2.4h-6.1c1,0.6,2.1,1.4,2.7,2l-0.8,0.8
			c-0.6-0.7-1.7-1.6-2.7-2.2l0.8-0.7h-3.4v-1h9.6v-1c-3.3,0.1-6.6,0.2-8.9,0.2l0-1c1.6,0,3.7,0,6.1-0.1v-0.8h-5v-4.4h5v-0.9h-6.3v-1
			h6.3V350h1.2v1.2h6.1v1H344v0.9h5.2v4.4h-1.7c1,0.4,2.1,1,2.8,1.5l-0.7,0.8c-0.3-0.2-0.6-0.5-1-0.7l-1.9,0h0.3v1H350.8z
			 M357.5,361.8l0.9,0.4c-1.2,0.9-3.3,1.7-5,2.1c-0.2-0.3-0.5-0.7-0.7-0.9C354.3,363.1,356.4,362.5,357.5,361.8z M361.4,362.3
			l0.7-0.7c1.5,0.5,3.6,1.3,4.7,1.8l-0.8,0.8C365.1,363.7,363,362.9,361.4,362.3z M362.4,353.8h-5.1c0.4,0.5,0.7,1.2,0.9,1.6
			l-0.7,0.2h4.5l-0.6-0.2C361.8,355,362.2,354.3,362.4,353.8z M360.4,359.9h6.5v1h-6.5v3.9h-1.2V361h-6.4v-1h6.4v-1.2h-4.9v-0.9h4.9
			v-1.2h-5.7v-1h3.5c-0.2-0.5-0.5-1.1-0.8-1.6l0.9-0.2h-4.2v-1h2.6c-0.2-0.7-0.8-1.6-1.3-2.4l1-0.4c0.6,0.7,1.2,1.7,1.4,2.4
			l-0.8,0.3h2v-2.9h1.1v2.9h1.9v-2.9h1.2v2.9h2l-0.7-0.2c0.5-0.7,1-1.7,1.3-2.5l1.2,0.3c-0.5,0.8-1,1.7-1.4,2.4h2.5v1h-4.2l1.1,0.3
			c-0.4,0.5-0.8,1.1-1.1,1.5h3.7v1h-5.9v1.2h5.1v0.9h-5.1V359.9z M376.8,353.5L376.8,353.5c-0.2-0.2-0.5-0.6-0.7-0.7
			c1.2-0.5,1.5-1,1.5-1.6v-0.8h3.9v1.5c0,0.3,0,0.4,0.2,0.4h0.7c0.2,0,0.5,0,0.7,0c0,0.2,0,0.6,0.1,0.8c-0.2,0-0.5,0.1-0.7,0.1h-0.9
			c-0.9,0-1.1-0.3-1.1-1.2v-0.6h-1.9c0,0.8-0.3,1.6-1.5,2.2h4.4l0.2,0l0.6,0.3c-0.4,0.9-1,1.6-1.7,2.2c0.8,0.4,1.5,0.7,2,1l-0.5,0.7
			c-0.6-0.3-1.4-0.8-2.3-1.2c-0.9,0.6-1.9,1-2.9,1.2c-0.1-0.2-0.3-0.6-0.5-0.8c0.8-0.2,1.7-0.5,2.5-0.9c-0.7-0.3-1.4-0.6-2-0.9
			l0.4-0.6c0.7,0.3,1.5,0.6,2.4,1c0.5-0.3,0.9-0.8,1.2-1.2h-4.1V353.5z M369.6,355.6v-4.4h-0.5v-0.8h7.2v0.8h-5.7v4.4
			c0,0.6,0.2,0.8,0.8,0.8h3.4c0.4,0,1.1,0,1.5-0.1c0,0.3,0.1,0.6,0.1,0.8c-0.3,0.1-0.9,0.1-1.5,0.1h-3.6
			C370,357.2,369.6,356.8,369.6,355.6z M376.1,354.2h-2.2l0,0c0.8,0.4,1.6,1,2,1.4l-0.5,0.6c-0.4-0.4-1.1-0.9-1.8-1.3
			c-0.3,0.5-0.9,1-2,1.4c-0.1-0.2-0.4-0.5-0.5-0.6c1.2-0.4,1.7-0.9,1.9-1.5h-2v-0.7h2.2v-0.1v-0.8h-1c-0.2,0.3-0.4,0.5-0.6,0.7
			c-0.1-0.1-0.5-0.3-0.7-0.4c0.5-0.5,0.9-1.1,1.2-1.8l0.8,0.2c-0.1,0.2-0.1,0.4-0.2,0.6h3.2v0.7H374v0.8v0.1h2.1V354.2z
			 M372.9,362.8v-0.7h6.8v0.7H372.9z M377.1,359.3v-0.7h-1.7v0.7H377.1z M380.8,360.1h-2.7v0.5c0,0.3,0.1,0.4,0.6,0.4h1.9
			c0.1,0,0.2,0,0.3,0V360.1z M371.5,363.4h9.4v-1.8h-0.2h-2.1c-1.2,0-1.5-0.2-1.5-1v-0.5h-1.7c-0.2,0.8-0.9,1.4-3.3,1.8
			c-0.1-0.2-0.4-0.6-0.5-0.7c1.9-0.2,2.6-0.6,2.8-1.1h-2.9V363.4z M383.5,358.6h-5.4v0.7h3.9v5.5h-1.1v-0.6h-9.4v0.6h-1.1v-5.5h4.1
			v-0.7h-5.7v-0.8h14.8V358.6z M389.6,359.4h-2.9v2.8h2.9V359.4z M389.5,353.4h-2.7v2.4h2.7V353.4z M386.7,356.9v1.5h4v4.9h-4v1.1
			h-1.1v-11.9h1.4c0.3-0.7,0.5-1.7,0.7-2.4l1.2,0.3c-0.3,0.7-0.6,1.5-0.9,2.1h2.4v4.5H386.7z M399.8,351.9H396v2h3.3v7.2
			c0,0.6-0.1,0.9-0.5,1.1c-0.4,0.2-1,0.2-1.8,0.2c0-0.3-0.2-0.8-0.4-1.1c0.6,0,1.1,0,1.3,0c0.2,0,0.2,0,0.2-0.2V355H396v9.8h-1.1
			V355h-2v7.3h-1.1v-8.5h3.1v-2h-3.7v-1.1h8.7V351.9z M414.2,352.7h-3.1c-0.6,1.8-1.7,3.1-4,4c-0.1-0.2-0.4-0.7-0.7-0.9
			c2-0.7,3-1.7,3.5-3.1h-2.9v-1h3.1c0.1-0.5,0.2-1.1,0.2-1.8h1.1c0,0.6-0.1,1.2-0.2,1.8h3.1v0h0.9c0,0,0,0.3,0,0.5
			c-0.2,2.4-0.4,3.4-0.8,3.7c-0.3,0.3-0.6,0.4-1,0.4c-0.4,0-1,0-1.7,0c0-0.3-0.1-0.7-0.3-1c0.7,0.1,1.4,0.1,1.6,0.1
			c0.2,0,0.4,0,0.5-0.1C413.9,355.1,414,354.3,414.2,352.7z M406.5,355.3h-2v9.4h-1.2v-9.4h-2v-1.1h2V350h1.2v4.3h2V355.3z
			 M409.9,358.5h0.6c0,0,0,0.3,0,0.5c-0.1,3.7-0.3,5-0.6,5.5c-0.2,0.3-0.5,0.4-0.8,0.4c-0.3,0-0.8,0-1.2,0c0-0.3-0.1-0.7-0.3-0.9
			c0.5,0,0.9,0,1.1,0c0.2,0,0.3,0,0.4-0.1c0.2-0.3,0.3-1.4,0.4-4.4h-1.3c-0.2,2.3-0.9,4.3-2.4,5.5c-0.1-0.2-0.5-0.6-0.7-0.8
			c1.3-1.1,1.8-2.7,2-4.8h-1.6v-1h1.7c0-0.5,0-1.1,0.1-1.6h1c0,0.6,0,1.1-0.1,1.6L409.9,358.5L409.9,358.5z M415.4,358.5h0.7
			c0,0,0,0.3,0,0.5c-0.1,3.7-0.2,5-0.6,5.4c-0.2,0.3-0.5,0.4-0.9,0.4c-0.3,0-0.8,0-1.3,0c0-0.3-0.1-0.7-0.3-0.9c0.5,0,1,0,1.2,0
			c0.2,0,0.3,0,0.4-0.2c0.2-0.3,0.3-1.4,0.4-4.3h-1.4c-0.3,2.4-0.9,4.2-2.5,5.5c-0.1-0.3-0.5-0.6-0.7-0.8c1.4-1.1,1.9-2.7,2.2-4.7
			H411v-1h1.6c0-0.5,0-1.1,0.1-1.7h1.1c0,0.6,0,1.1-0.1,1.7L415.4,358.5L415.4,358.5z M419.8,358.7v2.8c0.9-0.2,2-0.4,3.1-0.7v-2.2
			H419.8z M422.9,351.8h-3.1v2.4h3.1V351.8z M422.9,357.6v-2.4h-3.1v2.4H422.9z M424.9,360.4l0.1,1.1c-2.5,0.6-5.3,1.2-7.2,1.7
			l-0.2-1.2l1.2-0.2v-11.1h5.3v9.9L424.9,360.4z M428.4,353.6h3.7c0,0,0,0.5,0,0.6c-0.2,6.8-0.3,9.2-0.9,9.9
			c-0.3,0.4-0.7,0.6-1.2,0.6c-0.5,0-1.4,0-2.2,0c0-0.4-0.1-0.8-0.4-1.2c0.9,0.1,1.8,0.1,2.1,0.1c0.3,0,0.5,0,0.6-0.2
			c0.4-0.5,0.6-2.6,0.7-8.6h-2.5c-0.2,4.2-1.1,7.9-4.4,10.1c-0.2-0.3-0.6-0.7-0.9-0.9c3.1-1.9,3.9-5.3,4.1-9.2h-2.6v-1.2h2.6
			c0-1.2,0-2.4,0-3.7h1.2C428.4,351.2,428.4,352.4,428.4,353.6z"/>
	</g>
	<rect x="5.8" y="105.8" class="st0" width="87" height="46.2"/>
	<path class="st4" d="M30.5,122.5l1,0.4c-0.4,1.1-0.9,2.5-1.4,3.4l-0.8-0.3C29.8,125.1,30.3,123.5,30.5,122.5z M27.5,125.9l-0.9,0.2
		c-0.2-0.9-0.5-2.4-0.9-3.4l0.9-0.2C27,123.6,27.4,125,27.5,125.9z M27.1,129l0.8,0.3c-0.3,1.8-1,4-1.9,5.1
		c-0.1-0.3-0.4-0.9-0.6-1.2C26,132.2,26.8,130.4,27.1,129z M31.1,128h-2v8.3H28V128h-2.4v-1.1H28v-5.4h1.1v5.4h2V128z M29.3,129.4
		L30,129c0.3,0.4,1.4,2.4,1.6,2.9l-0.8,0.9C30.5,132,29.7,130.1,29.3,129.4z M33.5,132.8h4.9v-1.2h-4.9
		C33.5,132,33.5,132.4,33.5,132.8z M38.4,129.5h-4.9v1.2h4.9V129.5z M39.6,128.6v6.5c0,0.6-0.1,0.9-0.6,1.1
		c-0.4,0.2-1.1,0.2-2.1,0.2c0-0.3-0.2-0.7-0.3-1c0.7,0,1.4,0,1.6,0c0.2,0,0.3-0.1,0.3-0.2v-1.4h-5.1c-0.2,1-0.5,2.1-1.2,2.9
		c-0.2-0.2-0.6-0.7-0.8-0.8c1-1.2,1.1-2.9,1.1-4.2v-3H39.6z M36.5,126.7h4v0.9h-9.1v-0.9h3.9v-1.1H32v-0.9h3.3v-1h-3.7v-0.9h3.7
		v-1.3h1.2v1.3h3.9v0.9h-3.9v1H40v0.9h-3.6V126.7z M50.1,132.9v1.7h2.4v-1.7H50.1z M52.6,129.2v-1.6h-2.4v1.6H52.6z M52.6,131.9
		v-1.7h-2.4v1.7H52.6z M46.1,133.1v-4.8h-1.8v4.8H46.1z M56.7,134.6v1h-6.6v0.7H49v-7.8c-0.3,0.3-0.7,0.6-1.1,0.9
		c-0.1-0.2-0.5-0.7-0.7-0.9v5.7h-2.9v1.3h-1v-5.3c-0.3,0.5-0.5,1-0.8,1.4c-0.1-0.2-0.5-0.8-0.7-1c1.2-1.7,1.9-4.2,2.3-6.9h-1.9v-1.1
		h5.4v1.1h-2.3c-0.2,1.3-0.5,2.5-0.8,3.6h2.8v1.1c1.5-1,2.7-2.5,3.6-4.3h-1.9v1.7h-1.1v-2.8h3.5c0.2-0.5,0.4-1.1,0.6-1.7l1.1,0.2
		c-0.1,0.5-0.3,1-0.5,1.5h3.9v2.8h-1.1v-1.7H52c-0.4,0.9-0.9,1.7-1.4,2.4h2.1c-0.2-0.5-0.5-1-0.7-1.5l1-0.4c0.3,0.6,0.7,1.4,0.9,1.9
		h2.2v1h-2.5v1.6H56v0.9h-2.3v1.7H56v0.9h-2.3v1.7H56.7z M60.8,124.2v3.3c0,2.6-0.2,6.3-1.6,8.9c-0.2-0.2-0.8-0.5-1.1-0.6
		c1.3-2.4,1.5-5.9,1.5-8.3V123h6.3c-0.2-0.5-0.4-1-0.7-1.4l1.2-0.3c0.3,0.5,0.6,1.2,0.8,1.7H73v1.1H60.8z M69,127H65v1.7H69V127z
		 M70.1,129.7h-6.3V127h-2.6v-1h2.6v-1.4H65v1.4H69v-1.4h1.2v1.4h2.6v1h-2.6V129.7z M69.8,131.7h-5.6c0.7,0.8,1.6,1.5,2.8,2
		C68.1,133.3,69.1,132.6,69.8,131.7z M70.9,130.7l0.8,0.4c-0.8,1.4-1.9,2.4-3.4,3.2c1.4,0.5,3.1,0.8,4.9,1c-0.2,0.2-0.5,0.7-0.7,1
		c-2-0.2-3.9-0.7-5.6-1.4c-1.7,0.7-3.7,1.1-5.7,1.3c-0.1-0.3-0.3-0.8-0.5-1c1.7-0.2,3.4-0.5,5-0.9c-1.1-0.6-2-1.4-2.6-2.3l0.6-0.2
		h-2.1v-1h9.2L70.9,130.7z"/>
	<path class="st4" d="M22.9,183.3v2h2.6v-2H22.9z M22.9,186.4v2h2.6v-2H22.9z M22.9,180.3v2h2.6v-2H22.9z M21.9,179.3h4.7v10.2h-4.7
		V179.3z M24.7,190.3l0.9-0.5c0.7,0.8,1.5,1.9,1.9,2.6l-0.9,0.6C26.2,192.2,25.4,191.1,24.7,190.3z M22.5,189.8l1.1,0.3
		c-0.6,1.3-1.6,2.6-2.5,3.5c-0.2-0.2-0.7-0.6-0.9-0.8C21.2,192.1,22,191,22.5,189.8z M30.6,178.6h1.1v13.3c0,0.8-0.2,1.1-0.7,1.3
		c-0.5,0.2-1.3,0.2-2.5,0.2c0-0.3-0.2-0.8-0.4-1.1c0.9,0,1.8,0,2.1,0c0.3,0,0.4-0.1,0.4-0.4V178.6z M27.8,180.2h1.1v9.2h-1.1V180.2z
		 M18.1,179.6l0.7-0.8c0.9,0.4,2.1,1.1,2.6,1.7l-0.8,0.9C20.2,180.8,19,180.1,18.1,179.6z M17.4,184l0.7-0.9c1,0.4,2.2,1,2.7,1.6
		l-0.7,1C19.6,185.1,18.4,184.4,17.4,184z M17.8,192.6c0.7-1.3,1.6-3.3,2.3-5.2l0.9,0.7c-0.6,1.7-1.4,3.7-2.1,5.2L17.8,192.6z
		 M45.2,180.7v-0.9h-8.1v0.9H45.2z M45.2,182.3v-0.9h-8.1v0.9H45.2z M46.4,179.1v4H36v-4H46.4z M48.4,183.7v0.9H33.9v-0.9H48.4z
		 M36.8,188.7h3.8v-1h-3.8V188.7z M36.8,186.1v0.9h3.8v-0.9H36.8z M45.7,187v-0.9h-3.9v0.9H45.7z M45.7,188.7v-1h-3.9v1H45.7z
		 M41.8,192.1h6.8v0.9H33.9v-0.9h6.7v-0.9h-5.4v-0.9h5.4v-0.9h-4.9v-4.1h11.2v4.1h-5.1v0.9h5.4v0.9h-5.4V192.1z M61.2,180.7h-1.7
		c-0.4,0.8-1,1.5-1.5,2c-0.2-0.2-0.7-0.5-0.9-0.7c1-0.9,1.8-2.2,2.2-3.5l1.1,0.3c-0.1,0.3-0.2,0.7-0.4,1h4.9v1h-3.5
		c0.5,0.4,1.2,1,1.6,1.4l-0.8,0.7c-0.4-0.4-1-1.1-1.6-1.6L61.2,180.7z M52.1,188.7h1.7v-1h-1.7V188.7z M52.1,185.9v1h1.7v-1H52.1z
		 M56.5,185.9h-1.6v1h1.6V185.9z M56.5,188.7v-1h-1.6v1H56.5z M54.9,189.5v0.8h3.2v0.9h-3.2v2.1h-1v-2.1h-3.6v-0.9h3.6v-0.8h-2.7
		v-4.4h2.7v-0.8h-3.3v-0.9h3.3v-0.9h1c-0.4-0.4-0.9-0.9-1.3-1.3l0.6-0.5h-1.4c-0.5,0.8-1.1,1.6-1.7,2.1c-0.2-0.2-0.6-0.6-0.8-0.8
		c1-0.9,1.9-2.2,2.4-3.6l1.1,0.3c-0.1,0.3-0.3,0.6-0.4,1h4.2v1h-3.1c0.6,0.4,1.2,1,1.6,1.4l-0.8,0.7c-0.1-0.1-0.2-0.2-0.3-0.3v0.9
		H58v0.9h-3.1v0.8h2.6v4.4H54.9z M60.6,191.9h2.5c0.6,0,0.7-0.4,0.8-2.2c0.3,0.2,0.7,0.4,1.1,0.5c-0.1,2.2-0.5,2.8-1.8,2.8h-2.7
		c-1.4,0-1.9-0.4-1.9-1.8v-8.1h5.2v4.8c0,0.6-0.1,0.9-0.6,1.1c-0.5,0.2-1.2,0.2-2.3,0.2c-0.1-0.3-0.2-0.8-0.4-1.1c0.9,0,1.6,0,1.8,0
		c0.2,0,0.3-0.1,0.3-0.3v-3.8h-2.9v7C59.8,191.8,59.9,191.9,60.6,191.9z M74,189.5v-1.2h-2.8c-0.1,0.4-0.2,0.8-0.3,1.2H74z
		 M71.3,185.2v1.1h5v-1.1H71.3z M75.1,186.9v0.7h3.3v0.7h-3.3v1.2h3.2v0.8h-3.2v1.1H74v-1.1h-4.3c0.2-0.5,0.4-1.3,0.6-2h-0.9v-0.7
		H74v-0.7h-3.7v-2.4h7.1v2.4H75.1z M76,182.2h-2.7c-0.1,0.4-0.2,0.7-0.3,1H76V182.2z M77,183.2h1.5v0.8h-9.4v-0.8h2.6
		c0.1-0.3,0.2-0.6,0.3-1h-2v-0.7h2.2c0.1-0.3,0.2-0.7,0.2-0.9l1,0.1c-0.1,0.2-0.1,0.5-0.2,0.8H77V183.2z M68.2,191.7h11.2v-11.3
		H68.2V191.7z M67.1,179.3h13.5v14.2h-1.2v-0.7H68.2v0.7h-1.2V179.3z"/>
	<path class="st4" d="M22.3,243.7l-0.6,0.9c-0.2-0.5-0.7-1.5-1.1-2.2v8.2h-1v-8.1c-0.5,1.8-1.1,3.5-1.7,4.6
		c-0.1-0.3-0.4-0.9-0.5-1.2c0.8-1.3,1.7-3.8,2.1-5.9h-1.8v-1.1h1.9v-3.1h1v3.1h1.5v0.9c1.9-1,3.7-2.6,4.6-4.1l1.2,0.4
		c-0.1,0.2-0.2,0.4-0.4,0.6c1.2,1.1,3.3,2.2,4.9,2.8c-0.2,0.3-0.4,0.8-0.5,1.1c-1.7-0.7-3.6-1.9-5-3.1c-0.6,0.8-1.4,1.5-2.2,2.1h4.8
		v1h-4.9v-0.9c-0.6,0.4-1.1,0.8-1.7,1.1c-0.1-0.2-0.5-0.6-0.7-0.8v0.2h-1.5v1.1C21.1,241.6,22.1,243.3,22.3,243.7z M28.5,242.4v2.1
		h1.8v-2.1H28.5z M27.6,245.4v-3.9h3.7v3.9H27.6z M23.9,242.4v2.1h1.7v-2.1H23.9z M22.9,245.4v-3.9h3.6v3.9H22.9z M24.3,245.8
		l1.1,0.2c-0.1,0.4-0.3,0.8-0.5,1.2c0.7,0.4,1.4,1,1.8,1.4l-0.7,0.8c-0.3-0.4-1-0.9-1.7-1.4c-0.6,1.1-1.5,1.9-2.4,2.6
		c-0.2-0.2-0.6-0.6-0.8-0.8C22.7,248.9,23.8,247.5,24.3,245.8z M28.9,245.8l1.1,0.1c-0.1,0.5-0.2,1-0.4,1.4c1,0.7,2.2,1.5,2.8,2.2
		l-0.7,0.8c-0.6-0.6-1.6-1.4-2.5-2.1c-0.5,0.9-1.2,1.7-2,2.3c-0.1-0.2-0.6-0.6-0.8-0.8C27.6,248.9,28.5,247.5,28.9,245.8z
		 M39.2,240.5v2h2.6v-2H39.2z M39.2,243.5v2h2.6v-2H39.2z M39.2,237.5v2h2.6v-2H39.2z M38.2,236.4h4.7v10.2h-4.7V236.4z M41,247.4
		l0.9-0.5c0.7,0.8,1.5,1.9,1.9,2.6l-0.9,0.6C42.5,249.4,41.7,248.2,41,247.4z M38.8,247l1.1,0.3c-0.6,1.3-1.6,2.6-2.5,3.5
		c-0.2-0.2-0.7-0.6-0.9-0.8C37.5,249.2,38.3,248.1,38.8,247z M46.9,235.7H48V249c0,0.8-0.2,1.1-0.7,1.3c-0.5,0.2-1.3,0.2-2.5,0.2
		c0-0.3-0.2-0.8-0.4-1.1c0.9,0,1.8,0,2.1,0c0.3,0,0.4-0.1,0.4-0.4V235.7z M44.1,237.4h1.1v9.2h-1.1V237.4z M34.4,236.7l0.7-0.8
		c0.9,0.4,2.1,1.1,2.6,1.7l-0.8,0.9C36.5,237.9,35.4,237.2,34.4,236.7z M33.8,241.1l0.7-0.9c1,0.4,2.2,1,2.7,1.6l-0.7,1
		C35.9,242.2,34.7,241.5,33.8,241.1z M34.1,249.7c0.7-1.3,1.6-3.3,2.3-5.2l0.9,0.7c-0.6,1.7-1.4,3.7-2.1,5.2L34.1,249.7z
		 M55.1,248.2l1.1,0.5c-1.3,0.8-3.4,1.5-5,1.9c-0.2-0.2-0.6-0.7-0.9-0.9C52,249.4,54,248.8,55.1,248.2z M53.5,246.3v1h8.2v-1H53.5z
		 M58.8,240.9h-3c-0.2,0.4-0.6,0.8-1.2,1.2h7.3c0-0.2-0.1-0.4-0.2-0.5c0.5,0,0.9,0.1,1.1,0.1s0.3,0,0.4-0.1c0.1-0.1,0.1-0.2,0.2-0.6
		h-3.4v1.1h-1.1V240.9z M55.1,239.1h-2.3c0,0.3-0.1,0.7-0.1,1h2.2C55,239.8,55.1,239.4,55.1,239.1z M56.3,237.4v0.9h2.5v-0.9H56.3z
		 M62.5,237.4h-2.5v0.9h2.5V237.4z M58.8,240.1v-1h-2.5c0,0.3-0.1,0.7-0.2,1H58.8z M61.7,243.8v-1h-8.2v1H61.7z M61.7,245.6v-1h-8.2
		v1H61.7z M62.9,248.2h-2.8c1.7,0.5,3.5,1.1,4.6,1.6l-0.9,0.8c-1.1-0.5-2.9-1.2-4.8-1.7l0.6-0.6h-7.2V243c-0.4,0.1-0.9,0.2-1.5,0.4
		c-0.1-0.3-0.4-0.7-0.6-0.9c2.1-0.4,3.2-0.9,3.9-1.5h-2.8c0.1-0.7,0.3-1.7,0.4-2.6h3.2v-0.9h-4v-0.8h4v-0.9h1.1v0.9h2.5v-0.9h1.1
		v0.9h3.6v2.5h-3.6v1h4.7c0,0,0,0.2,0,0.4c-0.1,0.9-0.2,1.4-0.4,1.6c-0.2,0.2-0.5,0.3-0.8,0.3c-0.1,0-0.3,0-0.4,0V248.2z
		 M74.5,244.4h4.4v-2.7h-4.4V244.4z M69.4,244.4h4v-2.7h-3.9v1C69.4,243.2,69.4,243.8,69.4,244.4z M73.3,238h-3.9v2.6h3.9V238z
		 M78.9,240.6V238h-4.4v2.6H78.9z M80.1,236.8v12.1c0,0.8-0.2,1.1-0.7,1.4c-0.6,0.2-1.5,0.2-3,0.2c0-0.3-0.2-0.8-0.4-1.2
		c1.1,0,2.3,0,2.5,0c0.3,0,0.4-0.1,0.4-0.4v-3.3h-4.4v4.8h-1.2v-4.8h-4.1c-0.2,1.8-0.8,3.7-2,5.1c-0.2-0.2-0.7-0.7-0.9-0.8
		c1.8-2,2-4.9,2-7.2v-5.9H80.1z"/>
	<path class="st4" d="M18.8,300.1v1.5h1.5v-1.5H18.8z M18.8,297.7v1.5h1.5v-1.5H18.8z M22.8,299.2v-1.5h-1.6v1.5H22.8z M22.8,301.6
		v-1.5h-1.6v1.5H22.8z M21.3,302.5v1.3h2.8v1.1h-2.8v2.9h-1.1v-2.9h-2.8v-1.1h2.8v-1.3h-2.3v-5.7h2.4v-1.2h-2.7v-1.1h2.7v-1.8h1.1
		v1.8H24v1.1h-2.6v1.2h2.4v5.7H21.3z M27.7,301.7h-2.1v1.7h2.1V301.7z M31,303.4v-1.7h-2.3v1.7H31z M28.7,306H31v-1.7h-2.3V306z
		 M25.6,306h2.1v-1.7h-2.1V306z M24.5,307.7v-7h7.7v7H31v-0.5h-5.4v0.6H24.5z M30.4,298.6v-1.8h-4.3v1.8H30.4z M25,295.8h6.6v3.7H25
		V295.8z M24.4,293.7h7.8v1h-7.8V293.7z M36.2,300.1v1.3c1-0.1,2.1-0.2,3.2-0.3v-1H36.2z M39.4,295.6h-3.2v1.4h3.2V295.6z
		 M39.4,299.2v-1.3h-3.2v1.3H39.4z M40.8,300.5l0.9,0.5c-0.3,0.4-0.7,0.9-1.1,1.3v4.1c0,0.7-0.2,1-0.6,1.2c-0.4,0.2-1.2,0.2-2.3,0.2
		c-0.1-0.3-0.2-0.8-0.4-1.1c0.8,0,1.6,0,1.8,0c0.2,0,0.3-0.1,0.3-0.3v-3c-1.6,1.4-3.5,2.6-5.3,3.5c-0.1-0.2-0.4-0.8-0.6-1
		c2-0.9,4.1-2.2,5.7-3.8c-2,0.2-4,0.4-5.5,0.6l-0.1-1c0.4,0,0.9-0.1,1.4-0.1v-6.9h1.6c0.2-0.6,0.5-1.3,0.6-1.8l1.2,0.2
		c-0.2,0.6-0.5,1.2-0.7,1.6h2.7v6.1L40.8,300.5z M48.6,296.5v1.2h-1.7v8.5c0,0.8-0.2,1.1-0.7,1.3c-0.5,0.2-1.3,0.2-2.6,0.2
		c0-0.3-0.2-0.8-0.4-1.1c1,0,1.9,0,2.2,0c0.3,0,0.4-0.1,0.4-0.4v-8.5h-4.3v-1.2h4.3v-3.7h1.2v3.7H48.6z M45.1,302.9l-1,0.5
		c-0.3-1-1.1-2.6-1.9-3.8l1-0.4C44,300.3,44.8,301.8,45.1,302.9z M56.4,304.9l0.2,0.8c-1.6,0.6-3.2,1.2-4.5,1.6l-0.5-0.9
		C52.7,306.1,54.6,305.5,56.4,304.9z M55.9,304.6l-0.9,0.5c-0.2-0.4-0.7-1-1.2-1.4l0.9-0.5C55.1,303.7,55.6,304.2,55.9,304.6z
		 M56.9,306.5v-3.8h1.1v3.8c0,0.6-0.1,0.8-0.6,1c-0.4,0.1-1.1,0.1-2.2,0.1c0-0.3-0.2-0.7-0.3-0.9c0.8,0,1.5,0,1.7,0
		C56.9,306.8,56.9,306.7,56.9,306.5z M58.2,305.7l0.6-0.8c1.5,0.5,3.5,1.2,4.5,1.6l-0.6,0.8C61.7,306.9,59.7,306.1,58.2,305.7z
		 M60.5,303.1l1,0.5c-0.5,0.5-1,1.1-1.4,1.4l-0.8-0.4C59.6,304.2,60.2,303.6,60.5,303.1z M55.5,300v1.2h4V300H55.5z M55.5,298v1.1h4
		V298H55.5z M53.3,296.1v1h8.5v-1H53.3z M53.3,294.2v1h8.5v-1H53.3z M64.7,302.2h-3.5c1.1,0.8,2.5,1.4,3.8,1.8
		c-0.2,0.2-0.5,0.6-0.7,0.8c-1.5-0.5-3.4-1.5-4.6-2.6h-4.4c-1.2,1.2-3,2.2-4.6,2.8c-0.2-0.2-0.5-0.7-0.7-0.9
		c1.3-0.4,2.8-1.1,3.9-1.9h-3.5v-1h3.9V300h-3.1v-1h3.1V298h-2.2v-4.6H63v4.6h-2.3v1.1h3.2v1h-3.2v1.2h4V302.2z M68.2,295.9v2.3H67
		v-3.1h6.2v-0.9h-5.6v-0.8h12.5v0.8h-5.7v0.9h6.3v3.1h-1.2v-2.3h-5.1v3.4h-1.2v-3.4H68.2z M79.2,298.4l-0.2,0.8
		c-0.9-0.3-2.5-0.7-3.8-0.9l0.3-0.7C76.7,297.7,78.3,298.1,79.2,298.4z M78.4,296.1l0.5,0.6c-0.9,0.4-2.3,0.7-3.2,0.9l-0.4-0.6
		C76.2,296.8,77.6,296.4,78.4,296.1z M68.9,299.1l-0.3-0.9c1-0.1,2.4-0.3,3.9-0.5l0,0.7C71.2,298.7,69.9,298.9,68.9,299.1z
		 M69,296.7l0.3-0.6c1,0.2,2.3,0.6,2.9,0.9l-0.3,0.7C71.3,297.3,70,296.9,69,296.7z M74.9,304.1h4.5c-0.8-0.3-1.6-0.6-2.3-1
		C76.4,303.5,75.7,303.8,74.9,304.1z M75.4,306.5h3.3v-1.6h-3.3V306.5z M75.7,300.6l-0.1,0.1c0.4,0.5,0.9,0.9,1.5,1.3
		c0.6-0.4,1.2-0.9,1.6-1.4H75.7z M68.7,300.4v1.5h3.1v-1.5H68.7z M79.5,299.7l0.7,0.4c-0.5,0.9-1.3,1.7-2.2,2.4
		c1.1,0.5,2.3,0.9,3.5,1.1c-0.2,0.2-0.5,0.6-0.6,0.9c-0.4-0.1-0.7-0.2-1-0.3v3.4h-1.1v-0.4h-3.3v0.4h-1v-3.4c-0.3,0.1-0.7,0.2-1,0.3
		c-0.1-0.2-0.3-0.5-0.5-0.7v0.8h-2.1v1.6c0.8-0.1,1.7-0.2,2.5-0.3l0,0.9c-2.4,0.3-4.8,0.5-6.6,0.7l-0.1-1l0.9-0.1v-3.2h0.9v3.2
		l1.3-0.1v-3.6h-2.1v-3.1h5.1v3.1h-2v1.1h2c1.2-0.3,2.4-0.7,3.4-1.3c-0.5-0.4-0.9-0.8-1.3-1.2c-0.4,0.3-0.8,0.7-1.4,1
		c-0.2-0.2-0.5-0.5-0.7-0.7c1.4-0.7,2.4-1.7,2.9-2.7l1,0.2c-0.1,0.2-0.3,0.4-0.5,0.7h3L79.5,299.7z"/>
	<path class="st4" d="M29.1,350l1.1,0.3c-0.4,1.2-0.9,2.5-1.6,3.6v10.9h-1.2v-8.9c-0.4,0.6-0.9,1.2-1.3,1.7
		c-0.1-0.3-0.5-0.9-0.7-1.2C27,354.9,28.3,352.4,29.1,350z M31.8,358.5h2.8c0-0.3,0-0.6,0-0.9v-0.8h-2.8V358.5z M31.8,354.2v1.7h2.8
		v-1.7H31.8z M38.5,354.2h-2.7v1.7h2.7V354.2z M38.5,358.5v-1.7h-2.7v0.8c0,0.3,0,0.6,0,0.9H38.5z M39.7,359.5h-4
		c-0.2,1-0.5,2-1.2,2.9c1.7,0.7,3.8,1.1,6.1,1.3c-0.3,0.3-0.6,0.8-0.7,1.1c-2.4-0.2-4.6-0.7-6.3-1.6c-0.8,0.7-2,1.2-3.6,1.7
		c-0.2-0.3-0.5-0.8-0.7-1c1.5-0.3,2.5-0.8,3.3-1.3c-0.9-0.6-1.7-1.4-2.3-2.3l1-0.4c0.5,0.8,1.3,1.4,2.2,2c0.7-0.7,0.9-1.5,1.1-2.4
		h-3.9v-6.2h4v-1.4h-4.4v-1.1h10v1.1h-4.4v1.4h3.9V359.5z M46.8,351.8v3h3.3v1.1h-3.3v0.4c0.8,0.7,2.7,2.6,3.1,3.1l-0.7,1
		c-0.5-0.6-1.6-1.8-2.4-2.7v7.1h-1.2v-7c-0.8,1.9-2,3.7-3.1,4.8c-0.1-0.3-0.5-0.8-0.7-1.1c1.3-1.2,2.7-3.5,3.5-5.5h-3.2v-1.1h3.4
		V352c-1.1,0.2-2.1,0.4-3.1,0.5c0-0.3-0.2-0.7-0.4-1c2.4-0.4,5.2-0.9,6.7-1.6l0.9,0.9C48.9,351.2,47.9,351.5,46.8,351.8z
		 M52.6,351.8v8.9h-1.2v-8.9H52.6z M54.9,350.1H56v13c0,0.8-0.2,1.2-0.7,1.4c-0.5,0.2-1.4,0.2-2.9,0.2c-0.1-0.3-0.3-0.9-0.4-1.2
		c1.1,0,2.2,0,2.5,0c0.3,0,0.4-0.1,0.4-0.4V350.1z M59,357.5l-0.9-0.3c0.4-1.1,0.7-2.9,0.8-4.2l0.9,0.1
		C59.7,354.5,59.4,356.3,59,357.5z M60.4,364.8v-14.9h1.2v14.9H60.4z M61.7,352.9l0.8-0.4c0.5,0.9,1,2,1.2,2.7l-0.9,0.4
		C62.7,355,62.2,353.8,61.7,352.9z M68.9,363.1H73v1.2H63v-1.2h4.7V359h-3.5v-1.1h3.5v-3.4h-2.4c-0.3,1-0.7,1.8-1.1,2.5
		c-0.2-0.2-0.8-0.4-1.1-0.6c0.9-1.4,1.6-3.6,2-5.8l1.2,0.2c-0.2,0.8-0.4,1.7-0.6,2.5h2V350h1.2v3.4h3.7v1.2h-3.7v3.4h3.3v1.1h-3.3
		V363.1z"/>
	<g>
		<path class="st1" d="M477.8,56.9c0-6,4.9-10.9,10.9-10.9h130.6c6,0,10.9,4.9,10.9,10.9v43.5H477.8V56.9z"/>
		<path class="st2" d="M504.3,73.8h-6.1c0.8,1.4,1.8,2.7,3,3.7C502.5,76.5,503.5,75.2,504.3,73.8z M494.2,71v0.3h4.7v-3.2h-4.7V71z
			 M506.1,71.2l1.7,0.9c-0.9,2.8-2.4,5-4.4,6.8c1.7,0.9,3.8,1.6,6.3,2c-0.6,0.6-1.3,1.7-1.7,2.5c-2.8-0.5-5-1.4-6.9-2.7
			c-1.9,1.2-4.2,2-6.5,2.5c-0.3-0.7-1-1.9-1.5-2.4c2.2-0.4,4.2-1,5.9-1.9c-1.4-1.4-2.5-3.1-3.5-5.1h-1.4c-0.2,3.2-0.9,6.9-2.8,9.4
			c-0.4-0.5-1.5-1.4-2.1-1.7c2.2-3,2.4-7.4,2.4-10.5v-5.4h7.3v-2.7h2.7v2.7h5.2l0.4-0.1l2,0.5c-0.5,1.7-1.3,3.7-1.9,4.9l-2.4-0.7
			c0.3-0.5,0.6-1.3,0.8-2.1h-4.2v3.2h4.1L506.1,71.2z M514.5,70.1v1.3c0,0.9,0,2-0.1,3.1c0.7-0.5,1.6-1.1,2.5-1.8v-1.5l-0.9,0.8
			C515.7,71.4,515.1,70.7,514.5,70.1z M516.9,66.1h-2.4v2.6l0.8-0.5c0.5,0.5,1.1,1.1,1.6,1.7V66.1z M519.2,63.7v16.8
			c0,1.1-0.2,1.8-0.9,2.2c-0.7,0.4-1.6,0.5-3.1,0.5c0-0.6-0.3-1.7-0.7-2.4c0.8,0,1.7,0,1.9,0c0.3,0,0.4-0.1,0.4-0.4V75
			c-0.6,0.6-1.2,1.2-1.8,1.7l-0.8-1.4c-0.2,2.7-0.7,5.6-1.7,7.7c-0.4-0.4-1.3-1.1-1.7-1.3c1.3-3,1.4-7.2,1.4-10.3v-7.7H519.2z
			 M528.4,72h-4.6c-2.8,0-3.6-0.9-3.6-3.4v-5.4h2.6v2.1h7.8v2.2h-7.8v1.2c0,0.8,0.2,1.1,1.1,1.1h4.5c0.8,0,2-0.1,2.6-0.2
			c0.1,0.7,0.2,1.6,0.3,2.2C530.6,71.9,529.5,72,528.4,72z M528,75.3h-5v1.4h5V75.3z M522.9,80.3h5v-1.6h-5V80.3z M520.5,83.2V73.2
			h10v10H528v-0.7h-5v0.8H520.5z M537.2,66.1v4.3c0,3.7-0.3,9.3-2.3,12.8c-0.5-0.4-1.6-1.1-2.3-1.3c1.8-3.3,2-8.1,2-11.5v-6.7h18.1
			v2.4H537.2z M541.2,70.8v0.9h7.2v-0.9H541.2z M541.2,68.5v0.9h7.2v-0.9H541.2z M551,73.3h-12.3v-6.4H551V73.3z M553,77.5v2h-6.8
			v1.2c0,1.2-0.3,1.7-1.2,2c-0.9,0.3-2.2,0.3-3.9,0.3c-0.2-0.6-0.5-1.5-0.8-2.1c1.2,0,2.6,0,3,0c0.3,0,0.5-0.1,0.5-0.3v-1.1h-6.6v-2
			h6.6v-0.8c0.8-0.2,1.8-0.6,2.6-0.9h-7.7v-1.7h10.7l0.5-0.1l1.5,1.4c-1.4,0.8-3.1,1.6-4.8,2.2H553z M570.6,65.1v12.5h-2.2V65.1
			H570.6z M560.4,65.2l-1.6,2c-0.7-0.7-2.2-1.7-3.4-2.2l1.5-1.9C558.2,63.7,559.7,64.5,560.4,65.2z M559.7,70.9l-1.5,2.1
			c-0.7-0.7-2.2-1.6-3.4-2.2l1.4-1.9C557.3,69.4,558.9,70.2,559.7,70.9z M557.8,74.7l2.1,1.4c-0.7,2.3-1.7,4.8-2.6,7l-2.3-1.4
			C555.8,80,557,77.3,557.8,74.7z M561.3,78.1l2.4,0.7c-0.8,1.7-2,3.5-3.1,4.7c-0.5-0.4-1.4-1.1-2-1.4
			C559.7,81.1,560.7,79.6,561.3,78.1z M564.3,79l1.9-1.1c0.8,1,1.9,2.5,2.4,3.4l-2,1.3C566.1,81.7,565.1,80.2,564.3,79z M565,67.8
			V66h-2.2v1.8H565z M565,71.8v-1.8h-2.2v1.8H565z M565,75.7v-1.8h-2.2v1.8H565z M567.3,63.8v14.1h-6.6V63.8H567.3z M571.9,62.9h2.4
			v17.3c0,1.3-0.3,2-1,2.4c-0.8,0.4-1.9,0.5-3.6,0.5c-0.1-0.7-0.4-1.7-0.8-2.4c1.1,0,2.2,0,2.6,0c0.3,0,0.5-0.1,0.5-0.5V62.9z
			 M591,65.7v-0.8h-9v0.8H591z M591,67.7v-0.8h-9v0.8H591z M593.6,63.6V69h-14.1v-5.4H593.6z M596.4,69.6v1.9h-19.7v-1.9H596.4z
			 M581.5,76.3h3.8v-0.8h-3.8V76.3z M581.5,73.5v0.8h3.8v-0.8H581.5z M591.6,74.3v-0.8h-3.8v0.8H591.6z M591.6,76.3v-0.8h-3.8v0.8
			H591.6z M587.8,80.8h8.7v1.9h-19.8v-1.9h8.6V80h-6.7v-1.7h6.7v-0.7h-6.2v-5.6h15v5.6h-6.4v0.7h6.7V80h-6.7V80.8z M605.1,65.3
			l-1.5,2.1c-0.9-0.7-2.7-1.8-4-2.4l1.4-1.9C602.4,63.7,604.2,64.6,605.1,65.3z M603.8,71.1l-1.4,2.2c-0.8-0.7-2.7-1.7-4.1-2.4
			l1.4-1.9C601,69.5,602.9,70.4,603.8,71.1z M601.2,83l-2.2-1.7c1.2-1.7,2.8-4.3,4.1-6.9l1.9,1.7C603.9,78.4,602.5,80.9,601.2,83z
			 M618.3,82.1l-2.3,1.2c-0.2-0.6-0.4-1.2-0.8-1.9c-7.2,0.9-8.4,1-9.1,1.4c-0.2-0.6-0.6-1.8-0.9-2.6c0.5-0.2,0.9-0.6,1.4-1.4
			c0.4-0.6,1.4-2.5,2.3-4.7h-4.1v-2.4h5.2v-3.1h-4.3v-2.5h4.3v-3.2h2.6v3.2h4.4v2.5h-4.4v3.1h5.2v2.4H612c-0.9,2-2,3.9-3,5.6
			l5.1-0.5c-0.5-0.8-1-1.6-1.5-2.2l2.1-1C616.2,77.8,617.8,80.3,618.3,82.1z"/>
		<path class="st3" d="M477.8,100.4h152.3v274.7c0,6-4.9,10.9-10.9,10.9H488.7c-6,0-10.9-4.9-10.9-10.9V100.4z"/>
		<path class="st4" d="M541.7,122.8v4h-1.2v-4.9h10.5v4.9h-1.2v-4H541.7z M549,123.8v0.8h-6.6v-0.8H549z M549,126.3h-6.6v-0.8h6.6
			V126.3z M544.1,129.8v-1.1h-3v1.1H544.1z M541.1,132.7v1.3c0.9-0.1,2-0.2,3-0.4v-1H541.1z M544.1,131.8v-1.1h-3v1.1H544.1z
			 M552.9,128.7h-7.6v7.7h-1.1v-1.6c-2,0.3-4,0.5-5.5,0.7l-0.1-1.1c0.5,0,1-0.1,1.6-0.1v-5.5h-1.4v-1h14.3V128.7z M551,130.7h-3.4
			c0.4,0.9,1,1.7,1.6,2.4C550,132.4,550.6,131.6,551,130.7z M551.7,129.7l0.8,0.3c-0.5,1.5-1.3,2.8-2.4,3.8c0.9,0.7,2,1.2,3.2,1.5
			c-0.2,0.2-0.6,0.7-0.7,1c-1.2-0.4-2.4-1-3.3-1.7c-1,0.8-2.2,1.4-3.3,1.8c-0.1-0.3-0.4-0.7-0.7-0.9c1.1-0.3,2.2-0.9,3.1-1.6
			c-0.8-0.8-1.5-1.8-1.9-3l0.3-0.1h-0.9v-1h5.6L551.7,129.7z M558.3,121.5l1.1,0.3c-0.5,1.2-1,2.4-1.7,3.5v11h-1.2v-9.2
			c-0.5,0.7-1.1,1.4-1.6,2c-0.1-0.3-0.5-0.9-0.7-1.2C555.9,126.4,557.4,124,558.3,121.5z M561.6,135.9v-1h4.4v1H561.6z M561.3,127.6
			h3.7c-0.1-1.4-0.2-2.8-0.3-4.3c-1.1,0.2-2.3,0.4-3.4,0.6V127.6z M569.3,128.8h-3.1c0.4,3.6,1.1,6.1,2,6.1c0.3,0,0.5-0.8,0.6-2.4
			c0.2,0.2,0.7,0.5,0.9,0.6c-0.3,2.4-0.9,3.1-1.5,3.1c-1.7,0-2.6-3.1-3.1-7.4h-3.8v4.6l3-0.8c0,0.3,0,0.8,0,1
			c-3.6,1-4.1,1.2-4.4,1.4c0-0.3-0.3-0.8-0.5-1c0.3-0.1,0.7-0.4,0.7-1v-9.9h0l0,0c2.7-0.4,5.9-1.1,7.6-1.7l1,0.9
			c-0.8,0.3-1.8,0.6-2.9,0.8c0,1.6,0.1,3.1,0.3,4.6h3.2V128.8z"/>
		<path class="st5" d="M477.8,157.5h152.3"/>
		<path class="st4" d="M541.7,180v4h-1.2v-4.9h10.5v4.9h-1.2v-4H541.7z M549,180.9v0.8h-6.6v-0.8H549z M549,183.4h-6.6v-0.8h6.6
			V183.4z M544.1,186.9v-1.1h-3v1.1H544.1z M541.1,189.8v1.3c0.9-0.1,2-0.2,3-0.4v-1H541.1z M544.1,188.9v-1.1h-3v1.1H544.1z
			 M552.9,185.8h-7.6v7.7h-1.1v-1.6c-2,0.3-4,0.5-5.5,0.7l-0.1-1.1c0.5,0,1-0.1,1.6-0.1v-5.5h-1.4v-1h14.3V185.8z M551,187.8h-3.4
			c0.4,0.9,1,1.7,1.6,2.4C550,189.5,550.6,188.7,551,187.8z M551.7,186.8l0.8,0.3c-0.5,1.5-1.3,2.8-2.4,3.8c0.9,0.7,2,1.2,3.2,1.5
			c-0.2,0.2-0.6,0.7-0.7,1c-1.2-0.4-2.4-1-3.3-1.7c-1,0.8-2.2,1.4-3.3,1.8c-0.1-0.3-0.4-0.7-0.7-0.9c1.1-0.3,2.2-0.9,3.1-1.6
			c-0.8-0.8-1.5-1.8-1.9-3l0.3-0.1h-0.9v-1h5.6L551.7,186.8z M561.5,178.8h1.3v13c0,0.9-0.2,1.3-0.8,1.5c-0.6,0.2-1.6,0.2-3.1,0.2
			c-0.1-0.4-0.3-1-0.5-1.3c1.2,0,2.3,0,2.7,0c0.3,0,0.5-0.1,0.5-0.4V178.8z M565.4,182.9l1.1-0.5c1.4,2.3,2.8,5.3,3.2,7.2l-1.3,0.6
			C568.1,188.2,566.8,185.2,565.4,182.9z M557.3,182.6l1.3,0.2c-0.6,2.4-1.5,5.4-3.1,7.2c-0.3-0.2-0.8-0.6-1.1-0.7
			C556,187.6,556.9,184.8,557.3,182.6z"/>
		<path class="st5" d="M477.8,214.6h152.3"/>
		<path class="st6" d="M542.3,237.4v3.8h-1.9V236h10.7v5.1h-2v-3.8H542.3z M548.6,237.9v1.1h-5.8v-1.1H548.6z M548.6,240.8h-5.8
			v-1.1h5.8V240.8z M550.4,245.3h-2.2c0.3,0.6,0.7,1.1,1.1,1.5C549.7,246.3,550.1,245.8,550.4,245.3z M541.5,247.2v0.8
			c0.7-0.1,1.5-0.1,2.3-0.2v-0.6H541.5z M543.8,243.2h-2.3v0.7h2.3V243.2z M541.5,245.2v0.7h2.3v-0.7H541.5z M551.5,243.7l1.2,0.5
			c-0.4,1.5-1.1,2.8-2,3.8c0.8,0.5,1.7,0.9,2.8,1.1c-0.4,0.3-0.9,1-1.1,1.5c-1.1-0.3-2.1-0.8-2.9-1.4c-0.9,0.7-1.8,1.2-2.9,1.6
			c-0.2-0.4-0.6-1-1-1.4v1.5h-1.8v-1.4c-1.9,0.2-3.8,0.4-5.3,0.6l-0.1-1.7c0.4,0,0.9-0.1,1.4-0.1v-4.9h-1.3v-1.5H553v1.5h-7.4v6
			c0.9-0.3,1.7-0.7,2.5-1.2c-0.6-0.7-1.2-1.6-1.6-2.5l0.6-0.2h-1v-1.5h5.1L551.5,243.7z M557.9,235.6l1.8,0.6
			c-0.4,1.1-1,2.3-1.6,3.4v11.2h-1.9v-8.3c-0.4,0.5-0.7,0.9-1.1,1.3c-0.2-0.5-0.7-1.6-1-2C555.6,240.2,557.1,237.9,557.9,235.6z
			 M561.5,250.3v-1.6h4.4v1.6H561.5z M561.8,241.5h3c-0.1-1.1-0.2-2.3-0.2-3.5c-0.9,0.2-1.9,0.4-2.8,0.5V241.5z M569.5,243.3h-2.7
			c0.4,3,0.9,5,1.4,5c0.2,0,0.4-0.7,0.5-2c0.3,0.4,1,0.8,1.3,1c-0.4,2.6-1.1,3.2-1.8,3.2c-1.7,0-2.6-2.9-3.1-7.2h-3.2v3.4l2.6-0.6
			c0,0.5,0,1.2,0,1.6c-3.5,0.9-4.2,1.2-4.6,1.4c-0.1-0.4-0.4-1.2-0.7-1.5c0.3-0.2,0.8-0.5,0.8-1.2v-9.4c2.8-0.4,5.8-1.1,7.7-1.8
			l1.5,1.5c-0.8,0.3-1.8,0.6-2.8,0.8c0,1.4,0.1,2.7,0.2,3.9h2.9V243.3z"/>
		<path class="st5" d="M477.8,271.8h152.3"/>
		<path class="st6" d="M541.2,301.9v-2.1H540v2.1H541.2z M534.3,299.8v2.1h1.1v-2.1H534.3z M538.3,299.8h-1.3v2.1h1.3V299.8z
			 M544.6,299.8H543v2.1h2v1.7h-14.6v-1.7h2.2v-2.1h-1.7v-1.7h1.7v-1.5h1.7v1.5h1.1v-1.5h1.6v1.5h1.3v-1.5h1.6v1.5h1.2v-1.5h1.8v1.5
			h1.6V299.8z M544.5,296h-11.5c-0.6,0.7-1.3,1.3-1.9,1.8c-0.2-0.4-0.8-1.2-1.1-1.6c1.3-0.9,2.6-2.4,3.4-3.9l1.7,0.6
			c-0.2,0.5-0.5,0.9-0.8,1.4h10.3V296z M532.1,307.9l-1.9-0.8c0.6-0.8,1.4-2.1,1.8-3.2l1.9,0.5C533.5,305.6,532.7,307,532.1,307.9z
			 M534.8,304.6l1.8-0.2c0.2,1,0.4,2.3,0.4,3.1l-1.9,0.3C535.1,307,535,305.6,534.8,304.6z M538.1,304.6l1.8-0.3
			c0.4,0.9,0.8,2.2,1,3l-1.9,0.4C538.9,306.9,538.5,305.6,538.1,304.6z M541.4,304.6l1.8-0.7c0.7,1,1.5,2.3,1.9,3.2l-1.9,0.8
			C542.9,307,542.1,305.6,541.4,304.6z M548.1,300.3v1h1v-1H548.1z M548.1,298.1v1h1v-1H548.1z M551.5,299v-1h-1.1v1H551.5z
			 M551.5,301.3v-1h-1.1v1H551.5z M550.6,302.6v0.9h2.6v1.7h-2.6v2.6h-1.7v-2.6h-2.6v-1.7h2.6v-0.9h-2.2v-5.9h2.2v-0.9h-2.4v-1.7
			h2.4v-1.6h1.7v1.6h2.4v1.7h-2.4v0.9h2.3v5.9H550.6z M556.5,302.1h-1.4v1.1h1.4V302.1z M559.5,303.2v-1.1H558v1.1H559.5z
			 M558,305.7h1.5v-1.1H558V305.7z M555.1,305.7h1.4v-1.1h-1.4V305.7z M553.4,307.9v-7.4h8v7.3h-1.8v-0.6h-4.4v0.6H553.4z
			 M558.9,298.3v-1.1h-3.2v1.1H558.9z M553.9,295.7h6.8v4h-6.8V295.7z M553.4,293.4h8v1.7h-8V293.4z M565.7,300.3v0.8
			c0.8-0.1,1.6-0.1,2.4-0.2v-0.6H565.7z M568.1,296.8v-0.9h-2.4v0.9H568.1z M568.1,298.9v-0.8h-2.4v0.8H568.1z M569.8,294.4v5.9
			l1.3,0.7c-0.4,0.5-0.8,1-1.3,1.4v3.6c0,0.8-0.2,1.3-0.7,1.6c-0.5,0.3-1.3,0.3-2.4,0.3c-0.1-0.5-0.3-1.2-0.6-1.6c0.7,0,1.4,0,1.6,0
			c0.2,0,0.3-0.1,0.3-0.3v-2c-1.5,1.2-3.2,2.2-4.7,3c-0.1-0.4-0.5-1.3-0.8-1.7c1.6-0.7,3.4-1.7,4.9-2.8c-1.7,0.2-3.3,0.4-4.6,0.5
			l-0.2-1.5l1.3-0.1v-6.9h1.6c0.2-0.6,0.4-1.3,0.5-1.8l2,0.2c-0.2,0.6-0.5,1.1-0.7,1.6H569.8z M574.3,302.8l-1.6,0.7
			c-0.3-1.1-1-2.7-1.8-3.9l1.5-0.6C573.2,300.2,573.9,301.7,574.3,302.8z M577.8,296.1v1.9h-1.6v7.6c0,1-0.2,1.5-0.8,1.8
			c-0.6,0.3-1.6,0.4-3,0.4c-0.1-0.5-0.4-1.3-0.6-1.8c0.9,0,1.9,0,2.2,0c0.3,0,0.4-0.1,0.4-0.4V298h-4v-1.9h4v-3.4h1.8v3.4H577.8z"/>
		<path class="st5" d="M477.8,328.9h152.3"/>
		<path class="st4" d="M509.1,357.4h-6.1c0.7,1.5,1.7,2.7,3,3.7C507.4,360.2,508.5,359,509.1,357.4z M500.5,356.1v0.1h4.3v-3h-4.3
			V356.1z M510,356.2l0.8,0.5c-0.8,2.2-2,3.9-3.6,5.2c1.5,0.9,3.2,1.6,5.3,1.9c-0.3,0.3-0.6,0.8-0.8,1.1c-2.2-0.5-4.1-1.2-5.6-2.3
			c-1.6,1-3.5,1.7-5.5,2.2c-0.1-0.3-0.5-0.8-0.7-1.1c1.9-0.4,3.7-1,5.2-1.9c-1.4-1.2-2.4-2.6-3.2-4.4h-1.4c-0.1,2.4-0.5,5.3-2.1,7.3
			c-0.2-0.2-0.7-0.7-1-0.8c1.7-2.3,1.9-5.5,1.9-7.8v-4h5.5v-2.2h1.2v2.2h4.7l0.2,0l0.9,0.2c-0.5,1.2-1,2.6-1.5,3.4l-1.1-0.3
			c0.3-0.5,0.6-1.3,0.9-2.1h-4.2v3h3.7L510,356.2z M516,354.3v1.9c0,0.8,0,1.7-0.1,2.6c0.7-0.4,1.7-1,2.7-1.6v-1.5l-0.8,0.6
			C517.4,355.8,516.6,354.9,516,354.3z M518.6,351.6H516v2.5l0.7-0.5c0.7,0.6,1.5,1.5,1.9,2V351.6z M519.6,350.5v12.8
			c0,0.7-0.1,1-0.5,1.2c-0.4,0.2-1.1,0.2-2.2,0.2c0-0.3-0.2-0.8-0.4-1.1c0.8,0,1.5,0,1.7,0c0.2,0,0.3-0.1,0.3-0.3v-5
			c-0.7,0.6-1.5,1.1-2.1,1.6l-0.5-0.9c-0.1,2-0.5,4.1-1.3,5.8c-0.1-0.2-0.6-0.6-0.8-0.7c1.1-2.3,1.2-5.5,1.2-7.9v-5.7H519.6z
			 M526.8,356.4h-4c-1.6,0-2-0.5-2-1.9V350h1.2v1.9h6v1.1h-6v1.5c0,0.6,0.2,0.8,0.8,0.8h3.9c0.5,0,1.3,0,1.7-0.1
			c0,0.3,0.1,0.8,0.1,1C528.2,356.3,527.5,356.4,526.8,356.4z M526.8,358.7h-4.7v1.7h4.7V358.7z M522.1,363.1h4.7v-1.7h-4.7V363.1z
			 M520.9,364.8v-7.1h7v7.1h-1.2v-0.6h-4.7v0.7H520.9z M533.5,353.8l1.2,0.2c-0.2,0.7-0.4,1.4-0.7,2.1c0.8,0.7,1.8,1.6,2.3,2.1
			l-0.7,0.9c-0.4-0.5-1.2-1.3-2-2c-0.6,1.2-1.4,2.2-2.3,3c-0.2-0.2-0.6-0.6-0.9-0.8C531.9,358,533,356.1,533.5,353.8z M544.8,358.9
			l-0.8,0.8c-0.6-0.7-1.7-1.7-2.7-2.6c-0.5,0.9-1.1,1.8-1.8,2.4c-0.2-0.2-0.5-0.4-0.8-0.6c0.8,1.7,2.6,3.7,6.3,4.8
			c-0.3,0.3-0.6,0.8-0.8,1.1c-4.7-1.5-6.3-4.6-6.7-6c-0.4,1.4-2,4.5-6.6,6c-0.2-0.3-0.5-0.8-0.8-1c5.5-1.6,6.8-5.4,6.8-7.1v-3.4
			h-6.5v-1.2h6.5V350h1.3v2.2h6.6v1.2h-6.6v3.4c0,0.5,0.1,1.2,0.4,2c1.3-1.1,2.1-2.9,2.5-4.9l1.1,0.2c-0.1,0.8-0.3,1.5-0.6,2.1
			C542.8,357,544.1,358.1,544.8,358.9z M561.3,358.3v1.2h-6.7v3.6c0,0.9-0.3,1.2-0.9,1.4c-0.6,0.2-1.6,0.2-3.4,0.2
			c-0.1-0.3-0.3-0.9-0.5-1.2c1.4,0,2.6,0,3,0c0.4,0,0.5-0.1,0.5-0.5v-3.6h-6.7v-1.2h6.7v-2.6h-5.6v-1.2h5.6V352
			c-1.8,0.2-3.6,0.3-5.3,0.4c0-0.3-0.2-0.8-0.3-1.1c3.9-0.2,8.6-0.6,11-1.4l0.9,1c-1.4,0.4-3.2,0.7-5.1,1v2.6h5.8v1.2h-5.8v2.6
			H561.3z M564.3,358.7h2v-1.2h-2V358.7z M564.3,355.5v1.2h2v-1.2H564.3z M569.6,355.5h-2.1v1.2h2.1V355.5z M569.6,358.7v-1.2h-2.1
			v1.2H569.6z M573.9,353.7h3.5c0,0,0,0.5,0,0.6c-0.2,6.8-0.4,9-0.9,9.7c-0.3,0.4-0.7,0.6-1.2,0.6c-0.5,0-1.2,0-2,0
			c0-0.3-0.2-0.8-0.3-1.1c0.8,0.1,1.6,0.1,1.9,0.1c0.3,0,0.4,0,0.6-0.2c0.4-0.5,0.6-2.7,0.8-8.6h-2.3c-0.2,4.5-0.9,8-3.8,10.1
			c-0.2-0.3-0.6-0.7-0.9-0.9c0.3-0.2,0.5-0.4,0.7-0.6c-2.4,0.3-4.9,0.6-6.8,0.8l-0.2-1.1c1-0.1,2.2-0.2,3.5-0.3v-1.4h-3.1v-0.9h3.1
			v-1h-3v-4.9h3v-1h-3.5v-0.9h3.5v-1c-1,0.1-2.1,0.1-3.1,0.2c0-0.2-0.2-0.7-0.3-0.9c2.4-0.1,5.4-0.4,7-0.8l0.7,0.9
			c-0.9,0.2-2,0.4-3.2,0.5v1.2h3.5v0.9h-3.5v1h3.2v4.9h-3.2v1h3.2v0.9h-3.2v1.3c1.1-0.1,2.2-0.2,3.3-0.4v0c1.4-1.9,1.8-4.5,1.9-7.6
			h-1.9v-1.1h1.9c0-1.1,0-2.3,0-3.6h1.2C573.9,351.4,573.9,352.6,573.9,353.7z M590.8,353.2v-1.7H587v1.7H590.8z M591.9,350.6v3.5
			H586v-3.5H591.9z M583.8,358l-1.6,0.6v4.7c0,0.6-0.1,0.9-0.5,1.1c-0.3,0.2-0.9,0.2-1.7,0.2c0-0.3-0.2-0.8-0.3-1.1c0.5,0,1,0,1.1,0
			c0.2,0,0.2-0.1,0.2-0.2v-4.3l-1.7,0.6l-0.3-1.1c0.6-0.2,1.2-0.4,2-0.7v-3.6h-1.8v-1.1h1.8v-3.3h1.1v3.3h1.5v1.1h-1.5v3.1l1.4-0.5
			L583.8,358z M586.4,361.1l1,0.4c-0.9,1-2.1,2.2-3.1,3c-0.2-0.2-0.6-0.6-0.9-0.8C584.5,363,585.7,362,586.4,361.1z M587.4,357.6
			v-1.9h-2.1v1.9H587.4z M590.3,355.7v1.9h2.2v-1.9H590.3z M593.9,360.8h-4.5v4.1h-1.1v-4.1H584v-1h4.3v-1.2h-4v-3.7h4.1v3.7h0.9
			v-3.7h4.2v3.7h-4.1v1.2h4.5V360.8z M590.2,361.7l0.7-0.7c1.1,0.8,2.5,1.9,3.1,2.6l-0.8,0.8C592.7,363.6,591.3,362.5,590.2,361.7z
			 M599.4,350l1.2,0.4c-0.4,1.2-1,2.4-1.7,3.5v11h-1.2v-9.1c-0.5,0.7-1.1,1.4-1.6,1.9c-0.1-0.3-0.5-0.9-0.7-1.2
			C597,354.9,598.5,352.4,599.4,350z M610.4,353.8h-5v2.3h4.7v1.1h-4.7v2.5h4.9v1.1h-4.9v3.9h-1.2v-11H603c-0.7,1.3-1.5,2.5-2.3,3.4
			c-0.2-0.2-0.7-0.6-0.9-0.8c1.5-1.5,2.8-3.9,3.6-6.3l1.2,0.3c-0.3,0.8-0.6,1.5-0.9,2.2h6.8V353.8z"/>
	</g>
</g>
</svg>
