<?xml version="1.0" encoding="utf-8"?>
<!-- Generator: Adobe Illustrator 25.3.1, SVG Export Plug-In . SVG Version: 6.00 Build 0)  -->
<svg version="1.1" id="圖層_1" xmlns="http://www.w3.org/2000/svg" xmlns:xlink="http://www.w3.org/1999/xlink" x="0px" y="0px"
	 viewBox="0 0 120 100" style="enable-background:new 0 0 120 100;" xml:space="preserve">
<style type="text/css">
	.st0{opacity:0.17;fill:#1F1F39;enable-background:new    ;}
	.st1{fill:#0267A4;}
	.st2{opacity:0.15;fill:#0D0D1E;enable-background:new    ;}
	.st3{opacity:0.72;fill:#FFFFFF;enable-background:new    ;}
	.st4{opacity:0.26;fill:#0D0D1E;enable-background:new    ;}
	.st5{opacity:0.24;fill:#FFFFFF;enable-background:new    ;}
	.st6{opacity:0.84;fill:none;stroke:#FFFFFF;stroke-width:9;stroke-linecap:round;stroke-miterlimit:10;enable-background:new    ;}
	.st7{opacity:0.2;fill:#0D0D1E;enable-background:new    ;}
	.st8{fill:#EFAEA6;}
	.st9{fill:#1F1F3B;}
	.st10{opacity:0.16;fill:#1F1F39;enable-background:new    ;}
	.st11{opacity:0.35;fill:#FFFFFF;enable-background:new    ;}
	.st12{opacity:0.36;fill:#1F1F39;enable-background:new    ;}
</style>
<g>
	<path class="st0" d="M117,26.5c-0.8-1-2.8-2.1-5.6-2.6c-0.1,0-0.3,0-0.4-0.1l0,0l0,0c-4.2-0.5-8.3,4.5-9,11.2
		c-0.7,6.5,2,12.2,6.1,12.9l0,0c0.6,0.2,1.1,0.3,1.7,0.4l0,0l0,0c0,0.3-0.1,1.7-0.1,3.6c-0.1-0.1-0.2-0.3-0.4-0.3
		c-1.8-0.6-1.8,3.4-3.1,6c-0.4,0.9-1,1.6-1.7,2.3l0,0c-0.5-0.7-0.9-1-1.2-0.8c-1,1-19.3,15.3-21.3,14.7
		c-3.1-0.9-10.2-27.7-23.3-38.3c-0.8-0.7-0.9-4.4-1.4-5.2c-0.1-0.2-0.3-0.4-0.5-0.6l1.3-1.8l0,0l0,0c1.8,6.6,4.5,3.9,7.4-0.1
		c2-2.7,0.9-1.6,2.3-1.3c0.1-0.2,0.2-0.4,0.3-0.7c0.1-0.3,0.2-0.8,0.5-1.4l0,0c0.1-0.4,0.3-0.8,0.5-1.2c0.1-0.1,0.1-0.3,0.2-0.4
		c2.2,0.9,4.5,1.8,6.8,2.5c1.3,0.4-0.3-3.1-2.4-4.9c-0.2-0.2-0.4-0.4-0.5-0.7c-0.3-0.6-0.3-1.3-0.2-2.1c0-0.2,0-0.3,0.1-0.5l0,0l0,0
		c0.3-1.4,0.8-2.8,1.4-4.1c2.1-3.6-0.6-8.6-5-9.8c-3.1-0.5-2.7,0.5-4.8-0.2c-2.7-0.8-6.1,2.3-7.8,4.7c-0.2,0.3-0.4,0.6-0.5,0.8
		C56.2,8.8,56.1,9,56,9.1c0,0,0,0.1-0.1,0.1l0,0c-0.2,0.2-0.4,0.4-0.8,0.4c-2.1,0.1-6.9-1-6.1,0.8c0.4,0.8,1.7,2.1,3.8,3.6
		c-1.6,2.4-2.4,6.7-1.8,8.3l0,0c-0.7,0.8-1.5,1.5-2.4,2.3c-1.5-0.5-3-0.8-4.4-0.5c-1.2,0.2-2.7,4.4-4,6.8l0,0
		c-0.5,0.8-0.9,1.4-1.3,1.6l-0.3,0.1l0,0l0,0c-5.3,1.8-9.4,4.8-13.1,11.7C16.2,61.2,10.7,78.8,5.1,100h48c0-3.9,0.4-8.1,1-12.3l0,0
		l0,0c1.5-10.2,4.5-19.8,5.9-21.1c0.2-0.2,0.4-0.3,0.6-0.3c0.2,0,0.5,0.1,0.8,0.2h0.1l0,0c3.6,1.9,5.6,18.4,16.6,21.6
		c8.2,2.3,27-14.6,29.6-16.8c0.4-0.3,0.3-1.6-0.1-3.2c0.1-0.1,0.1-0.1,0.2-0.2c0.3-0.2,0.6-0.5,0.9-0.8c0.1-0.1,0.3-0.3,0.4-0.4
		c-0.1,3.7-0.2,6.5-0.2,6.9s0.4,1,1,1.3c0.1,0,0.1,0.1,0.2,0.1c0.4,0.1,0.9,0,1.2-0.6c0.1-0.1,0.2-0.3,0.3-0.5c0,0,0,0,0-0.1
		s0-0.1,0.1-0.2c0-0.1,0-0.1,0-0.2v-0.1c0.2-1.4,0.4-4.6,0.5-8.2c0.8-0.2,1.5-0.4,1.9-0.5c2.2-0.6,3-5.6,2.9-6.5
		c-0.1-3.2-3.4-6.9-4.7-5.6c0,0,0,0-0.1,0.1c0-2.1,0-3.6,0-4c2.5-0.3,5-3.4,6.3-7.3c0.3-0.9,0.6-1.9,0.7-2.9
		C120.3,33,118.3,28.1,117,26.5z M103.3,35.4c-0.1,0.6-0.1,1.2-0.1,1.8c0-0.1,0-0.2,0-0.4c0-0.5,0-1.1,0.1-1.6
		c0.1-1.2,0.4-2.4,0.8-3.5c0-0.1,0.1-0.2,0.1-0.3C103.8,32.6,103.5,34,103.3,35.4z"/>
	<g>
		<g>
			<path class="st1" d="M102.3,43.9c0.6,0.4,1.3,0.8,2,1c0.6,0.2,1.1,0.3,1.7,0.4c0.5,0.1,1.1,0.1,1.6,0.1c0.2,0,0.4,0,0.6,0
				c0.1,0,0.2,0,0.3,0c2.5-0.3,5-3.4,6.3-7.3c0.3-0.9,0.6-1.9,0.7-2.9c1-5.4-1-10.3-2.2-11.8c-0.8-1-2.8-2.1-5.6-2.6
				c-0.1,0-0.3,0-0.4-0.1l-0.3,1.5l-0.1,0.6l-0.2,1.2l-3.4,15.8l-0.5,2.2l-0.2,0.8L102.3,43.9z"/>
			<path class="st1" d="M104.7,43.8c3.6,0.4,7-4.1,7.6-10s-1.7-11-5.3-11.4c-3.6-0.4-7,4.1-7.6,10C98.8,38.3,101.2,43.5,104.7,43.8z
				"/>
			<path class="st2" d="M104.7,43.8c3.6,0.4,7-4.1,7.6-10s-1.7-11-5.3-11.4c-3.6-0.4-7,4.1-7.6,10C98.8,38.3,101.2,43.5,104.7,43.8z
				"/>
			<path class="st3" d="M104.7,42.9c0.5,0.7,1.1,1.4,1.9,1.9c3.4-1,6.3-5.5,6.9-11c0.2-1.6,0.2-3.2-0.1-4.7c-1.2-2-2.7-3.9-4.2-5.7
				c-0.3,0-0.5,0-0.8,0C103.3,23.9,99.3,35.1,104.7,42.9z"/>
			<path class="st4" d="M107.5,45.5c0.3,0.3,0.6,0.5,0.9,0.7c0-0.3,0-0.6,0-0.7c2.5-0.3,5-3.4,6.3-7.3c-2,3.2-5.1,6.2-7.2,6.2
				c-0.3,0-0.5,0.1-0.5,0.2c0,0.1,0,0.1,0,0.2C107.1,45.1,107.3,45.3,107.5,45.5z"/>
			<path class="st1" d="M98.1,32.1c0.7-6.7,4.8-11.7,9-11.2c0.1,0,0.3,0,0.4,0.1c3,0.6,5.2,3.8,5.9,8.1c0.2,1.6,0.3,3.1,0.1,4.7
				c-0.6,5-3,9.1-6,10.6c-0.2,0.1-0.3,0.2-0.5,0.2c-0.2,0.1-0.3,0.1-0.4,0.2c-0.7,0.2-1.4,0.3-2.1,0.2h-0.2
				C100.1,44.3,97.4,38.6,98.1,32.1z M99.5,32.2c-0.1,0.5-0.1,1.1-0.1,1.6c0,3.7,1.3,6.9,3.3,8.3c0.6,0.4,1.3,0.7,2.1,0.8
				c3.5,0.4,6.9-3.8,7.5-9.3c0.5-4.7-1.1-8.9-3.8-10.3c-0.5-0.2-0.9-0.4-1.4-0.4c-0.1,0-0.1,0-0.2,0c-2.6-0.2-5.1,2.2-6.4,5.7
				C99.9,29.8,99.6,31,99.5,32.2z"/>
			<path class="st5" d="M98.1,32.1c0.7-6.7,4.8-11.7,9-11.2c0.1,0,0.3,0,0.4,0.1c3,0.6,5.2,3.8,5.9,8.1c0.2,1.6,0.3,3.1,0.1,4.7
				c-0.6,5-3,9.1-6,10.6c-0.2,0.1-0.3,0.2-0.5,0.2c-0.2,0.1-0.3,0.1-0.4,0.2c-0.7,0.2-1.4,0.3-2.1,0.2h-0.2
				C100.1,44.3,97.4,38.6,98.1,32.1z M99.5,32.2c-0.1,0.5-0.1,1.1-0.1,1.6c0,3.7,1.3,6.9,3.3,8.3c0.6,0.4,1.3,0.7,2.1,0.8
				c3.5,0.4,6.9-3.8,7.5-9.3c0.5-4.7-1.1-8.9-3.8-10.3c-0.5-0.2-0.9-0.4-1.4-0.4c-0.1,0-0.1,0-0.2,0c-2.6-0.2-5.1,2.2-6.4,5.7
				C99.9,29.8,99.6,31,99.5,32.2z"/>
			<path class="st1" d="M106,71.9c0.6,0.3,1.2,0.2,1.7-1c0.8-2.1,0.5-20.3,0.6-24.7c0-0.3,0-0.6,0-0.7c0-0.1,0-0.1,0-0.1
				c0-0.2-0.2-0.3-0.4-0.4c-0.3-0.1-0.6-0.2-1-0.1c-0.5,0-1,0.2-1.1,0.5c0,0,0,0,0,0.1c-0.1,1.5-0.9,24.1-0.9,25.2
				C105.1,71,105.5,71.6,106,71.9z"/>
			<path class="st6" d="M109.3,27c-0.2-0.4-0.5-0.6-0.7-0.7c-0.2,0-0.4,0-0.6,0.1s-0.4,0.2-0.5,0.3"/>
			<path class="st6" d="M109.9,34c0.1-0.7,0.2-1.4,0.2-2.1c0-1.2-0.1-2.3-0.3-3.4"/>
			<path class="st7" d="M106,71.9c0.6,0.3,1.2,0.2,1.7-1c0.9-2.3,0.6-24.8,0.7-25.5c0-0.2-0.2-0.3-0.4-0.4
				C107.9,48.9,107.8,67.9,106,71.9z"/>
			<path class="st8" d="M110.3,61.6c-0.9,0.3-3.6,0.7-4.6,1.7c-0.3,0.2-0.5,0.5-0.8,0.8c-0.3,0.3-0.6,0.6-0.9,0.8
				c-1.8,1.6-3.1,2.3-4.8,3.5c0,0-5.8-5.8-5.1-7c0.5-0.7,1.9-1.5,3.5-2.5c0.7-0.4,1.3-0.9,2-1.4c0.3-0.2,0.7-0.5,1-0.8
				c0.7-0.6,1.2-1.4,1.7-2.3c1.3-2.6,1.4-6.6,3.1-6c1.8,0.6-1.4,5.2,3.1,0.8c1.3-1.2,4.6,2.5,4.7,5.6C113.2,56,112.5,61,110.3,61.6z
				"/>
			<path class="st8" d="M67.5,15.3L67.5,15.3c-0.2,0.3-0.3,0.6-0.5,0.8c-0.7,1.2-1.2,2.3-1.6,3.2c0,0,0,0.1-0.1,0.2
				c-0.1,0.3-0.2,0.5-0.3,0.8c-0.2,0.5-0.4,0.9-0.5,1.2c-0.2,0.6-0.4,1.1-0.5,1.4c-0.1,0.2-0.2,0.5-0.3,0.7
				c-1.4-0.2-0.3-1.4-2.3,1.3c-2.9,4-5.5,6.8-7.4,0.1l-2.4,3.3L51.2,29l-5.7,4.1L41,26.5c2.1-3.9,4.5-5.2,6.2-7.1
				c1.8-2,3.4-4.5,5-6.8l0.5-0.8c0.2-0.3,0.4-0.6,0.7-0.9c0.7-1,1.5-2,2.3-3c1.1-1.2,2.1-1.9,3.2-2c4.1-0.3,7.8,4.8,8.6,7.8
				C67.7,14.3,67.7,15,67.5,15.3z"/>
			<path class="st9" d="M52.1,8.2c-0.2,0.4-0.4,0.7-0.5,1.1c-0.1,0.3-0.2,0.6-0.4,0.9c-0.3,0.8-0.8-0.9-1.6-0.1
				c-2.1,2.1-3.2,7.3-2.5,9.2c0.2,0.5,0.5,0.9,1,1.2c2.3,1.6,6.3-0.5,7.4-2.1c-0.2-0.5-0.1-1.1,0-1.6c0.2-0.5,0.5-0.9,1-1.2
				c1-0.6,2.5-0.8,2.7,1.1c1.5,1,1.8,1.1,2.4,0.2c0.2-0.2,0.1-0.1,0.3-0.5c0.7-1.1,1.3-0.8,2.3-0.5c0.6,0.2,1.2,0.3,1.8,0.3
				c0.3,0,0.7-0.1,0.9-0.3c0.1-0.1,0.2-0.2,0.3-0.3c0.1-0.1,0.1-0.3,0.1-0.4c0-0.6,0-1.2,0-1.8s0-1.2,0-1.8c0.1-1.4,0.1,0.2,0.8-0.3
				c0.1-0.1,0.1-0.1,0.1-0.2c0,0,0,0,0-0.1c0.4-1,3.8-2.9,1.5-3c-2.3-0.1-2.9,1.3-3.4-2s-2.7-5-5.5-3c-3.3,2.3-0.5-1.1-3.9,0.8
				C54,5.5,52.8,6.9,52.1,8.2z"/>
			<path class="st10" d="M54.2,25l-2.4,3.3c-1-1.6-2.1-3.2,0.1-5.5C52.3,22.3,54.1,22.6,54.2,25z"/>
			<path class="st1" d="M99.4,56.1c-1,1-19.3,15.3-21.3,14.7C74.9,70,67.9,43.2,54.7,32.6c-0.8-0.7-0.9-4.4-1.4-5.2
				c-1.4-1.9-8-7.2-12.9-6.3c-1.2,0.3-2.7,4.4-4,6.8c-0.5,0.8-0.9,1.4-1.3,1.6l-0.3,0.1c-5.3,1.8-9.4,4.8-13.1,11.7
				C12.1,58.7,6.5,76.8,0.8,98.8c-0.1,0.4-0.2,0.8-0.3,1.2h48.8c0-0.9,0-1.9-0.1-2.9c-0.1-3.9,0.3-8.2,1-12.5
				c1.5-10.2,4.5-19.8,5.9-21.1c0.4-0.4,0.9-0.4,1.4-0.1h0.1l0,0c3.6,1.9,5.6,18.4,16.6,21.6c8.2,2.3,27-14.6,29.6-16.8
				C105.3,67.1,100.7,54.8,99.4,56.1z"/>
			<path class="st10" d="M65.4,19.4L65.4,19.4c-0.2,0.4-0.3,0.6-0.4,0.9c-0.2,0.5-0.4,0.9-0.5,1.2c-3.1-1.6-7.5-3.8-9.7-6.1
				c-1.3-1.3-1.8-2-2.6-2.9c-0.1-0.2-0.3-0.3-0.4-0.5c-0.6-0.6-0.1-1.4-0.5-1.8c0.1-0.3,0.3-0.6,0.4-0.9L51.3,9l2.9-2.7l1.5,1.4
				l8.6,8.3l1.2,1.2C65.6,17.3,65.7,19,65.4,19.4z"/>
			<path class="st4" d="M50.2,84.7c1.5-10.2,4.5-19.8,5.9-21.1c0.4-0.4,0.9-0.4,1.4-0.1C53,61.1,45.8,62.8,50.2,84.7z"/>
			<path class="st1" d="M45.1,7.4C46.3,10,58.5,18.1,72,22.3c1.3,0.4-0.3-3.1-2.4-4.9c-0.2-0.2-0.4-0.4-0.5-0.7
				C68.8,16,68.8,15.1,69,14c0.3-1.4,0.8-2.8,1.4-4.1c2.1-3.6-0.6-8.6-5-9.8c-3.1-0.5-2.7,0.5-4.8-0.2c-2.7-0.8-6.1,2.3-7.8,4.7
				c-0.7,0.8-0.7,1.7-1.7,1.8C49.1,6.7,44.3,5.6,45.1,7.4z"/>
			<path class="st11" d="M51.2,6.6c3,1.8,9.8,6,10.2,5.7c0.6-0.4-6.9-5.1-8.5-7.5c-0.3,0.4-0.6,0.9-0.9,1.3
				c-0.1,0.1-0.2,0.3-0.4,0.4C51.6,6.6,51.4,6.6,51.2,6.6z"/>
			<path class="st12" d="M65.7,14.9c0.9,0.7,2.7,1.5,3.5,1.9c-0.3-0.7-0.3-1.6-0.1-2.7c-0.7,0.3-0.5,1.1-1.8,0.7
				C65.6,14.4,64.5,14,65.7,14.9z"/>
			<path class="st0" d="M41.8,31.5c-1.7-0.1-4.5-0.2-7.1-1.9l0.3-0.1c0.4-0.1,0.9-0.7,1.3-1.6c2.1,1.1,0.9,2,2.1,2.3
				C39.8,30.4,43.7,31.6,41.8,31.5z"/>
		</g>
	</g>
</g>
</svg>
