<?xml version="1.0" encoding="utf-8"?>
<!-- Generator: Adobe Illustrator 25.3.1, SVG Export Plug-In . SVG Version: 6.00 Build 0)  -->
<svg version="1.1" id="圖層_1" xmlns="http://www.w3.org/2000/svg" xmlns:xlink="http://www.w3.org/1999/xlink" x="0px" y="0px"
	 viewBox="0 0 640 400" style="enable-background:new 0 0 640 400;" xml:space="preserve">
<style type="text/css">
	.st0{fill:#F2F2F2;}
	.st1{fill:#F2994A;}
	.st2{fill:#FFFFFF;}
	.st3{fill:#E0E0E0;}
	.st4{fill:#4F4F4F;}
	.st5{fill:none;stroke:#BDBDBD;}
	.st6{fill:#EB5757;}
	.st7{clip-path:url(#SVGID_2_);}
	.st8{fill:#0267A4;}
	.st9{opacity:0.15;fill:#0D0D1E;enable-background:new    ;}
	.st10{opacity:0.72;fill:#FFFFFF;enable-background:new    ;}
	.st11{opacity:0.26;fill:#0D0D1E;enable-background:new    ;}
	.st12{opacity:0.24;fill:#FFFFFF;enable-background:new    ;}
	
		.st13{opacity:0.84;fill:none;stroke:#FFFFFF;stroke-width:9;stroke-linecap:round;stroke-miterlimit:10;enable-background:new    ;}
	.st14{opacity:0.2;fill:#0D0D1E;enable-background:new    ;}
	.st15{fill:#EFAEA6;}
	.st16{fill:#1F1F3B;}
	.st17{opacity:0.16;fill:#1F1F39;enable-background:new    ;}
	.st18{opacity:0.35;fill:#FFFFFF;enable-background:new    ;}
	.st19{opacity:0.36;fill:#1F1F39;enable-background:new    ;}
	.st20{opacity:0.17;fill:#1F1F39;enable-background:new    ;}
</style>
<g>
	<path shape-rendering="crispEdges" class="st0" d="M11.5,81.5h617.6c6,0,10.9,4.9,10.9,10.9V389c0,6-4.9,10.9-10.9,10.9H11.5
		c-6,0-10.9-4.9-10.9-10.9V92.4C0.5,86.4,5.4,81.5,11.5,81.5z"/>
	<g>
		<path class="st1" d="M98.5,56.8c0-6,4.9-10.9,10.9-10.9h149.8c6,0,10.9,4.9,10.9,10.9v42.4c0,0.8-0.6,1.4-1.4,1.4h-169
			c-0.8,0-1.4-0.6-1.4-1.4V56.8z"/>
		<path class="st2" d="M168.3,81.5V65.3h5.4c3.3,0,5.9,1,5.9,4c0,1.5-0.8,3-2.2,3.5v0.1c1.8,0.4,3,1.6,3,3.8c0,3.3-2.7,4.8-6.3,4.8
			H168.3z M171.5,71.9h1.9c2.1,0,3-0.8,3-2.1c0-1.4-1-2-2.9-2h-1.9V71.9z M171.5,79h2.3c2.2,0,3.4-0.8,3.4-2.5
			c0-1.6-1.2-2.2-3.4-2.2h-2.3V79z M183.2,81.5V65.3h3.2v16.2H183.2z M193.4,74.8h3.9l-0.5-1.8c-0.5-1.7-0.9-3.5-1.4-5.3h-0.1
			c-0.4,1.8-0.9,3.6-1.4,5.3L193.4,74.8z M199.1,81.5l-1.1-4.2h-5.3l-1.1,4.2h-3.3l5.2-16.2h3.8l5.2,16.2H199.1z"/>
		<path class="st3" d="M98.5,100.6h171.7v276.4c0,6-4.9,10.9-10.9,10.9H109.5c-6,0-10.9-4.9-10.9-10.9V100.6z"/>
		<path class="st4" d="M173.3,128.1v-1h-0.7v1H173.3z M173.3,130.4v-1h-0.7v1H173.3z M170.5,129.4v1h0.7v-1H170.5z M170.5,127.1v1
			h0.7v-1H170.5z M172.8,125.7h2.1v6.1h-2.1v1h2.3v1.7h-2.3v2.5H171v-2.5h-2.4v-1.7h2.4v-1h-2v-6.1h2v-0.9h-2.3v-1.6h2.3v-1.5h1.8
			v1.5h2.3v1.6h-2.3V125.7z M184,128.9l-1.6,1.1c-0.1-0.1-0.1-0.2-0.2-0.4c-0.4,1.2-0.9,2.4-1.5,3.3c0.9,1.1,2.1,1.9,3.4,2.4
			c-0.4,0.4-1,1.1-1.3,1.6c-1.3-0.6-2.4-1.4-3.3-2.4c-1,1-2.1,1.8-3.5,2.5c-0.2-0.4-0.8-1.1-1.2-1.5c1.4-0.6,2.6-1.5,3.5-2.6
			c-0.6-1-1.1-2.1-1.6-3.3c-0.1,0.2-0.3,0.3-0.4,0.5c-0.4-0.3-1.1-0.9-1.6-1.2c0.8-0.9,1.6-2.2,2.2-3.3l1.8,0.6
			c-0.5,1-1.2,2.1-1.8,3l1.3-0.3c0.3,0.9,0.6,1.7,1.1,2.5c0.4-0.8,0.8-1.6,1-2.5l1.4,0.4c-0.5-0.8-1.2-1.8-1.8-2.6l1.4-0.9h-6.3
			v-1.8h3.5c-0.2-0.5-0.6-1.1-0.9-1.6l1.7-0.7c0.4,0.6,0.9,1.4,1.1,1.9l-0.9,0.4h3.9v1.8h-2C182.4,126.6,183.5,128,184,128.9z
			 M188.4,121.7l1.8,0.6c-0.4,1.1-1,2.3-1.6,3.4v11.3h-1.9v-8.4c-0.4,0.5-0.7,0.9-1.1,1.3c-0.2-0.5-0.7-1.6-1.1-2
			C186.1,126.4,187.5,124,188.4,121.7z M192,136.6V135h4.4v1.6H192z M192.3,127.7h3.1c-0.1-1.1-0.2-2.3-0.2-3.5
			c-0.9,0.2-1.9,0.4-2.8,0.5V127.7z M200,129.5h-2.7c0.4,3,0.9,5.1,1.4,5.1c0.2,0,0.4-0.7,0.5-2c0.3,0.4,1,0.9,1.3,1
			c-0.4,2.6-1.1,3.2-1.8,3.2c-1.7,0-2.7-2.9-3.2-7.3h-3.2v3.4l2.6-0.6c0,0.5,0,1.2,0,1.7c-3.6,1-4.2,1.2-4.6,1.4
			c-0.1-0.4-0.4-1.2-0.7-1.5c0.3-0.2,0.8-0.5,0.8-1.2v-9.4c2.8-0.4,5.8-1.1,7.7-1.8l1.5,1.5c-0.8,0.3-1.8,0.6-2.8,0.8
			c0,1.4,0.1,2.7,0.2,3.9h2.9V129.5z"/>
		<path class="st5" d="M98.5,158.1h171.7"/>
		<path class="st4" d="M177.2,187.4h3.7v-3.5h-3.7V187.4z M171.4,187.4h3.7v-3.5h-3.7V187.4z M177.2,181.9h5.8v8.2h-2.1v-0.8h-3.7
			v5.1h-2.1v-5.1h-3.7v0.9h-2v-8.3h5.7v-2.8h2.1V181.9z M196.8,188.2v0.8h3.1v1.6h-3.1v2c0,0.9-0.2,1.3-0.9,1.5
			c-0.7,0.2-1.7,0.2-3.1,0.2c-0.1-0.5-0.3-1.1-0.5-1.6c0.8,0,1.8,0,2.1,0c0.2,0,0.3-0.1,0.3-0.3v-1.9h-5.1c0.8,0.6,1.7,1.4,2.2,2
			l-1.4,1.1c-0.5-0.6-1.6-1.7-2.5-2.4l1-0.7h-3.6v-1.6h9.5v-0.8H196.8z M193.6,183.8h3.2c-0.3-0.5-0.9-1.1-1.3-1.5l0.7-0.6h-1.2
			c-0.4,0.7-0.8,1.4-1.3,1.9V183.8z M195.7,180.1h4.5v1.7h-3c0.4,0.4,0.8,0.8,1.1,1.1l-1,0.9h2.2v1.7h-5.8v1h4.8v1.5h-11.7v-1.5h4.9
			v-1h-5.8v-1.7h4.1c-0.4-0.4-1-1.1-1.5-1.5l0.6-0.5h-1.2c-0.5,0.7-1,1.3-1.5,1.8c-0.3-0.3-0.9-1-1.3-1.3c1-0.8,1.9-2.1,2.5-3.3
			l1.7,0.5c-0.1,0.2-0.2,0.4-0.3,0.7h3.6v1.7h-2.3c0.4,0.3,0.8,0.7,1,1l-1.1,1h1.5V183h1.2c-0.2-0.2-0.5-0.3-0.7-0.5
			c0.9-0.9,1.6-2.2,2.1-3.6l1.8,0.4C195.9,179.6,195.8,179.9,195.7,180.1z"/>
		<path class="st5" d="M98.5,215.6h171.7"/>
		<path class="st4" d="M177.2,244.9h3.7v-3.5h-3.7V244.9z M171.4,244.9h3.7v-3.5h-3.7V244.9z M177.2,239.4h5.8v8.2h-2.1v-0.8h-3.7
			v5.1h-2.1v-5.1h-3.7v0.9h-2v-8.3h5.7v-2.8h2.1V239.4z M196.8,245.7v0.8h3.1v1.6h-3.1v2c0,0.9-0.2,1.3-0.9,1.5
			c-0.7,0.2-1.7,0.2-3.1,0.2c-0.1-0.5-0.3-1.1-0.5-1.6c0.8,0,1.8,0,2.1,0c0.2,0,0.3-0.1,0.3-0.3v-1.9h-5.1c0.8,0.6,1.7,1.4,2.2,2
			l-1.4,1.1c-0.5-0.6-1.6-1.7-2.5-2.4l1-0.7h-3.6v-1.6h9.5v-0.8H196.8z M193.6,241.3h3.2c-0.3-0.5-0.9-1.1-1.3-1.5l0.7-0.6h-1.2
			c-0.4,0.7-0.8,1.4-1.3,1.9V241.3z M195.7,237.6h4.5v1.7h-3c0.4,0.4,0.8,0.8,1.1,1.1l-1,0.9h2.2v1.7h-5.8v1h4.8v1.5h-11.7v-1.5h4.9
			v-1h-5.8v-1.7h4.1c-0.4-0.4-1-1.1-1.5-1.5l0.6-0.5h-1.2c-0.5,0.7-1,1.3-1.5,1.8c-0.3-0.3-0.9-1-1.3-1.3c1-0.8,1.9-2.1,2.5-3.3
			l1.7,0.5c-0.1,0.2-0.2,0.4-0.3,0.7h3.6v1.7h-2.3c0.4,0.3,0.8,0.7,1,1l-1.1,1h1.5v-0.8h1.2c-0.2-0.2-0.5-0.3-0.7-0.5
			c0.9-0.9,1.6-2.2,2.1-3.6l1.8,0.4C195.9,237.1,195.8,237.4,195.7,237.6z"/>
		<path class="st5" d="M98.5,273.1h171.7"/>
		<path class="st6" d="M171.5,303.4v-2.1h-1.2v2.1H171.5z M164.7,301.3v2.1h1.1v-2.1H164.7z M168.7,301.3h-1.3v2.1h1.3V301.3z
			 M175,301.3h-1.6v2.1h2v1.7h-14.6v-1.7h2.2v-2.1h-1.8v-1.7h1.8v-1.5h1.7v1.5h1.1v-1.5h1.6v1.5h1.3v-1.5h1.6v1.5h1.2v-1.5h1.8v1.5
			h1.6V301.3z M174.9,297.5h-11.6c-0.6,0.7-1.3,1.3-1.9,1.8c-0.2-0.4-0.8-1.2-1.1-1.6c1.3-0.9,2.6-2.4,3.4-3.9l1.7,0.6
			c-0.2,0.5-0.5,0.9-0.8,1.4h10.3V297.5z M162.4,309.5l-1.9-0.8c0.6-0.8,1.4-2.1,1.8-3.2l1.9,0.5C163.8,307.1,163,308.5,162.4,309.5
			z M165.1,306.1l1.8-0.2c0.2,1,0.4,2.3,0.4,3.1l-1.9,0.3C165.4,308.5,165.3,307.2,165.1,306.1z M168.5,306.1l1.8-0.3
			c0.4,1,0.8,2.2,1,3l-2,0.4C169.2,308.4,168.8,307.1,168.5,306.1z M171.8,306.1l1.8-0.7c0.7,1,1.5,2.3,1.9,3.2l-1.9,0.8
			C173.3,308.6,172.5,307.1,171.8,306.1z M178.5,301.8v1h1v-1H178.5z M178.5,299.6v1h1v-1H178.5z M181.9,300.5v-1h-1.1v1H181.9z
			 M181.9,302.8v-1h-1.1v1H181.9z M181,304.1v1h2.6v1.7H181v2.6h-1.7v-2.6h-2.6v-1.7h2.6v-1h-2.2v-5.9h2.2v-0.9h-2.4v-1.7h2.4V294
			h1.7v1.6h2.4v1.7H181v0.9h2.3v5.9H181z M186.9,303.6h-1.4v1.1h1.4V303.6z M190,304.7v-1.1h-1.5v1.1H190z M188.5,307.2h1.5v-1.1
			h-1.5V307.2z M185.5,307.2h1.4v-1.1h-1.4V307.2z M183.8,309.4V302h8v7.4H190v-0.6h-4.5v0.6H183.8z M189.4,299.8v-1.1h-3.2v1.1
			H189.4z M184.4,297.2h6.9v4.1h-6.9V297.2z M183.8,294.8h8.1v1.7h-8.1V294.8z M196.2,301.8v0.9c0.8-0.1,1.6-0.1,2.4-0.2v-0.6H196.2
			z M198.6,298.2v-0.9h-2.4v0.9H198.6z M198.6,300.4v-0.8h-2.4v0.8H198.6z M200.4,295.9v5.9l1.3,0.7c-0.4,0.5-0.9,1-1.3,1.4v3.6
			c0,0.9-0.2,1.3-0.7,1.6c-0.5,0.3-1.3,0.3-2.4,0.3c-0.1-0.5-0.3-1.2-0.6-1.6c0.7,0,1.4,0,1.6,0c0.2,0,0.3-0.1,0.3-0.3v-2
			c-1.5,1.2-3.2,2.2-4.8,3c-0.1-0.4-0.5-1.3-0.8-1.7c1.7-0.7,3.4-1.7,4.9-2.9c-1.7,0.2-3.3,0.4-4.6,0.5l-0.2-1.5l1.3-0.1v-6.9h1.6
			c0.2-0.6,0.4-1.3,0.5-1.8l2,0.2c-0.2,0.6-0.5,1.1-0.7,1.6H200.4z M204.8,304.3l-1.6,0.7c-0.3-1.1-1-2.7-1.8-3.9l1.5-0.6
			C203.8,301.6,204.5,303.2,204.8,304.3z M208.4,297.6v1.9h-1.6v7.7c0,1.1-0.2,1.5-0.9,1.8c-0.6,0.3-1.6,0.4-3,0.4
			c-0.1-0.5-0.4-1.3-0.6-1.9c0.9,0,1.9,0,2.2,0c0.3,0,0.4-0.1,0.4-0.4v-7.7h-4v-1.9h4v-3.4h1.8v3.4H208.4z"/>
		<path class="st5" d="M98.5,330.5h171.7"/>
		<path class="st6" d="M131.3,364.2h7.8v-1.7h-7.8V364.2z M139.1,359h-7.8v1.7h7.8V359z M139.1,355.5h-7.8v1.7h7.8V355.5z
			 M135.5,353.6h5.6v13.2h-2.1V366h-7.8v0.8h-2v-13.2h4.2c0.2-0.7,0.4-1.5,0.4-2.2l2.4,0.3C136.1,352.4,135.8,353.1,135.5,353.6z
			 M158.7,352.5v1.9h-8v-1.9H158.7z M147.5,351.5l1.9,0.8c-1.2,1.6-2.9,3.3-4.5,4.3c-0.3-0.4-0.8-1.2-1.1-1.6
			C145.2,354.2,146.8,352.7,147.5,351.5z M148.2,355.1l1.9,0.7c-0.5,0.8-1.1,1.7-1.7,2.5v8.6h-2v-6.5c-0.5,0.5-0.9,0.9-1.4,1.2
			c-0.3-0.4-0.9-1.3-1.3-1.7C145.3,358.8,147.1,356.9,148.2,355.1z M159.1,357v1.9h-2.2v5.8c0,1.1-0.2,1.6-1,1.9
			c-0.7,0.3-1.8,0.3-3.2,0.3c-0.1-0.6-0.3-1.4-0.6-1.9c0.9,0,2,0,2.3,0c0.3,0,0.4-0.1,0.4-0.3v-5.7H150V357H159.1z M172.3,353.2v9.5
			h-1.7v-9.5H172.3z M164.7,353.2l-1.2,1.5c-0.5-0.5-1.7-1.2-2.6-1.7l1.1-1.4C162.9,352.1,164.1,352.7,164.7,353.2z M164.1,357.5
			l-1.2,1.6c-0.5-0.5-1.7-1.2-2.6-1.6l1.1-1.4C162.3,356.4,163.5,357,164.1,357.5z M162.7,360.4l1.6,1.1c-0.6,1.7-1.3,3.6-2,5.3
			l-1.7-1.1C161.2,364.4,162.1,362.3,162.7,360.4z M165.3,363l1.8,0.5c-0.6,1.3-1.5,2.7-2.3,3.5c-0.3-0.3-1.1-0.8-1.5-1.1
			C164.1,365.2,164.8,364.1,165.3,363z M167.6,363.7l1.4-0.8c0.6,0.8,1.4,1.9,1.8,2.6l-1.5,1C168.9,365.7,168.2,364.5,167.6,363.7z
			 M168.1,355.2v-1.4h-1.6v1.4H168.1z M168.1,358.2v-1.4h-1.6v1.4H168.1z M168.1,361.2v-1.4h-1.6v1.4H168.1z M169.8,352.2v10.7h-5
			v-10.7H169.8z M173.3,351.5h1.8v13.1c0,1-0.2,1.5-0.8,1.8c-0.6,0.3-1.5,0.4-2.7,0.4c-0.1-0.5-0.3-1.3-0.6-1.8c0.8,0,1.7,0,1.9,0
			c0.2,0,0.3-0.1,0.3-0.3V351.5z M187.7,353.6V353h-6.8v0.6H187.7z M187.7,355.1v-0.6h-6.8v0.6H187.7z M189.7,352v4.1H179V352H189.7
			z M191.8,356.6v1.4H177v-1.4H191.8z M180.6,361.6h2.9V361h-2.9V361.6z M180.6,359.5v0.6h2.9v-0.6H180.6z M188.2,360.1v-0.6h-2.9
			v0.6H188.2z M188.2,361.6V361h-2.9v0.6H188.2z M185.3,365h6.6v1.4h-14.9V365h6.5v-0.6h-5v-1.3h5v-0.5h-4.7v-4.2h11.3v4.2h-4.8v0.5
			h5v1.3h-5V365z M197.3,353.4v3.8h-1.9V352h10.8v5.1h-2v-3.8H197.3z M203.6,354v1.1h-5.8V354H203.6z M203.6,356.9h-5.8v-1.1h5.8
			V356.9z M205.4,361.4h-2.2c0.3,0.6,0.7,1.1,1.1,1.5C204.8,362.4,205.2,361.9,205.4,361.4z M196.5,363.3v0.8
			c0.7-0.1,1.5-0.1,2.3-0.2v-0.6H196.5z M198.8,359.2h-2.3v0.7h2.3V359.2z M196.5,361.3v0.7h2.3v-0.7H196.5z M206.6,359.8l1.2,0.5
			c-0.4,1.5-1.1,2.8-2,3.8c0.8,0.5,1.8,0.9,2.8,1.1c-0.4,0.3-0.9,1.1-1.1,1.5c-1.1-0.3-2.1-0.8-3-1.4c-0.9,0.7-1.8,1.2-2.9,1.6
			c-0.2-0.4-0.6-1.1-1-1.4v1.5h-1.8v-1.4c-1.9,0.2-3.8,0.4-5.3,0.6l-0.1-1.7c0.4,0,0.9-0.1,1.4-0.1v-5h-1.3v-1.5h14.6v1.5h-7.5v6
			c0.9-0.3,1.7-0.7,2.5-1.2c-0.6-0.7-1.2-1.6-1.6-2.5l0.6-0.2h-1v-1.5h5.1L206.6,359.8z M210.8,359.6l-1.5-0.5
			c0.4-1.1,0.7-2.9,0.8-4.3l1.4,0.2C211.5,356.4,211.2,358.3,210.8,359.6z M215.7,357.3l-1.4,0.7c-0.1-0.6-0.4-1.4-0.7-2.2v11.1
			h-1.9v-15.3h1.9v3.1l0.9-0.4C214.9,355.2,215.5,356.5,215.7,357.3z M220.2,355.8v1.5c0,0.5,0,1,0,1.5h1.7v-3H220.2z M224.8,360.7
			h-4.9c-0.5,2.3-1.7,4.6-4.6,6.3c-0.3-0.4-1-1.1-1.4-1.5c2.5-1.2,3.5-3,4-4.8h-3.3v-1.9h3.5c0-0.5,0-1,0-1.5v-1.5h-2.8V354h2.8
			v-2.5h2v2.5h3.6v4.8h1V360.7z M220,361.6l1.6-0.8c1.1,1.6,2.6,3.8,3.3,5.1l-1.8,1C222.5,365.5,221,363.2,220,361.6z M238.5,357
			h-1.8v1.4h1.8V357z M233,357v1.4h1.8V357H233z M234.8,355.5v-0.9h-4.1V353h4.1v-1.4h1.9v1.4h4.3v1.6h-4.3v0.9h3.7v4.4h-3.1
			c1.3,0.8,2.8,1.8,3.6,2.5l-1.2,1.3c-0.6-0.7-1.9-1.6-3.1-2.4v2.9h-1.9v-3c-0.9,1.1-2,2.1-3.2,2.7c-0.3-0.4-0.8-1.1-1.2-1.5
			c1.3-0.5,2.7-1.5,3.6-2.6h-2.7v-4.4H234.8z M229.7,354.2l-1.7,0.8c-0.3-0.8-0.9-2-1.2-2.8l1.7-0.6
			C228.9,352.3,229.4,353.4,229.7,354.2z M229.7,358.9l1.1,0.5c-0.3,1.5-0.7,2.9-1.4,4.1c0.2,0.1,0.5,0.3,0.9,0.5
			c1.1,0.6,2.7,0.7,4.6,0.7c1.8,0,4.8-0.2,6.7-0.4c-0.2,0.5-0.5,1.5-0.6,2.1c-1.3,0.1-4.3,0.2-6.2,0.2c-2.2,0-3.5-0.2-4.7-0.8
			c-0.7-0.4-1.3-0.9-1.6-0.9c-0.4,0-1,1.1-1.4,2l-1.3-1.9c0.5-0.6,1.1-1.1,1.6-1.4c0.6-0.8,1.1-1.9,1.4-3h-2.3
			c0.4-1,0.9-2.3,1.3-3.6h-1.6v-1.7h4.1c-0.4,1.2-0.9,2.5-1.3,3.6h0.4L229.7,358.9z"/>
	</g>
	<g>
		<defs>
			
				<rect id="SVGID_1_" x="12.3" y="8.3" transform="matrix(0.1644 -0.9864 0.9864 0.1644 -6.8144 122.8568)" width="113.6" height="114.2"/>
		</defs>
		<clipPath id="SVGID_2_">
			<use xlink:href="#SVGID_1_"  style="overflow:visible;"/>
		</clipPath>
		<g class="st7">
			<g>
				<path class="st8" d="M107.4,52.4c0.6,0.5,1.3,0.8,2,1c0.6,0.2,1.1,0.3,1.7,0.4c0.5,0.1,1.1,0.1,1.6,0.1c0.2,0,0.4,0,0.6,0
					c0.1,0,0.2,0,0.3,0c2.6-0.3,5-3.5,6.4-7.4c0.3-0.9,0.6-1.9,0.8-2.9c1-5.5-1-10.4-2.3-12c-0.9-1-2.8-2.2-5.7-2.6
					c-0.1,0-0.3,0-0.4-0.1l-0.3,1.5L112,31l-0.3,1.2l-3.4,16.1l-0.5,2.2l-0.2,0.8L107.4,52.4z"/>
				<path class="st8" d="M109.9,52.3c3.6,0.4,7.1-4.2,7.7-10.2c0.7-6-1.7-11.2-5.3-11.6c-3.6-0.4-7.1,4.2-7.7,10.2
					C103.9,46.7,106.3,51.9,109.9,52.3z"/>
				<path class="st9" d="M109.9,52.3c3.6,0.4,7.1-4.2,7.7-10.2c0.7-6-1.7-11.2-5.3-11.6c-3.6-0.4-7.1,4.2-7.7,10.2
					C103.9,46.7,106.3,51.9,109.9,52.3z"/>
				<path class="st10" d="M109.9,51.4c0.5,0.8,1.1,1.4,1.9,1.9c3.5-1.1,6.4-5.5,7-11.2c0.2-1.6,0.2-3.2-0.1-4.8
					c-1.3-2.1-2.7-4-4.3-5.8c-0.3,0-0.5,0-0.8,0C108.5,32.1,104.4,43.4,109.9,51.4z"/>
				<path class="st11" d="M112.8,54c0.3,0.3,0.6,0.5,0.9,0.7c0-0.4,0-0.6,0-0.8c2.6-0.3,5-3.5,6.4-7.4c-2,3.3-5.2,6.3-7.3,6.3
					c-0.3,0-0.5,0.1-0.5,0.2c0,0.1,0,0.1,0,0.2C112.4,53.6,112.5,53.8,112.8,54z"/>
				<path class="st8" d="M103.2,40.3c0.8-6.8,4.9-11.9,9.2-11.4c0.1,0,0.3,0,0.4,0.1c3,0.6,5.3,3.9,6,8.3c0.2,1.6,0.3,3.2,0.1,4.8
					c-0.6,5.1-3,9.3-6.1,10.8c-0.2,0.1-0.3,0.2-0.5,0.2c-0.2,0.1-0.3,0.1-0.4,0.2c-0.7,0.2-1.4,0.3-2.1,0.2l-0.2,0
					C105.3,52.8,102.5,47,103.2,40.3z M104.6,40.5c-0.1,0.5-0.1,1.1-0.1,1.6c0,3.7,1.3,7,3.3,8.4c0.6,0.4,1.3,0.7,2.1,0.8
					c3.6,0.4,7-3.8,7.6-9.4c0.5-4.8-1.1-9.1-3.9-10.4c-0.5-0.2-1-0.4-1.5-0.4c-0.1,0-0.1,0-0.2,0c-2.7-0.2-5.2,2.2-6.5,5.8
					C105,38,104.7,39.3,104.6,40.5z"/>
				<path class="st12" d="M103.2,40.3c0.8-6.8,4.9-11.9,9.2-11.4c0.1,0,0.3,0,0.4,0.1c3,0.6,5.3,3.9,6,8.3c0.2,1.6,0.3,3.2,0.1,4.8
					c-0.6,5.1-3,9.3-6.1,10.8c-0.2,0.1-0.3,0.2-0.5,0.2c-0.2,0.1-0.3,0.1-0.4,0.2c-0.7,0.2-1.4,0.3-2.1,0.2l-0.2,0
					C105.3,52.8,102.5,47,103.2,40.3z M104.6,40.5c-0.1,0.5-0.1,1.1-0.1,1.6c0,3.7,1.3,7,3.3,8.4c0.6,0.4,1.3,0.7,2.1,0.8
					c3.6,0.4,7-3.8,7.6-9.4c0.5-4.8-1.1-9.1-3.9-10.4c-0.5-0.2-1-0.4-1.5-0.4c-0.1,0-0.1,0-0.2,0c-2.7-0.2-5.2,2.2-6.5,5.8
					C105,38,104.7,39.3,104.6,40.5z"/>
				<path class="st8" d="M111.3,80.9c0.6,0.3,1.3,0.2,1.7-1c0.8-2.1,0.6-20.7,0.7-25.1c0-0.4,0-0.6,0-0.8c0-0.1,0-0.1,0-0.1
					c0-0.2-0.2-0.3-0.4-0.4c-0.3-0.1-0.7-0.2-1-0.1c-0.5,0-1.1,0.2-1.1,0.6c0,0,0,0,0,0.1c-0.1,1.5-0.9,24.5-0.9,25.7
					C110.3,80,110.7,80.6,111.3,80.9z"/>
				<path class="st13" d="M114.6,35.2c-0.2-0.4-0.5-0.6-0.8-0.7c-0.2,0-0.4,0-0.6,0.1c-0.2,0.1-0.4,0.2-0.5,0.3"/>
				<path class="st13" d="M115.2,42.3c0.1-0.7,0.2-1.4,0.2-2.1c0-1.2-0.1-2.3-0.4-3.5"/>
				<path class="st14" d="M111.3,80.9c0.6,0.3,1.3,0.2,1.7-1c0.9-2.3,0.6-25.3,0.7-26c0-0.2-0.2-0.3-0.4-0.4
					C113.1,57.5,113.1,76.8,111.3,80.9z"/>
				<path class="st15" d="M115.6,70.4c-1,0.3-3.6,0.7-4.7,1.7c-0.3,0.2-0.5,0.5-0.8,0.8c-0.3,0.3-0.6,0.6-0.9,0.8
					c-1.8,1.7-3.1,2.3-4.8,3.6c0,0-5.9-5.9-5.2-7.1c0.5-0.7,1.9-1.5,3.5-2.5c0.7-0.4,1.4-0.9,2-1.4c0.3-0.3,0.7-0.5,1-0.8
					c0.7-0.7,1.3-1.4,1.7-2.3c1.3-2.6,1.4-6.7,3.2-6.1c1.8,0.6-1.4,5.3,3.1,0.9c1.3-1.3,4.7,2.5,4.8,5.7
					C118.6,64.7,117.8,69.7,115.6,70.4z"/>
				<path class="st15" d="M72.1,23.3C72.1,23.3,72.1,23.3,72.1,23.3c-0.2,0.3-0.3,0.6-0.5,0.9c-0.7,1.3-1.2,2.3-1.6,3.2
					c0,0.1,0,0.1-0.1,0.2c-0.1,0.3-0.2,0.6-0.4,0.8c-0.2,0.5-0.4,0.9-0.5,1.3c-0.2,0.6-0.4,1.1-0.5,1.4c-0.1,0.2-0.2,0.5-0.3,0.7
					c-1.4-0.2-0.3-1.4-2.3,1.4c-2.9,4-5.6,6.9-7.5,0.1L56,36.5l-0.5,0.7l-5.7,4.2l-4.7-6.7c2.2-4,4.6-5.3,6.3-7.2
					c1.9-2.1,3.5-4.6,5.1-7l0.5-0.8c0.2-0.3,0.4-0.6,0.7-1c0.7-1.1,1.5-2.1,2.4-3c1.1-1.2,2.2-1.9,3.3-2c4.2-0.3,7.9,4.9,8.7,7.9
					C72.3,22.3,72.3,22.9,72.1,23.3z"/>
				<path class="st16" d="M56.4,16.1c-0.2,0.4-0.4,0.8-0.5,1.2c-0.1,0.3-0.2,0.6-0.4,0.9c-0.3,0.8-0.9-0.9-1.6-0.1
					c-2.1,2.2-3.3,7.4-2.5,9.4c0.2,0.5,0.5,0.9,1,1.3c2.4,1.6,6.4-0.5,7.5-2.1c-0.2-0.5-0.1-1.1,0-1.6c0.2-0.5,0.5-1,1-1.3
					c1-0.7,2.6-0.8,2.7,1.2c1.5,1,1.8,1.1,2.5,0.2c0.2-0.2,0.1-0.1,0.4-0.5c0.7-1.1,1.4-0.8,2.3-0.5c0.6,0.2,1.2,0.3,1.8,0.3
					c0.3,0,0.7-0.1,1-0.3c0.1-0.1,0.2-0.2,0.3-0.4c0.1-0.1,0.1-0.3,0.1-0.4c0-0.6,0-1.2,0-1.8c0-0.6,0-1.2,0-1.8
					c0.1-1.4,0.1,0.3,0.8-0.3c0.1-0.1,0.1-0.2,0.1-0.2c0,0,0,0,0-0.1c0.2-1.3,3.6-3.2,1.3-3.3c-2.3-0.1-3,1.3-3.5-2
					c-0.5-3.3-2.7-5.1-5.6-3.1c-3.3,2.3-0.5-1.1-4,0.9C58.3,13.3,57.1,14.7,56.4,16.1z"/>
				<path class="st17" d="M58.5,33.2L56,36.5c-1-1.6-2.2-3.2,0.1-5.6C56.6,30.4,58.4,30.7,58.5,33.2z"/>
				<path class="st8" d="M109.1,77.2c-2.7,2.3-21.8,19.4-30.1,17.1c-11.2-3.2-13.2-20-16.9-21.9l0,0c0,0-0.1,0-0.1,0
					c-0.6-0.3-1.1-0.3-1.5,0.1c-1.5,1.3-4.5,11-6,21.4c-0.6,4.3-1.1,8.7-1,12.7c0.1,4.1,0.2,7.7,0.3,11.2l-49.9-8.3
					c0.1-0.4,0.2-0.8,0.3-1.2C10,85.9,15.7,67.4,25.4,49.7c3.8-6.9,7.9-10.1,13.3-11.9l0.3-0.1c0.4-0.1,0.9-0.8,1.4-1.6
					c1.3-2.4,2.8-6.7,4.1-6.9c5-0.9,11.7,4.5,13.1,6.4c0.6,0.8,0.6,4.6,1.5,5.3C72.5,51.7,79.6,79,82.8,79.8c2,0.5,20.6-14,21.7-15
					C105.8,63.5,110.5,76,109.1,77.2z"/>
				<path class="st17" d="M70,27.4C69.9,27.5,69.9,27.5,70,27.4c-0.2,0.4-0.3,0.6-0.4,0.9c-0.2,0.5-0.4,0.9-0.5,1.3
					c-3.1-1.6-7.6-3.9-9.9-6.2c-1.3-1.3-1.9-2-2.7-2.9c-0.1-0.2-0.3-0.3-0.5-0.5c-0.6-0.6-0.1-1.4-0.5-1.8c0.1-0.3,0.3-0.6,0.4-0.9
					l-0.4-0.3l3-2.7l1.5,1.5l8.8,8.4l1.3,1.2C70.1,25.3,70.2,27,70,27.4z"/>
				<path class="st11" d="M54.5,93.8c1.6-10.4,4.6-20.1,6-21.4c0.4-0.4,0.9-0.4,1.5-0.1C57.3,69.9,50,71.6,54.5,93.8z"/>
				<path class="st2" d="M103.2,32.9c-1.7-0.6-1.8-1.4-1.7-4c-0.6,2.4-1.1,3.3-2.9,3.2c1.4,0.9,1.9,1.3,1.8,4.1
					C101.2,33.5,101.5,33.3,103.2,32.9z"/>
				<path class="st2" d="M120.4,55.1c-1.3-0.4-1.4-1.1-1.3-3.1c-0.5,1.8-0.8,2.5-2.3,2.5c1.1,0.7,1.5,1,1.4,3.2
					C118.9,55.5,119.2,55.4,120.4,55.1z"/>
				<path class="st8" d="M49.3,15.3c1.2,2.6,13.6,10.9,27.4,15.2c1.4,0.4-0.3-3.1-2.5-5c-0.2-0.2-0.4-0.4-0.5-0.7
					c-0.3-0.7-0.3-1.7-0.1-2.7c0.4-1.4,0.8-2.8,1.4-4.1c2.2-3.7-0.6-8.8-5.1-9.9c-3.2-0.6-2.8,0.5-4.8-0.2c-2.8-0.8-6.2,2.3-7.9,4.8
					c-0.7,0.8-0.7,1.8-1.8,1.8C53.4,14.5,48.5,13.5,49.3,15.3z"/>
				<path class="st18" d="M55.5,14.4c3,1.9,9.9,6.1,10.4,5.8c0.6-0.4-7-5.2-8.6-7.6c-0.3,0.4-0.6,0.9-0.9,1.4
					c-0.1,0.2-0.2,0.3-0.4,0.4C55.8,14.4,55.7,14.5,55.5,14.4z"/>
				<path class="st19" d="M70.2,22.9c0.9,0.7,2.7,1.5,3.5,1.9c-0.3-0.7-0.3-1.7-0.1-2.7c-0.7,0.3-0.5,1.1-1.9,0.8
					C70.2,22.4,69,22,70.2,22.9z"/>
				<path class="st20" d="M45.9,39.8c-1.7-0.1-4.6-0.2-7.2-2l0.3-0.1c0.4-0.1,0.9-0.8,1.4-1.6c2.1,1.1,0.9,2,2.1,2.3
					C43.8,38.7,47.8,39.8,45.9,39.8z"/>
			</g>
		</g>
	</g>
	<g>
		<path class="st1" d="M286.7,56.8c0-6,4.9-10.9,10.9-10.9h149.8c6,0,10.9,4.9,10.9,10.9v43.8H286.7V56.8z"/>
		<path class="st2" d="M353,81.5V65.3h4.4c4.9,0,8,2.6,8,8c0,5.5-3.1,8.2-7.8,8.2H353z M356.2,78.9h1c3,0,4.9-1.6,4.9-5.6
			c0-4-1.9-5.5-4.9-5.5h-1V78.9z M366.3,81.5l4.6-8.4l-4.3-7.8h3.6l1.6,3.3c0.4,0.8,0.7,1.6,1.2,2.6h0.1c0.4-1,0.7-1.8,1.1-2.6
			l1.5-3.3h3.4l-4.3,8l4.6,8.2h-3.6l-1.8-3.6c-0.4-0.8-0.8-1.7-1.3-2.7h-0.1c-0.4,1-0.8,1.8-1.2,2.7l-1.7,3.6H366.3z M384.7,74.8
			h3.9L388,73c-0.5-1.7-0.9-3.5-1.4-5.3h-0.1c-0.4,1.8-0.9,3.6-1.4,5.3L384.7,74.8z M390.4,81.5l-1.1-4.2H384l-1.1,4.2h-3.3
			l5.2-16.2h3.8l5.2,16.2H390.4z"/>
		<path class="st3" d="M286.7,100.6h171.7v276.4c0,6-4.9,10.9-10.9,10.9H297.6c-6,0-10.9-4.9-10.9-10.9V100.6z"/>
		<path class="st6" d="M361.5,128.1v-1h-0.7v1H361.5z M361.5,130.4v-1h-0.7v1H361.5z M358.6,129.4v1h0.7v-1H358.6z M358.6,127.1v1
			h0.7v-1H358.6z M360.9,125.7h2.1v6.1h-2.1v1h2.3v1.7h-2.3v2.5h-1.8v-2.5h-2.4v-1.7h2.4v-1h-2v-6.1h2v-0.9h-2.3v-1.6h2.3v-1.5h1.8
			v1.5h2.3v1.6h-2.3V125.7z M372.1,128.9l-1.6,1.1c-0.1-0.1-0.1-0.2-0.2-0.4c-0.4,1.2-0.9,2.4-1.5,3.3c0.9,1.1,2.1,1.9,3.4,2.4
			c-0.4,0.4-1,1.1-1.3,1.6c-1.3-0.6-2.4-1.4-3.3-2.4c-1,1-2.1,1.8-3.5,2.5c-0.2-0.4-0.8-1.1-1.2-1.5c1.4-0.6,2.6-1.5,3.5-2.6
			c-0.6-1-1.1-2.1-1.6-3.3c-0.1,0.2-0.3,0.3-0.4,0.5c-0.4-0.3-1.1-0.9-1.6-1.2c0.8-0.9,1.6-2.2,2.2-3.3l1.8,0.6
			c-0.5,1-1.2,2.1-1.8,3l1.3-0.3c0.3,0.9,0.6,1.7,1.1,2.5c0.4-0.8,0.8-1.6,1-2.5l1.4,0.4c-0.5-0.8-1.2-1.8-1.8-2.6l1.4-0.9h-6.3
			v-1.8h3.5c-0.2-0.5-0.6-1.1-0.9-1.6l1.7-0.7c0.4,0.6,0.9,1.4,1.1,1.9l-0.9,0.4h3.9v1.8h-2C370.6,126.6,371.7,128,372.1,128.9z
			 M382.5,134.1v-0.9h-3.6v0.9H382.5z M387.6,129.6v5.6c0,0.9-0.2,1.2-0.8,1.4c-0.6,0.2-1.5,0.2-2.6,0.2c-0.1-0.4-0.4-1-0.6-1.4
			h-4.7v0.7h-1.8v-4.3h7.1v3.6H384c0.6,0,1.1,0,1.3,0c0.2,0,0.3-0.1,0.3-0.3v-4h-9.8v5.8H374v-7.3H387.6z M384,127.6v-0.9h-6.4v0.9
			H384z M386,125.4v3.5h-10.4v-3.5H386z M382.1,123.2h5.9v1.6h-14.5v-1.6h6.3c-0.1-0.4-0.3-0.8-0.4-1.1l2-0.5
			C381.6,122,381.9,122.6,382.1,123.2z"/>
		<path class="st5" d="M286.7,158.1h171.7"/>
		<path class="st6" d="M360.8,181v3.8H359v-5.1h10.8v5.1h-2V181H360.8z M367.2,181.6v1.1h-5.8v-1.1H367.2z M367.2,184.5h-5.8v-1.1
			h5.8V184.5z M368.9,188.9h-2.2c0.3,0.6,0.7,1.1,1.1,1.5C368.3,190,368.7,189.5,368.9,188.9z M360.1,190.8v0.8
			c0.7-0.1,1.5-0.1,2.3-0.2v-0.6H360.1z M362.3,186.8h-2.3v0.7h2.3V186.8z M360.1,188.8v0.7h2.3v-0.7H360.1z M370.1,187.4l1.2,0.5
			c-0.4,1.5-1.1,2.8-2,3.8c0.8,0.5,1.8,0.9,2.8,1.1c-0.4,0.3-0.9,1.1-1.1,1.5c-1.1-0.3-2.1-0.8-3-1.4c-0.9,0.7-1.8,1.2-2.9,1.6
			c-0.2-0.4-0.6-1.1-1-1.4v1.5h-1.8V193c-1.9,0.2-3.8,0.4-5.3,0.6l-0.1-1.7c0.4,0,0.9-0.1,1.4-0.1v-5H357v-1.5h14.6v1.5h-7.5v6
			c0.9-0.3,1.7-0.7,2.5-1.2c-0.6-0.7-1.2-1.6-1.6-2.5l0.6-0.2h-1v-1.5h5.1L370.1,187.4z M388.1,185.5h-5.8c1.1,3.2,3.1,5.8,6.1,7
			c-0.5,0.4-1.1,1.3-1.4,1.8c-3-1.4-4.9-3.8-6.2-7c-0.9,2.7-2.7,5.3-6.1,7c-0.3-0.5-0.9-1.2-1.5-1.7c3.8-1.7,5.3-4.4,6-7.2h-5.6v-2
			h6c0.2-1.5,0.1-3,0.2-4.4h2.1c0,1.3,0,2.9-0.2,4.4h6.5V185.5z"/>
		<path class="st5" d="M286.7,215.6h171.7"/>
		<path class="st4" d="M360.8,238.4v3.8H359v-5.1h10.8v5.1h-2v-3.8H360.8z M367.2,239v1.1h-5.8V239H367.2z M367.2,241.9h-5.8v-1.1
			h5.8V241.9z M368.9,246.4h-2.2c0.3,0.6,0.7,1.1,1.1,1.5C368.3,247.5,368.7,247,368.9,246.4z M360.1,248.3v0.8
			c0.7-0.1,1.5-0.1,2.3-0.2v-0.6H360.1z M362.3,244.3h-2.3v0.7h2.3V244.3z M360.1,246.3v0.7h2.3v-0.7H360.1z M370.1,244.9l1.2,0.5
			c-0.4,1.5-1.1,2.8-2,3.8c0.8,0.5,1.8,0.9,2.8,1.1c-0.4,0.3-0.9,1.1-1.1,1.5c-1.1-0.3-2.1-0.8-3-1.4c-0.9,0.7-1.8,1.2-2.9,1.6
			c-0.2-0.4-0.6-1.1-1-1.4v1.5h-1.8v-1.4c-1.9,0.2-3.8,0.4-5.3,0.6l-0.1-1.7c0.4,0,0.9-0.1,1.4-0.1v-5H357v-1.5h14.6v1.5h-7.5v6
			c0.9-0.3,1.7-0.7,2.5-1.2c-0.6-0.7-1.2-1.6-1.6-2.5l0.6-0.2h-1v-1.5h5.1L370.1,244.9z M382.5,249v-0.9h-3.6v0.9H382.5z
			 M387.6,244.6v5.6c0,0.9-0.2,1.2-0.8,1.4c-0.6,0.2-1.5,0.2-2.6,0.2c-0.1-0.4-0.4-1-0.6-1.4h-4.7v0.7h-1.8v-4.3h7.1v3.6H384
			c0.6,0,1.1,0,1.3,0c0.2,0,0.3-0.1,0.3-0.3v-4h-9.8v5.8H374v-7.3H387.6z M384,242.6v-0.9h-6.4v0.9H384z M386,240.4v3.5h-10.4v-3.5
			H386z M382.1,238.1h5.9v1.6h-14.5v-1.6h6.3c-0.1-0.4-0.3-0.8-0.4-1.1l2-0.5C381.6,237,381.9,237.6,382.1,238.1z"/>
		<path class="st5" d="M286.7,273.1h171.7"/>
		<path class="st4" d="M342.5,294l1.6,0.7c-0.8,1.4-2,3-3.1,4c-0.2-0.4-0.6-1.1-0.9-1.5C341,296.4,342,295.1,342.5,294z
			 M344.2,299.8v-1.7c-0.2,0.6-0.5,1.2-0.8,1.8v9.5h-1.7v-6.7c-0.2,0.3-0.5,0.7-0.8,0.9c-0.1-0.4-0.6-1.4-0.9-1.8
			c1-1.1,2.1-2.8,2.7-4.4l1.5,0.6v-2.6h1.3v2.9h0.7v-4.4h1.4v4.4h0.7v-2.9h1.4v4.3H344.2z M349.7,302.2h-5.6v-1.5h5.6V302.2z
			 M344.8,302.7h1.7c0,3.1-0.3,5.3-1.9,6.7c-0.2-0.4-0.7-1.1-1.1-1.4C344.6,306.9,344.8,305.2,344.8,302.7z M349.2,305.2l1-0.6
			c0.1,0.4,0.3,1.1,0.4,1.4c-2.2,1.4-2.6,1.8-2.9,2.1c-0.1-0.4-0.4-1.2-0.7-1.6c0.3-0.2,0.5-0.5,0.5-1.2v-2.6h1.6V305.2z
			 M353.3,298.7h-1.2c0,0.1-0.1,0.2-0.1,0.3c0.2,1.4,0.4,2.6,0.7,3.8C353,301.6,353.2,300.2,353.3,298.7z M355.6,298.7h-0.7
			c-0.2,2.5-0.6,4.7-1.3,6.5c0.6,1.1,1.3,2,2.2,2.6c-0.4,0.3-0.9,1-1.1,1.5c-0.8-0.6-1.4-1.4-2-2.3c-0.6,1-1.3,1.8-2.2,2.5
			c-0.2-0.3-0.8-1-1.2-1.3c1.1-0.8,2-1.8,2.6-3.1c-0.4-1.1-0.7-2.4-0.9-3.9c-0.1,0.2-0.3,0.4-0.4,0.7c-0.2-0.4-0.7-1.2-1-1.6
			c1.1-1.5,1.7-3.8,2-6.2l1.6,0.3c-0.1,0.9-0.3,1.8-0.5,2.7h3V298.7z M367.7,296.1v-0.6h-6.8v0.6H367.7z M367.7,297.6V297h-6.8v0.6
			H367.7z M369.7,294.6v4.1H359v-4.1H369.7z M371.8,299.1v1.4h-14.8v-1.4H371.8z M360.5,304.1h2.9v-0.6h-2.9V304.1z M360.5,302v0.6
			h2.9V302H360.5z M368.1,302.6V302h-2.9v0.6H368.1z M368.1,304.1v-0.6h-2.9v0.6H368.1z M365.3,307.5h6.6v1.4h-14.9v-1.4h6.5V307h-5
			v-1.3h5v-0.5h-4.7V301H370v4.2h-4.8v0.5h5v1.3h-5V307.5z M374.9,301.8v1h1v-1H374.9z M374.9,299.6v1h1v-1H374.9z M378.3,300.5v-1
			h-1.1v1H378.3z M378.3,302.8v-1h-1.1v1H378.3z M377.4,304.1v1h2.6v1.7h-2.6v2.6h-1.7v-2.6h-2.6v-1.7h2.6v-1h-2.2v-5.9h2.2v-0.9
			h-2.4v-1.7h2.4V294h1.7v1.6h2.4v1.7h-2.4v0.9h2.3v5.9H377.4z M383.3,303.6h-1.4v1.1h1.4V303.6z M386.4,304.7v-1.1h-1.5v1.1H386.4z
			 M384.8,307.2h1.5v-1.1h-1.5V307.2z M381.9,307.2h1.4v-1.1h-1.4V307.2z M380.2,309.4V302h8v7.4h-1.8v-0.6h-4.5v0.6H380.2z
			 M385.8,299.8v-1.1h-3.2v1.1H385.8z M380.8,297.2h6.9v4.1h-6.9V297.2z M380.2,294.8h8.1v1.7h-8.1V294.8z M392.6,301.8v0.9
			c0.8-0.1,1.6-0.1,2.4-0.2v-0.6H392.6z M395,298.2v-0.9h-2.4v0.9H395z M395,300.4v-0.8h-2.4v0.8H395z M396.7,295.9v5.9l1.3,0.7
			c-0.4,0.5-0.9,1-1.3,1.4v3.6c0,0.9-0.2,1.3-0.7,1.6c-0.5,0.3-1.3,0.3-2.4,0.3c-0.1-0.5-0.3-1.2-0.6-1.6c0.7,0,1.4,0,1.6,0
			c0.2,0,0.3-0.1,0.3-0.3v-2c-1.5,1.2-3.2,2.2-4.8,3c-0.1-0.4-0.5-1.3-0.8-1.7c1.7-0.7,3.4-1.7,4.9-2.9c-1.7,0.2-3.3,0.4-4.6,0.5
			l-0.2-1.5l1.3-0.1v-6.9h1.6c0.2-0.6,0.4-1.3,0.5-1.8l2,0.2c-0.2,0.6-0.5,1.1-0.7,1.6H396.7z M401.2,304.3l-1.6,0.7
			c-0.3-1.1-1-2.7-1.8-3.9l1.5-0.6C400.1,301.6,400.9,303.2,401.2,304.3z M404.8,297.6v1.9h-1.6v7.7c0,1.1-0.2,1.5-0.9,1.8
			c-0.6,0.3-1.6,0.4-3,0.4c-0.1-0.5-0.4-1.3-0.6-1.9c0.9,0,1.9,0,2.2,0c0.3,0,0.4-0.1,0.4-0.4v-7.7h-4v-1.9h4v-3.4h1.8v3.4H404.8z"
			/>
		<path class="st5" d="M286.7,330.5h171.7"/>
		<path class="st4" d="M317.9,355.8v2.2h-1.9v-3.7h6.2v-0.8h-5.5v-1.4h12.9v1.4h-5.5v0.8h6.3v3.7h-2v-2.2h-0.9l0.6,0.8
			c-0.9,0.4-2.1,0.6-2.9,0.8l-0.6-0.9c0.7-0.1,1.6-0.4,2.3-0.7h-2.9v3.2h-1.9v-3.2H319c0.9,0.2,2.1,0.4,2.7,0.7l-0.5,1.1
			c-0.7-0.3-1.9-0.6-2.8-0.8l0.5-0.9H317.9z M324.5,358.5l0.4-1.1c1.2,0.1,2.9,0.5,3.8,0.8l-0.4,1.2
			C327.4,359.1,325.7,358.7,324.5,358.5z M330.6,360.9h-6.4c-0.1,0.3-0.2,0.5-0.3,0.8h5.9v3.3c0,0.8-0.1,1.2-0.7,1.5
			c-0.5,0.3-1.2,0.3-2.1,0.3c-0.1-0.5-0.3-1.1-0.6-1.6c0.5,0,1,0,1.2,0c0.2,0,0.2,0,0.2-0.2v-1.8H326v3.5h-1.8v-3.5h-1.7v3.5h-1.8
			v-3.5h-1.7v3.6h-1.8v-5.1h4.7c0.1-0.3,0.1-0.5,0.2-0.8H316v-1.5h2.3l-0.5-1.3c1-0.1,2.4-0.3,3.9-0.6l0.1,1.1
			c-1.2,0.3-2.3,0.5-3.3,0.8h12.1V360.9z M340.6,359.4v0.5l2,0c-0.2-0.1-0.4-0.2-0.6-0.3l0.3-0.2H340.6z M335.8,358.2h2.9v-0.6h-2.9
			V358.2z M335.8,355.8v0.6h2.9v-0.6H335.8z M343.7,355.8h-3.1v0.6h3.1V355.8z M340.6,358.2h3.1v-0.6h-3.1V358.2z M347.2,361.9v1.5
			h-3.7v1.6c0,0.9-0.2,1.4-0.9,1.6c-0.7,0.3-1.6,0.3-2.8,0.3c-0.1-0.5-0.3-1.2-0.6-1.7c0.8,0,1.8,0,2,0c0.3,0,0.3-0.1,0.3-0.3v-1.6
			H337c0.7,0.5,1.4,1.1,1.8,1.5l-1.4,1.3c-0.5-0.7-1.6-1.6-2.5-2.2l0.7-0.6h-3.3v-1.5h9.4v-0.7c-3.2,0.1-6.3,0.1-8.6,0.2L333,360
			c1.5,0,3.6,0,5.8,0v-0.5H334v-4.7h4.7v-0.6h-6v-1.5h6v-1.1h1.9v1.1h6v1.5h-6v0.6h5v4.7h-1c0.8,0.4,1.5,0.9,2,1.3l-1.2,1
			c-0.2-0.2-0.5-0.4-0.8-0.6l-1.2,0v0.7H347.2z M353.4,363.7l1.4,0.6c-1.1,0.9-3.1,1.8-4.8,2.2c-0.2-0.4-0.8-1.1-1.1-1.4
			C350.5,364.8,352.4,364.3,353.4,363.7z M357.8,364.5l1.3-0.9c1.3,0.5,3.3,1.3,4.3,1.8l-1.4,1.1
			C361.1,365.9,359.2,365.1,357.8,364.5z M358.5,355.7H354c0.3,0.4,0.5,0.9,0.7,1.2l-0.9,0.2h4.5l-0.6-0.2
			C357.9,356.6,358.3,356.1,358.5,355.7z M357.1,361.5h6.4v1.6h-6.4v3.7h-1.9v-3.7h-6.3v-1.6h6.3v-0.7h-4.7v-1.4h4.7v-0.7h-5.6v-1.5
			h3c-0.1-0.4-0.4-0.8-0.6-1.2l1.1-0.2h-4.2v-1.5h2.2c-0.2-0.6-0.7-1.4-1.1-2l1.7-0.6c0.5,0.7,1,1.7,1.2,2.3l-0.8,0.3h1.5v-2.7h1.8
			v2.7h1.2v-2.7h1.8v2.7h1.5l-0.6-0.2c0.4-0.7,0.8-1.7,1.1-2.4l2.1,0.5c-0.5,0.8-0.9,1.5-1.3,2.1h2.1v1.5h-4.3l1.5,0.4
			c-0.4,0.4-0.7,0.8-1,1.1h3.2v1.5h-5.7v0.7h4.9v1.4h-4.9V361.5z M369.4,354.6h-0.6c-0.1,0.2-0.3,0.4-0.5,0.6
			c-0.2-0.2-0.7-0.4-1-0.6c0.5-0.4,0.8-0.9,1.1-1.4h-1.2v4c0,0.6,0.1,0.8,0.7,0.8h0.3c-0.2-0.3-0.5-0.6-0.8-0.8c1-0.2,1.4-0.6,1.7-1
			h-1.7v-0.9h1.9V354.6z M365.8,357.1v-3.9h-0.6V352h7.5v1.1h-3.9l0.8,0.2c0,0.1-0.1,0.2-0.2,0.4h2.8v0.9h-1.5v0.6h1.8v0.9h-1.5
			c0.6,0.3,1.1,0.7,1.4,1l-0.8,0.8c-0.3-0.3-0.9-0.7-1.4-1.1c-0.3,0.4-0.9,0.8-1.7,1.1h2.5c0.5,0,1.3,0,1.7-0.1
			c0,0.4,0.1,0.8,0.1,1.1c-0.3,0.1-1,0.1-1.7,0.1h-3.3C366.2,359,365.8,358.4,365.8,357.1z M369.4,364h6.5v1h-6.5V364z M373.3,361.1
			v-0.5h-1.1v0.5H373.3z M376.7,362.2h-2v0.1c0,0.4,0.1,0.4,0.5,0.4h1.3c0.1,0,0.1,0,0.2,0V362.2z M368.3,365.4h8.4v-1.7H375
			c-1.4,0-1.7-0.3-1.7-1.3v-0.1h-1.1c-0.2,0.9-1.1,1.5-3.2,1.8c-0.1-0.3-0.4-0.7-0.7-1V365.4z M370.6,362.2h-2.3v0.7
			C369.8,362.8,370.4,362.5,370.6,362.2z M373.9,359.4h4.6c-0.6-0.3-1.3-0.6-2.2-1C375.6,358.8,374.8,359.1,373.9,359.4z
			 M380.2,360.6h-5.4v0.5h3.8v5.7h-1.8v-0.5h-8.4v0.5h-1.8v-5.7h4.2v-0.5h-5.8v-1.2h8.5c-0.2-0.3-0.5-0.8-0.7-1.1
			c0.7-0.1,1.4-0.3,2-0.6c-0.5-0.2-1.1-0.4-1.6-0.6l0.7-0.9c0.7,0.2,1.5,0.5,2.3,0.8c0.4-0.3,0.7-0.6,1-0.9h-3.9v-1
			c-0.2-0.3-0.6-0.7-0.8-0.9c1.3-0.4,1.5-0.9,1.5-1.5v-0.8h4.4v1.2c0,0.3,0,0.4,0.2,0.4h0.6c0.2,0,0.6,0,0.8-0.1
			c0,0.4,0,0.9,0.1,1.3c-0.2,0.1-0.6,0.1-0.9,0.1h-0.8c-1.2,0-1.5-0.5-1.5-1.6h-1.4c-0.1,0.7-0.4,1.3-1.1,1.8h3.8l0.3,0l0.9,0.4
			c-0.4,0.9-0.9,1.6-1.6,2.2c0.7,0.3,1.4,0.6,1.9,0.8l-0.6,1h1.4V360.6z M385.6,361.6h-1.9v2h1.9V361.6z M385.5,357.3v-1.7h-1.8v1.7
			H385.5z M383.7,358.9v1.1h3.6v5.3h-3.6v1H382V354h1.4c0.2-0.8,0.4-1.7,0.5-2.4l2.1,0.3c-0.3,0.7-0.6,1.5-0.8,2.1h2.1v5H383.7z
			 M396.5,354.1H393v1.5h3.1v7.1c0,0.8-0.1,1.2-0.6,1.5c-0.5,0.3-1.1,0.3-1.9,0.3c0-0.5-0.3-1.2-0.5-1.7c0.4,0,0.8,0,1,0
			c0.1,0,0.2,0,0.2-0.2v-5.4H393v9.6h-1.8v-9.6H390v7.1h-1.8v-8.8h3v-1.5h-3.5v-1.8h8.9V354.1z M410.5,360h2.3c0,0,0,0.4,0,0.6
			c-0.1,3.7-0.2,5.1-0.5,5.5c-0.3,0.4-0.6,0.5-1,0.6c-0.3,0-0.8,0.1-1.4,0c0-0.5-0.2-1.1-0.4-1.5c0.4,0,0.8,0,1,0
			c0.2,0,0.3,0,0.4-0.2c0.2-0.2,0.2-1.2,0.3-3.7h-0.8c-0.3,2.3-0.9,4.1-2.4,5.4c-0.2-0.4-0.7-1-1.1-1.2c0,0.3-0.1,0.4-0.2,0.6
			c-0.3,0.4-0.5,0.5-0.9,0.6c-0.3,0-0.8,0.1-1.3,0c0-0.4-0.2-1.1-0.4-1.5c0.4,0,0.7,0,0.9,0c0.2,0,0.3,0,0.4-0.2
			c0.2-0.3,0.2-1.2,0.3-3.7H405c-0.3,2.3-0.9,4.1-2.3,5.5c-0.2-0.4-0.7-0.9-1.1-1.2c1.1-1,1.6-2.4,1.7-4.3h-1.2V360h1.4
			c0-0.5,0-1,0-1.5h0.4c-0.2-0.4-0.6-0.9-0.9-1.2v0.1h-1.7v9.4h-1.9v-9.4h-1.8v-1.8h1.8v-4.1h1.9v4.1h1.7v1.5
			c1.7-0.6,2.6-1.4,3.1-2.5h-2.4v-1.6h2.9c0.1-0.5,0.1-1,0.2-1.6h1.8c0,0.6-0.1,1.1-0.2,1.6h3.9c0,0,0,0.4,0,0.7
			c-0.2,2.3-0.4,3.4-0.8,3.8c-0.3,0.4-0.7,0.5-1.2,0.5c-0.4,0-1.1,0-1.8,0c0-0.5-0.2-1.1-0.5-1.6c0.7,0.1,1.3,0.1,1.6,0.1
			c0.2,0,0.4,0,0.5-0.2c0.2-0.2,0.3-0.7,0.4-1.8H408c-0.6,1.7-1.7,2.9-3.9,3.8h1.1c0,0.5,0,1,0,1.5h2.2c0,0,0,0.4,0,0.6
			c-0.1,2.7-0.1,4.2-0.3,4.9c1.1-1,1.6-2.3,1.8-4.1h-1.1V360h1.3c0-0.5,0-1,0-1.6h1.7C410.6,359,410.6,359.6,410.5,360z
			 M416.9,360.7v2c0.7-0.1,1.4-0.3,2.2-0.4v-1.5H416.9z M419.1,354h-2.2v1.7h2.2V354z M419.1,359v-1.7h-2.2v1.7H419.1z M429,355.1
			v0.9c-0.1,6.7-0.3,9.1-0.8,9.9c-0.4,0.6-0.8,0.7-1.4,0.8c-0.5,0.1-1.4,0.1-2.2,0c0-0.5-0.2-1.3-0.6-1.9c0.8,0,1.5,0.1,1.9,0.1
			c0.3,0,0.4,0,0.6-0.3c0.4-0.4,0.5-2.5,0.6-7.8h-1.7c-0.2,4.3-1.1,7.8-4.3,10c-0.3-0.5-0.9-1.1-1.4-1.5c0.8-0.5,1.4-1.1,1.9-1.9
			c-2.5,0.6-5.2,1.2-7.2,1.7l-0.3-2c0.3-0.1,0.7-0.1,1.1-0.2v-10.8h5.7v9.7l0.7-0.1l0.2,1.5c1.1-1.7,1.5-3.8,1.6-6.4h-2.1v-1.8h2.2
			c0-1.1,0-2.3,0-3.5h1.9c0,1.2,0,2.4,0,3.5H429z"/>
	</g>
	<rect y="106.1" class="st0" width="87.6" height="46.5"/>
	<path class="st4" d="M21.9,126.2l-1.4,0.4c-0.1-1-0.4-2.4-0.7-3.5l1.3-0.3C21.4,123.8,21.8,125.2,21.9,126.2z M28.2,133.2h4.3v-0.8
		h-4.2C28.2,132.7,28.2,133,28.2,133.2z M32.4,130.4h-4.2v0.8h4.2V130.4z M34.2,129v6.2c0,0.8-0.1,1.2-0.7,1.5
		c-0.5,0.2-1.3,0.3-2.3,0.3c-0.1-0.5-0.3-1.1-0.5-1.5c0.6,0,1.3,0,1.5,0c0.2,0,0.3-0.1,0.3-0.2v-0.7H28c-0.2,1-0.6,1.9-1.2,2.6
		c-0.3-0.3-1-1-1.4-1.2c1-1.1,1.1-2.7,1.1-4V129H34.2z M31.2,126.9H35v1.4h-9.3v-1.4h3.6v-0.7h-3v-1.3h3v-0.7h-3.4v-0.6
		c-0.4,1.1-0.9,2.2-1.2,3l-1.1-0.4v0.9h1.8v1.8h-1.8v1.1l0.7-0.5c0.3,0.4,1.4,2,1.7,2.4l-1.2,1.4c-0.2-0.6-0.8-1.7-1.2-2.5v6.1h-1.7
		v-5.4c-0.4,1.4-0.9,2.8-1.6,3.6c-0.2-0.6-0.5-1.4-0.8-2c0.7-0.8,1.3-2.3,1.5-3.6l0.9,0.3v-0.9h-2.1v-1.8h2.1v-5.4h1.7v4.2
		c0.3-0.9,0.7-2.2,0.9-3.1l1.5,0.5v-0.4h3.4v-1.2h1.9v1.2h3.6v1.4h-3.6v0.7h3.3v1.3h-3.3V126.9z M45.2,133.6v1.2H47v-1.2H45.2z
		 M47,129.6v-1.1h-1.8v1.1H47z M47,132.2V131h-1.8v1.2H47z M40.1,133.4v-4.1H39v4.1H40.1z M51.3,134.7v1.6h-6.1v0.6h-1.8v-7.2
		c-0.3,0.2-0.5,0.4-0.8,0.6c-0.1-0.3-0.5-0.8-0.8-1.3v6H39v1.1h-1.6v-4.4c-0.2,0.3-0.3,0.5-0.5,0.8c-0.2-0.4-0.7-1.4-1-1.9
		c1.1-1.5,1.8-3.8,2.2-6.2h-1.7v-1.8h5.5v1.8h-1.9c-0.2,1.1-0.4,2.1-0.7,3.1h2.5v0.8c1.3-0.9,2.3-2.1,3.1-3.6h-1.2v1.3h-1.7v-3h3.6
		c0.2-0.5,0.3-1,0.5-1.6l1.8,0.4c-0.1,0.4-0.2,0.8-0.3,1.2h3.6v2.9h-1.7v-1.3h-2.5c-0.3,0.7-0.7,1.4-1.1,2.1h1.3
		c-0.1-0.4-0.3-0.8-0.5-1.1l1.6-0.6c0.3,0.5,0.6,1.2,0.8,1.7h1.8v1.6h-2.1v1.1h1.9v1.4h-1.9v1.2h1.9v1.4h-1.9v1.2H51.3z M55.8,124.9
		v2.5c0,2.8-0.2,6.9-1.6,9.5c-0.4-0.3-1.3-0.7-1.8-0.8c1.3-2.5,1.4-6.2,1.4-8.7V123H60c-0.1-0.4-0.2-0.8-0.4-1.1l2-0.4
		c0.2,0.5,0.5,1,0.6,1.5h5.4v1.8H55.8z M63.2,127.8h-3v1.1h3V127.8z M65.1,130.4h-6.8v-2.6h-2.2v-1.5h2.2v-1.1h1.8v1.1h3v-1.1h1.9
		v1.1h2.4v1.5h-2.4V130.4z M63.7,132.6h-4.3c0.6,0.5,1.3,1,2.2,1.3C62.4,133.6,63.1,133.1,63.7,132.6z M65.4,131l1.2,0.6
		c-0.7,1.3-1.7,2.3-2.9,3c1.2,0.3,2.6,0.5,4.1,0.6c-0.4,0.4-0.9,1.2-1.1,1.7c-2-0.2-3.8-0.6-5.3-1.2c-1.6,0.6-3.3,0.9-5.2,1.1
		c-0.1-0.5-0.5-1.2-0.8-1.6c1.4-0.1,2.7-0.3,3.9-0.6c-0.8-0.5-1.4-1.1-2-1.8l0.7-0.3h-1.7v-1.5h8.8L65.4,131z"/>
	<path class="st4" d="M23.5,180.8v9.5h-1.7v-9.5H23.5z M15.8,180.8l-1.2,1.5c-0.5-0.5-1.7-1.2-2.6-1.7l1.1-1.4
		C14.1,179.7,15.3,180.3,15.8,180.8z M15.2,185.1l-1.2,1.6c-0.5-0.5-1.7-1.2-2.6-1.6l1.1-1.4C13.5,184,14.7,184.6,15.2,185.1z
		 M13.9,188l1.6,1.1c-0.6,1.7-1.3,3.6-2,5.3l-1.7-1.1C12.4,192,13.2,189.9,13.9,188z M16.5,190.6l1.8,0.5c-0.6,1.3-1.5,2.7-2.3,3.5
		c-0.3-0.3-1.1-0.8-1.5-1.1C15.2,192.8,16,191.7,16.5,190.6z M18.8,191.3l1.4-0.8c0.6,0.8,1.4,1.9,1.8,2.6l-1.5,1
		C20.1,193.2,19.4,192.1,18.8,191.3z M19.3,182.8v-1.4h-1.6v1.4H19.3z M19.3,185.8v-1.4h-1.6v1.4H19.3z M19.3,188.7v-1.4h-1.6v1.4
		H19.3z M21,179.8v10.7h-5v-10.7H21z M24.5,179.1h1.8v13.1c0,1-0.2,1.5-0.8,1.8c-0.6,0.3-1.5,0.4-2.7,0.4c-0.1-0.5-0.3-1.3-0.6-1.8
		c0.8,0,1.7,0,1.9,0c0.2,0,0.3-0.1,0.3-0.3V179.1z M38.9,181.2v-0.6h-6.8v0.6H38.9z M38.9,182.7v-0.6h-6.8v0.6H38.9z M40.9,179.6
		v4.1H30.2v-4.1H40.9z M43,184.1v1.4H28.2v-1.4H43z M31.8,189.2h2.9v-0.6h-2.9V189.2z M31.8,187.1v0.6h2.9v-0.6H31.8z M39.4,187.7
		v-0.6h-2.9v0.6H39.4z M39.4,189.2v-0.6h-2.9v0.6H39.4z M36.5,192.6h6.6v1.4H28.1v-1.4h6.5V192h-5v-1.3h5v-0.5h-4.7V186h11.3v4.2
		h-4.8v0.5h5v1.3h-5V192.6z M46.7,189.4h1.1v-0.7h-1.1V189.4z M46.7,187v0.7h1.1V187H46.7z M50.4,187h-1v0.7h1V187z M50.4,189.4
		v-0.7h-1v0.7H50.4z M49.4,190.6v0.6h3v1.4h-3v1.9h-1.6v-1.9h-3.3v-1.4h3.3v-0.6h-2.6v-4.7h2.6v-0.5h-3.1V184h3.1v-0.9h1
		c-0.3-0.3-0.7-0.7-1.1-1l0.6-0.5h-1c-0.5,0.8-1.1,1.6-1.7,2.1c-0.3-0.3-0.9-1-1.3-1.3c1-0.9,1.9-2.2,2.4-3.4l1.7,0.5
		c-0.1,0.2-0.2,0.4-0.3,0.6h3.6v1.5h-2.3c0.4,0.4,0.9,0.8,1.1,1.1l-1.2,1.1v0.1h2.9v1.4h-2.9v0.5H52v4.7H49.4z M55.4,192.3h1.9
		c0.6,0,0.7-0.3,0.7-2c0.4,0.3,1.2,0.6,1.7,0.7c-0.2,2.3-0.7,3-2.2,3h-2.3c-1.8,0-2.3-0.5-2.3-2.6v-7.8h3.6
		c-0.3-0.4-1.1-1.1-1.6-1.5l0.7-0.6h-1.2c-0.4,0.8-1,1.5-1.5,2.1c-0.3-0.3-1.1-0.9-1.5-1.1c0.9-0.9,1.7-2.2,2.1-3.6l1.8,0.4
		c-0.1,0.2-0.2,0.5-0.3,0.7h4.5v1.5h-2.9c0.4,0.3,0.9,0.7,1.1,1l-1.3,1.1h2.2v4.7c0,0.8-0.1,1.3-0.7,1.6c-0.5,0.3-1.3,0.3-2.3,0.3
		c-0.1-0.6-0.4-1.3-0.7-1.8c0.7,0,1.3,0,1.5,0c0.2,0,0.3,0,0.3-0.2v-2.9h-2.2v6.1C54.7,192.2,54.8,192.3,55.4,192.3z M66,190.1h2.1
		v-0.9h-1.9C66.1,189.5,66.1,189.8,66,190.1z M66.5,186.2v0.7h3.8v-0.7H66.5z M72.9,190.1v1h-3v0.8h-1.7v-0.8h-3.9
		c0.2-0.5,0.4-1.2,0.5-1.9H64v-1h4.1v-0.5h-3.2v-2.4H72v2.4h-2.2v0.5h3v1h-3v0.9H72.9z M70,183.9v-0.6h-1.9
		c-0.1,0.2-0.1,0.4-0.2,0.6H70z M63.2,192.1h10.3v-10.6h-6.3l1.3,0.2l-0.2,0.7h3.3v1.6h1.2v1H64v-1h2.2c0.1-0.2,0.1-0.4,0.2-0.6
		h-1.6v-0.9h1.9c0.1-0.3,0.1-0.6,0.2-0.9h-3.7V192.1z M61.4,179.7h14v14.7h-1.9v-0.6H63.2v0.6h-1.8V179.7z"/>
	<path class="st4" d="M19.7,240.3h3.5c-0.7-0.5-1.4-1-1.9-1.5C20.8,239.3,20.2,239.8,19.7,240.3z M16.8,244.7L16,246
		c-0.2-0.5-0.5-1.2-0.9-1.9v7.7h-1.5v-6.9c-0.4,1.4-0.8,2.7-1.3,3.5c-0.1-0.6-0.5-1.4-0.8-1.9c0.8-1.2,1.4-3.3,1.8-5.1h-1.4v-1.8
		h1.7v-3.1h1.5v3.1h1.2v0.6c1.8-1,3.4-2.4,4.4-3.9l1.9,0.7c-0.1,0.2-0.2,0.3-0.3,0.5c1.2,1,3,2,4.6,2.5c-0.3,0.5-0.6,1.3-0.8,1.9
		c-0.8-0.3-1.6-0.8-2.3-1.2v1.1H19v-1c-0.5,0.4-1.1,0.7-1.6,1c-0.2-0.3-0.6-0.8-1-1.1v0.8h-1.2v0.7
		C15.5,242.7,16.6,244.3,16.8,244.7z M23.2,243.8v1.5h1.2v-1.5H23.2z M21.8,246.7v-4.1h4.1v4.1H21.8z M18.5,243.8v1.5h1.1v-1.5H18.5
		z M17.1,246.7v-4.1h4v4.1H17.1z M18.3,246.8l1.7,0.4c-0.1,0.3-0.2,0.7-0.4,1c0.6,0.4,1.2,0.8,1.6,1.2l-1,1.3
		c-0.3-0.3-0.8-0.8-1.3-1.1c-0.6,1-1.4,1.8-2.3,2.4c-0.3-0.3-0.9-1-1.2-1.2C16.8,249.9,17.8,248.5,18.3,246.8z M22.9,246.8l1.8,0.2
		c-0.1,0.5-0.2,0.9-0.4,1.3c0.9,0.6,2,1.4,2.5,2l-1.2,1.3c-0.5-0.5-1.3-1.2-2.1-1.8c-0.5,0.8-1.1,1.5-1.8,2c-0.2-0.3-0.9-1-1.2-1.2
		C21.8,249.9,22.6,248.5,22.9,246.8z M39.9,238.3v9.5h-1.7v-9.5H39.9z M32.3,238.3l-1.2,1.5c-0.5-0.5-1.7-1.2-2.6-1.7l1.1-1.4
		C30.5,237.1,31.7,237.8,32.3,238.3z M31.7,242.6l-1.2,1.6c-0.5-0.5-1.7-1.2-2.6-1.6l1.1-1.4C29.9,241.5,31.1,242.1,31.7,242.6z
		 M30.3,245.5l1.6,1.1c-0.6,1.7-1.3,3.6-2,5.3l-1.7-1.1C28.8,249.5,29.7,247.4,30.3,245.5z M32.9,248.1l1.8,0.5
		c-0.6,1.3-1.5,2.7-2.3,3.5c-0.3-0.3-1.1-0.8-1.5-1.1C31.7,250.3,32.4,249.2,32.9,248.1z M35.2,248.7l1.4-0.8
		c0.6,0.8,1.4,1.9,1.8,2.6l-1.5,1C36.5,250.7,35.8,249.6,35.2,248.7z M35.7,240.3v-1.4h-1.6v1.4H35.7z M35.7,243.2v-1.4h-1.6v1.4
		H35.7z M35.7,246.2v-1.4h-1.6v1.4H35.7z M37.4,237.2v10.7h-5v-10.7H37.4z M40.9,236.6h1.8v13.1c0,1-0.2,1.5-0.8,1.8
		c-0.6,0.3-1.5,0.4-2.7,0.4c-0.1-0.5-0.3-1.3-0.6-1.8c0.8,0,1.7,0,1.9,0c0.2,0,0.3-0.1,0.3-0.3V236.6z M48.6,247.6v0.7h7.1v-0.7
		H48.6z M52.9,242.1h-2.2c-0.2,0.4-0.4,0.7-0.8,1h3V242.1z M47.7,240.2l-0.1,0.7h1.6c0.1-0.2,0.1-0.5,0.1-0.7H47.7z M51.1,238.4v0.7
		h1.8v-0.7H51.1z M56.5,238.4h-1.7v0.7h1.7V238.4z M52.9,241v-0.7h-1.8c0,0.2,0,0.5-0.1,0.7H52.9z M57.4,242.1h-2.6v1h1.5
		c-0.1-0.2-0.1-0.4-0.2-0.5c0.4,0,0.7,0.1,0.9,0c0.1,0,0.2,0,0.3-0.1C57.3,242.5,57.3,242.3,57.4,242.1z M55.6,245.9h-7.1v0.7h7.1
		V245.9z M55.6,244.2h-7.1v0.7h7.1V244.2z M57.6,249.4h-1.8c1.3,0.5,2.7,1,3.5,1.3l-1.4,1.2c-1.1-0.5-2.9-1.3-4.7-1.9l0.6-0.6h-4
		l1.2,0.6c-1.3,0.8-3.5,1.6-5.1,2c-0.3-0.4-1-1.1-1.4-1.4c1.5-0.2,3.1-0.6,4.3-1.1h-2.2v-4.9c-0.4,0.1-0.8,0.2-1.2,0.2
		c-0.2-0.4-0.6-1.2-0.9-1.5c2-0.2,3.1-0.6,3.8-1.1h-2.6c0.2-0.8,0.4-2,0.5-3h3.1v-0.7h-3.7v-1.1h3.7v-0.7h1.8v0.7h1.8v-0.7h1.9v0.7
		h3.5v2.9h-3.5v0.7h4.5c0,0,0,0.3,0,0.5c-0.1,1-0.2,1.6-0.5,1.9c-0.2,0.3-0.6,0.4-0.9,0.4c-0.1,0-0.2,0-0.3,0V249.4z M69.6,245.3H73
		v-2h-3.5V245.3z M64.5,245.3h3.1v-2h-3.1v0.3C64.5,244.1,64.5,244.7,64.5,245.3z M67.6,239.5h-3.1v1.9h3.1V239.5z M73,241.4v-1.9
		h-3.5v1.9H73z M75,237.7v11.9c0,1.1-0.2,1.6-0.9,1.9c-0.7,0.3-1.7,0.4-3.2,0.3c-0.1-0.5-0.4-1.4-0.6-1.9c0.9,0,2,0,2.3,0
		c0.3,0,0.4-0.1,0.4-0.4v-2.5h-3.5v4.6h-2v-4.6h-3.3c-0.3,1.8-0.9,3.6-2.1,4.9c-0.3-0.4-1.1-1-1.5-1.3c1.8-2,1.9-4.9,1.9-7.2v-5.9
		H75z"/>
	<path class="st4" d="M13.3,301.8v1h1v-1H13.3z M13.3,299.6v1h1v-1H13.3z M16.7,300.5v-1h-1.1v1H16.7z M16.7,302.8v-1h-1.1v1H16.7z
		 M15.8,304.1v1h2.6v1.7h-2.6v2.6h-1.7v-2.6h-2.6v-1.7h2.6v-1h-2.2v-5.9h2.2v-0.9h-2.4v-1.7h2.4V294h1.7v1.6h2.4v1.7h-2.4v0.9h2.3
		v5.9H15.8z M21.7,303.6h-1.4v1.1h1.4V303.6z M24.8,304.7v-1.1h-1.5v1.1H24.8z M23.2,307.2h1.5v-1.1h-1.5V307.2z M20.3,307.2h1.4
		v-1.1h-1.4V307.2z M18.6,309.4V302h8v7.4h-1.8v-0.6h-4.5v0.6H18.6z M24.2,299.8v-1.1h-3.2v1.1H24.2z M19.1,297.2H26v4.1h-6.9V297.2
		z M18.6,294.8h8.1v1.7h-8.1V294.8z M31,301.8v0.9c0.8-0.1,1.6-0.1,2.4-0.2v-0.6H31z M33.3,298.2v-0.9H31v0.9H33.3z M33.3,300.4
		v-0.8H31v0.8H33.3z M35.1,295.9v5.9l1.3,0.7c-0.4,0.5-0.9,1-1.3,1.4v3.6c0,0.9-0.2,1.3-0.7,1.6c-0.5,0.3-1.3,0.3-2.4,0.3
		c-0.1-0.5-0.3-1.2-0.6-1.6c0.7,0,1.4,0,1.6,0c0.2,0,0.3-0.1,0.3-0.3v-2c-1.5,1.2-3.2,2.2-4.8,3c-0.1-0.4-0.5-1.3-0.8-1.7
		c1.7-0.7,3.4-1.7,4.9-2.9c-1.7,0.2-3.3,0.4-4.6,0.5l-0.2-1.5l1.3-0.1v-6.9h1.6c0.2-0.6,0.4-1.3,0.5-1.8l2,0.2
		c-0.2,0.6-0.5,1.1-0.7,1.6H35.1z M39.6,304.3L38,305c-0.3-1.1-1-2.7-1.8-3.9l1.5-0.6C38.5,301.6,39.3,303.2,39.6,304.3z
		 M43.2,297.6v1.9h-1.6v7.7c0,1.1-0.2,1.5-0.9,1.8c-0.6,0.3-1.6,0.4-3,0.4c-0.1-0.5-0.4-1.3-0.6-1.9c0.9,0,1.9,0,2.2,0
		c0.3,0,0.4-0.1,0.4-0.4v-7.7h-4v-1.9h4v-3.4h1.8v3.4H43.2z M52.9,307.1l0.5-0.7c1.5,0.4,3.3,1,4.5,1.4l-0.9,1.2
		c-1-0.4-2.7-1.1-4.1-1.5v0.2c0,0.8-0.1,1.1-0.7,1.4c-0.5,0.2-1.3,0.2-2.4,0.2c0-0.4-0.2-0.9-0.4-1.3c-1,0.3-2,0.7-2.8,0.9l-0.8-1.4
		c1.2-0.3,3-0.8,4.7-1.3l0.2,1.3l-0.9,0.3c0.4,0,0.8,0,0.9,0c0.2,0,0.3,0,0.3-0.2v-3.4h1.8V307.1z M50.5,306l-1.5,0.8
		c-0.2-0.3-0.6-0.9-1-1.2l1.4-0.7C49.8,305.2,50.3,305.7,50.5,306z M54.7,304.8l1.6,0.8c-0.5,0.5-1,0.9-1.3,1.2l-1.3-0.7
		C54,305.8,54.4,305.2,54.7,304.8z M50.4,301.7v0.8h3.1v-0.8H50.4z M50.4,299.6v0.7h3.1v-0.7H50.4z M48.3,297.6v0.7h7.4v-0.7H48.3z
		 M48.3,295.8v0.6h7.4v-0.6H48.3z M59.2,304h-2.6c1,0.5,2.1,0.8,3.1,1.1c-0.4,0.3-0.9,1-1.1,1.4c-1.6-0.5-3.3-1.4-4.5-2.4H50
		c-1.2,1.1-2.9,2.1-4.6,2.6c-0.2-0.4-0.7-1-1.1-1.3c1.1-0.3,2.3-0.7,3.2-1.2h-2.8v-1.5h3.8v-0.8h-3v-1.5h3v-0.7h-2.1v-5h11.2v5h-2.2
		v0.7h3v1.5h-3v0.8h3.8V304z M63.5,300.9l-0.4-1.1h-1.9v-3.3h6.2v-0.7H62v-1.2h12.8v1.2h-5.5v0.7h6.4v3.3h-2v-2.1h-1l0.6,0.9
		c-0.7,0.3-1.6,0.5-2.4,0.7c1,0.2,2.1,0.4,2.7,0.7l-0.3,1.1c-0.9-0.3-2.5-0.7-3.8-0.9l0.3-1l0.3,0l-0.4-0.6c0.8-0.2,2-0.6,2.7-0.9
		h-3.3v3.2h-1.9v-3.2h-4.3v2.1c0.8-0.1,1.9-0.3,3-0.4c-0.7-0.3-1.7-0.5-2.5-0.7l0.5-0.9c0.9,0.1,2.1,0.5,2.8,0.7l-0.4,0.8l0.6-0.1
		l0.1,1L63.5,300.9z M70.1,305.8h3.5c-0.7-0.2-1.3-0.5-1.9-0.8C71.2,305.3,70.7,305.5,70.1,305.8z M70.6,307.9h2.2v-1h-2.2V307.9z
		 M67.5,305.1L67.5,305.1c1-0.2,2-0.5,2.9-1c-0.3-0.3-0.6-0.6-0.9-0.9c-0.3,0.3-0.7,0.5-1.1,0.7c-0.2-0.3-0.6-0.7-0.9-0.9v1.2h-1.8
		v0.8H67.5z M63.5,302.2v0.9h2.3v-0.9H63.5z M72.9,302.3h-2.4c0.3,0.4,0.8,0.7,1.2,1C72.1,303,72.5,302.7,72.9,302.3z M74.1,301.1
		l1,0.6c-0.5,0.9-1.2,1.7-2,2.3c0.9,0.4,2,0.6,3.2,0.8c-0.3,0.3-0.8,0.9-1,1.3c-0.3,0-0.5-0.1-0.8-0.2v3.3h-1.7v-0.3h-2.2v0.3H69
		v-3.3c-0.3,0.1-0.6,0.2-0.9,0.3c-0.1-0.3-0.3-0.6-0.6-0.9v0.9h-1.9v1.1c0.8,0,1.5-0.1,2.3-0.2l0,1.4c-2.4,0.2-4.9,0.5-6.7,0.6
		l-0.2-1.5l0.7,0v-3h1.4v2.9l0.8-0.1v-3.3H62V301h5.5v1.9c1.3-0.7,2.3-1.6,2.8-2.4l1.4,0.2c-0.1,0.2-0.2,0.3-0.3,0.5h2.4L74.1,301.1
		z"/>
	<path class="st4" d="M26.7,360.2h2c0-0.2,0-0.4,0-0.6V359h-2V360.2z M26.7,356.5v1.2h2v-1.2H26.7z M32.5,356.5h-1.8v1.2h1.8V356.5z
		 M32.5,360.2V359h-1.8v0.6c0,0.2,0,0.4,0,0.6H32.5z M34.4,361.7h-3.9c-0.2,0.8-0.5,1.6-1,2.3c1.6,0.5,3.6,0.8,5.8,0.9
		c-0.4,0.4-0.9,1.3-1.2,1.8c-2.4-0.2-4.4-0.6-6.1-1.4c-0.8,0.6-1.9,1.1-3.2,1.5c-0.2-0.4-0.8-1.2-1.2-1.6c1.1-0.2,2-0.5,2.7-0.9
		c-0.7-0.5-1.4-1.2-2-1.9l1.7-0.6c0.4,0.5,1,1,1.7,1.4c0.4-0.5,0.6-1,0.8-1.6h-3.6v-6.6h3.8v-1h-4v-1.5c-0.4,1-0.8,2.1-1.3,3.1v11.2
		h-1.9v-8.1c-0.3,0.4-0.6,0.7-0.8,1.1c-0.2-0.5-0.7-1.5-1.1-2c1.4-1.5,2.7-3.8,3.4-6.2l1.8,0.6l-0.1,0.2h10v1.7h-4.1v1h3.7V361.7z
		 M41.4,353.9v2.4h3v1.8h-3v0.6c0.8,0.7,2.4,2.1,2.9,2.5l-1.1,1.7c-0.4-0.5-1.1-1.3-1.7-2v5.9h-2V361c-0.7,1.5-1.6,2.8-2.5,3.8
		c-0.2-0.6-0.7-1.4-1-1.9c1.2-1.1,2.4-3,3.1-4.7h-2.8v-1.8h3.1v-2c-0.9,0.2-1.8,0.3-2.7,0.4c-0.1-0.4-0.3-1.1-0.6-1.5
		c2.4-0.4,5-1,6.6-1.7l1.4,1.5C43.4,353.4,42.4,353.7,41.4,353.9z M47.3,353.5v9.2h-2v-9.2H47.3z M48.8,351.8h1.9v12.6
		c0,1.2-0.2,1.7-0.9,2c-0.7,0.3-1.8,0.4-3.3,0.4c-0.1-0.6-0.4-1.5-0.7-2c1.1,0,2.1,0,2.5,0c0.3,0,0.4-0.1,0.4-0.4V351.8z
		 M63.9,364.5h3.9v1.9H57.6v-1.9H62v-3.3h-3.2v-1.8H62v-2.7h-1.8c-0.2,0.9-0.6,1.6-0.9,2.3c-0.4-0.2-1.3-0.7-1.7-0.9
		c0.2-0.3,0.3-0.6,0.5-1l-0.9,0.4c-0.1-0.5-0.3-1.2-0.6-1.9v11.2h-2v-11.7c-0.1,1.4-0.4,3.2-0.7,4.4l-1.4-0.5
		c0.4-1.1,0.7-2.9,0.8-4.3l1.4,0.2v-3.3h2v3.1l1-0.4c0.3,0.6,0.7,1.4,0.9,2.1c0.4-1.2,0.7-2.6,0.9-4l1.9,0.3
		c-0.1,0.8-0.2,1.5-0.4,2.3H62v-3.2h2v3.2h3.3v1.8h-3.3v2.7h3v1.8h-3V364.5z"/>
	<g>
		<path class="st1" d="M474.8,56.8c0-6,4.9-10.9,10.9-10.9h131.4c6,0,10.9,4.9,10.9,10.9v43.8H474.8V56.8z"/>
		<path class="st2" d="M501.5,73.8h-6.2c0.8,1.4,1.8,2.7,3,3.7C499.7,76.6,500.8,75.3,501.5,73.8z M491.3,71.1v0.4h4.7v-3.2h-4.7
			V71.1z M503.3,71.3l1.8,0.9c-0.9,2.8-2.5,5.1-4.4,6.8c1.8,0.9,3.9,1.6,6.3,2c-0.6,0.6-1.3,1.7-1.7,2.5c-2.8-0.5-5.1-1.4-7-2.7
			c-1.9,1.2-4.2,2-6.6,2.6c-0.3-0.7-1-1.9-1.5-2.4c2.2-0.4,4.2-1.1,5.9-1.9c-1.4-1.4-2.6-3.1-3.5-5.2h-1.4c-0.2,3.2-0.9,6.9-2.8,9.5
			c-0.4-0.5-1.6-1.4-2.1-1.7c2.2-3,2.4-7.4,2.4-10.6v-5.4h7.3v-2.8h2.7v2.8h5.3l0.4-0.1l2,0.5c-0.5,1.8-1.3,3.7-1.9,4.9l-2.4-0.7
			c0.3-0.5,0.6-1.3,0.8-2.1h-4.2v3.2h4.1L503.3,71.3z M511.8,70.1v1.3c0,0.9,0,2-0.1,3.1c0.7-0.5,1.6-1.1,2.5-1.8v-1.5l-0.9,0.8
			C513,71.5,512.4,70.8,511.8,70.1z M514.2,66.1h-2.4v2.6l0.8-0.5c0.5,0.5,1.1,1.1,1.6,1.7V66.1z M516.5,63.7v16.9
			c0,1.1-0.2,1.8-0.9,2.3c-0.7,0.4-1.6,0.5-3.1,0.5c0-0.6-0.4-1.8-0.7-2.4c0.8,0,1.7,0,1.9,0c0.3,0,0.4-0.1,0.4-0.4v-5.4
			c-0.6,0.6-1.2,1.2-1.8,1.8l-0.8-1.4c-0.2,2.7-0.7,5.6-1.7,7.8c-0.4-0.4-1.3-1.1-1.7-1.4c1.4-3,1.4-7.2,1.4-10.4v-7.8H516.5z
			 M525.8,72.1h-4.6c-2.8,0-3.7-0.9-3.7-3.4v-5.5h2.6v2.1h7.9v2.2h-7.9v1.2c0,0.8,0.2,1.1,1.1,1.1h4.5c0.8,0,2.1-0.1,2.6-0.2
			c0.1,0.7,0.2,1.6,0.3,2.2C528,72,526.9,72.1,525.8,72.1z M525.3,75.4h-5v1.4h5V75.4z M520.3,80.4h5v-1.6h-5V80.4z M517.8,83.4
			V73.2h10.1v10h-2.6v-0.7h-5v0.8H517.8z M534.7,66.2v4.3c0,3.8-0.3,9.3-2.3,12.9c-0.5-0.4-1.6-1.1-2.3-1.3c1.8-3.3,2-8.1,2-11.6
			v-6.7h18.3v2.4H534.7z M538.6,70.9v0.9h7.3v-0.9H538.6z M538.6,68.5v0.9h7.3v-0.9H538.6z M548.5,73.4h-12.3v-6.4h12.3V73.4z
			 M550.5,77.6v2h-6.9v1.2c0,1.2-0.3,1.7-1.2,2c-0.9,0.3-2.2,0.3-3.9,0.3c-0.2-0.6-0.5-1.5-0.9-2.1c1.2,0,2.6,0,3,0
			c0.4,0,0.5-0.1,0.5-0.4v-1.1h-6.6v-2h6.6v-0.8c0.9-0.2,1.8-0.6,2.6-0.9H536v-1.7h10.8l0.5-0.1l1.5,1.4c-1.4,0.8-3.1,1.6-4.8,2.2
			H550.5z M568.2,65.2v12.6H566V65.2H568.2z M558,65.2l-1.6,2.1c-0.7-0.7-2.2-1.7-3.4-2.2l1.5-1.9C555.7,63.7,557.2,64.6,558,65.2z
			 M557.2,70.9l-1.6,2.1c-0.7-0.7-2.2-1.6-3.5-2.2l1.4-1.9C554.9,69.4,556.5,70.2,557.2,70.9z M555.4,74.8l2.1,1.4
			c-0.7,2.3-1.7,4.9-2.6,7l-2.3-1.4C553.4,80.1,554.5,77.4,555.4,74.8z M558.8,78.3l2.4,0.7c-0.8,1.7-2,3.6-3.1,4.7
			c-0.5-0.4-1.4-1.1-2-1.4C557.2,81.2,558.2,79.7,558.8,78.3z M561.9,79.2l1.9-1.1c0.8,1.1,1.9,2.5,2.4,3.4l-2.1,1.3
			C563.7,81.8,562.7,80.3,561.9,79.2z M562.6,67.9v-1.8h-2.2v1.8H562.6z M562.6,71.8V70h-2.2v1.8H562.6z M562.6,75.8v-1.9h-2.2v1.9
			H562.6z M564.9,63.8V78h-6.7V63.8H564.9z M569.5,63h2.4v17.4c0,1.3-0.3,2-1,2.4c-0.8,0.4-1.9,0.5-3.6,0.5
			c-0.1-0.7-0.4-1.8-0.8-2.4c1.1,0,2.2,0,2.6,0c0.3,0,0.5-0.1,0.5-0.5V63z M588.8,65.7V65h-9.1v0.8H588.8z M588.8,67.7v-0.8h-9.1
			v0.8H588.8z M591.4,63.6V69h-14.2v-5.4H591.4z M594.2,69.7v1.9h-19.8v-1.9H594.2z M579.2,76.4h3.8v-0.8h-3.8V76.4z M579.2,73.6
			v0.8h3.8v-0.8H579.2z M589.4,74.3v-0.8h-3.8v0.8H589.4z M589.4,76.4v-0.8h-3.8v0.8H589.4z M585.5,80.9h8.8v1.9h-19.9v-1.9h8.6
			v-0.8h-6.7v-1.7h6.7v-0.7h-6.2v-5.6h15.1v5.6h-6.4v0.7h6.7v1.7h-6.7V80.9z M603,65.4l-1.5,2.1c-0.9-0.7-2.7-1.8-4.1-2.4l1.4-1.9
			C600.2,63.7,602,64.7,603,65.4z M601.6,71.1l-1.4,2.2c-0.9-0.7-2.7-1.8-4.1-2.4l1.4-1.9C598.8,69.5,600.7,70.4,601.6,71.1z
			 M599.1,83.1l-2.2-1.8c1.2-1.7,2.8-4.4,4.1-6.9l1.9,1.8C601.8,78.5,600.4,81,599.1,83.1z M616.3,82.2l-2.3,1.2
			c-0.2-0.6-0.4-1.2-0.8-1.9c-7.3,0.9-8.4,1.1-9.1,1.4c-0.2-0.6-0.6-1.9-0.9-2.6c0.5-0.2,0.9-0.6,1.4-1.4c0.4-0.6,1.4-2.5,2.3-4.7
			h-4.1v-2.5h5.2v-3.1h-4.3v-2.5h4.3v-3.3h2.6v3.3h4.5v2.5h-4.5v3.1h5.3v2.5h-6c-0.9,2-2,4-3,5.6l5.1-0.5c-0.5-0.8-1-1.6-1.5-2.3
			l2.1-1.1C614.1,77.9,615.7,80.4,616.3,82.2z"/>
		<path class="st3" d="M474.8,100.6h153.3v276.4c0,6-4.9,10.9-10.9,10.9H485.8c-6,0-10.9-4.9-10.9-10.9V100.6z"/>
		<path class="st4" d="M539.8,123.5v3.8h-1.9v-5.1h10.8v5.1h-2v-3.8H539.8z M546.1,124.1v1.1h-5.8v-1.1H546.1z M546.1,127h-5.8v-1.1
			h5.8V127z M547.9,131.5h-2.2c0.3,0.6,0.7,1.1,1.1,1.5C547.2,132.5,547.6,132,547.9,131.5z M539,133.4v0.8c0.7-0.1,1.5-0.1,2.3-0.2
			v-0.6H539z M541.3,129.3H539v0.7h2.3V129.3z M539,131.4v0.7h2.3v-0.7H539z M549,129.9l1.2,0.5c-0.4,1.5-1.1,2.8-2,3.8
			c0.8,0.5,1.8,0.9,2.8,1.1c-0.4,0.3-0.9,1.1-1.1,1.5c-1.1-0.3-2.1-0.8-3-1.4c-0.9,0.7-1.8,1.2-2.9,1.6c-0.2-0.4-0.6-1.1-1-1.4v1.5
			h-1.8v-1.4c-1.9,0.2-3.8,0.4-5.3,0.6l-0.1-1.7c0.4,0,0.9-0.1,1.4-0.1v-5H536v-1.5h14.6v1.5h-7.5v6c0.9-0.3,1.7-0.7,2.5-1.2
			c-0.6-0.7-1.2-1.6-1.6-2.5l0.6-0.2h-1V130h5.1L549,129.9z M555.4,121.7l1.8,0.6c-0.4,1.1-1,2.3-1.6,3.4v11.3h-1.9v-8.4
			c-0.4,0.5-0.7,0.9-1.1,1.3c-0.2-0.5-0.7-1.6-1.1-2C553.2,126.4,554.6,124,555.4,121.7z M559.1,136.6V135h4.4v1.6H559.1z
			 M559.4,127.7h3.1c-0.1-1.1-0.2-2.3-0.2-3.5c-0.9,0.2-1.9,0.4-2.8,0.5V127.7z M567.1,129.5h-2.7c0.4,3,0.9,5.1,1.4,5.1
			c0.2,0,0.4-0.7,0.5-2c0.3,0.4,1,0.9,1.3,1c-0.4,2.6-1.1,3.2-1.8,3.2c-1.7,0-2.7-2.9-3.2-7.3h-3.2v3.4l2.6-0.6c0,0.5,0,1.2,0,1.7
			c-3.6,1-4.2,1.2-4.6,1.4c-0.1-0.4-0.4-1.2-0.7-1.5c0.3-0.2,0.8-0.5,0.8-1.2v-9.4c2.8-0.4,5.8-1.1,7.7-1.8l1.5,1.5
			c-0.8,0.3-1.8,0.6-2.8,0.8c0,1.4,0.1,2.7,0.2,3.9h2.9V129.5z"/>
		<path class="st5" d="M474.8,158.1h153.3"/>
		<path class="st4" d="M539.8,181v3.8h-1.9v-5.1h10.8v5.1h-2V181H539.8z M546.1,181.6v1.1h-5.8v-1.1H546.1z M546.1,184.5h-5.8v-1.1
			h5.8V184.5z M547.9,188.9h-2.2c0.3,0.6,0.7,1.1,1.1,1.5C547.2,190,547.6,189.5,547.9,188.9z M539,190.8v0.8
			c0.7-0.1,1.5-0.1,2.3-0.2v-0.6H539z M541.3,186.8H539v0.7h2.3V186.8z M539,188.8v0.7h2.3v-0.7H539z M549,187.4l1.2,0.5
			c-0.4,1.5-1.1,2.8-2,3.8c0.8,0.5,1.8,0.9,2.8,1.1c-0.4,0.3-0.9,1.1-1.1,1.5c-1.1-0.3-2.1-0.8-3-1.4c-0.9,0.7-1.8,1.2-2.9,1.6
			c-0.2-0.4-0.6-1.1-1-1.4v1.5h-1.8V193c-1.9,0.2-3.8,0.4-5.3,0.6l-0.1-1.7c0.4,0,0.9-0.1,1.4-0.1v-5H536v-1.5h14.6v1.5h-7.5v6
			c0.9-0.3,1.7-0.7,2.5-1.2c-0.6-0.7-1.2-1.6-1.6-2.5l0.6-0.2h-1v-1.5h5.1L549,187.4z M558.7,179.3h2.1V192c0,1.2-0.3,1.8-1,2.1
			c-0.8,0.3-1.9,0.4-3.5,0.4c-0.1-0.6-0.5-1.5-0.8-2.1c1.1,0,2.2,0,2.6,0c0.4,0,0.5-0.1,0.5-0.4V179.3z M562.6,183.6l1.9-0.7
			c1.3,2.3,2.7,5.2,3.1,7.3l-2.1,0.9C565.1,189.1,563.9,186,562.6,183.6z M554.4,183.1l2.2,0.4c-0.6,2.5-1.5,5.6-2.9,7.4
			c-0.5-0.3-1.3-0.8-1.9-1.1C553.2,188.1,554,185.2,554.4,183.1z"/>
		<path class="st5" d="M474.8,215.6h153.3"/>
		<path class="st6" d="M539.8,238.4v3.8h-1.9v-5.1h10.8v5.1h-2v-3.8H539.8z M546.1,239v1.1h-5.8V239H546.1z M546.1,241.9h-5.8v-1.1
			h5.8V241.9z M547.9,246.4h-2.2c0.3,0.6,0.7,1.1,1.1,1.5C547.2,247.5,547.6,247,547.9,246.4z M539,248.3v0.8
			c0.7-0.1,1.5-0.1,2.3-0.2v-0.6H539z M541.3,244.3H539v0.7h2.3V244.3z M539,246.3v0.7h2.3v-0.7H539z M549,244.9l1.2,0.5
			c-0.4,1.5-1.1,2.8-2,3.8c0.8,0.5,1.8,0.9,2.8,1.1c-0.4,0.3-0.9,1.1-1.1,1.5c-1.1-0.3-2.1-0.8-3-1.4c-0.9,0.7-1.8,1.2-2.9,1.6
			c-0.2-0.4-0.6-1.1-1-1.4v1.5h-1.8v-1.4c-1.9,0.2-3.8,0.4-5.3,0.6l-0.1-1.7c0.4,0,0.9-0.1,1.4-0.1v-5H536v-1.5h14.6v1.5h-7.5v6
			c0.9-0.3,1.7-0.7,2.5-1.2c-0.6-0.7-1.2-1.6-1.6-2.5l0.6-0.2h-1v-1.5h5.1L549,244.9z M555.4,236.6l1.8,0.6c-0.4,1.1-1,2.3-1.6,3.4
			v11.3h-1.9v-8.4c-0.4,0.5-0.7,0.9-1.1,1.3c-0.2-0.5-0.7-1.6-1.1-2C553.2,241.3,554.6,239,555.4,236.6z M559.1,251.5v-1.6h4.4v1.6
			H559.1z M559.4,242.7h3.1c-0.1-1.1-0.2-2.3-0.2-3.5c-0.9,0.2-1.9,0.4-2.8,0.5V242.7z M567.1,244.5h-2.7c0.4,3,0.9,5.1,1.4,5.1
			c0.2,0,0.4-0.7,0.5-2c0.3,0.4,1,0.9,1.3,1c-0.4,2.6-1.1,3.2-1.8,3.2c-1.7,0-2.7-2.9-3.2-7.3h-3.2v3.4l2.6-0.6c0,0.5,0,1.2,0,1.7
			c-3.6,1-4.2,1.2-4.6,1.4c-0.1-0.4-0.4-1.2-0.7-1.5c0.3-0.2,0.8-0.5,0.8-1.2v-9.4c2.8-0.4,5.8-1.1,7.7-1.8l1.5,1.5
			c-0.8,0.3-1.8,0.6-2.8,0.8c0,1.4,0.1,2.7,0.2,3.9h2.9V244.5z"/>
		<path class="st5" d="M474.8,273.1h153.3"/>
		<path class="st6" d="M538.6,303.4v-2.1h-1.2v2.1H538.6z M531.7,301.3v2.1h1.1v-2.1H531.7z M535.8,301.3h-1.3v2.1h1.3V301.3z
			 M542,301.3h-1.6v2.1h2v1.7h-14.6v-1.7h2.2v-2.1h-1.8v-1.7h1.8v-1.5h1.7v1.5h1.1v-1.5h1.6v1.5h1.3v-1.5h1.6v1.5h1.2v-1.5h1.8v1.5
			h1.6V301.3z M541.9,297.5h-11.6c-0.6,0.7-1.3,1.3-1.9,1.8c-0.2-0.4-0.8-1.2-1.1-1.6c1.3-0.9,2.6-2.4,3.4-3.9l1.7,0.6
			c-0.2,0.5-0.5,0.9-0.8,1.4h10.3V297.5z M529.5,309.5l-1.9-0.8c0.6-0.8,1.4-2.1,1.8-3.2l1.9,0.5
			C530.9,307.1,530.1,308.5,529.5,309.5z M532.2,306.1l1.8-0.2c0.2,1,0.4,2.3,0.4,3.1l-1.9,0.3C532.5,308.5,532.4,307.2,532.2,306.1
			z M535.6,306.1l1.8-0.3c0.4,1,0.8,2.2,1,3l-2,0.4C536.3,308.4,535.9,307.1,535.6,306.1z M538.9,306.1l1.8-0.7
			c0.7,1,1.5,2.3,1.9,3.2l-1.9,0.8C540.3,308.6,539.6,307.1,538.9,306.1z M545.6,301.8v1h1v-1H545.6z M545.6,299.6v1h1v-1H545.6z
			 M549,300.5v-1h-1.1v1H549z M549,302.8v-1h-1.1v1H549z M548.1,304.1v1h2.6v1.7h-2.6v2.6h-1.7v-2.6h-2.6v-1.7h2.6v-1h-2.2v-5.9h2.2
			v-0.9H544v-1.7h2.4V294h1.7v1.6h2.4v1.7h-2.4v0.9h2.3v5.9H548.1z M554,303.6h-1.4v1.1h1.4V303.6z M557.1,304.7v-1.1h-1.5v1.1
			H557.1z M555.6,307.2h1.5v-1.1h-1.5V307.2z M552.6,307.2h1.4v-1.1h-1.4V307.2z M550.9,309.4V302h8v7.4h-1.8v-0.6h-4.5v0.6H550.9z
			 M556.5,299.8v-1.1h-3.2v1.1H556.5z M551.5,297.2h6.9v4.1h-6.9V297.2z M550.9,294.8h8.1v1.7h-8.1V294.8z M563.3,301.8v0.9
			c0.8-0.1,1.6-0.1,2.4-0.2v-0.6H563.3z M565.7,298.2v-0.9h-2.4v0.9H565.7z M565.7,300.4v-0.8h-2.4v0.8H565.7z M567.5,295.9v5.9
			l1.3,0.7c-0.4,0.5-0.9,1-1.3,1.4v3.6c0,0.9-0.2,1.3-0.7,1.6c-0.5,0.3-1.3,0.3-2.4,0.3c-0.1-0.5-0.3-1.2-0.6-1.6c0.7,0,1.4,0,1.6,0
			c0.2,0,0.3-0.1,0.3-0.3v-2c-1.5,1.2-3.2,2.2-4.8,3c-0.1-0.4-0.5-1.3-0.8-1.7c1.7-0.7,3.4-1.7,4.9-2.9c-1.7,0.2-3.3,0.4-4.6,0.5
			l-0.2-1.5l1.3-0.1v-6.9h1.6c0.2-0.6,0.4-1.3,0.5-1.8l2,0.2c-0.2,0.6-0.5,1.1-0.7,1.6H567.5z M571.9,304.3l-1.6,0.7
			c-0.3-1.1-1-2.7-1.8-3.9l1.5-0.6C570.8,301.6,571.6,303.2,571.9,304.3z M575.5,297.6v1.9h-1.6v7.7c0,1.1-0.2,1.5-0.9,1.8
			c-0.6,0.3-1.6,0.4-3,0.4c-0.1-0.5-0.4-1.3-0.6-1.9c0.9,0,1.9,0,2.2,0c0.3,0,0.4-0.1,0.4-0.4v-7.7h-4v-1.9h4v-3.4h1.8v3.4H575.5z"
			/>
		<path class="st5" d="M474.8,330.5h153.3"/>
		<path class="st4" d="M505.8,359.7h-4.6c0.6,1.1,1.3,2,2.3,2.8C504.4,361.7,505.2,360.8,505.8,359.7z M498.2,357.6v0.3h3.5v-2.4
			h-3.5V357.6z M507.1,357.8l1.3,0.7c-0.7,2.1-1.8,3.8-3.3,5.1c1.3,0.7,2.9,1.2,4.7,1.5c-0.4,0.4-1,1.3-1.3,1.9
			c-2.1-0.4-3.8-1.1-5.2-2c-1.5,0.9-3.1,1.5-4.9,1.9c-0.2-0.5-0.8-1.4-1.1-1.8c1.6-0.3,3.1-0.8,4.4-1.4c-1.1-1.1-1.9-2.3-2.6-3.9h-1
			c-0.2,2.4-0.7,5.2-2.1,7.1c-0.3-0.4-1.2-1.1-1.6-1.3c1.7-2.2,1.8-5.6,1.8-7.9v-4.1h5.5v-2.1h2v2.1h3.9l0.3-0.1l1.5,0.4
			c-0.4,1.3-1,2.8-1.4,3.7l-1.8-0.5c0.2-0.4,0.4-1,0.6-1.6h-3.2v2.4h3.1L507.1,357.8z M513.5,356.9v1c0,0.7,0,1.5-0.1,2.3
			c0.5-0.3,1.2-0.8,1.9-1.3v-1.1l-0.7,0.6C514.4,357.9,514,357.4,513.5,356.9z M515.3,353.9h-1.8v2l0.6-0.4c0.4,0.4,0.9,0.8,1.2,1.3
			V353.9z M517.1,352.1v12.7c0,0.9-0.1,1.4-0.7,1.7c-0.5,0.3-1.2,0.3-2.3,0.3c0-0.5-0.3-1.3-0.5-1.8c0.6,0,1.3,0,1.5,0
			c0.2,0,0.3-0.1,0.3-0.3v-4.1c-0.4,0.5-0.9,0.9-1.3,1.3l-0.6-1.1c-0.2,2-0.5,4.2-1.3,5.8c-0.3-0.3-1-0.9-1.3-1
			c1-2.2,1.1-5.4,1.1-7.8v-5.8H517.1z M524,358.4h-3.5c-2.1,0-2.7-0.7-2.7-2.5v-4.1h1.9v1.6h5.9v1.7h-5.9v0.9c0,0.6,0.1,0.8,0.8,0.8
			h3.4c0.6,0,1.5,0,2-0.1c0.1,0.5,0.1,1.2,0.2,1.7C525.7,358.3,524.8,358.4,524,358.4z M523.6,360.9h-3.8v1.1h3.8V360.9z
			 M519.9,364.6h3.8v-1.2h-3.8V364.6z M518,366.9v-7.6h7.6v7.5h-1.9v-0.6h-3.8v0.6H518z M530.4,355.7l1.8,0.3
			c-0.2,0.7-0.4,1.3-0.6,1.9c0.7,0.6,1.6,1.3,2,1.8l-1.1,1.4c-0.3-0.4-1-1.1-1.6-1.6c-0.6,1.1-1.2,1.9-2,2.6c-0.3-0.3-1-1-1.4-1.3
			C528.9,359.7,529.9,357.8,530.4,355.7z M542.5,360.4l-1.3,1.3c-0.5-0.6-1.3-1.4-2.2-2.1c-0.4,0.7-0.8,1.4-1.3,1.9
			c-0.2-0.2-0.6-0.5-1-0.7c0.8,1.6,2.7,3.3,6,4.2c-0.4,0.5-1,1.3-1.3,1.9c-3.9-1.2-5.9-4-6.4-5.4c-0.5,1.4-2.4,4.1-6.2,5.4
			c-0.3-0.5-0.9-1.2-1.3-1.7c4.9-1.4,6.5-4.7,6.5-6.7v-3h-6.2v-1.9h6.2v-2.1h2.1v2.1h6.4v1.9H536v3c0,0.5,0.1,1.1,0.3,1.6
			c1-1.1,1.7-2.7,2-4.5l1.8,0.3c-0.1,0.7-0.3,1.3-0.5,2C540.6,358.7,541.8,359.7,542.5,360.4z M559,359.9v1.9h-6.5v2.7
			c0,1.2-0.3,1.7-1.1,2c-0.8,0.3-2,0.3-3.6,0.3c-0.1-0.6-0.5-1.4-0.8-1.9c1.2,0,2.6,0,3,0c0.4,0,0.5-0.1,0.5-0.5v-2.6H544v-1.9h6.5
			V358h-5.4v-1.9h5.4v-1.9c-1.7,0.1-3.4,0.2-5,0.3c0-0.5-0.3-1.3-0.5-1.7c4-0.2,8.5-0.6,11.2-1.3l1.4,1.6c-1.5,0.4-3.2,0.7-5,0.9
			v2.2h5.5v1.9h-5.5v1.9H559z M565.3,363.5v0.8c1-0.1,1.9-0.2,2.9-0.2c1.3-1.8,1.7-4.1,1.8-7h-1.5v-1.3h-3.1v0.7h2.9v5.1h-2.9v0.6
			h3.1v1.4H565.3z M562.3,360.3h1.3v-0.8h-1.3V360.3z M566.6,359.5h-1.3v0.8h1.3V359.5z M565.3,358.4h1.3v-0.7h-1.3V358.4z
			 M562.3,357.6v0.7h1.3v-0.7H562.3z M571.9,355.3h3.3c0,0,0,0.6,0,0.9c-0.1,6.7-0.3,9-0.8,9.8c-0.4,0.5-0.8,0.7-1.3,0.8
			c-0.5,0.1-1.2,0.1-2,0.1c0-0.5-0.2-1.3-0.6-1.8c0.7,0.1,1.4,0.1,1.7,0.1c0.2,0,0.4,0,0.6-0.3c0.3-0.4,0.5-2.5,0.6-7.7h-1.5
			c-0.2,4.5-1,7.8-3.7,10c-0.3-0.4-0.8-1-1.2-1.4c-2.3,0.2-4.6,0.5-6.4,0.6l-0.2-1.6c0.9-0.1,2.1-0.1,3.3-0.2v-1h-2.9v-1.4h2.9v-0.6
			h-2.8v-5.1h2.8v-0.7h-3.2v-1.4h3.2v-0.6c-1,0.1-1.9,0.1-2.8,0.2c0-0.4-0.2-1-0.4-1.4c2.4-0.1,5.3-0.4,7.1-0.9l0.9,1.4
			c-0.9,0.2-1.9,0.3-3,0.5v0.8h3.1v0.9h1.6c0-1.1,0-2.2,0-3.4h1.9C571.9,353,571.9,354.2,571.9,355.3z M588.2,354.6v-1.1h-3v1.1
			H588.2z M590,352.1v3.8h-6.4v-3.8H590z M581.7,360.1l-1.5,0.5v4c0,0.9-0.1,1.3-0.6,1.6c-0.5,0.3-1.1,0.4-2,0.4
			c0-0.5-0.2-1.2-0.5-1.7c0.5,0,0.9,0,1.1,0c0.2,0,0.2-0.1,0.2-0.2v-3.4c-0.5,0.2-0.9,0.3-1.4,0.5l-0.5-1.9c0.5-0.1,1.1-0.3,1.8-0.5
			v-2.9h-1.6v-1.8h1.6v-3.1h1.8v3.1h1.4v1.8h-1.4v2.4l1.2-0.4L581.7,360.1z M583.7,363l1.7,0.6c-0.8,1.1-2,2.3-2.9,3.1
			c-0.3-0.3-0.9-0.9-1.3-1.2C582.1,364.8,583.1,363.9,583.7,363z M584.9,359v-1.2h-1.3v1.2H584.9z M588.6,357.8v1.2h1.4v-1.2H588.6z
			 M591.8,363h-2.5c1,0.8,2.2,1.8,2.8,2.5l-1.3,1.2c-0.5-0.8-1.7-1.9-2.7-2.7l1.1-1h-1.5v3.9h-1.9V363h-4v-1.6h4v-1h-3.7v-3.9h4.3
			v3.8h0.6v-3.8h4.5v3.9h-3.9v1h4.1V363z M596.7,351.6l1.9,0.6c-0.4,1.1-1,2.3-1.6,3.4v11.2h-2v-8.2c-0.3,0.4-0.7,0.8-1,1.2
			c-0.2-0.5-0.7-1.6-1.1-2.1C594.4,356.3,595.9,353.9,596.7,351.6z M608.4,356.1h-4.7v1.7h4.3v1.8h-4.3v1.9h4.5v1.8h-4.5v3.6h-2
			v-10.8h-0.6c-0.7,1.2-1.4,2.3-2.2,3.2c-0.3-0.4-1.1-1.1-1.5-1.4c1.4-1.5,2.7-3.8,3.5-6.2l1.9,0.5c-0.2,0.7-0.5,1.4-0.8,2h6.4
			V356.1z"/>
	</g>
</g>
</svg>
