<?xml version="1.0" encoding="utf-8"?>
<!-- Generator: Adobe Illustrator 25.3.1, SVG Export Plug-In . SVG Version: 6.00 Build 0)  -->
<svg version="1.1" id="圖層_1" xmlns="http://www.w3.org/2000/svg" xmlns:xlink="http://www.w3.org/1999/xlink" x="0px" y="0px"
	 viewBox="0 0 100 60" style="enable-background:new 0 0 100 60;" xml:space="preserve">
<style type="text/css">
	.st0{clip-path:url(#SVGID_2_);}
	.st1{opacity:0.3;}
	.st2{fill:#FFC404;}
	.st3{fill:#FFFFFF;filter:url(#Adobe_OpacityMaskFilter);}
	.st4{mask:url(#mask0_395_318_1_);}
	.st5{fill:#FFFFFF;filter:url(#Adobe_OpacityMaskFilter_1_);}
	.st6{mask:url(#mask1_395_318_1_);}
	.st7{fill:#FFA300;}
	.st8{fill:#474747;}
	.st9{fill:#DB0059;}
	.st10{fill:#6262B7;}
	.st11{fill:#FFFFFF;}
</style>
<g>
	<defs>
		<rect id="SVGID_1_" x="0" y="0.7" width="100" height="58.7"/>
	</defs>
	<clipPath id="SVGID_2_">
		<use xlink:href="#SVGID_1_"  style="overflow:visible;"/>
	</clipPath>
	<g class="st0">
		<path class="st1" d="M98.6,6.8l-8.3,1.1l-5.2-5.2L72.3,6.2l-1.1,4.4l-2.1,0.3l-0.2-4.4c-0.1-1.9-1.7-3.3-3.5-3.2L49.9,3.8
			c-1.9,0.1-3.3,1.7-3.2,3.5l0.3,6.5l-2.8,0.4l0.4-11.8L27.2,1.9l-0.5,14.8l-3,0.4L22.4,1.6l-6.7,0.6l-10.5,6l0.9,11.2l-5.2,0.7v7.1
			l5.8-0.8l0.4,4.7l17.6-1.5L24.3,24l2.2-0.3l-0.1,1.4l17.3,0.6l0.2-4.4l3.4-0.5l0.1,3.1c0.1,1.9,1.7,3.3,3.5,3.2l15.5-0.7
			c1.9-0.1,3.3-1.7,3.2-3.5l-0.1-3.4l8.8,8.8L91.1,25l2.8-10.5l4.8-0.6V6.8z"/>
		<g>
			<path class="st2" d="M97.7,12.9L0,26.3v-7.1L97.7,5.9V12.9z"/>
			<defs>
				<filter id="Adobe_OpacityMaskFilter" filterUnits="userSpaceOnUse" x="-4.2" y="5.3" width="106.4" height="21.6">
					<feColorMatrix  type="matrix" values="1 0 0 0 0  0 1 0 0 0  0 0 1 0 0  0 0 0 1 0"/>
				</filter>
			</defs>
			<mask maskUnits="userSpaceOnUse" x="-4.2" y="5.3" width="106.4" height="21.6" id="mask0_395_318_1_">
				<path class="st3" d="M97.7,12.9L0,26.3v-7.1L97.7,5.9V12.9z"/>
			</mask>
			<g class="st4">
				<path d="M-1.6,26.5l-2.6,0.4l4.5-7.7l2.6-0.4L-1.6,26.5z"/>
				<path d="M4.2,25.7L1.6,26l4.5-7.7L8.8,18L4.2,25.7z"/>
				<path d="M10.1,24.9l-2.6,0.4l4.5-7.7l2.6-0.4L10.1,24.9z"/>
				<path d="M15.9,24.1l-2.6,0.4l4.5-7.7l2.6-0.4L15.9,24.1z"/>
				<path d="M21.8,23.3l-2.6,0.4l4.5-7.7l2.6-0.4L21.8,23.3z"/>
				<path d="M27.6,22.5l-2.6,0.4l4.5-7.7l2.6-0.4L27.6,22.5z"/>
				<path d="M33.4,21.7l-2.6,0.4l4.5-7.7L38,14L33.4,21.7z"/>
				<path d="M39.3,20.9l-2.6,0.4l4.5-7.7l2.6-0.4L39.3,20.9z"/>
				<path d="M45.1,20.1l-2.6,0.4l4.5-7.7l2.6-0.4L45.1,20.1z"/>
				<path d="M50.9,19.3l-2.6,0.4l4.5-7.7l2.6-0.4L50.9,19.3z"/>
				<path d="M56.8,18.5l-2.6,0.4l4.5-7.7l2.6-0.4L56.8,18.5z"/>
				<path d="M62.6,17.7L60,18.1l4.5-7.7l2.6-0.4L62.6,17.7z"/>
				<path d="M68.5,16.9l-2.6,0.4l4.5-7.7L73,9.2L68.5,16.9z"/>
				<path d="M74.3,16.1l-2.6,0.4l4.5-7.7l2.6-0.4L74.3,16.1z"/>
				<path d="M80.1,15.3l-2.6,0.4L82,8l2.6-0.4L80.1,15.3z"/>
				<path d="M86,14.5l-2.6,0.4l4.5-7.7l2.6-0.4L86,14.5z"/>
				<path d="M91.8,13.7l-2.6,0.4l4.5-7.7l2.6-0.4L91.8,13.7z"/>
				<path d="M97.6,12.9L95,13.3l4.5-7.7l2.6-0.4L97.6,12.9z"/>
			</g>
		</g>
		<path class="st1" d="M98.6,32.6l-8.9,1.2l-2.8-2.8l-11.1,3l-0.5,1.8l-2.5,0.3l-0.6-7.7l-6.7,0.6L55,35l0.3,3.5l-1.7,0.2l0.2-7.1
			L36.5,31l-0.3,10.1l-3.6,0.5V29.5H15.1V44l-5.8,0.8v6.5l5.8-0.8v5.3h17.5V48l3.3-0.5l-0.2,6.7L53,54.9l0.3-9.7l2.5-0.3l1.1,13
			l17.6-1.5L73.7,46l7.3,7.3l11.1-3L95,39.5l3.7-0.5V32.6z M73.4,42.9l0-0.5l0.2,0L73.4,42.9z"/>
		<g>
			<path class="st2" d="M97.7,38.1L8.3,50.3v-6.5l89.4-12.2V38.1z"/>
			<defs>
				<filter id="Adobe_OpacityMaskFilter_1_" filterUnits="userSpaceOnUse" x="4.5" y="31.1" width="97.3" height="19.7">
					<feColorMatrix  type="matrix" values="1 0 0 0 0  0 1 0 0 0  0 0 1 0 0  0 0 0 1 0"/>
				</filter>
			</defs>
			<mask maskUnits="userSpaceOnUse" x="4.5" y="31.1" width="97.3" height="19.7" id="mask1_395_318_1_">
				<path class="st5" d="M97.7,38.1L8.3,50.3v-6.5l89.4-12.2V38.1z"/>
			</mask>
			<g class="st6">
				<path d="M6.9,50.5l-2.4,0.3l4.1-7l2.4-0.3L6.9,50.5z"/>
				<path d="M12.2,49.7l-2.4,0.3l4.1-7l2.4-0.3L12.2,49.7z"/>
				<path d="M17.6,49l-2.4,0.3l4.1-7l2.4-0.3L17.6,49z"/>
				<path d="M22.9,48.3l-2.4,0.3l4.1-7l2.4-0.3L22.9,48.3z"/>
				<path d="M28.2,47.6l-2.4,0.3l4.1-7l2.4-0.3L28.2,47.6z"/>
				<path d="M33.6,46.8l-2.4,0.3l4.1-7l2.4-0.3L33.6,46.8z"/>
				<path d="M38.9,46.1l-2.4,0.3l4.1-7l2.4-0.3L38.9,46.1z"/>
				<path d="M44.3,45.4l-2.4,0.3l4.1-7l2.4-0.3L44.3,45.4z"/>
				<path d="M49.6,44.6L47.2,45l4.1-7l2.4-0.3L49.6,44.6z"/>
				<path d="M54.9,43.9l-2.4,0.3l4.1-7l2.4-0.3L54.9,43.9z"/>
				<path d="M60.3,43.2l-2.4,0.3l4.1-7l2.4-0.3L60.3,43.2z"/>
				<path d="M65.6,42.5l-2.4,0.3l4.1-7l2.4-0.3L65.6,42.5z"/>
				<path d="M70.9,41.7l-2.4,0.3l4.1-7l2.4-0.3L70.9,41.7z"/>
				<path d="M76.3,41l-2.4,0.3l4.1-7l2.4-0.3L76.3,41z"/>
				<path d="M81.6,40.3l-2.4,0.3l4.1-7l2.4-0.3L81.6,40.3z"/>
				<path d="M87,39.5l-2.4,0.3l4.1-7l2.4-0.3L87,39.5z"/>
				<path d="M92.3,38.8l-2.4,0.3l4.1-7l2.4-0.3L92.3,38.8z"/>
				<path d="M97.6,38.1l-2.4,0.3l4.1-7l2.4-0.3L97.6,38.1z"/>
			</g>
		</g>
		<g>
			<path class="st7" d="M23.8,28.7L6.2,30.2L4.3,7.2l10.5-6l6.7-0.6L23.8,28.7z"/>
		</g>
		<g>
			<path class="st7" d="M73.6,55.5L56,56.9L54.1,34l10.5-6l6.7-0.6L73.6,55.5z"/>
		</g>
		<g>
			<path class="st8" d="M43.6,1.5L26.3,0.9l-0.8,23.3l17.3,0.6L43.6,1.5z"/>
		</g>
		<g>
			<path class="st9" d="M64.5,2.2L49,2.9c-1.9,0.1-3.3,1.7-3.2,3.5l0.7,16.6c0.1,1.9,1.7,3.3,3.5,3.2l15.5-0.7
				c1.9-0.1,3.3-1.7,3.2-3.5L68,5.5C67.9,3.6,66.3,2.2,64.5,2.2z"/>
		</g>
		<g>
			<path class="st10" d="M77.4,27.5L68,18.1l3.4-12.9l12.8-3.5l9.4,9.4L90.2,24L77.4,27.5z"/>
		</g>
		<g>
			<path class="st10" d="M80.1,52.4l-8.2-8.2l3-11.2L86,30l8.2,8.2l-3,11.2L80.1,52.4z"/>
		</g>
		<g>
			<path class="st8" d="M31.6,28.6H14.1v26.2h17.5V28.6z"/>
		</g>
		<g>
			<path class="st9" d="M52.9,30.7l-17.3-0.6l-0.8,23.3L52.1,54L52.9,30.7z"/>
		</g>
		<g class="st1">
			<path d="M19.2,15l0.7,0.9c-0.3,0.2-0.7,0.5-1,0.7c0.5,0.5,0.9,0.9,1,1.1l-0.8,0.9c-0.5-0.8-1.7-2.3-2.3-3l0.6-0.5
				c0.2,0.1,0.5,0.4,0.8,0.8C18.6,15.6,19,15.3,19.2,15z M18.1,11.4h-1.5v0.7h1.5V11.4z M16.6,13.8h1.5v-0.7h-1.5V13.8z M16.6,17.3
				l1.3-0.3c0,0.3,0,0.7,0,1c-1.8,0.4-2.2,0.6-2.4,0.7c0-0.3-0.2-0.8-0.3-1c0.2,0,0.3-0.1,0.3-0.5v-6.9h3.8v4.5h-2.6V17.3z
				 M14.8,11.8l-1,0.3c-0.1-0.5-0.3-1.3-0.5-1.9l1-0.2C14.5,10.6,14.7,11.3,14.8,11.8z M10.8,13.5v0.8c0,0.5,0,1,0,1.6
				c0.3-0.2,0.6-0.4,0.9-0.6v-1.2l-0.3,0.2C11.3,14.1,11.1,13.8,10.8,13.5z M11.7,11.5h-0.9v1.4l0.4-0.3c0.2,0.2,0.3,0.4,0.5,0.5
				V11.5z M14.9,15l0.5,0.2c-0.2,1-0.5,2.1-0.8,3c0.2,0.1,0.4,0.3,0.7,0.5c0.6,0.4,1.3,0.5,2.2,0.5c0.7,0,1.9-0.1,2.7-0.2
				c-0.1,0.3-0.3,0.9-0.3,1.3c-0.6,0-1.7,0.1-2.4,0.1c-1,0-1.7-0.2-2.3-0.6c-0.4-0.3-0.7-0.6-1-0.6c-0.3,0-0.7,0.7-1,1.4l-0.5-0.6
				c-0.1,0.2-0.2,0.3-0.3,0.4c-0.3,0.2-0.7,0.2-1.4,0.2c0-0.3-0.2-0.8-0.3-1.1c0.4,0,0.8,0,0.9,0c0.1,0,0.2,0,0.2-0.2v-2.6l-0.6,0.6
				l-0.3-0.8c-0.1,1.4-0.3,3-0.8,4.2c-0.2-0.2-0.6-0.6-0.9-0.7c0.6-1.6,0.6-3.8,0.6-5.4v-4h3v8.5c0.3-0.2,0.5-0.5,0.8-0.6
				c0.3-0.6,0.5-1.4,0.6-2.1h-1c0.2-0.6,0.5-1.5,0.7-2.4H13v-1.2h2.1c-0.2,0.8-0.5,1.7-0.7,2.5h0.3L14.9,15z M35.1,17.4h-2.4v1.4
				h2.4V17.4z M31.4,20.4v-4.2h5v4.2h-1.3v-0.5h-2.4v0.5H31.4z M34.9,12.3H33c0.3,0.5,0.5,1.2,0.6,1.6l-0.7,0.2h1.3
				C34.5,13.6,34.7,12.9,34.9,12.3z M35.3,12.3l0.9,0.2c-0.2,0.5-0.5,1.1-0.7,1.6h1.3v1.2h-5.9v-1.2h1.4c-0.1-0.5-0.3-1.1-0.6-1.6
				l0.9-0.2h-1.5v-1.2h2.1c-0.1-0.3-0.2-0.7-0.4-1l1.2-0.3c0.2,0.4,0.4,0.9,0.5,1.3h1.9v1.2H35.3z M40.4,10.4l0.9,0.6
				c-0.4,1.1-0.8,2.4-1.3,3.3c0.9,1,1.1,1.9,1.1,2.6c0,0.8-0.2,1.4-0.6,1.7c-0.2,0.1-0.5,0.2-0.7,0.3c-0.2,0-0.6,0-0.9,0
				c0-0.3-0.1-0.9-0.3-1.2c0.2,0,0.5,0,0.6,0s0.3,0,0.4-0.1c0.2-0.1,0.3-0.4,0.3-0.8c0-0.6-0.2-1.4-1.1-2.3c0.3-0.8,0.7-2,0.9-2.8
				h-1.3v8.7h-1.2v-9.9h2.9L40.4,10.4z M54.2,13.6v0.8c0,0.4,0,0.9,0,1.5c0.3-0.2,0.7-0.5,1.2-0.8v-0.8l-0.4,0.3
				C54.8,14.3,54.5,13.9,54.2,13.6z M55.3,11.5h-1.1v1.3l0.3-0.3c0.3,0.2,0.6,0.5,0.8,0.8V11.5z M61.4,19h0.1c0.1,0,0.1,0,0.1-0.1
				c0,0,0.1-0.1,0.1-0.4c0-0.2,0-0.8,0-1.4c0.3,0.2,0.7,0.5,1,0.6c0,0.6-0.1,1.4-0.1,1.7c-0.1,0.3-0.2,0.5-0.4,0.7
				c-0.2,0.1-0.4,0.2-0.7,0.2H61c-0.3,0-0.6-0.1-0.8-0.3C60,19.7,60,19.4,60,18.5v-6.9h-1.2v3.3c0,1.7-0.1,4.2-1.2,5.6
				c-0.2-0.2-0.8-0.6-1.1-0.8c-0.1,0.1-0.2,0.2-0.3,0.3c-0.3,0.2-0.8,0.2-1.6,0.2c0-0.3-0.2-0.9-0.4-1.3c0.4,0,0.8,0,0.9,0
				c0.1,0,0.2-0.1,0.2-0.2v-2.6c-0.3,0.3-0.6,0.6-0.8,0.8l-0.4-0.7c-0.1,1.4-0.3,3-0.8,4.1c-0.2-0.2-0.8-0.5-1.1-0.6
				c0.7-1.5,0.7-3.8,0.7-5.4v-4.1h3.6v8.6c0,0.3,0,0.5-0.1,0.7c0.9-1.3,0.9-3.2,0.9-4.7v-4.6h3.9v8.1c0,0.3,0,0.4,0,0.5
				C61.4,19,61.4,19,61.4,19z M86.2,11.5v7.4c0,0.7-0.1,1.1-0.6,1.3c-0.4,0.2-1.1,0.2-1.9,0.2c0-0.4-0.2-1-0.4-1.3l0.1,0
				c-0.4-0.5-1.2-1.1-1.9-1.7c-0.5,0.7-1.2,1.3-2.3,1.8c-0.1-0.3-0.5-0.8-0.8-1c1.9-0.7,2.3-1.9,2.6-3.1h1.4
				c-0.1,0.4-0.2,0.8-0.3,1.2c0.8,0.6,1.9,1.4,2.5,1.9l-0.9,0.9c0.5,0,0.9,0,1.1,0c0.2,0,0.2-0.1,0.2-0.2v-6.1H82
				c0,0.1,0,0.2-0.1,0.2c0.9,0.5,2.1,1.3,2.7,1.8l-0.9,1c-0.5-0.5-1.4-1.2-2.3-1.7c-0.5,0.7-1.2,1.3-2.2,1.8c-0.1-0.3-0.5-0.8-0.8-1
				c1.2-0.5,1.9-1.2,2.2-2.2h-2.3v7.6h-1.3v-8.9h4c0.1-0.5,0.1-1,0.1-1.6h1.4c0,0.6-0.1,1.1-0.1,1.6H86.2z"/>
		</g>
		<g>
			<path class="st11" d="M18.3,14.1l0.7,0.9c-0.3,0.2-0.7,0.5-1,0.7c0.5,0.5,0.9,0.9,1,1.1l-0.8,0.9c-0.5-0.8-1.7-2.3-2.3-3l0.6-0.5
				c0.2,0.1,0.5,0.4,0.8,0.8C17.6,14.6,18,14.3,18.3,14.1z M17.2,10.5h-1.5v0.7h1.5V10.5z M15.7,12.9h1.5v-0.7h-1.5V12.9z
				 M15.7,16.4l1.3-0.3c0,0.3,0,0.7,0,1c-1.8,0.4-2.2,0.6-2.4,0.7c0-0.3-0.2-0.8-0.3-1c0.2,0,0.3-0.1,0.3-0.5V9.4h3.8v4.5h-2.6V16.4
				z M13.8,10.9l-1,0.3c-0.1-0.5-0.3-1.3-0.5-1.9l1-0.2C13.5,9.7,13.7,10.4,13.8,10.9z M9.9,12.6v0.8c0,0.5,0,1,0,1.6
				c0.3-0.2,0.6-0.4,0.9-0.6v-1.2l-0.3,0.2C10.3,13.2,10.1,12.9,9.9,12.6z M10.8,10.6H9.9V12l0.4-0.3c0.2,0.2,0.3,0.4,0.5,0.5V10.6z
				 M14,14.1l0.5,0.2c-0.2,1-0.5,2.1-0.8,3c0.2,0.1,0.4,0.3,0.7,0.5c0.6,0.4,1.3,0.5,2.2,0.5c0.7,0,1.9-0.1,2.7-0.2
				c-0.1,0.3-0.3,0.9-0.3,1.3c-0.6,0-1.7,0.1-2.4,0.1c-1,0-1.7-0.2-2.3-0.6c-0.4-0.3-0.7-0.6-1-0.6c-0.3,0-0.7,0.7-1,1.4l-0.5-0.6
				c-0.1,0.2-0.2,0.3-0.3,0.4c-0.3,0.2-0.7,0.2-1.4,0.2c0-0.3-0.2-0.8-0.3-1.1c0.4,0,0.8,0,0.9,0c0.1,0,0.2,0,0.2-0.2v-2.6l-0.6,0.6
				l-0.3-0.8c-0.1,1.4-0.3,3-0.8,4.2c-0.2-0.2-0.6-0.6-0.9-0.7c0.6-1.6,0.6-3.8,0.6-5.4v-4h3v8.5c0.3-0.2,0.5-0.5,0.8-0.6
				c0.3-0.6,0.5-1.4,0.6-2.1h-1c0.2-0.6,0.5-1.5,0.7-2.4H12v-1.2h2.1c-0.2,0.8-0.5,1.7-0.7,2.5h0.3L14,14.1z M34.2,16.4h-2.4v1.4
				h2.4V16.4z M30.5,19.5v-4.2h5v4.2h-1.3V19h-2.4v0.5H30.5z M33.9,11.4H32c0.3,0.5,0.5,1.2,0.6,1.6L32,13.2h1.3
				C33.5,12.7,33.8,12,33.9,11.4z M34.4,11.4l0.9,0.2c-0.2,0.5-0.5,1.1-0.7,1.6h1.3v1.2H30v-1.2h1.4c-0.1-0.5-0.3-1.1-0.6-1.6
				l0.9-0.2h-1.5v-1.2h2.1c-0.1-0.3-0.2-0.7-0.4-1l1.2-0.3c0.2,0.4,0.4,0.9,0.5,1.3h1.9v1.2H34.4z M39.4,9.4l0.9,0.6
				c-0.4,1.1-0.8,2.4-1.3,3.3c0.9,1,1.1,1.9,1.1,2.6c0,0.8-0.2,1.4-0.6,1.7c-0.2,0.1-0.5,0.2-0.7,0.3c-0.2,0-0.6,0-0.9,0
				c0-0.3-0.1-0.9-0.3-1.2c0.2,0,0.5,0,0.6,0c0.2,0,0.3,0,0.4-0.1c0.2-0.1,0.3-0.4,0.3-0.8c0-0.6-0.2-1.4-1.1-2.3
				c0.3-0.8,0.7-2,0.9-2.8h-1.3v8.7h-1.2V9.5h2.9L39.4,9.4z M53.2,12.6v0.8c0,0.4,0,0.9,0,1.5c0.3-0.2,0.7-0.5,1.2-0.8v-0.8L54,13.6
				C53.8,13.3,53.5,13,53.2,12.6z M54.4,10.6h-1.1v1.3l0.3-0.3c0.3,0.2,0.6,0.5,0.8,0.8V10.6z M60.5,18h0.1c0.1,0,0.1,0,0.1-0.1
				c0,0,0.1-0.1,0.1-0.4c0-0.2,0-0.8,0-1.4c0.3,0.2,0.7,0.5,1,0.6c0,0.6-0.1,1.4-0.1,1.7c-0.1,0.3-0.2,0.5-0.4,0.7
				c-0.2,0.1-0.4,0.2-0.7,0.2h-0.6c-0.3,0-0.6-0.1-0.8-0.3c-0.2-0.2-0.3-0.5-0.3-1.5v-6.9h-1.2v3.3c0,1.7-0.1,4.2-1.2,5.6
				c-0.2-0.2-0.8-0.6-1.1-0.8c-0.1,0.1-0.2,0.2-0.3,0.3c-0.3,0.2-0.8,0.2-1.6,0.2c0-0.3-0.2-0.9-0.4-1.3c0.4,0,0.8,0,0.9,0
				c0.1,0,0.2-0.1,0.2-0.2v-2.6c-0.3,0.3-0.6,0.6-0.8,0.8l-0.4-0.7c-0.1,1.4-0.3,3-0.8,4.1c-0.2-0.2-0.8-0.5-1.1-0.6
				c0.7-1.5,0.7-3.8,0.7-5.4V9.3h3.6v8.6c0,0.3,0,0.5-0.1,0.7c0.9-1.3,0.9-3.2,0.9-4.7V9.3h3.9v8.1c0,0.3,0,0.4,0,0.5
				C60.4,18,60.5,18,60.5,18z M85.3,10.5V18c0,0.7-0.1,1.1-0.6,1.3c-0.4,0.2-1.1,0.2-1.9,0.2c0-0.4-0.2-1-0.4-1.3l0.1,0
				c-0.4-0.5-1.2-1.1-1.9-1.7c-0.5,0.7-1.2,1.3-2.3,1.8c-0.1-0.3-0.5-0.8-0.8-1c1.9-0.7,2.3-1.9,2.6-3.1h1.4
				c-0.1,0.4-0.2,0.8-0.3,1.2c0.8,0.6,1.9,1.4,2.5,1.9l-0.9,0.9c0.5,0,0.9,0,1.1,0c0.2,0,0.2-0.1,0.2-0.2v-6.1h-2.9
				c0,0.1,0,0.2-0.1,0.2c0.9,0.5,2.1,1.3,2.7,1.8l-0.9,1c-0.5-0.5-1.4-1.2-2.3-1.7C80,14,79.3,14.6,78.2,15c-0.1-0.3-0.5-0.8-0.8-1
				c1.2-0.5,1.9-1.2,2.2-2.2h-2.3v7.6h-1.3v-8.9h4C80,10.1,80,9.6,80,9h1.4c0,0.6-0.1,1.1-0.1,1.6H85.3z"/>
		</g>
		<g class="st1">
			<path d="M26.4,42.1v-0.7h-4v0.7H26.4z M22.3,43.9h4.1v-0.7h-4C22.3,43.4,22.3,43.6,22.3,43.9z M29,39.3h-6.1
				c-0.1,0.3-0.3,0.6-0.5,0.9h5.2v5.6c0,0.7-0.1,1-0.6,1.2c-0.4,0.2-1.1,0.2-2,0.2c-0.1-0.4-0.2-0.9-0.4-1.3c0.6,0,1.2,0,1.4,0
				c0.2,0,0.3-0.1,0.3-0.2V45h-4.2c-0.2,0.8-0.6,1.7-1.3,2.2c-0.2-0.3-0.7-0.8-1-1c1-0.8,1-2.1,1-3.1v-0.9c-0.4,0.5-0.9,0.9-1.4,1.2
				c-0.2-0.3-0.6-0.8-0.9-1c1.1-0.8,2-1.9,2.7-3.1H19V38h3c0.2-0.5,0.3-0.9,0.5-1.4l1.4,0.3c-0.1,0.3-0.2,0.7-0.4,1H29V39.3z
				 M46.9,38.7h-2.8c-0.1,0.1-0.2,0.1-0.3,0.2c0.5,0.3,0.9,0.7,1.3,1.1C45.8,39.7,46.4,39.2,46.9,38.7z M48.2,37.5L49,38
				c-1.5,2.6-4.7,4-7.9,4.6c-0.1-0.3-0.4-0.9-0.6-1.2c1.1-0.2,2.3-0.5,3.3-0.9c-0.3-0.3-0.7-0.7-1.1-1c-0.3,0.2-0.7,0.3-1,0.5
				c-0.2-0.3-0.6-0.8-0.9-1c1.8-0.7,3.2-1.6,3.9-2.5l1.4,0.3c-0.2,0.2-0.4,0.4-0.6,0.6h2.4L48.2,37.5z M48.5,42.9h-2.6
				c-0.2,0.1-0.4,0.3-0.7,0.4c0.5,0.3,1,0.8,1.3,1.1C47.3,44,48,43.5,48.5,42.9z M49.6,41.7l0.9,0.5c-1.6,3.4-5.3,4.6-9.6,5
				c-0.1-0.4-0.3-1-0.5-1.3c1.8-0.1,3.5-0.4,4.9-0.9c-0.3-0.3-0.8-0.7-1.2-1c-0.5,0.2-0.9,0.4-1.5,0.6c-0.2-0.3-0.5-0.8-0.8-1
				c2.3-0.7,3.9-1.8,4.7-2.9L48,41c-0.2,0.3-0.4,0.5-0.7,0.8h2L49.6,41.7z M61.8,42.8h1.9v-0.5h-1.9V42.8z M61.8,41v0.5h1.9V41H61.8
				z M67,41h-2v0.5h2V41z M67,42.8v-0.5h-2v0.5H67z M65,45.8h4.5v1.1H59.3v-1.1h4.4v-0.6h-3.5v-1h3.5v-0.5h-3.2v-3.6h3.2v-0.4h-4.3
				v-1h4.3v-0.5c-1.1,0-2.2,0.1-3.2,0.1c0-0.3-0.2-0.8-0.3-1c2.6-0.1,5.7-0.2,7.6-0.6l0.6,1c-1,0.2-2.2,0.3-3.4,0.4v0.6h4.4v1H65
				v0.4h3.3v3.6H65v0.5h3.8v1H65V45.8z M84.5,44.1h-2.7c-0.1,0.1-0.2,0.3-0.3,0.4c0.7,0.1,1.3,0.3,2,0.4
				C83.9,44.7,84.3,44.5,84.5,44.1z M80.1,39.9v1h1.2v-1H80.1z M82.6,38.2v0.6h1.3v-0.6H82.6z M86.5,39.9h-1.4v1h1.4V39.9z M82.6,41
				h1.3v-1h-1.3V41z M88.4,44.1h-2.2c-0.3,0.5-0.6,0.9-1,1.2c1.2,0.3,2.3,0.6,3.1,0.9l-1.2,0.9c-0.8-0.3-1.9-0.6-3.2-1
				c-1.3,0.6-3,0.9-5.2,1c-0.1-0.4-0.3-0.9-0.5-1.2c1.4-0.1,2.5-0.2,3.5-0.4c-0.7-0.1-1.5-0.3-2.2-0.4c0.3-0.3,0.6-0.7,0.9-1.1h-2.1
				V43H81c0.2-0.3,0.4-0.7,0.6-1h-2.7v-3.2h2.4v-0.6h-3V37h9.8v1.2h-3.1v0.6h2.7V42h-6l1.2,0.3c-0.1,0.2-0.2,0.5-0.4,0.8h2.7
				c0.1-0.2,0.2-0.4,0.2-0.6l1.3,0.3c0,0.1-0.1,0.2-0.1,0.3h1.7V44.1z"/>
		</g>
		<g>
			<path class="st11" d="M25.4,41.1v-0.7h-4v0.7H25.4z M21.4,43h4.1v-0.7h-4C21.4,42.5,21.4,42.7,21.4,43z M28,38.3H22
				c-0.1,0.3-0.3,0.6-0.5,0.9h5.2v5.6c0,0.7-0.1,1-0.6,1.2c-0.4,0.2-1.1,0.2-2,0.2c-0.1-0.4-0.2-0.9-0.4-1.3c0.6,0,1.2,0,1.4,0
				c0.2,0,0.3-0.1,0.3-0.2v-0.7h-4.2c-0.2,0.8-0.6,1.7-1.3,2.2c-0.2-0.3-0.7-0.8-1-1c1-0.8,1-2.1,1-3.1v-0.9
				c-0.4,0.5-0.9,0.9-1.4,1.2c-0.2-0.3-0.6-0.8-0.9-1c1.1-0.8,2-1.9,2.7-3.1H18v-1.3h3c0.2-0.5,0.3-0.9,0.5-1.4l1.4,0.3
				c-0.1,0.3-0.2,0.7-0.4,1H28V38.3z M46,37.8h-2.8C43.1,37.9,43,38,42.8,38c0.5,0.3,0.9,0.7,1.3,1.1C44.8,38.8,45.5,38.3,46,37.8z
				 M47.2,36.6l0.9,0.5c-1.5,2.6-4.7,4-7.9,4.6c-0.1-0.3-0.4-0.9-0.6-1.2c1.1-0.2,2.3-0.5,3.3-0.9c-0.3-0.3-0.7-0.7-1.1-1
				c-0.3,0.2-0.7,0.3-1,0.5c-0.2-0.3-0.6-0.8-0.9-1c1.8-0.7,3.2-1.6,3.9-2.5l1.4,0.3c-0.2,0.2-0.4,0.4-0.6,0.6H47L47.2,36.6z
				 M47.5,42H45c-0.2,0.1-0.4,0.3-0.7,0.4c0.5,0.3,1,0.8,1.3,1.1C46.4,43.1,47.1,42.6,47.5,42z M48.7,40.7l0.9,0.5
				c-1.6,3.4-5.3,4.6-9.6,5c-0.1-0.4-0.3-1-0.5-1.3c1.8-0.1,3.5-0.4,4.9-0.9c-0.3-0.3-0.8-0.7-1.2-1c-0.5,0.2-0.9,0.4-1.5,0.6
				c-0.2-0.3-0.5-0.8-0.8-1c2.3-0.7,3.9-1.8,4.7-2.9l1.5,0.3c-0.2,0.3-0.4,0.5-0.7,0.8h2L48.7,40.7z M60.8,41.9h1.9v-0.5h-1.9V41.9z
				 M60.8,40.1v0.5h1.9v-0.5H60.8z M66,40.1h-2v0.5h2V40.1z M66,41.9v-0.5h-2v0.5H66z M64,44.9h4.5v1.1H58.3v-1.1h4.4v-0.6h-3.5v-1
				h3.5v-0.5h-3.2v-3.6h3.2v-0.4h-4.3v-1h4.3v-0.5c-1.1,0-2.2,0.1-3.2,0.1c0-0.3-0.2-0.8-0.3-1c2.6-0.1,5.7-0.2,7.6-0.6l0.6,1
				c-1,0.2-2.2,0.3-3.4,0.4v0.6h4.4v1H64v0.4h3.3v3.6H64v0.5h3.8v1H64V44.9z M83.6,43.2h-2.7c-0.1,0.1-0.2,0.3-0.3,0.4
				c0.7,0.1,1.3,0.3,2,0.4C83,43.8,83.3,43.5,83.6,43.2z M79.2,39v1h1.2v-1H79.2z M81.6,37.3v0.6h1.3v-0.6H81.6z M85.5,39h-1.4v1
				h1.4V39z M81.6,40h1.3v-1h-1.3V40z M87.4,43.2h-2.2c-0.3,0.5-0.6,0.9-1,1.2c1.2,0.3,2.3,0.6,3.1,0.9l-1.2,0.9
				c-0.8-0.3-1.9-0.6-3.2-1c-1.3,0.6-3,0.9-5.2,1c-0.1-0.4-0.3-0.9-0.5-1.2c1.4-0.1,2.5-0.2,3.5-0.4c-0.7-0.1-1.5-0.3-2.2-0.4
				c0.3-0.3,0.6-0.7,0.9-1.1h-2.1v-1.1h2.9c0.2-0.3,0.4-0.7,0.6-1h-2.7v-3.2h2.4v-0.6h-3v-1.2h9.8v1.2h-3.1v0.6h2.7v3.2h-6l1.2,0.3
				c-0.1,0.2-0.2,0.5-0.4,0.8h2.7c0.1-0.2,0.2-0.4,0.2-0.6l1.3,0.3c0,0.1-0.1,0.2-0.1,0.3h1.7V43.2z"/>
		</g>
	</g>
</g>
</svg>
