<?xml version="1.0" encoding="utf-8"?>
<!-- Generator: Adobe Illustrator 25.3.1, SVG Export Plug-In . SVG Version: 6.00 Build 0)  -->
<svg version="1.1" id="圖層_1" xmlns="http://www.w3.org/2000/svg" xmlns:xlink="http://www.w3.org/1999/xlink" x="0px" y="0px"
	 viewBox="0 0 200 100" style="enable-background:new 0 0 200 100;" xml:space="preserve">
<style type="text/css">
	.st0{opacity:0.3;}
	.st1{fill:#FFC404;}
	.st2{opacity:0.3;enable-background:new    ;}
	.st3{fill:#FFA300;}
	.st4{fill:#DB0059;}
	.st5{fill:#6262B7;}
	.st6{fill:#474747;}
	.st7{fill:#FFFFFF;}
</style>
<g>
	<g class="st0">
		<path d="M173.1,11.8l0.2-4.6l-28.6-1l-0.3,8.7l-6.2,0.7V3.8h-28.8v15l-1.7,0.2L92.3,3.8L71.2,9.4l-3.7,13.9l-1.3,0.1L65.6,9.8
			c-0.1-3.1-2.7-5.4-5.8-5.3L34.2,5.6c-3.1,0.1-5.5,2.7-5.3,5.8l0.7,16.1l-12,1.3v9.5L30,37l0.1,1.5c0.1,3.1,2.7,5.4,5.8,5.3
			l25.5-1.1c3.1-0.1,5.5-2.7,5.3-5.8L66.6,33l1.5-0.2l13,12.9l21.1-5.7l3-11.3l4.2-0.5v18.2h28.8V25.2l5.8-0.6l-0.7,19.7l28.6,1
			l0.8-23.8l9.4-1V11L173.1,11.8z"/>
	</g>
	<g>
		<path class="st1" d="M180.5,18.7L16,36.8v-9.5l164.6-18v9.4H180.5z"/>
		<g>
			<path d="M13.3,37.1l-4.5,0.4l7.6-10.4l4.5-0.5L13.3,37.1z"/>
			<path d="M23.1,36l-4.5,0.5l7.6-10.4l4.5-0.5L23.1,36z"/>
			<path d="M33,34.9l-4.5,0.5L36.1,25l4.5-0.5L33,34.9z"/>
			<path d="M42.8,33.8l-4.5,0.5l7.6-10.4l4.5-0.5L42.8,33.8z"/>
			<path d="M52.6,32.7l-4.5,0.5l7.7-10.3l4.5-0.5L52.6,32.7z"/>
			<path d="M62.5,31.7L58,32.2l7.6-10.4l4.5-0.5L62.5,31.7z"/>
			<path d="M72.3,30.6l-4.5,0.5l7.6-10.4l4.5-0.5L72.3,30.6z"/>
			<path d="M82.1,29.5L77.7,30l7.6-10.4l4.5-0.5L82.1,29.5z"/>
			<path d="M91.9,28.4l-4.5,0.5L95,18.5l4.5-0.5L91.9,28.4z"/>
			<path d="M101.8,27.4l-4.5,0.5l7.6-10.4l4.5-0.5L101.8,27.4z"/>
			<path d="M111.6,26.3l-4.5,0.5l7.6-10.4l4.5-0.5L111.6,26.3z"/>
			<path d="M121.4,25.2l-4.5,0.5l7.6-10.4l4.5-0.5L121.4,25.2z"/>
			<path d="M131.3,24.1l-4.5,0.5l7.6-10.4l4.5-0.5L131.3,24.1z"/>
			<path d="M141.1,23.1l-4.5,0.5l7.6-10.4l4.5-0.5L141.1,23.1z"/>
			<path d="M150.9,22l-4.5,0.5l7.6-10.4l4.5-0.5L150.9,22z"/>
			<path d="M160.8,20.9l-4.5,0.5l7.6-10.4l4.5-0.5L160.8,20.9z"/>
			<path d="M170.6,19.8l-4.5,0.5l7.7-10.4l4.5-0.5L170.6,19.8z"/>
			<path d="M180.4,18.8l-4.5,0.5l7.6-10.4l4.5-0.5L180.4,18.8z"/>
		</g>
	</g>
	<path class="st2" d="M193.2,57.7L181.5,59l-7.4-7.3L153,57.4l-1.3,4.9l-2.2,0.2V51.6h-28.8v14l-4,0.4l-0.4-8.4
		c-0.1-3.1-2.7-5.4-5.8-5.3L85,53.4c-3.1,0.1-5.5,2.7-5.3,5.8L80.1,70l-1.5,0.2l0.8-2.9L66,53.9l-18.3,4.9l-3.9,14.6l-2-23.7
		l-11.1,0.9l-17.3,9.9l1.4,16.7l-5.2,0.6v10.7l6.1-0.7l0.8,10.1l29.1-2.4l-0.9-10.9l5.1-0.6l6.5,6.4l18.3-4.9l1.2-4.3l4.9-0.5
		l0.2,5.7c0.1,3.1,2.7,5.4,5.8,5.3l25.5-1.1c3.1-0.1,5.5-2.7,5.3-5.8l-0.4-8.1l3.5-0.4v18.1h28.8v-14l13.4,13.2l21.1-5.7l5.1-19.1
		l4.1-0.5L193.2,57.7L193.2,57.7z"/>
	<g>
		<path class="st1" d="M191.6,66.7L7.9,86.8V76.2L191.6,56V66.7z"/>
		<g>
			<path d="M5,87.1l-5,0.5L8.5,76l5-0.5L5,87.1z"/>
			<path d="M15.9,85.9l-5,0.5l8.5-11.6l5-0.5L15.9,85.9z"/>
			<path d="M26.9,84.7l-5,0.5l8.5-11.6l5-0.5L26.9,84.7z"/>
			<path d="M37.9,83.5l-5,0.5l8.5-11.6l5-0.5L37.9,83.5z"/>
			<path d="M48.9,82.3l-5,0.5l8.5-11.6l5-0.5L48.9,82.3z"/>
			<path d="M59.8,81.1l-5,0.5L63.3,70l5-0.5L59.8,81.1z"/>
			<path d="M70.8,79.9l-5,0.5l8.5-11.6l5-0.5L70.8,79.9z"/>
			<path d="M81.8,78.7l-5,0.5l8.5-11.6l5-0.5L81.8,78.7z"/>
			<path d="M92.7,77.5l-5,0.5l8.5-11.6l5-0.5L92.7,77.5z"/>
			<path d="M103.7,76.3l-5,0.5l8.5-11.6l5-0.5L103.7,76.3z"/>
			<path d="M114.7,75.1l-5,0.5l8.5-11.6l5-0.5L114.7,75.1z"/>
			<path d="M125.7,73.9l-5,0.5l8.5-11.6l5-0.5L125.7,73.9z"/>
			<path d="M136.6,72.7l-5,0.5l8.5-11.6l5-0.5L136.6,72.7z"/>
			<path d="M147.6,71.5l-5,0.5l8.5-11.6l5-0.5L147.6,71.5z"/>
			<path d="M158.6,70.3l-5,0.5l8.5-11.6l5-0.5L158.6,70.3z"/>
			<path d="M169.5,69.1l-5,0.5L173,58l5-0.5L169.5,69.1z"/>
			<path d="M180.5,67.9l-5,0.5l8.5-11.6l5-0.5L180.5,67.9z"/>
			<path d="M191.5,66.7l-5,0.5l8.5-11.6l5-0.5L191.5,66.7z"/>
		</g>
	</g>
	<g>
		<path class="st3" d="M43.9,93.8l-29,2.4l-3.1-37.3l17.3-9.8l11.1-0.9L43.9,93.8z"/>
	</g>
	<g>
		<path class="st4" d="M58.1,2.9L32.6,4c-3.1,0.1-5.5,2.7-5.3,5.8l1.2,27.1c0.1,3.1,2.7,5.4,5.8,5.3L59.8,41
			c3.1-0.1,5.5-2.7,5.3-5.8l-1.2-27C63.8,5.1,61.2,2.7,58.1,2.9z"/>
	</g>
	<g>
		<path class="st4" d="M108.9,50.7l-25.5,1.1c-3.1,0.1-5.5,2.7-5.3,5.8l1.2,27.1c0.1,3.1,2.7,5.4,5.8,5.3l25.5-1.1
			c3.1-0.1,5.5-2.7,5.3-5.8L114.7,56C114.6,53,112,50.6,108.9,50.7z"/>
	</g>
	<g>
		<path class="st5" d="M79.5,44.1L64,28.8l5.6-21l21.1-5.7l15.5,15.3l-5.6,21L79.5,44.1z"/>
	</g>
	<g>
		<path class="st5" d="M161.3,91.9l-15.5-15.3l5.6-21l21.1-5.7L188,65.2l-5.6,21L161.3,91.9z"/>
	</g>
	<g>
		<path class="st5" d="M54.6,88.8L41.1,75.5L46,57.3l18.3-4.9l13.5,13.2l-4.9,18.2L54.6,88.8z"/>
	</g>
	<g>
		<path class="st6" d="M136.6,2.2h-28.8V45h28.8V2.2z"/>
	</g>
	<g>
		<path class="st6" d="M147.9,50h-28.8v42.8h28.8V50z"/>
	</g>
	<g>
		<path class="st4" d="M171.6,5.6l-28.6-1l-1.3,38l28.6,1L171.6,5.6z"/>
	</g>
	<g class="st0">
		<path d="M41,21.8v1.4c0,0.8,0,1.6-0.1,2.5c0.6-0.4,1.3-0.9,2-1.5v-1.4l-0.6,0.5C42,22.9,41.5,22.3,41,21.8z M42.9,18.2h-2v2.2
			l0.6-0.4c0.4,0.4,1,0.9,1.4,1.3V18.2z M53.5,31h0.3c0.1,0,0.2,0,0.2-0.1c0.1-0.1,0.1-0.3,0.1-0.7c0-0.4,0.1-1.3,0.1-2.5
			c0.5,0.4,1.2,0.8,1.8,1c0,1-0.1,2.3-0.2,2.9c-0.1,0.6-0.3,0.9-0.7,1.2c-0.3,0.2-0.8,0.3-1.2,0.3h-1.1c-0.4,0-1-0.2-1.3-0.5
			c-0.4-0.4-0.5-0.8-0.5-2.5V18.3h-2.2V24c0,3-0.3,7.2-2.1,9.7c-0.4-0.4-1.4-1.1-1.9-1.4c-0.1,0.3-0.3,0.4-0.6,0.6
			c-0.6,0.4-1.4,0.4-2.7,0.4c-0.1-0.6-0.3-1.6-0.6-2.2c0.7,0,1.4,0,1.6,0c0.3,0,0.3-0.1,0.3-0.3v-4.5c-0.5,0.5-1,1-1.4,1.4l-0.6-1.2
			c-0.2,2.5-0.6,5.1-1.4,7c-0.4-0.3-1.4-0.9-1.9-1.1c1.2-2.6,1.3-6.5,1.3-9.4v-7h6.3v14.8c0,0.5,0,0.9-0.2,1.3
			c1.5-2.2,1.6-5.5,1.6-8.1v-7.9h6.7v14c0,0.5,0,0.8,0.1,0.8C53.3,31,53.4,31,53.5,31z M96.1,18.1v12.8c0,1.2-0.2,1.8-1,2.2
			c-0.7,0.4-1.8,0.4-3.4,0.4c-0.1-0.7-0.4-1.7-0.7-2.3h0.2c-0.8-0.8-2.1-1.9-3.3-2.9c-0.8,1.2-2,2.2-4,3c-0.3-0.5-0.9-1.3-1.3-1.7
			c3.3-1.2,4-3.3,4.4-5.3h2.4c-0.1,0.7-0.3,1.3-0.5,2c1.4,1,3.3,2.4,4.2,3.3l-1.6,1.5c0.8,0,1.6,0,1.9,0s0.4-0.1,0.4-0.4V20.4h-5
			c0,0.2-0.1,0.3-0.1,0.4c1.6,0.9,3.6,2.2,4.6,3.1l-1.5,1.8c-0.9-0.8-2.5-2-3.9-2.9c-0.8,1.3-2,2.3-3.8,3.1
			c-0.3-0.5-0.9-1.3-1.4-1.7c2.1-0.9,3.2-2.1,3.7-3.7h-4v13.1h-2.3V18.1h6.8c0.1-0.8,0.1-1.7,0.2-2.7h2.5c-0.1,1-0.1,1.8-0.2,2.7
			H96.1z M130.5,19.8h-3.7c-0.6,0.8-1.2,1.5-1.8,2.2l5-0.3c-0.3-0.4-0.6-0.8-0.9-1.2L130.5,19.8z M134.1,23.6l-1.9,1.2
			c-0.2-0.3-0.5-0.8-0.8-1.2c-7.2,0.5-8.2,0.6-9,0.9c-0.1-0.4-0.5-1.6-0.7-2.1c0.5-0.1,0.9-0.5,1.5-1.2c0.2-0.2,0.6-0.7,1-1.3h-2.5
			v-2.1h3.9c0.4-0.8,0.9-1.6,1.3-2.4l2.2,0.9c-0.3,0.5-0.6,1-0.9,1.6h5.5V20H131C132.1,21,133.4,22.6,134.1,23.6z M121.6,17.7
			l-1.4,1.8c-0.7-0.7-2.2-1.7-3.5-2.3l1.3-1.7C119.2,16.1,120.8,17,121.6,17.7z M120.9,22.8l-1.3,1.9c-0.8-0.7-2.3-1.6-3.6-2.1
			l1.2-1.8C118.4,21.4,120.1,22.2,120.9,22.8z M120,25.6l1.7,1.6c-1,2-2.2,4.2-3.4,6.1l-2-1.6C117.4,30.3,118.8,27.9,120,25.6z
			 M123.2,26.5v-1.8h2.1v1.9c0,2.2-0.3,4.9-2.9,6.8c-0.3-0.5-1.1-1.2-1.6-1.5C123,30.3,123.2,28.2,123.2,26.5z M126.5,32.7v-7.8h2
			v7.8H126.5z M132.1,31.3h0.7c0.3,0,0.7,0,0.9-0.1c0,0.5,0.1,1.3,0.2,1.7c-0.3,0.1-0.7,0.1-1.1,0.1h-1c-1.8,0-2.2-0.8-2.2-2.6v-5.7
			h2.1v5.7C131.9,31.1,131.9,31.3,132.1,31.3z M166.3,26.2h-6.7c1.4,2.6,3.7,4.4,7.3,5.1c-0.5,0.5-1.2,1.5-1.6,2.2
			c-3.8-1-6.1-3-7.7-6c-1.1,2.5-3.3,4.7-7.7,6c-0.3-0.5-1-1.6-1.5-2c4.1-1.2,6-3.1,7-5.3h-6.6v-2.3h7.3c0.1-0.8,0.2-1.6,0.2-2.3
			v-0.7h-3.7c-0.5,1-1,1.8-1.6,2.5c-0.5-0.4-1.6-1-2.2-1.2c1.4-1.5,2.5-4,3.1-6.5l2.4,0.5c-0.2,0.8-0.5,1.6-0.7,2.3h2.7v-3.1h2.4
			v3.1h6v2.3h-6v0.7c0,0.8,0,1.6-0.1,2.3h7.7L166.3,26.2L166.3,26.2z"/>
	</g>
	<g>
		<path class="st7" d="M39.3,20.1v1.4c0,0.8,0,1.6-0.1,2.5c0.6-0.4,1.3-0.9,2-1.5v-1.4l-0.6,0.5C40.4,21.3,39.9,20.7,39.3,20.1z
			 M41.3,16.6h-2v2.2l0.6-0.4c0.4,0.4,1,0.9,1.4,1.3V16.6z M51.9,29.4h0.3c0.1,0,0.2,0,0.2-0.1c0.1-0.1,0.1-0.3,0.1-0.7
			c0-0.4,0.1-1.3,0.1-2.5c0.5,0.4,1.2,0.8,1.8,1c0,1-0.1,2.3-0.2,2.9c-0.1,0.6-0.3,0.9-0.7,1.2c-0.3,0.2-0.8,0.3-1.2,0.3h-1.1
			c-0.4,0-1-0.2-1.3-0.5c-0.4-0.4-0.5-0.8-0.5-2.5V16.7h-2.1v5.7c0,3-0.3,7.2-2.1,9.7c-0.4-0.4-1.4-1.1-1.9-1.4
			c-0.1,0.3-0.3,0.4-0.6,0.6c-0.6,0.4-1.4,0.4-2.7,0.4c-0.1-0.6-0.3-1.6-0.6-2.2c0.7,0,1.4,0,1.6,0c0.3,0,0.3-0.1,0.3-0.3v-4.5
			c-0.5,0.5-1,1-1.4,1.4L39.2,25c-0.2,2.5-0.6,5.1-1.4,7c-0.4-0.3-1.4-0.9-1.9-1.1c1.2-2.6,1.3-6.5,1.3-9.4v-7h6.3v14.8
			c0,0.5,0,0.9-0.2,1.3c1.5-2.2,1.6-5.5,1.6-8.1v-7.9h6.7v14c0,0.5,0,0.8,0.1,0.8C51.7,29.4,51.8,29.4,51.9,29.4z M94.5,16.5v12.8
			c0,1.2-0.2,1.8-1,2.2c-0.7,0.4-1.8,0.4-3.4,0.4c-0.1-0.7-0.4-1.7-0.7-2.3h0.2c-0.8-0.8-2.1-1.9-3.3-2.9c-0.8,1.2-2,2.2-4,3
			C82,29.2,81.4,28.4,81,28c3.3-1.2,4-3.3,4.4-5.3h2.4c-0.1,0.7-0.3,1.3-0.5,2c1.4,1,3.3,2.4,4.2,3.3l-1.6,1.5c0.8,0,1.6,0,1.9,0
			s0.4-0.1,0.4-0.4V18.8h-5c0,0.2-0.1,0.3-0.1,0.4c1.6,0.9,3.6,2.2,4.6,3.1l-1.6,1.8c-0.9-0.8-2.5-2-3.9-2.9c-0.8,1.3-2,2.3-3.8,3.1
			c-0.3-0.5-0.9-1.3-1.4-1.7c2.1-0.9,3.2-2.1,3.7-3.7h-4V32h-2.3V16.5h6.8c0.1-0.8,0.1-1.7,0.2-2.7h2.5c-0.1,1-0.1,1.8-0.2,2.7H94.5
			z M128.9,18.2h-3.7c-0.6,0.8-1.2,1.5-1.8,2.2l5-0.3c-0.3-0.4-0.6-0.8-0.9-1.2L128.9,18.2z M132.5,22l-1.9,1.2
			c-0.2-0.3-0.5-0.8-0.8-1.2c-7.2,0.5-8.2,0.6-9,0.9c-0.1-0.4-0.5-1.6-0.7-2.1c0.5-0.1,0.9-0.5,1.5-1.2c0.2-0.2,0.6-0.7,1-1.3h-2.5
			v-2.1h3.9c0.4-0.8,0.9-1.6,1.3-2.4l2.2,0.9c-0.3,0.5-0.6,1-0.9,1.6h5.5v2.1h-2.7C130.4,19.4,131.8,21,132.5,22z M120,16.1
			l-1.4,1.8c-0.7-0.7-2.2-1.7-3.5-2.3l1.3-1.7C117.6,14.5,119.2,15.4,120,16.1z M119.2,21.2l-1.3,1.9c-0.8-0.7-2.3-1.6-3.6-2.1
			l1.2-1.8C116.8,19.7,118.4,20.6,119.2,21.2z M118.4,24l1.7,1.6c-1,2-2.2,4.2-3.4,6.1l-2-1.6C115.8,28.7,117.2,26.3,118.4,24z
			 M121.6,24.9v-1.8h2.1V25c0,2.2-0.3,4.9-2.9,6.8c-0.3-0.5-1.1-1.2-1.6-1.5C121.3,28.7,121.6,26.6,121.6,24.9z M124.8,31v-7.8h2V31
			H124.8z M130.5,29.7h0.7c0.3,0,0.7,0,0.9-0.1c0,0.5,0.1,1.3,0.2,1.7c-0.3,0.1-0.7,0.1-1.1,0.1h-1c-1.8,0-2.2-0.8-2.2-2.6v-5.7h2.1
			v5.7C130.3,29.5,130.3,29.7,130.5,29.7z M164.7,24.6H158c1.4,2.6,3.7,4.4,7.3,5.1c-0.5,0.5-1.2,1.5-1.6,2.2c-3.8-1-6.1-3-7.7-6
			c-1.1,2.5-3.3,4.7-7.7,6c-0.3-0.5-1-1.6-1.5-2c4.1-1.2,6-3.1,7-5.3h-6.6v-2.3h7.3c0.1-0.8,0.2-1.6,0.2-2.3v-0.7H151
			c-0.5,1-1,1.8-1.6,2.5c-0.5-0.4-1.6-1-2.2-1.2c1.4-1.5,2.5-4,3.1-6.5l2.4,0.5c-0.2,0.8-0.5,1.6-0.7,2.3h2.7v-3.1h2.4v3.1h6v2.3h-6
			v0.7c0,0.8,0,1.6-0.1,2.3h7.7L164.7,24.6L164.7,24.6z"/>
	</g>
	<g class="st0">
		<path d="M23.1,66.3v-1h-3.6v-1.9h3.6v-1.1h2.3v1.1h2.4v1.9h-2.4v1H23.1z M26.7,75.8v1h1.1v-1H26.7z M27.8,71.1h-1.1V72h1.1V71.1z
			 M29.2,73.4h-2.5v1.1h2.5V73.4z M32.9,66.1V67h1.7c-0.3-0.3-0.7-0.6-1-0.8l1.1-0.9h-1.5v0.8H32.9z M34.3,69.6l2.1,0.3
			c-0.5,2.5-1.3,4.6-2.3,6.5c0.4,1.3,0.8,2,1.2,2c0.3,0,0.5-0.6,0.6-2.4c0.4,0.4,1,0.8,1.5,1c-0.3,2.9-0.9,3.5-2.3,3.5
			c-0.9,0-1.7-0.7-2.3-2c-0.6,0.8-1.3,1.5-2.1,2.1c-0.3-0.4-1.2-1.1-1.7-1.4c0.3-0.2,0.7-0.5,1-0.8h-3.3l0,0h-1.6v-8.7h5.6v1.5h-1.4
			V72h1.5v3.8h-1.5v1h1.6v0.6c0.4-0.4,0.8-0.9,1.1-1.5c-0.5-1.9-0.8-4.2-1-7.1h-6.5v3.9c0,2.4-0.2,5.6-1.3,7.6
			c-0.4-0.3-1.2-0.8-1.7-0.9c0.7-1.3,1-2.9,1-4.5h-0.9v0.5c0,1.3-0.2,3.5-1.4,4.9c-0.3-0.3-0.9-0.7-1.3-0.9c1-1.2,1.1-2.9,1.1-4V75
			h-0.9v-1.9h3.5v-0.4V72h-2.7v-4.8h1.7v2.9h1V67h8.3v-1.1H31v-0.6h-2.5v-1.9H31v-1.1h2.3v1.1h3.5v1.9h-1.6c0.5,0.4,1.1,0.9,1.4,1.2
			L36,67h0.9v1.9h-4c0.1,1.6,0.2,3,0.4,4.2C33.8,72,34.1,70.8,34.3,69.6z M64.7,73.3v4.4h4.6v2.1H57.7v-2.1h4.7v-4.4h-3.9v-2.1h3.9
			V68h2.3v3.2h3.8v2.1C68.5,73.3,64.7,73.3,64.7,73.3z M59.9,64.9h9.4v2.2H59c-0.6,1.3-1.4,2.6-2.3,3.8v9.4h-2.3v-6.7
			c-0.5,0.5-1.1,0.9-1.7,1.4c-0.3-0.6-0.8-1.7-1.1-2.2c2-1.3,3.7-3.4,4.8-5.6h-4.2V65h5.2c0.3-0.9,0.6-1.8,0.9-2.7l2.4,0.6
			C60.4,63.5,60.2,64.2,59.9,64.9z M94.4,66.9l0.5,1.6c-1.6,0.9-3.3,1.9-4.7,2.6l-0.8-1.8C90.7,68.7,92.6,67.8,94.4,66.9z
			 M101.9,75.1V74h-8.3v1.1H101.9z M93.6,78h8.3v-1.1h-8.3V78z M105.3,63v6.2c0,1-0.2,1.4-0.8,1.7c-0.6,0.3-1.5,0.3-2.6,0.3
			c-0.1-0.6-0.3-1.3-0.5-1.8c0.6,0,1.3,0,1.5,0s0.3-0.1,0.3-0.3v-4.3h-3.8c0.9,0.4,2.1,0.9,2.7,1.2l-0.9,1.3l1.5-0.7l0.5,1.6
			c-1.6,0.9-3.2,1.8-4.7,2.6l0.5,0.1c-0.3,0.5-0.5,1-0.8,1.4h6.1v8.2h-2.4v-0.7h-8.3v0.7h-2.3v-8.2h4.6c0.2-0.4,0.3-0.9,0.4-1.2
			c-0.6,0.2-1.4,0.2-2.5,0.2c-0.1-0.6-0.3-1.3-0.5-1.8c0.6,0,1.3,0,1.5,0s0.3-0.1,0.3-0.3v-4.3h-3.8c0.9,0.4,2.1,0.9,2.7,1.2l-1,1.5
			c-0.6-0.4-2-1-2.9-1.5l0.9-1.2h-1.4V63h7.7v6.2c0,0.6-0.1,1-0.3,1.3l1.4,0.2L97.5,69c0.9-0.4,2.1-0.9,3.4-1.5
			c-0.7-0.4-1.9-1-2.8-1.4l0.9-1.2h-1.2V63H105.3z M127,71.6l-1.6-0.5c0.3-1.4,0.6-3.6,0.7-5.1l1.5,0.2
			C127.6,67.8,127.3,70.1,127,71.6z M134.1,75.1V76h6v-0.9H134.1z M134.1,72.9v0.9h6v-0.9H134.1z M134.1,70.7v0.9h6v-0.9H134.1z
			 M142.2,77.3h-1.7c1.2,0.6,2.4,1.3,3.2,1.8l-1.8,1.3c-0.8-0.6-2.3-1.6-3.6-2.2l0.9-0.8h-4.4l1.5,0.5c-1.1,1-2.9,2-4.5,2.5
			c-0.3-0.4-1.1-1.2-1.5-1.6c1.3-0.3,2.8-0.8,3.7-1.5h-1.8v-7.9h10.1L142.2,77.3L142.2,77.3z M138,67.3h2.3l0.1-0.9h-2.3
			C138,66.7,138,67,138,67.3z M134.1,66.4l-0.1,0.9h2.2c0-0.3,0.1-0.6,0.1-0.9H134.1z M136.5,64.2h-2.2l-0.1,0.9h2.2
			C136.5,64.8,136.5,64.5,136.5,64.2z M140.5,65.1l0.1-0.9h-2.3l-0.1,0.9H140.5z M142.5,64.9h1.2v1.8h-1.3l-0.1,2h-10.2l0.2-2h-0.9
			c0.3,1,0.6,1.9,0.7,2.6l-1.3,0.5c-0.1-0.8-0.4-1.9-0.7-3v13.6h-2.3V62.2h2.1v3.9l1-0.3v-1h1.5l0.2-2h10.1L142.5,64.9z M162.6,70.8
			l0.3,0.3c0.5-0.6,1-1.3,1.3-1.9l1.4,1.3c-0.6,0.6-1.2,1.1-1.7,1.6c0.6,0.6,1.1,1.2,1.4,1.5l-1.2,1.8c-0.3-0.5-0.9-1.4-1.5-2.2v7.1
			h-2.1v-6.9c-0.6,0.7-1.2,1.3-1.8,1.8c-0.2-0.6-0.7-1.9-1-2.3c1.7-1.2,3.4-3.2,4.4-5.3h-3.8v-2.1h3.1c-0.4-0.7-0.9-1.6-1.4-2.4
			l1.6-1c0.6,0.8,1.3,1.8,1.6,2.4l-1.3,0.9h1.4l0.4-0.1l1.1,0.9c-0.6,1.5-1.3,3-2.2,4.3V70.8z M167.7,70.5h1.6v-1.8h-1.6V70.5z
			 M167.7,65.1v1.8h1.6v-1.8H167.7z M173.2,66.9v-1.8h-1.7v1.8H173.2z M173.2,70.5v-1.8h-1.7v1.8H173.2z M171.5,77.9h4.6v2h-11v-2
			h4.3v-2h-3.6v-2h3.6v-1.5h-3.7v-9.2h9.7v9.2h-3.8v1.5h4v2h-4v2H171.5z"/>
	</g>
	<g>
		<path class="st7" d="M21.5,64.7v-1h-3.6v-1.9h3.6v-1.1h2.3v1.1h2.4v1.9h-2.4v1H21.5z M25.1,74.2v1h1.1v-1H25.1z M26.2,69.5h-1.1
			v0.9h1.1V69.5z M27.6,71.8h-2.5v1.1h2.5V71.8z M31.3,64.5v0.9H33c-0.3-0.3-0.7-0.6-1-0.8l1.1-0.9h-1.5v0.8H31.3z M32.7,68l2.1,0.3
			c-0.5,2.5-1.3,4.6-2.3,6.5c0.4,1.3,0.8,2,1.2,2c0.3,0,0.5-0.6,0.6-2.4c0.4,0.4,1,0.8,1.5,1c-0.3,2.9-0.9,3.5-2.3,3.5
			c-0.9,0-1.7-0.7-2.3-2c-0.6,0.8-1.3,1.5-2.1,2.1c-0.3-0.4-1.2-1.1-1.7-1.4c0.3-0.2,0.7-0.5,1-0.8h-3.3l0,0h-1.6V68h5.6v1.5h-1.4
			v0.9h1.5v3.8h-1.5v1h1.6v0.6c0.4-0.4,0.8-0.9,1.1-1.5c-0.5-1.9-0.8-4.2-1-7.1h-6.5v3.9c0,2.4-0.2,5.6-1.3,7.6
			c-0.4-0.3-1.2-0.8-1.7-0.9c0.7-1.3,1-2.9,1-4.5H20v0.5c0,1.3-0.2,3.5-1.4,4.9c-0.3-0.3-0.9-0.7-1.3-0.9c1-1.2,1.1-2.9,1.1-4v-0.4
			h-0.9v-1.9H21v-0.4v-0.8h-2.7v-4.8H20v2.9h1v-3.2h8.3v-1.1h0.1v-0.6h-2.5v-1.9h2.5v-1.1h2.3v1.1h3.5v1.9h-1.6
			c0.5,0.4,1.1,0.9,1.4,1.2l-0.6,0.4h0.9V67h-4c0.1,1.6,0.2,3,0.4,4.2C32.2,70.4,32.5,69.2,32.7,68z M63.1,71.7v4.4h4.6v2.1H56v-2.1
			h4.7v-4.4h-3.9v-2.1h3.9v-3.2H63v3.2h3.8v2.1H63.1z M58.3,63.3h9.4v2.2H57.3c-0.6,1.3-1.4,2.6-2.3,3.8v9.4h-2.3V72
			c-0.5,0.5-1.1,0.9-1.7,1.4c-0.3-0.6-0.8-1.7-1.1-2.2c2-1.3,3.7-3.4,4.8-5.6h-4.2v-2.2h5.2c0.3-0.9,0.6-1.8,0.9-2.7l2.4,0.6
			C58.8,61.9,58.5,62.6,58.3,63.3z M92.8,65.3l0.5,1.6c-1.6,0.9-3.3,1.9-4.7,2.6l-0.8-1.9C89,67.1,91,66.2,92.8,65.3z M100.3,73.5
			v-1.1H92v1.1H100.3z M92,76.4h8.3v-1.1H92V76.4z M103.7,61.4v6.2c0,1-0.2,1.4-0.8,1.7c-0.6,0.3-1.5,0.3-2.6,0.3
			c-0.1-0.6-0.3-1.3-0.5-1.8c0.6,0,1.3,0,1.5,0s0.3-0.1,0.3-0.3v-4.3h-3.8c0.9,0.4,2.1,0.9,2.7,1.2l-0.9,1.3l1.5-0.7l0.5,1.6
			c-1.6,0.9-3.2,1.8-4.7,2.6l0.5,0.1c-0.3,0.5-0.5,1-0.8,1.4h6.1v8.2h-2.4v-0.7H92v0.7h-2.3v-8.2h4.6c0.2-0.4,0.3-0.9,0.4-1.2
			c-0.6,0.2-1.4,0.2-2.5,0.2c-0.1-0.6-0.3-1.3-0.5-1.8c0.6,0,1.3,0,1.5,0s0.3-0.1,0.3-0.3v-4.3h-3.8c0.9,0.4,2.1,0.9,2.7,1.2l-1,1.5
			c-0.6-0.4-2-1-2.9-1.5l0.9-1.2H88v-1.9h7.7v6.2c0,0.6-0.1,1-0.3,1.3l1.4,0.2L96,67.4c0.9-0.4,2.1-0.9,3.4-1.5
			c-0.7-0.4-1.9-1-2.8-1.4l0.9-1.2h-1.2v-1.9L103.7,61.4L103.7,61.4z M125.4,70l-1.6-0.5c0.3-1.4,0.6-3.6,0.7-5.1l1.5,0.2
			C125.9,66.2,125.7,68.5,125.4,70z M132.5,73.4v0.9h6v-0.9H132.5z M132.5,71.3v0.9h6v-0.9H132.5z M132.5,69.1V70h6v-0.9H132.5z
			 M140.6,75.7h-1.8c1.2,0.6,2.4,1.3,3.2,1.8l-1.8,1.3c-0.8-0.6-2.3-1.6-3.6-2.2l0.9-0.8h-4.4l1.5,0.5c-1.1,1-2.9,2-4.5,2.5
			c-0.3-0.4-1.1-1.2-1.5-1.6c1.3-0.3,2.8-0.8,3.7-1.5h-1.8v-7.9h10.1L140.6,75.7L140.6,75.7z M136.3,65.7h2.3l0.1-0.9h-2.3
			C136.4,65.1,136.4,65.4,136.3,65.7z M132.5,64.8l-0.1,0.9h2.2c0-0.3,0.1-0.6,0.1-0.9H132.5z M134.9,62.6h-2.2l-0.1,0.9h2.2
			C134.8,63.2,134.9,62.9,134.9,62.6z M138.9,63.5l0.1-0.9h-2.3l-0.1,0.9H138.9z M140.9,63.2h1.2V65h-1.3l-0.1,2h-10.2l0.2-2h-0.9
			c0.3,1,0.6,1.9,0.7,2.6l-1.3,0.5c-0.1-0.8-0.4-1.9-0.7-3v13.6h-2.1V60.6h2.1v3.9l1-0.3v-1h1.5l0.2-2h10.1L140.9,63.2z M161,69.2
			l0.3,0.3c0.5-0.6,1-1.3,1.3-1.9l1.4,1.3c-0.6,0.6-1.2,1.1-1.7,1.6c0.6,0.6,1.1,1.2,1.4,1.5l-1.2,1.8c-0.3-0.5-0.9-1.4-1.5-2.2v7.1
			h-2.1v-6.9c-0.6,0.7-1.2,1.3-1.8,1.8c-0.2-0.6-0.7-1.9-1-2.3c1.7-1.2,3.4-3.2,4.4-5.3h-3.8v-2.1h3.1c-0.4-0.7-1-1.6-1.4-2.4l1.6-1
			c0.6,0.8,1.3,1.8,1.6,2.4l-1.3,0.9h1.4l0.4-0.1l1.1,0.9c-0.6,1.5-1.3,3-2.2,4.3V69.2z M166.1,68.8h1.6V67h-1.6V68.8z M166.1,63.5
			v1.8h1.6v-1.8C167.7,63.5,166.1,63.5,166.1,63.5z M171.6,65.2v-1.8h-1.7v1.8H171.6z M171.6,68.8V67h-1.7v1.8H171.6z M169.9,76.3
			h4.6v2h-11v-2h4.3v-2h-3.6v-2h3.6v-1.5h-3.7v-9.2h9.7v9.2H170v1.5h4v2h-4v2H169.9z"/>
	</g>
</g>
</svg>
