<?xml version="1.0" encoding="utf-8"?>
<!-- Generator: Adobe Illustrator 25.3.1, SVG Export Plug-In . SVG Version: 6.00 Build 0)  -->
<svg version="1.1" id="圖層_1" xmlns="http://www.w3.org/2000/svg" xmlns:xlink="http://www.w3.org/1999/xlink" x="0px" y="0px"
	 viewBox="0 0 550 100" style="enable-background:new 0 0 550 100;" xml:space="preserve">
<style type="text/css">
	.st0{clip-path:url(#SVGID_2_);}
	.st1{fill:#FFC404;}
	.st2{fill:#FFFFFF;filter:url(#Adobe_OpacityMaskFilter);}
	.st3{mask:url(#mask0_103_4965_2_);}
	.st4{fill:#FFA300;}
	.st5{fill:#474747;}
	.st6{fill:#A48082;}
	.st7{fill:#DB0059;}
	.st8{fill:#6262B7;}
	.st9{opacity:0.3;}
	.st10{fill:#FFFFFF;filter:url(#Adobe_OpacityMaskFilter_1_);}
	.st11{mask:url(#mask0_103_4965_1_);}
	.st12{fill:#FFFFFF;}
</style>
<g>
	<defs>
		<rect id="SVGID_1_" x="0.5" width="549" height="100"/>
	</defs>
	<clipPath id="SVGID_2_">
		<use xlink:href="#SVGID_1_"  style="overflow:visible;"/>
	</clipPath>
	<g class="st0">
		<g>
			<path class="st1" d="M530.9,41.9L10.4,85.3v-23L530.9,19V41.9z"/>
			<defs>
				<filter id="Adobe_OpacityMaskFilter" filterUnits="userSpaceOnUse" x="-12.1" y="17" width="566.9" height="70.1">
					<feColorMatrix  type="matrix" values="1 0 0 0 0  0 1 0 0 0  0 0 1 0 0  0 0 0 1 0"/>
				</filter>
			</defs>
			<mask maskUnits="userSpaceOnUse" x="-12.1" y="17" width="566.9" height="70.1" id="mask0_103_4965_2_">
				<path class="st2" d="M530.9,41.9L10.4,85.3v-23L530.9,19V41.9z"/>
			</mask>
			<g class="st3">
				<path d="M2,86l-14.1,1.2l24.1-25L26.2,61L2,86z"/>
				<path d="M33.1,83.4L19,84.5l24.1-25l14.1-1.2L33.1,83.4z"/>
				<path d="M64.2,80.8L50.1,82l24.1-25l14.1-1.2L64.2,80.8z"/>
				<path d="M95.3,78.2l-14.1,1.2l24.1-25l14.1-1.2L95.3,78.2z"/>
				<path d="M126.4,75.6l-14.1,1.2l24.1-25l14.1-1.2L126.4,75.6z"/>
				<path d="M157.5,73l-14.1,1.2l24.1-25l14.1-1.2L157.5,73z"/>
				<path d="M188.6,70.4l-14.1,1.2l24.1-25l14.1-1.2L188.6,70.4z"/>
				<path d="M219.7,67.8L205.6,69l24.1-25l14.1-1.2L219.7,67.8z"/>
				<path d="M250.8,65.2l-14.1,1.2l24.1-25l14.1-1.2L250.8,65.2z"/>
				<path d="M281.9,62.7l-14.1,1.2l24.1-25l14.1-1.2L281.9,62.7z"/>
				<path d="M313,60.1l-14.1,1.2l24.1-25l14.1-1.2L313,60.1z"/>
				<path d="M344.1,57.5L330,58.6l24.1-25l14.1-1.2L344.1,57.5z"/>
				<path d="M375.2,54.9l-14.1,1.2l24.1-25l14.1-1.2L375.2,54.9z"/>
				<path d="M406.3,52.3l-14.1,1.2l24.1-25l14.1-1.2L406.3,52.3z"/>
				<path d="M437.4,49.7l-14.1,1.2l24.1-25l14.1-1.2L437.4,49.7z"/>
				<path d="M468.5,47.1l-14.1,1.2l24.1-25l14.1-1.2L468.5,47.1z"/>
				<path d="M499.6,44.5l-14.1,1.2l24.1-25l14.1-1.2L499.6,44.5z"/>
				<path d="M530.7,41.9l-14.1,1.2l24.1-25l14.1-1.2L530.7,41.9z"/>
			</g>
		</g>
		<g>
			<path class="st4" d="M88.4,88.6l-57.7,4.8l-6.2-74.5L58.8-0.7l22-1.8L88.4,88.6z"/>
		</g>
		<g>
			<path class="st4" d="M514.5,90.2l-57.7,4.8l-6.2-71.5L485,3.8l22-1.8L514.5,90.2z"/>
		</g>
		<g>
			<path class="st5" d="M153.2,4.8l-56.8-2l-2.6,75.8l56.8,2L153.2,4.8z"/>
			<path class="st6" d="M167,86l-2.2-3.7c0,0.1,0,0.2,0,0.3C165.1,83.9,165.9,85.1,167,86z"/>
		</g>
		<g>
			<path class="st7" d="M221.4,7.1l-50.7,2.2c-6.1,0.3-10.8,5.4-10.6,11.5l2.4,54.1c0.3,6.1,5.4,10.8,11.5,10.6l50.7-2.2
				c6.1-0.3,10.8-5.4,10.6-11.5L233,17.7C232.7,11.6,227.5,6.8,221.4,7.1z"/>
		</g>
		<g>
			<path class="st8" d="M263.8,89.4L233,58.8L244.1,17L286,5.7l30.7,30.5l-11.1,41.9L263.8,89.4z"/>
		</g>
		<g>
			<path class="st5" d="M377.1,5.7h-57.2V91h57.2V5.7z"/>
		</g>
		<g>
			<path class="st7" d="M446.7,12.6l-56.8-2l-2.6,75.8l56.8,2L446.7,12.6z"/>
			<path class="st6" d="M460.5,90.7l-2.2-0.7c0,0.1,0,0.2,0,0.3C458.6,91.7,459.4,89.9,460.5,90.7z"/>
		</g>
		<g class="st9">
			<path d="M533.2,21.2l-22.4,1.9l-1.6-18.8l-22,1.8l-34.3,19.6l0.2,2.2l-4.6,0.4l0.5-13.4l-56.8-2L391.5,33l-12.1,1V7.9h-57.2v30.9
				l-3.3,0.3l0.2-0.6L288.3,7.9l-41.8,11.3l-7,26.5l-3,0.3l-1.1-26c-0.3-6.1-5.4-10.8-11.5-10.6l-50.7,2.2
				c-6.1,0.3-10.8,5.4-10.6,11.5l1.3,28.9l-9.9,0.8l1.6-45.7l-56.8-2l-1.8,52.4L88,58.3L83.1-0.3l-22,1.8L26.8,21.2l3.5,41.9
				l-17.6,1.5v23l19.4-1.6l0.8,9.8l57.7-4.8l-0.8-9.8l6.2-0.5l0,0.3l56.8,2l0.2-7l11.7-1l0.1,2.3c0.3,6.1,5.4,10.8,11.5,10.6
				l50.7-2.2c6.1-0.3,10.8-5.4,10.6-11.5l-0.2-5.2l5.2-0.4L266,91.7l41.8-11.3l4.7-17.8l9.5-0.8v31.5h57.2V57l11.3-0.9l-1.1,32.6
				l56.8,2l1.4-39.3l7.3-0.6l4.1,46.5l57.7-4.8l-4.1-46.5l20.6-1.7V21.2z"/>
			<path d="M167.1,84.8c0.3,1.4,1.1,2.6,2.2,3.4l-2.2-3.7C167.1,84.6,167.1,84.7,167.1,84.8z"/>
		</g>
		<g>
			<path class="st1" d="M530.9,41.9L10.4,85.3v-23L530.9,19V41.9z"/>
			<defs>
				<filter id="Adobe_OpacityMaskFilter_1_" filterUnits="userSpaceOnUse" x="-12.1" y="17" width="566.9" height="70.1">
					<feColorMatrix  type="matrix" values="1 0 0 0 0  0 1 0 0 0  0 0 1 0 0  0 0 0 1 0"/>
				</filter>
			</defs>
			<mask maskUnits="userSpaceOnUse" x="-12.1" y="17" width="566.9" height="70.1" id="mask0_103_4965_1_">
				<path class="st10" d="M530.9,41.9L10.4,85.3v-23L530.9,19V41.9z"/>
			</mask>
			<g class="st11">
				<path d="M2,86l-14.1,1.2l24.1-25L26.2,61L2,86z"/>
				<path d="M33.1,83.4L19,84.5l24.1-25l14.1-1.2L33.1,83.4z"/>
				<path d="M64.2,80.8L50.1,82l24.1-25l14.1-1.2L64.2,80.8z"/>
				<path d="M95.3,78.2l-14.1,1.2l24.1-25l14.1-1.2L95.3,78.2z"/>
				<path d="M126.4,75.6l-14.1,1.2l24.1-25l14.1-1.2L126.4,75.6z"/>
				<path d="M157.5,73l-14.1,1.2l24.1-25l14.1-1.2L157.5,73z"/>
				<path d="M188.6,70.4l-14.1,1.2l24.1-25l14.1-1.2L188.6,70.4z"/>
				<path d="M219.7,67.8L205.6,69l24.1-25l14.1-1.2L219.7,67.8z"/>
				<path d="M250.8,65.2l-14.1,1.2l24.1-25l14.1-1.2L250.8,65.2z"/>
				<path d="M281.9,62.7l-14.1,1.2l24.1-25l14.1-1.2L281.9,62.7z"/>
				<path d="M313,60.1l-14.1,1.2l24.1-25l14.1-1.2L313,60.1z"/>
				<path d="M344.1,57.5L330,58.6l24.1-25l14.1-1.2L344.1,57.5z"/>
				<path d="M375.2,54.9l-14.1,1.2l24.1-25l14.1-1.2L375.2,54.9z"/>
				<path d="M406.3,52.3l-14.1,1.2l24.1-25l14.1-1.2L406.3,52.3z"/>
				<path d="M437.4,49.7l-14.1,1.2l24.1-25l14.1-1.2L437.4,49.7z"/>
				<path d="M468.5,47.1l-14.1,1.2l24.1-25l14.1-1.2L468.5,47.1z"/>
				<path d="M499.6,44.5l-14.1,1.2l24.1-25l14.1-1.2L499.6,44.5z"/>
				<path d="M530.7,41.9l-14.1,1.2l24.1-25l14.1-1.2L530.7,41.9z"/>
			</g>
		</g>
		<g>
			<path class="st4" d="M88.4,88.6l-57.7,4.8l-6.2-74.5L58.8-0.7l22-1.8L88.4,88.6z"/>
		</g>
		<g>
			<path class="st4" d="M514.5,90.2l-57.7,4.8l-6.2-71.5L485,3.8l22-1.8L514.5,90.2z"/>
		</g>
		<g>
			<path class="st5" d="M153.2,4.8l-56.8-2l-2.6,75.8l56.8,2L153.2,4.8z"/>
			<path class="st6" d="M167,86l-2.2-3.7c0,0.1,0,0.2,0,0.3C165.1,83.9,165.9,85.1,167,86z"/>
		</g>
		<g>
			<path class="st7" d="M221.4,7.1l-50.7,2.2c-6.1,0.3-10.8,5.4-10.6,11.5l2.4,54.1c0.3,6.1,5.4,10.8,11.5,10.6l50.7-2.2
				c6.1-0.3,10.8-5.4,10.6-11.5L233,17.7C232.7,11.6,227.5,6.8,221.4,7.1z"/>
		</g>
		<g>
			<path class="st8" d="M263.8,89.4L233,58.8L244.1,17L286,5.7l30.7,30.5l-11.1,41.9L263.8,89.4z"/>
		</g>
		<g>
			<path class="st5" d="M377.1,5.7h-57.2V91h57.2V5.7z"/>
		</g>
		<g>
			<path class="st7" d="M446.7,12.6l-56.8-2l-2.6,75.8l56.8,2L446.7,12.6z"/>
			<path class="st6" d="M460.5,90.7l-2.2-0.7c0,0.1,0,0.2,0,0.3C458.6,91.7,459.4,89.9,460.5,90.7z"/>
		</g>
		<g class="st9">
			<path d="M71.7,38.9v-1.7h-1.9v1.7H71.7z M71.7,43.3v-1.7h-1.9v1.7H71.7z M60.9,41.6v1.7h1.9v-1.7H60.9z M60.9,37.3v1.7h1.9v-1.7
				H60.9z M67.1,41.6h-1.7v1.7h1.7V41.6z M65.4,38.9h1.7v-1.7h-1.7V38.9z M75,34.4v11.7H57.7V34.4H62v-2.6h3.3v2.6h1.6v-2.6h3.4v2.6
				H75z M75.7,47.3v3.1H57.2v-3.1H75.7z M47.6,53.5v1.1c0,1.1,0,2.1-0.1,3.3c1.2-0.5,2.7-1.2,4.4-2v-1.6l-1.5,1.6
				C49.8,55.3,48.6,54.3,47.6,53.5z M47,36v7.3h1.4v-5.8H52V36H47z M50.6,43.3H52v-3.4h-1.3V43.3z M53.8,47.7v-1.5h-8.3v1.5H53.8z
				 M47.6,50.5v2.1l1.2-1.2c1.1,0.7,2.2,1.5,3,2.2v-3H47.6z M57,48.9h-1.6V62c0,1.6-0.3,2.4-1.3,3c-0.9,0.5-2.3,0.6-4.2,0.6
				c-0.1-0.9-0.5-2.3-1-3.2c1,0,2.1,0,2.4,0c0.4,0,0.5-0.1,0.5-0.5v-3.3c-1.2,0.8-2.4,1.6-3.5,2.3l-0.9-2c-0.3,2.5-0.9,5.1-2.2,7
				c-0.6-0.6-2.2-1.7-3-2.1c1.8-2.7,1.9-6.4,1.9-9.3v-5.6h-1.8v-5.6h1.4V32.9h11.8v10.4H57V48.9z M68.9,58.7h-5.4
				c0.4,1.1,0.9,2.3,1.2,3.3h2.9C68.1,61,68.6,59.7,68.9,58.7z M62.3,54.2v1.9h7.9v-1.9H62.3z M71.3,62.1H76v3.1H56.8v-3.1h4.3
				c-0.3-0.9-0.7-1.9-1-2.7l2.3-0.7h-3.9v-7.1h15.7v7.1h-4.1l2.8,0.8C72.3,60.4,71.8,61.3,71.3,62.1z M126.4,53.3l-3.4,1.2
				c0-0.5-0.2-1.1-0.3-1.8c-7.8,1.2-9.1,1.4-10,1.9c-0.2-0.8-0.9-2.8-1.4-3.9c1-0.2,1.8-1,3-2.3c0.5-0.5,1.4-1.5,2.4-2.9
				c-2.9,0.3-3.8,0.5-4.3,0.8c-0.2-0.8-0.8-2.6-1.3-3.7c0.8-0.2,1.4-0.9,2.2-2c0.8-1,3.2-5.1,4.7-8.9l3.8,1.6
				c-1.4,3-3.3,6.1-5.2,8.7l2.7-0.2c0.9-1.5,1.9-3.1,2.7-4.7l3.6,2.3c-2.2,3.7-5,7.5-7.8,10.6l4.1-0.5c-0.3-0.9-0.6-1.9-0.9-2.7
				l3.2-1C125,48.1,126,51.3,126.4,53.3z M112.7,55.7l3.5,0.6c-0.2,3.2-0.8,6.7-1.6,8.9c-0.8-0.4-2.5-1-3.4-1.2
				C112.1,61.9,112.5,58.6,112.7,55.7z M117.2,56.2l3.3-0.7c0.5,2.5,0.9,5.7,1,7.9l-3.5,0.7C118,62,117.6,58.7,117.2,56.2z
				 M121.5,55.4l3.1-1c0.7,1.8,1.4,4.1,1.7,5.7l-3.3,1.2C122.8,59.7,122.1,57.3,121.5,55.4z M131.2,55.8v5.5l7.6,0v-5.5H131.2z
				 M138.8,37.6h-7.6v5.2h7.6V37.6z M138.8,52v-5.3h-7.6V52H138.8z M142.9,61.3h2.3v3.9h-20.7v-3.9h2.8V33.7h15.6V61.3z M208,43.4
				l4.3,1.1c-1.5,4.7-3.6,8.9-6.3,12.5c1.1,2.6,2.2,4.1,3.4,4.1c0.9,0,1.3-1.8,1.5-6.4c1,1,2.5,2,3.7,2.4c-0.7,6.7-2.1,8.3-5.5,8.3
				c-2.5,0-4.5-1.8-6.1-4.8c-1.9,1.9-3.9,3.6-6.1,4.9c-0.7-0.9-2.2-2.7-3.1-3.6c2.8-1.5,5.3-3.5,7.4-5.9c-1.2-4.1-2-9.2-2.5-14.7
				H188v3.9h9c0,0,0,1.1,0,1.6c-0.1,7.6-0.3,10.9-1.2,11.9c-0.7,0.9-1.4,1.3-2.5,1.5c-0.9,0.1-2.5,0.1-4.2,0.1
				c-0.1-1.3-0.5-2.9-1.2-4c1.3,0.1,2.5,0.1,3.1,0.1c0.5,0,0.8-0.1,1.1-0.4c0.4-0.5,0.5-2.3,0.6-6.8H188c-0.1,5.3-0.9,12.4-3.9,16.8
				c-0.8-0.8-2.7-2.4-3.7-2.9c2.8-4.4,3-10.7,3-15.4V37.2h14.8c-0.1-1.8-0.1-3.6-0.1-5.4h4.5c0,1.8,0,3.6,0.1,5.4h5.6
				c-1.3-1.1-3.2-2.3-4.7-3.2l2.6-2.6c2,1,4.7,2.7,5.9,3.9l-1.7,1.9h3.8v4.3H203c0.3,3.6,0.8,7.1,1.5,10
				C205.9,49,207.1,46.4,208,43.4z M274.4,37.8v3.4h-15.3v-3.4h6.3c-0.5-1.4-1.5-3.2-2.3-4.6l3.4-1.6c1,1.5,2.1,3.5,2.7,4.8
				l-2.4,1.3H274.4z M272.9,46.1h-12.2v-3.3h12.2V46.1z M272.8,47.7V51h-12.1v-3.3H272.8z M269.2,56.2h-4.7v4.1h4.7V56.2z M273,52.8
				v11h-8.5v1.5h-3.6V52.8H273z M291.9,43.9v4.3h-6.7v17.6h-4.5V48.1h-6.4v-4.3h6.4V32.5h4.5v11.4H291.9z M348.5,39.1h-3
				c-1.6,3.1-3.6,5.7-5.6,7.7c-0.7-0.8-2.5-2.3-3.6-3c3.3-2.8,6.1-7.3,7.5-12.1l4.4,1c-0.3,0.9-0.6,1.8-0.9,2.7h21.2v3.7h-15.5v2.1
				h13.5v3.4h-13.5v2.2h14.4v3.5h-14.4V52c1.8,1.4,4.2,3.2,5.4,4.3l-2.8,3c-1.2-1.3-4-3.6-5.9-5.1l1.3-1.2h-2.3V39.1z M340.2,64.4
				l-4.1-1.9c1.2-2.4,2.5-5.8,3.2-8.6l3.8,1.5C342.4,58.2,341.3,62,340.2,64.4z M369.9,62.9l-4.4,1.4c-0.4-1.2-1.1-3-1.8-4.8
				c-0.5,4.5-1.9,5.7-5.9,5.7h-7.2c-5.2,0-6.5-1.2-6.5-5.1v-5.7h4.3v5.6c0,1.1,0.4,1.3,2.6,1.3h6.5c1.7,0,2.1-0.5,2.3-3.4
				c0.9,0.7,2.7,1.3,3.9,1.5c-0.7-1.6-1.4-3.3-2-4.8l4.1-1.1C367.2,56.6,369,60.5,369.9,62.9z M436.8,49.5h0.5c0.4,0,1.1,0,1.4-0.1
				c0,0.5,0.1,1.2,0.1,1.8c-0.3,0.1-0.9,0.1-1.5,0.1h-1.3c-1.9,0-2.2-0.8-2.2-2.7V45h2.4v3.7C436.4,49.3,436.4,49.5,436.8,49.5z
				 M433,51.6h-3.2v-7.7h-4.4v-3.2h4.4V39h3.2v1.7h5.2v3.2H433V51.6z M438.4,38.2h-26.7v6.3c0,5.9-0.5,15.3-3.2,21.2
				c-0.7-0.8-2.6-2.1-3.5-2.5c2.4-5.4,2.5-13.2,2.5-18.6v-10h13.6c-0.2-0.8-0.4-1.6-0.6-2.2l4.4-0.8c0.4,0.9,0.7,2,1,3h12.4V38.2z
				 M420,51.5h-3.2v-7.6h-4v-3.2h4V39h3.2v1.7h4.4v3.2H420V51.5z M415.8,45v1.5c0,1.9-0.3,4.1-1.9,5.6c-0.4-0.5-1.5-1.3-2.1-1.7
				c1.4-1,1.6-2.8,1.6-4.1V45H415.8z M429.3,58l3.1-1.5c1.9,2.1,4.5,5.2,5.9,7.1l-3.3,1.7c-0.4-0.5-0.8-1.2-1.3-1.9
				c-17.1,1.2-19.1,1.3-20.5,1.7c-0.1-0.7-0.7-2.5-1-3.5c1.2-0.2,2.5-0.7,4.3-1.6c0.8-0.3,2.3-1.1,4.1-2.1c-4.7,0.3-5.5,0.5-6.1,0.7
				c-0.1-0.7-0.6-2.3-1-3.2c0.7-0.1,1.5-0.4,2.4-0.9c0.9-0.5,3.9-2.1,6.1-4.1c-0.8-0.3-1-1.1-1-2.3v-3.1h2.3v3.1
				c0,0.5,0,0.7,0.4,0.7c0.3,0,0.8,0,1.2-0.1c0,0.4,0,0.7,0.1,1.1c1.2-1,1.5-2.5,1.5-3.7V45h2.4v1.5c0,1.7-0.3,3.9-1.9,5.3
				c-0.4-0.5-1.3-1.2-1.9-1.6l0,0.4c-0.3,0.1-0.8,0.1-1.3,0.1H423h0l2.2,1.4c-1.8,1.3-3.8,2.6-5.7,3.6l5.4-0.3
				c1.7-1.1,3.3-2.2,4.8-3.4l3.2,2.1c-3.8,2.7-7.8,5.1-11.7,6.9l10.2-0.7C430.7,59.7,429.9,58.8,429.3,58z M485.7,51.1h7.7v-4.5
				h-7.7V51.1z M474.4,51.1h6.9v-4.5h-6.8v0.7C474.5,48.4,474.4,49.7,474.4,51.1z M481.3,38.4h-6.8v4.2h6.8V38.4z M493.3,42.6v-4.2
				h-7.7v4.2H493.3z M497.6,34.2v26.4c0,2.3-0.5,3.5-2,4.1c-1.5,0.7-3.7,0.8-7,0.8c-0.1-1.2-0.8-3-1.4-4.1c2,0.1,4.4,0.1,5.1,0.1
				c0.7,0,0.9-0.2,0.9-0.9v-5.5h-7.7v10.1h-4.4V55.2h-7.4c-0.7,4-2,8-4.6,10.8c-0.7-0.8-2.4-2.3-3.4-2.8c4-4.4,4.3-10.8,4.3-15.9
				v-13H497.6z"/>
		</g>
		<g>
			<path class="st12" d="M69.4,36.7V35h-1.9v1.7H69.4z M69.4,41v-1.7h-1.9V41H69.4z M58.6,39.3V41h1.9v-1.7H58.6z M58.6,35v1.7h1.9
				V35H58.6z M64.8,39.3h-1.7V41h1.7V39.3z M63.1,36.7h1.7V35h-1.7V36.7z M72.7,32.2v11.7H55.4V32.2h4.3v-2.6h3.3v2.6h1.6v-2.6H68
				v2.6H72.7z M73.4,45.1v3.1H54.9v-3.1H73.4z M45.3,51.2v1.1c0,1.1,0,2.1-0.1,3.3c1.2-0.5,2.7-1.2,4.4-2V52l-1.5,1.6
				C47.5,53,46.4,52,45.3,51.2z M44.8,33.7V41h1.4v-5.8h3.5v-1.5H44.8z M48.4,41h1.3v-3.4h-1.3V41z M51.5,45.4v-1.5h-8.3v1.5H51.5z
				 M45.3,48.2v2.1l1.2-1.2c1.1,0.7,2.2,1.5,3,2.2v-3H45.3z M54.8,46.6h-1.6v13.1c0,1.6-0.3,2.4-1.3,3c-0.9,0.5-2.3,0.6-4.2,0.6
				c-0.1-0.9-0.5-2.3-1-3.2c1,0,2.1,0,2.4,0c0.4,0,0.5-0.1,0.5-0.5v-3.3c-1.2,0.8-2.4,1.6-3.5,2.3l-0.9-2c-0.3,2.5-0.9,5.1-2.2,7
				c-0.6-0.6-2.2-1.7-3-2.1c1.8-2.7,1.9-6.4,1.9-9.3v-5.6H40V41h1.4V30.7h11.8V41h1.5V46.6z M66.6,56.4h-5.4
				c0.4,1.1,0.9,2.3,1.2,3.3h2.9C65.9,58.7,66.3,57.5,66.6,56.4z M60,52v1.9h7.9V52H60z M69,59.8h4.7v3.1H54.5v-3.1h4.3
				c-0.3-0.9-0.7-1.9-1-2.7l2.3-0.7h-3.9v-7.1h15.7v7.1h-4.1l2.8,0.8C70,58.1,69.5,59,69,59.8z M124.1,51l-3.4,1.2
				c0-0.5-0.2-1.1-0.3-1.8c-7.8,1.2-9.1,1.4-10,1.9c-0.2-0.8-0.9-2.8-1.4-3.9c1-0.2,1.8-1,3-2.3c0.5-0.5,1.4-1.5,2.4-2.9
				c-2.9,0.3-3.8,0.5-4.3,0.8c-0.2-0.8-0.8-2.6-1.3-3.7c0.8-0.2,1.4-0.9,2.2-2c0.8-1,3.2-5.1,4.7-8.9l3.8,1.6
				c-1.4,3-3.3,6.1-5.2,8.7l2.7-0.2c0.9-1.5,1.9-3.1,2.7-4.7l3.6,2.3c-2.2,3.7-5,7.5-7.8,10.6l4.1-0.5c-0.3-0.9-0.6-1.9-0.9-2.7
				l3.2-1C122.7,45.9,123.7,49.1,124.1,51z M110.5,53.4L114,54c-0.2,3.2-0.8,6.7-1.6,8.9c-0.8-0.4-2.5-1-3.4-1.2
				C109.8,59.6,110.2,56.3,110.5,53.4z M115,53.9l3.3-0.7c0.5,2.5,0.9,5.7,1,7.9l-3.5,0.7C115.8,59.7,115.4,56.4,115,53.9z
				 M119.2,53.2l3.1-1c0.7,1.8,1.4,4.1,1.7,5.7l-3.3,1.2C120.5,57.5,119.8,55,119.2,53.2z M129,53.5V59l7.6,0v-5.5H129z M136.5,35.3
				H129v5.2h7.6V35.3z M136.5,49.7v-5.3H129v5.3H136.5z M140.6,59h2.3v3.9h-20.7V59h2.8V31.4h15.6V59z M205.7,41.1l4.3,1.1
				c-1.5,4.7-3.6,8.9-6.3,12.5c1.1,2.6,2.2,4.1,3.4,4.1c0.9,0,1.3-1.8,1.5-6.4c1,1,2.5,2,3.7,2.4c-0.7,6.7-2.1,8.3-5.5,8.3
				c-2.5,0-4.5-1.8-6.1-4.8c-1.9,1.9-3.9,3.6-6.1,4.9c-0.7-0.9-2.2-2.7-3.1-3.6c2.8-1.5,5.3-3.5,7.4-5.9c-1.2-4.1-2-9.2-2.5-14.7
				h-10.5v3.9h9c0,0,0,1.1,0,1.6c-0.1,7.6-0.3,10.9-1.2,11.9c-0.7,0.9-1.4,1.3-2.5,1.5c-0.9,0.1-2.5,0.1-4.2,0.1
				c-0.1-1.3-0.5-2.9-1.2-4c1.3,0.1,2.5,0.1,3.1,0.1c0.5,0,0.8-0.1,1.1-0.4c0.4-0.5,0.5-2.3,0.6-6.8h-4.7
				c-0.1,5.3-0.9,12.4-3.9,16.8c-0.8-0.8-2.7-2.4-3.7-2.9c2.8-4.4,3-10.7,3-15.4V35H196c-0.1-1.8-0.1-3.6-0.1-5.4h4.5
				c0,1.8,0,3.6,0.1,5.4h5.6c-1.3-1.1-3.2-2.3-4.7-3.2l2.6-2.6c2,1,4.7,2.7,5.9,3.9l-1.7,1.9h3.8v4.3h-11.2c0.3,3.6,0.8,7.1,1.5,10
				C203.6,46.8,204.8,44.1,205.7,41.1z M272.2,35.5V39h-15.3v-3.4h6.3c-0.5-1.4-1.5-3.2-2.3-4.6l3.4-1.6c1,1.5,2.1,3.5,2.7,4.8
				l-2.4,1.3H272.2z M270.6,43.9h-12.2v-3.3h12.2V43.9z M270.6,45.5v3.3h-12.1v-3.3H270.6z M267,53.9h-4.7V58h4.7V53.9z M270.7,50.5
				v11h-8.5V63h-3.6V50.5H270.7z M289.6,41.6v4.3h-6.7v17.6h-4.5V45.9H272v-4.3h6.4V30.2h4.5v11.4H289.6z M346.2,36.8h-3
				c-1.6,3.1-3.6,5.7-5.6,7.7c-0.7-0.8-2.5-2.3-3.6-3c3.3-2.8,6.1-7.3,7.5-12.1l4.4,1c-0.3,0.9-0.6,1.8-0.9,2.7h21.2v3.7h-15.5v2.1
				H364v3.4h-13.5v2.2H365V48h-14.4v1.7c1.8,1.4,4.2,3.2,5.4,4.3l-2.8,3c-1.2-1.3-4-3.6-5.9-5.1l1.3-1.2h-2.3V36.8z M337.9,62.2
				l-4.1-1.9c1.2-2.4,2.5-5.8,3.2-8.6l3.8,1.5C340.1,56,339,59.7,337.9,62.2z M367.6,60.7l-4.4,1.4c-0.4-1.2-1.1-3-1.8-4.8
				c-0.5,4.5-1.9,5.7-5.9,5.7h-7.2c-5.2,0-6.5-1.2-6.5-5.1v-5.7h4.3v5.6c0,1.1,0.4,1.3,2.6,1.3h6.5c1.7,0,2.1-0.5,2.3-3.4
				c0.9,0.7,2.7,1.3,3.9,1.5c-0.7-1.6-1.4-3.3-2-4.8l4.1-1.1C364.9,54.3,366.8,58.2,367.6,60.7z M434.6,47.2h0.5
				c0.4,0,1.1,0,1.4-0.1c0,0.5,0.1,1.2,0.1,1.8c-0.3,0.1-0.9,0.1-1.5,0.1h-1.3c-1.9,0-2.2-0.8-2.2-2.7v-3.6h2.4v3.7
				C434.1,47,434.1,47.2,434.6,47.2z M430.7,49.3h-3.2v-7.7h-4.4v-3.2h4.4v-1.7h3.2v1.7h5.2v3.2h-5.2V49.3z M436.1,36h-26.7v6.3
				c0,5.9-0.5,15.3-3.2,21.2c-0.7-0.8-2.6-2.1-3.5-2.5c2.4-5.4,2.5-13.2,2.5-18.6v-10H419c-0.2-0.8-0.4-1.6-0.6-2.2l4.4-0.8
				c0.4,0.9,0.7,2,1,3h12.4V36z M417.8,49.2h-3.2v-7.6h-4v-3.2h4v-1.7h3.2v1.7h4.4v3.2h-4.4V49.2z M413.5,42.8v1.5
				c0,1.9-0.3,4.1-1.9,5.6c-0.4-0.5-1.5-1.3-2.1-1.7c1.4-1,1.6-2.8,1.6-4.1v-1.4H413.5z M427,55.8l3.1-1.5c1.9,2.1,4.5,5.2,5.9,7.1
				l-3.3,1.7c-0.4-0.5-0.8-1.2-1.3-1.9c-17.1,1.2-19.1,1.3-20.5,1.7c-0.1-0.7-0.7-2.5-1-3.5c1.2-0.2,2.5-0.7,4.3-1.6
				c0.8-0.3,2.3-1.1,4.1-2.1c-4.7,0.3-5.5,0.5-6.1,0.7c-0.1-0.7-0.6-2.3-1-3.2c0.7-0.1,1.5-0.4,2.4-0.9c0.9-0.5,3.9-2.1,6.1-4.1
				c-0.8-0.3-1-1.1-1-2.3v-3.1h2.3V46c0,0.5,0,0.7,0.4,0.7c0.3,0,0.8,0,1.2-0.1c0,0.4,0,0.7,0.1,1.1c1.2-1,1.5-2.5,1.5-3.7v-1.4h2.4
				v1.5c0,1.7-0.3,3.9-1.9,5.3c-0.4-0.5-1.3-1.2-1.9-1.6l0,0.4c-0.3,0.1-0.8,0.1-1.3,0.1h-0.7h0l2.2,1.4c-1.8,1.3-3.8,2.6-5.7,3.6
				l5.4-0.3c1.7-1.1,3.3-2.2,4.8-3.4l3.2,2.1c-3.8,2.7-7.8,5.1-11.7,6.9l10.2-0.7C428.4,57.4,427.7,56.5,427,55.8z M483.4,48.8h7.7
				v-4.5h-7.7V48.8z M472.1,48.8h6.9v-4.5h-6.8V45C472.2,46.2,472.2,47.5,472.1,48.8z M479,36.1h-6.8v4.2h6.8V36.1z M491.1,40.3
				v-4.2h-7.7v4.2H491.1z M495.4,32v26.4c0,2.3-0.5,3.5-2,4.1c-1.5,0.7-3.7,0.8-7,0.8c-0.1-1.2-0.8-3-1.4-4.1c2,0.1,4.4,0.1,5.1,0.1
				c0.7,0,0.9-0.2,0.9-0.9v-5.5h-7.7V63H479V52.9h-7.4c-0.7,4-2,8-4.6,10.8c-0.7-0.8-2.4-2.3-3.4-2.8c4-4.4,4.3-10.8,4.3-15.9V32
				H495.4z"/>
		</g>
	</g>
</g>
</svg>
