<?xml version="1.0" encoding="utf-8"?>
<!-- Generator: Adobe Illustrator 22.0.1, SVG Export Plug-In . SVG Version: 6.00 Build 0)  -->
<svg version="1.1" id="圖層_1" xmlns="http://www.w3.org/2000/svg" xmlns:xlink="http://www.w3.org/1999/xlink" x="0px" y="0px"
	 viewBox="0 0 300 20" style="enable-background:new 0 0 300 20;" xml:space="preserve">
<style type="text/css">
	.st0{fill:#D4FFA2;}
</style>
<title>頁面一</title>
<g id="_x31_f5c5784-ee9e-416b-8a44-dc5851bf78ad">
	<path class="st0" d="M299.3,6.1c0.5-1-0.1-0.3-0.7-0.2L299.3,6.1z"/>
	<path class="st0" d="M298.6,5.9l-0.5-0.1C298.3,5.9,298.5,5.9,298.6,5.9z"/>
	<path class="st0" d="M294,5.2c1.1-0.8,2.3,0.3,3-0.9C296,3.6,294.3,3.9,294,5.2z"/>
	<polygon class="st0" points="295.6,6 295.8,5.3 294.9,6.3 	"/>
	<polygon class="st0" points="296.3,6.6 296.2,6.3 294.7,7 	"/>
	<path class="st0" d="M290.5,4.7l1-0.2c1,0.9-0.6,1.2,0,1.8c1.3,0,0.5-1.9,2.1-1.6c-0.1-0.8-2.6,0-2.4-1.3
		C289.9,3,291.2,4.2,290.5,4.7z"/>
	<path class="st0" d="M227,12.9c0,0-0.1-0.1-0.1-0.1C226.9,12.9,227,13,227,12.9z"/>
	<path class="st0" d="M209.6,14.2c-0.2-0.1-0.5-0.2-0.7-0.3c0.1,0.1,0.2,0.3,0.3,0.4L209.6,14.2z"/>
	<path class="st0" d="M237.8,10.2c0.2,0.1,0.5,0.2,0.7,0.3C238.4,10.3,238.1,10.2,237.8,10.2z"/>
	<path class="st0" d="M126.8,8.1c0-0.1,0.1-0.3,0.1-0.4l0,0L126.8,8.1L126.8,8.1z"/>
	<path class="st0" d="M190.1,16.7c-0.3,0-0.5,0.1-0.8,0.2C189.8,16.9,190,16.9,190.1,16.7z"/>
	<path class="st0" d="M244.1,10h-0.3c0.1,0.1,0.2,0.1,0.3,0.1L244.1,10L244.1,10z"/>
	<path class="st0" d="M215.3,15.9c-0.2-0.1-0.4-0.1-0.6-0.1C214.9,15.9,215.1,15.9,215.3,15.9z"/>
	<path class="st0" d="M274.3,3.4c-0.3-0.1-0.6-0.1-0.8,0.1C273.7,3.7,274,3.8,274.3,3.4z"/>
	<path class="st0" d="M268,3.6L268,3.6C268,3.5,268,3.5,268,3.6z"/>
	<path class="st0" d="M264.1,3.6L264.1,3.6C264.1,3.4,264.1,3.4,264.1,3.6z"/>
	<path class="st0" d="M273.5,3.5c-0.5-0.5-0.7-2.2-1.3-0.3l0.1,0.3c-0.4-0.4-1,0.3-1.5,0.4c0,0.2,0.1,0.3,0.2,0.4
		c0.3,0,0.7,0.1,1,0.2C272.6,4.8,273,3.9,273.5,3.5z"/>
	<path class="st0" d="M227,12.6C227.1,12.9,227.5,12.7,227,12.6z"/>
	<path class="st0" d="M232.4,11.1l-0.5-0.1C232,11.1,232.2,11.1,232.4,11.1z"/>
	<path class="st0" d="M252.6,11.2l-0.1-0.1C252.5,11.3,252.6,11.3,252.6,11.2z"/>
	<path class="st0" d="M231.4,11c0.2,0,0.3,0,0.5,0C231.7,10.9,231.5,10.9,231.4,11z"/>
	<path class="st0" d="M246.5,10.3L246.5,10.3C246.5,10.3,246.5,10.3,246.5,10.3z"/>
	<path class="st0" d="M43.3,4.9c0.4-0.2,0.7,0.3,1,0.4c0.8-1.3-1.8,0-0.6-1.1c-0.4,0-0.7,0.2-1,0.4l0.6,1.1
		C44.2,5.2,42.9,5.3,43.3,4.9z"/>
	<path class="st0" d="M121.6,5.8l0.2,0.1c-0.1-0.5,0-0.7-0.7-0.9c-0.5,0.8,0.4,2-0.6,2.9c0.2-0.1,0.5-0.1,0.8,0
		C121,7.2,121.1,6.4,121.6,5.8z"/>
	<path class="st0" d="M121.3,7.9C121.3,7.9,121.3,7.9,121.3,7.9c0,0.2,0.1,0.3,0.2,0.3c0.1,0,0.3,0,0.4,0.1
		C121.7,8.2,121.5,8,121.3,7.9z"/>
	<path class="st0" d="M56.9,4.9L57.3,5C57.1,4.8,57,4.8,56.9,4.9z"/>
	<path class="st0" d="M191.1,2c0.2-0.1,0.4-0.2,0.5-0.4C191.4,1.7,191.2,1.8,191.1,2z"/>
	<path class="st0" d="M131.3,6.7c0.2,0.1,0.3,0.1,0.5,0.2c0.1,0,0.2,0,0.3-0.1L131.3,6.7z"/>
	<path class="st0" d="M99.6,18.8c0.3-1.3-0.3,0.1-1-0.6L98,18.8C98.5,19,99.1,18.9,99.6,18.8z"/>
	<path class="st0" d="M42.8,4.5v0.1l0,0V4.5z"/>
	<path class="st0" d="M80.8,19.6l-0.3-0.2C80.6,19.6,80.7,19.6,80.8,19.6z"/>
	<path class="st0" d="M125.1,8.4h2.4L126.8,8C126.4,8.7,125.4,7.6,125.1,8.4z"/>
	<path class="st0" d="M109.9,19.2l0.2,0.8c2.4-1.8,5.2,0.6,7-1.9c3,2.7,1.8-2.6,4.6-0.1l-0.1-0.4c8.9,0.2,18.3,1.4,26.5-0.1V18
		c13.4,0.6,26.3-0.9,39.5-0.8c1.2-0.5,0.4-1.8,1.5-2.4c0.5,0,1.5-0.1,1.5,0.6c-0.9,0.4-0.4,1-0.7,1.3c1.5-0.1,3.4,0.6,4.7-0.2
		l-1.1-0.9c0.5-0.4,1.3-0.1,1.8-0.1c-0.2,0.5,0.5,1.4,0.1,1.6c2.7-2.3,2.2,0.9,4.5,0c0.4-1.9,3.3-3.5,5.3-4.9l1,0.5
		c-1.4,0,0.1,1.4-1.6,1.3c1.4,0.5,2.7-0.3,4,0c-0.3-0.4-0.2-1,0.2-1.3c0,0,0.1,0,0.1-0.1c0.8,0.3,0.9,1.2,1.8,1.3l-0.9,0.6
		c0.6,0.7,1.1-0.3,1.7-0.4c0.2,0.8,1.6,0.9,1.4,1.8c1.2-1.1,1.7-0.5,3-1.2c-1.4-0.8,0.3-1.1,0.2-1.7l-1.6,0.3
		c2.2,0.5-0.7,0.2-0.5,1.5c-1.1-0.6,1.4-2.3-0.4-2c2.1-0.7,2.5-0.1,4.7-1.3c-1.3,0.3,0.2-0.9-0.5-1.3c1.6-0.1,0.4,0.5,0.9,1.3
		c0.9-0.1,1.2,0.7,2-0.3c1.5,0.4-0.2,1,0.6,1.6c-0.5,0.9-4.1-1.1-3.6,1.9c-0.8,0-1.6,1.2-2.7,1.2c1,0.4,2.3,1.3,3.5,0.6v-1.7
		c0.9-0.1,1.1-1.2,1.7-1.1c-0.3,0.5,0.3,1.2,1,1c-0.2-0.2-0.5-0.2-0.4-0.5c1.3-0.1,1.5-1.3,3.1-1.6c-1.3-0.4-1.6-0.9-2.8-1.6
		c0.3-1.2,0.9-0.2,1.6-0.4c-0.1,0.2-0.3,0.2,0,0.4l0.8-0.6c1.6,0.5-0.2,1.7,1.2,2.2c1,1,1.3-0.6,2,0l-0.1-0.3c0.1,0,0.2,0,0.4,0.1
		c0,0,0,0,0-0.1c0.9-0.2,1.8-0.1,2-1c0.1,0.4,0.8-0.1,1-0.4c0.5-0.4,1.6-1.4,2.4,0h-0.1c1.1,0.1,1.9,0.6,1.7,1.1l1.7,0.3l-0.2,1.1
		c1.6-0.3,1.4-1,2.5-2.2c1.1,0.6,3.1,0.1,3.9-0.4c0.2,0,0.4,0,0.6,0l-0.7-0.4c1.2,0,1.1-0.6,1.9-0.6c-0.2-0.1-0.2-0.2,0.3,0
		c0.1,0,0.3,0,0.5,0.1c0,0.1-0.2,0.1-0.4,0.1l0.2,0.4c1,1.2,1.5-0.7,2.6-0.3c-0.1,0.1-0.2,0.1-0.4,0.1c0.6,0.3,1.5,1.9,1.7,0.9
		c0.1,0.1,0.3-0.1,0.5-0.3l0.4,0.2c-0.1,0-0.3-0.1-0.4-0.2c0.3-0.3,0.5-0.8,0.6-0.5l1.5,0.2c0.3,0.1,0.7,0.1,1-0.1L252,11
		c0.6-0.1,0.6,0.2,0.5,0.3c1.9,1.6,3-0.9,5,0.5c0.4-0.8-0.5-1.1-0.5-1.6c0.3-0.6,1.5-1.2,2.1-1.6c0.9,1.1,3.8,2,3.4,3.6
		c1.7,0.1-0.5-1,0.3-1.5l0.2,0.1c-0.6-0.2-1.1-0.7-1.4-1.3c-0.1-0.8,1.4-1.1,1.8-0.9L263,9.7c1.6-0.4,1.2-2.3,2.2-3.5
		c1.3,0.5,0.6,1.6,0.8,2.6l1.3-0.3v0.9c0.9-0.3,1-1.1,2.2-0.8c-0.8,0.9,1.8,0.8,0.6,2c0.7,0.3,0.8-1.5,1.2-0.3
		c0.4-1-0.6-0.5-0.9-0.8c-0.3-1.4,1.4-0.7,2.2-1.1c0.1,0.7-0.5,0.9,0.4,1.3c0.2-0.6,0.8-1,1.3-0.3c0-0.9,1-0.2,1.6-0.1
		c-0.6-0.2-1.5-0.8-1.1-1.6c0.6-0.5,1.4-0.8,2.1-0.6l-0.7-0.4c0.9-1.3,1.5,0.9,2.8,0.5c-0.5,0.6-0.9,0.6-1.3,1.2
		c0.8-0.6,1.7-1.1,2.6-1.5l1.1,1.3c0.1-0.7,1.2,0,1.2-0.9c1.3,0.6-1,1.1-1.2,1.8c1.6,0.6,1.3-1.5,2.9-0.2l-0.5,0.9
		c0.5,0.1,1.6-0.4,1.6,0c0-0.3-0.3-0.2-0.6-0.2c0.3-1.8,2.4-1.3,2.2-3.2l-0.7-0.1c1.1-0.4,1.9-1.7,2.8-1c0.7,0.6-0.5,1.3-0.8,1.8
		c1,0.1,0.8-2.1,2.1-1.9c-0.7-0.3-0.5-1-0.1-1.5c-0.7-0.1-2.3-0.5-2,0.3l0.3,0.2c-0.1,0.5-0.5,0.7-0.6,0.9c-1,0-0.5-0.8-0.7-1.2
		c-1.6-0.3-0.1,1.9-1.6,1.8l-0.2-0.4c-0.7,0.5-1.8,0.6-2,1.7c-0.7-1.2-1.7,0.5-2.4-0.2c-0.2-2.7,2.6,0.2,3.4-1.3
		c-0.8-0.5,0.4-1.3,0.8-1.9l-2.5,1.2c-0.2-0.4-0.9-1.7-1.4-0.7l0.2,0.1c-1,0.3-0.7,1.4-1.6,1c-0.1-0.2,0.1-0.7,0.2-0.8
		c-0.8-0.2-0.6,0.6-1.2,0.9c-0.8-0.2,0.4-1.1-0.3-1.4c-0.9,1-1.5-0.2-2.3-0.2c0.4,1.5-3.1,2.1-1.4,3.4L273,8.4
		c-0.6-0.8,1.3-2.1,0.7-3.4h1.5c-0.3-1.9-3.2,1.3-4.2-0.8c-0.8-0.1-0.6,0.2-2.2-0.7l0.3,1.7c-0.6-0.3-1-0.9-1.1-1.6
		c-0.4,0.1-0.9,0.1-1.3,0c0.1-0.3,0.3-0.5,0.5-0.6c-0.6-0.9-0.8-0.6-1-0.1s-0.8,0.4-1.3,0.4l0.4-0.6c-0.3,0.2-0.7,0.3-0.7,0.6
		c-0.2,0-0.4,0.1-0.6,0.2c0.2,0.7,0.6,1.3,1.2,1.7c-1.9-0.6-3.3-0.3-4.9-1.6c0-0.5,0.7-1.1,0.5-1.2c-0.7-0.1-1.4,0.4-1.5,1.1
		c0,0.1,0,0.2,0,0.2c-0.1,0-0.3,0.1-0.4,0.1c-0.2-0.4-0.4-0.9-0.7-0.9c-0.1-0.2-0.3-0.3-0.5-0.3c-0.2,1.3-1.8,0.7-2.1,1.3
		C256,4,256.5,4,256.9,4c-0.6,0.9-1.2,1.9-1.7,1.2c1.2-0.9-1.3-1.4,0.5-1.8c-1.3-1.7-0.6,1.2-2,0.7l-0.9-0.7c0.1-1,1.4-0.5,1.2-0.9
		l-0.6,0.1c0.6-0.7,2.8-0.3,4.2-1.4l-2.8-0.4C251.4,2,247,0.8,244,3h0.1c-0.1,0.2-0.1,0.4-0.1,0.6l-0.1-0.2l-0.6,0.7
		c-0.7-0.9-1.9-1-3-1.8C241,3,241,3,241.1,3.7c-0.1,1-0.2,1.4-1.2,1c0-0.7,0.6-0.7-0.1-1.2c0.4,0.3,0,0.8-0.4,0.9
		c-0.6-0.4-1.5-0.5-1.5-1.2c0.3-0.2,0.5,0,0.6,0.1c0.3-0.2-1.1-0.6-0.3-1.2l-1,0.2c-0.6-0.6,0.4-0.9,0.1-1.3c-1.7,0.5-2.5,2.1-4,2.6
		c0-0.5,0-1,0-1.5c-1.2-0.4-2.5,1.7-3.8,1.9c0.2-0.5,0.7-0.3,1.1-0.5c-4.1-0.5-7.4-0.5-11.3-1.9l-0.9,1.6l-1-1
		c-4-0.9-7.1,0.2-10.9,0.7c-1.2,0.1-0.7-1.1-1.3-1.5c-2.6-0.1-3.2,1.7-5.7,2.1c0.3-0.5,0.9-1.9-0.2-1.9c-0.2,0.5-0.3,1.2-1,0.9
		l0.3-0.5c-0.6-0.7-1.2,0-2.5-0.3c-2.4,0.2-4.6,1.3-6.2,3c-2-0.1,0.2-1.7-0.2-2c1.4,0.5,1-0.3,1.3-0.8c-0.7,0.5-1.6,0.8-2-0.4
		c-0.9,0-1.8,0.3-2.5,0.8c0.5-0.4,1,0.2,0.5,0.7c-0.9-0.4-3,0.1-2.9-1.3c-4.9,0.4-10.4,0.2-15.7,0.4c-0.9,0.8,0.7,0.3,0.2,0.8
		c-1.3,1-1-0.5-2,0.3l0.4-0.8c-1.5-0.1-3.1,1.4-4.6,2.1c0.2-0.9-1.3-0.7,0-1.3c-0.7,0.2-1.7-3.7-2.3-2.9l0.9,3.5
		c0,0.4-1.1,0.2-0.9,0.4c-0.6-0.7-1.4-1.5-1.9-1.5c-0.2-0.9,0.9-0.8,1.5-0.7c0.1-1.5-2.1-0.9-1.2-2.4c-1.3,0.3,0.2,0.8-0.6,1.4
		l-1.1-0.3l0.9,0.5c-0.9,0.5-1.2,1.7-2.5,0.8L153.8,4c-0.2-1.2-1-0.2-1.6-0.5l0.4-0.8c-0.7,0.1-1.3-0.1-1.8-0.6
		c0.5-1.1,0.8,0.2,1-0.8l-1-0.3c0,0.7-0.6,1.3,0.1,1.6C150,4,149.6,5.1,147.3,5c-1.1-1.2,1.1-1.1,0.6-2.2c-2.4-0.4-2.8,3.1-4.2,3
		c-1.8-0.4-1.6,0.7-3.4,0.8c0.6-0.8-1.3-0.8-1.6-1.6l0.7-0.8c-0.5,0.3-1.1,0-0.9-0.6c0.1,1.1-2.3,1.1-3.5,1.6l0.2,0.9
		c-1,0.3-2.3,1-3.3,0.8c-1.5,0.3-1.1,1.2-2.3,2.2c-0.6-0.8-0.7-1.9-0.4-2.8c0.4,0.5,1.1,0.2,1.8,0.4c1.9-0.8,3.4-2.8,5.3-2.5
		c0.8-2.3-1.3,0.3-2.2-0.5c0-0.1,0.1-0.2,0.2-0.2c-0.1,0-0.2,0-0.2-0.1c0.7-0.3,1.8-0.7,2-1.8c-1.1,0.3-0.8,2.3-2.2,1.3
		c-1,0.6-2-1.1-2.6-1.2c-0.7,0.8-0.7,2.7-2.4,2.4l0.7-1.3c-2,0-0.9,1.9-2.7,1.9c0.7,0.1-0.6,1.3,0.6,1.3c-0.8,0.7-1.9,0.9-2.9,0.5
		c-0.3,0.2,0,0.4-0.1,0.9c1.1,0.8,1.7-0.9,2.7,0.3l0.7-1.4c0.7,0.2,1.1,0.9,0.9,1.6c-0.1,0.2-0.2,0.4-0.3,0.5c0.3-0.1,0.5-0.3,0.8,0
		c0.2,2-1.2-0.7-1.6,1.1l0.7-0.2c0.4,1.3-1.7,1.2-2.6,1.1c-1.1-0.6-2-0.8-2.1-1.7l1.4-0.5c-0.8-0.7-1.8,0.5-2.6,0.5
		c0-0.1-0.1-0.2-0.2-0.3c0,0.1,0.1,0.2,0.1,0.3c-0.2-0.1-0.4-0.2-0.5-0.4c-0.7,0-1.8,0.6-2.4,0.3l0.1,0.9l0.1-0.5
		c0.7,0,1.6,0.5,1.1,1.2c-1.5,0.6-1.8-1-2.2-1.7c0.3-1.3,1.4,0,2.2-0.5c-0.5-1.3-1.5-0.1-3.1-0.9c0.6-1.4,1.8,0,2.1-1.3
		c-1.3-0.2-1.5,0.8-2.8,0.5c0.1-0.7,1.4-0.8,1.3-1.6l-0.8-0.4c2-0.2-0.4-1.8,1.2-2.2c-0.8-0.6-1,1.2-2.1,0.3
		c0.3,0.6,1.2,1.7,0.2,2.3L115,4.2c-0.5-0.7,1.2-1.5,0.4-2.1l-1.2,0.5c0,0.4,0.6,0.6,0.3,1.2c-0.7-0.4-1.1,1.7-1.9,2.3
		c-0.7,0-1.2-0.1-1.4-0.6c-1.6,1.3-3.7,1.3-5.2,2.6c1-0.9-0.1-1.5-0.7-2.1c1.2-0.2,1.2-1.6,1-2.4c-0.8,0.3-1.1,1.2-0.8,2
		c-1.2-0.5-0.8,1-1.9,0.1c-0.7-0.4,0.3-1.3,0.1-1.8c-1.3,0-0.3,1.6-1.8,1.4c0.1-0.2,0.2-0.2,0.1-0.5c-0.8-0.2-1.5,0.3-1.7,1.1
		c-0.9-1.7-2.3,0.3-2.2-1.4c-1.9,0.5,0.3,0.9,0,1.5c-0.8,0.8-2.2,0.2-2.6-0.1c0.5,0,0.9-0.5,1.3-0.3l-0.4-1.2
		c-2.4-0.8-1.4,2.7-3.7,1.8c1.1-0.6,0.4-0.9,0.9-1.7c-0.3,0.3-2.1,0-1,0.9c-0.7-0.1-1.4-0.2-2-0.5c-0.8,0.4-1.5,0.9-2,1.6
		c-1-0.2-2-0.6-2.7-1.4c-2.5,0.9-4.8-0.4-7.4,0.6l0.2,0.1c-2-0.2,1,1.5-1.2,1.6c0.2-1.4-1.3-0.9-2-1.7c-2.6-0.7-4.4,1.2-6.9,0.3
		c0-0.4,0.2-0.7,0.6-0.7c-1.8-0.4-3.3,0-5-0.1l0.1-0.2c-2.7-1.1-5,0.4-7.7,0.9c0.2-0.2,0.3-0.7,0.4-0.9c-1.4-0.3-3.6-0.4-4.5,0.9
		c-1.7-1.4-1.1,0.5-3.2-0.8c-0.1-0.2,0.2-0.2,0.3-0.3c-0.9-0.3-1.9-0.4-2.8-0.4c-2.3,1-2.8,2.9-5.5,2.4c-0.2-1.9,1.6-0.6,1.6-2.1
		c-0.5,0.4-1,0.8-1.7,0.3c0.4-0.8,0.1-0.5,0.4-1.2c-0.6-0.5-2.2,2.1-2.2,1.9c0,0.4,0.2,0.6,0.7,0.5C39.4,7.4,37.3,6.4,36,7
		c0.4,0,1.8,0.3,1.3,1.3c-1.8-0.3-2.3,1.6-3.4,2.4c-1.6-0.8,1.1-1.7,0.8-3c-0.3-0.5-1-1.6-0.3-2.1c-1.5-0.2-2.5,1-3.7,1.3V6.5
		c-1.8,0.2-3.6,2-5.2,1.3l0.8,0.4c-0.3,0.3-1.2,0.2-1.7,1c0-0.6-1.2-1.2-0.7-1.7c-0.7,2.1-4,1.4-4.8,3.4c-0.5-0.5-0.2-1.4,0-1.8
		c1.1,0.1,1.5,0.5,2.1-0.3c-0.9,0.1-1.6-0.4-1.5-0.9c-0.9,1.3-3.1,1.9-3.5,3.2c-0.7-0.6-1.4-0.9-1.2-2c-2.9,0.8,1.6,3.2-1.7,3.4
		c-1.5-1,1.4-1.5-0.7-1.7l0.4-0.2c-1.6-2.7-0.9,2-2.6,2c-0.3-1.5,1.1-1.1-0.1-2.1c-1.5,0.4-2.1,2.6-3.6,2.3L6.8,12
		c-1,0.2-2.9,0-3.9,0.1c-0.1-0.3,0.1-0.3,0.3-0.4c-1.9-0.5-0.7,0.8-2.3-0.1l-0.4,0.8c0.8,0.5,2.3,1.1,3.2,0.2
		c-0.9,0.9,1.6,1.8,1.2,3.1L5,15.2c2.6,2.1,5.7,2.2,8.9,2.8c1.9-1.6,3.4,0.5,5.4-0.7c0.2-1.8,0.4-0.4,2.2-0.8c-1,0.3,0,1.3,0.6,1.5
		c0.3-0.4,0.7-0.7,1.2-0.8c0.4,0.6,2.7,1.9,3.5,0.7c1.1,0.5-0.2,0.6-0.5,1c0.5,0.9,0.9-0.8,1.3-0.2c0,0.1-0.1,0.2-0.1,0.3
		c1.5,0,3,0.1,4.5,0.4c0.1-1.7,1.7-0.7,2.5-1.4c-0.2,0.6,1,0.6,1.5,0.9l0.9-1.3c0.9-1.1,1.3,0.7,2.5,0.1L39,17.4
		c0.9-0.5,3.2,0.4,4.1,1.3c8-3.7,12.6,1.4,21.2,0.2c0.5-0.5-0.4-0.9,0-1.6c0.6-0.1,1.2-0.2,1.7-0.2c-0.7-0.4-0.6,0.1-0.5-0.4
		l-1.2,0.5c-0.1-0.1,0.1-0.2,0-0.4c-0.4,0.3-0.9,0.4-1.4,0.5c0.7-0.5,0.9-1.8,1.9-1.3c-0.1,0.2-0.2,0.2-0.5,0.3
		c0.8,0.1,0.9-0.5,1.5-0.2c0.6,0.3,0.6-0.1,0.7,0.4l2.4,0.6c1.2-1.6,2.7-0.2,3.1,0c-0.2,1.1-1.6,0.4-2.1,1.5l0.9,0.8v-0.9l1.3,0.2
		L72,18.9c0.1-0.4,0.3-0.7,0.6-0.4c0.1,0.1,0.2,0.4,0,0.4l0.9-0.5c-0.5,1,0.8,0.3,0.7,1.4c2.9,0.5,3.6-1.6,6.2-0.2
		C80,19,81.2,17.8,82,17.9c0.5,0.3,0.6,0.5,0.3,0.9l1-0.6c1.3,1.6,2.6,0.5,4.4,1l-0.1,0.5c0.6-0.7,1.5-1,2.5-0.9l-0.2,1
		c1.3,0.6,0.9-2,2.3-1.5c0-1-0.9-1.5-1.1-2.5c0.4,1,1.9,1.1,1.5,0.4c1.4-0.5,1,0,1.1,0.3l0.8-0.7c1,0,0.4,1.3,0,1.9
		c0.9-1.1,1.9-0.4,3-0.2L97.2,18l1.4,0.1c0.9-0.8,2.2-1,3.3-0.5l-0.7,1.4c0.8,0.7,0.4-0.5,0.6-0.7c1.3-0.7,1.6,0.2,2.3,1
		C106.1,17.7,108.2,21.3,109.9,19.2z M252.1,10.5l-0.2-0.2C252.4,10.1,252.6,9.9,252.1,10.5z M240.8,10.4c1.4-0.6,0.9,0.1,1,0.5
		c-1.4-0.3-2.1,0.1-3.3-0.3c0.2,0.3,0.3,0.6,0.3,0.9c-0.6-0.1-1-0.5-1.1-1C238.3,9,241.4,11.1,240.8,10.4L240.8,10.4z M266.2,3.2
		c0,0.1-0.1,0.2-0.2,0.3l0,0L266.2,3.2z M259.5,4.5c-0.1-0.2-0.2-0.4-0.5-0.5C259.1,4.3,259.2,4.6,259.5,4.5z M246,3.1
		c-0.3-0.6-1-0.4-1.5-0.2C245,3,245.5,3.1,246,3.1z M161.1,5.6c0.4-0.2,1.1-0.8,0.4-1.2c-0.3,0.5-1-0.3-1.3,0.4c0,0,0,0-0.1-0.1
		C160.5,5.1,160.7,5.4,161.1,5.6L161.1,5.6z M121.3,11.3c0.1-0.6,0.3-1.2,0.1-1.6h0.1c-0.1-0.2-0.2-0.3-0.1-0.5
		c-0.3-0.1-0.7-0.2-0.9,0C120.5,11.1,119.8,11.4,121.3,11.3L121.3,11.3z"/>
	<path class="st0" d="M134.4,3.5c-0.1,0-0.3,0-0.4,0.1C134.2,3.5,134.3,3.5,134.4,3.5z"/>
	<path class="st0" d="M120.6,9.2c0,0.1,0.4,0.3,0.8,0.5C121.2,9.4,120.9,9.2,120.6,9.2z"/>
	<path class="st0" d="M288.3,9.1l-0.4,0.2l0.8,0.5c1.3-0.6,1.4-1.4,1.7-2.3c-1.2,0.9-1.9,0.4-3.4,0.7L288.3,9.1z"/>
	<path class="st0" d="M287.6,3.1c-0.1-0.2-0.5-0.8-0.7-0.9l-0.2,0.6L287.6,3.1z"/>
	<path class="st0" d="M271.9,0.6l1.3,0.5C273.5,0.6,272-0.3,271.9,0.6z"/>
	<path class="st0" d="M277.5,10.1l0.6-0.6c-0.6-0.5-1.4-0.4-1.5,0.3C277.5,9.4,276.9,10.1,277.5,10.1z"/>
	<path class="st0" d="M268.5,0.5c-0.4,1.1-1.3-0.5-1.5,0.6C267.3,0.8,268.5,1.6,268.5,0.5z"/>
	<path class="st0" d="M269.5,10.9c0.4,1,1.1,0.1,1.9,0.3C270.7,11.2,269.8,10.1,269.5,10.9z"/>
	<path class="st0" d="M261.8,3.7c0-0.8,0.6-0.7,1.2-0.6c-0.2,0.3-0.3,0.6-0.6,0.7c0.6-0.4,1.2-0.6,1.8-0.9c-0.8-0.5-2-0.9-1.9-1.8
		C261.8,1.9,261.1,3,261.8,3.7z"/>
	<path class="st0" d="M267.6,11c0.7,0.3,1.1,1,1.9,0.9c-0.1-0.5-0.4-1.3-1.3-1.2l0.3-0.9C267.6,9.2,268.8,11.1,267.6,11z"/>
	<path class="st0" d="M258.1,1.7l0.4,0.4c0.9-0.7,2.1-0.4,2.6-1.6C260.1,0.6,259,1,258.1,1.7z"/>
	<path class="st0" d="M264.4,9.4l-0.1,1.3c0.9,0.2-0.1-0.4,0.3-0.7c0.3,0.2,0.7,0.3,0.9,0C264.3,10.2,265.3,8.9,264.4,9.4z"/>
	<path class="st0" d="M261.4,10.8l-1.2,0.6l0.9,1.4C262.5,12.3,261.2,12,261.4,10.8z"/>
	<path class="st0" d="M259.9,10l-0.1-0.2l-1.8,1.9C258.7,11.2,259.4,10.7,259.9,10z"/>
	<path class="st0" d="M238.2,2.1c-0.2,0.5,0.9,1.2,0.4,0.6C238.8,2.3,237.4,1.6,238.2,2.1z"/>
	<path class="st0" d="M242.7,12.2c-0.5-0.4-2.1,0.4-2.9,0.8C240.6,12.7,242.8,13,242.7,12.2z"/>
	<path class="st0" d="M239.5,13.2l0.3-0.1C239.7,13,239.6,13.1,239.5,13.2z"/>
	<path class="st0" d="M209.1,16.6c-0.1,0-0.2,0.1-0.2,0.1L209.1,16.6z"/>
	<path class="st0" d="M209.8,16.3c0.7,0.1,1.3-0.2,1.6-0.8c-0.8,0.3-1.6,0.6-2.3,1.1C209.4,16.5,209.9,16.9,209.8,16.3z"/>
	<path class="st0" d="M202.8,16.1c0.4-0.4,0.9-0.2,0.7-0.7C203.3,15.2,202.6,15.8,202.8,16.1z"/>
	<path class="st0" d="M155.3,1.4c-0.7-0.3-1.1,0-0.9,0.8C155.2,2.1,154.7,1.7,155.3,1.4z"/>
	<polygon class="st0" points="153.6,2.3 153.4,2 153,1.4 	"/>
	<path class="st0" d="M148.9,1.3c0-0.1,0.1-0.3,0.3-0.4C148.9,1.1,148.7,1.2,148.9,1.3z"/>
	<path class="st0" d="M149.3,0.9h-0.1H149.3z"/>
	<path class="st0" d="M149.6,1.1V0.7c-0.1,0.1-0.2,0.1-0.4,0.2C149.4,0.9,149.5,0.9,149.6,1.1z"/>
	<path class="st0" d="M147.5,1.2l0.9,1.2c0.9-0.6-1.1-0.6-0.2-1.9L147.5,1.2z"/>
	<path class="st0" d="M144.4,1.6c-0.9-0.4-2,1.6-2.5,0.1c-2.4,0.8,0.6,2.4-2.1,3c2.6,0.7,1.3-2.8,3.6-2C142.2,1.8,144,2,144.4,1.6z"
		/>
	<path class="st0" d="M144.9,4c0.1-0.7-1-0.8-1.3-0.3C143.9,3.8,144.5,4.8,144.9,4z"/>
	<polygon class="st0" points="139.7,2.4 139,1.9 138.8,2.3 	"/>
	<path class="st0" d="M137,2.2l0.7-0.9C137.4,1.7,136.4,1.6,137,2.2z"/>
	<path class="st0" d="M133.1,1.3c-0.7-0.3-1.2,1.7,0.2,1.2l-0.3-0.1C133,2.1,132.2,1.4,133.1,1.3z"/>
	<path class="st0" d="M124.2,4.5c0.5,0,1-0.2,0.9-0.6l-1.3,0.4L124.2,4.5z"/>
	<path class="st0" d="M124.5,9.2c0.4,1.1,1.2-0.1,2,0.2C125.9,9.2,125.2,9.1,124.5,9.2z"/>
	<path class="st0" d="M122.7,2.9c0.3-0.5,0.9-0.2,1.2-0.1C123.7,2.1,122.8,2.3,122.7,2.9z"/>
	<path class="st0" d="M120.7,3.4c-0.4-0.5,0.1-0.6-0.3-1c-0.7-0.5-1.7-0.4-2.3,0.3c0.4,0.7,0.5,1.6,0.3,2.4c1.4-0.4,2.1-2.6,2.8-1
		l1.1-2C121.2,1.7,121.5,3.5,120.7,3.4z"/>
	<path class="st0" d="M123.7,7.1l-0.8-0.7c0.2,0.7-0.4,0.8-0.8,1C122.3,9,123.2,7.2,123.7,7.1z"/>
	<polygon class="st0" points="112.9,4.5 111.3,4.9 111.8,4.9 	"/>
	<polygon class="st0" points="111.8,4 111.8,3.6 110.6,4.4 	"/>
	<polygon class="st0" points="110.1,3.6 110.3,3.6 111.3,3.2 	"/>
	<path class="st0" d="M106.8,3.4l0.3,0.6c0.4-0.2,1.2,0.5,1.1-0.3C107.7,4,107.1,3.9,106.8,3.4z"/>
	<path class="st0" d="M96.1,19.7c0.3-0.4,0.1-0.8-0.1-1.1l-0.4,1.1C95.8,19.5,96,19.4,96.1,19.7z"/>
	<path class="st0" d="M94.1,18L93,19.2c1.4,0.1,1.5-0.8,2.7-1c-0.5-0.4-1.2,0.5-1.8,0.2L94.1,18z"/>
	<path class="st0" d="M70.2,17.8c0.1-0.8-0.2-0.7,0.7-1.2c-1.2,0.4-2.4,0.6-3.6,0.6c0.3,0.5-0.8,1.4-0.2,1.1l1.5-0.5l-0.2,0.5
		C69.5,18.9,69.1,17.5,70.2,17.8z"/>
	<path class="st0" d="M7.5,12.1c0.1-0.4,0-0.8-0.3-1.1C6.3,11.6,7.7,12,7.5,12.1z"/>
</g>
</svg>
