<?xml version="1.0" encoding="utf-8"?>
<!-- Generator: Adobe Illustrator 25.3.1, SVG Export Plug-In . SVG Version: 6.00 Build 0)  -->
<svg version="1.1" id="圖層_1" xmlns="http://www.w3.org/2000/svg" xmlns:xlink="http://www.w3.org/1999/xlink" x="0px" y="0px"
	 viewBox="0 0 200 30" style="enable-background:new 0 0 200 30;" xml:space="preserve">
<style type="text/css">
	.st0{opacity:0.2;clip-path:url(#SVGID_2_);}
	.st1{clip-path:url(#SVGID_2_);}
	.st2{fill:#FFC404;}
	.st3{fill:#FFFFFF;filter:url(#Adobe_OpacityMaskFilter);}
	.st4{mask:url(#mask0_193_833_1_);}
	.st5{fill:#FFA300;}
	.st6{fill:#DB0059;}
	.st7{fill:#6262B7;}
	.st8{fill:#474747;}
	.st9{fill:#A48082;}
	.st10{opacity:0.3;}
	.st11{fill:#FFFFFF;}
</style>
<g>
	<defs>
		<rect id="SVGID_1_" x="0" y="0.2" width="200" height="29.6"/>
	</defs>
	<clipPath id="SVGID_2_">
		<use xlink:href="#SVGID_1_"  style="overflow:visible;"/>
	</clipPath>
	<path class="st0" d="M198.9,11.9l9-6.1l-5.3,0.3l-3.7,2.5V6.3l-7.3,0.4l-4.4-4.3l-12.4,3.3l-0.5,1.9l-1.5,0.1V2.4h-16.9v6.3
		l-2.4,0.1L153.3,6c-0.1-1.8-1.6-3.2-3.4-3.1l-15,0.7c-1.8,0.1-3.2,1.6-3.1,3.4l0.1,3.1l-1.8,0.1l-6.3-6.3l-10.8,2.9l-1.2,4.4
		l-1.5,0.1l-0.8-9.8L103,1.9L92.8,7.7l0.4,4.4l-1.8,0.1l0.3-7.7L74.9,3.9l-0.3,9.2l-0.5,0l0,0l-3,0.2V2.4H54.1v11.8l-1.7,0.1
		l0.8-2.9l-9.1-9L31.7,5.8l-2.6,9.8l-0.3,0L28.4,6c-0.1-1.8-1.6-3.2-3.4-3.1L10,3.5C8.2,3.6,6.8,5.1,6.9,6.9l0.4,9.9L4,17l0,0
		l-0.6,0v0.4l-8.5,5.7l5.3-0.3l3.2-2.1v2l4.2-0.2l0,0.5c0.1,1.8,1.6,3.2,3.4,3.1l15-0.7c1.8-0.1,3.2-1.6,3.1-3.4l0-0.7l0.9,0l0,0
		l1.4-0.1l6.1,6.1l12.4-3.3l1-3.8l2.4-0.1l0,0l0.8,0v7.8h16.9v-8.7l3.3-0.2l-0.3,7.5l16.8,0.6l0.3-9l2.5-0.1l0,0l0,0l1,12l17.1-1.4
		l-0.8-10l7.1,7.1l10.8-2.9l1.8-6.7l1.6-0.1l0.3,7.3c0.1,1.8,1.6,3.2,3.4,3.1l15-0.7c1.8-0.1,3.2-1.6,3.1-3.4l-0.3-7.5l2.2-0.1v13.3
		h16.9v-8.3l7.9,7.8l12.4-3.3l3.1-11.7l2.7-0.1l0,0L198.9,11.9L198.9,11.9z M172.8,13.4L172.8,13.4L172.8,13.4L172.8,13.4z"/>
	<g class="st1">
		<g>
			<path class="st2" d="M197.5,10.9L2,21.5v-5.6L197.5,5.2V10.9z"/>
			<defs>
				<filter id="Adobe_OpacityMaskFilter" filterUnits="userSpaceOnUse" x="-6.4" y="4.7" width="212.9" height="17.2">
					<feColorMatrix  type="matrix" values="1 0 0 0 0  0 1 0 0 0  0 0 1 0 0  0 0 0 1 0"/>
				</filter>
			</defs>
			<mask maskUnits="userSpaceOnUse" x="-6.4" y="4.7" width="212.9" height="17.2" id="mask0_193_833_1_">
				<path class="st3" d="M197.5,10.9L2,21.5v-5.6L197.5,5.2V10.9z"/>
			</mask>
			<g class="st4">
				<path d="M-1.1,21.7L-6.4,22l9.1-6.1l5.3-0.3L-1.1,21.7z"/>
				<path d="M10.5,21l-5.3,0.3l9.1-6.1l5.3-0.3L10.5,21z"/>
				<path d="M22.2,20.4l-5.3,0.3l9.1-6.1l5.3-0.3L22.2,20.4z"/>
				<path d="M33.9,19.8l-5.3,0.3l9.1-6.1l5.3-0.3L33.9,19.8z"/>
				<path d="M45.6,19.1l-5.3,0.3l9.1-6.1l5.3-0.3L45.6,19.1z"/>
				<path d="M57.3,18.5L52,18.8l9.1-6.1l5.3-0.3L57.3,18.5z"/>
				<path d="M68.9,17.9l-5.3,0.3l9.1-6.1l5.3-0.3L68.9,17.9z"/>
				<path d="M80.6,17.2l-5.3,0.3l9.1-6.1l5.3-0.3L80.6,17.2z"/>
				<path d="M92.3,16.6L87,16.9l9.1-6.1l5.3-0.3L92.3,16.6z"/>
				<path d="M104,16l-5.3,0.3l9.1-6.1l5.3-0.3L104,16z"/>
				<path d="M115.7,15.3l-5.3,0.3l9.1-6.1l5.3-0.3L115.7,15.3z"/>
				<path d="M127.3,14.7l-5.3,0.3l9.1-6.1l5.3-0.3L127.3,14.7z"/>
				<path d="M139,14l-5.3,0.3l9.1-6.1l5.3-0.3L139,14z"/>
				<path d="M150.7,13.4l-5.3,0.3l9.1-6.1l5.3-0.3L150.7,13.4z"/>
				<path d="M162.4,12.8l-5.3,0.3l9.1-6.1l5.3-0.3L162.4,12.8z"/>
				<path d="M174.1,12.1l-5.3,0.3l9.1-6.1l5.3-0.3L174.1,12.1z"/>
				<path d="M185.8,11.5l-5.3,0.3l9.1-6.1l5.3-0.3L185.8,11.5z"/>
				<path d="M197.4,10.9l-5.3,0.3l9.1-6.1l5.3-0.3L197.4,10.9z"/>
			</g>
		</g>
		<g>
			<path class="st5" d="M110.4,27.2l-17.1,1.4L91.5,6.5l10.2-5.8l6.5-0.5L110.4,27.2z"/>
		</g>
		<g>
			<path class="st6" d="M23.6,1.7l-15,0.7C6.8,2.4,5.4,4,5.5,5.8l0.7,16c0.1,1.8,1.6,3.2,3.4,3.1l15-0.7c1.8-0.1,3.2-1.6,3.1-3.4
				l-0.7-16C27,3,25.5,1.6,23.6,1.7z"/>
		</g>
		<g>
			<path class="st6" d="M148.5,1.7l-15,0.7c-1.8,0.1-3.2,1.6-3.1,3.4l0.7,16c0.1,1.8,1.6,3.2,3.4,3.1l15-0.7
				c1.8-0.1,3.2-1.6,3.1-3.4l-0.7-16C151.9,3,150.3,1.6,148.5,1.7z"/>
		</g>
		<g>
			<path class="st7" d="M36.2,26.1l-9.1-9l3.3-12.4l12.4-3.3l9.1,9l-3.3,12.4L36.2,26.1z"/>
		</g>
		<g>
			<path class="st7" d="M179.3,26.1l-9.1-9l3.3-12.4l12.4-3.3l9.1,9l-3.3,12.4L179.3,26.1z"/>
		</g>
		<g>
			<path class="st7" d="M116.6,24.2l-7.9-7.9l2.9-10.8l10.8-2.9l7.9,7.9l-2.9,10.8L116.6,24.2z"/>
		</g>
		<g>
			<path class="st8" d="M69.7,1.3H52.8v25.3h16.9V1.3z"/>
		</g>
		<g>
			<path class="st8" d="M171.4,1.3h-16.9v25.3h16.9V1.3z"/>
		</g>
		<g>
			<path class="st6" d="M90.3,3.3L73.5,2.8l-0.8,22.4l16.8,0.6L90.3,3.3z"/>
			<path class="st9" d="M94.4,27.4l-0.7-1.1c0,0,0,0.1,0,0.1C93.8,26.7,94.1,27.1,94.4,27.4z"/>
		</g>
		<g class="st10">
			<path d="M13.9,12.9v0.8c0,0.4,0,0.9,0,1.4c0.3-0.2,0.7-0.5,1.1-0.8v-0.8l-0.4,0.3C14.5,13.5,14.2,13.2,13.9,12.9z M15,10.9h-1.1
				v1.2l0.3-0.2c0.2,0.2,0.5,0.5,0.8,0.7V10.9z M20.9,18H21c0.1,0,0.1,0,0.1-0.1c0,0,0.1-0.1,0.1-0.4c0-0.2,0-0.7,0-1.4
				c0.3,0.2,0.7,0.4,1,0.6c0,0.6-0.1,1.3-0.1,1.6c-0.1,0.3-0.2,0.5-0.4,0.7c-0.2,0.1-0.4,0.2-0.6,0.2h-0.6c-0.2,0-0.6-0.1-0.7-0.3
				c-0.2-0.2-0.3-0.5-0.3-1.4V11h-1.2v3.2c0,1.7-0.1,4-1.2,5.4c-0.2-0.2-0.8-0.6-1.1-0.8C16,18.9,15.9,19,15.8,19
				c-0.3,0.2-0.8,0.2-1.5,0.2c0-0.3-0.2-0.9-0.4-1.2c0.4,0,0.8,0,0.9,0c0.1,0,0.2-0.1,0.2-0.2v-2.5c-0.3,0.3-0.5,0.5-0.8,0.8
				l-0.3-0.6c-0.1,1.4-0.3,2.8-0.8,3.9c-0.2-0.2-0.8-0.5-1.1-0.6c0.7-1.5,0.7-3.6,0.7-5.2V9.7h3.5v8.2c0,0.3,0,0.5-0.1,0.7
				c0.8-1.2,0.9-3.1,0.9-4.5V9.7h3.7v7.8C20.8,17.8,20.8,17.9,20.9,18C20.8,18,20.9,18,20.9,18z M44.6,10.9V18c0,0.6-0.1,1-0.5,1.2
				c-0.4,0.2-1,0.2-1.9,0.2c0-0.4-0.2-0.9-0.4-1.3l0.1,0c-0.4-0.5-1.2-1.1-1.8-1.6c-0.5,0.7-1.1,1.2-2.2,1.7c-0.1-0.3-0.5-0.7-0.7-1
				c1.8-0.7,2.2-1.8,2.4-2.9h1.3c-0.1,0.4-0.2,0.7-0.3,1.1c0.8,0.5,1.8,1.3,2.3,1.8L42,18.2c0.5,0,0.9,0,1,0c0.2,0,0.2-0.1,0.2-0.2
				v-5.8h-2.8c0,0.1,0,0.2-0.1,0.2c0.9,0.5,2,1.2,2.6,1.7l-0.9,1c-0.5-0.5-1.4-1.1-2.2-1.6c-0.5,0.7-1.1,1.3-2.1,1.7
				c-0.1-0.3-0.5-0.7-0.8-1c1.2-0.5,1.8-1.2,2.1-2.1h-2.2v7.3h-1.3v-8.5h3.8c0.1-0.5,0.1-0.9,0.1-1.5h1.4c0,0.5-0.1,1-0.1,1.5H44.6z
				 M66.1,11.8h-2c-0.3,0.4-0.7,0.9-1,1.2l2.8-0.2c-0.2-0.2-0.4-0.5-0.5-0.6L66.1,11.8z M68.1,13.9l-1,0.7c-0.1-0.2-0.3-0.4-0.5-0.7
				c-4,0.3-4.6,0.3-5,0.5c-0.1-0.2-0.3-0.9-0.4-1.2c0.3-0.1,0.5-0.3,0.8-0.7c0.1-0.1,0.3-0.4,0.6-0.7h-1.4v-1.1h2.2
				c0.2-0.4,0.5-0.9,0.7-1.3l1.2,0.5c-0.2,0.3-0.3,0.6-0.5,0.9h3.1v1.1h-1.5C67,12.5,67.7,13.4,68.1,13.9z M61.1,10.6l-0.8,1
				c-0.4-0.4-1.2-0.9-1.9-1.3l0.7-0.9C59.8,9.8,60.7,10.2,61.1,10.6z M60.7,13.5L60,14.5c-0.4-0.4-1.3-0.9-2-1.2l0.7-1
				C59.4,12.7,60.3,13.1,60.7,13.5z M60.3,15l0.9,0.9c-0.6,1.1-1.2,2.3-1.9,3.4l-1.1-0.9C58.8,17.6,59.6,16.3,60.3,15z M62,15.5v-1
				h1.2v1c0,1.2-0.2,2.7-1.6,3.8c-0.2-0.3-0.6-0.7-0.9-0.8C61.9,17.6,62,16.5,62,15.5z M63.8,18.9v-4.3H65v4.3H63.8z M67,18.2h0.4
				c0.2,0,0.4,0,0.5-0.1c0,0.3,0.1,0.7,0.1,1c-0.2,0.1-0.4,0.1-0.6,0.1h-0.5c-1,0-1.2-0.4-1.2-1.5v-3.2h1.2v3.2
				C66.9,18.1,66.9,18.2,67,18.2z M86,15.3h-3.7c0.8,1.5,2.1,2.4,4.1,2.8c-0.3,0.3-0.7,0.9-0.9,1.2c-2.1-0.5-3.4-1.7-4.3-3.3
				c-0.6,1.4-1.8,2.6-4.3,3.3c-0.2-0.3-0.5-0.9-0.8-1.1c2.3-0.7,3.3-1.7,3.9-2.9h-3.7v-1.3h4c0.1-0.4,0.1-0.9,0.1-1.3v-0.4h-2.1
				c-0.3,0.5-0.6,1-0.9,1.4c-0.3-0.2-0.9-0.5-1.2-0.7c0.8-0.8,1.4-2.2,1.7-3.6l1.4,0.3c-0.1,0.4-0.3,0.9-0.4,1.3h1.5V9.4h1.3v1.7
				h3.3v1.3h-3.3v0.4c0,0.4,0,0.9-0.1,1.3H86V15.3z M98.9,11.6V11h-2V10h2V9.4h1.3V10h1.3V11h-1.3v0.5H98.9z M100.9,16.9v0.6h0.6
				v-0.6H100.9z M101.5,14.3h-0.6v0.5h0.6V14.3z M102.2,15.5h-1.4v0.6h1.4V15.5z M104.3,11.5V12h0.9c-0.2-0.2-0.4-0.3-0.5-0.5
				l0.6-0.5h-0.8v0.4H104.3z M105.1,13.4l1.2,0.2c-0.3,1.4-0.7,2.6-1.3,3.6c0.2,0.7,0.5,1.1,0.7,1.1c0.2,0,0.3-0.3,0.3-1.4
				c0.2,0.2,0.6,0.5,0.8,0.6c-0.2,1.6-0.5,1.9-1.3,1.9c-0.5,0-0.9-0.4-1.3-1.1c-0.3,0.4-0.7,0.8-1.1,1.2c-0.2-0.2-0.6-0.6-0.9-0.8
				c0.2-0.1,0.4-0.3,0.5-0.4h-1.8v0H100v-4.8h3.1v0.8h-0.8v0.5h0.8v2.1h-0.8v0.6h0.9v0.3c0.2-0.2,0.4-0.5,0.6-0.8
				c-0.3-1-0.4-2.4-0.5-3.9h-3.6v2.2c0,1.3-0.1,3.1-0.7,4.2c-0.2-0.2-0.7-0.4-1-0.5c0.4-0.7,0.5-1.6,0.6-2.5H98v0.3
				c0,0.7-0.1,1.9-0.8,2.7c-0.2-0.2-0.5-0.4-0.7-0.5c0.5-0.6,0.6-1.6,0.6-2.2v-0.2h-0.5v-1h1.9v-0.2v-0.4h-1.5v-2.7H98v1.6h0.6V12
				h4.6l0-0.6h0V11h-1.4V10h1.4V9.4h1.3V10h1.9V11h-0.9c0.3,0.2,0.6,0.5,0.8,0.7L106,12h0.5V13h-2.2c0,0.9,0.1,1.7,0.2,2.3
				C104.8,14.8,104.9,14.1,105.1,13.4z M121.9,15.5v2.5h2.6v1.2H118v-1.2h2.6v-2.5h-2.2v-1.2h2.2v-1.8h1.3v1.8h2.1v1.2H121.9z
				 M119.3,10.8h5.2v1.2h-5.8c-0.4,0.7-0.8,1.5-1.3,2.1v5.2h-1.3v-3.7c-0.3,0.3-0.6,0.5-0.9,0.8c-0.1-0.3-0.4-0.9-0.6-1.2
				c1.1-0.7,2-1.9,2.7-3.1H115v-1.2h2.9c0.2-0.5,0.3-1,0.5-1.5l1.3,0.3C119.6,10.1,119.4,10.4,119.3,10.8z M140.9,11.9l0.3,0.9
				c-0.9,0.5-1.8,1-2.6,1.4l-0.5-1C138.8,12.9,139.9,12.4,140.9,11.9z M145,16.5v-0.6h-4.6v0.6H145z M140.4,18.1h4.6v-0.6h-4.6V18.1
				z M146.9,9.7v3.5c0,0.5-0.1,0.8-0.4,1c-0.3,0.2-0.8,0.2-1.5,0.2c0-0.3-0.1-0.7-0.3-1c0.3,0,0.7,0,0.8,0s0.2,0,0.2-0.1v-2.4h-2.1
				c0.5,0.2,1.1,0.5,1.5,0.7l-0.5,0.7l0.8-0.4l0.3,0.9c-0.9,0.5-1.8,1-2.6,1.4l0.3,0c-0.1,0.3-0.3,0.5-0.4,0.8h3.4v4.5H145V19h-4.6
				v0.4h-1.3v-4.5h2.5c0.1-0.2,0.2-0.5,0.2-0.7c-0.3,0.1-0.8,0.1-1.4,0.1c0-0.3-0.1-0.7-0.3-1c0.3,0,0.7,0,0.8,0
				c0.1,0,0.2,0,0.2-0.1v-2.4h-2.1c0.5,0.2,1.1,0.5,1.5,0.7l-0.6,0.9c-0.4-0.2-1.1-0.6-1.6-0.8l0.5-0.7h-0.8v-1h4.3v3.5
				c0,0.3,0,0.6-0.2,0.7l0.8,0.1l-0.4-1c0.5-0.2,1.2-0.5,1.9-0.9c-0.4-0.2-1.1-0.5-1.6-0.8l0.5-0.7h-0.7v-1H146.9z M161.4,14.5
				l-0.9-0.3c0.2-0.8,0.3-2,0.4-2.8l0.9,0.1C161.7,12.4,161.6,13.7,161.4,14.5z M165.3,16.5v0.5h3.4v-0.5H165.3z M165.3,15.3v0.5
				h3.4v-0.5H165.3z M165.3,14.1v0.5h3.4v-0.5H165.3z M169.8,17.7h-1c0.6,0.3,1.3,0.7,1.8,1l-1,0.7c-0.5-0.3-1.3-0.9-2-1.2l0.5-0.5
				h-2.5l0.9,0.3c-0.6,0.6-1.6,1.1-2.5,1.4c-0.2-0.2-0.6-0.7-0.8-0.9c0.7-0.2,1.5-0.5,2-0.8h-1v-4.4h5.6V17.7z M167.5,12.2h1.3
				l0-0.5h-1.3C167.5,11.8,167.5,12,167.5,12.2z M165.3,11.7l-0.1,0.5h1.2c0-0.2,0-0.3,0.1-0.5H165.3z M166.7,10.4h-1.2l-0.1,0.5
				h1.2C166.7,10.8,166.7,10.6,166.7,10.4z M168.9,10.9l0-0.5h-1.3l0,0.5H168.9z M170,10.8h0.6v1h-0.7l-0.1,1.1h-5.7l0.1-1.1h-0.5
				c0.2,0.5,0.3,1.1,0.4,1.4l-0.7,0.3c-0.1-0.4-0.2-1.1-0.4-1.7v7.6h-1.1V9.3h1.1v2.2l0.5-0.2v-0.5h0.8l0.1-1.1h5.6L170,10.8z
				 M181.2,14.1l0.2,0.2c0.3-0.3,0.6-0.7,0.7-1l0.8,0.7c-0.3,0.3-0.7,0.6-0.9,0.9c0.3,0.3,0.6,0.7,0.8,0.8l-0.7,1
				c-0.2-0.3-0.5-0.8-0.8-1.2v3.9H180v-3.8c-0.3,0.4-0.7,0.7-1,1c-0.1-0.4-0.4-1-0.5-1.3c0.9-0.7,1.9-1.8,2.4-3h-2.1v-1.2h1.7
				c-0.2-0.4-0.5-0.9-0.8-1.3l0.9-0.6c0.3,0.4,0.7,1,0.9,1.4l-0.7,0.5h0.8l0.2-0.1l0.6,0.5C182.1,12.5,181.7,13.3,181.2,14.1
				L181.2,14.1z M184,13.9h0.9v-1H184V13.9z M184,10.9v1h0.9v-1H184z M187,11.9v-1h-0.9v1H187z M187,13.9v-1h-0.9v1H187z M186.1,18
				h2.5v1.1h-6.1V18h2.4v-1.1h-2v-1.1h2V15h-2V9.8h5.4V15h-2.1v0.8h2.2v1.1h-2.2V18z"/>
		</g>
		<g>
			<path class="st11" d="M12.9,11.9v0.8c0,0.4,0,0.9,0,1.4c0.3-0.2,0.7-0.5,1.1-0.8v-0.8l-0.4,0.3C13.5,12.5,13.2,12.2,12.9,11.9z
				 M14,9.9h-1.1v1.2l0.3-0.2c0.2,0.2,0.5,0.5,0.8,0.7V9.9z M19.9,17H20c0.1,0,0.1,0,0.1-0.1c0,0,0.1-0.1,0.1-0.4c0-0.2,0-0.7,0-1.4
				c0.3,0.2,0.7,0.4,1,0.6c0,0.6-0.1,1.3-0.1,1.6c-0.1,0.3-0.2,0.5-0.4,0.7c-0.2,0.1-0.4,0.2-0.6,0.2h-0.6c-0.2,0-0.6-0.1-0.7-0.3
				c-0.2-0.2-0.3-0.5-0.3-1.4V10h-1.2v3.2c0,1.7-0.1,4-1.2,5.4c-0.2-0.2-0.8-0.6-1.1-0.8C15,17.9,14.9,18,14.8,18
				c-0.3,0.2-0.8,0.2-1.5,0.2c0-0.3-0.2-0.9-0.4-1.2c0.4,0,0.8,0,0.9,0c0.1,0,0.2-0.1,0.2-0.2v-2.5c-0.3,0.3-0.5,0.5-0.8,0.8
				l-0.3-0.6c-0.1,1.4-0.3,2.8-0.8,3.9c-0.2-0.2-0.8-0.5-1.1-0.6c0.7-1.5,0.7-3.6,0.7-5.2V8.7h3.5v8.2c0,0.3,0,0.5-0.1,0.7
				c0.8-1.2,0.9-3.1,0.9-4.5V8.7h3.7v7.8C19.8,16.8,19.8,16.9,19.9,17C19.8,17,19.9,17,19.9,17z M43.6,9.9V17c0,0.6-0.1,1-0.5,1.2
				c-0.4,0.2-1,0.2-1.9,0.2c0-0.4-0.2-0.9-0.4-1.3l0.1,0c-0.4-0.5-1.2-1.1-1.8-1.6c-0.5,0.7-1.1,1.2-2.2,1.7c-0.1-0.3-0.5-0.7-0.7-1
				c1.8-0.7,2.2-1.8,2.4-2.9h1.3c-0.1,0.4-0.2,0.7-0.3,1.1c0.8,0.5,1.8,1.3,2.3,1.8L41,17.2c0.5,0,0.9,0,1,0c0.2,0,0.2-0.1,0.2-0.2
				v-5.8h-2.8c0,0.1,0,0.2-0.1,0.2c0.9,0.5,2,1.2,2.6,1.7l-0.9,1c-0.5-0.5-1.4-1.1-2.2-1.6c-0.5,0.7-1.1,1.3-2.1,1.7
				c-0.1-0.3-0.5-0.7-0.8-1c1.2-0.5,1.8-1.2,2.1-2.1h-2.2v7.3h-1.3V9.9h3.8c0.1-0.5,0.1-0.9,0.1-1.5h1.4c0,0.5-0.1,1-0.1,1.5H43.6z
				 M65.1,10.8h-2c-0.3,0.4-0.7,0.9-1,1.2l2.8-0.2c-0.2-0.2-0.4-0.5-0.5-0.6L65.1,10.8z M67.1,12.9l-1,0.7c-0.1-0.2-0.3-0.4-0.5-0.7
				c-4,0.3-4.6,0.3-5,0.5c-0.1-0.2-0.3-0.9-0.4-1.2c0.3-0.1,0.5-0.3,0.8-0.7c0.1-0.1,0.3-0.4,0.6-0.7h-1.4V9.6h2.2
				c0.2-0.4,0.5-0.9,0.7-1.3l1.2,0.5c-0.2,0.3-0.3,0.6-0.5,0.9h3.1v1.1h-1.5C66,11.5,66.7,12.4,67.1,12.9z M60.1,9.6l-0.8,1
				c-0.4-0.4-1.2-0.9-1.9-1.3l0.7-0.9C58.8,8.8,59.7,9.2,60.1,9.6z M59.7,12.5L59,13.5c-0.4-0.4-1.3-0.9-2-1.2l0.7-1
				C58.4,11.7,59.3,12.1,59.7,12.5z M59.3,14l0.9,0.9c-0.6,1.1-1.2,2.3-1.9,3.4l-1.1-0.9C57.8,16.6,58.6,15.3,59.3,14z M61,14.5v-1
				h1.2v1c0,1.2-0.2,2.7-1.6,3.8c-0.2-0.3-0.6-0.7-0.9-0.8C60.9,16.6,61,15.5,61,14.5z M62.8,17.9v-4.3H64v4.3H62.8z M66,17.2h0.4
				c0.2,0,0.4,0,0.5-0.1c0,0.3,0.1,0.7,0.1,1c-0.2,0.1-0.4,0.1-0.6,0.1h-0.5c-1,0-1.2-0.4-1.2-1.5v-3.2h1.2v3.2
				C65.9,17.1,65.9,17.2,66,17.2z M85,14.3h-3.7c0.8,1.5,2.1,2.4,4.1,2.8c-0.3,0.3-0.7,0.9-0.9,1.2c-2.1-0.5-3.4-1.7-4.3-3.3
				c-0.6,1.4-1.8,2.6-4.3,3.3c-0.2-0.3-0.5-0.9-0.8-1.1c2.3-0.7,3.3-1.7,3.9-2.9h-3.7v-1.3h4c0.1-0.4,0.1-0.9,0.1-1.3v-0.4h-2.1
				c-0.3,0.5-0.6,1-0.9,1.4c-0.3-0.2-0.9-0.5-1.2-0.7c0.8-0.8,1.4-2.2,1.7-3.6l1.4,0.3c-0.1,0.4-0.3,0.9-0.4,1.3h1.5V8.4h1.3v1.7
				h3.3v1.3h-3.3v0.4c0,0.4,0,0.9-0.1,1.3H85V14.3z M97.9,10.6V10h-2V9h2V8.4h1.3V9h1.3V10h-1.3v0.5H97.9z M99.9,15.9v0.6h0.6v-0.6
				H99.9z M100.5,13.3h-0.6v0.5h0.6V13.3z M101.2,14.5h-1.4v0.6h1.4V14.5z M103.3,10.5V11h0.9c-0.2-0.2-0.4-0.3-0.5-0.5l0.6-0.5
				h-0.8v0.4H103.3z M104.1,12.4l1.2,0.2c-0.3,1.4-0.7,2.6-1.3,3.6c0.2,0.7,0.5,1.1,0.7,1.1c0.2,0,0.3-0.3,0.3-1.4
				c0.2,0.2,0.6,0.5,0.8,0.6c-0.2,1.6-0.5,1.9-1.3,1.9c-0.5,0-0.9-0.4-1.3-1.1c-0.3,0.4-0.7,0.8-1.1,1.2c-0.2-0.2-0.6-0.6-0.9-0.8
				c0.2-0.1,0.4-0.3,0.5-0.4h-1.8v0H99v-4.8h3.1v0.8h-0.8v0.5h0.8v2.1h-0.8v0.6h0.9v0.3c0.2-0.2,0.4-0.5,0.6-0.8
				c-0.3-1-0.4-2.4-0.5-3.9h-3.6v2.2c0,1.3-0.1,3.1-0.7,4.2c-0.2-0.2-0.7-0.4-1-0.5c0.4-0.7,0.5-1.6,0.6-2.5H97v0.3
				c0,0.7-0.1,1.9-0.8,2.7c-0.2-0.2-0.5-0.4-0.7-0.5c0.5-0.6,0.6-1.6,0.6-2.2v-0.2h-0.5v-1h1.9v-0.2v-0.4h-1.5v-2.7H97v1.6h0.6V11
				h4.6l0-0.6h0V10h-1.4V9h1.4V8.4h1.3V9h1.9V10h-0.9c0.3,0.2,0.6,0.5,0.8,0.7L105,11h0.5V12h-2.2c0,0.9,0.1,1.7,0.2,2.3
				C103.8,13.8,103.9,13.1,104.1,12.4z M120.9,14.5v2.5h2.6v1.2H117v-1.2h2.6v-2.5h-2.2v-1.2h2.2v-1.8h1.3v1.8h2.1v1.2H120.9z
				 M118.3,9.8h5.2v1.2h-5.8c-0.4,0.7-0.8,1.5-1.3,2.1v5.2h-1.3v-3.7c-0.3,0.3-0.6,0.5-0.9,0.8c-0.1-0.3-0.4-0.9-0.6-1.2
				c1.1-0.7,2-1.9,2.7-3.1H114V9.8h2.9c0.2-0.5,0.3-1,0.5-1.5l1.3,0.3C118.6,9.1,118.4,9.4,118.3,9.8z M139.9,10.9l0.3,0.9
				c-0.9,0.5-1.8,1-2.6,1.4l-0.5-1C137.8,11.9,138.9,11.4,139.9,10.9z M144,15.5v-0.6h-4.6v0.6H144z M139.4,17.1h4.6v-0.6h-4.6V17.1
				z M145.9,8.7v3.5c0,0.5-0.1,0.8-0.4,1c-0.3,0.2-0.8,0.2-1.5,0.2c0-0.3-0.1-0.7-0.3-1c0.3,0,0.7,0,0.8,0s0.2,0,0.2-0.1V9.8h-2.1
				c0.5,0.2,1.1,0.5,1.5,0.7l-0.5,0.7l0.8-0.4l0.3,0.9c-0.9,0.5-1.8,1-2.6,1.4l0.3,0c-0.1,0.3-0.3,0.5-0.4,0.8h3.4v4.5H144V18h-4.6
				v0.4h-1.3v-4.5h2.5c0.1-0.2,0.2-0.5,0.2-0.7c-0.3,0.1-0.8,0.1-1.4,0.1c0-0.3-0.1-0.7-0.3-1c0.3,0,0.7,0,0.8,0
				c0.1,0,0.2,0,0.2-0.1V9.8h-2.1c0.5,0.2,1.1,0.5,1.5,0.7l-0.6,0.9c-0.4-0.2-1.1-0.6-1.6-0.8l0.5-0.7h-0.8v-1h4.3v3.5
				c0,0.3,0,0.6-0.2,0.7l0.8,0.1l-0.4-1c0.5-0.2,1.2-0.5,1.9-0.9c-0.4-0.2-1.1-0.5-1.6-0.8l0.5-0.7h-0.7v-1H145.9z M160.4,13.5
				l-0.9-0.3c0.2-0.8,0.3-2,0.4-2.8l0.9,0.1C160.7,11.4,160.6,12.7,160.4,13.5z M164.3,15.5v0.5h3.4v-0.5H164.3z M164.3,14.3v0.5
				h3.4v-0.5H164.3z M164.3,13.1v0.5h3.4v-0.5H164.3z M168.8,16.7h-1c0.6,0.3,1.3,0.7,1.8,1l-1,0.7c-0.5-0.3-1.3-0.9-2-1.2l0.5-0.5
				h-2.5l0.9,0.3c-0.6,0.6-1.6,1.1-2.5,1.4c-0.2-0.2-0.6-0.7-0.8-0.9c0.7-0.2,1.5-0.5,2-0.8h-1v-4.4h5.6V16.7z M166.5,11.2h1.3
				l0-0.5h-1.3C166.5,10.8,166.5,11,166.5,11.2z M164.3,10.7l-0.1,0.5h1.2c0-0.2,0-0.3,0.1-0.5H164.3z M165.7,9.4h-1.2l-0.1,0.5h1.2
				C165.7,9.8,165.7,9.6,165.7,9.4z M167.9,9.9l0-0.5h-1.3l0,0.5H167.9z M169,9.8h0.6v1h-0.7l-0.1,1.1h-5.7l0.1-1.1h-0.5
				c0.2,0.5,0.3,1.1,0.4,1.4l-0.7,0.3c-0.1-0.4-0.2-1.1-0.4-1.7v7.6h-1.1V8.3h1.1v2.2l0.5-0.2V9.8h0.8l0.1-1.1h5.6L169,9.8z
				 M180.2,13.1l0.2,0.2c0.3-0.3,0.6-0.7,0.7-1l0.8,0.7c-0.3,0.3-0.7,0.6-0.9,0.9c0.3,0.3,0.6,0.7,0.8,0.8l-0.7,1
				c-0.2-0.3-0.5-0.8-0.8-1.2v3.9H179v-3.8c-0.3,0.4-0.7,0.7-1,1c-0.1-0.4-0.4-1-0.5-1.3c0.9-0.7,1.9-1.8,2.4-3h-2.1v-1.2h1.7
				c-0.2-0.4-0.5-0.9-0.8-1.3l0.9-0.6c0.3,0.4,0.7,1,0.9,1.4l-0.7,0.5h0.8l0.2-0.1l0.6,0.5C181.1,11.5,180.7,12.3,180.2,13.1
				L180.2,13.1z M183,12.9h0.9v-1H183V12.9z M183,9.9v1h0.9v-1H183z M186,10.9v-1h-0.9v1H186z M186,12.9v-1h-0.9v1H186z M185.1,17
				h2.5v1.1h-6.1V17h2.4v-1.1h-2v-1.1h2V14h-2V8.8h5.4V14h-2.1v0.8h2.2v1.1h-2.2V17z"/>
		</g>
	</g>
</g>
</svg>
