<?xml version="1.0" encoding="utf-8"?>
<!-- Generator: Adobe Illustrator 25.3.1, SVG Export Plug-In . SVG Version: 6.00 Build 0)  -->
<svg version="1.1" id="圖層_1" xmlns="http://www.w3.org/2000/svg" xmlns:xlink="http://www.w3.org/1999/xlink" x="0px" y="0px"
	 viewBox="0 0 300 50" style="enable-background:new 0 0 300 50;" xml:space="preserve">
<style type="text/css">
	.st0{clip-path:url(#SVGID_2_);}
	.st1{opacity:0.3;}
	.st2{fill:#FFC404;}
	.st3{fill:#FFFFFF;filter:url(#Adobe_OpacityMaskFilter);}
	.st4{mask:url(#mask0_111_2043_1_);}
	.st5{fill:#FFA300;}
	.st6{fill:#474747;}
	.st7{fill:#A48082;}
	.st8{fill:#DB0059;}
	.st9{fill:#6262B7;}
	.st10{fill:#FFFFFF;}
</style>
<g>
	<defs>
		<rect id="SVGID_1_" x="4.5" width="290.9" height="50"/>
	</defs>
	<clipPath id="SVGID_2_">
		<use xlink:href="#SVGID_1_"  style="overflow:visible;"/>
	</clipPath>
	<g class="st0">
		<g class="st1">
			<path d="M296.6,21l13.3-12.3L302,9.2l-5.5,5V9.6l-13.3,1l-5.3-5.3l-18.2,4.9l-0.6,2.2l-4.3,0.3l-1-11.6l-11,0.9l-17.2,9.8l0.3,3
				l-2.5,0.2l0.3-8.6l-28.4-1L195,17.2l-6,0.4V3h-28.6v16.8l-2,0.1l0.4-1.7L143.4,3l-20.9,5.7l-3.8,14.2l-1.2,0.1l-0.6-14
				c-0.1-3-2.7-5.4-5.8-5.3L85.8,4.8c-3.1,0.1-5.4,2.7-5.3,5.8l0.7,15.1l-5,0.4L77,2.6l-28.4-1l-0.9,26.6l-4.6,0.3L40.9,1.1L29.9,2
				l-17.2,9.8l1.6,18.8l-7.7,0.6l0,0l-0.9,0.1v0.8L-6.9,43.7L1,43.1l4.7-4.3v4l9.5-0.7l0.6,7.1l28.8-2.4l-0.6-6.8l1.2-0.1l0,0l4-0.3
				l26.5,0.9l0.1-2.9l4.2-0.3l0,0l1.7-0.1l0,0.5c0.1,3,2.7,5.4,5.8,5.3l25.3-1.1c3.1-0.1,5.4-2.7,5.3-5.8l-0.1-1.6l1-0.1l2.5-0.2
				l10.8,10.7l20.9-5.7l2-7.5l5.1-0.4v14.4H189V29.1l5.6-0.4l-0.5,14.6l28.4,1l0.6-17.8l3.9-0.3l0,0l0,0l1.9,22.8l28.8-2.4
				l-1.4-16.9l12,11.9l18.2-4.9l4-15.2l5.9-0.4l0,0l0.2,0V21z M255.8,24.1l0.2,0l-0.2,0.7L255.8,24.1z"/>
			<path d="M82.8,41.4c0.2,0.7,0.6,1.3,1.1,1.7l-1.1-1.9C82.8,41.3,82.8,41.4,82.8,41.4z"/>
		</g>
		<g>
			<path class="st2" d="M295.5,20L4.5,41.6V30.2L295.5,8.5V20z"/>
			<defs>
				<filter id="Adobe_OpacityMaskFilter" filterUnits="userSpaceOnUse" x="-8.1" y="7.5" width="316.8" height="35.1">
					<feColorMatrix  type="matrix" values="1 0 0 0 0  0 1 0 0 0  0 0 1 0 0  0 0 0 1 0"/>
				</filter>
			</defs>
			<mask maskUnits="userSpaceOnUse" x="-8.1" y="7.5" width="316.8" height="35.1" id="mask0_111_2043_1_">
				<path class="st3" d="M295.5,20L4.5,41.6V30.2L295.5,8.5V20z"/>
			</mask>
			<g class="st4">
				<path d="M-0.2,42l-7.9,0.6L5.4,30.1l7.9-0.6L-0.2,42z"/>
				<path d="M17.2,40.7l-7.9,0.6l13.5-12.5l7.9-0.6L17.2,40.7z"/>
				<path d="M34.6,39.4L26.7,40l13.5-12.5l7.9-0.6L34.6,39.4z"/>
				<path d="M52,38.1l-7.9,0.6l13.5-12.5l7.9-0.6L52,38.1z"/>
				<path d="M69.4,36.8l-7.9,0.6L75,24.9l7.9-0.6L69.4,36.8z"/>
				<path d="M86.7,35.5l-7.9,0.6l13.5-12.5l7.9-0.6L86.7,35.5z"/>
				<path d="M104.1,34.2l-7.9,0.6l13.5-12.5l7.9-0.6L104.1,34.2z"/>
				<path d="M121.5,32.9l-7.9,0.6L127.1,21l7.9-0.6L121.5,32.9z"/>
				<path d="M138.9,31.6l-7.9,0.6l13.5-12.5l7.9-0.6L138.9,31.6z"/>
				<path d="M156.3,30.3l-7.9,0.6l13.5-12.5l7.9-0.6L156.3,30.3z"/>
				<path d="M173.6,29l-7.9,0.6l13.5-12.5l7.9-0.6L173.6,29z"/>
				<path d="M191,27.7l-7.9,0.6l13.5-12.5l7.9-0.6L191,27.7z"/>
				<path d="M208.4,26.4l-7.9,0.6L214,14.6l7.9-0.6L208.4,26.4z"/>
				<path d="M225.8,25.2l-7.9,0.6l13.5-12.5l7.9-0.6L225.8,25.2z"/>
				<path d="M243.2,23.9l-7.9,0.6L248.8,12l7.9-0.6L243.2,23.9z"/>
				<path d="M260.5,22.6l-7.9,0.6l13.5-12.5l7.9-0.6L260.5,22.6z"/>
				<path d="M277.9,21.3l-7.9,0.6l13.5-12.5l7.9-0.6L277.9,21.3z"/>
				<path d="M295.3,20l-7.9,0.6l13.5-12.5l7.9-0.6L295.3,20z"/>
			</g>
		</g>
		<g>
			<path class="st5" d="M43.5,45.6L14.7,48l-3.1-37.3l17.2-9.8l11-0.9L43.5,45.6z"/>
		</g>
		<g>
			<path class="st5" d="M256.6,45.6L227.7,48l-3.1-37.3l17.2-9.8l11-0.9L256.6,45.6z"/>
		</g>
		<g>
			<path class="st6" d="M75.9,1.4l-28.4-1l-1.3,37.9l28.4,1L75.9,1.4z"/>
			<path class="st7" d="M82.8,42l-1.1-1.9c0,0,0,0.1,0,0.1C81.9,40.9,82.2,41.6,82.8,42z"/>
		</g>
		<g>
			<path class="st8" d="M110,2.6L84.7,3.7c-3.1,0.1-5.4,2.7-5.3,5.8l1.2,27c0.1,3,2.7,5.4,5.8,5.3l25.3-1.1c3.1-0.1,5.4-2.7,5.3-5.8
				l-1.2-27C115.7,4.8,113.1,2.4,110,2.6z"/>
		</g>
		<g>
			<path class="st9" d="M131.2,43.7l-15.4-15.3l5.6-20.9l20.9-5.7l15.4,15.3L152.1,38L131.2,43.7z"/>
		</g>
		<g>
			<path class="st9" d="M267.1,40.6l-13.4-13.3l4.8-18.2l18.2-4.9l13.4,13.3l-4.8,18.2L267.1,40.6z"/>
		</g>
		<g>
			<path class="st6" d="M187.8,1.8h-28.6v42.7h28.6V1.8z"/>
		</g>
		<g>
			<path class="st8" d="M222.6,5.3l-28.4-1l-1.3,37.9l28.4,1L222.6,5.3z"/>
			<path class="st7" d="M229.5,45.9l-1.1-1.9c0,0,0,0.1,0,0.1C228.6,44.8,229,45.4,229.5,45.9z"/>
		</g>
		<g class="st1">
			<path d="M35.9,23.5l1.1,1.4c-0.5,0.4-1.1,0.7-1.6,1.1c0.7,0.8,1.4,1.5,1.7,1.8l-1.3,1.4C35,28,33,25.5,32,24.4l1-0.8
				c0.3,0.2,0.8,0.7,1.3,1.3C34.9,24.5,35.5,23.9,35.9,23.5z M34.2,17.7h-2.5v1.1h2.5V17.7z M31.7,21.6h2.5v-1.1h-2.5V21.6z
				 M31.7,27.2l2.1-0.4c-0.1,0.5-0.1,1.2-0.1,1.5c-2.9,0.7-3.5,0.9-3.8,1.1c-0.1-0.5-0.3-1.3-0.5-1.7c0.3-0.1,0.5-0.2,0.5-0.7V16H36
				v7.3h-4.3V27.2z M28.8,18.4l-1.7,0.5c-0.2-0.8-0.5-2.1-0.8-3l1.6-0.4C28.2,16.4,28.6,17.6,28.8,18.4z M22.4,21.2v1.2
				c0,0.8,0,1.7-0.1,2.6c0.4-0.3,0.9-0.6,1.5-1v-1.9l-0.5,0.3C23.1,22.1,22.8,21.6,22.4,21.2z M23.8,17.9h-1.4v2.3l0.6-0.4
				c0.3,0.3,0.5,0.6,0.8,0.9V17.9z M29,23.6l0.8,0.3c-0.3,1.7-0.7,3.5-1.3,4.8c0.3,0.2,0.6,0.5,1.1,0.7c0.9,0.6,2.1,0.8,3.6,0.8
				c1.2,0,3.1-0.1,4.3-0.3c-0.2,0.5-0.5,1.5-0.5,2c-0.9,0.1-2.7,0.1-3.9,0.1c-1.6,0-2.7-0.3-3.8-0.9c-0.7-0.4-1.2-1-1.5-1
				c-0.4,0-1.1,1.2-1.5,2.2l-0.7-1c-0.1,0.3-0.3,0.5-0.5,0.6c-0.5,0.3-1.2,0.4-2.2,0.4c0-0.5-0.3-1.3-0.5-1.8c0.6,0,1.2,0,1.4,0
				c0.2,0,0.3-0.1,0.3-0.3V26l-0.9,0.9l-0.6-1.3c-0.1,2.3-0.5,4.9-1.2,6.7c-0.3-0.3-1-0.9-1.4-1.1c0.9-2.5,1-6.1,1-8.7v-6.5h4.8
				v13.8c0.4-0.4,0.9-0.7,1.2-1c0.4-1,0.8-2.2,1-3.5h-1.7c0.3-1,0.8-2.5,1.1-3.9h-1.3v-1.9h3.4c-0.3,1.3-0.7,2.8-1.1,4.1h0.5
				L29,23.6z M61.6,27.3h-3.9v2.2h3.9V27.3z M55.6,32.2v-6.8h8.1v6.7h-2.1v-0.7h-3.9v0.8H55.6z M61.2,19.2h-3.1
				c0.4,0.8,0.8,1.9,1,2.6L58,22.1h2.2C60.6,21.3,61,20.1,61.2,19.2z M61.9,19.2l1.5,0.3c-0.4,0.9-0.7,1.8-1.1,2.6h2.1v2h-9.6v-2
				h2.3c-0.2-0.7-0.5-1.8-0.9-2.5l1.5-0.4h-2.4v-1.9h3.4c-0.1-0.5-0.4-1.1-0.6-1.6l2-0.6c0.3,0.7,0.7,1.5,0.9,2.1H64v1.9H61.9z
				 M70.1,16.1l1.5,0.9c-0.6,1.7-1.4,3.8-2.1,5.4c1.5,1.6,1.7,3.1,1.7,4.3c0,1.3-0.3,2.2-1,2.7c-0.3,0.2-0.7,0.4-1.2,0.4
				c-0.4,0.1-0.9,0.1-1.4,0c0-0.6-0.2-1.4-0.5-2c0.4,0,0.8,0,1,0c0.3,0,0.5-0.1,0.7-0.2c0.3-0.2,0.4-0.6,0.4-1.3
				c0-1-0.4-2.3-1.8-3.7c0.5-1.3,1.1-3.2,1.5-4.6h-2v14.1H65V16.1h4.7L70.1,16.1z M92.3,21.2v1.3c0,0.7,0,1.5-0.1,2.3
				c0.5-0.4,1.2-0.9,1.9-1.4v-1.3l-0.6,0.5C93.3,22.3,92.8,21.8,92.3,21.2z M94.2,17.9h-1.8V20l0.5-0.4c0.4,0.4,0.9,0.8,1.3,1.3
				V17.9z M104.1,30h0.2c0.1,0,0.2,0,0.2-0.1c0.1-0.1,0.1-0.2,0.1-0.6c0-0.4,0.1-1.3,0.1-2.3c0.5,0.4,1.1,0.7,1.7,0.9
				c0,1-0.1,2.2-0.2,2.7c-0.1,0.5-0.3,0.9-0.6,1.1c-0.3,0.2-0.7,0.3-1.1,0.3h-1c-0.4,0-0.9-0.1-1.3-0.5c-0.3-0.4-0.5-0.8-0.5-2.4V18
				h-2v5.3c0,2.8-0.2,6.7-2,9.1c-0.4-0.4-1.3-1-1.8-1.3c-0.1,0.2-0.3,0.4-0.5,0.5c-0.5,0.3-1.3,0.4-2.5,0.4
				c-0.1-0.6-0.3-1.5-0.6-2.1c0.7,0,1.3,0,1.5,0c0.2,0,0.3-0.1,0.3-0.3v-4.2c-0.5,0.5-0.9,0.9-1.3,1.3l-0.6-1.1
				c-0.2,2.3-0.5,4.8-1.3,6.5c-0.4-0.3-1.3-0.8-1.8-1c1.1-2.5,1.2-6.1,1.2-8.8v-6.6h5.9v13.9c0,0.5,0,0.9-0.1,1.2
				c1.4-2.1,1.5-5.2,1.5-7.6v-7.4h6.3v13.1c0,0.5,0,0.7,0.1,0.8C103.9,29.9,104,30,104.1,30z M144,17.8v12c0,1.1-0.2,1.7-0.9,2.1
				c-0.7,0.4-1.7,0.4-3.1,0.4c-0.1-0.6-0.4-1.6-0.7-2.2l0.2,0c-0.7-0.8-2-1.8-3.1-2.7c-0.8,1.1-1.9,2.1-3.7,2.9
				c-0.2-0.5-0.8-1.3-1.3-1.6c3.1-1.1,3.8-3.1,4.1-4.9h2.2c-0.1,0.6-0.3,1.3-0.5,1.9c1.3,0.9,3.1,2.2,4,3.1l-1.5,1.4
				c0.8,0,1.5,0,1.7,0c0.3,0,0.4-0.1,0.4-0.4V20h-4.7c0,0.1-0.1,0.3-0.1,0.4c1.5,0.8,3.4,2.1,4.3,2.9l-1.5,1.7
				c-0.8-0.8-2.3-1.9-3.7-2.7c-0.8,1.2-1.9,2.1-3.6,2.9c-0.2-0.5-0.8-1.3-1.3-1.6c2-0.8,3-2,3.5-3.5h-3.8v12.3H129V17.8h6.4
				c0.1-0.8,0.1-1.6,0.2-2.5h2.3c-0.1,0.9-0.1,1.7-0.2,2.5H144z M179.2,24v-1.1h-6.5V24H179.2z M172.7,27h6.6v-1.2h-6.5
				C172.7,26.2,172.7,26.6,172.7,27z M183.4,19.5h-9.8c-0.2,0.5-0.5,1-0.7,1.4h8.5v9c0,1.1-0.2,1.7-0.9,2c-0.7,0.3-1.7,0.4-3.2,0.4
				c-0.1-0.6-0.4-1.5-0.7-2.1c0.9,0.1,2,0.1,2.3,0.1c0.3,0,0.4-0.1,0.4-0.4v-1.1h-6.8c-0.3,1.4-0.9,2.7-2,3.6
				c-0.3-0.5-1.1-1.4-1.6-1.7c1.6-1.4,1.7-3.3,1.7-5v-1.5c-0.7,0.7-1.4,1.4-2.3,2c-0.3-0.5-1-1.3-1.4-1.7c1.8-1.2,3.3-3.1,4.4-5.1
				h-3.9v-2h4.9c0.3-0.7,0.5-1.5,0.7-2.2l2.2,0.5c-0.2,0.6-0.4,1.1-0.6,1.7h8.9V19.5z M212.3,18.7h-4.5c-0.2,0.1-0.3,0.2-0.5,0.4
				c0.8,0.5,1.5,1.2,2.1,1.8C210.5,20.2,211.5,19.5,212.3,18.7z M214.4,16.7l1.4,0.9c-2.3,4.2-7.5,6.4-12.7,7.4
				c-0.2-0.5-0.6-1.4-1-1.9c1.8-0.3,3.7-0.7,5.4-1.4c-0.5-0.5-1.1-1.1-1.8-1.6c-0.5,0.3-1.1,0.6-1.7,0.8c-0.3-0.5-1-1.2-1.5-1.5
				c2.9-1.1,5.1-2.6,6.3-4.1l2.3,0.5c-0.3,0.3-0.6,0.7-1,1h3.8L214.4,16.7z M214.9,25.4h-4.1c-0.3,0.2-0.7,0.5-1.1,0.7
				c0.7,0.5,1.6,1.2,2.1,1.8C213.1,27.2,214.1,26.4,214.9,25.4z M216.7,23.4l1.5,0.9c-2.6,5.5-8.5,7.4-15.5,8.1
				c-0.2-0.6-0.5-1.5-0.9-2.1c2.9-0.2,5.6-0.6,7.9-1.4c-0.5-0.5-1.2-1.1-1.9-1.7c-0.7,0.4-1.5,0.7-2.3,1c-0.3-0.5-0.9-1.3-1.3-1.7
				c3.7-1.2,6.3-2.9,7.6-4.7l2.3,0.5c-0.4,0.4-0.7,0.8-1.1,1.2h3.3L216.7,23.4z M236.3,25.2h3v-0.8h-3V25.2z M236.3,22.3v0.8h3v-0.8
				H236.3z M244.7,22.3h-3.2v0.8h3.2V22.3z M244.7,25.2v-0.8h-3.2v0.8H244.7z M241.5,30h7.3v1.7h-16.5V30h7.1v-1h-5.7v-1.6h5.7v-0.8
				h-5.1v-5.8h5.1v-0.7h-6.9v-1.7h6.9v-0.8c-1.7,0.1-3.5,0.1-5.2,0.1c0-0.5-0.3-1.2-0.4-1.7c4.2-0.1,9.2-0.4,12.2-0.9l1,1.7
				c-1.6,0.3-3.5,0.5-5.5,0.6v0.9h7.1v1.7h-7.1v0.7h5.4v5.8h-5.4v0.8h6.1v1.6h-6.1V30z M277.2,27.4h-4.3c-0.2,0.2-0.3,0.5-0.5,0.7
				c1.1,0.2,2.2,0.4,3.2,0.7C276.2,28.3,276.7,27.9,277.2,27.4z M270.1,20.5v1.7h1.9v-1.7H270.1z M274,17.8v1h2.1v-1H274z
				 M280.3,20.5h-2.2v1.7h2.2V20.5z M274,22.2h2.1v-1.7H274V22.2z M283.4,27.4h-3.6c-0.5,0.8-1,1.4-1.6,1.9c1.9,0.5,3.7,0.9,5.1,1.4
				l-1.9,1.5c-1.3-0.5-3.1-1-5.2-1.6c-2.1,1-4.8,1.4-8.3,1.7c-0.1-0.6-0.5-1.4-0.8-1.9c2.2-0.1,4.1-0.3,5.7-0.6
				c-1.2-0.2-2.3-0.5-3.6-0.7c0.4-0.5,0.9-1.1,1.4-1.7h-3.5v-1.8h4.6c0.3-0.6,0.7-1.1,0.9-1.7H268v-5.1h3.9v-1h-4.8v-1.9H283v1.9
				h-4.9v1h4.3v5.1h-9.7l1.9,0.4c-0.2,0.4-0.4,0.8-0.6,1.2h4.4c0.1-0.3,0.3-0.7,0.4-1l2.1,0.5c-0.1,0.2-0.1,0.3-0.2,0.5h2.7V27.4z"
				/>
		</g>
		<g>
			<path class="st10" d="M34.8,22l1.1,1.4c-0.5,0.4-1.1,0.7-1.6,1.1c0.7,0.8,1.4,1.5,1.7,1.8l-1.3,1.4c-0.7-1.2-2.8-3.7-3.7-4.8
				l1-0.8c0.3,0.2,0.8,0.7,1.3,1.3C33.8,22.9,34.4,22.4,34.8,22z M33,16.2h-2.5v1.1H33V16.2z M30.6,20.1H33v-1.1h-2.5V20.1z
				 M30.6,25.7l2.1-0.4c-0.1,0.5-0.1,1.2-0.1,1.5c-2.9,0.7-3.5,0.9-3.8,1.1c-0.1-0.5-0.3-1.3-0.5-1.7c0.3-0.1,0.5-0.2,0.5-0.7V14.5
				h6.1v7.3h-4.3V25.7z M27.6,16.9L26,17.4c-0.2-0.8-0.5-2.1-0.8-3l1.6-0.4C27.1,14.9,27.4,16.1,27.6,16.9z M21.3,19.7v1.2
				c0,0.8,0,1.7-0.1,2.6c0.4-0.3,0.9-0.6,1.5-1v-1.9l-0.5,0.3C22,20.6,21.7,20.1,21.3,19.7z M22.7,16.3h-1.4v2.3l0.6-0.4
				c0.3,0.3,0.5,0.6,0.8,0.9V16.3z M27.8,22.1l0.8,0.3c-0.3,1.7-0.7,3.5-1.3,4.8c0.3,0.2,0.6,0.5,1.1,0.7c0.9,0.6,2.1,0.8,3.6,0.8
				c1.2,0,3.1-0.1,4.3-0.3c-0.2,0.5-0.5,1.5-0.5,2c-0.9,0.1-2.7,0.1-3.9,0.1c-1.6,0-2.7-0.3-3.8-0.9c-0.7-0.4-1.2-1-1.5-1
				c-0.4,0-1.1,1.2-1.5,2.2l-0.7-1c-0.1,0.3-0.3,0.5-0.5,0.6c-0.5,0.3-1.2,0.4-2.2,0.4c0-0.5-0.3-1.3-0.5-1.8c0.6,0,1.2,0,1.4,0
				c0.2,0,0.3-0.1,0.3-0.3v-4.2l-0.9,0.9l-0.6-1.3c-0.1,2.3-0.5,4.9-1.2,6.7c-0.3-0.3-1-0.9-1.4-1.1c0.9-2.5,1-6.1,1-8.7v-6.5h4.8
				v13.8c0.4-0.4,0.9-0.7,1.2-1c0.4-1,0.8-2.2,1-3.5H25c0.3-1,0.8-2.5,1.1-3.9h-1.3V18h3.4c-0.3,1.3-0.7,2.8-1.1,4.1h0.5L27.8,22.1z
				 M60.4,25.8h-3.9V28h3.9V25.8z M54.5,30.7v-6.8h8.1v6.7h-2.1v-0.7h-3.9v0.8H54.5z M60.1,17.7H57c0.4,0.8,0.8,1.9,1,2.6l-1.1,0.3
				H59C59.4,19.8,59.8,18.6,60.1,17.7z M60.8,17.7l1.5,0.3c-0.4,0.9-0.7,1.8-1.1,2.6h2.1v2h-9.6v-2H56c-0.2-0.7-0.5-1.8-0.9-2.5
				l1.5-0.4h-2.4v-1.9h3.4c-0.1-0.5-0.4-1.1-0.6-1.6l2-0.6c0.3,0.7,0.7,1.5,0.9,2.1h3.1v1.9H60.8z M68.9,14.5l1.5,0.9
				c-0.6,1.7-1.4,3.8-2.1,5.4c1.5,1.6,1.7,3.1,1.7,4.3c0,1.3-0.3,2.2-1,2.7c-0.3,0.2-0.7,0.4-1.2,0.4c-0.4,0.1-0.9,0.1-1.4,0
				c0-0.6-0.2-1.4-0.5-2c0.4,0,0.8,0,1,0s0.5-0.1,0.7-0.2c0.3-0.2,0.4-0.6,0.4-1.3c0-1-0.4-2.3-1.8-3.7c0.5-1.3,1.1-3.2,1.5-4.6h-2
				v14.1h-1.9V14.6h4.7L68.9,14.5z M91.2,19.7V21c0,0.7,0,1.5-0.1,2.3c0.5-0.4,1.2-0.9,1.9-1.4v-1.3l-0.6,0.5
				C92.2,20.8,91.7,20.3,91.2,19.7z M93,16.4h-1.8v2.1l0.5-0.4c0.4,0.4,0.9,0.8,1.3,1.3V16.4z M102.9,28.4h0.2c0.1,0,0.2,0,0.2-0.1
				c0.1-0.1,0.1-0.2,0.1-0.6c0-0.4,0.1-1.3,0.1-2.3c0.5,0.4,1.1,0.7,1.7,0.9c0,1-0.1,2.2-0.2,2.7c-0.1,0.5-0.3,0.9-0.6,1.1
				c-0.3,0.2-0.7,0.3-1.1,0.3h-1c-0.4,0-0.9-0.1-1.3-0.5c-0.3-0.4-0.5-0.8-0.5-2.4V16.5h-2v5.3c0,2.8-0.2,6.7-2,9.1
				c-0.4-0.4-1.3-1-1.8-1.3c-0.1,0.2-0.3,0.4-0.5,0.5c-0.5,0.3-1.3,0.4-2.5,0.4c-0.1-0.6-0.3-1.5-0.6-2.1c0.7,0,1.3,0,1.5,0
				c0.2,0,0.3-0.1,0.3-0.3V24c-0.5,0.5-0.9,0.9-1.3,1.3l-0.6-1.1c-0.2,2.3-0.5,4.8-1.3,6.5c-0.4-0.3-1.3-0.8-1.8-1
				c1.1-2.5,1.2-6.1,1.2-8.8v-6.6h5.9v13.9c0,0.5,0,0.9-0.1,1.2c1.4-2.1,1.5-5.2,1.5-7.6v-7.4h6.3v13.1c0,0.5,0,0.7,0.1,0.8
				C102.8,28.4,102.9,28.4,102.9,28.4z M142.9,16.3v12c0,1.1-0.2,1.7-0.9,2.1c-0.7,0.4-1.7,0.4-3.1,0.4c-0.1-0.6-0.4-1.6-0.7-2.2
				l0.2,0c-0.7-0.8-2-1.8-3.1-2.7c-0.8,1.1-1.9,2.1-3.7,2.9c-0.2-0.5-0.8-1.3-1.3-1.6c3.1-1.1,3.8-3.1,4.1-4.9h2.2
				c-0.1,0.6-0.3,1.3-0.5,1.9c1.3,0.9,3.1,2.2,4,3.1l-1.5,1.4c0.8,0,1.5,0,1.7,0c0.3,0,0.4-0.1,0.4-0.4v-9.8h-4.7
				c0,0.1-0.1,0.3-0.1,0.4c1.5,0.8,3.4,2.1,4.3,2.9l-1.5,1.7c-0.8-0.8-2.3-1.9-3.7-2.7c-0.8,1.2-1.9,2.1-3.6,2.9
				c-0.2-0.5-0.8-1.3-1.3-1.6c2-0.8,3-2,3.5-3.5H130v12.3h-2.2V16.3h6.4c0.1-0.8,0.1-1.6,0.2-2.5h2.3c-0.1,0.9-0.1,1.7-0.2,2.5
				H142.9z M178.1,22.5v-1.1h-6.5v1.1H178.1z M171.5,25.5h6.6v-1.2h-6.5C171.6,24.7,171.5,25,171.5,25.5z M182.2,18h-9.8
				c-0.2,0.5-0.5,1-0.7,1.4h8.5v9c0,1.1-0.2,1.7-0.9,2c-0.7,0.3-1.7,0.4-3.2,0.4c-0.1-0.6-0.4-1.5-0.7-2.1c0.9,0.1,2,0.1,2.3,0.1
				c0.3,0,0.4-0.1,0.4-0.4v-1.1h-6.8c-0.3,1.4-0.9,2.7-2,3.6c-0.3-0.5-1.1-1.4-1.6-1.7c1.6-1.4,1.7-3.3,1.7-5v-1.5
				c-0.7,0.7-1.4,1.4-2.3,2c-0.3-0.5-1-1.3-1.4-1.7c1.8-1.2,3.3-3.1,4.4-5.1h-3.9v-2h4.9c0.3-0.7,0.5-1.5,0.7-2.2l2.2,0.5
				c-0.2,0.6-0.4,1.1-0.6,1.7h8.9V18z M211.2,17.1h-4.5c-0.2,0.1-0.3,0.2-0.5,0.4c0.8,0.5,1.5,1.2,2.1,1.8
				C209.4,18.7,210.4,17.9,211.2,17.1z M213.2,15.1l1.4,0.9c-2.3,4.2-7.5,6.4-12.7,7.4c-0.2-0.5-0.6-1.4-1-1.9
				c1.8-0.3,3.7-0.7,5.4-1.4c-0.5-0.5-1.1-1.1-1.8-1.6c-0.5,0.3-1.1,0.6-1.7,0.8c-0.3-0.5-1-1.2-1.5-1.5c2.9-1.1,5.1-2.6,6.3-4.1
				l2.3,0.5c-0.3,0.3-0.6,0.7-1,1h3.8L213.2,15.1z M213.7,23.9h-4.1c-0.3,0.2-0.7,0.5-1.1,0.7c0.7,0.5,1.6,1.2,2.1,1.8
				C211.9,25.7,213,24.9,213.7,23.9z M215.6,21.8l1.5,0.9c-2.6,5.5-8.5,7.4-15.5,8.1c-0.2-0.6-0.5-1.5-0.9-2.1
				c2.9-0.2,5.6-0.6,7.9-1.4c-0.5-0.5-1.2-1.1-1.9-1.7c-0.7,0.4-1.5,0.7-2.3,1c-0.3-0.5-0.9-1.3-1.3-1.7c3.7-1.2,6.3-2.9,7.6-4.7
				l2.3,0.5c-0.4,0.4-0.7,0.8-1.1,1.2h3.3L215.6,21.8z M235.2,23.7h3v-0.8h-3V23.7z M235.2,20.8v0.8h3v-0.8H235.2z M243.5,20.8h-3.2
				v0.8h3.2V20.8z M243.5,23.7v-0.8h-3.2v0.8H243.5z M240.4,28.5h7.3v1.7h-16.5v-1.7h7.1v-1h-5.7v-1.6h5.7v-0.8h-5.1v-5.8h5.1v-0.7
				h-6.9V17h6.9v-0.8c-1.7,0.1-3.5,0.1-5.2,0.1c0-0.5-0.3-1.2-0.4-1.7c4.2-0.1,9.2-0.4,12.2-0.9l1,1.7c-1.6,0.3-3.5,0.5-5.5,0.6V17
				h7.1v1.7h-7.1v0.7h5.4v5.8h-5.4v0.8h6.1v1.6h-6.1V28.5z M276,25.8h-4.3c-0.2,0.2-0.3,0.5-0.5,0.7c1.1,0.2,2.2,0.4,3.2,0.7
				C275,26.8,275.6,26.4,276,25.8z M268.9,19v1.7h1.9V19H268.9z M272.9,16.3v1h2.1v-1H272.9z M279.1,19H277v1.7h2.2V19z M272.9,20.7
				h2.1V19h-2.1V20.7z M282.2,25.8h-3.6c-0.5,0.8-1,1.4-1.6,1.9c1.9,0.5,3.7,0.9,5.1,1.4l-1.9,1.5c-1.3-0.5-3.1-1-5.2-1.6
				c-2.1,1-4.8,1.4-8.3,1.7c-0.1-0.6-0.5-1.4-0.8-1.9c2.2-0.1,4.1-0.3,5.7-0.6c-1.2-0.2-2.3-0.5-3.6-0.7c0.4-0.5,0.9-1.1,1.4-1.7
				h-3.5v-1.8h4.6c0.3-0.6,0.7-1.1,0.9-1.7h-4.4v-5.1h3.9v-1H266v-1.9h15.8v1.9H277v1h4.3v5.1h-9.7l1.9,0.4
				c-0.2,0.4-0.4,0.8-0.6,1.2h4.4c0.1-0.3,0.3-0.7,0.4-1l2.1,0.5c-0.1,0.2-0.1,0.3-0.2,0.5h2.7V25.8z"/>
		</g>
	</g>
</g>
</svg>
