<?xml version="1.0" encoding="utf-8"?>
<!-- Generator: Adobe Illustrator 25.3.1, SVG Export Plug-In . SVG Version: 6.00 Build 0)  -->
<svg version="1.1" id="圖層_1" xmlns="http://www.w3.org/2000/svg" xmlns:xlink="http://www.w3.org/1999/xlink" x="0px" y="0px"
	 viewBox="0 0 280 50" style="enable-background:new 0 0 280 50;" xml:space="preserve">
<style type="text/css">
	.st0{opacity:0.3;clip-path:url(#SVGID_2_);}
	.st1{clip-path:url(#SVGID_2_);}
	.st2{fill:#FFC404;}
	.st3{fill:#FFFFFF;filter:url(#Adobe_OpacityMaskFilter);}
	.st4{mask:url(#mask0_195_891_1_);}
	.st5{fill:#FFA300;}
	.st6{fill:#E5E5E5;}
	.st7{fill:#A48082;}
	.st8{fill:#DB0059;}
	.st9{fill:#6262B7;}
	.st10{fill:#474747;}
	.st11{opacity:0.3;}
	.st12{fill:#FFFFFF;}
	.st13{clip-path:url(#SVGID_4_);}
	.st14{opacity:0.38;}
	.st15{fill:#DB8851;}
	.st16{fill:#ED1C24;}
	.st17{opacity:0.31;fill:#FFFFFF;enable-background:new    ;}
</style>
<g>
	<g>
		<defs>
			<rect id="SVGID_1_" x="0.2" y="1.8" width="258" height="48.2"/>
		</defs>
		<clipPath id="SVGID_2_">
			<use xlink:href="#SVGID_1_"  style="overflow:visible;"/>
		</clipPath>
		<g class="st0">
			<path d="M80.8,42.1c0.2,0.7,0.5,1.2,1.1,1.6L80.8,42C80.8,42,80.8,42,80.8,42.1z"/>
			<path d="M241.1,5l-20.2,5.5l-0.4,1.4l-4.1,0.4l0.1-3.9l-27.3-1l-0.3,7.4l-5.9,0.6V5h-27.6V18l-1.9,0.2l-1.1,0.1L139.1,5L119,10.5
				l-3,11.2l-0.6,0.1l0,0l-1.4,0.1l-0.5-11c-0.1-2.9-2.6-5.2-5.6-5.1L83.6,6.8c-2.9,0.1-5.2,2.6-5.1,5.6l0.6,12.7l-3.8,0.4l0,0
				l-0.9,0.1l0.7-20.9l-27.3-1L47,28.1l-4.5,0.4l0,0l-0.1,0L40.3,3.3L29.7,4.2l-16.5,9.5l1.5,17.5l-6.2,0.6l0,0l-6.1,0.6l0,0
				l-0.7,0.1v0.7L-8,44.3l6.1-0.6l3.6-4.2v3.9l8.6-0.8l1.2-0.1l0,0l4.1-0.4l0.6,7.4L44,47.2l-0.6-7.7l3.3-0.3l0,1l27.3,1l0.2-4.5
				l4.3-0.4l0,0l1.3-0.1l0.1,2.3c0.1,2.9,2.6,5.2,5.6,5.1l24.4-1.1c2.9-0.1,5.2-2.6,5.1-5.6l-0.2-4l1.2-0.1l12.7,12.6l20.2-5.5
				l2.8-10.5l4.1-0.4v17.1H183V26.5l5.5-0.5l-0.6,18l27.3,1l0.5-14l14.6,14.5l20.2-5.5l5.4-20.2L241.1,5z M216,23.4l1.5-0.1
				l-1.7,6.4L216,23.4z"/>
		</g>
		<g class="st1">
			<g>
				<path class="st2" d="M224.1,21.1L0.2,41.9V30.9L224.1,10V21.1z"/>
				<defs>
					<filter id="Adobe_OpacityMaskFilter" filterUnits="userSpaceOnUse" x="-9.5" y="9" width="243.9" height="33.8">
						<feColorMatrix  type="matrix" values="1 0 0 0 0  0 1 0 0 0  0 0 1 0 0  0 0 0 1 0"/>
					</filter>
				</defs>
				<mask maskUnits="userSpaceOnUse" x="-9.5" y="9" width="243.9" height="33.8" id="mask0_195_891_1_">
					<path class="st3" d="M224.1,21.1L0.2,41.9V30.9L224.1,10V21.1z"/>
				</mask>
				<g class="st4">
					<path d="M-3.4,42.3l-6.1,0.6l10.4-12L7,30.2L-3.4,42.3z"/>
					<path d="M10,41l-6.1,0.6l10.4-12l6.1-0.6L10,41z"/>
					<path d="M23.3,39.8l-6.1,0.6l10.4-12l6.1-0.6L23.3,39.8z"/>
					<path d="M36.7,38.5l-6.1,0.6l10.4-12l6.1-0.6L36.7,38.5z"/>
					<path d="M50.1,37.3L44,37.8l10.4-12l6.1-0.6L50.1,37.3z"/>
					<path d="M63.5,36l-6.1,0.6l10.4-12l6.1-0.6L63.5,36z"/>
					<path d="M76.8,34.8l-6.1,0.6l10.4-12l6.1-0.6L76.8,34.8z"/>
					<path d="M90.2,33.5l-6.1,0.6l10.4-12l6.1-0.6L90.2,33.5z"/>
					<path d="M103.6,32.3l-6.1,0.6l10.4-12l6.1-0.6L103.6,32.3z"/>
					<path d="M117,31l-6.1,0.6l10.4-12l6.1-0.6L117,31z"/>
					<path d="M130.4,29.8l-6.1,0.6l10.4-12l6.1-0.6L130.4,29.8z"/>
					<path d="M143.7,28.5l-6.1,0.6l10.4-12l6.1-0.6L143.7,28.5z"/>
					<path d="M157.1,27.3l-6.1,0.6l10.4-12l6.1-0.6L157.1,27.3z"/>
					<path d="M170.5,26.1l-6.1,0.6l10.4-12l6.1-0.6L170.5,26.1z"/>
					<path d="M183.9,24.8l-6.1,0.6l10.4-12l6.1-0.6L183.9,24.8z"/>
					<path d="M197.2,23.6l-6.1,0.6l10.4-12l6.1-0.6L197.2,23.6z"/>
					<path d="M210.6,22.3l-6.1,0.6l10.4-12l6.1-0.6L210.6,22.3z"/>
					<path d="M224,21.1l-6.1,0.6l10.4-12l6.1-0.6L224,21.1z"/>
				</g>
			</g>
			<g>
				<path class="st5" d="M42.5,45.7L14.7,48l-3-35.9l16.5-9.5l10.6-0.9L42.5,45.7z"/>
			</g>
			<g>
				<path class="st6" d="M73.7,3.2l-27.3-1l-1.3,36.5l27.3,1L73.7,3.2z"/>
				<path class="st7" d="M80.4,42.3l-1.1-1.8c0,0,0,0.1,0,0.1C79.5,41.3,79.8,41.9,80.4,42.3z"/>
			</g>
			<g>
				<path class="st8" d="M106.6,4.3L82.2,5.4C79.2,5.5,77,8,77.1,10.9l1.1,26c0.1,2.9,2.6,5.2,5.6,5.1l24.4-1.1
					c2.9-0.1,5.2-2.6,5.1-5.6l-1.1-26C112,6.4,109.5,4.2,106.6,4.3z"/>
			</g>
			<g>
				<path class="st9" d="M127,43.9l-14.8-14.7L117.5,9l20.2-5.5l14.8,14.7l-5.4,20.2L127,43.9z"/>
			</g>
			<g>
				<path class="st9" d="M228.9,43.9l-14.8-14.7L219.4,9l20.2-5.5l14.8,14.7L249,38.5L228.9,43.9z"/>
			</g>
			<g>
				<path class="st10" d="M181.6,3.6H154v41.1h27.6V3.6z"/>
			</g>
			<g>
				<path class="st8" d="M215.1,6.9l-27.3-1l-1.3,36.5l27.3,1L215.1,6.9z"/>
				<path class="st7" d="M221.7,46l-1.1-1.8c0,0,0,0.1,0,0.1C220.8,45,221.2,45.6,221.7,46z"/>
			</g>
			<g class="st11">
				<path d="M35.7,19.5L34,20.6c-0.5-0.8-1.5-2-2.5-2.9l1.6-1.1C34,17.5,35.2,18.6,35.7,19.5z M33.4,23.7l1.8,0.8
					c-0.8,1.4-1.8,2.7-2.9,3.8c0.5,1.3,1,2.2,1.5,2.2c0.4,0,0.6-0.8,0.7-2.9c0.5,0.5,1.2,1,1.7,1.2c-0.3,3.1-1,3.8-2.6,3.8
					c-1.3,0-2.3-1.1-3-2.8c-1,0.8-2.1,1.6-3.2,2.1c-0.3-0.5-0.9-1.2-1.4-1.7c1.3-0.6,2.7-1.5,3.9-2.5c-0.4-1.4-0.7-3-0.9-4.7h-3.6v2
					c0.9-0.2,1.8-0.3,2.7-0.5l0.2,1.9l-2.9,0.6v3c0,1.1-0.2,1.7-0.9,2c-0.7,0.3-1.7,0.4-3.2,0.4C21.4,32,21,31,20.7,30.4
					c1,0.1,2,0,2.3,0c0.3,0,0.4-0.1,0.4-0.4v-2.5c-1.1,0.2-2.2,0.5-3.1,0.6l-0.5-2.1c1-0.2,2.3-0.4,3.6-0.6v-2.3h-3.3v-2h3.3v-2
					c-0.9,0.2-1.9,0.3-2.8,0.4c-0.1-0.5-0.4-1.3-0.6-1.8c2.5-0.3,5.2-0.9,7-1.5l1.4,1.8c-0.9,0.3-1.8,0.5-2.9,0.7v2.4h3.4
					c-0.1-1.6-0.2-3.2-0.2-4.8h2.2c0,1.6,0,3.3,0.2,4.8h4.8v2h-4.6c0.1,1.1,0.3,2.1,0.5,3C32.4,25.3,33,24.5,33.4,23.7z M55.8,28.9
					h2.8v-3.4h-2.8V28.9z M58.6,23.7v-2.8h-2.8v2.8H58.6z M64.2,18.9h4.9c0,0,0,0.7,0,0.9c-0.2,7.8-0.4,10.6-1.1,11.5
					c-0.5,0.6-1,0.8-1.7,1c-0.7,0.1-1.7,0.1-2.8,0c0-0.6-0.3-1.5-0.7-2c1.1,0.1,2.2,0.1,2.6,0.1c0.4,0,0.5-0.1,0.8-0.3
					c0.5-0.6,0.7-3.2,0.9-9.4h-3.7c-0.5,1.1-1,2-1.5,2.8c-0.3-0.3-0.9-0.7-1.3-1v8.2h-4.7V32h-1.9V19h2c0.2-0.9,0.4-2,0.5-2.8
					l2.3,0.3c-0.3,0.9-0.6,1.8-0.9,2.5h2.7v2.8c1-1.5,1.9-3.6,2.4-5.6l2,0.5C64.7,17.4,64.4,18.1,64.2,18.9z M66.2,26.9L64.4,28
					c-0.5-1.1-1.6-2.8-2.4-4l1.6-0.9C64.5,24.2,65.6,25.9,66.2,26.9z M93.5,21.9v1.2c0,0.7,0,1.5-0.1,2.3c0.5-0.4,1.2-0.8,1.8-1.3
					v-1.2l-0.6,0.5C94.4,23,94,22.4,93.5,21.9z M95.3,18.7h-1.8v2l0.5-0.4c0.4,0.4,0.9,0.8,1.2,1.2V18.7z M104.8,30.3h0.2
					c0.1,0,0.2,0,0.2-0.1c0.1-0.1,0.1-0.2,0.1-0.6c0-0.4,0.1-1.2,0.1-2.2c0.4,0.4,1.1,0.7,1.6,0.9c0,0.9-0.1,2.1-0.2,2.6
					c-0.1,0.5-0.3,0.8-0.6,1.1c-0.2,0.2-0.7,0.3-1.1,0.3h-1c-0.4,0-0.9-0.1-1.2-0.5c-0.3-0.4-0.5-0.8-0.5-2.3V18.8h-1.9v5.2
					c0,2.7-0.2,6.5-1.9,8.7c-0.4-0.4-1.2-1-1.7-1.2c-0.1,0.2-0.3,0.4-0.5,0.5c-0.5,0.3-1.3,0.4-2.4,0.4c-0.1-0.5-0.3-1.5-0.6-2
					c0.6,0,1.3,0,1.5,0c0.2,0,0.3-0.1,0.3-0.3v-4c-0.4,0.4-0.9,0.9-1.3,1.3l-0.6-1.1c-0.2,2.2-0.5,4.6-1.3,6.3
					c-0.4-0.3-1.2-0.8-1.7-1c1.1-2.4,1.2-5.9,1.2-8.5v-6.4h5.7v13.3c0,0.5,0,0.8-0.1,1.1c1.3-2,1.5-5,1.5-7.3v-7.1h6v12.7
					c0,0.4,0,0.7,0.1,0.8C104.7,30.3,104.8,30.3,104.8,30.3z M139.4,18.7v11.6c0,1.1-0.2,1.6-0.9,2c-0.6,0.4-1.6,0.4-3,0.4
					c-0.1-0.6-0.4-1.5-0.6-2.1l0.2,0c-0.7-0.7-1.9-1.7-3-2.6c-0.7,1.1-1.8,2-3.6,2.8c-0.2-0.5-0.8-1.2-1.2-1.6c3-1.1,3.6-3,4-4.7
					h2.2c-0.1,0.6-0.3,1.2-0.5,1.8c1.3,0.9,3,2.2,3.8,3l-1.5,1.4c0.7,0,1.4,0,1.7,0c0.3,0,0.4-0.1,0.4-0.4v-9.5h-4.5
					c0,0.1-0.1,0.3-0.1,0.4c1.4,0.8,3.3,2,4.2,2.8l-1.4,1.6c-0.8-0.7-2.2-1.8-3.5-2.6c-0.7,1.1-1.8,2.1-3.5,2.8
					c-0.2-0.5-0.8-1.2-1.2-1.6c1.9-0.8,2.9-1.9,3.4-3.4h-3.6v11.9h-2.1V18.7h6.2c0.1-0.8,0.1-1.5,0.2-2.4h2.2
					c-0.1,0.9-0.1,1.6-0.2,2.4H139.4z M173,18.4v-0.6h-7.3v0.6H173z M173,20v-0.6h-7.3V20H173z M175.1,16.7v4.3h-11.4v-4.3H175.1z
					 M177.4,21.6v1.5h-15.8v-1.5H177.4z M165.4,26.9h3v-0.6h-3V26.9z M165.4,24.7v0.6h3v-0.6H165.4z M173.5,25.3v-0.6h-3.1v0.6
					H173.5z M173.5,26.9v-0.6h-3.1v0.6H173.5z M170.4,30.6h7v1.5h-15.9v-1.5h6.9V30h-5.4v-1.3h5.4v-0.6h-5v-4.5h12.1v4.5h-5.1v0.6
					h5.4V30h-5.4V30.6z M200.7,26h-2c-0.2,0.2-0.4,0.4-0.6,0.6c0.5,0.4,1,0.8,1.4,1.2C200,27.2,200.4,26.6,200.7,26z M200.1,19.4
					h-2.3l-0.2,0.2c0.5,0.3,1.1,0.7,1.5,1.1C199.5,20.3,199.8,19.9,200.1,19.4z M201.6,24.2l0.4-0.1l1.3,0.5c-1.2,4.2-4,6.6-7.6,7.8
					c-0.2-0.5-0.7-1.2-1.1-1.5c1.3-0.4,2.6-1,3.7-1.9c-0.4-0.4-0.9-1-1.5-1.4c-0.3,0.2-0.6,0.4-0.9,0.6c-0.2-0.4-0.8-1-1.2-1.3
					c1.7-0.9,2.9-2.1,3.7-3.2c-0.8,0.5-1.6,1-2.5,1.3c-0.2-0.4-0.7-1.1-1.1-1.5c1.1-0.4,2.2-0.9,3.1-1.6c-0.4-0.4-0.9-0.8-1.4-1.2
					c-0.2,0.2-0.5,0.4-0.7,0.6c-0.3-0.4-0.8-0.9-1.3-1.2c1.7-1.2,2.9-2.7,3.5-4l1.8,0.3c-0.2,0.4-0.5,0.8-0.7,1.3h2l0.4-0.1l1.2,0.6
					c-0.6,2-1.8,3.5-3.2,4.7l1.4,0.3c-0.2,0.3-0.4,0.7-0.6,1H201.6z M206.2,23.6h-1.2v3.1h1.2V23.6z M210.7,18.7v0.9
					c-0.1,8.2-0.2,10.9-0.8,11.8c-0.4,0.6-0.8,0.8-1.4,0.9c-0.6,0.1-1.4,0.1-2.2,0.1c0-0.6-0.3-1.4-0.6-2c0.8,0.1,1.5,0.1,1.9,0.1
					c0.3,0,0.4-0.1,0.6-0.3c0.4-0.5,0.5-3,0.6-9.7h-4.1c-0.3,0.5-0.6,1-0.9,1.5h4.1v6.4h-2.8v1.2h-1.7v-7.1
					c-0.2,0.3-0.4,0.5-0.6,0.7c-0.3-0.4-1.1-1-1.6-1.3c1.4-1.3,2.5-3.5,3.1-5.8l1.9,0.5c-0.2,0.7-0.5,1.4-0.7,2H210.7z M231.8,19.7
					h-1.4v6.1h1.4V19.7z M233.7,27.7h-3.2v1.4h-1.8V17.7h5.1V27.7z M234.3,32.1l-1.5-0.8c0.7-1,1.1-2.5,1.3-3.9l1.5,0.4
					C235.4,29.3,235.1,31,234.3,32.1z M236,27.6l1.4-0.2c0.3,1.1,0.5,2.6,0.4,3.6l-1.5,0.2C236.4,30.3,236.2,28.8,236,27.6z
					 M237.9,27.5l1.2-0.4c0.4,1,0.8,2.2,0.9,3.1l-1.3,0.4C238.7,29.8,238.3,28.5,237.9,27.5z M242,29.3l-1.2,0.5
					c-0.1-0.7-0.5-1.7-1-2.5l1.1-0.4C241.4,27.6,241.8,28.6,242,29.3z M236.6,23.9v1h1.9v-1H236.6z M238.5,18.7h-1.9v1h1.9V18.7z
					 M238.5,22.3v-1h-1.9v1H238.5z M240.4,25h3.8c0,0,0,0.5,0,0.8c-0.2,4-0.4,5.6-0.8,6.1c-0.3,0.4-0.7,0.6-1.2,0.6
					c-0.4,0.1-1.1,0.1-1.8,0.1c0-0.5-0.2-1.3-0.5-1.8c0.6,0.1,1.1,0.1,1.4,0.1c0.2,0,0.4,0,0.5-0.2c0.2-0.3,0.4-1.3,0.5-3.9h-7.6
					v-9.8h9.1v1.8h-3.3v1h2.8v1.6h-2.8v1h2.8v1.6h-2.8V25z"/>
			</g>
			<g>
				<path class="st12" d="M34.2,18l-1.7,1.2c-0.5-0.8-1.5-2-2.5-2.9l1.6-1.1C32.6,16,33.7,17.2,34.2,18z M32,22.2l1.8,0.8
					c-0.8,1.4-1.8,2.7-2.9,3.8c0.5,1.3,1,2.2,1.5,2.2c0.4,0,0.6-0.8,0.7-2.9c0.5,0.5,1.2,1,1.7,1.2c-0.3,3.1-1,3.8-2.6,3.8
					c-1.3,0-2.3-1.1-3-2.8c-1,0.8-2.1,1.6-3.2,2.1c-0.3-0.5-0.9-1.2-1.4-1.7c1.3-0.6,2.7-1.5,3.9-2.5c-0.4-1.4-0.7-3-0.9-4.7h-3.6v2
					c0.9-0.2,1.8-0.3,2.7-0.5l0.2,1.9l-2.9,0.6v3c0,1.1-0.2,1.7-0.9,2c-0.7,0.3-1.7,0.4-3.2,0.4c-0.1-0.6-0.4-1.5-0.7-2.1
					c1,0.1,2,0,2.3,0c0.3,0,0.4-0.1,0.4-0.4v-2.5c-1.1,0.2-2.2,0.5-3.1,0.6l-0.5-2.1c1-0.2,2.3-0.4,3.6-0.6v-2.3h-3.3v-2H22v-2
					c-0.9,0.2-1.9,0.3-2.8,0.4c-0.1-0.5-0.4-1.3-0.6-1.8c2.5-0.3,5.2-0.9,7-1.5l1.4,1.8c-0.9,0.3-1.8,0.5-2.9,0.7v2.4h3.4
					c-0.1-1.6-0.2-3.2-0.2-4.8h2.2c0,1.6,0,3.3,0.2,4.8h4.8v2h-4.6c0.1,1.1,0.3,2.1,0.5,3C30.9,23.9,31.5,23.1,32,22.2z M54.4,27.4
					h2.8V24h-2.8V27.4z M57.1,22.2v-2.8h-2.8v2.8H57.1z M62.7,17.4h4.9c0,0,0,0.7,0,0.9c-0.2,7.8-0.4,10.6-1.1,11.5
					c-0.5,0.6-1,0.8-1.7,1c-0.7,0.1-1.7,0.1-2.8,0c0-0.6-0.3-1.5-0.7-2C62.5,29,63.5,29,64,29c0.4,0,0.5-0.1,0.8-0.3
					c0.5-0.6,0.7-3.2,0.9-9.4h-3.7c-0.5,1.1-1,2-1.5,2.8c-0.3-0.3-0.9-0.7-1.3-1v8.2h-4.7v1.3h-1.9v-13h2c0.2-0.9,0.4-2,0.5-2.8
					l2.3,0.3c-0.3,0.9-0.6,1.8-0.9,2.5H59v2.8c1-1.5,1.9-3.6,2.4-5.6l2,0.5C63.2,16,63,16.7,62.7,17.4z M64.7,25.4L63,26.5
					c-0.5-1.1-1.6-2.8-2.4-4l1.6-0.9C63,22.7,64.2,24.4,64.7,25.4z M92.1,20.5v1.2c0,0.7,0,1.5-0.1,2.3c0.5-0.4,1.2-0.8,1.8-1.3
					v-1.2l-0.6,0.5C93,21.5,92.5,21,92.1,20.5z M93.8,17.3h-1.8v2l0.5-0.4c0.4,0.4,0.9,0.8,1.2,1.2V17.3z M103.4,28.9h0.2
					c0.1,0,0.2,0,0.2-0.1c0.1-0.1,0.1-0.2,0.1-0.6c0-0.4,0.1-1.2,0.1-2.2c0.4,0.4,1.1,0.7,1.6,0.9c0,0.9-0.1,2.1-0.2,2.6
					c-0.1,0.5-0.3,0.8-0.6,1.1c-0.2,0.2-0.7,0.3-1.1,0.3h-1c-0.4,0-0.9-0.1-1.2-0.5c-0.3-0.4-0.5-0.8-0.5-2.3V17.3h-1.9v5.2
					c0,2.7-0.2,6.5-1.9,8.7c-0.4-0.4-1.2-1-1.7-1.2c-0.1,0.2-0.3,0.4-0.5,0.5c-0.5,0.3-1.3,0.4-2.4,0.4c-0.1-0.5-0.3-1.5-0.6-2
					c0.6,0,1.3,0,1.5,0c0.2,0,0.3-0.1,0.3-0.3v-4c-0.4,0.4-0.9,0.9-1.3,1.3L92,24.8c-0.2,2.2-0.5,4.6-1.3,6.3
					c-0.4-0.3-1.2-0.8-1.7-1c1.1-2.4,1.2-5.9,1.2-8.5v-6.4h5.7v13.3c0,0.5,0,0.8-0.1,1.1c1.3-2,1.5-5,1.5-7.3v-7.1h6V28
					c0,0.4,0,0.7,0.1,0.8C103.2,28.8,103.3,28.9,103.4,28.9z M137.9,17.2v11.6c0,1.1-0.2,1.6-0.9,2c-0.6,0.4-1.6,0.4-3,0.4
					c-0.1-0.6-0.4-1.5-0.6-2.1l0.2,0c-0.7-0.7-1.9-1.7-3-2.6c-0.7,1.1-1.8,2-3.6,2.8c-0.2-0.5-0.8-1.2-1.2-1.6c3-1.1,3.6-3,4-4.7
					h2.2c-0.1,0.6-0.3,1.2-0.5,1.8c1.3,0.9,3,2.2,3.8,3l-1.5,1.4c0.7,0,1.4,0,1.7,0c0.3,0,0.4-0.1,0.4-0.4v-9.5h-4.5
					c0,0.1-0.1,0.3-0.1,0.4c1.4,0.8,3.3,2,4.2,2.8L134,24c-0.8-0.7-2.2-1.8-3.5-2.6c-0.7,1.1-1.8,2.1-3.5,2.8
					c-0.2-0.5-0.8-1.2-1.2-1.6c1.9-0.8,2.9-1.9,3.4-3.4h-3.6v11.9h-2.1V17.2h6.2c0.1-0.8,0.1-1.5,0.2-2.4h2.2
					c-0.1,0.9-0.1,1.6-0.2,2.4H137.9z M171.6,16.9v-0.6h-7.3v0.6H171.6z M171.6,18.5v-0.6h-7.3v0.6H171.6z M173.7,15.3v4.3h-11.4
					v-4.3H173.7z M175.9,20.1v1.5h-15.8v-1.5H175.9z M163.9,25.5h3v-0.6h-3V25.5z M163.9,23.2v0.6h3v-0.6H163.9z M172,23.9v-0.6H169
					v0.6H172z M172,25.5v-0.6H169v0.6H172z M169,29.1h7v1.5h-15.9v-1.5h6.9v-0.6h-5.4v-1.3h5.4v-0.6h-5v-4.5h12.1v4.5H169v0.6h5.4
					v1.3H169V29.1z M199.3,24.5h-2c-0.2,0.2-0.4,0.4-0.6,0.6c0.5,0.4,1,0.8,1.4,1.2C198.5,25.8,199,25.2,199.3,24.5z M198.6,18h-2.3
					l-0.2,0.2c0.5,0.3,1.1,0.7,1.5,1.1C198,18.9,198.3,18.4,198.6,18z M200.2,22.7l0.4-0.1l1.3,0.5c-1.2,4.2-4,6.6-7.6,7.8
					c-0.2-0.5-0.7-1.2-1.1-1.5c1.3-0.4,2.6-1,3.7-1.9c-0.4-0.4-0.9-1-1.5-1.4c-0.3,0.2-0.6,0.4-0.9,0.6c-0.2-0.4-0.8-1-1.2-1.3
					c1.7-0.9,2.9-2.1,3.7-3.2c-0.8,0.5-1.6,1-2.5,1.3c-0.2-0.4-0.7-1.1-1.1-1.5c1.1-0.4,2.2-0.9,3.1-1.6c-0.4-0.4-0.9-0.8-1.4-1.2
					c-0.2,0.2-0.5,0.4-0.7,0.6c-0.3-0.4-0.8-0.9-1.3-1.2c1.7-1.2,2.9-2.7,3.5-4l1.8,0.3c-0.2,0.4-0.5,0.8-0.7,1.3h2l0.4-0.1l1.2,0.6
					c-0.6,2-1.8,3.5-3.2,4.7l1.4,0.3c-0.2,0.3-0.4,0.7-0.6,1H200.2z M204.8,22.2h-1.2v3.1h1.2V22.2z M209.3,17.2v0.9
					c-0.1,8.2-0.2,10.9-0.8,11.8c-0.4,0.6-0.8,0.8-1.4,0.9c-0.6,0.1-1.4,0.1-2.2,0.1c0-0.6-0.3-1.4-0.6-2c0.8,0.1,1.5,0.1,1.9,0.1
					c0.3,0,0.4-0.1,0.6-0.3c0.4-0.5,0.5-3,0.6-9.7h-4.1c-0.3,0.5-0.6,1-0.9,1.5h4.1v6.4h-2.8v1.2h-1.7V21c-0.2,0.3-0.4,0.5-0.6,0.7
					c-0.3-0.4-1.1-1-1.6-1.3c1.4-1.3,2.5-3.5,3.1-5.8l1.9,0.5c-0.2,0.7-0.5,1.4-0.7,2H209.3z M230.4,18.2H229v6.1h1.4V18.2z
					 M232.2,26.3H229v1.4h-1.8V16.3h5.1V26.3z M232.8,30.6l-1.5-0.8c0.7-1,1.1-2.5,1.3-3.9l1.5,0.4
					C233.9,27.8,233.6,29.5,232.8,30.6z M234.5,26.2l1.4-0.2c0.3,1.1,0.5,2.6,0.4,3.6l-1.5,0.2C234.9,28.8,234.8,27.3,234.5,26.2z
					 M236.4,26.1l1.2-0.4c0.4,1,0.8,2.2,0.9,3.1l-1.3,0.4C237.2,28.4,236.8,27,236.4,26.1z M240.5,27.8l-1.2,0.5
					c-0.1-0.7-0.5-1.7-1-2.5l1.1-0.4C239.9,26.1,240.3,27.1,240.5,27.8z M235.1,22.5v1h1.9v-1H235.1z M237,17.2h-1.9v1h1.9V17.2z
					 M237,20.9v-1h-1.9v1H237z M238.9,23.5h3.8c0,0,0,0.5,0,0.8c-0.2,4-0.4,5.6-0.8,6.1c-0.3,0.4-0.7,0.6-1.2,0.6
					c-0.4,0.1-1.1,0.1-1.8,0.1c0-0.5-0.2-1.3-0.5-1.8c0.6,0.1,1.1,0.1,1.4,0.1c0.2,0,0.4,0,0.5-0.2c0.2-0.3,0.4-1.3,0.5-3.9h-7.6
					v-9.8h9.1v1.8h-3.3v1h2.8v1.6h-2.8v1h2.8v1.6h-2.8V23.5z"/>
			</g>
		</g>
	</g>
	<g>
		<defs>
			<rect id="SVGID_3_" x="247.7" width="32.1" height="50"/>
		</defs>
		<clipPath id="SVGID_4_">
			<use xlink:href="#SVGID_3_"  style="overflow:visible;"/>
		</clipPath>
		<g class="st13">
			<g class="st14">
				<path class="st15" d="M279.8,11.4L276.4,50L263,45.6l-14.3,0.5l8.2-32.5L279.8,11.4z"/>
			</g>
			<path class="st12" d="M254.8,7.7L252,28l-4.3,15.9l16.2,0.9l10.7,5l5.3-38.4L254.8,7.7z"/>
			<path class="st16" d="M261.7,19.4c2.7-3.8,7.7-0.5,7.2,3.4c-0.4,3.2-3.6,3.8-6.3,5c-2.5,1.2-4.7,3.3-3.2,6
				c0.1,0.2,0.4,0.5,0.6,0.6c0.3,0.1,0.5,0.2,0.8,0.2c0.3,0,0.6-0.1,0.8-0.3c0.2-0.2,0.4-0.4,0.5-0.7c1-3.5,7.2-3.7,9.4-7
				c0.8-1.2,1.3-2.7,1.3-4.2c0-1.5-0.4-2.9-1.3-4.2c-1.6-2.4-4.9-4.5-8.1-3.7c-2.3,0.6-4,2.8-2.7,4.8
				C260.9,19.6,261.5,19.8,261.7,19.4L261.7,19.4z"/>
			<path class="st16" d="M261.4,39c-0.2-0.4-0.6-0.7-1-0.9c-0.4-0.2-0.9-0.2-1.4,0c-1.2,0.5-1.5,1.9-0.4,2.7c1.1,0.8,2.6,0.2,2.8-1
				c-0.1,0.2-0.2,0.4-0.3,0.7C261.4,40,261.7,39.5,261.4,39L261.4,39z"/>
			<path class="st17" d="M273.8,0c-1,1.1-2.1,2.7-3,3.4c-0.9,0.7,0.7-2-1.1-1.4c-0.4-0.1-1.4,1.1-1.9,1.8c-1.1-0.9-2.3-0.9-3.5-0.7
				l-1.8,13.3L274,18l2-14.8c-0.5,0.4-1,0.7-1.2,1.3C274.7,2.7,274.9,1,273.8,0z"/>
			<path class="st17" d="M274.7,2.6c-2.2,2-4.4,3.9-6.5,5.9c-1.8,1.6-3.5,3.2-5.3,4.8l-0.4,3l2.4,0.3c2-1.8,4-3.6,5.9-5.4
				c1.6-1.5,3.2-3,4.8-4.5l0.5-3.7c-0.5,0.4-1,0.7-1.2,1.3C274.8,3.8,274.8,3.2,274.7,2.6z"/>
			<path class="st17" d="M264.3,3.1l-0.4,3c1-1,1.9-1.9,2.9-2.8C266,3,265.1,2.9,264.3,3.1z"/>
		</g>
	</g>
</g>
</svg>
