<?xml version="1.0" encoding="utf-8"?>
<!-- Generator: Adobe Illustrator 25.3.1, SVG Export Plug-In . SVG Version: 6.00 Build 0)  -->
<svg version="1.1" id="圖層_1" xmlns="http://www.w3.org/2000/svg" xmlns:xlink="http://www.w3.org/1999/xlink" x="0px" y="0px"
	 viewBox="0 0 250 50" style="enable-background:new 0 0 250 50;" xml:space="preserve">
<style type="text/css">
	.st0{opacity:0.3;clip-path:url(#SVGID_2_);}
	.st1{clip-path:url(#SVGID_2_);}
	.st2{fill:#FFC404;}
	.st3{fill:#FFFFFF;filter:url(#Adobe_OpacityMaskFilter);}
	.st4{mask:url(#mask0_103_4914_1_);}
	.st5{fill:#FFA300;}
	.st6{fill:#474747;}
	.st7{fill:#DB0059;}
	.st8{fill:#6262B7;}
	.st9{opacity:0.3;}
	.st10{fill:#FFFFFF;}
</style>
<g>
	<defs>
		<rect id="SVGID_1_" x="7" width="236" height="50"/>
	</defs>
	<clipPath id="SVGID_2_">
		<use xlink:href="#SVGID_1_"  style="overflow:visible;"/>
	</clipPath>
	<g class="st0">
		<path d="M231.8,11.3l0.1-4.1l-28.4-1l-0.3,7.7l-6.1,0.6V3.7h-28.6v13.4l-3.1,0.3L151.6,3.7l-20.9,5.7L127.6,21l-2,0.2l-0.5-11.4
			c-0.1-3-2.7-5.4-5.8-5.3L94,5.6c-3.1,0.1-5.4,2.7-5.3,5.8l0.6,13.2L84.4,25l0.8-21.7l-28.4-1l-0.9,25.3l-4.7,0.4L49,1.9L38,2.8
			l-17.2,9.8l1.5,18.2L8.9,32v11.5l14.4-1.3l0.6,7.7l28.8-2.4l-0.7-8l3.4-0.3l0,1l28.4,1l0.2-4.7l5.8-0.5l0.1,2.4
			c0.1,3,2.7,5.4,5.8,5.3l25.3-1.1c3.1-0.1,5.4-2.7,5.3-5.8l-0.2-4.2l1.2-0.1l13.2,13.1l20.9-5.7l2.9-10.9l4.2-0.4v17.8h28.6V26
			l5.7-0.5l-0.7,18.7l28.4,1l0.8-22.3l9.9-0.9V10.4L231.8,11.3z"/>
	</g>
	<g class="st1">
		<g>
			<path class="st2" d="M239.4,20L7,41.6V30.2L239.4,8.5V20z"/>
			<defs>
				<filter id="Adobe_OpacityMaskFilter" filterUnits="userSpaceOnUse" x="-3.1" y="7.5" width="253.1" height="35.1">
					<feColorMatrix  type="matrix" values="1 0 0 0 0  0 1 0 0 0  0 0 1 0 0  0 0 0 1 0"/>
				</filter>
			</defs>
			<mask maskUnits="userSpaceOnUse" x="-3.1" y="7.5" width="253.1" height="35.1" id="mask0_103_4914_1_">
				<path class="st3" d="M239.4,20L7,41.6V30.2L239.4,8.5V20z"/>
			</mask>
			<g class="st4">
				<path d="M3.2,42l-6.3,0.6L7.7,30.1l6.3-0.6L3.2,42z"/>
				<path d="M17.1,40.7l-6.3,0.6l10.8-12.5l6.3-0.6L17.1,40.7z"/>
				<path d="M31,39.4L24.7,40l10.8-12.5l6.3-0.6L31,39.4z"/>
				<path d="M44.9,38.1l-6.3,0.6l10.8-12.5l6.3-0.6L44.9,38.1z"/>
				<path d="M58.8,36.8l-6.3,0.6l10.8-12.5l6.3-0.6L58.8,36.8z"/>
				<path d="M72.7,35.5l-6.3,0.6l10.8-12.5l6.3-0.6L72.7,35.5z"/>
				<path d="M86.5,34.2l-6.3,0.6L91,22.3l6.3-0.6L86.5,34.2z"/>
				<path d="M100.4,32.9l-6.3,0.6L104.9,21l6.3-0.6L100.4,32.9z"/>
				<path d="M114.3,31.6l-6.3,0.6l10.8-12.5l6.3-0.6L114.3,31.6z"/>
				<path d="M128.2,30.3l-6.3,0.6l10.8-12.5l6.3-0.6L128.2,30.3z"/>
				<path d="M142.1,29l-6.3,0.6l10.8-12.5l6.3-0.6L142.1,29z"/>
				<path d="M156,27.7l-6.3,0.6l10.8-12.5l6.3-0.6L156,27.7z"/>
				<path d="M169.8,26.4l-6.3,0.6l10.8-12.5l6.3-0.6L169.8,26.4z"/>
				<path d="M183.7,25.2l-6.3,0.6l10.8-12.5l6.3-0.6L183.7,25.2z"/>
				<path d="M197.6,23.9l-6.3,0.6L202.1,12l6.3-0.6L197.6,23.9z"/>
				<path d="M211.5,22.6l-6.3,0.6L216,10.7l6.3-0.6L211.5,22.6z"/>
				<path d="M225.4,21.3l-6.3,0.6l10.8-12.5l6.3-0.6L225.4,21.3z"/>
				<path d="M239.3,20l-6.3,0.6l10.8-12.5l6.3-0.6L239.3,20z"/>
			</g>
		</g>
		<g>
			<path class="st5" d="M50.9,45.6L22,48L19,10.7l17.2-9.8l11-0.9L50.9,45.6z"/>
		</g>
		<g>
			<path class="st6" d="M83.3,1.4l-28.4-1l-1.3,37.9l28.4,1L83.3,1.4z"/>
		</g>
		<g>
			<path class="st7" d="M117.4,2.6L92.1,3.7c-3.1,0.1-5.4,2.7-5.3,5.8l1.2,27c0.1,3,2.7,5.4,5.8,5.3l25.3-1.1
				c3.1-0.1,5.4-2.7,5.3-5.8l-1.2-27C123,4.8,120.5,2.4,117.4,2.6z"/>
		</g>
		<g>
			<path class="st8" d="M138.6,43.7l-15.4-15.3l5.6-20.9l20.9-5.7L165,17.1L159.5,38L138.6,43.7z"/>
		</g>
		<g>
			<path class="st6" d="M195.2,1.8h-28.6v42.7h28.6V1.8z"/>
		</g>
		<g>
			<path class="st7" d="M230,5.3l-28.4-1l-1.3,37.9l28.4,1L230,5.3z"/>
		</g>
		<g class="st9">
			<path d="M30.2,14.5l2,0.6c-0.3,1.1-0.7,2.2-1.2,3.3v13h-2.1v-9.1c-0.4,0.6-0.8,1.1-1.1,1.5c-0.2-0.5-0.7-1.7-1-2.3
				C28.1,19.9,29.4,17.2,30.2,14.5z M40,24.1l1.1-0.7c0.3,0.3,0.6,0.5,0.8,0.8v-1.1h-3.5c0.4,0.3,0.8,0.6,1,0.9l-1.2,0.7
				c-0.3-0.4-0.9-0.9-1.4-1.3l0.5-0.3h-3.9v1.2c0.3-0.3,0.5-0.6,0.7-0.9l0.9,0.4v-0.4h1.7v0.8c0,0.4,0.1,0.4,0.6,0.4h1.6
				c0.4,0,0.5-0.1,0.5-0.6c0.2,0.1,0.5,0.2,0.9,0.3C40.3,24.3,40.1,24.2,40,24.1z M35.8,27.8c0.5,0.4,1.2,0.7,1.9,0.9
				c0.7-0.3,1.3-0.6,1.8-0.9L35.8,27.8z M35.3,21.4v0.6h5v-0.6H35.3z M40.3,18.5h-5V19h5V18.5z M40.3,20.5v-0.6h-5v0.6H40.3z
				 M43.9,21.9v2.6h-1.7c0.3,0.3,0.6,0.7,0.8,0.9l-1.2,0.7c-0.2-0.3-0.6-0.8-1-1.3c-0.2,0.8-0.6,1-1.6,1h-1.6
				c-0.2,0.2-0.3,0.4-0.5,0.5h3.7l0.4-0.1l1.3,0.7C42,28,41.1,28.8,40,29.4c1.2,0.3,2.5,0.4,3.9,0.5c-0.4,0.4-0.8,1.1-1,1.6
				c-1.9-0.2-3.6-0.5-5.2-1.1c-1.5,0.5-3.3,0.9-5.3,1.2c-0.2-0.5-0.7-1.1-1-1.6c1.5-0.1,2.9-0.4,4.1-0.6c-0.4-0.2-0.7-0.4-1-0.7
				c-0.5,0.3-1,0.5-1.5,0.8c-0.2-0.4-0.8-1-1.2-1.2c0.5-0.2,1-0.4,1.5-0.7c-0.2-0.3-0.5-0.5-0.6-0.8l1.6-0.5
				c0.1,0.2,0.3,0.3,0.4,0.5c0.5-0.4,0.9-0.7,1.2-1.1c-0.3-0.2-0.5-0.5-0.5-1c-0.4,0.5-0.9,1.1-1.4,1.5l-1.2-0.9
				c0.3-0.2,0.6-0.4,0.9-0.7h-1.7v-2.6h1.7v-4.5h3c0.1-0.2,0.1-0.4,0.1-0.6h-4.2v-1.5h11.3v1.5h-4.8l-0.3,0.6h3.9v4.5H43.9z
				 M71.3,23.7v1.1h2v-1.1H71.3z M78.3,24.8v1.6h-3.5c1.1,0.5,2.3,1.2,3,1.7l-1.9,0.9c-0.7-0.5-1.8-1.3-2.9-1.9l1.1-0.7h-3.6
				l1.4,0.5c-0.9,0.8-2.4,1.7-3.6,2.2c-0.4-0.4-1.1-1-1.6-1.3c1.1-0.3,2.3-0.8,3.1-1.4h-3.2v-1.6h2.8v-1.1h-2.2v-1.6h2.2v-1h2v1h2
				v-1h2v1h2.2v1.6h-2.2v1.1H78.3z M76.1,16.5h-1.7v0.8h1.7V16.5z M76.8,20.9h-2c-1.7,0-2-0.6-2-2.2v-3.5h5.2v3.5h-3.5v0.1
				c0,0.5,0.1,0.7,0.5,0.7h1.9c0.3,0,0.9,0,1.2-0.1c0,0.5,0.1,1.1,0.1,1.5C77.8,20.8,77.3,20.9,76.8,20.9z M70.3,16.5h-1.7v0.8h1.7
				V16.5z M68.6,19.5L72,19c-0.2,0.4-0.3,1.1-0.3,1.5c-3.6,0.6-4.2,0.7-4.6,0.9c-0.1-0.4-0.4-1.2-0.7-1.6c0.3-0.1,0.6-0.5,0.6-1.2
				v-3.5h5.1v3.5h-3.5V19.5z M65.7,17.6l-2,0.6c-0.2-0.8-0.7-2.2-1-3.2l2-0.5C65,15.6,65.5,16.8,65.7,17.6z M65.2,22.7l1.2,0.5
				c-0.3,1.6-0.7,3.1-1.3,4.4c0.3,0.2,0.7,0.5,1.3,0.8c1.3,0.7,3,0.9,5.1,0.9c2.1,0,5.3-0.2,7.3-0.5c-0.2,0.6-0.6,1.6-0.6,2.2
				c-1.5,0.1-4.7,0.2-6.8,0.2c-2.4,0-3.9-0.2-5.3-1c-0.7-0.4-1.4-1-1.8-1c-0.4,0-1.1,1.2-1.5,2.3l-1.4-2.1c0.4-0.5,0.9-1,1.3-1.3
				c0.7-1,1.2-2.3,1.5-3.6H62c0.4-1.1,0.9-2.5,1.3-3.9h-1.6v-1.9h4.2c-0.4,1.3-0.8,2.7-1.2,4h0.2L65.2,22.7z M101.1,20.2l-1.6,0.1
				c-0.2,1.2-0.4,2.4-0.7,3.4c0.5,0.4,0.9,0.8,1.4,1.2C100.9,23.3,101.1,21.6,101.1,20.2z M104.1,20l-1,0.1
				c-0.1,1.9-0.3,4.1-1.3,6.3c0.9,0.8,1.7,1.6,2.2,2.2l-1.4,1.8c-0.5-0.6-1.1-1.3-1.9-2c-0.8,1.1-1.7,2.2-3.1,3.2
				c-0.3-0.5-1-1.2-1.5-1.5c1.4-1,2.4-2,3.1-3.2c-0.9-0.9-1.9-1.7-2.7-2.5c0.3-1.1,0.6-2.5,0.9-4l-1,0.1l-0.2-2.1c0.5,0,1,0,1.5-0.1
				c0.2-1.3,0.3-2.6,0.4-3.8l2.1,0.1c-0.1,1.1-0.3,2.4-0.5,3.6l1.3-0.1v-1.1h2v1l0.9-0.1V20z M113.2,22v2.1h-3.6v5.1
				c0,1.1-0.2,1.7-1,2c-0.7,0.3-1.8,0.4-3.2,0.3c-0.1-0.6-0.4-1.5-0.7-2.1c0.9,0,2,0,2.3,0c0.3,0,0.4-0.1,0.4-0.3v-5.1h-3.8V22h3.8
				v-1.7c0.8-0.7,1.6-1.7,2.2-2.7h-5.3v-2h6.7l0.5-0.1l1.5,1.1c-0.9,1.3-2.1,2.9-3.3,4.1V22H113.2z M141.9,22.5l0.3,1.9
				c-0.7,0.2-1.3,0.4-2,0.6v6.5h-2v-5.9c-1,0.3-1.9,0.6-2.7,0.8l-0.5-2.1c0.9-0.2,2-0.5,3.3-0.8v-3.5H137c-0.2,0.9-0.4,1.7-0.7,2.3
				c-0.3-0.3-1.1-0.8-1.5-1c0.6-1.4,0.9-3.7,1-5.9l1.8,0.3c-0.1,0.7-0.2,1.4-0.3,2.2h0.9v-3.5h2V18h1.5v2.1h-1.5V23L141.9,22.5z
				 M145.1,17.3h6.8c0,0,0,0.7,0,1c-0.3,8.1-0.7,11.1-1.4,12c-0.4,0.6-0.8,0.8-1.4,0.9c-0.5,0.1-1.3,0.1-2.1,0.1
				c-0.1-0.6-0.3-1.5-0.6-2.1c0.7,0.1,1.3,0.1,1.6,0.1c0.3,0,0.5-0.1,0.7-0.3c0.5-0.6,0.8-3.1,1.1-9.6h-0.1
				c-0.9,4.6-2.8,9.3-5.7,11.7c-0.4-0.4-1.2-0.9-1.8-1.3c2.9-2.1,4.7-6.2,5.6-10.5h-0.9c-0.8,3-2.3,6.2-4.2,8
				c-0.4-0.4-1.1-0.9-1.7-1.2c1.8-1.4,3.2-4.1,4-6.7h-0.9c-0.5,1.3-1.2,2.4-1.9,3.3c-0.3-0.3-1.2-0.9-1.6-1.2c1.4-1.6,2.4-4.2,3-6.9
				l2,0.4C145.6,15.7,145.3,16.5,145.1,17.3z M183.2,26.7v1.7h2.2v-1.7H183.2z M185.4,21.3v-1.6h-2.2v1.6H185.4z M185.4,24.8v-1.6
				h-2.2v1.6H185.4z M190.7,28.4v2h-7.5v1.1h-2.1v-9.8c-0.4,0.5-0.8,1-1.2,1.5c-0.1-0.1-0.3-0.3-0.4-0.5l0.2,1.4
				c-0.6,0.2-1.2,0.4-1.8,0.5V29c0,1-0.2,1.6-0.8,2c-0.6,0.4-1.4,0.4-2.5,0.4c-0.1-0.6-0.3-1.5-0.6-2.1c0.6,0,1.3,0,1.5,0
				c0.2,0,0.3-0.1,0.3-0.3v-3.7l-1.7,0.5l-0.5-2.1c0.6-0.1,1.4-0.3,2.2-0.5v-3.3h-2v-2h2v-3.3h2.1v3.3h1.8v2H178v2.7l1.2-0.3
				c-0.3-0.3-0.5-0.5-0.8-0.7c1.7-1.6,3.1-4.3,3.9-6.9l2,0.5c-0.3,0.8-0.6,1.7-1,2.5h2.5c-0.2-0.7-0.6-1.5-1-2.2l1.9-0.7
				c0.5,0.7,1,1.8,1.2,2.5l-1.1,0.5h3.5v2h-2.9v1.6h2.7v1.9h-2.7v1.6h2.7v1.9h-2.7v1.7H190.7z M212.2,18v-0.9h-3.4v-1.6h3.4v-0.9
				h2.1v0.9h2.2v1.6h-2.2V18H212.2z M212.7,31.4l-1.5-0.9c0.5-0.6,1-1.6,1.2-2.4l1.5,0.7C213.6,29.7,213.2,30.7,212.7,31.4z
				 M214.4,28.8l1.6-0.2c0.2,0.8,0.4,1.8,0.4,2.5l-1.7,0.3C214.6,30.6,214.5,29.6,214.4,28.8z M216.7,28.7l1.5-0.4
				c0.4,0.7,0.7,1.6,0.8,2.2l-1.6,0.5C217.3,30.3,217,29.4,216.7,28.7z M217.9,20.7v-0.7h-2.1v0.7H217.9z M222,21.9h-2.3v0.8h2.3
				V21.9z M215.8,21.9v0.8h2.1v-0.8H215.8z M211.8,22.5v0.2h2.1v-0.8h-2.1V22.5z M214,19.9h-2.1v0.7h2.1V19.9z M215.6,17.8l1.6-0.5
				c0.3,0.3,0.5,0.8,0.7,1.2h7v1.4h-5.1v0.7h4.4v3.2h-9.6v0.7h9.8v1.4h-9.8v0.7h10.2c0,0,0,0.4-0.1,0.7c-0.2,2.2-0.4,3.3-0.8,3.7
				c-0.3,0.3-0.7,0.5-1.1,0.5c-0.4,0.1-1.1,0.1-1.8,0c0-0.5-0.2-1.1-0.5-1.6c0.5,0.1,1,0.1,1.2,0.1c0.2,0,0.4,0,0.5-0.1
				c0.2-0.2,0.3-0.7,0.4-1.8h-2.2c0.4,0.5,0.8,1.1,1,1.5l-1.4,0.7c-0.2-0.5-0.7-1.2-1.1-1.7L220,28h-7.4v-4.1h-0.8
				c-0.1,2.5-0.5,5.4-1.8,7.5c-0.4-0.3-1.3-0.9-1.8-1.1c1.4-2.3,1.6-5.5,1.6-7.8v-4h6.1C215.8,18.2,215.7,18,215.6,17.8z
				 M221.6,15.5h3.5v1.6h-3.5V18h-2.1v-0.9h-2.3v-1.6h2.3v-0.9h2.1V15.5z"/>
		</g>
		<g>
			<path class="st10" d="M29,13.4l2,0.6c-0.3,1.1-0.7,2.2-1.2,3.3v13h-2.1v-9.1c-0.4,0.6-0.8,1.1-1.1,1.5c-0.2-0.5-0.7-1.7-1-2.3
				C27,18.7,28.3,16.1,29,13.4z M38.9,22.9l1.1-0.7c0.3,0.3,0.6,0.5,0.8,0.8V22h-3.5c0.4,0.3,0.8,0.6,1,0.9l-1.2,0.7
				c-0.3-0.4-0.9-0.9-1.4-1.3l0.5-0.3h-3.9v1.2c0.3-0.3,0.5-0.6,0.7-0.9l0.9,0.4v-0.4h1.7v0.8c0,0.4,0.1,0.4,0.6,0.4h1.6
				c0.4,0,0.5-0.1,0.5-0.6c0.2,0.1,0.5,0.2,0.9,0.3C39.2,23.2,39,23.1,38.9,22.9z M34.6,26.6c0.5,0.4,1.2,0.7,1.9,0.9
				c0.7-0.3,1.3-0.6,1.8-0.9L34.6,26.6z M34.2,20.2v0.6h5v-0.6H34.2z M39.2,17.4h-5v0.5h5V17.4z M39.2,19.4v-0.6h-5v0.6H39.2z
				 M42.8,20.8v2.6h-1.7c0.3,0.3,0.6,0.7,0.8,0.9l-1.2,0.7c-0.2-0.3-0.6-0.8-1-1.3c-0.2,0.8-0.6,1-1.6,1h-1.6
				c-0.2,0.2-0.3,0.4-0.5,0.5h3.7l0.4-0.1l1.3,0.7c-0.6,0.9-1.4,1.6-2.6,2.3c1.2,0.3,2.5,0.4,3.9,0.5c-0.4,0.4-0.8,1.1-1,1.6
				c-1.9-0.2-3.6-0.5-5.2-1.1c-1.5,0.5-3.3,0.9-5.3,1.2c-0.2-0.5-0.7-1.1-1-1.6c1.5-0.1,2.9-0.4,4.1-0.6c-0.4-0.2-0.7-0.4-1-0.7
				c-0.5,0.3-1,0.5-1.5,0.8c-0.2-0.4-0.8-1-1.2-1.2c0.5-0.2,1-0.4,1.5-0.7c-0.2-0.3-0.5-0.5-0.6-0.8l1.6-0.5
				c0.1,0.2,0.3,0.3,0.4,0.5c0.5-0.4,0.9-0.7,1.2-1.1c-0.3-0.2-0.5-0.5-0.5-1c-0.4,0.5-0.9,1.1-1.4,1.5l-1.2-0.9
				c0.3-0.2,0.6-0.4,0.9-0.7h-1.7v-2.6h1.7v-4.5h3c0.1-0.2,0.1-0.4,0.1-0.6h-4.2v-1.5h11.3v1.5h-4.8l-0.3,0.6h3.9v4.5H42.8z
				 M70.1,22.5v1.1h2v-1.1H70.1z M77.1,23.6v1.6h-3.5c1.1,0.5,2.3,1.2,3,1.7l-1.9,0.9c-0.7-0.5-1.8-1.3-2.9-1.9l1.1-0.7h-3.6
				l1.4,0.5c-0.9,0.8-2.4,1.7-3.6,2.2c-0.4-0.4-1.1-1-1.6-1.3c1.1-0.3,2.3-0.8,3.1-1.4h-3.2v-1.6h2.8v-1.1H66v-1.6h2.2v-1h2v1h2v-1
				h2v1h2.2v1.6h-2.2v1.1H77.1z M74.9,15.3h-1.7v0.8h1.7V15.3z M75.6,19.7h-2c-1.7,0-2-0.6-2-2.2V14h5.2v3.5h-3.5v0.1
				c0,0.5,0.1,0.7,0.5,0.7h1.9c0.3,0,0.9,0,1.2-0.1c0,0.5,0.1,1.1,0.1,1.5C76.7,19.7,76.1,19.7,75.6,19.7z M69.1,15.3h-1.7v0.8h1.7
				V15.3z M67.5,18.3l3.3-0.5c-0.2,0.4-0.3,1.1-0.3,1.5c-3.6,0.6-4.2,0.7-4.6,0.9c-0.1-0.4-0.4-1.2-0.7-1.6c0.3-0.1,0.6-0.5,0.6-1.2
				V14h5.1v3.5h-3.5V18.3z M64.6,16.5l-2,0.6c-0.2-0.8-0.7-2.2-1-3.2l2-0.5C63.9,14.4,64.3,15.7,64.6,16.5z M64.1,21.6l1.2,0.5
				c-0.3,1.6-0.7,3.1-1.3,4.4c0.3,0.2,0.7,0.5,1.3,0.8c1.3,0.7,3,0.9,5.1,0.9c2.1,0,5.3-0.2,7.3-0.5c-0.2,0.6-0.6,1.6-0.6,2.2
				c-1.5,0.1-4.7,0.2-6.8,0.2c-2.4,0-3.9-0.2-5.3-1c-0.7-0.4-1.4-1-1.8-1c-0.4,0-1.1,1.2-1.5,2.3l-1.4-2.1c0.4-0.5,0.9-1,1.3-1.3
				c0.7-1,1.2-2.3,1.5-3.6h-2.2c0.4-1.1,0.9-2.5,1.3-3.9h-1.6v-1.9h4.2c-0.4,1.3-0.8,2.7-1.2,4h0.2L64.1,21.6z M100,19.1l-1.6,0.1
				c-0.2,1.2-0.4,2.4-0.7,3.4c0.5,0.4,0.9,0.8,1.4,1.2C99.7,22.2,99.9,20.5,100,19.1z M103,18.9l-1,0.1c-0.1,1.9-0.3,4.1-1.3,6.3
				c0.9,0.8,1.7,1.6,2.2,2.2l-1.4,1.8c-0.5-0.6-1.1-1.3-1.9-2c-0.8,1.1-1.7,2.2-3.1,3.2c-0.3-0.5-1-1.2-1.5-1.5c1.4-1,2.4-2,3.1-3.2
				c-0.9-0.9-1.9-1.7-2.7-2.5c0.3-1.1,0.6-2.5,0.9-4l-1,0.1l-0.2-2.1c0.5,0,1,0,1.5-0.1c0.2-1.3,0.3-2.6,0.4-3.8l2.1,0.1
				c-0.1,1.1-0.3,2.4-0.5,3.6l1.3-0.1V16h2v1l0.9-0.1V18.9z M112.1,20.9v2.1h-3.6V28c0,1.1-0.2,1.7-1,2c-0.7,0.3-1.8,0.4-3.2,0.3
				c-0.1-0.6-0.4-1.5-0.7-2.1c0.9,0,2,0,2.3,0c0.3,0,0.4-0.1,0.4-0.3v-5.1h-3.8v-2.1h3.8v-1.7c0.8-0.7,1.6-1.7,2.2-2.7h-5.3v-2h6.7
				l0.5-0.1l1.5,1.1c-0.9,1.3-2.1,2.9-3.3,4.1v1.4H112.1z M140.7,21.4l0.3,1.9c-0.7,0.2-1.3,0.4-2,0.6v6.5h-2v-5.9
				c-1,0.3-1.9,0.6-2.7,0.8l-0.5-2.1c0.9-0.2,2-0.5,3.3-0.8V19h-1.2c-0.2,0.9-0.4,1.7-0.7,2.3c-0.3-0.3-1.1-0.8-1.5-1
				c0.6-1.4,0.9-3.7,1-5.9l1.8,0.3c-0.1,0.7-0.2,1.4-0.3,2.2h0.9v-3.5h2v3.5h1.5V19H139v2.9L140.7,21.4z M144,16.2h6.8
				c0,0,0,0.7,0,1c-0.3,8.1-0.7,11.1-1.4,12c-0.4,0.6-0.8,0.8-1.4,0.9c-0.5,0.1-1.3,0.1-2.1,0.1c-0.1-0.6-0.3-1.5-0.6-2.1
				c0.7,0.1,1.3,0.1,1.6,0.1c0.3,0,0.5-0.1,0.7-0.3c0.5-0.6,0.8-3.1,1.1-9.6h-0.1c-0.9,4.6-2.8,9.3-5.7,11.7
				c-0.4-0.4-1.2-0.9-1.8-1.3c2.9-2.1,4.7-6.2,5.6-10.5h-0.9c-0.8,3-2.3,6.2-4.2,8c-0.4-0.4-1.1-0.9-1.7-1.2c1.8-1.4,3.2-4.1,4-6.7
				h-0.9c-0.5,1.3-1.2,2.4-1.9,3.3c-0.3-0.3-1.2-0.9-1.6-1.2c1.4-1.6,2.4-4.2,3-6.9l2,0.4C144.4,14.6,144.2,15.4,144,16.2z
				 M182,25.6v1.7h2.2v-1.7H182z M184.2,20.1v-1.6H182v1.6H184.2z M184.2,23.7V22H182v1.6H184.2z M189.6,27.3v2H182v1.1H180v-9.8
				c-0.4,0.5-0.8,1-1.2,1.5c-0.1-0.1-0.3-0.3-0.4-0.5l0.2,1.4c-0.6,0.2-1.2,0.4-1.8,0.5v4.3c0,1-0.2,1.6-0.8,2
				c-0.6,0.4-1.4,0.4-2.5,0.4c-0.1-0.6-0.3-1.5-0.6-2.1c0.6,0,1.3,0,1.5,0c0.2,0,0.3-0.1,0.3-0.3v-3.7l-1.7,0.5l-0.5-2.1
				c0.6-0.1,1.4-0.3,2.2-0.5v-3.3h-2v-2h2v-3.3h2.1v3.3h1.8v2h-1.8v2.7l1.2-0.3c-0.3-0.3-0.5-0.5-0.8-0.7c1.7-1.6,3.1-4.3,3.9-6.9
				l2,0.5c-0.3,0.8-0.6,1.7-1,2.5h2.5c-0.2-0.7-0.6-1.5-1-2.2l1.9-0.7c0.5,0.7,1,1.8,1.2,2.5l-1.1,0.5h3.5v2h-2.9v1.6h2.7V22h-2.7
				v1.6h2.7v1.9h-2.7v1.7H189.6z M211.1,16.9V16h-3.4v-1.6h3.4v-0.9h2.1v0.9h2.2V16h-2.2v0.9H211.1z M211.6,30.3l-1.5-0.9
				c0.5-0.6,1-1.6,1.2-2.4l1.5,0.7C212.5,28.6,212.1,29.6,211.6,30.3z M213.2,27.6l1.6-0.2c0.2,0.8,0.4,1.8,0.4,2.5l-1.7,0.3
				C213.5,29.5,213.4,28.4,213.2,27.6z M215.5,27.5l1.5-0.4c0.4,0.7,0.7,1.6,0.8,2.2l-1.6,0.5C216.2,29.2,215.9,28.2,215.5,27.5z
				 M216.8,19.5v-0.7h-2.1v0.7H216.8z M220.9,20.7h-2.3v0.8h2.3V20.7z M214.7,20.7v0.8h2.1v-0.8H214.7z M210.7,21.3v0.2h2.1v-0.8
				h-2.1V21.3z M212.9,18.8h-2.1v0.7h2.1V18.8z M214.4,16.6l1.6-0.5c0.3,0.3,0.5,0.8,0.7,1.2h7v1.4h-5.1v0.7h4.4v3.2h-9.6v0.7h9.8
				v1.4h-9.8v0.7h10.2c0,0,0,0.4-0.1,0.7c-0.2,2.2-0.4,3.3-0.8,3.7c-0.3,0.3-0.7,0.5-1.1,0.5c-0.4,0.1-1.1,0.1-1.8,0
				c0-0.5-0.2-1.1-0.5-1.6c0.5,0.1,1,0.1,1.2,0.1c0.2,0,0.4,0,0.5-0.1c0.2-0.2,0.3-0.7,0.4-1.8h-2.2c0.4,0.5,0.8,1.1,1,1.5l-1.4,0.7
				c-0.2-0.5-0.7-1.2-1.1-1.7l1.1-0.5h-7.4v-4.1h-0.8c-0.1,2.5-0.5,5.4-1.8,7.5c-0.4-0.3-1.3-0.9-1.8-1.1c1.4-2.3,1.6-5.5,1.6-7.8
				v-4h6.1C214.7,17.1,214.6,16.9,214.4,16.6z M220.5,14.3h3.5v1.6h-3.5v0.9h-2.1v-0.9h-2.3v-1.6h2.3v-0.9h2.1V14.3z"/>
		</g>
	</g>
</g>
</svg>
