<?xml version="1.0" encoding="utf-8"?>
<!-- Generator: Adobe Illustrator 25.3.1, SVG Export Plug-In . SVG Version: 6.00 Build 0)  -->
<svg version="1.1" id="圖層_1" xmlns="http://www.w3.org/2000/svg" xmlns:xlink="http://www.w3.org/1999/xlink" x="0px" y="0px"
	 viewBox="0 0 480 187.4" style="enable-background:new 0 0 480 187.4;" xml:space="preserve">
<style type="text/css">
	.st0{clip-path:url(#SVGID_2_);}
	.st1{fill:#C7691F;}
	.st2{fill:#92431F;}
	.st3{fill:#B3551A;}
	.st4{fill:#C9761E;}
	.st5{fill:#C65D1F;}
	.st6{opacity:0.4;}
	.st7{opacity:0.8;}
</style>
<g>
	<g>
		<defs>
			<rect id="SVGID_1_" y="-0.3" width="480" height="188.7"/>
		</defs>
		<clipPath id="SVGID_2_">
			<use xlink:href="#SVGID_1_"  style="overflow:visible;"/>
		</clipPath>
		<g class="st0">
			<path class="st1" d="M110,0.2H76.6v187.7H110V0.2z"/>
			<path class="st2" d="M110.5,188.4H76.1V-0.3h34.5L110.5,188.4L110.5,188.4z M77.1,187.4h32.4V0.7H77.1V187.4z"/>
			<path class="st1" d="M143.5,0.2H110v187.7h33.4V0.2H143.5z"/>
			<path class="st2" d="M144,188.4h-34.5V-0.3H144V188.4z M110.5,187.4H143V0.7h-32.4L110.5,187.4L110.5,187.4z"/>
			<path class="st1" d="M176.9,0.2h-33.5v187.7h33.5V0.2z"/>
			<path class="st2" d="M177.4,188.4H143V-0.3h34.5v188.7H177.4z M144,187.4h32.4V0.7H144V187.4z"/>
			<path class="st1" d="M43.1,0.2H9.7v187.7h33.4C43.1,187.9,43.1,0.2,43.1,0.2z"/>
			<path class="st2" d="M43.7,188.4H9.2V-0.3h34.5V188.4z M10.2,187.4h32.4V0.7H10.2V187.4z"/>
			<path class="st1" d="M9.7,0.2H0.5v187.7h9.2V0.2z"/>
			<path class="st2" d="M10.2,188.4H0V-0.3h10.2V188.4z M1,187.4h8.2V0.7H1V187.4z"/>
			<path class="st1" d="M210.4,0.2H177v187.7h33.4V0.2z"/>
			<path class="st2" d="M210.9,188.4h-34.5V-0.3h34.5V188.4z M177.4,187.4h32.4V0.7h-32.4V187.4z"/>
			<path class="st1" d="M76.6,0.2H43.2v187.7h33.4C76.6,187.9,76.6,0.2,76.6,0.2z"/>
			<path class="st2" d="M77.1,188.4H42.6V-0.3h34.5V188.4z M43.7,187.4h32.4V0.7H43.7V187.4z"/>
			<path class="st1" d="M376,0.2h-33.5v187.7H376V0.2z"/>
			<path class="st2" d="M376.5,188.4H342V-0.3h34.5V188.4z M343.1,187.4h32.4V0.7h-32.4V187.4z"/>
			<path class="st1" d="M409.5,0.2H376v187.7h33.4V0.2H409.5z"/>
			<path class="st2" d="M410,188.4h-34.5V-0.3H410V188.4z M376.5,187.4H409V0.7h-32.4v186.7H376.5z"/>
			<path class="st1" d="M243.8,0.2h-33.5v187.7h33.5V0.2z"/>
			<path class="st2" d="M244.3,188.4h-34.5V-0.3h34.5V188.4z M210.9,187.4h32.4V0.7h-32.4V187.4z"/>
			<path class="st1" d="M479.5,0.2h-36.6v187.7h36.6V0.2z"/>
			<path class="st2" d="M480,188.4h-37.6V-0.3H480V188.4z M443.4,187.4H479V0.7h-35.6V187.4z"/>
			<path class="st1" d="M442.9,0.2h-33.5v187.7h33.5V0.2z"/>
			<path class="st2" d="M443.4,188.4H409V-0.3h34.5v188.7H443.4z M410,187.4h32.4V0.7H410V187.4z"/>
			<path class="st1" d="M275.7,0.2h-31.8v187.7h31.8V0.2z"/>
			<path class="st2" d="M276.2,188.4h-32.9V-0.3h32.9V188.4z M244.3,187.4h30.8V0.7h-30.8V187.4z"/>
			<path class="st1" d="M309.1,0.2h-33.5v187.7h33.5V0.2z"/>
			<path class="st2" d="M309.6,188.4h-34.5V-0.3h34.5V188.4z M276.2,187.4h32.4V0.7h-32.4V187.4z"/>
			<path class="st1" d="M342.6,0.2h-33.5v187.7h33.5V0.2z"/>
			<path class="st2" d="M343.1,188.4h-34.5V-0.3h34.5V188.4z M309.6,187.4H342V0.7h-32.4V187.4z"/>
			<path class="st1" d="M291.6,172.7h-31.9v15.1h31.9V172.7z"/>
			<path class="st2" d="M292.1,188.4h-32.9v-16.2h32.9V188.4z M260.3,187.4h30.8v-14.1h-30.8V187.4z"/>
			<path class="st3" d="M325.1,172.7h-33.4v15.1h33.4V172.7z"/>
			<path class="st2" d="M325.6,188.4h-34.5v-16.2h34.5V188.4z M292.2,187.4h32.4v-14.1h-32.4V187.4z"/>
			<path class="st1" d="M358.5,172.7H325v15.1h33.5V172.7z"/>
			<path class="st2" d="M359,188.4h-34.5v-16.2H359V188.4z M325.6,187.4H358v-14.1h-32.4V187.4z"/>
			<path class="st3" d="M226.3,172.7h-33.4v15.1h33.4L226.3,172.7L226.3,172.7z"/>
			<path class="st2" d="M226.8,188.4h-34.5v-16.2h34.5V188.4z M193.4,187.4h32.4v-14.1h-32.4V187.4z"/>
			<path class="st1" d="M192.9,172.7h-33.5v15.1h33.5V172.7z"/>
			<path class="st2" d="M193.4,188.4h-34.5v-16.2h34.5V188.4z M159.9,187.4h32.4v-14.1h-32.4V187.4z"/>
			<path class="st1" d="M259.8,172.7h-33.4v15.1h33.4V172.7z"/>
			<path class="st2" d="M260.3,188.4h-34.5v-16.2h34.5V188.4z M226.8,187.4h32.4v-14.1h-32.4L226.8,187.4L226.8,187.4z"/>
			<path class="st4" d="M392,172.7h-33.5v15.1H392V172.7z"/>
			<path class="st2" d="M392.5,188.4H358v-16.2h34.5V188.4z M359,187.4h32.4v-14.1H359V187.4z"/>
			<path class="st3" d="M479.5,172.7h-20.6v15.1h20.6V172.7z"/>
			<path class="st2" d="M480,188.4h-21.6v-16.2H480V188.4z M459.4,187.4H479v-14.1h-19.6V187.4z"/>
			<path class="st1" d="M25.6,172.7H0.5v15.1h25.1V172.7z"/>
			<path class="st2" d="M26.1,188.4H0v-16.2h26.1V188.4z M1,187.4h24.1v-14.1H1V187.4z"/>
			<path class="st1" d="M92.5,172.7H59.1v15.1h33.5L92.5,172.7L92.5,172.7z"/>
			<path class="st2" d="M93,188.4H58.6v-16.2H93V188.4z M59.6,187.4H92v-14.1H59.6V187.4z"/>
			<path class="st5" d="M59.1,172.7H25.6v15.1H59L59.1,172.7L59.1,172.7z"/>
			<path class="st2" d="M59.6,188.4H25.1v-16.2h34.5V188.4z M26.1,187.4h32.4v-14.1H26.1V187.4z"/>
			<path class="st4" d="M458.9,172.7h-33.5v15.1h33.5V172.7z"/>
			<path class="st2" d="M459.4,188.4h-34.5v-16.2h34.5V188.4z M425.9,187.4h32.4v-14.1h-32.4V187.4z"/>
			<path class="st1" d="M126,172.7H92.5v15.1H126V172.7z"/>
			<path class="st2" d="M126.5,188.4H92v-16.2h34.5V188.4z M93,187.4h32.4v-14.1H93V187.4z"/>
			<path class="st1" d="M425.4,172.7H392v15.1h33.4V172.7z"/>
			<path class="st2" d="M425.9,188.4h-34.5v-16.2h34.5V188.4z M392.5,187.4h32.4v-14.1h-32.4V187.4z"/>
			<path class="st4" d="M159.4,172.7H126v15.1h33.4V172.7z"/>
			<path class="st2" d="M159.9,188.4h-34.5v-16.2h34.5V188.4z M126.5,187.4h32.4v-14.1h-32.4C126.5,173.3,126.5,187.4,126.5,187.4z"
				/>
			<path class="st1" d="M59.1,144H25.6v15.1H59L59.1,144L59.1,144z"/>
			<path class="st2" d="M59.6,159.7H25.1v-16.2h34.5V159.7z M26.1,158.6h32.4v-14.1H26.1V158.6z"/>
			<path class="st1" d="M126,144H92.5v15.1H126V144z"/>
			<path class="st2" d="M126.5,159.7H92v-16.2h34.5V159.7z M93,158.6h32.4v-14.1H93V158.6z"/>
			<path class="st1" d="M479.5,144h-20.6v15.1h20.6V144z"/>
			<path class="st2" d="M480,159.7h-21.6v-16.2H480V159.7z M459.4,158.6H479v-14.1h-19.6V158.6z"/>
			<path class="st1" d="M25.6,144H0.5v15.1h25.1V144z"/>
			<path class="st2" d="M26.1,159.7H0v-16.2h26.1V159.7z M1,158.6h24.1v-14.1H1V158.6z"/>
			<path class="st5" d="M92.5,144H59.1v15.1h33.5L92.5,144L92.5,144z"/>
			<path class="st2" d="M93,159.7H58.6v-16.2H93V159.7z M59.6,158.6H92v-14.1H59.6V158.6z"/>
			<path class="st3" d="M425.4,144H392v15.1h33.4V144z"/>
			<path class="st2" d="M425.9,159.7h-34.5v-16.2h34.5V159.7z M392.5,158.6h32.4v-14.1h-32.4V158.6z"/>
			<path class="st1" d="M458.9,144h-33.5v15.1h33.5V144z"/>
			<path class="st2" d="M459.4,159.7h-34.5v-16.2h34.5V159.7z M425.9,158.6h32.4v-14.1h-32.4V158.6z"/>
			<path class="st5" d="M159.4,144H126v15.1h33.4V144z"/>
			<path class="st2" d="M159.9,159.7h-34.5v-16.2h34.5V159.7z M126.5,158.6h32.4v-14.1h-32.4C126.5,144.5,126.5,158.6,126.5,158.6z"
				/>
			<path class="st1" d="M192.9,144h-33.5v15.1h33.5V144z"/>
			<path class="st2" d="M193.4,159.7h-34.5v-16.2h34.5V159.7z M159.9,158.6h32.4v-14.1h-32.4V158.6z"/>
			<path class="st5" d="M291.6,144h-31.9v15.1h31.9V144z"/>
			<path class="st2" d="M292.1,159.7h-32.9v-16.2h32.9V159.7z M260.3,158.6h30.8v-14.1h-30.8V158.6z"/>
			<path class="st1" d="M392,144h-33.5v15.1H392V144z"/>
			<path class="st2" d="M392.5,159.7H358v-16.2h34.5V159.7z M359,158.6h32.4v-14.1H359V158.6z"/>
			<path class="st1" d="M259.8,144h-33.4v15.1h33.4V144z"/>
			<path class="st2" d="M260.3,159.7h-34.5v-16.2h34.5V159.7z M226.8,158.6h32.4v-14.1h-32.4L226.8,158.6L226.8,158.6z"/>
			<path class="st3" d="M358.5,144H325v15.1h33.5V144z"/>
			<path class="st2" d="M359,159.7h-34.5v-16.2H359V159.7z M325.6,158.6H358v-14.1h-32.4V158.6z"/>
			<path class="st1" d="M325.1,144h-33.4v15.1h33.4V144z"/>
			<path class="st2" d="M325.6,159.7h-34.5v-16.2h34.5V159.7z M292.2,158.6h32.4v-14.1h-32.4V158.6z"/>
			<path class="st1" d="M226.3,144h-33.4v15.1h33.4L226.3,144L226.3,144z"/>
			<path class="st2" d="M226.8,159.7h-34.5v-16.2h34.5V159.7z M193.4,158.6h32.4v-14.1h-32.4V158.6z"/>
			<path class="st3" d="M59.1,29.2H25.6v15.1H59L59.1,29.2L59.1,29.2z"/>
			<path class="st2" d="M59.6,44.8H25.1V28.7h34.5V44.8z M26.1,43.8h32.4V29.7H26.1V43.8z"/>
			<path class="st1" d="M358.5,29.2H325v15.1h33.5V29.2z"/>
			<path class="st2" d="M359,44.8h-34.5V28.7H359V44.8z M325.6,43.8H358V29.7h-32.4V43.8z"/>
			<path class="st5" d="M325.1,29.2h-33.4v15.1h33.4V29.2z"/>
			<path class="st2" d="M325.6,44.8h-34.5V28.7h34.5V44.8z M292.2,43.8h32.4V29.7h-32.4V43.8z"/>
			<path class="st3" d="M425.4,29.2H392v15.1h33.4V29.2z"/>
			<path class="st2" d="M425.9,44.8h-34.5V28.7h34.5V44.8z M392.5,43.8h32.4V29.7h-32.4V43.8z"/>
			<path class="st3" d="M479.5,29.2h-20.6v15.1h20.6V29.2z"/>
			<path class="st2" d="M480,44.8h-21.6V28.7H480V44.8z M459.4,43.8H479V29.7h-19.6V43.8z"/>
			<path class="st1" d="M92.5,29.2H59.1v15.1h33.5L92.5,29.2L92.5,29.2z"/>
			<path class="st2" d="M93,44.8H58.6V28.7H93V44.8z M59.6,43.8H92V29.7H59.6V43.8z"/>
			<path class="st1" d="M392,29.2h-33.5v15.1H392V29.2z"/>
			<path class="st2" d="M392.5,44.8H358V28.7h34.5V44.8z M359,43.8h32.4V29.7H359V43.8z"/>
			<path class="st1" d="M458.9,29.2h-33.5v15.1h33.5V29.2z"/>
			<path class="st2" d="M459.4,44.8h-34.5V28.7h34.5V44.8z M425.9,43.8h32.4V29.7h-32.4V43.8z"/>
			<path class="st1" d="M25.6,29.2H0.5v15.1h25.1V29.2z"/>
			<path class="st2" d="M26.1,44.8H0V28.7h26.1V44.8z M1,43.8h24.1V29.7H1V43.8z"/>
			<path class="st1" d="M192.9,29.2h-33.5v15.1h33.5V29.2z"/>
			<path class="st2" d="M193.4,44.8h-34.5V28.7h34.5V44.8z M159.9,43.8h32.4V29.7h-32.4V43.8z"/>
			<path class="st1" d="M291.6,29.2h-31.9v15.1h31.9V29.2z"/>
			<path class="st2" d="M292.1,44.8h-32.9V28.7h32.9V44.8z M260.3,43.8h30.8V29.7h-30.8V43.8z"/>
			<path class="st4" d="M226.3,29.2h-33.4v15.1h33.4L226.3,29.2L226.3,29.2z"/>
			<path class="st2" d="M226.8,44.8h-34.5V28.7h34.5V44.8z M193.4,43.8h32.4V29.7h-32.4V43.8z"/>
			<path class="st4" d="M126,29.2H92.5v15.1H126V29.2z"/>
			<path class="st2" d="M126.5,44.8H92V28.7h34.5V44.8z M93,43.8h32.4V29.7H93V43.8z"/>
			<path class="st1" d="M159.4,29.2H126v15.1h33.4V29.2z"/>
			<path class="st2" d="M159.9,44.8h-34.5V28.7h34.5V44.8z M126.5,43.8h32.4V29.7h-32.4C126.5,29.7,126.5,43.8,126.5,43.8z"/>
			<path class="st1" d="M259.8,29.2h-33.4v15.1h33.4V29.2z"/>
			<path class="st2" d="M260.3,44.8h-34.5V28.7h34.5V44.8z M226.8,43.8h32.4V29.7h-32.4L226.8,43.8L226.8,43.8z"/>
			<path class="st3" d="M291.6,0.5h-31.9v15.1h31.9V0.5z"/>
			<path class="st2" d="M292.1,16.1h-32.9V0h32.9V16.1z M260.3,15.1h30.8v-14h-30.8V15.1z"/>
			<path class="st5" d="M126,0.5H92.5v15.1H126V0.5z"/>
			<path class="st2" d="M126.5,16.1H92V0h34.5V16.1z M93,15.1h32.4v-14H93V15.1z"/>
			<path class="st1" d="M226.3,0.5h-33.4v15.1h33.4L226.3,0.5L226.3,0.5z"/>
			<path class="st2" d="M226.8,16.1h-34.5V0h34.5V16.1z M193.4,15.1h32.4v-14h-32.4V15.1z"/>
			<path class="st1" d="M192.9,0.5h-33.5v15.1h33.5V0.5z"/>
			<path class="st2" d="M193.4,16.1h-34.5V0h34.5V16.1z M159.9,15.1h32.4v-14h-32.4V15.1z"/>
			<path class="st1" d="M159.4,0.5H126v15.1h33.4V0.5z"/>
			<path class="st2" d="M159.9,16.1h-34.5V0h34.5V16.1z M126.5,15.1h32.4v-14h-32.4C126.5,1.1,126.5,15.1,126.5,15.1z"/>
			<path class="st1" d="M458.9,0.5h-33.5v15.1h33.5V0.5z"/>
			<path class="st2" d="M459.4,16.1h-34.5V0h34.5V16.1z M425.9,15.1h32.4v-14h-32.4V15.1z"/>
			<path class="st1" d="M25.6,0.5H0.5v15.1h25.1V0.5z"/>
			<path class="st2" d="M26.1,16.1H0V0h26.1V16.1z M1,15.1h24.1v-14H1V15.1z"/>
			<path class="st1" d="M325.1,0.5h-33.4v15.1h33.4V0.5z"/>
			<path class="st2" d="M325.6,16.1h-34.5V0h34.5V16.1z M292.1,15.1h32.4v-14h-32.4V15.1z"/>
			<path class="st1" d="M425.4,0.5H392v15.1h33.4V0.5z"/>
			<path class="st2" d="M425.9,16.1h-34.5V0h34.5V16.1z M392.5,15.1h32.4v-14h-32.4V15.1z"/>
			<path class="st5" d="M392,0.5h-33.5v15.1H392V0.5z"/>
			<path class="st2" d="M392.5,16.1H358V0h34.5V16.1z M359,15.1h32.4v-14H359V15.1z"/>
			<path class="st4" d="M358.5,0.5H325v15.1h33.5V0.5z"/>
			<path class="st2" d="M359,16.1h-34.5V0H359V16.1z M325.6,15.1H358v-14h-32.4V15.1z"/>
			<path class="st4" d="M92.5,0.5H59.1v15.1h33.5L92.5,0.5L92.5,0.5z"/>
			<path class="st2" d="M93,16.1H58.6V0H93V16.1z M59.6,15.1H92v-14H59.6V15.1z"/>
			<path class="st4" d="M479.5,0.5h-20.6v15.1h20.6V0.5z"/>
			<path class="st2" d="M480,16.1h-21.6V0H480V16.1z M459.4,15.1H479v-14h-19.6V15.1z"/>
			<path class="st1" d="M259.8,0.5h-33.4v15.1h33.4V0.5z"/>
			<path class="st2" d="M260.3,16.1h-34.5V0h34.5V16.1z M226.8,15.1h32.4v-14h-32.4L226.8,15.1L226.8,15.1z"/>
			<path class="st1" d="M59.1,0.5H25.6v15.1H59L59.1,0.5L59.1,0.5z"/>
			<path class="st2" d="M59.6,16.1H25.1V0h34.5V16.1z M26.1,15.1h32.4v-14H26.1V15.1z"/>
			<path class="st5" d="M358.5,86.6H325v15.1h33.5V86.6z"/>
			<path class="st2" d="M359,102.2h-34.5v-16H359V102.2z M325.6,101.2H358V87.1h-32.4V101.2z"/>
			<path class="st5" d="M92.5,86.6H59.1v15.1h33.5L92.5,86.6L92.5,86.6z"/>
			<path class="st2" d="M93,102.2H58.6v-16H93V102.2z M59.6,101.2H92V87.1H59.6V101.2z"/>
			<path class="st3" d="M226.3,86.6h-33.4v15.1h33.4L226.3,86.6L226.3,86.6z"/>
			<path class="st2" d="M226.8,102.2h-34.5v-16h34.5V102.2z M193.4,101.2h32.4V87.1h-32.4V101.2z"/>
			<path class="st1" d="M25.6,86.6H0.5v15.1h25.1V86.6z"/>
			<path class="st2" d="M26.1,102.2H0v-16h26.1V102.2z M1,101.2h24.1V87.1H1V101.2z"/>
			<path class="st3" d="M291.6,86.6h-31.9v15.1h31.9V86.6z"/>
			<path class="st2" d="M292.1,102.2h-32.9v-16h32.9V102.2z M260.3,101.2h30.8V87.1h-30.8V101.2z"/>
			<path class="st1" d="M192.9,86.6h-33.5v15.1h33.5V86.6z"/>
			<path class="st2" d="M193.4,102.2h-34.5v-16h34.5V102.2z M159.9,101.2h32.4V87.1h-32.4V101.2z"/>
			<path class="st4" d="M59.1,86.6H25.6v15.1H59L59.1,86.6L59.1,86.6z"/>
			<path class="st2" d="M59.6,102.2H25.1v-16h34.5V102.2z M26.1,101.2h32.4V87.1H26.1V101.2z"/>
			<path class="st1" d="M259.8,86.6h-33.4v15.1h33.4V86.6z"/>
			<path class="st2" d="M260.3,102.2h-34.5v-16h34.5V102.2z M226.8,101.2h32.4V87.1h-32.4L226.8,101.2L226.8,101.2z"/>
			<path class="st1" d="M126,86.6H92.5v15.1H126V86.6z"/>
			<path class="st2" d="M126.5,102.2H92v-16h34.5V102.2z M93,101.2h32.4V87.1H93V101.2z"/>
			<path class="st1" d="M392,86.6h-33.5v15.1H392V86.6z"/>
			<path class="st2" d="M392.5,102.2H358v-16h34.5V102.2z M359,101.2h32.4V87.1H359V101.2z"/>
			<path class="st4" d="M159.4,86.6H126v15.1h33.4V86.6z"/>
			<path class="st2" d="M159.9,102.2h-34.5v-16h34.5V102.2z M126.5,101.2h32.4V87.1h-32.4C126.5,87.1,126.5,101.2,126.5,101.2z"/>
			<path class="st1" d="M479.5,86.6h-20.6v15.1h20.6V86.6z"/>
			<path class="st2" d="M480,102.2h-21.6v-16H480V102.2z M459.4,101.2H479V87.1h-19.6V101.2z"/>
			<path class="st1" d="M425.4,86.6H392v15.1h33.4V86.6z"/>
			<path class="st2" d="M425.9,102.2h-34.5v-16h34.5V102.2z M392.5,101.2h32.4V87.1h-32.4V101.2z"/>
			<path class="st1" d="M325.1,86.6h-33.4v15.1h33.4V86.6z"/>
			<path class="st2" d="M325.6,102.2h-34.5v-16h34.5V102.2z M292.2,101.2h32.4V87.1h-32.4V101.2z"/>
			<path class="st1" d="M458.9,86.6h-33.5v15.1h33.5V86.6z"/>
			<path class="st2" d="M459.4,102.2h-34.5v-16h34.5V102.2z M425.9,101.2h32.4V87.1h-32.4V101.2z"/>
			<path class="st1" d="M458.9,57.9h-33.5V73h33.5V57.9z"/>
			<path class="st2" d="M459.4,73.5h-34.5V57.4h34.5V73.5z M425.9,72.5h32.4V58.4h-32.4V72.5z"/>
			<path class="st1" d="M358.5,57.9H325V73h33.5V57.9z"/>
			<path class="st2" d="M359,73.5h-34.5V57.4H359V73.5z M325.6,72.5H358V58.4h-32.4V72.5z"/>
			<path class="st5" d="M59.1,57.9H25.6V73H59L59.1,57.9L59.1,57.9z"/>
			<path class="st2" d="M59.6,73.5H25.1V57.4h34.5V73.5z M26.1,72.5h32.4V58.4H26.1V72.5z"/>
			<path class="st3" d="M479.5,57.9h-20.6V73h20.6V57.9z"/>
			<path class="st2" d="M480,73.5h-21.6V57.4H480V73.5z M459.4,72.5H479V58.4h-19.6V72.5z"/>
			<path class="st1" d="M92.5,57.9H59.1V73h33.5L92.5,57.9L92.5,57.9z"/>
			<path class="st2" d="M93,73.5H58.6V57.4H93V73.5z M59.6,72.5H92V58.4H59.6V72.5z"/>
			<path class="st1" d="M25.6,57.9H0.5V73h25.1V57.9z"/>
			<path class="st2" d="M26.1,73.5H0V57.4h26.1V73.5z M1,72.5h24.1V58.4H1V72.5z"/>
			<path class="st5" d="M425.4,57.9H392V73h33.4V57.9z"/>
			<path class="st2" d="M425.9,73.5h-34.5V57.4h34.5V73.5z M392.5,72.5h32.4V58.4h-32.4V72.5z"/>
			<path class="st1" d="M192.9,57.9h-33.5V73h33.5V57.9z"/>
			<path class="st2" d="M193.4,73.5h-34.5V57.4h34.5V73.5z M159.9,72.5h32.4V58.4h-32.4V72.5z"/>
			<path class="st3" d="M325.1,57.9h-33.4V73h33.4V57.9z"/>
			<path class="st2" d="M325.6,73.5h-34.5V57.4h34.5V73.5z M292.1,72.5h32.4V58.4h-32.4V72.5z"/>
			<path class="st1" d="M126,57.9H92.5V73H126V57.9z"/>
			<path class="st2" d="M126.5,73.5H92V57.4h34.5V73.5z M93,72.5h32.4V58.4H93V72.5z"/>
			<path class="st4" d="M392,57.9h-33.5V73H392V57.9z"/>
			<path class="st2" d="M392.5,73.5H358V57.4h34.5V73.5z M359,72.5h32.4V58.4H359V72.5z"/>
			<path class="st5" d="M159.4,57.9H126V73h33.4V57.9z"/>
			<path class="st2" d="M159.9,73.5h-34.5V57.4h34.5V73.5z M126.5,72.5h32.4V58.4h-32.4C126.5,58.4,126.5,72.5,126.5,72.5z"/>
			<path class="st1" d="M291.6,57.9h-31.9V73h31.9V57.9z"/>
			<path class="st2" d="M292.1,73.5h-32.9V57.4h32.9V73.5z M260.3,72.5h30.8V58.4h-30.8V72.5z"/>
			<path class="st5" d="M226.3,57.9h-33.4V73h33.4L226.3,57.9L226.3,57.9z"/>
			<path class="st2" d="M226.8,73.5h-34.5V57.4h34.5V73.5z M193.4,72.5h32.4V58.4h-32.4V72.5z"/>
			<path class="st1" d="M259.8,57.9h-33.4V73h33.4V57.9z"/>
			<path class="st2" d="M260.3,73.5h-34.5V57.4h34.5V73.5z M226.8,72.5h32.4V58.4h-32.4L226.8,72.5L226.8,72.5z"/>
			<path class="st1" d="M59.1,115.3H25.6v15.1H59L59.1,115.3L59.1,115.3z"/>
			<path class="st2" d="M59.6,130.9H25.1v-16.2h34.5V130.9z M26.1,129.9h32.4v-14H26.1V129.9z"/>
			<path class="st4" d="M458.9,115.3h-33.5v15.1h33.5V115.3z"/>
			<path class="st2" d="M459.4,130.9h-34.5v-16.2h34.5V130.9z M425.9,129.9h32.4v-14h-32.4V129.9z"/>
			<path class="st1" d="M126,115.3H92.5v15.1H126V115.3z"/>
			<path class="st2" d="M126.5,130.9H92v-16.2h34.5V130.9z M93,129.9h32.4v-14H93V129.9z"/>
			<path class="st1" d="M425.4,115.3H392v15.1h33.4V115.3z"/>
			<path class="st2" d="M425.9,130.9h-34.5v-16.2h34.5V130.9z M392.5,129.9h32.4v-14h-32.4V129.9z"/>
			<path class="st3" d="M392,115.3h-33.5v15.1H392V115.3z"/>
			<path class="st2" d="M392.5,130.9H358v-16.2h34.5V130.9z M359,129.9h32.4v-14H359V129.9z"/>
			<path class="st1" d="M159.4,115.3H126v15.1h33.4V115.3z"/>
			<path class="st2" d="M159.9,130.9h-34.5v-16.2h34.5V130.9z M126.5,129.9h32.4v-14h-32.4C126.5,115.9,126.5,129.9,126.5,129.9z"/>
			<path class="st1" d="M479.5,115.3h-20.6v15.1h20.6V115.3z"/>
			<path class="st2" d="M480,130.9h-21.6v-16.2H480V130.9z M459.4,129.9H479v-14h-19.6V129.9z"/>
			<path class="st1" d="M358.5,115.3H325v15.1h33.5V115.3z"/>
			<path class="st2" d="M359,130.9h-34.5v-16.2H359V130.9z M325.6,129.9H358v-14h-32.4V129.9z"/>
			<path class="st4" d="M226.3,115.3h-33.4v15.1h33.4L226.3,115.3L226.3,115.3z"/>
			<path class="st2" d="M226.8,130.9h-34.5v-16.2h34.5V130.9z M193.4,129.9h32.4v-14h-32.4V129.9z"/>
			<path class="st1" d="M192.9,115.3h-33.5v15.1h33.5V115.3z"/>
			<path class="st2" d="M193.4,130.9h-34.5v-16.2h34.5V130.9z M159.9,129.9h32.4v-14h-32.4V129.9z"/>
			<path class="st4" d="M92.5,115.3H59.1v15.1h33.5L92.5,115.3L92.5,115.3z"/>
			<path class="st2" d="M93,130.9H58.6v-16.2H93V130.9z M59.6,129.9H92v-14H59.6V129.9z"/>
			<path class="st1" d="M291.6,115.3h-31.9v15.1h31.9V115.3z"/>
			<path class="st2" d="M292.1,130.9h-32.9v-16.2h32.9V130.9z M260.3,129.9h30.8v-14h-30.8V129.9z"/>
			<path class="st3" d="M325.1,115.3h-33.4v15.1h33.4V115.3z"/>
			<path class="st2" d="M325.6,130.9h-34.5v-16.2h34.5V130.9z M292.1,129.9h32.4v-14h-32.4V129.9z"/>
			<path class="st3" d="M25.6,115.3H0.5v15.1h25.1V115.3z"/>
			<path class="st2" d="M26.1,130.9H0v-16.2h26.1V130.9z M1,129.9h24.1v-14H1V129.9z"/>
			<path class="st1" d="M259.8,115.3h-33.4v15.1h33.4V115.3z"/>
			<path class="st2" d="M260.3,130.9h-34.5v-16.2h34.5V130.9z M226.8,129.9h32.4v-14h-32.4L226.8,129.9L226.8,129.9z"/>
			<g class="st6">
				<path class="st5" d="M34.6,180.7c-0.9,0-1.9,1.8-0.8,1.8C34.7,182.5,35.7,180.7,34.6,180.7z"/>
				<path class="st5" d="M40.4,179.2c-0.1-0.1-0.2-0.2-0.3-0.2s-0.2,0-0.3,0h-0.1h-0.1c-0.5-0.1-1,0.5-1.2,0.9s-0.5,1.4,0.1,1.6
					c0.9,0.4,1.7-0.6,2.1-1.4c0.1-0.2,0.1-0.3,0.1-0.5C40.6,179.5,40.5,179.4,40.4,179.2z"/>
				<path class="st5" d="M34.3,165.6c-0.9,0-1.9,1.8-0.8,1.8C34.4,167.3,35.4,165.6,34.3,165.6z"/>
				<path class="st5" d="M43.6,178.6c0.1-0.3,0-0.5-0.3-0.5c-0.2,0-0.4,0.1-0.5,0.3c-0.1,0.1-0.2,0.3-0.3,0.5
					c-0.4,0.4-0.5,1.1,0.1,1.1C43.2,180,43.9,178.9,43.6,178.6z"/>
				<path class="st5" d="M48.2,178.2c-0.8-0.5-1.9,0.3-2.4,0.8c-0.3,0.3-0.6,0.7-0.8,1.1c-0.2,0.4-0.3,0.9-0.3,1.3
					c0,0.2,0.1,0.3,0.2,0.5c0.1,0.1,0.2,0.3,0.4,0.3s0.3,0.1,0.5,0.1c0.2,0.1,0.4,0.2,0.6,0.2c0.2,0,0.4-0.1,0.6-0.2
					c0.8-0.4,1.5-1.1,1.9-1.9c0.2-0.4,0.2-0.8,0.1-1.2C48.8,178.7,48.6,178.4,48.2,178.2z"/>
				<path class="st5" d="M52.2,170.7c-1.1,0-2.4,2.2-1,2.2C52.3,172.9,53.6,170.7,52.2,170.7z"/>
				<path class="st5" d="M54.7,183.3c-0.1-0.1-0.2-0.2-0.3-0.2c-0.2,0-0.4,0-0.5,0.1c-0.6,0.2-1.2,1.1-0.8,1.6
					c0.1,0.2,0.4,0.2,0.7,0.1c0.3-0.1,0.9-0.4,1-0.9c0.1-0.1,0.1-0.3,0.1-0.4C54.9,183.5,54.8,183.4,54.7,183.3z"/>
				<path class="st5" d="M61.3,170c-0.8-0.3-1.8,0.4-2.1,1c-0.4,0.6-0.6,1.1-0.1,1.6c0.1,0.1,0.3,0.2,0.5,0.2c0.2,0.1,0.5,0.1,0.8,0
					s0.5-0.3,0.7-0.5c0.1-0.1,0.2-0.2,0.3-0.4C61.8,171.4,62.2,170.4,61.3,170z"/>
				<path class="st5" d="M64,173.5c-0.2-0.1-0.4-0.1-0.6,0c-0.2,0.1-0.4,0.2-0.6,0.3c-0.2,0.1-0.3,0.3-0.4,0.5
					c-0.1,0.3-0.2,0.9,0.2,0.9c0.2,0.1,0.5,0.1,0.7,0s0.5-0.2,0.6-0.4C64.2,174.7,64.7,173.7,64,173.5z"/>
				<path class="st5" d="M65.9,179.2c-0.9,0-2.1,1.9-0.9,1.9C66,181.1,67.1,179.2,65.9,179.2z"/>
				<path class="st5" d="M79.7,159.1c-0.5,0-0.9,0.1-1.4,0.3c-0.4,0.2-0.8,0.6-1,1c-0.5,0.6-0.8,2,0.2,2.4c0.5,0.4,1.4,0,1.9-0.3
					C80.5,161.8,81.6,159.5,79.7,159.1z"/>
				<path class="st5" d="M77.9,171.7c-0.9,0-1.9,1.8-0.8,1.8C78,173.5,79,171.7,77.9,171.7z"/>
				<path class="st5" d="M22.6,152.6h-0.1c-0.7-0.1-1.6,0.7-1.8,1.4s0,1.6,1,1.4h0.1c0.3-0.1,0.6-0.2,0.9-0.4s0.5-0.5,0.6-0.8
					C23.5,153.4,23.4,152.8,22.6,152.6z"/>
				<path class="st5" d="M17.9,158.4c-0.9,0-1.9,1.8-0.8,1.8C18,160.2,19.1,158.4,17.9,158.4z"/>
				<path class="st5" d="M5.4,175.2c-0.5,0-1.1,0.2-1.5,0.5s-0.8,0.7-1,1.2c-0.3,0.8-0.2,2,0.9,2c0.5,0,1.1-0.2,1.5-0.5
					s0.8-0.7,1-1.2C6.6,176.5,6.5,175.2,5.4,175.2z"/>
			</g>
			<g class="st6">
				<path class="st5" d="M131.7,179.8c-1,0-2.3,2.2-0.9,2.2C131.8,181.9,133.1,179.8,131.7,179.8z"/>
				<path class="st5" d="M138.8,178L138.8,178c-0.1-0.2-0.2-0.3-0.4-0.3c-0.1,0-0.3,0-0.4,0h-0.1h-0.1c-0.6-0.1-1.2,0.6-1.5,1.1
					s-0.6,1.7,0.2,2c1.1,0.4,2.1-0.8,2.5-1.6c0.1-0.2,0.1-0.4,0.1-0.6C139,178.4,138.9,178.2,138.8,178z"/>
				<path class="st5" d="M131.4,161.4c-1,0-2.3,2.1-0.9,2.1C131.5,163.5,132.7,161.4,131.4,161.4z"/>
				<path class="st5" d="M142.7,177.2c0.1-0.3,0-0.6-0.3-0.6c-0.2,0-0.5,0.2-0.6,0.3c-0.2,0.2-0.3,0.4-0.3,0.6
					c-0.5,0.5-0.6,1.3,0.1,1.3C142.2,178.9,143.1,177.6,142.7,177.2z"/>
				<path class="st5" d="M118.4,170.7c-1-0.6-2.3,0.4-3,0.9c-0.4,0.4-0.7,0.8-1,1.3c-0.2,0.5-0.4,1.1-0.4,1.6c0,0.2,0.1,0.4,0.2,0.6
					c0.1,0.2,0.3,0.3,0.5,0.4c0.2,0.1,0.4,0.1,0.6,0.1c0.2,0.1,0.5,0.2,0.8,0.2s0.5-0.1,0.8-0.2c1-0.5,1.8-1.3,2.3-2.3
					c0.2-0.5,0.3-1,0.1-1.5C119.2,171.4,118.8,171,118.4,170.7z"/>
				<path class="st5" d="M153.2,167.6c-1.4,0-2.9,2.7-1.2,2.7C153.3,170.3,154.9,167.6,153.2,167.6z"/>
				<path class="st5" d="M156.2,182.9c-0.1-0.1-0.2-0.2-0.4-0.2s-0.4,0-0.6,0.2c-0.8,0.3-1.4,1.4-0.9,2v0.1c0.1,0.1,0.2,0.2,0.4,0.2
					c0.1,0,0.3,0,0.4-0.1c0.5,0.1,1.1-0.5,1.2-1.1c0.1-0.2,0.2-0.4,0.1-0.6C156.4,183.2,156.3,183,156.2,182.9z"/>
				<path class="st5" d="M164.2,166.8c-0.9-0.4-2.1,0.5-2.6,1.2c-0.4,0.7-0.7,1.4-0.1,1.9c0.2,0.2,0.4,0.3,0.6,0.3
					c0.3,0.1,0.6,0.1,0.9,0c0.3-0.1,0.6-0.3,0.8-0.6c0.1-0.1,0.3-0.3,0.4-0.4C164.8,168.5,165.1,167.2,164.2,166.8z"/>
				<path class="st5" d="M167.5,171c-0.3-0.1-0.5-0.1-0.8,0s-0.5,0.2-0.7,0.4s-0.4,0.4-0.5,0.7s-0.2,1,0.3,1.1
					c0.3,0.1,0.6,0.1,0.9,0c0.3-0.1,0.6-0.3,0.8-0.5C167.7,172.4,168.3,171.3,167.5,171z"/>
				<path class="st5" d="M169.7,177.9c-1.1,0-2.5,2.3-1,2.3C169.8,180.2,171.2,177.9,169.7,177.9z"/>
				<path class="st5" d="M186.5,153.5c-0.6,0-1.1,0.1-1.6,0.4c-0.5,0.3-0.9,0.7-1.2,1.2c-0.6,0.8-0.9,2.4,0.3,2.9h0.1
					c0.6,0.5,1.7,0.1,2.3-0.3C187.5,156.7,188.8,153.9,186.5,153.5z"/>
				<path class="st5" d="M184.4,168.8c-1,0-2.3,2.1-0.9,2.1C184.5,171,185.7,168.8,184.4,168.8z"/>
				<path class="st5" d="M117.2,145.7L117.2,145.7c-1-0.2-2,0.8-2.3,1.6c-0.3,0.7,0,2,1.2,1.7h0.2c0.4-0.1,0.8-0.3,1.1-0.5
					c0.3-0.3,0.6-0.6,0.7-0.9C118.3,146.6,118.1,145.8,117.2,145.7z"/>
				<path class="st5" d="M111.5,152.7c-1.1,0-2.3,2.1-0.9,2.1C111.6,154.8,112.9,152.7,111.5,152.7z"/>
				<path class="st5" d="M96.4,173.1c-0.7,0-1.3,0.2-1.8,0.6c-0.5,0.4-1,0.9-1.2,1.5c-0.4,0.9-0.3,2.4,1.1,2.4
					c0.7,0,1.3-0.2,1.8-0.6c0.5-0.4,1-0.9,1.2-1.5C97.8,174.6,97.7,173.1,96.4,173.1z"/>
			</g>
			<g class="st6">
				<path class="st5" d="M232,180.7c-0.9,0-1.9,1.8-0.8,1.8C232,182.5,233.1,180.7,232,180.7z"/>
				<path class="st5" d="M237.8,179.2c-0.1-0.1-0.2-0.2-0.3-0.2s-0.2,0-0.3,0h-0.1H237c-0.5-0.1-1,0.5-1.2,0.9s-0.5,1.4,0.1,1.6
					c0.9,0.4,1.7-0.6,2-1.4c0.1-0.2,0.1-0.3,0.1-0.5C238,179.5,237.9,179.4,237.8,179.2z"/>
				<path class="st5" d="M231.7,165.6c-0.9,0-1.9,1.8-0.8,1.8C231.8,167.3,232.8,165.6,231.7,165.6z"/>
				<path class="st5" d="M241,178.6c0.1-0.3,0-0.5-0.3-0.5s-0.8,0.5-0.8,0.8c-0.4,0.4-0.5,1.1,0.1,1.1S241.3,178.9,241,178.6z"/>
				<path class="st5" d="M245.6,178.2c-0.8-0.5-1.9,0.3-2.4,0.8c-0.3,0.3-0.6,0.7-0.8,1.1c-0.2,0.4-0.3,0.9-0.3,1.3
					c0,0.2,0.1,0.3,0.2,0.5c0.1,0.1,0.2,0.3,0.4,0.3s0.3,0.1,0.5,0.1c0.2,0.1,0.4,0.2,0.6,0.2c0.2,0,0.4-0.1,0.6-0.2
					c0.8-0.4,1.5-1.1,1.9-1.9c0.2-0.4,0.2-0.8,0.1-1.2C246.2,178.7,246,178.4,245.6,178.2z"/>
				<path class="st5" d="M249.6,170.7c-1.1,0-2.4,2.2-1,2.2C249.7,172.9,251,170.7,249.6,170.7z"/>
				<path class="st5" d="M252.1,183.3c-0.1-0.1-0.2-0.2-0.3-0.2c-0.2,0-0.3,0-0.5,0.1c-0.6,0.2-1.2,1.1-0.8,1.6
					c0.1,0.1,0.2,0.1,0.3,0.2c0.1,0,0.2,0,0.4,0c0.4,0.1,1-0.4,1-0.9c0.1-0.1,0.1-0.3,0.1-0.4C252.3,183.5,252.2,183.4,252.1,183.3z
					"/>
				<path class="st5" d="M258.7,170c-0.8-0.3-1.8,0.4-2.1,1c-0.4,0.6-0.6,1.1-0.1,1.6c0.1,0.1,0.1,0.1,0.2,0.2
					c0.1,0,0.2,0.1,0.3,0.1c0.2,0.1,0.5,0.1,0.8,0s0.5-0.3,0.7-0.5c0.1-0.1,0.2-0.2,0.3-0.4C259.2,171.4,259.5,170.4,258.7,170z"/>
				<path class="st5" d="M261.4,173.5c-0.2-0.1-0.4-0.1-0.6,0s-0.4,0.2-0.6,0.3s-0.3,0.3-0.4,0.5c-0.1,0.3-0.2,0.9,0.2,0.9
					c0.2,0.1,0.5,0.1,0.7,0s0.5-0.2,0.6-0.4C261.6,174.7,262.1,173.7,261.4,173.5z"/>
				<path class="st5" d="M263.3,179.2c-0.9,0-2.1,1.9-0.9,1.9C263.4,181.1,264.5,179.2,263.3,179.2z"/>
				<path class="st5" d="M277.1,159.1c-0.5,0-0.9,0.1-1.4,0.3c-0.4,0.2-0.8,0.6-1,1c-0.5,0.6-0.8,2,0.2,2.4h0.1
					c0.5,0.4,1.4,0,1.9-0.3C277.9,161.8,279,159.5,277.1,159.1z"/>
				<path class="st5" d="M275.3,171.7c-0.9,0-1.9,1.8-0.8,1.8C275.4,173.5,276.4,171.7,275.3,171.7z"/>
				<path class="st5" d="M220,152.6h-0.1c-0.8-0.1-1.6,0.7-1.8,1.4c-0.3,0.7,0,1.6,1,1.4h0.1c0.3-0.1,0.6-0.2,0.9-0.4
					c0.3-0.2,0.5-0.5,0.6-0.8C220.9,153.4,220.8,152.8,220,152.6z"/>
				<path class="st5" d="M215.3,158.4c-0.9,0-1.9,1.8-0.8,1.8C215.4,160.2,216.4,158.4,215.3,158.4z"/>
				<path class="st5" d="M202.8,175.2c-0.5,0-1.1,0.2-1.5,0.5s-0.8,0.7-1,1.2c-0.3,0.8-0.2,2,0.9,2c0.5,0,1.1-0.2,1.5-0.5
					s0.8-0.7,1-1.2C204,176.5,203.9,175.2,202.8,175.2z"/>
			</g>
			<g class="st6">
				<path class="st5" d="M429.3,180.7c-0.9,0-1.9,1.8-0.8,1.8C429.4,182.5,430.5,180.7,429.3,180.7z"/>
				<path class="st5" d="M435.2,179.2c-0.1-0.1-0.2-0.2-0.3-0.2c-0.1,0-0.2,0-0.4,0h-0.1h-0.1c-0.5-0.1-1,0.5-1.2,0.9
					s-0.4,1.4,0.2,1.6c0.9,0.4,1.7-0.6,2-1.4c0.1-0.2,0.1-0.3,0.1-0.5C435.4,179.5,435.3,179.4,435.2,179.2z"/>
				<path class="st5" d="M429.1,165.6c-0.9,0-1.9,1.8-0.8,1.8C429.2,167.3,430.2,165.6,429.1,165.6z"/>
				<path class="st5" d="M438.4,178.6c0.1-0.3,0-0.5-0.3-0.5s-0.7,0.5-0.8,0.8c-0.4,0.4-0.5,1.1,0.1,1.1
					C438,180,438.7,178.9,438.4,178.6z"/>
				<path class="st5" d="M443,178.2c-0.8-0.5-1.9,0.3-2.4,0.8c-0.3,0.3-0.6,0.7-0.8,1.1c-0.2,0.4-0.3,0.9-0.3,1.3
					c0,0.2,0.1,0.3,0.2,0.5c0.1,0.1,0.2,0.3,0.4,0.3c0.2,0,0.3,0.1,0.5,0.1c0.2,0.1,0.4,0.2,0.6,0.2s0.4-0.1,0.6-0.2
					c0.8-0.4,1.5-1.1,1.9-1.9c0.2-0.4,0.2-0.8,0.1-1.2C443.6,178.7,443.4,178.4,443,178.2z"/>
				<path class="st5" d="M447,170.7c-1.1,0-2.4,2.2-1,2.2C447.1,172.9,448.4,170.7,447,170.7z"/>
				<path class="st5" d="M449.5,183.3l-0.1-0.1c-0.1,0-0.1,0-0.2,0c-0.2,0-0.3,0-0.5,0.1c-0.6,0.2-1.2,1.1-0.8,1.6
					c0.1,0.2,0.4,0.2,0.7,0.1c0.3-0.1,1-0.4,1-0.9c0.1-0.1,0.1-0.3,0.1-0.4C449.7,183.5,449.6,183.4,449.5,183.3z"/>
				<path class="st5" d="M456.1,170c-0.8-0.3-1.8,0.4-2.1,1c-0.4,0.6-0.6,1.1-0.1,1.6c0.1,0.1,0.1,0.1,0.2,0.2
					c0.1,0,0.2,0.1,0.3,0.1c0.2,0.1,0.5,0.1,0.8,0c0.2-0.1,0.5-0.3,0.7-0.5c0.1-0.1,0.2-0.2,0.3-0.4
					C456.6,171.4,456.9,170.4,456.1,170z"/>
				<path class="st5" d="M458.8,173.5c-0.2-0.1-0.4-0.1-0.6,0s-0.4,0.2-0.6,0.3s-0.3,0.3-0.4,0.5c-0.1,0.3-0.2,0.9,0.2,0.9
					c0.2,0.1,0.5,0.1,0.7,0s0.5-0.2,0.6-0.4C459,174.7,459.4,173.7,458.8,173.5z"/>
				<path class="st5" d="M460.7,179.2c-0.9,0-2.1,1.9-0.8,1.9C460.7,181.1,461.9,179.2,460.7,179.2z"/>
				<path class="st5" d="M474.5,159.1c-0.5,0-0.9,0.1-1.4,0.3c-0.4,0.2-0.8,0.6-1,1c-0.5,0.6-0.8,2,0.2,2.4c0.5,0.4,1.4,0,1.9-0.3
					C475.3,161.8,476.4,159.5,474.5,159.1z"/>
				<path class="st5" d="M472.7,171.7c-0.8,0-1.9,1.8-0.8,1.8C472.9,173.5,473.8,171.7,472.7,171.7z"/>
				<path class="st5" d="M417.5,152.6h-0.1c-0.8-0.1-1.6,0.7-1.8,1.4c-0.3,0.7,0,1.6,1,1.4h0.1c0.3-0.1,0.6-0.2,0.9-0.4
					s0.5-0.5,0.6-0.8C418.3,153.4,418.2,152.8,417.5,152.6z"/>
				<path class="st5" d="M412.7,158.4c-0.9,0-1.9,1.8-0.8,1.8C412.8,160.2,413.8,158.4,412.7,158.4z"/>
				<path class="st5" d="M400.2,175.2c-0.5,0-1.1,0.2-1.5,0.5s-0.8,0.7-1,1.2c-0.3,0.8-0.2,2,0.9,2c0.5,0,1.1-0.2,1.5-0.5
					s0.8-0.7,1-1.2C401.4,176.5,401.3,175.2,400.2,175.2z"/>
			</g>
			<g class="st6">
				<path class="st5" d="M329.1,179.8c-1.1,0-2.3,2.2-0.9,2.2C329.2,181.9,330.5,179.8,329.1,179.8z"/>
				<path class="st5" d="M336.2,178L336.2,178c-0.1-0.2-0.2-0.3-0.4-0.3c-0.1,0-0.3,0-0.4,0h-0.1h-0.1c-0.6-0.1-1.3,0.6-1.5,1.1
					s-0.6,1.7,0.2,2c1.1,0.4,2.1-0.8,2.5-1.6c0.1-0.2,0.1-0.4,0.1-0.6S336.3,178.2,336.2,178z"/>
				<path class="st5" d="M328.8,161.4c-1,0-2.3,2.1-0.9,2.1C328.9,163.5,330.1,161.4,328.8,161.4z"/>
				<path class="st5" d="M340.1,177.2c0.1-0.3,0-0.6-0.3-0.6s-0.9,0.6-1,1c-0.4,0.5-0.6,1.3,0.1,1.3
					C339.6,178.9,340.5,177.6,340.1,177.2z"/>
				<path class="st5" d="M315.8,170.7c-0.9-0.6-2.3,0.4-2.9,0.9c-0.4,0.4-0.7,0.8-1,1.3c-0.2,0.5-0.4,1.1-0.4,1.6
					c0,0.2,0.1,0.4,0.2,0.6c0.1,0.2,0.3,0.3,0.5,0.4c0.2,0.1,0.4,0.1,0.6,0.1c0.2,0.1,0.5,0.2,0.8,0.2s0.5-0.1,0.8-0.2
					c1-0.5,1.8-1.3,2.3-2.3c0.2-0.5,0.3-1,0.1-1.5C316.6,171.4,316.2,171,315.8,170.7z"/>
				<path class="st5" d="M350.6,167.6c-1.4,0-2.9,2.7-1.2,2.7C350.7,170.3,352.3,167.6,350.6,167.6z"/>
				<path class="st5" d="M353.6,182.9c-0.1-0.1-0.2-0.2-0.4-0.2c-0.2,0-0.4,0.1-0.6,0.2c-0.8,0.3-1.4,1.4-0.9,2v0.1
					c0.1,0.1,0.2,0.2,0.4,0.2c0.1,0,0.3,0,0.4-0.1c0.5,0.1,1.1-0.5,1.2-1.1c0.1-0.2,0.2-0.4,0.2-0.6
					C353.8,183.2,353.7,183,353.6,182.9z"/>
				<path class="st5" d="M361.6,166.8c-0.9-0.4-2.1,0.5-2.6,1.2c-0.4,0.7-0.7,1.4-0.1,1.9c0.2,0.2,0.4,0.3,0.6,0.3
					c0.3,0.1,0.6,0.1,0.9,0s0.6-0.3,0.8-0.6c0.1-0.1,0.2-0.3,0.4-0.4C362.2,168.5,362.5,167.2,361.6,166.8z"/>
				<path class="st5" d="M364.9,171c-0.3-0.1-0.5-0.1-0.8,0s-0.5,0.2-0.7,0.4s-0.4,0.4-0.5,0.7s-0.2,1,0.3,1.1
					c0.3,0.1,0.6,0.1,0.9,0s0.6-0.3,0.8-0.5C365.1,172.4,365.7,171.3,364.9,171z"/>
				<path class="st5" d="M367.1,177.9c-1.1,0-2.5,2.3-1,2.3C367.2,180.2,368.6,177.9,367.1,177.9z"/>
				<path class="st5" d="M383.9,153.5c-0.6,0-1.1,0.1-1.7,0.4c-0.5,0.3-0.9,0.7-1.3,1.1c-0.7,0.8-0.9,2.4,0.3,2.9h0.1
					c0.6,0.5,1.7,0.1,2.3-0.3C384.9,156.7,386.2,153.9,383.9,153.5z"/>
				<path class="st5" d="M381.8,168.8c-1,0-2.3,2.1-0.9,2.1C381.9,171,383.1,168.8,381.8,168.8z"/>
				<path class="st5" d="M314.6,145.7h-0.1c-0.9-0.2-1.9,0.8-2.2,1.6c-0.3,0.7,0,2,1.2,1.7h0.2c0.4-0.1,0.8-0.3,1.1-0.5
					c0.3-0.3,0.6-0.6,0.7-0.9C315.7,146.6,315.5,145.8,314.6,145.7z"/>
				<path class="st5" d="M308.9,152.7c-1.1,0-2.3,2.1-0.9,2.1C309,154.8,310.3,152.7,308.9,152.7z"/>
				<path class="st5" d="M293.7,173.1c-0.7,0-1.3,0.2-1.8,0.6c-0.5,0.4-1,0.9-1.2,1.5c-0.4,0.9-0.3,2.4,1,2.4c0.7,0,1.3-0.2,1.8-0.6
					c0.5-0.4,1-0.9,1.2-1.5C295.2,174.6,295.1,173.1,293.7,173.1z"/>
			</g>
			<g class="st7">
				<g class="st6">
					<path class="st5" d="M443.8,143.4c0.9,0,1.9,1.8,0.8,1.8C443.7,145.2,442.6,143.4,443.8,143.4z"/>
					<path class="st5" d="M437.9,141.9c0.1-0.1,0.2-0.2,0.3-0.2c0.1,0,0.2,0,0.3,0h0.1h0.1c0.5-0.1,1,0.5,1.2,0.9s0.5,1.4-0.1,1.6
						c-0.9,0.4-1.7-0.6-2.1-1.4c-0.1-0.2-0.1-0.3-0.1-0.5C437.7,142.2,437.8,142,437.9,141.9z"/>
					<path class="st5" d="M444,128.2c0.9,0,1.9,1.8,0.8,1.8C443.9,130,442.9,128.2,444,128.2z"/>
					<path class="st5" d="M434.7,141.2c-0.1-0.3-0.1-0.5,0.3-0.5c0.2,0,0.4,0.1,0.5,0.3c0.1,0.1,0.2,0.3,0.3,0.5
						c0.4,0.4,0.5,1.1-0.1,1.1S434.4,141.5,434.7,141.2z"/>
					<path class="st5" d="M430.1,140.8c0.8-0.5,1.9,0.3,2.4,0.8c0.3,0.3,0.6,0.7,0.8,1.1c0.2,0.4,0.3,0.9,0.3,1.3
						c0,0.2-0.1,0.3-0.2,0.5c-0.1,0.1-0.2,0.3-0.4,0.3c-0.2,0-0.3,0.1-0.5,0.1c-0.2,0.1-0.4,0.2-0.6,0.2s-0.4-0.1-0.6-0.2
						c-0.8-0.4-1.5-1.1-1.9-1.9c-0.2-0.4-0.2-0.8-0.1-1.2C429.5,141.4,429.8,141,430.1,140.8z"/>
					<path class="st5" d="M426.1,133.3c1.1,0,2.4,2.2,1,2.2C426,135.5,424.7,133.3,426.1,133.3z"/>
					<path class="st5" d="M423.6,145.9l0.1-0.1c0.1,0,0.1,0,0.2,0c0.2,0,0.4,0,0.5,0.1c0.6,0.2,1.2,1.1,0.8,1.6
						c-0.1,0.2-0.4,0.2-0.7,0.1c-0.3-0.1-0.9-0.4-1-0.9c-0.1-0.1-0.1-0.3-0.1-0.4C423.4,146.2,423.5,146.1,423.6,145.9z"/>
					<path class="st5" d="M417,132.7c0.8-0.3,1.8,0.4,2.1,1c0.4,0.6,0.6,1.1,0.1,1.6c-0.1,0.1-0.3,0.2-0.5,0.2
						c-0.2,0.1-0.5,0.1-0.8,0s-0.5-0.3-0.7-0.4c-0.1-0.1-0.2-0.2-0.3-0.4C416.5,134,416.2,133,417,132.7z"/>
					<path class="st5" d="M414.3,136.1c0.2-0.1,0.4-0.1,0.6,0s0.4,0.2,0.6,0.3s0.3,0.3,0.4,0.5c0.1,0.3,0.2,0.9-0.2,0.9
						c-0.2,0.1-0.5,0.1-0.7,0s-0.5-0.2-0.6-0.4C414.1,137.3,413.7,136.3,414.3,136.1z"/>
					<path class="st5" d="M412.5,141.8c0.9,0,2.1,1.9,0.9,1.9C412.4,143.8,411.2,141.8,412.5,141.8z"/>
					<path class="st5" d="M398.8,125.1c0.5,0.3,1.4,0.7,1.9,0.3c1-0.3,0.8-1.7,0.2-2.4c-0.2-0.4-0.6-0.7-1-1
						c-0.4-0.2-0.9-0.3-1.4-0.3C396.7,122.1,397.8,124.4,398.8,125.1z"/>
					<path class="st5" d="M400.4,134.4c0.8,0,1.9,1.8,0.8,1.8C400.3,136.1,399.3,134.4,400.4,134.4z"/>
					<path class="st5" d="M455.7,115.3h0.1c0.8-0.1,1.6,0.7,1.8,1.4c0.3,0.7,0,1.6-1,1.4h-0.1c-0.3-0.1-0.6-0.2-0.9-0.4
						c-0.3-0.2-0.5-0.5-0.6-0.8C454.8,116.1,454.9,115.4,455.7,115.3z"/>
					<path class="st5" d="M460.4,121.1c0.9,0,1.9,1.8,0.8,1.8C460.3,122.8,459.3,121.1,460.4,121.1z"/>
					<path class="st5" d="M472.9,137.9c0.5,0,1.1,0.2,1.5,0.5s0.8,0.7,1,1.2c0.3,0.8,0.2,2-0.9,2c-0.5,0-1.1-0.2-1.5-0.5
						s-0.8-0.7-1-1.2C471.7,139.1,471.8,137.9,472.9,137.9z"/>
				</g>
				<g class="st6">
					<path class="st5" d="M346.6,142.4c1,0,2.3,2.1,0.9,2.1C346.5,144.6,345.3,142.4,346.6,142.4z"/>
					<path class="st5" d="M339.5,140.6c0.1-0.1,0.2-0.2,0.4-0.2c0.1,0,0.3,0,0.4,0h0.1h0.1c0.6-0.1,1.2,0.6,1.5,1.1
						c0.2,0.5,0.6,1.7-0.2,2c-1.1,0.5-2.1-0.8-2.5-1.6c-0.1-0.2-0.2-0.4-0.1-0.7C339.3,141,339.4,140.8,339.5,140.6z"/>
					<path class="st5" d="M346.9,124.1c1,0,2.3,2.1,0.9,2.1C346.8,126.2,345.6,124.1,346.9,124.1z"/>
					<path class="st5" d="M335.6,139.8c-0.1-0.3-0.1-0.6,0.3-0.6s0.9,0.6,1,1c0.4,0.6,0.6,1.4-0.1,1.4
						C336.1,141.6,335.2,140.3,335.6,139.8z"/>
					<path class="st5" d="M359.9,133.4c0.9-0.6,2.3,0.4,2.9,0.9c0.4,0.4,0.7,0.8,1,1.3c0.2,0.5,0.4,1.1,0.4,1.6
						c0,0.2-0.1,0.4-0.2,0.6s-0.3,0.3-0.5,0.4c-0.2,0.1-0.4,0.1-0.6,0.1c-0.2,0.1-0.5,0.2-0.8,0.2s-0.5-0.1-0.8-0.2
						c-1-0.5-1.8-1.3-2.3-2.3c-0.2-0.5-0.3-1-0.1-1.5C359.2,134.1,359.5,133.7,359.9,133.4z"/>
					<path class="st5" d="M325.2,130.2c1.4,0,2.9,2.7,1.2,2.7C325,132.9,323.4,130.2,325.2,130.2z"/>
					<path class="st5" d="M322.1,145.6c0.1-0.1,0.2-0.2,0.4-0.2c0.2,0,0.4,0,0.6,0.2c0.8,0.3,1.4,1.4,0.9,2v0.1
						c-0.1,0.1-0.2,0.2-0.4,0.2c-0.1,0-0.3,0-0.4-0.1c-0.5,0.1-1.1-0.5-1.2-1.1c-0.1-0.2-0.2-0.4-0.2-0.6
						C321.9,145.9,322,145.7,322.1,145.6z"/>
					<path class="st5" d="M314.1,129.4c0.9-0.4,2.1,0.4,2.6,1.2c0.3,0.6,0.7,1.4,0.1,1.9c-0.2,0.2-0.4,0.3-0.6,0.3
						c-0.3,0.1-0.6,0-0.9-0.1s-0.6-0.3-0.8-0.5l-0.4-0.4C313.6,131.1,313.2,129.9,314.1,129.4z"/>
					<path class="st5" d="M310.9,133.7c0.3-0.1,0.5-0.1,0.8,0s0.5,0.2,0.7,0.4s0.4,0.4,0.5,0.7s0.2,1-0.3,1.1
						c-0.3,0.1-0.6,0.1-0.9,0s-0.6-0.3-0.8-0.5C310.6,135.1,310.1,133.9,310.9,133.7z"/>
					<path class="st5" d="M308.6,140.6c1.1,0,2.5,2.3,1,2.3C308.5,142.9,307.1,140.6,308.6,140.6z"/>
					<path class="st5" d="M292,120.3c0.5,0.4,1.7,0.9,2.3,0.3h0.1c1.2-0.4,0.9-2.1,0.3-2.9c-0.3-0.5-0.7-0.9-1.2-1.1
						s-1.1-0.4-1.6-0.4C289.5,116.6,290.8,119.4,292,120.3z"/>
					<path class="st5" d="M293.9,131.5c1,0,2.3,2.1,0.9,2.1C293.8,133.6,292.6,131.5,293.9,131.5z"/>
					<path class="st5" d="M361.1,108.3h0.1c0.9-0.2,1.9,0.8,2.2,1.6c0.3,0.8,0,2-1.2,1.7H362c-0.4-0.1-0.8-0.3-1.1-0.5
						c-0.3-0.3-0.6-0.6-0.7-0.9C360,109.3,360.2,108.5,361.1,108.3z"/>
					<path class="st5" d="M366.8,115.3c1.1,0,2.3,2.1,0.9,2.1C366.7,117.5,365.5,115.3,366.8,115.3z"/>
					<path class="st5" d="M382,135.8c0.7,0,1.3,0.2,1.8,0.6c0.5,0.4,1,0.9,1.2,1.5c0.4,0.9,0.3,2.4-1.1,2.4c-0.7,0-1.3-0.3-1.8-0.6
						c-0.5-0.4-1-0.9-1.2-1.5C380.5,137.3,380.7,135.8,382,135.8z"/>
				</g>
				<g class="st6">
					<path class="st5" d="M246.4,143.4c0.9,0,1.9,1.8,0.8,1.8C246.3,145.2,245.2,143.4,246.4,143.4z"/>
					<path class="st5" d="M240.5,141.9c0.1-0.1,0.2-0.2,0.3-0.2s0.2,0,0.3,0h0.1h0.1c0.5-0.1,1,0.5,1.2,0.9s0.5,1.4-0.1,1.6
						c-0.9,0.4-1.7-0.6-2.1-1.4c-0.1-0.2-0.1-0.3-0.1-0.5S240.4,142,240.5,141.9z"/>
					<path class="st5" d="M246.6,128.2c0.9,0,1.9,1.8,0.8,1.8C246.5,130,245.5,128.2,246.6,128.2z"/>
					<path class="st5" d="M237.3,141.2c-0.1-0.3,0-0.5,0.3-0.5s0.7,0.5,0.8,0.8c0.4,0.4,0.5,1.1-0.1,1.1
						C237.7,142.6,237,141.5,237.3,141.2z"/>
					<path class="st5" d="M232.7,140.8c0.8-0.5,1.9,0.3,2.4,0.8c0.3,0.3,0.6,0.7,0.8,1.1c0.2,0.4,0.3,0.9,0.3,1.3
						c0,0.2-0.1,0.3-0.2,0.5c-0.1,0.1-0.2,0.3-0.4,0.3s-0.3,0.1-0.5,0.1c-0.2,0.1-0.4,0.2-0.6,0.2c-0.2,0-0.4-0.1-0.6-0.2
						c-0.8-0.4-1.5-1.1-1.9-1.9c-0.2-0.4-0.2-0.8-0.1-1.2C232.1,141.4,232.4,141,232.7,140.8z"/>
					<path class="st5" d="M228.7,133.3c1.1,0,2.4,2.2,1,2.2C228.6,135.5,227.3,133.3,228.7,133.3z"/>
					<path class="st5" d="M226.2,145.9l0.1-0.1c0.1,0,0.1,0,0.2,0c0.2,0,0.3,0,0.5,0.1c0.6,0.2,1.2,1.1,0.8,1.6
						c-0.1,0.1-0.2,0.1-0.3,0.2c-0.1,0-0.2,0-0.4,0c-0.4,0.1-1-0.4-1-0.9c-0.1-0.1-0.1-0.3-0.1-0.4
						C226.1,146.2,226.1,146.1,226.2,145.9z"/>
					<path class="st5" d="M219.6,132.7c0.8-0.3,1.8,0.4,2.1,1c0.4,0.6,0.6,1.1,0.1,1.6c-0.1,0.1-0.3,0.2-0.5,0.2
						c-0.2,0.1-0.5,0.1-0.8,0s-0.5-0.3-0.7-0.4c-0.1-0.1-0.2-0.2-0.3-0.4C219.2,134,218.9,133,219.6,132.7z"/>
					<path class="st5" d="M216.9,136.1c0.2-0.1,0.4-0.1,0.6,0c0.2,0.1,0.4,0.2,0.6,0.3c0.2,0.1,0.3,0.3,0.4,0.5
						c0.1,0.3,0.2,0.9-0.2,0.9c-0.2,0.1-0.5,0.1-0.7,0s-0.5-0.2-0.6-0.4C216.7,137.3,216.3,136.3,216.9,136.1z"/>
					<path class="st5" d="M215.1,141.8c0.9,0,2.1,1.9,0.8,1.9C215,143.8,213.8,141.8,215.1,141.8z"/>
					<path class="st5" d="M201.4,125.1c0.5,0.3,1.4,0.7,1.9,0.3h0.1c1-0.3,0.8-1.7,0.2-2.4c-0.3-0.4-0.6-0.7-1-1
						c-0.4-0.2-0.9-0.3-1.4-0.3C199.3,122.1,200.4,124.4,201.4,125.1z"/>
					<path class="st5" d="M203,134.4c0.9,0,1.9,1.8,0.8,1.8C202.9,136.1,201.9,134.4,203,134.4z"/>
					<path class="st5" d="M258.3,115.3h0.1c0.8-0.1,1.6,0.7,1.8,1.4c0.3,0.7,0,1.6-1,1.4h-0.1c-0.3-0.1-0.6-0.2-0.9-0.4
						c-0.3-0.2-0.5-0.5-0.6-0.8C257.4,116.1,257.6,115.4,258.3,115.3z"/>
					<path class="st5" d="M263,121.1c0.9,0,1.9,1.8,0.8,1.8C262.9,122.8,261.9,121.1,263,121.1z"/>
					<path class="st5" d="M275.5,137.9c0.5,0,1.1,0.2,1.5,0.5s0.8,0.7,1,1.2c0.3,0.8,0.2,2-0.9,2c-0.5,0-1.1-0.2-1.5-0.5
						s-0.8-0.7-1-1.2C274.3,139.1,274.4,137.9,275.5,137.9z"/>
				</g>
				<g class="st6">
					<path class="st5" d="M49,143.4c0.9,0,1.9,1.8,0.8,1.8C48.9,145.2,47.8,143.4,49,143.4z"/>
					<path class="st5" d="M43.1,141.9c0.1-0.1,0.2-0.2,0.3-0.2s0.2,0,0.3,0h0.1H44c0.5-0.1,1,0.5,1.2,0.9s0.4,1.4-0.2,1.6
						c-0.9,0.4-1.7-0.6-2-1.4c-0.1-0.2-0.1-0.3-0.1-0.5C42.9,142.2,43,142,43.1,141.9z"/>
					<path class="st5" d="M49.2,128.2c0.9,0,1.9,1.8,0.8,1.8C49.2,130,48.1,128.2,49.2,128.2z"/>
					<path class="st5" d="M39.9,141.2c-0.1-0.3,0-0.5,0.3-0.5s0.8,0.5,0.8,0.8c0.4,0.4,0.5,1.1-0.1,1.1
						C40.3,142.6,39.6,141.5,39.9,141.2z"/>
					<path class="st5" d="M35.3,140.8c0.8-0.5,1.9,0.3,2.4,0.8c0.3,0.3,0.6,0.7,0.8,1.1c0.2,0.4,0.3,0.9,0.3,1.3
						c0,0.2-0.1,0.3-0.2,0.5c-0.1,0.1-0.2,0.3-0.4,0.3s-0.3,0.1-0.5,0.1c-0.2,0.1-0.4,0.2-0.6,0.2c-0.2,0-0.4-0.1-0.6-0.2
						c-0.8-0.4-1.5-1.1-1.9-1.9c-0.2-0.4-0.2-0.8-0.1-1.2C34.7,141.4,35,141,35.3,140.8z"/>
					<path class="st5" d="M31.3,133.3c1.1,0,2.4,2.2,1,2.2C31.2,135.5,29.9,133.3,31.3,133.3z"/>
					<path class="st5" d="M28.8,145.9l0.1-0.1c0.1,0,0.1,0,0.2,0c0.2,0,0.4,0,0.5,0.1c0.6,0.2,1.2,1.1,0.8,1.6
						c-0.1,0.2-0.4,0.2-0.7,0.1c-0.3-0.1-1-0.4-1-0.9c-0.1-0.1-0.1-0.3-0.1-0.4C28.7,146.2,28.7,146.1,28.8,145.9z"/>
					<path class="st5" d="M22.2,132.7c0.8-0.3,1.8,0.4,2.1,1c0.4,0.6,0.6,1.1,0.1,1.6c-0.1,0.1-0.3,0.2-0.5,0.2
						c-0.2,0.1-0.5,0.1-0.8,0s-0.5-0.3-0.7-0.4c-0.1-0.1-0.2-0.2-0.3-0.4C21.8,134,21.4,133,22.2,132.7z"/>
					<path class="st5" d="M19.5,136.1c0.2-0.1,0.4-0.1,0.6,0s0.4,0.2,0.6,0.3s0.3,0.3,0.4,0.5c0.1,0.3,0.2,0.9-0.2,0.9
						c-0.2,0.1-0.5,0.1-0.7,0s-0.5-0.2-0.6-0.4C19.3,137.3,18.9,136.3,19.5,136.1z"/>
					<path class="st5" d="M17.7,141.8c0.9,0,2.1,1.9,0.9,1.9C17.6,143.8,16.4,141.8,17.7,141.8z"/>
					<path class="st5" d="M4.1,125.1c0.5,0.3,1.4,0.7,1.9,0.3c1-0.3,0.8-1.7,0.2-2.4c-0.3-0.4-0.6-0.7-1-1c-0.4-0.2-0.9-0.3-1.4-0.3
						C1.9,122.1,3,124.4,4.1,125.1z"/>
					<path class="st5" d="M5.6,134.4c0.9,0,1.9,1.8,0.8,1.8C5.5,136.1,4.5,134.4,5.6,134.4z"/>
					<path class="st5" d="M60.9,115.3L60.9,115.3c0.9-0.1,1.7,0.7,1.9,1.4c0.3,0.7,0,1.6-1,1.4h-0.1c-0.3-0.1-0.6-0.2-0.9-0.4
						s-0.5-0.5-0.6-0.8C60,116.1,60.2,115.4,60.9,115.3z"/>
					<path class="st5" d="M65.6,121.1c0.9,0,1.9,1.8,0.8,1.8C65.5,122.8,64.5,121.1,65.6,121.1z"/>
					<path class="st5" d="M78.1,137.9c0.5,0,1.1,0.2,1.5,0.5s0.8,0.7,1,1.2c0.3,0.8,0.2,2-0.9,2c-0.5,0-1.1-0.2-1.5-0.5
						s-0.8-0.7-1-1.2C76.9,139.1,77,137.9,78.1,137.9z"/>
				</g>
				<g class="st6">
					<path class="st5" d="M149.2,142.4c1.1,0,2.3,2.1,0.9,2.1C149.1,144.6,147.9,142.4,149.2,142.4z"/>
					<path class="st5" d="M142.1,140.6c0.1-0.1,0.2-0.2,0.4-0.2c0.1,0,0.3,0,0.4,0h0.1h0.1c0.6-0.1,1.3,0.6,1.5,1.1s0.6,1.7-0.2,2
						c-1.1,0.5-2.1-0.8-2.5-1.6c-0.1-0.2-0.2-0.4-0.1-0.7C141.9,141,142,140.8,142.1,140.6z"/>
					<path class="st5" d="M149.5,124.1c1.1,0,2.3,2.1,0.9,2.1C149.4,126.2,148.2,124.1,149.5,124.1z"/>
					<path class="st5" d="M138.2,139.8c-0.1-0.3,0-0.6,0.3-0.6c0.2,0,0.5,0.2,0.6,0.3c0.2,0.2,0.3,0.4,0.4,0.6
						c0.4,0.6,0.6,1.4-0.1,1.4S137.8,140.3,138.2,139.8z"/>
					<path class="st5" d="M162.5,133.4c0.9-0.6,2.3,0.4,2.9,0.9c0.4,0.4,0.7,0.8,1,1.3c0.2,0.5,0.4,1.1,0.4,1.6
						c0,0.2-0.1,0.4-0.2,0.6c-0.1,0.2-0.3,0.3-0.5,0.4c-0.2,0.1-0.4,0.1-0.6,0.1c-0.2,0.1-0.5,0.2-0.8,0.2s-0.5-0.1-0.8-0.2
						c-1-0.5-1.8-1.3-2.3-2.3c-0.2-0.5-0.3-1-0.1-1.5C161.8,134.1,162.1,133.7,162.5,133.4z"/>
					<path class="st5" d="M127.8,130.2c1.4,0,2.9,2.7,1.2,2.7C127.6,132.9,126,130.2,127.8,130.2z"/>
					<path class="st5" d="M124.7,145.6c0.1-0.1,0.2-0.2,0.4-0.2c0.2,0,0.4,0,0.6,0.2c0.8,0.3,1.4,1.4,0.9,2v0.1
						c-0.1,0.1-0.2,0.2-0.4,0.2c-0.1,0-0.3,0-0.4-0.1c-0.5,0.1-1.1-0.5-1.2-1.1c-0.1-0.2-0.2-0.4-0.2-0.6
						C124.5,145.9,124.6,145.7,124.7,145.6z"/>
					<path class="st5" d="M116.7,129.4c0.9-0.4,2.1,0.4,2.6,1.2c0.3,0.6,0.7,1.4,0.1,1.9c-0.2,0.2-0.4,0.3-0.6,0.3
						c-0.3,0.1-0.6,0-0.9-0.1s-0.6-0.3-0.8-0.5l-0.4-0.4C116.2,131.1,115.8,129.9,116.7,129.4z"/>
					<path class="st5" d="M113.5,133.7c0.3-0.1,0.5-0.1,0.8,0s0.5,0.2,0.7,0.4s0.4,0.4,0.5,0.7s0.2,1-0.3,1.1
						c-0.3,0.1-0.6,0.1-0.9,0s-0.5-0.3-0.7-0.5C113.2,135.1,112.7,133.9,113.5,133.7z"/>
					<path class="st5" d="M111.2,140.6c1.1,0,2.5,2.3,1,2.3C111.1,142.9,109.7,140.6,111.2,140.6z"/>
					<path class="st5" d="M94.6,120.3c0.6,0.4,1.7,0.9,2.3,0.3c1.2-0.4,0.9-2.1,0.3-2.9c-0.3-0.5-0.7-0.9-1.2-1.2
						c-0.5-0.3-1.1-0.4-1.6-0.4C92.1,116.6,93.4,119.4,94.6,120.3z"/>
					<path class="st5" d="M96.5,131.5c1,0,2.3,2.1,0.9,2.1C96.4,133.6,95.2,131.5,96.5,131.5z"/>
					<path class="st5" d="M163.7,108.3h0.1c0.9-0.2,1.9,0.8,2.2,1.6c0.3,0.8,0,2-1.2,1.7h-0.2c-0.4-0.1-0.8-0.3-1.1-0.5
						c-0.3-0.3-0.6-0.6-0.7-0.9C162.6,109.3,162.8,108.5,163.7,108.3z"/>
					<path class="st5" d="M169.4,115.3c1.1,0,2.3,2.1,0.9,2.1C169.3,117.5,168.1,115.3,169.4,115.3z"/>
					<path class="st5" d="M184.6,135.8c0.7,0,1.3,0.2,1.8,0.6c0.5,0.4,1,0.9,1.2,1.5c0.4,0.9,0.2,2.4-1.1,2.4
						c-0.7,0-1.3-0.2-1.8-0.6c-0.5-0.4-1-0.9-1.2-1.5C183.1,137.3,183.3,135.8,184.6,135.8z"/>
				</g>
			</g>
			<g class="st6">
				<path class="st5" d="M34.6,99.7c-0.9,0-1.9,1.8-0.8,1.8C34.7,101.4,35.7,99.7,34.6,99.7z"/>
				<path class="st5" d="M40.4,98.2c-0.1-0.1-0.2-0.1-0.3-0.2c-0.1,0-0.2,0-0.3,0h-0.1h-0.1c-0.5-0.1-1,0.5-1.2,0.9
					s-0.5,1.4,0.1,1.6c0.9,0.4,1.7-0.6,2.1-1.4c0.1-0.2,0.1-0.3,0.1-0.5C40.6,98.4,40.5,98.3,40.4,98.2z"/>
				<path class="st5" d="M34.3,84.5c-0.9,0-1.9,1.8-0.8,1.8C34.4,86.3,35.4,84.5,34.3,84.5z"/>
				<path class="st5" d="M43.6,97.5c0.1-0.3,0-0.5-0.3-0.5s-0.8,0.5-0.8,0.8c-0.4,0.4-0.5,1.1,0.1,1.1
					C43.2,98.9,43.9,97.9,43.6,97.5z"/>
				<path class="st5" d="M48.2,97.1c-0.8-0.5-1.9,0.3-2.4,0.8c-0.7,0.6-1.1,1.5-1.1,2.4c0,0.2,0.1,0.3,0.2,0.5
					c0.1,0.1,0.2,0.3,0.4,0.3c0.2,0.1,0.3,0.1,0.5,0.1c0.2,0.1,0.4,0.2,0.6,0.2c0.2,0,0.4-0.1,0.6-0.2c0.8-0.4,1.5-1.1,1.9-1.9
					c0.2-0.4,0.2-0.8,0.1-1.2C48.8,97.7,48.6,97.3,48.2,97.1z"/>
				<path class="st5" d="M52.2,89.6c-1.1,0-2.4,2.2-1,2.2C52.3,91.8,53.6,89.6,52.2,89.6z"/>
				<path class="st5" d="M54.7,102.2c-0.1-0.1-0.2-0.1-0.3-0.2c-0.2,0-0.4,0-0.5,0.1c-0.6,0.2-1.2,1.1-0.8,1.6v0.1
					c0.1,0.1,0.2,0.1,0.3,0.2c0.1,0,0.2,0,0.4,0c0.4,0.1,0.9-0.4,1-0.9c0.1-0.1,0.1-0.3,0.1-0.5C54.9,102.5,54.8,102.3,54.7,102.2z"
					/>
				<path class="st5" d="M61.3,88.9c-0.8-0.4-1.8,0.4-2.1,1c-0.4,0.6-0.6,1.1-0.1,1.6c0.1,0.1,0.3,0.2,0.5,0.2
					c0.3,0.1,0.5,0,0.8-0.1s0.5-0.3,0.7-0.5c0.1-0.1,0.2-0.2,0.3-0.4C61.8,90.3,62.2,89.3,61.3,88.9z"/>
				<path class="st5" d="M64,92.5c-0.2-0.1-0.4-0.1-0.6,0c-0.2,0.1-0.4,0.2-0.6,0.3c-0.2,0.2-0.3,0.3-0.4,0.6
					c-0.1,0.3-0.2,0.8,0.2,0.9c0.2,0.1,0.5,0.1,0.7,0s0.5-0.2,0.6-0.4C64.2,93.6,64.7,92.6,64,92.5z"/>
				<path class="st5" d="M65.9,98.1c-0.9,0-2.1,1.9-0.9,1.9C66,100,67.1,98.1,65.9,98.1z"/>
				<path class="st5" d="M79.7,78.1c-0.5,0-0.9,0.1-1.4,0.3c-0.4,0.2-0.8,0.6-1,1c-0.5,0.6-0.8,2,0.2,2.4c0.5,0.4,1.4,0,1.9-0.3
					C80.5,80.7,81.6,78.4,79.7,78.1z"/>
				<path class="st5" d="M77.9,90.6c-0.9,0-1.9,1.7-0.8,1.7C78,92.4,79,90.6,77.9,90.6z"/>
				<path class="st5" d="M22.6,71.6h-0.1c-0.7-0.1-1.6,0.7-1.8,1.3c-0.3,0.6,0,1.6,1,1.4h0.1c0.3-0.1,0.6-0.2,0.9-0.4
					c0.3-0.2,0.5-0.5,0.6-0.8C23.5,72.4,23.4,71.7,22.6,71.6z"/>
				<path class="st5" d="M17.9,77.3c-0.9,0-1.9,1.8-0.8,1.8C18,79.1,19.1,77.3,17.9,77.3z"/>
				<path class="st5" d="M5.4,94.2c-0.5,0-1.1,0.2-1.5,0.5s-0.8,0.7-1,1.2c-0.3,0.8-0.2,2,0.9,2c0.5,0,1.1-0.2,1.5-0.5
					s0.8-0.7,1-1.2C6.6,95.4,6.5,94.2,5.4,94.2z"/>
			</g>
			<g class="st6">
				<path class="st5" d="M131.7,98.7c-1,0-2.3,2.1-0.9,2.1C131.8,100.9,133.1,98.7,131.7,98.7z"/>
				<path class="st5" d="M138.8,96.9c-0.1-0.1-0.2-0.2-0.4-0.2c-0.1,0-0.3,0-0.4,0h-0.1h-0.1c-0.6-0.1-1.2,0.6-1.5,1.1
					c-0.2,0.5-0.6,1.7,0.2,2c1.1,0.4,2.1-0.8,2.5-1.6c0.1-0.2,0.2-0.4,0.1-0.6C139,97.3,138.9,97,138.8,96.9z"/>
				<path class="st5" d="M131.4,80.3c-1,0-2.3,2.1-0.9,2.1C131.5,82.5,132.7,80.3,131.4,80.3z"/>
				<path class="st5" d="M142.7,96.1c0.1-0.3,0-0.6-0.3-0.6s-0.9,0.6-1,1c-0.5,0.5-0.6,1.4,0.1,1.4
					C142.2,97.9,143.1,96.5,142.7,96.1z"/>
				<path class="st5" d="M118.4,89.6c-1-0.6-2.3,0.4-3,0.9c-0.4,0.4-0.7,0.8-1,1.3c-0.2,0.5-0.4,1.1-0.4,1.6c0,0.2,0.1,0.4,0.2,0.6
					s0.3,0.3,0.5,0.4s0.4,0.1,0.6,0.1c0.2,0.1,0.5,0.2,0.8,0.2s0.5-0.1,0.8-0.2c1-0.5,1.8-1.3,2.3-2.3c0.2-0.5,0.3-1,0.1-1.5
					C119.2,90.3,118.8,89.9,118.4,89.6z"/>
				<path class="st5" d="M153.2,86.5c-1.4,0-2.9,2.7-1.2,2.7C153.3,89.2,154.9,86.5,153.2,86.5z"/>
				<path class="st5" d="M156.2,101.8c-0.1-0.1-0.2-0.2-0.4-0.2s-0.4,0-0.6,0.2c-0.8,0.3-1.4,1.4-0.9,2c0.1,0.1,0.2,0.2,0.4,0.2
					c0.1,0,0.3,0,0.4-0.1c0.5,0.1,1.1-0.5,1.2-1.1c0.1-0.2,0.1-0.3,0.1-0.5S156.3,102,156.2,101.8z"/>
				<path class="st5" d="M164.2,85.7c-0.9-0.4-2.1,0.4-2.6,1.2c-0.4,0.8-0.7,1.4-0.1,1.9c0.2,0.2,0.4,0.3,0.6,0.3
					c0.3,0.1,0.6,0,0.9-0.1c0.3-0.1,0.6-0.3,0.8-0.6c0.1-0.1,0.3-0.3,0.4-0.4C164.8,87.4,165.1,86.2,164.2,85.7z"/>
				<path class="st5" d="M167.5,90c-0.3-0.1-0.5-0.1-0.8,0s-0.5,0.2-0.7,0.4s-0.4,0.4-0.5,0.7c-0.1,0.3-0.2,1,0.3,1.1
					c0.3,0.1,0.6,0.1,0.9,0c0.3-0.1,0.6-0.3,0.8-0.5C167.7,91.3,168.3,90.2,167.5,90z"/>
				<path class="st5" d="M169.7,96.8c-1.1,0-2.5,2.4-1,2.4C169.8,99.2,171.2,96.8,169.7,96.8z"/>
				<path class="st5" d="M186.5,72.5c-0.6,0-1.1,0.1-1.6,0.4s-0.9,0.7-1.2,1.1c-0.6,0.8-0.9,2.4,0.3,2.9h0.1
					c0.6,0.5,1.7,0.1,2.3-0.3C187.5,75.7,188.8,72.9,186.5,72.5z"/>
				<path class="st5" d="M184.4,87.8c-1,0-2.3,2.1-0.9,2.1C184.5,89.9,185.7,87.8,184.4,87.8z"/>
				<path class="st5" d="M117.2,64.5L117.2,64.5c-1-0.2-2,0.8-2.3,1.5c-0.3,0.7,0,2,1.2,1.7h0.2c0.4-0.1,0.8-0.3,1.1-0.5
					c0.3-0.3,0.6-0.6,0.7-0.9C118.3,65.5,118.1,64.7,117.2,64.5z"/>
				<path class="st5" d="M111.5,71.6c-1.1,0-2.3,2.1-0.9,2.1C111.6,73.7,112.9,71.6,111.5,71.6z"/>
				<path class="st5" d="M96.4,92c-0.7,0-1.3,0.2-1.8,0.6s-1,0.9-1.2,1.5c-0.4,0.9-0.3,2.4,1.1,2.4c0.7,0,1.3-0.2,1.8-0.6
					s1-0.9,1.2-1.5C97.8,93.5,97.7,92,96.4,92z"/>
			</g>
			<g class="st6">
				<path class="st5" d="M232,99.7c-0.9,0-1.9,1.8-0.8,1.8C232,101.4,233.1,99.7,232,99.7z"/>
				<path class="st5" d="M237.8,98.2c-0.1-0.1-0.2-0.1-0.3-0.2c-0.1,0-0.2,0-0.3,0H237h-0.1c-0.5-0.1-1,0.5-1.2,0.9
					s-0.5,1.4,0.1,1.6c0.9,0.4,1.7-0.6,2-1.4c0.1-0.2,0.1-0.3,0.1-0.5C238,98.4,237.9,98.3,237.8,98.2z"/>
				<path class="st5" d="M231.7,84.5c-0.9,0-1.9,1.8-0.8,1.8C231.8,86.3,232.8,84.5,231.7,84.5z"/>
				<path class="st5" d="M241,97.5c0.1-0.3,0-0.5-0.3-0.5s-0.8,0.5-0.8,0.8c-0.4,0.4-0.5,1.1,0.1,1.1
					C240.6,98.9,241.3,97.9,241,97.5z"/>
				<path class="st5" d="M245.6,97.1c-0.8-0.5-1.9,0.3-2.4,0.8c-0.3,0.3-0.6,0.7-0.8,1.1s-0.3,0.9-0.3,1.3c0,0.2,0.1,0.3,0.2,0.5
					c0.1,0.1,0.2,0.3,0.4,0.3c0.2,0.1,0.3,0.1,0.5,0.1c0.2,0.1,0.4,0.2,0.6,0.2s0.4-0.1,0.6-0.2c0.8-0.4,1.5-1.1,1.9-1.9
					c0.2-0.4,0.2-0.8,0.1-1.2C246.2,97.7,246,97.3,245.6,97.1z"/>
				<path class="st5" d="M249.6,89.6c-1.1,0-2.4,2.2-1,2.2C249.7,91.8,251,89.6,249.6,89.6z"/>
				<path class="st5" d="M252.1,102.2c-0.1-0.1-0.2-0.1-0.3-0.2c-0.2,0-0.3,0-0.5,0.1c-0.6,0.2-1.2,1.1-0.8,1.6v0.1
					c0.1,0.1,0.2,0.1,0.3,0.2c0.1,0,0.2,0,0.4,0s0.5-0.1,0.7-0.3c0.2-0.2,0.3-0.4,0.3-0.6c0.1-0.1,0.1-0.3,0.1-0.5
					C252.3,102.5,252.2,102.3,252.1,102.2z"/>
				<path class="st5" d="M258.7,88.9c-0.8-0.4-1.8,0.4-2.1,1c-0.4,0.6-0.6,1.1-0.1,1.6c0.1,0.1,0.3,0.2,0.5,0.2
					c0.3,0.1,0.5,0,0.8-0.1s0.5-0.3,0.7-0.5c0.1-0.1,0.2-0.2,0.3-0.4C259.2,90.3,259.5,89.3,258.7,88.9z"/>
				<path class="st5" d="M261.4,92.5c-0.2-0.1-0.4-0.1-0.6,0s-0.4,0.2-0.6,0.3c-0.2,0.1-0.3,0.3-0.4,0.5c-0.1,0.3-0.2,0.8,0.2,0.9
					c0.2,0.1,0.5,0.1,0.7,0s0.5-0.2,0.6-0.4C261.6,93.6,262.1,92.6,261.4,92.5z"/>
				<path class="st5" d="M263.3,98.1c-0.9,0-2.1,1.9-0.9,1.9C263.4,100,264.5,98.1,263.3,98.1z"/>
				<path class="st5" d="M277.1,78.1c-0.5,0-0.9,0.1-1.4,0.3c-0.4,0.2-0.8,0.6-1,1c-0.5,0.6-0.8,2,0.2,2.4h0.1
					c0.5,0.4,1.4,0,1.9-0.3C277.9,80.7,279,78.4,277.1,78.1z"/>
				<path class="st5" d="M275.3,90.6c-0.9,0-1.9,1.7-0.8,1.7C275.4,92.4,276.4,90.6,275.3,90.6z"/>
				<path class="st5" d="M220,71.6h-0.1c-0.8-0.1-1.6,0.7-1.8,1.3c-0.3,0.6,0,1.6,1,1.4h0.1c0.3-0.1,0.6-0.2,0.9-0.4
					c0.3-0.2,0.5-0.5,0.6-0.8C220.9,72.4,220.8,71.7,220,71.6z"/>
				<path class="st5" d="M215.3,77.3c-0.9,0-1.9,1.8-0.8,1.8C215.4,79.1,216.4,77.3,215.3,77.3z"/>
				<path class="st5" d="M202.8,94.2c-0.5,0-1.1,0.2-1.5,0.5s-0.8,0.7-1,1.2c-0.3,0.8-0.2,2,0.9,2c0.5,0,1.1-0.2,1.5-0.5
					s0.8-0.7,1-1.2C204,95.4,203.9,94.2,202.8,94.2z"/>
			</g>
			<g class="st6">
				<path class="st5" d="M429.3,99.7c-0.9,0-1.9,1.8-0.8,1.8C429.4,101.4,430.5,99.7,429.3,99.7z"/>
				<path class="st5" d="M435.2,98.2c-0.1-0.1-0.2-0.2-0.3-0.2c-0.1,0-0.2,0-0.4,0h-0.1h-0.1c-0.5-0.1-1,0.5-1.2,0.9
					s-0.4,1.4,0.2,1.6c0.9,0.4,1.7-0.6,2-1.4c0.1-0.2,0.1-0.3,0.1-0.5C435.4,98.4,435.3,98.3,435.2,98.2z"/>
				<path class="st5" d="M429.1,84.5c-0.9,0-1.9,1.8-0.8,1.8C429.2,86.3,430.2,84.5,429.1,84.5z"/>
				<path class="st5" d="M438.4,97.5c0.1-0.3,0-0.5-0.3-0.5s-0.7,0.5-0.8,0.8c-0.4,0.4-0.5,1.1,0.1,1.1
					C438,98.9,438.7,97.9,438.4,97.5z"/>
				<path class="st5" d="M443,97.1c-0.8-0.5-1.9,0.3-2.4,0.8c-0.3,0.3-0.6,0.7-0.8,1.1c-0.2,0.4-0.3,0.9-0.3,1.3
					c0,0.2,0.1,0.3,0.2,0.5c0.1,0.1,0.2,0.3,0.4,0.3c0.2,0.1,0.3,0.1,0.5,0.1c0.2,0.1,0.4,0.2,0.6,0.2s0.4-0.1,0.6-0.2
					c0.8-0.4,1.5-1.1,1.9-1.9c0.2-0.4,0.2-0.8,0.1-1.2C443.6,97.7,443.4,97.3,443,97.1z"/>
				<path class="st5" d="M447,89.6c-1.1,0-2.4,2.2-1,2.2C447.1,91.8,448.4,89.6,447,89.6z"/>
				<path class="st5" d="M449.5,102.2c-0.1-0.1-0.2-0.1-0.3-0.2c-0.2,0-0.3,0-0.5,0.1c-0.6,0.2-1.2,1.1-0.8,1.6v0.1
					c0.1,0.1,0.2,0.1,0.3,0.2s0.2,0,0.4,0c0.2,0,0.5-0.1,0.6-0.3c0.2-0.2,0.3-0.4,0.3-0.6c0.1-0.1,0.1-0.3,0.1-0.5
					C449.7,102.5,449.6,102.3,449.5,102.2z"/>
				<path class="st5" d="M456.1,88.9c-0.8-0.4-1.8,0.4-2.1,1c-0.4,0.6-0.6,1.1-0.1,1.6c0.1,0.1,0.3,0.2,0.5,0.2
					c0.3,0.1,0.5,0,0.8-0.1c0.2-0.1,0.5-0.3,0.7-0.5c0.1-0.1,0.2-0.2,0.3-0.4C456.6,90.3,456.9,89.3,456.1,88.9z"/>
				<path class="st5" d="M458.8,92.5c-0.2-0.1-0.4-0.1-0.6,0s-0.4,0.2-0.6,0.3c-0.2,0.1-0.3,0.3-0.4,0.5c-0.1,0.3-0.2,0.8,0.2,0.9
					c0.2,0.1,0.5,0.1,0.7,0s0.5-0.2,0.6-0.4C459,93.6,459.4,92.6,458.8,92.5z"/>
				<path class="st5" d="M460.7,98.1c-0.9,0-2.1,1.9-0.8,1.9C460.7,100,461.9,98.1,460.7,98.1z"/>
				<path class="st5" d="M474.5,78.1c-0.5,0-0.9,0.1-1.4,0.3c-0.4,0.2-0.8,0.6-1,1c-0.5,0.6-0.8,2,0.2,2.4c0.5,0.4,1.4,0,1.9-0.3
					C475.3,80.7,476.4,78.4,474.5,78.1z"/>
				<path class="st5" d="M472.7,90.6c-0.8,0-1.9,1.7-0.8,1.7C472.9,92.4,473.8,90.6,472.7,90.6z"/>
				<path class="st5" d="M417.5,71.6h-0.1c-0.8-0.1-1.6,0.7-1.8,1.3c-0.3,0.6,0,1.6,1,1.4h0.1c0.3-0.1,0.6-0.2,0.9-0.4
					c0.3-0.2,0.5-0.5,0.6-0.8C418.3,72.4,418.2,71.7,417.5,71.6z"/>
				<path class="st5" d="M412.7,77.3c-0.9,0-1.9,1.8-0.8,1.8C412.8,79.1,413.8,77.3,412.7,77.3z"/>
				<path class="st5" d="M400.2,94.2c-0.5,0-1.1,0.2-1.5,0.5s-0.8,0.7-1,1.2c-0.3,0.8-0.2,2,0.9,2c0.5,0,1.1-0.2,1.5-0.5
					s0.8-0.7,1-1.2C401.4,95.4,401.3,94.2,400.2,94.2z"/>
			</g>
			<g class="st6">
				<path class="st5" d="M329.1,98.7c-1.1,0-2.3,2.1-0.9,2.1C329.2,100.9,330.5,98.7,329.1,98.7z"/>
				<path class="st5" d="M336.2,96.9c-0.1-0.1-0.2-0.2-0.4-0.2c-0.1,0-0.3,0-0.4,0h-0.1h-0.2c-0.6-0.1-1.3,0.6-1.5,1.1
					s-0.6,1.7,0.2,2c1.1,0.4,2.1-0.8,2.5-1.6c0.1-0.2,0.2-0.4,0.2-0.6C336.4,97.3,336.3,97.1,336.2,96.9z"/>
				<path class="st5" d="M328.8,80.3c-1,0-2.3,2.1-0.9,2.1C328.9,82.5,330.1,80.3,328.8,80.3z"/>
				<path class="st5" d="M340.1,96.1c0.1-0.3,0-0.6-0.3-0.6s-0.9,0.6-1,1c-0.4,0.5-0.6,1.4,0.1,1.4
					C339.6,97.9,340.5,96.5,340.1,96.1z"/>
				<path class="st5" d="M315.8,89.6c-0.9-0.6-2.3,0.4-2.9,0.9c-0.4,0.4-0.7,0.8-1,1.3c-0.2,0.5-0.4,1.1-0.4,1.6
					c0,0.2,0.1,0.4,0.2,0.6s0.3,0.3,0.5,0.4s0.4,0.1,0.6,0.1c0.2,0.1,0.5,0.2,0.8,0.2s0.5-0.1,0.8-0.2c1-0.5,1.8-1.3,2.3-2.3
					c0.2-0.5,0.3-1,0.1-1.5C316.6,90.3,316.2,89.9,315.8,89.6z"/>
				<path class="st5" d="M350.6,86.5c-1.4,0-2.9,2.7-1.2,2.7C350.7,89.2,352.3,86.5,350.6,86.5z"/>
				<path class="st5" d="M353.6,101.8c-0.1-0.1-0.2-0.2-0.4-0.2c-0.2,0-0.4,0.1-0.6,0.2c-0.8,0.3-1.4,1.4-0.9,2
					c0.1,0.1,0.2,0.2,0.4,0.2c0.1,0,0.3,0,0.4-0.1c0.5,0.1,1.1-0.5,1.2-1.1c0.1-0.2,0.1-0.3,0.1-0.5
					C353.8,102.1,353.7,102,353.6,101.8z"/>
				<path class="st5" d="M361.6,85.7c-0.9-0.4-2.1,0.4-2.6,1.2c-0.4,0.8-0.7,1.4-0.1,1.9c0.2,0.2,0.4,0.3,0.6,0.3
					c0.3,0.1,0.6,0,0.9-0.1s0.6-0.3,0.8-0.6c0.1-0.1,0.2-0.3,0.4-0.4C362.2,87.4,362.5,86.2,361.6,85.7z"/>
				<path class="st5" d="M364.9,90c-0.3-0.1-0.5-0.1-0.8,0s-0.5,0.2-0.7,0.4c-0.2,0.2-0.4,0.4-0.5,0.7c-0.1,0.3-0.2,1,0.3,1.1
					c0.3,0.1,0.6,0.1,0.9,0s0.6-0.3,0.8-0.5C365.1,91.3,365.7,90.2,364.9,90z"/>
				<path class="st5" d="M367.1,96.8c-1.1,0-2.5,2.4-1,2.4C367.2,99.2,368.6,96.8,367.1,96.8z"/>
				<path class="st5" d="M383.9,72.5c-0.6,0-1.2,0.1-1.7,0.4s-0.9,0.7-1.3,1.1c-0.7,0.8-0.9,2.4,0.3,2.9h0.1
					c0.6,0.5,1.7,0.1,2.3-0.3C384.9,75.7,386.2,72.9,383.9,72.5z"/>
				<path class="st5" d="M381.8,87.8c-1,0-2.3,2.1-0.9,2.1C381.9,89.9,383.1,87.8,381.8,87.8z"/>
				<path class="st5" d="M314.6,64.5h-0.1c-0.9-0.2-1.9,0.8-2.2,1.5c-0.3,0.7,0,2,1.2,1.7h0.2c0.4-0.1,0.8-0.3,1.1-0.5
					c0.3-0.3,0.6-0.6,0.7-0.9C315.7,65.5,315.5,64.7,314.6,64.5z"/>
				<path class="st5" d="M308.9,71.6c-1.1,0-2.3,2.1-0.9,2.1C309,73.7,310.3,71.6,308.9,71.6z"/>
				<path class="st5" d="M293.7,92c-0.7,0-1.3,0.2-1.8,0.6s-1,0.9-1.2,1.5c-0.4,0.9-0.3,2.4,1,2.4c0.7,0,1.3-0.2,1.8-0.6
					s1-0.9,1.2-1.5C295.2,93.5,295.1,92,293.7,92z"/>
			</g>
			<g class="st7">
				<g class="st6">
					<path class="st5" d="M443.8,62.3c0.9,0,1.9,1.8,0.8,1.8C443.7,64.1,442.6,62.3,443.8,62.3z"/>
					<path class="st5" d="M437.9,60.8c0.1-0.1,0.2-0.1,0.3-0.2c0.1,0,0.2,0,0.3,0h0.1h0.1c0.5-0.1,1,0.5,1.2,0.9s0.5,1.4-0.2,1.6
						c-0.9,0.4-1.7-0.6-2.1-1.4c-0.1-0.2-0.1-0.3-0.1-0.5C437.8,61.1,437.8,60.9,437.9,60.8z"/>
					<path class="st5" d="M444,47.2c0.9,0,1.9,1.8,0.8,1.8C443.9,48.9,442.9,47.2,444,47.2z"/>
					<path class="st5" d="M434.7,60.2c-0.1-0.3-0.1-0.5,0.3-0.5c0.2,0,0.4,0.1,0.5,0.3c0.1,0.1,0.2,0.3,0.3,0.5
						c0.4,0.4,0.5,1.1-0.1,1.1S434.4,60.5,434.7,60.2z"/>
					<path class="st5" d="M430.1,59.7c0.8-0.5,1.9,0.3,2.4,0.8c0.7,0.6,1.1,1.5,1.1,2.4c0,0.2-0.1,0.3-0.2,0.5
						c-0.1,0.1-0.2,0.3-0.4,0.3c-0.2,0.1-0.3,0.1-0.5,0.1c-0.2,0.1-0.4,0.2-0.6,0.2s-0.4-0.1-0.6-0.2c-0.8-0.4-1.5-1.1-1.9-1.9
						c-0.2-0.4-0.2-0.8-0.1-1.2C429.5,60.3,429.8,60,430.1,59.7z"/>
					<path class="st5" d="M426.1,52.2c1.1,0,2.4,2.2,1,2.2C426,54.5,424.7,52.2,426.1,52.2z"/>
					<path class="st5" d="M423.6,64.9c0.1-0.1,0.2-0.1,0.3-0.2c0.2,0,0.4,0,0.5,0.1c0.6,0.2,1.2,1.1,0.8,1.6
						c-0.1,0.1-0.2,0.1-0.3,0.2c-0.1,0-0.2,0-0.4-0.1c-0.4,0.1-0.9-0.4-1-0.9c-0.1-0.1-0.1-0.3-0.1-0.4
						C423.5,65.1,423.5,65,423.6,64.9z"/>
					<path class="st5" d="M417,51.6c0.8-0.4,1.8,0.4,2.1,1c0.4,0.6,0.6,1.1,0.1,1.6c-0.1,0.1-0.3,0.2-0.5,0.2
						c-0.2,0.1-0.5,0.1-0.8,0s-0.5-0.3-0.7-0.5c-0.1-0.1-0.2-0.2-0.3-0.4C416.5,53,416.2,52,417,51.6z"/>
					<path class="st5" d="M414.3,55.1c0.2-0.1,0.4-0.1,0.6,0s0.4,0.2,0.6,0.3c0.2,0.2,0.3,0.3,0.4,0.6s0.2,0.8-0.2,0.9
						c-0.2,0.1-0.5,0.1-0.7,0s-0.5-0.2-0.6-0.4C414.1,56.2,413.7,55.3,414.3,55.1z"/>
					<path class="st5" d="M412.5,60.8c0.9,0,2.1,1.9,0.9,1.9C412.4,62.7,411.2,60.8,412.5,60.8z"/>
					<path class="st5" d="M398.8,44.1c0.5,0.3,1.4,0.7,1.9,0.3c1-0.3,0.8-1.7,0.2-2.3c-0.2-0.4-0.6-0.7-1-1
						c-0.4-0.2-0.9-0.3-1.4-0.3C396.7,41,397.8,43.3,398.8,44.1z"/>
					<path class="st5" d="M400.4,53.3c0.8,0,1.9,1.7,0.8,1.7C400.3,55.1,399.3,53.3,400.4,53.3z"/>
					<path class="st5" d="M455.7,34.2h0.1c0.8-0.1,1.6,0.6,1.8,1.3c0.3,0.6,0,1.6-1,1.4h-0.1c-0.3-0.1-0.6-0.2-0.9-0.4
						s-0.5-0.5-0.6-0.8C454.8,35,454.9,34.4,455.7,34.2z"/>
					<path class="st5" d="M460.4,40c0.9,0,1.9,1.8,0.8,1.8C460.3,41.8,459.3,40,460.4,40z"/>
					<path class="st5" d="M472.9,56.8c0.5,0,1.1,0.2,1.5,0.5s0.8,0.7,1,1.2c0.3,0.8,0.2,2-0.9,2c-0.5,0-1.1-0.2-1.5-0.5
						s-0.8-0.7-1-1.2C471.7,58,471.8,56.8,472.9,56.8z"/>
				</g>
				<g class="st6">
					<path class="st5" d="M346.6,61.4c1,0,2.3,2.1,0.9,2.1C346.5,63.5,345.3,61.4,346.6,61.4z"/>
					<path class="st5" d="M339.5,59.5c0.1-0.1,0.2-0.2,0.4-0.2c0.1,0,0.3,0,0.4,0h0.1h0.1c0.6-0.1,1.2,0.6,1.5,1.1
						c0.2,0.5,0.6,1.7-0.2,2c-1.1,0.4-2.1-0.8-2.5-1.6c-0.1-0.2-0.2-0.4-0.1-0.7C339.3,59.9,339.4,59.7,339.5,59.5z"/>
					<path class="st5" d="M346.9,42.9c1,0,2.3,2.1,0.9,2.1C346.8,45.1,345.6,42.9,346.9,42.9z"/>
					<path class="st5" d="M335.6,58.8c-0.1-0.3-0.1-0.6,0.3-0.6s0.9,0.6,1,1c0.4,0.5,0.6,1.3-0.1,1.3
						C336.1,60.5,335.2,59.2,335.6,58.8z"/>
					<path class="st5" d="M359.9,52.3c0.9-0.6,2.3,0.4,2.9,0.9c0.4,0.4,0.7,0.8,1,1.3c0.2,0.5,0.4,1.1,0.4,1.6
						c0,0.2-0.1,0.4-0.2,0.6c-0.1,0.2-0.3,0.3-0.5,0.4c-0.2,0.1-0.4,0.1-0.6,0.1c-0.2,0.1-0.5,0.2-0.8,0.2s-0.5-0.1-0.8-0.2
						c-1-0.4-1.8-1.2-2.3-2.2c-0.3-0.5-0.3-1-0.2-1.6C359.1,53,359.4,52.6,359.9,52.3z"/>
					<path class="st5" d="M325.2,49.1c1.4,0,2.9,2.7,1.2,2.7C325,51.9,323.4,49.1,325.2,49.1z"/>
					<path class="st5" d="M322.1,64.5c0.1-0.1,0.2-0.2,0.4-0.2c0.2,0,0.4,0,0.6,0.1c0.8,0.3,1.4,1.4,0.9,2v0.1
						c-0.1,0.1-0.2,0.2-0.4,0.2c-0.1,0-0.3,0-0.4-0.1c-0.5,0.1-1.1-0.5-1.2-1.1c-0.1-0.2-0.2-0.4-0.2-0.6
						C321.9,64.9,322,64.7,322.1,64.5z"/>
					<path class="st5" d="M314.1,48.3c0.9-0.4,2.1,0.4,2.6,1.2s0.7,1.4,0.1,1.9c-0.2,0.2-0.4,0.3-0.6,0.3c-0.3,0.1-0.6,0-0.9-0.1
						s-0.6-0.3-0.8-0.6c-0.1-0.1-0.2-0.3-0.4-0.4C313.6,50,313.2,48.8,314.1,48.3z"/>
					<path class="st5" d="M310.9,52.6c0.3-0.1,0.5-0.1,0.8,0s0.5,0.2,0.7,0.4s0.4,0.4,0.5,0.7s0.2,1-0.3,1.1c-0.3,0.1-0.6,0.1-0.9,0
						s-0.6-0.3-0.8-0.5C310.6,54,310.1,52.8,310.9,52.6z"/>
					<path class="st5" d="M308.6,59.5c1.1,0,2.5,2.4,1,2.4C308.5,61.8,307.1,59.5,308.6,59.5z"/>
					<path class="st5" d="M292,39.2c0.5,0.4,1.7,0.9,2.3,0.3h0.1c1.2-0.4,0.9-2.1,0.3-2.9c-0.3-0.5-0.7-0.9-1.2-1.1
						s-1.1-0.4-1.6-0.4C289.5,35.5,290.8,38.3,292,39.2z"/>
					<path class="st5" d="M293.9,50.4c1,0,2.3,2.1,0.9,2.1C293.8,52.5,292.6,50.4,293.9,50.4z"/>
					<path class="st5" d="M361.1,27.3h0.1c0.9-0.2,1.9,0.8,2.2,1.5c0.3,0.7,0,2-1.2,1.7H362c-0.4-0.1-0.8-0.3-1.1-0.5
						c-0.3-0.3-0.6-0.6-0.7-1C360,28.2,360.2,27.4,361.1,27.3z"/>
					<path class="st5" d="M366.8,34.3c1.1,0,2.3,2.1,0.9,2.1C366.7,36.4,365.5,34.3,366.8,34.3z"/>
					<path class="st5" d="M382,54.7c0.7,0,1.3,0.2,1.9,0.6c0.6,0.4,1,0.9,1.2,1.5c0.4,0.9,0.3,2.4-1.1,2.4c-0.7,0-1.3-0.2-1.8-0.6
						c-0.5-0.4-1-0.9-1.2-1.5C380.5,56.2,380.7,54.7,382,54.7z"/>
				</g>
				<g class="st6">
					<path class="st5" d="M246.4,62.3c0.9,0,1.9,1.8,0.8,1.8C246.3,64.1,245.2,62.3,246.4,62.3z"/>
					<path class="st5" d="M240.5,60.8c0.1-0.1,0.2-0.2,0.3-0.2s0.2,0,0.4,0h0.1h0.1c0.5-0.1,1,0.5,1.2,0.9s0.5,1.4-0.1,1.6
						c-0.9,0.4-1.7-0.6-2.1-1.4c-0.1-0.2-0.1-0.3-0.1-0.5C240.3,61.1,240.4,60.9,240.5,60.8z"/>
					<path class="st5" d="M246.6,47.2c0.9,0,1.9,1.8,0.8,1.8C246.5,48.9,245.5,47.2,246.6,47.2z"/>
					<path class="st5" d="M237.3,60.2c-0.1-0.3,0-0.5,0.3-0.5s0.7,0.5,0.8,0.8c0.4,0.4,0.5,1.1-0.1,1.1
						C237.7,61.6,237,60.5,237.3,60.2z"/>
					<path class="st5" d="M232.7,59.7c0.8-0.5,1.9,0.3,2.4,0.8c0.3,0.3,0.6,0.7,0.8,1.1c0.2,0.4,0.3,0.9,0.3,1.3
						c0,0.2-0.1,0.3-0.2,0.5c-0.1,0.1-0.2,0.3-0.4,0.3c-0.2,0.1-0.3,0.1-0.5,0.1c-0.2,0.1-0.4,0.2-0.6,0.2s-0.4-0.1-0.6-0.2
						c-0.8-0.4-1.5-1.1-1.9-1.9c-0.2-0.4-0.2-0.8-0.1-1.2C232.1,60.3,232.4,60,232.7,59.7z"/>
					<path class="st5" d="M228.7,52.2c1.1,0,2.4,2.2,1,2.2C228.6,54.5,227.3,52.2,228.7,52.2z"/>
					<path class="st5" d="M226.2,64.9c0.1-0.1,0.2-0.2,0.3-0.2c0.2,0,0.3,0,0.5,0.1c0.6,0.2,1.2,1.1,0.8,1.6
						c-0.1,0.1-0.2,0.1-0.3,0.2c-0.1,0-0.2,0-0.4-0.1c-0.4,0.1-1-0.4-1-0.9c-0.1-0.1-0.1-0.3-0.1-0.4
						C226.1,65.1,226.1,65,226.2,64.9z"/>
					<path class="st5" d="M219.6,51.6c0.8-0.4,1.8,0.4,2.1,1c0.4,0.6,0.6,1.1,0.1,1.6c-0.1,0.1-0.3,0.2-0.5,0.2
						c-0.2,0.1-0.5,0.1-0.8,0s-0.5-0.3-0.7-0.5c-0.1-0.1-0.2-0.2-0.3-0.4C219.2,53,218.9,52,219.6,51.6z"/>
					<path class="st5" d="M216.9,55.1c0.2-0.1,0.4-0.1,0.6,0c0.2,0.1,0.4,0.2,0.6,0.3c0.2,0.1,0.3,0.3,0.4,0.6
						c0.1,0.3,0.2,0.8-0.2,0.9c-0.2,0.1-0.5,0.1-0.7,0s-0.5-0.2-0.6-0.4C216.7,56.2,216.3,55.3,216.9,55.1z"/>
					<path class="st5" d="M215.1,60.8c0.9,0,2.1,1.9,0.8,1.9C215,62.7,213.8,60.8,215.1,60.8z"/>
					<path class="st5" d="M201.4,44.1c0.5,0.3,1.4,0.7,1.9,0.3h0.1c1-0.3,0.8-1.7,0.2-2.3c-0.2-0.4-0.6-0.7-1-1
						c-0.4-0.2-0.9-0.3-1.4-0.3C199.3,41,200.4,43.3,201.4,44.1z"/>
					<path class="st5" d="M203,53.3c0.9,0,1.9,1.7,0.8,1.7C202.9,55.1,201.9,53.3,203,53.3z"/>
					<path class="st5" d="M258.3,34.2h0.1c0.8-0.1,1.6,0.6,1.8,1.3c0.3,0.6,0,1.6-1,1.4h-0.1c-0.3-0.1-0.6-0.2-0.9-0.4
						s-0.5-0.5-0.6-0.8C257.4,35,257.6,34.4,258.3,34.2z"/>
					<path class="st5" d="M263,40c0.9,0,1.9,1.8,0.8,1.8C262.9,41.8,261.9,40,263,40z"/>
					<path class="st5" d="M275.5,56.8c0.5,0,1.1,0.2,1.5,0.5s0.8,0.7,1,1.2c0.3,0.8,0.2,2-0.9,2c-0.5,0-1.1-0.2-1.5-0.5
						s-0.8-0.7-1-1.2C274.3,58,274.4,56.8,275.5,56.8z"/>
				</g>
				<g class="st6">
					<path class="st5" d="M49,62.3c0.9,0,1.9,1.8,0.8,1.8C48.9,64.1,47.8,62.3,49,62.3z"/>
					<path class="st5" d="M43.1,60.8c0.1-0.1,0.2-0.2,0.3-0.2s0.2,0,0.4,0h0.1H44c0.5-0.1,1,0.5,1.2,0.9s0.4,1.4-0.2,1.6
						c-0.9,0.4-1.7-0.6-2-1.4c-0.1-0.2-0.1-0.3-0.1-0.5C42.9,61.1,43,60.9,43.1,60.8z"/>
					<path class="st5" d="M49.2,47.2c0.9,0,1.9,1.8,0.8,1.8C49.2,48.9,48.1,47.2,49.2,47.2z"/>
					<path class="st5" d="M39.9,60.2c-0.1-0.3,0-0.5,0.3-0.5s0.8,0.5,0.8,0.8c0.4,0.4,0.5,1.1-0.1,1.1
						C40.3,61.6,39.6,60.5,39.9,60.2z"/>
					<path class="st5" d="M35.3,59.7c0.8-0.5,1.9,0.3,2.4,0.8c0.7,0.6,1.1,1.5,1.1,2.4c0,0.2-0.1,0.3-0.2,0.5
						c-0.1,0.1-0.2,0.3-0.4,0.3c-0.2,0.1-0.3,0.1-0.5,0.1c-0.2,0.1-0.4,0.2-0.6,0.2s-0.4-0.1-0.6-0.2c-0.8-0.4-1.5-1.1-1.9-1.9
						c-0.2-0.4-0.2-0.8-0.1-1.2C34.7,60.3,35,60,35.3,59.7z"/>
					<path class="st5" d="M31.3,52.2c1.1,0,2.4,2.2,1,2.2C31.2,54.5,29.9,52.2,31.3,52.2z"/>
					<path class="st5" d="M28.8,64.9c0.1-0.1,0.2-0.1,0.3-0.2c0.2,0,0.4,0,0.5,0.1c0.6,0.2,1.2,1.1,0.8,1.6
						c-0.1,0.1-0.2,0.1-0.3,0.2c-0.1,0-0.2,0-0.4-0.1c-0.4,0.1-1-0.4-1-0.9c-0.1-0.1-0.1-0.3-0.1-0.4C28.7,65.1,28.7,65,28.8,64.9z"
						/>
					<path class="st5" d="M22.2,51.6c0.8-0.4,1.8,0.4,2.1,1c0.4,0.6,0.6,1.1,0.1,1.6c-0.1,0.1-0.3,0.2-0.5,0.2
						c-0.3,0.1-0.5,0.1-0.8,0s-0.5-0.3-0.7-0.5c-0.1-0.1-0.2-0.2-0.3-0.4C21.8,53,21.4,52,22.2,51.6z"/>
					<path class="st5" d="M19.5,55.1c0.2-0.1,0.4-0.1,0.6,0s0.4,0.2,0.6,0.3s0.3,0.3,0.4,0.6s0.2,0.8-0.2,0.9
						c-0.2,0.1-0.5,0.1-0.7,0s-0.5-0.2-0.6-0.4C19.3,56.2,18.9,55.3,19.5,55.1z"/>
					<path class="st5" d="M17.7,60.8c0.9,0,2.1,1.9,0.9,1.9C17.6,62.7,16.4,60.8,17.7,60.8z"/>
					<path class="st5" d="M4.1,44.1c0.5,0.3,1.4,0.7,1.9,0.3c1-0.3,0.8-1.7,0.2-2.3c-0.2-0.4-0.6-0.7-1-1c-0.5-0.3-0.9-0.4-1.4-0.4
						C1.9,41,3,43.3,4.1,44.1z"/>
					<path class="st5" d="M5.6,53.3c0.9,0,1.9,1.7,0.8,1.7C5.5,55.1,4.5,53.3,5.6,53.3z"/>
					<path class="st5" d="M60.9,34.2L60.9,34.2c0.9-0.1,1.7,0.6,1.9,1.3c0.3,0.6,0,1.6-1,1.4h-0.1c-0.3-0.1-0.6-0.2-0.9-0.4
						c-0.3-0.2-0.5-0.5-0.6-0.8C60,35,60.2,34.4,60.9,34.2z"/>
					<path class="st5" d="M65.6,40c0.9,0,1.9,1.8,0.8,1.8C65.5,41.8,64.5,40,65.6,40z"/>
					<path class="st5" d="M78.1,56.8c0.5,0,1.1,0.2,1.5,0.5s0.8,0.7,1,1.2c0.3,0.8,0.2,2-0.9,2c-0.5,0-1.1-0.2-1.5-0.5
						s-0.8-0.7-1-1.2C76.9,58,77,56.8,78.1,56.8z"/>
				</g>
				<g class="st6">
					<path class="st5" d="M149.2,61.4c1.1,0,2.3,2.1,0.9,2.1C149.1,63.5,147.9,61.4,149.2,61.4z"/>
					<path class="st5" d="M142.1,59.5c0.1-0.1,0.2-0.2,0.4-0.2c0.1,0,0.3,0,0.4,0h0.1h0.1c0.6-0.1,1.3,0.6,1.5,1.1s0.6,1.7-0.2,2
						c-1.1,0.4-2.1-0.8-2.5-1.6c-0.1-0.2-0.2-0.4-0.1-0.7C141.9,59.9,142,59.7,142.1,59.5z"/>
					<path class="st5" d="M149.5,42.9c1.1,0,2.3,2.1,0.9,2.1C149.4,45.1,148.2,42.9,149.5,42.9z"/>
					<path class="st5" d="M138.2,58.8c-0.1-0.3,0-0.6,0.3-0.6c0.2,0,0.5,0.2,0.6,0.3c0.2,0.2,0.3,0.4,0.4,0.6
						c0.4,0.5,0.6,1.3-0.1,1.3S137.8,59.2,138.2,58.8z"/>
					<path class="st5" d="M162.5,52.3c0.9-0.6,2.3,0.4,2.9,0.9c0.4,0.4,0.7,0.8,1,1.3c0.2,0.5,0.4,1.1,0.4,1.6
						c0,0.2-0.1,0.4-0.2,0.6c-0.1,0.2-0.3,0.3-0.5,0.4c-0.2,0.1-0.4,0.1-0.6,0.1c-0.2,0.1-0.5,0.2-0.8,0.2s-0.5-0.1-0.8-0.2
						c-1-0.5-1.8-1.2-2.3-2.2c-0.3-0.5-0.3-1-0.2-1.6C161.7,53,162.1,52.6,162.5,52.3z"/>
					<path class="st5" d="M127.8,49.1c1.4,0,2.9,2.7,1.2,2.7C127.6,51.9,126,49.1,127.8,49.1z"/>
					<path class="st5" d="M124.7,64.5c0.1-0.1,0.2-0.2,0.4-0.2c0.2,0,0.4,0,0.6,0.1c0.8,0.3,1.4,1.4,0.9,2v0.1
						c-0.1,0.1-0.2,0.2-0.4,0.2c-0.1,0-0.3,0-0.4-0.1c-0.5,0.1-1.1-0.5-1.2-1.1c-0.1-0.2-0.2-0.4-0.2-0.6
						C124.5,64.9,124.6,64.7,124.7,64.5z"/>
					<path class="st5" d="M116.7,48.3c0.9-0.4,2.1,0.4,2.6,1.2c0.4,0.8,0.7,1.4,0.1,1.9c-0.2,0.2-0.4,0.3-0.6,0.3
						c-0.3,0.1-0.6,0-0.9-0.1s-0.6-0.3-0.8-0.6c-0.1-0.1-0.2-0.3-0.4-0.4C116.2,50,115.8,48.8,116.7,48.3z"/>
					<path class="st5" d="M113.5,52.6c0.3-0.1,0.5-0.1,0.8,0s0.5,0.2,0.7,0.4s0.4,0.4,0.5,0.7s0.2,1-0.3,1.1c-0.3,0.1-0.6,0.1-0.9,0
						s-0.5-0.3-0.7-0.5C113.2,54,112.7,52.8,113.5,52.6z"/>
					<path class="st5" d="M111.2,59.5c1.1,0,2.5,2.4,1,2.4C111.1,61.8,109.7,59.5,111.2,59.5z"/>
					<path class="st5" d="M94.6,39.2c0.6,0.4,1.7,0.9,2.3,0.3c1.2-0.4,0.9-2.1,0.3-2.9c-0.3-0.5-0.7-0.9-1.2-1.2S94.9,35,94.4,35
						C92.1,35.5,93.4,38.3,94.6,39.2z"/>
					<path class="st5" d="M96.5,50.4c1,0,2.3,2.1,0.9,2.1C96.4,52.5,95.2,50.4,96.5,50.4z"/>
					<path class="st5" d="M163.7,27.3h0.1c0.9-0.2,1.9,0.8,2.2,1.5s0,2-1.2,1.7h-0.2c-0.4-0.1-0.8-0.3-1.1-0.5
						c-0.3-0.3-0.6-0.6-0.7-1C162.6,28.2,162.8,27.4,163.7,27.3z"/>
					<path class="st5" d="M169.4,34.3c1.1,0,2.3,2.1,0.9,2.1C169.3,36.4,168.1,34.3,169.4,34.3z"/>
					<path class="st5" d="M184.6,54.7c0.7,0,1.3,0.2,1.8,0.6c0.5,0.4,1,0.9,1.2,1.5c0.4,0.9,0.2,2.4-1.1,2.4c-0.7,0-1.3-0.2-1.8-0.6
						c-0.5-0.4-1-0.9-1.2-1.5C183.1,56.2,183.3,54.7,184.6,54.7z"/>
				</g>
			</g>
		</g>
	</g>
</g>
</svg>
