<?xml version="1.0" encoding="utf-8"?>
<!-- Generator: Adobe Illustrator 25.3.1, SVG Export Plug-In . SVG Version: 6.00 Build 0)  -->
<svg version="1.1" id="圖層_1" xmlns="http://www.w3.org/2000/svg" xmlns:xlink="http://www.w3.org/1999/xlink" x="0px" y="0px"
	 viewBox="0 0 1440 40" style="enable-background:new 0 0 1440 40;" xml:space="preserve">
<style type="text/css">
	.st0{fill:#263238;}
	.st1{fill:#FFC727;}
	.st2{opacity:0.1;enable-background:new    ;}
</style>
<g>
	<path class="st0" d="M1.1,0.2L1.1,0.2l-39,39l-14.8,0l-1.7-32.5l6.5-6.4L1.1,0.2z"/>
	<path class="st1" d="M1452,0.6l2,39l-51.9,0l-93,0l-93.1,0l-186.2,0l-93.1,0l-48.8,0l-44.2,0l-83.5,0l-2.3,0l-7.4,0l-3.9,0l-2.6,0
		l-4,0l-5,0l-4.4,0l-4.2,0l-2.3,0l-11.6,0l-2.3,0l-9,0l-2.4,0l-2.6,0l-2.3,0l-6.2,0l-2.3,0l-16.1,0l-2.3,0l-5.3-0.1l-2.3,0.1l-2,0
		l-2.8,0l-4,0l-4,0l-8.2,0l-4.8,0l-6,0l-14.1,0l-1.1,0.1l-48-0.1l-44,0l-25.2,0l-0.3,0l-23.6,0l-44,0l-3.9,0l-45.2,0l-44,0l-49.1,0
		l-44,0l-49.1,0l-44.1,0l-49,0l-44,0l-49.1,0l-44,0l-14.8,0l-2-39l6.8,0l49.1,0l44,0l49,0l44,0l49.1,0.1l44,0l49.1,0l44,0l49,0l44,0
		l49.1,0l44,0l49.1,0.1l44,0l49,0l44.1,0l49,0l44,0.1l49.1,0l44,0l3.3,0l0.2,0l45.5-0.1l44.2,0l39.1,0l0.2,0l6.7,0l3,0l6.5,0l9.1,0
		l5.6,0l2.7,0l6.3,0l2.8,0l11,0l1.1-0.1l2.3,0l0.8,0l3,0l2.7,0l2.3,0l3.8,0l2.3,0l9.1,0l2.1,0.2l5.4,0l2.3,0l11.8,0l4,0l3.1,0l6,0
		l2.4,0l3.3,0l2.3,0l4.7,0l2.9,0l5.2,0l5.7,0l4.2,0l49.2,0l44,0l23.8,0l0.2,0l25.1,0l44,0l49,0l44,0L1452,0.6z"/>
	<path class="st2" d="M1452,0.6l2,39l-51.9,0l-93,0l-93.1,0l-186.2,0l-93.1,0l-48.8,0l-44.2,0l-83.5,0l-2.3,0l-7.4,0l-3.9,0l-2.6,0
		l-4,0l-5,0l-4.4,0l-4.2,0l-2.3,0l-11.6,0l-2.3,0l-9,0l-2.4,0l-2.6,0l-2.3,0l-6.2,0l-2.3,0l-16.1,0l-2.3,0l-5.3-0.1l-2.3,0.1l-2,0
		l-2.8,0l-4,0l-4,0l-8.2,0l-4.8,0l-6,0l-14.1,0l-1.1,0.1l-48-0.1l-44,0l-25.2,0l-0.3,0l-23.6,0l-44,0l-3.9,0l-45.2,0l-44,0l-49.1,0
		l-44,0l-49.1,0l-44.1,0l-49,0l-44,0l-49.1,0l-44,0l-14.8,0l-2-39l6.8,0l49.1,0l44,0l49,0l44,0l49.1,0.1l44,0l49.1,0l44,0l49,0l44,0
		l49.1,0l44,0l49.1,0.1l44,0l49,0l44.1,0l49,0l44,0.1l49.1,0l44,0l3.3,0l0.2,0l45.5-0.1l44.2,0l39.1,0l0.2,0l6.7,0l3,0l6.5,0l9.1,0
		l5.6,0l2.7,0l6.3,0l2.8,0l11,0l1.1-0.1l2.3,0l0.8,0l3,0l2.7,0l2.3,0l3.8,0l2.3,0l9.1,0l2.1,0.2l5.4,0l2.3,0l11.8,0l4,0l3.1,0l6,0
		l2.4,0l3.3,0l2.3,0l4.7,0l2.9,0l5.2,0l5.7,0l4.2,0l49.2,0l44,0l23.8,0l0.2,0l25.1,0l44,0l49,0l44,0L1452,0.6z"/>
	<path class="st0" d="M94.1,0.2l-39,39l-49.1,0l39-39L94.1,0.2z"/>
	<path class="st0" d="M187.2,0.3l-39,39l-49.1,0l39-39L187.2,0.3z"/>
	<path class="st0" d="M280.3,0.3l-39,39l-49.1,0l39-39L280.3,0.3z"/>
	<path class="st0" d="M373.3,0.3l-39,39l-49.1,0l39-39L373.3,0.3z"/>
	<path class="st0" d="M466.4,0.3l-39,39l-49.1,0l39-39L466.4,0.3z"/>
	<path class="st0" d="M559.5,0.4l-39,39l-49.1,0l39-39L559.5,0.4z"/>
	<path class="st0" d="M652.5,0.4l-39,39l-49.1,0l39-39L652.5,0.4z"/>
	<path class="st0" d="M745.6,0.4l-39,39l-49.1,0l39-39L745.6,0.4z"/>
	<path class="st0" d="M838.7,0.4l-39,39l-49.1,0l39-39L838.7,0.4z"/>
	<path class="st0" d="M931.7,0.5l-39,39l-49.1,0l39-39L931.7,0.5z"/>
	<path class="st0" d="M1024.8,0.5l-39,39l-49.1,0l39-39L1024.8,0.5z"/>
	<path class="st0" d="M1117.9,0.5l-39,39l-49.1,0l39-39L1117.9,0.5z"/>
	<path class="st0" d="M1210.9,0.5l-39,39l-49.1,0l39-39L1210.9,0.5z"/>
	<path class="st0" d="M1304,0.6l-39,39l-49.1,0l39-39L1304,0.6z"/>
	<path class="st0" d="M1397.1,0.6l-39,39l-49,0l39-39L1397.1,0.6z"/>
	<path class="st0" d="M1452,0.6l1.9,36.3l-2.7,2.7l-49.1,0l39-39L1452,0.6z"/>
</g>
</svg>
