<svg xmlns="http://www.w3.org/2000/svg" xmlns:xlink="http://www.w3.org/1999/xlink" viewBox="0 0 198.32 263.36"><defs><style>.cls-1{filter:url(#filter);}.cls-2{fill:#fff;opacity:0.34;}.cls-3{fill:url(#linear-gradient);}.cls-4,.cls-7{opacity:0.4;}.cls-5,.cls-7{fill:#7d97f4;}.cls-6{fill:url(#linear-gradient-2);}</style><filter id="filter"><feOffset dx="3" dy="3" input="SourceAlpha"/><feGaussianBlur stdDeviation="10" result="blur"/><feFlood/><feComposite operator="in" in2="blur"/><feComposite in="SourceGraphic"/></filter><linearGradient id="linear-gradient" x1="2989.52" y1="-25.91" x2="2922.79" y2="118.34" gradientTransform="matrix(-1, 0, 0, 1, 3019.62, 0)" gradientUnits="userSpaceOnUse"><stop offset="0" stop-color="#40447e"/><stop offset="1" stop-color="#3c3b6b"/></linearGradient><linearGradient id="linear-gradient-2" x1="2821.3" y1="200.26" x2="2908.11" y2="200.26" xlink:href="#linear-gradient"/></defs><g id="圖層_2" data-name="圖層 2"><g id="artwork"><g class="cls-1"><ellipse class="cls-2" cx="77.89" cy="77.39" rx="69.13" ry="70.4" transform="translate(-30.1 97.24) rotate(-55.23)"/><path class="cls-3" d="M121.75,14.2c35.54,24.67,44.71,73,20.49,107.86S69.57,165.25,34,140.58s-44.71-73-20.49-107.86S86.21-10.47,121.75,14.2ZM40.47,131.3c30.32,21,71.65,14,92.32-15.8s12.84-71-17.48-92S43.65,9.51,23,39.28,10.15,110.25,40.47,131.3Z"/><g class="cls-4"><path class="cls-5" d="M132.53,126.35c1.23-1.36,2.43-2.79,3.55-4.25a.44.44,0,0,0-.08-.61.43.43,0,0,0-.61.08c-1.11,1.44-2.28,2.85-3.5,4.2a.44.44,0,0,0,0,.61l.05,0A.43.43,0,0,0,132.53,126.35Zm11.33-17.87a.43.43,0,0,0,.57-.22A70.8,70.8,0,0,0,149.2,94c6.34-28.91-5.53-58.66-30.22-75.8A74.09,74.09,0,0,0,80.19,5a.43.43,0,1,0,0,.86A73.29,73.29,0,0,1,118.49,18.9c24.4,16.94,36.12,46.34,29.86,74.91a69.24,69.24,0,0,1-4.71,14.09.44.44,0,0,0,.15.54Z"/></g><path class="cls-6" d="M118.5,137.16l78,110.47a9.73,9.73,0,0,1-3,14l-.8.47a9,9,0,0,1-12.43-3.19L111.51,141.63Z"/><path class="cls-7" d="M185,259.86a.38.38,0,0,1-.15-.42.39.39,0,0,1,.48-.27c3.68,1,6.4.45,8.07-1.74a6.71,6.71,0,0,0,.08-7.8L184.32,236a.39.39,0,0,1,.11-.54.38.38,0,0,1,.53.11l9.15,13.58a7.49,7.49,0,0,1-.11,8.7c-1.88,2.48-4.87,3.16-8.89,2A.43.43,0,0,1,185,259.86Z"/><path class="cls-7" d="M181.61,232a.32.32,0,0,1-.1-.1l-1.19-1.76a.4.4,0,0,1,.1-.54.39.39,0,0,1,.54.11l1.19,1.76a.39.39,0,0,1-.11.53A.38.38,0,0,1,181.61,232Z"/></g></g></g></svg>