<svg width="41" height="45" viewBox="0 0 41 45" fill="none" xmlns="http://www.w3.org/2000/svg">
<g clip-path="url(#clip0_65_343)">
<path d="M16.3451 2.82665C17.7984 1.53107 19.0981 1.40257 20.1435 2.44818C21.1889 3.49379 21.0599 4.7612 19.7603 6.22928C20.0216 6.89115 20.2688 7.56006 20.562 8.20785C20.6114 8.31522 20.8692 8.37331 21.0317 8.37683C22.2731 8.40676 23.1613 9.00878 23.4898 10.0649C23.9418 11.5137 22.9212 13.0205 21.4043 13.1384C21.1429 13.1595 20.8763 13.1419 20.6361 13.1419C20.3324 13.8654 20.0446 14.5519 19.7797 15.1839C20.1717 15.8 20.5567 16.4037 20.9628 17.041C21.4467 16.9037 22.0382 16.747 22.6192 16.5551C22.7057 16.527 22.7834 16.3386 22.7905 16.2207C22.8241 15.6521 22.7852 15.0747 22.8611 14.5114C23.0201 13.3162 24.0584 12.4765 25.2645 12.5082C26.4759 12.5399 27.4471 13.4201 27.5619 14.6294C27.6113 15.1522 27.5813 15.682 27.6166 16.2084C27.6255 16.3333 27.7279 16.5393 27.8215 16.5604C29.2483 16.8984 30.5727 17.4687 31.9324 18.3471C32.3403 17.8877 32.7112 17.386 33.1668 16.9776C33.9031 16.3175 34.9379 16.24 35.7979 16.6942C36.6544 17.1483 37.1523 18.0637 37.0605 19.0248C37.0022 19.6339 36.7285 20.1408 36.2941 20.5651C35.9374 20.9136 35.5772 21.2569 35.2081 21.6124C35.4659 22.0912 35.7502 22.5207 35.9392 22.989C36.2782 23.8269 36.5731 24.6841 36.8557 25.5432C36.9334 25.7808 37.0199 25.8776 37.2742 25.8706C37.7439 25.8547 38.2154 25.8547 38.6833 25.8776C39.9972 25.9427 40.9843 26.9532 41.0002 28.2294C41.0161 29.5091 40.006 30.5653 38.678 30.6286C38.1077 30.655 37.5355 30.6339 37.087 30.6339C36.476 32.0897 35.8968 33.4697 35.2346 35.047C35.5666 35.3374 36.0804 35.6983 36.4813 36.1577C37.6556 37.5078 37.0075 39.5498 35.277 39.9986C34.5106 40.1976 33.7689 40.0743 33.1738 39.5304C32.7112 39.1062 32.3156 38.608 31.9589 38.2155C30.887 38.6943 29.9599 39.122 29.0187 39.5181C28.6709 39.6642 28.293 39.7557 27.9221 39.8349C27.6696 39.8877 27.5937 40.0039 27.5954 40.2521C27.6007 40.7925 27.606 41.3382 27.5584 41.8751C27.4542 43.0598 26.4512 43.9681 25.2521 43.998C24.0849 44.0262 23.0183 43.1742 22.8611 42.0212C22.7799 41.4298 22.8258 40.8225 22.787 40.2257C22.7799 40.1025 22.6793 39.9159 22.5786 39.8789C21.9023 39.6378 21.1977 39.4723 20.5372 39.2012C19.8768 38.9301 19.2535 38.564 18.4818 38.1697C18.0986 38.5939 17.7154 39.1062 17.2439 39.5181C16.3168 40.3313 14.9129 40.2504 14.0424 39.3949C13.17 38.5376 13.0835 37.1523 13.8764 36.2035C14.2808 35.7211 14.7434 35.2899 15.1407 34.8762C14.7081 33.9133 14.2719 32.9769 13.8693 32.0263C13.7157 31.6654 13.6609 31.2641 13.5232 30.8962C13.4826 30.7871 13.3201 30.6586 13.2054 30.6515C12.7515 30.6234 12.2942 30.648 11.8403 30.6374C10.4577 30.6022 9.4052 29.5707 9.39813 28.2575C9.39284 26.9584 10.4064 25.9357 11.7785 25.8723C12.2324 25.8512 12.6897 25.8811 13.1435 25.8547C13.2707 25.8477 13.4826 25.7438 13.5038 25.6523C13.8252 24.2247 14.4061 22.9062 15.1725 21.7057C14.8105 21.3572 14.4785 21.0368 14.2137 20.7816C13.917 21.1759 13.6556 21.6688 13.2636 22.0085C12.5502 22.6246 11.6867 22.7056 10.8267 22.3218C9.89258 21.9046 9.40343 21.1319 9.41579 20.1285C9.42109 19.611 9.24274 19.4138 8.78184 19.2959C8.43044 19.2061 8.08609 19.0547 7.77353 18.8699C7.42565 18.664 7.19962 18.6904 6.91532 19.0002C6.26724 19.7025 5.44082 19.9472 4.5102 19.6937C2.81496 19.2308 2.16512 17.1888 3.35356 15.8774C3.82151 15.3617 3.8374 15.0026 3.50719 14.4586C3.28998 14.103 3.29881 13.5538 3.01451 13.3109C2.74963 13.0838 2.2287 13.1754 1.83137 13.0786C0.651772 12.7899 -0.105787 11.7284 0.0125267 10.5684C0.137904 9.32739 1.06145 8.40852 2.31169 8.41028C2.87677 8.41028 3.1134 8.22369 3.23701 7.70616C3.32 7.35587 3.48776 7.01789 3.66611 6.70104C3.8427 6.38771 3.8374 6.17823 3.5531 5.91595C2.86794 5.28049 2.596 4.4778 2.82909 3.56245C3.27409 1.81448 5.35959 1.14029 6.69105 2.36017C7.17843 2.80552 7.52454 2.82665 8.02958 2.50275C8.28387 2.34081 8.5876 2.23871 8.88426 2.16478C9.26746 2.06972 9.40343 1.89721 9.40696 1.47298C9.42109 -0.304907 11.0351 -1.43677 12.6473 -0.840034C13.6044 -0.486216 14.1713 0.362242 14.1836 1.53988C14.1872 1.87609 14.2914 2.02219 14.6075 2.12957C15.1884 2.32848 15.7482 2.58373 16.3451 2.82665ZM35.7961 29.2697C36.1069 29.2697 36.4283 29.2732 36.7497 29.2697C37.4101 29.2626 38.0724 29.2785 38.731 29.2362C39.2378 29.2028 39.5892 28.7962 39.6193 28.3051C39.6475 27.8315 39.3208 27.3932 38.8281 27.2876C38.6162 27.2418 38.392 27.2313 38.1748 27.2295C37.3713 27.2225 36.5678 27.2278 35.7555 27.2278C35.526 25.0732 34.7384 23.1949 33.4087 21.535C33.5341 21.403 33.6312 21.2956 33.7336 21.1935C34.2634 20.6636 34.8002 20.1444 35.3211 19.6057C35.782 19.1287 35.8085 18.5284 35.4147 18.113C35.0086 17.6852 34.3852 17.6993 33.8819 18.1588C33.6541 18.3665 33.4422 18.59 33.225 18.8101C32.8048 19.2325 32.3845 19.6585 31.9571 20.0898C30.2548 18.7115 28.3654 17.944 26.2251 17.7046C26.2251 17.5356 26.2251 17.393 26.2251 17.2487C26.2251 16.5023 26.234 15.7542 26.2216 15.0078C26.2092 14.3319 25.7695 13.8637 25.185 13.876C24.6023 13.8901 24.2032 14.3284 24.1855 14.9938C24.1749 15.418 24.182 15.844 24.182 16.2682C24.182 16.7452 24.182 17.2223 24.182 17.7081C22.0029 17.9422 20.124 18.7396 18.3705 20.1373C18.1922 19.9138 18.0456 19.6937 17.862 19.5071C17.3905 19.0248 16.9119 18.5478 16.4228 18.0848C16.1208 17.7997 15.7482 17.7222 15.3597 17.8701C14.9906 18.0109 14.7717 18.2961 14.7187 18.6939C14.6657 19.0952 14.8582 19.3962 15.1284 19.6638C15.7517 20.2799 16.3769 20.896 17.0126 21.5227C15.6405 23.209 14.8759 25.0943 14.641 27.2313C14.113 27.2313 13.6168 27.2242 13.1206 27.233C12.6085 27.2418 12.0911 27.226 11.586 27.2964C11.0739 27.3668 10.772 27.7963 10.7896 28.2962C10.8055 28.7927 11.1463 29.1958 11.6567 29.2415C12.1529 29.2855 12.6544 29.2715 13.1524 29.2767C13.6468 29.282 14.1413 29.2785 14.6498 29.2785C14.8812 31.4454 15.6952 33.3113 17.0461 35.0029C16.7759 35.2494 16.5323 35.4606 16.3009 35.6859C15.8718 36.1066 15.4427 36.5291 15.026 36.9639C14.7328 37.272 14.6198 37.6451 14.7699 38.0553C14.9077 38.4267 15.192 38.6485 15.5857 38.7084C16.006 38.7735 16.3168 38.5587 16.5958 38.2806C17.2156 37.6592 17.8372 37.0396 18.4765 36.4006C20.1541 37.7596 22.0471 38.5182 24.1802 38.7612C24.1802 38.9548 24.1802 39.1132 24.1802 39.2716C24.182 40.0479 24.1679 40.8242 24.1891 41.6005C24.2067 42.2148 24.6129 42.6144 25.1744 42.6268C25.7324 42.6391 26.1527 42.2518 26.2128 41.6498C26.2339 41.4474 26.2216 41.2396 26.2216 41.0355C26.2216 40.2785 26.2216 39.5198 26.2216 38.7541C28.3813 38.5253 30.2584 37.7314 31.9766 36.3654C32.1002 36.5256 32.1867 36.6647 32.2997 36.7791C32.8242 37.3124 33.3451 37.8493 33.889 38.3633C34.4753 38.9178 35.2576 38.8052 35.5878 38.1451C35.7873 37.7455 35.6849 37.2825 35.284 36.8741C34.6589 36.2404 34.0232 35.6155 33.3981 34.9941C35.1693 32.3062 35.1516 32.2446 35.7961 29.2697ZM5.58738 15.5746C5.2607 15.8809 4.84925 16.2365 4.47665 16.6291C4.01046 17.1219 4.01929 17.7539 4.46076 18.1482C4.88986 18.5302 5.45141 18.5108 5.92466 18.0584C6.32375 17.6764 6.69105 17.261 6.97359 16.9653C7.95365 17.4018 8.7995 17.7944 9.65948 18.1552C10.0127 18.3031 10.5477 18.2785 10.7225 18.5267C10.9115 18.7925 10.7737 19.2871 10.779 19.6832C10.7808 19.8293 10.7755 19.9771 10.7826 20.1232C10.8179 20.7358 11.2046 21.1407 11.7644 21.1565C12.3401 21.1724 12.7815 20.7675 12.8116 20.1426C12.8398 19.5758 12.8169 19.0055 12.8169 18.4034C14.1695 18.194 15.3827 17.7064 16.5164 16.8526C16.9137 17.2733 17.2775 17.6976 17.6836 18.0743C18.261 18.6111 19.0204 18.4932 19.3506 17.8472C19.5519 17.4546 19.4707 16.9917 19.091 16.6079C18.7113 16.226 18.3034 15.8721 17.8937 15.4937C18.706 14.4041 19.1934 13.274 19.4353 12.033C19.4548 11.9344 19.672 11.8164 19.8044 11.8059C20.3306 11.7654 20.8639 11.8041 21.3849 11.739C21.9959 11.6615 22.3225 11.1035 22.1724 10.5068C22.0453 10.0033 21.6392 9.7481 20.9416 9.74282C20.449 9.7393 19.9545 9.74282 19.4583 9.74282C19.2764 8.34163 18.7255 7.16047 17.945 6.04973C18.1586 5.8473 18.3423 5.67831 18.5206 5.5058C18.699 5.33154 18.8932 5.16783 19.0451 4.9742C19.1952 4.78409 19.3559 4.57461 19.4212 4.34753C19.5466 3.90746 19.3382 3.49203 18.948 3.26672C18.5489 3.03612 18.1145 3.06428 17.733 3.42514C17.3198 3.81769 16.9561 4.26128 16.5693 4.68551C15.3933 3.79304 14.166 3.31072 12.8204 3.09245C12.8204 2.7844 12.8204 2.52212 12.8204 2.25983C12.8204 1.98171 12.8328 1.70182 12.8151 1.42546C12.7762 0.793513 12.363 0.383366 11.7909 0.385126C11.2134 0.386886 10.8073 0.800554 10.7826 1.43602C10.7649 1.87433 10.7667 2.3144 10.7826 2.75447C10.7914 2.99915 10.7278 3.12061 10.4612 3.16286C10.101 3.22095 9.73012 3.2896 9.39813 3.43218C8.60879 3.77192 7.83887 4.15742 6.95593 4.57461C6.65573 4.256 6.30433 3.84233 5.9123 3.47267C5.34016 2.93402 4.57024 3.04316 4.24002 3.68039C4.02459 4.09581 4.11111 4.53765 4.5155 4.95307C4.88103 5.32801 5.26599 5.68535 5.65095 6.05853C4.8775 7.13407 4.36363 8.25361 4.15703 9.50694C4.14113 9.60023 3.94159 9.72169 3.81975 9.73049C3.39594 9.75866 2.9686 9.73577 2.54302 9.74282C2.07506 9.75162 1.67245 9.90124 1.46407 10.3589C1.15505 11.0366 1.62477 11.7284 2.44413 11.7847C2.88207 11.8147 3.3253 11.8041 3.765 11.79C4.02988 11.7812 4.16586 11.8516 4.20117 12.1403C4.23826 12.4431 4.30359 12.7529 4.42367 13.031C4.77508 13.8425 5.15828 14.6435 5.58738 15.5746Z" fill="#FC6161" stroke="#FC6161" stroke-width="0.5"/>
<path d="M25.2166 19.694C29.9439 19.7257 33.7829 23.5737 33.7458 28.2402C33.7087 32.9666 29.868 36.7829 25.1831 36.7495C20.4559 36.716 16.6133 32.8716 16.6433 28.205C16.6751 23.498 20.5389 19.6624 25.2166 19.694ZM18.0225 28.2279C18.026 32.1692 21.254 35.387 25.2043 35.3835C29.1439 35.3817 32.3843 32.1481 32.3879 28.2174C32.3914 24.299 29.1263 21.0512 25.1955 21.0618C21.2381 21.0706 18.019 24.2866 18.0225 28.2279Z" fill="#FC6161" stroke="#FC6161" stroke-width="0.5"/>
<path d="M11.7819 16.4216C8.63158 16.4128 6.10462 13.8832 6.10639 10.7429C6.10992 7.59373 8.67926 5.04483 11.8349 5.0642C14.9569 5.0818 17.5121 7.66062 17.498 10.7763C17.4821 13.9026 14.9234 16.4304 11.7819 16.4216ZM11.8137 6.44602C9.52158 6.39145 7.52791 8.33305 7.46611 10.6778C7.4043 12.9855 9.36618 15.0133 11.7113 15.0679C14.0722 15.1225 16.0359 13.2214 16.1189 10.801C16.1966 8.47211 14.2523 6.50411 11.8137 6.44602Z" fill="#FC6161" stroke="#FC6161" stroke-width="0.5"/>
</g>
<defs>
<clipPath id="clip0_65_343">
<rect width="41" height="45" fill="white"/>
</clipPath>
</defs>
</svg>
