<?xml version="1.0" encoding="utf-8"?>
<!-- Generator: Adobe Illustrator 25.3.1, SVG Export Plug-In . SVG Version: 6.00 Build 0)  -->
<svg version="1.1" id="圖層_1" xmlns="http://www.w3.org/2000/svg" xmlns:xlink="http://www.w3.org/1999/xlink" x="0px" y="0px"
	 viewBox="0 0 200 170" style="enable-background:new 0 0 200 170;" xml:space="preserve">
<style type="text/css">
	.st0{clip-path:url(#SVGID_2_);}
	.st1{fill:url(#SVGID_3_);}
	.st2{fill:url(#SVGID_4_);}
	.st3{fill:url(#SVGID_5_);}
	.st4{fill:url(#SVGID_6_);}
	.st5{fill:url(#SVGID_7_);}
	.st6{fill:#FFFFFF;}
	.st7{fill:url(#SVGID_8_);}
</style>
<g>
	<defs>
		<rect id="SVGID_1_" x="0.1" y="0" width="199.9" height="170"/>
	</defs>
	<clipPath id="SVGID_2_">
		<use xlink:href="#SVGID_1_"  style="overflow:visible;"/>
	</clipPath>
	<g class="st0">
		
			<linearGradient id="SVGID_3_" gradientUnits="userSpaceOnUse" x1="51.5237" y1="108.6702" x2="238.7508" y2="-0.1288" gradientTransform="matrix(1 0 0 -1 0 171)">
			<stop  offset="0" style="stop-color:#76A7D4"/>
			<stop  offset="0.2383" style="stop-color:#72ADD3"/>
			<stop  offset="0.5412" style="stop-color:#68BCD2"/>
			<stop  offset="0.6667" style="stop-color:#62C5D1"/>
			<stop  offset="0.9394" style="stop-color:#619ACC"/>
			<stop  offset="0.9644" style="stop-color:#649CCE"/>
			<stop  offset="0.9808" style="stop-color:#6CA3D3"/>
			<stop  offset="0.9848" style="stop-color:#70A6D5"/>
		</linearGradient>
		<path class="st1" d="M68.6,113.5c3.3-1.9,6.5-2.9,9.4-3.1c0-0.2,0-0.4,0-0.6c0-28.5,20.1-63.3,44.9-77.6c20-11.5,36.9-6.3,42.7,11
			c1.5-1.2,3.1-2.3,4.7-3.2c16.4-9.5,29.6-1.9,29.6,16.9s-13.3,41.7-29.6,51.2c-8.2,4.7-92,53.2-101.7,58.8
			c-12.8,7.4-23.2,1.5-23.2-13.2C45.4,138.8,55.8,120.9,68.6,113.5z"/>
		
			<linearGradient id="SVGID_4_" gradientUnits="userSpaceOnUse" x1="81.5583" y1="-18.5699" x2="170.1088" y2="160.2955" gradientTransform="matrix(1 0 0 -1 0 171)">
			<stop  offset="3.030000e-02" style="stop-color:#681DC9"/>
			<stop  offset="0.2071" style="stop-color:#5F41CC"/>
			<stop  offset="0.6017" style="stop-color:#479DD4"/>
			<stop  offset="1" style="stop-color:#2DFFDD"/>
		</linearGradient>
		<path class="st2" d="M58.2,161.3c1.6,0,3.8-0.7,6.1-2L166,100.4c13.7-7.9,25.3-27.9,25.3-43.6c0-4.6-1-12.3-7.6-12.3
			c-2.6,0-5.7,1-8.9,2.9c-1.1,0.7-2.3,1.5-3.8,2.6c-4.7,3.6-11.6,1.5-13.5-4.1c-2.5-7.4-7.3-11.2-14.3-11.2c-4.7,0-10.1,1.7-15.8,5
			c-22,12.7-40.5,44.7-40.6,69.9l0,0.8c0,4.6-3.5,8.4-8.1,8.7c-1.6,0.1-3.6,0.8-5.6,2c-10,5.8-18.9,21-18.9,32.5
			c0,3,0.6,5.4,1.6,6.7C56.1,160.8,56.7,161.3,58.2,161.3z"/>
		
			<linearGradient id="SVGID_5_" gradientUnits="userSpaceOnUse" x1="149.4447" y1="131.4668" x2="165.8801" y2="121.9164" gradientTransform="matrix(1 0 0 -1 0 171)">
			<stop  offset="0" style="stop-color:#1D054D"/>
			<stop  offset="0.5" style="stop-color:#37108A"/>
			<stop  offset="1" style="stop-color:#1D054D"/>
		</linearGradient>
		<path class="st3" d="M155.9,44c-0.7-2-1.5-3.7-2.5-5.2c1.7,1.8,3,4.1,4,7c0.2,0.6,0.5,1.2,0.8,1.7C157.2,46.7,156.4,45.5,155.9,44
			z"/>
		
			<linearGradient id="SVGID_6_" gradientUnits="userSpaceOnUse" x1="73.7817" y1="95.6335" x2="212.3425" y2="15.1148" gradientTransform="matrix(1 0 0 -1 0 171)">
			<stop  offset="0" style="stop-color:#1D054D"/>
			<stop  offset="0.5" style="stop-color:#37108A"/>
			<stop  offset="1" style="stop-color:#1D054D"/>
		</linearGradient>
		<path class="st4" d="M56.7,159.5c1.6,0,3.8-0.7,6.1-2l101.7-58.8c13.7-7.9,25.3-27.9,25.3-43.6c0-2.6-0.3-6.2-1.8-8.9
			c2.8,2.5,3.3,7.4,3.3,10.7c0,15.7-11.6,35.7-25.3,43.6L64.2,159.3c-2.2,1.3-4.4,2-6.1,2c-1.4,0-2-0.5-2.5-1.1
			c-0.2-0.3-0.5-0.7-0.7-1.1C55.4,159.3,55.9,159.5,56.7,159.5z"/>
		
			<linearGradient id="SVGID_7_" gradientUnits="userSpaceOnUse" x1="137.3209" y1="165.0461" x2="43.2879" y2="9.4134" gradientTransform="matrix(1 0 0 -1 0 171)">
			<stop  offset="0" style="stop-color:#76A7D4"/>
			<stop  offset="1.080000e-02" style="stop-color:#7CABD7"/>
			<stop  offset="2.460000e-02" style="stop-color:#8BB7DE"/>
			<stop  offset="3.030000e-02" style="stop-color:#94BDE2"/>
			<stop  offset="5.410000e-02" style="stop-color:#92BCE1"/>
			<stop  offset="6.270000e-02" style="stop-color:#8BB7DE"/>
			<stop  offset="6.880000e-02" style="stop-color:#80AFD8"/>
			<stop  offset="7.070000e-02" style="stop-color:#7AABD5"/>
			<stop  offset="8.480000e-02" style="stop-color:#84B1D8"/>
			<stop  offset="0.109" style="stop-color:#9FC3E1"/>
			<stop  offset="0.1403" style="stop-color:#CCDFEF"/>
			<stop  offset="0.1717" style="stop-color:#FFFFFF"/>
			<stop  offset="0.1918" style="stop-color:#F5F9FD"/>
			<stop  offset="0.2254" style="stop-color:#DBEAF6"/>
			<stop  offset="0.2682" style="stop-color:#B1D1EC"/>
			<stop  offset="0.303" style="stop-color:#8AB9E3"/>
			<stop  offset="0.378" style="stop-color:#71BBD7"/>
			<stop  offset="0.4701" style="stop-color:#59BDCC"/>
			<stop  offset="0.5553" style="stop-color:#4ABFC5"/>
			<stop  offset="0.6263" style="stop-color:#45BFC3"/>
			<stop  offset="0.6496" style="stop-color:#47BFC4"/>
			<stop  offset="0.658" style="stop-color:#4EC1C7"/>
			<stop  offset="0.6639" style="stop-color:#59C3CD"/>
			<stop  offset="0.6667" style="stop-color:#62C5D1"/>
			<stop  offset="0.7778" style="stop-color:#A2CAF0"/>
			<stop  offset="0.794" style="stop-color:#98C3EB"/>
			<stop  offset="0.8532" style="stop-color:#7AADDA"/>
			<stop  offset="0.9037" style="stop-color:#689FD0"/>
			<stop  offset="0.9394" style="stop-color:#619ACC"/>
			<stop  offset="0.9644" style="stop-color:#649CCE"/>
			<stop  offset="0.9808" style="stop-color:#6CA3D3"/>
			<stop  offset="0.9848" style="stop-color:#70A6D5"/>
		</linearGradient>
		<path class="st5" d="M0.1,127.2c0-14.7,10.4-32.7,23.2-40.1c3.3-1.9,6.5-2.9,9.4-3.1c0-0.2,0-0.4,0-0.6
			c0-28.5,20.1-63.3,44.9-77.6c13.9-8.1,26.1-7,34.6-1.3l14.3,8.2c8.1-4.2,15.3-4.2,20.4-0.7l42.9,25c-5.2-2.3-12.1-1.5-19.6,2.8
			c-1.6,0.9-3.2,2-4.7,3.2c-5.9-17.3-22.8-22.5-42.7-11C98.1,46.4,78,81.2,78,109.7c0,0.2,0,0.4,0,0.6c-2.9,0.2-6.1,1.2-9.4,3.1
			c-12.8,7.4-23.2,25.4-23.2,40.1c0,6.2,1.9,10.9,5,13.6L7.6,142.6l0-0.1C3,140.4,0.1,135,0.1,127.2z"/>
		<path class="st6" d="M171.1,41.1c-1.6,0.9-3.2,2-4.7,3.2c-0.3-1-0.7-2-1.1-2.9c1.2-0.9,2.4-1.7,3.6-2.4c10.3-6,19.4-5.1,24.7,1
			C188.1,35.9,180.1,35.9,171.1,41.1z"/>
		<path class="st6" d="M67.1,112.6c3.3-1.9,6.5-2.9,9.4-3.1c0-0.2,0-0.4,0-0.6c0-28.5,20.1-63.3,44.9-77.6
			c15.2-8.8,28.7-7.8,36.8,0.8c-8.2-6.7-20.7-6.8-34.6,1.3c-24.8,14.3-44.9,49.1-44.9,77.6c0,0.2,0,0.4,0,0.6
			c-2.9,0.2-6.1,1.2-9.4,3.1c-12.8,7.4-23.2,25.4-23.2,40.1c0,5.3,1.3,9.4,3.7,12.2c-3.6-2.6-5.9-7.5-5.9-14.3
			C43.9,137.9,54.3,120,67.1,112.6z"/>
		
			<linearGradient id="SVGID_8_" gradientUnits="userSpaceOnUse" x1="101.7552" y1="42.4859" x2="186.5876" y2="200.3846" gradientTransform="matrix(1 0 0 -1 0 171)">
			<stop  offset="9.600000e-02" style="stop-color:#37108A"/>
			<stop  offset="1" style="stop-color:#681DC9"/>
		</linearGradient>
		<path class="st7" d="M111.3,83.8l0.3-0.2v-9.2c0-5.9,4.1-13,9.2-16l6.4-3.7c5.1-3,9.2-0.6,9.2,5.3v9.2l0.3-0.2
			c2.4-1.4,4.3-0.3,4.3,2.5v21.7c0,2.7-1.9,6.1-4.3,7.4l-25.5,14.8c-2.4,1.4-4.3,0.3-4.3-2.5V91.2C107,88.5,108.9,85.1,111.3,83.8z
			 M122.5,94.6v7.1l3.2-1.9v-7.1c1.3-1.4,2.1-3.4,2.1-5.1c0-2.4-1.7-3.3-3.7-2.1c-2.1,1.2-3.7,4.1-3.7,6.5
			C120.3,93.6,121.2,94.6,122.5,94.6z M117,80.5l14.2-8.2v-7.3c0-3.3-2.3-4.7-5.3-3l-3.6,2.1c-2.9,1.7-5.3,5.8-5.3,9.1V80.5z"/>
	</g>
</g>
</svg>
